solid upper-bearing-clip
facet normal -1.11436679756186e-017 -2.31285327089485e-016 1.0
outer loop
vertex -4.0 -1.89040624886695e-015 9.0
vertex -5.42585449897558 1.45385333124929 9.0
vertex -5.6172579211603 1.01342545466565e-015 9.0
endloop
endfacet
facet normal -1.11436679756186e-017 -2.31285327089485e-016 1.0
outer loop
vertex -5.42585449897558 1.45385333124929 9.0
vertex -4.0 -1.89040624886695e-015 9.0
vertex -4.86468805933419 2.80862896058015 9.0
endloop
endfacet
facet normal -1.11436679756186e-017 -2.31285327089485e-016 1.0
outer loop
vertex -4.86468805933419 2.80862896058015 9.0
vertex -4.0 -1.89040624886695e-015 9.0
vertex -4.4 3.41422222996081 9.0
endloop
endfacet
facet normal -1.11436679756186e-017 -2.31285327089485e-016 1.0
outer loop
vertex -4.4 3.41422222996081 9.0
vertex -4.0 -1.89040624886695e-015 9.0
vertex -3.81133891095815 3.99907202467886 9.0
endloop
endfacet
facet normal -1.11436679756186e-017 -2.31285327089485e-016 1.0
outer loop
vertex -3.81133891095815 3.99907202467886 9.0
vertex -4.0 -1.89040624886695e-015 9.0
vertex -3.86370330515627 1.03527618041008 9.0
endloop
endfacet
facet normal -1.11436679756186e-017 -2.31285327089485e-016 1.0
outer loop
vertex -3.81133891095815 3.99907202467886 9.0
vertex -3.86370330515627 1.03527618041008 9.0
vertex -3.46410161513775 2.0 9.0
endloop
endfacet
facet normal -1.11436679756186e-017 -2.31285327089485e-016 1.0
outer loop
vertex -3.81133891095815 3.99907202467886 9.0
vertex -3.46410161513775 2.0 9.0
vertex -3.14572922533447 4.49458681410258 9.0
endloop
endfacet
facet normal -1.11436679756186e-017 -2.31285327089485e-016 1.0
outer loop
vertex -3.14572922533447 4.49458681410258 9.0
vertex -3.46410161513775 2.0 9.0
vertex -2.82842712474619 2.82842712474619 9.0
endloop
endfacet
facet normal -1.11436679756186e-017 -2.31285327089485e-016 1.0
outer loop
vertex -3.14572922533447 4.49458681410258 9.0
vertex -2.82842712474619 2.82842712474619 9.0
vertex -2.41660919471891 4.89076245834242 9.0
endloop
endfacet
facet normal -1.11436679756186e-017 -2.31285327089485e-016 1.0
outer loop
vertex -2.41660919471891 4.89076245834242 9.0
vertex -2.82842712474619 2.82842712474619 9.0
vertex -2.0 3.46410161513775 9.0
endloop
endfacet
facet normal -1.11436679756186e-017 -2.31285327089485e-016 1.0
outer loop
vertex -2.41660919471891 4.89076245834242 9.0
vertex -2.0 3.46410161513775 9.0
vertex -1.63869930564031 5.17960041396356 9.0
endloop
endfacet
facet normal -1.11436679756186e-017 -2.31285327089485e-016 1.0
outer loop
vertex -1.63869930564031 5.17960041396356 9.0
vertex -2.0 3.46410161513775 9.0
vertex -1.03527618041008 3.86370330515627 9.0
endloop
endfacet
facet normal -1.11436679756186e-017 -2.31285327089485e-016 1.0
outer loop
vertex -1.63869930564031 5.17960041396356 9.0
vertex -1.03527618041008 3.86370330515627 9.0
vertex -0.827705081965775 5.35526921967539 9.0
endloop
endfacet
facet normal -1.11436679756186e-017 -2.31285327089485e-016 1.0
outer loop
vertex -0.827705081965775 5.35526921967539 9.0
vertex -1.03527618041008 3.86370330515627 9.0
vertex 5.29199650403959e-016 4.0 9.0
endloop
endfacet
facet normal -1.11436679756186e-017 -2.31285327089485e-016 1.0
outer loop
vertex -0.827705081965775 5.35526921967539 9.0
vertex 5.29199650403959e-016 4.0 9.0
vertex 4.48631031314439e-017 5.41422222996081 9.0
endloop
endfacet
facet normal -1.11436679756186e-017 -2.31285327089485e-016 1.0
outer loop
vertex 4.48631031314439e-017 5.41422222996081 9.0
vertex 5.29199650403959e-016 4.0 9.0
vertex 0.827705081965777 5.35526921967539 9.0
endloop
endfacet
facet normal -1.11436679756186e-017 -2.31285327089485e-016 1.0
outer loop
vertex 0.827705081965777 5.35526921967539 9.0
vertex 5.29199650403959e-016 4.0 9.0
vertex 1.03527618041008 3.86370330515627 9.0
endloop
endfacet
facet normal -1.11436679756186e-017 -2.31285327089485e-016 1.0
outer loop
vertex 0.827705081965777 5.35526921967539 9.0
vertex 1.03527618041008 3.86370330515627 9.0
vertex 1.63869930564031 5.17960041396356 9.0
endloop
endfacet
facet normal -1.11436679756186e-017 -2.31285327089485e-016 1.0
outer loop
vertex 1.63869930564031 5.17960041396356 9.0
vertex 1.03527618041008 3.86370330515627 9.0
vertex 2.0 3.46410161513775 9.0
endloop
endfacet
facet normal -1.11436679756186e-017 -2.31285327089485e-016 1.0
outer loop
vertex 1.63869930564031 5.17960041396356 9.0
vertex 2.0 3.46410161513775 9.0
vertex 2.41660919471892 4.89076245834242 9.0
endloop
endfacet
facet normal -1.11436679756186e-017 -2.31285327089485e-016 1.0
outer loop
vertex 2.41660919471892 4.89076245834242 9.0
vertex 2.0 3.46410161513775 9.0
vertex 2.82842712474619 2.82842712474619 9.0
endloop
endfacet
facet normal -1.11436679756186e-017 -2.31285327089485e-016 1.0
outer loop
vertex 2.41660919471892 4.89076245834242 9.0
vertex 2.82842712474619 2.82842712474619 9.0
vertex 3.14572922533447 4.49458681410258 9.0
endloop
endfacet
facet normal -1.11436679756186e-017 -2.31285327089485e-016 1.0
outer loop
vertex 3.14572922533447 4.49458681410258 9.0
vertex 2.82842712474619 2.82842712474619 9.0
vertex 3.46410161513775 2.0 9.0
endloop
endfacet
facet normal -1.11436679756186e-017 -2.31285327089485e-016 1.0
outer loop
vertex 3.14572922533447 4.49458681410258 9.0
vertex 3.46410161513775 2.0 9.0
vertex 3.81133891095815 3.99907202467886 9.0
endloop
endfacet
facet normal -1.11436679756186e-017 -2.31285327089485e-016 1.0
outer loop
vertex 3.81133891095815 3.99907202467886 9.0
vertex 3.46410161513775 2.0 9.0
vertex 3.86370330515627 1.03527618041008 9.0
endloop
endfacet
facet normal -1.11436679756186e-017 -2.31285327089485e-016 1.0
outer loop
vertex 3.81133891095815 3.99907202467886 9.0
vertex 3.86370330515627 1.03527618041008 9.0
vertex 4.4 3.41422222996081 9.0
endloop
endfacet
facet normal -1.11436679756186e-017 -2.31285327089485e-016 1.0
outer loop
vertex 4.4 3.41422222996081 9.0
vertex 3.86370330515627 1.03527618041008 9.0
vertex 4.0 -7.48123666779325e-015 9.0
endloop
endfacet
facet normal -1.11436679756186e-017 -2.31285327089485e-016 1.0
outer loop
vertex 4.4 3.41422222996081 9.0
vertex 4.0 -7.48123666779325e-015 9.0
vertex 5.6172579211603 7.49053596926785e-015 9.0
endloop
endfacet
facet normal -1.11436679756186e-017 -2.31285327089485e-016 1.0
outer loop
vertex 4.4 3.41422222996081 9.0
vertex 5.6172579211603 7.49053596926785e-015 9.0
vertex 4.86468805933419 2.80862896058016 9.0
endloop
endfacet
facet normal -1.11436679756186e-017 -2.31285327089485e-016 1.0
outer loop
vertex 4.86468805933419 2.80862896058016 9.0
vertex 5.6172579211603 7.49053596926785e-015 9.0
vertex 5.42585449897558 1.45385333124928 9.0
endloop
endfacet
facet normal 0.965925826289068 0.258819045102521 0.0
outer loop
vertex 5.42585449897558 1.45385333124928 8.0
vertex 5.6172579211603 7.49053596926785e-015 9.0
vertex 5.6172579211603 7.49053596926785e-015 8.0
endloop
endfacet
facet normal 0.99144486137381 0.130526192220052 0.0
outer loop
vertex 5.6172579211603 7.49053596926785e-015 9.0
vertex 5.42585449897558 1.45385333124928 8.0
vertex 5.42585449897558 1.45385333124928 9.0
endloop
endfacet
facet normal -0.965925826289068 0.258819045102521 0.0
outer loop
vertex -5.42585449897558 1.45385333124929 9.0
vertex -5.6172579211603 1.01342545466565e-015 8.0
vertex -5.6172579211603 1.01342545466565e-015 9.0
endloop
endfacet
facet normal -0.99144486137381 0.130526192220052 0.0
outer loop
vertex -5.6172579211603 1.01342545466565e-015 8.0
vertex -5.42585449897558 1.45385333124929 9.0
vertex -5.42585449897558 1.45385333124929 8.0
endloop
endfacet
facet normal -0.923879532511287 0.38268343236509 0.0
outer loop
vertex -4.86468805933419 2.80862896058015 9.0
vertex -5.42585449897558 1.45385333124929 8.0
vertex -5.42585449897558 1.45385333124929 9.0
endloop
endfacet
facet normal -0.965925826289068 0.258819045102521 0.0
outer loop
vertex -5.42585449897558 1.45385333124929 8.0
vertex -4.86468805933419 2.80862896058015 9.0
vertex -4.86468805933419 2.80862896058015 8.0
endloop
endfacet
facet normal -0.793353340291235 0.608761429008721 -8.70861262190877e-019
outer loop
vertex -4.4 3.41422222996081 9.0
vertex -4.86468805933419 2.80862896058015 8.0
vertex -4.86468805933419 2.80862896058015 9.0
endloop
endfacet
facet normal -0.793353340291235 0.608761429008721 -8.70861262190877e-019
outer loop
vertex -4.86468805933419 2.80862896058015 8.0
vertex -4.4 3.41422222996081 9.0
vertex -4.86468805933419 2.80862896058015 7.55
endloop
endfacet
facet normal -0.793353340291235 0.608761429008721 -8.70861262190877e-019
outer loop
vertex -4.86468805933419 2.80862896058015 7.55
vertex -4.4 3.41422222996081 9.0
vertex -4.86468805933419 2.80862896058015 0.650000000000004
endloop
endfacet
facet normal -0.793353340291235 0.608761429008721 -8.70861262190877e-019
outer loop
vertex -4.86468805933419 2.80862896058015 0.650000000000004
vertex -4.4 3.41422222996081 0.2
vertex -4.86468805933419 2.80862896058015 0.2
endloop
endfacet
facet normal -0.793353340291235 0.608761429008721 -8.70861262190877e-019
outer loop
vertex -4.4 3.41422222996081 0.2
vertex -4.86468805933419 2.80862896058015 0.650000000000004
vertex -4.4 3.41422222996081 9.0
endloop
endfacet
facet normal -0.793353340291235 0.608761429008721 -8.70861262190877e-019
outer loop
vertex -4.4 3.41422222996081 0.2
vertex -4.4 3.41422222996081 9.0
vertex -4.4 3.41422222996081 8.0
endloop
endfacet
facet normal 0.793353340291235 0.60876142900872 2.90287087396962e-019
outer loop
vertex 4.4 3.41422222996081 0.2
vertex 4.86468805933419 2.80862896058016 0.650000000000004
vertex 4.86468805933419 2.80862896058016 0.2
endloop
endfacet
facet normal 0.793353340291235 0.60876142900872 2.90287087396962e-019
outer loop
vertex 4.86468805933419 2.80862896058016 0.650000000000004
vertex 4.4 3.41422222996081 0.2
vertex 4.86468805933419 2.80862896058016 7.55
endloop
endfacet
facet normal 0.793353340291235 0.60876142900872 2.90287087396962e-019
outer loop
vertex 4.86468805933419 2.80862896058016 7.55
vertex 4.4 3.41422222996081 0.2
vertex 4.86468805933419 2.80862896058016 8.0
endloop
endfacet
facet normal 0.793353340291235 0.60876142900872 2.90287087396962e-019
outer loop
vertex 4.86468805933419 2.80862896058016 8.0
vertex 4.4 3.41422222996081 0.2
vertex 4.86468805933419 2.80862896058016 9.0
endloop
endfacet
facet normal 0.793353340291235 0.60876142900872 2.90287087396962e-019
outer loop
vertex 4.86468805933419 2.80862896058016 9.0
vertex 4.4 3.41422222996081 0.2
vertex 4.4 3.41422222996081 9.0
endloop
endfacet
facet normal 0.793353340291235 0.60876142900872 2.90287087396962e-019
outer loop
vertex 4.4 3.41422222996081 9.0
vertex 4.4 3.41422222996081 0.2
vertex 4.4 3.41422222996081 8.0
endloop
endfacet
facet normal 0.923879532511287 0.38268343236509 0.0
outer loop
vertex 4.86468805933419 2.80862896058016 8.0
vertex 5.42585449897558 1.45385333124928 9.0
vertex 5.42585449897558 1.45385333124928 8.0
endloop
endfacet
facet normal 0.965925826289068 0.258819045102521 0.0
outer loop
vertex 5.42585449897558 1.45385333124928 9.0
vertex 4.86468805933419 2.80862896058016 8.0
vertex 4.86468805933419 2.80862896058016 9.0
endloop
endfacet
facet normal 6.72040233082755e-018 3.54124574157577e-016 1.0
outer loop
vertex -5.6172579211603 1.01342545466565e-015 8.0
vertex -26.6 4.30000000000001 8.0
vertex -26.6 1.70682095063416e-015 8.0
endloop
endfacet
facet normal 6.72040233082755e-018 3.54124574157577e-016 1.0
outer loop
vertex -26.6 4.30000000000001 8.0
vertex -5.6172579211603 1.01342545466565e-015 8.0
vertex -11.1646880593342 2.80862896058015 8.0
endloop
endfacet
facet normal 6.72040233082755e-018 3.54124574157577e-016 1.0
outer loop
vertex -11.1646880593342 2.80862896058015 8.0
vertex -5.6172579211603 1.01342545466565e-015 8.0
vertex -5.42585449897558 1.45385333124929 8.0
endloop
endfacet
facet normal 6.72040233082755e-018 3.54124574157577e-016 1.0
outer loop
vertex -11.1646880593342 2.80862896058015 8.0
vertex -5.42585449897558 1.45385333124929 8.0
vertex -4.86468805933419 2.80862896058015 8.0
endloop
endfacet
facet normal 6.72040233082755e-018 3.54124574157577e-016 1.0
outer loop
vertex -11.1646880593342 4.30000000000001 8.0
vertex -26.6 4.30000000000001 8.0
vertex -11.1646880593342 2.80862896058015 8.0
endloop
endfacet
facet normal -0.0 1.0 -0.0
outer loop
vertex 4.86468805933419 2.80862896058016 8.0
vertex 11.5646880593342 2.80862896058016 7.55
vertex 4.86468805933419 2.80862896058016 7.55
endloop
endfacet
facet normal -0.0 1.0 -0.0
outer loop
vertex 11.5646880593342 2.80862896058016 7.55
vertex 4.86468805933419 2.80862896058016 8.0
vertex 11.5646880593342 2.80862896058016 8.0
endloop
endfacet
facet normal 0.965925826289068 3.57363084839697e-032 0.258819045102522
outer loop
vertex 6.56579931990059 1.80862896058016 3.71177143234622
vertex 6.51468805933419 0.00862896058015655 4.1
vertex 6.56579931990059 0.00862896058015655 3.71177143234622
endloop
endfacet
facet normal 1.0 0.0 2.49511077078113e-016
outer loop
vertex 6.51468805933419 0.00862896058015655 4.1
vertex 6.56579931990059 1.80862896058016 3.71177143234622
vertex 6.51468805933419 1.80862896058016 4.1
endloop
endfacet
facet normal 1.0 0.0 2.49511077078113e-016
outer loop
vertex 6.51468805933419 1.80862896058016 4.1
vertex 6.56579931990059 0.00862896058015655 4.48822856765378
vertex 6.51468805933419 0.00862896058015655 4.1
endloop
endfacet
facet normal 0.965925826289068 4.31375403055742e-032 -0.258819045102522
outer loop
vertex 6.56579931990059 0.00862896058015655 4.48822856765378
vertex 6.51468805933419 1.80862896058016 4.1
vertex 6.56579931990059 1.80862896058016 4.48822856765378
endloop
endfacet
facet normal 0.965925826289068 4.31375403055742e-032 -0.258819045102522
outer loop
vertex 6.56579931990059 1.80862896058016 4.48822856765378
vertex 6.71564995365753 0.00862896058015655 4.85
vertex 6.56579931990059 0.00862896058015655 4.48822856765378
endloop
endfacet
facet normal 0.866025403784438 1.24500765099748e-032 -0.500000000000001
outer loop
vertex 6.71564995365753 0.00862896058015655 4.85
vertex 6.56579931990059 1.80862896058016 4.48822856765378
vertex 6.71564995365753 1.80862896058016 4.85
endloop
endfacet
facet normal 0.866025403784438 1.24500765099748e-032 -0.500000000000001
outer loop
vertex 6.71564995365753 1.80862896058016 4.85
vertex 6.95402788755437 0.00862896058015655 5.16066017177982
vertex 6.71564995365753 0.00862896058015655 4.85
endloop
endfacet
facet normal 0.707106781186547 -1.53437318977997e-032 -0.707106781186548
outer loop
vertex 6.95402788755437 0.00862896058015655 5.16066017177982
vertex 6.71564995365753 1.80862896058016 4.85
vertex 6.95402788755437 1.80862896058016 5.16066017177982
endloop
endfacet
facet normal 0.499999999999999 3.01461955410086e-032 -0.866025403784439
outer loop
vertex 7.26468805933419 1.80862896058016 5.39903810567666
vertex 6.95402788755437 0.00862896058015655 5.16066017177982
vertex 6.95402788755437 1.80862896058016 5.16066017177982
endloop
endfacet
facet normal 0.707106781186547 -1.53437318977997e-032 -0.707106781186548
outer loop
vertex 6.95402788755437 0.00862896058015655 5.16066017177982
vertex 7.26468805933419 1.80862896058016 5.39903810567666
vertex 7.26468805933419 0.00862896058015655 5.39903810567666
endloop
endfacet
facet normal 0.25881904510252 1.98513083315793e-032 -0.965925826289068
outer loop
vertex 7.62645949168041 1.80862896058016 5.5488887394336
vertex 7.26468805933419 0.00862896058015655 5.39903810567666
vertex 7.26468805933419 1.80862896058016 5.39903810567666
endloop
endfacet
facet normal 0.499999999999999 3.01461955410086e-032 -0.866025403784439
outer loop
vertex 7.26468805933419 0.00862896058015655 5.39903810567666
vertex 7.62645949168041 1.80862896058016 5.5488887394336
vertex 7.62645949168041 0.00862896058015655 5.5488887394336
endloop
endfacet
facet normal 4.81199934364933e-016 3.77842409260711e-047 -1.0
outer loop
vertex 8.01468805933419 1.80862896058016 5.6
vertex 7.62645949168041 0.00862896058015655 5.5488887394336
vertex 7.62645949168041 1.80862896058016 5.5488887394336
endloop
endfacet
facet normal 0.25881904510252 1.98513083315793e-032 -0.965925826289068
outer loop
vertex 7.62645949168041 0.00862896058015655 5.5488887394336
vertex 8.01468805933419 1.80862896058016 5.6
vertex 8.01468805933419 0.00862896058015655 5.6
endloop
endfacet
facet normal -0.258819045102522 -5.04884468837034e-033 -0.965925826289068
outer loop
vertex 8.40291662698797 1.80862896058016 5.5488887394336
vertex 8.01468805933419 0.00862896058015655 5.6
vertex 8.01468805933419 1.80862896058016 5.6
endloop
endfacet
facet normal 4.81199934364933e-016 3.77842409260711e-047 -1.0
outer loop
vertex 8.01468805933419 0.00862896058015655 5.6
vertex 8.40291662698797 1.80862896058016 5.5488887394336
vertex 8.40291662698797 0.00862896058015655 5.5488887394336
endloop
endfacet
facet normal -0.500000000000001 1.65699527825024e-018 -0.866025403784438
outer loop
vertex 8.76468805933419 1.80862896058016 5.39903810567666
vertex 8.40291662698797 0.00862896058015655 5.5488887394336
vertex 8.40291662698797 1.80862896058016 5.5488887394336
endloop
endfacet
facet normal -0.258819045102522 -5.04884468837034e-033 -0.965925826289068
outer loop
vertex 8.40291662698797 0.00862896058015655 5.5488887394336
vertex 8.76468805933419 1.80862896058016 5.39903810567666
vertex 8.76468805933419 0.00862896058015655 5.39903810567666
endloop
endfacet
facet normal -0.707106781186547 3.31399055650053e-018 -0.707106781186548
outer loop
vertex 9.07534823111401 1.80862896058016 5.16066017177982
vertex 8.76468805933419 0.00862896058015655 5.39903810567666
vertex 8.76468805933419 1.80862896058016 5.39903810567666
endloop
endfacet
facet normal -0.500000000000001 1.65699527825024e-018 -0.866025403784438
outer loop
vertex 8.76468805933419 0.00862896058015655 5.39903810567666
vertex 9.07534823111401 1.80862896058016 5.16066017177982
vertex 9.07534823111401 0.00862896058015655 5.16066017177982
endloop
endfacet
facet normal -0.707106781186547 3.31399055650053e-018 -0.707106781186548
outer loop
vertex 9.07534823111401 1.80862896058016 5.16066017177982
vertex 9.31372616501085 0.00862896058015655 4.85
vertex 9.07534823111401 0.00862896058015655 5.16066017177982
endloop
endfacet
facet normal -0.866025403784439 1.65699527825029e-018 -0.5
outer loop
vertex 9.31372616501085 0.00862896058015655 4.85
vertex 9.07534823111401 1.80862896058016 5.16066017177982
vertex 9.31372616501085 1.80862896058016 4.85
endloop
endfacet
facet normal -0.866025403784439 1.65699527825029e-018 -0.5
outer loop
vertex 9.31372616501085 1.80862896058016 4.85
vertex 9.46357679876779 0.00862896058015655 4.48822856765378
vertex 9.31372616501085 0.00862896058015655 4.85
endloop
endfacet
facet normal -0.965925826289069 -7.92239879565845e-032 -0.25881904510252
outer loop
vertex 9.46357679876779 0.00862896058015655 4.48822856765378
vertex 9.31372616501085 1.80862896058016 4.85
vertex 9.46357679876779 1.80862896058016 4.48822856765378
endloop
endfacet
facet normal -0.965925826289069 -7.92239879565845e-032 -0.25881904510252
outer loop
vertex 9.46357679876779 1.80862896058016 4.48822856765378
vertex 9.51468805933419 0.00862896058015655 4.1
vertex 9.46357679876779 0.00862896058015655 4.48822856765378
endloop
endfacet
facet normal -1.0 -7.92239879565845e-032 -1.1584442864341e-016
outer loop
vertex 9.51468805933419 0.00862896058015655 4.1
vertex 9.46357679876779 1.80862896058016 4.48822856765378
vertex 9.51468805933419 1.80862896058016 4.1
endloop
endfacet
facet normal -1.0 -7.92239879565845e-032 -1.1584442864341e-016
outer loop
vertex 9.51468805933419 1.80862896058016 4.1
vertex 9.46357679876779 0.00862896058015655 3.71177143234622
vertex 9.51468805933419 0.00862896058015655 4.1
endloop
endfacet
facet normal -0.965925826289068 4.31375403055742e-032 0.258819045102521
outer loop
vertex 9.46357679876779 0.00862896058015655 3.71177143234622
vertex 9.51468805933419 1.80862896058016 4.1
vertex 9.46357679876779 1.80862896058016 3.71177143234622
endloop
endfacet
facet normal -0.965925826289068 4.31375403055742e-032 0.258819045102521
outer loop
vertex 9.46357679876779 1.80862896058016 3.71177143234622
vertex 9.31372616501084 0.00862896058015655 3.35
vertex 9.46357679876779 0.00862896058015655 3.71177143234622
endloop
endfacet
facet normal -0.866025403784438 6.76416928479515e-034 0.500000000000001
outer loop
vertex 9.31372616501084 0.00862896058015655 3.35
vertex 9.46357679876779 1.80862896058016 3.71177143234622
vertex 9.31372616501084 1.80862896058016 3.35
endloop
endfacet
facet normal -0.866025403784438 6.76416928479515e-034 0.500000000000001
outer loop
vertex 9.31372616501084 1.80862896058016 3.35
vertex 9.07534823111401 0.00862896058015655 3.03933982822018
vertex 9.31372616501084 0.00862896058015655 3.35
endloop
endfacet
facet normal -0.707106781186548 -1.6569952782503e-018 0.707106781186547
outer loop
vertex 9.07534823111401 0.00862896058015655 3.03933982822018
vertex 9.31372616501084 1.80862896058016 3.35
vertex 9.07534823111401 1.80862896058016 3.03933982822018
endloop
endfacet
facet normal -0.707106781186548 -1.6569952782503e-018 0.707106781186547
outer loop
vertex 9.07534823111401 0.00862896058015655 3.03933982822018
vertex 8.76468805933419 1.80862896058016 2.80096189432334
vertex 8.76468805933419 0.00862896058015655 2.80096189432334
endloop
endfacet
facet normal -0.5 -1.65699527825027e-018 0.866025403784438
outer loop
vertex 8.76468805933419 1.80862896058016 2.80096189432334
vertex 9.07534823111401 0.00862896058015655 3.03933982822018
vertex 9.07534823111401 1.80862896058016 3.03933982822018
endloop
endfacet
facet normal -0.5 -1.65699527825027e-018 0.866025403784438
outer loop
vertex 8.76468805933419 0.00862896058015655 2.80096189432334
vertex 8.40291662698797 1.80862896058016 2.6511112605664
vertex 8.40291662698797 0.00862896058015655 2.6511112605664
endloop
endfacet
facet normal -0.258819045102521 -1.4802463643209e-032 0.965925826289068
outer loop
vertex 8.40291662698797 1.80862896058016 2.6511112605664
vertex 8.76468805933419 0.00862896058015655 2.80096189432334
vertex 8.76468805933419 1.80862896058016 2.80096189432334
endloop
endfacet
facet normal -0.258819045102521 -1.4802463643209e-032 0.965925826289068
outer loop
vertex 8.40291662698797 0.00862896058015655 2.6511112605664
vertex 8.01468805933419 1.80862896058016 2.6
vertex 8.01468805933419 0.00862896058015655 2.6
endloop
endfacet
facet normal 0.0 0.0 1.0
outer loop
vertex 8.01468805933419 1.80862896058016 2.6
vertex 8.40291662698797 0.00862896058015655 2.6511112605664
vertex 8.40291662698797 1.80862896058016 2.6511112605664
endloop
endfacet
facet normal 0.0 0.0 1.0
outer loop
vertex 8.01468805933419 0.00862896058015655 2.6
vertex 7.62645949168041 1.80862896058016 2.6511112605664
vertex 7.62645949168041 0.00862896058015655 2.6511112605664
endloop
endfacet
facet normal 0.258819045102521 1.25735957478131e-018 0.965925826289068
outer loop
vertex 7.62645949168041 1.80862896058016 2.6511112605664
vertex 8.01468805933419 0.00862896058015655 2.6
vertex 8.01468805933419 1.80862896058016 2.6
endloop
endfacet
facet normal 0.258819045102521 1.25735957478131e-018 0.965925826289068
outer loop
vertex 7.62645949168041 0.00862896058015655 2.6511112605664
vertex 7.26468805933419 1.80862896058016 2.80096189432334
vertex 7.26468805933419 0.00862896058015655 2.80096189432334
endloop
endfacet
facet normal 0.5 2.91435485303158e-018 0.866025403784438
outer loop
vertex 7.26468805933419 1.80862896058016 2.80096189432334
vertex 7.62645949168041 0.00862896058015655 2.6511112605664
vertex 7.62645949168041 1.80862896058016 2.6511112605664
endloop
endfacet
facet normal 0.5 2.91435485303158e-018 0.866025403784438
outer loop
vertex 7.26468805933419 0.00862896058015655 2.80096189432334
vertex 6.95402788755437 1.80862896058016 3.03933982822018
vertex 6.95402788755437 0.00862896058015655 3.03933982822018
endloop
endfacet
facet normal 0.707106781186548 1.65699527825031e-018 0.707106781186547
outer loop
vertex 6.95402788755437 1.80862896058016 3.03933982822018
vertex 7.26468805933419 0.00862896058015655 2.80096189432334
vertex 7.26468805933419 1.80862896058016 2.80096189432334
endloop
endfacet
facet normal 0.707106781186548 1.65699527825031e-018 0.707106781186547
outer loop
vertex 6.95402788755437 1.80862896058016 3.03933982822018
vertex 6.71564995365753 0.00862896058015655 3.35
vertex 6.95402788755437 0.00862896058015655 3.03933982822018
endloop
endfacet
facet normal 0.866025403784438 6.64237722795691e-032 0.5
outer loop
vertex 6.71564995365753 0.00862896058015655 3.35
vertex 6.95402788755437 1.80862896058016 3.03933982822018
vertex 6.71564995365753 1.80862896058016 3.35
endloop
endfacet
facet normal 0.866025403784438 6.64237722795691e-032 0.5
outer loop
vertex 6.71564995365753 1.80862896058016 3.35
vertex 6.56579931990059 0.00862896058015655 3.71177143234622
vertex 6.71564995365753 0.00862896058015655 3.35
endloop
endfacet
facet normal 0.965925826289068 3.57363084839697e-032 0.258819045102522
outer loop
vertex 6.56579931990059 0.00862896058015655 3.71177143234622
vertex 6.71564995365753 1.80862896058016 3.35
vertex 6.56579931990059 1.80862896058016 3.71177143234622
endloop
endfacet
facet normal 0.965925826289069 0.0 0.25881904510252
outer loop
vertex -9.46357679876779 1.80862896058016 3.71177143234622
vertex -9.51468805933419 0.00862896058015672 4.1
vertex -9.46357679876779 0.00862896058015672 3.71177143234622
endloop
endfacet
facet normal 1.0 0.0 2.49511077078113e-016
outer loop
vertex -9.51468805933419 0.00862896058015672 4.1
vertex -9.46357679876779 1.80862896058016 3.71177143234622
vertex -9.51468805933419 1.80862896058016 4.1
endloop
endfacet
facet normal 1.0 0.0 2.49511077078113e-016
outer loop
vertex -9.51468805933419 1.80862896058016 4.1
vertex -9.46357679876779 0.00862896058015672 4.48822856765378
vertex -9.51468805933419 0.00862896058015672 4.1
endloop
endfacet
facet normal 0.965925826289068 0.0 -0.25881904510252
outer loop
vertex -9.46357679876779 0.00862896058015672 4.48822856765378
vertex -9.51468805933419 1.80862896058016 4.1
vertex -9.46357679876779 1.80862896058016 4.48822856765378
endloop
endfacet
facet normal 0.965925826289068 0.0 -0.25881904510252
outer loop
vertex -9.46357679876779 1.80862896058016 4.48822856765378
vertex -9.31372616501085 0.00862896058015672 4.85
vertex -9.46357679876779 0.00862896058015672 4.48822856765378
endloop
endfacet
facet normal 0.866025403784438 0.0 -0.500000000000001
outer loop
vertex -9.31372616501085 0.00862896058015672 4.85
vertex -9.46357679876779 1.80862896058016 4.48822856765378
vertex -9.31372616501085 1.80862896058016 4.85
endloop
endfacet
facet normal 0.866025403784438 0.0 -0.500000000000001
outer loop
vertex -9.31372616501085 1.80862896058016 4.85
vertex -9.07534823111401 0.00862896058015672 5.16066017177982
vertex -9.31372616501085 0.00862896058015672 4.85
endloop
endfacet
facet normal 0.707106781186546 0.0 -0.707106781186549
outer loop
vertex -9.07534823111401 0.00862896058015672 5.16066017177982
vertex -9.31372616501085 1.80862896058016 4.85
vertex -9.07534823111401 1.80862896058016 5.16066017177982
endloop
endfacet
facet normal 0.499999999999999 0.0 -0.866025403784439
outer loop
vertex -8.76468805933419 1.80862896058016 5.39903810567666
vertex -9.07534823111401 0.00862896058015672 5.16066017177982
vertex -9.07534823111401 1.80862896058016 5.16066017177982
endloop
endfacet
facet normal 0.707106781186546 0.0 -0.707106781186549
outer loop
vertex -9.07534823111401 0.00862896058015672 5.16066017177982
vertex -8.76468805933419 1.80862896058016 5.39903810567666
vertex -8.76468805933419 0.00862896058015672 5.39903810567666
endloop
endfacet
facet normal 0.258819045102521 0.0 -0.965925826289068
outer loop
vertex -8.40291662698797 1.80862896058016 5.5488887394336
vertex -8.76468805933419 0.00862896058015672 5.39903810567666
vertex -8.76468805933419 1.80862896058016 5.39903810567666
endloop
endfacet
facet normal 0.499999999999999 0.0 -0.866025403784439
outer loop
vertex -8.76468805933419 0.00862896058015672 5.39903810567666
vertex -8.40291662698797 1.80862896058016 5.5488887394336
vertex -8.40291662698797 0.00862896058015672 5.5488887394336
endloop
endfacet
facet normal 0.0 0.0 -1.0
outer loop
vertex -8.01468805933419 1.80862896058016 5.6
vertex -8.40291662698797 0.00862896058015672 5.5488887394336
vertex -8.40291662698797 1.80862896058016 5.5488887394336
endloop
endfacet
facet normal 0.258819045102521 0.0 -0.965925826289068
outer loop
vertex -8.40291662698797 0.00862896058015672 5.5488887394336
vertex -8.01468805933419 1.80862896058016 5.6
vertex -8.01468805933419 0.00862896058015672 5.6
endloop
endfacet
facet normal -0.258819045102521 0.0 -0.965925826289068
outer loop
vertex -7.62645949168041 1.80862896058016 5.5488887394336
vertex -8.01468805933419 0.00862896058015672 5.6
vertex -8.01468805933419 1.80862896058016 5.6
endloop
endfacet
facet normal 0.0 0.0 -1.0
outer loop
vertex -8.01468805933419 0.00862896058015672 5.6
vertex -7.62645949168041 1.80862896058016 5.5488887394336
vertex -7.62645949168041 0.00862896058015672 5.5488887394336
endloop
endfacet
facet normal -0.499999999999999 0.0 -0.866025403784439
outer loop
vertex -7.26468805933419 1.80862896058016 5.39903810567666
vertex -7.62645949168041 0.00862896058015672 5.5488887394336
vertex -7.62645949168041 1.80862896058016 5.5488887394336
endloop
endfacet
facet normal -0.258819045102521 0.0 -0.965925826289068
outer loop
vertex -7.62645949168041 0.00862896058015672 5.5488887394336
vertex -7.26468805933419 1.80862896058016 5.39903810567666
vertex -7.26468805933419 0.00862896058015672 5.39903810567666
endloop
endfacet
facet normal -0.707106781186548 0.0 -0.707106781186547
outer loop
vertex -6.95402788755437 1.80862896058016 5.16066017177982
vertex -7.26468805933419 0.00862896058015672 5.39903810567666
vertex -7.26468805933419 1.80862896058016 5.39903810567666
endloop
endfacet
facet normal -0.499999999999999 0.0 -0.866025403784439
outer loop
vertex -7.26468805933419 0.00862896058015672 5.39903810567666
vertex -6.95402788755437 1.80862896058016 5.16066017177982
vertex -6.95402788755437 0.00862896058015672 5.16066017177982
endloop
endfacet
facet normal -0.707106781186548 0.0 -0.707106781186547
outer loop
vertex -6.95402788755437 1.80862896058016 5.16066017177982
vertex -6.71564995365753 0.00862896058015672 4.85
vertex -6.95402788755437 0.00862896058015672 5.16066017177982
endloop
endfacet
facet normal -0.86602540378444 0.0 -0.499999999999997
outer loop
vertex -6.71564995365753 0.00862896058015672 4.85
vertex -6.95402788755437 1.80862896058016 5.16066017177982
vertex -6.71564995365753 1.80862896058016 4.85
endloop
endfacet
facet normal -0.86602540378444 0.0 -0.499999999999997
outer loop
vertex -6.71564995365753 1.80862896058016 4.85
vertex -6.56579931990059 0.00862896058015672 4.48822856765378
vertex -6.71564995365753 0.00862896058015672 4.85
endloop
endfacet
facet normal -0.965925826289069 0.0 -0.25881904510252
outer loop
vertex -6.56579931990059 0.00862896058015672 4.48822856765378
vertex -6.71564995365753 1.80862896058016 4.85
vertex -6.56579931990059 1.80862896058016 4.48822856765378
endloop
endfacet
facet normal -0.965925826289069 0.0 -0.25881904510252
outer loop
vertex -6.56579931990059 1.80862896058016 4.48822856765378
vertex -6.51468805933419 0.00862896058015672 4.1
vertex -6.56579931990059 0.00862896058015672 4.48822856765378
endloop
endfacet
facet normal -1.0 0.0 -1.1584442864341e-016
outer loop
vertex -6.51468805933419 0.00862896058015672 4.1
vertex -6.56579931990059 1.80862896058016 4.48822856765378
vertex -6.51468805933419 1.80862896058016 4.1
endloop
endfacet
facet normal -1.0 0.0 -1.1584442864341e-016
outer loop
vertex -6.51468805933419 1.80862896058016 4.1
vertex -6.56579931990059 0.00862896058015672 3.71177143234622
vertex -6.51468805933419 0.00862896058015672 4.1
endloop
endfacet
facet normal -0.965925826289068 0.0 0.258819045102523
outer loop
vertex -6.56579931990059 0.00862896058015672 3.71177143234622
vertex -6.51468805933419 1.80862896058016 4.1
vertex -6.56579931990059 1.80862896058016 3.71177143234622
endloop
endfacet
facet normal -0.965925826289068 0.0 0.258819045102523
outer loop
vertex -6.56579931990059 1.80862896058016 3.71177143234622
vertex -6.71564995365753 0.00862896058015672 3.35
vertex -6.56579931990059 0.00862896058015672 3.71177143234622
endloop
endfacet
facet normal -0.86602540378444 0.0 0.499999999999998
outer loop
vertex -6.71564995365753 0.00862896058015672 3.35
vertex -6.56579931990059 1.80862896058016 3.71177143234622
vertex -6.71564995365753 1.80862896058016 3.35
endloop
endfacet
facet normal -0.86602540378444 0.0 0.499999999999998
outer loop
vertex -6.71564995365753 1.80862896058016 3.35
vertex -6.95402788755437 0.00862896058015672 3.03933982822018
vertex -6.71564995365753 0.00862896058015672 3.35
endloop
endfacet
facet normal -0.70710678118655 0.0 0.707106781186545
outer loop
vertex -6.95402788755437 0.00862896058015672 3.03933982822018
vertex -6.71564995365753 1.80862896058016 3.35
vertex -6.95402788755437 1.80862896058016 3.03933982822018
endloop
endfacet
facet normal -0.70710678118655 0.0 0.707106781186545
outer loop
vertex -6.95402788755437 0.00862896058015672 3.03933982822018
vertex -7.26468805933419 1.80862896058016 2.80096189432334
vertex -7.26468805933419 0.00862896058015672 2.80096189432334
endloop
endfacet
facet normal -0.499999999999998 0.0 0.86602540378444
outer loop
vertex -7.26468805933419 1.80862896058016 2.80096189432334
vertex -6.95402788755437 0.00862896058015672 3.03933982822018
vertex -6.95402788755437 1.80862896058016 3.03933982822018
endloop
endfacet
facet normal -0.499999999999998 0.0 0.86602540378444
outer loop
vertex -7.26468805933419 0.00862896058015672 2.80096189432334
vertex -7.62645949168041 1.80862896058016 2.6511112605664
vertex -7.62645949168041 0.00862896058015672 2.6511112605664
endloop
endfacet
facet normal -0.25881904510252 0.0 0.965925826289068
outer loop
vertex -7.62645949168041 1.80862896058016 2.6511112605664
vertex -7.26468805933419 0.00862896058015672 2.80096189432334
vertex -7.26468805933419 1.80862896058016 2.80096189432334
endloop
endfacet
facet normal -0.25881904510252 0.0 0.965925826289068
outer loop
vertex -7.62645949168041 0.00862896058015672 2.6511112605664
vertex -8.01468805933419 1.80862896058016 2.6
vertex -8.01468805933419 0.00862896058015672 2.6
endloop
endfacet
facet normal 0.0 0.0 1.0
outer loop
vertex -8.01468805933419 1.80862896058016 2.6
vertex -7.62645949168041 0.00862896058015672 2.6511112605664
vertex -7.62645949168041 1.80862896058016 2.6511112605664
endloop
endfacet
facet normal 0.0 0.0 1.0
outer loop
vertex -8.01468805933419 0.00862896058015672 2.6
vertex -8.40291662698797 1.80862896058016 2.6511112605664
vertex -8.40291662698797 0.00862896058015672 2.6511112605664
endloop
endfacet
facet normal 0.25881904510252 0.0 0.965925826289068
outer loop
vertex -8.40291662698797 1.80862896058016 2.6511112605664
vertex -8.01468805933419 0.00862896058015672 2.6
vertex -8.01468805933419 1.80862896058016 2.6
endloop
endfacet
facet normal 0.25881904510252 0.0 0.965925826289068
outer loop
vertex -8.40291662698797 0.00862896058015672 2.6511112605664
vertex -8.76468805933419 1.80862896058016 2.80096189432334
vertex -8.76468805933419 0.00862896058015672 2.80096189432334
endloop
endfacet
facet normal 0.500000000000001 0.0 0.866025403784438
outer loop
vertex -8.76468805933419 1.80862896058016 2.80096189432334
vertex -8.40291662698797 0.00862896058015672 2.6511112605664
vertex -8.40291662698797 1.80862896058016 2.6511112605664
endloop
endfacet
facet normal 0.500000000000001 0.0 0.866025403784438
outer loop
vertex -8.76468805933419 0.00862896058015672 2.80096189432334
vertex -9.07534823111401 1.80862896058016 3.03933982822018
vertex -9.07534823111401 0.00862896058015672 3.03933982822018
endloop
endfacet
facet normal 0.707106781186548 0.0 0.707106781186547
outer loop
vertex -9.07534823111401 1.80862896058016 3.03933982822018
vertex -8.76468805933419 0.00862896058015672 2.80096189432334
vertex -8.76468805933419 1.80862896058016 2.80096189432334
endloop
endfacet
facet normal 0.707106781186548 0.0 0.707106781186547
outer loop
vertex -9.07534823111401 1.80862896058016 3.03933982822018
vertex -9.31372616501085 0.00862896058015672 3.35
vertex -9.07534823111401 0.00862896058015672 3.03933982822018
endloop
endfacet
facet normal 0.866025403784438 0.0 0.5
outer loop
vertex -9.31372616501085 0.00862896058015672 3.35
vertex -9.07534823111401 1.80862896058016 3.03933982822018
vertex -9.31372616501085 1.80862896058016 3.35
endloop
endfacet
facet normal 0.866025403784438 0.0 0.5
outer loop
vertex -9.31372616501085 1.80862896058016 3.35
vertex -9.46357679876779 0.00862896058015672 3.71177143234622
vertex -9.31372616501085 0.00862896058015672 3.35
endloop
endfacet
facet normal 0.965925826289069 0.0 0.25881904510252
outer loop
vertex -9.46357679876779 0.00862896058015672 3.71177143234622
vertex -9.31372616501085 1.80862896058016 3.35
vertex -9.46357679876779 1.80862896058016 3.71177143234622
endloop
endfacet
facet normal -0.0 1.0 -0.0
outer loop
vertex 4.86468805933419 2.80862896058016 0.650000000000004
vertex 11.5646880593342 2.80862896058016 0.2
vertex 4.86468805933419 2.80862896058016 0.2
endloop
endfacet
facet normal -0.0 1.0 -0.0
outer loop
vertex 11.5646880593342 2.80862896058016 0.2
vertex 4.86468805933419 2.80862896058016 0.650000000000004
vertex 11.5646880593342 2.80862896058016 0.650000000000002
endloop
endfacet
facet normal -0.0 1.0 -0.0
outer loop
vertex 4.86468805933419 1.80862896058016 0.650000000000004
vertex 7.62645949168041 1.80862896058016 2.6511112605664
vertex 8.01468805933419 1.80862896058016 2.6
endloop
endfacet
facet normal -0.0 1.0 -0.0
outer loop
vertex 7.62645949168041 1.80862896058016 2.6511112605664
vertex 4.86468805933419 1.80862896058016 0.650000000000004
vertex 7.26468805933419 1.80862896058016 2.80096189432334
endloop
endfacet
facet normal -0.0 1.0 -0.0
outer loop
vertex 7.26468805933419 1.80862896058016 2.80096189432334
vertex 4.86468805933419 1.80862896058016 0.650000000000004
vertex 6.95402788755437 1.80862896058016 3.03933982822018
endloop
endfacet
facet normal -0.0 1.0 -0.0
outer loop
vertex 6.95402788755437 1.80862896058016 3.03933982822018
vertex 4.86468805933419 1.80862896058016 0.650000000000004
vertex 6.71564995365753 1.80862896058016 3.35
endloop
endfacet
facet normal -0.0 1.0 -0.0
outer loop
vertex 6.71564995365753 1.80862896058016 3.35
vertex 4.86468805933419 1.80862896058016 0.650000000000004
vertex 4.86468805933419 1.80862896058016 7.55
endloop
endfacet
facet normal -0.0 1.0 -0.0
outer loop
vertex 6.71564995365753 1.80862896058016 3.35
vertex 4.86468805933419 1.80862896058016 7.55
vertex 6.56579931990059 1.80862896058016 3.71177143234622
endloop
endfacet
facet normal -0.0 1.0 -0.0
outer loop
vertex 6.56579931990059 1.80862896058016 3.71177143234622
vertex 4.86468805933419 1.80862896058016 7.55
vertex 6.51468805933419 1.80862896058016 4.1
endloop
endfacet
facet normal -0.0 1.0 -0.0
outer loop
vertex 6.51468805933419 1.80862896058016 4.1
vertex 4.86468805933419 1.80862896058016 7.55
vertex 6.56579931990059 1.80862896058016 4.48822856765378
endloop
endfacet
facet normal -0.0 1.0 -0.0
outer loop
vertex 6.56579931990059 1.80862896058016 4.48822856765378
vertex 4.86468805933419 1.80862896058016 7.55
vertex 6.71564995365753 1.80862896058016 4.85
endloop
endfacet
facet normal -0.0 1.0 -0.0
outer loop
vertex 6.71564995365753 1.80862896058016 4.85
vertex 4.86468805933419 1.80862896058016 7.55
vertex 6.95402788755437 1.80862896058016 5.16066017177982
endloop
endfacet
facet normal -0.0 1.0 -0.0
outer loop
vertex 6.95402788755437 1.80862896058016 5.16066017177982
vertex 4.86468805933419 1.80862896058016 7.55
vertex 7.26468805933419 1.80862896058016 5.39903810567666
endloop
endfacet
facet normal -0.0 1.0 -0.0
outer loop
vertex 7.26468805933419 1.80862896058016 5.39903810567666
vertex 4.86468805933419 1.80862896058016 7.55
vertex 7.62645949168041 1.80862896058016 5.5488887394336
endloop
endfacet
facet normal -0.0 1.0 -0.0
outer loop
vertex 7.62645949168041 1.80862896058016 5.5488887394336
vertex 4.86468805933419 1.80862896058016 7.55
vertex 8.01468805933419 1.80862896058016 5.6
endloop
endfacet
facet normal -0.0 1.0 -0.0
outer loop
vertex 11.5646880593342 1.80862896058016 0.650000000000002
vertex 9.31372616501084 1.80862896058016 3.35
vertex 11.5646880593342 1.80862896058016 7.55
endloop
endfacet
facet normal -0.0 1.0 -0.0
outer loop
vertex 9.31372616501084 1.80862896058016 3.35
vertex 11.5646880593342 1.80862896058016 0.650000000000002
vertex 9.07534823111401 1.80862896058016 3.03933982822018
endloop
endfacet
facet normal -0.0 1.0 -0.0
outer loop
vertex 9.07534823111401 1.80862896058016 3.03933982822018
vertex 11.5646880593342 1.80862896058016 0.650000000000002
vertex 8.76468805933419 1.80862896058016 2.80096189432334
endloop
endfacet
facet normal -0.0 1.0 -0.0
outer loop
vertex 8.76468805933419 1.80862896058016 2.80096189432334
vertex 11.5646880593342 1.80862896058016 0.650000000000002
vertex 4.86468805933419 1.80862896058016 0.650000000000004
endloop
endfacet
facet normal -0.0 1.0 -0.0
outer loop
vertex 8.76468805933419 1.80862896058016 2.80096189432334
vertex 4.86468805933419 1.80862896058016 0.650000000000004
vertex 8.40291662698797 1.80862896058016 2.6511112605664
endloop
endfacet
facet normal -0.0 1.0 -0.0
outer loop
vertex 8.40291662698797 1.80862896058016 2.6511112605664
vertex 4.86468805933419 1.80862896058016 0.650000000000004
vertex 8.01468805933419 1.80862896058016 2.6
endloop
endfacet
facet normal -0.0 1.0 -0.0
outer loop
vertex 11.5646880593342 1.80862896058016 7.55
vertex 9.31372616501084 1.80862896058016 3.35
vertex 9.46357679876779 1.80862896058016 3.71177143234622
endloop
endfacet
facet normal -0.0 1.0 -0.0
outer loop
vertex 11.5646880593342 1.80862896058016 7.55
vertex 9.46357679876779 1.80862896058016 3.71177143234622
vertex 9.51468805933419 1.80862896058016 4.1
endloop
endfacet
facet normal -0.0 1.0 -0.0
outer loop
vertex 11.5646880593342 1.80862896058016 7.55
vertex 9.51468805933419 1.80862896058016 4.1
vertex 9.46357679876779 1.80862896058016 4.48822856765378
endloop
endfacet
facet normal -0.0 1.0 -0.0
outer loop
vertex 11.5646880593342 1.80862896058016 7.55
vertex 9.46357679876779 1.80862896058016 4.48822856765378
vertex 9.31372616501085 1.80862896058016 4.85
endloop
endfacet
facet normal -0.0 1.0 -0.0
outer loop
vertex 11.5646880593342 1.80862896058016 7.55
vertex 9.31372616501085 1.80862896058016 4.85
vertex 9.07534823111401 1.80862896058016 5.16066017177982
endloop
endfacet
facet normal -0.0 1.0 -0.0
outer loop
vertex 11.5646880593342 1.80862896058016 7.55
vertex 9.07534823111401 1.80862896058016 5.16066017177982
vertex 8.76468805933419 1.80862896058016 5.39903810567666
endloop
endfacet
facet normal -0.0 1.0 -0.0
outer loop
vertex 11.5646880593342 1.80862896058016 7.55
vertex 8.76468805933419 1.80862896058016 5.39903810567666
vertex 8.40291662698797 1.80862896058016 5.5488887394336
endloop
endfacet
facet normal -0.0 1.0 -0.0
outer loop
vertex 11.5646880593342 1.80862896058016 7.55
vertex 8.40291662698797 1.80862896058016 5.5488887394336
vertex 8.01468805933419 1.80862896058016 5.6
endloop
endfacet
facet normal -0.0 1.0 -0.0
outer loop
vertex 11.5646880593342 1.80862896058016 7.55
vertex 8.01468805933419 1.80862896058016 5.6
vertex 4.86468805933419 1.80862896058016 7.55
endloop
endfacet
facet normal 4.61601656369447e-016 0.0 1.0
outer loop
vertex 11.5646880593342 1.80862896058016 0.650000000000002
vertex 4.86468805933419 2.80862896058016 0.650000000000004
vertex 4.86468805933419 1.80862896058016 0.650000000000004
endloop
endfacet
facet normal 4.61601656369447e-016 0.0 1.0
outer loop
vertex 4.86468805933419 2.80862896058016 0.650000000000004
vertex 11.5646880593342 1.80862896058016 0.650000000000002
vertex 11.5646880593342 2.80862896058016 0.650000000000002
endloop
endfacet
facet normal 1.0 -0.0 -0.0
outer loop
vertex 4.86468805933419 2.80862896058016 0.650000000000004
vertex 4.86468805933419 1.80862896058016 7.55
vertex 4.86468805933419 1.80862896058016 0.650000000000004
endloop
endfacet
facet normal 1.0 -0.0 -0.0
outer loop
vertex 4.86468805933419 1.80862896058016 7.55
vertex 4.86468805933419 2.80862896058016 0.650000000000004
vertex 4.86468805933419 2.80862896058016 7.55
endloop
endfacet
facet normal 0.0 0.0 -1.0
outer loop
vertex 11.5646880593342 2.80862896058016 7.55
vertex 4.86468805933419 1.80862896058016 7.55
vertex 4.86468805933419 2.80862896058016 7.55
endloop
endfacet
facet normal 0.0 0.0 -1.0
outer loop
vertex 4.86468805933419 1.80862896058016 7.55
vertex 11.5646880593342 2.80862896058016 7.55
vertex 11.5646880593342 1.80862896058016 7.55
endloop
endfacet
facet normal -3.65737724564626e-033 1.0 1.62690373993148e-015
outer loop
vertex -11.1646880593342 2.80862896058015 8.0
vertex -4.86468805933419 2.80862896058015 7.55
vertex -11.1646880593342 2.80862896058015 7.55
endloop
endfacet
facet normal -3.65737724564626e-033 1.0 1.62690373993148e-015
outer loop
vertex -4.86468805933419 2.80862896058015 7.55
vertex -11.1646880593342 2.80862896058015 8.0
vertex -4.86468805933419 2.80862896058015 8.0
endloop
endfacet
facet normal 3.74813438470481e-031 1.0 -1.62690373993147e-015
outer loop
vertex -11.1646880593342 2.80862896058015 0.650000000000002
vertex -4.86468805933419 2.80862896058015 0.2
vertex -11.1646880593342 2.80862896058015 0.2
endloop
endfacet
facet normal 3.74813438470481e-031 1.0 -1.62690373993147e-015
outer loop
vertex -4.86468805933419 2.80862896058015 0.2
vertex -11.1646880593342 2.80862896058015 0.650000000000002
vertex -4.86468805933419 2.80862896058015 0.650000000000004
endloop
endfacet
facet normal -0.0 1.0 -0.0
outer loop
vertex -11.1646880593342 1.80862896058016 0.650000000000002
vertex -8.76468805933419 1.80862896058016 2.80096189432334
vertex -4.86468805933419 1.80862896058016 0.650000000000004
endloop
endfacet
facet normal -0.0 1.0 -0.0
outer loop
vertex -8.76468805933419 1.80862896058016 2.80096189432334
vertex -11.1646880593342 1.80862896058016 0.650000000000002
vertex -9.07534823111401 1.80862896058016 3.03933982822018
endloop
endfacet
facet normal -0.0 1.0 -0.0
outer loop
vertex -9.07534823111401 1.80862896058016 3.03933982822018
vertex -11.1646880593342 1.80862896058016 0.650000000000002
vertex -9.31372616501085 1.80862896058016 3.35
endloop
endfacet
facet normal -0.0 1.0 -0.0
outer loop
vertex -9.31372616501085 1.80862896058016 3.35
vertex -11.1646880593342 1.80862896058016 0.650000000000002
vertex -11.1646880593342 1.80862896058016 7.55
endloop
endfacet
facet normal -0.0 1.0 -0.0
outer loop
vertex -4.86468805933419 1.80862896058016 0.650000000000004
vertex -8.76468805933419 1.80862896058016 2.80096189432334
vertex -8.40291662698797 1.80862896058016 2.6511112605664
endloop
endfacet
facet normal -0.0 1.0 -0.0
outer loop
vertex -4.86468805933419 1.80862896058016 0.650000000000004
vertex -8.40291662698797 1.80862896058016 2.6511112605664
vertex -8.01468805933419 1.80862896058016 2.6
endloop
endfacet
facet normal -0.0 1.0 -0.0
outer loop
vertex -9.31372616501085 1.80862896058016 3.35
vertex -11.1646880593342 1.80862896058016 7.55
vertex -9.46357679876779 1.80862896058016 3.71177143234622
endloop
endfacet
facet normal -0.0 1.0 -0.0
outer loop
vertex -9.46357679876779 1.80862896058016 3.71177143234622
vertex -11.1646880593342 1.80862896058016 7.55
vertex -9.51468805933419 1.80862896058016 4.1
endloop
endfacet
facet normal -0.0 1.0 -0.0
outer loop
vertex -9.51468805933419 1.80862896058016 4.1
vertex -11.1646880593342 1.80862896058016 7.55
vertex -9.46357679876779 1.80862896058016 4.48822856765378
endloop
endfacet
facet normal -0.0 1.0 -0.0
outer loop
vertex -9.46357679876779 1.80862896058016 4.48822856765378
vertex -11.1646880593342 1.80862896058016 7.55
vertex -9.31372616501085 1.80862896058016 4.85
endloop
endfacet
facet normal -0.0 1.0 -0.0
outer loop
vertex -9.31372616501085 1.80862896058016 4.85
vertex -11.1646880593342 1.80862896058016 7.55
vertex -9.07534823111401 1.80862896058016 5.16066017177982
endloop
endfacet
facet normal -0.0 1.0 -0.0
outer loop
vertex -9.07534823111401 1.80862896058016 5.16066017177982
vertex -11.1646880593342 1.80862896058016 7.55
vertex -8.76468805933419 1.80862896058016 5.39903810567666
endloop
endfacet
facet normal -0.0 1.0 -0.0
outer loop
vertex -8.76468805933419 1.80862896058016 5.39903810567666
vertex -11.1646880593342 1.80862896058016 7.55
vertex -8.40291662698797 1.80862896058016 5.5488887394336
endloop
endfacet
facet normal -0.0 1.0 -0.0
outer loop
vertex -8.40291662698797 1.80862896058016 5.5488887394336
vertex -11.1646880593342 1.80862896058016 7.55
vertex -8.01468805933419 1.80862896058016 5.6
endloop
endfacet
facet normal -0.0 1.0 -0.0
outer loop
vertex -4.86468805933419 1.80862896058016 0.650000000000004
vertex -6.71564995365753 1.80862896058016 3.35
vertex -4.86468805933419 1.80862896058016 7.55
endloop
endfacet
facet normal -0.0 1.0 -0.0
outer loop
vertex -6.71564995365753 1.80862896058016 3.35
vertex -4.86468805933419 1.80862896058016 0.650000000000004
vertex -6.95402788755437 1.80862896058016 3.03933982822018
endloop
endfacet
facet normal -0.0 1.0 -0.0
outer loop
vertex -6.95402788755437 1.80862896058016 3.03933982822018
vertex -4.86468805933419 1.80862896058016 0.650000000000004
vertex -7.26468805933419 1.80862896058016 2.80096189432334
endloop
endfacet
facet normal -0.0 1.0 -0.0
outer loop
vertex -7.26468805933419 1.80862896058016 2.80096189432334
vertex -4.86468805933419 1.80862896058016 0.650000000000004
vertex -7.62645949168041 1.80862896058016 2.6511112605664
endloop
endfacet
facet normal -0.0 1.0 -0.0
outer loop
vertex -7.62645949168041 1.80862896058016 2.6511112605664
vertex -4.86468805933419 1.80862896058016 0.650000000000004
vertex -8.01468805933419 1.80862896058016 2.6
endloop
endfacet
facet normal -0.0 1.0 -0.0
outer loop
vertex -4.86468805933419 1.80862896058016 7.55
vertex -6.71564995365753 1.80862896058016 3.35
vertex -6.56579931990059 1.80862896058016 3.71177143234622
endloop
endfacet
facet normal -0.0 1.0 -0.0
outer loop
vertex -4.86468805933419 1.80862896058016 7.55
vertex -6.56579931990059 1.80862896058016 3.71177143234622
vertex -6.51468805933419 1.80862896058016 4.1
endloop
endfacet
facet normal -0.0 1.0 -0.0
outer loop
vertex -4.86468805933419 1.80862896058016 7.55
vertex -6.51468805933419 1.80862896058016 4.1
vertex -6.56579931990059 1.80862896058016 4.48822856765378
endloop
endfacet
facet normal -0.0 1.0 -0.0
outer loop
vertex -4.86468805933419 1.80862896058016 7.55
vertex -6.56579931990059 1.80862896058016 4.48822856765378
vertex -6.71564995365753 1.80862896058016 4.85
endloop
endfacet
facet normal -0.0 1.0 -0.0
outer loop
vertex -4.86468805933419 1.80862896058016 7.55
vertex -6.71564995365753 1.80862896058016 4.85
vertex -6.95402788755437 1.80862896058016 5.16066017177982
endloop
endfacet
facet normal -0.0 1.0 -0.0
outer loop
vertex -4.86468805933419 1.80862896058016 7.55
vertex -6.95402788755437 1.80862896058016 5.16066017177982
vertex -7.26468805933419 1.80862896058016 5.39903810567666
endloop
endfacet
facet normal -0.0 1.0 -0.0
outer loop
vertex -4.86468805933419 1.80862896058016 7.55
vertex -7.26468805933419 1.80862896058016 5.39903810567666
vertex -7.62645949168041 1.80862896058016 5.5488887394336
endloop
endfacet
facet normal -0.0 1.0 -0.0
outer loop
vertex -4.86468805933419 1.80862896058016 7.55
vertex -7.62645949168041 1.80862896058016 5.5488887394336
vertex -8.01468805933419 1.80862896058016 5.6
endloop
endfacet
facet normal -0.0 1.0 -0.0
outer loop
vertex -4.86468805933419 1.80862896058016 7.55
vertex -8.01468805933419 1.80862896058016 5.6
vertex -11.1646880593342 1.80862896058016 7.55
endloop
endfacet
facet normal -1.0 -0.0 -0.0
outer loop
vertex -4.86468805933419 2.80862896058015 7.55
vertex -4.86468805933419 1.80862896058016 0.650000000000004
vertex -4.86468805933419 1.80862896058016 7.55
endloop
endfacet
facet normal -1.0 -0.0 -0.0
outer loop
vertex -4.86468805933419 1.80862896058016 0.650000000000004
vertex -4.86468805933419 2.80862896058015 7.55
vertex -4.86468805933419 2.80862896058015 0.650000000000004
endloop
endfacet
facet normal -4.61601656369447e-016 -0.0 1.0
outer loop
vertex -4.86468805933419 1.80862896058016 0.650000000000004
vertex -11.1646880593342 2.80862896058015 0.650000000000002
vertex -11.1646880593342 1.80862896058016 0.650000000000002
endloop
endfacet
facet normal -4.61601656369447e-016 -0.0 1.0
outer loop
vertex -11.1646880593342 2.80862896058015 0.650000000000002
vertex -4.86468805933419 1.80862896058016 0.650000000000004
vertex -4.86468805933419 2.80862896058015 0.650000000000004
endloop
endfacet
facet normal 0.0 0.0 -1.0
outer loop
vertex -4.86468805933419 2.80862896058015 7.55
vertex -11.1646880593342 1.80862896058016 7.55
vertex -11.1646880593342 2.80862896058015 7.55
endloop
endfacet
facet normal 0.0 0.0 -1.0
outer loop
vertex -11.1646880593342 1.80862896058016 7.55
vertex -4.86468805933419 2.80862896058015 7.55
vertex -4.86468805933419 1.80862896058016 7.55
endloop
endfacet
facet normal -1.0 -0.0 -0.0
outer loop
vertex 11.5646880593342 4.3 8.0
vertex 11.5646880593342 2.80862896058016 7.55
vertex 11.5646880593342 2.80862896058016 8.0
endloop
endfacet
facet normal -1.0 -0.0 -0.0
outer loop
vertex 11.5646880593342 2.80862896058016 7.55
vertex 11.5646880593342 4.3 8.0
vertex 11.5646880593342 2.80862896058016 0.650000000000002
endloop
endfacet
facet normal -1.0 -0.0 -0.0
outer loop
vertex 11.5646880593342 2.80862896058016 0.650000000000002
vertex 11.5646880593342 4.3 8.0
vertex 11.5646880593342 2.80862896058016 0.2
endloop
endfacet
facet normal -1.0 -0.0 -0.0
outer loop
vertex 11.5646880593342 2.80862896058016 0.2
vertex 11.5646880593342 4.3 8.0
vertex 11.5646880593342 4.3 0.2
endloop
endfacet
facet normal -1.0 -0.0 -0.0
outer loop
vertex 11.5646880593342 2.80862896058016 7.55
vertex 11.5646880593342 1.80862896058016 0.650000000000002
vertex 11.5646880593342 1.80862896058016 7.55
endloop
endfacet
facet normal -1.0 -0.0 -0.0
outer loop
vertex 11.5646880593342 1.80862896058016 0.650000000000002
vertex 11.5646880593342 2.80862896058016 7.55
vertex 11.5646880593342 2.80862896058016 0.650000000000002
endloop
endfacet
facet normal 0.0 1.0 0.0
outer loop
vertex 11.5646880593342 4.3 8.0
vertex 26.6 4.3 0.2
vertex 11.5646880593342 4.3 0.2
endloop
endfacet
facet normal 0.0 1.0 0.0
outer loop
vertex 26.6 4.3 0.2
vertex 11.5646880593342 4.3 8.0
vertex 26.6 4.3 8.0
endloop
endfacet
facet normal 1.0 -0.0 -0.0
outer loop
vertex -11.1646880593342 4.30000000000001 0.2
vertex -11.1646880593342 2.80862896058015 0.650000000000002
vertex -11.1646880593342 2.80862896058015 0.2
endloop
endfacet
facet normal 1.0 -0.0 -0.0
outer loop
vertex -11.1646880593342 2.80862896058015 0.650000000000002
vertex -11.1646880593342 4.30000000000001 0.2
vertex -11.1646880593342 2.80862896058015 7.55
endloop
endfacet
facet normal 1.0 -0.0 -0.0
outer loop
vertex -11.1646880593342 2.80862896058015 7.55
vertex -11.1646880593342 4.30000000000001 8.0
vertex -11.1646880593342 2.80862896058015 8.0
endloop
endfacet
facet normal 1.0 -0.0 -0.0
outer loop
vertex -11.1646880593342 4.30000000000001 8.0
vertex -11.1646880593342 2.80862896058015 7.55
vertex -11.1646880593342 4.30000000000001 0.2
endloop
endfacet
facet normal 1.0 -0.0 -0.0
outer loop
vertex -11.1646880593342 2.80862896058015 0.650000000000002
vertex -11.1646880593342 1.80862896058016 7.55
vertex -11.1646880593342 1.80862896058016 0.650000000000002
endloop
endfacet
facet normal 1.0 -0.0 -0.0
outer loop
vertex -11.1646880593342 1.80862896058016 7.55
vertex -11.1646880593342 2.80862896058015 0.650000000000002
vertex -11.1646880593342 2.80862896058015 7.55
endloop
endfacet
facet normal 0.0 1.0 0.0
outer loop
vertex -26.6 4.30000000000001 8.0
vertex -11.1646880593342 4.30000000000001 0.2
vertex -26.6 4.30000000000001 0.2
endloop
endfacet
facet normal 0.0 1.0 0.0
outer loop
vertex -11.1646880593342 4.30000000000001 0.2
vertex -26.6 4.30000000000001 8.0
vertex -11.1646880593342 4.30000000000001 8.0
endloop
endfacet
facet normal -1.0 0.0 0.0
outer loop
vertex -4.4 26.6 8.0
vertex -4.4 3.41422222996081 0.2
vertex -4.4 3.41422222996081 8.0
endloop
endfacet
facet normal -1.0 0.0 0.0
outer loop
vertex -4.4 3.41422222996081 0.2
vertex -4.4 26.6 8.0
vertex -4.4 26.6 0.2
endloop
endfacet
facet normal 1.0 3.01461695039358e-017 -0.0
outer loop
vertex 4.4 26.6 0.2
vertex 4.4 3.41422222996081 8.0
vertex 4.4 3.41422222996081 0.2
endloop
endfacet
facet normal 1.0 3.01461695039358e-017 -0.0
outer loop
vertex 4.4 3.41422222996081 8.0
vertex 4.4 26.6 0.2
vertex 4.4 26.6 8.0
endloop
endfacet
facet normal -2.97271173218464e-017 3.57153653733741e-017 1.0
outer loop
vertex -3.81133891095815 3.99907202467886 8.0
vertex -4.4 26.6 8.0
vertex -4.4 3.41422222996081 8.0
endloop
endfacet
facet normal -2.97271173218464e-017 3.57153653733741e-017 1.0
outer loop
vertex -4.4 26.6 8.0
vertex -3.81133891095815 3.99907202467886 8.0
vertex 4.4 26.6 8.0
endloop
endfacet
facet normal -2.97271173218464e-017 3.57153653733741e-017 1.0
outer loop
vertex 4.4 26.6 8.0
vertex -3.81133891095815 3.99907202467886 8.0
vertex -3.14572922533447 4.49458681410258 8.0
endloop
endfacet
facet normal -2.97271173218464e-017 3.57153653733741e-017 1.0
outer loop
vertex 4.4 26.6 8.0
vertex -3.14572922533447 4.49458681410258 8.0
vertex -2.41660919471891 4.89076245834242 8.0
endloop
endfacet
facet normal -2.97271173218464e-017 3.57153653733741e-017 1.0
outer loop
vertex 4.4 26.6 8.0
vertex -2.41660919471891 4.89076245834242 8.0
vertex -1.63869930564031 5.17960041396356 8.0
endloop
endfacet
facet normal -2.97271173218464e-017 3.57153653733741e-017 1.0
outer loop
vertex 4.4 26.6 8.0
vertex -1.63869930564031 5.17960041396356 8.0
vertex -0.827705081965775 5.35526921967539 8.0
endloop
endfacet
facet normal -2.97271173218464e-017 3.57153653733741e-017 1.0
outer loop
vertex 4.4 26.6 8.0
vertex -0.827705081965775 5.35526921967539 8.0
vertex 7.55146688787442e-017 5.41422222996081 8.0
endloop
endfacet
facet normal -2.97271173218464e-017 3.57153653733741e-017 1.0
outer loop
vertex 4.4 26.6 8.0
vertex 7.55146688787442e-017 5.41422222996081 8.0
vertex 0.827705081965777 5.35526921967539 8.0
endloop
endfacet
facet normal -2.97271173218464e-017 3.57153653733741e-017 1.0
outer loop
vertex 4.4 26.6 8.0
vertex 0.827705081965777 5.35526921967539 8.0
vertex 1.63869930564031 5.17960041396356 8.0
endloop
endfacet
facet normal -2.97271173218464e-017 3.57153653733741e-017 1.0
outer loop
vertex 4.4 26.6 8.0
vertex 1.63869930564031 5.17960041396356 8.0
vertex 2.41660919471892 4.89076245834242 8.0
endloop
endfacet
facet normal -2.97271173218464e-017 3.57153653733741e-017 1.0
outer loop
vertex 4.4 26.6 8.0
vertex 2.41660919471892 4.89076245834242 8.0
vertex 3.14572922533447 4.49458681410258 8.0
endloop
endfacet
facet normal -2.97271173218464e-017 3.57153653733741e-017 1.0
outer loop
vertex 4.4 26.6 8.0
vertex 3.14572922533447 4.49458681410258 8.0
vertex 3.81133891095815 3.99907202467886 8.0
endloop
endfacet
facet normal -2.97271173218464e-017 3.57153653733741e-017 1.0
outer loop
vertex 4.4 26.6 8.0
vertex 3.81133891095815 3.99907202467886 8.0
vertex 4.4 3.41422222996081 8.0
endloop
endfacet
facet normal -0.704806543319909 0.709399560539363 -4.47462080236977e-017
outer loop
vertex -4.4 3.41422222996081 9.0
vertex -3.81133891095815 3.99907202467886 8.0
vertex -4.4 3.41422222996081 8.0
endloop
endfacet
facet normal -0.652626525848998 0.757679759369529 -4.47218565763414e-017
outer loop
vertex -3.81133891095815 3.99907202467886 8.0
vertex -4.4 3.41422222996081 9.0
vertex -3.81133891095815 3.99907202467886 9.0
endloop
endfacet
facet normal -0.652626525848998 0.757679759369529 -4.47218565763414e-017
outer loop
vertex -3.81133891095815 3.99907202467886 9.0
vertex -3.14572922533447 4.49458681410258 8.0
vertex -3.81133891095815 3.99907202467886 8.0
endloop
endfacet
facet normal -0.538652264612067 0.842528182216056 -4.39963821435105e-017
outer loop
vertex -3.14572922533447 4.49458681410258 8.0
vertex -3.81133891095815 3.99907202467886 9.0
vertex -3.14572922533447 4.49458681410258 9.0
endloop
endfacet
facet normal -0.538652264612067 0.842528182216056 -4.39963821435105e-017
outer loop
vertex -3.14572922533447 4.49458681410258 9.0
vertex -2.41660919471891 4.89076245834242 8.0
vertex -3.14572922533447 4.49458681410258 8.0
endloop
endfacet
facet normal -0.413802944301184 0.910366477462605 -4.23826477212866e-017
outer loop
vertex -2.41660919471891 4.89076245834242 8.0
vertex -3.14572922533447 4.49458681410258 9.0
vertex -2.41660919471891 4.89076245834242 9.0
endloop
endfacet
facet normal -0.413802944301184 0.910366477462605 -4.23826477212866e-017
outer loop
vertex -2.41660919471891 4.89076245834242 9.0
vertex -1.63869930564031 5.17960041396356 8.0
vertex -2.41660919471891 4.89076245834242 8.0
endloop
endfacet
facet normal -0.280599196171286 0.95982503150732 -3.99132336185709e-017
outer loop
vertex -1.63869930564031 5.17960041396356 8.0
vertex -2.41660919471891 4.89076245834242 9.0
vertex -1.63869930564031 5.17960041396356 9.0
endloop
endfacet
facet normal -0.280599196171286 0.95982503150732 -3.99132336185709e-017
outer loop
vertex -1.63869930564031 5.17960041396356 9.0
vertex -0.827705081965775 5.35526921967539 8.0
vertex -1.63869930564031 5.17960041396356 8.0
endloop
endfacet
facet normal -0.141730322254413 0.989905306457976 -3.66379957925538e-017
outer loop
vertex -0.827705081965775 5.35526921967539 8.0
vertex -1.63869930564031 5.17960041396356 9.0
vertex -0.827705081965775 5.35526921967539 9.0
endloop
endfacet
facet normal -0.141730322254413 0.989905306457976 -3.66379957925538e-017
outer loop
vertex -0.827705081965775 5.35526921967539 9.0
vertex 7.55146688787442e-017 5.41422222996081 8.0
vertex -0.827705081965775 5.35526921967539 8.0
endloop
endfacet
facet normal -7.08580416914942e-017 1.0 -3.26230592874971e-017
outer loop
vertex 7.55146688787442e-017 5.41422222996081 8.0
vertex -0.827705081965775 5.35526921967539 9.0
vertex 4.48631031314439e-017 5.41422222996081 9.0
endloop
endfacet
facet normal -7.08580416914942e-017 1.0 -3.26230592874971e-017
outer loop
vertex 4.48631031314439e-017 5.41422222996081 9.0
vertex 0.827705081965777 5.35526921967539 8.0
vertex 7.55146688787442e-017 5.41422222996081 8.0
endloop
endfacet
facet normal 0.141730322254413 0.989905306457976 -2.79494832106193e-017
outer loop
vertex 0.827705081965777 5.35526921967539 8.0
vertex 4.48631031314439e-017 5.41422222996081 9.0
vertex 0.827705081965777 5.35526921967539 9.0
endloop
endfacet
facet normal 0.141730322254413 0.989905306457976 -2.79494832106193e-017
outer loop
vertex 0.827705081965777 5.35526921967539 9.0
vertex 1.63869930564031 5.17960041396356 8.0
vertex 0.827705081965777 5.35526921967539 8.0
endloop
endfacet
facet normal 0.280599196171286 0.95982503150732 -2.27116241984033e-017
outer loop
vertex 1.63869930564031 5.17960041396356 8.0
vertex 0.827705081965777 5.35526921967539 9.0
vertex 1.63869930564031 5.17960041396356 9.0
endloop
endfacet
facet normal 0.280599196171286 0.95982503150732 -2.27116241984033e-017
outer loop
vertex 1.63869930564031 5.17960041396356 9.0
vertex 2.41660919471892 4.89076245834242 8.0
vertex 1.63869930564031 5.17960041396356 8.0
endloop
endfacet
facet normal 0.413802944301184 0.910366477462605 -1.70152314139382e-017
outer loop
vertex 2.41660919471892 4.89076245834242 8.0
vertex 1.63869930564031 5.17960041396356 9.0
vertex 2.41660919471892 4.89076245834242 9.0
endloop
endfacet
facet normal 0.413802944301184 0.910366477462605 -1.70152314139382e-017
outer loop
vertex 2.41660919471892 4.89076245834242 9.0
vertex 3.14572922533447 4.49458681410258 8.0
vertex 2.41660919471892 4.89076245834242 8.0
endloop
endfacet
facet normal 0.538652264612067 0.842528182216056 -1.09753115361326e-017
outer loop
vertex 3.14572922533447 4.49458681410258 8.0
vertex 2.41660919471892 4.89076245834242 9.0
vertex 3.14572922533447 4.49458681410258 9.0
endloop
endfacet
facet normal 0.538652264612067 0.842528182216056 -1.09753115361326e-017
outer loop
vertex 3.14572922533447 4.49458681410258 8.0
vertex 3.81133891095815 3.99907202467886 9.0
vertex 3.81133891095815 3.99907202467886 8.0
endloop
endfacet
facet normal 0.652626525848998 0.757679759369529 -4.71380684535589e-018
outer loop
vertex 3.81133891095815 3.99907202467886 9.0
vertex 3.14572922533447 4.49458681410258 8.0
vertex 3.14572922533447 4.49458681410258 9.0
endloop
endfacet
facet normal 0.652626525848998 0.757679759369529 -4.71380684535589e-018
outer loop
vertex 3.81133891095815 3.99907202467886 9.0
vertex 4.4 3.41422222996081 8.0
vertex 3.81133891095815 3.99907202467886 8.0
endloop
endfacet
facet normal 0.70480654331991 0.709399560539362 -1.53935982030232e-018
outer loop
vertex 4.4 3.41422222996081 8.0
vertex 3.81133891095815 3.99907202467886 9.0
vertex 4.4 3.41422222996081 9.0
endloop
endfacet
facet normal -8.10803064927759e-017 -1.0 2.27075950330879e-016
outer loop
vertex -4.0 -1.89040624886695e-015 0.2
vertex -8.01468805933419 0.00862896058015672 2.6
vertex -26.6 -3.72850836485324e-016 0.200000000000003
endloop
endfacet
facet normal -8.10803064927759e-017 -1.0 2.27075950330879e-016
outer loop
vertex -8.01468805933419 0.00862896058015672 2.6
vertex -4.0 -1.89040624886695e-015 0.2
vertex -7.62645949168041 0.00862896058015672 2.6511112605664
endloop
endfacet
facet normal -8.10803064927759e-017 -1.0 2.27075950330879e-016
outer loop
vertex -7.62645949168041 0.00862896058015672 2.6511112605664
vertex -4.0 -1.89040624886695e-015 0.2
vertex -7.26468805933419 0.00862896058015672 2.80096189432334
endloop
endfacet
facet normal -8.10803064927759e-017 -1.0 2.27075950330879e-016
outer loop
vertex -7.26468805933419 0.00862896058015672 2.80096189432334
vertex -4.0 -1.89040624886695e-015 0.2
vertex -6.95402788755437 0.00862896058015672 3.03933982822018
endloop
endfacet
facet normal -8.10803064927759e-017 -1.0 2.27075950330879e-016
outer loop
vertex -6.95402788755437 0.00862896058015672 3.03933982822018
vertex -4.0 -1.89040624886695e-015 0.2
vertex -6.71564995365753 0.00862896058015672 3.35
endloop
endfacet
facet normal -8.10803064927759e-017 -1.0 2.27075950330879e-016
outer loop
vertex -6.71564995365753 0.00862896058015672 3.35
vertex -4.0 -1.89040624886695e-015 0.2
vertex -4.0 -1.89040624886695e-015 9.0
endloop
endfacet
facet normal -8.10803064927759e-017 -1.0 2.27075950330879e-016
outer loop
vertex -6.71564995365753 0.00862896058015672 3.35
vertex -4.0 -1.89040624886695e-015 9.0
vertex -6.56579931990059 0.00862896058015672 3.71177143234622
endloop
endfacet
facet normal -8.10803064927759e-017 -1.0 2.27075950330879e-016
outer loop
vertex -6.56579931990059 0.00862896058015672 3.71177143234622
vertex -4.0 -1.89040624886695e-015 9.0
vertex -6.51468805933419 0.00862896058015672 4.1
endloop
endfacet
facet normal -8.10803064927759e-017 -1.0 2.27075950330879e-016
outer loop
vertex -6.51468805933419 0.00862896058015672 4.1
vertex -4.0 -1.89040624886695e-015 9.0
vertex -6.56579931990059 0.00862896058015672 4.48822856765378
endloop
endfacet
facet normal -8.10803064927759e-017 -1.0 2.27075950330879e-016
outer loop
vertex -6.56579931990059 0.00862896058015672 4.48822856765378
vertex -4.0 -1.89040624886695e-015 9.0
vertex -6.71564995365753 0.00862896058015672 4.85
endloop
endfacet
facet normal -8.10803064927759e-017 -1.0 2.27075950330879e-016
outer loop
vertex -6.71564995365753 0.00862896058015672 4.85
vertex -4.0 -1.89040624886695e-015 9.0
vertex -6.95402788755437 0.00862896058015672 5.16066017177982
endloop
endfacet
facet normal -8.10803064927759e-017 -1.0 2.27075950330879e-016
outer loop
vertex -6.95402788755437 0.00862896058015672 5.16066017177982
vertex -4.0 -1.89040624886695e-015 9.0
vertex -7.26468805933419 0.00862896058015672 5.39903810567666
endloop
endfacet
facet normal -8.10803064927759e-017 -1.0 2.27075950330879e-016
outer loop
vertex -7.26468805933419 0.00862896058015672 5.39903810567666
vertex -4.0 -1.89040624886695e-015 9.0
vertex -7.62645949168041 0.00862896058015672 5.5488887394336
endloop
endfacet
facet normal -8.10803064927759e-017 -1.0 2.27075950330879e-016
outer loop
vertex -7.62645949168041 0.00862896058015672 5.5488887394336
vertex -4.0 -1.89040624886695e-015 9.0
vertex -8.01468805933419 0.00862896058015672 5.6
endloop
endfacet
facet normal -8.10803064927759e-017 -1.0 2.27075950330879e-016
outer loop
vertex -8.01468805933419 0.00862896058015672 5.6
vertex -4.0 -1.89040624886695e-015 9.0
vertex -5.6172579211603 1.01342545466565e-015 8.0
endloop
endfacet
facet normal -8.10803064927759e-017 -1.0 2.27075950330879e-016
outer loop
vertex -5.6172579211603 1.01342545466565e-015 8.0
vertex -4.0 -1.89040624886695e-015 9.0
vertex -5.6172579211603 1.01342545466565e-015 9.0
endloop
endfacet
facet normal -8.10803064927759e-017 -1.0 2.27075950330879e-016
outer loop
vertex -26.6 -3.72850836485324e-016 0.200000000000003
vertex -8.40291662698797 0.00862896058015672 2.6511112605664
vertex -26.6 1.70682095063416e-015 8.0
endloop
endfacet
facet normal -8.10803064927759e-017 -1.0 2.27075950330879e-016
outer loop
vertex -8.40291662698797 0.00862896058015672 2.6511112605664
vertex -26.6 -3.72850836485324e-016 0.200000000000003
vertex -8.01468805933419 0.00862896058015672 2.6
endloop
endfacet
facet normal -8.10803064927759e-017 -1.0 2.27075950330879e-016
outer loop
vertex -26.6 1.70682095063416e-015 8.0
vertex -8.40291662698797 0.00862896058015672 2.6511112605664
vertex -8.76468805933419 0.00862896058015672 2.80096189432334
endloop
endfacet
facet normal -8.10803064927759e-017 -1.0 2.27075950330879e-016
outer loop
vertex -26.6 1.70682095063416e-015 8.0
vertex -8.76468805933419 0.00862896058015672 2.80096189432334
vertex -9.07534823111401 0.00862896058015672 3.03933982822018
endloop
endfacet
facet normal -8.10803064927759e-017 -1.0 2.27075950330879e-016
outer loop
vertex -26.6 1.70682095063416e-015 8.0
vertex -9.07534823111401 0.00862896058015672 3.03933982822018
vertex -9.31372616501085 0.00862896058015672 3.35
endloop
endfacet
facet normal -8.10803064927759e-017 -1.0 2.27075950330879e-016
outer loop
vertex -26.6 1.70682095063416e-015 8.0
vertex -9.31372616501085 0.00862896058015672 3.35
vertex -9.46357679876779 0.00862896058015672 3.71177143234622
endloop
endfacet
facet normal -8.10803064927759e-017 -1.0 2.27075950330879e-016
outer loop
vertex -26.6 1.70682095063416e-015 8.0
vertex -9.46357679876779 0.00862896058015672 3.71177143234622
vertex -9.51468805933419 0.00862896058015672 4.1
endloop
endfacet
facet normal -8.10803064927759e-017 -1.0 2.27075950330879e-016
outer loop
vertex -26.6 1.70682095063416e-015 8.0
vertex -9.51468805933419 0.00862896058015672 4.1
vertex -9.46357679876779 0.00862896058015672 4.48822856765378
endloop
endfacet
facet normal -8.10803064927759e-017 -1.0 2.27075950330879e-016
outer loop
vertex -26.6 1.70682095063416e-015 8.0
vertex -9.46357679876779 0.00862896058015672 4.48822856765378
vertex -9.31372616501085 0.00862896058015672 4.85
endloop
endfacet
facet normal -8.10803064927759e-017 -1.0 2.27075950330879e-016
outer loop
vertex -26.6 1.70682095063416e-015 8.0
vertex -9.31372616501085 0.00862896058015672 4.85
vertex -9.07534823111401 0.00862896058015672 5.16066017177982
endloop
endfacet
facet normal -8.10803064927759e-017 -1.0 2.27075950330879e-016
outer loop
vertex -26.6 1.70682095063416e-015 8.0
vertex -9.07534823111401 0.00862896058015672 5.16066017177982
vertex -8.76468805933419 0.00862896058015672 5.39903810567666
endloop
endfacet
facet normal -8.10803064927759e-017 -1.0 2.27075950330879e-016
outer loop
vertex -26.6 1.70682095063416e-015 8.0
vertex -8.76468805933419 0.00862896058015672 5.39903810567666
vertex -8.40291662698797 0.00862896058015672 5.5488887394336
endloop
endfacet
facet normal -8.10803064927759e-017 -1.0 2.27075950330879e-016
outer loop
vertex -26.6 1.70682095063416e-015 8.0
vertex -8.40291662698797 0.00862896058015672 5.5488887394336
vertex -8.01468805933419 0.00862896058015672 5.6
endloop
endfacet
facet normal -8.10803064927759e-017 -1.0 2.27075950330879e-016
outer loop
vertex -26.6 1.70682095063416e-015 8.0
vertex -8.01468805933419 0.00862896058015672 5.6
vertex -5.6172579211603 1.01342545466565e-015 8.0
endloop
endfacet
facet normal -2.80609296085231e-017 -8.53175881521483e-018 -1.0
outer loop
vertex 26.6 4.3 0.2
vertex 11.5646880593342 2.80862896058016 0.2
vertex 11.5646880593342 4.3 0.2
endloop
endfacet
facet normal -2.80609296085231e-017 -8.53175881521483e-018 -1.0
outer loop
vertex 11.5646880593342 2.80862896058016 0.2
vertex 26.6 4.3 0.2
vertex 26.6 -1.12976426367975e-015 0.199999999999999
endloop
endfacet
facet normal -2.80609296085231e-017 -8.53175881521483e-018 -1.0
outer loop
vertex 4.4 26.6 0.2
vertex -4.4 3.41422222996081 0.2
vertex -4.4 26.6 0.2
endloop
endfacet
facet normal -2.80609296085231e-017 -8.53175881521483e-018 -1.0
outer loop
vertex -4.4 3.41422222996081 0.2
vertex 4.4 26.6 0.2
vertex -3.86370330515627 1.03527618041008 0.2
endloop
endfacet
facet normal -2.80609296085231e-017 -8.53175881521483e-018 -1.0
outer loop
vertex -4.4 3.41422222996081 0.2
vertex -3.86370330515627 1.03527618041008 0.2
vertex -4.0 -1.89040624886695e-015 0.2
endloop
endfacet
facet normal -2.80609296085231e-017 -8.53175881521483e-018 -1.0
outer loop
vertex -3.86370330515627 1.03527618041008 0.2
vertex 4.4 26.6 0.2
vertex -3.46410161513775 2.0 0.2
endloop
endfacet
facet normal -2.80609296085231e-017 -8.53175881521483e-018 -1.0
outer loop
vertex -3.46410161513775 2.0 0.2
vertex 4.4 26.6 0.2
vertex -2.82842712474619 2.82842712474619 0.2
endloop
endfacet
facet normal -2.80609296085231e-017 -8.53175881521483e-018 -1.0
outer loop
vertex -2.82842712474619 2.82842712474619 0.2
vertex 4.4 26.6 0.2
vertex -2.0 3.46410161513775 0.2
endloop
endfacet
facet normal -2.80609296085231e-017 -8.53175881521483e-018 -1.0
outer loop
vertex -2.0 3.46410161513775 0.2
vertex 4.4 26.6 0.2
vertex -1.03527618041008 3.86370330515627 0.2
endloop
endfacet
facet normal -2.80609296085231e-017 -8.53175881521483e-018 -1.0
outer loop
vertex -1.03527618041008 3.86370330515627 0.2
vertex 4.4 26.6 0.2
vertex 5.29199650403959e-016 4.0 0.2
endloop
endfacet
facet normal -2.80609296085231e-017 -8.53175881521483e-018 -1.0
outer loop
vertex 5.29199650403959e-016 4.0 0.2
vertex 4.4 26.6 0.2
vertex 1.03527618041008 3.86370330515627 0.2
endloop
endfacet
facet normal -2.80609296085231e-017 -8.53175881521483e-018 -1.0
outer loop
vertex 1.03527618041008 3.86370330515627 0.2
vertex 4.4 26.6 0.2
vertex 2.0 3.46410161513775 0.2
endloop
endfacet
facet normal -2.80609296085231e-017 -8.53175881521483e-018 -1.0
outer loop
vertex 2.0 3.46410161513775 0.2
vertex 4.4 26.6 0.2
vertex 2.82842712474619 2.82842712474619 0.2
endloop
endfacet
facet normal -2.80609296085231e-017 -8.53175881521483e-018 -1.0
outer loop
vertex 2.82842712474619 2.82842712474619 0.2
vertex 4.4 26.6 0.2
vertex 3.46410161513775 2.0 0.2
endloop
endfacet
facet normal -2.80609296085231e-017 -8.53175881521483e-018 -1.0
outer loop
vertex 3.46410161513775 2.0 0.2
vertex 4.4 26.6 0.2
vertex 3.86370330515627 1.03527618041008 0.2
endloop
endfacet
facet normal -2.80609296085231e-017 -8.53175881521483e-018 -1.0
outer loop
vertex 3.86370330515627 1.03527618041008 0.2
vertex 4.4 26.6 0.2
vertex 4.0 -7.48123666779325e-015 0.2
endloop
endfacet
facet normal -2.80609296085231e-017 -8.53175881521483e-018 -1.0
outer loop
vertex 4.0 -7.48123666779325e-015 0.2
vertex 4.4 26.6 0.2
vertex 4.4 3.41422222996081 0.2
endloop
endfacet
facet normal -2.80609296085231e-017 -8.53175881521483e-018 -1.0
outer loop
vertex 4.0 -7.48123666779325e-015 0.2
vertex 4.4 3.41422222996081 0.2
vertex 4.86468805933419 2.80862896058016 0.2
endloop
endfacet
facet normal -2.80609296085231e-017 -8.53175881521483e-018 -1.0
outer loop
vertex 4.0 -7.48123666779325e-015 0.2
vertex 4.86468805933419 2.80862896058016 0.2
vertex 26.6 -1.12976426367975e-015 0.199999999999999
endloop
endfacet
facet normal -2.80609296085231e-017 -8.53175881521483e-018 -1.0
outer loop
vertex 26.6 -1.12976426367975e-015 0.199999999999999
vertex 4.86468805933419 2.80862896058016 0.2
vertex 11.5646880593342 2.80862896058016 0.2
endloop
endfacet
facet normal -2.80609296085231e-017 -8.53175881521483e-018 -1.0
outer loop
vertex -11.1646880593342 4.30000000000001 0.2
vertex -26.6 -3.72850836485324e-016 0.200000000000003
vertex -26.6 4.30000000000001 0.2
endloop
endfacet
facet normal -2.80609296085231e-017 -8.53175881521483e-018 -1.0
outer loop
vertex -26.6 -3.72850836485324e-016 0.200000000000003
vertex -11.1646880593342 4.30000000000001 0.2
vertex -11.1646880593342 2.80862896058015 0.2
endloop
endfacet
facet normal -2.80609296085231e-017 -8.53175881521483e-018 -1.0
outer loop
vertex -26.6 -3.72850836485324e-016 0.200000000000003
vertex -11.1646880593342 2.80862896058015 0.2
vertex -4.0 -1.89040624886695e-015 0.2
endloop
endfacet
facet normal -2.80609296085231e-017 -8.53175881521483e-018 -1.0
outer loop
vertex -4.0 -1.89040624886695e-015 0.2
vertex -11.1646880593342 2.80862896058015 0.2
vertex -4.86468805933419 2.80862896058015 0.2
endloop
endfacet
facet normal -2.80609296085231e-017 -8.53175881521483e-018 -1.0
outer loop
vertex -4.0 -1.89040624886695e-015 0.2
vertex -4.86468805933419 2.80862896058015 0.2
vertex -4.4 3.41422222996081 0.2
endloop
endfacet
facet normal -0.0 -0.0 1.0
outer loop
vertex 5.42585449897558 1.45385333124928 8.0
vertex 11.5646880593342 2.80862896058016 8.0
vertex 4.86468805933419 2.80862896058016 8.0
endloop
endfacet
facet normal -0.0 -0.0 1.0
outer loop
vertex 11.5646880593342 2.80862896058016 8.0
vertex 5.42585449897558 1.45385333124928 8.0
vertex 5.6172579211603 7.49053596926785e-015 8.0
endloop
endfacet
facet normal -0.0 -0.0 1.0
outer loop
vertex 11.5646880593342 2.80862896058016 8.0
vertex 5.6172579211603 7.49053596926785e-015 8.0
vertex 26.6 5.28743715477731e-016 8.0
endloop
endfacet
facet normal -0.0 -0.0 1.0
outer loop
vertex 11.5646880593342 2.80862896058016 8.0
vertex 26.6 5.28743715477731e-016 8.0
vertex 11.5646880593342 4.3 8.0
endloop
endfacet
facet normal -0.0 -0.0 1.0
outer loop
vertex 11.5646880593342 4.3 8.0
vertex 26.6 5.28743715477731e-016 8.0
vertex 26.6 4.3 8.0
endloop
endfacet
facet normal 1.03923928259261e-016 -1.0 7.81849261514656e-016
outer loop
vertex 26.6 5.28743715477731e-016 8.0
vertex 4.0 -7.48123666779325e-015 0.2
vertex 26.6 -1.12976426367975e-015 0.199999999999999
endloop
endfacet
facet normal 1.03923928259261e-016 -1.0 7.81849261514656e-016
outer loop
vertex 4.0 -7.48123666779325e-015 0.2
vertex 26.6 5.28743715477731e-016 8.0
vertex 8.40291662698797 0.00862896058015655 2.6511112605664
endloop
endfacet
facet normal 1.03923928259261e-016 -1.0 7.81849261514656e-016
outer loop
vertex 4.0 -7.48123666779325e-015 0.2
vertex 8.40291662698797 0.00862896058015655 2.6511112605664
vertex 8.01468805933419 0.00862896058015655 2.6
endloop
endfacet
facet normal 1.03923928259261e-016 -1.0 7.81849261514656e-016
outer loop
vertex 8.40291662698797 0.00862896058015655 2.6511112605664
vertex 26.6 5.28743715477731e-016 8.0
vertex 8.76468805933419 0.00862896058015655 2.80096189432334
endloop
endfacet
facet normal 1.03923928259261e-016 -1.0 7.81849261514656e-016
outer loop
vertex 8.76468805933419 0.00862896058015655 2.80096189432334
vertex 26.6 5.28743715477731e-016 8.0
vertex 9.07534823111401 0.00862896058015655 3.03933982822018
endloop
endfacet
facet normal 1.03923928259261e-016 -1.0 7.81849261514656e-016
outer loop
vertex 9.07534823111401 0.00862896058015655 3.03933982822018
vertex 26.6 5.28743715477731e-016 8.0
vertex 9.31372616501084 0.00862896058015655 3.35
endloop
endfacet
facet normal 1.03923928259261e-016 -1.0 7.81849261514656e-016
outer loop
vertex 9.31372616501084 0.00862896058015655 3.35
vertex 26.6 5.28743715477731e-016 8.0
vertex 9.46357679876779 0.00862896058015655 3.71177143234622
endloop
endfacet
facet normal 1.03923928259261e-016 -1.0 7.81849261514656e-016
outer loop
vertex 9.46357679876779 0.00862896058015655 3.71177143234622
vertex 26.6 5.28743715477731e-016 8.0
vertex 9.51468805933419 0.00862896058015655 4.1
endloop
endfacet
facet normal 1.03923928259261e-016 -1.0 7.81849261514656e-016
outer loop
vertex 9.51468805933419 0.00862896058015655 4.1
vertex 26.6 5.28743715477731e-016 8.0
vertex 9.46357679876779 0.00862896058015655 4.48822856765378
endloop
endfacet
facet normal 1.03923928259261e-016 -1.0 7.81849261514656e-016
outer loop
vertex 9.46357679876779 0.00862896058015655 4.48822856765378
vertex 26.6 5.28743715477731e-016 8.0
vertex 9.31372616501085 0.00862896058015655 4.85
endloop
endfacet
facet normal 1.03923928259261e-016 -1.0 7.81849261514656e-016
outer loop
vertex 9.31372616501085 0.00862896058015655 4.85
vertex 26.6 5.28743715477731e-016 8.0
vertex 9.07534823111401 0.00862896058015655 5.16066017177982
endloop
endfacet
facet normal 1.03923928259261e-016 -1.0 7.81849261514656e-016
outer loop
vertex 9.07534823111401 0.00862896058015655 5.16066017177982
vertex 26.6 5.28743715477731e-016 8.0
vertex 8.76468805933419 0.00862896058015655 5.39903810567666
endloop
endfacet
facet normal 1.03923928259261e-016 -1.0 7.81849261514656e-016
outer loop
vertex 8.76468805933419 0.00862896058015655 5.39903810567666
vertex 26.6 5.28743715477731e-016 8.0
vertex 8.40291662698797 0.00862896058015655 5.5488887394336
endloop
endfacet
facet normal 1.03923928259261e-016 -1.0 7.81849261514656e-016
outer loop
vertex 8.40291662698797 0.00862896058015655 5.5488887394336
vertex 26.6 5.28743715477731e-016 8.0
vertex 8.01468805933419 0.00862896058015655 5.6
endloop
endfacet
facet normal 1.03923928259261e-016 -1.0 7.81849261514656e-016
outer loop
vertex 4.0 -7.48123666779325e-015 0.2
vertex 6.71564995365753 0.00862896058015655 3.35
vertex 4.0 -7.48123666779325e-015 9.0
endloop
endfacet
facet normal 1.03923928259261e-016 -1.0 7.81849261514656e-016
outer loop
vertex 6.71564995365753 0.00862896058015655 3.35
vertex 4.0 -7.48123666779325e-015 0.2
vertex 6.95402788755437 0.00862896058015655 3.03933982822018
endloop
endfacet
facet normal 1.03923928259261e-016 -1.0 7.81849261514656e-016
outer loop
vertex 6.95402788755437 0.00862896058015655 3.03933982822018
vertex 4.0 -7.48123666779325e-015 0.2
vertex 7.26468805933419 0.00862896058015655 2.80096189432334
endloop
endfacet
facet normal 1.03923928259261e-016 -1.0 7.81849261514656e-016
outer loop
vertex 7.26468805933419 0.00862896058015655 2.80096189432334
vertex 4.0 -7.48123666779325e-015 0.2
vertex 7.62645949168041 0.00862896058015655 2.6511112605664
endloop
endfacet
facet normal 1.03923928259261e-016 -1.0 7.81849261514656e-016
outer loop
vertex 7.62645949168041 0.00862896058015655 2.6511112605664
vertex 4.0 -7.48123666779325e-015 0.2
vertex 8.01468805933419 0.00862896058015655 2.6
endloop
endfacet
facet normal 1.03923928259261e-016 -1.0 7.81849261514656e-016
outer loop
vertex 4.0 -7.48123666779325e-015 9.0
vertex 6.71564995365753 0.00862896058015655 3.35
vertex 6.56579931990059 0.00862896058015655 3.71177143234622
endloop
endfacet
facet normal 1.03923928259261e-016 -1.0 7.81849261514656e-016
outer loop
vertex 4.0 -7.48123666779325e-015 9.0
vertex 6.56579931990059 0.00862896058015655 3.71177143234622
vertex 6.51468805933419 0.00862896058015655 4.1
endloop
endfacet
facet normal 1.03923928259261e-016 -1.0 7.81849261514656e-016
outer loop
vertex 4.0 -7.48123666779325e-015 9.0
vertex 6.51468805933419 0.00862896058015655 4.1
vertex 6.56579931990059 0.00862896058015655 4.48822856765378
endloop
endfacet
facet normal 1.03923928259261e-016 -1.0 7.81849261514656e-016
outer loop
vertex 4.0 -7.48123666779325e-015 9.0
vertex 6.56579931990059 0.00862896058015655 4.48822856765378
vertex 6.71564995365753 0.00862896058015655 4.85
endloop
endfacet
facet normal 1.03923928259261e-016 -1.0 7.81849261514656e-016
outer loop
vertex 4.0 -7.48123666779325e-015 9.0
vertex 6.71564995365753 0.00862896058015655 4.85
vertex 6.95402788755437 0.00862896058015655 5.16066017177982
endloop
endfacet
facet normal 1.03923928259261e-016 -1.0 7.81849261514656e-016
outer loop
vertex 4.0 -7.48123666779325e-015 9.0
vertex 6.95402788755437 0.00862896058015655 5.16066017177982
vertex 7.26468805933419 0.00862896058015655 5.39903810567666
endloop
endfacet
facet normal 1.03923928259261e-016 -1.0 7.81849261514656e-016
outer loop
vertex 4.0 -7.48123666779325e-015 9.0
vertex 7.26468805933419 0.00862896058015655 5.39903810567666
vertex 7.62645949168041 0.00862896058015655 5.5488887394336
endloop
endfacet
facet normal 1.03923928259261e-016 -1.0 7.81849261514656e-016
outer loop
vertex 4.0 -7.48123666779325e-015 9.0
vertex 7.62645949168041 0.00862896058015655 5.5488887394336
vertex 8.01468805933419 0.00862896058015655 5.6
endloop
endfacet
facet normal 1.03923928259261e-016 -1.0 7.81849261514656e-016
outer loop
vertex 4.0 -7.48123666779325e-015 9.0
vertex 8.01468805933419 0.00862896058015655 5.6
vertex 5.6172579211603 7.49053596926785e-015 8.0
endloop
endfacet
facet normal 1.03923928259261e-016 -1.0 7.81849261514656e-016
outer loop
vertex 5.6172579211603 7.49053596926785e-015 8.0
vertex 8.01468805933419 0.00862896058015655 5.6
vertex 26.6 5.28743715477731e-016 8.0
endloop
endfacet
facet normal 1.03923928259261e-016 -1.0 7.81849261514656e-016
outer loop
vertex 4.0 -7.48123666779325e-015 9.0
vertex 5.6172579211603 7.49053596926785e-015 8.0
vertex 5.6172579211603 7.49053596926785e-015 9.0
endloop
endfacet
facet normal -1.0 -1.31161231746414e-015 2.7851219724508e-031
outer loop
vertex -26.6 1.70682095063416e-015 8.0
vertex -26.6 4.30000000000001 0.2
vertex -26.6 -3.72850836485324e-016 0.200000000000003
endloop
endfacet
facet normal -1.0 -1.31161231746414e-015 2.7851219724508e-031
outer loop
vertex -26.6 4.30000000000001 0.2
vertex -26.6 1.70682095063416e-015 8.0
vertex -26.6 4.30000000000001 8.0
endloop
endfacet
facet normal -0.0 1.0 -0.0
outer loop
vertex -4.4 26.6 8.0
vertex 4.4 26.6 0.2
vertex -4.4 26.6 0.2
endloop
endfacet
facet normal -0.0 1.0 -0.0
outer loop
vertex 4.4 26.6 0.2
vertex -4.4 26.6 8.0
vertex 4.4 26.6 8.0
endloop
endfacet
facet normal 1.0 -1.31161231746414e-015 -7.23068328858435e-016
outer loop
vertex 26.6 4.3 0.2
vertex 26.6 5.28743715477731e-016 8.0
vertex 26.6 -1.12976426367975e-015 0.199999999999999
endloop
endfacet
facet normal 1.0 -1.31161231746414e-015 -7.23068328858435e-016
outer loop
vertex 26.6 5.28743715477731e-016 8.0
vertex 26.6 4.3 0.2
vertex 26.6 4.3 8.0
endloop
endfacet
facet normal 0.965925826289068 -0.258819045102521 -1.26193812284464e-033
outer loop
vertex -3.86370330515627 1.03527618041008 0.2
vertex -4.0 -1.89040624886695e-015 9.0
vertex -4.0 -1.89040624886695e-015 0.2
endloop
endfacet
facet normal 0.99144486137381 -0.130526192220052 -2.09430651288688e-034
outer loop
vertex -4.0 -1.89040624886695e-015 9.0
vertex -3.86370330515627 1.03527618041008 0.2
vertex -3.86370330515627 1.03527618041008 9.0
endloop
endfacet
facet normal 0.866025403784439 -0.5 -2.94349263964018e-033
outer loop
vertex -3.46410161513775 2.0 0.2
vertex -3.86370330515627 1.03527618041008 9.0
vertex -3.86370330515627 1.03527618041008 0.2
endloop
endfacet
facet normal 0.965925826289068 -0.258819045102521 -1.26193812284464e-033
outer loop
vertex -3.86370330515627 1.03527618041008 9.0
vertex -3.46410161513775 2.0 0.2
vertex -3.46410161513775 2.0 9.0
endloop
endfacet
facet normal 0.707106781186547 -0.707106781186547 -4.08340815219127e-033
outer loop
vertex -2.82842712474619 2.82842712474619 0.2
vertex -3.46410161513775 2.0 9.0
vertex -3.46410161513775 2.0 0.2
endloop
endfacet
facet normal 0.866025403784439 -0.5 -2.94349263964018e-033
outer loop
vertex -3.46410161513775 2.0 9.0
vertex -2.82842712474619 2.82842712474619 0.2
vertex -2.82842712474619 2.82842712474619 9.0
endloop
endfacet
facet normal 0.5 -0.866025403784439 -4.94504614732157e-033
outer loop
vertex -2.0 3.46410161513775 9.0
vertex -2.82842712474619 2.82842712474619 0.2
vertex -2.0 3.46410161513775 0.2
endloop
endfacet
facet normal 0.707106781186547 -0.707106781186547 -4.08340815219127e-033
outer loop
vertex -2.82842712474619 2.82842712474619 0.2
vertex -2.0 3.46410161513775 9.0
vertex -2.82842712474619 2.82842712474619 9.0
endloop
endfacet
facet normal 0.258819045102521 -0.965925826289068 -5.46968741958705e-033
outer loop
vertex -1.03527618041008 3.86370330515627 9.0
vertex -2.0 3.46410161513775 0.2
vertex -1.03527618041008 3.86370330515627 0.2
endloop
endfacet
facet normal 0.5 -0.866025403784439 -4.94504614732157e-033
outer loop
vertex -2.0 3.46410161513775 0.2
vertex -1.03527618041008 3.86370330515627 9.0
vertex -2.0 3.46410161513775 9.0
endloop
endfacet
facet normal -3.29711066138935e-016 -1.0 -5.62157853329352e-033
outer loop
vertex 5.29199650403959e-016 4.0 9.0
vertex -1.03527618041008 3.86370330515627 0.2
vertex 5.29199650403959e-016 4.0 0.2
endloop
endfacet
facet normal 0.258819045102521 -0.965925826289068 -5.46968741958705e-033
outer loop
vertex -1.03527618041008 3.86370330515627 0.2
vertex 5.29199650403959e-016 4.0 9.0
vertex -1.03527618041008 3.86370330515627 9.0
endloop
endfacet
facet normal -0.258819045102521 -0.965925826289068 -5.39036836005381e-033
outer loop
vertex 1.03527618041008 3.86370330515627 9.0
vertex 5.29199650403959e-016 4.0 0.2
vertex 1.03527618041008 3.86370330515627 0.2
endloop
endfacet
facet normal -3.29711066138935e-016 -1.0 -5.62157853329352e-033
outer loop
vertex 5.29199650403959e-016 4.0 0.2
vertex 1.03527618041008 3.86370330515627 9.0
vertex 5.29199650403959e-016 4.0 9.0
endloop
endfacet
facet normal -0.5 -0.866025403784439 -4.79181349108133e-033
outer loop
vertex 2.0 3.46410161513775 9.0
vertex 1.03527618041008 3.86370330515627 0.2
vertex 2.0 3.46410161513775 0.2
endloop
endfacet
facet normal -0.258819045102521 -0.965925826289068 -5.39036836005381e-033
outer loop
vertex 1.03527618041008 3.86370330515627 0.2
vertex 2.0 3.46410161513775 9.0
vertex 1.03527618041008 3.86370330515627 9.0
endloop
endfacet
facet normal -0.707106781186547 -0.707106781186548 -3.86670445153787e-033
outer loop
vertex 2.82842712474619 2.82842712474619 9.0
vertex 2.0 3.46410161513775 0.2
vertex 2.82842712474619 2.82842712474619 0.2
endloop
endfacet
facet normal -0.5 -0.866025403784439 -4.79181349108133e-033
outer loop
vertex 2.0 3.46410161513775 0.2
vertex 2.82842712474619 2.82842712474619 9.0
vertex 2.0 3.46410161513775 9.0
endloop
endfacet
facet normal -0.707106781186547 -0.707106781186548 -3.86670445153787e-033
outer loop
vertex 2.82842712474619 2.82842712474619 9.0
vertex 3.46410161513775 2.0 0.2
vertex 3.46410161513775 2.0 9.0
endloop
endfacet
facet normal -0.866025403784439 -0.5 -2.67808589365334e-033
outer loop
vertex 3.46410161513775 2.0 0.2
vertex 2.82842712474619 2.82842712474619 9.0
vertex 2.82842712474619 2.82842712474619 0.2
endloop
endfacet
facet normal -0.866025403784439 -0.5 -2.67808589365334e-033
outer loop
vertex 3.46410161513775 2.0 9.0
vertex 3.86370330515627 1.03527618041008 0.2
vertex 3.86370330515627 1.03527618041008 9.0
endloop
endfacet
facet normal -0.965925826289068 -0.25881904510252 -2.37832641998049e-019
outer loop
vertex 3.86370330515627 1.03527618041008 0.2
vertex 3.46410161513775 2.0 9.0
vertex 3.46410161513775 2.0 0.2
endloop
endfacet
facet normal -0.965925826289068 -0.25881904510252 -2.37832641998049e-019
outer loop
vertex 3.86370330515627 1.03527618041008 9.0
vertex 4.0 -7.48123666779325e-015 0.2
vertex 4.0 -7.48123666779325e-015 9.0
endloop
endfacet
facet normal -0.99144486137381 -0.130526192220051 -4.71595901551844e-019
outer loop
vertex 4.0 -7.48123666779325e-015 0.2
vertex 3.86370330515627 1.03527618041008 9.0
vertex 3.86370330515627 1.03527618041008 0.2
endloop
endfacet
endsolid upper-bearing-clip
