solid upper-bearing-clip
facet normal -0.0 -0.0 1.0
outer loop
vertex -3.6 4.40872847693047e-016 9.0
vertex -5.42585449897558 1.45385333124929 9.0
vertex -5.6172579211603 1.01342545466565e-015 9.0
endloop
endfacet
facet normal -0.0 -0.0 1.0
outer loop
vertex -5.42585449897558 1.45385333124929 9.0
vertex -3.6 4.40872847693047e-016 9.0
vertex -4.86468805933419 2.80862896058015 9.0
endloop
endfacet
facet normal -0.0 -0.0 1.0
outer loop
vertex -4.86468805933419 2.80862896058015 9.0
vertex -3.6 4.40872847693047e-016 9.0
vertex -3.9720011677263 3.9720011677263 9.0
endloop
endfacet
facet normal -0.0 -0.0 1.0
outer loop
vertex -3.9720011677263 3.9720011677263 9.0
vertex -3.6 4.40872847693047e-016 9.0
vertex -3.47733297464064 0.931748562369076 9.0
endloop
endfacet
facet normal -0.0 -0.0 1.0
outer loop
vertex -3.9720011677263 3.9720011677263 9.0
vertex -3.47733297464064 0.931748562369076 9.0
vertex -2.80862896058015 4.86468805933419 9.0
endloop
endfacet
facet normal -0.0 -0.0 1.0
outer loop
vertex -2.80862896058015 4.86468805933419 9.0
vertex -3.47733297464064 0.931748562369076 9.0
vertex -3.11769145362398 1.8 9.0
endloop
endfacet
facet normal -0.0 -0.0 1.0
outer loop
vertex -2.80862896058015 4.86468805933419 9.0
vertex -3.11769145362398 1.8 9.0
vertex -2.54558441227157 2.54558441227157 9.0
endloop
endfacet
facet normal -0.0 -0.0 1.0
outer loop
vertex -2.80862896058015 4.86468805933419 9.0
vertex -2.54558441227157 2.54558441227157 9.0
vertex -1.45385333124928 5.42585449897558 9.0
endloop
endfacet
facet normal -0.0 -0.0 1.0
outer loop
vertex -1.45385333124928 5.42585449897558 9.0
vertex -2.54558441227157 2.54558441227157 9.0
vertex -1.8 3.11769145362398 9.0
endloop
endfacet
facet normal -0.0 -0.0 1.0
outer loop
vertex -1.45385333124928 5.42585449897558 9.0
vertex -1.8 3.11769145362398 9.0
vertex -0.931748562369074 3.47733297464065 9.0
endloop
endfacet
facet normal -0.0 -0.0 1.0
outer loop
vertex -1.45385333124928 5.42585449897558 9.0
vertex -0.931748562369074 3.47733297464065 9.0
vertex -1.71841707530262e-015 5.6172579211603 9.0
endloop
endfacet
facet normal -0.0 -0.0 1.0
outer loop
vertex -1.71841707530262e-015 5.6172579211603 9.0
vertex -0.931748562369074 3.47733297464065 9.0
vertex 2.20436423846524e-016 3.6 9.0
endloop
endfacet
facet normal -0.0 -0.0 1.0
outer loop
vertex -1.71841707530262e-015 5.6172579211603 9.0
vertex 2.20436423846524e-016 3.6 9.0
vertex 1.45385333124929 5.42585449897558 9.0
endloop
endfacet
facet normal -0.0 -0.0 1.0
outer loop
vertex 1.45385333124929 5.42585449897558 9.0
vertex 2.20436423846524e-016 3.6 9.0
vertex 0.931748562369075 3.47733297464065 9.0
endloop
endfacet
facet normal -0.0 -0.0 1.0
outer loop
vertex 1.45385333124929 5.42585449897558 9.0
vertex 0.931748562369075 3.47733297464065 9.0
vertex 1.8 3.11769145362398 9.0
endloop
endfacet
facet normal -0.0 -0.0 1.0
outer loop
vertex 1.45385333124929 5.42585449897558 9.0
vertex 1.8 3.11769145362398 9.0
vertex 2.80862896058016 4.86468805933419 9.0
endloop
endfacet
facet normal -0.0 -0.0 1.0
outer loop
vertex 2.80862896058016 4.86468805933419 9.0
vertex 1.8 3.11769145362398 9.0
vertex 2.54558441227157 2.54558441227157 9.0
endloop
endfacet
facet normal -0.0 -0.0 1.0
outer loop
vertex 2.80862896058016 4.86468805933419 9.0
vertex 2.54558441227157 2.54558441227157 9.0
vertex 3.11769145362398 1.8 9.0
endloop
endfacet
facet normal -0.0 -0.0 1.0
outer loop
vertex 2.80862896058016 4.86468805933419 9.0
vertex 3.11769145362398 1.8 9.0
vertex 3.97200116772629 3.97200116772631 9.0
endloop
endfacet
facet normal -0.0 -0.0 1.0
outer loop
vertex 3.97200116772629 3.97200116772631 9.0
vertex 3.11769145362398 1.8 9.0
vertex 3.47733297464065 0.931748562369075 9.0
endloop
endfacet
facet normal -0.0 -0.0 1.0
outer loop
vertex 3.97200116772629 3.97200116772631 9.0
vertex 3.47733297464065 0.931748562369075 9.0
vertex 3.6 0.0 9.0
endloop
endfacet
facet normal -0.0 -0.0 1.0
outer loop
vertex 3.97200116772629 3.97200116772631 9.0
vertex 3.6 0.0 9.0
vertex 5.6172579211603 7.49053596926785e-015 9.0
endloop
endfacet
facet normal -0.0 -0.0 1.0
outer loop
vertex 3.97200116772629 3.97200116772631 9.0
vertex 5.6172579211603 7.49053596926785e-015 9.0
vertex 4.86468805933419 2.80862896058016 9.0
endloop
endfacet
facet normal -0.0 -0.0 1.0
outer loop
vertex 4.86468805933419 2.80862896058016 9.0
vertex 5.6172579211603 7.49053596926785e-015 9.0
vertex 5.42585449897558 1.45385333124928 9.0
endloop
endfacet
facet normal 0.965925826289068 0.258819045102521 0.0
outer loop
vertex 5.42585449897558 1.45385333124928 8.0
vertex 5.6172579211603 7.49053596926785e-015 9.0
vertex 5.6172579211603 7.49053596926785e-015 8.0
endloop
endfacet
facet normal 0.99144486137381 0.130526192220052 0.0
outer loop
vertex 5.6172579211603 7.49053596926785e-015 9.0
vertex 5.42585449897558 1.45385333124928 8.0
vertex 5.42585449897558 1.45385333124928 9.0
endloop
endfacet
facet normal -0.965925826289068 -0.258819045102521 0.0
outer loop
vertex 3.47733297464065 0.931748562369075 9.0
vertex 3.6 0.0 0.0
vertex 3.6 0.0 9.0
endloop
endfacet
facet normal -0.99144486137381 -0.130526192220051 -0.0
outer loop
vertex 3.6 0.0 0.0
vertex 3.47733297464065 0.931748562369075 9.0
vertex 3.47733297464065 0.931748562369075 0.0
endloop
endfacet
facet normal -0.866025403784439 -0.5 0.0
outer loop
vertex 3.11769145362398 1.8 9.0
vertex 3.47733297464065 0.931748562369075 0.0
vertex 3.47733297464065 0.931748562369075 9.0
endloop
endfacet
facet normal -0.965925826289068 -0.258819045102521 0.0
outer loop
vertex 3.47733297464065 0.931748562369075 0.0
vertex 3.11769145362398 1.8 9.0
vertex 3.11769145362398 1.8 0.0
endloop
endfacet
facet normal -0.707106781186548 -0.707106781186547 0.0
outer loop
vertex 2.54558441227157 2.54558441227157 9.0
vertex 3.11769145362398 1.8 0.0
vertex 3.11769145362398 1.8 9.0
endloop
endfacet
facet normal -0.866025403784439 -0.5 0.0
outer loop
vertex 3.11769145362398 1.8 0.0
vertex 2.54558441227157 2.54558441227157 9.0
vertex 2.54558441227157 2.54558441227157 0.0
endloop
endfacet
facet normal -0.707106781186548 -0.707106781186547 0.0
outer loop
vertex 2.54558441227157 2.54558441227157 9.0
vertex 1.8 3.11769145362398 0.0
vertex 2.54558441227157 2.54558441227157 0.0
endloop
endfacet
facet normal -0.5 -0.866025403784439 0.0
outer loop
vertex 1.8 3.11769145362398 0.0
vertex 2.54558441227157 2.54558441227157 9.0
vertex 1.8 3.11769145362398 9.0
endloop
endfacet
facet normal -0.5 -0.866025403784439 0.0
outer loop
vertex 1.8 3.11769145362398 9.0
vertex 0.931748562369075 3.47733297464065 0.0
vertex 1.8 3.11769145362398 0.0
endloop
endfacet
facet normal -0.258819045102521 -0.965925826289068 0.0
outer loop
vertex 0.931748562369075 3.47733297464065 0.0
vertex 1.8 3.11769145362398 9.0
vertex 0.931748562369075 3.47733297464065 9.0
endloop
endfacet
facet normal -0.258819045102521 -0.965925826289068 0.0
outer loop
vertex 0.931748562369075 3.47733297464065 9.0
vertex 2.20436423846524e-016 3.6 0.0
vertex 0.931748562369075 3.47733297464065 0.0
endloop
endfacet
facet normal -3.02977736451995e-016 -1.0 0.0
outer loop
vertex 2.20436423846524e-016 3.6 0.0
vertex 0.931748562369075 3.47733297464065 9.0
vertex 2.20436423846524e-016 3.6 9.0
endloop
endfacet
facet normal -3.02977736451995e-016 -1.0 0.0
outer loop
vertex 2.20436423846524e-016 3.6 9.0
vertex -0.931748562369074 3.47733297464065 0.0
vertex 2.20436423846524e-016 3.6 0.0
endloop
endfacet
facet normal 0.258819045102521 -0.965925826289068 0.0
outer loop
vertex -0.931748562369074 3.47733297464065 0.0
vertex 2.20436423846524e-016 3.6 9.0
vertex -0.931748562369074 3.47733297464065 9.0
endloop
endfacet
facet normal 0.258819045102521 -0.965925826289068 0.0
outer loop
vertex -0.931748562369074 3.47733297464065 9.0
vertex -1.8 3.11769145362398 0.0
vertex -0.931748562369074 3.47733297464065 0.0
endloop
endfacet
facet normal 0.5 -0.866025403784439 0.0
outer loop
vertex -1.8 3.11769145362398 0.0
vertex -0.931748562369074 3.47733297464065 9.0
vertex -1.8 3.11769145362398 9.0
endloop
endfacet
facet normal 0.5 -0.866025403784439 0.0
outer loop
vertex -1.8 3.11769145362398 9.0
vertex -2.54558441227157 2.54558441227157 0.0
vertex -1.8 3.11769145362398 0.0
endloop
endfacet
facet normal 0.707106781186547 -0.707106781186548 0.0
outer loop
vertex -2.54558441227157 2.54558441227157 0.0
vertex -1.8 3.11769145362398 9.0
vertex -2.54558441227157 2.54558441227157 9.0
endloop
endfacet
facet normal 0.707106781186547 -0.707106781186548 0.0
outer loop
vertex -2.54558441227157 2.54558441227157 0.0
vertex -3.11769145362398 1.8 9.0
vertex -3.11769145362398 1.8 0.0
endloop
endfacet
facet normal 0.866025403784439 -0.5 0.0
outer loop
vertex -3.11769145362398 1.8 9.0
vertex -2.54558441227157 2.54558441227157 0.0
vertex -2.54558441227157 2.54558441227157 9.0
endloop
endfacet
facet normal 0.866025403784439 -0.5 0.0
outer loop
vertex -3.11769145362398 1.8 0.0
vertex -3.47733297464064 0.931748562369076 9.0
vertex -3.47733297464064 0.931748562369076 0.0
endloop
endfacet
facet normal 0.965925826289068 -0.258819045102521 0.0
outer loop
vertex -3.47733297464064 0.931748562369076 9.0
vertex -3.11769145362398 1.8 0.0
vertex -3.11769145362398 1.8 9.0
endloop
endfacet
facet normal 0.965925826289068 -0.258819045102521 0.0
outer loop
vertex -3.47733297464064 0.931748562369076 0.0
vertex -3.6 4.40872847693047e-016 9.0
vertex -3.6 4.40872847693047e-016 0.0
endloop
endfacet
facet normal 0.99144486137381 -0.130526192220052 0.0
outer loop
vertex -3.6 4.40872847693047e-016 9.0
vertex -3.47733297464064 0.931748562369076 0.0
vertex -3.47733297464064 0.931748562369076 9.0
endloop
endfacet
facet normal -0.965925826289068 0.258819045102521 0.0
outer loop
vertex -5.42585449897558 1.45385333124929 9.0
vertex -5.6172579211603 1.01342545466565e-015 8.0
vertex -5.6172579211603 1.01342545466565e-015 9.0
endloop
endfacet
facet normal -0.99144486137381 0.130526192220052 0.0
outer loop
vertex -5.6172579211603 1.01342545466565e-015 8.0
vertex -5.42585449897558 1.45385333124929 9.0
vertex -5.42585449897558 1.45385333124929 8.0
endloop
endfacet
facet normal -0.923879532511287 0.38268343236509 0.0
outer loop
vertex -4.86468805933419 2.80862896058015 9.0
vertex -5.42585449897558 1.45385333124929 8.0
vertex -5.42585449897558 1.45385333124929 9.0
endloop
endfacet
facet normal -0.965925826289068 0.258819045102521 0.0
outer loop
vertex -5.42585449897558 1.45385333124929 8.0
vertex -4.86468805933419 2.80862896058015 9.0
vertex -4.86468805933419 2.80862896058015 8.0
endloop
endfacet
facet normal -0.707106781186547 0.707106781186548 1.26941564110024e-018
outer loop
vertex -3.9720011677263 3.9720011677263 9.0
vertex -4.86468805933419 2.80862896058015 8.0
vertex -4.86468805933419 2.80862896058015 9.0
endloop
endfacet
facet normal -0.793353340291235 0.608761429008721 2.51711122863275e-018
outer loop
vertex -4.86468805933419 2.80862896058015 8.0
vertex -3.9720011677263 3.9720011677263 9.0
vertex -4.86468805933419 2.80862896058015 7.35
endloop
endfacet
facet normal -0.793353340291235 0.608761429008721 2.51711122863275e-018
outer loop
vertex -4.86468805933419 2.80862896058015 7.35
vertex -3.9720011677263 3.9720011677263 9.0
vertex -4.86468805933419 2.80862896058015 0.650000000000004
endloop
endfacet
facet normal -0.793353340291235 0.608761429008721 2.51711122863275e-018
outer loop
vertex -4.86468805933419 2.80862896058015 0.650000000000004
vertex -3.9720011677263 3.9720011677263 0.0
vertex -4.86468805933419 2.80862896058015 0.0
endloop
endfacet
facet normal -0.707106781186547 0.707106781186548 1.26941564110024e-018
outer loop
vertex -3.9720011677263 3.9720011677263 0.0
vertex -4.86468805933419 2.80862896058015 0.650000000000004
vertex -3.9720011677263 3.9720011677263 9.0
endloop
endfacet
facet normal -0.707106781186547 0.707106781186548 1.26941564110024e-018
outer loop
vertex -3.9720011677263 3.9720011677263 9.0
vertex -2.80862896058015 4.86468805933419 0.0
vertex -3.9720011677263 3.9720011677263 0.0
endloop
endfacet
facet normal -0.5 0.866025403784439 0.0
outer loop
vertex -2.80862896058015 4.86468805933419 0.0
vertex -3.9720011677263 3.9720011677263 9.0
vertex -2.80862896058015 4.86468805933419 9.0
endloop
endfacet
facet normal -0.5 0.866025403784439 0.0
outer loop
vertex -2.80862896058015 4.86468805933419 9.0
vertex -1.45385333124928 5.42585449897558 0.0
vertex -2.80862896058015 4.86468805933419 0.0
endloop
endfacet
facet normal -0.258819045102521 0.965925826289068 0.0
outer loop
vertex -1.45385333124928 5.42585449897558 0.0
vertex -2.80862896058015 4.86468805933419 9.0
vertex -1.45385333124928 5.42585449897558 9.0
endloop
endfacet
facet normal -0.258819045102521 0.965925826289068 0.0
outer loop
vertex -1.45385333124928 5.42585449897558 9.0
vertex -1.71841707530262e-015 5.6172579211603 0.0
vertex -1.45385333124928 5.42585449897558 0.0
endloop
endfacet
facet normal 3.7426661561717e-016 1.0 0.0
outer loop
vertex -1.71841707530262e-015 5.6172579211603 0.0
vertex -1.45385333124928 5.42585449897558 9.0
vertex -1.71841707530262e-015 5.6172579211603 9.0
endloop
endfacet
facet normal 3.7426661561717e-016 1.0 0.0
outer loop
vertex -1.71841707530262e-015 5.6172579211603 9.0
vertex 1.45385333124929 5.42585449897558 0.0
vertex -1.71841707530262e-015 5.6172579211603 0.0
endloop
endfacet
facet normal 0.258819045102521 0.965925826289068 0.0
outer loop
vertex 1.45385333124929 5.42585449897558 0.0
vertex -1.71841707530262e-015 5.6172579211603 9.0
vertex 1.45385333124929 5.42585449897558 9.0
endloop
endfacet
facet normal 0.258819045102521 0.965925826289068 0.0
outer loop
vertex 1.45385333124929 5.42585449897558 9.0
vertex 2.80862896058016 4.86468805933419 0.0
vertex 1.45385333124929 5.42585449897558 0.0
endloop
endfacet
facet normal 0.500000000000001 0.866025403784438 0.0
outer loop
vertex 2.80862896058016 4.86468805933419 0.0
vertex 1.45385333124929 5.42585449897558 9.0
vertex 2.80862896058016 4.86468805933419 9.0
endloop
endfacet
facet normal 0.500000000000001 0.866025403784438 0.0
outer loop
vertex 2.80862896058016 4.86468805933419 9.0
vertex 3.97200116772629 3.97200116772631 0.0
vertex 2.80862896058016 4.86468805933419 0.0
endloop
endfacet
facet normal 0.707106781186548 0.707106781186548 -1.26941564110023e-018
outer loop
vertex 3.97200116772629 3.97200116772631 0.0
vertex 2.80862896058016 4.86468805933419 9.0
vertex 3.97200116772629 3.97200116772631 9.0
endloop
endfacet
facet normal 0.707106781186548 0.707106781186548 -1.26941564110023e-018
outer loop
vertex 3.97200116772629 3.97200116772631 0.0
vertex 4.86468805933419 2.80862896058016 0.650000000000004
vertex 4.86468805933419 2.80862896058016 0.0
endloop
endfacet
facet normal 0.793353340291234 0.608761429008722 -2.51711122863273e-018
outer loop
vertex 4.86468805933419 2.80862896058016 0.650000000000004
vertex 3.97200116772629 3.97200116772631 0.0
vertex 4.86468805933419 2.80862896058016 7.35
endloop
endfacet
facet normal 0.793353340291234 0.608761429008722 -2.51711122863273e-018
outer loop
vertex 4.86468805933419 2.80862896058016 7.35
vertex 3.97200116772629 3.97200116772631 0.0
vertex 4.86468805933419 2.80862896058016 8.0
endloop
endfacet
facet normal 0.793353340291234 0.608761429008722 -2.51711122863273e-018
outer loop
vertex 4.86468805933419 2.80862896058016 8.0
vertex 3.97200116772629 3.97200116772631 0.0
vertex 4.86468805933419 2.80862896058016 9.0
endloop
endfacet
facet normal 0.793353340291234 0.608761429008722 -2.51711122863273e-018
outer loop
vertex 4.86468805933419 2.80862896058016 9.0
vertex 3.97200116772629 3.97200116772631 0.0
vertex 3.97200116772629 3.97200116772631 9.0
endloop
endfacet
facet normal 0.923879532511287 0.38268343236509 0.0
outer loop
vertex 4.86468805933419 2.80862896058016 8.0
vertex 5.42585449897558 1.45385333124928 9.0
vertex 5.42585449897558 1.45385333124928 8.0
endloop
endfacet
facet normal 0.965925826289068 0.258819045102521 0.0
outer loop
vertex 5.42585449897558 1.45385333124928 9.0
vertex 4.86468805933419 2.80862896058016 8.0
vertex 4.86468805933419 2.80862896058016 9.0
endloop
endfacet
facet normal 0.0 0.0 1.0
outer loop
vertex -5.6172579211603 1.01342545466565e-015 8.0
vertex -11.1646880593342 2.80862896058015 8.0
vertex -11.1646880593342 7.40241201668823e-015 8.0
endloop
endfacet
facet normal 0.0 0.0 1.0
outer loop
vertex -11.1646880593342 2.80862896058015 8.0
vertex -5.6172579211603 1.01342545466565e-015 8.0
vertex -5.42585449897558 1.45385333124929 8.0
endloop
endfacet
facet normal 0.0 0.0 1.0
outer loop
vertex -11.1646880593342 2.80862896058015 8.0
vertex -5.42585449897558 1.45385333124929 8.0
vertex -4.86468805933419 2.80862896058015 8.0
endloop
endfacet
facet normal -9.79633793229208e-016 -1.0 -2.11356355930754e-017
outer loop
vertex -3.6 4.40872847693047e-016 0.0
vertex -7.26468805933419 0.00862896058015672 2.70096189432334
vertex -11.1646880593342 7.40241201668823e-015 0.0
endloop
endfacet
facet normal -9.79633793229208e-016 -1.0 -2.11356355930754e-017
outer loop
vertex -7.26468805933419 0.00862896058015672 2.70096189432334
vertex -3.6 4.40872847693047e-016 0.0
vertex -6.95402788755437 0.00862896058015672 2.93933982822018
endloop
endfacet
facet normal -9.79633793229208e-016 -1.0 -2.11356355930754e-017
outer loop
vertex -6.95402788755437 0.00862896058015672 2.93933982822018
vertex -3.6 4.40872847693047e-016 0.0
vertex -6.71564995365753 0.00862896058015672 3.25
endloop
endfacet
facet normal -9.79633793229208e-016 -1.0 -2.11356355930754e-017
outer loop
vertex -6.71564995365753 0.00862896058015672 3.25
vertex -3.6 4.40872847693047e-016 0.0
vertex -3.6 4.40872847693047e-016 9.0
endloop
endfacet
facet normal -9.79633793229208e-016 -1.0 -2.11356355930754e-017
outer loop
vertex -11.1646880593342 7.40241201668823e-015 0.0
vertex -7.26468805933419 0.00862896058015672 2.70096189432334
vertex -7.62645949168041 0.00862896058015672 2.5511112605664
endloop
endfacet
facet normal -9.79633793229208e-016 -1.0 -2.11356355930754e-017
outer loop
vertex -11.1646880593342 7.40241201668823e-015 0.0
vertex -7.62645949168041 0.00862896058015672 2.5511112605664
vertex -8.01468805933419 0.00862896058015672 2.5
endloop
endfacet
facet normal -9.79633793229208e-016 -1.0 -2.11356355930754e-017
outer loop
vertex -6.71564995365753 0.00862896058015672 3.25
vertex -3.6 4.40872847693047e-016 9.0
vertex -6.56579931990059 0.00862896058015672 3.61177143234622
endloop
endfacet
facet normal -9.79633793229208e-016 -1.0 -2.11356355930754e-017
outer loop
vertex -6.56579931990059 0.00862896058015672 3.61177143234622
vertex -3.6 4.40872847693047e-016 9.0
vertex -6.51468805933419 0.00862896058015672 4.0
endloop
endfacet
facet normal -9.79633793229208e-016 -1.0 -2.11356355930754e-017
outer loop
vertex -6.51468805933419 0.00862896058015672 4.0
vertex -3.6 4.40872847693047e-016 9.0
vertex -6.56579931990059 0.00862896058015672 4.38822856765378
endloop
endfacet
facet normal -9.79633793229208e-016 -1.0 -2.11356355930754e-017
outer loop
vertex -6.56579931990059 0.00862896058015672 4.38822856765378
vertex -3.6 4.40872847693047e-016 9.0
vertex -6.71564995365753 0.00862896058015672 4.75
endloop
endfacet
facet normal -9.79633793229208e-016 -1.0 -2.11356355930754e-017
outer loop
vertex -6.71564995365753 0.00862896058015672 4.75
vertex -3.6 4.40872847693047e-016 9.0
vertex -6.95402788755437 0.00862896058015672 5.06066017177982
endloop
endfacet
facet normal -9.79633793229208e-016 -1.0 -2.11356355930754e-017
outer loop
vertex -6.95402788755437 0.00862896058015672 5.06066017177982
vertex -3.6 4.40872847693047e-016 9.0
vertex -7.26468805933419 0.00862896058015672 5.29903810567666
endloop
endfacet
facet normal -9.79633793229208e-016 -1.0 -2.11356355930754e-017
outer loop
vertex -7.26468805933419 0.00862896058015672 5.29903810567666
vertex -3.6 4.40872847693047e-016 9.0
vertex -7.62645949168041 0.00862896058015672 5.4488887394336
endloop
endfacet
facet normal -9.79633793229208e-016 -1.0 -2.11356355930754e-017
outer loop
vertex -7.62645949168041 0.00862896058015672 5.4488887394336
vertex -3.6 4.40872847693047e-016 9.0
vertex -8.01468805933419 0.00862896058015672 5.5
endloop
endfacet
facet normal -9.79633793229208e-016 -1.0 -2.11356355930754e-017
outer loop
vertex -8.01468805933419 0.00862896058015672 5.5
vertex -3.6 4.40872847693047e-016 9.0
vertex -5.6172579211603 1.01342545466565e-015 8.0
endloop
endfacet
facet normal -9.79633793229208e-016 -1.0 -2.11356355930754e-017
outer loop
vertex -5.6172579211603 1.01342545466565e-015 8.0
vertex -3.6 4.40872847693047e-016 9.0
vertex -5.6172579211603 1.01342545466565e-015 9.0
endloop
endfacet
facet normal -9.79633793229208e-016 -1.0 -2.11356355930754e-017
outer loop
vertex -11.1646880593342 7.40241201668823e-015 0.0
vertex -9.46357679876779 0.00862896058015672 3.61177143234622
vertex -11.1646880593342 7.40241201668823e-015 8.0
endloop
endfacet
facet normal -9.79633793229208e-016 -1.0 -2.11356355930754e-017
outer loop
vertex -9.46357679876779 0.00862896058015672 3.61177143234622
vertex -11.1646880593342 7.40241201668823e-015 0.0
vertex -9.31372616501085 0.00862896058015672 3.25
endloop
endfacet
facet normal -9.79633793229208e-016 -1.0 -2.11356355930754e-017
outer loop
vertex -9.31372616501085 0.00862896058015672 3.25
vertex -11.1646880593342 7.40241201668823e-015 0.0
vertex -9.07534823111401 0.00862896058015672 2.93933982822018
endloop
endfacet
facet normal -9.79633793229208e-016 -1.0 -2.11356355930754e-017
outer loop
vertex -9.07534823111401 0.00862896058015672 2.93933982822018
vertex -11.1646880593342 7.40241201668823e-015 0.0
vertex -8.76468805933419 0.00862896058015672 2.70096189432334
endloop
endfacet
facet normal -9.79633793229208e-016 -1.0 -2.11356355930754e-017
outer loop
vertex -8.76468805933419 0.00862896058015672 2.70096189432334
vertex -11.1646880593342 7.40241201668823e-015 0.0
vertex -8.40291662698797 0.00862896058015672 2.5511112605664
endloop
endfacet
facet normal -9.79633793229208e-016 -1.0 -2.11356355930754e-017
outer loop
vertex -8.40291662698797 0.00862896058015672 2.5511112605664
vertex -11.1646880593342 7.40241201668823e-015 0.0
vertex -8.01468805933419 0.00862896058015672 2.5
endloop
endfacet
facet normal -9.79633793229208e-016 -1.0 -2.11356355930754e-017
outer loop
vertex -11.1646880593342 7.40241201668823e-015 8.0
vertex -9.46357679876779 0.00862896058015672 3.61177143234622
vertex -9.51468805933419 0.00862896058015672 4.0
endloop
endfacet
facet normal -9.79633793229208e-016 -1.0 -2.11356355930754e-017
outer loop
vertex -11.1646880593342 7.40241201668823e-015 8.0
vertex -9.51468805933419 0.00862896058015672 4.0
vertex -9.46357679876779 0.00862896058015672 4.38822856765378
endloop
endfacet
facet normal -9.79633793229208e-016 -1.0 -2.11356355930754e-017
outer loop
vertex -11.1646880593342 7.40241201668823e-015 8.0
vertex -9.46357679876779 0.00862896058015672 4.38822856765378
vertex -9.31372616501085 0.00862896058015672 4.75
endloop
endfacet
facet normal -9.79633793229208e-016 -1.0 -2.11356355930754e-017
outer loop
vertex -11.1646880593342 7.40241201668823e-015 8.0
vertex -9.31372616501085 0.00862896058015672 4.75
vertex -9.07534823111401 0.00862896058015672 5.06066017177982
endloop
endfacet
facet normal -9.79633793229208e-016 -1.0 -2.11356355930754e-017
outer loop
vertex -11.1646880593342 7.40241201668823e-015 8.0
vertex -9.07534823111401 0.00862896058015672 5.06066017177982
vertex -8.76468805933419 0.00862896058015672 5.29903810567666
endloop
endfacet
facet normal -9.79633793229208e-016 -1.0 -2.11356355930754e-017
outer loop
vertex -11.1646880593342 7.40241201668823e-015 8.0
vertex -8.76468805933419 0.00862896058015672 5.29903810567666
vertex -8.40291662698797 0.00862896058015672 5.4488887394336
endloop
endfacet
facet normal -9.79633793229208e-016 -1.0 -2.11356355930754e-017
outer loop
vertex -11.1646880593342 7.40241201668823e-015 8.0
vertex -8.40291662698797 0.00862896058015672 5.4488887394336
vertex -8.01468805933419 0.00862896058015672 5.5
endloop
endfacet
facet normal -9.79633793229208e-016 -1.0 -2.11356355930754e-017
outer loop
vertex -11.1646880593342 7.40241201668823e-015 8.0
vertex -8.01468805933419 0.00862896058015672 5.5
vertex -5.6172579211603 1.01342545466565e-015 8.0
endloop
endfacet
facet normal -1.0 0.0 0.0
outer loop
vertex -11.1646880593342 7.40241201668823e-015 8.0
vertex -11.1646880593342 1.80862896058016 7.35
vertex -11.1646880593342 7.40241201668823e-015 0.0
endloop
endfacet
facet normal -1.0 0.0 0.0
outer loop
vertex -11.1646880593342 1.80862896058016 7.35
vertex -11.1646880593342 7.40241201668823e-015 8.0
vertex -11.1646880593342 2.80862896058015 8.0
endloop
endfacet
facet normal -1.0 0.0 0.0
outer loop
vertex -11.1646880593342 1.80862896058016 7.35
vertex -11.1646880593342 2.80862896058015 8.0
vertex -11.1646880593342 2.80862896058015 7.35
endloop
endfacet
facet normal -1.0 0.0 0.0
outer loop
vertex -11.1646880593342 7.40241201668823e-015 0.0
vertex -11.1646880593342 1.80862896058016 0.650000000000002
vertex -11.1646880593342 2.80862896058015 0.0
endloop
endfacet
facet normal -1.0 0.0 0.0
outer loop
vertex -11.1646880593342 1.80862896058016 0.650000000000002
vertex -11.1646880593342 7.40241201668823e-015 0.0
vertex -11.1646880593342 1.80862896058016 7.35
endloop
endfacet
facet normal -1.0 0.0 0.0
outer loop
vertex -11.1646880593342 2.80862896058015 0.0
vertex -11.1646880593342 1.80862896058016 0.650000000000002
vertex -11.1646880593342 2.80862896058015 0.650000000000002
endloop
endfacet
facet normal -0.0 -0.0 1.0
outer loop
vertex 5.42585449897558 1.45385333124928 8.0
vertex 11.1646880593342 2.80862896058016 8.0
vertex 4.86468805933419 2.80862896058016 8.0
endloop
endfacet
facet normal -0.0 -0.0 1.0
outer loop
vertex 11.1646880593342 2.80862896058016 8.0
vertex 5.42585449897558 1.45385333124928 8.0
vertex 5.6172579211603 7.49053596926785e-015 8.0
endloop
endfacet
facet normal -0.0 -0.0 1.0
outer loop
vertex 11.1646880593342 2.80862896058016 8.0
vertex 5.6172579211603 7.49053596926785e-015 8.0
vertex 11.1646880593342 1.05748743095546e-015 8.0
endloop
endfacet
facet normal -1.93530386947438e-016 -1.0 1.1867060666122e-016
outer loop
vertex 11.1646880593342 1.05748743095546e-015 0.0
vertex 8.76468805933419 0.00862896058015655 2.70096189432334
vertex 3.6 0.0 0.0
endloop
endfacet
facet normal -1.93530386947438e-016 -1.0 1.1867060666122e-016
outer loop
vertex 8.76468805933419 0.00862896058015655 2.70096189432334
vertex 11.1646880593342 1.05748743095546e-015 0.0
vertex 9.07534823111401 0.00862896058015655 2.93933982822018
endloop
endfacet
facet normal -1.93530386947438e-016 -1.0 1.1867060666122e-016
outer loop
vertex 9.07534823111401 0.00862896058015655 2.93933982822018
vertex 11.1646880593342 1.05748743095546e-015 0.0
vertex 9.31372616501084 0.00862896058015655 3.25
endloop
endfacet
facet normal -1.93530386947438e-016 -1.0 1.1867060666122e-016
outer loop
vertex 9.31372616501084 0.00862896058015655 3.25
vertex 11.1646880593342 1.05748743095546e-015 0.0
vertex 9.46357679876779 0.00862896058015655 3.61177143234622
endloop
endfacet
facet normal -1.93530386947438e-016 -1.0 1.1867060666122e-016
outer loop
vertex 9.46357679876779 0.00862896058015655 3.61177143234622
vertex 11.1646880593342 1.05748743095546e-015 0.0
vertex 11.1646880593342 1.05748743095546e-015 8.0
endloop
endfacet
facet normal -1.93530386947438e-016 -1.0 1.1867060666122e-016
outer loop
vertex 3.6 0.0 0.0
vertex 8.76468805933419 0.00862896058015655 2.70096189432334
vertex 8.40291662698797 0.00862896058015655 2.5511112605664
endloop
endfacet
facet normal -1.93530386947438e-016 -1.0 1.1867060666122e-016
outer loop
vertex 3.6 0.0 0.0
vertex 8.40291662698797 0.00862896058015655 2.5511112605664
vertex 8.01468805933419 0.00862896058015655 2.5
endloop
endfacet
facet normal -1.93530386947438e-016 -1.0 1.1867060666122e-016
outer loop
vertex 9.46357679876779 0.00862896058015655 3.61177143234622
vertex 11.1646880593342 1.05748743095546e-015 8.0
vertex 9.51468805933419 0.00862896058015655 4.0
endloop
endfacet
facet normal -1.93530386947438e-016 -1.0 1.1867060666122e-016
outer loop
vertex 9.51468805933419 0.00862896058015655 4.0
vertex 11.1646880593342 1.05748743095546e-015 8.0
vertex 9.46357679876779 0.00862896058015655 4.38822856765378
endloop
endfacet
facet normal -1.93530386947438e-016 -1.0 1.1867060666122e-016
outer loop
vertex 9.46357679876779 0.00862896058015655 4.38822856765378
vertex 11.1646880593342 1.05748743095546e-015 8.0
vertex 9.31372616501085 0.00862896058015655 4.75
endloop
endfacet
facet normal -1.93530386947438e-016 -1.0 1.1867060666122e-016
outer loop
vertex 9.31372616501085 0.00862896058015655 4.75
vertex 11.1646880593342 1.05748743095546e-015 8.0
vertex 9.07534823111401 0.00862896058015655 5.06066017177982
endloop
endfacet
facet normal -1.93530386947438e-016 -1.0 1.1867060666122e-016
outer loop
vertex 9.07534823111401 0.00862896058015655 5.06066017177982
vertex 11.1646880593342 1.05748743095546e-015 8.0
vertex 8.76468805933419 0.00862896058015655 5.29903810567666
endloop
endfacet
facet normal -1.93530386947438e-016 -1.0 1.1867060666122e-016
outer loop
vertex 8.76468805933419 0.00862896058015655 5.29903810567666
vertex 11.1646880593342 1.05748743095546e-015 8.0
vertex 8.40291662698797 0.00862896058015655 5.4488887394336
endloop
endfacet
facet normal -1.93530386947438e-016 -1.0 1.1867060666122e-016
outer loop
vertex 8.40291662698797 0.00862896058015655 5.4488887394336
vertex 11.1646880593342 1.05748743095546e-015 8.0
vertex 8.01468805933419 0.00862896058015655 5.5
endloop
endfacet
facet normal -1.93530386947438e-016 -1.0 1.1867060666122e-016
outer loop
vertex 3.6 0.0 0.0
vertex 6.71564995365753 0.00862896058015655 3.25
vertex 3.6 0.0 9.0
endloop
endfacet
facet normal -1.93530386947438e-016 -1.0 1.1867060666122e-016
outer loop
vertex 6.71564995365753 0.00862896058015655 3.25
vertex 3.6 0.0 0.0
vertex 6.95402788755437 0.00862896058015655 2.93933982822018
endloop
endfacet
facet normal -1.93530386947438e-016 -1.0 1.1867060666122e-016
outer loop
vertex 6.95402788755437 0.00862896058015655 2.93933982822018
vertex 3.6 0.0 0.0
vertex 7.26468805933419 0.00862896058015655 2.70096189432334
endloop
endfacet
facet normal -1.93530386947438e-016 -1.0 1.1867060666122e-016
outer loop
vertex 7.26468805933419 0.00862896058015655 2.70096189432334
vertex 3.6 0.0 0.0
vertex 7.62645949168041 0.00862896058015655 2.5511112605664
endloop
endfacet
facet normal -1.93530386947438e-016 -1.0 1.1867060666122e-016
outer loop
vertex 7.62645949168041 0.00862896058015655 2.5511112605664
vertex 3.6 0.0 0.0
vertex 8.01468805933419 0.00862896058015655 2.5
endloop
endfacet
facet normal -1.93530386947438e-016 -1.0 1.1867060666122e-016
outer loop
vertex 3.6 0.0 9.0
vertex 6.71564995365753 0.00862896058015655 3.25
vertex 6.56579931990059 0.00862896058015655 3.61177143234622
endloop
endfacet
facet normal -1.93530386947438e-016 -1.0 1.1867060666122e-016
outer loop
vertex 3.6 0.0 9.0
vertex 6.56579931990059 0.00862896058015655 3.61177143234622
vertex 6.51468805933419 0.00862896058015655 4.0
endloop
endfacet
facet normal -1.93530386947438e-016 -1.0 1.1867060666122e-016
outer loop
vertex 3.6 0.0 9.0
vertex 6.51468805933419 0.00862896058015655 4.0
vertex 6.56579931990059 0.00862896058015655 4.38822856765378
endloop
endfacet
facet normal -1.93530386947438e-016 -1.0 1.1867060666122e-016
outer loop
vertex 3.6 0.0 9.0
vertex 6.56579931990059 0.00862896058015655 4.38822856765378
vertex 6.71564995365753 0.00862896058015655 4.75
endloop
endfacet
facet normal -1.93530386947438e-016 -1.0 1.1867060666122e-016
outer loop
vertex 3.6 0.0 9.0
vertex 6.71564995365753 0.00862896058015655 4.75
vertex 6.95402788755437 0.00862896058015655 5.06066017177982
endloop
endfacet
facet normal -1.93530386947438e-016 -1.0 1.1867060666122e-016
outer loop
vertex 3.6 0.0 9.0
vertex 6.95402788755437 0.00862896058015655 5.06066017177982
vertex 7.26468805933419 0.00862896058015655 5.29903810567666
endloop
endfacet
facet normal -1.93530386947438e-016 -1.0 1.1867060666122e-016
outer loop
vertex 3.6 0.0 9.0
vertex 7.26468805933419 0.00862896058015655 5.29903810567666
vertex 7.62645949168041 0.00862896058015655 5.4488887394336
endloop
endfacet
facet normal -1.93530386947438e-016 -1.0 1.1867060666122e-016
outer loop
vertex 3.6 0.0 9.0
vertex 7.62645949168041 0.00862896058015655 5.4488887394336
vertex 8.01468805933419 0.00862896058015655 5.5
endloop
endfacet
facet normal -1.93530386947438e-016 -1.0 1.1867060666122e-016
outer loop
vertex 3.6 0.0 9.0
vertex 8.01468805933419 0.00862896058015655 5.5
vertex 5.6172579211603 7.49053596926785e-015 8.0
endloop
endfacet
facet normal -1.93530386947438e-016 -1.0 1.1867060666122e-016
outer loop
vertex 5.6172579211603 7.49053596926785e-015 8.0
vertex 8.01468805933419 0.00862896058015655 5.5
vertex 11.1646880593342 1.05748743095546e-015 8.0
endloop
endfacet
facet normal -1.93530386947438e-016 -1.0 1.1867060666122e-016
outer loop
vertex 3.6 0.0 9.0
vertex 5.6172579211603 7.49053596926785e-015 8.0
vertex 5.6172579211603 7.49053596926785e-015 9.0
endloop
endfacet
facet normal -0.0 1.0 -0.0
outer loop
vertex 4.86468805933419 2.80862896058016 8.0
vertex 11.1646880593342 2.80862896058016 7.35
vertex 4.86468805933419 2.80862896058016 7.35
endloop
endfacet
facet normal -0.0 1.0 -0.0
outer loop
vertex 11.1646880593342 2.80862896058016 7.35
vertex 4.86468805933419 2.80862896058016 8.0
vertex 11.1646880593342 2.80862896058016 8.0
endloop
endfacet
facet normal 1.0 -0.0 -0.0
outer loop
vertex 11.1646880593342 1.05748743095546e-015 0.0
vertex 11.1646880593342 1.80862896058016 0.650000000000002
vertex 11.1646880593342 1.05748743095546e-015 8.0
endloop
endfacet
facet normal 1.0 -0.0 -0.0
outer loop
vertex 11.1646880593342 1.80862896058016 0.650000000000002
vertex 11.1646880593342 1.05748743095546e-015 0.0
vertex 11.1646880593342 2.80862896058016 0.0
endloop
endfacet
facet normal 1.0 -0.0 -0.0
outer loop
vertex 11.1646880593342 1.80862896058016 0.650000000000002
vertex 11.1646880593342 2.80862896058016 0.0
vertex 11.1646880593342 2.80862896058016 0.650000000000002
endloop
endfacet
facet normal 1.0 -0.0 -0.0
outer loop
vertex 11.1646880593342 1.05748743095546e-015 8.0
vertex 11.1646880593342 1.80862896058016 7.35
vertex 11.1646880593342 2.80862896058016 8.0
endloop
endfacet
facet normal 1.0 -0.0 -0.0
outer loop
vertex 11.1646880593342 1.80862896058016 7.35
vertex 11.1646880593342 1.05748743095546e-015 8.0
vertex 11.1646880593342 1.80862896058016 0.650000000000002
endloop
endfacet
facet normal 1.0 -0.0 -0.0
outer loop
vertex 11.1646880593342 2.80862896058016 8.0
vertex 11.1646880593342 1.80862896058016 7.35
vertex 11.1646880593342 2.80862896058016 7.35
endloop
endfacet
facet normal 0.0 0.0 -1.0
outer loop
vertex -4.86468805933419 2.80862896058015 0.0
vertex -11.1646880593342 7.40241201668823e-015 0.0
vertex -11.1646880593342 2.80862896058015 0.0
endloop
endfacet
facet normal 0.0 0.0 -1.0
outer loop
vertex -11.1646880593342 7.40241201668823e-015 0.0
vertex -4.86468805933419 2.80862896058015 0.0
vertex -3.6 4.40872847693047e-016 0.0
endloop
endfacet
facet normal 0.0 0.0 -1.0
outer loop
vertex -3.6 4.40872847693047e-016 0.0
vertex -4.86468805933419 2.80862896058015 0.0
vertex -3.9720011677263 3.9720011677263 0.0
endloop
endfacet
facet normal 0.0 0.0 -1.0
outer loop
vertex -3.6 4.40872847693047e-016 0.0
vertex -3.9720011677263 3.9720011677263 0.0
vertex -3.47733297464064 0.931748562369076 0.0
endloop
endfacet
facet normal 0.0 0.0 -1.0
outer loop
vertex -3.47733297464064 0.931748562369076 0.0
vertex -3.9720011677263 3.9720011677263 0.0
vertex -2.80862896058015 4.86468805933419 0.0
endloop
endfacet
facet normal 0.0 0.0 -1.0
outer loop
vertex -3.47733297464064 0.931748562369076 0.0
vertex -2.80862896058015 4.86468805933419 0.0
vertex -3.11769145362398 1.8 0.0
endloop
endfacet
facet normal 0.0 0.0 -1.0
outer loop
vertex -3.11769145362398 1.8 0.0
vertex -2.80862896058015 4.86468805933419 0.0
vertex -2.54558441227157 2.54558441227157 0.0
endloop
endfacet
facet normal 0.0 0.0 -1.0
outer loop
vertex -2.54558441227157 2.54558441227157 0.0
vertex -2.80862896058015 4.86468805933419 0.0
vertex -1.45385333124928 5.42585449897558 0.0
endloop
endfacet
facet normal 0.0 0.0 -1.0
outer loop
vertex -2.54558441227157 2.54558441227157 0.0
vertex -1.45385333124928 5.42585449897558 0.0
vertex -1.8 3.11769145362398 0.0
endloop
endfacet
facet normal 0.0 0.0 -1.0
outer loop
vertex -1.8 3.11769145362398 0.0
vertex -1.45385333124928 5.42585449897558 0.0
vertex -0.931748562369074 3.47733297464065 0.0
endloop
endfacet
facet normal 0.0 0.0 -1.0
outer loop
vertex -0.931748562369074 3.47733297464065 0.0
vertex -1.45385333124928 5.42585449897558 0.0
vertex -1.71841707530262e-015 5.6172579211603 0.0
endloop
endfacet
facet normal 0.0 0.0 -1.0
outer loop
vertex -0.931748562369074 3.47733297464065 0.0
vertex -1.71841707530262e-015 5.6172579211603 0.0
vertex 2.20436423846524e-016 3.6 0.0
endloop
endfacet
facet normal 0.0 0.0 -1.0
outer loop
vertex 2.20436423846524e-016 3.6 0.0
vertex -1.71841707530262e-015 5.6172579211603 0.0
vertex 1.45385333124929 5.42585449897558 0.0
endloop
endfacet
facet normal 0.0 0.0 -1.0
outer loop
vertex 2.20436423846524e-016 3.6 0.0
vertex 1.45385333124929 5.42585449897558 0.0
vertex 0.931748562369075 3.47733297464065 0.0
endloop
endfacet
facet normal 0.0 0.0 -1.0
outer loop
vertex 0.931748562369075 3.47733297464065 0.0
vertex 1.45385333124929 5.42585449897558 0.0
vertex 1.8 3.11769145362398 0.0
endloop
endfacet
facet normal 0.0 0.0 -1.0
outer loop
vertex 1.8 3.11769145362398 0.0
vertex 1.45385333124929 5.42585449897558 0.0
vertex 2.80862896058016 4.86468805933419 0.0
endloop
endfacet
facet normal 0.0 0.0 -1.0
outer loop
vertex 1.8 3.11769145362398 0.0
vertex 2.80862896058016 4.86468805933419 0.0
vertex 2.54558441227157 2.54558441227157 0.0
endloop
endfacet
facet normal 0.0 0.0 -1.0
outer loop
vertex 2.54558441227157 2.54558441227157 0.0
vertex 2.80862896058016 4.86468805933419 0.0
vertex 3.11769145362398 1.8 0.0
endloop
endfacet
facet normal 0.0 0.0 -1.0
outer loop
vertex 3.11769145362398 1.8 0.0
vertex 2.80862896058016 4.86468805933419 0.0
vertex 3.97200116772629 3.97200116772631 0.0
endloop
endfacet
facet normal 0.0 0.0 -1.0
outer loop
vertex 3.11769145362398 1.8 0.0
vertex 3.97200116772629 3.97200116772631 0.0
vertex 3.47733297464065 0.931748562369075 0.0
endloop
endfacet
facet normal 0.0 0.0 -1.0
outer loop
vertex 3.47733297464065 0.931748562369075 0.0
vertex 3.97200116772629 3.97200116772631 0.0
vertex 3.6 0.0 0.0
endloop
endfacet
facet normal 0.0 0.0 -1.0
outer loop
vertex 3.6 0.0 0.0
vertex 3.97200116772629 3.97200116772631 0.0
vertex 4.86468805933419 2.80862896058016 0.0
endloop
endfacet
facet normal 0.0 0.0 -1.0
outer loop
vertex 3.6 0.0 0.0
vertex 4.86468805933419 2.80862896058016 0.0
vertex 11.1646880593342 1.05748743095546e-015 0.0
endloop
endfacet
facet normal 0.0 0.0 -1.0
outer loop
vertex 11.1646880593342 1.05748743095546e-015 0.0
vertex 4.86468805933419 2.80862896058016 0.0
vertex 11.1646880593342 2.80862896058016 0.0
endloop
endfacet
facet normal 0.965925826289068 0.0 0.258819045102522
outer loop
vertex 6.56579931990059 1.80862896058016 3.61177143234622
vertex 6.51468805933419 0.00862896058015655 4.0
vertex 6.56579931990059 0.00862896058015655 3.61177143234622
endloop
endfacet
facet normal 1.0 0.0 2.22777747391173e-016
outer loop
vertex 6.51468805933419 0.00862896058015655 4.0
vertex 6.56579931990059 1.80862896058016 3.61177143234622
vertex 6.51468805933419 1.80862896058016 4.0
endloop
endfacet
facet normal 1.0 0.0 2.22777747391173e-016
outer loop
vertex 6.51468805933419 1.80862896058016 4.0
vertex 6.56579931990059 0.00862896058015655 4.38822856765378
vertex 6.51468805933419 0.00862896058015655 4.0
endloop
endfacet
facet normal 0.965925826289068 0.0 -0.258819045102522
outer loop
vertex 6.56579931990059 0.00862896058015655 4.38822856765378
vertex 6.51468805933419 1.80862896058016 4.0
vertex 6.56579931990059 1.80862896058016 4.38822856765378
endloop
endfacet
facet normal 0.965925826289068 0.0 -0.258819045102522
outer loop
vertex 6.56579931990059 1.80862896058016 4.38822856765378
vertex 6.71564995365753 0.00862896058015655 4.75
vertex 6.56579931990059 0.00862896058015655 4.38822856765378
endloop
endfacet
facet normal 0.866025403784438 0.0 -0.500000000000001
outer loop
vertex 6.71564995365753 0.00862896058015655 4.75
vertex 6.56579931990059 1.80862896058016 4.38822856765378
vertex 6.71564995365753 1.80862896058016 4.75
endloop
endfacet
facet normal 0.866025403784438 0.0 -0.500000000000001
outer loop
vertex 6.71564995365753 1.80862896058016 4.75
vertex 6.95402788755437 0.00862896058015655 5.06066017177982
vertex 6.71564995365753 0.00862896058015655 4.75
endloop
endfacet
facet normal 0.707106781186547 0.0 -0.707106781186548
outer loop
vertex 6.95402788755437 0.00862896058015655 5.06066017177982
vertex 6.71564995365753 1.80862896058016 4.75
vertex 6.95402788755437 1.80862896058016 5.06066017177982
endloop
endfacet
facet normal 0.499999999999999 0.0 -0.866025403784439
outer loop
vertex 7.26468805933419 1.80862896058016 5.29903810567666
vertex 6.95402788755437 0.00862896058015655 5.06066017177982
vertex 6.95402788755437 1.80862896058016 5.06066017177982
endloop
endfacet
facet normal 0.707106781186547 0.0 -0.707106781186548
outer loop
vertex 6.95402788755437 0.00862896058015655 5.06066017177982
vertex 7.26468805933419 1.80862896058016 5.29903810567666
vertex 7.26468805933419 0.00862896058015655 5.29903810567666
endloop
endfacet
facet normal 0.25881904510252 0.0 -0.965925826289068
outer loop
vertex 7.62645949168041 1.80862896058016 5.4488887394336
vertex 7.26468805933419 0.00862896058015655 5.29903810567666
vertex 7.26468805933419 1.80862896058016 5.29903810567666
endloop
endfacet
facet normal 0.499999999999999 0.0 -0.866025403784439
outer loop
vertex 7.26468805933419 0.00862896058015655 5.29903810567666
vertex 7.62645949168041 1.80862896058016 5.4488887394336
vertex 7.62645949168041 0.00862896058015655 5.4488887394336
endloop
endfacet
facet normal 4.63377714573639e-016 0.0 -1.0
outer loop
vertex 8.01468805933419 1.80862896058016 5.5
vertex 7.62645949168041 0.00862896058015655 5.4488887394336
vertex 7.62645949168041 1.80862896058016 5.4488887394336
endloop
endfacet
facet normal 0.25881904510252 0.0 -0.965925826289068
outer loop
vertex 7.62645949168041 0.00862896058015655 5.4488887394336
vertex 8.01468805933419 1.80862896058016 5.5
vertex 8.01468805933419 0.00862896058015655 5.5
endloop
endfacet
facet normal -0.258819045102522 0.0 -0.965925826289068
outer loop
vertex 8.40291662698797 1.80862896058016 5.4488887394336
vertex 8.01468805933419 0.00862896058015655 5.5
vertex 8.01468805933419 1.80862896058016 5.5
endloop
endfacet
facet normal 4.63377714573639e-016 0.0 -1.0
outer loop
vertex 8.01468805933419 0.00862896058015655 5.5
vertex 8.40291662698797 1.80862896058016 5.4488887394336
vertex 8.40291662698797 0.00862896058015655 5.4488887394336
endloop
endfacet
facet normal -0.500000000000001 0.0 -0.866025403784438
outer loop
vertex 8.76468805933419 1.80862896058016 5.29903810567666
vertex 8.40291662698797 0.00862896058015655 5.4488887394336
vertex 8.40291662698797 1.80862896058016 5.4488887394336
endloop
endfacet
facet normal -0.258819045102522 0.0 -0.965925826289068
outer loop
vertex 8.40291662698797 0.00862896058015655 5.4488887394336
vertex 8.76468805933419 1.80862896058016 5.29903810567666
vertex 8.76468805933419 0.00862896058015655 5.29903810567666
endloop
endfacet
facet normal -0.707106781186547 0.0 -0.707106781186548
outer loop
vertex 9.07534823111401 1.80862896058016 5.06066017177982
vertex 8.76468805933419 0.00862896058015655 5.29903810567666
vertex 8.76468805933419 1.80862896058016 5.29903810567666
endloop
endfacet
facet normal -0.500000000000001 0.0 -0.866025403784438
outer loop
vertex 8.76468805933419 0.00862896058015655 5.29903810567666
vertex 9.07534823111401 1.80862896058016 5.06066017177982
vertex 9.07534823111401 0.00862896058015655 5.06066017177982
endloop
endfacet
facet normal -0.707106781186547 0.0 -0.707106781186548
outer loop
vertex 9.07534823111401 1.80862896058016 5.06066017177982
vertex 9.31372616501085 0.00862896058015655 4.75
vertex 9.07534823111401 0.00862896058015655 5.06066017177982
endloop
endfacet
facet normal -0.866025403784439 0.0 -0.5
outer loop
vertex 9.31372616501085 0.00862896058015655 4.75
vertex 9.07534823111401 1.80862896058016 5.06066017177982
vertex 9.31372616501085 1.80862896058016 4.75
endloop
endfacet
facet normal -0.866025403784439 0.0 -0.5
outer loop
vertex 9.31372616501085 1.80862896058016 4.75
vertex 9.46357679876779 0.00862896058015655 4.38822856765378
vertex 9.31372616501085 0.00862896058015655 4.75
endloop
endfacet
facet normal -0.965925826289068 0.0 -0.25881904510252
outer loop
vertex 9.46357679876779 0.00862896058015655 4.38822856765378
vertex 9.31372616501085 1.80862896058016 4.75
vertex 9.46357679876779 1.80862896058016 4.38822856765378
endloop
endfacet
facet normal -0.965925826289068 0.0 -0.25881904510252
outer loop
vertex 9.46357679876779 1.80862896058016 4.38822856765378
vertex 9.51468805933419 0.00862896058015655 4.0
vertex 9.46357679876779 0.00862896058015655 4.38822856765378
endloop
endfacet
facet normal -1.0 0.0 -1.06933318747763e-016
outer loop
vertex 9.51468805933419 0.00862896058015655 4.0
vertex 9.46357679876779 1.80862896058016 4.38822856765378
vertex 9.51468805933419 1.80862896058016 4.0
endloop
endfacet
facet normal -1.0 0.0 -1.06933318747763e-016
outer loop
vertex 9.51468805933419 1.80862896058016 4.0
vertex 9.46357679876779 0.00862896058015655 3.61177143234622
vertex 9.51468805933419 0.00862896058015655 4.0
endloop
endfacet
facet normal -0.965925826289068 0.0 0.258819045102521
outer loop
vertex 9.46357679876779 0.00862896058015655 3.61177143234622
vertex 9.51468805933419 1.80862896058016 4.0
vertex 9.46357679876779 1.80862896058016 3.61177143234622
endloop
endfacet
facet normal -0.965925826289068 0.0 0.258819045102521
outer loop
vertex 9.46357679876779 1.80862896058016 3.61177143234622
vertex 9.31372616501084 0.00862896058015655 3.25
vertex 9.46357679876779 0.00862896058015655 3.61177143234622
endloop
endfacet
facet normal -0.866025403784438 0.0 0.5
outer loop
vertex 9.31372616501084 0.00862896058015655 3.25
vertex 9.46357679876779 1.80862896058016 3.61177143234622
vertex 9.31372616501084 1.80862896058016 3.25
endloop
endfacet
facet normal -0.866025403784438 0.0 0.5
outer loop
vertex 9.31372616501084 1.80862896058016 3.25
vertex 9.07534823111401 0.00862896058015655 2.93933982822018
vertex 9.31372616501084 0.00862896058015655 3.25
endloop
endfacet
facet normal -0.707106781186548 0.0 0.707106781186547
outer loop
vertex 9.07534823111401 0.00862896058015655 2.93933982822018
vertex 9.31372616501084 1.80862896058016 3.25
vertex 9.07534823111401 1.80862896058016 2.93933982822018
endloop
endfacet
facet normal -0.707106781186548 0.0 0.707106781186547
outer loop
vertex 9.07534823111401 0.00862896058015655 2.93933982822018
vertex 8.76468805933419 1.80862896058016 2.70096189432334
vertex 8.76468805933419 0.00862896058015655 2.70096189432334
endloop
endfacet
facet normal -0.5 0.0 0.866025403784439
outer loop
vertex 8.76468805933419 1.80862896058016 2.70096189432334
vertex 9.07534823111401 0.00862896058015655 2.93933982822018
vertex 9.07534823111401 1.80862896058016 2.93933982822018
endloop
endfacet
facet normal -0.5 0.0 0.866025403784439
outer loop
vertex 8.76468805933419 0.00862896058015655 2.70096189432334
vertex 8.40291662698797 1.80862896058016 2.5511112605664
vertex 8.40291662698797 0.00862896058015655 2.5511112605664
endloop
endfacet
facet normal -0.258819045102521 0.0 0.965925826289068
outer loop
vertex 8.40291662698797 1.80862896058016 2.5511112605664
vertex 8.76468805933419 0.00862896058015655 2.70096189432334
vertex 8.76468805933419 1.80862896058016 2.70096189432334
endloop
endfacet
facet normal -0.258819045102521 0.0 0.965925826289068
outer loop
vertex 8.40291662698797 0.00862896058015655 2.5511112605664
vertex 8.01468805933419 1.80862896058016 2.5
vertex 8.01468805933419 0.00862896058015655 2.5
endloop
endfacet
facet normal 0.0 0.0 1.0
outer loop
vertex 8.01468805933419 1.80862896058016 2.5
vertex 8.40291662698797 0.00862896058015655 2.5511112605664
vertex 8.40291662698797 1.80862896058016 2.5511112605664
endloop
endfacet
facet normal 0.0 0.0 1.0
outer loop
vertex 8.01468805933419 0.00862896058015655 2.5
vertex 7.62645949168041 1.80862896058016 2.5511112605664
vertex 7.62645949168041 0.00862896058015655 2.5511112605664
endloop
endfacet
facet normal 0.258819045102521 0.0 0.965925826289068
outer loop
vertex 7.62645949168041 1.80862896058016 2.5511112605664
vertex 8.01468805933419 0.00862896058015655 2.5
vertex 8.01468805933419 1.80862896058016 2.5
endloop
endfacet
facet normal 0.258819045102521 0.0 0.965925826289068
outer loop
vertex 7.62645949168041 0.00862896058015655 2.5511112605664
vertex 7.26468805933419 1.80862896058016 2.70096189432334
vertex 7.26468805933419 0.00862896058015655 2.70096189432334
endloop
endfacet
facet normal 0.5 0.0 0.866025403784438
outer loop
vertex 7.26468805933419 1.80862896058016 2.70096189432334
vertex 7.62645949168041 0.00862896058015655 2.5511112605664
vertex 7.62645949168041 1.80862896058016 2.5511112605664
endloop
endfacet
facet normal 0.5 0.0 0.866025403784438
outer loop
vertex 7.26468805933419 0.00862896058015655 2.70096189432334
vertex 6.95402788755437 1.80862896058016 2.93933982822018
vertex 6.95402788755437 0.00862896058015655 2.93933982822018
endloop
endfacet
facet normal 0.707106781186548 0.0 0.707106781186547
outer loop
vertex 6.95402788755437 1.80862896058016 2.93933982822018
vertex 7.26468805933419 0.00862896058015655 2.70096189432334
vertex 7.26468805933419 1.80862896058016 2.70096189432334
endloop
endfacet
facet normal 0.707106781186548 0.0 0.707106781186547
outer loop
vertex 6.95402788755437 1.80862896058016 2.93933982822018
vertex 6.71564995365753 0.00862896058015655 3.25
vertex 6.95402788755437 0.00862896058015655 2.93933982822018
endloop
endfacet
facet normal 0.866025403784438 0.0 0.5
outer loop
vertex 6.71564995365753 0.00862896058015655 3.25
vertex 6.95402788755437 1.80862896058016 2.93933982822018
vertex 6.71564995365753 1.80862896058016 3.25
endloop
endfacet
facet normal 0.866025403784438 0.0 0.5
outer loop
vertex 6.71564995365753 1.80862896058016 3.25
vertex 6.56579931990059 0.00862896058015655 3.61177143234622
vertex 6.71564995365753 0.00862896058015655 3.25
endloop
endfacet
facet normal 0.965925826289068 0.0 0.258819045102522
outer loop
vertex 6.56579931990059 0.00862896058015655 3.61177143234622
vertex 6.71564995365753 1.80862896058016 3.25
vertex 6.56579931990059 1.80862896058016 3.61177143234622
endloop
endfacet
facet normal 0.965925826289068 0.0 0.258819045102522
outer loop
vertex -9.46357679876779 1.80862896058016 3.61177143234622
vertex -9.51468805933419 0.00862896058015672 4.0
vertex -9.46357679876779 0.00862896058015672 3.61177143234622
endloop
endfacet
facet normal 1.0 0.0 2.22777747391173e-016
outer loop
vertex -9.51468805933419 0.00862896058015672 4.0
vertex -9.46357679876779 1.80862896058016 3.61177143234622
vertex -9.51468805933419 1.80862896058016 4.0
endloop
endfacet
facet normal 1.0 0.0 2.22777747391173e-016
outer loop
vertex -9.51468805933419 1.80862896058016 4.0
vertex -9.46357679876779 0.00862896058015672 4.38822856765378
vertex -9.51468805933419 0.00862896058015672 4.0
endloop
endfacet
facet normal 0.965925826289068 0.0 -0.258819045102522
outer loop
vertex -9.46357679876779 0.00862896058015672 4.38822856765378
vertex -9.51468805933419 1.80862896058016 4.0
vertex -9.46357679876779 1.80862896058016 4.38822856765378
endloop
endfacet
facet normal 0.965925826289068 0.0 -0.258819045102522
outer loop
vertex -9.46357679876779 1.80862896058016 4.38822856765378
vertex -9.31372616501085 0.00862896058015672 4.75
vertex -9.46357679876779 0.00862896058015672 4.38822856765378
endloop
endfacet
facet normal 0.866025403784438 0.0 -0.500000000000001
outer loop
vertex -9.31372616501085 0.00862896058015672 4.75
vertex -9.46357679876779 1.80862896058016 4.38822856765378
vertex -9.31372616501085 1.80862896058016 4.75
endloop
endfacet
facet normal 0.866025403784438 0.0 -0.500000000000001
outer loop
vertex -9.31372616501085 1.80862896058016 4.75
vertex -9.07534823111401 0.00862896058015672 5.06066017177982
vertex -9.31372616501085 0.00862896058015672 4.75
endloop
endfacet
facet normal 0.707106781186547 0.0 -0.707106781186548
outer loop
vertex -9.07534823111401 0.00862896058015672 5.06066017177982
vertex -9.31372616501085 1.80862896058016 4.75
vertex -9.07534823111401 1.80862896058016 5.06066017177982
endloop
endfacet
facet normal 0.499999999999999 0.0 -0.866025403784439
outer loop
vertex -8.76468805933419 1.80862896058016 5.29903810567666
vertex -9.07534823111401 0.00862896058015672 5.06066017177982
vertex -9.07534823111401 1.80862896058016 5.06066017177982
endloop
endfacet
facet normal 0.707106781186547 0.0 -0.707106781186548
outer loop
vertex -9.07534823111401 0.00862896058015672 5.06066017177982
vertex -8.76468805933419 1.80862896058016 5.29903810567666
vertex -8.76468805933419 0.00862896058015672 5.29903810567666
endloop
endfacet
facet normal 0.25881904510252 0.0 -0.965925826289068
outer loop
vertex -8.40291662698797 1.80862896058016 5.4488887394336
vertex -8.76468805933419 0.00862896058015672 5.29903810567666
vertex -8.76468805933419 1.80862896058016 5.29903810567666
endloop
endfacet
facet normal 0.499999999999999 0.0 -0.866025403784439
outer loop
vertex -8.76468805933419 0.00862896058015672 5.29903810567666
vertex -8.40291662698797 1.80862896058016 5.4488887394336
vertex -8.40291662698797 0.00862896058015672 5.4488887394336
endloop
endfacet
facet normal 4.63377714573639e-016 0.0 -1.0
outer loop
vertex -8.01468805933419 1.80862896058016 5.5
vertex -8.40291662698797 0.00862896058015672 5.4488887394336
vertex -8.40291662698797 1.80862896058016 5.4488887394336
endloop
endfacet
facet normal 0.25881904510252 0.0 -0.965925826289068
outer loop
vertex -8.40291662698797 0.00862896058015672 5.4488887394336
vertex -8.01468805933419 1.80862896058016 5.5
vertex -8.01468805933419 0.00862896058015672 5.5
endloop
endfacet
facet normal -0.258819045102522 0.0 -0.965925826289068
outer loop
vertex -7.62645949168041 1.80862896058016 5.4488887394336
vertex -8.01468805933419 0.00862896058015672 5.5
vertex -8.01468805933419 1.80862896058016 5.5
endloop
endfacet
facet normal 4.63377714573639e-016 0.0 -1.0
outer loop
vertex -8.01468805933419 0.00862896058015672 5.5
vertex -7.62645949168041 1.80862896058016 5.4488887394336
vertex -7.62645949168041 0.00862896058015672 5.4488887394336
endloop
endfacet
facet normal -0.500000000000001 0.0 -0.866025403784438
outer loop
vertex -7.26468805933419 1.80862896058016 5.29903810567666
vertex -7.62645949168041 0.00862896058015672 5.4488887394336
vertex -7.62645949168041 1.80862896058016 5.4488887394336
endloop
endfacet
facet normal -0.258819045102522 0.0 -0.965925826289068
outer loop
vertex -7.62645949168041 0.00862896058015672 5.4488887394336
vertex -7.26468805933419 1.80862896058016 5.29903810567666
vertex -7.26468805933419 0.00862896058015672 5.29903810567666
endloop
endfacet
facet normal -0.707106781186547 0.0 -0.707106781186548
outer loop
vertex -6.95402788755437 1.80862896058016 5.06066017177982
vertex -7.26468805933419 0.00862896058015672 5.29903810567666
vertex -7.26468805933419 1.80862896058016 5.29903810567666
endloop
endfacet
facet normal -0.500000000000001 0.0 -0.866025403784438
outer loop
vertex -7.26468805933419 0.00862896058015672 5.29903810567666
vertex -6.95402788755437 1.80862896058016 5.06066017177982
vertex -6.95402788755437 0.00862896058015672 5.06066017177982
endloop
endfacet
facet normal -0.707106781186547 0.0 -0.707106781186548
outer loop
vertex -6.95402788755437 1.80862896058016 5.06066017177982
vertex -6.71564995365753 0.00862896058015672 4.75
vertex -6.95402788755437 0.00862896058015672 5.06066017177982
endloop
endfacet
facet normal -0.866025403784439 0.0 -0.5
outer loop
vertex -6.71564995365753 0.00862896058015672 4.75
vertex -6.95402788755437 1.80862896058016 5.06066017177982
vertex -6.71564995365753 1.80862896058016 4.75
endloop
endfacet
facet normal -0.866025403784439 0.0 -0.5
outer loop
vertex -6.71564995365753 1.80862896058016 4.75
vertex -6.56579931990059 0.00862896058015672 4.38822856765378
vertex -6.71564995365753 0.00862896058015672 4.75
endloop
endfacet
facet normal -0.965925826289068 0.0 -0.25881904510252
outer loop
vertex -6.56579931990059 0.00862896058015672 4.38822856765378
vertex -6.71564995365753 1.80862896058016 4.75
vertex -6.56579931990059 1.80862896058016 4.38822856765378
endloop
endfacet
facet normal -0.965925826289068 0.0 -0.25881904510252
outer loop
vertex -6.56579931990059 1.80862896058016 4.38822856765378
vertex -6.51468805933419 0.00862896058015672 4.0
vertex -6.56579931990059 0.00862896058015672 4.38822856765378
endloop
endfacet
facet normal -1.0 0.0 -1.06933318747763e-016
outer loop
vertex -6.51468805933419 0.00862896058015672 4.0
vertex -6.56579931990059 1.80862896058016 4.38822856765378
vertex -6.51468805933419 1.80862896058016 4.0
endloop
endfacet
facet normal -1.0 0.0 -1.06933318747763e-016
outer loop
vertex -6.51468805933419 1.80862896058016 4.0
vertex -6.56579931990059 0.00862896058015672 3.61177143234622
vertex -6.51468805933419 0.00862896058015672 4.0
endloop
endfacet
facet normal -0.965925826289068 0.0 0.258819045102521
outer loop
vertex -6.56579931990059 0.00862896058015672 3.61177143234622
vertex -6.51468805933419 1.80862896058016 4.0
vertex -6.56579931990059 1.80862896058016 3.61177143234622
endloop
endfacet
facet normal -0.965925826289068 0.0 0.258819045102521
outer loop
vertex -6.56579931990059 1.80862896058016 3.61177143234622
vertex -6.71564995365753 0.00862896058015672 3.25
vertex -6.56579931990059 0.00862896058015672 3.61177143234622
endloop
endfacet
facet normal -0.866025403784438 0.0 0.5
outer loop
vertex -6.71564995365753 0.00862896058015672 3.25
vertex -6.56579931990059 1.80862896058016 3.61177143234622
vertex -6.71564995365753 1.80862896058016 3.25
endloop
endfacet
facet normal -0.866025403784438 0.0 0.5
outer loop
vertex -6.71564995365753 1.80862896058016 3.25
vertex -6.95402788755437 0.00862896058015672 2.93933982822018
vertex -6.71564995365753 0.00862896058015672 3.25
endloop
endfacet
facet normal -0.707106781186548 0.0 0.707106781186547
outer loop
vertex -6.95402788755437 0.00862896058015672 2.93933982822018
vertex -6.71564995365753 1.80862896058016 3.25
vertex -6.95402788755437 1.80862896058016 2.93933982822018
endloop
endfacet
facet normal -0.707106781186548 0.0 0.707106781186547
outer loop
vertex -6.95402788755437 0.00862896058015672 2.93933982822018
vertex -7.26468805933419 1.80862896058016 2.70096189432334
vertex -7.26468805933419 0.00862896058015672 2.70096189432334
endloop
endfacet
facet normal -0.5 0.0 0.866025403784439
outer loop
vertex -7.26468805933419 1.80862896058016 2.70096189432334
vertex -6.95402788755437 0.00862896058015672 2.93933982822018
vertex -6.95402788755437 1.80862896058016 2.93933982822018
endloop
endfacet
facet normal -0.5 0.0 0.866025403784439
outer loop
vertex -7.26468805933419 0.00862896058015672 2.70096189432334
vertex -7.62645949168041 1.80862896058016 2.5511112605664
vertex -7.62645949168041 0.00862896058015672 2.5511112605664
endloop
endfacet
facet normal -0.258819045102521 0.0 0.965925826289068
outer loop
vertex -7.62645949168041 1.80862896058016 2.5511112605664
vertex -7.26468805933419 0.00862896058015672 2.70096189432334
vertex -7.26468805933419 1.80862896058016 2.70096189432334
endloop
endfacet
facet normal -0.258819045102521 0.0 0.965925826289068
outer loop
vertex -7.62645949168041 0.00862896058015672 2.5511112605664
vertex -8.01468805933419 1.80862896058016 2.5
vertex -8.01468805933419 0.00862896058015672 2.5
endloop
endfacet
facet normal 0.0 0.0 1.0
outer loop
vertex -8.01468805933419 1.80862896058016 2.5
vertex -7.62645949168041 0.00862896058015672 2.5511112605664
vertex -7.62645949168041 1.80862896058016 2.5511112605664
endloop
endfacet
facet normal 0.0 0.0 1.0
outer loop
vertex -8.01468805933419 0.00862896058015672 2.5
vertex -8.40291662698797 1.80862896058016 2.5511112605664
vertex -8.40291662698797 0.00862896058015672 2.5511112605664
endloop
endfacet
facet normal 0.258819045102521 0.0 0.965925826289068
outer loop
vertex -8.40291662698797 1.80862896058016 2.5511112605664
vertex -8.01468805933419 0.00862896058015672 2.5
vertex -8.01468805933419 1.80862896058016 2.5
endloop
endfacet
facet normal 0.258819045102521 0.0 0.965925826289068
outer loop
vertex -8.40291662698797 0.00862896058015672 2.5511112605664
vertex -8.76468805933419 1.80862896058016 2.70096189432334
vertex -8.76468805933419 0.00862896058015672 2.70096189432334
endloop
endfacet
facet normal 0.5 0.0 0.866025403784438
outer loop
vertex -8.76468805933419 1.80862896058016 2.70096189432334
vertex -8.40291662698797 0.00862896058015672 2.5511112605664
vertex -8.40291662698797 1.80862896058016 2.5511112605664
endloop
endfacet
facet normal 0.5 0.0 0.866025403784438
outer loop
vertex -8.76468805933419 0.00862896058015672 2.70096189432334
vertex -9.07534823111401 1.80862896058016 2.93933982822018
vertex -9.07534823111401 0.00862896058015672 2.93933982822018
endloop
endfacet
facet normal 0.707106781186548 0.0 0.707106781186547
outer loop
vertex -9.07534823111401 1.80862896058016 2.93933982822018
vertex -8.76468805933419 0.00862896058015672 2.70096189432334
vertex -8.76468805933419 1.80862896058016 2.70096189432334
endloop
endfacet
facet normal 0.707106781186548 0.0 0.707106781186547
outer loop
vertex -9.07534823111401 1.80862896058016 2.93933982822018
vertex -9.31372616501085 0.00862896058015672 3.25
vertex -9.07534823111401 0.00862896058015672 2.93933982822018
endloop
endfacet
facet normal 0.866025403784438 0.0 0.5
outer loop
vertex -9.31372616501085 0.00862896058015672 3.25
vertex -9.07534823111401 1.80862896058016 2.93933982822018
vertex -9.31372616501085 1.80862896058016 3.25
endloop
endfacet
facet normal 0.866025403784438 0.0 0.5
outer loop
vertex -9.31372616501085 1.80862896058016 3.25
vertex -9.46357679876779 0.00862896058015672 3.61177143234622
vertex -9.31372616501085 0.00862896058015672 3.25
endloop
endfacet
facet normal 0.965925826289068 0.0 0.258819045102522
outer loop
vertex -9.46357679876779 0.00862896058015672 3.61177143234622
vertex -9.31372616501085 1.80862896058016 3.25
vertex -9.46357679876779 1.80862896058016 3.61177143234622
endloop
endfacet
facet normal -0.0 1.0 -0.0
outer loop
vertex 4.86468805933419 2.80862896058016 0.650000000000004
vertex 11.1646880593342 2.80862896058016 0.0
vertex 4.86468805933419 2.80862896058016 0.0
endloop
endfacet
facet normal -0.0 1.0 -0.0
outer loop
vertex 11.1646880593342 2.80862896058016 0.0
vertex 4.86468805933419 2.80862896058016 0.650000000000004
vertex 11.1646880593342 2.80862896058016 0.650000000000002
endloop
endfacet
facet normal 0.0 1.0 0.0
outer loop
vertex 4.86468805933419 1.80862896058016 0.650000000000004
vertex 7.62645949168041 1.80862896058016 2.5511112605664
vertex 8.01468805933419 1.80862896058016 2.5
endloop
endfacet
facet normal 0.0 1.0 0.0
outer loop
vertex 7.62645949168041 1.80862896058016 2.5511112605664
vertex 4.86468805933419 1.80862896058016 0.650000000000004
vertex 7.26468805933419 1.80862896058016 2.70096189432334
endloop
endfacet
facet normal 0.0 1.0 0.0
outer loop
vertex 7.26468805933419 1.80862896058016 2.70096189432334
vertex 4.86468805933419 1.80862896058016 0.650000000000004
vertex 6.95402788755437 1.80862896058016 2.93933982822018
endloop
endfacet
facet normal 0.0 1.0 0.0
outer loop
vertex 6.95402788755437 1.80862896058016 2.93933982822018
vertex 4.86468805933419 1.80862896058016 0.650000000000004
vertex 6.71564995365753 1.80862896058016 3.25
endloop
endfacet
facet normal 0.0 1.0 0.0
outer loop
vertex 6.71564995365753 1.80862896058016 3.25
vertex 4.86468805933419 1.80862896058016 0.650000000000004
vertex 4.86468805933419 1.80862896058016 7.35
endloop
endfacet
facet normal 0.0 1.0 0.0
outer loop
vertex 6.71564995365753 1.80862896058016 3.25
vertex 4.86468805933419 1.80862896058016 7.35
vertex 6.56579931990059 1.80862896058016 3.61177143234622
endloop
endfacet
facet normal 0.0 1.0 0.0
outer loop
vertex 6.56579931990059 1.80862896058016 3.61177143234622
vertex 4.86468805933419 1.80862896058016 7.35
vertex 6.51468805933419 1.80862896058016 4.0
endloop
endfacet
facet normal 0.0 1.0 0.0
outer loop
vertex 6.51468805933419 1.80862896058016 4.0
vertex 4.86468805933419 1.80862896058016 7.35
vertex 6.56579931990059 1.80862896058016 4.38822856765378
endloop
endfacet
facet normal 0.0 1.0 0.0
outer loop
vertex 6.56579931990059 1.80862896058016 4.38822856765378
vertex 4.86468805933419 1.80862896058016 7.35
vertex 6.71564995365753 1.80862896058016 4.75
endloop
endfacet
facet normal 0.0 1.0 0.0
outer loop
vertex 6.71564995365753 1.80862896058016 4.75
vertex 4.86468805933419 1.80862896058016 7.35
vertex 6.95402788755437 1.80862896058016 5.06066017177982
endloop
endfacet
facet normal 0.0 1.0 0.0
outer loop
vertex 6.95402788755437 1.80862896058016 5.06066017177982
vertex 4.86468805933419 1.80862896058016 7.35
vertex 7.26468805933419 1.80862896058016 5.29903810567666
endloop
endfacet
facet normal 0.0 1.0 0.0
outer loop
vertex 7.26468805933419 1.80862896058016 5.29903810567666
vertex 4.86468805933419 1.80862896058016 7.35
vertex 7.62645949168041 1.80862896058016 5.4488887394336
endloop
endfacet
facet normal 0.0 1.0 0.0
outer loop
vertex 7.62645949168041 1.80862896058016 5.4488887394336
vertex 4.86468805933419 1.80862896058016 7.35
vertex 8.01468805933419 1.80862896058016 5.5
endloop
endfacet
facet normal 0.0 1.0 0.0
outer loop
vertex 11.1646880593342 1.80862896058016 0.650000000000002
vertex 9.31372616501084 1.80862896058016 3.25
vertex 11.1646880593342 1.80862896058016 7.35
endloop
endfacet
facet normal 0.0 1.0 0.0
outer loop
vertex 9.31372616501084 1.80862896058016 3.25
vertex 11.1646880593342 1.80862896058016 0.650000000000002
vertex 9.07534823111401 1.80862896058016 2.93933982822018
endloop
endfacet
facet normal 0.0 1.0 0.0
outer loop
vertex 9.07534823111401 1.80862896058016 2.93933982822018
vertex 11.1646880593342 1.80862896058016 0.650000000000002
vertex 8.76468805933419 1.80862896058016 2.70096189432334
endloop
endfacet
facet normal 0.0 1.0 0.0
outer loop
vertex 8.76468805933419 1.80862896058016 2.70096189432334
vertex 11.1646880593342 1.80862896058016 0.650000000000002
vertex 4.86468805933419 1.80862896058016 0.650000000000004
endloop
endfacet
facet normal 0.0 1.0 0.0
outer loop
vertex 8.76468805933419 1.80862896058016 2.70096189432334
vertex 4.86468805933419 1.80862896058016 0.650000000000004
vertex 8.40291662698797 1.80862896058016 2.5511112605664
endloop
endfacet
facet normal 0.0 1.0 0.0
outer loop
vertex 8.40291662698797 1.80862896058016 2.5511112605664
vertex 4.86468805933419 1.80862896058016 0.650000000000004
vertex 8.01468805933419 1.80862896058016 2.5
endloop
endfacet
facet normal 0.0 1.0 0.0
outer loop
vertex 11.1646880593342 1.80862896058016 7.35
vertex 9.31372616501084 1.80862896058016 3.25
vertex 9.46357679876779 1.80862896058016 3.61177143234622
endloop
endfacet
facet normal 0.0 1.0 0.0
outer loop
vertex 11.1646880593342 1.80862896058016 7.35
vertex 9.46357679876779 1.80862896058016 3.61177143234622
vertex 9.51468805933419 1.80862896058016 4.0
endloop
endfacet
facet normal 0.0 1.0 0.0
outer loop
vertex 11.1646880593342 1.80862896058016 7.35
vertex 9.51468805933419 1.80862896058016 4.0
vertex 9.46357679876779 1.80862896058016 4.38822856765378
endloop
endfacet
facet normal 0.0 1.0 0.0
outer loop
vertex 11.1646880593342 1.80862896058016 7.35
vertex 9.46357679876779 1.80862896058016 4.38822856765378
vertex 9.31372616501085 1.80862896058016 4.75
endloop
endfacet
facet normal 0.0 1.0 0.0
outer loop
vertex 11.1646880593342 1.80862896058016 7.35
vertex 9.31372616501085 1.80862896058016 4.75
vertex 9.07534823111401 1.80862896058016 5.06066017177982
endloop
endfacet
facet normal 0.0 1.0 0.0
outer loop
vertex 11.1646880593342 1.80862896058016 7.35
vertex 9.07534823111401 1.80862896058016 5.06066017177982
vertex 8.76468805933419 1.80862896058016 5.29903810567666
endloop
endfacet
facet normal 0.0 1.0 0.0
outer loop
vertex 11.1646880593342 1.80862896058016 7.35
vertex 8.76468805933419 1.80862896058016 5.29903810567666
vertex 8.40291662698797 1.80862896058016 5.4488887394336
endloop
endfacet
facet normal 0.0 1.0 0.0
outer loop
vertex 11.1646880593342 1.80862896058016 7.35
vertex 8.40291662698797 1.80862896058016 5.4488887394336
vertex 8.01468805933419 1.80862896058016 5.5
endloop
endfacet
facet normal 0.0 1.0 0.0
outer loop
vertex 11.1646880593342 1.80862896058016 7.35
vertex 8.01468805933419 1.80862896058016 5.5
vertex 4.86468805933419 1.80862896058016 7.35
endloop
endfacet
facet normal 4.61601656369447e-016 0.0 1.0
outer loop
vertex 11.1646880593342 1.80862896058016 0.650000000000002
vertex 4.86468805933419 2.80862896058016 0.650000000000004
vertex 4.86468805933419 1.80862896058016 0.650000000000004
endloop
endfacet
facet normal 4.61601656369447e-016 0.0 1.0
outer loop
vertex 4.86468805933419 2.80862896058016 0.650000000000004
vertex 11.1646880593342 1.80862896058016 0.650000000000002
vertex 11.1646880593342 2.80862896058016 0.650000000000002
endloop
endfacet
facet normal 1.0 -0.0 -0.0
outer loop
vertex 4.86468805933419 2.80862896058016 0.650000000000004
vertex 4.86468805933419 1.80862896058016 7.35
vertex 4.86468805933419 1.80862896058016 0.650000000000004
endloop
endfacet
facet normal 1.0 -0.0 -0.0
outer loop
vertex 4.86468805933419 1.80862896058016 7.35
vertex 4.86468805933419 2.80862896058016 0.650000000000004
vertex 4.86468805933419 2.80862896058016 7.35
endloop
endfacet
facet normal 0.0 -0.0 -1.0
outer loop
vertex 11.1646880593342 2.80862896058016 7.35
vertex 4.86468805933419 1.80862896058016 7.35
vertex 4.86468805933419 2.80862896058016 7.35
endloop
endfacet
facet normal 0.0 -0.0 -1.0
outer loop
vertex 4.86468805933419 1.80862896058016 7.35
vertex 11.1646880593342 2.80862896058016 7.35
vertex 11.1646880593342 1.80862896058016 7.35
endloop
endfacet
facet normal -3.65737724564626e-033 1.0 1.62690373993148e-015
outer loop
vertex -11.1646880593342 2.80862896058015 8.0
vertex -4.86468805933419 2.80862896058015 7.35
vertex -11.1646880593342 2.80862896058015 7.35
endloop
endfacet
facet normal -3.65737724564626e-033 1.0 1.62690373993148e-015
outer loop
vertex -4.86468805933419 2.80862896058015 7.35
vertex -11.1646880593342 2.80862896058015 8.0
vertex -4.86468805933419 2.80862896058015 8.0
endloop
endfacet
facet normal 3.74813438470481e-031 1.0 -1.62690373993147e-015
outer loop
vertex -11.1646880593342 2.80862896058015 0.650000000000002
vertex -4.86468805933419 2.80862896058015 0.0
vertex -11.1646880593342 2.80862896058015 0.0
endloop
endfacet
facet normal 3.74813438470481e-031 1.0 -1.62690373993147e-015
outer loop
vertex -4.86468805933419 2.80862896058015 0.0
vertex -11.1646880593342 2.80862896058015 0.650000000000002
vertex -4.86468805933419 2.80862896058015 0.650000000000004
endloop
endfacet
facet normal 0.0 1.0 0.0
outer loop
vertex -11.1646880593342 1.80862896058016 0.650000000000002
vertex -8.76468805933419 1.80862896058016 2.70096189432334
vertex -4.86468805933419 1.80862896058016 0.650000000000004
endloop
endfacet
facet normal 0.0 1.0 0.0
outer loop
vertex -8.76468805933419 1.80862896058016 2.70096189432334
vertex -11.1646880593342 1.80862896058016 0.650000000000002
vertex -9.07534823111401 1.80862896058016 2.93933982822018
endloop
endfacet
facet normal 0.0 1.0 0.0
outer loop
vertex -9.07534823111401 1.80862896058016 2.93933982822018
vertex -11.1646880593342 1.80862896058016 0.650000000000002
vertex -9.31372616501085 1.80862896058016 3.25
endloop
endfacet
facet normal 0.0 1.0 0.0
outer loop
vertex -9.31372616501085 1.80862896058016 3.25
vertex -11.1646880593342 1.80862896058016 0.650000000000002
vertex -11.1646880593342 1.80862896058016 7.35
endloop
endfacet
facet normal 0.0 1.0 0.0
outer loop
vertex -4.86468805933419 1.80862896058016 0.650000000000004
vertex -8.76468805933419 1.80862896058016 2.70096189432334
vertex -8.40291662698797 1.80862896058016 2.5511112605664
endloop
endfacet
facet normal 0.0 1.0 0.0
outer loop
vertex -4.86468805933419 1.80862896058016 0.650000000000004
vertex -8.40291662698797 1.80862896058016 2.5511112605664
vertex -8.01468805933419 1.80862896058016 2.5
endloop
endfacet
facet normal 0.0 1.0 0.0
outer loop
vertex -9.31372616501085 1.80862896058016 3.25
vertex -11.1646880593342 1.80862896058016 7.35
vertex -9.46357679876779 1.80862896058016 3.61177143234622
endloop
endfacet
facet normal 0.0 1.0 0.0
outer loop
vertex -9.46357679876779 1.80862896058016 3.61177143234622
vertex -11.1646880593342 1.80862896058016 7.35
vertex -9.51468805933419 1.80862896058016 4.0
endloop
endfacet
facet normal 0.0 1.0 0.0
outer loop
vertex -9.51468805933419 1.80862896058016 4.0
vertex -11.1646880593342 1.80862896058016 7.35
vertex -9.46357679876779 1.80862896058016 4.38822856765378
endloop
endfacet
facet normal 0.0 1.0 0.0
outer loop
vertex -9.46357679876779 1.80862896058016 4.38822856765378
vertex -11.1646880593342 1.80862896058016 7.35
vertex -9.31372616501085 1.80862896058016 4.75
endloop
endfacet
facet normal 0.0 1.0 0.0
outer loop
vertex -9.31372616501085 1.80862896058016 4.75
vertex -11.1646880593342 1.80862896058016 7.35
vertex -9.07534823111401 1.80862896058016 5.06066017177982
endloop
endfacet
facet normal 0.0 1.0 0.0
outer loop
vertex -9.07534823111401 1.80862896058016 5.06066017177982
vertex -11.1646880593342 1.80862896058016 7.35
vertex -8.76468805933419 1.80862896058016 5.29903810567666
endloop
endfacet
facet normal 0.0 1.0 0.0
outer loop
vertex -8.76468805933419 1.80862896058016 5.29903810567666
vertex -11.1646880593342 1.80862896058016 7.35
vertex -8.40291662698797 1.80862896058016 5.4488887394336
endloop
endfacet
facet normal 0.0 1.0 0.0
outer loop
vertex -8.40291662698797 1.80862896058016 5.4488887394336
vertex -11.1646880593342 1.80862896058016 7.35
vertex -8.01468805933419 1.80862896058016 5.5
endloop
endfacet
facet normal 0.0 1.0 0.0
outer loop
vertex -4.86468805933419 1.80862896058016 0.650000000000004
vertex -6.71564995365753 1.80862896058016 3.25
vertex -4.86468805933419 1.80862896058016 7.35
endloop
endfacet
facet normal 0.0 1.0 0.0
outer loop
vertex -6.71564995365753 1.80862896058016 3.25
vertex -4.86468805933419 1.80862896058016 0.650000000000004
vertex -6.95402788755437 1.80862896058016 2.93933982822018
endloop
endfacet
facet normal 0.0 1.0 0.0
outer loop
vertex -6.95402788755437 1.80862896058016 2.93933982822018
vertex -4.86468805933419 1.80862896058016 0.650000000000004
vertex -7.26468805933419 1.80862896058016 2.70096189432334
endloop
endfacet
facet normal 0.0 1.0 0.0
outer loop
vertex -7.26468805933419 1.80862896058016 2.70096189432334
vertex -4.86468805933419 1.80862896058016 0.650000000000004
vertex -7.62645949168041 1.80862896058016 2.5511112605664
endloop
endfacet
facet normal 0.0 1.0 0.0
outer loop
vertex -7.62645949168041 1.80862896058016 2.5511112605664
vertex -4.86468805933419 1.80862896058016 0.650000000000004
vertex -8.01468805933419 1.80862896058016 2.5
endloop
endfacet
facet normal 0.0 1.0 0.0
outer loop
vertex -4.86468805933419 1.80862896058016 7.35
vertex -6.71564995365753 1.80862896058016 3.25
vertex -6.56579931990059 1.80862896058016 3.61177143234622
endloop
endfacet
facet normal 0.0 1.0 0.0
outer loop
vertex -4.86468805933419 1.80862896058016 7.35
vertex -6.56579931990059 1.80862896058016 3.61177143234622
vertex -6.51468805933419 1.80862896058016 4.0
endloop
endfacet
facet normal 0.0 1.0 0.0
outer loop
vertex -4.86468805933419 1.80862896058016 7.35
vertex -6.51468805933419 1.80862896058016 4.0
vertex -6.56579931990059 1.80862896058016 4.38822856765378
endloop
endfacet
facet normal 0.0 1.0 0.0
outer loop
vertex -4.86468805933419 1.80862896058016 7.35
vertex -6.56579931990059 1.80862896058016 4.38822856765378
vertex -6.71564995365753 1.80862896058016 4.75
endloop
endfacet
facet normal 0.0 1.0 0.0
outer loop
vertex -4.86468805933419 1.80862896058016 7.35
vertex -6.71564995365753 1.80862896058016 4.75
vertex -6.95402788755437 1.80862896058016 5.06066017177982
endloop
endfacet
facet normal 0.0 1.0 0.0
outer loop
vertex -4.86468805933419 1.80862896058016 7.35
vertex -6.95402788755437 1.80862896058016 5.06066017177982
vertex -7.26468805933419 1.80862896058016 5.29903810567666
endloop
endfacet
facet normal 0.0 1.0 0.0
outer loop
vertex -4.86468805933419 1.80862896058016 7.35
vertex -7.26468805933419 1.80862896058016 5.29903810567666
vertex -7.62645949168041 1.80862896058016 5.4488887394336
endloop
endfacet
facet normal 0.0 1.0 0.0
outer loop
vertex -4.86468805933419 1.80862896058016 7.35
vertex -7.62645949168041 1.80862896058016 5.4488887394336
vertex -8.01468805933419 1.80862896058016 5.5
endloop
endfacet
facet normal 0.0 1.0 0.0
outer loop
vertex -4.86468805933419 1.80862896058016 7.35
vertex -8.01468805933419 1.80862896058016 5.5
vertex -11.1646880593342 1.80862896058016 7.35
endloop
endfacet
facet normal -1.0 -0.0 -0.0
outer loop
vertex -4.86468805933419 2.80862896058015 7.35
vertex -4.86468805933419 1.80862896058016 0.650000000000004
vertex -4.86468805933419 1.80862896058016 7.35
endloop
endfacet
facet normal -1.0 -0.0 -0.0
outer loop
vertex -4.86468805933419 1.80862896058016 0.650000000000004
vertex -4.86468805933419 2.80862896058015 7.35
vertex -4.86468805933419 2.80862896058015 0.650000000000004
endloop
endfacet
facet normal -4.61601656369447e-016 -0.0 1.0
outer loop
vertex -4.86468805933419 1.80862896058016 0.650000000000004
vertex -11.1646880593342 2.80862896058015 0.650000000000002
vertex -11.1646880593342 1.80862896058016 0.650000000000002
endloop
endfacet
facet normal -4.61601656369447e-016 -0.0 1.0
outer loop
vertex -11.1646880593342 2.80862896058015 0.650000000000002
vertex -4.86468805933419 1.80862896058016 0.650000000000004
vertex -4.86468805933419 2.80862896058015 0.650000000000004
endloop
endfacet
facet normal 0.0 -0.0 -1.0
outer loop
vertex -4.86468805933419 2.80862896058015 7.35
vertex -11.1646880593342 1.80862896058016 7.35
vertex -11.1646880593342 2.80862896058015 7.35
endloop
endfacet
facet normal 0.0 -0.0 -1.0
outer loop
vertex -11.1646880593342 1.80862896058016 7.35
vertex -4.86468805933419 2.80862896058015 7.35
vertex -4.86468805933419 1.80862896058016 7.35
endloop
endfacet
endsolid upper-bearing-clip
