solid leg-stencil
facet normal -1.71568737059192e-032 -3.98671465853869e-032 -1.0
outer loop
vertex 1.52696175982681e-030 30.0 124.0
vertex 16.6514718625761 18.3485281374239 124.0
vertex 1.52696175982681e-030 3.54817604609944e-030 124.0
endloop
endfacet
facet normal -1.71568737059192e-032 -3.98671465853869e-032 -1.0
outer loop
vertex 16.6514718625761 18.3485281374239 124.0
vertex 1.52696175982681e-030 30.0 124.0
vertex 30.0 30.0 124.0
endloop
endfacet
facet normal -1.71568737059192e-032 -3.98671465853869e-032 -1.0
outer loop
vertex 1.52696175982681e-030 3.54817604609944e-030 124.0
vertex 16.6514718625761 18.3485281374239 124.0
vertex 16.4607695154587 18.1 124.0
endloop
endfacet
facet normal -1.71568737059192e-032 -3.98671465853869e-032 -1.0
outer loop
vertex 1.52696175982681e-030 3.54817604609944e-030 124.0
vertex 16.4607695154587 18.1 124.0
vertex 16.3408890084531 17.810582854123 124.0
endloop
endfacet
facet normal -1.71568737059192e-032 -3.98671465853869e-032 -1.0
outer loop
vertex 1.52696175982681e-030 3.54817604609944e-030 124.0
vertex 16.3408890084531 17.810582854123 124.0
vertex 16.3 17.5 124.0
endloop
endfacet
facet normal -1.71568737059192e-032 -3.98671465853869e-032 -1.0
outer loop
vertex 16.6514718625761 18.3485281374239 124.0
vertex 30.0 30.0 124.0
vertex 16.9 18.5392304845413 124.0
endloop
endfacet
facet normal -1.71568737059192e-032 -3.98671465853869e-032 -1.0
outer loop
vertex 16.9 18.5392304845413 124.0
vertex 30.0 30.0 124.0
vertex 17.189417145877 18.6591109915469 124.0
endloop
endfacet
facet normal -1.71568737059192e-032 -3.98671465853869e-032 -1.0
outer loop
vertex 17.189417145877 18.6591109915469 124.0
vertex 30.0 30.0 124.0
vertex 17.5 18.7 124.0
endloop
endfacet
facet normal -1.71568737059192e-032 -3.98671465853869e-032 -1.0
outer loop
vertex 17.5 18.7 124.0
vertex 30.0 30.0 124.0
vertex 17.810582854123 18.6591109915469 124.0
endloop
endfacet
facet normal -1.71568737059192e-032 -3.98671465853869e-032 -1.0
outer loop
vertex 17.810582854123 18.6591109915469 124.0
vertex 30.0 30.0 124.0
vertex 18.1 18.5392304845413 124.0
endloop
endfacet
facet normal -1.71568737059192e-032 -3.98671465853869e-032 -1.0
outer loop
vertex 18.1 18.5392304845413 124.0
vertex 30.0 30.0 124.0
vertex 18.3485281374239 18.3485281374239 124.0
endloop
endfacet
facet normal -1.71568737059192e-032 -3.98671465853869e-032 -1.0
outer loop
vertex 18.3485281374239 18.3485281374239 124.0
vertex 30.0 30.0 124.0
vertex 18.5392304845413 18.1 124.0
endloop
endfacet
facet normal -1.71568737059192e-032 -3.98671465853869e-032 -1.0
outer loop
vertex 18.5392304845413 18.1 124.0
vertex 30.0 30.0 124.0
vertex 18.6591109915469 17.810582854123 124.0
endloop
endfacet
facet normal -1.71568737059192e-032 -3.98671465853869e-032 -1.0
outer loop
vertex 18.6591109915469 17.810582854123 124.0
vertex 30.0 30.0 124.0
vertex 18.7 17.5 124.0
endloop
endfacet
facet normal -1.71568737059192e-032 -3.98671465853869e-032 -1.0
outer loop
vertex 1.52696175982681e-030 3.54817604609944e-030 124.0
vertex 16.6514718625761 16.6514718625761 124.0
vertex 30.0 3.54817604609944e-030 124.0
endloop
endfacet
facet normal -1.71568737059192e-032 -3.98671465853869e-032 -1.0
outer loop
vertex 16.6514718625761 16.6514718625761 124.0
vertex 1.52696175982681e-030 3.54817604609944e-030 124.0
vertex 16.4607695154587 16.9 124.0
endloop
endfacet
facet normal -1.71568737059192e-032 -3.98671465853869e-032 -1.0
outer loop
vertex 16.4607695154587 16.9 124.0
vertex 1.52696175982681e-030 3.54817604609944e-030 124.0
vertex 16.3408890084531 17.189417145877 124.0
endloop
endfacet
facet normal -1.71568737059192e-032 -3.98671465853869e-032 -1.0
outer loop
vertex 16.3408890084531 17.189417145877 124.0
vertex 1.52696175982681e-030 3.54817604609944e-030 124.0
vertex 16.3 17.5 124.0
endloop
endfacet
facet normal -1.71568737059192e-032 -3.98671465853869e-032 -1.0
outer loop
vertex 30.0 3.54817604609944e-030 124.0
vertex 16.6514718625761 16.6514718625761 124.0
vertex 16.9 16.4607695154587 124.0
endloop
endfacet
facet normal -1.71568737059192e-032 -3.98671465853869e-032 -1.0
outer loop
vertex 30.0 3.54817604609944e-030 124.0
vertex 16.9 16.4607695154587 124.0
vertex 17.189417145877 16.3408890084531 124.0
endloop
endfacet
facet normal -1.71568737059192e-032 -3.98671465853869e-032 -1.0
outer loop
vertex 30.0 3.54817604609944e-030 124.0
vertex 17.189417145877 16.3408890084531 124.0
vertex 17.5 16.3 124.0
endloop
endfacet
facet normal -1.71568737059192e-032 -3.98671465853869e-032 -1.0
outer loop
vertex 30.0 3.54817604609944e-030 124.0
vertex 17.5 16.3 124.0
vertex 17.810582854123 16.3408890084531 124.0
endloop
endfacet
facet normal -1.71568737059192e-032 -3.98671465853869e-032 -1.0
outer loop
vertex 30.0 3.54817604609944e-030 124.0
vertex 17.810582854123 16.3408890084531 124.0
vertex 18.1 16.4607695154587 124.0
endloop
endfacet
facet normal -1.71568737059192e-032 -3.98671465853869e-032 -1.0
outer loop
vertex 30.0 3.54817604609944e-030 124.0
vertex 18.1 16.4607695154587 124.0
vertex 18.3485281374239 16.6514718625761 124.0
endloop
endfacet
facet normal -1.71568737059192e-032 -3.98671465853869e-032 -1.0
outer loop
vertex 30.0 3.54817604609944e-030 124.0
vertex 18.3485281374239 16.6514718625761 124.0
vertex 18.5392304845413 16.9 124.0
endloop
endfacet
facet normal -1.71568737059192e-032 -3.98671465853869e-032 -1.0
outer loop
vertex 30.0 3.54817604609944e-030 124.0
vertex 18.5392304845413 16.9 124.0
vertex 18.6591109915469 17.189417145877 124.0
endloop
endfacet
facet normal -1.71568737059192e-032 -3.98671465853869e-032 -1.0
outer loop
vertex 30.0 3.54817604609944e-030 124.0
vertex 18.6591109915469 17.189417145877 124.0
vertex 18.7 17.5 124.0
endloop
endfacet
facet normal -1.71568737059192e-032 -3.98671465853869e-032 -1.0
outer loop
vertex 30.0 3.54817604609944e-030 124.0
vertex 18.7 17.5 124.0
vertex 30.0 30.0 124.0
endloop
endfacet
facet normal -1.0 0.0 0.0
outer loop
vertex 0.0 30.0 130.0
vertex 1.52696175982681e-030 3.54817604609944e-030 124.0
vertex 0.0 0.0 130.0
endloop
endfacet
facet normal -1.0 0.0 0.0
outer loop
vertex 1.52696175982681e-030 3.54817604609944e-030 124.0
vertex 0.0 30.0 130.0
vertex 1.52696175982681e-030 30.0 124.0
endloop
endfacet
facet normal -0.0 1.0 0.0
outer loop
vertex 1.52696175982681e-030 30.0 124.0
vertex 5.0 30.0 125.0
vertex 30.0 30.0 124.0
endloop
endfacet
facet normal -0.0 1.0 0.0
outer loop
vertex 5.0 30.0 125.0
vertex 1.52696175982681e-030 30.0 124.0
vertex 0.0 30.0 130.0
endloop
endfacet
facet normal -0.0 1.0 0.0
outer loop
vertex 5.0 30.0 125.0
vertex 0.0 30.0 130.0
vertex 5.0 30.0 130.0
endloop
endfacet
facet normal -0.0 1.0 0.0
outer loop
vertex 30.0 30.0 125.0
vertex 30.0 30.0 124.0
vertex 5.0 30.0 125.0
endloop
endfacet
facet normal 1.0 0.0 0.0
outer loop
vertex 30.0 30.0 124.0
vertex 30.0 5.0 125.0
vertex 30.0 3.54817604609944e-030 124.0
endloop
endfacet
facet normal 1.0 0.0 0.0
outer loop
vertex 30.0 5.0 125.0
vertex 30.0 30.0 124.0
vertex 30.0 30.0 125.0
endloop
endfacet
facet normal 1.0 0.0 0.0
outer loop
vertex 30.0 3.54817604609944e-030 124.0
vertex 30.0 5.0 130.0
vertex 30.0 0.0 130.0
endloop
endfacet
facet normal 1.0 0.0 0.0
outer loop
vertex 30.0 5.0 130.0
vertex 30.0 3.54817604609944e-030 124.0
vertex 30.0 5.0 125.0
endloop
endfacet
facet normal -0.0 -1.0 -0.0
outer loop
vertex 30.0 0.0 130.0
vertex 1.52696175982681e-030 3.54817604609944e-030 124.0
vertex 30.0 3.54817604609944e-030 124.0
endloop
endfacet
facet normal -0.0 -1.0 -0.0
outer loop
vertex 1.52696175982681e-030 3.54817604609944e-030 124.0
vertex 30.0 0.0 130.0
vertex 0.0 0.0 130.0
endloop
endfacet
facet normal 0.0 0.0 1.0
outer loop
vertex 0.0 0.0 130.0
vertex 5.0 5.0 130.0
vertex 0.0 30.0 130.0
endloop
endfacet
facet normal 0.0 0.0 1.0
outer loop
vertex 5.0 5.0 130.0
vertex 0.0 0.0 130.0
vertex 30.0 0.0 130.0
endloop
endfacet
facet normal 0.0 0.0 1.0
outer loop
vertex 5.0 5.0 130.0
vertex 30.0 0.0 130.0
vertex 30.0 5.0 130.0
endloop
endfacet
facet normal 0.0 0.0 1.0
outer loop
vertex 5.0 30.0 130.0
vertex 0.0 30.0 130.0
vertex 5.0 5.0 130.0
endloop
endfacet
facet normal -2.8199664825479e-017 1.0 0.0
outer loop
vertex 5.0 5.0 130.0
vertex 30.0 5.0 125.0
vertex 5.0 5.0 125.0
endloop
endfacet
facet normal -2.8199664825479e-017 1.0 0.0
outer loop
vertex 30.0 5.0 125.0
vertex 5.0 5.0 130.0
vertex 30.0 5.0 130.0
endloop
endfacet
facet normal 1.0 -0.0 0.0
outer loop
vertex 5.0 30.0 125.0
vertex 5.0 5.0 130.0
vertex 5.0 5.0 125.0
endloop
endfacet
facet normal 1.0 -0.0 0.0
outer loop
vertex 5.0 5.0 130.0
vertex 5.0 30.0 125.0
vertex 5.0 30.0 130.0
endloop
endfacet
facet normal -0.0 -0.0 1.0
outer loop
vertex 5.0 5.0 125.0
vertex 16.6514718625761 16.6514718625761 125.0
vertex 5.0 30.0 125.0
endloop
endfacet
facet normal -0.0 -0.0 1.0
outer loop
vertex 16.6514718625761 16.6514718625761 125.0
vertex 5.0 5.0 125.0
vertex 30.0 5.0 125.0
endloop
endfacet
facet normal -0.0 -0.0 1.0
outer loop
vertex 5.0 30.0 125.0
vertex 16.6514718625761 16.6514718625761 125.0
vertex 16.4607695154587 16.9 125.0
endloop
endfacet
facet normal -0.0 -0.0 1.0
outer loop
vertex 5.0 30.0 125.0
vertex 16.4607695154587 16.9 125.0
vertex 16.3408890084531 17.189417145877 125.0
endloop
endfacet
facet normal -0.0 -0.0 1.0
outer loop
vertex 5.0 30.0 125.0
vertex 16.3408890084531 17.189417145877 125.0
vertex 16.3 17.5 125.0
endloop
endfacet
facet normal -0.0 -0.0 1.0
outer loop
vertex 16.6514718625761 16.6514718625761 125.0
vertex 30.0 5.0 125.0
vertex 16.9 16.4607695154587 125.0
endloop
endfacet
facet normal -0.0 -0.0 1.0
outer loop
vertex 16.9 16.4607695154587 125.0
vertex 30.0 5.0 125.0
vertex 17.189417145877 16.3408890084531 125.0
endloop
endfacet
facet normal -0.0 -0.0 1.0
outer loop
vertex 17.189417145877 16.3408890084531 125.0
vertex 30.0 5.0 125.0
vertex 17.5 16.3 125.0
endloop
endfacet
facet normal -0.0 -0.0 1.0
outer loop
vertex 17.5 16.3 125.0
vertex 30.0 5.0 125.0
vertex 17.810582854123 16.3408890084531 125.0
endloop
endfacet
facet normal -0.0 -0.0 1.0
outer loop
vertex 17.810582854123 16.3408890084531 125.0
vertex 30.0 5.0 125.0
vertex 18.1 16.4607695154587 125.0
endloop
endfacet
facet normal -0.0 -0.0 1.0
outer loop
vertex 18.1 16.4607695154587 125.0
vertex 30.0 5.0 125.0
vertex 18.3485281374239 16.6514718625761 125.0
endloop
endfacet
facet normal -0.0 -0.0 1.0
outer loop
vertex 18.3485281374239 16.6514718625761 125.0
vertex 30.0 5.0 125.0
vertex 18.5392304845413 16.9 125.0
endloop
endfacet
facet normal -0.0 -0.0 1.0
outer loop
vertex 18.5392304845413 16.9 125.0
vertex 30.0 5.0 125.0
vertex 18.6591109915469 17.189417145877 125.0
endloop
endfacet
facet normal -0.0 -0.0 1.0
outer loop
vertex 18.6591109915469 17.189417145877 125.0
vertex 30.0 5.0 125.0
vertex 18.7 17.5 125.0
endloop
endfacet
facet normal -0.0 -0.0 1.0
outer loop
vertex 5.0 30.0 125.0
vertex 16.6514718625761 18.3485281374239 125.0
vertex 30.0 30.0 125.0
endloop
endfacet
facet normal -0.0 -0.0 1.0
outer loop
vertex 16.6514718625761 18.3485281374239 125.0
vertex 5.0 30.0 125.0
vertex 16.4607695154587 18.1 125.0
endloop
endfacet
facet normal -0.0 -0.0 1.0
outer loop
vertex 16.4607695154587 18.1 125.0
vertex 5.0 30.0 125.0
vertex 16.3408890084531 17.810582854123 125.0
endloop
endfacet
facet normal -0.0 -0.0 1.0
outer loop
vertex 16.3408890084531 17.810582854123 125.0
vertex 5.0 30.0 125.0
vertex 16.3 17.5 125.0
endloop
endfacet
facet normal -0.0 -0.0 1.0
outer loop
vertex 30.0 30.0 125.0
vertex 16.6514718625761 18.3485281374239 125.0
vertex 16.9 18.5392304845413 125.0
endloop
endfacet
facet normal -0.0 -0.0 1.0
outer loop
vertex 30.0 30.0 125.0
vertex 16.9 18.5392304845413 125.0
vertex 17.189417145877 18.6591109915469 125.0
endloop
endfacet
facet normal -0.0 -0.0 1.0
outer loop
vertex 30.0 30.0 125.0
vertex 17.189417145877 18.6591109915469 125.0
vertex 17.5 18.7 125.0
endloop
endfacet
facet normal -0.0 -0.0 1.0
outer loop
vertex 30.0 30.0 125.0
vertex 17.5 18.7 125.0
vertex 17.810582854123 18.6591109915469 125.0
endloop
endfacet
facet normal -0.0 -0.0 1.0
outer loop
vertex 30.0 30.0 125.0
vertex 17.810582854123 18.6591109915469 125.0
vertex 18.1 18.5392304845413 125.0
endloop
endfacet
facet normal -0.0 -0.0 1.0
outer loop
vertex 30.0 30.0 125.0
vertex 18.1 18.5392304845413 125.0
vertex 18.3485281374239 18.3485281374239 125.0
endloop
endfacet
facet normal -0.0 -0.0 1.0
outer loop
vertex 30.0 30.0 125.0
vertex 18.3485281374239 18.3485281374239 125.0
vertex 18.5392304845413 18.1 125.0
endloop
endfacet
facet normal -0.0 -0.0 1.0
outer loop
vertex 30.0 30.0 125.0
vertex 18.5392304845413 18.1 125.0
vertex 18.6591109915469 17.810582854123 125.0
endloop
endfacet
facet normal -0.0 -0.0 1.0
outer loop
vertex 30.0 30.0 125.0
vertex 18.6591109915469 17.810582854123 125.0
vertex 18.7 17.5 125.0
endloop
endfacet
facet normal -0.0 -0.0 1.0
outer loop
vertex 30.0 30.0 125.0
vertex 18.7 17.5 125.0
vertex 30.0 5.0 125.0
endloop
endfacet
facet normal 0.0 -1.0 0.0
outer loop
vertex 17.5 18.7 125.0
vertex 17.189417145877 18.6591109915469 124.0
vertex 17.5 18.7 124.0
endloop
endfacet
facet normal 0.258819045102524 -0.965925826289067 0.0
outer loop
vertex 17.189417145877 18.6591109915469 124.0
vertex 17.5 18.7 125.0
vertex 17.189417145877 18.6591109915469 125.0
endloop
endfacet
facet normal 0.258819045102524 -0.965925826289067 0.0
outer loop
vertex 17.189417145877 18.6591109915469 125.0
vertex 16.9 18.5392304845413 124.0
vertex 17.189417145877 18.6591109915469 124.0
endloop
endfacet
facet normal 0.499999999999998 -0.86602540378444 0.0
outer loop
vertex 16.9 18.5392304845413 124.0
vertex 17.189417145877 18.6591109915469 125.0
vertex 16.9 18.5392304845413 125.0
endloop
endfacet
facet normal 0.499999999999998 -0.86602540378444 0.0
outer loop
vertex 16.9 18.5392304845413 125.0
vertex 16.6514718625761 18.3485281374239 124.0
vertex 16.9 18.5392304845413 124.0
endloop
endfacet
facet normal 0.707106781186545 -0.70710678118655 0.0
outer loop
vertex 16.6514718625761 18.3485281374239 124.0
vertex 16.9 18.5392304845413 125.0
vertex 16.6514718625761 18.3485281374239 125.0
endloop
endfacet
facet normal 0.707106781186545 -0.70710678118655 0.0
outer loop
vertex 16.6514718625761 18.3485281374239 124.0
vertex 16.4607695154587 18.1 125.0
vertex 16.4607695154587 18.1 124.0
endloop
endfacet
facet normal 0.86602540378444 -0.499999999999997 0.0
outer loop
vertex 16.4607695154587 18.1 125.0
vertex 16.6514718625761 18.3485281374239 124.0
vertex 16.6514718625761 18.3485281374239 125.0
endloop
endfacet
facet normal 0.86602540378444 -0.499999999999997 0.0
outer loop
vertex 16.4607695154587 18.1 124.0
vertex 16.3408890084531 17.810582854123 125.0
vertex 16.3408890084531 17.810582854123 124.0
endloop
endfacet
facet normal 0.965925826289068 -0.25881904510252 0.0
outer loop
vertex 16.3408890084531 17.810582854123 125.0
vertex 16.4607695154587 18.1 124.0
vertex 16.4607695154587 18.1 125.0
endloop
endfacet
facet normal 0.965925826289068 -0.25881904510252 0.0
outer loop
vertex 16.3408890084531 17.810582854123 124.0
vertex 16.3 17.5 125.0
vertex 16.3 17.5 124.0
endloop
endfacet
facet normal 1.0 -5.88133253112696e-016 0.0
outer loop
vertex 16.3 17.5 125.0
vertex 16.3408890084531 17.810582854123 124.0
vertex 16.3408890084531 17.810582854123 125.0
endloop
endfacet
facet normal 1.0 -5.88133253112696e-016 0.0
outer loop
vertex 16.3 17.5 124.0
vertex 16.3408890084531 17.189417145877 125.0
vertex 16.3408890084531 17.189417145877 124.0
endloop
endfacet
facet normal 0.965925826289068 0.258819045102524 0.0
outer loop
vertex 16.3408890084531 17.189417145877 125.0
vertex 16.3 17.5 124.0
vertex 16.3 17.5 125.0
endloop
endfacet
facet normal 0.965925826289068 0.258819045102524 0.0
outer loop
vertex 16.3408890084531 17.189417145877 124.0
vertex 16.4607695154587 16.9 125.0
vertex 16.4607695154587 16.9 124.0
endloop
endfacet
facet normal 0.866025403784439 0.5 0.0
outer loop
vertex 16.4607695154587 16.9 125.0
vertex 16.3408890084531 17.189417145877 124.0
vertex 16.3408890084531 17.189417145877 125.0
endloop
endfacet
facet normal 0.866025403784439 0.5 0.0
outer loop
vertex 16.4607695154587 16.9 124.0
vertex 16.6514718625761 16.6514718625761 125.0
vertex 16.6514718625761 16.6514718625761 124.0
endloop
endfacet
facet normal 0.707106781186548 0.707106781186547 0.0
outer loop
vertex 16.6514718625761 16.6514718625761 125.0
vertex 16.4607695154587 16.9 124.0
vertex 16.4607695154587 16.9 125.0
endloop
endfacet
facet normal 0.707106781186548 0.707106781186547 0.0
outer loop
vertex 16.6514718625761 16.6514718625761 125.0
vertex 16.9 16.4607695154587 124.0
vertex 16.6514718625761 16.6514718625761 124.0
endloop
endfacet
facet normal 0.499999999999997 0.86602540378444 0.0
outer loop
vertex 16.9 16.4607695154587 124.0
vertex 16.6514718625761 16.6514718625761 125.0
vertex 16.9 16.4607695154587 125.0
endloop
endfacet
facet normal 0.499999999999997 0.86602540378444 0.0
outer loop
vertex 16.9 16.4607695154587 125.0
vertex 17.189417145877 16.3408890084531 124.0
vertex 16.9 16.4607695154587 124.0
endloop
endfacet
facet normal 0.25881904510252 0.965925826289068 0.0
outer loop
vertex 17.189417145877 16.3408890084531 124.0
vertex 16.9 16.4607695154587 125.0
vertex 17.189417145877 16.3408890084531 125.0
endloop
endfacet
facet normal 0.25881904510252 0.965925826289068 0.0
outer loop
vertex 17.189417145877 16.3408890084531 125.0
vertex 17.5 16.3 124.0
vertex 17.189417145877 16.3408890084531 124.0
endloop
endfacet
facet normal 5.88133253112696e-016 1.0 0.0
outer loop
vertex 17.5 16.3 124.0
vertex 17.189417145877 16.3408890084531 125.0
vertex 17.5 16.3 125.0
endloop
endfacet
facet normal 5.88133253112696e-016 1.0 0.0
outer loop
vertex 17.5 16.3 125.0
vertex 17.810582854123 16.3408890084531 124.0
vertex 17.5 16.3 124.0
endloop
endfacet
facet normal -0.258819045102524 0.965925826289068 0.0
outer loop
vertex 17.810582854123 16.3408890084531 124.0
vertex 17.5 16.3 125.0
vertex 17.810582854123 16.3408890084531 125.0
endloop
endfacet
facet normal -0.258819045102524 0.965925826289068 0.0
outer loop
vertex 17.810582854123 16.3408890084531 125.0
vertex 18.1 16.4607695154587 124.0
vertex 17.810582854123 16.3408890084531 124.0
endloop
endfacet
facet normal -0.500000000000003 0.866025403784437 0.0
outer loop
vertex 18.1 16.4607695154587 124.0
vertex 17.810582854123 16.3408890084531 125.0
vertex 18.1 16.4607695154587 125.0
endloop
endfacet
facet normal -0.500000000000003 0.866025403784437 0.0
outer loop
vertex 18.1 16.4607695154587 125.0
vertex 18.3485281374239 16.6514718625761 124.0
vertex 18.1 16.4607695154587 124.0
endloop
endfacet
facet normal -0.707106781186548 0.707106781186548 0.0
outer loop
vertex 18.3485281374239 16.6514718625761 124.0
vertex 18.1 16.4607695154587 125.0
vertex 18.3485281374239 16.6514718625761 125.0
endloop
endfacet
facet normal -0.866025403784439 0.499999999999999 0.0
outer loop
vertex 18.5392304845413 16.9 125.0
vertex 18.3485281374239 16.6514718625761 124.0
vertex 18.3485281374239 16.6514718625761 125.0
endloop
endfacet
facet normal -0.707106781186548 0.707106781186548 0.0
outer loop
vertex 18.3485281374239 16.6514718625761 124.0
vertex 18.5392304845413 16.9 125.0
vertex 18.5392304845413 16.9 124.0
endloop
endfacet
facet normal -0.965925826289068 0.25881904510252 0.0
outer loop
vertex 18.6591109915469 17.189417145877 125.0
vertex 18.5392304845413 16.9 124.0
vertex 18.5392304845413 16.9 125.0
endloop
endfacet
facet normal -0.866025403784439 0.499999999999999 0.0
outer loop
vertex 18.5392304845413 16.9 124.0
vertex 18.6591109915469 17.189417145877 125.0
vertex 18.6591109915469 17.189417145877 124.0
endloop
endfacet
facet normal -1.0 0.0 0.0
outer loop
vertex 18.7 17.5 125.0
vertex 18.6591109915469 17.189417145877 124.0
vertex 18.6591109915469 17.189417145877 125.0
endloop
endfacet
facet normal -0.965925826289068 0.25881904510252 0.0
outer loop
vertex 18.6591109915469 17.189417145877 124.0
vertex 18.7 17.5 125.0
vertex 18.7 17.5 124.0
endloop
endfacet
facet normal -0.965925826289068 -0.258819045102523 0.0
outer loop
vertex 18.6591109915469 17.810582854123 125.0
vertex 18.7 17.5 124.0
vertex 18.7 17.5 125.0
endloop
endfacet
facet normal -1.0 0.0 0.0
outer loop
vertex 18.7 17.5 124.0
vertex 18.6591109915469 17.810582854123 125.0
vertex 18.6591109915469 17.810582854123 124.0
endloop
endfacet
facet normal -0.86602540378444 -0.499999999999999 0.0
outer loop
vertex 18.5392304845413 18.1 125.0
vertex 18.6591109915469 17.810582854123 124.0
vertex 18.6591109915469 17.810582854123 125.0
endloop
endfacet
facet normal -0.965925826289068 -0.258819045102523 0.0
outer loop
vertex 18.6591109915469 17.810582854123 124.0
vertex 18.5392304845413 18.1 125.0
vertex 18.5392304845413 18.1 124.0
endloop
endfacet
facet normal -0.707106781186548 -0.707106781186547 0.0
outer loop
vertex 18.3485281374239 18.3485281374239 125.0
vertex 18.5392304845413 18.1 124.0
vertex 18.5392304845413 18.1 125.0
endloop
endfacet
facet normal -0.86602540378444 -0.499999999999999 0.0
outer loop
vertex 18.5392304845413 18.1 124.0
vertex 18.3485281374239 18.3485281374239 125.0
vertex 18.3485281374239 18.3485281374239 124.0
endloop
endfacet
facet normal -0.707106781186548 -0.707106781186547 0.0
outer loop
vertex 18.3485281374239 18.3485281374239 125.0
vertex 18.1 18.5392304845413 124.0
vertex 18.3485281374239 18.3485281374239 124.0
endloop
endfacet
facet normal -0.499999999999997 -0.86602540378444 0.0
outer loop
vertex 18.1 18.5392304845413 124.0
vertex 18.3485281374239 18.3485281374239 125.0
vertex 18.1 18.5392304845413 125.0
endloop
endfacet
facet normal -0.499999999999997 -0.86602540378444 0.0
outer loop
vertex 18.1 18.5392304845413 125.0
vertex 17.810582854123 18.6591109915469 124.0
vertex 18.1 18.5392304845413 124.0
endloop
endfacet
facet normal -0.25881904510252 -0.965925826289068 0.0
outer loop
vertex 17.810582854123 18.6591109915469 124.0
vertex 18.1 18.5392304845413 125.0
vertex 17.810582854123 18.6591109915469 125.0
endloop
endfacet
facet normal -0.25881904510252 -0.965925826289068 0.0
outer loop
vertex 17.810582854123 18.6591109915469 125.0
vertex 17.5 18.7 124.0
vertex 17.810582854123 18.6591109915469 124.0
endloop
endfacet
facet normal 0.0 -1.0 0.0
outer loop
vertex 17.5 18.7 124.0
vertex 17.810582854123 18.6591109915469 125.0
vertex 17.5 18.7 125.0
endloop
endfacet
endsolid leg-stencil
