solid horizontal-axis-base-mount
facet normal 0.0 0.0 -1.0
outer loop
vertex -2.25166604983954 4.6 0.0
vertex -1.83847763108502 1.83847763108502 0.0
vertex -2.25166604983954 1.3 0.0
endloop
endfacet
facet normal 0.0 0.0 -1.0
outer loop
vertex -1.83847763108502 1.83847763108502 0.0
vertex -2.25166604983954 4.6 0.0
vertex -1.3 2.25166604983954 0.0
endloop
endfacet
facet normal 0.0 0.0 -1.0
outer loop
vertex -1.3 2.25166604983954 0.0
vertex -2.25166604983954 4.6 0.0
vertex 2.25166604983954 4.6 0.0
endloop
endfacet
facet normal 0.0 0.0 -1.0
outer loop
vertex -1.3 2.25166604983954 0.0
vertex 2.25166604983954 4.6 0.0
vertex -0.672929517266554 2.51140714835158 0.0
endloop
endfacet
facet normal 0.0 0.0 -1.0
outer loop
vertex -0.672929517266554 2.51140714835158 0.0
vertex 2.25166604983954 4.6 0.0
vertex 0.0 2.6 0.0
endloop
endfacet
facet normal 0.0 0.0 -1.0
outer loop
vertex 0.0 2.6 0.0
vertex 2.25166604983954 4.6 0.0
vertex 0.672929517266556 2.51140714835158 0.0
endloop
endfacet
facet normal 0.0 0.0 -1.0
outer loop
vertex 0.672929517266556 2.51140714835158 0.0
vertex 2.25166604983954 4.6 0.0
vertex 1.3 2.25166604983954 0.0
endloop
endfacet
facet normal 0.0 0.0 -1.0
outer loop
vertex 1.3 2.25166604983954 0.0
vertex 2.25166604983954 4.6 0.0
vertex 1.83847763108502 1.83847763108502 0.0
endloop
endfacet
facet normal 0.0 0.0 -1.0
outer loop
vertex 1.83847763108502 1.83847763108502 0.0
vertex 2.25166604983954 4.6 0.0
vertex 2.25166604983954 1.3 0.0
endloop
endfacet
facet normal -0.0 -0.0 1.0
outer loop
vertex -1.83847763108502 1.83847763108502 9.0
vertex -2.25166604983954 4.6 9.0
vertex -2.25166604983954 1.3 9.0
endloop
endfacet
facet normal -0.0 -0.0 1.0
outer loop
vertex -2.25166604983954 4.6 9.0
vertex -1.83847763108502 1.83847763108502 9.0
vertex -1.3 2.25166604983954 9.0
endloop
endfacet
facet normal -0.0 -0.0 1.0
outer loop
vertex -2.25166604983954 4.6 9.0
vertex -1.3 2.25166604983954 9.0
vertex 2.25166604983954 4.6 9.0
endloop
endfacet
facet normal -0.0 -0.0 1.0
outer loop
vertex 2.25166604983954 4.6 9.0
vertex -1.3 2.25166604983954 9.0
vertex -0.672929517266554 2.51140714835158 9.0
endloop
endfacet
facet normal -0.0 -0.0 1.0
outer loop
vertex 2.25166604983954 4.6 9.0
vertex -0.672929517266554 2.51140714835158 9.0
vertex 0.0 2.6 9.0
endloop
endfacet
facet normal -0.0 -0.0 1.0
outer loop
vertex 2.25166604983954 4.6 9.0
vertex 0.0 2.6 9.0
vertex 0.672929517266556 2.51140714835158 9.0
endloop
endfacet
facet normal -0.0 -0.0 1.0
outer loop
vertex 2.25166604983954 4.6 9.0
vertex 0.672929517266556 2.51140714835158 9.0
vertex 1.3 2.25166604983954 9.0
endloop
endfacet
facet normal -0.0 -0.0 1.0
outer loop
vertex 2.25166604983954 4.6 9.0
vertex 1.3 2.25166604983954 9.0
vertex 1.83847763108502 1.83847763108502 9.0
endloop
endfacet
facet normal -0.0 -0.0 1.0
outer loop
vertex 2.25166604983954 4.6 9.0
vertex 1.83847763108502 1.83847763108502 9.0
vertex 2.25166604983954 1.3 9.0
endloop
endfacet
facet normal -0.0 1.0 -0.0
outer loop
vertex -2.25166604983954 4.6 0.0
vertex -1.06066017177982 4.6 2.83933982822018
vertex 2.25166604983954 4.6 0.0
endloop
endfacet
facet normal -0.0 1.0 -0.0
outer loop
vertex -1.06066017177982 4.6 2.83933982822018
vertex -2.25166604983954 4.6 0.0
vertex -1.29903810567666 4.6 3.15
endloop
endfacet
facet normal -0.0 1.0 -0.0
outer loop
vertex -1.29903810567666 4.6 3.15
vertex -2.25166604983954 4.6 0.0
vertex -1.4488887394336 4.6 3.51177143234622
endloop
endfacet
facet normal -0.0 1.0 -0.0
outer loop
vertex -1.4488887394336 4.6 3.51177143234622
vertex -2.25166604983954 4.6 0.0
vertex -2.25166604983954 4.6 9.0
endloop
endfacet
facet normal -0.0 1.0 -0.0
outer loop
vertex 2.25166604983954 4.6 0.0
vertex -1.06066017177982 4.6 2.83933982822018
vertex -0.749999999999999 4.6 2.60096189432334
endloop
endfacet
facet normal -0.0 1.0 -0.0
outer loop
vertex 2.25166604983954 4.6 0.0
vertex -0.749999999999999 4.6 2.60096189432334
vertex -0.388228567653781 4.6 2.4511112605664
endloop
endfacet
facet normal -0.0 1.0 -0.0
outer loop
vertex 2.25166604983954 4.6 0.0
vertex -0.388228567653781 4.6 2.4511112605664
vertex 6.13143110700923e-016 4.6 2.4
endloop
endfacet
facet normal -0.0 1.0 -0.0
outer loop
vertex -1.4488887394336 4.6 3.51177143234622
vertex -2.25166604983954 4.6 9.0
vertex -1.5 4.6 3.9
endloop
endfacet
facet normal -0.0 1.0 -0.0
outer loop
vertex -1.5 4.6 3.9
vertex -2.25166604983954 4.6 9.0
vertex -1.4488887394336 4.6 4.28822856765378
endloop
endfacet
facet normal -0.0 1.0 -0.0
outer loop
vertex -1.4488887394336 4.6 4.28822856765378
vertex -2.25166604983954 4.6 9.0
vertex -1.29903810567666 4.6 4.65
endloop
endfacet
facet normal -0.0 1.0 -0.0
outer loop
vertex -1.29903810567666 4.6 4.65
vertex -2.25166604983954 4.6 9.0
vertex -1.06066017177982 4.6 4.96066017177982
endloop
endfacet
facet normal -0.0 1.0 -0.0
outer loop
vertex -1.06066017177982 4.6 4.96066017177982
vertex -2.25166604983954 4.6 9.0
vertex -0.749999999999998 4.6 5.19903810567666
endloop
endfacet
facet normal -0.0 1.0 -0.0
outer loop
vertex -0.749999999999998 4.6 5.19903810567666
vertex -2.25166604983954 4.6 9.0
vertex -0.38822856765378 4.6 5.3488887394336
endloop
endfacet
facet normal -0.0 1.0 -0.0
outer loop
vertex -0.38822856765378 4.6 5.3488887394336
vertex -2.25166604983954 4.6 9.0
vertex 9.80537150445129e-016 4.6 5.4
endloop
endfacet
facet normal -0.0 1.0 -0.0
outer loop
vertex 2.25166604983954 4.6 0.0
vertex 1.4488887394336 4.6 3.51177143234622
vertex 2.25166604983954 4.6 9.0
endloop
endfacet
facet normal -0.0 1.0 -0.0
outer loop
vertex 1.4488887394336 4.6 3.51177143234622
vertex 2.25166604983954 4.6 0.0
vertex 1.29903810567666 4.6 3.15
endloop
endfacet
facet normal -0.0 1.0 -0.0
outer loop
vertex 1.29903810567666 4.6 3.15
vertex 2.25166604983954 4.6 0.0
vertex 1.06066017177982 4.6 2.83933982822018
endloop
endfacet
facet normal -0.0 1.0 -0.0
outer loop
vertex 1.06066017177982 4.6 2.83933982822018
vertex 2.25166604983954 4.6 0.0
vertex 0.75 4.6 2.60096189432334
endloop
endfacet
facet normal -0.0 1.0 -0.0
outer loop
vertex 0.75 4.6 2.60096189432334
vertex 2.25166604983954 4.6 0.0
vertex 0.388228567653782 4.6 2.4511112605664
endloop
endfacet
facet normal -0.0 1.0 -0.0
outer loop
vertex 0.388228567653782 4.6 2.4511112605664
vertex 2.25166604983954 4.6 0.0
vertex 6.13143110700923e-016 4.6 2.4
endloop
endfacet
facet normal -0.0 1.0 -0.0
outer loop
vertex 2.25166604983954 4.6 9.0
vertex 1.4488887394336 4.6 3.51177143234622
vertex 1.5 4.6 3.9
endloop
endfacet
facet normal -0.0 1.0 -0.0
outer loop
vertex 2.25166604983954 4.6 9.0
vertex 1.5 4.6 3.9
vertex 1.4488887394336 4.6 4.28822856765378
endloop
endfacet
facet normal -0.0 1.0 -0.0
outer loop
vertex 2.25166604983954 4.6 9.0
vertex 1.4488887394336 4.6 4.28822856765378
vertex 1.29903810567666 4.6 4.65
endloop
endfacet
facet normal -0.0 1.0 -0.0
outer loop
vertex 2.25166604983954 4.6 9.0
vertex 1.29903810567666 4.6 4.65
vertex 1.06066017177982 4.6 4.96066017177982
endloop
endfacet
facet normal -0.0 1.0 -0.0
outer loop
vertex 2.25166604983954 4.6 9.0
vertex 1.06066017177982 4.6 4.96066017177982
vertex 0.750000000000001 4.6 5.19903810567666
endloop
endfacet
facet normal -0.0 1.0 -0.0
outer loop
vertex 2.25166604983954 4.6 9.0
vertex 0.750000000000001 4.6 5.19903810567666
vertex 0.388228567653783 4.6 5.3488887394336
endloop
endfacet
facet normal -0.0 1.0 -0.0
outer loop
vertex 2.25166604983954 4.6 9.0
vertex 0.388228567653783 4.6 5.3488887394336
vertex 9.80537150445129e-016 4.6 5.4
endloop
endfacet
facet normal -0.0 1.0 -0.0
outer loop
vertex 2.25166604983954 4.6 9.0
vertex 9.80537150445129e-016 4.6 5.4
vertex -2.25166604983954 4.6 9.0
endloop
endfacet
facet normal 1.0 1.06816912217723e-016 0.0
outer loop
vertex 2.25166604983954 4.6 0.0
vertex 2.25166604983954 1.3 9.0
vertex 2.25166604983954 1.3 0.0
endloop
endfacet
facet normal 1.0 1.06816912217723e-016 0.0
outer loop
vertex 2.25166604983954 1.3 9.0
vertex 2.25166604983954 4.6 0.0
vertex 2.25166604983954 4.6 9.0
endloop
endfacet
facet normal -0.707106781186548 -0.707106781186547 0.0
outer loop
vertex 1.83847763108502 1.83847763108502 9.0
vertex 2.25166604983954 1.3 0.0
vertex 2.25166604983954 1.3 9.0
endloop
endfacet
facet normal -0.793353340291235 -0.60876142900872 -0.0
outer loop
vertex 2.25166604983954 1.3 0.0
vertex 1.83847763108502 1.83847763108502 9.0
vertex 1.83847763108502 1.83847763108502 0.0
endloop
endfacet
facet normal -0.707106781186548 -0.707106781186547 0.0
outer loop
vertex 1.83847763108502 1.83847763108502 9.0
vertex 1.3 2.25166604983954 0.0
vertex 1.83847763108502 1.83847763108502 0.0
endloop
endfacet
facet normal -0.5 -0.866025403784438 0.0
outer loop
vertex 1.3 2.25166604983954 0.0
vertex 1.83847763108502 1.83847763108502 9.0
vertex 1.3 2.25166604983954 9.0
endloop
endfacet
facet normal -0.5 -0.866025403784438 0.0
outer loop
vertex 1.3 2.25166604983954 9.0
vertex 0.672929517266556 2.51140714835158 0.0
vertex 1.3 2.25166604983954 0.0
endloop
endfacet
facet normal -0.258819045102521 -0.965925826289068 0.0
outer loop
vertex 0.672929517266556 2.51140714835158 0.0
vertex 1.3 2.25166604983954 9.0
vertex 0.672929517266556 2.51140714835158 9.0
endloop
endfacet
facet normal -0.258819045102521 -0.965925826289068 0.0
outer loop
vertex 0.672929517266556 2.51140714835158 9.0
vertex 0.0 2.6 0.0
vertex 0.672929517266556 2.51140714835158 0.0
endloop
endfacet
facet normal -5.34666593738814e-017 -1.0 0.0
outer loop
vertex 0.0 2.6 0.0
vertex 0.672929517266556 2.51140714835158 9.0
vertex 0.0 2.6 9.0
endloop
endfacet
facet normal -5.34666593738814e-017 -1.0 0.0
outer loop
vertex 0.0 2.6 9.0
vertex -0.672929517266554 2.51140714835158 0.0
vertex 0.0 2.6 0.0
endloop
endfacet
facet normal 0.258819045102521 -0.965925826289068 0.0
outer loop
vertex -0.672929517266554 2.51140714835158 0.0
vertex 0.0 2.6 9.0
vertex -0.672929517266554 2.51140714835158 9.0
endloop
endfacet
facet normal 0.258819045102521 -0.965925826289068 0.0
outer loop
vertex -0.672929517266554 2.51140714835158 9.0
vertex -1.3 2.25166604983954 0.0
vertex -0.672929517266554 2.51140714835158 0.0
endloop
endfacet
facet normal 0.5 -0.866025403784439 0.0
outer loop
vertex -1.3 2.25166604983954 0.0
vertex -0.672929517266554 2.51140714835158 9.0
vertex -1.3 2.25166604983954 9.0
endloop
endfacet
facet normal 0.5 -0.866025403784439 0.0
outer loop
vertex -1.3 2.25166604983954 9.0
vertex -1.83847763108502 1.83847763108502 0.0
vertex -1.3 2.25166604983954 0.0
endloop
endfacet
facet normal 0.707106781186547 -0.707106781186548 0.0
outer loop
vertex -1.83847763108502 1.83847763108502 0.0
vertex -1.3 2.25166604983954 9.0
vertex -1.83847763108502 1.83847763108502 9.0
endloop
endfacet
facet normal 0.707106781186547 -0.707106781186548 0.0
outer loop
vertex -1.83847763108502 1.83847763108502 0.0
vertex -2.25166604983954 1.3 9.0
vertex -2.25166604983954 1.3 0.0
endloop
endfacet
facet normal 0.793353340291235 -0.608761429008721 0.0
outer loop
vertex -2.25166604983954 1.3 9.0
vertex -1.83847763108502 1.83847763108502 0.0
vertex -1.83847763108502 1.83847763108502 9.0
endloop
endfacet
facet normal -1.0 0.0 0.0
outer loop
vertex -2.25166604983954 4.6 9.0
vertex -2.25166604983954 1.3 0.0
vertex -2.25166604983954 1.3 9.0
endloop
endfacet
facet normal -1.0 0.0 0.0
outer loop
vertex -2.25166604983954 1.3 0.0
vertex -2.25166604983954 4.6 9.0
vertex -2.25166604983954 4.6 0.0
endloop
endfacet
facet normal 0.0 1.0 0.0
outer loop
vertex -0.388228567653781 3.6 2.4511112605664
vertex 0.388228567653782 3.6 2.4511112605664
vertex 6.13143110700923e-016 3.6 2.4
endloop
endfacet
facet normal 0.0 1.0 0.0
outer loop
vertex 0.388228567653782 3.6 2.4511112605664
vertex -0.388228567653781 3.6 2.4511112605664
vertex -0.749999999999999 3.6 2.60096189432334
endloop
endfacet
facet normal 0.0 1.0 0.0
outer loop
vertex 0.388228567653782 3.6 2.4511112605664
vertex -0.749999999999999 3.6 2.60096189432334
vertex 0.75 3.6 2.60096189432334
endloop
endfacet
facet normal 0.0 1.0 0.0
outer loop
vertex 0.75 3.6 2.60096189432334
vertex -0.749999999999999 3.6 2.60096189432334
vertex -1.06066017177982 3.6 2.83933982822018
endloop
endfacet
facet normal 0.0 1.0 0.0
outer loop
vertex 0.75 3.6 2.60096189432334
vertex -1.06066017177982 3.6 2.83933982822018
vertex 1.06066017177982 3.6 2.83933982822018
endloop
endfacet
facet normal 0.0 1.0 0.0
outer loop
vertex 1.06066017177982 3.6 2.83933982822018
vertex -1.06066017177982 3.6 2.83933982822018
vertex -1.29903810567666 3.6 3.15
endloop
endfacet
facet normal 0.0 1.0 0.0
outer loop
vertex 1.06066017177982 3.6 2.83933982822018
vertex -1.29903810567666 3.6 3.15
vertex 1.29903810567666 3.6 3.15
endloop
endfacet
facet normal 0.0 1.0 0.0
outer loop
vertex 1.29903810567666 3.6 3.15
vertex -1.29903810567666 3.6 3.15
vertex 1.4488887394336 3.6 3.51177143234622
endloop
endfacet
facet normal 0.0 1.0 0.0
outer loop
vertex 1.4488887394336 3.6 3.51177143234622
vertex -1.29903810567666 3.6 3.15
vertex -1.4488887394336 3.6 3.51177143234622
endloop
endfacet
facet normal 0.0 1.0 0.0
outer loop
vertex 1.4488887394336 3.6 3.51177143234622
vertex -1.4488887394336 3.6 3.51177143234622
vertex -1.5 3.6 3.9
endloop
endfacet
facet normal 0.0 1.0 0.0
outer loop
vertex 1.4488887394336 3.6 3.51177143234622
vertex -1.5 3.6 3.9
vertex 1.5 3.6 3.9
endloop
endfacet
facet normal 0.0 1.0 0.0
outer loop
vertex 1.5 3.6 3.9
vertex -1.5 3.6 3.9
vertex -1.4488887394336 3.6 4.28822856765378
endloop
endfacet
facet normal 0.0 1.0 0.0
outer loop
vertex 1.5 3.6 3.9
vertex -1.4488887394336 3.6 4.28822856765378
vertex 1.4488887394336 3.6 4.28822856765378
endloop
endfacet
facet normal 0.0 1.0 0.0
outer loop
vertex 1.4488887394336 3.6 4.28822856765378
vertex -1.4488887394336 3.6 4.28822856765378
vertex 1.29903810567666 3.6 4.65
endloop
endfacet
facet normal 0.0 1.0 0.0
outer loop
vertex 1.29903810567666 3.6 4.65
vertex -1.4488887394336 3.6 4.28822856765378
vertex -1.29903810567666 3.6 4.65
endloop
endfacet
facet normal 0.0 1.0 0.0
outer loop
vertex 1.29903810567666 3.6 4.65
vertex -1.29903810567666 3.6 4.65
vertex 1.06066017177982 3.6 4.96066017177982
endloop
endfacet
facet normal 0.0 1.0 0.0
outer loop
vertex 1.06066017177982 3.6 4.96066017177982
vertex -1.29903810567666 3.6 4.65
vertex -1.06066017177982 3.6 4.96066017177982
endloop
endfacet
facet normal 0.0 1.0 0.0
outer loop
vertex 1.06066017177982 3.6 4.96066017177982
vertex -1.06066017177982 3.6 4.96066017177982
vertex 0.750000000000001 3.6 5.19903810567666
endloop
endfacet
facet normal 0.0 1.0 0.0
outer loop
vertex 0.750000000000001 3.6 5.19903810567666
vertex -1.06066017177982 3.6 4.96066017177982
vertex -0.749999999999998 3.6 5.19903810567666
endloop
endfacet
facet normal 0.0 1.0 0.0
outer loop
vertex 0.750000000000001 3.6 5.19903810567666
vertex -0.749999999999998 3.6 5.19903810567666
vertex 0.388228567653783 3.6 5.3488887394336
endloop
endfacet
facet normal 0.0 1.0 0.0
outer loop
vertex 0.388228567653783 3.6 5.3488887394336
vertex -0.749999999999998 3.6 5.19903810567666
vertex -0.38822856765378 3.6 5.3488887394336
endloop
endfacet
facet normal 0.0 1.0 0.0
outer loop
vertex 0.388228567653783 3.6 5.3488887394336
vertex -0.38822856765378 3.6 5.3488887394336
vertex 9.80537150445129e-016 3.6 5.4
endloop
endfacet
facet normal -0.965925826289068 0.0 -0.258819045102521
outer loop
vertex 1.4488887394336 4.6 4.28822856765378
vertex 1.5 3.6 3.9
vertex 1.4488887394336 3.6 4.28822856765378
endloop
endfacet
facet normal -1.0 0.0 3.20799956243289e-016
outer loop
vertex 1.5 3.6 3.9
vertex 1.4488887394336 4.6 4.28822856765378
vertex 1.5 4.6 3.9
endloop
endfacet
facet normal -1.0 0.0 3.20799956243289e-016
outer loop
vertex 1.5 4.6 3.9
vertex 1.4488887394336 3.6 3.51177143234622
vertex 1.5 3.6 3.9
endloop
endfacet
facet normal -0.965925826289068 0.0 0.258819045102521
outer loop
vertex 1.4488887394336 3.6 3.51177143234622
vertex 1.5 4.6 3.9
vertex 1.4488887394336 4.6 3.51177143234622
endloop
endfacet
facet normal -0.965925826289068 0.0 0.258819045102521
outer loop
vertex 1.4488887394336 4.6 3.51177143234622
vertex 1.29903810567666 3.6 3.15
vertex 1.4488887394336 3.6 3.51177143234622
endloop
endfacet
facet normal -0.866025403784438 0.0 0.5
outer loop
vertex 1.29903810567666 3.6 3.15
vertex 1.4488887394336 4.6 3.51177143234622
vertex 1.29903810567666 4.6 3.15
endloop
endfacet
facet normal -0.866025403784438 0.0 0.5
outer loop
vertex 1.29903810567666 4.6 3.15
vertex 1.06066017177982 3.6 2.83933982822018
vertex 1.29903810567666 3.6 3.15
endloop
endfacet
facet normal -0.707106781186547 0.0 0.707106781186548
outer loop
vertex 1.06066017177982 3.6 2.83933982822018
vertex 1.29903810567666 4.6 3.15
vertex 1.06066017177982 4.6 2.83933982822018
endloop
endfacet
facet normal -0.707106781186547 0.0 0.707106781186548
outer loop
vertex 1.06066017177982 3.6 2.83933982822018
vertex 0.75 4.6 2.60096189432334
vertex 0.75 3.6 2.60096189432334
endloop
endfacet
facet normal -0.5 0.0 0.866025403784439
outer loop
vertex 0.75 4.6 2.60096189432334
vertex 1.06066017177982 3.6 2.83933982822018
vertex 1.06066017177982 4.6 2.83933982822018
endloop
endfacet
facet normal -0.5 0.0 0.866025403784439
outer loop
vertex 0.75 3.6 2.60096189432334
vertex 0.388228567653782 4.6 2.4511112605664
vertex 0.388228567653782 3.6 2.4511112605664
endloop
endfacet
facet normal -0.258819045102521 0.0 0.965925826289068
outer loop
vertex 0.388228567653782 4.6 2.4511112605664
vertex 0.75 3.6 2.60096189432334
vertex 0.75 4.6 2.60096189432334
endloop
endfacet
facet normal -0.258819045102521 0.0 0.965925826289068
outer loop
vertex 0.388228567653782 3.6 2.4511112605664
vertex 6.13143110700923e-016 4.6 2.4
vertex 6.13143110700923e-016 3.6 2.4
endloop
endfacet
facet normal -5.34666593738814e-017 0.0 1.0
outer loop
vertex 6.13143110700923e-016 4.6 2.4
vertex 0.388228567653782 3.6 2.4511112605664
vertex 0.388228567653782 4.6 2.4511112605664
endloop
endfacet
facet normal -5.34666593738814e-017 0.0 1.0
outer loop
vertex 6.13143110700923e-016 3.6 2.4
vertex -0.388228567653781 4.6 2.4511112605664
vertex -0.388228567653781 3.6 2.4511112605664
endloop
endfacet
facet normal 0.258819045102521 0.0 0.965925826289068
outer loop
vertex -0.388228567653781 4.6 2.4511112605664
vertex 6.13143110700923e-016 3.6 2.4
vertex 6.13143110700923e-016 4.6 2.4
endloop
endfacet
facet normal 0.258819045102521 0.0 0.965925826289068
outer loop
vertex -0.388228567653781 3.6 2.4511112605664
vertex -0.749999999999999 4.6 2.60096189432334
vertex -0.749999999999999 3.6 2.60096189432334
endloop
endfacet
facet normal 0.5 0.0 0.866025403784438
outer loop
vertex -0.749999999999999 4.6 2.60096189432334
vertex -0.388228567653781 3.6 2.4511112605664
vertex -0.388228567653781 4.6 2.4511112605664
endloop
endfacet
facet normal 0.5 0.0 0.866025403784438
outer loop
vertex -0.749999999999999 3.6 2.60096189432334
vertex -1.06066017177982 4.6 2.83933982822018
vertex -1.06066017177982 3.6 2.83933982822018
endloop
endfacet
facet normal 0.707106781186548 0.0 0.707106781186547
outer loop
vertex -1.06066017177982 4.6 2.83933982822018
vertex -0.749999999999999 3.6 2.60096189432334
vertex -0.749999999999999 4.6 2.60096189432334
endloop
endfacet
facet normal 0.707106781186548 0.0 0.707106781186547
outer loop
vertex -1.06066017177982 4.6 2.83933982822018
vertex -1.29903810567666 3.6 3.15
vertex -1.06066017177982 3.6 2.83933982822018
endloop
endfacet
facet normal 0.866025403784439 0.0 0.5
outer loop
vertex -1.29903810567666 3.6 3.15
vertex -1.06066017177982 4.6 2.83933982822018
vertex -1.29903810567666 4.6 3.15
endloop
endfacet
facet normal 0.866025403784439 0.0 0.5
outer loop
vertex -1.29903810567666 4.6 3.15
vertex -1.4488887394336 3.6 3.51177143234622
vertex -1.29903810567666 3.6 3.15
endloop
endfacet
facet normal 0.965925826289068 0.0 0.258819045102521
outer loop
vertex -1.4488887394336 3.6 3.51177143234622
vertex -1.29903810567666 4.6 3.15
vertex -1.4488887394336 4.6 3.51177143234622
endloop
endfacet
facet normal 0.965925826289068 0.0 0.258819045102521
outer loop
vertex -1.4488887394336 4.6 3.51177143234622
vertex -1.5 3.6 3.9
vertex -1.4488887394336 3.6 3.51177143234622
endloop
endfacet
facet normal 1.0 0.0 -3.29711066138935e-016
outer loop
vertex -1.5 3.6 3.9
vertex -1.4488887394336 4.6 3.51177143234622
vertex -1.5 4.6 3.9
endloop
endfacet
facet normal 1.0 0.0 -3.29711066138935e-016
outer loop
vertex -1.5 4.6 3.9
vertex -1.4488887394336 3.6 4.28822856765378
vertex -1.5 3.6 3.9
endloop
endfacet
facet normal 0.965925826289068 0.0 -0.258819045102521
outer loop
vertex -1.4488887394336 3.6 4.28822856765378
vertex -1.5 4.6 3.9
vertex -1.4488887394336 4.6 4.28822856765378
endloop
endfacet
facet normal 0.965925826289068 0.0 -0.258819045102521
outer loop
vertex -1.4488887394336 4.6 4.28822856765378
vertex -1.29903810567666 3.6 4.65
vertex -1.4488887394336 3.6 4.28822856765378
endloop
endfacet
facet normal 0.866025403784439 0.0 -0.5
outer loop
vertex -1.29903810567666 3.6 4.65
vertex -1.4488887394336 4.6 4.28822856765378
vertex -1.29903810567666 4.6 4.65
endloop
endfacet
facet normal 0.866025403784439 0.0 -0.5
outer loop
vertex -1.29903810567666 4.6 4.65
vertex -1.06066017177982 3.6 4.96066017177982
vertex -1.29903810567666 3.6 4.65
endloop
endfacet
facet normal 0.707106781186547 0.0 -0.707106781186548
outer loop
vertex -1.06066017177982 3.6 4.96066017177982
vertex -1.29903810567666 4.6 4.65
vertex -1.06066017177982 4.6 4.96066017177982
endloop
endfacet
facet normal 0.499999999999999 0.0 -0.866025403784439
outer loop
vertex -0.749999999999998 4.6 5.19903810567666
vertex -1.06066017177982 3.6 4.96066017177982
vertex -1.06066017177982 4.6 4.96066017177982
endloop
endfacet
facet normal 0.707106781186547 0.0 -0.707106781186548
outer loop
vertex -1.06066017177982 3.6 4.96066017177982
vertex -0.749999999999998 4.6 5.19903810567666
vertex -0.749999999999998 3.6 5.19903810567666
endloop
endfacet
facet normal 0.258819045102521 0.0 -0.965925826289068
outer loop
vertex -0.38822856765378 4.6 5.3488887394336
vertex -0.749999999999998 3.6 5.19903810567666
vertex -0.749999999999998 4.6 5.19903810567666
endloop
endfacet
facet normal 0.499999999999999 0.0 -0.866025403784439
outer loop
vertex -0.749999999999998 3.6 5.19903810567666
vertex -0.38822856765378 4.6 5.3488887394336
vertex -0.38822856765378 3.6 5.3488887394336
endloop
endfacet
facet normal -6.77244352069165e-016 0.0 -1.0
outer loop
vertex 9.80537150445129e-016 4.6 5.4
vertex -0.38822856765378 3.6 5.3488887394336
vertex -0.38822856765378 4.6 5.3488887394336
endloop
endfacet
facet normal 0.258819045102521 0.0 -0.965925826289068
outer loop
vertex -0.38822856765378 3.6 5.3488887394336
vertex 9.80537150445129e-016 4.6 5.4
vertex 9.80537150445129e-016 3.6 5.4
endloop
endfacet
facet normal -0.258819045102522 0.0 -0.965925826289068
outer loop
vertex 0.388228567653783 4.6 5.3488887394336
vertex 9.80537150445129e-016 3.6 5.4
vertex 9.80537150445129e-016 4.6 5.4
endloop
endfacet
facet normal -6.77244352069165e-016 0.0 -1.0
outer loop
vertex 9.80537150445129e-016 3.6 5.4
vertex 0.388228567653783 4.6 5.3488887394336
vertex 0.388228567653783 3.6 5.3488887394336
endloop
endfacet
facet normal -0.5 0.0 -0.866025403784438
outer loop
vertex 0.750000000000001 4.6 5.19903810567666
vertex 0.388228567653783 3.6 5.3488887394336
vertex 0.388228567653783 4.6 5.3488887394336
endloop
endfacet
facet normal -0.258819045102522 0.0 -0.965925826289068
outer loop
vertex 0.388228567653783 3.6 5.3488887394336
vertex 0.750000000000001 4.6 5.19903810567666
vertex 0.750000000000001 3.6 5.19903810567666
endloop
endfacet
facet normal -0.707106781186548 0.0 -0.707106781186547
outer loop
vertex 1.06066017177982 4.6 4.96066017177982
vertex 0.750000000000001 3.6 5.19903810567666
vertex 0.750000000000001 4.6 5.19903810567666
endloop
endfacet
facet normal -0.5 0.0 -0.866025403784438
outer loop
vertex 0.750000000000001 3.6 5.19903810567666
vertex 1.06066017177982 4.6 4.96066017177982
vertex 1.06066017177982 3.6 4.96066017177982
endloop
endfacet
facet normal -0.707106781186548 0.0 -0.707106781186547
outer loop
vertex 1.06066017177982 4.6 4.96066017177982
vertex 1.29903810567666 3.6 4.65
vertex 1.06066017177982 3.6 4.96066017177982
endloop
endfacet
facet normal -0.866025403784439 0.0 -0.5
outer loop
vertex 1.29903810567666 3.6 4.65
vertex 1.06066017177982 4.6 4.96066017177982
vertex 1.29903810567666 4.6 4.65
endloop
endfacet
facet normal -0.866025403784439 0.0 -0.5
outer loop
vertex 1.29903810567666 4.6 4.65
vertex 1.4488887394336 3.6 4.28822856765378
vertex 1.29903810567666 3.6 4.65
endloop
endfacet
facet normal -0.965925826289068 0.0 -0.258819045102521
outer loop
vertex 1.4488887394336 3.6 4.28822856765378
vertex 1.29903810567666 4.6 4.65
vertex 1.4488887394336 4.6 4.28822856765378
endloop
endfacet
endsolid horizontal-axis-base-mount
