solid linear-actuator-bracket
facet normal -3.03407551367068e-006 2.90512213873004e-006 -0.999999999991177
outer loop
vertex 2.08435404270557 19.0000083408955 0.000176463074478933
vertex 6.73531332166671 10.7500083410679 0.000110753258607943
vertex 2.08435532567522 1.00002945476509 8.44428192047806e-005
endloop
endfacet
facet normal -3.03407551367068e-006 2.90512213873004e-006 -0.999999999991177
outer loop
vertex 6.73531332166671 10.7500083410679 0.000110753258607943
vertex 2.08435404270557 19.0000083408955 0.000176463074478933
vertex 6.97369125556161 11.0606685128466 0.000112042434744541
endloop
endfacet
facet normal -3.03407551367068e-006 2.90512213873004e-006 -0.999999999991177
outer loop
vertex 6.97369125556161 11.0606685128466 0.000112042434744541
vertex 2.08435404270557 19.0000083408955 0.000176463074478933
vertex 14.5843477702939 19.0000083410402 9.88090361314305e-005
endloop
endfacet
facet normal -3.03407551367068e-006 2.90512213873004e-006 -0.999999999991177
outer loop
vertex 2.08435532567522 1.00002945476509 8.44428192047806e-005
vertex 6.73531332166671 10.7500083410679 0.000110753258607943
vertex 6.58546268791097 10.3882369087226 0.000109765962026476
endloop
endfacet
facet normal -3.03407551367068e-006 2.90512213873004e-006 -0.999999999991177
outer loop
vertex 2.08435532567522 1.00002945476509 8.44428192047806e-005
vertex 6.58546268791097 10.3882369087226 0.000109765962026476
vertex 6.53435142734499 10.0000083410692 0.000109147827606915
endloop
endfacet
facet normal -3.03407551367068e-006 2.90512213873004e-006 -0.999999999991177
outer loop
vertex 6.97369125556161 11.0606685128466 0.000112042434744541
vertex 14.5843477702939 19.0000083410402 9.88090361314305e-005
vertex 7.28435142733892 11.2990464467419 0.000113545635181378
endloop
endfacet
facet normal -3.03407551367068e-006 2.90512213873004e-006 -0.999999999991177
outer loop
vertex 7.28435142733892 11.2990464467419 0.000113545635181378
vertex 14.5843477702939 19.0000083410402 9.88090361314305e-005
vertex 7.64612285968221 11.4488970804972 0.000115160419311877
endloop
endfacet
facet normal -3.03407551367068e-006 2.90512213873004e-006 -0.999999999991177
outer loop
vertex 7.64612285968221 11.4488970804972 0.000115160419311877
vertex 14.5843477702939 19.0000083410402 9.88090361314305e-005
vertex 8.03435142733285 11.5000083410619 0.000116776742275526
endloop
endfacet
facet normal -3.03407551367068e-006 2.90512213873004e-006 -0.999999999991177
outer loop
vertex 8.03435142733285 11.5000083410619 0.000116776742275526
vertex 14.5843477702939 19.0000083410402 9.88090361314305e-005
vertex 8.42257999498349 11.4488970804939 0.000118284454309059
endloop
endfacet
facet normal -3.03407551367068e-006 2.90512213873004e-006 -0.999999999991177
outer loop
vertex 8.42257999498349 11.4488970804939 0.000118284454309059
vertex 14.5843477702939 19.0000083410402 9.88090361314305e-005
vertex 8.78435142732678 11.2990464467355 0.000119580807339315
endloop
endfacet
facet normal -3.03407551367068e-006 2.90512213873004e-006 -0.999999999991177
outer loop
vertex 8.78435142732678 11.2990464467355 0.000119580807339315
vertex 14.5843477702939 19.0000083410402 9.88090361314305e-005
vertex 9.09501159910409 11.0606685128375 0.000120577457061533
endloop
endfacet
facet normal -3.03407551367068e-006 2.90512213873004e-006 -0.999999999991177
outer loop
vertex 9.09501159910409 11.0606685128375 0.000120577457061533
vertex 14.5843477702939 19.0000083410402 9.88090361314305e-005
vertex 9.33338953299899 10.7500083410568 0.000121206483421155
endloop
endfacet
facet normal -3.03407551367068e-006 2.90512213873004e-006 -0.999999999991177
outer loop
vertex 9.33338953299899 10.7500083410568 0.000121206483421155
vertex 14.5843477702939 19.0000083410402 9.88090361314305e-005
vertex 9.48324016675472 10.3882369087102 0.000121425019329369
endloop
endfacet
facet normal -3.03407551367068e-006 2.90512213873004e-006 -0.999999999991177
outer loop
vertex 9.48324016675472 10.3882369087102 0.000121425019329369
vertex 14.5843477702939 19.0000083410402 9.88090361314305e-005
vertex 9.53435142732071 10.0000083410564 0.000121218171922788
endloop
endfacet
facet normal -3.03407551367068e-006 2.90512213873004e-006 -0.999999999991177
outer loop
vertex 2.08435532567522 1.00002945476509 8.44428192047806e-005
vertex 6.97369125556161 8.93934816928811 0.00010978854246817
vertex 14.5843485722076 1.00002945476487 8.62450107606844e-005
endloop
endfacet
facet normal -3.03407551367068e-006 2.90512213873004e-006 -0.999999999991177
outer loop
vertex 6.97369125556161 8.93934816928811 0.00010978854246817
vertex 2.08435532567522 1.00002945476509 8.44428192047806e-005
vertex 6.7353133216667 9.25000834106877 0.000109159516108548
endloop
endfacet
facet normal -3.03407551367068e-006 2.90512213873004e-006 -0.999999999991177
outer loop
vertex 6.7353133216667 9.25000834106877 0.000109159516108548
vertex 2.08435532567522 1.00002945476509 8.44428192047806e-005
vertex 6.58546268791097 9.61177977341543 0.000108940980200334
endloop
endfacet
facet normal -3.03407551367068e-006 2.90512213873004e-006 -0.999999999991177
outer loop
vertex 6.58546268791097 9.61177977341543 0.000108940980200334
vertex 2.08435532567522 1.00002945476509 8.44428192047806e-005
vertex 6.53435142734499 10.0000083410692 0.000109147827606915
endloop
endfacet
facet normal -3.03407551367068e-006 2.90512213873004e-006 -0.999999999991177
outer loop
vertex 14.5843485722076 1.00002945476487 8.62450107606844e-005
vertex 6.97369125556161 8.93934816928811 0.00010978854246817
vertex 7.28435142733891 8.70097023539008 0.000110785192190388
endloop
endfacet
facet normal -3.03407551367068e-006 2.90512213873004e-006 -0.999999999991177
outer loop
vertex 14.5843485722076 1.00002945476487 8.62450107606844e-005
vertex 7.28435142733891 8.70097023539008 0.000110785192190388
vertex 7.6461228596822 8.55111960163167 0.000112081545220644
endloop
endfacet
facet normal -3.03407551367068e-006 2.90512213873004e-006 -0.999999999991177
outer loop
vertex 14.5843485722076 1.00002945476487 8.62450107606844e-005
vertex 7.6461228596822 8.55111960163167 0.000112081545220644
vertex 8.03435142733284 8.50000834106364 0.000113589257254176
endloop
endfacet
facet normal -3.03407551367068e-006 2.90512213873004e-006 -0.999999999991177
outer loop
vertex 14.5843485722076 1.00002945476487 8.62450107606844e-005
vertex 8.03435142733284 8.50000834106364 0.000113589257254176
vertex 8.42257999498348 8.55111960162835 0.000115205580217825
endloop
endfacet
facet normal -3.03407551367068e-006 2.90512213873004e-006 -0.999999999991177
outer loop
vertex 14.5843485722076 1.00002945476487 8.62450107606844e-005
vertex 8.42257999498348 8.55111960162835 0.000115205580217825
vertex 8.78435142732677 8.70097023538366 0.000116820364348325
endloop
endfacet
facet normal -3.03407551367068e-006 2.90512213873004e-006 -0.999999999991177
outer loop
vertex 14.5843485722076 1.00002945476487 8.62450107606844e-005
vertex 8.78435142732677 8.70097023538366 0.000116820364348325
vertex 9.09501159910408 8.93934816927903 0.000118323564785161
endloop
endfacet
facet normal -3.03407551367068e-006 2.90512213873004e-006 -0.999999999991177
outer loop
vertex 14.5843485722076 1.00002945476487 8.62450107606844e-005
vertex 9.09501159910408 8.93934816927903 0.000118323564785161
vertex 9.33338953299899 9.25000834105766 0.00011961274092176
endloop
endfacet
facet normal -3.03407551367068e-006 2.90512213873004e-006 -0.999999999991177
outer loop
vertex 14.5843485722076 1.00002945476487 8.62450107606844e-005
vertex 9.33338953299899 9.25000834105766 0.00011961274092176
vertex 9.48324016675472 9.61177977340304 0.000120600037503227
endloop
endfacet
facet normal -3.03407551367068e-006 2.90512213873004e-006 -0.999999999991177
outer loop
vertex 14.5843485722076 1.00002945476487 8.62450107606844e-005
vertex 9.48324016675472 9.61177977340304 0.000120600037503227
vertex 9.53435142732071 10.0000083410564 0.000121218171922788
endloop
endfacet
facet normal -3.03407551367068e-006 2.90512213873004e-006 -0.999999999991177
outer loop
vertex 14.5843485722076 1.00002945476487 8.62450107606844e-005
vertex 9.53435142732071 10.0000083410564 0.000121218171922788
vertex 14.5843477702939 19.0000083410402 9.88090361314305e-005
endloop
endfacet
facet normal 2.01602064052016e-006 -2.41695161807216e-006 -0.999999999995047
outer loop
vertex 34.8843506209471 19.0000083410009 0.000102504974968128
vertex 38.6854627139518 10.3882363895726 1.93685834882551e-005
vertex 34.8843514227058 1.00002945472081 0.000129766573541307
endloop
endfacet
facet normal 2.01602064052016e-006 -2.41695161807216e-006 -0.999999999995047
outer loop
vertex 38.6854627139518 10.3882363895726 1.93685834882551e-005
vertex 34.8843506209471 19.0000083410009 0.000102504974968128
vertex 38.8353134126123 10.7500077950349 1.93628993607753e-005
endloop
endfacet
facet normal 2.01602064052016e-006 -2.41695161807216e-006 -0.999999999995047
outer loop
vertex 38.8353134126123 10.7500077950349 1.93628993607753e-005
vertex 34.8843506209471 19.0000083410009 0.000102504974968128
vertex 39.0736914022431 11.0606679240485 1.92251740363858e-005
endloop
endfacet
facet normal 2.01602064052016e-006 -2.41695161807216e-006 -0.999999999995047
outer loop
vertex 39.0736914022431 11.0606679240485 1.92251740363858e-005
vertex 34.8843506209471 19.0000083410009 0.000102504974968128
vertex 46.0843515097644 19.0000083410068 0.000108840927036443
endloop
endfacet
facet normal 2.01602064052016e-006 -2.41695161807216e-006 -0.999999999995047
outer loop
vertex 34.8843514227058 1.00002945472081 0.000129766573541307
vertex 38.6854627139518 10.3882363895726 1.93685834882551e-005
vertex 38.6343513837352 10.0000078310885 1.92418390682292e-005
endloop
endfacet
facet normal 2.01602064052016e-006 -2.41695161807216e-006 -0.999999999995047
outer loop
vertex 39.0736914022431 11.0606679240485 1.92251740363858e-005
vertex 46.0843515097644 19.0000083410068 0.000108840927036443
vertex 39.3843516167889 11.2990458022115 1.89647932884895e-005
endloop
endfacet
facet normal 2.01602064052016e-006 -2.41695161807216e-006 -0.999999999995047
outer loop
vertex 39.3843516167889 11.2990458022115 1.89647932884895e-005
vertex 46.0843515097644 19.0000083410068 0.000108840927036443
vertex 39.7461230760188 11.4488963710649 1.85995016320994e-005
endloop
endfacet
facet normal 2.01602064052016e-006 -2.41695161807216e-006 -0.999999999995047
outer loop
vertex 39.7461230760188 11.4488963710649 1.85995016320994e-005
vertex 46.0843515097644 19.0000083410068 0.000108840927036443
vertex 40.134351652842 11.5000075619813 1.81541930770912e-005
endloop
endfacet
facet normal 2.01602064052016e-006 -2.41695161807216e-006 -0.999999999995047
outer loop
vertex 40.134351652842 11.5000075619813 1.81541930770912e-005
vertex 46.0843515097644 19.0000083410068 0.000108840927036443
vertex 40.5225802113258 11.4488962317649 1.7659214670207e-005
endloop
endfacet
facet normal 2.01602064052016e-006 -2.41695161807216e-006 -0.999999999995047
outer loop
vertex 40.5225802113258 11.4488962317649 1.7659214670207e-005
vertex 46.0843515097644 19.0000083410068 0.000108840927036443
vertex 40.8843516167878 11.2990455331045 1.71482983654769e-005
endloop
endfacet
facet normal 2.01602064052016e-006 -2.41695161807216e-006 -0.999999999995047
outer loop
vertex 40.8843516167878 11.2990455331045 1.71482983654769e-005
vertex 46.0843515097644 19.0000083410068 0.000108840927036443
vertex 41.1950117458011 11.0606675434738 1.66562622890609e-005
endloop
endfacet
facet normal 2.01602064052016e-006 -2.41695161807216e-006 -0.999999999995047
outer loop
vertex 41.1950117458011 11.0606675434738 1.66562622890609e-005
vertex 46.0843515097644 19.0000083410068 0.000108840927036443
vertex 41.4333896239637 10.7500073289279 1.62166378615325e-005
endloop
endfacet
facet normal 2.01602064052016e-006 -2.41695161807216e-006 -0.999999999995047
outer loop
vertex 41.4333896239637 10.7500073289279 1.62166378615325e-005
vertex 46.0843515097644 19.0000083410068 0.000108840927036443
vertex 41.5832401928169 10.3882358696979 1.58593847677579e-005
endloop
endfacet
facet normal 2.01602064052016e-006 -2.41695161807216e-006 -0.999999999995047
outer loop
vertex 41.5832401928169 10.3882358696979 1.58593847677579e-005
vertex 46.0843515097644 19.0000083410068 0.000108840927036443
vertex 41.634351383733 10.0000072928745 1.5608849222204e-005
endloop
endfacet
facet normal 2.01602064052016e-006 -2.41695161807216e-006 -0.999999999995047
outer loop
vertex 34.8843514227058 1.00002945472081 0.000129766573541307
vertex 39.0736910216671 8.93934758048917 1.81944260013722e-005
vertex 46.0843519800329 1.00002945474017 0.000168589487217027
endloop
endfacet
facet normal 2.01602064052016e-006 -2.41695161807216e-006 -0.999999999995047
outer loop
vertex 39.0736910216671 8.93934758048917 1.81944260013722e-005
vertex 34.8843514227058 1.00002945472081 0.000129766573541307
vertex 38.8353131435045 9.25000779503507 1.86340504289007e-005
endloop
endfacet
facet normal 2.01602064052016e-006 -2.41695161807216e-006 -0.999999999995047
outer loop
vertex 38.8353131435045 9.25000779503507 1.86340504289007e-005
vertex 34.8843514227058 1.00002945472081 0.000129766573541307
vertex 38.6854625746513 9.61177925426513 1.89913035226752e-005
endloop
endfacet
facet normal 2.01602064052016e-006 -2.41695161807216e-006 -0.999999999995047
outer loop
vertex 38.6854625746513 9.61177925426513 1.89913035226752e-005
vertex 34.8843514227058 1.00002945472081 0.000129766573541307
vertex 38.6343513837352 10.0000078310885 1.92418390682292e-005
endloop
endfacet
facet normal 2.01602064052016e-006 -2.41695161807216e-006 -0.999999999995047
outer loop
vertex 46.0843519800329 1.00002945474017 0.000168589487217027
vertex 39.0736910216671 8.93934758048917 1.81944260013722e-005
vertex 39.3843511506804 8.7009695908585 1.77023899249562e-005
endloop
endfacet
facet normal 2.01602064052016e-006 -2.41695161807216e-006 -0.999999999995047
outer loop
vertex 46.0843519800329 1.00002945474017 0.000168589487217027
vertex 39.3843511506804 8.7009695908585 1.77023899249562e-005
vertex 39.7461225561424 8.5511188921981 1.71914736202261e-005
endloop
endfacet
facet normal 2.01602064052016e-006 -2.41695161807216e-006 -0.999999999995047
outer loop
vertex 46.0843519800329 1.00002945474017 0.000168589487217027
vertex 39.7461225561424 8.5511188921981 1.71914736202261e-005
vertex 40.1343511146262 8.5000075619817 1.66964952133419e-005
endloop
endfacet
facet normal 2.01602064052016e-006 -2.41695161807216e-006 -0.999999999995047
outer loop
vertex 46.0843519800329 1.00002945474017 0.000168589487217027
vertex 40.1343511146262 8.5000075619817 1.66964952133419e-005
vertex 40.5225796914494 8.55111875289808 1.62511866583337e-005
endloop
endfacet
facet normal 2.01602064052016e-006 -2.41695161807216e-006 -0.999999999995047
outer loop
vertex 46.0843519800329 1.00002945474017 0.000168589487217027
vertex 40.5225796914494 8.55111875289808 1.62511866583337e-005
vertex 40.8843511506793 8.70096932175153 1.58858950019436e-005
endloop
endfacet
facet normal 2.01602064052016e-006 -2.41695161807216e-006 -0.999999999995047
outer loop
vertex 46.0843519800329 1.00002945474017 0.000168589487217027
vertex 40.8843511506793 8.70096932175153 1.58858950019436e-005
vertex 41.1950113652251 8.93934719991446 1.56255142540473e-005
endloop
endfacet
facet normal 2.01602064052016e-006 -2.41695161807216e-006 -0.999999999995047
outer loop
vertex 46.0843519800329 1.00002945474017 0.000168589487217027
vertex 41.1950113652251 8.93934719991446 1.56255142540473e-005
vertex 41.4333893548558 9.25000732892813 1.54877889296579e-005
endloop
endfacet
facet normal 2.01602064052016e-006 -2.41695161807216e-006 -0.999999999995047
outer loop
vertex 46.0843519800329 1.00002945474017 0.000168589487217027
vertex 41.4333893548558 9.25000732892813 1.54877889296579e-005
vertex 41.5832400535164 9.6117787343904 1.5482104802178e-005
endloop
endfacet
facet normal 2.01602064052016e-006 -2.41695161807216e-006 -0.999999999995047
outer loop
vertex 46.0843519800329 1.00002945474017 0.000168589487217027
vertex 41.5832400535164 9.6117787343904 1.5482104802178e-005
vertex 41.634351383733 10.0000072928745 1.5608849222204e-005
endloop
endfacet
facet normal 2.01602064052016e-006 -2.41695161807216e-006 -0.999999999995047
outer loop
vertex 46.0843519800329 1.00002945474017 0.000168589487217027
vertex 41.634351383733 10.0000072928745 1.5608849222204e-005
vertex 46.0843515097644 19.0000083410068 0.000108840927036443
endloop
endfacet
facet normal 0.999987541417224 4.25080121972383e-008 -0.00499169413466029
outer loop
vertex 14.5843477702939 19.0000083410402 9.88090361314305e-005
vertex 14.6083163936995 1.00003657751457 4.80158684105756
vertex 14.5843485722076 1.00002945476487 8.62450107606844e-005
endloop
endfacet
facet normal 0.999987541417224 4.25080121972383e-008 -0.00499169413466029
outer loop
vertex 14.6083163936995 1.00003657751457 4.80158684105756
vertex 14.5843477702939 19.0000083410402 9.88090361314305e-005
vertex 14.6083155919408 19.0000154637947 4.80155957945898
endloop
endfacet
facet normal -0.999999999991662 4.65230219549722e-007 4.05709544423512e-006
outer loop
vertex 2.0843585668661 1.00007219178695 3.00008016497537
vertex 2.08435404270557 19.0000083408955 0.000176463074478933
vertex 2.08435532567522 1.00002945476509 8.44428192047806e-005
endloop
endfacet
facet normal -0.999999999991662 4.65230219549722e-007 4.05709544423512e-006
outer loop
vertex 2.08435404270557 19.0000083408955 0.000176463074478933
vertex 2.0843585668661 1.00007219178695 3.00008016497537
vertex 2.08436440925475 4.00003670546534 3.00005246630651
endloop
endfacet
facet normal -0.999999999991662 4.65230219549722e-007 4.05709544423512e-006
outer loop
vertex 2.08435404270557 19.0000083408955 0.000176463074478933
vertex 2.08436440925475 4.00003670546534 3.00005246630651
vertex 2.084363553816 16.0000155926821 3.00010653699488
endloop
endfacet
facet normal -0.999999999991662 4.65230219549722e-007 4.05709544423512e-006
outer loop
vertex 2.08435404270557 19.0000083408955 0.000176463074478933
vertex 2.084363553816 16.0000155926821 3.00010653699488
vertex 2.08438089120191 18.9998861178862 3.00017185903182
endloop
endfacet
facet normal -1.84472654350583e-007 -0.999999999999911 3.80486319646804e-007
outer loop
vertex 46.0843519800329 1.00002945474017 0.000168589487217027
vertex 34.9083163936918 1.00003748169459 4.80156924028107
vertex 34.8843514227058 1.00002945472081 0.000129766573541307
endloop
endfacet
facet normal -1.84472654350583e-007 -0.999999999999911 3.80486319646804e-007
outer loop
vertex 34.9083163936918 1.00003748169459 4.80156924028107
vertex 46.0843519800329 1.00002945474017 0.000168589487217027
vertex 46.084319744331 1.00003545800062 3.00016005819434
endloop
endfacet
facet normal -1.84472654350583e-007 -0.999999999999911 3.80486319646804e-007
outer loop
vertex 34.9083163936918 1.00003748169459 4.80156924028107
vertex 46.084319744331 1.00003545800062 3.00016005819434
vertex 36.3843670945238 1.00004452003305 7.50011894760408
endloop
endfacet
facet normal -1.84472654350583e-007 -0.999999999999911 3.80486319646804e-007
outer loop
vertex 34.9083163936918 1.00003748169459 4.80156924028107
vertex 36.3843670945238 1.00004452003305 7.50011894760408
vertex 14.6083163936995 1.00003657751457 4.80158684105756
endloop
endfacet
facet normal -1.84472654350583e-007 -0.999999999999911 3.80486319646804e-007
outer loop
vertex 14.6083163936995 1.00003657751457 4.80158684105756
vertex 36.3843670945238 1.00004452003305 7.50011894760408
vertex 13.0843677302357 1.00001604710619 7.50008613684439
endloop
endfacet
facet normal -1.84472654350583e-007 -0.999999999999911 3.80486319646804e-007
outer loop
vertex 14.5843485722076 1.00002945476487 8.62450107606844e-005
vertex 2.0843585668661 1.00007219178695 3.00008016497537
vertex 2.08435532567522 1.00002945476509 8.44428192047806e-005
endloop
endfacet
facet normal -1.84472654350583e-007 -0.999999999999911 3.80486319646804e-007
outer loop
vertex 2.0843585668661 1.00007219178695 3.00008016497537
vertex 14.5843485722076 1.00002945476487 8.62450107606844e-005
vertex 14.6083163936995 1.00003657751457 4.80158684105756
endloop
endfacet
facet normal -1.84472654350583e-007 -0.999999999999911 3.80486319646804e-007
outer loop
vertex 2.0843585668661 1.00007219178695 3.00008016497537
vertex 14.6083163936995 1.00003657751457 4.80158684105756
vertex 13.0843677302357 1.00001604710619 7.50008613684439
endloop
endfacet
facet normal 0.965925927240354 0.258818668336659 -2.30246116493258e-006
outer loop
vertex 6.58546268791097 9.61177977341543 0.000108940980200334
vertex 6.53435769055246 10.0000003312019 2.00010914780711
vertex 6.58546895111844 9.61177176354811 2.0001089409597
endloop
endfacet
facet normal 0.999999999995168 2.44506911150051e-007 -3.09909367579821e-006
outer loop
vertex 6.53435769055246 10.0000003312019 2.00010914780711
vertex 6.58546268791097 9.61177977341543 0.000108940980200334
vertex 6.53435142734499 10.0000083410692 0.000109147827606915
endloop
endfacet
facet normal 0.999999999995168 -2.44500234365181e-007 -3.09909498142567e-006
outer loop
vertex 6.53435142734499 10.0000083410692 0.000109147827606915
vertex 6.58546895111845 10.3882288988552 2.00010976594153
vertex 6.53435769055246 10.0000003312019 2.00010914780711
endloop
endfacet
facet normal 0.965925847583264 -0.258818965605262 -3.68453050788204e-006
outer loop
vertex 6.58546895111845 10.3882288988552 2.00010976594153
vertex 6.53435142734499 10.0000083410692 0.000109147827606915
vertex 6.58546268791097 10.3882369087226 0.000109765962026476
endloop
endfacet
facet normal 0.965925804986476 -0.25881912457864 -3.68453080032246e-006
outer loop
vertex 6.58546268791097 10.3882369087226 0.000109765962026476
vertex 6.73531958487418 10.7500003312006 2.00011075323811
vertex 6.58546895111845 10.3882288988552 2.00010976594153
endloop
endfacet
facet normal 0.866025361019229 -0.500000074055357 -4.01887236973843e-006
outer loop
vertex 6.73531958487418 10.7500003312006 2.00011075323811
vertex 6.58546268791097 10.3882369087226 0.000109765962026476
vertex 6.73531332166671 10.7500083410679 0.000110753258607943
endloop
endfacet
facet normal 0.866025446549425 -0.499999925912712 -4.01887223927026e-006
outer loop
vertex 6.73531332166671 10.7500083410679 0.000110753258607943
vertex 6.97369751876909 11.0606605029792 2.00011204241425
vertex 6.73531958487418 10.7500003312006 2.00011075323811
endloop
endfacet
facet normal 0.707106606167263 -0.707106956194022 -4.07933437375838e-006
outer loop
vertex 6.97369751876909 11.0606605029792 2.00011204241425
vertex 6.73531332166671 10.7500083410679 0.000110753258607943
vertex 6.97369125556161 11.0606685128466 0.000112042434744541
endloop
endfacet
facet normal 0.500000340051089 -0.866025207447152 -3.86179722161242e-006
outer loop
vertex 7.28435142733892 11.2990464467419 0.000113545635181378
vertex 6.97369751876909 11.0606605029792 2.00011204241425
vertex 6.97369125556161 11.0606685128466 0.000112042434744541
endloop
endfacet
facet normal 0.707106606167263 -0.707106956194022 -4.07933437375838e-006
outer loop
vertex 6.97369751876909 11.0606605029792 2.00011204241425
vertex 7.28435142733892 11.2990464467419 0.000113545635181378
vertex 7.28435769054639 11.2990384368746 2.00011354561468
endloop
endfacet
facet normal 0.258819538712001 -0.965925694020754 -3.38108504900523e-006
outer loop
vertex 7.64612285968221 11.4488970804972 0.000115160419311877
vertex 7.28435769054639 11.2990384368746 2.00011354561468
vertex 7.28435142733892 11.2990464467419 0.000113545635181378
endloop
endfacet
facet normal 0.499999659967892 -0.866025600093368 -3.86179616231847e-006
outer loop
vertex 7.28435769054639 11.2990384368746 2.00011354561468
vertex 7.64612285968221 11.4488970804972 0.000115160419311877
vertex 7.64612912288969 11.4488890706299 2.00011516039881
endloop
endfacet
facet normal 5.94559410801006e-007 -0.999999999996259 -2.66995761703775e-006
outer loop
vertex 8.03435142733285 11.5000083410619 0.000116776742275526
vertex 7.64612912288969 11.4488890706299 2.00011516039881
vertex 7.64612285968221 11.4488970804972 0.000115160419311877
endloop
endfacet
facet normal 0.25881855151278 -0.965925958539988 -3.38108269583638e-006
outer loop
vertex 7.64612912288969 11.4488890706299 2.00011516039881
vertex 8.03435142733285 11.5000083410619 0.000116776742275526
vertex 8.03435769054032 11.5000003311946 2.00011677672178
endloop
endfacet
facet normal -0.258818429250055 -0.965925991304394 -1.77687695194092e-006
outer loop
vertex 8.42257999498349 11.4488970804939 0.000118284454309059
vertex 8.03435769054032 11.5000003311946 2.00011677672178
vertex 8.03435142733285 11.5000083410619 0.000116776742275526
endloop
endfacet
facet normal -5.94546595192415e-007 -0.999999999996259 -2.66995393188607e-006
outer loop
vertex 8.03435769054032 11.5000003311946 2.00011677672178
vertex 8.42257999498349 11.4488970804939 0.000118284454309059
vertex 8.42258625819096 11.4488890706266 2.00011828443381
endloop
endfacet
facet normal -0.499999448215327 -0.866025722356898 -7.62704923946005e-007
outer loop
vertex 8.78435142732678 11.2990464467355 0.000119580807339315
vertex 8.42258625819096 11.4488890706266 2.00011828443381
vertex 8.42257999498349 11.4488970804939 0.000118284454309059
endloop
endfacet
facet normal -0.258819660952846 -0.965925661270626 -1.77687225360222e-006
outer loop
vertex 8.42258625819096 11.4488890706266 2.00011828443381
vertex 8.78435142732678 11.2990464467355 0.000119580807339315
vertex 8.78435769053425 11.2990384368682 2.00011958078684
endloop
endfacet
facet normal -0.707106361662541 -0.70710720071024 3.03444361478767e-007
outer loop
vertex 9.09501159910409 11.0606685128375 0.000120577457061533
vertex 8.78435769053425 11.2990384368682 2.00011958078684
vertex 8.78435142732678 11.2990464467355 0.000119580807339315
endloop
endfacet
facet normal -0.500000551791136 -0.866025085207108 -7.62699802698712e-007
outer loop
vertex 8.78435769053425 11.2990384368682 2.00011958078684
vertex 9.09501159910409 11.0606685128375 0.000120577457061533
vertex 9.09501786231156 11.0606605029701 2.00012057743656
endloop
endfacet
facet normal -0.707107200719116 -0.707106361653665 3.03449202038187e-007
outer loop
vertex 9.09501786231156 11.0606605029701 2.00012057743656
vertex 9.33338953299899 10.7500083410568 0.000121206483421155
vertex 9.33339579620647 10.7500003311895 2.00012120646292
endloop
endfacet
facet normal -0.866025149274911 -0.500000440821354 1.3489145643766e-006
outer loop
vertex 9.33338953299899 10.7500083410568 0.000121206483421155
vertex 9.09501786231156 11.0606605029701 2.00012057743656
vertex 9.09501159910409 11.0606685128375 0.000120577457061533
endloop
endfacet
facet normal -0.866025658297717 -0.499999559167992 1.34891849586177e-006
outer loop
vertex 9.33339579620647 10.7500003311895 2.00012120646292
vertex 9.48324016675472 10.3882369087102 0.000121425019329369
vertex 9.4832464299622 10.3882288988428 2.00012142499883
endloop
endfacet
facet normal -0.965925725333569 -0.25881942186304 2.3024585273223e-006
outer loop
vertex 9.48324016675472 10.3882369087102 0.000121425019329369
vertex 9.33339579620647 10.7500003311895 2.00012120646292
vertex 9.33338953299899 10.7500083410568 0.000121206483421155
endloop
endfacet
facet normal -0.965925927240353 -0.258818668336661 2.30246116493258e-006
outer loop
vertex 9.4832464299622 10.3882288988428 2.00012142499883
vertex 9.53435142732071 10.0000083410564 0.000121218171922788
vertex 9.53435769052818 10.0000003311891 2.00012121815143
endloop
endfacet
facet normal -0.999999999995168 -2.44506911176785e-007 3.09909367579821e-006
outer loop
vertex 9.53435142732071 10.0000083410564 0.000121218171922788
vertex 9.4832464299622 10.3882288988428 2.00012142499883
vertex 9.48324016675472 10.3882369087102 0.000121425019329369
endloop
endfacet
facet normal -0.999999999995168 2.44500234329536e-007 3.09909498142566e-006
outer loop
vertex 9.53435769052818 10.0000003311891 2.00012121815143
vertex 9.48324016675472 9.61177977340304 0.000120600037503227
vertex 9.48324642996219 9.61177176353571 2.00012060001701
endloop
endfacet
facet normal -0.965925847583263 0.258818965605264 3.68453050788204e-006
outer loop
vertex 9.48324016675472 9.61177977340304 0.000120600037503227
vertex 9.53435769052818 10.0000003311891 2.00012121815143
vertex 9.53435142732071 10.0000083410564 0.000121218171922788
endloop
endfacet
facet normal -0.965925804986475 0.258819124578642 3.68453080032246e-006
outer loop
vertex 9.48324642996219 9.61177176353571 2.00012060001701
vertex 9.33338953299899 9.25000834105766 0.00011961274092176
vertex 9.33339579620646 9.25000033119034 2.00011961272042
endloop
endfacet
facet normal -0.86602536101923 0.500000074055356 4.01887236973842e-006
outer loop
vertex 9.33338953299899 9.25000834105766 0.00011961274092176
vertex 9.48324642996219 9.61177176353571 2.00012060001701
vertex 9.48324016675472 9.61177977340304 0.000120600037503227
endloop
endfacet
facet normal -0.866025446549426 0.499999925912711 4.01887223927026e-006
outer loop
vertex 9.33339579620646 9.25000033119034 2.00011961272042
vertex 9.09501159910408 8.93934816927903 0.000118323564785161
vertex 9.09501786231155 8.93934015941171 2.00011832354429
endloop
endfacet
facet normal -0.707106606167263 0.707106956194022 4.07933437375957e-006
outer loop
vertex 9.09501159910408 8.93934816927903 0.000118323564785161
vertex 9.33339579620646 9.25000033119034 2.00011961272042
vertex 9.33338953299899 9.25000834105766 0.00011961274092176
endloop
endfacet
facet normal -0.500000340051088 0.866025207447152 3.86179722161286e-006
outer loop
vertex 8.78435769053424 8.70096222551634 2.00011682034385
vertex 9.09501159910408 8.93934816927903 0.000118323564785161
vertex 8.78435142732677 8.70097023538366 0.000116820364348325
endloop
endfacet
facet normal -0.707106606167263 0.707106956194022 4.07933437375957e-006
outer loop
vertex 9.09501159910408 8.93934816927903 0.000118323564785161
vertex 8.78435769053424 8.70096222551634 2.00011682034385
vertex 9.09501786231155 8.93934015941171 2.00011832354429
endloop
endfacet
facet normal -0.258819538712002 0.965925694020754 3.38108504900474e-006
outer loop
vertex 8.42258625819095 8.55111159176102 2.00011520555972
vertex 8.78435142732677 8.70097023538366 0.000116820364348325
vertex 8.42257999498348 8.55111960162835 0.000115205580217825
endloop
endfacet
facet normal -0.499999659967892 0.866025600093368 3.86179616231892e-006
outer loop
vertex 8.78435142732677 8.70097023538366 0.000116820364348325
vertex 8.42258625819095 8.55111159176102 2.00011520555972
vertex 8.78435769053424 8.70096222551634 2.00011682034385
endloop
endfacet
facet normal -5.94559410337628e-007 0.999999999996259 2.66995761703775e-006
outer loop
vertex 8.03435769054031 8.50000033119632 2.00011358923676
vertex 8.42257999498348 8.55111960162835 0.000115205580217825
vertex 8.03435142733284 8.50000834106364 0.000113589257254176
endloop
endfacet
facet normal -0.258818551512781 0.965925958539988 3.38108269583588e-006
outer loop
vertex 8.42257999498348 8.55111960162835 0.000115205580217825
vertex 8.03435769054031 8.50000033119632 2.00011358923676
vertex 8.42258625819095 8.55111159176102 2.00011520555972
endloop
endfacet
facet normal 0.258818429250055 0.965925991304394 1.77687695194066e-006
outer loop
vertex 7.64612912288967 8.55111159176435 2.00011208152472
vertex 8.03435142733284 8.50000834106364 0.000113589257254176
vertex 7.6461228596822 8.55111960163167 0.000112081545220644
endloop
endfacet
facet normal 5.94546595655793e-007 0.999999999996259 2.66995393188607e-006
outer loop
vertex 8.03435142733284 8.50000834106364 0.000113589257254176
vertex 7.64612912288967 8.55111159176435 2.00011208152472
vertex 8.03435769054031 8.50000033119632 2.00011358923676
endloop
endfacet
facet normal 0.499999448215326 0.866025722356899 7.6270492394601e-007
outer loop
vertex 7.28435769054638 8.70096222552276 2.00011078517169
vertex 7.6461228596822 8.55111960163167 0.000112081545220644
vertex 7.28435142733891 8.70097023539008 0.000110785192190388
endloop
endfacet
facet normal 0.258819660952846 0.965925661270626 1.77687225360196e-006
outer loop
vertex 7.6461228596822 8.55111960163167 0.000112081545220644
vertex 7.28435769054638 8.70096222552276 2.00011078517169
vertex 7.64612912288967 8.55111159176435 2.00011208152472
endloop
endfacet
facet normal 0.70710636166254 0.707107200710241 -3.03444361478763e-007
outer loop
vertex 6.97369751876908 8.93934015942079 2.00010978852197
vertex 7.28435142733891 8.70097023539008 0.000110785192190388
vertex 6.97369125556161 8.93934816928811 0.00010978854246817
endloop
endfacet
facet normal 0.500000551791135 0.866025085207108 7.62699802698716e-007
outer loop
vertex 7.28435142733891 8.70097023539008 0.000110785192190388
vertex 6.97369751876908 8.93934015942079 2.00010978852197
vertex 7.28435769054638 8.70096222552276 2.00011078517169
endloop
endfacet
facet normal 0.707107200719115 0.707106361653666 -3.03449202038183e-007
outer loop
vertex 6.97369125556161 8.93934816928811 0.00010978854246817
vertex 6.73531958487417 9.25000033120145 2.00010915949561
vertex 6.97369751876908 8.93934015942079 2.00010978852197
endloop
endfacet
facet normal 0.866025149274911 0.500000440821354 -1.3489145643766e-006
outer loop
vertex 6.73531958487417 9.25000033120145 2.00010915949561
vertex 6.97369125556161 8.93934816928811 0.00010978854246817
vertex 6.7353133216667 9.25000834106877 0.000109159516108548
endloop
endfacet
facet normal 0.866025658297717 0.499999559167992 -1.34891849586177e-006
outer loop
vertex 6.7353133216667 9.25000834106877 0.000109159516108548
vertex 6.58546895111844 9.61177176354811 2.0001089409597
vertex 6.73531958487417 9.25000033120145 2.00010915949561
endloop
endfacet
facet normal 0.965925725333569 0.258819421863038 -2.3024585273223e-006
outer loop
vertex 6.58546895111844 9.61177176354811 2.0001089409597
vertex 6.7353133216667 9.25000834106877 0.000109159516108548
vertex 6.58546268791097 9.61177977341543 0.000108940980200334
endloop
endfacet
facet normal 0.99999999999263 -6.83960714560064e-007 3.77792227799871e-006
outer loop
vertex 46.0843515097644 19.0000083410068 0.000108840927036443
vertex 46.084319744331 1.00003545800062 3.00016005819434
vertex 46.0843519800329 1.00002945474017 0.000168589487217027
endloop
endfacet
facet normal 0.99999999999263 -6.83960714560064e-007 3.77792227799871e-006
outer loop
vertex 46.084319744331 1.00003545800062 3.00016005819434
vertex 46.0843515097644 19.0000083410068 0.000108840927036443
vertex 46.0843458534548 4.00531814157134 3.00015861383628
endloop
endfacet
facet normal 0.99999999999263 -6.83960714560064e-007 3.77792227799871e-006
outer loop
vertex 46.0843458534548 4.00531814157134 3.00015861383628
vertex 46.0843515097644 19.0000083410068 0.000108840927036443
vertex 46.084345540107 16.0000155931639 3.00007232380172
endloop
endfacet
facet normal 0.99999999999263 -6.83960714560064e-007 3.77792227799871e-006
outer loop
vertex 46.084345540107 16.0000155931639 3.00007232380172
vertex 46.0843515097644 19.0000083410068 0.000108840927036443
vertex 46.0843505103311 18.9999185400235 3.00010884042779
endloop
endfacet
facet normal 0.999999999997955 1.62226805662172e-007 2.0160202479686e-006
outer loop
vertex 38.6343513837352 10.0000078310885 1.92418390682292e-005
vertex 38.6854585426101 9.61178650511999 2.0000189912907
vertex 38.6854625746513 9.61177925426513 1.89913035226752e-005
endloop
endfacet
facet normal 0.965925976092767 0.258818486023484 1.32177494601493e-006
outer loop
vertex 38.6854585426101 9.61178650511999 2.0000189912907
vertex 38.6343513837352 10.0000078310885 1.92418390682292e-005
vertex 38.6343473516939 10.0000150819433 2.00001924182624
endloop
endfacet
facet normal 0.965925847297871 -0.258818966683802 2.57287936522474e-006
outer loop
vertex 38.6854627139518 10.3882363895726 1.93685834882551e-005
vertex 38.6343473516939 10.0000150819433 2.00001924182624
vertex 38.6343513837352 10.0000078310885 1.92418390682292e-005
endloop
endfacet
facet normal 0.999999999997832 -5.21039081968371e-007 2.01602189938895e-006
outer loop
vertex 38.6343473516939 10.0000150819433 2.00001924182624
vertex 38.6854627139518 10.3882363895726 1.93685834882551e-005
vertex 38.6854586819105 10.3882436404274 2.00001936857066
endloop
endfacet
facet normal 0.866025394972211 -0.500000015254497 2.95440091695858e-006
outer loop
vertex 38.8353134126123 10.7500077950349 1.93628993607753e-005
vertex 38.6854586819105 10.3882436404274 2.00001936857066
vertex 38.6854627139518 10.3882363895726 1.93685834882551e-005
endloop
endfacet
facet normal 0.965925712406709 -0.258819470104109 2.5728803100239e-006
outer loop
vertex 38.6854586819105 10.3882436404274 2.00001936857066
vertex 38.8353134126123 10.7500077950349 1.93628993607753e-005
vertex 38.8353093805711 10.7500150458897 2.00001936288653
endloop
endfacet
facet normal 0.707106691066994 -0.707106871299142 3.1345847806118e-006
outer loop
vertex 39.0736914022431 11.0606679240485 1.92251740363858e-005
vertex 38.8353093805711 10.7500150458897 2.00001936288653
vertex 38.8353134126123 10.7500077950349 1.93628993607753e-005
endloop
endfacet
facet normal 0.866025233184775 -0.50000029547844 2.95440126807948e-006
outer loop
vertex 38.8353093805711 10.7500150458897 2.00001936288653
vertex 39.0736914022431 11.0606679240485 1.92251740363858e-005
vertex 39.0736873702018 11.0606751749034 2.00001922516121
endloop
endfacet
facet normal 0.499999897812555 -0.866025462776827 3.10115175751711e-006
outer loop
vertex 39.3843475847476 11.2990530530663 2.00001896478046
vertex 39.0736914022431 11.0606679240485 1.92251740363858e-005
vertex 39.3843516167889 11.2990458022115 1.89647932884895e-005
endloop
endfacet
facet normal 0.707106691066994 -0.707106871299142 3.1345847806118e-006
outer loop
vertex 39.0736914022431 11.0606679240485 1.92251740363858e-005
vertex 39.3843475847476 11.2990530530663 2.00001896478046
vertex 39.0736873702018 11.0606751749034 2.00001922516121
endloop
endfacet
facet normal 0.258819036592706 -0.965925828565043 2.85638051403901e-006
outer loop
vertex 39.7461190439775 11.4489036219198 2.00001859948881
vertex 39.3843516167889 11.2990458022115 1.89647932884895e-005
vertex 39.7461230760188 11.4488963710649 1.85995016320994e-005
endloop
endfacet
facet normal 0.499999791449089 -0.866025524185777 3.10115169150863e-006
outer loop
vertex 39.3843516167889 11.2990458022115 1.89647932884895e-005
vertex 39.7461190439775 11.4489036219198 2.00001859948881
vertex 39.3843475847476 11.2990530530663 2.00001896478046
endloop
endfacet
facet normal 8.87490553222105e-008 -0.999999999997075 2.41695179692102e-006
outer loop
vertex 40.1343476208007 11.5000148128361 2.00001815418025
vertex 39.7461230760188 11.4488963710649 1.85995016320994e-005
vertex 40.134351652842 11.5000075619813 1.81541930770912e-005
endloop
endfacet
facet normal 0.258818707032879 -0.965925916870269 2.85638006306906e-006
outer loop
vertex 39.7461230760188 11.4488963710649 1.85995016320994e-005
vertex 40.1343476208007 11.5000148128361 2.00001815418025
vertex 39.7461190439775 11.4489036219198 2.00001859948881
endloop
endfacet
facet normal -0.258818882795247 -0.965925869777455 1.81281188408123e-006
outer loop
vertex 40.5225761792845 11.4489034826197 2.00001765920184
vertex 40.134351652842 11.5000075619813 1.81541930770912e-005
vertex 40.5225802113258 11.4488962317649 1.7659214670207e-005
endloop
endfacet
facet normal -4.47552630648519e-007 -0.999999999996979 2.41695071572552e-006
outer loop
vertex 40.134351652842 11.5000075619813 1.81541930770912e-005
vertex 40.5225761792845 11.4489034826197 2.00001765920184
vertex 40.1343476208007 11.5000148128361 2.00001815418025
endloop
endfacet
facet normal -0.499999806323275 -0.866025515603039 1.08513184159793e-006
outer loop
vertex 40.8843475847465 11.2990527839593 2.00001714828554
vertex 40.5225802113258 11.4488962317649 1.7659214670207e-005
vertex 40.8843516167878 11.2990455331045 1.71482983654769e-005
endloop
endfacet
facet normal -0.258819553987974 -0.965925689931777 1.81281009626453e-006
outer loop
vertex 40.5225802113258 11.4488962317649 1.7659214670207e-005
vertex 40.8843475847465 11.2990527839593 2.00001714828554
vertex 40.5225761792845 11.4489034826197 2.00001765920184
endloop
endfacet
facet normal -0.707106603152995 -0.707106959219998 2.83501802507763e-007
outer loop
vertex 41.1950077137598 11.0606747943287 2.00001665624946
vertex 40.8843516167878 11.2990455331045 1.71482983654769e-005
vertex 41.1950117458011 11.0606675434738 1.66562622890609e-005
endloop
endfacet
facet normal -0.500000504412276 -0.866025112561 1.08512946010298e-006
outer loop
vertex 40.8843516167878 11.2990455331045 1.71482983654769e-005
vertex 41.1950077137598 11.0606747943287 2.00001665624946
vertex 40.8843475847465 11.2990527839593 2.00001714828554
endloop
endfacet
facet normal -0.866025278518087 -0.500000216967335 -5.37448502910296e-007
outer loop
vertex 41.4333855919224 10.7500145797828 2.00001621662503
vertex 41.1950117458011 11.0606675434738 1.66562622890609e-005
vertex 41.4333896239637 10.7500073289279 1.62166378615325e-005
endloop
endfacet
facet normal -0.707107212936672 -0.707106349436103 2.83499099353112e-007
outer loop
vertex 41.1950117458011 11.0606675434738 1.66562622890609e-005
vertex 41.4333855919224 10.7500145797828 2.00001621662503
vertex 41.1950077137598 11.0606747943287 2.00001665624946
endloop
endfacet
facet normal -0.965925769351032 -0.258819257594695 -1.32177266436994e-006
outer loop
vertex 41.5832361607756 10.3882431205527 2.00001585937194
vertex 41.4333896239637 10.7500073289279 1.62166378615325e-005
vertex 41.5832401928169 10.3882358696979 1.58593847677579e-005
endloop
endfacet
facet normal -0.866025708456183 -0.499999472292399 -5.37451169517664e-007
outer loop
vertex 41.4333896239637 10.7500073289279 1.62166378615325e-005
vertex 41.5832361607756 10.3882431205527 2.00001585937194
vertex 41.4333855919224 10.7500145797828 2.00001621662503
endloop
endfacet
facet normal -0.999999999997955 -1.62226791386578e-007 -2.01602024796839e-006
outer loop
vertex 41.6343473516917 10.0000145437294 2.0000156088364
vertex 41.5832401928169 10.3882358696979 1.58593847677579e-005
vertex 41.634351383733 10.0000072928745 1.5608849222204e-005
endloop
endfacet
facet normal -0.965925976092767 -0.258818486023484 -1.32177494601584e-006
outer loop
vertex 41.5832401928169 10.3882358696979 1.58593847677579e-005
vertex 41.6343473516917 10.0000145437294 2.0000156088364
vertex 41.5832361607756 10.3882431205527 2.00001585937194
endloop
endfacet
facet normal 0.965925769351032 0.258819257594695 1.32177266436904e-006
outer loop
vertex 38.6854625746513 9.61177925426513 1.89913035226752e-005
vertex 38.8353091114632 9.25001504588992 2.0000186340376
vertex 38.8353131435045 9.25000779503507 1.86340504289007e-005
endloop
endfacet
facet normal 0.866025708456189 0.499999472292389 5.37451169516794e-007
outer loop
vertex 38.8353091114632 9.25001504588992 2.0000186340376
vertex 38.6854625746513 9.61177925426513 1.89913035226752e-005
vertex 38.6854585426101 9.61178650511999 2.0000189912907
endloop
endfacet
facet normal 3.03407551365588e-006 1.10716674819318e-032 0.999999999995397
outer loop
vertex 4.68435769057116 6.65000033119547 2.00013551128521
vertex 6.73531958487417 9.25000033120145 2.00010915949561
vertex 4.68435769057116 13.3500003311955 2.00013551128521
endloop
endfacet
facet normal 3.03407551365588e-006 1.10716674819318e-032 0.999999999995397
outer loop
vertex 6.73531958487417 9.25000033120145 2.00010915949561
vertex 4.68435769057116 6.65000033119547 2.00013551128521
vertex 6.97369751876908 8.93934015942079 2.00010978852197
endloop
endfacet
facet normal 3.03407551365588e-006 1.10716674819318e-032 0.999999999995397
outer loop
vertex 6.97369751876908 8.93934015942079 2.00010978852197
vertex 4.68435769057116 6.65000033119547 2.00013551128521
vertex 7.28435769054638 8.70096222552276 2.00011078517169
endloop
endfacet
facet normal 3.03407551365588e-006 1.10716674819318e-032 0.999999999995397
outer loop
vertex 7.28435769054638 8.70096222552276 2.00011078517169
vertex 4.68435769057116 6.65000033119547 2.00013551128521
vertex 11.3843576905403 6.65000033119547 2.00011518297927
endloop
endfacet
facet normal 3.03407551365588e-006 1.10716674819318e-032 0.999999999995397
outer loop
vertex 4.68435769057116 13.3500003311955 2.00013551128521
vertex 6.73531958487417 9.25000033120145 2.00010915949561
vertex 6.58546895111844 9.61177176354811 2.0001089409597
endloop
endfacet
facet normal 3.03407551365588e-006 1.10716674819318e-032 0.999999999995397
outer loop
vertex 4.68435769057116 13.3500003311955 2.00013551128521
vertex 6.58546895111844 9.61177176354811 2.0001089409597
vertex 6.53435769055246 10.0000003312019 2.00010914780711
endloop
endfacet
facet normal 3.03407551365588e-006 1.10716674819318e-032 0.999999999995397
outer loop
vertex 7.28435769054638 8.70096222552276 2.00011078517169
vertex 11.3843576905403 6.65000033119547 2.00011518297927
vertex 7.64612912288967 8.55111159176435 2.00011208152472
endloop
endfacet
facet normal 3.03407551365588e-006 1.10716674819318e-032 0.999999999995397
outer loop
vertex 7.64612912288967 8.55111159176435 2.00011208152472
vertex 11.3843576905403 6.65000033119547 2.00011518297927
vertex 8.03435769054031 8.50000033119632 2.00011358923676
endloop
endfacet
facet normal 3.03407551365588e-006 1.10716674819318e-032 0.999999999995397
outer loop
vertex 8.03435769054031 8.50000033119632 2.00011358923676
vertex 11.3843576905403 6.65000033119547 2.00011518297927
vertex 8.42258625819095 8.55111159176102 2.00011520555972
endloop
endfacet
facet normal 3.03407551365588e-006 1.10716674819318e-032 0.999999999995397
outer loop
vertex 8.42258625819095 8.55111159176102 2.00011520555972
vertex 11.3843576905403 6.65000033119547 2.00011518297927
vertex 8.78435769053424 8.70096222551634 2.00011682034385
endloop
endfacet
facet normal 3.03407551365588e-006 1.10716674819318e-032 0.999999999995397
outer loop
vertex 8.78435769053424 8.70096222551634 2.00011682034385
vertex 11.3843576905403 6.65000033119547 2.00011518297927
vertex 9.09501786231155 8.93934015941171 2.00011832354429
endloop
endfacet
facet normal 3.03407551365588e-006 1.10716674819318e-032 0.999999999995397
outer loop
vertex 9.09501786231155 8.93934015941171 2.00011832354429
vertex 11.3843576905403 6.65000033119547 2.00011518297927
vertex 9.33339579620646 9.25000033119034 2.00011961272042
endloop
endfacet
facet normal 3.03407551365588e-006 1.10716674819318e-032 0.999999999995397
outer loop
vertex 9.33339579620646 9.25000033119034 2.00011961272042
vertex 11.3843576905403 6.65000033119547 2.00011518297927
vertex 9.48324642996219 9.61177176353571 2.00012060001701
endloop
endfacet
facet normal 3.03407551365588e-006 1.10716674819318e-032 0.999999999995397
outer loop
vertex 9.48324642996219 9.61177176353571 2.00012060001701
vertex 11.3843576905403 6.65000033119547 2.00011518297927
vertex 9.53435769052818 10.0000003311891 2.00012121815143
endloop
endfacet
facet normal 3.03407551365588e-006 1.10716674819318e-032 0.999999999995397
outer loop
vertex 4.68435769057116 13.3500003311955 2.00013551128521
vertex 7.28435769054639 11.2990384368746 2.00011354561468
vertex 11.3843576905403 13.3500003311955 2.00011518297927
endloop
endfacet
facet normal 3.03407551365588e-006 1.10716674819318e-032 0.999999999995397
outer loop
vertex 7.28435769054639 11.2990384368746 2.00011354561468
vertex 4.68435769057116 13.3500003311955 2.00013551128521
vertex 6.97369751876909 11.0606605029792 2.00011204241425
endloop
endfacet
facet normal 3.03407551365588e-006 1.10716674819318e-032 0.999999999995397
outer loop
vertex 6.97369751876909 11.0606605029792 2.00011204241425
vertex 4.68435769057116 13.3500003311955 2.00013551128521
vertex 6.73531958487418 10.7500003312006 2.00011075323811
endloop
endfacet
facet normal 3.03407551365588e-006 1.10716674819318e-032 0.999999999995397
outer loop
vertex 6.73531958487418 10.7500003312006 2.00011075323811
vertex 4.68435769057116 13.3500003311955 2.00013551128521
vertex 6.58546895111845 10.3882288988552 2.00010976594153
endloop
endfacet
facet normal 3.03407551365588e-006 1.10716674819318e-032 0.999999999995397
outer loop
vertex 6.58546895111845 10.3882288988552 2.00010976594153
vertex 4.68435769057116 13.3500003311955 2.00013551128521
vertex 6.53435769055246 10.0000003312019 2.00010914780711
endloop
endfacet
facet normal 3.03407551365588e-006 1.10716674819318e-032 0.999999999995397
outer loop
vertex 11.3843576905403 13.3500003311955 2.00011518297927
vertex 7.28435769054639 11.2990384368746 2.00011354561468
vertex 7.64612912288969 11.4488890706299 2.00011516039881
endloop
endfacet
facet normal 3.03407551365588e-006 1.10716674819318e-032 0.999999999995397
outer loop
vertex 11.3843576905403 13.3500003311955 2.00011518297927
vertex 7.64612912288969 11.4488890706299 2.00011516039881
vertex 8.03435769054032 11.5000003311946 2.00011677672178
endloop
endfacet
facet normal 3.03407551365588e-006 1.10716674819318e-032 0.999999999995397
outer loop
vertex 11.3843576905403 13.3500003311955 2.00011518297927
vertex 8.03435769054032 11.5000003311946 2.00011677672178
vertex 8.42258625819096 11.4488890706266 2.00011828443381
endloop
endfacet
facet normal 3.03407551365588e-006 1.10716674819318e-032 0.999999999995397
outer loop
vertex 11.3843576905403 13.3500003311955 2.00011518297927
vertex 8.42258625819096 11.4488890706266 2.00011828443381
vertex 8.78435769053425 11.2990384368682 2.00011958078684
endloop
endfacet
facet normal 3.03407551365588e-006 1.10716674819318e-032 0.999999999995397
outer loop
vertex 11.3843576905403 13.3500003311955 2.00011518297927
vertex 8.78435769053425 11.2990384368682 2.00011958078684
vertex 9.09501786231156 11.0606605029701 2.00012057743656
endloop
endfacet
facet normal 3.03407551365588e-006 1.10716674819318e-032 0.999999999995397
outer loop
vertex 11.3843576905403 13.3500003311955 2.00011518297927
vertex 9.09501786231156 11.0606605029701 2.00012057743656
vertex 9.33339579620647 10.7500003311895 2.00012120646292
endloop
endfacet
facet normal 3.03407551365588e-006 1.10716674819318e-032 0.999999999995397
outer loop
vertex 11.3843576905403 13.3500003311955 2.00011518297927
vertex 9.33339579620647 10.7500003311895 2.00012120646292
vertex 9.4832464299622 10.3882288988428 2.00012142499883
endloop
endfacet
facet normal 3.03407551365588e-006 1.10716674819318e-032 0.999999999995397
outer loop
vertex 11.3843576905403 13.3500003311955 2.00011518297927
vertex 9.4832464299622 10.3882288988428 2.00012142499883
vertex 9.53435769052818 10.0000003311891 2.00012121815143
endloop
endfacet
facet normal 3.03407551365588e-006 1.10716674819318e-032 0.999999999995397
outer loop
vertex 11.3843576905403 13.3500003311955 2.00011518297927
vertex 9.53435769052818 10.0000003311891 2.00012121815143
vertex 11.3843576905403 6.65000033119547 2.00011518297927
endloop
endfacet
facet normal -0.999999999995397 -0.0 3.03407551365588e-006
outer loop
vertex 11.3843607246158 13.3500003311955 3.00011518297467
vertex 11.3843576905403 6.65000033119547 2.00011518297927
vertex 11.3843607246158 6.65000033119547 3.00011518297467
endloop
endfacet
facet normal -0.999999999995397 -0.0 3.03407551365588e-006
outer loop
vertex 11.3843576905403 6.65000033119547 2.00011518297927
vertex 11.3843607246158 13.3500003311955 3.00011518297467
vertex 11.3843576905403 13.3500003311955 2.00011518297927
endloop
endfacet
facet normal 3.35922752022694e-038 -1.0 1.10716674818809e-032
outer loop
vertex 11.3843607246158 13.3500003311955 3.00011518297467
vertex 4.68435769057116 13.3500003311955 2.00013551128521
vertex 11.3843576905403 13.3500003311955 2.00011518297927
endloop
endfacet
facet normal 3.35922752022694e-038 -1.0 1.10716674818809e-032
outer loop
vertex 4.68435769057116 13.3500003311955 2.00013551128521
vertex 11.3843607246158 13.3500003311955 3.00011518297467
vertex 4.68436072464667 13.3500003311955 3.00013551128061
endloop
endfacet
facet normal 0.999999999995397 -0.0 -3.03407551365588e-006
outer loop
vertex 4.68435769057116 13.3500003311955 2.00013551128521
vertex 4.68436072464667 6.65000033119547 3.00013551128061
vertex 4.68435769057116 6.65000033119547 2.00013551128521
endloop
endfacet
facet normal 0.999999999995397 -0.0 -3.03407551365588e-006
outer loop
vertex 4.68436072464667 6.65000033119547 3.00013551128061
vertex 4.68435769057116 13.3500003311955 2.00013551128521
vertex 4.68436072464667 13.3500003311955 3.00013551128061
endloop
endfacet
facet normal -3.35922752022694e-038 1.0 -1.10716674818809e-032
outer loop
vertex 4.68435769057116 6.65000033119547 2.00013551128521
vertex 11.3843607246158 6.65000033119547 3.00011518297467
vertex 11.3843576905403 6.65000033119547 2.00011518297927
endloop
endfacet
facet normal -3.35922752022694e-038 1.0 -1.10716674818809e-032
outer loop
vertex 11.3843607246158 6.65000033119547 3.00011518297467
vertex 4.68435769057116 6.65000033119547 2.00013551128521
vertex 4.68436072464667 6.65000033119547 3.00013551128061
endloop
endfacet
facet normal 0.866025278518092 0.500000216967325 5.37448502909426e-007
outer loop
vertex 38.8353131435045 9.25000779503507 1.86340504289007e-005
vertex 39.0736869896258 8.93935483134403 2.00001819441317
vertex 39.0736910216671 8.93934758048917 1.81944260013722e-005
endloop
endfacet
facet normal 0.70710721293668 0.707106349436094 -2.83499099353076e-007
outer loop
vertex 39.0736869896258 8.93935483134403 2.00001819441317
vertex 38.8353131435045 9.25000779503507 1.86340504289007e-005
vertex 38.8353091114632 9.25001504588992 2.0000186340376
endloop
endfacet
facet normal 0.707106603153004 0.70710695921999 -2.83501802507727e-007
outer loop
vertex 39.0736910216671 8.93934758048917 1.81944260013722e-005
vertex 39.3843471186391 8.70097684171335 2.0000177023771
vertex 39.3843511506804 8.7009695908585 1.77023899249562e-005
endloop
endfacet
facet normal 0.500000504412276 0.866025112561 -1.08512946010298e-006
outer loop
vertex 39.3843471186391 8.70097684171335 2.0000177023771
vertex 39.0736910216671 8.93934758048917 1.81944260013722e-005
vertex 39.0736869896258 8.93935483134403 2.00001819441317
endloop
endfacet
facet normal 0.499999806323275 0.866025515603039 -1.08513184159793e-006
outer loop
vertex 39.3843511506804 8.7009695908585 1.77023899249562e-005
vertex 39.7461185241011 8.55112614305295 2.00001719146079
vertex 39.7461225561424 8.5511188921981 1.71914736202261e-005
endloop
endfacet
facet normal 0.258819553987972 0.965925689931778 -1.81281009626454e-006
outer loop
vertex 39.7461185241011 8.55112614305295 2.00001719146079
vertex 39.3843511506804 8.7009695908585 1.77023899249562e-005
vertex 39.3843471186391 8.70097684171335 2.0000177023771
endloop
endfacet
facet normal 0.258818882795245 0.965925869777456 -1.81281188408123e-006
outer loop
vertex 39.7461225561424 8.5511188921981 1.71914736202261e-005
vertex 40.134347082585 8.50001481283655 2.00001669648239
vertex 40.1343511146262 8.5000075619817 1.66964952133419e-005
endloop
endfacet
facet normal 4.4755262687912e-007 0.999999999996979 -2.41695071572604e-006
outer loop
vertex 40.134347082585 8.50001481283655 2.00001669648239
vertex 39.7461225561424 8.5511188921981 1.71914736202261e-005
vertex 39.7461185241011 8.55112614305295 2.00001719146079
endloop
endfacet
facet normal -8.87490591005224e-008 0.999999999997075 -2.41695179692154e-006
outer loop
vertex 40.1343511146262 8.5000075619817 1.66964952133419e-005
vertex 40.5225756594081 8.55112600375293 2.00001625117383
vertex 40.5225796914494 8.55111875289808 1.62511866583337e-005
endloop
endfacet
facet normal -0.258818707032875 0.96592591687027 -2.85638006306956e-006
outer loop
vertex 40.5225756594081 8.55112600375293 2.00001625117383
vertex 40.1343511146262 8.5000075619817 1.66964952133419e-005
vertex 40.134347082585 8.50001481283655 2.00001669648239
endloop
endfacet
facet normal -0.258819036592703 0.965925828565044 -2.85638051403952e-006
outer loop
vertex 40.5225796914494 8.55111875289808 1.62511866583337e-005
vertex 40.884347118638 8.70097657260638 2.00001588588218
vertex 40.8843511506793 8.70096932175153 1.58858950019436e-005
endloop
endfacet
facet normal -0.499999791449084 0.86602552418578 -3.10115169150863e-006
outer loop
vertex 40.884347118638 8.70097657260638 2.00001588588218
vertex 40.5225796914494 8.55111875289808 1.62511866583337e-005
vertex 40.5225756594081 8.55112600375293 2.00001625117383
endloop
endfacet
facet normal -0.49999989781255 0.86602546277683 -3.10115175751711e-006
outer loop
vertex 40.8843511506793 8.70096932175153 1.58858950019436e-005
vertex 41.1950073331839 8.93935445076931 2.00001562550143
vertex 41.1950113652251 8.93934719991446 1.56255142540473e-005
endloop
endfacet
facet normal -0.707106691067002 0.707106871299134 -3.1345847806118e-006
outer loop
vertex 41.1950073331839 8.93935445076931 2.00001562550143
vertex 40.8843511506793 8.70096932175153 1.58858950019436e-005
vertex 40.884347118638 8.70097657260638 2.00001588588218
endloop
endfacet
facet normal -0.707106691067002 0.707106871299134 -3.1345847806118e-006
outer loop
vertex 41.1950073331839 8.93935445076931 2.00001562550143
vertex 41.4333893548558 9.25000732892813 1.54877889296579e-005
vertex 41.1950113652251 8.93934719991446 1.56255142540473e-005
endloop
endfacet
facet normal -0.866025233184781 0.500000295478431 -2.95440126807947e-006
outer loop
vertex 41.4333893548558 9.25000732892813 1.54877889296579e-005
vertex 41.1950073331839 8.93935445076931 2.00001562550143
vertex 41.4333853228146 9.25001457978298 2.0000154877761
endloop
endfacet
facet normal -0.866025394972217 0.500000015254487 -2.95440091695857e-006
outer loop
vertex 41.4333853228146 9.25001457978298 2.0000154877761
vertex 41.5832400535164 9.6117787343904 1.5482104802178e-005
vertex 41.4333893548558 9.25000732892813 1.54877889296579e-005
endloop
endfacet
facet normal -0.965925712406705 0.258819470104123 -2.57288031002368e-006
outer loop
vertex 41.5832400535164 9.6117787343904 1.5482104802178e-005
vertex 41.4333853228146 9.25001457978298 2.0000154877761
vertex 41.5832360214751 9.61178598524526 2.00001548209198
endloop
endfacet
facet normal -0.965925847297867 0.258818966683816 -2.57287936522452e-006
outer loop
vertex 41.5832360214751 9.61178598524526 2.00001548209198
vertex 41.634351383733 10.0000072928745 1.5608849222204e-005
vertex 41.5832400535164 9.6117787343904 1.5482104802178e-005
endloop
endfacet
facet normal -0.999999999997832 5.21039096243974e-007 -2.01602189938874e-006
outer loop
vertex 41.634351383733 10.0000072928745 1.5608849222204e-005
vertex 41.5832360214751 9.61178598524526 2.00001548209198
vertex 41.6343473516917 10.0000145437294 2.0000156088364
endloop
endfacet
facet normal -2.01602064052731e-006 -8.12806240303736e-024 0.999999999997968
outer loop
vertex 36.7843473516928 6.65001481283635 2.00001742533132
vertex 38.8353091114632 9.25001504588992 2.0000186340376
vertex 36.7843473516928 13.3500148128363 2.00001742533132
endloop
endfacet
facet normal -2.01602064052731e-006 -8.12806240303736e-024 0.999999999997968
outer loop
vertex 38.8353091114632 9.25001504588992 2.0000186340376
vertex 36.7843473516928 6.65001481283635 2.00001742533132
vertex 39.0736869896258 8.93935483134403 2.00001819441317
endloop
endfacet
facet normal -2.01602064052731e-006 -8.12806240303736e-024 0.999999999997968
outer loop
vertex 39.0736869896258 8.93935483134403 2.00001819441317
vertex 36.7843473516928 6.65001481283635 2.00001742533132
vertex 39.3843471186391 8.70097684171335 2.0000177023771
endloop
endfacet
facet normal -2.01602064052731e-006 -8.12806240303736e-024 0.999999999997968
outer loop
vertex 39.3843471186391 8.70097684171335 2.0000177023771
vertex 36.7843473516928 6.65001481283635 2.00001742533132
vertex 43.2843473516796 6.65001481283635 2.00003052946548
endloop
endfacet
facet normal -2.01602064052731e-006 -8.12806240303736e-024 0.999999999997968
outer loop
vertex 36.7843473516928 13.3500148128363 2.00001742533132
vertex 38.8353091114632 9.25001504588992 2.0000186340376
vertex 38.6854585426101 9.61178650511999 2.0000189912907
endloop
endfacet
facet normal -2.01602064052731e-006 -8.12806240303736e-024 0.999999999997968
outer loop
vertex 36.7843473516928 13.3500148128363 2.00001742533132
vertex 38.6854585426101 9.61178650511999 2.0000189912907
vertex 38.6343473516939 10.0000150819433 2.00001924182624
endloop
endfacet
facet normal -2.01602064052731e-006 -8.12806240303736e-024 0.999999999997968
outer loop
vertex 39.3843471186391 8.70097684171335 2.0000177023771
vertex 43.2843473516796 6.65001481283635 2.00003052946548
vertex 39.7461185241011 8.55112614305295 2.00001719146079
endloop
endfacet
facet normal -2.01602064052731e-006 -8.12806240303736e-024 0.999999999997968
outer loop
vertex 39.7461185241011 8.55112614305295 2.00001719146079
vertex 43.2843473516796 6.65001481283635 2.00003052946548
vertex 40.134347082585 8.50001481283655 2.00001669648239
endloop
endfacet
facet normal -2.01602064052731e-006 -8.12806240303736e-024 0.999999999997968
outer loop
vertex 40.134347082585 8.50001481283655 2.00001669648239
vertex 43.2843473516796 6.65001481283635 2.00003052946548
vertex 40.5225756594081 8.55112600375293 2.00001625117383
endloop
endfacet
facet normal -2.01602064052731e-006 -8.12806240303736e-024 0.999999999997968
outer loop
vertex 40.5225756594081 8.55112600375293 2.00001625117383
vertex 43.2843473516796 6.65001481283635 2.00003052946548
vertex 40.884347118638 8.70097657260638 2.00001588588218
endloop
endfacet
facet normal -2.01602064052731e-006 -8.12806240303736e-024 0.999999999997968
outer loop
vertex 40.884347118638 8.70097657260638 2.00001588588218
vertex 43.2843473516796 6.65001481283635 2.00003052946548
vertex 41.1950073331839 8.93935445076931 2.00001562550143
endloop
endfacet
facet normal -2.01602064052731e-006 -8.12806240303736e-024 0.999999999997968
outer loop
vertex 41.1950073331839 8.93935445076931 2.00001562550143
vertex 43.2843473516796 6.65001481283635 2.00003052946548
vertex 41.4333853228146 9.25001457978298 2.0000154877761
endloop
endfacet
facet normal -2.01602064052731e-006 -8.12806240303736e-024 0.999999999997968
outer loop
vertex 41.4333853228146 9.25001457978298 2.0000154877761
vertex 43.2843473516796 6.65001481283635 2.00003052946548
vertex 41.5832360214751 9.61178598524526 2.00001548209198
endloop
endfacet
facet normal -2.01602064052731e-006 -8.12806240303736e-024 0.999999999997968
outer loop
vertex 41.5832360214751 9.61178598524526 2.00001548209198
vertex 43.2843473516796 6.65001481283635 2.00003052946548
vertex 41.6343473516917 10.0000145437294 2.0000156088364
endloop
endfacet
facet normal -2.01602064052731e-006 -8.12806240303736e-024 0.999999999997968
outer loop
vertex 36.7843473516928 13.3500148128363 2.00001742533132
vertex 39.3843475847476 11.2990530530663 2.00001896478046
vertex 43.2843473516796 13.3500148128363 2.00003052946548
endloop
endfacet
facet normal -2.01602064052731e-006 -8.12806240303736e-024 0.999999999997968
outer loop
vertex 39.3843475847476 11.2990530530663 2.00001896478046
vertex 36.7843473516928 13.3500148128363 2.00001742533132
vertex 39.0736873702018 11.0606751749034 2.00001922516121
endloop
endfacet
facet normal -2.01602064052731e-006 -8.12806240303736e-024 0.999999999997968
outer loop
vertex 39.0736873702018 11.0606751749034 2.00001922516121
vertex 36.7843473516928 13.3500148128363 2.00001742533132
vertex 38.8353093805711 10.7500150458897 2.00001936288653
endloop
endfacet
facet normal -2.01602064052731e-006 -8.12806240303736e-024 0.999999999997968
outer loop
vertex 38.8353093805711 10.7500150458897 2.00001936288653
vertex 36.7843473516928 13.3500148128363 2.00001742533132
vertex 38.6854586819105 10.3882436404274 2.00001936857066
endloop
endfacet
facet normal -2.01602064052731e-006 -8.12806240303736e-024 0.999999999997968
outer loop
vertex 38.6854586819105 10.3882436404274 2.00001936857066
vertex 36.7843473516928 13.3500148128363 2.00001742533132
vertex 38.6343473516939 10.0000150819433 2.00001924182624
endloop
endfacet
facet normal -2.01602064052731e-006 -8.12806240303736e-024 0.999999999997968
outer loop
vertex 43.2843473516796 13.3500148128363 2.00003052946548
vertex 39.3843475847476 11.2990530530663 2.00001896478046
vertex 39.7461190439775 11.4489036219198 2.00001859948881
endloop
endfacet
facet normal -2.01602064052731e-006 -8.12806240303736e-024 0.999999999997968
outer loop
vertex 43.2843473516796 13.3500148128363 2.00003052946548
vertex 39.7461190439775 11.4489036219198 2.00001859948881
vertex 40.1343476208007 11.5000148128361 2.00001815418025
endloop
endfacet
facet normal -2.01602064052731e-006 -8.12806240303736e-024 0.999999999997968
outer loop
vertex 43.2843473516796 13.3500148128363 2.00003052946548
vertex 40.1343476208007 11.5000148128361 2.00001815418025
vertex 40.5225761792845 11.4489034826197 2.00001765920184
endloop
endfacet
facet normal -2.01602064052731e-006 -8.12806240303736e-024 0.999999999997968
outer loop
vertex 43.2843473516796 13.3500148128363 2.00003052946548
vertex 40.5225761792845 11.4489034826197 2.00001765920184
vertex 40.8843475847465 11.2990527839593 2.00001714828554
endloop
endfacet
facet normal -2.01602064052731e-006 -8.12806240303736e-024 0.999999999997968
outer loop
vertex 43.2843473516796 13.3500148128363 2.00003052946548
vertex 40.8843475847465 11.2990527839593 2.00001714828554
vertex 41.1950077137598 11.0606747943287 2.00001665624946
endloop
endfacet
facet normal -2.01602064052731e-006 -8.12806240303736e-024 0.999999999997968
outer loop
vertex 43.2843473516796 13.3500148128363 2.00003052946548
vertex 41.1950077137598 11.0606747943287 2.00001665624946
vertex 41.4333855919224 10.7500145797828 2.00001621662503
endloop
endfacet
facet normal -2.01602064052731e-006 -8.12806240303736e-024 0.999999999997968
outer loop
vertex 43.2843473516796 13.3500148128363 2.00003052946548
vertex 41.4333855919224 10.7500145797828 2.00001621662503
vertex 41.5832361607756 10.3882431205527 2.00001585937194
endloop
endfacet
facet normal -2.01602064052731e-006 -8.12806240303736e-024 0.999999999997968
outer loop
vertex 43.2843473516796 13.3500148128363 2.00003052946548
vertex 41.5832361607756 10.3882431205527 2.00001585937194
vertex 41.6343473516917 10.0000145437294 2.0000156088364
endloop
endfacet
facet normal -2.01602064052731e-006 -8.12806240303736e-024 0.999999999997968
outer loop
vertex 43.2843473516796 13.3500148128363 2.00003052946548
vertex 41.6343473516917 10.0000145437294 2.0000156088364
vertex 43.2843473516796 6.65001481283635 2.00003052946548
endloop
endfacet
facet normal 1.63863415720173e-029 -1.0 -8.12806240302084e-024
outer loop
vertex 43.2843473516796 13.3500148128363 2.00003052946548
vertex 36.7843453356722 13.3500148128363 3.00001742532929
vertex 36.7843473516928 13.3500148128363 2.00001742533132
endloop
endfacet
facet normal 1.63863415720173e-029 -1.0 -8.12806240302084e-024
outer loop
vertex 36.7843453356722 13.3500148128363 3.00001742532929
vertex 43.2843473516796 13.3500148128363 2.00003052946548
vertex 43.284345335659 13.3500148128363 3.00003052946345
endloop
endfacet
facet normal 0.999999999997968 0.0 2.0160206405273e-006
outer loop
vertex 36.7843473516928 13.3500148128363 2.00001742533132
vertex 36.7843453356722 6.65001481283635 3.00001742532929
vertex 36.7843473516928 6.65001481283635 2.00001742533132
endloop
endfacet
facet normal 0.999999999997968 0.0 2.0160206405273e-006
outer loop
vertex 36.7843453356722 6.65001481283635 3.00001742532929
vertex 36.7843473516928 13.3500148128363 2.00001742533132
vertex 36.7843453356722 13.3500148128363 3.00001742532929
endloop
endfacet
facet normal -1.63863415720173e-029 1.0 8.12806240302084e-024
outer loop
vertex 36.7843453356722 6.65001481283635 3.00001742532929
vertex 43.2843473516796 6.65001481283635 2.00003052946548
vertex 36.7843473516928 6.65001481283635 2.00001742533132
endloop
endfacet
facet normal -1.63863415720173e-029 1.0 8.12806240302084e-024
outer loop
vertex 43.2843473516796 6.65001481283635 2.00003052946548
vertex 36.7843453356722 6.65001481283635 3.00001742532929
vertex 43.284345335659 6.65001481283635 3.00003052946345
endloop
endfacet
facet normal -0.999999999997968 0.0 -2.0160206405273e-006
outer loop
vertex 43.284345335659 13.3500148128363 3.00003052946345
vertex 43.2843473516796 6.65001481283635 2.00003052946548
vertex 43.284345335659 6.65001481283635 3.00003052946345
endloop
endfacet
facet normal -0.999999999997968 0.0 -2.0160206405273e-006
outer loop
vertex 43.2843473516796 6.65001481283635 2.00003052946548
vertex 43.284345335659 13.3500148128363 3.00003052946345
vertex 43.2843473516796 13.3500148128363 2.00003052946548
endloop
endfacet
facet normal -9.21281047247098e-007 5.33667740725215e-007 0.999999999999433
outer loop
vertex 13.0843677302357 1.00001604710619 7.50008613684439
vertex 13.0843948965804 15.9998840251065 7.50004734351761
vertex 13.0843516798045 4.00008745241524 7.5000669919712
endloop
endfacet
facet normal -9.21281047247098e-007 5.33667740725215e-007 0.999999999999433
outer loop
vertex 13.0843948965804 15.9998840251065 7.50004734351761
vertex 13.0843677302357 1.00001604710619 7.50008613684439
vertex 36.3843670945238 1.00004452003305 7.50011894760408
endloop
endfacet
facet normal -9.21281047247098e-007 5.33667740725215e-007 0.999999999999433
outer loop
vertex 13.0843948965804 15.9998840251065 7.50004734351761
vertex 36.3843670945238 1.00004452003305 7.50011894760408
vertex 36.3843190533604 4.00003545797647 7.50012156322645
endloop
endfacet
facet normal -9.21281047247098e-007 5.33667740725215e-007 0.999999999999433
outer loop
vertex 13.0843948965804 15.9998840251065 7.50004734351761
vertex 36.3843399244738 18.9999342502033 7.50010292873197
vertex 13.0843669283508 18.9999949333674 7.50010346824595
endloop
endfacet
facet normal -9.21281047247098e-007 5.33667740725215e-007 0.999999999999433
outer loop
vertex 36.3843399244738 18.9999342502033 7.50010292873197
vertex 13.0843948965804 15.9998840251065 7.50004734351761
vertex 36.3843190533604 4.00003545797647 7.50012156322645
endloop
endfacet
facet normal -9.21281047247098e-007 5.33667740725215e-007 0.999999999999433
outer loop
vertex 36.3843399244738 18.9999342502033 7.50010292873197
vertex 36.3843190533604 4.00003545797647 7.50012156322645
vertex 36.384340058122 15.9999342514316 7.50006436124026
endloop
endfacet
facet normal 0.999999999993767 -8.52912731872292e-007 3.42622104971892e-006
outer loop
vertex 36.3843452410004 4.00003670557088 3.00013009450446
vertex 36.384340058122 15.9999342514316 7.50006436124026
vertex 36.3843190533604 4.00003545797647 7.50012156322645
endloop
endfacet
facet normal 0.999999999993767 -8.52912731872292e-007 3.42622104971892e-006
outer loop
vertex 36.384340058122 15.9999342514316 7.50006436124026
vertex 36.3843452410004 4.00003670557088 3.00013009450446
vertex 36.3843447065331 16.0000155930842 3.00006436175087
endloop
endfacet
facet normal -0.999999999992239 1.77843071416842e-006 3.51548974418142e-006
outer loop
vertex 13.0843516798045 4.00008745241524 7.5000669919712
vertex 13.084357201254 16.0000155929611 3.00005194758955
vertex 13.0843577358967 4.00003670552606 3.00007126978994
endloop
endfacet
facet normal -0.999999999992239 1.77843071416842e-006 3.51548974418142e-006
outer loop
vertex 13.084357201254 16.0000155929611 3.00005194758955
vertex 13.0843516798045 4.00008745241524 7.5000669919712
vertex 13.0843948965804 15.9998840251065 7.50004734351761
endloop
endfacet
facet normal -3.76022268192563e-008 0.999999999991126 4.21279747130649e-006
outer loop
vertex 2.08435404270557 19.0000083408955 0.000176463074478933
vertex 14.6083155919408 19.0000154637947 4.80155957945898
vertex 14.5843477702939 19.0000083410402 9.88090361314305e-005
endloop
endfacet
facet normal -3.76022268192563e-008 0.999999999991126 4.21279747130649e-006
outer loop
vertex 14.6083155919408 19.0000154637947 4.80155957945898
vertex 2.08435404270557 19.0000083408955 0.000176463074478933
vertex 2.08438089120191 18.9998861178862 3.00017185903182
endloop
endfacet
facet normal -3.76022268192563e-008 0.999999999991126 4.21279747130649e-006
outer loop
vertex 14.6083155919408 19.0000154637947 4.80155957945898
vertex 2.08438089120191 18.9998861178862 3.00017185903182
vertex 13.0843669283508 18.9999949333674 7.50010346824595
endloop
endfacet
facet normal -3.76022268192563e-008 0.999999999991126 4.21279747130649e-006
outer loop
vertex 14.6083155919408 19.0000154637947 4.80155957945898
vertex 13.0843669283508 18.9999949333674 7.50010346824595
vertex 36.3843399244738 18.9999342502033 7.50010292873197
endloop
endfacet
facet normal -3.76022268192563e-008 0.999999999991126 4.21279747130649e-006
outer loop
vertex 34.9083155919332 19.0000163679747 4.8015419786825
vertex 46.0843515097644 19.0000083410068 0.000108840927036443
vertex 34.8843506209471 19.0000083410009 0.000102504974968128
endloop
endfacet
facet normal -3.76022268192563e-008 0.999999999991126 4.21279747130649e-006
outer loop
vertex 46.0843515097644 19.0000083410068 0.000108840927036443
vertex 34.9083155919332 19.0000163679747 4.8015419786825
vertex 46.0843505103311 18.9999185400235 3.00010884042779
endloop
endfacet
facet normal -3.76022268192563e-008 0.999999999991126 4.21279747130649e-006
outer loop
vertex 46.0843505103311 18.9999185400235 3.00010884042779
vertex 34.9083155919332 19.0000163679747 4.8015419786825
vertex 36.3843399244738 18.9999342502033 7.50010292873197
endloop
endfacet
facet normal -3.76022268192563e-008 0.999999999991126 4.21279747130649e-006
outer loop
vertex 36.3843399244738 18.9999342502033 7.50010292873197
vertex 34.9083155919332 19.0000163679747 4.8015419786825
vertex 14.6083155919408 19.0000154637947 4.80155957945898
endloop
endfacet
facet normal 1.62663382485897e-006 -1.44785611891133e-006 0.999999999997629
outer loop
vertex 13.0843577358967 4.00003670552606 3.00007126978994
vertex 4.68436072464667 6.65000033119547 3.00013551128061
vertex 2.08436440925475 4.00003670546534 3.00005246630651
endloop
endfacet
facet normal 1.62663382485897e-006 -1.44785611891133e-006 0.999999999997629
outer loop
vertex 4.68436072464667 6.65000033119547 3.00013551128061
vertex 13.0843577358967 4.00003670552606 3.00007126978994
vertex 11.3843607246158 6.65000033119547 3.00011518297467
endloop
endfacet
facet normal 1.62663382485897e-006 -1.44785611891133e-006 0.999999999997629
outer loop
vertex 11.3843607246158 6.65000033119547 3.00011518297467
vertex 13.0843577358967 4.00003670552606 3.00007126978994
vertex 11.3843607246158 13.3500003311955 3.00011518297467
endloop
endfacet
facet normal 1.62663382485897e-006 -1.44785611891133e-006 0.999999999997629
outer loop
vertex 11.3843607246158 13.3500003311955 3.00011518297467
vertex 13.0843577358967 4.00003670552606 3.00007126978994
vertex 13.084357201254 16.0000155929611 3.00005194758955
endloop
endfacet
facet normal 1.62663382485897e-006 -1.44785611891133e-006 0.999999999997629
outer loop
vertex 2.084363553816 16.0000155926821 3.00010653699488
vertex 4.68436072464667 13.3500003311955 3.00013551128061
vertex 13.084357201254 16.0000155929611 3.00005194758955
endloop
endfacet
facet normal 1.62663382485897e-006 -1.44785611891133e-006 0.999999999997629
outer loop
vertex 4.68436072464667 13.3500003311955 3.00013551128061
vertex 2.084363553816 16.0000155926821 3.00010653699488
vertex 2.08436440925475 4.00003670546534 3.00005246630651
endloop
endfacet
facet normal 1.62663382485897e-006 -1.44785611891133e-006 0.999999999997629
outer loop
vertex 4.68436072464667 13.3500003311955 3.00013551128061
vertex 2.08436440925475 4.00003670546534 3.00005246630651
vertex 4.68436072464667 6.65000033119547 3.00013551128061
endloop
endfacet
facet normal 1.62663382485897e-006 -1.44785611891133e-006 0.999999999997629
outer loop
vertex 13.084357201254 16.0000155929611 3.00005194758955
vertex 4.68436072464667 13.3500003311955 3.00013551128061
vertex 11.3843607246158 13.3500003311955 3.00011518297467
endloop
endfacet
facet normal -0.378627991409124 -1.9405127730896e-005 0.925548941842047
outer loop
vertex 13.0843948965804 15.9998840251065 7.50004734351761
vertex 2.08438089120191 18.9998861178862 3.00017185903182
vertex 2.084363553816 16.0000155926821 3.00010653699488
endloop
endfacet
facet normal -0.378627991409124 -1.9405127730896e-005 0.925548941842047
outer loop
vertex 2.08438089120191 18.9998861178862 3.00017185903182
vertex 13.0843948965804 15.9998840251065 7.50004734351761
vertex 13.0843669283508 18.9999949333674 7.50010346824595
endloop
endfacet
facet normal -1.19724918707017e-010 -0.999999999572589 -2.92373309196678e-005
outer loop
vertex 13.0843948965804 15.9998840251065 7.50004734351761
vertex 2.084363553816 16.0000155926821 3.00010653699488
vertex 13.084357201254 16.0000155929611 3.00005194758955
endloop
endfacet
facet normal -0.378633636996084 6.5817082014057e-006 0.925546632478234
outer loop
vertex 13.0843677302357 1.00001604710619 7.50008613684439
vertex 2.08436440925475 4.00003670546534 3.00005246630651
vertex 2.0843585668661 1.00007219178695 3.00008016497537
endloop
endfacet
facet normal -0.378633636996084 6.5817082014057e-006 0.925546632478234
outer loop
vertex 2.08436440925475 4.00003670546534 3.00005246630651
vertex 13.0843677302357 1.00001604710619 7.50008613684439
vertex 13.0843516798045 4.00008745241524 7.5000669919712
endloop
endfacet
facet normal 1.37577844477012e-011 0.999999999936414 -1.12770972054147e-005
outer loop
vertex 13.0843516798045 4.00008745241524 7.5000669919712
vertex 13.0843577358967 4.00003670552606 3.00007126978994
vertex 2.08436440925475 4.00003670546534 3.00005246630651
endloop
endfacet
facet normal 0.420833878211332 1.35597303714299e-006 0.907137722150154
outer loop
vertex 36.3843670945238 1.00004452003305 7.50011894760408
vertex 46.0843458534548 4.00531814157134 3.00015861383628
vertex 36.3843190533604 4.00003545797647 7.50012156322645
endloop
endfacet
facet normal 0.420833878211332 1.35597303714299e-006 0.907137722150154
outer loop
vertex 46.0843458534548 4.00531814157134 3.00015861383628
vertex 36.3843670945238 1.00004452003305 7.50011894760408
vertex 46.084319744331 1.00003545800062 3.00016005819434
endloop
endfacet
facet normal -0.000544477823912167 0.999999851771901 2.74075104959463e-007
outer loop
vertex 36.3843190533604 4.00003545797647 7.50012156322645
vertex 46.0843458534548 4.00531814157134 3.00015861383628
vertex 36.3843452410004 4.00003670557088 3.00013009450446
endloop
endfacet
facet normal -1.88220826065077e-006 6.33549926660224e-006 0.999999999978159
outer loop
vertex 46.0843458534548 4.00531814157134 3.00015861383628
vertex 36.7843453356722 6.65001481283635 3.00001742532929
vertex 36.3843452410004 4.00003670557088 3.00013009450446
endloop
endfacet
facet normal -1.88220826065077e-006 6.33549926660224e-006 0.999999999978159
outer loop
vertex 36.7843453356722 6.65001481283635 3.00001742532929
vertex 46.0843458534548 4.00531814157134 3.00015861383628
vertex 43.284345335659 6.65001481283635 3.00003052946345
endloop
endfacet
facet normal -1.88220826065077e-006 6.33549926660224e-006 0.999999999978159
outer loop
vertex 43.284345335659 6.65001481283635 3.00003052946345
vertex 46.0843458534548 4.00531814157134 3.00015861383628
vertex 43.284345335659 13.3500148128363 3.00003052946345
endloop
endfacet
facet normal -1.88220826065077e-006 6.33549926660224e-006 0.999999999978159
outer loop
vertex 43.284345335659 13.3500148128363 3.00003052946345
vertex 46.0843458534548 4.00531814157134 3.00015861383628
vertex 46.084345540107 16.0000155931639 3.00007232380172
endloop
endfacet
facet normal -1.88220826065077e-006 6.33549926660224e-006 0.999999999978159
outer loop
vertex 36.3843447065331 16.0000155930842 3.00006436175087
vertex 36.7843453356722 13.3500148128363 3.00001742532929
vertex 46.084345540107 16.0000155931639 3.00007232380172
endloop
endfacet
facet normal -1.88220826065077e-006 6.33549926660224e-006 0.999999999978159
outer loop
vertex 36.7843453356722 13.3500148128363 3.00001742532929
vertex 36.3843447065331 16.0000155930842 3.00006436175087
vertex 36.3843452410004 4.00003670557088 3.00013009450446
endloop
endfacet
facet normal -1.88220826065077e-006 6.33549926660224e-006 0.999999999978159
outer loop
vertex 36.7843453356722 13.3500148128363 3.00001742532929
vertex 36.3843452410004 4.00003670557088 3.00013009450446
vertex 36.7843453356722 6.65001481283635 3.00001742532929
endloop
endfacet
facet normal -1.88220826065077e-006 6.33549926660224e-006 0.999999999978159
outer loop
vertex 46.084345540107 16.0000155931639 3.00007232380172
vertex 36.7843453356722 13.3500148128363 3.00001742532929
vertex 43.284345335659 13.3500148128363 3.00003052946345
endloop
endfacet
facet normal 0.420835698527202 -1.16913510022885e-005 0.907136877603614
outer loop
vertex 36.384340058122 15.9999342514316 7.50006436124026
vertex 46.0843505103311 18.9999185400235 3.00010884042779
vertex 36.3843399244738 18.9999342502033 7.50010292873197
endloop
endfacet
facet normal 0.420835698527202 -1.16913510022885e-005 0.907136877603614
outer loop
vertex 46.0843505103311 18.9999185400235 3.00010884042779
vertex 36.384340058122 15.9999342514316 7.50006436124026
vertex 46.084345540107 16.0000155931639 3.00007232380172
endloop
endfacet
facet normal 2.30477206949725e-011 -0.99999999983663 -1.80759227952274e-005
outer loop
vertex 36.384340058122 15.9999342514316 7.50006436124026
vertex 36.3843447065331 16.0000155930842 3.00006436175087
vertex 46.084345540107 16.0000155931639 3.00007232380172
endloop
endfacet
facet normal -0.999987544166681 -3.69823843351598e-008 0.00499114330481736
outer loop
vertex 34.9083163936918 1.00003748169459 4.80156924028107
vertex 34.8843506209471 19.0000083410009 0.000102504974968128
vertex 34.8843514227058 1.00002945472081 0.000129766573541307
endloop
endfacet
facet normal -0.999987544166681 -3.69823843351598e-008 0.00499114330481736
outer loop
vertex 34.8843506209471 19.0000083410009 0.000102504974968128
vertex 34.9083163936918 1.00003748169459 4.80156924028107
vertex 34.9083155919332 19.0000163679747 4.8015419786825
endloop
endfacet
facet normal -8.67033256788027e-007 -1.51453506920394e-006 -0.999999999998477
outer loop
vertex 34.9083155919332 19.0000163679747 4.8015419786825
vertex 14.6083163936995 1.00003657751457 4.80158684105756
vertex 14.6083155919408 19.0000154637947 4.80155957945898
endloop
endfacet
facet normal -8.67033256788027e-007 -1.51453506920394e-006 -0.999999999998477
outer loop
vertex 14.6083163936995 1.00003657751457 4.80158684105756
vertex 34.9083155919332 19.0000163679747 4.8015419786825
vertex 34.9083163936918 1.00003748169459 4.80156924028107
endloop
endfacet
endsolid linear-actuator-bracket
