solid motor-rod-cover
facet normal 7.14489550802124e-019 -2.13497560878721e-019 -1.0
outer loop
vertex 34.0 8.50000000000001 0.0
vertex 35.5511112605664 3.88822856765379 -5.11579983628389e-019
vertex 34.0 0.0 0.0
endloop
endfacet
facet normal 7.14489550802124e-019 -2.13497560878721e-019 -1.0
outer loop
vertex 35.5511112605664 3.88822856765379 -5.11579983628389e-019
vertex 34.0 8.50000000000001 0.0
vertex 35.7009618943234 4.25000000000001 -5.31732948883642e-019
endloop
endfacet
facet normal 7.14489550802124e-019 -2.13497560878721e-019 -1.0
outer loop
vertex 35.7009618943234 4.25000000000001 -5.31732948883642e-019
vertex 34.0 8.50000000000001 0.0
vertex 35.9393398282202 4.56066017177983 -5.15649192403481e-019
endloop
endfacet
facet normal 7.14489550802124e-019 -2.13497560878721e-019 -1.0
outer loop
vertex 35.9393398282202 4.56066017177983 -5.15649192403481e-019
vertex 34.0 8.50000000000001 0.0
vertex 36.25 4.79903810567666 -4.64424795609535e-019
endloop
endfacet
facet normal 7.14489550802124e-019 -2.13497560878721e-019 -1.0
outer loop
vertex 36.25 4.79903810567666 -4.64424795609535e-019
vertex 34.0 8.50000000000001 0.0
vertex 43.5 8.50000000000001 5.48611633035835e-017
endloop
endfacet
facet normal 7.14489550802124e-019 -2.13497560878721e-019 -1.0
outer loop
vertex 34.0 0.0 0.0
vertex 35.5511112605664 3.88822856765379 -5.11579983628389e-019
vertex 35.5 3.50000000000001 -4.56563687915699e-019
endloop
endfacet
facet normal 7.14489550802124e-019 -2.13497560878721e-019 -1.0
outer loop
vertex 36.25 4.79903810567666 -4.64424795609535e-019
vertex 43.5 8.50000000000001 5.48611633035835e-017
vertex 36.6117714323463 4.9488887394336 -3.81550616496094e-019
endloop
endfacet
facet normal 7.14489550802124e-019 -2.13497560878721e-019 -1.0
outer loop
vertex 36.6117714323463 4.9488887394336 -3.81550616496094e-019
vertex 43.5 8.50000000000001 5.48611633035835e-017
vertex 37.0 5.0 -2.72674393408379e-019
endloop
endfacet
facet normal 7.14489550802124e-019 -2.13497560878721e-019 -1.0
outer loop
vertex 37.0 5.0 -2.72674393408379e-019
vertex 43.5 8.50000000000001 5.48611633035835e-017
vertex 37.3882285676538 4.9488887394336 -1.45215861027485e-019
endloop
endfacet
facet normal 7.14489550802124e-019 -2.13497560878721e-019 -1.0
outer loop
vertex 37.3882285676538 4.9488887394336 -1.45215861027485e-019
vertex 43.5 8.50000000000001 5.48611633035835e-017
vertex 37.75 4.79903810567666 -7.86110769634067e-021
endloop
endfacet
facet normal 7.14489550802124e-019 -2.13497560878721e-019 -1.0
outer loop
vertex 37.75 4.79903810567666 -7.86110769634067e-021
vertex 43.5 8.50000000000001 5.48611633035835e-017
vertex 38.0606601717799 4.56066017177982 1.30029367132295e-019
endloop
endfacet
facet normal 7.14489550802124e-019 -2.13497560878721e-019 -1.0
outer loop
vertex 38.0606601717799 4.56066017177982 1.30029367132295e-019
vertex 43.5 8.50000000000001 5.48611633035835e-017
vertex 38.2990381056767 4.24999999999999 2.59058555475263e-019
endloop
endfacet
facet normal 7.14489550802124e-019 -2.13497560878721e-019 -1.0
outer loop
vertex 38.2990381056767 4.24999999999999 2.59058555475263e-019
vertex 43.5 8.50000000000001 5.48611633035835e-017
vertex 38.4488887394336 3.88822856765378 3.70433331378501e-019
endloop
endfacet
facet normal 7.14489550802124e-019 -2.13497560878721e-019 -1.0
outer loop
vertex 38.4488887394336 3.88822856765378 3.70433331378501e-019
vertex 43.5 8.50000000000001 5.48611633035835e-017
vertex 38.5 3.49999999999999 4.56563687915699e-019
endloop
endfacet
facet normal 7.14489550802124e-019 -2.13497560878721e-019 -1.0
outer loop
vertex 30.15 40.0 0.0
vertex 35.9393398282202 37.5606601717798 -1.37451271306281e-018
vertex 30.15 31.5 0.0
endloop
endfacet
facet normal 7.14489550802124e-019 -2.13497560878721e-019 -1.0
outer loop
vertex 35.9393398282202 37.5606601717798 -1.37451271306281e-018
vertex 30.15 40.0 0.0
vertex 36.25 37.7990381056767 -1.06661951532839e-018
endloop
endfacet
facet normal 7.14489550802124e-019 -2.13497560878721e-019 -1.0
outer loop
vertex 36.25 37.7990381056767 -1.06661951532839e-018
vertex 30.15 40.0 0.0
vertex 36.6117714323463 37.9488887394336 -6.86037960294521e-019
endloop
endfacet
facet normal 7.14489550802124e-019 -2.13497560878721e-019 -1.0
outer loop
vertex 36.6117714323463 37.9488887394336 -6.86037960294521e-019
vertex 30.15 40.0 0.0
vertex 47.0 40.0 0.0
endloop
endfacet
facet normal 7.14489550802124e-019 -2.13497560878721e-019 -1.0
outer loop
vertex 30.15 31.5 0.0
vertex 35.9393398282202 37.5606601717798 -1.37451271306281e-018
vertex 35.7009618943234 37.25 -1.58873514089289e-018
endloop
endfacet
facet normal 7.14489550802124e-019 -2.13497560878721e-019 -1.0
outer loop
vertex 30.15 31.5 0.0
vertex 35.7009618943234 37.25 -1.58873514089289e-018
vertex 35.5511112605664 36.8882285676538 -1.69468789438006e-018
endloop
endfacet
facet normal 7.14489550802124e-019 -2.13497560878721e-019 -1.0
outer loop
vertex 30.15 31.5 0.0
vertex 35.5511112605664 36.8882285676538 -1.69468789438006e-018
vertex 35.5 36.5 -1.68515046846982e-018
endloop
endfacet
facet normal 7.14489550802124e-019 -2.13497560878721e-019 -1.0
outer loop
vertex 36.6117714323463 37.9488887394336 -6.86037960294521e-019
vertex 47.0 40.0 0.0
vertex 37.0 38.0 -2.5870405199931e-019
endloop
endfacet
facet normal 7.14489550802124e-019 -2.13497560878721e-019 -1.0
outer loop
vertex 37.0 38.0 -2.5870405199931e-019
vertex 47.0 40.0 0.0
vertex 37.3882285676538 37.9488887394336 1.86260109911213e-019
endloop
endfacet
facet normal 7.14489550802124e-019 -2.13497560878721e-019 -1.0
outer loop
vertex 37.3882285676538 37.9488887394336 1.86260109911213e-019
vertex 47.0 40.0 0.0
vertex 37.75 37.7990381056767 6.18530953141432e-019
endloop
endfacet
facet normal 7.14489550802124e-019 -2.13497560878721e-019 -1.0
outer loop
vertex 37.75 37.7990381056767 6.18530953141432e-019
vertex 47.0 40.0 0.0
vertex 38.0606601717799 37.5606601717798 1.00864993408554e-018
endloop
endfacet
facet normal 7.14489550802124e-019 -2.13497560878721e-019 -1.0
outer loop
vertex 38.0606601717799 37.5606601717798 1.00864993408554e-018
vertex 47.0 40.0 0.0
vertex 38.2990381056767 37.25 1.33003108889358e-018
endloop
endfacet
facet normal 7.14489550802124e-019 -2.13497560878721e-019 -1.0
outer loop
vertex 38.2990381056767 37.25 1.33003108889358e-018
vertex 47.0 40.0 0.0
vertex 38.4488887394336 36.8882285676538 1.56077282297652e-018
endloop
endfacet
facet normal 7.14489550802124e-019 -2.13497560878721e-019 -1.0
outer loop
vertex 38.4488887394336 36.8882285676538 1.56077282297652e-018
vertex 47.0 40.0 0.0
vertex 38.5 36.5 1.68515046846982e-018
endloop
endfacet
facet normal 7.14489550802124e-019 -2.13497560878721e-019 -1.0
outer loop
vertex 38.5 36.5 1.68515046846982e-018
vertex 47.0 40.0 0.0
vertex 43.5 31.5 2.50463337407671e-030
endloop
endfacet
facet normal 7.14489550802124e-019 -2.13497560878721e-019 -1.0
outer loop
vertex 43.5 31.5 2.50463337407671e-030
vertex 47.0 40.0 0.0
vertex 43.5 8.50000000000001 5.48611633035835e-017
endloop
endfacet
facet normal 7.14489550802124e-019 -2.13497560878721e-019 -1.0
outer loop
vertex 34.0 0.0 0.0
vertex 36.6117714323462 2.0511112605664 1.45215861027485e-019
vertex 47.0 0.0 0.0
endloop
endfacet
facet normal 7.14489550802124e-019 -2.13497560878721e-019 -1.0
outer loop
vertex 36.6117714323462 2.0511112605664 1.45215861027485e-019
vertex 34.0 0.0 0.0
vertex 36.25 2.20096189432335 7.8611076988453e-021
endloop
endfacet
facet normal 7.14489550802124e-019 -2.13497560878721e-019 -1.0
outer loop
vertex 36.25 2.20096189432335 7.8611076988453e-021
vertex 34.0 0.0 0.0
vertex 35.9393398282202 2.43933982822018 -1.30029367132295e-019
endloop
endfacet
facet normal 7.14489550802124e-019 -2.13497560878721e-019 -1.0
outer loop
vertex 35.9393398282202 2.43933982822018 -1.30029367132295e-019
vertex 34.0 0.0 0.0
vertex 35.7009618943234 2.75000000000001 -2.59058555472758e-019
endloop
endfacet
facet normal 7.14489550802124e-019 -2.13497560878721e-019 -1.0
outer loop
vertex 35.7009618943234 2.75000000000001 -2.59058555472758e-019
vertex 34.0 0.0 0.0
vertex 35.5511112605664 3.11177143234623 -3.70433331375997e-019
endloop
endfacet
facet normal 7.14489550802124e-019 -2.13497560878721e-019 -1.0
outer loop
vertex 35.5511112605664 3.11177143234623 -3.70433331375997e-019
vertex 34.0 0.0 0.0
vertex 35.5 3.50000000000001 -4.56563687915699e-019
endloop
endfacet
facet normal 7.14489550802124e-019 -2.13497560878721e-019 -1.0
outer loop
vertex 47.0 0.0 0.0
vertex 36.6117714323462 2.0511112605664 1.45215861027485e-019
vertex 37.0 2.0 2.72674393410884e-019
endloop
endfacet
facet normal 7.14489550802124e-019 -2.13497560878721e-019 -1.0
outer loop
vertex 47.0 0.0 0.0
vertex 37.0 2.0 2.72674393410884e-019
vertex 37.3882285676538 2.0511112605664 3.81550616498599e-019
endloop
endfacet
facet normal 7.14489550802124e-019 -2.13497560878721e-019 -1.0
outer loop
vertex 47.0 0.0 0.0
vertex 37.3882285676538 2.0511112605664 3.81550616498599e-019
vertex 37.75 2.20096189432334 4.6442479561204e-019
endloop
endfacet
facet normal 7.14489550802124e-019 -2.13497560878721e-019 -1.0
outer loop
vertex 47.0 0.0 0.0
vertex 37.75 2.20096189432334 4.6442479561204e-019
vertex 38.0606601717799 2.43933982822017 5.15649192405986e-019
endloop
endfacet
facet normal 7.14489550802124e-019 -2.13497560878721e-019 -1.0
outer loop
vertex 47.0 0.0 0.0
vertex 38.0606601717799 2.43933982822017 5.15649192405986e-019
vertex 38.2990381056767 2.75 5.31732948886146e-019
endloop
endfacet
facet normal 7.14489550802124e-019 -2.13497560878721e-019 -1.0
outer loop
vertex 47.0 0.0 0.0
vertex 38.2990381056767 2.75 5.31732948886146e-019
vertex 38.4488887394336 3.11177143234621 5.11579983630894e-019
endloop
endfacet
facet normal 7.14489550802124e-019 -2.13497560878721e-019 -1.0
outer loop
vertex 47.0 0.0 0.0
vertex 38.4488887394336 3.11177143234621 5.11579983630894e-019
vertex 38.5 3.49999999999999 4.56563687915699e-019
endloop
endfacet
facet normal 7.14489550802124e-019 -2.13497560878721e-019 -1.0
outer loop
vertex 47.0 0.0 0.0
vertex 38.5 3.49999999999999 4.56563687915699e-019
vertex 43.5 8.50000000000001 5.48611633035835e-017
endloop
endfacet
facet normal 7.14489550802124e-019 -2.13497560878721e-019 -1.0
outer loop
vertex 47.0 0.0 0.0
vertex 43.5 8.50000000000001 5.48611633035835e-017
vertex 47.0 40.0 0.0
endloop
endfacet
facet normal 7.14489550802124e-019 -2.13497560878721e-019 -1.0
outer loop
vertex 30.15 31.5 0.0
vertex 36.25 35.2009618943233 -6.18530953138927e-019
vertex 43.5 31.5 2.50463337407671e-030
endloop
endfacet
facet normal 7.14489550802124e-019 -2.13497560878721e-019 -1.0
outer loop
vertex 36.25 35.2009618943233 -6.18530953138927e-019
vertex 30.15 31.5 0.0
vertex 35.9393398282202 35.4393398282202 -1.00864993408304e-018
endloop
endfacet
facet normal 7.14489550802124e-019 -2.13497560878721e-019 -1.0
outer loop
vertex 35.9393398282202 35.4393398282202 -1.00864993408304e-018
vertex 30.15 31.5 0.0
vertex 35.7009618943234 35.75 -1.33003108889358e-018
endloop
endfacet
facet normal 7.14489550802124e-019 -2.13497560878721e-019 -1.0
outer loop
vertex 35.7009618943234 35.75 -1.33003108889358e-018
vertex 30.15 31.5 0.0
vertex 35.5511112605664 36.1117714323462 -1.56077282297402e-018
endloop
endfacet
facet normal 7.14489550802124e-019 -2.13497560878721e-019 -1.0
outer loop
vertex 35.5511112605664 36.1117714323462 -1.56077282297402e-018
vertex 30.15 31.5 0.0
vertex 35.5 36.5 -1.68515046846982e-018
endloop
endfacet
facet normal 7.14489550802124e-019 -2.13497560878721e-019 -1.0
outer loop
vertex 43.5 31.5 2.50463337407671e-030
vertex 36.25 35.2009618943233 -6.18530953138927e-019
vertex 36.6117714323463 35.0511112605664 -1.86260109908708e-019
endloop
endfacet
facet normal 7.14489550802124e-019 -2.13497560878721e-019 -1.0
outer loop
vertex 43.5 31.5 2.50463337407671e-030
vertex 36.6117714323463 35.0511112605664 -1.86260109908708e-019
vertex 37.0 35.0 2.58704052001814e-019
endloop
endfacet
facet normal 7.14489550802124e-019 -2.13497560878721e-019 -1.0
outer loop
vertex 43.5 31.5 2.50463337407671e-030
vertex 37.0 35.0 2.58704052001814e-019
vertex 37.3882285676538 35.0511112605664 6.86037960297026e-019
endloop
endfacet
facet normal 7.14489550802124e-019 -2.13497560878721e-019 -1.0
outer loop
vertex 43.5 31.5 2.50463337407671e-030
vertex 37.3882285676538 35.0511112605664 6.86037960297026e-019
vertex 37.75 35.2009618943233 1.06661951533089e-018
endloop
endfacet
facet normal 7.14489550802124e-019 -2.13497560878721e-019 -1.0
outer loop
vertex 43.5 31.5 2.50463337407671e-030
vertex 37.75 35.2009618943233 1.06661951533089e-018
vertex 38.0606601717799 35.4393398282202 1.37451271306531e-018
endloop
endfacet
facet normal 7.14489550802124e-019 -2.13497560878721e-019 -1.0
outer loop
vertex 43.5 31.5 2.50463337407671e-030
vertex 38.0606601717799 35.4393398282202 1.37451271306531e-018
vertex 38.2990381056767 35.75 1.58873514089539e-018
endloop
endfacet
facet normal 7.14489550802124e-019 -2.13497560878721e-019 -1.0
outer loop
vertex 43.5 31.5 2.50463337407671e-030
vertex 38.2990381056767 35.75 1.58873514089539e-018
vertex 38.4488887394336 36.1117714323462 1.69468789438006e-018
endloop
endfacet
facet normal 7.14489550802124e-019 -2.13497560878721e-019 -1.0
outer loop
vertex 43.5 31.5 2.50463337407671e-030
vertex 38.4488887394336 36.1117714323462 1.69468789438006e-018
vertex 38.5 36.5 1.68515046846982e-018
endloop
endfacet
facet normal 0.0 -1.0 0.0
outer loop
vertex 16.0 0.0 5.28743715477731e-016
vertex 3.0 0.0 2.0
vertex 3.0 0.0 0.0
endloop
endfacet
facet normal 0.0 -1.0 0.0
outer loop
vertex 3.0 0.0 2.0
vertex 16.0 0.0 5.28743715477731e-016
vertex 9.65 0.0 1.0
endloop
endfacet
facet normal 0.0 -1.0 0.0
outer loop
vertex 9.65 0.0 1.0
vertex 16.0 0.0 5.28743715477731e-016
vertex 16.0 0.0 1.0
endloop
endfacet
facet normal 0.0 -1.0 0.0
outer loop
vertex 3.0 0.0 2.0
vertex 9.65 0.0 1.0
vertex 9.65 0.0 2.0
endloop
endfacet
facet normal 1.0 0.0 0.0
outer loop
vertex 47.0 40.0 0.0
vertex 47.0 0.0 2.0
vertex 47.0 0.0 0.0
endloop
endfacet
facet normal 1.0 0.0 0.0
outer loop
vertex 47.0 0.0 2.0
vertex 47.0 40.0 0.0
vertex 47.0 40.0 2.0
endloop
endfacet
facet normal -0.0 1.0 -0.0
outer loop
vertex 30.15 40.0 0.0
vertex 33.6500000000001 40.0 1.0
vertex 47.0 40.0 0.0
endloop
endfacet
facet normal -0.0 1.0 -0.0
outer loop
vertex 33.6500000000001 40.0 1.0
vertex 30.15 40.0 0.0
vertex 30.15 40.0 2.0
endloop
endfacet
facet normal -0.0 1.0 -0.0
outer loop
vertex 33.6500000000001 40.0 1.0
vertex 30.15 40.0 2.0
vertex 33.6500000000001 40.0 2.0
endloop
endfacet
facet normal -0.0 1.0 -0.0
outer loop
vertex 47.0 40.0 0.0
vertex 40.3500000000001 40.0 1.0
vertex 47.0 40.0 2.0
endloop
endfacet
facet normal -0.0 1.0 -0.0
outer loop
vertex 40.3500000000001 40.0 1.0
vertex 47.0 40.0 0.0
vertex 33.6500000000001 40.0 1.0
endloop
endfacet
facet normal -0.0 1.0 -0.0
outer loop
vertex 47.0 40.0 2.0
vertex 40.3500000000001 40.0 1.0
vertex 40.3500000000001 40.0 2.0
endloop
endfacet
facet normal -1.0 -0.0 -0.0
outer loop
vertex 3.0 40.0 2.0
vertex 3.0 0.0 0.0
vertex 3.0 0.0 2.0
endloop
endfacet
facet normal -1.0 -0.0 -0.0
outer loop
vertex 3.0 0.0 0.0
vertex 3.0 40.0 2.0
vertex 3.0 40.0 0.0
endloop
endfacet
facet normal -1.88915529787714e-015 1.0 0.0
outer loop
vertex 13.0 2.0 6.74762971114358e-019
vertex 13.3882285676538 2.0511112605664 1.0
vertex 13.3882285676538 2.0511112605664 4.44692110283984e-019
endloop
endfacet
facet normal -0.258819045102521 0.965925826289068 0.0
outer loop
vertex 13.3882285676538 2.0511112605664 1.0
vertex 13.0 2.0 6.74762971114358e-019
vertex 13.0 2.0 1.0
endloop
endfacet
facet normal 0.258819045102524 0.965925826289067 0.0
outer loop
vertex 12.6117714323462 2.0511112605664 8.58849850560722e-019
vertex 13.0 2.0 1.0
vertex 13.0 2.0 6.74762971114358e-019
endloop
endfacet
facet normal -1.88915529787714e-015 1.0 0.0
outer loop
vertex 13.0 2.0 1.0
vertex 12.6117714323462 2.0511112605664 8.58849850560722e-019
vertex 12.6117714323462 2.0511112605664 1.0
endloop
endfacet
facet normal 0.500000000000001 0.866025403784438 0.0
outer loop
vertex 12.25 2.20096189432334 9.84407532007404e-019
vertex 12.6117714323462 2.0511112605664 1.0
vertex 12.6117714323462 2.0511112605664 8.58849850560722e-019
endloop
endfacet
facet normal 0.258819045102524 0.965925826289067 0.0
outer loop
vertex 12.6117714323462 2.0511112605664 1.0
vertex 12.25 2.20096189432334 9.84407532007404e-019
vertex 12.25 2.20096189432334 1.0
endloop
endfacet
facet normal 0.707106781186544 0.707106781186551 0.0
outer loop
vertex 11.9393398282202 2.43933982822018 1.04287946695997e-018
vertex 12.25 2.20096189432334 1.0
vertex 12.25 2.20096189432334 9.84407532007404e-019
endloop
endfacet
facet normal 0.500000000000001 0.866025403784438 0.0
outer loop
vertex 12.25 2.20096189432334 1.0
vertex 11.9393398282202 2.43933982822018 1.04287946695997e-018
vertex 11.9393398282202 2.43933982822018 1.0
endloop
endfacet
facet normal 0.86602540378444 0.499999999999998 0.0
outer loop
vertex 11.7009618943233 2.75 1.03028088967627e-018
vertex 11.9393398282202 2.43933982822018 1.0
vertex 11.9393398282202 2.43933982822018 1.04287946695997e-018
endloop
endfacet
facet normal 0.707106781186544 0.707106781186551 0.0
outer loop
vertex 11.9393398282202 2.43933982822018 1.0
vertex 11.7009618943233 2.75 1.03028088967627e-018
vertex 11.7009618943233 2.75 1.0
endloop
endfacet
facet normal 0.965925826289067 0.258819045102527 0.0
outer loop
vertex 11.5511112605664 3.11177143234622 9.47470372384677e-019
vertex 11.7009618943233 2.75 1.0
vertex 11.7009618943233 2.75 1.03028088967627e-018
endloop
endfacet
facet normal 0.86602540378444 0.499999999999998 0.0
outer loop
vertex 11.7009618943233 2.75 1.0
vertex 11.5511112605664 3.11177143234622 9.47470372384677e-019
vertex 11.5511112605664 3.11177143234622 1.0
endloop
endfacet
facet normal 1.0 -2.22777747391173e-016 0.0
outer loop
vertex 11.5 3.5 8.00091314979613e-019
vertex 11.5511112605664 3.11177143234622 1.0
vertex 11.5511112605664 3.11177143234622 9.47470372384677e-019
endloop
endfacet
facet normal 0.965925826289067 0.258819045102527 0.0
outer loop
vertex 11.5511112605664 3.11177143234622 1.0
vertex 11.5 3.5 8.00091314979613e-019
vertex 11.5 3.5 1.0
endloop
endfacet
facet normal 0.965925826289067 -0.258819045102527 0.0
outer loop
vertex 11.5511112605664 3.88822856765378 5.98187356675985e-019
vertex 11.5 3.5 1.0
vertex 11.5 3.5 8.00091314979613e-019
endloop
endfacet
facet normal 1.0 -2.22777747391173e-016 0.0
outer loop
vertex 11.5 3.5 1.0
vertex 11.5511112605664 3.88822856765378 5.98187356675985e-019
vertex 11.5511112605664 3.88822856765378 1.0
endloop
endfacet
facet normal 0.86602540378444 -0.499999999999997 0.0
outer loop
vertex 11.7009618943233 4.25 3.55517918561913e-019
vertex 11.5511112605664 3.88822856765378 1.0
vertex 11.5511112605664 3.88822856765378 5.98187356675985e-019
endloop
endfacet
facet normal 0.965925826289067 -0.258819045102527 0.0
outer loop
vertex 11.5511112605664 3.88822856765378 1.0
vertex 11.7009618943233 4.25 3.55517918561913e-019
vertex 11.7009618943233 4.25 1.0
endloop
endfacet
facet normal 0.707106781186551 -0.707106781186544 0.0
outer loop
vertex 11.9393398282202 4.56066017177982 8.862052182145e-020
vertex 11.7009618943233 4.25 1.0
vertex 11.7009618943233 4.25 3.55517918561913e-019
endloop
endfacet
facet normal 0.86602540378444 -0.499999999999997 0.0
outer loop
vertex 11.7009618943233 4.25 1.0
vertex 11.9393398282202 4.56066017177982 8.862052182145e-020
vertex 11.9393398282202 4.56066017177982 1.0
endloop
endfacet
facet normal 0.500000000000006 -0.866025403784435 0.0
outer loop
vertex 12.25 4.79903810567666 1.0
vertex 11.9393398282202 4.56066017177982 8.862052182145e-020
vertex 12.25 4.79903810567666 -1.84316217025286e-019
endloop
endfacet
facet normal 0.707106781186551 -0.707106781186544 0.0
outer loop
vertex 11.9393398282202 4.56066017177982 8.862052182145e-020
vertex 12.25 4.79903810567666 1.0
vertex 11.9393398282202 4.56066017177982 1.0
endloop
endfacet
facet normal 0.25881904510252 -0.965925826289069 0.0
outer loop
vertex 12.6117714323462 4.9488887394336 1.0
vertex 12.25 4.79903810567666 -1.84316217025286e-019
vertex 12.6117714323462 4.9488887394336 -4.44692110283984e-019
endloop
endfacet
facet normal 0.500000000000006 -0.866025403784435 0.0
outer loop
vertex 12.25 4.79903810567666 -1.84316217025286e-019
vertex 12.6117714323462 4.9488887394336 1.0
vertex 12.25 4.79903810567666 1.0
endloop
endfacet
facet normal -1.88915529787714e-015 -1.0 0.0
outer loop
vertex 13.0 5.0 1.0
vertex 12.6117714323462 4.9488887394336 -4.44692110283984e-019
vertex 13.0 5.0 -6.74762971114358e-019
endloop
endfacet
facet normal 0.25881904510252 -0.965925826289069 0.0
outer loop
vertex 12.6117714323462 4.9488887394336 -4.44692110283984e-019
vertex 13.0 5.0 1.0
vertex 12.6117714323462 4.9488887394336 1.0
endloop
endfacet
facet normal -0.25881904510252 -0.965925826289069 0.0
outer loop
vertex 13.3882285676538 4.9488887394336 1.0
vertex 13.0 5.0 -6.74762971114358e-019
vertex 13.3882285676538 4.9488887394336 -8.58849850558218e-019
endloop
endfacet
facet normal -1.88915529787714e-015 -1.0 0.0
outer loop
vertex 13.0 5.0 -6.74762971114358e-019
vertex 13.3882285676538 4.9488887394336 1.0
vertex 13.0 5.0 1.0
endloop
endfacet
facet normal -0.500000000000004 -0.866025403784436 0.0
outer loop
vertex 13.75 4.79903810567666 1.0
vertex 13.3882285676538 4.9488887394336 -8.58849850558218e-019
vertex 13.75 4.79903810567666 -9.84407532004899e-019
endloop
endfacet
facet normal -0.25881904510252 -0.965925826289069 0.0
outer loop
vertex 13.3882285676538 4.9488887394336 -8.58849850558218e-019
vertex 13.75 4.79903810567666 1.0
vertex 13.3882285676538 4.9488887394336 1.0
endloop
endfacet
facet normal -0.707106781186547 -0.707106781186548 0.0
outer loop
vertex 14.0606601717798 4.56066017177982 1.0
vertex 13.75 4.79903810567666 -9.84407532004899e-019
vertex 14.0606601717798 4.56066017177982 -1.04287946695746e-018
endloop
endfacet
facet normal -0.500000000000004 -0.866025403784436 0.0
outer loop
vertex 13.75 4.79903810567666 -9.84407532004899e-019
vertex 14.0606601717798 4.56066017177982 1.0
vertex 13.75 4.79903810567666 1.0
endloop
endfacet
facet normal -0.707106781186547 -0.707106781186548 0.0
outer loop
vertex 14.0606601717798 4.56066017177982 1.0
vertex 14.2990381056767 4.25 -1.03028088967627e-018
vertex 14.2990381056767 4.25 1.0
endloop
endfacet
facet normal -0.866025403784431 -0.500000000000014 0.0
outer loop
vertex 14.2990381056767 4.25 -1.03028088967627e-018
vertex 14.0606601717798 4.56066017177982 1.0
vertex 14.0606601717798 4.56066017177982 -1.04287946695746e-018
endloop
endfacet
facet normal -0.866025403784431 -0.500000000000014 0.0
outer loop
vertex 14.2990381056767 4.25 1.0
vertex 14.4488887394336 3.88822856765378 -9.47470372379668e-019
vertex 14.4488887394336 3.88822856765378 1.0
endloop
endfacet
facet normal -0.965925826289067 -0.258819045102526 0.0
outer loop
vertex 14.4488887394336 3.88822856765378 -9.47470372379668e-019
vertex 14.2990381056767 4.25 1.0
vertex 14.2990381056767 4.25 -1.03028088967627e-018
endloop
endfacet
facet normal -0.965925826289067 -0.258819045102526 0.0
outer loop
vertex 14.4488887394336 3.88822856765378 1.0
vertex 14.5 3.5 -8.00091314979613e-019
vertex 14.5 3.5 1.0
endloop
endfacet
facet normal -1.0 2.40599967182466e-016 0.0
outer loop
vertex 14.5 3.5 -8.00091314979613e-019
vertex 14.4488887394336 3.88822856765378 1.0
vertex 14.4488887394336 3.88822856765378 -9.47470372379668e-019
endloop
endfacet
facet normal -1.0 2.40599967182466e-016 0.0
outer loop
vertex 14.5 3.5 1.0
vertex 14.4488887394336 3.11177143234622 -5.9818735667348e-019
vertex 14.4488887394336 3.11177143234622 1.0
endloop
endfacet
facet normal -0.965925826289067 0.258819045102526 0.0
outer loop
vertex 14.4488887394336 3.11177143234622 -5.9818735667348e-019
vertex 14.5 3.5 1.0
vertex 14.5 3.5 -8.00091314979613e-019
endloop
endfacet
facet normal -0.965925826289067 0.258819045102526 0.0
outer loop
vertex 14.4488887394336 3.11177143234622 1.0
vertex 14.2990381056767 2.75 -3.55517918561913e-019
vertex 14.2990381056767 2.75 1.0
endloop
endfacet
facet normal -0.866025403784431 0.500000000000014 0.0
outer loop
vertex 14.2990381056767 2.75 -3.55517918561913e-019
vertex 14.4488887394336 3.11177143234622 1.0
vertex 14.4488887394336 3.11177143234622 -5.9818735667348e-019
endloop
endfacet
facet normal -0.866025403784431 0.500000000000014 0.0
outer loop
vertex 14.2990381056767 2.75 1.0
vertex 14.0606601717798 2.43933982822018 -8.862052182145e-020
vertex 14.0606601717798 2.43933982822018 1.0
endloop
endfacet
facet normal -0.707106781186547 0.707106781186548 0.0
outer loop
vertex 14.0606601717798 2.43933982822018 -8.862052182145e-020
vertex 14.2990381056767 2.75 1.0
vertex 14.2990381056767 2.75 -3.55517918561913e-019
endloop
endfacet
facet normal -0.500000000000005 0.866025403784436 0.0
outer loop
vertex 13.75 2.20096189432334 1.84316217030295e-019
vertex 14.0606601717798 2.43933982822018 1.0
vertex 14.0606601717798 2.43933982822018 -8.862052182145e-020
endloop
endfacet
facet normal -0.707106781186547 0.707106781186548 0.0
outer loop
vertex 14.0606601717798 2.43933982822018 1.0
vertex 13.75 2.20096189432334 1.84316217030295e-019
vertex 13.75 2.20096189432334 1.0
endloop
endfacet
facet normal -0.258819045102521 0.965925826289068 0.0
outer loop
vertex 13.3882285676538 2.0511112605664 4.44692110283984e-019
vertex 13.75 2.20096189432334 1.0
vertex 13.75 2.20096189432334 1.84316217030295e-019
endloop
endfacet
facet normal -0.500000000000005 0.866025403784436 0.0
outer loop
vertex 13.75 2.20096189432334 1.0
vertex 13.3882285676538 2.0511112605664 4.44692110283984e-019
vertex 13.3882285676538 2.0511112605664 1.0
endloop
endfacet
facet normal 0.0 1.0 0.0
outer loop
vertex 13.0 35.0 1.0
vertex 13.3882285676538 35.0511112605664 7.03593969498531e-019
vertex 13.0 35.0 5.20143865210956e-019
endloop
endfacet
facet normal -0.258819045102527 0.965925826289067 0.0
outer loop
vertex 13.3882285676538 35.0511112605664 7.03593969498531e-019
vertex 13.0 35.0 1.0
vertex 13.3882285676538 35.0511112605664 1.0
endloop
endfacet
facet normal 0.258819045102527 0.965925826289067 0.0
outer loop
vertex 12.6117714323462 35.0511112605664 1.0
vertex 13.0 35.0 5.20143865210956e-019
vertex 12.6117714323462 35.0511112605664 3.01246816090409e-019
endloop
endfacet
facet normal 0.0 1.0 0.0
outer loop
vertex 13.0 35.0 5.20143865210956e-019
vertex 12.6117714323462 35.0511112605664 1.0
vertex 13.0 35.0 1.0
endloop
endfacet
facet normal 0.499999999999994 0.866025403784442 0.0
outer loop
vertex 12.25 35.2009618943233 1.0
vertex 12.6117714323462 35.0511112605664 3.01246816090409e-019
vertex 12.25 35.2009618943233 6.1820294285579e-020
endloop
endfacet
facet normal 0.258819045102527 0.965925826289067 0.0
outer loop
vertex 12.6117714323462 35.0511112605664 3.01246816090409e-019
vertex 12.25 35.2009618943233 1.0
vertex 12.6117714323462 35.0511112605664 1.0
endloop
endfacet
facet normal 0.707106781186555 0.707106781186539 0.0
outer loop
vertex 11.9393398282202 35.4393398282202 1.0
vertex 12.25 35.2009618943233 6.1820294285579e-020
vertex 11.9393398282202 35.4393398282202 -1.81819178410915e-019
endloop
endfacet
facet normal 0.499999999999994 0.866025403784442 0.0
outer loop
vertex 12.25 35.2009618943233 6.1820294285579e-020
vertex 11.9393398282202 35.4393398282202 1.0
vertex 12.25 35.2009618943233 1.0
endloop
endfacet
facet normal 0.866025403784438 0.5 0.0
outer loop
vertex 11.7009618943234 35.75 -4.13067974568683e-019
vertex 11.9393398282202 35.4393398282202 1.0
vertex 11.9393398282202 35.4393398282202 -1.81819178410915e-019
endloop
endfacet
facet normal 0.707106781186555 0.707106781186539 0.0
outer loop
vertex 11.9393398282202 35.4393398282202 1.0
vertex 11.7009618943234 35.75 -4.13067974568683e-019
vertex 11.7009618943234 35.75 1.0
endloop
endfacet
facet normal 0.965925826289066 0.25881904510253 0.0
outer loop
vertex 11.5511112605664 36.1117714323462 -6.16166870888337e-019
vertex 11.7009618943234 35.75 1.0
vertex 11.7009618943234 35.75 -4.13067974568683e-019
endloop
endfacet
facet normal 0.866025403784438 0.5 0.0
outer loop
vertex 11.7009618943234 35.75 1.0
vertex 11.5511112605664 36.1117714323462 -6.16166870888337e-019
vertex 11.5511112605664 36.1117714323462 1.0
endloop
endfacet
facet normal 1.0 -1.88024418798149e-015 0.0
outer loop
vertex 11.5 36.5 -7.77275013219516e-019
vertex 11.5511112605664 36.1117714323462 1.0
vertex 11.5511112605664 36.1117714323462 -6.16166870888337e-019
endloop
endfacet
facet normal 0.965925826289066 0.25881904510253 0.0
outer loop
vertex 11.5511112605664 36.1117714323462 1.0
vertex 11.5 36.5 -7.77275013219516e-019
vertex 11.5 36.5 1.0
endloop
endfacet
facet normal 0.96592582628907 -0.258819045102513 0.0
outer loop
vertex 11.5511112605664 36.8882285676538 -8.85413147906941e-019
vertex 11.5 36.5 1.0
vertex 11.5 36.5 -7.77275013219516e-019
endloop
endfacet
facet normal 1.0 -1.88024418798149e-015 0.0
outer loop
vertex 11.5 36.5 1.0
vertex 11.5511112605664 36.8882285676538 -8.85413147906941e-019
vertex 11.5511112605664 36.8882285676538 1.0
endloop
endfacet
facet normal 0.866025403784438 -0.500000000000001 0.0
outer loop
vertex 11.7009618943233 37.25 -9.33211839779639e-019
vertex 11.5511112605664 36.8882285676538 1.0
vertex 11.5511112605664 36.8882285676538 -8.85413147906941e-019
endloop
endfacet
facet normal 0.96592582628907 -0.258819045102513 0.0
outer loop
vertex 11.5511112605664 36.8882285676538 1.0
vertex 11.7009618943233 37.25 -9.33211839779639e-019
vertex 11.7009618943233 37.25 1.0
endloop
endfacet
facet normal 0.707106781186541 -0.707106781186554 0.0
outer loop
vertex 11.9393398282202 37.5606601717798 -9.17413686978746e-019
vertex 11.7009618943233 37.25 1.0
vertex 11.7009618943233 37.25 -9.33211839779639e-019
endloop
endfacet
facet normal 0.866025403784438 -0.500000000000001 0.0
outer loop
vertex 11.7009618943233 37.25 1.0
vertex 11.9393398282202 37.5606601717798 -9.17413686978746e-019
vertex 11.9393398282202 37.5606601717798 1.0
endloop
endfacet
facet normal 0.500000000000005 -0.866025403784435 0.0
outer loop
vertex 12.25 37.7990381056767 -8.39095307505095e-019
vertex 11.9393398282202 37.5606601717798 1.0
vertex 11.9393398282202 37.5606601717798 -9.17413686978746e-019
endloop
endfacet
facet normal 0.707106781186541 -0.707106781186554 0.0
outer loop
vertex 11.9393398282202 37.5606601717798 1.0
vertex 12.25 37.7990381056767 -8.39095307505095e-019
vertex 12.25 37.7990381056767 1.0
endloop
endfacet
facet normal 0.258819045102526 -0.965925826289067 0.0
outer loop
vertex 12.6117714323462 37.9488887394336 -7.03593969496026e-019
vertex 12.25 37.7990381056767 1.0
vertex 12.25 37.7990381056767 -8.39095307505095e-019
endloop
endfacet
facet normal 0.500000000000005 -0.866025403784435 0.0
outer loop
vertex 12.25 37.7990381056767 1.0
vertex 12.6117714323462 37.9488887394336 -7.03593969496026e-019
vertex 12.6117714323462 37.9488887394336 1.0
endloop
endfacet
facet normal 0.0 -1.0 0.0
outer loop
vertex 13.0 38.0 -5.20143865210956e-019
vertex 12.6117714323462 37.9488887394336 1.0
vertex 12.6117714323462 37.9488887394336 -7.03593969496026e-019
endloop
endfacet
facet normal 0.258819045102526 -0.965925826289067 0.0
outer loop
vertex 12.6117714323462 37.9488887394336 1.0
vertex 13.0 38.0 -5.20143865210956e-019
vertex 13.0 38.0 1.0
endloop
endfacet
facet normal -0.258819045102526 -0.965925826289067 0.0
outer loop
vertex 13.3882285676538 37.9488887394336 -3.01246816090409e-019
vertex 13.0 38.0 1.0
vertex 13.0 38.0 -5.20143865210956e-019
endloop
endfacet
facet normal 0.0 -1.0 0.0
outer loop
vertex 13.0 38.0 1.0
vertex 13.3882285676538 37.9488887394336 -3.01246816090409e-019
vertex 13.3882285676538 37.9488887394336 1.0
endloop
endfacet
facet normal -0.499999999999996 -0.866025403784441 0.0
outer loop
vertex 13.75 37.7990381056767 -6.1820294285579e-020
vertex 13.3882285676538 37.9488887394336 1.0
vertex 13.3882285676538 37.9488887394336 -3.01246816090409e-019
endloop
endfacet
facet normal -0.258819045102526 -0.965925826289067 0.0
outer loop
vertex 13.3882285676538 37.9488887394336 1.0
vertex 13.75 37.7990381056767 -6.1820294285579e-020
vertex 13.75 37.7990381056767 1.0
endloop
endfacet
facet normal -0.707106781186535 -0.70710678118656 0.0
outer loop
vertex 14.0606601717798 37.5606601717798 1.81819178410915e-019
vertex 13.75 37.7990381056767 1.0
vertex 13.75 37.7990381056767 -6.1820294285579e-020
endloop
endfacet
facet normal -0.499999999999996 -0.866025403784441 0.0
outer loop
vertex 13.75 37.7990381056767 1.0
vertex 14.0606601717798 37.5606601717798 1.81819178410915e-019
vertex 14.0606601717798 37.5606601717798 1.0
endloop
endfacet
facet normal -0.707106781186535 -0.70710678118656 0.0
outer loop
vertex 14.0606601717798 37.5606601717798 1.0
vertex 14.2990381056767 37.25 4.13067974568683e-019
vertex 14.2990381056767 37.25 1.0
endloop
endfacet
facet normal -0.866025403784439 -0.499999999999999 0.0
outer loop
vertex 14.2990381056767 37.25 4.13067974568683e-019
vertex 14.0606601717798 37.5606601717798 1.0
vertex 14.0606601717798 37.5606601717798 1.81819178410915e-019
endloop
endfacet
facet normal -0.866025403784439 -0.499999999999999 0.0
outer loop
vertex 14.2990381056767 37.25 1.0
vertex 14.4488887394336 36.8882285676538 6.16166870888337e-019
vertex 14.4488887394336 36.8882285676538 1.0
endloop
endfacet
facet normal -0.96592582628907 -0.258819045102513 0.0
outer loop
vertex 14.4488887394336 36.8882285676538 6.16166870888337e-019
vertex 14.2990381056767 37.25 1.0
vertex 14.2990381056767 37.25 4.13067974568683e-019
endloop
endfacet
facet normal -0.96592582628907 -0.258819045102513 0.0
outer loop
vertex 14.4488887394336 36.8882285676538 1.0
vertex 14.5 36.5 7.77275013222021e-019
vertex 14.5 36.5 1.0
endloop
endfacet
facet normal -1.0 0.0 0.0
outer loop
vertex 14.5 36.5 7.77275013222021e-019
vertex 14.4488887394336 36.8882285676538 1.0
vertex 14.4488887394336 36.8882285676538 6.16166870888337e-019
endloop
endfacet
facet normal -1.0 0.0 0.0
outer loop
vertex 14.5 36.5 1.0
vertex 14.4488887394336 36.1117714323462 8.85413147909446e-019
vertex 14.4488887394336 36.1117714323462 1.0
endloop
endfacet
facet normal -0.96592582628907 0.258819045102513 0.0
outer loop
vertex 14.4488887394336 36.1117714323462 8.85413147909446e-019
vertex 14.5 36.5 1.0
vertex 14.5 36.5 7.77275013222021e-019
endloop
endfacet
facet normal -0.96592582628907 0.258819045102513 0.0
outer loop
vertex 14.4488887394336 36.1117714323462 1.0
vertex 14.2990381056767 35.75 9.33211839782144e-019
vertex 14.2990381056767 35.75 1.0
endloop
endfacet
facet normal -0.866025403784439 0.499999999999999 0.0
outer loop
vertex 14.2990381056767 35.75 9.33211839782144e-019
vertex 14.4488887394336 36.1117714323462 1.0
vertex 14.4488887394336 36.1117714323462 8.85413147909446e-019
endloop
endfacet
facet normal -0.866025403784439 0.499999999999999 0.0
outer loop
vertex 14.2990381056767 35.75 1.0
vertex 14.0606601717798 35.4393398282202 9.17413686978746e-019
vertex 14.0606601717798 35.4393398282202 1.0
endloop
endfacet
facet normal -0.707106781186544 0.707106781186552 0.0
outer loop
vertex 14.0606601717798 35.4393398282202 9.17413686978746e-019
vertex 14.2990381056767 35.75 1.0
vertex 14.2990381056767 35.75 9.33211839782144e-019
endloop
endfacet
facet normal -0.499999999999994 0.866025403784442 0.0
outer loop
vertex 13.75 35.2009618943233 1.0
vertex 14.0606601717798 35.4393398282202 9.17413686978746e-019
vertex 13.75 35.2009618943233 8.390953075076e-019
endloop
endfacet
facet normal -0.707106781186544 0.707106781186552 0.0
outer loop
vertex 14.0606601717798 35.4393398282202 9.17413686978746e-019
vertex 13.75 35.2009618943233 1.0
vertex 14.0606601717798 35.4393398282202 1.0
endloop
endfacet
facet normal -0.258819045102527 0.965925826289067 0.0
outer loop
vertex 13.3882285676538 35.0511112605664 1.0
vertex 13.75 35.2009618943233 8.390953075076e-019
vertex 13.3882285676538 35.0511112605664 7.03593969498531e-019
endloop
endfacet
facet normal -0.499999999999994 0.866025403784442 0.0
outer loop
vertex 13.75 35.2009618943233 8.390953075076e-019
vertex 13.3882285676538 35.0511112605664 1.0
vertex 13.75 35.2009618943233 1.0
endloop
endfacet
facet normal 0.0 1.0 0.0
outer loop
vertex 37.0 35.0 1.0
vertex 37.3882285676538 35.0511112605664 6.86037960297026e-019
vertex 37.0 35.0 2.58704052001814e-019
endloop
endfacet
facet normal -0.258819045102513 0.96592582628907 0.0
outer loop
vertex 37.3882285676538 35.0511112605664 6.86037960297026e-019
vertex 37.0 35.0 1.0
vertex 37.3882285676538 35.0511112605664 1.0
endloop
endfacet
facet normal 0.258819045102513 0.96592582628907 0.0
outer loop
vertex 36.6117714323463 35.0511112605664 1.0
vertex 37.0 35.0 2.58704052001814e-019
vertex 36.6117714323463 35.0511112605664 -1.86260109908708e-019
endloop
endfacet
facet normal 0.0 1.0 0.0
outer loop
vertex 37.0 35.0 2.58704052001814e-019
vertex 36.6117714323463 35.0511112605664 1.0
vertex 37.0 35.0 1.0
endloop
endfacet
facet normal 0.499999999999994 0.866025403784442 0.0
outer loop
vertex 36.25 35.2009618943233 1.0
vertex 36.6117714323463 35.0511112605664 -1.86260109908708e-019
vertex 36.25 35.2009618943233 -6.18530953138927e-019
endloop
endfacet
facet normal 0.258819045102513 0.96592582628907 0.0
outer loop
vertex 36.6117714323463 35.0511112605664 -1.86260109908708e-019
vertex 36.25 35.2009618943233 1.0
vertex 36.6117714323463 35.0511112605664 1.0
endloop
endfacet
facet normal 0.707106781186555 0.707106781186539 0.0
outer loop
vertex 35.9393398282202 35.4393398282202 1.0
vertex 36.25 35.2009618943233 -6.18530953138927e-019
vertex 35.9393398282202 35.4393398282202 -1.00864993408304e-018
endloop
endfacet
facet normal 0.499999999999994 0.866025403784442 0.0
outer loop
vertex 36.25 35.2009618943233 -6.18530953138927e-019
vertex 35.9393398282202 35.4393398282202 1.0
vertex 36.25 35.2009618943233 1.0
endloop
endfacet
facet normal 0.866025403784438 0.5 0.0
outer loop
vertex 35.7009618943234 35.75 -1.33003108889358e-018
vertex 35.9393398282202 35.4393398282202 1.0
vertex 35.9393398282202 35.4393398282202 -1.00864993408304e-018
endloop
endfacet
facet normal 0.707106781186555 0.707106781186539 0.0
outer loop
vertex 35.9393398282202 35.4393398282202 1.0
vertex 35.7009618943234 35.75 -1.33003108889358e-018
vertex 35.7009618943234 35.75 1.0
endloop
endfacet
facet normal 0.965925826289066 0.25881904510253 0.0
outer loop
vertex 35.5511112605664 36.1117714323462 -1.56077282297402e-018
vertex 35.7009618943234 35.75 1.0
vertex 35.7009618943234 35.75 -1.33003108889358e-018
endloop
endfacet
facet normal 0.866025403784438 0.5 0.0
outer loop
vertex 35.7009618943234 35.75 1.0
vertex 35.5511112605664 36.1117714323462 -1.56077282297402e-018
vertex 35.5511112605664 36.1117714323462 1.0
endloop
endfacet
facet normal 1.0 -1.88024418798149e-015 0.0
outer loop
vertex 35.5 36.5 -1.68515046846982e-018
vertex 35.5511112605664 36.1117714323462 1.0
vertex 35.5511112605664 36.1117714323462 -1.56077282297402e-018
endloop
endfacet
facet normal 0.965925826289066 0.25881904510253 0.0
outer loop
vertex 35.5511112605664 36.1117714323462 1.0
vertex 35.5 36.5 -1.68515046846982e-018
vertex 35.5 36.5 1.0
endloop
endfacet
facet normal 0.965925826289067 -0.258819045102526 0.0
outer loop
vertex 35.5511112605664 36.8882285676538 -1.69468789438006e-018
vertex 35.5 36.5 1.0
vertex 35.5 36.5 -1.68515046846982e-018
endloop
endfacet
facet normal 1.0 -1.88024418798149e-015 0.0
outer loop
vertex 35.5 36.5 1.0
vertex 35.5511112605664 36.8882285676538 -1.69468789438006e-018
vertex 35.5511112605664 36.8882285676538 1.0
endloop
endfacet
facet normal 0.866025403784437 -0.500000000000003 0.0
outer loop
vertex 35.7009618943234 37.25 -1.58873514089289e-018
vertex 35.5511112605664 36.8882285676538 1.0
vertex 35.5511112605664 36.8882285676538 -1.69468789438006e-018
endloop
endfacet
facet normal 0.965925826289067 -0.258819045102526 0.0
outer loop
vertex 35.5511112605664 36.8882285676538 1.0
vertex 35.7009618943234 37.25 -1.58873514089289e-018
vertex 35.7009618943234 37.25 1.0
endloop
endfacet
facet normal 0.707106781186549 -0.707106781186546 0.0
outer loop
vertex 35.9393398282202 37.5606601717798 -1.37451271306281e-018
vertex 35.7009618943234 37.25 1.0
vertex 35.7009618943234 37.25 -1.58873514089289e-018
endloop
endfacet
facet normal 0.866025403784437 -0.500000000000003 0.0
outer loop
vertex 35.7009618943234 37.25 1.0
vertex 35.9393398282202 37.5606601717798 -1.37451271306281e-018
vertex 35.9393398282202 37.5606601717798 1.0
endloop
endfacet
facet normal 0.500000000000005 -0.866025403784435 0.0
outer loop
vertex 36.25 37.7990381056767 -1.06661951532839e-018
vertex 35.9393398282202 37.5606601717798 1.0
vertex 35.9393398282202 37.5606601717798 -1.37451271306281e-018
endloop
endfacet
facet normal 0.707106781186549 -0.707106781186546 0.0
outer loop
vertex 35.9393398282202 37.5606601717798 1.0
vertex 36.25 37.7990381056767 -1.06661951532839e-018
vertex 36.25 37.7990381056767 1.0
endloop
endfacet
facet normal 0.258819045102526 -0.965925826289067 0.0
outer loop
vertex 36.6117714323463 37.9488887394336 -6.86037960294521e-019
vertex 36.25 37.7990381056767 1.0
vertex 36.25 37.7990381056767 -1.06661951532839e-018
endloop
endfacet
facet normal 0.500000000000005 -0.866025403784435 0.0
outer loop
vertex 36.25 37.7990381056767 1.0
vertex 36.6117714323463 37.9488887394336 -6.86037960294521e-019
vertex 36.6117714323463 37.9488887394336 1.0
endloop
endfacet
facet normal 0.0 -1.0 0.0
outer loop
vertex 37.0 38.0 -2.5870405199931e-019
vertex 36.6117714323463 37.9488887394336 1.0
vertex 36.6117714323463 37.9488887394336 -6.86037960294521e-019
endloop
endfacet
facet normal 0.258819045102526 -0.965925826289067 0.0
outer loop
vertex 36.6117714323463 37.9488887394336 1.0
vertex 37.0 38.0 -2.5870405199931e-019
vertex 37.0 38.0 1.0
endloop
endfacet
facet normal -0.258819045102526 -0.965925826289067 0.0
outer loop
vertex 37.3882285676538 37.9488887394336 1.86260109911213e-019
vertex 37.0 38.0 1.0
vertex 37.0 38.0 -2.5870405199931e-019
endloop
endfacet
facet normal 0.0 -1.0 0.0
outer loop
vertex 37.0 38.0 1.0
vertex 37.3882285676538 37.9488887394336 1.86260109911213e-019
vertex 37.3882285676538 37.9488887394336 1.0
endloop
endfacet
facet normal -0.499999999999996 -0.866025403784441 0.0
outer loop
vertex 37.75 37.7990381056767 6.18530953141432e-019
vertex 37.3882285676538 37.9488887394336 1.0
vertex 37.3882285676538 37.9488887394336 1.86260109911213e-019
endloop
endfacet
facet normal -0.258819045102526 -0.965925826289067 0.0
outer loop
vertex 37.3882285676538 37.9488887394336 1.0
vertex 37.75 37.7990381056767 6.18530953141432e-019
vertex 37.75 37.7990381056767 1.0
endloop
endfacet
facet normal -0.707106781186548 -0.707106781186548 0.0
outer loop
vertex 38.0606601717799 37.5606601717798 1.00864993408554e-018
vertex 37.75 37.7990381056767 1.0
vertex 37.75 37.7990381056767 6.18530953141432e-019
endloop
endfacet
facet normal -0.499999999999996 -0.866025403784441 0.0
outer loop
vertex 37.75 37.7990381056767 1.0
vertex 38.0606601717799 37.5606601717798 1.00864993408554e-018
vertex 38.0606601717799 37.5606601717798 1.0
endloop
endfacet
facet normal -0.707106781186548 -0.707106781186548 0.0
outer loop
vertex 38.0606601717799 37.5606601717798 1.0
vertex 38.2990381056767 37.25 1.33003108889358e-018
vertex 38.2990381056767 37.25 1.0
endloop
endfacet
facet normal -0.866025403784441 -0.499999999999996 0.0
outer loop
vertex 38.2990381056767 37.25 1.33003108889358e-018
vertex 38.0606601717799 37.5606601717798 1.0
vertex 38.0606601717799 37.5606601717798 1.00864993408554e-018
endloop
endfacet
facet normal -0.866025403784441 -0.499999999999996 0.0
outer loop
vertex 38.2990381056767 37.25 1.0
vertex 38.4488887394336 36.8882285676538 1.56077282297652e-018
vertex 38.4488887394336 36.8882285676538 1.0
endloop
endfacet
facet normal -0.965925826289067 -0.258819045102526 0.0
outer loop
vertex 38.4488887394336 36.8882285676538 1.56077282297652e-018
vertex 38.2990381056767 37.25 1.0
vertex 38.2990381056767 37.25 1.33003108889358e-018
endloop
endfacet
facet normal -0.965925826289067 -0.258819045102526 0.0
outer loop
vertex 38.4488887394336 36.8882285676538 1.0
vertex 38.5 36.5 1.68515046846982e-018
vertex 38.5 36.5 1.0
endloop
endfacet
facet normal -1.0 0.0 0.0
outer loop
vertex 38.5 36.5 1.68515046846982e-018
vertex 38.4488887394336 36.8882285676538 1.0
vertex 38.4488887394336 36.8882285676538 1.56077282297652e-018
endloop
endfacet
facet normal -1.0 0.0 0.0
outer loop
vertex 38.5 36.5 1.0
vertex 38.4488887394336 36.1117714323462 1.69468789438006e-018
vertex 38.4488887394336 36.1117714323462 1.0
endloop
endfacet
facet normal -0.965925826289067 0.258819045102526 0.0
outer loop
vertex 38.4488887394336 36.1117714323462 1.69468789438006e-018
vertex 38.5 36.5 1.0
vertex 38.5 36.5 1.68515046846982e-018
endloop
endfacet
facet normal -0.965925826289067 0.258819045102526 0.0
outer loop
vertex 38.4488887394336 36.1117714323462 1.0
vertex 38.2990381056767 35.75 1.58873514089539e-018
vertex 38.2990381056767 35.75 1.0
endloop
endfacet
facet normal -0.866025403784441 0.499999999999996 0.0
outer loop
vertex 38.2990381056767 35.75 1.58873514089539e-018
vertex 38.4488887394336 36.1117714323462 1.0
vertex 38.4488887394336 36.1117714323462 1.69468789438006e-018
endloop
endfacet
facet normal -0.866025403784441 0.499999999999996 0.0
outer loop
vertex 38.2990381056767 35.75 1.0
vertex 38.0606601717799 35.4393398282202 1.37451271306531e-018
vertex 38.0606601717799 35.4393398282202 1.0
endloop
endfacet
facet normal -0.707106781186555 0.707106781186539 0.0
outer loop
vertex 38.0606601717799 35.4393398282202 1.37451271306531e-018
vertex 38.2990381056767 35.75 1.0
vertex 38.2990381056767 35.75 1.58873514089539e-018
endloop
endfacet
facet normal -0.499999999999994 0.866025403784442 0.0
outer loop
vertex 37.75 35.2009618943233 1.0
vertex 38.0606601717799 35.4393398282202 1.37451271306531e-018
vertex 37.75 35.2009618943233 1.06661951533089e-018
endloop
endfacet
facet normal -0.707106781186555 0.707106781186539 0.0
outer loop
vertex 38.0606601717799 35.4393398282202 1.37451271306531e-018
vertex 37.75 35.2009618943233 1.0
vertex 38.0606601717799 35.4393398282202 1.0
endloop
endfacet
facet normal -0.258819045102513 0.96592582628907 0.0
outer loop
vertex 37.3882285676538 35.0511112605664 1.0
vertex 37.75 35.2009618943233 1.06661951533089e-018
vertex 37.3882285676538 35.0511112605664 6.86037960297026e-019
endloop
endfacet
facet normal -0.499999999999994 0.866025403784442 0.0
outer loop
vertex 37.75 35.2009618943233 1.06661951533089e-018
vertex 37.3882285676538 35.0511112605664 1.0
vertex 37.75 35.2009618943233 1.0
endloop
endfacet
facet normal -1.0 -0.0 -0.0
outer loop
vertex 43.5 31.5 2.0
vertex 43.5 8.50000000000001 5.48611633035835e-017
vertex 43.5 8.50000000000001 2.0
endloop
endfacet
facet normal -1.0 -0.0 -0.0
outer loop
vertex 43.5 8.50000000000001 5.48611633035835e-017
vertex 43.5 31.5 2.0
vertex 43.5 31.5 2.50463337407671e-030
endloop
endfacet
facet normal -0.0 1.0 -0.0
outer loop
vertex 34.0 8.50000000000001 1.0
vertex 43.5 8.50000000000001 5.48611633035835e-017
vertex 34.0 8.50000000000001 0.0
endloop
endfacet
facet normal -0.0 1.0 -0.0
outer loop
vertex 43.5 8.50000000000001 5.48611633035835e-017
vertex 34.0 8.50000000000001 1.0
vertex 40.35 8.50000000000001 1.0
endloop
endfacet
facet normal -0.0 1.0 -0.0
outer loop
vertex 43.5 8.50000000000001 5.48611633035835e-017
vertex 40.35 8.50000000000001 1.0
vertex 43.5 8.50000000000001 2.0
endloop
endfacet
facet normal -0.0 1.0 -0.0
outer loop
vertex 43.5 8.50000000000001 2.0
vertex 40.35 8.50000000000001 1.0
vertex 40.35 8.50000000000001 2.0
endloop
endfacet
facet normal 1.0 0.0 0.0
outer loop
vertex 6.5 31.5 2.50463337407671e-030
vertex 6.5 8.50000000000001 2.0
vertex 6.5 8.50000000000001 5.48611633035835e-017
endloop
endfacet
facet normal 1.0 0.0 0.0
outer loop
vertex 6.5 8.50000000000001 2.0
vertex 6.5 31.5 2.50463337407671e-030
vertex 6.5 31.5 2.0
endloop
endfacet
facet normal 0.0 -1.0 0.0
outer loop
vertex 19.8500000000001 31.5 0.0
vertex 16.3500000000001 31.5 1.0
vertex 6.5 31.5 2.50463337407671e-030
endloop
endfacet
facet normal 0.0 -1.0 0.0
outer loop
vertex 16.3500000000001 31.5 1.0
vertex 19.8500000000001 31.5 0.0
vertex 19.8500000000001 31.5 2.0
endloop
endfacet
facet normal 0.0 -1.0 0.0
outer loop
vertex 16.3500000000001 31.5 1.0
vertex 19.8500000000001 31.5 2.0
vertex 16.3500000000001 31.5 2.0
endloop
endfacet
facet normal 0.0 -1.0 0.0
outer loop
vertex 6.5 31.5 2.50463337407671e-030
vertex 9.65000000000005 31.5 1.0
vertex 6.5 31.5 2.0
endloop
endfacet
facet normal 0.0 -1.0 0.0
outer loop
vertex 9.65000000000005 31.5 1.0
vertex 6.5 31.5 2.50463337407671e-030
vertex 16.3500000000001 31.5 1.0
endloop
endfacet
facet normal 0.0 -1.0 0.0
outer loop
vertex 6.5 31.5 2.0
vertex 9.65000000000005 31.5 1.0
vertex 9.65000000000005 31.5 2.0
endloop
endfacet
facet normal 1.69311088017291e-015 1.0 0.0
outer loop
vertex 37.0 2.0 1.0
vertex 37.3882285676538 2.0511112605664 3.81550616498599e-019
vertex 37.0 2.0 2.72674393410884e-019
endloop
endfacet
facet normal -0.258819045102522 0.965925826289068 0.0
outer loop
vertex 37.3882285676538 2.0511112605664 3.81550616498599e-019
vertex 37.0 2.0 1.0
vertex 37.3882285676538 2.0511112605664 1.0
endloop
endfacet
facet normal 0.258819045102523 0.965925826289068 0.0
outer loop
vertex 36.6117714323462 2.0511112605664 1.0
vertex 37.0 2.0 2.72674393410884e-019
vertex 36.6117714323462 2.0511112605664 1.45215861027485e-019
endloop
endfacet
facet normal 1.69311088017291e-015 1.0 0.0
outer loop
vertex 37.0 2.0 2.72674393410884e-019
vertex 36.6117714323462 2.0511112605664 1.0
vertex 37.0 2.0 1.0
endloop
endfacet
facet normal 0.500000000000008 0.866025403784434 0.0
outer loop
vertex 36.25 2.20096189432335 1.0
vertex 36.6117714323462 2.0511112605664 1.45215861027485e-019
vertex 36.25 2.20096189432335 7.8611076988453e-021
endloop
endfacet
facet normal 0.258819045102523 0.965925826289068 0.0
outer loop
vertex 36.6117714323462 2.0511112605664 1.45215861027485e-019
vertex 36.25 2.20096189432335 1.0
vertex 36.6117714323462 2.0511112605664 1.0
endloop
endfacet
facet normal 0.707106781186552 0.707106781186543 0.0
outer loop
vertex 35.9393398282202 2.43933982822018 1.0
vertex 36.25 2.20096189432335 7.8611076988453e-021
vertex 35.9393398282202 2.43933982822018 -1.30029367132295e-019
endloop
endfacet
facet normal 0.500000000000008 0.866025403784434 0.0
outer loop
vertex 36.25 2.20096189432335 7.8611076988453e-021
vertex 35.9393398282202 2.43933982822018 1.0
vertex 36.25 2.20096189432335 1.0
endloop
endfacet
facet normal 0.866025403784441 0.499999999999996 0.0
outer loop
vertex 35.7009618943234 2.75000000000001 -2.59058555472758e-019
vertex 35.9393398282202 2.43933982822018 1.0
vertex 35.9393398282202 2.43933982822018 -1.30029367132295e-019
endloop
endfacet
facet normal 0.707106781186552 0.707106781186543 0.0
outer loop
vertex 35.9393398282202 2.43933982822018 1.0
vertex 35.7009618943234 2.75000000000001 -2.59058555472758e-019
vertex 35.7009618943234 2.75000000000001 1.0
endloop
endfacet
facet normal 0.96592582628907 0.258819045102513 0.0
outer loop
vertex 35.5511112605664 3.11177143234623 -3.70433331375997e-019
vertex 35.7009618943234 2.75000000000001 1.0
vertex 35.7009618943234 2.75000000000001 -2.59058555472758e-019
endloop
endfacet
facet normal 0.866025403784441 0.499999999999996 0.0
outer loop
vertex 35.7009618943234 2.75000000000001 1.0
vertex 35.5511112605664 3.11177143234623 -3.70433331375997e-019
vertex 35.5511112605664 3.11177143234623 1.0
endloop
endfacet
facet normal 1.0 -2.40599967182466e-016 0.0
outer loop
vertex 35.5 3.50000000000001 -4.56563687915699e-019
vertex 35.5511112605664 3.11177143234623 1.0
vertex 35.5511112605664 3.11177143234623 -3.70433331375997e-019
endloop
endfacet
facet normal 0.96592582628907 0.258819045102513 0.0
outer loop
vertex 35.5511112605664 3.11177143234623 1.0
vertex 35.5 3.50000000000001 -4.56563687915699e-019
vertex 35.5 3.50000000000001 1.0
endloop
endfacet
facet normal 0.965925826289067 -0.258819045102527 0.0
outer loop
vertex 35.5511112605664 3.88822856765379 -5.11579983628389e-019
vertex 35.5 3.50000000000001 1.0
vertex 35.5 3.50000000000001 -4.56563687915699e-019
endloop
endfacet
facet normal 1.0 -2.40599967182466e-016 0.0
outer loop
vertex 35.5 3.50000000000001 1.0
vertex 35.5511112605664 3.88822856765379 -5.11579983628389e-019
vertex 35.5511112605664 3.88822856765379 1.0
endloop
endfacet
facet normal 0.866025403784439 -0.5 0.0
outer loop
vertex 35.7009618943234 4.25000000000001 -5.31732948883642e-019
vertex 35.5511112605664 3.88822856765379 1.0
vertex 35.5511112605664 3.88822856765379 -5.11579983628389e-019
endloop
endfacet
facet normal 0.965925826289067 -0.258819045102527 0.0
outer loop
vertex 35.5511112605664 3.88822856765379 1.0
vertex 35.7009618943234 4.25000000000001 -5.31732948883642e-019
vertex 35.7009618943234 4.25000000000001 1.0
endloop
endfacet
facet normal 0.707106781186546 -0.707106781186549 0.0
outer loop
vertex 35.9393398282202 4.56066017177983 -5.15649192403481e-019
vertex 35.7009618943234 4.25000000000001 1.0
vertex 35.7009618943234 4.25000000000001 -5.31732948883642e-019
endloop
endfacet
facet normal 0.866025403784439 -0.5 0.0
outer loop
vertex 35.7009618943234 4.25000000000001 1.0
vertex 35.9393398282202 4.56066017177983 -5.15649192403481e-019
vertex 35.9393398282202 4.56066017177983 1.0
endloop
endfacet
facet normal 0.499999999999991 -0.866025403784444 0.0
outer loop
vertex 36.25 4.79903810567666 -4.64424795609535e-019
vertex 35.9393398282202 4.56066017177983 1.0
vertex 35.9393398282202 4.56066017177983 -5.15649192403481e-019
endloop
endfacet
facet normal 0.707106781186546 -0.707106781186549 0.0
outer loop
vertex 35.9393398282202 4.56066017177983 1.0
vertex 36.25 4.79903810567666 -4.64424795609535e-019
vertex 36.25 4.79903810567666 1.0
endloop
endfacet
facet normal 0.258819045102522 -0.965925826289068 0.0
outer loop
vertex 36.6117714323463 4.9488887394336 -3.81550616496094e-019
vertex 36.25 4.79903810567666 1.0
vertex 36.25 4.79903810567666 -4.64424795609535e-019
endloop
endfacet
facet normal 0.499999999999991 -0.866025403784444 0.0
outer loop
vertex 36.25 4.79903810567666 1.0
vertex 36.6117714323463 4.9488887394336 -3.81550616496094e-019
vertex 36.6117714323463 4.9488887394336 1.0
endloop
endfacet
facet normal -1.69311088017291e-015 -1.0 0.0
outer loop
vertex 37.0 5.0 -2.72674393408379e-019
vertex 36.6117714323463 4.9488887394336 1.0
vertex 36.6117714323463 4.9488887394336 -3.81550616496094e-019
endloop
endfacet
facet normal 0.258819045102522 -0.965925826289068 0.0
outer loop
vertex 36.6117714323463 4.9488887394336 1.0
vertex 37.0 5.0 -2.72674393408379e-019
vertex 37.0 5.0 1.0
endloop
endfacet
facet normal -0.258819045102523 -0.965925826289068 0.0
outer loop
vertex 37.3882285676538 4.9488887394336 -1.45215861027485e-019
vertex 37.0 5.0 1.0
vertex 37.0 5.0 -2.72674393408379e-019
endloop
endfacet
facet normal -1.69311088017291e-015 -1.0 0.0
outer loop
vertex 37.0 5.0 1.0
vertex 37.3882285676538 4.9488887394336 -1.45215861027485e-019
vertex 37.3882285676538 4.9488887394336 1.0
endloop
endfacet
facet normal -0.500000000000007 -0.866025403784434 0.0
outer loop
vertex 37.75 4.79903810567666 -7.86110769634067e-021
vertex 37.3882285676538 4.9488887394336 1.0
vertex 37.3882285676538 4.9488887394336 -1.45215861027485e-019
endloop
endfacet
facet normal -0.258819045102523 -0.965925826289068 0.0
outer loop
vertex 37.3882285676538 4.9488887394336 1.0
vertex 37.75 4.79903810567666 -7.86110769634067e-021
vertex 37.75 4.79903810567666 1.0
endloop
endfacet
facet normal -0.707106781186553 -0.707106781186543 0.0
outer loop
vertex 38.0606601717799 4.56066017177982 1.30029367132295e-019
vertex 37.75 4.79903810567666 1.0
vertex 37.75 4.79903810567666 -7.86110769634067e-021
endloop
endfacet
facet normal -0.500000000000007 -0.866025403784434 0.0
outer loop
vertex 37.75 4.79903810567666 1.0
vertex 38.0606601717799 4.56066017177982 1.30029367132295e-019
vertex 38.0606601717799 4.56066017177982 1.0
endloop
endfacet
facet normal -0.707106781186553 -0.707106781186543 0.0
outer loop
vertex 38.0606601717799 4.56066017177982 1.0
vertex 38.2990381056767 4.24999999999999 2.59058555475263e-019
vertex 38.2990381056767 4.24999999999999 1.0
endloop
endfacet
facet normal -0.866025403784441 -0.499999999999996 0.0
outer loop
vertex 38.2990381056767 4.24999999999999 2.59058555475263e-019
vertex 38.0606601717799 4.56066017177982 1.0
vertex 38.0606601717799 4.56066017177982 1.30029367132295e-019
endloop
endfacet
facet normal -0.866025403784441 -0.499999999999996 0.0
outer loop
vertex 38.2990381056767 4.24999999999999 1.0
vertex 38.4488887394336 3.88822856765378 3.70433331378501e-019
vertex 38.4488887394336 3.88822856765378 1.0
endloop
endfacet
facet normal -0.96592582628907 -0.258819045102513 0.0
outer loop
vertex 38.4488887394336 3.88822856765378 3.70433331378501e-019
vertex 38.2990381056767 4.24999999999999 1.0
vertex 38.2990381056767 4.24999999999999 2.59058555475263e-019
endloop
endfacet
facet normal -0.96592582628907 -0.258819045102513 0.0
outer loop
vertex 38.4488887394336 3.88822856765378 1.0
vertex 38.5 3.49999999999999 4.56563687915699e-019
vertex 38.5 3.49999999999999 1.0
endloop
endfacet
facet normal -1.0 3.47533285930229e-016 0.0
outer loop
vertex 38.5 3.49999999999999 4.56563687915699e-019
vertex 38.4488887394336 3.88822856765378 1.0
vertex 38.4488887394336 3.88822856765378 3.70433331378501e-019
endloop
endfacet
facet normal -1.0 3.47533285930229e-016 0.0
outer loop
vertex 38.5 3.49999999999999 1.0
vertex 38.4488887394336 3.11177143234621 5.11579983630894e-019
vertex 38.4488887394336 3.11177143234621 1.0
endloop
endfacet
facet normal -0.965925826289067 0.258819045102527 0.0
outer loop
vertex 38.4488887394336 3.11177143234621 5.11579983630894e-019
vertex 38.5 3.49999999999999 1.0
vertex 38.5 3.49999999999999 4.56563687915699e-019
endloop
endfacet
facet normal -0.965925826289067 0.258819045102527 0.0
outer loop
vertex 38.4488887394336 3.11177143234621 1.0
vertex 38.2990381056767 2.75 5.31732948886146e-019
vertex 38.2990381056767 2.75 1.0
endloop
endfacet
facet normal -0.866025403784439 0.5 0.0
outer loop
vertex 38.2990381056767 2.75 5.31732948886146e-019
vertex 38.4488887394336 3.11177143234621 1.0
vertex 38.4488887394336 3.11177143234621 5.11579983630894e-019
endloop
endfacet
facet normal -0.866025403784439 0.5 0.0
outer loop
vertex 38.2990381056767 2.75 1.0
vertex 38.0606601717799 2.43933982822017 5.15649192405986e-019
vertex 38.0606601717799 2.43933982822017 1.0
endloop
endfacet
facet normal -0.707106781186545 0.70710678118655 0.0
outer loop
vertex 38.0606601717799 2.43933982822017 5.15649192405986e-019
vertex 38.2990381056767 2.75 1.0
vertex 38.2990381056767 2.75 5.31732948886146e-019
endloop
endfacet
facet normal -0.499999999999991 0.866025403784444 0.0
outer loop
vertex 37.75 2.20096189432334 1.0
vertex 38.0606601717799 2.43933982822017 5.15649192405986e-019
vertex 37.75 2.20096189432334 4.6442479561204e-019
endloop
endfacet
facet normal -0.707106781186545 0.70710678118655 0.0
outer loop
vertex 38.0606601717799 2.43933982822017 5.15649192405986e-019
vertex 37.75 2.20096189432334 1.0
vertex 38.0606601717799 2.43933982822017 1.0
endloop
endfacet
facet normal -0.258819045102522 0.965925826289068 0.0
outer loop
vertex 37.3882285676538 2.0511112605664 1.0
vertex 37.75 2.20096189432334 4.6442479561204e-019
vertex 37.3882285676538 2.0511112605664 3.81550616498599e-019
endloop
endfacet
facet normal -0.499999999999991 0.866025403784444 0.0
outer loop
vertex 37.75 2.20096189432334 4.6442479561204e-019
vertex 37.3882285676538 2.0511112605664 1.0
vertex 37.75 2.20096189432334 1.0
endloop
endfacet
facet normal -0.0 -0.0 1.0
outer loop
vertex 34.0 0.0 1.0
vertex 35.5511112605664 3.11177143234623 1.0
vertex 34.0 8.50000000000001 1.0
endloop
endfacet
facet normal -0.0 -0.0 1.0
outer loop
vertex 35.5511112605664 3.11177143234623 1.0
vertex 34.0 0.0 1.0
vertex 35.7009618943234 2.75000000000001 1.0
endloop
endfacet
facet normal -0.0 -0.0 1.0
outer loop
vertex 35.7009618943234 2.75000000000001 1.0
vertex 34.0 0.0 1.0
vertex 35.9393398282202 2.43933982822018 1.0
endloop
endfacet
facet normal -0.0 -0.0 1.0
outer loop
vertex 35.9393398282202 2.43933982822018 1.0
vertex 34.0 0.0 1.0
vertex 36.25 2.20096189432335 1.0
endloop
endfacet
facet normal -0.0 -0.0 1.0
outer loop
vertex 36.25 2.20096189432335 1.0
vertex 34.0 0.0 1.0
vertex 40.35 0.0 1.0
endloop
endfacet
facet normal -0.0 -0.0 1.0
outer loop
vertex 34.0 8.50000000000001 1.0
vertex 35.5511112605664 3.11177143234623 1.0
vertex 35.5 3.50000000000001 1.0
endloop
endfacet
facet normal -0.0 -0.0 1.0
outer loop
vertex 36.25 2.20096189432335 1.0
vertex 40.35 0.0 1.0
vertex 36.6117714323462 2.0511112605664 1.0
endloop
endfacet
facet normal -0.0 -0.0 1.0
outer loop
vertex 36.6117714323462 2.0511112605664 1.0
vertex 40.35 0.0 1.0
vertex 37.0 2.0 1.0
endloop
endfacet
facet normal -0.0 -0.0 1.0
outer loop
vertex 37.0 2.0 1.0
vertex 40.35 0.0 1.0
vertex 37.3882285676538 2.0511112605664 1.0
endloop
endfacet
facet normal -0.0 -0.0 1.0
outer loop
vertex 37.3882285676538 2.0511112605664 1.0
vertex 40.35 0.0 1.0
vertex 37.75 2.20096189432334 1.0
endloop
endfacet
facet normal -0.0 -0.0 1.0
outer loop
vertex 37.75 2.20096189432334 1.0
vertex 40.35 0.0 1.0
vertex 38.0606601717799 2.43933982822017 1.0
endloop
endfacet
facet normal -0.0 -0.0 1.0
outer loop
vertex 38.0606601717799 2.43933982822017 1.0
vertex 40.35 0.0 1.0
vertex 38.2990381056767 2.75 1.0
endloop
endfacet
facet normal -0.0 -0.0 1.0
outer loop
vertex 38.2990381056767 2.75 1.0
vertex 40.35 0.0 1.0
vertex 38.4488887394336 3.11177143234621 1.0
endloop
endfacet
facet normal -0.0 -0.0 1.0
outer loop
vertex 38.4488887394336 3.11177143234621 1.0
vertex 40.35 0.0 1.0
vertex 38.5 3.49999999999999 1.0
endloop
endfacet
facet normal -0.0 -0.0 1.0
outer loop
vertex 34.0 8.50000000000001 1.0
vertex 35.9393398282202 4.56066017177983 1.0
vertex 40.35 8.50000000000001 1.0
endloop
endfacet
facet normal -0.0 -0.0 1.0
outer loop
vertex 35.9393398282202 4.56066017177983 1.0
vertex 34.0 8.50000000000001 1.0
vertex 35.7009618943234 4.25000000000001 1.0
endloop
endfacet
facet normal -0.0 -0.0 1.0
outer loop
vertex 35.7009618943234 4.25000000000001 1.0
vertex 34.0 8.50000000000001 1.0
vertex 35.5511112605664 3.88822856765379 1.0
endloop
endfacet
facet normal -0.0 -0.0 1.0
outer loop
vertex 35.5511112605664 3.88822856765379 1.0
vertex 34.0 8.50000000000001 1.0
vertex 35.5 3.50000000000001 1.0
endloop
endfacet
facet normal -0.0 -0.0 1.0
outer loop
vertex 40.35 8.50000000000001 1.0
vertex 35.9393398282202 4.56066017177983 1.0
vertex 36.25 4.79903810567666 1.0
endloop
endfacet
facet normal -0.0 -0.0 1.0
outer loop
vertex 40.35 8.50000000000001 1.0
vertex 36.25 4.79903810567666 1.0
vertex 36.6117714323463 4.9488887394336 1.0
endloop
endfacet
facet normal -0.0 -0.0 1.0
outer loop
vertex 40.35 8.50000000000001 1.0
vertex 36.6117714323463 4.9488887394336 1.0
vertex 37.0 5.0 1.0
endloop
endfacet
facet normal -0.0 -0.0 1.0
outer loop
vertex 40.35 8.50000000000001 1.0
vertex 37.0 5.0 1.0
vertex 37.3882285676538 4.9488887394336 1.0
endloop
endfacet
facet normal -0.0 -0.0 1.0
outer loop
vertex 40.35 8.50000000000001 1.0
vertex 37.3882285676538 4.9488887394336 1.0
vertex 37.75 4.79903810567666 1.0
endloop
endfacet
facet normal -0.0 -0.0 1.0
outer loop
vertex 40.35 8.50000000000001 1.0
vertex 37.75 4.79903810567666 1.0
vertex 38.0606601717799 4.56066017177982 1.0
endloop
endfacet
facet normal -0.0 -0.0 1.0
outer loop
vertex 40.35 8.50000000000001 1.0
vertex 38.0606601717799 4.56066017177982 1.0
vertex 38.2990381056767 4.24999999999999 1.0
endloop
endfacet
facet normal -0.0 -0.0 1.0
outer loop
vertex 40.35 8.50000000000001 1.0
vertex 38.2990381056767 4.24999999999999 1.0
vertex 38.4488887394336 3.88822856765378 1.0
endloop
endfacet
facet normal -0.0 -0.0 1.0
outer loop
vertex 40.35 8.50000000000001 1.0
vertex 38.4488887394336 3.88822856765378 1.0
vertex 38.5 3.49999999999999 1.0
endloop
endfacet
facet normal -0.0 -0.0 1.0
outer loop
vertex 40.35 8.50000000000001 1.0
vertex 38.5 3.49999999999999 1.0
vertex 40.35 0.0 1.0
endloop
endfacet
facet normal -0.0 -0.0 1.0
outer loop
vertex 33.65 31.5 1.0
vertex 35.7009618943234 35.75 1.0
vertex 33.6500000000001 40.0 1.0
endloop
endfacet
facet normal -0.0 -0.0 1.0
outer loop
vertex 35.7009618943234 35.75 1.0
vertex 33.65 31.5 1.0
vertex 35.9393398282202 35.4393398282202 1.0
endloop
endfacet
facet normal -0.0 -0.0 1.0
outer loop
vertex 35.9393398282202 35.4393398282202 1.0
vertex 33.65 31.5 1.0
vertex 40.3500000000001 31.5 1.0
endloop
endfacet
facet normal -0.0 -0.0 1.0
outer loop
vertex 33.6500000000001 40.0 1.0
vertex 35.7009618943234 35.75 1.0
vertex 35.5511112605664 36.1117714323462 1.0
endloop
endfacet
facet normal -0.0 -0.0 1.0
outer loop
vertex 33.6500000000001 40.0 1.0
vertex 35.5511112605664 36.1117714323462 1.0
vertex 35.5 36.5 1.0
endloop
endfacet
facet normal -0.0 -0.0 1.0
outer loop
vertex 35.9393398282202 35.4393398282202 1.0
vertex 40.3500000000001 31.5 1.0
vertex 36.25 35.2009618943233 1.0
endloop
endfacet
facet normal -0.0 -0.0 1.0
outer loop
vertex 36.25 35.2009618943233 1.0
vertex 40.3500000000001 31.5 1.0
vertex 36.6117714323463 35.0511112605664 1.0
endloop
endfacet
facet normal -0.0 -0.0 1.0
outer loop
vertex 36.6117714323463 35.0511112605664 1.0
vertex 40.3500000000001 31.5 1.0
vertex 37.0 35.0 1.0
endloop
endfacet
facet normal -0.0 -0.0 1.0
outer loop
vertex 37.0 35.0 1.0
vertex 40.3500000000001 31.5 1.0
vertex 37.3882285676538 35.0511112605664 1.0
endloop
endfacet
facet normal -0.0 -0.0 1.0
outer loop
vertex 37.3882285676538 35.0511112605664 1.0
vertex 40.3500000000001 31.5 1.0
vertex 37.75 35.2009618943233 1.0
endloop
endfacet
facet normal -0.0 -0.0 1.0
outer loop
vertex 37.75 35.2009618943233 1.0
vertex 40.3500000000001 31.5 1.0
vertex 38.0606601717799 35.4393398282202 1.0
endloop
endfacet
facet normal -0.0 -0.0 1.0
outer loop
vertex 38.0606601717799 35.4393398282202 1.0
vertex 40.3500000000001 31.5 1.0
vertex 38.2990381056767 35.75 1.0
endloop
endfacet
facet normal -0.0 -0.0 1.0
outer loop
vertex 38.2990381056767 35.75 1.0
vertex 40.3500000000001 31.5 1.0
vertex 38.4488887394336 36.1117714323462 1.0
endloop
endfacet
facet normal -0.0 -0.0 1.0
outer loop
vertex 38.4488887394336 36.1117714323462 1.0
vertex 40.3500000000001 31.5 1.0
vertex 38.5 36.5 1.0
endloop
endfacet
facet normal -0.0 -0.0 1.0
outer loop
vertex 33.6500000000001 40.0 1.0
vertex 36.25 37.7990381056767 1.0
vertex 40.3500000000001 40.0 1.0
endloop
endfacet
facet normal -0.0 -0.0 1.0
outer loop
vertex 36.25 37.7990381056767 1.0
vertex 33.6500000000001 40.0 1.0
vertex 35.9393398282202 37.5606601717798 1.0
endloop
endfacet
facet normal -0.0 -0.0 1.0
outer loop
vertex 35.9393398282202 37.5606601717798 1.0
vertex 33.6500000000001 40.0 1.0
vertex 35.7009618943234 37.25 1.0
endloop
endfacet
facet normal -0.0 -0.0 1.0
outer loop
vertex 35.7009618943234 37.25 1.0
vertex 33.6500000000001 40.0 1.0
vertex 35.5511112605664 36.8882285676538 1.0
endloop
endfacet
facet normal -0.0 -0.0 1.0
outer loop
vertex 35.5511112605664 36.8882285676538 1.0
vertex 33.6500000000001 40.0 1.0
vertex 35.5 36.5 1.0
endloop
endfacet
facet normal -0.0 -0.0 1.0
outer loop
vertex 40.3500000000001 40.0 1.0
vertex 36.25 37.7990381056767 1.0
vertex 36.6117714323463 37.9488887394336 1.0
endloop
endfacet
facet normal -0.0 -0.0 1.0
outer loop
vertex 40.3500000000001 40.0 1.0
vertex 36.6117714323463 37.9488887394336 1.0
vertex 37.0 38.0 1.0
endloop
endfacet
facet normal -0.0 -0.0 1.0
outer loop
vertex 40.3500000000001 40.0 1.0
vertex 37.0 38.0 1.0
vertex 37.3882285676538 37.9488887394336 1.0
endloop
endfacet
facet normal -0.0 -0.0 1.0
outer loop
vertex 40.3500000000001 40.0 1.0
vertex 37.3882285676538 37.9488887394336 1.0
vertex 37.75 37.7990381056767 1.0
endloop
endfacet
facet normal -0.0 -0.0 1.0
outer loop
vertex 40.3500000000001 40.0 1.0
vertex 37.75 37.7990381056767 1.0
vertex 38.0606601717799 37.5606601717798 1.0
endloop
endfacet
facet normal -0.0 -0.0 1.0
outer loop
vertex 40.3500000000001 40.0 1.0
vertex 38.0606601717799 37.5606601717798 1.0
vertex 38.2990381056767 37.25 1.0
endloop
endfacet
facet normal -0.0 -0.0 1.0
outer loop
vertex 40.3500000000001 40.0 1.0
vertex 38.2990381056767 37.25 1.0
vertex 38.4488887394336 36.8882285676538 1.0
endloop
endfacet
facet normal -0.0 -0.0 1.0
outer loop
vertex 40.3500000000001 40.0 1.0
vertex 38.4488887394336 36.8882285676538 1.0
vertex 38.5 36.5 1.0
endloop
endfacet
facet normal -0.0 -0.0 1.0
outer loop
vertex 40.3500000000001 40.0 1.0
vertex 38.5 36.5 1.0
vertex 40.3500000000001 31.5 1.0
endloop
endfacet
facet normal -0.0 -0.0 1.0
outer loop
vertex 9.65000000000005 31.5 1.0
vertex 11.7009618943234 35.75 1.0
vertex 9.65000000000007 40.0 1.0
endloop
endfacet
facet normal -0.0 -0.0 1.0
outer loop
vertex 11.7009618943234 35.75 1.0
vertex 9.65000000000005 31.5 1.0
vertex 11.9393398282202 35.4393398282202 1.0
endloop
endfacet
facet normal -0.0 -0.0 1.0
outer loop
vertex 11.9393398282202 35.4393398282202 1.0
vertex 9.65000000000005 31.5 1.0
vertex 16.3500000000001 31.5 1.0
endloop
endfacet
facet normal -0.0 -0.0 1.0
outer loop
vertex 9.65000000000007 40.0 1.0
vertex 11.7009618943234 35.75 1.0
vertex 11.5511112605664 36.1117714323462 1.0
endloop
endfacet
facet normal -0.0 -0.0 1.0
outer loop
vertex 9.65000000000007 40.0 1.0
vertex 11.5511112605664 36.1117714323462 1.0
vertex 11.5 36.5 1.0
endloop
endfacet
facet normal -0.0 -0.0 1.0
outer loop
vertex 11.9393398282202 35.4393398282202 1.0
vertex 16.3500000000001 31.5 1.0
vertex 12.25 35.2009618943233 1.0
endloop
endfacet
facet normal -0.0 -0.0 1.0
outer loop
vertex 12.25 35.2009618943233 1.0
vertex 16.3500000000001 31.5 1.0
vertex 12.6117714323462 35.0511112605664 1.0
endloop
endfacet
facet normal -0.0 -0.0 1.0
outer loop
vertex 12.6117714323462 35.0511112605664 1.0
vertex 16.3500000000001 31.5 1.0
vertex 13.0 35.0 1.0
endloop
endfacet
facet normal -0.0 -0.0 1.0
outer loop
vertex 13.0 35.0 1.0
vertex 16.3500000000001 31.5 1.0
vertex 13.3882285676538 35.0511112605664 1.0
endloop
endfacet
facet normal -0.0 -0.0 1.0
outer loop
vertex 13.3882285676538 35.0511112605664 1.0
vertex 16.3500000000001 31.5 1.0
vertex 13.75 35.2009618943233 1.0
endloop
endfacet
facet normal -0.0 -0.0 1.0
outer loop
vertex 13.75 35.2009618943233 1.0
vertex 16.3500000000001 31.5 1.0
vertex 14.0606601717798 35.4393398282202 1.0
endloop
endfacet
facet normal -0.0 -0.0 1.0
outer loop
vertex 14.0606601717798 35.4393398282202 1.0
vertex 16.3500000000001 31.5 1.0
vertex 14.2990381056767 35.75 1.0
endloop
endfacet
facet normal -0.0 -0.0 1.0
outer loop
vertex 14.2990381056767 35.75 1.0
vertex 16.3500000000001 31.5 1.0
vertex 14.4488887394336 36.1117714323462 1.0
endloop
endfacet
facet normal -0.0 -0.0 1.0
outer loop
vertex 14.4488887394336 36.1117714323462 1.0
vertex 16.3500000000001 31.5 1.0
vertex 14.5 36.5 1.0
endloop
endfacet
facet normal -0.0 -0.0 1.0
outer loop
vertex 9.65000000000007 40.0 1.0
vertex 12.25 37.7990381056767 1.0
vertex 16.3500000000001 40.0 1.0
endloop
endfacet
facet normal -0.0 -0.0 1.0
outer loop
vertex 12.25 37.7990381056767 1.0
vertex 9.65000000000007 40.0 1.0
vertex 11.9393398282202 37.5606601717798 1.0
endloop
endfacet
facet normal -0.0 -0.0 1.0
outer loop
vertex 11.9393398282202 37.5606601717798 1.0
vertex 9.65000000000007 40.0 1.0
vertex 11.7009618943233 37.25 1.0
endloop
endfacet
facet normal -0.0 -0.0 1.0
outer loop
vertex 11.7009618943233 37.25 1.0
vertex 9.65000000000007 40.0 1.0
vertex 11.5511112605664 36.8882285676538 1.0
endloop
endfacet
facet normal -0.0 -0.0 1.0
outer loop
vertex 11.5511112605664 36.8882285676538 1.0
vertex 9.65000000000007 40.0 1.0
vertex 11.5 36.5 1.0
endloop
endfacet
facet normal -0.0 -0.0 1.0
outer loop
vertex 16.3500000000001 40.0 1.0
vertex 12.25 37.7990381056767 1.0
vertex 12.6117714323462 37.9488887394336 1.0
endloop
endfacet
facet normal -0.0 -0.0 1.0
outer loop
vertex 16.3500000000001 40.0 1.0
vertex 12.6117714323462 37.9488887394336 1.0
vertex 13.0 38.0 1.0
endloop
endfacet
facet normal -0.0 -0.0 1.0
outer loop
vertex 16.3500000000001 40.0 1.0
vertex 13.0 38.0 1.0
vertex 13.3882285676538 37.9488887394336 1.0
endloop
endfacet
facet normal -0.0 -0.0 1.0
outer loop
vertex 16.3500000000001 40.0 1.0
vertex 13.3882285676538 37.9488887394336 1.0
vertex 13.75 37.7990381056767 1.0
endloop
endfacet
facet normal -0.0 -0.0 1.0
outer loop
vertex 16.3500000000001 40.0 1.0
vertex 13.75 37.7990381056767 1.0
vertex 14.0606601717798 37.5606601717798 1.0
endloop
endfacet
facet normal -0.0 -0.0 1.0
outer loop
vertex 16.3500000000001 40.0 1.0
vertex 14.0606601717798 37.5606601717798 1.0
vertex 14.2990381056767 37.25 1.0
endloop
endfacet
facet normal -0.0 -0.0 1.0
outer loop
vertex 16.3500000000001 40.0 1.0
vertex 14.2990381056767 37.25 1.0
vertex 14.4488887394336 36.8882285676538 1.0
endloop
endfacet
facet normal -0.0 -0.0 1.0
outer loop
vertex 16.3500000000001 40.0 1.0
vertex 14.4488887394336 36.8882285676538 1.0
vertex 14.5 36.5 1.0
endloop
endfacet
facet normal -0.0 -0.0 1.0
outer loop
vertex 16.3500000000001 40.0 1.0
vertex 14.5 36.5 1.0
vertex 16.3500000000001 31.5 1.0
endloop
endfacet
facet normal 0.0 0.0 1.0
outer loop
vertex 3.0 0.0 2.0
vertex 6.5 8.50000000000001 2.0
vertex 3.0 40.0 2.0
endloop
endfacet
facet normal 0.0 0.0 1.0
outer loop
vertex 6.5 8.50000000000001 2.0
vertex 3.0 0.0 2.0
vertex 9.65 0.0 2.0
endloop
endfacet
facet normal 0.0 0.0 1.0
outer loop
vertex 6.5 8.50000000000001 2.0
vertex 9.65 0.0 2.0
vertex 9.65000000000001 8.50000000000001 2.0
endloop
endfacet
facet normal 0.0 0.0 1.0
outer loop
vertex 3.0 40.0 2.0
vertex 6.5 31.5 2.0
vertex 9.65000000000007 40.0 2.0
endloop
endfacet
facet normal 0.0 0.0 1.0
outer loop
vertex 6.5 31.5 2.0
vertex 3.0 40.0 2.0
vertex 6.5 8.50000000000001 2.0
endloop
endfacet
facet normal 0.0 0.0 1.0
outer loop
vertex 9.65000000000007 40.0 2.0
vertex 6.5 31.5 2.0
vertex 9.65000000000005 31.5 2.0
endloop
endfacet
facet normal 1.0 -1.65880381326347e-015 0.0
outer loop
vertex 9.65000000000007 40.0 1.0
vertex 9.65000000000005 31.5 2.0
vertex 9.65000000000005 31.5 1.0
endloop
endfacet
facet normal 1.0 -1.65880381326347e-015 0.0
outer loop
vertex 9.65000000000005 31.5 2.0
vertex 9.65000000000007 40.0 1.0
vertex 9.65000000000007 40.0 2.0
endloop
endfacet
facet normal 1.0 -4.9764114397904e-016 0.0
outer loop
vertex 9.65000000000001 8.50000000000001 1.0
vertex 9.65 0.0 2.0
vertex 9.65 0.0 1.0
endloop
endfacet
facet normal 1.0 -4.9764114397904e-016 0.0
outer loop
vertex 9.65 0.0 2.0
vertex 9.65000000000001 8.50000000000001 1.0
vertex 9.65000000000001 8.50000000000001 2.0
endloop
endfacet
facet normal 0.0 0.0 1.0
outer loop
vertex 47.0 0.0 2.0
vertex 40.35 8.50000000000001 2.0
vertex 40.35 0.0 2.0
endloop
endfacet
facet normal 0.0 0.0 1.0
outer loop
vertex 40.35 8.50000000000001 2.0
vertex 47.0 0.0 2.0
vertex 43.5 8.50000000000001 2.0
endloop
endfacet
facet normal 0.0 0.0 1.0
outer loop
vertex 43.5 8.50000000000001 2.0
vertex 47.0 0.0 2.0
vertex 43.5 31.5 2.0
endloop
endfacet
facet normal 0.0 0.0 1.0
outer loop
vertex 43.5 31.5 2.0
vertex 40.3500000000001 40.0 2.0
vertex 40.3500000000001 31.5 2.0
endloop
endfacet
facet normal 0.0 0.0 1.0
outer loop
vertex 40.3500000000001 40.0 2.0
vertex 43.5 31.5 2.0
vertex 47.0 40.0 2.0
endloop
endfacet
facet normal 0.0 0.0 1.0
outer loop
vertex 47.0 40.0 2.0
vertex 43.5 31.5 2.0
vertex 47.0 0.0 2.0
endloop
endfacet
facet normal -1.0 1.99056457591616e-015 0.0
outer loop
vertex 40.3500000000001 40.0 2.0
vertex 40.3500000000001 31.5 1.0
vertex 40.3500000000001 31.5 2.0
endloop
endfacet
facet normal -1.0 1.99056457591616e-015 0.0
outer loop
vertex 40.3500000000001 31.5 1.0
vertex 40.3500000000001 40.0 2.0
vertex 40.3500000000001 40.0 1.0
endloop
endfacet
facet normal -1.0 2.65408610122155e-015 0.0
outer loop
vertex 40.35 8.50000000000001 2.0
vertex 40.35 0.0 1.0
vertex 40.35 0.0 2.0
endloop
endfacet
facet normal -1.0 2.65408610122155e-015 0.0
outer loop
vertex 40.35 0.0 1.0
vertex 40.35 8.50000000000001 2.0
vertex 40.35 8.50000000000001 1.0
endloop
endfacet
facet normal -1.0 1.65880381326347e-015 0.0
outer loop
vertex 16.3500000000001 40.0 2.0
vertex 16.3500000000001 31.5 1.0
vertex 16.3500000000001 31.5 2.0
endloop
endfacet
facet normal -1.0 1.65880381326347e-015 0.0
outer loop
vertex 16.3500000000001 31.5 1.0
vertex 16.3500000000001 40.0 2.0
vertex 16.3500000000001 40.0 1.0
endloop
endfacet
facet normal 1.0 -7.29873677835927e-015 0.0
outer loop
vertex 33.6500000000001 40.0 1.0
vertex 33.65 31.5 2.0
vertex 33.65 31.5 1.0
endloop
endfacet
facet normal 1.0 -7.29873677835927e-015 0.0
outer loop
vertex 33.65 31.5 2.0
vertex 33.6500000000001 40.0 1.0
vertex 33.6500000000001 40.0 2.0
endloop
endfacet
facet normal -0.0 -0.0 1.0
outer loop
vertex 19.8500000000001 31.5 2.0
vertex 16.3500000000001 40.0 2.0
vertex 16.3500000000001 31.5 2.0
endloop
endfacet
facet normal -0.0 -0.0 1.0
outer loop
vertex 16.3500000000001 40.0 2.0
vertex 19.8500000000001 31.5 2.0
vertex 19.8500000000001 40.0 2.0
endloop
endfacet
facet normal -0.0 -0.0 1.0
outer loop
vertex 33.65 31.5 2.0
vertex 30.15 40.0 2.0
vertex 30.15 31.5 2.0
endloop
endfacet
facet normal -0.0 -0.0 1.0
outer loop
vertex 30.15 40.0 2.0
vertex 33.65 31.5 2.0
vertex 33.6500000000001 40.0 2.0
endloop
endfacet
facet normal -1.0 0.0 0.0
outer loop
vertex 30.15 40.0 2.0
vertex 30.15 31.5 0.0
vertex 30.15 31.5 2.0
endloop
endfacet
facet normal -1.0 0.0 0.0
outer loop
vertex 30.15 31.5 0.0
vertex 30.15 40.0 2.0
vertex 30.15 40.0 0.0
endloop
endfacet
facet normal 1.0 -0.0 -0.0
outer loop
vertex 19.8500000000001 40.0 0.0
vertex 19.8500000000001 31.5 2.0
vertex 19.8500000000001 31.5 0.0
endloop
endfacet
facet normal 1.0 -0.0 -0.0
outer loop
vertex 19.8500000000001 31.5 2.0
vertex 19.8500000000001 40.0 0.0
vertex 19.8500000000001 40.0 2.0
endloop
endfacet
facet normal -0.0 1.0 -0.0
outer loop
vertex 3.0 40.0 0.0
vertex 9.65000000000007 40.0 1.0
vertex 19.8500000000001 40.0 0.0
endloop
endfacet
facet normal -0.0 1.0 -0.0
outer loop
vertex 9.65000000000007 40.0 1.0
vertex 3.0 40.0 0.0
vertex 3.0 40.0 2.0
endloop
endfacet
facet normal -0.0 1.0 -0.0
outer loop
vertex 9.65000000000007 40.0 1.0
vertex 3.0 40.0 2.0
vertex 9.65000000000007 40.0 2.0
endloop
endfacet
facet normal -0.0 1.0 -0.0
outer loop
vertex 19.8500000000001 40.0 0.0
vertex 16.3500000000001 40.0 1.0
vertex 19.8500000000001 40.0 2.0
endloop
endfacet
facet normal -0.0 1.0 -0.0
outer loop
vertex 16.3500000000001 40.0 1.0
vertex 19.8500000000001 40.0 0.0
vertex 9.65000000000007 40.0 1.0
endloop
endfacet
facet normal -0.0 1.0 -0.0
outer loop
vertex 19.8500000000001 40.0 2.0
vertex 16.3500000000001 40.0 1.0
vertex 16.3500000000001 40.0 2.0
endloop
endfacet
facet normal 0.0 -1.0 0.0
outer loop
vertex 43.5 31.5 2.0
vertex 40.3500000000001 31.5 1.0
vertex 43.5 31.5 2.50463337407671e-030
endloop
endfacet
facet normal 0.0 -1.0 0.0
outer loop
vertex 40.3500000000001 31.5 1.0
vertex 43.5 31.5 2.0
vertex 40.3500000000001 31.5 2.0
endloop
endfacet
facet normal 0.0 -1.0 0.0
outer loop
vertex 30.15 31.5 0.0
vertex 33.65 31.5 1.0
vertex 30.15 31.5 2.0
endloop
endfacet
facet normal 0.0 -1.0 0.0
outer loop
vertex 33.65 31.5 1.0
vertex 30.15 31.5 0.0
vertex 43.5 31.5 2.50463337407671e-030
endloop
endfacet
facet normal 0.0 -1.0 0.0
outer loop
vertex 33.65 31.5 1.0
vertex 43.5 31.5 2.50463337407671e-030
vertex 40.3500000000001 31.5 1.0
endloop
endfacet
facet normal 0.0 -1.0 0.0
outer loop
vertex 30.15 31.5 2.0
vertex 33.65 31.5 1.0
vertex 33.65 31.5 2.0
endloop
endfacet
facet normal -0.0 -0.0 1.0
outer loop
vertex 9.65 0.0 1.0
vertex 11.5511112605664 3.11177143234622 1.0
vertex 9.65000000000001 8.50000000000001 1.0
endloop
endfacet
facet normal -0.0 -0.0 1.0
outer loop
vertex 11.5511112605664 3.11177143234622 1.0
vertex 9.65 0.0 1.0
vertex 11.7009618943233 2.75 1.0
endloop
endfacet
facet normal -0.0 -0.0 1.0
outer loop
vertex 11.7009618943233 2.75 1.0
vertex 9.65 0.0 1.0
vertex 11.9393398282202 2.43933982822018 1.0
endloop
endfacet
facet normal -0.0 -0.0 1.0
outer loop
vertex 11.9393398282202 2.43933982822018 1.0
vertex 9.65 0.0 1.0
vertex 12.25 2.20096189432334 1.0
endloop
endfacet
facet normal -0.0 -0.0 1.0
outer loop
vertex 12.25 2.20096189432334 1.0
vertex 9.65 0.0 1.0
vertex 16.0 0.0 1.0
endloop
endfacet
facet normal -0.0 -0.0 1.0
outer loop
vertex 9.65000000000001 8.50000000000001 1.0
vertex 11.5511112605664 3.11177143234622 1.0
vertex 11.5 3.5 1.0
endloop
endfacet
facet normal -0.0 -0.0 1.0
outer loop
vertex 12.25 2.20096189432334 1.0
vertex 16.0 0.0 1.0
vertex 12.6117714323462 2.0511112605664 1.0
endloop
endfacet
facet normal -0.0 -0.0 1.0
outer loop
vertex 12.6117714323462 2.0511112605664 1.0
vertex 16.0 0.0 1.0
vertex 13.0 2.0 1.0
endloop
endfacet
facet normal -0.0 -0.0 1.0
outer loop
vertex 13.0 2.0 1.0
vertex 16.0 0.0 1.0
vertex 13.3882285676538 2.0511112605664 1.0
endloop
endfacet
facet normal -0.0 -0.0 1.0
outer loop
vertex 13.3882285676538 2.0511112605664 1.0
vertex 16.0 0.0 1.0
vertex 13.75 2.20096189432334 1.0
endloop
endfacet
facet normal -0.0 -0.0 1.0
outer loop
vertex 13.75 2.20096189432334 1.0
vertex 16.0 0.0 1.0
vertex 14.0606601717798 2.43933982822018 1.0
endloop
endfacet
facet normal -0.0 -0.0 1.0
outer loop
vertex 14.0606601717798 2.43933982822018 1.0
vertex 16.0 0.0 1.0
vertex 14.2990381056767 2.75 1.0
endloop
endfacet
facet normal -0.0 -0.0 1.0
outer loop
vertex 14.2990381056767 2.75 1.0
vertex 16.0 0.0 1.0
vertex 14.4488887394336 3.11177143234622 1.0
endloop
endfacet
facet normal -0.0 -0.0 1.0
outer loop
vertex 14.4488887394336 3.11177143234622 1.0
vertex 16.0 0.0 1.0
vertex 14.5 3.5 1.0
endloop
endfacet
facet normal -0.0 -0.0 1.0
outer loop
vertex 9.65000000000001 8.50000000000001 1.0
vertex 11.9393398282202 4.56066017177982 1.0
vertex 16.0 8.50000000000001 1.0
endloop
endfacet
facet normal -0.0 -0.0 1.0
outer loop
vertex 11.9393398282202 4.56066017177982 1.0
vertex 9.65000000000001 8.50000000000001 1.0
vertex 11.7009618943233 4.25 1.0
endloop
endfacet
facet normal -0.0 -0.0 1.0
outer loop
vertex 11.7009618943233 4.25 1.0
vertex 9.65000000000001 8.50000000000001 1.0
vertex 11.5511112605664 3.88822856765378 1.0
endloop
endfacet
facet normal -0.0 -0.0 1.0
outer loop
vertex 11.5511112605664 3.88822856765378 1.0
vertex 9.65000000000001 8.50000000000001 1.0
vertex 11.5 3.5 1.0
endloop
endfacet
facet normal -0.0 -0.0 1.0
outer loop
vertex 16.0 8.50000000000001 1.0
vertex 11.9393398282202 4.56066017177982 1.0
vertex 12.25 4.79903810567666 1.0
endloop
endfacet
facet normal -0.0 -0.0 1.0
outer loop
vertex 16.0 8.50000000000001 1.0
vertex 12.25 4.79903810567666 1.0
vertex 12.6117714323462 4.9488887394336 1.0
endloop
endfacet
facet normal -0.0 -0.0 1.0
outer loop
vertex 16.0 8.50000000000001 1.0
vertex 12.6117714323462 4.9488887394336 1.0
vertex 13.0 5.0 1.0
endloop
endfacet
facet normal -0.0 -0.0 1.0
outer loop
vertex 16.0 8.50000000000001 1.0
vertex 13.0 5.0 1.0
vertex 13.3882285676538 4.9488887394336 1.0
endloop
endfacet
facet normal -0.0 -0.0 1.0
outer loop
vertex 16.0 8.50000000000001 1.0
vertex 13.3882285676538 4.9488887394336 1.0
vertex 13.75 4.79903810567666 1.0
endloop
endfacet
facet normal -0.0 -0.0 1.0
outer loop
vertex 16.0 8.50000000000001 1.0
vertex 13.75 4.79903810567666 1.0
vertex 14.0606601717798 4.56066017177982 1.0
endloop
endfacet
facet normal -0.0 -0.0 1.0
outer loop
vertex 16.0 8.50000000000001 1.0
vertex 14.0606601717798 4.56066017177982 1.0
vertex 14.2990381056767 4.25 1.0
endloop
endfacet
facet normal -0.0 -0.0 1.0
outer loop
vertex 16.0 8.50000000000001 1.0
vertex 14.2990381056767 4.25 1.0
vertex 14.4488887394336 3.88822856765378 1.0
endloop
endfacet
facet normal -0.0 -0.0 1.0
outer loop
vertex 16.0 8.50000000000001 1.0
vertex 14.4488887394336 3.88822856765378 1.0
vertex 14.5 3.5 1.0
endloop
endfacet
facet normal -0.0 -0.0 1.0
outer loop
vertex 16.0 8.50000000000001 1.0
vertex 14.5 3.5 1.0
vertex 16.0 0.0 1.0
endloop
endfacet
facet normal -1.0 0.0 0.0
outer loop
vertex 34.0 8.50000000000001 1.0
vertex 34.0 0.0 0.0
vertex 34.0 0.0 1.0
endloop
endfacet
facet normal -1.0 0.0 0.0
outer loop
vertex 34.0 0.0 0.0
vertex 34.0 8.50000000000001 1.0
vertex 34.0 8.50000000000001 0.0
endloop
endfacet
facet normal -0.0 1.0 -0.0
outer loop
vertex 6.5 8.50000000000001 5.48611633035835e-017
vertex 9.65000000000001 8.50000000000001 1.0
vertex 16.0 8.50000000000001 5.28743715477731e-016
endloop
endfacet
facet normal -0.0 1.0 -0.0
outer loop
vertex 9.65000000000001 8.50000000000001 1.0
vertex 6.5 8.50000000000001 5.48611633035835e-017
vertex 6.5 8.50000000000001 2.0
endloop
endfacet
facet normal -0.0 1.0 -0.0
outer loop
vertex 9.65000000000001 8.50000000000001 1.0
vertex 6.5 8.50000000000001 2.0
vertex 9.65000000000001 8.50000000000001 2.0
endloop
endfacet
facet normal -0.0 1.0 -0.0
outer loop
vertex 16.0 8.50000000000001 1.0
vertex 16.0 8.50000000000001 5.28743715477731e-016
vertex 9.65000000000001 8.50000000000001 1.0
endloop
endfacet
facet normal 0.0 -1.0 0.0
outer loop
vertex 47.0 0.0 2.0
vertex 34.0 0.0 0.0
vertex 47.0 0.0 0.0
endloop
endfacet
facet normal 0.0 -1.0 0.0
outer loop
vertex 34.0 0.0 0.0
vertex 47.0 0.0 2.0
vertex 40.35 0.0 1.0
endloop
endfacet
facet normal 0.0 -1.0 0.0
outer loop
vertex 40.35 0.0 1.0
vertex 47.0 0.0 2.0
vertex 40.35 0.0 2.0
endloop
endfacet
facet normal 0.0 -1.0 0.0
outer loop
vertex 34.0 0.0 1.0
vertex 34.0 0.0 0.0
vertex 40.35 0.0 1.0
endloop
endfacet
facet normal 1.8669800801797e-017 -1.05434873498976e-017 -1.0
outer loop
vertex 3.0 40.0 0.0
vertex 6.5 31.5 2.50463337407671e-030
vertex 3.0 0.0 0.0
endloop
endfacet
facet normal 1.8669800801797e-017 -1.05434873498976e-017 -1.0
outer loop
vertex 6.5 31.5 2.50463337407671e-030
vertex 3.0 40.0 0.0
vertex 11.9393398282202 37.5606601717798 -9.17413686978746e-019
endloop
endfacet
facet normal 1.8669800801797e-017 -1.05434873498976e-017 -1.0
outer loop
vertex 11.9393398282202 37.5606601717798 -9.17413686978746e-019
vertex 3.0 40.0 0.0
vertex 12.25 37.7990381056767 -8.39095307505095e-019
endloop
endfacet
facet normal 1.8669800801797e-017 -1.05434873498976e-017 -1.0
outer loop
vertex 12.25 37.7990381056767 -8.39095307505095e-019
vertex 3.0 40.0 0.0
vertex 12.6117714323462 37.9488887394336 -7.03593969496026e-019
endloop
endfacet
facet normal 1.8669800801797e-017 -1.05434873498976e-017 -1.0
outer loop
vertex 12.6117714323462 37.9488887394336 -7.03593969496026e-019
vertex 3.0 40.0 0.0
vertex 19.8500000000001 40.0 0.0
endloop
endfacet
facet normal 1.8669800801797e-017 -1.05434873498976e-017 -1.0
outer loop
vertex 6.5 31.5 2.50463337407671e-030
vertex 11.9393398282202 37.5606601717798 -9.17413686978746e-019
vertex 11.7009618943233 37.25 -9.33211839779639e-019
endloop
endfacet
facet normal 1.8669800801797e-017 -1.05434873498976e-017 -1.0
outer loop
vertex 6.5 31.5 2.50463337407671e-030
vertex 11.7009618943233 37.25 -9.33211839779639e-019
vertex 11.5511112605664 36.8882285676538 -8.85413147906941e-019
endloop
endfacet
facet normal 1.8669800801797e-017 -1.05434873498976e-017 -1.0
outer loop
vertex 6.5 31.5 2.50463337407671e-030
vertex 11.5511112605664 36.8882285676538 -8.85413147906941e-019
vertex 11.5 36.5 -7.77275013219516e-019
endloop
endfacet
facet normal 1.8669800801797e-017 -1.05434873498976e-017 -1.0
outer loop
vertex 12.6117714323462 37.9488887394336 -7.03593969496026e-019
vertex 19.8500000000001 40.0 0.0
vertex 13.0 38.0 -5.20143865210956e-019
endloop
endfacet
facet normal 1.8669800801797e-017 -1.05434873498976e-017 -1.0
outer loop
vertex 13.0 38.0 -5.20143865210956e-019
vertex 19.8500000000001 40.0 0.0
vertex 13.3882285676538 37.9488887394336 -3.01246816090409e-019
endloop
endfacet
facet normal 1.8669800801797e-017 -1.05434873498976e-017 -1.0
outer loop
vertex 13.3882285676538 37.9488887394336 -3.01246816090409e-019
vertex 19.8500000000001 40.0 0.0
vertex 13.75 37.7990381056767 -6.1820294285579e-020
endloop
endfacet
facet normal 1.8669800801797e-017 -1.05434873498976e-017 -1.0
outer loop
vertex 13.75 37.7990381056767 -6.1820294285579e-020
vertex 19.8500000000001 40.0 0.0
vertex 14.0606601717798 37.5606601717798 1.81819178410915e-019
endloop
endfacet
facet normal 1.8669800801797e-017 -1.05434873498976e-017 -1.0
outer loop
vertex 14.0606601717798 37.5606601717798 1.81819178410915e-019
vertex 19.8500000000001 40.0 0.0
vertex 14.2990381056767 37.25 4.13067974568683e-019
endloop
endfacet
facet normal 1.8669800801797e-017 -1.05434873498976e-017 -1.0
outer loop
vertex 14.2990381056767 37.25 4.13067974568683e-019
vertex 19.8500000000001 40.0 0.0
vertex 14.4488887394336 36.8882285676538 6.16166870888337e-019
endloop
endfacet
facet normal 1.8669800801797e-017 -1.05434873498976e-017 -1.0
outer loop
vertex 14.4488887394336 36.8882285676538 6.16166870888337e-019
vertex 19.8500000000001 40.0 0.0
vertex 14.5 36.5 7.77275013222021e-019
endloop
endfacet
facet normal 1.8669800801797e-017 -1.05434873498976e-017 -1.0
outer loop
vertex 6.5 31.5 2.50463337407671e-030
vertex 12.25 35.2009618943233 6.1820294285579e-020
vertex 19.8500000000001 31.5 0.0
endloop
endfacet
facet normal 1.8669800801797e-017 -1.05434873498976e-017 -1.0
outer loop
vertex 12.25 35.2009618943233 6.1820294285579e-020
vertex 6.5 31.5 2.50463337407671e-030
vertex 11.9393398282202 35.4393398282202 -1.81819178410915e-019
endloop
endfacet
facet normal 1.8669800801797e-017 -1.05434873498976e-017 -1.0
outer loop
vertex 11.9393398282202 35.4393398282202 -1.81819178410915e-019
vertex 6.5 31.5 2.50463337407671e-030
vertex 11.7009618943234 35.75 -4.13067974568683e-019
endloop
endfacet
facet normal 1.8669800801797e-017 -1.05434873498976e-017 -1.0
outer loop
vertex 11.7009618943234 35.75 -4.13067974568683e-019
vertex 6.5 31.5 2.50463337407671e-030
vertex 11.5511112605664 36.1117714323462 -6.16166870888337e-019
endloop
endfacet
facet normal 1.8669800801797e-017 -1.05434873498976e-017 -1.0
outer loop
vertex 11.5511112605664 36.1117714323462 -6.16166870888337e-019
vertex 6.5 31.5 2.50463337407671e-030
vertex 11.5 36.5 -7.77275013219516e-019
endloop
endfacet
facet normal 1.8669800801797e-017 -1.05434873498976e-017 -1.0
outer loop
vertex 19.8500000000001 31.5 0.0
vertex 12.25 35.2009618943233 6.1820294285579e-020
vertex 12.6117714323462 35.0511112605664 3.01246816090409e-019
endloop
endfacet
facet normal 1.8669800801797e-017 -1.05434873498976e-017 -1.0
outer loop
vertex 19.8500000000001 31.5 0.0
vertex 12.6117714323462 35.0511112605664 3.01246816090409e-019
vertex 13.0 35.0 5.20143865210956e-019
endloop
endfacet
facet normal 1.8669800801797e-017 -1.05434873498976e-017 -1.0
outer loop
vertex 19.8500000000001 31.5 0.0
vertex 13.0 35.0 5.20143865210956e-019
vertex 13.3882285676538 35.0511112605664 7.03593969498531e-019
endloop
endfacet
facet normal 1.8669800801797e-017 -1.05434873498976e-017 -1.0
outer loop
vertex 19.8500000000001 31.5 0.0
vertex 13.3882285676538 35.0511112605664 7.03593969498531e-019
vertex 13.75 35.2009618943233 8.390953075076e-019
endloop
endfacet
facet normal 1.8669800801797e-017 -1.05434873498976e-017 -1.0
outer loop
vertex 19.8500000000001 31.5 0.0
vertex 13.75 35.2009618943233 8.390953075076e-019
vertex 14.0606601717798 35.4393398282202 9.17413686978746e-019
endloop
endfacet
facet normal 1.8669800801797e-017 -1.05434873498976e-017 -1.0
outer loop
vertex 19.8500000000001 31.5 0.0
vertex 14.0606601717798 35.4393398282202 9.17413686978746e-019
vertex 14.2990381056767 35.75 9.33211839782144e-019
endloop
endfacet
facet normal 1.8669800801797e-017 -1.05434873498976e-017 -1.0
outer loop
vertex 19.8500000000001 31.5 0.0
vertex 14.2990381056767 35.75 9.33211839782144e-019
vertex 14.4488887394336 36.1117714323462 8.85413147909446e-019
endloop
endfacet
facet normal 1.8669800801797e-017 -1.05434873498976e-017 -1.0
outer loop
vertex 19.8500000000001 31.5 0.0
vertex 14.4488887394336 36.1117714323462 8.85413147909446e-019
vertex 14.5 36.5 7.77275013222021e-019
endloop
endfacet
facet normal 1.8669800801797e-017 -1.05434873498976e-017 -1.0
outer loop
vertex 19.8500000000001 31.5 0.0
vertex 14.5 36.5 7.77275013222021e-019
vertex 19.8500000000001 40.0 0.0
endloop
endfacet
facet normal 1.8669800801797e-017 -1.05434873498976e-017 -1.0
outer loop
vertex 6.5 8.50000000000001 5.48611633035835e-017
vertex 11.5511112605664 3.88822856765378 5.98187356675985e-019
vertex 11.5 3.5 8.00091314979613e-019
endloop
endfacet
facet normal 1.8669800801797e-017 -1.05434873498976e-017 -1.0
outer loop
vertex 11.5511112605664 3.88822856765378 5.98187356675985e-019
vertex 6.5 8.50000000000001 5.48611633035835e-017
vertex 11.7009618943233 4.25 3.55517918561913e-019
endloop
endfacet
facet normal 1.8669800801797e-017 -1.05434873498976e-017 -1.0
outer loop
vertex 11.7009618943233 4.25 3.55517918561913e-019
vertex 6.5 8.50000000000001 5.48611633035835e-017
vertex 11.9393398282202 4.56066017177982 8.862052182145e-020
endloop
endfacet
facet normal 1.8669800801797e-017 -1.05434873498976e-017 -1.0
outer loop
vertex 11.9393398282202 4.56066017177982 8.862052182145e-020
vertex 6.5 8.50000000000001 5.48611633035835e-017
vertex 16.0 8.50000000000001 5.28743715477731e-016
endloop
endfacet
facet normal 1.8669800801797e-017 -1.05434873498976e-017 -1.0
outer loop
vertex 11.9393398282202 4.56066017177982 8.862052182145e-020
vertex 16.0 8.50000000000001 5.28743715477731e-016
vertex 12.25 4.79903810567666 -1.84316217025286e-019
endloop
endfacet
facet normal 1.8669800801797e-017 -1.05434873498976e-017 -1.0
outer loop
vertex 12.25 4.79903810567666 -1.84316217025286e-019
vertex 16.0 8.50000000000001 5.28743715477731e-016
vertex 12.6117714323462 4.9488887394336 -4.44692110283984e-019
endloop
endfacet
facet normal 1.8669800801797e-017 -1.05434873498976e-017 -1.0
outer loop
vertex 12.6117714323462 4.9488887394336 -4.44692110283984e-019
vertex 16.0 8.50000000000001 5.28743715477731e-016
vertex 13.0 5.0 -6.74762971114358e-019
endloop
endfacet
facet normal 1.8669800801797e-017 -1.05434873498976e-017 -1.0
outer loop
vertex 13.0 5.0 -6.74762971114358e-019
vertex 16.0 8.50000000000001 5.28743715477731e-016
vertex 13.3882285676538 4.9488887394336 -8.58849850558218e-019
endloop
endfacet
facet normal 1.8669800801797e-017 -1.05434873498976e-017 -1.0
outer loop
vertex 13.3882285676538 4.9488887394336 -8.58849850558218e-019
vertex 16.0 8.50000000000001 5.28743715477731e-016
vertex 13.75 4.79903810567666 -9.84407532004899e-019
endloop
endfacet
facet normal 1.8669800801797e-017 -1.05434873498976e-017 -1.0
outer loop
vertex 13.75 4.79903810567666 -9.84407532004899e-019
vertex 16.0 8.50000000000001 5.28743715477731e-016
vertex 14.0606601717798 4.56066017177982 -1.04287946695746e-018
endloop
endfacet
facet normal 1.8669800801797e-017 -1.05434873498976e-017 -1.0
outer loop
vertex 14.0606601717798 4.56066017177982 -1.04287946695746e-018
vertex 16.0 8.50000000000001 5.28743715477731e-016
vertex 14.2990381056767 4.25 -1.03028088967627e-018
endloop
endfacet
facet normal 1.8669800801797e-017 -1.05434873498976e-017 -1.0
outer loop
vertex 14.2990381056767 4.25 -1.03028088967627e-018
vertex 16.0 8.50000000000001 5.28743715477731e-016
vertex 14.4488887394336 3.88822856765378 -9.47470372379668e-019
endloop
endfacet
facet normal 1.8669800801797e-017 -1.05434873498976e-017 -1.0
outer loop
vertex 14.4488887394336 3.88822856765378 -9.47470372379668e-019
vertex 16.0 8.50000000000001 5.28743715477731e-016
vertex 14.5 3.5 -8.00091314979613e-019
endloop
endfacet
facet normal 1.8669800801797e-017 -1.05434873498976e-017 -1.0
outer loop
vertex 3.0 0.0 0.0
vertex 12.25 2.20096189432334 9.84407532007404e-019
vertex 16.0 0.0 5.28743715477731e-016
endloop
endfacet
facet normal 1.8669800801797e-017 -1.05434873498976e-017 -1.0
outer loop
vertex 12.25 2.20096189432334 9.84407532007404e-019
vertex 3.0 0.0 0.0
vertex 11.9393398282202 2.43933982822018 1.04287946695997e-018
endloop
endfacet
facet normal 1.8669800801797e-017 -1.05434873498976e-017 -1.0
outer loop
vertex 11.9393398282202 2.43933982822018 1.04287946695997e-018
vertex 3.0 0.0 0.0
vertex 6.5 8.50000000000001 5.48611633035835e-017
endloop
endfacet
facet normal 1.8669800801797e-017 -1.05434873498976e-017 -1.0
outer loop
vertex 6.5 8.50000000000001 5.48611633035835e-017
vertex 3.0 0.0 0.0
vertex 6.5 31.5 2.50463337407671e-030
endloop
endfacet
facet normal 1.8669800801797e-017 -1.05434873498976e-017 -1.0
outer loop
vertex 11.9393398282202 2.43933982822018 1.04287946695997e-018
vertex 6.5 8.50000000000001 5.48611633035835e-017
vertex 11.7009618943233 2.75 1.03028088967627e-018
endloop
endfacet
facet normal 1.8669800801797e-017 -1.05434873498976e-017 -1.0
outer loop
vertex 11.7009618943233 2.75 1.03028088967627e-018
vertex 6.5 8.50000000000001 5.48611633035835e-017
vertex 11.5511112605664 3.11177143234622 9.47470372384677e-019
endloop
endfacet
facet normal 1.8669800801797e-017 -1.05434873498976e-017 -1.0
outer loop
vertex 11.5511112605664 3.11177143234622 9.47470372384677e-019
vertex 6.5 8.50000000000001 5.48611633035835e-017
vertex 11.5 3.5 8.00091314979613e-019
endloop
endfacet
facet normal 1.8669800801797e-017 -1.05434873498976e-017 -1.0
outer loop
vertex 16.0 0.0 5.28743715477731e-016
vertex 12.25 2.20096189432334 9.84407532007404e-019
vertex 12.6117714323462 2.0511112605664 8.58849850560722e-019
endloop
endfacet
facet normal 1.8669800801797e-017 -1.05434873498976e-017 -1.0
outer loop
vertex 16.0 0.0 5.28743715477731e-016
vertex 12.6117714323462 2.0511112605664 8.58849850560722e-019
vertex 13.0 2.0 6.74762971114358e-019
endloop
endfacet
facet normal 1.8669800801797e-017 -1.05434873498976e-017 -1.0
outer loop
vertex 16.0 0.0 5.28743715477731e-016
vertex 13.0 2.0 6.74762971114358e-019
vertex 13.3882285676538 2.0511112605664 4.44692110283984e-019
endloop
endfacet
facet normal 1.8669800801797e-017 -1.05434873498976e-017 -1.0
outer loop
vertex 16.0 0.0 5.28743715477731e-016
vertex 13.3882285676538 2.0511112605664 4.44692110283984e-019
vertex 13.75 2.20096189432334 1.84316217030295e-019
endloop
endfacet
facet normal 1.8669800801797e-017 -1.05434873498976e-017 -1.0
outer loop
vertex 16.0 0.0 5.28743715477731e-016
vertex 13.75 2.20096189432334 1.84316217030295e-019
vertex 14.0606601717798 2.43933982822018 -8.862052182145e-020
endloop
endfacet
facet normal 1.8669800801797e-017 -1.05434873498976e-017 -1.0
outer loop
vertex 16.0 0.0 5.28743715477731e-016
vertex 14.0606601717798 2.43933982822018 -8.862052182145e-020
vertex 14.2990381056767 2.75 -3.55517918561913e-019
endloop
endfacet
facet normal 1.8669800801797e-017 -1.05434873498976e-017 -1.0
outer loop
vertex 16.0 0.0 5.28743715477731e-016
vertex 14.2990381056767 2.75 -3.55517918561913e-019
vertex 14.4488887394336 3.11177143234622 -5.9818735667348e-019
endloop
endfacet
facet normal 1.8669800801797e-017 -1.05434873498976e-017 -1.0
outer loop
vertex 16.0 0.0 5.28743715477731e-016
vertex 14.4488887394336 3.11177143234622 -5.9818735667348e-019
vertex 14.5 3.5 -8.00091314979613e-019
endloop
endfacet
facet normal 1.8669800801797e-017 -1.05434873498976e-017 -1.0
outer loop
vertex 16.0 0.0 5.28743715477731e-016
vertex 14.5 3.5 -8.00091314979613e-019
vertex 16.0 8.50000000000001 5.28743715477731e-016
endloop
endfacet
facet normal 1.0 -0.0 -0.0
outer loop
vertex 16.0 8.50000000000001 5.28743715477731e-016
vertex 16.0 0.0 1.0
vertex 16.0 0.0 5.28743715477731e-016
endloop
endfacet
facet normal 1.0 -0.0 -0.0
outer loop
vertex 16.0 0.0 1.0
vertex 16.0 8.50000000000001 5.28743715477731e-016
vertex 16.0 8.50000000000001 1.0
endloop
endfacet
endsolid motor-rod-cover
