solid movement-ir-interrupter-clip
facet normal -0.0 1.0 -0.0
outer loop
vertex -0.126321861527798 9.12006804012854 6.79999999999999
vertex 1.8736781384722 9.12006804012854 0.0
vertex -0.126321861527793 9.12006804012854 0.0
endloop
endfacet
facet normal -0.0 1.0 -0.0
outer loop
vertex 1.8736781384722 9.12006804012854 0.0
vertex -0.126321861527798 9.12006804012854 6.79999999999999
vertex 1.87367813847219 9.12006804012854 6.79999999999999
endloop
endfacet
facet normal 0.0 -0.866025403784437 -0.500000000000003
outer loop
vertex 1.87367813847219 6.9191061458052 4.14999999999999
vertex -0.126321861527796 7.06895677956215 3.78822856765377
vertex 1.8736781384722 7.06895677956215 3.78822856765377
endloop
endfacet
facet normal 8.89361030808522e-019 -0.965925826289069 -0.258819045102519
outer loop
vertex -0.126321861527796 7.06895677956215 3.78822856765377
vertex 1.87367813847219 6.9191061458052 4.14999999999999
vertex -0.126321861527797 6.9191061458052 4.14999999999999
endloop
endfacet
facet normal 0.0 -8.91110989564691e-016 -1.0
outer loop
vertex -0.126321861527797 5.62006804012854 4.89999999999999
vertex 1.87367813847219 5.23183947247476 4.84888873943359
vertex -0.126321861527798 5.23183947247476 4.84888873943359
endloop
endfacet
facet normal 0.0 0.258819045102523 -0.965925826289068
outer loop
vertex 1.87367813847219 5.23183947247476 4.84888873943359
vertex -0.126321861527797 5.62006804012854 4.89999999999999
vertex 1.87367813847219 5.62006804012854 4.89999999999999
endloop
endfacet
facet normal 1.0 1.92718232989792e-032 1.2441028599476e-015
outer loop
vertex 1.8736781384722 2.72006804012855 0.0
vertex 1.8736781384722 4.17117930069494 3.01177143234621
vertex 1.87367813847219 2.72006804012856 6.79999999999999
endloop
endfacet
facet normal 1.0 1.92718232989792e-032 1.2441028599476e-015
outer loop
vertex 1.8736781384722 4.17117930069494 3.01177143234621
vertex 1.8736781384722 2.72006804012855 0.0
vertex 1.8736781384722 4.32102993445189 2.64999999999999
endloop
endfacet
facet normal 1.0 1.92718232989792e-032 1.2441028599476e-015
outer loop
vertex 1.8736781384722 4.32102993445189 2.64999999999999
vertex 1.8736781384722 2.72006804012855 0.0
vertex 1.8736781384722 4.55940786834872 2.33933982822017
endloop
endfacet
facet normal 1.0 1.92718232989792e-032 1.2441028599476e-015
outer loop
vertex 1.8736781384722 4.55940786834872 2.33933982822017
vertex 1.8736781384722 2.72006804012855 0.0
vertex 1.8736781384722 4.87006804012855 2.10096189432333
endloop
endfacet
facet normal 1.0 1.92718232989792e-032 1.2441028599476e-015
outer loop
vertex 1.8736781384722 4.87006804012855 2.10096189432333
vertex 1.8736781384722 2.72006804012855 0.0
vertex 1.8736781384722 9.12006804012854 0.0
endloop
endfacet
facet normal 1.0 1.92718232989792e-032 1.2441028599476e-015
outer loop
vertex 1.87367813847219 2.72006804012856 6.79999999999999
vertex 1.8736781384722 4.17117930069494 3.01177143234621
vertex 1.8736781384722 4.12006804012854 3.39999999999999
endloop
endfacet
facet normal 1.0 1.92718232989792e-032 1.2441028599476e-015
outer loop
vertex 1.8736781384722 4.87006804012855 2.10096189432333
vertex 1.8736781384722 9.12006804012854 0.0
vertex 1.8736781384722 5.23183947247476 1.95111126056639
endloop
endfacet
facet normal 1.0 1.92718232989792e-032 1.2441028599476e-015
outer loop
vertex 1.8736781384722 5.23183947247476 1.95111126056639
vertex 1.8736781384722 9.12006804012854 0.0
vertex 1.8736781384722 5.62006804012854 1.89999999999999
endloop
endfacet
facet normal 1.0 1.92718232989792e-032 1.2441028599476e-015
outer loop
vertex 1.8736781384722 5.62006804012854 1.89999999999999
vertex 1.8736781384722 9.12006804012854 0.0
vertex 1.8736781384722 6.00829660778233 1.95111126056639
endloop
endfacet
facet normal 1.0 1.92718232989792e-032 1.2441028599476e-015
outer loop
vertex 1.8736781384722 6.00829660778233 1.95111126056639
vertex 1.8736781384722 9.12006804012854 0.0
vertex 1.8736781384722 6.37006804012854 2.10096189432333
endloop
endfacet
facet normal 1.0 1.92718232989792e-032 1.2441028599476e-015
outer loop
vertex 1.8736781384722 6.37006804012854 2.10096189432333
vertex 1.8736781384722 9.12006804012854 0.0
vertex 1.8736781384722 6.68072821190836 2.33933982822017
endloop
endfacet
facet normal 1.0 1.92718232989792e-032 1.2441028599476e-015
outer loop
vertex 1.8736781384722 6.68072821190836 2.33933982822017
vertex 1.8736781384722 9.12006804012854 0.0
vertex 1.8736781384722 6.9191061458052 2.64999999999999
endloop
endfacet
facet normal 1.0 1.92718232989792e-032 1.2441028599476e-015
outer loop
vertex 1.8736781384722 6.9191061458052 2.64999999999999
vertex 1.8736781384722 9.12006804012854 0.0
vertex 1.8736781384722 7.06895677956215 3.01177143234621
endloop
endfacet
facet normal 1.0 1.92718232989792e-032 1.2441028599476e-015
outer loop
vertex 1.8736781384722 7.06895677956215 3.01177143234621
vertex 1.8736781384722 9.12006804012854 0.0
vertex 1.8736781384722 7.12006804012854 3.39999999999999
endloop
endfacet
facet normal 1.0 1.92718232989792e-032 1.2441028599476e-015
outer loop
vertex 1.87367813847219 2.72006804012856 6.79999999999999
vertex 1.87367813847219 4.87006804012855 4.69903810567665
vertex 1.87367813847219 9.12006804012854 6.79999999999999
endloop
endfacet
facet normal 1.0 1.92718232989792e-032 1.2441028599476e-015
outer loop
vertex 1.87367813847219 4.87006804012855 4.69903810567665
vertex 1.87367813847219 2.72006804012856 6.79999999999999
vertex 1.87367813847219 4.55940786834872 4.46066017177981
endloop
endfacet
facet normal 1.0 1.92718232989792e-032 1.2441028599476e-015
outer loop
vertex 1.87367813847219 4.55940786834872 4.46066017177981
vertex 1.87367813847219 2.72006804012856 6.79999999999999
vertex 1.87367813847219 4.32102993445189 4.14999999999999
endloop
endfacet
facet normal 1.0 1.92718232989792e-032 1.2441028599476e-015
outer loop
vertex 1.87367813847219 4.32102993445189 4.14999999999999
vertex 1.87367813847219 2.72006804012856 6.79999999999999
vertex 1.8736781384722 4.17117930069494 3.78822856765377
endloop
endfacet
facet normal 1.0 1.92718232989792e-032 1.2441028599476e-015
outer loop
vertex 1.8736781384722 4.17117930069494 3.78822856765377
vertex 1.87367813847219 2.72006804012856 6.79999999999999
vertex 1.8736781384722 4.12006804012854 3.39999999999999
endloop
endfacet
facet normal 1.0 1.92718232989792e-032 1.2441028599476e-015
outer loop
vertex 1.87367813847219 9.12006804012854 6.79999999999999
vertex 1.87367813847219 4.87006804012855 4.69903810567665
vertex 1.87367813847219 5.23183947247476 4.84888873943359
endloop
endfacet
facet normal 1.0 1.92718232989792e-032 1.2441028599476e-015
outer loop
vertex 1.87367813847219 9.12006804012854 6.79999999999999
vertex 1.87367813847219 5.23183947247476 4.84888873943359
vertex 1.87367813847219 5.62006804012854 4.89999999999999
endloop
endfacet
facet normal 1.0 1.92718232989792e-032 1.2441028599476e-015
outer loop
vertex 1.87367813847219 9.12006804012854 6.79999999999999
vertex 1.87367813847219 5.62006804012854 4.89999999999999
vertex 1.87367813847219 6.00829660778232 4.84888873943359
endloop
endfacet
facet normal 1.0 1.92718232989792e-032 1.2441028599476e-015
outer loop
vertex 1.87367813847219 9.12006804012854 6.79999999999999
vertex 1.87367813847219 6.00829660778232 4.84888873943359
vertex 1.87367813847219 6.37006804012854 4.69903810567665
endloop
endfacet
facet normal 1.0 1.92718232989792e-032 1.2441028599476e-015
outer loop
vertex 1.87367813847219 9.12006804012854 6.79999999999999
vertex 1.87367813847219 6.37006804012854 4.69903810567665
vertex 1.87367813847219 6.68072821190836 4.46066017177981
endloop
endfacet
facet normal 1.0 1.92718232989792e-032 1.2441028599476e-015
outer loop
vertex 1.87367813847219 9.12006804012854 6.79999999999999
vertex 1.87367813847219 6.68072821190836 4.46066017177981
vertex 1.87367813847219 6.9191061458052 4.14999999999999
endloop
endfacet
facet normal 1.0 1.92718232989792e-032 1.2441028599476e-015
outer loop
vertex 1.87367813847219 9.12006804012854 6.79999999999999
vertex 1.87367813847219 6.9191061458052 4.14999999999999
vertex 1.8736781384722 7.06895677956215 3.78822856765377
endloop
endfacet
facet normal 1.0 1.92718232989792e-032 1.2441028599476e-015
outer loop
vertex 1.87367813847219 9.12006804012854 6.79999999999999
vertex 1.8736781384722 7.06895677956215 3.78822856765377
vertex 1.8736781384722 7.12006804012854 3.39999999999999
endloop
endfacet
facet normal 1.0 1.92718232989792e-032 1.2441028599476e-015
outer loop
vertex 1.87367813847219 9.12006804012854 6.79999999999999
vertex 1.8736781384722 7.12006804012854 3.39999999999999
vertex 1.8736781384722 9.12006804012854 0.0
endloop
endfacet
facet normal 0.0 -1.0 0.0
outer loop
vertex 1.8736781384722 -9.47993195987143 2.8199664825479e-015
vertex -0.126321861527798 -9.47993195987143 6.79999999999999
vertex -0.126321861527793 -9.47993195987143 0.0
endloop
endfacet
facet normal 0.0 -1.0 0.0
outer loop
vertex -0.126321861527798 -9.47993195987143 6.79999999999999
vertex 1.8736781384722 -9.47993195987143 2.8199664825479e-015
vertex 1.87367813847219 -9.47993195987143 6.79999999999999
endloop
endfacet
facet normal 1.0 2.20309881449055e-016 1.03675238328967e-015
outer loop
vertex 1.8736781384722 -9.47993195987143 2.8199664825479e-015
vertex 1.8736781384722 -7.27897006554811 2.64999999999999
vertex 1.87367813847219 -9.47993195987143 6.79999999999999
endloop
endfacet
facet normal 1.0 2.20309881449055e-016 1.03675238328967e-015
outer loop
vertex 1.8736781384722 -7.27897006554811 2.64999999999999
vertex 1.8736781384722 -9.47993195987143 2.8199664825479e-015
vertex 1.8736781384722 -7.04059213165127 2.33933982822017
endloop
endfacet
facet normal 1.0 2.20309881449055e-016 1.03675238328967e-015
outer loop
vertex 1.8736781384722 -7.04059213165127 2.33933982822017
vertex 1.8736781384722 -9.47993195987143 2.8199664825479e-015
vertex 1.8736781384722 -6.72993195987145 2.10096189432333
endloop
endfacet
facet normal 1.0 2.20309881449055e-016 1.03675238328967e-015
outer loop
vertex 1.8736781384722 -6.72993195987145 2.10096189432333
vertex 1.8736781384722 -9.47993195987143 2.8199664825479e-015
vertex 1.8736781384722 -3.07993195987145 2.8199664825479e-015
endloop
endfacet
facet normal 1.0 2.20309881449055e-016 1.03675238328967e-015
outer loop
vertex 1.87367813847219 -9.47993195987143 6.79999999999999
vertex 1.8736781384722 -7.27897006554811 2.64999999999999
vertex 1.8736781384722 -7.42882069930505 3.01177143234621
endloop
endfacet
facet normal 1.0 2.20309881449055e-016 1.03675238328967e-015
outer loop
vertex 1.87367813847219 -9.47993195987143 6.79999999999999
vertex 1.8736781384722 -7.42882069930505 3.01177143234621
vertex 1.8736781384722 -7.47993195987145 3.39999999999999
endloop
endfacet
facet normal 1.0 2.20309881449055e-016 1.03675238328967e-015
outer loop
vertex 1.8736781384722 -6.72993195987145 2.10096189432333
vertex 1.8736781384722 -3.07993195987145 2.8199664825479e-015
vertex 1.8736781384722 -6.36816052752523 1.95111126056639
endloop
endfacet
facet normal 1.0 2.20309881449055e-016 1.03675238328967e-015
outer loop
vertex 1.8736781384722 -6.36816052752523 1.95111126056639
vertex 1.8736781384722 -3.07993195987145 2.8199664825479e-015
vertex 1.8736781384722 -5.97993195987145 1.89999999999999
endloop
endfacet
facet normal 1.0 2.20309881449055e-016 1.03675238328967e-015
outer loop
vertex 1.8736781384722 -5.97993195987145 1.89999999999999
vertex 1.8736781384722 -3.07993195987145 2.8199664825479e-015
vertex 1.8736781384722 -5.59170339221767 1.95111126056639
endloop
endfacet
facet normal 1.0 2.20309881449055e-016 1.03675238328967e-015
outer loop
vertex 1.8736781384722 -5.59170339221767 1.95111126056639
vertex 1.8736781384722 -3.07993195987145 2.8199664825479e-015
vertex 1.8736781384722 -5.22993195987145 2.10096189432333
endloop
endfacet
facet normal 1.0 2.20309881449055e-016 1.03675238328967e-015
outer loop
vertex 1.8736781384722 -5.22993195987145 2.10096189432333
vertex 1.8736781384722 -3.07993195987145 2.8199664825479e-015
vertex 1.8736781384722 -4.91927178809163 2.33933982822017
endloop
endfacet
facet normal 1.0 2.20309881449055e-016 1.03675238328967e-015
outer loop
vertex 1.8736781384722 -4.91927178809163 2.33933982822017
vertex 1.8736781384722 -3.07993195987145 2.8199664825479e-015
vertex 1.8736781384722 -4.68089385419479 2.64999999999999
endloop
endfacet
facet normal 1.0 2.20309881449055e-016 1.03675238328967e-015
outer loop
vertex 1.8736781384722 -4.68089385419479 2.64999999999999
vertex 1.8736781384722 -3.07993195987145 2.8199664825479e-015
vertex 1.8736781384722 -4.53104322043785 3.01177143234621
endloop
endfacet
facet normal 1.0 2.20309881449055e-016 1.03675238328967e-015
outer loop
vertex 1.8736781384722 -4.53104322043785 3.01177143234621
vertex 1.8736781384722 -3.07993195987145 2.8199664825479e-015
vertex 1.8736781384722 -4.47993195987145 3.39999999999999
endloop
endfacet
facet normal 1.0 2.20309881449055e-016 1.03675238328967e-015
outer loop
vertex 1.87367813847219 -9.47993195987143 6.79999999999999
vertex 1.87367813847219 -6.72993195987145 4.69903810567665
vertex 1.87367813847219 -3.07993195987145 6.79999999999999
endloop
endfacet
facet normal 1.0 2.20309881449055e-016 1.03675238328967e-015
outer loop
vertex 1.87367813847219 -6.72993195987145 4.69903810567665
vertex 1.87367813847219 -9.47993195987143 6.79999999999999
vertex 1.8736781384722 -7.04059213165127 4.46066017177981
endloop
endfacet
facet normal 1.0 2.20309881449055e-016 1.03675238328967e-015
outer loop
vertex 1.8736781384722 -7.04059213165127 4.46066017177981
vertex 1.87367813847219 -9.47993195987143 6.79999999999999
vertex 1.8736781384722 -7.27897006554811 4.14999999999999
endloop
endfacet
facet normal 1.0 2.20309881449055e-016 1.03675238328967e-015
outer loop
vertex 1.8736781384722 -7.27897006554811 4.14999999999999
vertex 1.87367813847219 -9.47993195987143 6.79999999999999
vertex 1.8736781384722 -7.42882069930505 3.78822856765377
endloop
endfacet
facet normal 1.0 2.20309881449055e-016 1.03675238328967e-015
outer loop
vertex 1.8736781384722 -7.42882069930505 3.78822856765377
vertex 1.87367813847219 -9.47993195987143 6.79999999999999
vertex 1.8736781384722 -7.47993195987145 3.39999999999999
endloop
endfacet
facet normal 1.0 2.20309881449055e-016 1.03675238328967e-015
outer loop
vertex 1.87367813847219 -3.07993195987145 6.79999999999999
vertex 1.87367813847219 -6.72993195987145 4.69903810567665
vertex 1.87367813847219 -6.36816052752523 4.84888873943359
endloop
endfacet
facet normal 1.0 2.20309881449055e-016 1.03675238328967e-015
outer loop
vertex 1.87367813847219 -3.07993195987145 6.79999999999999
vertex 1.87367813847219 -6.36816052752523 4.84888873943359
vertex 1.87367813847219 -5.97993195987145 4.89999999999999
endloop
endfacet
facet normal 1.0 2.20309881449055e-016 1.03675238328967e-015
outer loop
vertex 1.87367813847219 -3.07993195987145 6.79999999999999
vertex 1.87367813847219 -5.97993195987145 4.89999999999999
vertex 1.87367813847219 -5.59170339221767 4.84888873943359
endloop
endfacet
facet normal 1.0 2.20309881449055e-016 1.03675238328967e-015
outer loop
vertex 1.87367813847219 -3.07993195987145 6.79999999999999
vertex 1.87367813847219 -5.59170339221767 4.84888873943359
vertex 1.87367813847219 -5.22993195987145 4.69903810567665
endloop
endfacet
facet normal 1.0 2.20309881449055e-016 1.03675238328967e-015
outer loop
vertex 1.87367813847219 -3.07993195987145 6.79999999999999
vertex 1.87367813847219 -5.22993195987145 4.69903810567665
vertex 1.87367813847219 -4.91927178809163 4.46066017177981
endloop
endfacet
facet normal 1.0 2.20309881449055e-016 1.03675238328967e-015
outer loop
vertex 1.87367813847219 -3.07993195987145 6.79999999999999
vertex 1.87367813847219 -4.91927178809163 4.46066017177981
vertex 1.8736781384722 -4.68089385419479 4.14999999999999
endloop
endfacet
facet normal 1.0 2.20309881449055e-016 1.03675238328967e-015
outer loop
vertex 1.87367813847219 -3.07993195987145 6.79999999999999
vertex 1.8736781384722 -4.68089385419479 4.14999999999999
vertex 1.8736781384722 -4.53104322043785 3.78822856765377
endloop
endfacet
facet normal 1.0 2.20309881449055e-016 1.03675238328967e-015
outer loop
vertex 1.87367813847219 -3.07993195987145 6.79999999999999
vertex 1.8736781384722 -4.53104322043785 3.78822856765377
vertex 1.8736781384722 -4.47993195987145 3.39999999999999
endloop
endfacet
facet normal 1.0 2.20309881449055e-016 1.03675238328967e-015
outer loop
vertex 1.87367813847219 -3.07993195987145 6.79999999999999
vertex 1.8736781384722 -4.47993195987145 3.39999999999999
vertex 1.8736781384722 -3.07993195987145 2.8199664825479e-015
endloop
endfacet
facet normal 8.89361030808523e-019 -0.965925826289069 -0.258819045102519
outer loop
vertex 1.8736781384722 7.06895677956215 3.78822856765377
vertex -0.126321861527796 7.12006804012854 3.39999999999999
vertex 1.8736781384722 7.12006804012854 3.39999999999999
endloop
endfacet
facet normal 8.08220732712598e-019 -1.0 2.13866637495525e-016
outer loop
vertex -0.126321861527796 7.12006804012854 3.39999999999999
vertex 1.8736781384722 7.06895677956215 3.78822856765377
vertex -0.126321861527796 7.06895677956215 3.78822856765377
endloop
endfacet
facet normal 0.0 0.500000000000001 -0.866025403784438
outer loop
vertex -0.126321861527798 4.87006804012855 4.69903810567665
vertex 1.87367813847219 4.55940786834872 4.46066017177981
vertex -0.126321861527798 4.55940786834872 4.46066017177981
endloop
endfacet
facet normal 0.0 0.707106781186546 -0.707106781186549
outer loop
vertex 1.87367813847219 4.55940786834872 4.46066017177981
vertex -0.126321861527798 4.87006804012855 4.69903810567665
vertex 1.87367813847219 4.87006804012855 4.69903810567665
endloop
endfacet
facet normal 0.0 -0.258819045102521 -0.965925826289068
outer loop
vertex -0.126321861527797 6.00829660778232 4.84888873943359
vertex 1.87367813847219 5.62006804012854 4.89999999999999
vertex -0.126321861527797 5.62006804012854 4.89999999999999
endloop
endfacet
facet normal 0.0 -9.26755429147278e-016 -1.0
outer loop
vertex 1.87367813847219 5.62006804012854 4.89999999999999
vertex -0.126321861527797 6.00829660778232 4.84888873943359
vertex 1.87367813847219 6.00829660778232 4.84888873943359
endloop
endfacet
facet normal 0.0 -0.707106781186547 -0.707106781186548
outer loop
vertex 1.87367813847219 6.68072821190836 4.46066017177981
vertex -0.126321861527797 6.9191061458052 4.14999999999999
vertex 1.87367813847219 6.9191061458052 4.14999999999999
endloop
endfacet
facet normal 0.0 -0.866025403784437 -0.500000000000003
outer loop
vertex -0.126321861527797 6.9191061458052 4.14999999999999
vertex 1.87367813847219 6.68072821190836 4.46066017177981
vertex -0.126321861527797 6.68072821190836 4.46066017177981
endloop
endfacet
facet normal 0.0 0.258819045102523 -0.965925826289068
outer loop
vertex -0.126321861527798 5.23183947247476 4.84888873943359
vertex 1.87367813847219 4.87006804012855 4.69903810567665
vertex -0.126321861527798 4.87006804012855 4.69903810567665
endloop
endfacet
facet normal 0.0 0.500000000000001 -0.866025403784438
outer loop
vertex 1.87367813847219 4.87006804012855 4.69903810567665
vertex -0.126321861527798 5.23183947247476 4.84888873943359
vertex 1.87367813847219 5.23183947247476 4.84888873943359
endloop
endfacet
facet normal 0.0 -0.500000000000001 -0.866025403784438
outer loop
vertex -0.126321861527797 6.37006804012854 4.69903810567665
vertex 1.87367813847219 6.00829660778232 4.84888873943359
vertex -0.126321861527797 6.00829660778232 4.84888873943359
endloop
endfacet
facet normal 0.0 -0.258819045102521 -0.965925826289068
outer loop
vertex 1.87367813847219 6.00829660778232 4.84888873943359
vertex -0.126321861527797 6.37006804012854 4.69903810567665
vertex 1.87367813847219 6.37006804012854 4.69903810567665
endloop
endfacet
facet normal -1.38545490686472e-018 0.866025403527113 0.500000000445701
outer loop
vertex -0.126321888790979 -7.27897006554811 2.64999999999999
vertex 1.8736781384722 -7.04059213165127 2.33933982822017
vertex -0.126321891743752 -7.04059213165127 2.33933982822017
endloop
endfacet
facet normal -1.38545490144877e-018 0.707106781186549 0.707106781186546
outer loop
vertex 1.8736781384722 -7.04059213165127 2.33933982822017
vertex -0.126321888790979 -7.27897006554811 2.64999999999999
vertex 1.8736781384722 -7.27897006554811 2.64999999999999
endloop
endfacet
facet normal -1.38545489378945e-018 0.707106780671899 0.707106781701196
outer loop
vertex -0.126321891743752 -7.04059213165127 2.33933982822017
vertex 1.8736781384722 -6.72993195987145 2.10096189432333
vertex -0.126321895591881 -6.72993195987145 2.10096189432333
endloop
endfacet
facet normal 0.0 0.499999999999999 0.866025403784439
outer loop
vertex 1.8736781384722 -6.72993195987145 2.10096189432333
vertex -0.126321891743752 -7.04059213165127 2.33933982822017
vertex 1.8736781384722 -7.04059213165127 2.33933982822017
endloop
endfacet
facet normal -2.32548463959481e-017 -1.0 4.09911055199758e-016
outer loop
vertex 1.8736781384722 -4.47993195987145 3.39999999999999
vertex -0.126321922829386 -4.53104322043785 3.01177143234621
vertex 1.8736781384722 -4.53104322043785 3.01177143234621
endloop
endfacet
facet normal -1.63739461671747e-016 -0.965925826358018 0.258819044845195
outer loop
vertex -0.126321922829386 -4.53104322043785 3.01177143234621
vertex 1.8736781384722 -4.47993195987145 3.39999999999999
vertex -0.126321923462498 -4.47993195987145 3.39999999999999
endloop
endfacet
facet normal -9.17977989161114e-017 -0.258819046062872 0.965925826031743
outer loop
vertex -0.126321909691051 -5.59170339221767 1.95111126056639
vertex 1.8736781384722 -5.22993195987145 2.10096189432333
vertex -0.126321914172292 -5.22993195987145 2.10096189432333
endloop
endfacet
facet normal -1.77490988690658e-016 -0.5 0.866025403784439
outer loop
vertex 1.8736781384722 -5.22993195987145 2.10096189432333
vertex -0.126321909691051 -5.59170339221767 1.95111126056639
vertex 1.8736781384722 -5.59170339221767 1.95111126056639
endloop
endfacet
facet normal -3.0565275741536e-016 -0.86602540378444 0.499999999999999
outer loop
vertex 1.8736781384722 -4.68089385419479 2.64999999999999
vertex -0.126321918020421 -4.91927178809163 2.33933982822017
vertex 1.8736781384722 -4.91927178809163 2.33933982822017
endloop
endfacet
facet normal -2.50396001013413e-016 -0.707106781701198 0.707106780671898
outer loop
vertex -0.126321918020421 -4.91927178809163 2.33933982822017
vertex 1.8736781384722 -4.68089385419479 2.64999999999999
vertex -0.126321920973195 -4.68089385419479 2.64999999999999
endloop
endfacet
facet normal -1.5929541776448e-016 0.965925826220119 -0.258819045359845
outer loop
vertex -0.126321886934789 -7.42882069930505 3.78822856765378
vertex 1.8736781384722 -7.27897006554811 4.14999999999999
vertex 1.8736781384722 -7.42882069930505 3.78822856765377
endloop
endfacet
facet normal -3.54024377472651e-016 0.866025403784438 -0.5
outer loop
vertex 1.8736781384722 -7.27897006554811 4.14999999999999
vertex -0.126321886934789 -7.42882069930505 3.78822856765378
vertex -0.12632188879098 -7.27897006554811 4.14999999999999
endloop
endfacet
facet normal -1.0903677307871e-015 -0.5 -0.866025403784439
outer loop
vertex 1.87367813847219 -5.22993195987145 4.69903810567665
vertex -0.126321909691052 -5.59170339221767 4.8488887394336
vertex -0.126321914172293 -5.22993195987145 4.69903810567665
endloop
endfacet
facet normal -9.60515763066317e-016 -0.25881904606287 -0.965925826031743
outer loop
vertex -0.126321909691052 -5.59170339221767 4.8488887394336
vertex 1.87367813847219 -5.22993195987145 4.69903810567665
vertex 1.87367813847219 -5.59170339221767 4.84888873943359
endloop
endfacet
facet normal -9.60515761839993e-016 -0.258819045102521 -0.965925826289068
outer loop
vertex 1.87367813847219 -5.59170339221767 4.84888873943359
vertex -0.126321904882088 -5.97993195987145 4.89999999999999
vertex -0.126321909691052 -5.59170339221767 4.8488887394336
endloop
endfacet
facet normal -7.29063136755947e-016 -1.02930012429364e-009 -1.0
outer loop
vertex -0.126321904882088 -5.97993195987145 4.89999999999999
vertex 1.87367813847219 -5.59170339221767 4.84888873943359
vertex 1.87367813847219 -5.97993195987145 4.89999999999999
endloop
endfacet
facet normal 1.0 -0.0 -0.0
outer loop
vertex 3.87367813847219 2.72006804012856 5.63993296509579e-015
vertex 3.87367813847219 -3.07993195987145 6.79999999999999
vertex 3.87367813847219 -3.07993195987145 5.63993296509579e-015
endloop
endfacet
facet normal 1.0 -0.0 -0.0
outer loop
vertex 3.87367813847219 -3.07993195987145 6.79999999999999
vertex 3.87367813847219 2.72006804012856 5.63993296509579e-015
vertex 3.87367813847219 2.72006804012856 6.79999999999999
endloop
endfacet
facet normal -4.92764444654872e-016 -0.866025403784439 -0.5
outer loop
vertex 1.8736781384722 -4.68089385419479 4.14999999999999
vertex -0.126321922829386 -4.53104322043785 3.78822856765378
vertex 1.8736781384722 -4.53104322043785 3.78822856765377
endloop
endfacet
facet normal -1.58482749647862e-016 -0.965925826358018 -0.258819044845196
outer loop
vertex -0.126321922829386 -4.53104322043785 3.78822856765378
vertex 1.8736781384722 -4.68089385419479 4.14999999999999
vertex -0.126321920973196 -4.68089385419479 4.14999999999999
endloop
endfacet
facet normal -8.86686015052279e-016 -0.707106781186548 -0.707106781186547
outer loop
vertex 1.87367813847219 -4.91927178809163 4.46066017177981
vertex -0.126321914172293 -5.22993195987145 4.69903810567665
vertex -0.126321918020422 -4.91927178809163 4.46066017177982
endloop
endfacet
facet normal -1.09036773056681e-015 -0.500000000771974 -0.866025403338739
outer loop
vertex -0.126321914172293 -5.22993195987145 4.69903810567665
vertex 1.87367813847219 -4.91927178809163 4.46066017177981
vertex 1.87367813847219 -5.22993195987145 4.69903810567665
endloop
endfacet
facet normal -7.29063136215964e-016 -2.5842218697376e-016 -1.0
outer loop
vertex 1.87367813847219 -5.97993195987145 4.89999999999999
vertex -0.126321900073124 -6.36816052752523 4.8488887394336
vertex -0.126321904882088 -5.97993195987145 4.89999999999999
endloop
endfacet
facet normal -8.21914678269762e-016 0.258819044142171 -0.965925826546393
outer loop
vertex -0.126321900073124 -6.36816052752523 4.8488887394336
vertex 1.87367813847219 -5.97993195987145 4.89999999999999
vertex 1.87367813847219 -6.36816052752523 4.84888873943359
endloop
endfacet
facet normal -8.21914679492552e-016 0.258819045102521 -0.965925826289068
outer loop
vertex 1.87367813847219 -6.36816052752523 4.84888873943359
vertex -0.126321895591883 -6.72993195987145 4.69903810567665
vertex -0.126321900073124 -6.36816052752523 4.8488887394336
endloop
endfacet
facet normal -9.13459985565448e-016 0.499999999228025 -0.866025404230139
outer loop
vertex -0.126321895591883 -6.72993195987145 4.69903810567665
vertex 1.87367813847219 -6.36816052752523 4.84888873943359
vertex 1.87367813847219 -6.72993195987145 4.69903810567665
endloop
endfacet
facet normal 0.0 0.499999999228024 0.866025404230139
outer loop
vertex -0.126321895591881 -6.72993195987145 2.10096189432333
vertex 1.8736781384722 -6.36816052752523 1.95111126056639
vertex -0.126321900073123 -6.36816052752523 1.95111126056639
endloop
endfacet
facet normal 2.30221808478522e-017 0.258819045102519 0.965925826289069
outer loop
vertex 1.8736781384722 -6.36816052752523 1.95111126056639
vertex -0.126321895591881 -6.72993195987145 2.10096189432333
vertex 1.8736781384722 -6.72993195987145 2.10096189432333
endloop
endfacet
facet normal -1.77490988961085e-016 -0.500000000771975 0.866025403338739
outer loop
vertex -0.126321914172292 -5.22993195987145 2.10096189432333
vertex 1.8736781384722 -4.91927178809163 2.33933982822017
vertex -0.126321918020421 -4.91927178809163 2.33933982822017
endloop
endfacet
facet normal -2.50396000831169e-016 -0.707106781186548 0.707106781186547
outer loop
vertex 1.8736781384722 -4.91927178809163 2.33933982822017
vertex -0.126321914172292 -5.22993195987145 2.10096189432333
vertex 1.8736781384722 -5.22993195987145 2.10096189432333
endloop
endfacet
facet normal 0.0 -0.707106781186547 -0.707106781186548
outer loop
vertex -0.126321861527797 6.68072821190836 4.46066017177981
vertex 1.87367813847219 6.37006804012854 4.69903810567665
vertex -0.126321861527797 6.37006804012854 4.69903810567665
endloop
endfacet
facet normal 0.0 -0.500000000000001 -0.866025403784438
outer loop
vertex 1.87367813847219 6.37006804012854 4.69903810567665
vertex -0.126321861527797 6.68072821190836 4.46066017177981
vertex 1.87367813847219 6.68072821190836 4.46066017177981
endloop
endfacet
facet normal 0.0 0.965925826220118 0.258819045359845
outer loop
vertex -0.126321886934789 -7.42882069930505 3.01177143234621
vertex 1.8736781384722 -7.27897006554811 2.64999999999999
vertex -0.126321888790979 -7.27897006554811 2.64999999999999
endloop
endfacet
facet normal -1.38545490144877e-018 0.866025403784438 0.500000000000001
outer loop
vertex 1.8736781384722 -7.27897006554811 2.64999999999999
vertex -0.126321886934789 -7.42882069930505 3.01177143234621
vertex 1.8736781384722 -7.42882069930505 3.01177143234621
endloop
endfacet
facet normal -3.5402437779116e-016 0.866025403527113 -0.500000000445701
outer loop
vertex -0.12632188879098 -7.27897006554811 4.14999999999999
vertex 1.8736781384722 -7.04059213165127 4.46066017177981
vertex 1.8736781384722 -7.27897006554811 4.14999999999999
endloop
endfacet
facet normal -6.39294743217804e-016 0.707106781186548 -0.707106781186547
outer loop
vertex 1.8736781384722 -7.04059213165127 4.46066017177981
vertex -0.12632188879098 -7.27897006554811 4.14999999999999
vertex -0.126321891743753 -7.04059213165127 4.46066017177982
endloop
endfacet
facet normal -9.13459985088964e-016 0.5 -0.866025403784439
outer loop
vertex 1.87367813847219 -6.72993195987145 4.69903810567665
vertex -0.126321891743753 -7.04059213165127 4.46066017177982
vertex -0.126321895591883 -6.72993195987145 4.69903810567665
endloop
endfacet
facet normal -6.39294744344446e-016 0.707106780671898 -0.707106781701197
outer loop
vertex -0.126321891743753 -7.04059213165127 4.46066017177982
vertex 1.87367813847219 -6.72993195987145 4.69903810567665
vertex 1.8736781384722 -7.04059213165127 4.46066017177981
endloop
endfacet
facet normal 3.52495810318487e-016 -1.0 1.03675238328967e-016
outer loop
vertex 3.87367813847219 -3.07993195987145 5.63993296509579e-015
vertex 1.87367813847219 -3.07993195987145 6.79999999999999
vertex 1.8736781384722 -3.07993195987145 2.8199664825479e-015
endloop
endfacet
facet normal 3.52495810318487e-016 -1.0 1.03675238328967e-016
outer loop
vertex 1.87367813847219 -3.07993195987145 6.79999999999999
vertex 3.87367813847219 -3.07993195987145 5.63993296509579e-015
vertex 3.87367813847219 -3.07993195987145 6.79999999999999
endloop
endfacet
facet normal -1.5929541776448e-016 0.965925826220119 -0.258819045359845
outer loop
vertex -0.126321886934789 -7.42882069930505 3.78822856765378
vertex 1.8736781384722 -7.47993195987145 3.39999999999999
vertex -0.126321886301677 -7.47993195987145 3.39999999999999
endloop
endfacet
facet normal -2.30221808478508e-017 1.0 -1.78222197912938e-017
outer loop
vertex 1.8736781384722 -7.47993195987145 3.39999999999999
vertex -0.126321886934789 -7.42882069930505 3.78822856765378
vertex 1.8736781384722 -7.42882069930505 3.78822856765377
endloop
endfacet
facet normal -1.584827498735e-016 -0.965925826289068 -0.258819045102521
outer loop
vertex 1.8736781384722 -4.53104322043785 3.78822856765377
vertex -0.126321923462498 -4.47993195987145 3.39999999999999
vertex 1.8736781384722 -4.47993195987145 3.39999999999999
endloop
endfacet
facet normal -2.32548463959481e-017 -1.0 3.11888846668669e-016
outer loop
vertex -0.126321923462498 -4.47993195987145 3.39999999999999
vertex 1.8736781384722 -4.53104322043785 3.78822856765377
vertex -0.126321922829386 -4.53104322043785 3.78822856765378
endloop
endfacet
facet normal -3.59988908810217e-025 -1.02929950942706e-009 1.0
outer loop
vertex -0.126321904882087 -5.97993195987145 1.89999999999999
vertex 1.8736781384722 -5.59170339221767 1.95111126056639
vertex -0.126321909691051 -5.59170339221767 1.95111126056639
endloop
endfacet
facet normal -9.17977985705858e-017 -0.258819045102522 0.965925826289068
outer loop
vertex 1.8736781384722 -5.59170339221767 1.95111126056639
vertex -0.126321904882087 -5.97993195987145 1.89999999999999
vertex 1.8736781384722 -5.97993195987145 1.89999999999999
endloop
endfacet
facet normal -2.30221808478508e-017 1.0 -1.3366664829712e-016
outer loop
vertex -0.126321886301677 -7.47993195987145 3.39999999999999
vertex 1.8736781384722 -7.42882069930505 3.01177143234621
vertex -0.126321886934789 -7.42882069930505 3.01177143234621
endloop
endfacet
facet normal 0.0 0.965925826289069 0.25881904510252
outer loop
vertex 1.8736781384722 -7.42882069930505 3.01177143234621
vertex -0.126321886301677 -7.47993195987145 3.39999999999999
vertex 1.8736781384722 -7.47993195987145 3.39999999999999
endloop
endfacet
facet normal -1.6373946200402e-016 -0.965925826289068 0.25881904510252
outer loop
vertex 1.8736781384722 -4.53104322043785 3.01177143234621
vertex -0.126321920973195 -4.68089385419479 2.64999999999999
vertex 1.8736781384722 -4.68089385419479 2.64999999999999
endloop
endfacet
facet normal -3.05652757502501e-016 -0.866025404041765 0.499999999554299
outer loop
vertex -0.126321920973195 -4.68089385419479 2.64999999999999
vertex 1.8736781384722 -4.53104322043785 3.01177143234621
vertex -0.126321922829386 -4.53104322043785 3.01177143234621
endloop
endfacet
facet normal -8.86686015052279e-016 -0.707106781186548 -0.707106781186547
outer loop
vertex 1.87367813847219 -4.91927178809163 4.46066017177981
vertex -0.126321920973196 -4.68089385419479 4.14999999999999
vertex 1.8736781384722 -4.68089385419479 4.14999999999999
endloop
endfacet
facet normal -4.92764443784015e-016 -0.866025404041764 -0.4999999995543
outer loop
vertex -0.126321920973196 -4.68089385419479 4.14999999999999
vertex 1.87367813847219 -4.91927178809163 4.46066017177981
vertex -0.126321918020422 -4.91927178809163 4.46066017177982
endloop
endfacet
facet normal 2.30221810217135e-017 0.25881904414217 0.965925826546394
outer loop
vertex -0.126321900073123 -6.36816052752523 1.95111126056639
vertex 1.8736781384722 -5.97993195987145 1.89999999999999
vertex -0.126321904882087 -5.97993195987145 1.89999999999999
endloop
endfacet
facet normal 1.18719832573347e-031 3.47533285930229e-016 1.0
outer loop
vertex 1.8736781384722 -5.97993195987145 1.89999999999999
vertex -0.126321900073123 -6.36816052752523 1.95111126056639
vertex 1.8736781384722 -6.36816052752523 1.95111126056639
endloop
endfacet
facet normal 0.0 -0.500000000000003 0.866025403784437
outer loop
vertex 1.8736781384722 6.37006804012854 2.10096189432333
vertex -0.126321861527796 6.68072821190836 2.33933982822017
vertex -0.126321861527796 6.37006804012854 2.10096189432333
endloop
endfacet
facet normal 0.0 -0.707106781186547 0.707106781186548
outer loop
vertex -0.126321861527796 6.68072821190836 2.33933982822017
vertex 1.8736781384722 6.37006804012854 2.10096189432333
vertex 1.8736781384722 6.68072821190836 2.33933982822017
endloop
endfacet
facet normal 3.42889254557713e-019 0.965925826289069 -0.25881904510252
outer loop
vertex -0.126321861527798 4.17117930069494 3.78822856765377
vertex 1.8736781384722 4.12006804012854 3.39999999999999
vertex -0.126321861527797 4.12006804012854 3.39999999999999
endloop
endfacet
facet normal 2.32665739077535e-019 1.0 -1.69311088017291e-016
outer loop
vertex 1.8736781384722 4.12006804012854 3.39999999999999
vertex -0.126321861527798 4.17117930069494 3.78822856765377
vertex 1.8736781384722 4.17117930069494 3.78822856765377
endloop
endfacet
facet normal -5.19665567679609e-019 0.965925826289068 0.258819045102524
outer loop
vertex -0.126321861527797 4.17117930069494 3.01177143234621
vertex 1.8736781384722 4.32102993445189 2.64999999999999
vertex -0.126321861527797 4.32102993445189 2.64999999999999
endloop
endfacet
facet normal -4.0944205219943e-019 0.866025403784438 0.500000000000001
outer loop
vertex 1.8736781384722 4.32102993445189 2.64999999999999
vertex -0.126321861527797 4.17117930069494 3.01177143234621
vertex 1.8736781384722 4.17117930069494 3.01177143234621
endloop
endfacet
facet normal 0.0 0.707106781186546 -0.707106781186549
outer loop
vertex -0.126321861527798 4.55940786834872 4.46066017177981
vertex 1.87367813847219 4.32102993445189 4.14999999999999
vertex -0.126321861527798 4.32102993445189 4.14999999999999
endloop
endfacet
facet normal 0.0 0.866025403784439 -0.5
outer loop
vertex 1.87367813847219 4.32102993445189 4.14999999999999
vertex -0.126321861527798 4.55940786834872 4.46066017177981
vertex 1.87367813847219 4.55940786834872 4.46066017177981
endloop
endfacet
facet normal -4.09442052199431e-019 0.866025403784438 0.500000000000001
outer loop
vertex -0.126321861527797 4.32102993445189 2.64999999999999
vertex 1.8736781384722 4.55940786834872 2.33933982822017
vertex -0.126321861527797 4.55940786834872 2.33933982822017
endloop
endfacet
facet normal 0.0 0.707106781186549 0.707106781186546
outer loop
vertex 1.8736781384722 4.55940786834872 2.33933982822017
vertex -0.126321861527797 4.32102993445189 2.64999999999999
vertex 1.8736781384722 4.32102993445189 2.64999999999999
endloop
endfacet
facet normal 0.0 0.866025403784438 -0.5
outer loop
vertex -0.126321861527798 4.32102993445189 4.14999999999999
vertex 1.8736781384722 4.17117930069494 3.78822856765377
vertex -0.126321861527798 4.17117930069494 3.78822856765377
endloop
endfacet
facet normal 3.42889254557713e-019 0.965925826289069 -0.25881904510252
outer loop
vertex 1.8736781384722 4.17117930069494 3.78822856765377
vertex -0.126321861527798 4.32102993445189 4.14999999999999
vertex 1.87367813847219 4.32102993445189 4.14999999999999
endloop
endfacet
facet normal 2.32665739077536e-019 1.0 -2.76244406765054e-016
outer loop
vertex -0.126321861527797 4.12006804012854 3.39999999999999
vertex 1.8736781384722 4.17117930069494 3.01177143234621
vertex -0.126321861527797 4.17117930069494 3.01177143234621
endloop
endfacet
facet normal -5.19665567679609e-019 0.965925826289068 0.258819045102524
outer loop
vertex 1.8736781384722 4.17117930069494 3.01177143234621
vertex -0.126321861527797 4.12006804012854 3.39999999999999
vertex 1.8736781384722 4.12006804012854 3.39999999999999
endloop
endfacet
facet normal 0.0 0.258819045102522 0.965925826289068
outer loop
vertex 1.8736781384722 5.23183947247476 1.95111126056639
vertex -0.126321861527796 5.62006804012854 1.89999999999999
vertex -0.126321861527796 5.23183947247476 1.95111126056639
endloop
endfacet
facet normal 0.0 2.67333296869407e-017 1.0
outer loop
vertex -0.126321861527796 5.62006804012854 1.89999999999999
vertex 1.8736781384722 5.23183947247476 1.95111126056639
vertex 1.8736781384722 5.62006804012854 1.89999999999999
endloop
endfacet
facet normal 0.0 -0.258819045102523 0.965925826289068
outer loop
vertex 1.8736781384722 6.00829660778233 1.95111126056639
vertex -0.126321861527796 6.37006804012854 2.10096189432333
vertex -0.126321861527796 6.00829660778233 1.95111126056639
endloop
endfacet
facet normal 0.0 -0.500000000000003 0.866025403784437
outer loop
vertex -0.126321861527796 6.37006804012854 2.10096189432333
vertex 1.8736781384722 6.00829660778233 1.95111126056639
vertex 1.8736781384722 6.37006804012854 2.10096189432333
endloop
endfacet
facet normal 0.0 0.0 1.0
outer loop
vertex 1.8736781384722 5.62006804012854 1.89999999999999
vertex -0.126321861527796 6.00829660778233 1.95111126056639
vertex -0.126321861527796 5.62006804012854 1.89999999999999
endloop
endfacet
facet normal 0.0 -0.258819045102523 0.965925826289068
outer loop
vertex -0.126321861527796 6.00829660778233 1.95111126056639
vertex 1.8736781384722 5.62006804012854 1.89999999999999
vertex 1.8736781384722 6.00829660778233 1.95111126056639
endloop
endfacet
facet normal 0.0 0.707106781186549 0.707106781186546
outer loop
vertex 1.8736781384722 4.55940786834872 2.33933982822017
vertex -0.126321861527797 4.87006804012855 2.10096189432333
vertex -0.126321861527797 4.55940786834872 2.33933982822017
endloop
endfacet
facet normal 0.0 0.500000000000001 0.866025403784438
outer loop
vertex -0.126321861527797 4.87006804012855 2.10096189432333
vertex 1.8736781384722 4.55940786834872 2.33933982822017
vertex 1.8736781384722 4.87006804012855 2.10096189432333
endloop
endfacet
facet normal 0.0 0.500000000000001 0.866025403784438
outer loop
vertex 1.8736781384722 4.87006804012855 2.10096189432333
vertex -0.126321861527796 5.23183947247476 1.95111126056639
vertex -0.126321861527797 4.87006804012855 2.10096189432333
endloop
endfacet
facet normal 0.0 0.258819045102522 0.965925826289068
outer loop
vertex -0.126321861527796 5.23183947247476 1.95111126056639
vertex 1.8736781384722 4.87006804012855 2.10096189432333
vertex 1.8736781384722 5.23183947247476 1.95111126056639
endloop
endfacet
facet normal 8.08220732712597e-019 -1.0 3.11888846347641e-016
outer loop
vertex 1.8736781384722 7.12006804012854 3.39999999999999
vertex -0.126321861527796 7.06895677956215 3.01177143234621
vertex 1.8736781384722 7.06895677956215 3.01177143234621
endloop
endfacet
facet normal 1.19685950894377e-018 -0.965925826289069 0.258819045102519
outer loop
vertex -0.126321861527796 7.06895677956215 3.01177143234621
vertex 1.8736781384722 7.12006804012854 3.39999999999999
vertex -0.126321861527796 7.12006804012854 3.39999999999999
endloop
endfacet
facet normal 1.19685950894377e-018 -0.965925826289069 0.258819045102519
outer loop
vertex 1.8736781384722 7.06895677956215 3.01177143234621
vertex -0.126321861527796 6.9191061458052 2.64999999999999
vertex 1.8736781384722 6.9191061458052 2.64999999999999
endloop
endfacet
facet normal 1.27799980703969e-018 -0.866025403784437 0.500000000000003
outer loop
vertex -0.126321861527796 6.9191061458052 2.64999999999999
vertex 1.8736781384722 7.06895677956215 3.01177143234621
vertex -0.126321861527796 7.06895677956215 3.01177143234621
endloop
endfacet
facet normal -7.04991620636974e-016 1.0 -2.07350476657935e-016
outer loop
vertex 1.87367813847219 2.72006804012856 6.79999999999999
vertex 3.87367813847219 2.72006804012856 5.63993296509579e-015
vertex 1.8736781384722 2.72006804012855 0.0
endloop
endfacet
facet normal -7.04991620636974e-016 1.0 -2.07350476657935e-016
outer loop
vertex 3.87367813847219 2.72006804012856 5.63993296509579e-015
vertex 1.87367813847219 2.72006804012856 6.79999999999999
vertex 3.87367813847219 2.72006804012856 6.79999999999999
endloop
endfacet
facet normal 1.27799980703969e-018 -0.866025403784437 0.500000000000003
outer loop
vertex 1.8736781384722 6.9191061458052 2.64999999999999
vertex -0.126321861527796 6.68072821190836 2.33933982822017
vertex 1.8736781384722 6.68072821190836 2.33933982822017
endloop
endfacet
facet normal 0.0 -0.707106781186547 0.707106781186548
outer loop
vertex -0.126321861527796 6.68072821190836 2.33933982822017
vertex 1.8736781384722 6.9191061458052 2.64999999999999
vertex -0.126321861527796 6.9191061458052 2.64999999999999
endloop
endfacet
facet normal -2.40301040813836e-016 9.30940855344366e-017 1.0
outer loop
vertex 1.87367813847219 -9.47993195987143 6.79999999999999
vertex -0.126321861527798 -2.37993195987144 6.79999999999999
vertex -0.126321861527798 -9.47993195987143 6.79999999999999
endloop
endfacet
facet normal -2.40301040813836e-016 9.30940855344366e-017 1.0
outer loop
vertex -0.126321861527798 -2.37993195987144 6.79999999999999
vertex 1.87367813847219 -9.47993195987143 6.79999999999999
vertex 0.443080037697748 -2.30496877770739 6.79999999999999
endloop
endfacet
facet normal -2.40301040813836e-016 9.30940855344366e-017 1.0
outer loop
vertex 0.443080037697748 -2.30496877770739 6.79999999999999
vertex 1.87367813847219 -9.47993195987143 6.79999999999999
vertex 0.973678138472203 -2.08518784819721 6.79999999999999
endloop
endfacet
facet normal -2.40301040813836e-016 9.30940855344366e-017 1.0
outer loop
vertex 0.973678138472203 -2.08518784819721 6.79999999999999
vertex 1.87367813847219 -9.47993195987143 6.79999999999999
vertex 1.42931305708261 -1.73556687848185 6.79999999999999
endloop
endfacet
facet normal -2.40301040813836e-016 9.30940855344366e-017 1.0
outer loop
vertex 1.42931305708261 -1.73556687848185 6.79999999999999
vertex 1.87367813847219 -9.47993195987143 6.79999999999999
vertex 1.77893402679797 -1.27993195987144 6.79999999999999
endloop
endfacet
facet normal -2.40301040813836e-016 9.30940855344366e-017 1.0
outer loop
vertex 1.77893402679797 -1.27993195987144 6.79999999999999
vertex 1.87367813847219 -9.47993195987143 6.79999999999999
vertex 1.87367813847219 -3.07993195987145 6.79999999999999
endloop
endfacet
facet normal -2.40301040813836e-016 9.30940855344366e-017 1.0
outer loop
vertex 1.87367813847219 -3.07993195987145 6.79999999999999
vertex 1.99871495630815 -0.74933385909699 6.79999999999999
vertex 1.77893402679797 -1.27993195987144 6.79999999999999
endloop
endfacet
facet normal -2.40301040813836e-016 9.30940855344366e-017 1.0
outer loop
vertex 1.99871495630815 -0.74933385909699 6.79999999999999
vertex 1.87367813847219 -3.07993195987145 6.79999999999999
vertex 3.87367813847219 -3.07993195987145 6.79999999999999
endloop
endfacet
facet normal -2.40301040813836e-016 9.30940855344366e-017 1.0
outer loop
vertex 1.99871495630815 -0.74933385909699 6.79999999999999
vertex 3.87367813847219 -3.07993195987145 6.79999999999999
vertex 2.0736781384722 -0.179931959871444 6.79999999999999
endloop
endfacet
facet normal -2.40301040813836e-016 9.30940855344366e-017 1.0
outer loop
vertex 1.99871495630815 0.389469939354102 6.79999999999999
vertex 1.87367813847219 2.72006804012856 6.79999999999999
vertex 1.77893402679797 0.920068040128556 6.79999999999999
endloop
endfacet
facet normal -2.40301040813836e-016 9.30940855344366e-017 1.0
outer loop
vertex 1.87367813847219 2.72006804012856 6.79999999999999
vertex 1.99871495630815 0.389469939354102 6.79999999999999
vertex 3.87367813847219 2.72006804012856 6.79999999999999
endloop
endfacet
facet normal -2.40301040813836e-016 9.30940855344366e-017 1.0
outer loop
vertex 3.87367813847219 2.72006804012856 6.79999999999999
vertex 1.99871495630815 0.389469939354102 6.79999999999999
vertex 2.0736781384722 -0.179931959871444 6.79999999999999
endloop
endfacet
facet normal -2.40301040813836e-016 9.30940855344366e-017 1.0
outer loop
vertex 3.87367813847219 2.72006804012856 6.79999999999999
vertex 2.0736781384722 -0.179931959871444 6.79999999999999
vertex 3.87367813847219 -3.07993195987145 6.79999999999999
endloop
endfacet
facet normal -2.40301040813836e-016 9.30940855344366e-017 1.0
outer loop
vertex 0.443080037697747 1.94510485796451 6.79999999999999
vertex -0.126321861527798 9.12006804012854 6.79999999999999
vertex -0.126321861527798 2.02006804012856 6.79999999999999
endloop
endfacet
facet normal -2.40301040813836e-016 9.30940855344366e-017 1.0
outer loop
vertex -0.126321861527798 9.12006804012854 6.79999999999999
vertex 0.443080037697747 1.94510485796451 6.79999999999999
vertex 1.87367813847219 9.12006804012854 6.79999999999999
endloop
endfacet
facet normal -2.40301040813836e-016 9.30940855344366e-017 1.0
outer loop
vertex 1.87367813847219 9.12006804012854 6.79999999999999
vertex 0.443080037697747 1.94510485796451 6.79999999999999
vertex 0.973678138472202 1.72532392845432 6.79999999999999
endloop
endfacet
facet normal -2.40301040813836e-016 9.30940855344366e-017 1.0
outer loop
vertex 1.87367813847219 9.12006804012854 6.79999999999999
vertex 0.973678138472202 1.72532392845432 6.79999999999999
vertex 1.42931305708261 1.37570295873896 6.79999999999999
endloop
endfacet
facet normal -2.40301040813836e-016 9.30940855344366e-017 1.0
outer loop
vertex 1.87367813847219 9.12006804012854 6.79999999999999
vertex 1.42931305708261 1.37570295873896 6.79999999999999
vertex 1.77893402679797 0.920068040128556 6.79999999999999
endloop
endfacet
facet normal -2.40301040813836e-016 9.30940855344366e-017 1.0
outer loop
vertex 1.87367813847219 9.12006804012854 6.79999999999999
vertex 1.77893402679797 0.920068040128556 6.79999999999999
vertex 1.87367813847219 2.72006804012856 6.79999999999999
endloop
endfacet
facet normal -1.0 3.97178377823648e-016 -4.14700953315868e-016
outer loop
vertex -0.126321861527798 2.02006804012856 6.79999999999999
vertex -0.126321861527798 4.32102993445189 4.14999999999999
vertex -0.126321861527798 2.02006804012856 0.0
endloop
endfacet
facet normal -1.0 3.97178377823648e-016 -4.14700953315868e-016
outer loop
vertex -0.126321861527798 4.32102993445189 4.14999999999999
vertex -0.126321861527798 2.02006804012856 6.79999999999999
vertex -0.126321861527798 4.55940786834872 4.46066017177981
endloop
endfacet
facet normal -1.0 3.97178377823648e-016 -4.14700953315868e-016
outer loop
vertex -0.126321861527798 4.55940786834872 4.46066017177981
vertex -0.126321861527798 2.02006804012856 6.79999999999999
vertex -0.126321861527798 4.87006804012855 4.69903810567665
endloop
endfacet
facet normal -1.0 3.97178377823648e-016 -4.14700953315868e-016
outer loop
vertex -0.126321861527798 4.87006804012855 4.69903810567665
vertex -0.126321861527798 2.02006804012856 6.79999999999999
vertex -0.126321861527798 9.12006804012854 6.79999999999999
endloop
endfacet
facet normal -1.0 3.97178377823648e-016 -4.14700953315868e-016
outer loop
vertex -0.126321861527798 2.02006804012856 0.0
vertex -0.126321861527798 4.32102993445189 4.14999999999999
vertex -0.126321861527798 4.17117930069494 3.78822856765377
endloop
endfacet
facet normal -1.0 3.97178377823648e-016 -4.14700953315868e-016
outer loop
vertex -0.126321861527798 2.02006804012856 0.0
vertex -0.126321861527798 4.17117930069494 3.78822856765377
vertex -0.126321861527797 4.12006804012854 3.39999999999999
endloop
endfacet
facet normal -1.0 3.97178377823648e-016 -4.14700953315868e-016
outer loop
vertex -0.126321861527798 4.87006804012855 4.69903810567665
vertex -0.126321861527798 9.12006804012854 6.79999999999999
vertex -0.126321861527798 5.23183947247476 4.84888873943359
endloop
endfacet
facet normal -1.0 3.97178377823648e-016 -4.14700953315868e-016
outer loop
vertex -0.126321861527798 5.23183947247476 4.84888873943359
vertex -0.126321861527798 9.12006804012854 6.79999999999999
vertex -0.126321861527797 5.62006804012854 4.89999999999999
endloop
endfacet
facet normal -1.0 3.97178377823648e-016 -4.14700953315868e-016
outer loop
vertex -0.126321861527797 5.62006804012854 4.89999999999999
vertex -0.126321861527798 9.12006804012854 6.79999999999999
vertex -0.126321861527797 6.00829660778232 4.84888873943359
endloop
endfacet
facet normal -1.0 3.97178377823648e-016 -4.14700953315868e-016
outer loop
vertex -0.126321861527797 6.00829660778232 4.84888873943359
vertex -0.126321861527798 9.12006804012854 6.79999999999999
vertex -0.126321861527797 6.37006804012854 4.69903810567665
endloop
endfacet
facet normal -1.0 3.97178377823648e-016 -4.14700953315868e-016
outer loop
vertex -0.126321861527797 6.37006804012854 4.69903810567665
vertex -0.126321861527798 9.12006804012854 6.79999999999999
vertex -0.126321861527797 6.68072821190836 4.46066017177981
endloop
endfacet
facet normal -1.0 3.97178377823648e-016 -4.14700953315868e-016
outer loop
vertex -0.126321861527797 6.68072821190836 4.46066017177981
vertex -0.126321861527798 9.12006804012854 6.79999999999999
vertex -0.126321861527797 6.9191061458052 4.14999999999999
endloop
endfacet
facet normal -1.0 3.97178377823648e-016 -4.14700953315868e-016
outer loop
vertex -0.126321861527797 6.9191061458052 4.14999999999999
vertex -0.126321861527798 9.12006804012854 6.79999999999999
vertex -0.126321861527796 7.06895677956215 3.78822856765377
endloop
endfacet
facet normal -1.0 3.97178377823648e-016 -4.14700953315868e-016
outer loop
vertex -0.126321861527796 7.06895677956215 3.78822856765377
vertex -0.126321861527798 9.12006804012854 6.79999999999999
vertex -0.126321861527796 7.12006804012854 3.39999999999999
endloop
endfacet
facet normal -1.0 3.97178377823648e-016 -4.14700953315868e-016
outer loop
vertex -0.126321861527798 2.02006804012856 0.0
vertex -0.126321861527797 4.87006804012855 2.10096189432333
vertex -0.126321861527793 9.12006804012854 0.0
endloop
endfacet
facet normal -1.0 3.97178377823648e-016 -4.14700953315868e-016
outer loop
vertex -0.126321861527797 4.87006804012855 2.10096189432333
vertex -0.126321861527798 2.02006804012856 0.0
vertex -0.126321861527797 4.55940786834872 2.33933982822017
endloop
endfacet
facet normal -1.0 3.97178377823648e-016 -4.14700953315868e-016
outer loop
vertex -0.126321861527797 4.55940786834872 2.33933982822017
vertex -0.126321861527798 2.02006804012856 0.0
vertex -0.126321861527797 4.32102993445189 2.64999999999999
endloop
endfacet
facet normal -1.0 3.97178377823648e-016 -4.14700953315868e-016
outer loop
vertex -0.126321861527797 4.32102993445189 2.64999999999999
vertex -0.126321861527798 2.02006804012856 0.0
vertex -0.126321861527797 4.17117930069494 3.01177143234621
endloop
endfacet
facet normal -1.0 3.97178377823648e-016 -4.14700953315868e-016
outer loop
vertex -0.126321861527797 4.17117930069494 3.01177143234621
vertex -0.126321861527798 2.02006804012856 0.0
vertex -0.126321861527797 4.12006804012854 3.39999999999999
endloop
endfacet
facet normal -1.0 3.97178377823648e-016 -4.14700953315868e-016
outer loop
vertex -0.126321861527793 9.12006804012854 0.0
vertex -0.126321861527797 4.87006804012855 2.10096189432333
vertex -0.126321861527796 5.23183947247476 1.95111126056639
endloop
endfacet
facet normal -1.0 3.97178377823648e-016 -4.14700953315868e-016
outer loop
vertex -0.126321861527793 9.12006804012854 0.0
vertex -0.126321861527796 5.23183947247476 1.95111126056639
vertex -0.126321861527796 5.62006804012854 1.89999999999999
endloop
endfacet
facet normal -1.0 3.97178377823648e-016 -4.14700953315868e-016
outer loop
vertex -0.126321861527793 9.12006804012854 0.0
vertex -0.126321861527796 5.62006804012854 1.89999999999999
vertex -0.126321861527796 6.00829660778233 1.95111126056639
endloop
endfacet
facet normal -1.0 3.97178377823648e-016 -4.14700953315868e-016
outer loop
vertex -0.126321861527793 9.12006804012854 0.0
vertex -0.126321861527796 6.00829660778233 1.95111126056639
vertex -0.126321861527796 6.37006804012854 2.10096189432333
endloop
endfacet
facet normal -1.0 3.97178377823648e-016 -4.14700953315868e-016
outer loop
vertex -0.126321861527793 9.12006804012854 0.0
vertex -0.126321861527796 6.37006804012854 2.10096189432333
vertex -0.126321861527796 6.68072821190836 2.33933982822017
endloop
endfacet
facet normal -1.0 3.97178377823648e-016 -4.14700953315868e-016
outer loop
vertex -0.126321861527793 9.12006804012854 0.0
vertex -0.126321861527796 6.68072821190836 2.33933982822017
vertex -0.126321861527796 6.9191061458052 2.64999999999999
endloop
endfacet
facet normal -1.0 3.97178377823648e-016 -4.14700953315868e-016
outer loop
vertex -0.126321861527793 9.12006804012854 0.0
vertex -0.126321861527796 6.9191061458052 2.64999999999999
vertex -0.126321861527796 7.06895677956215 3.01177143234621
endloop
endfacet
facet normal -1.0 3.97178377823648e-016 -4.14700953315868e-016
outer loop
vertex -0.126321861527793 9.12006804012854 0.0
vertex -0.126321861527796 7.06895677956215 3.01177143234621
vertex -0.126321861527796 7.12006804012854 3.39999999999999
endloop
endfacet
facet normal -1.0 3.97178377823648e-016 -4.14700953315868e-016
outer loop
vertex -0.126321861527793 9.12006804012854 0.0
vertex -0.126321861527796 7.12006804012854 3.39999999999999
vertex -0.126321861527798 9.12006804012854 6.79999999999999
endloop
endfacet
facet normal 1.19226808414787e-015 -8.32049702212547e-017 -1.0
outer loop
vertex -0.126321861527793 9.12006804012854 0.0
vertex 0.443080037697747 1.94510485796451 0.0
vertex -0.126321861527798 2.02006804012856 0.0
endloop
endfacet
facet normal 1.19226808414787e-015 -8.32049702212547e-017 -1.0
outer loop
vertex 0.443080037697747 1.94510485796451 0.0
vertex -0.126321861527793 9.12006804012854 0.0
vertex 1.8736781384722 9.12006804012854 0.0
endloop
endfacet
facet normal 1.19226808414787e-015 -8.32049702212547e-017 -1.0
outer loop
vertex 0.443080037697747 1.94510485796451 0.0
vertex 1.8736781384722 9.12006804012854 0.0
vertex 0.973678138472202 1.72532392845432 0.0
endloop
endfacet
facet normal 1.19226808414787e-015 -8.32049702212547e-017 -1.0
outer loop
vertex 0.973678138472202 1.72532392845432 0.0
vertex 1.8736781384722 9.12006804012854 0.0
vertex 1.42931305708261 1.37570295873896 0.0
endloop
endfacet
facet normal 1.19226808414787e-015 -8.32049702212547e-017 -1.0
outer loop
vertex 1.42931305708261 1.37570295873896 0.0
vertex 1.8736781384722 9.12006804012854 0.0
vertex 1.77893402679797 0.920068040128556 0.0
endloop
endfacet
facet normal 1.19226808414787e-015 -8.32049702212547e-017 -1.0
outer loop
vertex 1.77893402679797 0.920068040128556 0.0
vertex 1.8736781384722 9.12006804012854 0.0
vertex 1.8736781384722 2.72006804012855 0.0
endloop
endfacet
facet normal 1.19226808414787e-015 -8.32049702212547e-017 -1.0
outer loop
vertex 1.77893402679797 0.920068040128556 0.0
vertex 1.8736781384722 2.72006804012855 0.0
vertex 1.99871495630815 0.389469939354102 0.0
endloop
endfacet
facet normal 1.19226808414787e-015 -8.32049702212547e-017 -1.0
outer loop
vertex 1.99871495630815 0.389469939354102 0.0
vertex 1.8736781384722 2.72006804012855 0.0
vertex 3.87367813847219 2.72006804012856 5.63993296509579e-015
endloop
endfacet
facet normal 1.19226808414787e-015 -8.32049702212547e-017 -1.0
outer loop
vertex 1.99871495630815 0.389469939354102 0.0
vertex 3.87367813847219 2.72006804012856 5.63993296509579e-015
vertex 2.0736781384722 -0.179931959871444 0.0
endloop
endfacet
facet normal 1.19226808414787e-015 -8.32049702212547e-017 -1.0
outer loop
vertex 1.99871495630815 -0.74933385909699 0.0
vertex 1.8736781384722 -3.07993195987145 2.8199664825479e-015
vertex 1.77893402679797 -1.27993195987144 0.0
endloop
endfacet
facet normal 1.19226808414787e-015 -8.32049702212547e-017 -1.0
outer loop
vertex 1.8736781384722 -3.07993195987145 2.8199664825479e-015
vertex 1.99871495630815 -0.74933385909699 0.0
vertex 3.87367813847219 -3.07993195987145 5.63993296509579e-015
endloop
endfacet
facet normal 1.19226808414787e-015 -8.32049702212547e-017 -1.0
outer loop
vertex 3.87367813847219 -3.07993195987145 5.63993296509579e-015
vertex 1.99871495630815 -0.74933385909699 0.0
vertex 2.0736781384722 -0.179931959871444 0.0
endloop
endfacet
facet normal 1.19226808414787e-015 -8.32049702212547e-017 -1.0
outer loop
vertex 3.87367813847219 -3.07993195987145 5.63993296509579e-015
vertex 2.0736781384722 -0.179931959871444 0.0
vertex 3.87367813847219 2.72006804012856 5.63993296509579e-015
endloop
endfacet
facet normal 1.19226808414787e-015 -8.32049702212547e-017 -1.0
outer loop
vertex 0.443080037697748 -2.30496877770739 0.0
vertex -0.126321861527793 -9.47993195987143 0.0
vertex -0.126321861527798 -2.37993195987144 0.0
endloop
endfacet
facet normal 1.19226808414787e-015 -8.32049702212547e-017 -1.0
outer loop
vertex -0.126321861527793 -9.47993195987143 0.0
vertex 0.443080037697748 -2.30496877770739 0.0
vertex 1.8736781384722 -9.47993195987143 2.8199664825479e-015
endloop
endfacet
facet normal 1.19226808414787e-015 -8.32049702212547e-017 -1.0
outer loop
vertex 1.8736781384722 -9.47993195987143 2.8199664825479e-015
vertex 0.443080037697748 -2.30496877770739 0.0
vertex 0.973678138472203 -2.08518784819721 0.0
endloop
endfacet
facet normal 1.19226808414787e-015 -8.32049702212547e-017 -1.0
outer loop
vertex 1.8736781384722 -9.47993195987143 2.8199664825479e-015
vertex 0.973678138472203 -2.08518784819721 0.0
vertex 1.42931305708261 -1.73556687848185 0.0
endloop
endfacet
facet normal 1.19226808414787e-015 -8.32049702212547e-017 -1.0
outer loop
vertex 1.8736781384722 -9.47993195987143 2.8199664825479e-015
vertex 1.42931305708261 -1.73556687848185 0.0
vertex 1.77893402679797 -1.27993195987144 0.0
endloop
endfacet
facet normal 1.19226808414787e-015 -8.32049702212547e-017 -1.0
outer loop
vertex 1.8736781384722 -9.47993195987143 2.8199664825479e-015
vertex 1.77893402679797 -1.27993195987144 0.0
vertex 1.8736781384722 -3.07993195987145 2.8199664825479e-015
endloop
endfacet
facet normal -0.923879532511287 0.38268343236509 0.0
outer loop
vertex 1.99871495630815 -0.74933385909699 6.79999999999999
vertex 1.77893402679797 -1.27993195987144 0.0
vertex 1.77893402679797 -1.27993195987144 6.79999999999999
endloop
endfacet
facet normal -0.866025403784439 0.5 0.0
outer loop
vertex 1.77893402679797 -1.27993195987144 0.0
vertex 1.99871495630815 -0.74933385909699 6.79999999999999
vertex 1.99871495630815 -0.74933385909699 0.0
endloop
endfacet
facet normal -0.866025403784439 -0.5 0.0
outer loop
vertex 1.77893402679797 0.920068040128556 6.79999999999999
vertex 1.99871495630815 0.389469939354102 0.0
vertex 1.99871495630815 0.389469939354102 6.79999999999999
endloop
endfacet
facet normal -0.923879532511287 -0.38268343236509 0.0
outer loop
vertex 1.99871495630815 0.389469939354102 0.0
vertex 1.77893402679797 0.920068040128556 6.79999999999999
vertex 1.77893402679797 0.920068040128556 0.0
endloop
endfacet
facet normal -0.707106781186547 -0.707106781186547 0.0
outer loop
vertex 1.42931305708261 1.37570295873896 6.79999999999999
vertex 1.77893402679797 0.920068040128556 0.0
vertex 1.77893402679797 0.920068040128556 6.79999999999999
endloop
endfacet
facet normal -0.866025403784439 -0.5 0.0
outer loop
vertex 1.77893402679797 0.920068040128556 0.0
vertex 1.42931305708261 1.37570295873896 6.79999999999999
vertex 1.42931305708261 1.37570295873896 0.0
endloop
endfacet
facet normal -0.707106781186547 -0.707106781186547 0.0
outer loop
vertex 1.42931305708261 1.37570295873896 6.79999999999999
vertex 0.973678138472202 1.72532392845432 0.0
vertex 1.42931305708261 1.37570295873896 0.0
endloop
endfacet
facet normal -0.5 -0.866025403784439 0.0
outer loop
vertex 0.973678138472202 1.72532392845432 0.0
vertex 1.42931305708261 1.37570295873896 6.79999999999999
vertex 0.973678138472202 1.72532392845432 6.79999999999999
endloop
endfacet
facet normal -0.5 -0.866025403784439 0.0
outer loop
vertex 0.973678138472202 1.72532392845432 6.79999999999999
vertex 0.443080037697747 1.94510485796451 0.0
vertex 0.973678138472202 1.72532392845432 0.0
endloop
endfacet
facet normal -0.258819045102521 -0.965925826289068 0.0
outer loop
vertex 0.443080037697747 1.94510485796451 0.0
vertex 0.973678138472202 1.72532392845432 6.79999999999999
vertex 0.443080037697747 1.94510485796451 6.79999999999999
endloop
endfacet
facet normal -0.258819045102521 -0.965925826289068 0.0
outer loop
vertex 0.443080037697747 1.94510485796451 6.79999999999999
vertex -0.126321861527798 2.02006804012856 0.0
vertex 0.443080037697747 1.94510485796451 0.0
endloop
endfacet
facet normal -0.130526192220052 -0.99144486137381 0.0
outer loop
vertex -0.126321861527798 2.02006804012856 0.0
vertex 0.443080037697747 1.94510485796451 6.79999999999999
vertex -0.126321861527798 2.02006804012856 6.79999999999999
endloop
endfacet
facet normal -0.130526192220052 0.99144486137381 -0.0
outer loop
vertex -0.126321861527798 -2.37993195987144 6.79999999999999
vertex 0.443080037697748 -2.30496877770739 0.0
vertex -0.126321861527798 -2.37993195987144 0.0
endloop
endfacet
facet normal -0.258819045102521 0.965925826289068 0.0
outer loop
vertex 0.443080037697748 -2.30496877770739 0.0
vertex -0.126321861527798 -2.37993195987144 6.79999999999999
vertex 0.443080037697748 -2.30496877770739 6.79999999999999
endloop
endfacet
facet normal -0.258819045102521 0.965925826289068 0.0
outer loop
vertex 0.443080037697748 -2.30496877770739 6.79999999999999
vertex 0.973678138472203 -2.08518784819721 0.0
vertex 0.443080037697748 -2.30496877770739 0.0
endloop
endfacet
facet normal -0.5 0.866025403784439 0.0
outer loop
vertex 0.973678138472203 -2.08518784819721 0.0
vertex 0.443080037697748 -2.30496877770739 6.79999999999999
vertex 0.973678138472203 -2.08518784819721 6.79999999999999
endloop
endfacet
facet normal -0.5 0.866025403784439 0.0
outer loop
vertex 0.973678138472203 -2.08518784819721 6.79999999999999
vertex 1.42931305708261 -1.73556687848185 0.0
vertex 0.973678138472203 -2.08518784819721 0.0
endloop
endfacet
facet normal -0.707106781186548 0.707106781186547 0.0
outer loop
vertex 1.42931305708261 -1.73556687848185 0.0
vertex 0.973678138472203 -2.08518784819721 6.79999999999999
vertex 1.42931305708261 -1.73556687848185 6.79999999999999
endloop
endfacet
facet normal -0.866025403784439 0.5 0.0
outer loop
vertex 1.77893402679797 -1.27993195987144 6.79999999999999
vertex 1.42931305708261 -1.73556687848185 0.0
vertex 1.42931305708261 -1.73556687848185 6.79999999999999
endloop
endfacet
facet normal -0.707106781186548 0.707106781186547 0.0
outer loop
vertex 1.42931305708261 -1.73556687848185 0.0
vertex 1.77893402679797 -1.27993195987144 6.79999999999999
vertex 1.77893402679797 -1.27993195987144 0.0
endloop
endfacet
facet normal -1.0 -3.59942904902681e-016 -4.14700953315868e-016
outer loop
vertex -0.126321861527798 -9.47993195987143 6.79999999999999
vertex -0.12632188879098 -7.27897006554811 4.14999999999999
vertex -0.126321861527793 -9.47993195987143 0.0
endloop
endfacet
facet normal -1.0 -3.59942904902681e-016 -4.14700953315868e-016
outer loop
vertex -0.12632188879098 -7.27897006554811 4.14999999999999
vertex -0.126321861527798 -9.47993195987143 6.79999999999999
vertex -0.126321891743753 -7.04059213165127 4.46066017177982
endloop
endfacet
facet normal -1.0 -3.59942904902681e-016 -4.14700953315868e-016
outer loop
vertex -0.126321891743753 -7.04059213165127 4.46066017177982
vertex -0.126321861527798 -9.47993195987143 6.79999999999999
vertex -0.126321895591883 -6.72993195987145 4.69903810567665
endloop
endfacet
facet normal -1.0 -3.59942904902681e-016 -4.14700953315868e-016
outer loop
vertex -0.126321895591883 -6.72993195987145 4.69903810567665
vertex -0.126321861527798 -9.47993195987143 6.79999999999999
vertex -0.126321861527798 -2.37993195987144 6.79999999999999
endloop
endfacet
facet normal -1.0 -3.59942904902681e-016 -4.14700953315868e-016
outer loop
vertex -0.126321861527793 -9.47993195987143 0.0
vertex -0.12632188879098 -7.27897006554811 4.14999999999999
vertex -0.126321886934789 -7.42882069930505 3.78822856765378
endloop
endfacet
facet normal -1.0 -3.59942904902681e-016 -4.14700953315868e-016
outer loop
vertex -0.126321861527793 -9.47993195987143 0.0
vertex -0.126321886934789 -7.42882069930505 3.78822856765378
vertex -0.126321886301677 -7.47993195987145 3.39999999999999
endloop
endfacet
facet normal -1.0 -3.59942904902681e-016 -4.14700953315868e-016
outer loop
vertex -0.126321895591883 -6.72993195987145 4.69903810567665
vertex -0.126321861527798 -2.37993195987144 6.79999999999999
vertex -0.126321900073124 -6.36816052752523 4.8488887394336
endloop
endfacet
facet normal -1.0 -3.59942904902681e-016 -4.14700953315868e-016
outer loop
vertex -0.126321900073124 -6.36816052752523 4.8488887394336
vertex -0.126321861527798 -2.37993195987144 6.79999999999999
vertex -0.126321904882088 -5.97993195987145 4.89999999999999
endloop
endfacet
facet normal -1.0 -3.59942904902681e-016 -4.14700953315868e-016
outer loop
vertex -0.126321904882088 -5.97993195987145 4.89999999999999
vertex -0.126321861527798 -2.37993195987144 6.79999999999999
vertex -0.126321909691052 -5.59170339221767 4.8488887394336
endloop
endfacet
facet normal -1.0 -3.59942904902681e-016 -4.14700953315868e-016
outer loop
vertex -0.126321909691052 -5.59170339221767 4.8488887394336
vertex -0.126321861527798 -2.37993195987144 6.79999999999999
vertex -0.126321914172293 -5.22993195987145 4.69903810567665
endloop
endfacet
facet normal -1.0 -3.59942904902681e-016 -4.14700953315868e-016
outer loop
vertex -0.126321914172293 -5.22993195987145 4.69903810567665
vertex -0.126321861527798 -2.37993195987144 6.79999999999999
vertex -0.126321918020422 -4.91927178809163 4.46066017177982
endloop
endfacet
facet normal -1.0 -3.59942904902681e-016 -4.14700953315868e-016
outer loop
vertex -0.126321918020422 -4.91927178809163 4.46066017177982
vertex -0.126321861527798 -2.37993195987144 6.79999999999999
vertex -0.126321920973196 -4.68089385419479 4.14999999999999
endloop
endfacet
facet normal -1.0 -3.59942904902681e-016 -4.14700953315868e-016
outer loop
vertex -0.126321920973196 -4.68089385419479 4.14999999999999
vertex -0.126321861527798 -2.37993195987144 6.79999999999999
vertex -0.126321922829386 -4.53104322043785 3.78822856765378
endloop
endfacet
facet normal -1.0 -3.59942904902681e-016 -4.14700953315868e-016
outer loop
vertex -0.126321922829386 -4.53104322043785 3.78822856765378
vertex -0.126321861527798 -2.37993195987144 6.79999999999999
vertex -0.126321923462498 -4.47993195987145 3.39999999999999
endloop
endfacet
facet normal -1.0 -3.59942904902681e-016 -4.14700953315868e-016
outer loop
vertex -0.126321861527793 -9.47993195987143 0.0
vertex -0.126321895591881 -6.72993195987145 2.10096189432333
vertex -0.126321861527798 -2.37993195987144 0.0
endloop
endfacet
facet normal -1.0 -3.59942904902681e-016 -4.14700953315868e-016
outer loop
vertex -0.126321895591881 -6.72993195987145 2.10096189432333
vertex -0.126321861527793 -9.47993195987143 0.0
vertex -0.126321891743752 -7.04059213165127 2.33933982822017
endloop
endfacet
facet normal -1.0 -3.59942904902681e-016 -4.14700953315868e-016
outer loop
vertex -0.126321891743752 -7.04059213165127 2.33933982822017
vertex -0.126321861527793 -9.47993195987143 0.0
vertex -0.126321888790979 -7.27897006554811 2.64999999999999
endloop
endfacet
facet normal -1.0 -3.59942904902681e-016 -4.14700953315868e-016
outer loop
vertex -0.126321888790979 -7.27897006554811 2.64999999999999
vertex -0.126321861527793 -9.47993195987143 0.0
vertex -0.126321886934789 -7.42882069930505 3.01177143234621
endloop
endfacet
facet normal -1.0 -3.59942904902681e-016 -4.14700953315868e-016
outer loop
vertex -0.126321886934789 -7.42882069930505 3.01177143234621
vertex -0.126321861527793 -9.47993195987143 0.0
vertex -0.126321886301677 -7.47993195987145 3.39999999999999
endloop
endfacet
facet normal -1.0 -3.59942904902681e-016 -4.14700953315868e-016
outer loop
vertex -0.126321861527798 -2.37993195987144 0.0
vertex -0.126321895591881 -6.72993195987145 2.10096189432333
vertex -0.126321900073123 -6.36816052752523 1.95111126056639
endloop
endfacet
facet normal -1.0 -3.59942904902681e-016 -4.14700953315868e-016
outer loop
vertex -0.126321861527798 -2.37993195987144 0.0
vertex -0.126321900073123 -6.36816052752523 1.95111126056639
vertex -0.126321904882087 -5.97993195987145 1.89999999999999
endloop
endfacet
facet normal -1.0 -3.59942904902681e-016 -4.14700953315868e-016
outer loop
vertex -0.126321861527798 -2.37993195987144 0.0
vertex -0.126321904882087 -5.97993195987145 1.89999999999999
vertex -0.126321909691051 -5.59170339221767 1.95111126056639
endloop
endfacet
facet normal -1.0 -3.59942904902681e-016 -4.14700953315868e-016
outer loop
vertex -0.126321861527798 -2.37993195987144 0.0
vertex -0.126321909691051 -5.59170339221767 1.95111126056639
vertex -0.126321914172292 -5.22993195987145 2.10096189432333
endloop
endfacet
facet normal -1.0 -3.59942904902681e-016 -4.14700953315868e-016
outer loop
vertex -0.126321861527798 -2.37993195987144 0.0
vertex -0.126321914172292 -5.22993195987145 2.10096189432333
vertex -0.126321918020421 -4.91927178809163 2.33933982822017
endloop
endfacet
facet normal -1.0 -3.59942904902681e-016 -4.14700953315868e-016
outer loop
vertex -0.126321861527798 -2.37993195987144 0.0
vertex -0.126321918020421 -4.91927178809163 2.33933982822017
vertex -0.126321920973195 -4.68089385419479 2.64999999999999
endloop
endfacet
facet normal -1.0 -3.59942904902681e-016 -4.14700953315868e-016
outer loop
vertex -0.126321861527798 -2.37993195987144 0.0
vertex -0.126321920973195 -4.68089385419479 2.64999999999999
vertex -0.126321922829386 -4.53104322043785 3.01177143234621
endloop
endfacet
facet normal -1.0 -3.59942904902681e-016 -4.14700953315868e-016
outer loop
vertex -0.126321861527798 -2.37993195987144 0.0
vertex -0.126321922829386 -4.53104322043785 3.01177143234621
vertex -0.126321923462498 -4.47993195987145 3.39999999999999
endloop
endfacet
facet normal -1.0 -3.59942904902681e-016 -4.14700953315868e-016
outer loop
vertex -0.126321861527798 -2.37993195987144 0.0
vertex -0.126321923462498 -4.47993195987145 3.39999999999999
vertex -0.126321861527798 -2.37993195987144 6.79999999999999
endloop
endfacet
facet normal -0.99144486137381 -0.130526192220052 0.0
outer loop
vertex 1.99871495630815 0.389469939354102 6.79999999999999
vertex 2.0736781384722 -0.179931959871444 0.0
vertex 2.0736781384722 -0.179931959871444 6.79999999999999
endloop
endfacet
facet normal -1.0 -2.40599967182466e-016 0.0
outer loop
vertex 2.0736781384722 -0.179931959871444 0.0
vertex 1.99871495630815 0.389469939354102 6.79999999999999
vertex 1.99871495630815 0.389469939354102 0.0
endloop
endfacet
facet normal -1.0 -2.40599967182466e-016 0.0
outer loop
vertex 2.0736781384722 -0.179931959871444 6.79999999999999
vertex 1.99871495630815 -0.74933385909699 0.0
vertex 1.99871495630815 -0.74933385909699 6.79999999999999
endloop
endfacet
facet normal -0.99144486137381 0.130526192220052 0.0
outer loop
vertex 1.99871495630815 -0.74933385909699 0.0
vertex 2.0736781384722 -0.179931959871444 6.79999999999999
vertex 2.0736781384722 -0.179931959871444 0.0
endloop
endfacet
endsolid movement-ir-interrupter-clip
