solid movement-ir-interrupter-spacer
facet normal -0.258819045102521 0.965925826289068 0.0
outer loop
vertex 5.68700263072714 -0.996062814267945 6.0
vertex 6.98109785623975 -0.825691945713286 -14.0
vertex 5.68700263072714 -0.996062814267945 -14.0
endloop
endfacet
facet normal 4.45555494782345e-017 1.0 0.0
outer loop
vertex 6.98109785623975 -0.825691945713286 -14.0
vertex 5.68700263072714 -0.996062814267945 6.0
vertex 6.98109785623975 -0.825691945713286 6.0
endloop
endfacet
facet normal -0.5 0.866025403784439 0.0
outer loop
vertex 4.48109785623975 -1.49556492679109 6.0
vertex 5.68700263072714 -0.996062814267945 -14.0
vertex 4.48109785623975 -1.49556492679109 -14.0
endloop
endfacet
facet normal -0.258819045102521 0.965925826289068 0.0
outer loop
vertex 5.68700263072714 -0.996062814267945 -14.0
vertex 4.48109785623975 -1.49556492679109 6.0
vertex 5.68700263072714 -0.996062814267945 6.0
endloop
endfacet
facet normal -0.707106781186548 0.707106781186547 0.0
outer loop
vertex 3.44556395030701 -2.29015803978055 6.0
vertex 4.48109785623975 -1.49556492679109 -14.0
vertex 3.44556395030701 -2.29015803978055 -14.0
endloop
endfacet
facet normal -0.5 0.866025403784439 0.0
outer loop
vertex 4.48109785623975 -1.49556492679109 -14.0
vertex 3.44556395030701 -2.29015803978055 6.0
vertex 4.48109785623975 -1.49556492679109 6.0
endloop
endfacet
facet normal -1.0 -7.12888791651753e-017 0.0
outer loop
vertex 1.98109785623975 -5.82569194571329 6.0
vertex 2.15146872479441 -7.11978717122589 -14.0
vertex 2.15146872479441 -7.11978717122589 6.0
endloop
endfacet
facet normal -0.965925826289068 -0.258819045102521 0.0
outer loop
vertex 2.15146872479441 -7.11978717122589 -14.0
vertex 1.98109785623975 -5.82569194571329 6.0
vertex 1.98109785623975 -5.82569194571329 -14.0
endloop
endfacet
facet normal -0.707106781186548 0.707106781186547 1.31556732194238e-016
outer loop
vertex 4.22338140961221 -3.06797549908575 8.0
vertex 3.60359878148044 -3.87569194571329 6.0
vertex 3.60359878148043 -3.87569194571329 8.0
endloop
endfacet
facet normal -0.866025403784439 0.5 1.12181171436725e-016
outer loop
vertex 3.60359878148044 -3.87569194571329 6.0
vertex 4.22338140961221 -3.06797549908575 8.0
vertex 4.22338140961221 -3.06797549908575 6.0
endloop
endfacet
facet normal 0.965925826289068 0.258819045102521 0.0
outer loop
vertex 11.8107269876851 -4.53159672020068 -14.0
vertex 11.9810978562397 -5.82569194571329 6.0
vertex 11.9810978562397 -5.82569194571329 -14.0
endloop
endfacet
facet normal 1.0 1.51488868225997e-016 0.0
outer loop
vertex 11.9810978562397 -5.82569194571329 6.0
vertex 11.8107269876851 -4.53159672020068 -14.0
vertex 11.8107269876851 -4.53159672020068 6.0
endloop
endfacet
facet normal 0.866025403784439 0.5 0.0
outer loop
vertex 11.3112248751619 -3.32569194571328 -14.0
vertex 11.8107269876851 -4.53159672020068 6.0
vertex 11.8107269876851 -4.53159672020068 -14.0
endloop
endfacet
facet normal 0.965925826289068 0.258819045102521 0.0
outer loop
vertex 11.8107269876851 -4.53159672020068 6.0
vertex 11.3112248751619 -3.32569194571328 -14.0
vertex 11.3112248751619 -3.32569194571328 6.0
endloop
endfacet
facet normal 0.258819045102521 0.965925826289068 0.0
outer loop
vertex 8.27519308175235 -0.996062814267945 6.0
vertex 9.48109785623975 -1.49556492679109 -14.0
vertex 8.27519308175235 -0.996062814267945 -14.0
endloop
endfacet
facet normal 0.5 0.866025403784439 0.0
outer loop
vertex 9.48109785623975 -1.49556492679109 -14.0
vertex 8.27519308175235 -0.996062814267945 6.0
vertex 9.48109785623975 -1.49556492679109 6.0
endloop
endfacet
facet normal 3.20799956243289e-016 -1.0 0.0
outer loop
vertex 6.98109785623975 -10.8256919457133 6.0
vertex 5.68700263072715 -10.6553210771586 -14.0
vertex 6.98109785623975 -10.8256919457133 -14.0
endloop
endfacet
facet normal -0.25881904510252 -0.965925826289068 0.0
outer loop
vertex 5.68700263072715 -10.6553210771586 -14.0
vertex 6.98109785623975 -10.8256919457133 6.0
vertex 5.68700263072715 -10.6553210771586 6.0
endloop
endfacet
facet normal 0.0 0.0 1.0
outer loop
vertex 3.44556395030701 -9.36122585164602 6.0
vertex 3.08109785623975 -5.82569194571329 6.0
vertex 2.65097083731756 -8.32569194571329 6.0
endloop
endfacet
facet normal 0.0 0.0 1.0
outer loop
vertex 3.08109785623975 -5.82569194571329 6.0
vertex 3.44556395030701 -9.36122585164602 6.0
vertex 3.21398713371238 -6.83508622161312 6.0
endloop
endfacet
facet normal 0.0 0.0 1.0
outer loop
vertex 3.21398713371238 -6.83508622161312 6.0
vertex 3.44556395030701 -9.36122585164602 6.0
vertex 3.60359878148044 -7.77569194571329 6.0
endloop
endfacet
facet normal 0.0 0.0 1.0
outer loop
vertex 3.60359878148044 -7.77569194571329 6.0
vertex 3.44556395030701 -9.36122585164602 6.0
vertex 4.48109785623975 -10.1558189646355 6.0
endloop
endfacet
facet normal 0.0 0.0 1.0
outer loop
vertex 3.60359878148044 -7.77569194571329 6.0
vertex 4.48109785623975 -10.1558189646355 6.0
vertex 4.22338140961222 -8.58340839234082 6.0
endloop
endfacet
facet normal 0.0 0.0 1.0
outer loop
vertex 4.22338140961222 -8.58340839234082 6.0
vertex 4.48109785623975 -10.1558189646355 6.0
vertex 5.03109785623975 -9.2031910204726 6.0
endloop
endfacet
facet normal 0.0 0.0 1.0
outer loop
vertex 5.03109785623975 -9.2031910204726 6.0
vertex 4.48109785623975 -10.1558189646355 6.0
vertex 5.68700263072715 -10.6553210771586 6.0
endloop
endfacet
facet normal 0.0 0.0 1.0
outer loop
vertex 5.03109785623975 -9.2031910204726 6.0
vertex 5.68700263072715 -10.6553210771586 6.0
vertex 5.97170358033992 -9.59280266824065 6.0
endloop
endfacet
facet normal 0.0 0.0 1.0
outer loop
vertex 5.97170358033992 -9.59280266824065 6.0
vertex 5.68700263072715 -10.6553210771586 6.0
vertex 6.98109785623975 -10.8256919457133 6.0
endloop
endfacet
facet normal 0.0 0.0 1.0
outer loop
vertex 5.97170358033992 -9.59280266824065 6.0
vertex 6.98109785623975 -10.8256919457133 6.0
vertex 6.98109785623975 -9.72569194571328 6.0
endloop
endfacet
facet normal 0.0 0.0 1.0
outer loop
vertex 6.98109785623975 -9.72569194571328 6.0
vertex 6.98109785623975 -10.8256919457133 6.0
vertex 8.27519308175236 -10.6553210771586 6.0
endloop
endfacet
facet normal 0.0 0.0 1.0
outer loop
vertex 6.98109785623975 -9.72569194571328 6.0
vertex 8.27519308175236 -10.6553210771586 6.0
vertex 7.99049213213958 -9.59280266824065 6.0
endloop
endfacet
facet normal 0.0 0.0 1.0
outer loop
vertex 7.99049213213958 -9.59280266824065 6.0
vertex 8.27519308175236 -10.6553210771586 6.0
vertex 8.93109785623975 -9.2031910204726 6.0
endloop
endfacet
facet normal 0.0 0.0 1.0
outer loop
vertex 8.93109785623975 -9.2031910204726 6.0
vertex 8.27519308175236 -10.6553210771586 6.0
vertex 9.48109785623975 -10.1558189646355 6.0
endloop
endfacet
facet normal 0.0 0.0 1.0
outer loop
vertex 8.93109785623975 -9.2031910204726 6.0
vertex 9.48109785623975 -10.1558189646355 6.0
vertex 9.73881430286728 -8.58340839234082 6.0
endloop
endfacet
facet normal 0.0 0.0 1.0
outer loop
vertex 9.73881430286728 -8.58340839234082 6.0
vertex 9.48109785623975 -10.1558189646355 6.0
vertex 10.5166317621725 -9.36122585164602 6.0
endloop
endfacet
facet normal 0.0 0.0 1.0
outer loop
vertex 9.73881430286728 -8.58340839234082 6.0
vertex 10.5166317621725 -9.36122585164602 6.0
vertex 10.3585969309991 -7.77569194571329 6.0
endloop
endfacet
facet normal 0.0 0.0 1.0
outer loop
vertex 10.3585969309991 -7.77569194571329 6.0
vertex 10.5166317621725 -9.36122585164602 6.0
vertex 10.7482085787671 -6.83508622161312 6.0
endloop
endfacet
facet normal 0.0 0.0 1.0
outer loop
vertex 10.7482085787671 -6.83508622161312 6.0
vertex 10.5166317621725 -9.36122585164602 6.0
vertex 11.3112248751619 -8.32569194571328 6.0
endloop
endfacet
facet normal 0.0 0.0 1.0
outer loop
vertex 10.7482085787671 -6.83508622161312 6.0
vertex 11.3112248751619 -8.32569194571328 6.0
vertex 10.8810978562397 -5.82569194571329 6.0
endloop
endfacet
facet normal 0.0 0.0 1.0
outer loop
vertex 10.8810978562397 -5.82569194571329 6.0
vertex 11.3112248751619 -8.32569194571328 6.0
vertex 11.3112248751619 -3.32569194571328 6.0
endloop
endfacet
facet normal 0.0 0.0 1.0
outer loop
vertex 11.3112248751619 -3.32569194571328 6.0
vertex 11.3112248751619 -8.32569194571328 6.0
vertex 11.8107269876851 -4.53159672020068 6.0
endloop
endfacet
facet normal 0.0 0.0 1.0
outer loop
vertex 11.8107269876851 -4.53159672020068 6.0
vertex 11.3112248751619 -8.32569194571328 6.0
vertex 11.8107269876851 -7.11978717122589 6.0
endloop
endfacet
facet normal 0.0 0.0 1.0
outer loop
vertex 11.8107269876851 -4.53159672020068 6.0
vertex 11.8107269876851 -7.11978717122589 6.0
vertex 11.9810978562397 -5.82569194571329 6.0
endloop
endfacet
facet normal 0.0 0.0 1.0
outer loop
vertex 2.15146872479441 -7.11978717122589 6.0
vertex 2.15146872479441 -4.53159672020068 6.0
vertex 1.98109785623975 -5.82569194571329 6.0
endloop
endfacet
facet normal 0.0 0.0 1.0
outer loop
vertex 2.15146872479441 -4.53159672020068 6.0
vertex 2.15146872479441 -7.11978717122589 6.0
vertex 2.65097083731755 -3.32569194571329 6.0
endloop
endfacet
facet normal 0.0 0.0 1.0
outer loop
vertex 2.65097083731755 -3.32569194571329 6.0
vertex 2.15146872479441 -7.11978717122589 6.0
vertex 2.65097083731756 -8.32569194571329 6.0
endloop
endfacet
facet normal 0.0 0.0 1.0
outer loop
vertex 2.65097083731755 -3.32569194571329 6.0
vertex 2.65097083731756 -8.32569194571329 6.0
vertex 3.44556395030701 -2.29015803978055 6.0
endloop
endfacet
facet normal 0.0 0.0 1.0
outer loop
vertex 3.44556395030701 -2.29015803978055 6.0
vertex 2.65097083731756 -8.32569194571329 6.0
vertex 3.08109785623975 -5.82569194571329 6.0
endloop
endfacet
facet normal 0.0 0.0 1.0
outer loop
vertex 3.44556395030701 -2.29015803978055 6.0
vertex 3.08109785623975 -5.82569194571329 6.0
vertex 3.21398713371238 -4.81629766981346 6.0
endloop
endfacet
facet normal 0.0 0.0 1.0
outer loop
vertex 3.44556395030701 -2.29015803978055 6.0
vertex 3.21398713371238 -4.81629766981346 6.0
vertex 3.60359878148044 -3.87569194571329 6.0
endloop
endfacet
facet normal 0.0 0.0 1.0
outer loop
vertex 3.44556395030701 -2.29015803978055 6.0
vertex 3.60359878148044 -3.87569194571329 6.0
vertex 4.48109785623975 -1.49556492679109 6.0
endloop
endfacet
facet normal 0.0 0.0 1.0
outer loop
vertex 4.48109785623975 -1.49556492679109 6.0
vertex 3.60359878148044 -3.87569194571329 6.0
vertex 4.22338140961221 -3.06797549908575 6.0
endloop
endfacet
facet normal 0.0 0.0 1.0
outer loop
vertex 4.48109785623975 -1.49556492679109 6.0
vertex 4.22338140961221 -3.06797549908575 6.0
vertex 5.03109785623975 -2.44819287095397 6.0
endloop
endfacet
facet normal 0.0 0.0 1.0
outer loop
vertex 4.48109785623975 -1.49556492679109 6.0
vertex 5.03109785623975 -2.44819287095397 6.0
vertex 5.68700263072714 -0.996062814267945 6.0
endloop
endfacet
facet normal 0.0 0.0 1.0
outer loop
vertex 5.68700263072714 -0.996062814267945 6.0
vertex 5.03109785623975 -2.44819287095397 6.0
vertex 5.97170358033992 -2.05858122318592 6.0
endloop
endfacet
facet normal 0.0 0.0 1.0
outer loop
vertex 5.68700263072714 -0.996062814267945 6.0
vertex 5.97170358033992 -2.05858122318592 6.0
vertex 6.98109785623975 -0.825691945713286 6.0
endloop
endfacet
facet normal 0.0 0.0 1.0
outer loop
vertex 6.98109785623975 -0.825691945713286 6.0
vertex 5.97170358033992 -2.05858122318592 6.0
vertex 6.98109785623975 -1.92569194571328 6.0
endloop
endfacet
facet normal 0.0 0.0 1.0
outer loop
vertex 6.98109785623975 -0.825691945713286 6.0
vertex 6.98109785623975 -1.92569194571328 6.0
vertex 7.99049213213958 -2.05858122318592 6.0
endloop
endfacet
facet normal 0.0 0.0 1.0
outer loop
vertex 6.98109785623975 -0.825691945713286 6.0
vertex 7.99049213213958 -2.05858122318592 6.0
vertex 8.27519308175235 -0.996062814267945 6.0
endloop
endfacet
facet normal 0.0 0.0 1.0
outer loop
vertex 8.27519308175235 -0.996062814267945 6.0
vertex 7.99049213213958 -2.05858122318592 6.0
vertex 8.93109785623975 -2.44819287095397 6.0
endloop
endfacet
facet normal 0.0 0.0 1.0
outer loop
vertex 8.27519308175235 -0.996062814267945 6.0
vertex 8.93109785623975 -2.44819287095397 6.0
vertex 9.48109785623975 -1.49556492679109 6.0
endloop
endfacet
facet normal 0.0 0.0 1.0
outer loop
vertex 9.48109785623975 -1.49556492679109 6.0
vertex 8.93109785623975 -2.44819287095397 6.0
vertex 9.73881430286728 -3.06797549908575 6.0
endloop
endfacet
facet normal 0.0 0.0 1.0
outer loop
vertex 9.48109785623975 -1.49556492679109 6.0
vertex 9.73881430286728 -3.06797549908575 6.0
vertex 10.5166317621725 -2.29015803978055 6.0
endloop
endfacet
facet normal 0.0 0.0 1.0
outer loop
vertex 10.5166317621725 -2.29015803978055 6.0
vertex 9.73881430286728 -3.06797549908575 6.0
vertex 10.3585969309991 -3.87569194571329 6.0
endloop
endfacet
facet normal 0.0 0.0 1.0
outer loop
vertex 10.5166317621725 -2.29015803978055 6.0
vertex 10.3585969309991 -3.87569194571329 6.0
vertex 10.7482085787671 -4.81629766981346 6.0
endloop
endfacet
facet normal 0.0 0.0 1.0
outer loop
vertex 10.5166317621725 -2.29015803978055 6.0
vertex 10.7482085787671 -4.81629766981346 6.0
vertex 11.3112248751619 -3.32569194571328 6.0
endloop
endfacet
facet normal 0.0 0.0 1.0
outer loop
vertex 11.3112248751619 -3.32569194571328 6.0
vertex 10.7482085787671 -4.81629766981346 6.0
vertex 10.8810978562397 -5.82569194571329 6.0
endloop
endfacet
facet normal -0.965925826289068 -0.258819045102521 0.0
outer loop
vertex 2.15146872479441 -7.11978717122589 6.0
vertex 2.65097083731756 -8.32569194571329 -14.0
vertex 2.65097083731756 -8.32569194571329 6.0
endloop
endfacet
facet normal -0.866025403784438 -0.500000000000001 0.0
outer loop
vertex 2.65097083731756 -8.32569194571329 -14.0
vertex 2.15146872479441 -7.11978717122589 6.0
vertex 2.15146872479441 -7.11978717122589 -14.0
endloop
endfacet
facet normal 4.45555494782345e-017 1.0 0.0
outer loop
vertex 6.98109785623975 -0.825691945713286 6.0
vertex 8.27519308175235 -0.996062814267945 -14.0
vertex 6.98109785623975 -0.825691945713286 -14.0
endloop
endfacet
facet normal 0.258819045102521 0.965925826289068 0.0
outer loop
vertex 8.27519308175235 -0.996062814267945 -14.0
vertex 6.98109785623975 -0.825691945713286 6.0
vertex 8.27519308175235 -0.996062814267945 6.0
endloop
endfacet
facet normal 0.5 -0.866025403784438 0.0
outer loop
vertex 9.48109785623975 -10.1558189646355 6.0
vertex 8.27519308175236 -10.6553210771586 -14.0
vertex 9.48109785623975 -10.1558189646355 -14.0
endloop
endfacet
facet normal 0.258819045102521 -0.965925826289068 0.0
outer loop
vertex 8.27519308175236 -10.6553210771586 -14.0
vertex 9.48109785623975 -10.1558189646355 6.0
vertex 8.27519308175236 -10.6553210771586 6.0
endloop
endfacet
facet normal 0.866025403784439 -0.5 0.0
outer loop
vertex 11.3112248751619 -8.32569194571328 -14.0
vertex 10.5166317621725 -9.36122585164602 6.0
vertex 10.5166317621725 -9.36122585164602 -14.0
endloop
endfacet
facet normal 0.707106781186548 -0.707106781186547 0.0
outer loop
vertex 10.5166317621725 -9.36122585164602 6.0
vertex 11.3112248751619 -8.32569194571328 -14.0
vertex 11.3112248751619 -8.32569194571328 6.0
endloop
endfacet
facet normal 0.707106781186547 0.707106781186548 0.0
outer loop
vertex 10.5166317621725 -2.29015803978055 -14.0
vertex 11.3112248751619 -3.32569194571328 6.0
vertex 11.3112248751619 -3.32569194571328 -14.0
endloop
endfacet
facet normal 0.866025403784439 0.5 0.0
outer loop
vertex 11.3112248751619 -3.32569194571328 6.0
vertex 10.5166317621725 -2.29015803978055 -14.0
vertex 10.5166317621725 -2.29015803978055 6.0
endloop
endfacet
facet normal -0.499999999999999 -0.866025403784439 0.0
outer loop
vertex 4.48109785623975 -10.1558189646355 6.0
vertex 3.44556395030701 -9.36122585164602 -14.0
vertex 4.48109785623975 -10.1558189646355 -14.0
endloop
endfacet
facet normal -0.707106781186547 -0.707106781186548 0.0
outer loop
vertex 3.44556395030701 -9.36122585164602 -14.0
vertex 4.48109785623975 -10.1558189646355 6.0
vertex 3.44556395030701 -9.36122585164602 6.0
endloop
endfacet
facet normal -0.965925826289068 0.258819045102521 0.0
outer loop
vertex 2.15146872479441 -4.53159672020068 6.0
vertex 1.98109785623975 -5.82569194571329 -14.0
vertex 1.98109785623975 -5.82569194571329 6.0
endloop
endfacet
facet normal -1.0 -7.12888791651753e-017 0.0
outer loop
vertex 1.98109785623975 -5.82569194571329 -14.0
vertex 2.15146872479441 -4.53159672020068 6.0
vertex 2.15146872479441 -4.53159672020068 -14.0
endloop
endfacet
facet normal 0.258819045102521 -0.965925826289068 0.0
outer loop
vertex 8.27519308175236 -10.6553210771586 6.0
vertex 6.98109785623975 -10.8256919457133 -14.0
vertex 8.27519308175236 -10.6553210771586 -14.0
endloop
endfacet
facet normal 3.20799956243289e-016 -1.0 0.0
outer loop
vertex 6.98109785623975 -10.8256919457133 -14.0
vertex 8.27519308175236 -10.6553210771586 6.0
vertex 6.98109785623975 -10.8256919457133 6.0
endloop
endfacet
facet normal 1.0 1.51488868225997e-016 0.0
outer loop
vertex 11.9810978562397 -5.82569194571329 -14.0
vertex 11.8107269876851 -7.11978717122589 6.0
vertex 11.8107269876851 -7.11978717122589 -14.0
endloop
endfacet
facet normal 0.965925826289068 -0.25881904510252 0.0
outer loop
vertex 11.8107269876851 -7.11978717122589 6.0
vertex 11.9810978562397 -5.82569194571329 -14.0
vertex 11.9810978562397 -5.82569194571329 6.0
endloop
endfacet
facet normal -0.0 -0.0 1.0
outer loop
vertex 4.22338140961221 -8.58340839234082 8.0
vertex 4.54218772912201 -6.37498002299384 8.0
vertex 4.48160478377762 -5.77534931254969 8.0
endloop
endfacet
facet normal -0.0 -0.0 1.0
outer loop
vertex 4.54218772912201 -6.37498002299384 8.0
vertex 4.22338140961221 -8.58340839234082 8.0
vertex 5.03109785623975 -9.2031910204726 8.0
endloop
endfacet
facet normal -0.0 -0.0 1.0
outer loop
vertex 4.54218772912201 -6.37498002299384 8.0
vertex 5.03109785623975 -9.2031910204726 8.0
vertex 4.74451126597688 -6.94268810696736 8.0
endloop
endfacet
facet normal -0.0 -0.0 1.0
outer loop
vertex 4.74451126597688 -6.94268810696736 8.0
vertex 5.03109785623975 -9.2031910204726 8.0
vertex 5.07681708579636 -7.44548043416464 8.0
endloop
endfacet
facet normal -0.0 -0.0 1.0
outer loop
vertex 5.07681708579636 -7.44548043416464 8.0
vertex 5.03109785623975 -9.2031910204726 8.0
vertex 5.97170358033992 -9.59280266824065 8.0
endloop
endfacet
facet normal -0.0 -0.0 1.0
outer loop
vertex 5.07681708579636 -7.44548043416464 8.0
vertex 5.97170358033992 -9.59280266824065 8.0
vertex 5.51979278221503 -7.85413654210472 8.0
endloop
endfacet
facet normal -0.0 -0.0 1.0
outer loop
vertex 5.51979278221503 -7.85413654210472 8.0
vertex 5.97170358033992 -9.59280266824065 8.0
vertex 6.0476942179082 -8.14490682319864 8.0
endloop
endfacet
facet normal -0.0 -0.0 1.0
outer loop
vertex 6.0476942179082 -8.14490682319864 8.0
vertex 5.97170358033992 -9.59280266824065 8.0
vertex 6.98109785623975 -9.72569194571328 8.0
endloop
endfacet
facet normal -0.0 -0.0 1.0
outer loop
vertex 6.0476942179082 -8.14490682319864 8.0
vertex 6.98109785623975 -9.72569194571328 8.0
vertex 6.62984168027702 -8.3008927656162 8.0
endloop
endfacet
facet normal -0.0 -0.0 1.0
outer loop
vertex 6.62984168027702 -8.3008927656162 8.0
vertex 6.98109785623975 -9.72569194571328 8.0
vertex 7.23240287482855 -8.3130290333699 8.0
endloop
endfacet
facet normal -0.0 -0.0 1.0
outer loop
vertex 7.23240287482855 -8.3130290333699 8.0
vertex 6.98109785623975 -9.72569194571328 8.0
vertex 7.99049213213958 -9.59280266824065 8.0
endloop
endfacet
facet normal -0.0 -0.0 1.0
outer loop
vertex 7.23240287482855 -8.3130290333699 8.0
vertex 7.99049213213958 -9.59280266824065 8.0
vertex 7.82035913515626 -8.18061031069145 8.0
endloop
endfacet
facet normal -0.0 -0.0 1.0
outer loop
vertex 7.82035913515626 -8.18061031069145 8.0
vertex 7.99049213213958 -9.59280266824065 8.0
vertex 8.35954058054398 -7.91133229242044 8.0
endloop
endfacet
facet normal -0.0 -0.0 1.0
outer loop
vertex 8.35954058054398 -7.91133229242044 8.0
vertex 7.99049213213958 -9.59280266824065 8.0
vertex 8.93109785623975 -9.2031910204726 8.0
endloop
endfacet
facet normal -0.0 -0.0 1.0
outer loop
vertex 8.35954058054398 -7.91133229242044 8.0
vertex 8.93109785623975 -9.2031910204726 8.0
vertex 8.81861194523057 -7.52084443819301 8.0
endloop
endfacet
facet normal -0.0 -0.0 1.0
outer loop
vertex 8.81861194523057 -7.52084443819301 8.0
vertex 8.93109785623975 -9.2031910204726 8.0
vertex 9.17089367015697 -7.03184048273127 8.0
endloop
endfacet
facet normal -0.0 -0.0 1.0
outer loop
vertex 9.17089367015697 -7.03184048273127 8.0
vertex 8.93109785623975 -9.2031910204726 8.0
vertex 9.73881430286728 -8.58340839234082 8.0
endloop
endfacet
facet normal -0.0 -0.0 1.0
outer loop
vertex 9.17089367015697 -7.03184048273127 8.0
vertex 9.73881430286728 -8.58340839234082 8.0
vertex 9.39591242196242 -6.47273955846959 8.0
endloop
endfacet
facet normal -0.0 -0.0 1.0
outer loop
vertex 9.39591242196242 -6.47273955846959 8.0
vertex 9.73881430286728 -8.58340839234082 8.0
vertex 9.48059092870187 -5.87603457887688 8.0
endloop
endfacet
facet normal -0.0 -0.0 1.0
outer loop
vertex 3.21398713371238 -6.83508622161312 8.0
vertex 3.21398713371238 -4.81629766981346 8.0
vertex 3.08109785623975 -5.82569194571329 8.0
endloop
endfacet
facet normal -0.0 -0.0 1.0
outer loop
vertex 3.21398713371238 -4.81629766981346 8.0
vertex 3.21398713371238 -6.83508622161312 8.0
vertex 3.60359878148043 -3.87569194571329 8.0
endloop
endfacet
facet normal -0.0 -0.0 1.0
outer loop
vertex 3.60359878148043 -3.87569194571329 8.0
vertex 3.21398713371238 -6.83508622161312 8.0
vertex 3.60359878148044 -7.77569194571329 8.0
endloop
endfacet
facet normal -0.0 -0.0 1.0
outer loop
vertex 3.60359878148043 -3.87569194571329 8.0
vertex 3.60359878148044 -7.77569194571329 8.0
vertex 4.22338140961221 -3.06797549908575 8.0
endloop
endfacet
facet normal -0.0 -0.0 1.0
outer loop
vertex 4.22338140961221 -3.06797549908575 8.0
vertex 3.60359878148044 -7.77569194571329 8.0
vertex 4.22338140961221 -8.58340839234082 8.0
endloop
endfacet
facet normal -0.0 -0.0 1.0
outer loop
vertex 4.22338140961221 -3.06797549908575 8.0
vertex 4.22338140961221 -8.58340839234082 8.0
vertex 4.48160478377762 -5.77534931254969 8.0
endloop
endfacet
facet normal -0.0 -0.0 1.0
outer loop
vertex 4.22338140961221 -3.06797549908575 8.0
vertex 4.48160478377762 -5.77534931254969 8.0
vertex 4.56628329051708 -5.17864433295699 8.0
endloop
endfacet
facet normal -0.0 -0.0 1.0
outer loop
vertex 4.22338140961221 -3.06797549908575 8.0
vertex 4.56628329051708 -5.17864433295699 8.0
vertex 5.03109785623975 -2.44819287095397 8.0
endloop
endfacet
facet normal -0.0 -0.0 1.0
outer loop
vertex 5.03109785623975 -2.44819287095397 8.0
vertex 4.56628329051708 -5.17864433295699 8.0
vertex 4.79130204232253 -4.6195434086953 8.0
endloop
endfacet
facet normal -0.0 -0.0 1.0
outer loop
vertex 5.03109785623975 -2.44819287095397 8.0
vertex 4.79130204232253 -4.6195434086953 8.0
vertex 5.14358376724893 -4.13053945323356 8.0
endloop
endfacet
facet normal -0.0 -0.0 1.0
outer loop
vertex 5.03109785623975 -2.44819287095397 8.0
vertex 5.14358376724893 -4.13053945323356 8.0
vertex 5.97170358033992 -2.05858122318592 8.0
endloop
endfacet
facet normal -0.0 -0.0 1.0
outer loop
vertex 5.97170358033992 -2.05858122318592 8.0
vertex 5.14358376724893 -4.13053945323356 8.0
vertex 5.60265513193552 -3.74005159900613 8.0
endloop
endfacet
facet normal -0.0 -0.0 1.0
outer loop
vertex 5.97170358033992 -2.05858122318592 8.0
vertex 5.60265513193552 -3.74005159900613 8.0
vertex 6.14183657732324 -3.47077358073512 8.0
endloop
endfacet
facet normal -0.0 -0.0 1.0
outer loop
vertex 5.97170358033992 -2.05858122318592 8.0
vertex 6.14183657732324 -3.47077358073512 8.0
vertex 6.98109785623975 -1.92569194571328 8.0
endloop
endfacet
facet normal -0.0 -0.0 1.0
outer loop
vertex 6.98109785623975 -1.92569194571328 8.0
vertex 6.14183657732324 -3.47077358073512 8.0
vertex 6.72979283765096 -3.33835485805667 8.0
endloop
endfacet
facet normal -0.0 -0.0 1.0
outer loop
vertex 6.98109785623975 -1.92569194571328 8.0
vertex 6.72979283765096 -3.33835485805667 8.0
vertex 7.33235403220248 -3.35049112581037 8.0
endloop
endfacet
facet normal -0.0 -0.0 1.0
outer loop
vertex 6.98109785623975 -1.92569194571328 8.0
vertex 7.33235403220248 -3.35049112581037 8.0
vertex 7.99049213213958 -2.05858122318592 8.0
endloop
endfacet
facet normal -0.0 -0.0 1.0
outer loop
vertex 7.99049213213958 -2.05858122318592 8.0
vertex 7.33235403220248 -3.35049112581037 8.0
vertex 7.9145014945713 -3.50647706822793 8.0
endloop
endfacet
facet normal -0.0 -0.0 1.0
outer loop
vertex 7.99049213213958 -2.05858122318592 8.0
vertex 7.9145014945713 -3.50647706822793 8.0
vertex 8.44240293026447 -3.79724734932185 8.0
endloop
endfacet
facet normal -0.0 -0.0 1.0
outer loop
vertex 7.99049213213958 -2.05858122318592 8.0
vertex 8.44240293026447 -3.79724734932185 8.0
vertex 8.93109785623975 -2.44819287095397 8.0
endloop
endfacet
facet normal -0.0 -0.0 1.0
outer loop
vertex 8.93109785623975 -2.44819287095397 8.0
vertex 8.44240293026447 -3.79724734932185 8.0
vertex 8.88537862668315 -4.20590345726194 8.0
endloop
endfacet
facet normal -0.0 -0.0 1.0
outer loop
vertex 8.93109785623975 -2.44819287095397 8.0
vertex 8.88537862668315 -4.20590345726194 8.0
vertex 9.21768444650262 -4.70869578445922 8.0
endloop
endfacet
facet normal -0.0 -0.0 1.0
outer loop
vertex 8.93109785623975 -2.44819287095397 8.0
vertex 9.21768444650262 -4.70869578445922 8.0
vertex 9.73881430286728 -3.06797549908575 8.0
endloop
endfacet
facet normal -0.0 -0.0 1.0
outer loop
vertex 9.73881430286728 -3.06797549908575 8.0
vertex 9.21768444650262 -4.70869578445922 8.0
vertex 9.42000798335748 -5.27640386843274 8.0
endloop
endfacet
facet normal -0.0 -0.0 1.0
outer loop
vertex 9.73881430286728 -3.06797549908575 8.0
vertex 9.42000798335748 -5.27640386843274 8.0
vertex 9.48059092870187 -5.87603457887688 8.0
endloop
endfacet
facet normal -0.0 -0.0 1.0
outer loop
vertex 9.73881430286728 -3.06797549908575 8.0
vertex 9.48059092870187 -5.87603457887688 8.0
vertex 9.73881430286728 -8.58340839234082 8.0
endloop
endfacet
facet normal -0.0 -0.0 1.0
outer loop
vertex 9.73881430286728 -3.06797549908575 8.0
vertex 9.73881430286728 -8.58340839234082 8.0
vertex 10.3585969309991 -7.77569194571329 8.0
endloop
endfacet
facet normal -0.0 -0.0 1.0
outer loop
vertex 9.73881430286728 -3.06797549908575 8.0
vertex 10.3585969309991 -7.77569194571329 8.0
vertex 10.3585969309991 -3.87569194571329 8.0
endloop
endfacet
facet normal -0.0 -0.0 1.0
outer loop
vertex 10.3585969309991 -3.87569194571329 8.0
vertex 10.3585969309991 -7.77569194571329 8.0
vertex 10.7482085787671 -6.83508622161312 8.0
endloop
endfacet
facet normal -0.0 -0.0 1.0
outer loop
vertex 10.3585969309991 -3.87569194571329 8.0
vertex 10.7482085787671 -6.83508622161312 8.0
vertex 10.7482085787671 -4.81629766981346 8.0
endloop
endfacet
facet normal -0.0 -0.0 1.0
outer loop
vertex 10.7482085787671 -4.81629766981346 8.0
vertex 10.7482085787671 -6.83508622161312 8.0
vertex 10.8810978562397 -5.82569194571329 8.0
endloop
endfacet
facet normal 0.707106781186548 -0.707106781186547 0.0
outer loop
vertex 10.5166317621725 -9.36122585164602 6.0
vertex 9.48109785623975 -10.1558189646355 -14.0
vertex 10.5166317621725 -9.36122585164602 -14.0
endloop
endfacet
facet normal 0.5 -0.866025403784438 0.0
outer loop
vertex 9.48109785623975 -10.1558189646355 -14.0
vertex 10.5166317621725 -9.36122585164602 6.0
vertex 9.48109785623975 -10.1558189646355 6.0
endloop
endfacet
facet normal -0.866025403784438 -0.500000000000001 0.0
outer loop
vertex 2.65097083731756 -8.32569194571329 6.0
vertex 3.44556395030701 -9.36122585164602 -14.0
vertex 3.44556395030701 -9.36122585164602 6.0
endloop
endfacet
facet normal -0.707106781186547 -0.707106781186548 0.0
outer loop
vertex 3.44556395030701 -9.36122585164602 -14.0
vertex 2.65097083731756 -8.32569194571329 6.0
vertex 2.65097083731756 -8.32569194571329 -14.0
endloop
endfacet
facet normal -0.707106781186548 0.707106781186547 0.0
outer loop
vertex 3.44556395030701 -2.29015803978055 6.0
vertex 2.65097083731755 -3.32569194571329 -14.0
vertex 2.65097083731755 -3.32569194571329 6.0
endloop
endfacet
facet normal -0.866025403784439 0.5 0.0
outer loop
vertex 2.65097083731755 -3.32569194571329 -14.0
vertex 3.44556395030701 -2.29015803978055 6.0
vertex 3.44556395030701 -2.29015803978055 -14.0
endloop
endfacet
facet normal -0.866025403784439 0.5 0.0
outer loop
vertex 2.65097083731755 -3.32569194571329 6.0
vertex 2.15146872479441 -4.53159672020068 -14.0
vertex 2.15146872479441 -4.53159672020068 6.0
endloop
endfacet
facet normal -0.965925826289068 0.258819045102521 0.0
outer loop
vertex 2.15146872479441 -4.53159672020068 -14.0
vertex 2.65097083731755 -3.32569194571329 6.0
vertex 2.65097083731755 -3.32569194571329 -14.0
endloop
endfacet
facet normal -0.25881904510252 -0.965925826289068 0.0
outer loop
vertex 5.68700263072715 -10.6553210771586 6.0
vertex 4.48109785623975 -10.1558189646355 -14.0
vertex 5.68700263072715 -10.6553210771586 -14.0
endloop
endfacet
facet normal -0.499999999999999 -0.866025403784439 0.0
outer loop
vertex 4.48109785623975 -10.1558189646355 -14.0
vertex 5.68700263072715 -10.6553210771586 6.0
vertex 4.48109785623975 -10.1558189646355 6.0
endloop
endfacet
facet normal 0.965925826289068 -0.25881904510252 0.0
outer loop
vertex 11.8107269876851 -7.11978717122589 -14.0
vertex 11.3112248751619 -8.32569194571328 6.0
vertex 11.3112248751619 -8.32569194571328 -14.0
endloop
endfacet
facet normal 0.866025403784439 -0.5 0.0
outer loop
vertex 11.3112248751619 -8.32569194571328 6.0
vertex 11.8107269876851 -7.11978717122589 -14.0
vertex 11.8107269876851 -7.11978717122589 6.0
endloop
endfacet
facet normal 0.5 0.866025403784439 0.0
outer loop
vertex 9.48109785623975 -1.49556492679109 6.0
vertex 10.5166317621725 -2.29015803978055 -14.0
vertex 9.48109785623975 -1.49556492679109 -14.0
endloop
endfacet
facet normal 0.707106781186547 0.707106781186548 0.0
outer loop
vertex 10.5166317621725 -2.29015803978055 -14.0
vertex 9.48109785623975 -1.49556492679109 6.0
vertex 10.5166317621725 -2.29015803978055 6.0
endloop
endfacet
facet normal 0.866025403784438 -0.5 8.54007820145781e-017
outer loop
vertex 10.3585969309991 -7.77569194571329 6.0
vertex 9.73881430286728 -8.58340839234082 8.0
vertex 9.73881430286728 -8.58340839234082 6.0
endloop
endfacet
facet normal 0.707106781186547 -0.707106781186548 2.8998578621917e-017
outer loop
vertex 9.73881430286728 -8.58340839234082 8.0
vertex 10.3585969309991 -7.77569194571329 6.0
vertex 10.3585969309991 -7.77569194571329 8.0
endloop
endfacet
facet normal 0.258819045102521 0.965925826289068 8.13776753686666e-017
outer loop
vertex 7.99049213213958 -2.05858122318592 8.0
vertex 8.93109785623975 -2.44819287095397 6.0
vertex 7.99049213213958 -2.05858122318592 6.0
endloop
endfacet
facet normal 0.5 0.866025403784439 2.84383142310252e-017
outer loop
vertex 8.93109785623975 -2.44819287095397 6.0
vertex 7.99049213213958 -2.05858122318592 8.0
vertex 8.93109785623975 -2.44819287095397 8.0
endloop
endfacet
facet normal 0.707106781186548 0.707106781186548 3.01295336881207e-017
outer loop
vertex 9.73881430286728 -3.06797549908575 6.0
vertex 10.3585969309991 -3.87569194571329 8.0
vertex 10.3585969309991 -3.87569194571329 6.0
endloop
endfacet
facet normal 0.866025403784439 0.5 1.49164961325117e-016
outer loop
vertex 10.3585969309991 -3.87569194571329 8.0
vertex 9.73881430286728 -3.06797549908575 6.0
vertex 9.73881430286728 -3.06797549908575 8.0
endloop
endfacet
facet normal -0.707106781186547 -0.707106781186548 7.59119991907312e-017
outer loop
vertex 4.22338140961221 -8.58340839234082 8.0
vertex 3.60359878148044 -7.77569194571329 6.0
vertex 4.22338140961222 -8.58340839234082 6.0
endloop
endfacet
facet normal -0.866025403784438 -0.500000000000001 1.28769280475647e-017
outer loop
vertex 3.60359878148044 -7.77569194571329 6.0
vertex 4.22338140961221 -8.58340839234082 8.0
vertex 3.60359878148044 -7.77569194571329 8.0
endloop
endfacet
facet normal 0.965925826289068 0.258819045102521 1.42642257438286e-016
outer loop
vertex 10.7482085787671 -4.81629766981346 6.0
vertex 10.8810978562397 -5.82569194571329 8.0
vertex 10.8810978562397 -5.82569194571329 6.0
endloop
endfacet
facet normal 1.0 -1.42577758330351e-016 5.28941425336329e-017
outer loop
vertex 10.8810978562397 -5.82569194571329 8.0
vertex 10.7482085787671 -4.81629766981346 6.0
vertex 10.7482085787671 -4.81629766981346 8.0
endloop
endfacet
facet normal 1.0 -2.49511077078113e-016 5.28941425336328e-017
outer loop
vertex 10.8810978562397 -5.82569194571329 6.0
vertex 10.7482085787671 -6.83508622161312 8.0
vertex 10.7482085787671 -6.83508622161312 6.0
endloop
endfacet
facet normal 0.965925826289068 -0.258819045102521 6.71413110640671e-017
outer loop
vertex 10.7482085787671 -6.83508622161312 8.0
vertex 10.8810978562397 -5.82569194571329 6.0
vertex 10.8810978562397 -5.82569194571329 8.0
endloop
endfacet
facet normal -0.965925826289068 -0.258819045102522 4.21491794862557e-017
outer loop
vertex 3.21398713371238 -6.83508622161312 8.0
vertex 3.08109785623975 -5.82569194571329 6.0
vertex 3.21398713371238 -6.83508622161312 6.0
endloop
endfacet
facet normal -1.0 -1.47924424267739e-015 -2.24585157397723e-017
outer loop
vertex 3.08109785623975 -5.82569194571329 6.0
vertex 3.21398713371238 -6.83508622161312 8.0
vertex 3.08109785623975 -5.82569194571329 8.0
endloop
endfacet
facet normal 0.25881904510252 -0.965925826289068 7.87644645999607e-017
outer loop
vertex 7.99049213213958 -9.59280266824065 8.0
vertex 6.98109785623975 -9.72569194571328 6.0
vertex 7.99049213213958 -9.59280266824065 6.0
endloop
endfacet
facet normal 1.1584442864341e-016 -1.0 9.99262676572497e-017
outer loop
vertex 6.98109785623975 -9.72569194571328 6.0
vertex 7.99049213213958 -9.59280266824065 8.0
vertex 6.98109785623975 -9.72569194571328 8.0
endloop
endfacet
facet normal 0.499999999999999 -0.866025403784439 3.0153679987543e-017
outer loop
vertex 8.93109785623975 -9.2031910204726 8.0
vertex 7.99049213213958 -9.59280266824065 6.0
vertex 8.93109785623975 -9.2031910204726 6.0
endloop
endfacet
facet normal 0.258819045102521 -0.965925826289068 7.87644645999607e-017
outer loop
vertex 7.99049213213958 -9.59280266824065 6.0
vertex 8.93109785623975 -9.2031910204726 8.0
vertex 7.99049213213958 -9.59280266824065 8.0
endloop
endfacet
facet normal -1.1584442864341e-016 -1.0 9.99262676572497e-017
outer loop
vertex 6.98109785623975 -9.72569194571328 8.0
vertex 5.97170358033992 -9.59280266824065 6.0
vertex 6.98109785623975 -9.72569194571328 6.0
endloop
endfacet
facet normal -0.25881904510252 -0.965925826289068 1.31310644933366e-016
outer loop
vertex 5.97170358033992 -9.59280266824065 6.0
vertex 6.98109785623975 -9.72569194571328 8.0
vertex 5.97170358033992 -9.59280266824065 8.0
endloop
endfacet
facet normal -0.707106781186548 0.707106781186547 1.31556732194238e-016
outer loop
vertex 4.22338140961221 -3.06797549908575 8.0
vertex 5.03109785623975 -2.44819287095397 6.0
vertex 4.22338140961221 -3.06797549908575 6.0
endloop
endfacet
facet normal -0.5 0.866025403784439 6.2410680406515e-017
outer loop
vertex 5.03109785623975 -2.44819287095397 6.0
vertex 4.22338140961221 -3.06797549908575 8.0
vertex 5.03109785623975 -2.44819287095397 8.0
endloop
endfacet
facet normal -0.866025403784438 -0.500000000000001 1.28769280475647e-017
outer loop
vertex 3.60359878148044 -7.77569194571329 8.0
vertex 3.21398713371238 -6.83508622161312 6.0
vertex 3.60359878148044 -7.77569194571329 6.0
endloop
endfacet
facet normal -0.965925826289068 -0.258819045102522 4.21491794862557e-017
outer loop
vertex 3.21398713371238 -6.83508622161312 6.0
vertex 3.60359878148044 -7.77569194571329 8.0
vertex 3.21398713371238 -6.83508622161312 8.0
endloop
endfacet
facet normal -0.5 0.866025403784439 6.2410680406515e-017
outer loop
vertex 5.03109785623975 -2.44819287095397 8.0
vertex 5.97170358033992 -2.05858122318592 6.0
vertex 5.03109785623975 -2.44819287095397 6.0
endloop
endfacet
facet normal -0.258819045102521 0.965925826289068 4.58529994248746e-017
outer loop
vertex 5.97170358033992 -2.05858122318592 6.0
vertex 5.03109785623975 -2.44819287095397 8.0
vertex 5.97170358033992 -2.05858122318592 8.0
endloop
endfacet
facet normal 0.866025403784439 0.5 1.49164961325117e-016
outer loop
vertex 10.3585969309991 -3.87569194571329 6.0
vertex 10.7482085787671 -4.81629766981346 8.0
vertex 10.7482085787671 -4.81629766981346 6.0
endloop
endfacet
facet normal 0.965925826289068 0.258819045102521 1.42642257438286e-016
outer loop
vertex 10.7482085787671 -4.81629766981346 8.0
vertex 10.3585969309991 -3.87569194571329 6.0
vertex 10.3585969309991 -3.87569194571329 8.0
endloop
endfacet
facet normal -4.63377714573639e-016 1.0 5.2894142533633e-017
outer loop
vertex 6.98109785623975 -1.92569194571328 8.0
vertex 7.99049213213958 -2.05858122318592 6.0
vertex 6.98109785623975 -1.92569194571328 6.0
endloop
endfacet
facet normal 0.25881904510252 0.965925826289068 8.13776753686666e-017
outer loop
vertex 7.99049213213958 -2.05858122318592 6.0
vertex 6.98109785623975 -1.92569194571328 8.0
vertex 7.99049213213958 -2.05858122318592 8.0
endloop
endfacet
facet normal 0.5 0.866025403784439 2.84383142310252e-017
outer loop
vertex 8.93109785623975 -2.44819287095397 8.0
vertex 9.73881430286728 -3.06797549908575 6.0
vertex 8.93109785623975 -2.44819287095397 6.0
endloop
endfacet
facet normal 0.707106781186548 0.707106781186548 3.01295336881207e-017
outer loop
vertex 9.73881430286728 -3.06797549908575 6.0
vertex 8.93109785623975 -2.44819287095397 8.0
vertex 9.73881430286728 -3.06797549908575 8.0
endloop
endfacet
facet normal 0.707106781186547 -0.707106781186548 2.8998578621917e-017
outer loop
vertex 9.73881430286728 -8.58340839234082 8.0
vertex 8.93109785623975 -9.2031910204726 6.0
vertex 9.73881430286728 -8.58340839234082 6.0
endloop
endfacet
facet normal 0.499999999999999 -0.866025403784439 3.0153679987543e-017
outer loop
vertex 8.93109785623975 -9.2031910204726 6.0
vertex 9.73881430286728 -8.58340839234082 8.0
vertex 8.93109785623975 -9.2031910204726 8.0
endloop
endfacet
facet normal -0.258819045102521 0.965925826289068 4.58529994248746e-017
outer loop
vertex 5.97170358033992 -2.05858122318592 8.0
vertex 6.98109785623975 -1.92569194571328 6.0
vertex 5.97170358033992 -2.05858122318592 6.0
endloop
endfacet
facet normal -5.79222143217049e-016 1.0 5.2894142533633e-017
outer loop
vertex 6.98109785623975 -1.92569194571328 6.0
vertex 5.97170358033992 -2.05858122318592 8.0
vertex 6.98109785623975 -1.92569194571328 8.0
endloop
endfacet
facet normal -0.5 -0.866025403784439 1.39575609096776e-016
outer loop
vertex 5.03109785623975 -9.2031910204726 8.0
vertex 4.22338140961222 -8.58340839234082 6.0
vertex 5.03109785623975 -9.2031910204726 6.0
endloop
endfacet
facet normal -0.707106781186547 -0.707106781186548 7.59119991907312e-017
outer loop
vertex 4.22338140961222 -8.58340839234082 6.0
vertex 5.03109785623975 -9.2031910204726 8.0
vertex 4.22338140961221 -8.58340839234082 8.0
endloop
endfacet
facet normal -0.866025403784439 0.499999999999999 1.12181171436725e-016
outer loop
vertex 3.60359878148043 -3.87569194571329 8.0
vertex 3.21398713371238 -4.81629766981346 6.0
vertex 3.21398713371238 -4.81629766981346 8.0
endloop
endfacet
facet normal -0.965925826289068 0.25881904510252 -5.23772124798968e-017
outer loop
vertex 3.21398713371238 -4.81629766981346 6.0
vertex 3.60359878148043 -3.87569194571329 8.0
vertex 3.60359878148044 -3.87569194571329 6.0
endloop
endfacet
facet normal 0.965925826289068 -0.258819045102521 6.71413110640671e-017
outer loop
vertex 10.7482085787671 -6.83508622161312 6.0
vertex 10.3585969309991 -7.77569194571329 8.0
vertex 10.3585969309991 -7.77569194571329 6.0
endloop
endfacet
facet normal 0.866025403784439 -0.5 8.54007820145781e-017
outer loop
vertex 10.3585969309991 -7.77569194571329 8.0
vertex 10.7482085787671 -6.83508622161312 6.0
vertex 10.7482085787671 -6.83508622161312 8.0
endloop
endfacet
facet normal -1.0 -1.23864427549492e-015 -2.24585157397725e-017
outer loop
vertex 3.08109785623975 -5.82569194571329 8.0
vertex 3.21398713371238 -4.81629766981346 6.0
vertex 3.08109785623975 -5.82569194571329 6.0
endloop
endfacet
facet normal -0.965925826289068 0.25881904510252 -5.23772124798968e-017
outer loop
vertex 3.21398713371238 -4.81629766981346 6.0
vertex 3.08109785623975 -5.82569194571329 8.0
vertex 3.21398713371238 -4.81629766981346 8.0
endloop
endfacet
facet normal -0.258819045102521 -0.965925826289068 1.31310644933366e-016
outer loop
vertex 5.97170358033992 -9.59280266824065 8.0
vertex 5.03109785623975 -9.2031910204726 6.0
vertex 5.97170358033992 -9.59280266824065 6.0
endloop
endfacet
facet normal -0.5 -0.866025403784439 1.39575609096776e-016
outer loop
vertex 5.03109785623975 -9.2031910204726 6.0
vertex 5.97170358033992 -9.59280266824065 8.0
vertex 5.03109785623975 -9.2031910204726 8.0
endloop
endfacet
facet normal 0.0 0.0 -1.0
outer loop
vertex 2.15146872479441 -4.53159672020068 -14.0
vertex 2.15146872479441 -7.11978717122589 -14.0
vertex 1.98109785623975 -5.82569194571329 -14.0
endloop
endfacet
facet normal 0.0 0.0 -1.0
outer loop
vertex 2.15146872479441 -7.11978717122589 -14.0
vertex 2.15146872479441 -4.53159672020068 -14.0
vertex 2.65097083731755 -3.32569194571329 -14.0
endloop
endfacet
facet normal 0.0 0.0 -1.0
outer loop
vertex 2.15146872479441 -7.11978717122589 -14.0
vertex 2.65097083731755 -3.32569194571329 -14.0
vertex 2.65097083731756 -8.32569194571329 -14.0
endloop
endfacet
facet normal 0.0 0.0 -1.0
outer loop
vertex 2.65097083731756 -8.32569194571329 -14.0
vertex 2.65097083731755 -3.32569194571329 -14.0
vertex 3.44556395030701 -2.29015803978055 -14.0
endloop
endfacet
facet normal 0.0 0.0 -1.0
outer loop
vertex 2.65097083731756 -8.32569194571329 -14.0
vertex 3.44556395030701 -2.29015803978055 -14.0
vertex 3.44556395030701 -9.36122585164602 -14.0
endloop
endfacet
facet normal 0.0 0.0 -1.0
outer loop
vertex 3.44556395030701 -9.36122585164602 -14.0
vertex 3.44556395030701 -2.29015803978055 -14.0
vertex 4.48109785623975 -1.49556492679109 -14.0
endloop
endfacet
facet normal 0.0 0.0 -1.0
outer loop
vertex 3.44556395030701 -9.36122585164602 -14.0
vertex 4.48109785623975 -1.49556492679109 -14.0
vertex 4.48109785623975 -10.1558189646355 -14.0
endloop
endfacet
facet normal 0.0 0.0 -1.0
outer loop
vertex 4.48109785623975 -10.1558189646355 -14.0
vertex 4.48109785623975 -1.49556492679109 -14.0
vertex 4.48160478377762 -5.77534931254969 -14.0
endloop
endfacet
facet normal 0.0 0.0 -1.0
outer loop
vertex 4.48160478377762 -5.77534931254969 -14.0
vertex 4.48109785623975 -1.49556492679109 -14.0
vertex 4.56628329051708 -5.17864433295699 -14.0
endloop
endfacet
facet normal 0.0 0.0 -1.0
outer loop
vertex 4.56628329051708 -5.17864433295699 -14.0
vertex 4.48109785623975 -1.49556492679109 -14.0
vertex 5.68700263072714 -0.996062814267945 -14.0
endloop
endfacet
facet normal 0.0 0.0 -1.0
outer loop
vertex 4.56628329051708 -5.17864433295699 -14.0
vertex 5.68700263072714 -0.996062814267945 -14.0
vertex 4.79130204232253 -4.6195434086953 -14.0
endloop
endfacet
facet normal 0.0 0.0 -1.0
outer loop
vertex 4.79130204232253 -4.6195434086953 -14.0
vertex 5.68700263072714 -0.996062814267945 -14.0
vertex 5.14358376724893 -4.13053945323356 -14.0
endloop
endfacet
facet normal 0.0 0.0 -1.0
outer loop
vertex 5.14358376724893 -4.13053945323356 -14.0
vertex 5.68700263072714 -0.996062814267945 -14.0
vertex 5.60265513193552 -3.74005159900613 -14.0
endloop
endfacet
facet normal 0.0 0.0 -1.0
outer loop
vertex 5.60265513193552 -3.74005159900613 -14.0
vertex 5.68700263072714 -0.996062814267945 -14.0
vertex 6.14183657732324 -3.47077358073512 -14.0
endloop
endfacet
facet normal 0.0 0.0 -1.0
outer loop
vertex 6.14183657732324 -3.47077358073512 -14.0
vertex 5.68700263072714 -0.996062814267945 -14.0
vertex 6.98109785623975 -0.825691945713286 -14.0
endloop
endfacet
facet normal 0.0 0.0 -1.0
outer loop
vertex 6.14183657732324 -3.47077358073512 -14.0
vertex 6.98109785623975 -0.825691945713286 -14.0
vertex 6.72979283765096 -3.33835485805667 -14.0
endloop
endfacet
facet normal 0.0 0.0 -1.0
outer loop
vertex 6.72979283765096 -3.33835485805667 -14.0
vertex 6.98109785623975 -0.825691945713286 -14.0
vertex 7.33235403220248 -3.35049112581037 -14.0
endloop
endfacet
facet normal 0.0 0.0 -1.0
outer loop
vertex 7.33235403220248 -3.35049112581037 -14.0
vertex 6.98109785623975 -0.825691945713286 -14.0
vertex 8.27519308175235 -0.996062814267945 -14.0
endloop
endfacet
facet normal 0.0 0.0 -1.0
outer loop
vertex 7.33235403220248 -3.35049112581037 -14.0
vertex 8.27519308175235 -0.996062814267945 -14.0
vertex 7.9145014945713 -3.50647706822793 -14.0
endloop
endfacet
facet normal 0.0 0.0 -1.0
outer loop
vertex 7.9145014945713 -3.50647706822793 -14.0
vertex 8.27519308175235 -0.996062814267945 -14.0
vertex 8.44240293026447 -3.79724734932185 -14.0
endloop
endfacet
facet normal 0.0 0.0 -1.0
outer loop
vertex 8.44240293026447 -3.79724734932185 -14.0
vertex 8.27519308175235 -0.996062814267945 -14.0
vertex 9.48109785623975 -1.49556492679109 -14.0
endloop
endfacet
facet normal 0.0 0.0 -1.0
outer loop
vertex 8.44240293026447 -3.79724734932185 -14.0
vertex 9.48109785623975 -1.49556492679109 -14.0
vertex 8.88537862668315 -4.20590345726194 -14.0
endloop
endfacet
facet normal 0.0 0.0 -1.0
outer loop
vertex 8.88537862668315 -4.20590345726194 -14.0
vertex 9.48109785623975 -1.49556492679109 -14.0
vertex 9.21768444650262 -4.70869578445922 -14.0
endloop
endfacet
facet normal 0.0 0.0 -1.0
outer loop
vertex 9.21768444650262 -4.70869578445922 -14.0
vertex 9.48109785623975 -1.49556492679109 -14.0
vertex 9.42000798335748 -5.27640386843274 -14.0
endloop
endfacet
facet normal 0.0 0.0 -1.0
outer loop
vertex 9.42000798335748 -5.27640386843274 -14.0
vertex 9.48109785623975 -1.49556492679109 -14.0
vertex 9.48059092870187 -5.87603457887688 -14.0
endloop
endfacet
facet normal 0.0 0.0 -1.0
outer loop
vertex 4.48109785623975 -10.1558189646355 -14.0
vertex 4.54218772912201 -6.37498002299384 -14.0
vertex 5.68700263072715 -10.6553210771586 -14.0
endloop
endfacet
facet normal 0.0 0.0 -1.0
outer loop
vertex 4.54218772912201 -6.37498002299384 -14.0
vertex 4.48109785623975 -10.1558189646355 -14.0
vertex 4.48160478377762 -5.77534931254969 -14.0
endloop
endfacet
facet normal 0.0 0.0 -1.0
outer loop
vertex 5.68700263072715 -10.6553210771586 -14.0
vertex 4.54218772912201 -6.37498002299384 -14.0
vertex 4.74451126597688 -6.94268810696736 -14.0
endloop
endfacet
facet normal 0.0 0.0 -1.0
outer loop
vertex 5.68700263072715 -10.6553210771586 -14.0
vertex 4.74451126597688 -6.94268810696736 -14.0
vertex 5.07681708579636 -7.44548043416464 -14.0
endloop
endfacet
facet normal 0.0 0.0 -1.0
outer loop
vertex 5.68700263072715 -10.6553210771586 -14.0
vertex 5.07681708579636 -7.44548043416464 -14.0
vertex 5.51979278221503 -7.85413654210472 -14.0
endloop
endfacet
facet normal 0.0 0.0 -1.0
outer loop
vertex 5.68700263072715 -10.6553210771586 -14.0
vertex 5.51979278221503 -7.85413654210472 -14.0
vertex 6.0476942179082 -8.14490682319864 -14.0
endloop
endfacet
facet normal 0.0 0.0 -1.0
outer loop
vertex 5.68700263072715 -10.6553210771586 -14.0
vertex 6.0476942179082 -8.14490682319864 -14.0
vertex 6.98109785623975 -10.8256919457133 -14.0
endloop
endfacet
facet normal 0.0 0.0 -1.0
outer loop
vertex 6.98109785623975 -10.8256919457133 -14.0
vertex 6.0476942179082 -8.14490682319864 -14.0
vertex 6.62984168027702 -8.3008927656162 -14.0
endloop
endfacet
facet normal 0.0 0.0 -1.0
outer loop
vertex 6.98109785623975 -10.8256919457133 -14.0
vertex 6.62984168027702 -8.3008927656162 -14.0
vertex 7.23240287482855 -8.3130290333699 -14.0
endloop
endfacet
facet normal 0.0 0.0 -1.0
outer loop
vertex 6.98109785623975 -10.8256919457133 -14.0
vertex 7.23240287482855 -8.3130290333699 -14.0
vertex 8.27519308175236 -10.6553210771586 -14.0
endloop
endfacet
facet normal 0.0 0.0 -1.0
outer loop
vertex 8.27519308175236 -10.6553210771586 -14.0
vertex 7.23240287482855 -8.3130290333699 -14.0
vertex 7.82035913515626 -8.18061031069145 -14.0
endloop
endfacet
facet normal 0.0 0.0 -1.0
outer loop
vertex 8.27519308175236 -10.6553210771586 -14.0
vertex 7.82035913515626 -8.18061031069145 -14.0
vertex 8.35954058054398 -7.91133229242044 -14.0
endloop
endfacet
facet normal 0.0 0.0 -1.0
outer loop
vertex 8.27519308175236 -10.6553210771586 -14.0
vertex 8.35954058054398 -7.91133229242044 -14.0
vertex 9.48109785623975 -10.1558189646355 -14.0
endloop
endfacet
facet normal 0.0 0.0 -1.0
outer loop
vertex 9.48109785623975 -10.1558189646355 -14.0
vertex 8.35954058054398 -7.91133229242044 -14.0
vertex 8.81861194523057 -7.52084443819301 -14.0
endloop
endfacet
facet normal 0.0 0.0 -1.0
outer loop
vertex 9.48109785623975 -10.1558189646355 -14.0
vertex 8.81861194523057 -7.52084443819301 -14.0
vertex 9.17089367015697 -7.03184048273127 -14.0
endloop
endfacet
facet normal 0.0 0.0 -1.0
outer loop
vertex 9.48109785623975 -10.1558189646355 -14.0
vertex 9.17089367015697 -7.03184048273127 -14.0
vertex 9.39591242196242 -6.47273955846959 -14.0
endloop
endfacet
facet normal 0.0 0.0 -1.0
outer loop
vertex 9.48109785623975 -10.1558189646355 -14.0
vertex 9.39591242196242 -6.47273955846959 -14.0
vertex 9.48059092870187 -5.87603457887688 -14.0
endloop
endfacet
facet normal 0.0 0.0 -1.0
outer loop
vertex 9.48109785623975 -10.1558189646355 -14.0
vertex 9.48059092870187 -5.87603457887688 -14.0
vertex 9.48109785623975 -1.49556492679109 -14.0
endloop
endfacet
facet normal 0.0 0.0 -1.0
outer loop
vertex 9.48109785623975 -10.1558189646355 -14.0
vertex 9.48109785623975 -1.49556492679109 -14.0
vertex 10.5166317621725 -2.29015803978055 -14.0
endloop
endfacet
facet normal 0.0 0.0 -1.0
outer loop
vertex 9.48109785623975 -10.1558189646355 -14.0
vertex 10.5166317621725 -2.29015803978055 -14.0
vertex 10.5166317621725 -9.36122585164602 -14.0
endloop
endfacet
facet normal 0.0 0.0 -1.0
outer loop
vertex 10.5166317621725 -9.36122585164602 -14.0
vertex 10.5166317621725 -2.29015803978055 -14.0
vertex 11.3112248751619 -3.32569194571328 -14.0
endloop
endfacet
facet normal 0.0 0.0 -1.0
outer loop
vertex 10.5166317621725 -9.36122585164602 -14.0
vertex 11.3112248751619 -3.32569194571328 -14.0
vertex 11.3112248751619 -8.32569194571328 -14.0
endloop
endfacet
facet normal 0.0 0.0 -1.0
outer loop
vertex 11.3112248751619 -8.32569194571328 -14.0
vertex 11.3112248751619 -3.32569194571328 -14.0
vertex 11.8107269876851 -4.53159672020068 -14.0
endloop
endfacet
facet normal 0.0 0.0 -1.0
outer loop
vertex 11.3112248751619 -8.32569194571328 -14.0
vertex 11.8107269876851 -4.53159672020068 -14.0
vertex 11.8107269876851 -7.11978717122589 -14.0
endloop
endfacet
facet normal 0.0 0.0 -1.0
outer loop
vertex 11.8107269876851 -7.11978717122589 -14.0
vertex 11.8107269876851 -4.53159672020068 -14.0
vertex 11.9810978562397 -5.82569194571329 -14.0
endloop
endfacet
facet normal 0.140502470385091 0.990080327961164 0.0
outer loop
vertex 6.62984168027702 -8.3008927656162 8.0
vertex 7.23240287482855 -8.3130290333699 -14.0
vertex 6.62984168027702 -8.3008927656162 -14.0
endloop
endfacet
facet normal -0.100522007435519 0.994934835062645 0.0
outer loop
vertex 7.23240287482855 -8.3130290333699 -14.0
vertex 6.62984168027702 -8.3008927656162 8.0
vertex 7.23240287482855 -8.3130290333699 8.0
endloop
endfacet
facet normal -0.100522007435519 0.994934835062645 0.0
outer loop
vertex 7.23240287482855 -8.3130290333699 8.0
vertex 7.82035913515626 -8.18061031069145 -14.0
vertex 7.23240287482855 -8.3130290333699 -14.0
endloop
endfacet
facet normal -0.335704511566607 0.941967345991264 0.0
outer loop
vertex 7.82035913515626 -8.18061031069145 -14.0
vertex 7.23240287482855 -8.3130290333699 8.0
vertex 7.82035913515626 -8.18061031069145 8.0
endloop
endfacet
facet normal -0.335704511566607 0.941967345991264 0.0
outer loop
vertex 7.82035913515626 -8.18061031069145 8.0
vertex 8.35954058054398 -7.91133229242044 -14.0
vertex 7.82035913515626 -8.18061031069145 -14.0
endloop
endfacet
facet normal -0.551377089721694 0.83425613868286 0.0
outer loop
vertex 8.35954058054398 -7.91133229242044 -14.0
vertex 7.82035913515626 -8.18061031069145 8.0
vertex 8.35954058054398 -7.91133229242044 8.0
endloop
endfacet
facet normal -0.551377089721694 0.83425613868286 0.0
outer loop
vertex 8.35954058054398 -7.91133229242044 8.0
vertex 8.81861194523057 -7.52084443819301 -14.0
vertex 8.35954058054398 -7.91133229242044 -14.0
endloop
endfacet
facet normal -0.73500563559633 0.67806099699189 0.0
outer loop
vertex 8.81861194523057 -7.52084443819301 -14.0
vertex 8.35954058054398 -7.91133229242044 8.0
vertex 8.81861194523057 -7.52084443819301 8.0
endloop
endfacet
facet normal -0.875918325566888 0.482459414807192 0.0
outer loop
vertex 9.17089367015697 -7.03184048273127 8.0
vertex 8.81861194523057 -7.52084443819301 -14.0
vertex 8.81861194523057 -7.52084443819301 8.0
endloop
endfacet
facet normal -0.73500563559633 0.67806099699189 0.0
outer loop
vertex 8.81861194523057 -7.52084443819301 -14.0
vertex 9.17089367015697 -7.03184048273127 8.0
vertex 9.17089367015697 -7.03184048273127 -14.0
endloop
endfacet
facet normal -0.965925826289068 0.258819045102521 0.0
outer loop
vertex 9.39591242196242 -6.47273955846959 8.0
vertex 9.17089367015697 -7.03184048273127 -14.0
vertex 9.17089367015697 -7.03184048273127 8.0
endloop
endfacet
facet normal -0.875918325566888 0.482459414807192 0.0
outer loop
vertex 9.17089367015697 -7.03184048273127 -14.0
vertex 9.39591242196242 -6.47273955846959 8.0
vertex 9.39591242196242 -6.47273955846959 -14.0
endloop
endfacet
facet normal -0.99979722898485 0.0201370532654406 0.0
outer loop
vertex 9.48059092870187 -5.87603457887688 8.0
vertex 9.39591242196242 -6.47273955846959 -14.0
vertex 9.39591242196242 -6.47273955846959 8.0
endloop
endfacet
facet normal -0.965925826289068 0.258819045102521 0.0
outer loop
vertex 9.39591242196242 -6.47273955846959 -14.0
vertex 9.48059092870187 -5.87603457887688 8.0
vertex 9.48059092870187 -5.87603457887688 -14.0
endloop
endfacet
facet normal -0.975564050847094 -0.219715230912218 0.0
outer loop
vertex 9.42000798335748 -5.27640386843274 8.0
vertex 9.48059092870187 -5.87603457887688 -14.0
vertex 9.48059092870187 -5.87603457887688 8.0
endloop
endfacet
facet normal -0.99979722898485 0.0201370532654406 0.0
outer loop
vertex 9.48059092870187 -5.87603457887688 -14.0
vertex 9.42000798335748 -5.27640386843274 8.0
vertex 9.42000798335748 -5.27640386843274 -14.0
endloop
endfacet
facet normal -0.894634636105147 -0.446798464501626 0.0
outer loop
vertex 9.21768444650262 -4.70869578445922 8.0
vertex 9.42000798335748 -5.27640386843274 -14.0
vertex 9.42000798335748 -5.27640386843274 8.0
endloop
endfacet
facet normal -0.975564050847094 -0.219715230912218 0.0
outer loop
vertex 9.42000798335748 -5.27640386843274 -14.0
vertex 9.21768444650262 -4.70869578445922 8.0
vertex 9.21768444650262 -4.70869578445922 -14.0
endloop
endfacet
facet normal -0.761712308177359 -0.647915395380539 0.0
outer loop
vertex 8.88537862668315 -4.20590345726194 8.0
vertex 9.21768444650262 -4.70869578445922 -14.0
vertex 9.21768444650262 -4.70869578445922 8.0
endloop
endfacet
facet normal -0.894634636105147 -0.446798464501626 0.0
outer loop
vertex 9.21768444650262 -4.70869578445922 -14.0
vertex 8.88537862668315 -4.20590345726194 8.0
vertex 8.88537862668315 -4.20590345726194 -14.0
endloop
endfacet
facet normal -0.761712308177359 -0.647915395380539 0.0
outer loop
vertex 8.88537862668315 -4.20590345726194 8.0
vertex 8.44240293026447 -3.79724734932185 -14.0
vertex 8.88537862668315 -4.20590345726194 -14.0
endloop
endfacet
facet normal -0.584522029609888 -0.811377838556573 0.0
outer loop
vertex 8.44240293026447 -3.79724734932185 -14.0
vertex 8.88537862668315 -4.20590345726194 8.0
vertex 8.44240293026447 -3.79724734932185 8.0
endloop
endfacet
facet normal -0.584522029609888 -0.811377838556573 0.0
outer loop
vertex 8.44240293026447 -3.79724734932185 8.0
vertex 7.9145014945713 -3.50647706822793 -14.0
vertex 8.44240293026447 -3.79724734932185 -14.0
endloop
endfacet
facet normal -0.373361455332621 -0.927685950994143 0.0
outer loop
vertex 7.9145014945713 -3.50647706822793 -14.0
vertex 8.44240293026447 -3.79724734932185 8.0
vertex 7.9145014945713 -3.50647706822793 8.0
endloop
endfacet
facet normal -0.373361455332621 -0.927685950994143 0.0
outer loop
vertex 7.9145014945713 -3.50647706822793 8.0
vertex 7.33235403220248 -3.35049112581037 -14.0
vertex 7.9145014945713 -3.50647706822793 -14.0
endloop
endfacet
facet normal -0.140502470385092 -0.990080327961164 0.0
outer loop
vertex 7.33235403220248 -3.35049112581037 -14.0
vertex 7.9145014945713 -3.50647706822793 8.0
vertex 7.33235403220248 -3.35049112581037 8.0
endloop
endfacet
facet normal -0.140502470385092 -0.990080327961164 0.0
outer loop
vertex 7.33235403220248 -3.35049112581037 8.0
vertex 6.72979283765096 -3.33835485805667 -14.0
vertex 7.33235403220248 -3.35049112581037 -14.0
endloop
endfacet
facet normal 0.100522007435517 -0.994934835062645 0.0
outer loop
vertex 6.72979283765096 -3.33835485805667 -14.0
vertex 7.33235403220248 -3.35049112581037 8.0
vertex 6.72979283765096 -3.33835485805667 8.0
endloop
endfacet
facet normal 0.100522007435517 -0.994934835062645 0.0
outer loop
vertex 6.72979283765096 -3.33835485805667 8.0
vertex 6.14183657732324 -3.47077358073512 -14.0
vertex 6.72979283765096 -3.33835485805667 -14.0
endloop
endfacet
facet normal 0.335704511566605 -0.941967345991265 0.0
outer loop
vertex 6.14183657732324 -3.47077358073512 -14.0
vertex 6.72979283765096 -3.33835485805667 8.0
vertex 6.14183657732324 -3.47077358073512 8.0
endloop
endfacet
facet normal 0.335704511566605 -0.941967345991265 0.0
outer loop
vertex 6.14183657732324 -3.47077358073512 8.0
vertex 5.60265513193552 -3.74005159900613 -14.0
vertex 6.14183657732324 -3.47077358073512 -14.0
endloop
endfacet
facet normal 0.551377089721692 -0.834256138682861 0.0
outer loop
vertex 5.60265513193552 -3.74005159900613 -14.0
vertex 6.14183657732324 -3.47077358073512 8.0
vertex 5.60265513193552 -3.74005159900613 8.0
endloop
endfacet
facet normal 0.551377089721692 -0.834256138682861 0.0
outer loop
vertex 5.60265513193552 -3.74005159900613 8.0
vertex 5.14358376724893 -4.13053945323356 -14.0
vertex 5.60265513193552 -3.74005159900613 -14.0
endloop
endfacet
facet normal 0.735005635596329 -0.678060996991891 0.0
outer loop
vertex 5.14358376724893 -4.13053945323356 -14.0
vertex 5.60265513193552 -3.74005159900613 8.0
vertex 5.14358376724893 -4.13053945323356 8.0
endloop
endfacet
facet normal 0.735005635596329 -0.678060996991891 0.0
outer loop
vertex 5.14358376724893 -4.13053945323356 -14.0
vertex 4.79130204232253 -4.6195434086953 8.0
vertex 4.79130204232253 -4.6195434086953 -14.0
endloop
endfacet
facet normal 0.875918325566888 -0.482459414807192 0.0
outer loop
vertex 4.79130204232253 -4.6195434086953 8.0
vertex 5.14358376724893 -4.13053945323356 -14.0
vertex 5.14358376724893 -4.13053945323356 8.0
endloop
endfacet
facet normal 0.875918325566888 -0.482459414807192 0.0
outer loop
vertex 4.79130204232253 -4.6195434086953 -14.0
vertex 4.56628329051708 -5.17864433295699 8.0
vertex 4.56628329051708 -5.17864433295699 -14.0
endloop
endfacet
facet normal 0.965925826289069 -0.258819045102519 0.0
outer loop
vertex 4.56628329051708 -5.17864433295699 8.0
vertex 4.79130204232253 -4.6195434086953 -14.0
vertex 4.79130204232253 -4.6195434086953 8.0
endloop
endfacet
facet normal 0.965925826289069 -0.258819045102519 0.0
outer loop
vertex 4.56628329051708 -5.17864433295699 -14.0
vertex 4.48160478377762 -5.77534931254969 8.0
vertex 4.48160478377762 -5.77534931254969 -14.0
endloop
endfacet
facet normal 0.99979722898485 -0.0201370532654377 0.0
outer loop
vertex 4.48160478377762 -5.77534931254969 8.0
vertex 4.56628329051708 -5.17864433295699 -14.0
vertex 4.56628329051708 -5.17864433295699 8.0
endloop
endfacet
facet normal 0.99979722898485 -0.0201370532654377 0.0
outer loop
vertex 4.48160478377762 -5.77534931254969 -14.0
vertex 4.54218772912201 -6.37498002299384 8.0
vertex 4.54218772912201 -6.37498002299384 -14.0
endloop
endfacet
facet normal 0.975564050847093 0.219715230912221 0.0
outer loop
vertex 4.54218772912201 -6.37498002299384 8.0
vertex 4.48160478377762 -5.77534931254969 -14.0
vertex 4.48160478377762 -5.77534931254969 8.0
endloop
endfacet
facet normal 0.975564050847093 0.219715230912221 0.0
outer loop
vertex 4.54218772912201 -6.37498002299384 -14.0
vertex 4.74451126597688 -6.94268810696736 8.0
vertex 4.74451126597688 -6.94268810696736 -14.0
endloop
endfacet
facet normal 0.894634636105146 0.446798464501629 0.0
outer loop
vertex 4.74451126597688 -6.94268810696736 8.0
vertex 4.54218772912201 -6.37498002299384 -14.0
vertex 4.54218772912201 -6.37498002299384 8.0
endloop
endfacet
facet normal 0.894634636105146 0.446798464501629 0.0
outer loop
vertex 4.74451126597688 -6.94268810696736 -14.0
vertex 5.07681708579636 -7.44548043416464 8.0
vertex 5.07681708579636 -7.44548043416464 -14.0
endloop
endfacet
facet normal 0.761712308177357 0.647915395380541 0.0
outer loop
vertex 5.07681708579636 -7.44548043416464 8.0
vertex 4.74451126597688 -6.94268810696736 -14.0
vertex 4.74451126597688 -6.94268810696736 8.0
endloop
endfacet
facet normal 0.761712308177357 0.647915395380541 0.0
outer loop
vertex 5.07681708579636 -7.44548043416464 8.0
vertex 5.51979278221503 -7.85413654210472 -14.0
vertex 5.07681708579636 -7.44548043416464 -14.0
endloop
endfacet
facet normal 0.584522029609886 0.811377838556575 0.0
outer loop
vertex 5.51979278221503 -7.85413654210472 -14.0
vertex 5.07681708579636 -7.44548043416464 8.0
vertex 5.51979278221503 -7.85413654210472 8.0
endloop
endfacet
facet normal 0.584522029609886 0.811377838556575 0.0
outer loop
vertex 5.51979278221503 -7.85413654210472 8.0
vertex 6.0476942179082 -8.14490682319864 -14.0
vertex 5.51979278221503 -7.85413654210472 -14.0
endloop
endfacet
facet normal 0.373361455332619 0.927685950994144 0.0
outer loop
vertex 6.0476942179082 -8.14490682319864 -14.0
vertex 5.51979278221503 -7.85413654210472 8.0
vertex 6.0476942179082 -8.14490682319864 8.0
endloop
endfacet
facet normal 0.373361455332619 0.927685950994144 0.0
outer loop
vertex 6.0476942179082 -8.14490682319864 8.0
vertex 6.62984168027702 -8.3008927656162 -14.0
vertex 6.0476942179082 -8.14490682319864 -14.0
endloop
endfacet
facet normal 0.140502470385091 0.990080327961164 0.0
outer loop
vertex 6.62984168027702 -8.3008927656162 -14.0
vertex 6.0476942179082 -8.14490682319864 8.0
vertex 6.62984168027702 -8.3008927656162 8.0
endloop
endfacet
endsolid movement-ir-interrupter-spacer
