solid model
facet normal 1.72175194205634e-009 3.04922005132214e-010 -1.0
outer loop
vertex -5.78722002185601 1.55068093127755 -9.7934996324969e-009
vertex -5.78722002185601 -1.55068093127751 -1.1721162979498e-008
vertex -5.99137103941985 2.89597339164782e-014 -1.11368100537282e-008
endloop
endfacet
facet normal 1.72175194205634e-009 3.04922005132214e-010 -1.0
outer loop
vertex -5.78722002185601 -1.55068093127751 -1.1721162979498e-008
vertex -5.78722002185601 1.55068093127755 -9.7934996324969e-009
vertex -5.18867952363597 -2.9956855197099 -1.15067512341951e-008
endloop
endfacet
facet normal 1.72175194205634e-009 3.04922005132214e-010 -1.0
outer loop
vertex -5.18867952363597 -2.9956855197099 -1.15067512341951e-008
vertex -5.78722002185601 1.55068093127755 -9.7934996324969e-009
vertex -5.18867952363595 2.99568551970996 -7.78277593523138e-009
endloop
endfacet
facet normal 1.72175194205634e-009 3.04922005132214e-010 -1.0
outer loop
vertex -5.18867952363597 -2.9956855197099 -1.15067512341951e-008
vertex -5.18867952363595 2.99568551970996 -7.78277593523138e-009
vertex -4.2365390906696 -4.23653909045968 -9.87705171441669e-009
endloop
endfacet
facet normal 1.72175194205634e-009 3.04922005132214e-010 -1.0
outer loop
vertex -4.2365390906696 -4.23653909045968 -9.87705171441669e-009
vertex -5.18867952363595 2.99568551970996 -7.78277593523138e-009
vertex -4.23653909057845 4.2365390905785 -5.24166853573063e-009
endloop
endfacet
facet normal 1.72175194205634e-009 3.04922005132214e-010 -1.0
outer loop
vertex -4.2365390906696 -4.23653909045968 -9.87705171441669e-009
vertex -4.23653909057845 4.2365390905785 -5.24166853573063e-009
vertex -2.49999999913668 -5.56903240026148 5.4919520418781e-010
endloop
endfacet
facet normal 1.72175194205634e-009 3.04922005132214e-010 -1.0
outer loop
vertex -2.49999999913668 -5.56903240026148 5.4919520418781e-010
vertex -4.23653909057845 4.2365390905785 -5.24166853573063e-009
vertex -2.7 1.41750014718268e-018 -4.64873024355212e-009
endloop
endfacet
facet normal 1.72175194205634e-009 3.04922005132214e-010 -1.0
outer loop
vertex -2.49999999913668 -5.56903240026148 5.4919520418781e-010
vertex -2.7 1.41750014718268e-018 -4.64873024355212e-009
vertex -2.60799973098048 -0.698811421776806 -4.70341158163554e-009
endloop
endfacet
facet normal 1.72175194205634e-009 3.04922005132214e-010 -1.0
outer loop
vertex -2.49999999913668 -5.56903240026148 5.4919520418781e-010
vertex -2.60799973098048 -0.698811421776806 -4.70341158163554e-009
vertex -2.33826859021798 -1.35 -4.43756319318564e-009
endloop
endfacet
facet normal 1.72175194205634e-009 3.04922005132214e-010 -1.0
outer loop
vertex -2.49999999913668 -5.56903240026148 5.4919520418781e-010
vertex -2.33826859021798 -1.35 -4.43756319318564e-009
vertex -2.49999999913668 -13.0621778264757 -2.51291056422546e-010
endloop
endfacet
facet normal 1.72175194205634e-009 3.04922005132214e-010 -1.0
outer loop
vertex -2.49999999913668 -13.0621778264757 -2.51291056422546e-010
vertex -2.33826859021798 -1.35 -4.43756319318564e-009
vertex 2.50000000075539 -13.0621778264757 1.34933954386216e-009
endloop
endfacet
facet normal 1.72175194205634e-009 3.04922005132214e-010 -1.0
outer loop
vertex 2.50000000075539 -13.0621778264757 1.34933954386216e-009
vertex -2.33826859021798 -1.35 -4.43756319318564e-009
vertex -1.90918830920368 -1.90918830920368 -3.86930220654006e-009
endloop
endfacet
facet normal 1.72175194205634e-009 3.04922005132214e-010 -1.0
outer loop
vertex 2.50000000075539 -13.0621778264757 1.34933954386216e-009
vertex -1.90918830920368 -1.90918830920368 -3.86930220654006e-009
vertex -1.35 -2.33826859021798 -3.037354668843e-009
endloop
endfacet
facet normal 1.72175194205634e-009 3.04922005132214e-010 -1.0
outer loop
vertex 2.50000000075539 -13.0621778264757 1.34933954386216e-009
vertex -1.35 -2.33826859021798 -3.037354668843e-009
vertex -0.698811421776807 -2.60799973098048 -1.99841642993021e-009
endloop
endfacet
facet normal 1.72175194205634e-009 3.04922005132214e-010 -1.0
outer loop
vertex 2.50000000075539 -13.0621778264757 1.34933954386216e-009
vertex -0.698811421776807 -2.60799973098048 -1.99841642993021e-009
vertex -1.65327317884893e-016 -2.7 -8.23289413856977e-010
endloop
endfacet
facet normal 1.72175194205634e-009 3.04922005132214e-010 -1.0
outer loop
vertex 2.50000000075539 -13.0621778264757 1.34933954386216e-009
vertex -1.65327317884893e-016 -2.7 -8.23289413856977e-010
vertex 0.698811421776806 -2.60799973098048 4.07943415220523e-010
endloop
endfacet
facet normal 1.72175194205634e-009 3.04922005132214e-010 -1.0
outer loop
vertex 2.50000000075539 -13.0621778264757 1.34933954386216e-009
vertex 0.698811421776806 -2.60799973098048 4.07943415220523e-010
vertex 1.35 -2.33826859021798 1.61137557470911e-009
endloop
endfacet
facet normal 1.72175194205634e-009 3.04922005132214e-010 -1.0
outer loop
vertex 2.50000000075539 -13.0621778264757 1.34933954386216e-009
vertex 1.35 -2.33826859021798 1.61137557470911e-009
vertex 1.90918830920368 -1.90918830920368 2.70499515170532e-009
endloop
endfacet
facet normal 1.72175194205634e-009 3.04922005132214e-010 -1.0
outer loop
vertex 2.50000000075539 -13.0621778264757 1.34933954386216e-009
vertex 1.90918830920368 -1.90918830920368 2.70499515170532e-009
vertex 2.33826859021798 -1.35 3.61427377932866e-009
endloop
endfacet
facet normal 1.72175194205634e-009 3.04922005132214e-010 -1.0
outer loop
vertex 2.50000000075539 -13.0621778264757 1.34933954386216e-009
vertex 2.33826859021798 -1.35 3.61427377932866e-009
vertex 2.49999999994675 -5.56903240050061 1.21783040694854e-009
endloop
endfacet
facet normal 1.72175194205634e-009 3.04922005132214e-010 -1.0
outer loop
vertex -2.5000000000532 5.56903240041896 -1.21783104335773e-009
vertex -2.7 1.41750014718268e-018 -4.64873024355212e-009
vertex -4.23653909057845 4.2365390905785 -5.24166853573063e-009
endloop
endfacet
facet normal 1.72175194205634e-009 3.04922005132214e-010 -1.0
outer loop
vertex -2.7 1.41750014718268e-018 -4.64873024355212e-009
vertex -2.5000000000532 5.56903240041896 -1.21783104335773e-009
vertex -2.60799973098048 0.698811421776808 -4.27724562176058e-009
endloop
endfacet
facet normal 1.72175194205634e-009 3.04922005132214e-010 -1.0
outer loop
vertex -2.60799973098048 0.698811421776808 -4.27724562176058e-009
vertex -2.5000000000532 5.56903240041896 -1.21783104335773e-009
vertex -2.33826859021798 1.35 -3.61427377932866e-009
endloop
endfacet
facet normal 1.72175194205634e-009 3.04922005132214e-010 -1.0
outer loop
vertex -2.33826859021798 1.35 -3.61427377932866e-009
vertex -2.5000000000532 5.56903240041896 -1.21783104335773e-009
vertex -2.49999999924457 13.0621778265065 6.18872350409336e-009
endloop
endfacet
facet normal 1.72175194205634e-009 3.04922005132214e-010 -1.0
outer loop
vertex -2.33826859021798 1.35 -3.61427377932866e-009
vertex -2.49999999924457 13.0621778265065 6.18872350409336e-009
vertex 2.50000000075544 13.0621778265065 8.86621065136681e-009
endloop
endfacet
facet normal 1.72175194205634e-009 3.04922005132214e-010 -1.0
outer loop
vertex -2.33826859021798 1.35 -3.61427377932866e-009
vertex 2.50000000075544 13.0621778265065 8.86621065136681e-009
vertex -1.90918830920368 1.90918830920368 -2.70499515170532e-009
endloop
endfacet
facet normal 1.72175194205634e-009 3.04922005132214e-010 -1.0
outer loop
vertex -1.90918830920368 1.90918830920368 -2.70499515170532e-009
vertex 2.50000000075544 13.0621778265065 8.86621065136681e-009
vertex -1.35 2.33826859021799 -1.61137557470911e-009
endloop
endfacet
facet normal 1.72175194205634e-009 3.04922005132214e-010 -1.0
outer loop
vertex -1.35 2.33826859021799 -1.61137557470911e-009
vertex 2.50000000075544 13.0621778265065 8.86621065136681e-009
vertex -0.698811421776805 2.60799973098048 -4.07943415220522e-010
endloop
endfacet
facet normal 1.72175194205634e-009 3.04922005132214e-010 -1.0
outer loop
vertex -0.698811421776805 2.60799973098048 -4.07943415220522e-010
vertex 2.50000000075544 13.0621778265065 8.86621065136681e-009
vertex 4.95981953654678e-016 2.7 8.23289413856978e-010
endloop
endfacet
facet normal 1.72175194205634e-009 3.04922005132214e-010 -1.0
outer loop
vertex 4.95981953654678e-016 2.7 8.23289413856978e-010
vertex 2.50000000075544 13.0621778265065 8.86621065136681e-009
vertex 0.698811421776808 2.60799973098048 1.99841642993021e-009
endloop
endfacet
facet normal 1.72175194205634e-009 3.04922005132214e-010 -1.0
outer loop
vertex 0.698811421776808 2.60799973098048 1.99841642993021e-009
vertex 2.50000000075544 13.0621778265065 8.86621065136681e-009
vertex 1.35 2.33826859021798 3.037354668843e-009
endloop
endfacet
facet normal 1.72175194205634e-009 3.04922005132214e-010 -1.0
outer loop
vertex 1.35 2.33826859021798 3.037354668843e-009
vertex 2.50000000075544 13.0621778265065 8.86621065136681e-009
vertex 1.90918830920368 1.90918830920368 3.86930220654006e-009
endloop
endfacet
facet normal 1.72175194205634e-009 3.04922005132214e-010 -1.0
outer loop
vertex 1.90918830920368 1.90918830920368 3.86930220654006e-009
vertex 2.50000000075544 13.0621778265065 8.86621065136681e-009
vertex 2.33826859021798 1.35 4.43756319318564e-009
endloop
endfacet
facet normal 1.72175194205634e-009 3.04922005132214e-010 -1.0
outer loop
vertex 2.33826859021798 1.35 4.43756319318564e-009
vertex 2.50000000075544 13.0621778265065 8.86621065136681e-009
vertex 2.49999999994679 5.56903240050059 8.21986745989853e-009
endloop
endfacet
facet normal 1.72175194205634e-009 3.04922005132214e-010 -1.0
outer loop
vertex 2.49999999994679 5.56903240050059 8.21986745989853e-009
vertex 2.60799973098048 0.698811421776805 4.70341158163554e-009
vertex 2.33826859021798 1.35 4.43756319318564e-009
endloop
endfacet
facet normal 1.72175194205634e-009 3.04922005132214e-010 -1.0
outer loop
vertex 2.60799973098048 0.698811421776805 4.70341158163554e-009
vertex 2.49999999994679 5.56903240050059 8.21986745989853e-009
vertex 4.2365390905785 4.23653909057846 1.05081727953946e-008
endloop
endfacet
facet normal 1.72175194205634e-009 3.04922005132214e-010 -1.0
outer loop
vertex 2.60799973098048 0.698811421776805 4.70341158163554e-009
vertex 4.2365390905785 4.23653909057846 1.05081727953946e-008
vertex 2.7 -3.32072135916968e-016 4.64873024355212e-009
endloop
endfacet
facet normal 1.72175194205634e-009 3.04922005132214e-010 -1.0
outer loop
vertex 2.7 -3.32072135916968e-016 4.64873024355212e-009
vertex 4.2365390905785 4.23653909057846 1.05081727953946e-008
vertex 4.23653909057846 -4.23653909057848 5.24166789932143e-009
endloop
endfacet
facet normal 1.72175194205634e-009 3.04922005132214e-010 -1.0
outer loop
vertex 4.23653909057846 -4.23653909057848 5.24166789932143e-009
vertex 4.2365390905785 4.23653909057846 1.05081727953946e-008
vertex 5.18867952363596 -2.99568551970994 7.78277529882218e-009
endloop
endfacet
facet normal 1.72175194205634e-009 3.04922005132214e-010 -1.0
outer loop
vertex 5.18867952363596 -2.99568551970994 7.78277529882218e-009
vertex 4.2365390905785 4.23653909057846 1.05081727953946e-008
vertex 5.18867952363598 2.99568551970994 1.15067505977859e-008
endloop
endfacet
facet normal 1.72175194205634e-009 3.04922005132214e-010 -1.0
outer loop
vertex 5.18867952363596 -2.99568551970994 7.78277529882218e-009
vertex 5.18867952363598 2.99568551970994 1.15067505977859e-008
vertex 5.78722002185601 -1.55068093127755 9.7934989960877e-009
endloop
endfacet
facet normal 1.72175194205634e-009 3.04922005132214e-010 -1.0
outer loop
vertex 5.78722002185601 -1.55068093127755 9.7934989960877e-009
vertex 5.18867952363598 2.99568551970994 1.15067505977859e-008
vertex 5.78722002185602 1.55068093127754 1.17211727417152e-008
endloop
endfacet
facet normal 1.72175194205634e-009 3.04922005132214e-010 -1.0
outer loop
vertex 5.78722002185601 -1.55068093127755 9.7934989960877e-009
vertex 5.78722002185602 1.55068093127754 1.17211727417152e-008
vertex 5.99137103941985 -2.89597339164782e-014 1.11368101223106e-008
endloop
endfacet
facet normal 1.72175194205634e-009 3.04922005132214e-010 -1.0
outer loop
vertex 2.60799973098048 -0.698811421776807 4.27724562176058e-009
vertex 2.49999999994675 -5.56903240050061 1.21783040694854e-009
vertex 2.33826859021798 -1.35 3.61427377932866e-009
endloop
endfacet
facet normal 1.72175194205634e-009 3.04922005132214e-010 -1.0
outer loop
vertex 2.49999999994675 -5.56903240050061 1.21783040694854e-009
vertex 2.60799973098048 -0.698811421776807 4.27724562176058e-009
vertex 4.23653909057846 -4.23653909057848 5.24166789932143e-009
endloop
endfacet
facet normal 1.72175194205634e-009 3.04922005132214e-010 -1.0
outer loop
vertex 4.23653909057846 -4.23653909057848 5.24166789932143e-009
vertex 2.60799973098048 -0.698811421776807 4.27724562176058e-009
vertex 2.7 -3.32072135916968e-016 4.64873024355212e-009
endloop
endfacet
facet normal -9.39243528571619e-010 1.98324919920575e-010 1.0
outer loop
vertex 2.99568550924109 -5.18867952552278 6.00000000357569
vertex 1.5506809207986 -5.78722002370507 6.00000000090524
vertex 2.49999998961624 -5.56903240233014 6.00000000121783
endloop
endfacet
facet normal -9.39243528571619e-010 1.98324919920575e-010 1.0
outer loop
vertex 2.49999999042488 -13.0621778283052 6.00000000134934
vertex -2.50000000946719 -5.56903240209101 6.0000000005492
vertex -2.50000000946719 -13.0621778283052 5.99999999974871
endloop
endfacet
facet normal -9.39243528571619e-010 1.98324919920575e-010 1.0
outer loop
vertex -2.50000000946719 -5.56903240209101 6.0000000005492
vertex 2.49999999042488 -13.0621778283052 6.00000000134934
vertex -1.55068094174637 -5.78722002362824 5.99999999556546
endloop
endfacet
facet normal -9.39243528571619e-010 1.98324919920575e-010 1.0
outer loop
vertex -1.55068094174637 -5.78722002362824 5.99999999556546
vertex 2.49999999042488 -13.0621778283052 6.00000000134934
vertex -1.04789451705925e-008 -5.99137104122982 5.9999999981731
endloop
endfacet
facet normal -9.39243528571619e-010 1.98324919920575e-010 1.0
outer loop
vertex -1.04789451705925e-008 -5.99137104122982 5.9999999981731
vertex 2.49999999042488 -13.0621778283052 6.00000000134934
vertex 1.5506809207986 -5.78722002370507 6.00000000090524
endloop
endfacet
facet normal -9.39243528571619e-010 1.98324919920575e-010 1.0
outer loop
vertex 1.5506809207986 -5.78722002370507 6.00000000090524
vertex 2.49999999042488 -13.0621778283052 6.00000000134934
vertex 2.49999998961624 -5.56903240233014 6.00000000121783
endloop
endfacet
facet normal -9.39243528571619e-010 1.98324919920575e-010 1.0
outer loop
vertex -1.55068094174637 -5.78722002362824 5.99999999556546
vertex -2.9956855301592 -5.18867952537435 5.99999999326003
vertex -2.50000000946719 -5.56903240209101 6.0000000005492
endloop
endfacet
facet normal 0.991444861373811 0.130526192220046 1.7468224037544e-009
outer loop
vertex 5.99137103941985 -2.89597339164782e-014 1.11368101223106e-008
vertex 5.78722000821689 1.5506809287551 7.80000001172117
vertex 5.99137102578073 -2.5224597518185e-009 7.80000001113681
endloop
endfacet
facet normal 0.991444861373811 0.130526192220046 1.7468224037544e-009
outer loop
vertex 5.78722000821689 1.5506809287551 7.80000001172117
vertex 5.99137103941985 -2.89597339164782e-014 1.11368101223106e-008
vertex 5.78722002185602 1.55068093127754 1.17211727417152e-008
endloop
endfacet
facet normal 0.99144486137381 -0.130526192220056 1.66722178784986e-009
outer loop
vertex 5.78722002185601 -1.55068093127755 9.7934989960877e-009
vertex 5.99137102578073 -2.5224597518185e-009 7.80000001113681
vertex 5.78722000821688 -1.55068093379998 7.8000000097935
endloop
endfacet
facet normal 0.99144486137381 -0.130526192220056 1.66722178784986e-009
outer loop
vertex 5.99137102578073 -2.5224597518185e-009 7.80000001113681
vertex 5.78722002185601 -1.55068093127755 9.7934989960877e-009
vertex 5.99137103941985 -2.89597339164782e-014 1.11368101223106e-008
endloop
endfacet
facet normal 0.923879532511286 -0.382683432365091 1.47400276951113e-009
outer loop
vertex 5.18867952363596 -2.99568551970994 7.78277529882218e-009
vertex 5.78722000821688 -1.55068093379998 7.8000000097935
vertex 5.18867950999683 -2.99568552223238 7.80000000778278
endloop
endfacet
facet normal 0.923879532511286 -0.382683432365091 1.47400276951113e-009
outer loop
vertex 5.78722000821688 -1.55068093379998 7.8000000097935
vertex 5.18867952363596 -2.99568551970994 7.78277529882218e-009
vertex 5.78722002185601 -1.55068093127755 9.7934989960877e-009
endloop
endfacet
facet normal 0.793353340291232 -0.608761429008725 1.18033287650997e-009
outer loop
vertex 4.23653909057846 -4.23653909057848 5.24166789932143e-009
vertex 5.18867950999683 -2.99568552223238 7.80000000778278
vertex 4.23653907693933 -4.23653909310091 7.80000000524167
endloop
endfacet
facet normal 0.793353340291232 -0.608761429008725 1.18033287650997e-009
outer loop
vertex 5.18867950999683 -2.99568552223238 7.80000000778278
vertex 4.23653909057846 -4.23653909057848 5.24166789932143e-009
vertex 5.18867952363596 -2.99568551970994 7.78277529882218e-009
endloop
endfacet
facet normal 0.608761429006766 -0.793353340292735 8.08314093462325e-010
outer loop
vertex 4.23653909057846 -4.23653909057848 5.24166789932143e-009
vertex 2.49999998961624 -5.56903240233014 6.00000000121783
vertex 2.49999999994675 -5.56903240050061 1.21783040694854e-009
endloop
endfacet
facet normal 0.608761429006766 -0.793353340292735 8.08314093462325e-010
outer loop
vertex 2.49999998961624 -5.56903240233014 6.00000000121783
vertex 4.23653909057846 -4.23653909057848 5.24166789932143e-009
vertex 2.99568550924109 -5.18867952552278 6.00000000357569
endloop
endfacet
facet normal 0.608761429006766 -0.793353340292735 8.08314093462325e-010
outer loop
vertex 2.99568550924109 -5.18867952552278 6.00000000357569
vertex 4.23653909057846 -4.23653909057848 5.24166789932143e-009
vertex 4.23653907693933 -4.23653909310091 7.80000000524167
endloop
endfacet
facet normal 0.608761429006766 -0.793353340292735 8.08314093462325e-010
outer loop
vertex 2.99568550924109 -5.18867952552278 6.00000000357569
vertex 4.23653907693933 -4.23653909310091 7.80000000524167
vertex 2.99568550593247 -5.18867952621568 7.80000000357569
endloop
endfacet
facet normal 1.0 1.0791760508114e-010 1.72175194208925e-009
outer loop
vertex 2.50000000075539 -13.0621778264757 1.34933954386216e-009
vertex 2.49999998961624 -5.56903240233014 6.00000000121783
vertex 2.49999999042488 -13.0621778283052 6.00000000134934
endloop
endfacet
facet normal 1.0 1.0791760508114e-010 1.72175194208925e-009
outer loop
vertex 2.49999998961624 -5.56903240233014 6.00000000121783
vertex 2.50000000075539 -13.0621778264757 1.34933954386216e-009
vertex 2.49999999994675 -5.56903240050061 1.21783040694854e-009
endloop
endfacet
facet normal 9.76134984250652e-020 -1.0 -3.04922005132214e-010
outer loop
vertex 2.50000000075539 -13.0621778264757 1.34933954386216e-009
vertex -2.50000000946719 -13.0621778283052 5.99999999974871
vertex -2.49999999913668 -13.0621778264757 -2.51291056422546e-010
endloop
endfacet
facet normal 9.76134984250652e-020 -1.0 -3.04922005132214e-010
outer loop
vertex -2.50000000946719 -13.0621778283052 5.99999999974871
vertex 2.50000000075539 -13.0621778264757 1.34933954386216e-009
vertex 2.49999999042488 -13.0621778283052 6.00000000134934
endloop
endfacet
facet normal -1.0 1.83933274399511e-019 -1.72175194205634e-009
outer loop
vertex -2.50000000946719 -5.56903240209101 6.0000000005492
vertex -2.49999999913668 -13.0621778264757 -2.51291056422546e-010
vertex -2.50000000946719 -13.0621778283052 5.99999999974871
endloop
endfacet
facet normal -1.0 1.83933274399511e-019 -1.72175194205634e-009
outer loop
vertex -2.49999999913668 -13.0621778264757 -2.51291056422546e-010
vertex -2.50000000946719 -5.56903240209101 6.0000000005492
vertex -2.49999999913668 -5.56903240026148 5.4919520418781e-010
endloop
endfacet
facet normal -0.608761428800363 -0.793353340451114 -1.31694387179955e-009
outer loop
vertex -2.50000000946719 -5.56903240209101 6.0000000005492
vertex -2.9956855301592 -5.18867952537435 5.99999999326003
vertex -2.49999999913668 -5.56903240026148 5.4919520418781e-010
endloop
endfacet
facet normal -0.608761428800363 -0.793353340451114 -1.31694387179955e-009
outer loop
vertex -2.49999999913668 -5.56903240026148 5.4919520418781e-010
vertex -4.23653910430873 -4.23653909298211 7.79999999012295
vertex -4.2365390906696 -4.23653909045968 -9.87705171441669e-009
endloop
endfacet
facet normal -0.608761428800363 -0.793353340451114 -1.31694387179955e-009
outer loop
vertex -4.23653910430873 -4.23653909298211 7.79999999012295
vertex -2.49999999913668 -5.56903240026148 5.4919520418781e-010
vertex -2.9956855301592 -5.18867952537435 5.99999999326003
endloop
endfacet
facet normal -0.608761428800363 -0.793353340451114 -1.31694387179955e-009
outer loop
vertex -4.23653910430873 -4.23653909298211 7.79999999012295
vertex -2.9956855301592 -5.18867952537435 5.99999999326003
vertex -2.99568553346782 -5.18867952606725 7.79999999326003
endloop
endfacet
facet normal -0.793353340291233 -0.608761429008723 -1.55158239949105e-009
outer loop
vertex -5.1886795372751 -2.99568552223233 7.79999998849325
vertex -4.2365390906696 -4.23653909045968 -9.87705171441669e-009
vertex -4.23653910430873 -4.23653909298211 7.79999999012295
endloop
endfacet
facet normal -0.793353340291233 -0.608761429008723 -1.55158239949105e-009
outer loop
vertex -4.2365390906696 -4.23653909045968 -9.87705171441669e-009
vertex -5.1886795372751 -2.99568552223233 7.79999998849325
vertex -5.18867952363597 -2.9956855197099 -1.15067512341951e-008
endloop
endfacet
facet normal -0.923879532511288 -0.382683432365086 -1.70737994857402e-009
outer loop
vertex -5.78722003549514 -1.55068093379995 7.79999998827884
vertex -5.18867952363597 -2.9956855197099 -1.15067512341951e-008
vertex -5.1886795372751 -2.99568552223233 7.79999998849325
endloop
endfacet
facet normal -0.923879532511288 -0.382683432365086 -1.70737994857402e-009
outer loop
vertex -5.18867952363597 -2.9956855197099 -1.15067512341951e-008
vertex -5.78722003549514 -1.55068093379995 7.79999998827884
vertex -5.78722002185601 -1.55068093127751 -1.1721162979498e-008
endloop
endfacet
facet normal -0.99144486137381 -0.130526192220051 -1.74682240064082e-009
outer loop
vertex -5.99137105305898 -2.52240183235066e-009 7.79999998886319
vertex -5.78722002185601 -1.55068093127751 -1.1721162979498e-008
vertex -5.78722003549514 -1.55068093379995 7.79999998827884
endloop
endfacet
facet normal -0.99144486137381 -0.130526192220051 -1.74682240064082e-009
outer loop
vertex -5.78722002185601 -1.55068093127751 -1.1721162979498e-008
vertex -5.99137105305898 -2.52240183235066e-009 7.79999998886319
vertex -5.99137103941985 2.89597339164782e-014 -1.11368100537282e-008
endloop
endfacet
facet normal -0.99144486137381 0.130526192220056 -1.66722178551338e-009
outer loop
vertex -5.78722003549514 1.55068092875512 7.7999999902065
vertex -5.99137103941985 2.89597339164782e-014 -1.11368100537282e-008
vertex -5.99137105305898 -2.52240183235066e-009 7.79999998886319
endloop
endfacet
facet normal -0.99144486137381 0.130526192220056 -1.66722178551338e-009
outer loop
vertex -5.99137103941985 2.89597339164782e-014 -1.11368100537282e-008
vertex -5.78722003549514 1.55068092875512 7.7999999902065
vertex -5.78722002185601 1.55068093127755 -9.7934996324969e-009
endloop
endfacet
facet normal -0.923879532511288 0.382683432365087 -1.47400276889515e-009
outer loop
vertex -5.18867953727508 2.99568551718753 7.79999999221723
vertex -5.78722002185601 1.55068093127755 -9.7934996324969e-009
vertex -5.78722003549514 1.55068092875512 7.7999999902065
endloop
endfacet
facet normal -0.923879532511288 0.382683432365087 -1.47400276889515e-009
outer loop
vertex -5.78722002185601 1.55068093127755 -9.7934996324969e-009
vertex -5.18867953727508 2.99568551718753 7.79999999221723
vertex -5.18867952363595 2.99568551970996 -7.78277593523138e-009
endloop
endfacet
facet normal -0.793353340291232 0.608761429008725 -1.18033287507532e-009
outer loop
vertex -4.23653910421758 4.23653908805607 7.79999999475833
vertex -5.18867952363595 2.99568551970996 -7.78277593523138e-009
vertex -5.18867953727508 2.99568551718753 7.79999999221723
endloop
endfacet
facet normal -0.793353340291232 0.608761429008725 -1.18033287507532e-009
outer loop
vertex -5.18867952363595 2.99568551970996 -7.78277593523138e-009
vertex -4.23653910421758 4.23653908805607 7.79999999475833
vertex -4.23653909057845 4.2365390905785 -5.24166853573063e-009
endloop
endfacet
facet normal -0.60876142900677 0.793353340292732 -8.04134999464936e-010
outer loop
vertex -4.23653910421758 4.23653908805607 7.79999999475833
vertex -2.5000000000532 5.56903240041896 -1.21783104335773e-009
vertex -4.23653909057845 4.2365390905785 -5.24166853573063e-009
endloop
endfacet
facet normal -0.60876142900677 0.793353340292732 -8.04134999464936e-010
outer loop
vertex -2.5000000000532 5.56903240041896 -1.21783104335773e-009
vertex -4.23653910421758 4.23653908805607 7.79999999475833
vertex -2.99568552990211 5.18867952186371 5.99999999642432
endloop
endfacet
facet normal -0.60876142900677 0.793353340292732 -8.04134999464936e-010
outer loop
vertex -2.99568552990211 5.18867952186371 5.99999999642432
vertex -4.23653910421758 4.23653908805607 7.79999999475833
vertex -2.99568553321073 5.18867952117082 7.79999999642432
endloop
endfacet
facet normal -0.60876142900677 0.793353340292732 -8.04134999464936e-010
outer loop
vertex -2.50000001038372 5.56903239858943 5.99999999878217
vertex -2.5000000000532 5.56903240041896 -1.21783104335773e-009
vertex -2.99568552990211 5.18867952186371 5.99999999642432
endloop
endfacet
facet normal -1.0 1.07917136326804e-010 -1.72175194202343e-009
outer loop
vertex -2.50000000957508 13.0621778246769 6.00000000618872
vertex -2.5000000000532 5.56903240041896 -1.21783104335773e-009
vertex -2.50000001038372 5.56903239858943 5.99999999878217
endloop
endfacet
facet normal -1.0 1.07917136326804e-010 -1.72175194202343e-009
outer loop
vertex -2.5000000000532 5.56903240041896 -1.21783104335773e-009
vertex -2.50000000957508 13.0621778246769 6.00000000618872
vertex -2.49999999924457 13.0621778265065 6.18872350409336e-009
endloop
endfacet
facet normal -1.6328494993247e-019 1.0 3.04922005132214e-010
outer loop
vertex -2.50000000957508 13.0621778246769 6.00000000618872
vertex 2.50000000075544 13.0621778265065 8.86621065136681e-009
vertex -2.49999999924457 13.0621778265065 6.18872350409336e-009
endloop
endfacet
facet normal -1.6328494993247e-019 1.0 3.04922005132214e-010
outer loop
vertex 2.50000000075544 13.0621778265065 8.86621065136681e-009
vertex -2.50000000957508 13.0621778246769 6.00000000618872
vertex 2.49999999042492 13.0621778246769 6.00000000886621
endloop
endfacet
facet normal 1.0 -1.07917417029252e-010 1.72175194202343e-009
outer loop
vertex 2.49999999994679 5.56903240050059 8.21986745989853e-009
vertex 2.49999999042492 13.0621778246769 6.00000000886621
vertex 2.49999998961628 5.56903239867106 6.00000000821987
endloop
endfacet
facet normal 1.0 -1.07917417029252e-010 1.72175194202343e-009
outer loop
vertex 2.49999999042492 13.0621778246769 6.00000000886621
vertex 2.49999999994679 5.56903240050059 8.21986745989853e-009
vertex 2.50000000075544 13.0621778265065 8.86621065136681e-009
endloop
endfacet
facet normal 0.608761429008715 0.79335334029124 1.2900478519467e-009
outer loop
vertex 2.49999998961628 5.56903239867106 6.00000000821987
vertex 4.2365390905785 4.23653909057846 1.05081727953946e-008
vertex 2.49999999994679 5.56903240050059 8.21986745989853e-009
endloop
endfacet
facet normal 0.608761429008715 0.79335334029124 1.2900478519467e-009
outer loop
vertex 4.2365390905785 4.23653909057846 1.05081727953946e-008
vertex 2.49999998961628 5.56903239867106 6.00000000821987
vertex 2.99568550949818 5.18867952171528 6.00000000673997
endloop
endfacet
facet normal 0.608761429008715 0.79335334029124 1.2900478519467e-009
outer loop
vertex 2.99568550949818 5.18867952171528 6.00000000673997
vertex 4.23653907693937 4.23653908805603 7.80000001050817
vertex 4.2365390905785 4.23653909057846 1.05081727953946e-008
endloop
endfacet
facet normal 0.608761429008715 0.79335334029124 1.2900478519467e-009
outer loop
vertex 4.23653907693937 4.23653908805603 7.80000001050817
vertex 2.99568550949818 5.18867952171528 6.00000000673997
vertex 2.99568550618957 5.18867952102238 7.80000000673997
endloop
endfacet
facet normal 0.793353340291235 0.608761429008721 1.55158239181877e-009
outer loop
vertex 5.18867952363598 2.99568551970994 1.15067505977859e-008
vertex 4.23653907693937 4.23653908805603 7.80000001050817
vertex 5.18867950999685 2.99568551718751 7.80000001150675
endloop
endfacet
facet normal 0.793353340291235 0.608761429008721 1.55158239181877e-009
outer loop
vertex 4.23653907693937 4.23653908805603 7.80000001050817
vertex 5.18867952363598 2.99568551970994 1.15067505977859e-008
vertex 4.2365390905785 4.23653909057846 1.05081727953946e-008
endloop
endfacet
facet normal 0.923879532511289 0.382683432365085 1.70737995716152e-009
outer loop
vertex 5.78722002185602 1.55068093127754 1.17211727417152e-008
vertex 5.18867950999685 2.99568551718751 7.80000001150675
vertex 5.78722000821689 1.5506809287551 7.80000001172117
endloop
endfacet
facet normal 0.923879532511289 0.382683432365085 1.70737995716152e-009
outer loop
vertex 5.18867950999685 2.99568551718751 7.80000001150675
vertex 5.78722002185602 1.55068093127754 1.17211727417152e-008
vertex 5.18867952363598 2.99568551970994 1.15067505977859e-008
endloop
endfacet
facet normal 0.866025403784545 0.499999999999815 1.66785071519184e-009
outer loop
vertex -2.33826859021798 -1.35 -4.43756319318564e-009
vertex -2.60799974461961 -0.698811424299237 7.79999999529659
vertex -2.33826860385711 -1.35000000252243 7.79999999556244
endloop
endfacet
facet normal 0.965925826288834 0.258819045103394 1.76498798752694e-009
outer loop
vertex -2.60799974461961 -0.698811424299237 7.79999999529659
vertex -2.33826859021798 -1.35 -4.43756319318564e-009
vertex -2.60799973098048 -0.698811421776806 -4.70341158163554e-009
endloop
endfacet
facet normal 0.707106781186199 0.707106781186896 1.45705217368853e-009
outer loop
vertex -1.90918830920368 -1.90918830920368 -3.86930220654006e-009
vertex -2.33826860385711 -1.35000000252243 7.79999999556244
vertex -1.90918832284281 -1.90918831172611 7.7999999961307
endloop
endfacet
facet normal 0.866025403784332 0.500000000000185 1.66785071519159e-009
outer loop
vertex -2.33826860385711 -1.35000000252243 7.79999999556244
vertex -1.90918830920368 -1.90918830920368 -3.86930220654006e-009
vertex -2.33826859021798 -1.35 -4.43756319318564e-009
endloop
endfacet
facet normal 0.707106781186896 0.707106781186199 1.45705217368952e-009
outer loop
vertex -1.90918832284281 -1.90918831172611 7.7999999961307
vertex -1.35 -2.33826859021798 -3.037354668843e-009
vertex -1.90918830920368 -1.90918830920368 -3.86930220654006e-009
endloop
endfacet
facet normal 0.499999999998991 0.866025403785021 1.14695793582458e-009
outer loop
vertex -1.35 -2.33826859021798 -3.037354668843e-009
vertex -1.90918832284281 -1.90918831172611 7.7999999961307
vertex -1.35000001363913 -2.33826859274041 7.79999999696264
endloop
endfacet
facet normal 0.500000000001009 0.866025403783856 1.14695793582772e-009
outer loop
vertex -1.35000001363913 -2.33826859274041 7.79999999696264
vertex -0.698811421776807 -2.60799973098048 -1.99841642993021e-009
vertex -1.35 -2.33826859021798 -3.037354668843e-009
endloop
endfacet
facet normal 0.258819045100823 0.965925826289523 7.58700407919019e-010
outer loop
vertex -0.698811421776807 -2.60799973098048 -1.99841642993021e-009
vertex -1.35000001363913 -2.33826859274041 7.79999999696264
vertex -0.698811435415934 -2.60799973350291 7.79999999800158
endloop
endfacet
facet normal 0.258819045104219 0.965925826288613 7.58700407924646e-010
outer loop
vertex -0.698811435415934 -2.60799973350291 7.79999999800158
vertex -1.65327317884893e-016 -2.7 -8.23289413856977e-010
vertex -0.698811421776807 -2.60799973098048 -1.99841642993021e-009
endloop
endfacet
facet normal -2.23124389565771e-012 1.0 3.18738700479381e-010
outer loop
vertex -1.65327317884893e-016 -2.7 -8.23289413856977e-010
vertex -0.698811435415934 -2.60799973350291 7.79999999800158
vertex -1.363912765758e-008 -2.70000000252243 7.79999999917671
endloop
endfacet
facet normal 2.23162707339007e-012 1.0 3.18738700487154e-010
outer loop
vertex -1.363912765758e-008 -2.70000000252243 7.79999999917671
vertex 0.698811421776806 -2.60799973098048 4.07943415220523e-010
vertex -1.65327317884893e-016 -2.7 -8.23289413856977e-010
endloop
endfacet
facet normal -0.258819045104986 0.965925826288408 -1.42944522172936e-010
outer loop
vertex 0.698811421776806 -2.60799973098048 4.07943415220523e-010
vertex -1.363912765758e-008 -2.70000000252243 7.79999999917671
vertex 0.698811408137678 -2.60799973350292 7.80000000040794
endloop
endfacet
facet normal -0.258819045100055 0.965925826289729 -1.42944522163925e-010
outer loop
vertex 0.698811408137678 -2.60799973350292 7.80000000040794
vertex 1.35 -2.33826859021798 1.61137557470911e-009
vertex 0.698811421776806 -2.60799973098048 4.07943415220523e-010
endloop
endfacet
facet normal -0.500000000002338 0.866025403783089 -5.9488631199758e-010
outer loop
vertex 1.35 -2.33826859021798 1.61137557470911e-009
vertex 0.698811408137678 -2.60799973350292 7.80000000040794
vertex 1.34999998636087 -2.33826859274042 7.80000000161138
endloop
endfacet
facet normal -0.499999999997662 0.866025403785789 -5.94886311988575e-010
outer loop
vertex 1.34999998636087 -2.33826859274042 7.80000000161138
vertex 1.90918830920368 -1.90918830920368 2.70499515170532e-009
vertex 1.35 -2.33826859021798 1.61137557470911e-009
endloop
endfacet
facet normal -0.70710678118843 0.707106781184665 -1.00628757940775e-009
outer loop
vertex 1.90918830920368 -1.90918830920368 2.70499515170532e-009
vertex 1.34999998636087 -2.33826859274042 7.80000000161138
vertex 1.90918829556455 -1.90918831172611 7.800000002705
endloop
endfacet
facet normal -0.866025403783216 0.500000000002117 -1.34911201042524e-009
outer loop
vertex 2.33826857657886 -1.35000000252243 7.80000000361427
vertex 1.90918830920368 -1.90918830920368 2.70499515170532e-009
vertex 1.90918829556455 -1.90918831172611 7.800000002705
endloop
endfacet
facet normal -0.70710678118843 0.707106781184665 -1.00628757940775e-009
outer loop
vertex 1.90918830920368 -1.90918830920368 2.70499515170532e-009
vertex 2.33826857657886 -1.35000000252243 7.80000000361427
vertex 2.33826859021798 -1.35 3.61427377932866e-009
endloop
endfacet
facet normal -0.965925826288535 0.258819045104511 -1.59999669153805e-009
outer loop
vertex 2.60799971734136 -0.698811424299237 7.80000000427725
vertex 2.33826859021798 -1.35 3.61427377932866e-009
vertex 2.33826857657886 -1.35000000252243 7.80000000361427
endloop
endfacet
facet normal -0.866025403785661 0.499999999997883 -1.34911201043084e-009
outer loop
vertex 2.33826859021798 -1.35 3.61427377932866e-009
vertex 2.60799971734136 -0.698811424299237 7.80000000427725
vertex 2.60799973098048 -0.698811421776807 4.27724562176058e-009
endloop
endfacet
facet normal -1.0 1.53486739064259e-012 -1.74184424306134e-009
outer loop
vertex 2.69999998636087 -2.52243112415672e-009 7.80000000464873
vertex 2.60799973098048 -0.698811421776807 4.27724562176058e-009
vertex 2.60799971734136 -0.698811424299237 7.80000000427725
endloop
endfacet
facet normal -0.965925826289601 0.258819045100532 -1.59999669154118e-009
outer loop
vertex 2.60799973098048 -0.698811421776807 4.27724562176058e-009
vertex 2.69999998636087 -2.52243112415672e-009 7.80000000464873
vertex 2.7 -3.32072135916968e-016 4.64873024355212e-009
endloop
endfacet
facet normal -0.965925826289303 -0.258819045101646 -1.76498798755509e-009
outer loop
vertex 2.60799971734136 0.698811419254374 7.80000000470341
vertex 2.7 -3.32072135916968e-016 4.64873024355212e-009
vertex 2.69999998636087 -2.52243112415672e-009 7.80000000464873
endloop
endfacet
facet normal -1.0 -1.53410103519841e-012 -1.74184424306232e-009
outer loop
vertex 2.7 -3.32072135916968e-016 4.64873024355212e-009
vertex 2.60799971734136 0.698811419254374 7.80000000470341
vertex 2.60799973098048 0.698811421776805 4.70341158163554e-009
endloop
endfacet
facet normal -0.866025403784545 -0.499999999999815 -1.66785071519184e-009
outer loop
vertex 2.33826857657886 1.34999999747757 7.80000000443756
vertex 2.60799973098048 0.698811421776805 4.70341158163554e-009
vertex 2.60799971734136 0.698811419254374 7.80000000470341
endloop
endfacet
facet normal -0.965925826288834 -0.258819045103394 -1.76498798755483e-009
outer loop
vertex 2.60799973098048 0.698811421776805 4.70341158163554e-009
vertex 2.33826857657886 1.34999999747757 7.80000000443756
vertex 2.33826859021798 1.35 4.43756319318564e-009
endloop
endfacet
facet normal -0.707106781186199 -0.707106781186896 -1.45705217279147e-009
outer loop
vertex 1.90918829556455 1.90918830668125 7.8000000038693
vertex 2.33826859021798 1.35 4.43756319318564e-009
vertex 2.33826857657886 1.34999999747757 7.80000000443756
endloop
endfacet
facet normal -0.866025403784332 -0.500000000000184 -1.66785071519159e-009
outer loop
vertex 2.33826859021798 1.35 4.43756319318564e-009
vertex 1.90918829556455 1.90918830668125 7.8000000038693
vertex 1.90918830920368 1.90918830920368 3.86930220654006e-009
endloop
endfacet
facet normal -0.707106781186896 -0.707106781186199 -1.45705217279246e-009
outer loop
vertex 1.90918830920368 1.90918830920368 3.86930220654006e-009
vertex 1.34999998636087 2.33826858769555 7.80000000303736
vertex 1.35 2.33826859021798 3.037354668843e-009
endloop
endfacet
facet normal -0.499999999998991 -0.866025403785021 -1.1469579347599e-009
outer loop
vertex 1.34999998636087 2.33826858769555 7.80000000303736
vertex 1.90918830920368 1.90918830920368 3.86930220654006e-009
vertex 1.90918829556455 1.90918830668125 7.8000000038693
endloop
endfacet
facet normal -0.500000000001009 -0.866025403783856 -1.14695793476304e-009
outer loop
vertex 1.35 2.33826859021798 3.037354668843e-009
vertex 0.698811408137681 2.60799972845805 7.80000000199842
vertex 0.698811421776808 2.60799973098048 1.99841642993021e-009
endloop
endfacet
facet normal -0.258819045100823 -0.965925826289523 -7.58700407723506e-010
outer loop
vertex 0.698811408137681 2.60799972845805 7.80000000199842
vertex 1.35 2.33826859021798 3.037354668843e-009
vertex 1.34999998636087 2.33826858769555 7.80000000303736
endloop
endfacet
facet normal -0.25881904510422 -0.965925826288613 -7.58700407729133e-010
outer loop
vertex 0.698811421776808 2.60799973098048 1.99841642993021e-009
vertex -1.36391269962707e-008 2.69999999747757 7.80000000082329
vertex 4.95981953654678e-016 2.7 8.23289413856978e-010
endloop
endfacet
facet normal 2.23097656236084e-012 -1.0 -3.1873870014754e-010
outer loop
vertex -1.36391269962707e-008 2.69999999747757 7.80000000082329
vertex 0.698811421776808 2.60799973098048 1.99841642993021e-009
vertex 0.698811408137681 2.60799972845805 7.80000000199842
endloop
endfacet
facet normal -2.23199242889579e-012 -1.0 -3.18738700155314e-010
outer loop
vertex 4.95981953654678e-016 2.7 8.23289413856978e-010
vertex -0.698811435415932 2.60799972845805 7.79999999959206
vertex -0.698811421776805 2.60799973098048 -4.07943415220522e-010
endloop
endfacet
facet normal 0.258819045104986 -0.965925826288408 1.42944521179083e-010
outer loop
vertex -0.698811435415932 2.60799972845805 7.79999999959206
vertex 4.95981953654678e-016 2.7 8.23289413856978e-010
vertex -1.36391269962707e-008 2.69999999747757 7.80000000082329
endloop
endfacet
facet normal 0.258819045100055 -0.965925826289729 1.42944521170072e-010
outer loop
vertex -0.698811421776805 2.60799973098048 -4.07943415220522e-010
vertex -1.35000001363913 2.33826858769555 7.79999999838863
vertex -1.35 2.33826859021799 -1.61137557470911e-009
endloop
endfacet
facet normal 0.500000000002338 -0.866025403783089 5.94886310699785e-010
outer loop
vertex -1.35000001363913 2.33826858769555 7.79999999838863
vertex -0.698811421776805 2.60799973098048 -4.07943415220522e-010
vertex -0.698811435415932 2.60799972845805 7.79999999959206
endloop
endfacet
facet normal 0.499999999997661 -0.866025403785789 5.94886310690779e-010
outer loop
vertex -1.35 2.33826859021799 -1.61137557470911e-009
vertex -1.90918832284281 1.90918830668125 7.79999999729501
vertex -1.90918830920368 1.90918830920368 -2.70499515170532e-009
endloop
endfacet
facet normal 0.70710678118843 -0.707106781184665 1.00628757940775e-009
outer loop
vertex -1.90918832284281 1.90918830668125 7.79999999729501
vertex -1.35 2.33826859021799 -1.61137557470911e-009
vertex -1.35000001363913 2.33826858769555 7.79999999838863
endloop
endfacet
facet normal 0.866025403783216 -0.500000000002118 1.34911201025762e-009
outer loop
vertex -2.33826859021798 1.35 -3.61427377932866e-009
vertex -1.90918832284281 1.90918830668125 7.79999999729501
vertex -2.33826860385711 1.34999999747757 7.79999999638573
endloop
endfacet
facet normal 0.70710678118843 -0.707106781184665 1.00628757940775e-009
outer loop
vertex -1.90918832284281 1.90918830668125 7.79999999729501
vertex -2.33826859021798 1.35 -3.61427377932866e-009
vertex -1.90918830920368 1.90918830920368 -2.70499515170532e-009
endloop
endfacet
facet normal 0.965925826288535 -0.258819045104511 1.59999669081834e-009
outer loop
vertex -2.60799973098048 0.698811421776808 -4.27724562176058e-009
vertex -2.33826860385711 1.34999999747757 7.79999999638573
vertex -2.60799974461961 0.698811419254378 7.79999999572275
endloop
endfacet
facet normal 0.866025403785661 -0.499999999997884 1.34911201026323e-009
outer loop
vertex -2.33826860385711 1.34999999747757 7.79999999638573
vertex -2.60799973098048 0.698811421776808 -4.27724562176058e-009
vertex -2.33826859021798 1.35 -3.61427377932866e-009
endloop
endfacet
facet normal 1.0 -1.53473372399415e-012 1.74184424248135e-009
outer loop
vertex -2.7 1.41750014718268e-018 -4.64873024355212e-009
vertex -2.60799974461961 0.698811419254378 7.79999999572275
vertex -2.70000001363913 -2.52243079066708e-009 7.79999999535127
endloop
endfacet
facet normal 0.965925826289601 -0.258819045100532 1.59999669082147e-009
outer loop
vertex -2.60799974461961 0.698811419254378 7.79999999572275
vertex -2.7 1.41750014718268e-018 -4.64873024355212e-009
vertex -2.60799973098048 0.698811421776808 -4.27724562176058e-009
endloop
endfacet
facet normal 0.965925826289303 0.258819045101647 1.7649879875272e-009
outer loop
vertex -2.60799973098048 -0.698811421776806 -4.70341158163554e-009
vertex -2.70000001363913 -2.52243079066708e-009 7.79999999535127
vertex -2.60799974461961 -0.698811424299237 7.79999999529659
endloop
endfacet
facet normal 1.0 1.53423470184685e-012 1.74184424248233e-009
outer loop
vertex -2.70000001363913 -2.52243079066708e-009 7.79999999535127
vertex -2.60799973098048 -0.698811421776806 -4.70341158163554e-009
vertex -2.7 1.41750014718268e-018 -4.64873024355212e-009
endloop
endfacet
facet normal -1.4546558809776e-009 -7.06795778041699e-010 1.0
outer loop
vertex 2.99568550949818 5.18867952171528 6.00000000673997
vertex 2.49999998961628 5.56903239867106 6.00000000821987
vertex 1.55068092108534 5.78722001996917 6.00000000443454
endloop
endfacet
facet normal -1.4546558809776e-009 -7.06795778041699e-010 1.0
outer loop
vertex -1.55068094145962 5.78722002004601 5.99999999909476
vertex -2.50000001038372 5.56903239858943 5.99999999878217
vertex -2.99568552990211 5.18867952186371 5.99999999642432
endloop
endfacet
facet normal -1.4546558809776e-009 -7.06795778041699e-010 1.0
outer loop
vertex -2.50000001038372 5.56903239858943 5.99999999878217
vertex -1.55068094145962 5.78722002004601 5.99999999909476
vertex -2.50000000957508 13.0621778246769 6.00000000618872
endloop
endfacet
facet normal -1.4546558809776e-009 -7.06795778041699e-010 1.0
outer loop
vertex -2.50000000957508 13.0621778246769 6.00000000618872
vertex -1.55068094145962 5.78722002004601 5.99999999909476
vertex 2.49999999042492 13.0621778246769 6.00000000886621
endloop
endfacet
facet normal -1.4546558809776e-009 -7.06795778041699e-010 1.0
outer loop
vertex 2.49999999042492 13.0621778246769 6.00000000886621
vertex -1.55068094145962 5.78722002004601 5.99999999909476
vertex -1.01820770765962e-008 5.99137103757076 6.0000000018269
endloop
endfacet
facet normal -1.4546558809776e-009 -7.06795778041699e-010 1.0
outer loop
vertex 2.49999999042492 13.0621778246769 6.00000000886621
vertex -1.01820770765962e-008 5.99137103757076 6.0000000018269
vertex 1.55068092108534 5.78722001996917 6.00000000443454
endloop
endfacet
facet normal -1.4546558809776e-009 -7.06795778041699e-010 1.0
outer loop
vertex 2.49999999042492 13.0621778246769 6.00000000886621
vertex 1.55068092108534 5.78722001996917 6.00000000443454
vertex 2.49999998961628 5.56903239867106 6.00000000821987
endloop
endfacet
facet normal 0.382683432387979 0.923879532501806 1.05905969429148e-009
outer loop
vertex 1.55068091777673 5.78722001927627 7.80000000443454
vertex 2.99568550949818 5.18867952171528 6.00000000673997
vertex 1.55068092108534 5.78722001996917 6.00000000443454
endloop
endfacet
facet normal 0.382683432387979 0.923879532501806 1.05905969429148e-009
outer loop
vertex 2.99568550949818 5.18867952171528 6.00000000673997
vertex 1.55068091777673 5.78722001927627 7.80000000443454
vertex 2.99568550618957 5.18867952102238 7.80000000673997
endloop
endfacet
facet normal 0.130526192244614 0.991444861370577 6.2157330195365e-010
outer loop
vertex -1.34906929165108e-008 5.99137103687786 7.8000000018269
vertex 1.55068092108534 5.78722001996917 6.00000000443454
vertex -1.01820770765962e-008 5.99137103757076 6.0000000018269
endloop
endfacet
facet normal 0.130526192244614 0.991444861370577 6.2157330195365e-010
outer loop
vertex 1.55068092108534 5.78722001996917 6.00000000443454
vertex -1.34906929165108e-008 5.99137103687786 7.8000000018269
vertex 1.55068091777673 5.78722001927627 7.80000000443454
endloop
endfacet
facet normal -0.130526192195489 0.991444861377044 1.4172771628613e-010
outer loop
vertex -1.55068094476823 5.78722001935311 7.79999999909476
vertex -1.01820770765962e-008 5.99137103757076 6.0000000018269
vertex -1.55068094145962 5.78722002004601 5.99999999909476
endloop
endfacet
facet normal -0.130526192195489 0.991444861377044 1.4172771628613e-010
outer loop
vertex -1.01820770765962e-008 5.99137103757076 6.0000000018269
vertex -1.55068094476823 5.78722001935311 7.79999999909476
vertex -1.34906929165108e-008 5.99137103687786 7.8000000018269
endloop
endfacet
facet normal -0.382683432342201 0.923879532520768 -3.47776379030165e-010
outer loop
vertex -2.99568553321073 5.18867952117082 7.79999999642432
vertex -1.55068094145962 5.78722002004601 5.99999999909476
vertex -2.99568552990211 5.18867952186371 5.99999999642432
endloop
endfacet
facet normal -0.382683432342201 0.923879532520768 -3.47776379030165e-010
outer loop
vertex -1.55068094145962 5.78722002004601 5.99999999909476
vertex -2.99568553321073 5.18867952117082 7.79999999642432
vertex -1.55068094476823 5.78722001935311 7.79999999909476
endloop
endfacet
facet normal -0.382683432387978 -0.923879532501806 -1.05905969429148e-009
outer loop
vertex -1.55068094174637 -5.78722002362824 5.99999999556546
vertex -2.99568553346782 -5.18867952606725 7.79999999326003
vertex -2.9956855301592 -5.18867952537435 5.99999999326003
endloop
endfacet
facet normal -0.382683432387978 -0.923879532501806 -1.05905969429148e-009
outer loop
vertex -2.99568553346782 -5.18867952606725 7.79999999326003
vertex -1.55068094174637 -5.78722002362824 5.99999999556546
vertex -1.55068094505498 -5.78722002432113 7.79999999556546
endloop
endfacet
facet normal -0.130526192244614 -0.991444861370577 -6.21573301953651e-010
outer loop
vertex -1.04789451705925e-008 -5.99137104122982 5.9999999981731
vertex -1.55068094505498 -5.78722002432113 7.79999999556546
vertex -1.55068094174637 -5.78722002362824 5.99999999556546
endloop
endfacet
facet normal -0.130526192244614 -0.991444861370577 -6.21573301953651e-010
outer loop
vertex -1.55068094505498 -5.78722002432113 7.79999999556546
vertex -1.04789451705925e-008 -5.99137104122982 5.9999999981731
vertex -1.37875610105071e-008 -5.99137104192272 7.7999999981731
endloop
endfacet
facet normal 0.130526192195489 -0.991444861377044 -1.4172771628613e-010
outer loop
vertex 1.5506809207986 -5.78722002370507 6.00000000090524
vertex -1.37875610105071e-008 -5.99137104192272 7.7999999981731
vertex -1.04789451705925e-008 -5.99137104122982 5.9999999981731
endloop
endfacet
facet normal 0.130526192195489 -0.991444861377044 -1.4172771628613e-010
outer loop
vertex -1.37875610105071e-008 -5.99137104192272 7.7999999981731
vertex 1.5506809207986 -5.78722002370507 6.00000000090524
vertex 1.55068091748998 -5.78722002439797 7.80000000090524
endloop
endfacet
facet normal 0.382683432342201 -0.923879532520768 3.47776379030165e-010
outer loop
vertex 2.99568550924109 -5.18867952552278 6.00000000357569
vertex 1.55068091748998 -5.78722002439797 7.80000000090524
vertex 1.5506809207986 -5.78722002370507 6.00000000090524
endloop
endfacet
facet normal 0.382683432342201 -0.923879532520768 3.47776379030165e-010
outer loop
vertex 1.55068091748998 -5.78722002439797 7.80000000090524
vertex 2.99568550924109 -5.18867952552278 6.00000000357569
vertex 2.99568550593247 -5.18867952621568 7.80000000357569
endloop
endfacet
facet normal -1.8381199110637e-009 -3.84943756272943e-010 1.0
outer loop
vertex -5.78722003549514 -1.55068093379995 7.79999998827884
vertex -5.78722003549514 1.55068092875512 7.7999999902065
vertex -5.99137105305898 -2.52240183235066e-009 7.79999998886319
endloop
endfacet
facet normal -1.8381199110637e-009 -3.84943756272943e-010 1.0
outer loop
vertex -5.78722003549514 1.55068092875512 7.7999999902065
vertex -5.78722003549514 -1.55068093379995 7.79999998827884
vertex -5.1886795372751 -2.99568552223233 7.79999998849325
endloop
endfacet
facet normal -1.8381199110637e-009 -3.84943756272943e-010 1.0
outer loop
vertex -5.78722003549514 1.55068092875512 7.7999999902065
vertex -5.1886795372751 -2.99568552223233 7.79999998849325
vertex -5.18867953727508 2.99568551718753 7.79999999221723
endloop
endfacet
facet normal -1.8381199110637e-009 -3.84943756272943e-010 1.0
outer loop
vertex -5.18867953727508 2.99568551718753 7.79999999221723
vertex -5.1886795372751 -2.99568552223233 7.79999998849325
vertex -4.23653910430873 -4.23653909298211 7.79999999012295
endloop
endfacet
facet normal -1.8381199110637e-009 -3.84943756272943e-010 1.0
outer loop
vertex -5.18867953727508 2.99568551718753 7.79999999221723
vertex -4.23653910430873 -4.23653909298211 7.79999999012295
vertex -4.23653910421758 4.23653908805607 7.79999999475833
endloop
endfacet
facet normal -1.8381199110637e-009 -3.84943756272943e-010 1.0
outer loop
vertex -4.23653910421758 4.23653908805607 7.79999999475833
vertex -4.23653910430873 -4.23653909298211 7.79999999012295
vertex -2.99568553346782 -5.18867952606725 7.79999999326003
endloop
endfacet
facet normal -1.8381199110637e-009 -3.84943756272943e-010 1.0
outer loop
vertex -4.23653910421758 4.23653908805607 7.79999999475833
vertex -2.99568553346782 -5.18867952606725 7.79999999326003
vertex -2.99568553321073 5.18867952117082 7.79999999642432
endloop
endfacet
facet normal -1.8381199110637e-009 -3.84943756272943e-010 1.0
outer loop
vertex -2.99568553321073 5.18867952117082 7.79999999642432
vertex -2.99568553346782 -5.18867952606725 7.79999999326003
vertex -2.70000001363913 -2.52243079066708e-009 7.79999999535127
endloop
endfacet
facet normal -1.8381199110637e-009 -3.84943756272943e-010 1.0
outer loop
vertex -2.70000001363913 -2.52243079066708e-009 7.79999999535127
vertex -2.99568553346782 -5.18867952606725 7.79999999326003
vertex -2.60799974461961 -0.698811424299237 7.79999999529659
endloop
endfacet
facet normal -1.8381199110637e-009 -3.84943756272943e-010 1.0
outer loop
vertex -2.60799974461961 -0.698811424299237 7.79999999529659
vertex -2.99568553346782 -5.18867952606725 7.79999999326003
vertex -1.55068094505498 -5.78722002432113 7.79999999556546
endloop
endfacet
facet normal -1.8381199110637e-009 -3.84943756272943e-010 1.0
outer loop
vertex -2.60799974461961 -0.698811424299237 7.79999999529659
vertex -1.55068094505498 -5.78722002432113 7.79999999556546
vertex -2.33826860385711 -1.35000000252243 7.79999999556244
endloop
endfacet
facet normal -1.8381199110637e-009 -3.84943756272943e-010 1.0
outer loop
vertex -2.33826860385711 -1.35000000252243 7.79999999556244
vertex -1.55068094505498 -5.78722002432113 7.79999999556546
vertex -1.90918832284281 -1.90918831172611 7.7999999961307
endloop
endfacet
facet normal -1.8381199110637e-009 -3.84943756272943e-010 1.0
outer loop
vertex -1.90918832284281 -1.90918831172611 7.7999999961307
vertex -1.55068094505498 -5.78722002432113 7.79999999556546
vertex -1.35000001363913 -2.33826859274041 7.79999999696264
endloop
endfacet
facet normal -1.8381199110637e-009 -3.84943756272943e-010 1.0
outer loop
vertex -1.35000001363913 -2.33826859274041 7.79999999696264
vertex -1.55068094505498 -5.78722002432113 7.79999999556546
vertex -1.37875610105071e-008 -5.99137104192272 7.7999999981731
endloop
endfacet
facet normal -1.8381199110637e-009 -3.84943756272943e-010 1.0
outer loop
vertex -1.35000001363913 -2.33826859274041 7.79999999696264
vertex -1.37875610105071e-008 -5.99137104192272 7.7999999981731
vertex -0.698811435415934 -2.60799973350291 7.79999999800158
endloop
endfacet
facet normal -1.8381199110637e-009 -3.84943756272943e-010 1.0
outer loop
vertex -0.698811435415934 -2.60799973350291 7.79999999800158
vertex -1.37875610105071e-008 -5.99137104192272 7.7999999981731
vertex -1.363912765758e-008 -2.70000000252243 7.79999999917671
endloop
endfacet
facet normal -1.8381199110637e-009 -3.84943756272943e-010 1.0
outer loop
vertex -1.363912765758e-008 -2.70000000252243 7.79999999917671
vertex -1.37875610105071e-008 -5.99137104192272 7.7999999981731
vertex 1.55068091748998 -5.78722002439797 7.80000000090524
endloop
endfacet
facet normal -1.8381199110637e-009 -3.84943756272943e-010 1.0
outer loop
vertex -1.363912765758e-008 -2.70000000252243 7.79999999917671
vertex 1.55068091748998 -5.78722002439797 7.80000000090524
vertex 0.698811408137678 -2.60799973350292 7.80000000040794
endloop
endfacet
facet normal -1.8381199110637e-009 -3.84943756272943e-010 1.0
outer loop
vertex 0.698811408137678 -2.60799973350292 7.80000000040794
vertex 1.55068091748998 -5.78722002439797 7.80000000090524
vertex 1.34999998636087 -2.33826859274042 7.80000000161138
endloop
endfacet
facet normal -1.8381199110637e-009 -3.84943756272943e-010 1.0
outer loop
vertex 1.34999998636087 -2.33826859274042 7.80000000161138
vertex 1.55068091748998 -5.78722002439797 7.80000000090524
vertex 1.90918829556455 -1.90918831172611 7.800000002705
endloop
endfacet
facet normal -1.8381199110637e-009 -3.84943756272943e-010 1.0
outer loop
vertex 1.90918829556455 -1.90918831172611 7.800000002705
vertex 1.55068091748998 -5.78722002439797 7.80000000090524
vertex 2.99568550593247 -5.18867952621568 7.80000000357569
endloop
endfacet
facet normal -1.8381199110637e-009 -3.84943756272943e-010 1.0
outer loop
vertex 1.90918829556455 -1.90918831172611 7.800000002705
vertex 2.99568550593247 -5.18867952621568 7.80000000357569
vertex 2.33826857657886 -1.35000000252243 7.80000000361427
endloop
endfacet
facet normal -1.8381199110637e-009 -3.84943756272943e-010 1.0
outer loop
vertex 2.33826857657886 -1.35000000252243 7.80000000361427
vertex 2.99568550593247 -5.18867952621568 7.80000000357569
vertex 2.60799971734136 -0.698811424299237 7.80000000427725
endloop
endfacet
facet normal -1.8381199110637e-009 -3.84943756272943e-010 1.0
outer loop
vertex 2.60799971734136 -0.698811424299237 7.80000000427725
vertex 2.99568550593247 -5.18867952621568 7.80000000357569
vertex 2.69999998636087 -2.52243112415672e-009 7.80000000464873
endloop
endfacet
facet normal -1.8381199110637e-009 -3.84943756272943e-010 1.0
outer loop
vertex -2.99568553321073 5.18867952117082 7.79999999642432
vertex -2.60799974461961 0.698811419254378 7.79999999572275
vertex -1.55068094476823 5.78722001935311 7.79999999909476
endloop
endfacet
facet normal -1.8381199110637e-009 -3.84943756272943e-010 1.0
outer loop
vertex -2.60799974461961 0.698811419254378 7.79999999572275
vertex -2.99568553321073 5.18867952117082 7.79999999642432
vertex -2.70000001363913 -2.52243079066708e-009 7.79999999535127
endloop
endfacet
facet normal -1.8381199110637e-009 -3.84943756272943e-010 1.0
outer loop
vertex -1.55068094476823 5.78722001935311 7.79999999909476
vertex -2.60799974461961 0.698811419254378 7.79999999572275
vertex -2.33826860385711 1.34999999747757 7.79999999638573
endloop
endfacet
facet normal -1.8381199110637e-009 -3.84943756272943e-010 1.0
outer loop
vertex -1.55068094476823 5.78722001935311 7.79999999909476
vertex -2.33826860385711 1.34999999747757 7.79999999638573
vertex -1.90918832284281 1.90918830668125 7.79999999729501
endloop
endfacet
facet normal -1.8381199110637e-009 -3.84943756272943e-010 1.0
outer loop
vertex -1.55068094476823 5.78722001935311 7.79999999909476
vertex -1.90918832284281 1.90918830668125 7.79999999729501
vertex -1.35000001363913 2.33826858769555 7.79999999838863
endloop
endfacet
facet normal -1.8381199110637e-009 -3.84943756272943e-010 1.0
outer loop
vertex -1.55068094476823 5.78722001935311 7.79999999909476
vertex -1.35000001363913 2.33826858769555 7.79999999838863
vertex -1.34906929165108e-008 5.99137103687786 7.8000000018269
endloop
endfacet
facet normal -1.8381199110637e-009 -3.84943756272943e-010 1.0
outer loop
vertex -1.34906929165108e-008 5.99137103687786 7.8000000018269
vertex -1.35000001363913 2.33826858769555 7.79999999838863
vertex -0.698811435415932 2.60799972845805 7.79999999959206
endloop
endfacet
facet normal -1.8381199110637e-009 -3.84943756272943e-010 1.0
outer loop
vertex -1.34906929165108e-008 5.99137103687786 7.8000000018269
vertex -0.698811435415932 2.60799972845805 7.79999999959206
vertex -1.36391269962707e-008 2.69999999747757 7.80000000082329
endloop
endfacet
facet normal -1.8381199110637e-009 -3.84943756272943e-010 1.0
outer loop
vertex -1.34906929165108e-008 5.99137103687786 7.8000000018269
vertex -1.36391269962707e-008 2.69999999747757 7.80000000082329
vertex 0.698811408137681 2.60799972845805 7.80000000199842
endloop
endfacet
facet normal -1.8381199110637e-009 -3.84943756272943e-010 1.0
outer loop
vertex -1.34906929165108e-008 5.99137103687786 7.8000000018269
vertex 0.698811408137681 2.60799972845805 7.80000000199842
vertex 1.55068091777673 5.78722001927627 7.80000000443454
endloop
endfacet
facet normal -1.8381199110637e-009 -3.84943756272943e-010 1.0
outer loop
vertex 1.55068091777673 5.78722001927627 7.80000000443454
vertex 0.698811408137681 2.60799972845805 7.80000000199842
vertex 1.34999998636087 2.33826858769555 7.80000000303736
endloop
endfacet
facet normal -1.8381199110637e-009 -3.84943756272943e-010 1.0
outer loop
vertex 1.55068091777673 5.78722001927627 7.80000000443454
vertex 1.34999998636087 2.33826858769555 7.80000000303736
vertex 1.90918829556455 1.90918830668125 7.8000000038693
endloop
endfacet
facet normal -1.8381199110637e-009 -3.84943756272943e-010 1.0
outer loop
vertex 1.55068091777673 5.78722001927627 7.80000000443454
vertex 1.90918829556455 1.90918830668125 7.8000000038693
vertex 2.99568550618957 5.18867952102238 7.80000000673997
endloop
endfacet
facet normal -1.8381199110637e-009 -3.84943756272943e-010 1.0
outer loop
vertex 2.99568550618957 5.18867952102238 7.80000000673997
vertex 1.90918829556455 1.90918830668125 7.8000000038693
vertex 2.33826857657886 1.34999999747757 7.80000000443756
endloop
endfacet
facet normal -1.8381199110637e-009 -3.84943756272943e-010 1.0
outer loop
vertex 2.99568550618957 5.18867952102238 7.80000000673997
vertex 2.33826857657886 1.34999999747757 7.80000000443756
vertex 2.60799971734136 0.698811419254374 7.80000000470341
endloop
endfacet
facet normal -1.8381199110637e-009 -3.84943756272943e-010 1.0
outer loop
vertex 2.99568550618957 5.18867952102238 7.80000000673997
vertex 2.60799971734136 0.698811419254374 7.80000000470341
vertex 2.69999998636087 -2.52243112415672e-009 7.80000000464873
endloop
endfacet
facet normal -1.8381199110637e-009 -3.84943756272943e-010 1.0
outer loop
vertex 2.99568550618957 5.18867952102238 7.80000000673997
vertex 2.69999998636087 -2.52243112415672e-009 7.80000000464873
vertex 2.99568550593247 -5.18867952621568 7.80000000357569
endloop
endfacet
facet normal -1.8381199110637e-009 -3.84943756272943e-010 1.0
outer loop
vertex 2.99568550618957 5.18867952102238 7.80000000673997
vertex 2.99568550593247 -5.18867952621568 7.80000000357569
vertex 4.23653907693933 -4.23653909310091 7.80000000524167
endloop
endfacet
facet normal -1.8381199110637e-009 -3.84943756272943e-010 1.0
outer loop
vertex 2.99568550618957 5.18867952102238 7.80000000673997
vertex 4.23653907693933 -4.23653909310091 7.80000000524167
vertex 4.23653907693937 4.23653908805603 7.80000001050817
endloop
endfacet
facet normal -1.8381199110637e-009 -3.84943756272943e-010 1.0
outer loop
vertex 4.23653907693937 4.23653908805603 7.80000001050817
vertex 4.23653907693933 -4.23653909310091 7.80000000524167
vertex 5.18867950999683 -2.99568552223238 7.80000000778278
endloop
endfacet
facet normal -1.8381199110637e-009 -3.84943756272943e-010 1.0
outer loop
vertex 4.23653907693937 4.23653908805603 7.80000001050817
vertex 5.18867950999683 -2.99568552223238 7.80000000778278
vertex 5.18867950999685 2.99568551718751 7.80000001150675
endloop
endfacet
facet normal -1.8381199110637e-009 -3.84943756272943e-010 1.0
outer loop
vertex 5.18867950999685 2.99568551718751 7.80000001150675
vertex 5.18867950999683 -2.99568552223238 7.80000000778278
vertex 5.78722000821688 -1.55068093379998 7.8000000097935
endloop
endfacet
facet normal -1.8381199110637e-009 -3.84943756272943e-010 1.0
outer loop
vertex 5.18867950999685 2.99568551718751 7.80000001150675
vertex 5.78722000821688 -1.55068093379998 7.8000000097935
vertex 5.78722000821689 1.5506809287551 7.80000001172117
endloop
endfacet
facet normal -1.8381199110637e-009 -3.84943756272943e-010 1.0
outer loop
vertex 5.78722000821689 1.5506809287551 7.80000001172117
vertex 5.78722000821688 -1.55068093379998 7.8000000097935
vertex 5.99137102578073 -2.5224597518185e-009 7.80000001113681
endloop
endfacet
endsolid model
