solid bearing-holder
facet normal 0.0 0.0 -1.0
outer loop
vertex -15.0 15.0 0.0
vertex -6.27851787087894 1.6823237931664 -1.76247905159244e-016
vertex -15.0 -15.0 0.0
endloop
endfacet
facet normal 0.0 0.0 -1.0
outer loop
vertex -6.27851787087894 1.6823237931664 -1.76247905159244e-016
vertex -15.0 15.0 0.0
vertex 15.0 15.0 0.0
endloop
endfacet
facet normal 0.0 0.0 -1.0
outer loop
vertex -15.0 -15.0 0.0
vertex -6.27851787087894 1.6823237931664 -1.76247905159244e-016
vertex -6.5 1.23373533611471e-014 -1.76247905159244e-016
endloop
endfacet
facet normal 0.0 0.0 -1.0
outer loop
vertex -6.27851787087894 1.6823237931664 -1.76247905159244e-016
vertex 15.0 15.0 0.0
vertex -2.25 3.89711431702998 0.0
endloop
endfacet
facet normal 0.0 0.0 -1.0
outer loop
vertex -6.27851787087894 1.6823237931664 -1.76247905159244e-016
vertex -2.25 3.89711431702998 0.0
vertex -3.18198051533946 3.18198051533946 0.0
endloop
endfacet
facet normal 0.0 0.0 -1.0
outer loop
vertex -6.27851787087894 1.6823237931664 -1.76247905159244e-016
vertex -3.18198051533946 3.18198051533946 0.0
vertex -3.89711431702997 2.25 0.0
endloop
endfacet
facet normal 0.0 0.0 -1.0
outer loop
vertex -6.27851787087894 1.6823237931664 -1.76247905159244e-016
vertex -3.89711431702997 2.25 0.0
vertex -4.34666621830081 1.16468570296135 0.0
endloop
endfacet
facet normal 0.0 0.0 -1.0
outer loop
vertex -2.25 3.89711431702998 0.0
vertex 15.0 15.0 0.0
vertex -1.16468570296134 4.34666621830081 0.0
endloop
endfacet
facet normal 0.0 0.0 -1.0
outer loop
vertex -1.16468570296134 4.34666621830081 0.0
vertex 15.0 15.0 0.0
vertex 8.26636589424463e-016 4.5 0.0
endloop
endfacet
facet normal 0.0 0.0 -1.0
outer loop
vertex 8.26636589424463e-016 4.5 0.0
vertex 15.0 15.0 0.0
vertex 1.16468570296135 4.34666621830081 0.0
endloop
endfacet
facet normal 0.0 0.0 -1.0
outer loop
vertex 1.16468570296135 4.34666621830081 0.0
vertex 15.0 15.0 0.0
vertex 2.25 3.89711431702997 0.0
endloop
endfacet
facet normal 0.0 0.0 -1.0
outer loop
vertex 2.25 3.89711431702997 0.0
vertex 15.0 15.0 0.0
vertex 3.18198051533947 3.18198051533946 0.0
endloop
endfacet
facet normal 0.0 0.0 -1.0
outer loop
vertex 3.18198051533947 3.18198051533946 0.0
vertex 15.0 15.0 0.0
vertex 3.89711431702997 2.25 0.0
endloop
endfacet
facet normal 0.0 0.0 -1.0
outer loop
vertex 3.89711431702997 2.25 0.0
vertex 15.0 15.0 0.0
vertex 4.34666621830081 1.16468570296134 0.0
endloop
endfacet
facet normal 0.0 0.0 -1.0
outer loop
vertex 4.34666621830081 1.16468570296134 0.0
vertex 15.0 15.0 0.0
vertex 6.27851787087894 1.68232379316639 -1.76247905159244e-016
endloop
endfacet
facet normal 0.0 0.0 -1.0
outer loop
vertex 6.27851787087894 1.68232379316639 -1.76247905159244e-016
vertex 15.0 15.0 0.0
vertex 6.5 2.73914639897066e-032 -1.76247905159244e-016
endloop
endfacet
facet normal 0.0 0.0 -1.0
outer loop
vertex -15.0 -15.0 0.0
vertex -6.27851787087895 -1.68232379316637 -1.76247905159244e-016
vertex 15.0 -15.0 0.0
endloop
endfacet
facet normal 0.0 0.0 -1.0
outer loop
vertex -6.27851787087895 -1.68232379316637 -1.76247905159244e-016
vertex -15.0 -15.0 0.0
vertex -6.5 1.23373533611471e-014 -1.76247905159244e-016
endloop
endfacet
facet normal 0.0 0.0 -1.0
outer loop
vertex 15.0 -15.0 0.0
vertex -6.27851787087895 -1.68232379316637 -1.76247905159244e-016
vertex -2.25 -3.89711431702997 0.0
endloop
endfacet
facet normal 0.0 0.0 -1.0
outer loop
vertex -2.25 -3.89711431702997 0.0
vertex -6.27851787087895 -1.68232379316637 -1.76247905159244e-016
vertex -3.18198051533946 -3.18198051533946 0.0
endloop
endfacet
facet normal 0.0 0.0 -1.0
outer loop
vertex -3.18198051533946 -3.18198051533946 0.0
vertex -6.27851787087895 -1.68232379316637 -1.76247905159244e-016
vertex -3.89711431702997 -2.25 0.0
endloop
endfacet
facet normal 0.0 0.0 -1.0
outer loop
vertex -3.89711431702997 -2.25 0.0
vertex -6.27851787087895 -1.68232379316637 -1.76247905159244e-016
vertex -4.34666621830081 -1.16468570296134 0.0
endloop
endfacet
facet normal 0.0 0.0 -1.0
outer loop
vertex 15.0 -15.0 0.0
vertex -2.25 -3.89711431702997 0.0
vertex -1.16468570296134 -4.34666621830081 0.0
endloop
endfacet
facet normal 0.0 0.0 -1.0
outer loop
vertex 15.0 -15.0 0.0
vertex -1.16468570296134 -4.34666621830081 0.0
vertex -2.75545529808154e-016 -4.5 0.0
endloop
endfacet
facet normal 0.0 0.0 -1.0
outer loop
vertex 15.0 -15.0 0.0
vertex -2.75545529808154e-016 -4.5 0.0
vertex 1.16468570296134 -4.34666621830081 0.0
endloop
endfacet
facet normal 0.0 0.0 -1.0
outer loop
vertex 15.0 -15.0 0.0
vertex 1.16468570296134 -4.34666621830081 0.0
vertex 2.25 -3.89711431702997 0.0
endloop
endfacet
facet normal 0.0 0.0 -1.0
outer loop
vertex 15.0 -15.0 0.0
vertex 2.25 -3.89711431702997 0.0
vertex 3.18198051533946 -3.18198051533946 0.0
endloop
endfacet
facet normal 0.0 0.0 -1.0
outer loop
vertex 15.0 -15.0 0.0
vertex 3.18198051533946 -3.18198051533946 0.0
vertex 3.89711431702997 -2.25 0.0
endloop
endfacet
facet normal 0.0 0.0 -1.0
outer loop
vertex 15.0 -15.0 0.0
vertex 3.89711431702997 -2.25 0.0
vertex 4.34666621830081 -1.16468570296134 0.0
endloop
endfacet
facet normal 0.0 0.0 -1.0
outer loop
vertex 15.0 -15.0 0.0
vertex 4.34666621830081 -1.16468570296134 0.0
vertex 6.27851787087894 -1.68232379316639 -1.76247905159244e-016
endloop
endfacet
facet normal 0.0 0.0 -1.0
outer loop
vertex 15.0 -15.0 0.0
vertex 6.27851787087894 -1.68232379316639 -1.76247905159244e-016
vertex 6.5 2.73914639897066e-032 -1.76247905159244e-016
endloop
endfacet
facet normal 0.0 0.0 -1.0
outer loop
vertex 15.0 -15.0 0.0
vertex 6.5 2.73914639897066e-032 -1.76247905159244e-016
vertex 15.0 15.0 0.0
endloop
endfacet
facet normal -0.0 1.0 0.0
outer loop
vertex -15.0 15.0 7.0
vertex 15.0 15.0 0.0
vertex -15.0 15.0 0.0
endloop
endfacet
facet normal -0.0 1.0 0.0
outer loop
vertex 15.0 15.0 0.0
vertex -15.0 15.0 7.0
vertex 15.0 15.0 7.0
endloop
endfacet
facet normal 1.0 0.0 0.0
outer loop
vertex 15.0 15.0 0.0
vertex 15.0 -15.0 7.0
vertex 15.0 -15.0 0.0
endloop
endfacet
facet normal 1.0 0.0 0.0
outer loop
vertex 15.0 -15.0 7.0
vertex 15.0 15.0 0.0
vertex 15.0 15.0 7.0
endloop
endfacet
facet normal -0.0 -1.0 -0.0
outer loop
vertex 15.0 -15.0 7.0
vertex -15.0 -15.0 0.0
vertex 15.0 -15.0 0.0
endloop
endfacet
facet normal -0.0 -1.0 -0.0
outer loop
vertex -15.0 -15.0 0.0
vertex 15.0 -15.0 7.0
vertex -15.0 -15.0 7.0
endloop
endfacet
facet normal -1.0 0.0 0.0
outer loop
vertex -15.0 15.0 7.0
vertex -15.0 -15.0 0.0
vertex -15.0 -15.0 7.0
endloop
endfacet
facet normal -1.0 0.0 0.0
outer loop
vertex -15.0 -15.0 0.0
vertex -15.0 15.0 7.0
vertex -15.0 15.0 0.0
endloop
endfacet
facet normal -0.0 -0.0 1.0
outer loop
vertex -15.0 -15.0 7.0
vertex -5.62916512459885 -3.24999999999999 7.0
vertex -15.0 15.0 7.0
endloop
endfacet
facet normal -0.0 -0.0 1.0
outer loop
vertex -5.62916512459885 -3.24999999999999 7.0
vertex -15.0 -15.0 7.0
vertex -4.59619407771256 -4.59619407771256 7.0
endloop
endfacet
facet normal -0.0 -0.0 1.0
outer loop
vertex -4.59619407771256 -4.59619407771256 7.0
vertex -15.0 -15.0 7.0
vertex -3.25 -5.62916512459885 7.0
endloop
endfacet
facet normal -0.0 -0.0 1.0
outer loop
vertex -3.25 -5.62916512459885 7.0
vertex -15.0 -15.0 7.0
vertex 15.0 -15.0 7.0
endloop
endfacet
facet normal -0.0 -0.0 1.0
outer loop
vertex -15.0 15.0 7.0
vertex -5.62916512459885 -3.24999999999999 7.0
vertex -6.27851787087894 -1.68232379316638 7.0
endloop
endfacet
facet normal -0.0 -0.0 1.0
outer loop
vertex -15.0 15.0 7.0
vertex -6.27851787087894 -1.68232379316638 7.0
vertex -6.5 8.1074036373252e-015 7.0
endloop
endfacet
facet normal -0.0 -0.0 1.0
outer loop
vertex -3.25 -5.62916512459885 7.0
vertex 15.0 -15.0 7.0
vertex -1.68232379316639 -6.27851787087894 7.0
endloop
endfacet
facet normal -0.0 -0.0 1.0
outer loop
vertex -1.68232379316639 -6.27851787087894 7.0
vertex 15.0 -15.0 7.0
vertex -2.8199664825479e-015 -6.5 7.0
endloop
endfacet
facet normal -0.0 -0.0 1.0
outer loop
vertex -2.8199664825479e-015 -6.5 7.0
vertex 15.0 -15.0 7.0
vertex 1.68232379316638 -6.27851787087894 7.0
endloop
endfacet
facet normal -0.0 -0.0 1.0
outer loop
vertex 1.68232379316638 -6.27851787087894 7.0
vertex 15.0 -15.0 7.0
vertex 3.25 -5.62916512459885 7.0
endloop
endfacet
facet normal -0.0 -0.0 1.0
outer loop
vertex 3.25 -5.62916512459885 7.0
vertex 15.0 -15.0 7.0
vertex 4.59619407771256 -4.59619407771256 7.0
endloop
endfacet
facet normal -0.0 -0.0 1.0
outer loop
vertex 4.59619407771256 -4.59619407771256 7.0
vertex 15.0 -15.0 7.0
vertex 5.62916512459885 -3.25 7.0
endloop
endfacet
facet normal -0.0 -0.0 1.0
outer loop
vertex 5.62916512459885 -3.25 7.0
vertex 15.0 -15.0 7.0
vertex 6.27851787087894 -1.68232379316639 7.0
endloop
endfacet
facet normal -0.0 -0.0 1.0
outer loop
vertex 6.27851787087894 -1.68232379316639 7.0
vertex 15.0 -15.0 7.0
vertex 6.5 -8.81239525796218e-015 7.0
endloop
endfacet
facet normal -0.0 -0.0 1.0
outer loop
vertex -15.0 15.0 7.0
vertex -3.24999999999999 5.62916512459885 7.0
vertex 15.0 15.0 7.0
endloop
endfacet
facet normal -0.0 -0.0 1.0
outer loop
vertex -3.24999999999999 5.62916512459885 7.0
vertex -15.0 15.0 7.0
vertex -4.59619407771255 4.59619407771256 7.0
endloop
endfacet
facet normal -0.0 -0.0 1.0
outer loop
vertex -4.59619407771255 4.59619407771256 7.0
vertex -15.0 15.0 7.0
vertex -5.62916512459885 3.25000000000001 7.0
endloop
endfacet
facet normal -0.0 -0.0 1.0
outer loop
vertex -5.62916512459885 3.25000000000001 7.0
vertex -15.0 15.0 7.0
vertex -6.27851787087894 1.68232379316639 7.0
endloop
endfacet
facet normal -0.0 -0.0 1.0
outer loop
vertex -6.27851787087894 1.68232379316639 7.0
vertex -15.0 15.0 7.0
vertex -6.5 8.1074036373252e-015 7.0
endloop
endfacet
facet normal -0.0 -0.0 1.0
outer loop
vertex 15.0 15.0 7.0
vertex -3.24999999999999 5.62916512459885 7.0
vertex -1.68232379316638 6.27851787087894 7.0
endloop
endfacet
facet normal -0.0 -0.0 1.0
outer loop
vertex 15.0 15.0 7.0
vertex -1.68232379316638 6.27851787087894 7.0
vertex 5.63993296509579e-015 6.5 7.0
endloop
endfacet
facet normal -0.0 -0.0 1.0
outer loop
vertex 15.0 15.0 7.0
vertex 5.63993296509579e-015 6.5 7.0
vertex 1.6823237931664 6.27851787087894 7.0
endloop
endfacet
facet normal -0.0 -0.0 1.0
outer loop
vertex 15.0 15.0 7.0
vertex 1.6823237931664 6.27851787087894 7.0
vertex 3.25000000000001 5.62916512459884 7.0
endloop
endfacet
facet normal -0.0 -0.0 1.0
outer loop
vertex 15.0 15.0 7.0
vertex 3.25000000000001 5.62916512459884 7.0
vertex 4.59619407771257 4.59619407771255 7.0
endloop
endfacet
facet normal -0.0 -0.0 1.0
outer loop
vertex 15.0 15.0 7.0
vertex 4.59619407771257 4.59619407771255 7.0
vertex 5.62916512459886 3.24999999999999 7.0
endloop
endfacet
facet normal -0.0 -0.0 1.0
outer loop
vertex 15.0 15.0 7.0
vertex 5.62916512459886 3.24999999999999 7.0
vertex 6.27851787087895 1.68232379316637 7.0
endloop
endfacet
facet normal -0.0 -0.0 1.0
outer loop
vertex 15.0 15.0 7.0
vertex 6.27851787087895 1.68232379316637 7.0
vertex 6.5 -8.81239525796218e-015 7.0
endloop
endfacet
facet normal -0.0 -0.0 1.0
outer loop
vertex 15.0 15.0 7.0
vertex 6.5 -8.81239525796218e-015 7.0
vertex 15.0 -15.0 7.0
endloop
endfacet
facet normal 0.258819045102521 0.965925826289068 -6.30083791531599e-017
outer loop
vertex -1.68232379316639 -6.27851787087894 7.0
vertex -2.8199664825479e-015 -6.5 1.0
vertex -1.68232379316639 -6.27851787087894 1.0
endloop
endfacet
facet normal 3.7426661561717e-016 1.0 -6.64036534479554e-017
outer loop
vertex -2.8199664825479e-015 -6.5 1.0
vertex -1.68232379316639 -6.27851787087894 7.0
vertex -2.8199664825479e-015 -6.5 7.0
endloop
endfacet
facet normal 3.7426661561717e-016 1.0 -6.64036534479554e-017
outer loop
vertex -2.8199664825479e-015 -6.5 7.0
vertex 1.68232379316638 -6.27851787087894 1.0
vertex -2.8199664825479e-015 -6.5 1.0
endloop
endfacet
facet normal -0.25881904510252 0.965925826289069 -1.40162122531222e-016
outer loop
vertex 1.68232379316638 -6.27851787087894 1.0
vertex -2.8199664825479e-015 -6.5 7.0
vertex 1.68232379316638 -6.27851787087894 7.0
endloop
endfacet
facet normal -0.25881904510252 0.965925826289068 -1.40162122531222e-016
outer loop
vertex 1.68232379316638 -6.27851787087894 7.0
vertex 3.25 -5.62916512459885 1.0
vertex 1.68232379316638 -6.27851787087894 1.0
endloop
endfacet
facet normal -0.5 0.866025403784439 -1.49190886929138e-016
outer loop
vertex 3.25 -5.62916512459885 1.0
vertex 1.68232379316638 -6.27851787087894 7.0
vertex 3.25 -5.62916512459885 7.0
endloop
endfacet
facet normal -0.5 0.866025403784439 -1.49190886929138e-016
outer loop
vertex 3.25 -5.62916512459885 7.0
vertex 4.59619407771256 -4.59619407771256 1.0
vertex 3.25 -5.62916512459885 1.0
endloop
endfacet
facet normal -0.707106781186547 0.707106781186548 -6.17899391614629e-017
outer loop
vertex 4.59619407771256 -4.59619407771256 1.0
vertex 3.25 -5.62916512459885 7.0
vertex 4.59619407771256 -4.59619407771256 7.0
endloop
endfacet
facet normal -0.707106781186547 0.707106781186548 -6.17899391614629e-017
outer loop
vertex 4.59619407771256 -4.59619407771256 7.0
vertex 5.62916512459885 -3.25 1.0
vertex 4.59619407771256 -4.59619407771256 1.0
endloop
endfacet
facet normal -0.866025403784438 0.5 2.69990482860855e-020
outer loop
vertex 5.62916512459885 -3.25 1.0
vertex 4.59619407771256 -4.59619407771256 7.0
vertex 5.62916512459885 -3.25 7.0
endloop
endfacet
facet normal -0.965925826289068 0.258819045102521 2.50118893994163e-017
outer loop
vertex 6.27851787087894 -1.68232379316639 7.0
vertex 5.62916512459885 -3.25 1.0
vertex 5.62916512459885 -3.25 7.0
endloop
endfacet
facet normal -0.866025403784438 0.5 2.69990482860855e-020
outer loop
vertex 5.62916512459885 -3.25 1.0
vertex 6.27851787087894 -1.68232379316639 7.0
vertex 6.27851787087894 -1.68232379316639 1.0
endloop
endfacet
facet normal -1.0 4.99022154156227e-016 2.51071933417388e-017
outer loop
vertex 6.5 -8.81239525796218e-015 7.0
vertex 6.27851787087894 -1.68232379316639 1.0
vertex 6.27851787087894 -1.68232379316639 7.0
endloop
endfacet
facet normal -0.976344204783666 0.216222093656846 2.79428868600727e-017
outer loop
vertex 6.27851787087894 -1.68232379316639 1.0
vertex 6.5 -8.81239525796218e-015 7.0
vertex 6.27851787087894 -1.68232379316639 -1.76247905159244e-016
endloop
endfacet
facet normal -0.99144486137381 0.130526192220052 3.35956667282368e-017
outer loop
vertex 6.27851787087894 -1.68232379316639 -1.76247905159244e-016
vertex 6.5 -8.81239525796218e-015 7.0
vertex 6.5 2.73914639897066e-032 -1.76247905159244e-016
endloop
endfacet
facet normal -0.965925826289068 -0.25881904510252 2.26447118044711e-017
outer loop
vertex 6.27851787087895 1.68232379316637 7.0
vertex 6.5 2.73914639897066e-032 -1.76247905159244e-016
vertex 6.5 -8.81239525796218e-015 7.0
endloop
endfacet
facet normal -1.0 2.85155516660701e-016 2.51071933417388e-017
outer loop
vertex 6.5 2.73914639897066e-032 -1.76247905159244e-016
vertex 6.27851787087895 1.68232379316637 7.0
vertex 6.27851787087894 1.68232379316639 -1.76247905159244e-016
endloop
endfacet
facet normal -0.99144486137381 -0.130526192220051 1.61891289161345e-017
outer loop
vertex 6.27851787087894 1.68232379316639 -1.76247905159244e-016
vertex 6.27851787087895 1.68232379316637 7.0
vertex 6.27851787087894 1.68232379316639 1.0
endloop
endfacet
facet normal -0.866025403784439 -0.499999999999999 1.93566109140262e-017
outer loop
vertex 5.62916512459886 3.24999999999999 7.0
vertex 6.27851787087894 1.68232379316639 1.0
vertex 6.27851787087895 1.68232379316637 7.0
endloop
endfacet
facet normal -0.976344204723773 -0.216222093927293 2.05196668848173e-017
outer loop
vertex 6.27851787087894 1.68232379316639 1.0
vertex 5.62916512459886 3.24999999999999 7.0
vertex 5.62916512459885 3.25 1.0
endloop
endfacet
facet normal -0.707106781186548 -0.707106781186547 -2.80990584394419e-017
outer loop
vertex 4.59619407771257 4.59619407771255 7.0
vertex 5.62916512459885 3.25 1.0
vertex 5.62916512459886 3.24999999999999 7.0
endloop
endfacet
facet normal -0.866025403784439 -0.5 1.93566109140262e-017
outer loop
vertex 5.62916512459885 3.25 1.0
vertex 4.59619407771257 4.59619407771255 7.0
vertex 4.59619407771256 4.59619407771256 1.0
endloop
endfacet
facet normal -0.707106781186548 -0.707106781186547 -2.80990584394419e-017
outer loop
vertex 4.59619407771257 4.59619407771255 7.0
vertex 3.25 5.62916512459885 1.0
vertex 4.59619407771256 4.59619407771256 1.0
endloop
endfacet
facet normal -0.5 -0.866025403784438 -7.25016349782033e-017
outer loop
vertex 3.25 5.62916512459885 1.0
vertex 4.59619407771257 4.59619407771255 7.0
vertex 3.25000000000001 5.62916512459884 7.0
endloop
endfacet
facet normal -0.500000000000001 -0.866025403784438 -7.25016349782033e-017
outer loop
vertex 3.25000000000001 5.62916512459884 7.0
vertex 1.68232379316638 6.27851787087894 1.0
vertex 3.25 5.62916512459885 1.0
endloop
endfacet
facet normal -0.258819045102521 -0.965925826289068 -1.30317838767041e-016
outer loop
vertex 1.68232379316638 6.27851787087894 1.0
vertex 3.25000000000001 5.62916512459884 7.0
vertex 1.6823237931664 6.27851787087894 7.0
endloop
endfacet
facet normal -0.258819045102522 -0.965925826289068 -1.30317838767041e-016
outer loop
vertex 1.6823237931664 6.27851787087894 7.0
vertex 3.52495810318487e-016 6.5 1.0
vertex 1.68232379316638 6.27851787087894 1.0
endloop
endfacet
facet normal -3.65355505721523e-016 -1.0 -1.08570807726817e-016
outer loop
vertex 3.52495810318487e-016 6.5 1.0
vertex 1.6823237931664 6.27851787087894 7.0
vertex 5.63993296509579e-015 6.5 7.0
endloop
endfacet
facet normal -5.07933264051874e-016 -1.0 -1.08570807726817e-016
outer loop
vertex 5.63993296509579e-015 6.5 7.0
vertex -1.68232379316638 6.27851787087894 1.0
vertex 3.52495810318487e-016 6.5 1.0
endloop
endfacet
facet normal 0.25881904510252 -0.965925826289068 -6.2836378221011e-017
outer loop
vertex -1.68232379316638 6.27851787087894 1.0
vertex 5.63993296509579e-015 6.5 7.0
vertex -1.68232379316638 6.27851787087894 7.0
endloop
endfacet
facet normal 0.25881904510252 -0.965925826289068 -6.2836378221011e-017
outer loop
vertex -1.68232379316638 6.27851787087894 7.0
vertex -3.25 5.62916512459885 1.0
vertex -1.68232379316638 6.27851787087894 1.0
endloop
endfacet
facet normal 0.499999999999999 -0.866025403784439 -1.16498638978089e-016
outer loop
vertex -3.25 5.62916512459885 1.0
vertex -1.68232379316638 6.27851787087894 7.0
vertex -3.24999999999999 5.62916512459885 7.0
endloop
endfacet
facet normal 0.499999999999999 -0.866025403784439 -1.16498638978089e-016
outer loop
vertex -3.24999999999999 5.62916512459885 7.0
vertex -4.59619407771255 4.59619407771256 1.0
vertex -3.25 5.62916512459885 1.0
endloop
endfacet
facet normal 0.707106781186547 -0.707106781186548 -1.5981784408752e-016
outer loop
vertex -4.59619407771255 4.59619407771256 1.0
vertex -3.24999999999999 5.62916512459885 7.0
vertex -4.59619407771255 4.59619407771256 7.0
endloop
endfacet
facet normal 0.866025403784438 -0.500000000000001 -1.70883829826573e-016
outer loop
vertex -5.62916512459885 3.25000000000001 1.0
vertex -4.59619407771255 4.59619407771256 7.0
vertex -5.62916512459885 3.25000000000001 7.0
endloop
endfacet
facet normal 0.707106781186547 -0.707106781186548 -1.5981784408752e-016
outer loop
vertex -4.59619407771255 4.59619407771256 7.0
vertex -5.62916512459885 3.25000000000001 1.0
vertex -4.59619407771255 4.59619407771256 1.0
endloop
endfacet
facet normal 0.976344204698964 -0.216222094039318 -1.06322700106992e-016
outer loop
vertex -6.27851787087894 1.6823237931664 1.0
vertex -5.62916512459885 3.25000000000001 7.0
vertex -6.27851787087894 1.68232379316639 7.0
endloop
endfacet
facet normal 0.866025403784438 -0.500000000000001 -1.70883829826573e-016
outer loop
vertex -5.62916512459885 3.25000000000001 7.0
vertex -6.27851787087894 1.6823237931664 1.0
vertex -5.62916512459885 3.25000000000001 1.0
endloop
endfacet
facet normal 1.0 -1.68419977027726e-015 -8.75106912582471e-017
outer loop
vertex -6.5 1.23373533611471e-014 -1.76247905159244e-016
vertex -6.27851787087894 1.68232379316639 7.0
vertex -6.5 8.1074036373252e-015 7.0
endloop
endfacet
facet normal 0.965925826289068 -0.258819045102522 -1.21072512816559e-016
outer loop
vertex -6.27851787087894 1.68232379316639 7.0
vertex -6.5 1.23373533611471e-014 -1.76247905159244e-016
vertex -6.27851787087894 1.6823237931664 -1.76247905159244e-016
endloop
endfacet
facet normal 0.965925826289068 -0.258819045102522 -1.21072512816559e-016
outer loop
vertex -6.27851787087894 1.68232379316639 7.0
vertex -6.27851787087894 1.6823237931664 -1.76247905159244e-016
vertex -6.27851787087894 1.6823237931664 1.0
endloop
endfacet
facet normal 1.0 -1.68419977027726e-015 -8.75106912582471e-017
outer loop
vertex -6.5 1.23373533611471e-014 -1.76247905159244e-016
vertex -6.27851787087895 -1.68232379316637 1.0
vertex -6.27851787087895 -1.68232379316637 -1.76247905159244e-016
endloop
endfacet
facet normal 0.976344204783667 0.216222093656844 -6.53875921980974e-017
outer loop
vertex -6.27851787087895 -1.68232379316637 1.0
vertex -6.5 1.23373533611471e-014 -1.76247905159244e-016
vertex -6.5 8.1074036373252e-015 7.0
endloop
endfacet
facet normal 1.0 -1.58617756142515e-015 -8.75106912582471e-017
outer loop
vertex -6.5 8.1074036373252e-015 7.0
vertex -6.27851787087894 -1.68232379316638 7.0
vertex -6.27851787087895 -1.68232379316637 1.0
endloop
endfacet
facet normal 0.976344204783667 0.216222093656844 -6.53875921980974e-017
outer loop
vertex -6.27851787087895 -1.68232379316637 1.0
vertex -5.62916512459885 -3.24999999999999 7.0
vertex -5.62916512459885 -3.25 1.0
endloop
endfacet
facet normal 0.866025403784439 0.499999999999999 -8.09038774412311e-017
outer loop
vertex -5.62916512459885 -3.24999999999999 7.0
vertex -6.27851787087895 -1.68232379316637 1.0
vertex -6.27851787087894 -1.68232379316638 7.0
endloop
endfacet
facet normal 0.866025403784439 0.499999999999999 -8.09038774412312e-017
outer loop
vertex -5.62916512459885 -3.25 1.0
vertex -4.59619407771256 -4.59619407771256 7.0
vertex -4.59619407771256 -4.59619407771256 1.0
endloop
endfacet
facet normal 0.707106781186548 0.707106781186547 -1.43337291980495e-016
outer loop
vertex -4.59619407771256 -4.59619407771256 7.0
vertex -5.62916512459885 -3.25 1.0
vertex -5.62916512459885 -3.24999999999999 7.0
endloop
endfacet
facet normal 0.707106781186548 0.707106781186547 -1.43337291980495e-016
outer loop
vertex -4.59619407771256 -4.59619407771256 7.0
vertex -3.25 -5.62916512459885 1.0
vertex -4.59619407771256 -4.59619407771256 1.0
endloop
endfacet
facet normal 0.5 0.866025403784439 -1.04041673901534e-016
outer loop
vertex -3.25 -5.62916512459885 1.0
vertex -4.59619407771256 -4.59619407771256 7.0
vertex -3.25 -5.62916512459885 7.0
endloop
endfacet
facet normal 0.5 0.866025403784439 -1.04041673901534e-016
outer loop
vertex -3.25 -5.62916512459885 7.0
vertex -1.68232379316639 -6.27851787087894 1.0
vertex -3.25 -5.62916512459885 1.0
endloop
endfacet
facet normal 0.258819045102521 0.965925826289068 -6.30083791531599e-017
outer loop
vertex -1.68232379316639 -6.27851787087894 1.0
vertex -3.25 -5.62916512459885 7.0
vertex -1.68232379316639 -6.27851787087894 7.0
endloop
endfacet
facet normal 0.866025403784439 0.5 0.0
outer loop
vertex -3.89711431702997 -2.25 0.0
vertex -3.18198051533946 -3.18198051533946 1.0
vertex -3.18198051533946 -3.18198051533946 0.0
endloop
endfacet
facet normal 0.707106781186548 0.707106781186547 0.0
outer loop
vertex -3.18198051533946 -3.18198051533946 1.0
vertex -3.89711431702997 -2.25 0.0
vertex -3.89711431702997 -2.25 1.0
endloop
endfacet
facet normal 0.707106781186548 0.707106781186547 0.0
outer loop
vertex -3.18198051533946 -3.18198051533946 1.0
vertex -2.25 -3.89711431702997 0.0
vertex -3.18198051533946 -3.18198051533946 0.0
endloop
endfacet
facet normal 0.5 0.866025403784439 0.0
outer loop
vertex -2.25 -3.89711431702997 0.0
vertex -3.18198051533946 -3.18198051533946 1.0
vertex -2.25 -3.89711431702997 1.0
endloop
endfacet
facet normal 0.5 0.866025403784439 0.0
outer loop
vertex -2.25 -3.89711431702997 1.0
vertex -1.16468570296134 -4.34666621830081 0.0
vertex -2.25 -3.89711431702997 0.0
endloop
endfacet
facet normal 0.258819045102521 0.965925826289068 0.0
outer loop
vertex -1.16468570296134 -4.34666621830081 0.0
vertex -2.25 -3.89711431702997 1.0
vertex -1.16468570296134 -4.34666621830081 1.0
endloop
endfacet
facet normal 0.258819045102521 0.965925826289068 0.0
outer loop
vertex -1.16468570296134 -4.34666621830081 1.0
vertex -2.75545529808154e-016 -4.5 0.0
vertex -1.16468570296134 -4.34666621830081 0.0
endloop
endfacet
facet normal -7.12888791651753e-017 1.0 0.0
outer loop
vertex -2.75545529808154e-016 -4.5 0.0
vertex -1.16468570296134 -4.34666621830081 1.0
vertex -2.75545529808154e-016 -4.5 1.0
endloop
endfacet
facet normal -7.12888791651753e-017 1.0 0.0
outer loop
vertex -2.75545529808154e-016 -4.5 1.0
vertex 1.16468570296134 -4.34666621830081 0.0
vertex -2.75545529808154e-016 -4.5 0.0
endloop
endfacet
facet normal -0.258819045102521 0.965925826289068 0.0
outer loop
vertex 1.16468570296134 -4.34666621830081 0.0
vertex -2.75545529808154e-016 -4.5 1.0
vertex 1.16468570296134 -4.34666621830081 1.0
endloop
endfacet
facet normal -0.258819045102521 0.965925826289068 0.0
outer loop
vertex 1.16468570296134 -4.34666621830081 1.0
vertex 2.25 -3.89711431702997 0.0
vertex 1.16468570296134 -4.34666621830081 0.0
endloop
endfacet
facet normal -0.5 0.866025403784439 0.0
outer loop
vertex 2.25 -3.89711431702997 0.0
vertex 1.16468570296134 -4.34666621830081 1.0
vertex 2.25 -3.89711431702997 1.0
endloop
endfacet
facet normal -0.5 0.866025403784439 0.0
outer loop
vertex 2.25 -3.89711431702997 1.0
vertex 3.18198051533946 -3.18198051533946 0.0
vertex 2.25 -3.89711431702997 0.0
endloop
endfacet
facet normal -0.707106781186547 0.707106781186548 0.0
outer loop
vertex 3.18198051533946 -3.18198051533946 0.0
vertex 2.25 -3.89711431702997 1.0
vertex 3.18198051533946 -3.18198051533946 1.0
endloop
endfacet
facet normal -0.866025403784439 0.5 0.0
outer loop
vertex 3.89711431702997 -2.25 1.0
vertex 3.18198051533946 -3.18198051533946 0.0
vertex 3.18198051533946 -3.18198051533946 1.0
endloop
endfacet
facet normal -0.707106781186547 0.707106781186548 0.0
outer loop
vertex 3.18198051533946 -3.18198051533946 0.0
vertex 3.89711431702997 -2.25 1.0
vertex 3.89711431702997 -2.25 0.0
endloop
endfacet
facet normal -0.923879532511287 0.38268343236509 0.0
outer loop
vertex 4.34666621830081 -1.16468570296134 1.0
vertex 3.89711431702997 -2.25 0.0
vertex 3.89711431702997 -2.25 1.0
endloop
endfacet
facet normal -0.866025403784439 0.5 0.0
outer loop
vertex 3.89711431702997 -2.25 0.0
vertex 4.34666621830081 -1.16468570296134 1.0
vertex 4.34666621830081 -1.16468570296134 0.0
endloop
endfacet
facet normal -0.866025403784439 -0.5 0.0
outer loop
vertex 3.89711431702997 2.25 1.0
vertex 4.34666621830081 1.16468570296134 0.0
vertex 4.34666621830081 1.16468570296134 1.0
endloop
endfacet
facet normal -0.923879532511287 -0.38268343236509 0.0
outer loop
vertex 4.34666621830081 1.16468570296134 0.0
vertex 3.89711431702997 2.25 1.0
vertex 3.89711431702997 2.25 0.0
endloop
endfacet
facet normal -0.707106781186548 -0.707106781186547 0.0
outer loop
vertex 3.18198051533947 3.18198051533946 1.0
vertex 3.89711431702997 2.25 0.0
vertex 3.89711431702997 2.25 1.0
endloop
endfacet
facet normal -0.866025403784439 -0.5 0.0
outer loop
vertex 3.89711431702997 2.25 0.0
vertex 3.18198051533947 3.18198051533946 1.0
vertex 3.18198051533947 3.18198051533946 0.0
endloop
endfacet
facet normal -0.707106781186548 -0.707106781186547 0.0
outer loop
vertex 3.18198051533947 3.18198051533946 1.0
vertex 2.25 3.89711431702997 0.0
vertex 3.18198051533947 3.18198051533946 0.0
endloop
endfacet
facet normal -0.500000000000001 -0.866025403784438 0.0
outer loop
vertex 2.25 3.89711431702997 0.0
vertex 3.18198051533947 3.18198051533946 1.0
vertex 2.25 3.89711431702997 1.0
endloop
endfacet
facet normal -0.500000000000001 -0.866025403784438 0.0
outer loop
vertex 2.25 3.89711431702997 1.0
vertex 1.16468570296135 4.34666621830081 0.0
vertex 2.25 3.89711431702997 0.0
endloop
endfacet
facet normal -0.258819045102521 -0.965925826289068 0.0
outer loop
vertex 1.16468570296135 4.34666621830081 0.0
vertex 2.25 3.89711431702997 1.0
vertex 1.16468570296135 4.34666621830081 1.0
endloop
endfacet
facet normal -0.258819045102521 -0.965925826289068 0.0
outer loop
vertex 1.16468570296135 4.34666621830081 1.0
vertex 8.26636589424463e-016 4.5 0.0
vertex 1.16468570296135 4.34666621830081 0.0
endloop
endfacet
facet normal -3.83177725512817e-016 -1.0 0.0
outer loop
vertex 8.26636589424463e-016 4.5 0.0
vertex 1.16468570296135 4.34666621830081 1.0
vertex 8.26636589424463e-016 4.5 1.0
endloop
endfacet
facet normal -3.83177725512817e-016 -1.0 0.0
outer loop
vertex 8.26636589424463e-016 4.5 1.0
vertex -1.16468570296134 4.34666621830081 0.0
vertex 8.26636589424463e-016 4.5 0.0
endloop
endfacet
facet normal 0.25881904510252 -0.965925826289068 0.0
outer loop
vertex -1.16468570296134 4.34666621830081 0.0
vertex 8.26636589424463e-016 4.5 1.0
vertex -1.16468570296134 4.34666621830081 1.0
endloop
endfacet
facet normal 0.25881904510252 -0.965925826289068 0.0
outer loop
vertex -1.16468570296134 4.34666621830081 1.0
vertex -2.25 3.89711431702998 0.0
vertex -1.16468570296134 4.34666621830081 0.0
endloop
endfacet
facet normal 0.5 -0.866025403784439 0.0
outer loop
vertex -2.25 3.89711431702998 0.0
vertex -1.16468570296134 4.34666621830081 1.0
vertex -2.25 3.89711431702998 1.0
endloop
endfacet
facet normal 0.5 -0.866025403784439 0.0
outer loop
vertex -2.25 3.89711431702998 1.0
vertex -3.18198051533946 3.18198051533946 0.0
vertex -2.25 3.89711431702998 0.0
endloop
endfacet
facet normal 0.707106781186547 -0.707106781186548 0.0
outer loop
vertex -3.18198051533946 3.18198051533946 0.0
vertex -2.25 3.89711431702998 1.0
vertex -3.18198051533946 3.18198051533946 1.0
endloop
endfacet
facet normal 0.707106781186547 -0.707106781186548 0.0
outer loop
vertex -3.18198051533946 3.18198051533946 0.0
vertex -3.89711431702997 2.25 1.0
vertex -3.89711431702997 2.25 0.0
endloop
endfacet
facet normal 0.866025403784438 -0.500000000000001 0.0
outer loop
vertex -3.89711431702997 2.25 1.0
vertex -3.18198051533946 3.18198051533946 0.0
vertex -3.18198051533946 3.18198051533946 1.0
endloop
endfacet
facet normal 0.866025403784438 -0.500000000000001 0.0
outer loop
vertex -3.89711431702997 2.25 0.0
vertex -4.34666621830081 1.16468570296135 1.0
vertex -4.34666621830081 1.16468570296135 0.0
endloop
endfacet
facet normal 0.923879532511286 -0.382683432365091 -0.0
outer loop
vertex -4.34666621830081 1.16468570296135 1.0
vertex -3.89711431702997 2.25 0.0
vertex -3.89711431702997 2.25 1.0
endloop
endfacet
facet normal 0.923879532511287 0.38268343236509 -0.0
outer loop
vertex -4.34666621830081 -1.16468570296134 0.0
vertex -3.89711431702997 -2.25 1.0
vertex -3.89711431702997 -2.25 0.0
endloop
endfacet
facet normal 0.866025403784439 0.5 0.0
outer loop
vertex -3.89711431702997 -2.25 1.0
vertex -4.34666621830081 -1.16468570296134 0.0
vertex -4.34666621830081 -1.16468570296134 1.0
endloop
endfacet
facet normal 2.32472882709807e-032 4.64235481295224e-017 1.0
outer loop
vertex -4.34666621830081 1.16468570296135 1.0
vertex -5.62916512459885 3.25000000000001 1.0
vertex -6.27851787087894 1.6823237931664 1.0
endloop
endfacet
facet normal 2.32472882709807e-032 4.64235481295224e-017 1.0
outer loop
vertex -5.62916512459885 3.25000000000001 1.0
vertex -4.34666621830081 1.16468570296135 1.0
vertex -4.59619407771255 4.59619407771256 1.0
endloop
endfacet
facet normal 2.32472882709807e-032 4.64235481295224e-017 1.0
outer loop
vertex -4.59619407771255 4.59619407771256 1.0
vertex -4.34666621830081 1.16468570296135 1.0
vertex -3.25 5.62916512459885 1.0
endloop
endfacet
facet normal 2.32472882709807e-032 4.64235481295224e-017 1.0
outer loop
vertex -3.25 5.62916512459885 1.0
vertex -4.34666621830081 1.16468570296135 1.0
vertex -3.89711431702997 2.25 1.0
endloop
endfacet
facet normal 2.32472882709807e-032 4.64235481295224e-017 1.0
outer loop
vertex -3.25 5.62916512459885 1.0
vertex -3.89711431702997 2.25 1.0
vertex -3.18198051533946 3.18198051533946 1.0
endloop
endfacet
facet normal 2.32472882709807e-032 4.64235481295224e-017 1.0
outer loop
vertex -3.25 5.62916512459885 1.0
vertex -3.18198051533946 3.18198051533946 1.0
vertex -1.68232379316638 6.27851787087894 1.0
endloop
endfacet
facet normal 2.32472882709807e-032 4.64235481295224e-017 1.0
outer loop
vertex -1.68232379316638 6.27851787087894 1.0
vertex -3.18198051533946 3.18198051533946 1.0
vertex -2.25 3.89711431702998 1.0
endloop
endfacet
facet normal 2.32472882709807e-032 4.64235481295224e-017 1.0
outer loop
vertex -1.68232379316638 6.27851787087894 1.0
vertex -2.25 3.89711431702998 1.0
vertex -1.16468570296134 4.34666621830081 1.0
endloop
endfacet
facet normal 2.32472882709807e-032 4.64235481295224e-017 1.0
outer loop
vertex -1.68232379316638 6.27851787087894 1.0
vertex -1.16468570296134 4.34666621830081 1.0
vertex 3.52495810318487e-016 6.5 1.0
endloop
endfacet
facet normal 2.32472882709807e-032 4.64235481295224e-017 1.0
outer loop
vertex 3.52495810318487e-016 6.5 1.0
vertex -1.16468570296134 4.34666621830081 1.0
vertex 8.26636589424463e-016 4.5 1.0
endloop
endfacet
facet normal 2.32472882709807e-032 4.64235481295224e-017 1.0
outer loop
vertex 3.52495810318487e-016 6.5 1.0
vertex 8.26636589424463e-016 4.5 1.0
vertex 1.68232379316638 6.27851787087894 1.0
endloop
endfacet
facet normal 2.32472882709807e-032 4.64235481295224e-017 1.0
outer loop
vertex 1.68232379316638 6.27851787087894 1.0
vertex 8.26636589424463e-016 4.5 1.0
vertex 1.16468570296135 4.34666621830081 1.0
endloop
endfacet
facet normal 2.32472882709807e-032 4.64235481295224e-017 1.0
outer loop
vertex 1.68232379316638 6.27851787087894 1.0
vertex 1.16468570296135 4.34666621830081 1.0
vertex 2.25 3.89711431702997 1.0
endloop
endfacet
facet normal 2.32472882709807e-032 4.64235481295224e-017 1.0
outer loop
vertex 1.68232379316638 6.27851787087894 1.0
vertex 2.25 3.89711431702997 1.0
vertex 3.25 5.62916512459885 1.0
endloop
endfacet
facet normal 2.32472882709807e-032 4.64235481295224e-017 1.0
outer loop
vertex 3.25 5.62916512459885 1.0
vertex 2.25 3.89711431702997 1.0
vertex 3.18198051533947 3.18198051533946 1.0
endloop
endfacet
facet normal 2.32472882709807e-032 4.64235481295224e-017 1.0
outer loop
vertex 3.25 5.62916512459885 1.0
vertex 3.18198051533947 3.18198051533946 1.0
vertex 3.89711431702997 2.25 1.0
endloop
endfacet
facet normal 2.32472882709807e-032 4.64235481295224e-017 1.0
outer loop
vertex 3.25 5.62916512459885 1.0
vertex 3.89711431702997 2.25 1.0
vertex 4.59619407771256 4.59619407771256 1.0
endloop
endfacet
facet normal 2.32472882709807e-032 4.64235481295224e-017 1.0
outer loop
vertex 4.59619407771256 4.59619407771256 1.0
vertex 3.89711431702997 2.25 1.0
vertex 4.34666621830081 1.16468570296134 1.0
endloop
endfacet
facet normal 2.32472882709807e-032 4.64235481295224e-017 1.0
outer loop
vertex 4.59619407771256 4.59619407771256 1.0
vertex 4.34666621830081 1.16468570296134 1.0
vertex 6.27851787087894 1.68232379316639 1.0
endloop
endfacet
facet normal 2.32472882709807e-032 4.64235481295224e-017 1.0
outer loop
vertex 4.59619407771256 4.59619407771256 1.0
vertex 6.27851787087894 1.68232379316639 1.0
vertex 5.62916512459885 3.25 1.0
endloop
endfacet
facet normal -2.38080186205518e-032 -4.64235481295222e-017 1.0
outer loop
vertex -5.62916512459885 -3.25 1.0
vertex -4.34666621830081 -1.16468570296134 1.0
vertex -6.27851787087895 -1.68232379316637 1.0
endloop
endfacet
facet normal -2.38080186205518e-032 -4.64235481295222e-017 1.0
outer loop
vertex -4.34666621830081 -1.16468570296134 1.0
vertex -5.62916512459885 -3.25 1.0
vertex -4.59619407771256 -4.59619407771256 1.0
endloop
endfacet
facet normal -2.38080186205518e-032 -4.64235481295222e-017 1.0
outer loop
vertex -4.34666621830081 -1.16468570296134 1.0
vertex -4.59619407771256 -4.59619407771256 1.0
vertex -3.25 -5.62916512459885 1.0
endloop
endfacet
facet normal -2.38080186205518e-032 -4.64235481295222e-017 1.0
outer loop
vertex -4.34666621830081 -1.16468570296134 1.0
vertex -3.25 -5.62916512459885 1.0
vertex -3.89711431702997 -2.25 1.0
endloop
endfacet
facet normal -2.38080186205518e-032 -4.64235481295222e-017 1.0
outer loop
vertex -3.89711431702997 -2.25 1.0
vertex -3.25 -5.62916512459885 1.0
vertex -3.18198051533946 -3.18198051533946 1.0
endloop
endfacet
facet normal -2.38080186205518e-032 -4.64235481295222e-017 1.0
outer loop
vertex -3.18198051533946 -3.18198051533946 1.0
vertex -3.25 -5.62916512459885 1.0
vertex -1.68232379316639 -6.27851787087894 1.0
endloop
endfacet
facet normal -2.38080186205518e-032 -4.64235481295222e-017 1.0
outer loop
vertex -3.18198051533946 -3.18198051533946 1.0
vertex -1.68232379316639 -6.27851787087894 1.0
vertex -2.25 -3.89711431702997 1.0
endloop
endfacet
facet normal -2.38080186205518e-032 -4.64235481295222e-017 1.0
outer loop
vertex -2.25 -3.89711431702997 1.0
vertex -1.68232379316639 -6.27851787087894 1.0
vertex -1.16468570296134 -4.34666621830081 1.0
endloop
endfacet
facet normal -2.38080186205518e-032 -4.64235481295222e-017 1.0
outer loop
vertex -1.16468570296134 -4.34666621830081 1.0
vertex -1.68232379316639 -6.27851787087894 1.0
vertex -2.8199664825479e-015 -6.5 1.0
endloop
endfacet
facet normal -2.38080186205518e-032 -4.64235481295222e-017 1.0
outer loop
vertex -1.16468570296134 -4.34666621830081 1.0
vertex -2.8199664825479e-015 -6.5 1.0
vertex -2.75545529808154e-016 -4.5 1.0
endloop
endfacet
facet normal -2.38080186205518e-032 -4.64235481295222e-017 1.0
outer loop
vertex -2.75545529808154e-016 -4.5 1.0
vertex -2.8199664825479e-015 -6.5 1.0
vertex 1.68232379316638 -6.27851787087894 1.0
endloop
endfacet
facet normal -2.38080186205518e-032 -4.64235481295222e-017 1.0
outer loop
vertex -2.75545529808154e-016 -4.5 1.0
vertex 1.68232379316638 -6.27851787087894 1.0
vertex 1.16468570296134 -4.34666621830081 1.0
endloop
endfacet
facet normal -2.38080186205518e-032 -4.64235481295222e-017 1.0
outer loop
vertex 1.16468570296134 -4.34666621830081 1.0
vertex 1.68232379316638 -6.27851787087894 1.0
vertex 2.25 -3.89711431702997 1.0
endloop
endfacet
facet normal -2.38080186205518e-032 -4.64235481295222e-017 1.0
outer loop
vertex 2.25 -3.89711431702997 1.0
vertex 1.68232379316638 -6.27851787087894 1.0
vertex 3.25 -5.62916512459885 1.0
endloop
endfacet
facet normal -2.38080186205518e-032 -4.64235481295222e-017 1.0
outer loop
vertex 2.25 -3.89711431702997 1.0
vertex 3.25 -5.62916512459885 1.0
vertex 3.18198051533946 -3.18198051533946 1.0
endloop
endfacet
facet normal -2.38080186205518e-032 -4.64235481295222e-017 1.0
outer loop
vertex 3.18198051533946 -3.18198051533946 1.0
vertex 3.25 -5.62916512459885 1.0
vertex 3.89711431702997 -2.25 1.0
endloop
endfacet
facet normal -2.38080186205518e-032 -4.64235481295222e-017 1.0
outer loop
vertex 3.89711431702997 -2.25 1.0
vertex 3.25 -5.62916512459885 1.0
vertex 4.59619407771256 -4.59619407771256 1.0
endloop
endfacet
facet normal -2.38080186205518e-032 -4.64235481295222e-017 1.0
outer loop
vertex 3.89711431702997 -2.25 1.0
vertex 4.59619407771256 -4.59619407771256 1.0
vertex 4.34666621830081 -1.16468570296134 1.0
endloop
endfacet
facet normal -2.38080186205518e-032 -4.64235481295222e-017 1.0
outer loop
vertex 4.34666621830081 -1.16468570296134 1.0
vertex 4.59619407771256 -4.59619407771256 1.0
vertex 6.27851787087894 -1.68232379316639 1.0
endloop
endfacet
facet normal -2.38080186205518e-032 -4.64235481295222e-017 1.0
outer loop
vertex 6.27851787087894 -1.68232379316639 1.0
vertex 4.59619407771256 -4.59619407771256 1.0
vertex 5.62916512459885 -3.25 1.0
endloop
endfacet
facet normal -0.258819045102524 -0.965925826289067 9.70189086723218e-018
outer loop
vertex -4.34666621830081 1.16468570296135 0.0
vertex -6.27851787087894 1.6823237931664 1.0
vertex -6.27851787087894 1.6823237931664 -1.76247905159244e-016
endloop
endfacet
facet normal -0.258819045102524 -0.965925826289067 9.70189086723218e-018
outer loop
vertex -6.27851787087894 1.6823237931664 1.0
vertex -4.34666621830081 1.16468570296135 0.0
vertex -4.34666621830081 1.16468570296135 1.0
endloop
endfacet
facet normal -0.258819045102514 0.96592582628907 -9.61482031417251e-018
outer loop
vertex -6.27851787087895 -1.68232379316637 1.0
vertex -4.34666621830081 -1.16468570296134 0.0
vertex -6.27851787087895 -1.68232379316637 -1.76247905159244e-016
endloop
endfacet
facet normal -0.258819045102514 0.96592582628907 -9.61482031417251e-018
outer loop
vertex -4.34666621830081 -1.16468570296134 0.0
vertex -6.27851787087895 -1.68232379316637 1.0
vertex -4.34666621830081 -1.16468570296134 1.0
endloop
endfacet
facet normal 0.258819045102522 -0.965925826289068 -7.18934759736102e-018
outer loop
vertex 6.27851787087894 1.68232379316639 1.0
vertex 4.34666621830081 1.16468570296134 0.0
vertex 6.27851787087894 1.68232379316639 -1.76247905159244e-016
endloop
endfacet
facet normal 0.258819045102522 -0.965925826289068 -7.18934759736102e-018
outer loop
vertex 4.34666621830081 1.16468570296134 0.0
vertex 6.27851787087894 1.68232379316639 1.0
vertex 4.34666621830081 1.16468570296134 1.0
endloop
endfacet
facet normal 0.258819045102521 0.965925826289068 9.70189086723009e-018
outer loop
vertex 4.34666621830081 -1.16468570296134 0.0
vertex 6.27851787087894 -1.68232379316639 1.0
vertex 6.27851787087894 -1.68232379316639 -1.76247905159244e-016
endloop
endfacet
facet normal 0.258819045102521 0.965925826289068 9.70189086723009e-018
outer loop
vertex 6.27851787087894 -1.68232379316639 1.0
vertex 4.34666621830081 -1.16468570296134 0.0
vertex 4.34666621830081 -1.16468570296134 1.0
endloop
endfacet
endsolid bearing-holder
