solid upper-ball-bearing-adapter
facet normal -0.258819045102521 0.965925826289068 0.0
outer loop
vertex 5.68700263072714 -0.996062814267945 6.0
vertex 6.98109785623975 -0.825691945713286 3.5
vertex 5.68700263072714 -0.996062814267945 3.5
endloop
endfacet
facet normal 4.45555494782345e-017 1.0 0.0
outer loop
vertex 6.98109785623975 -0.825691945713286 3.5
vertex 5.68700263072714 -0.996062814267945 6.0
vertex 6.98109785623975 -0.825691945713286 6.0
endloop
endfacet
facet normal -0.5 0.866025403784439 0.0
outer loop
vertex 4.48109785623975 -1.49556492679109 6.0
vertex 5.68700263072714 -0.996062814267945 3.5
vertex 4.48109785623975 -1.49556492679109 3.5
endloop
endfacet
facet normal -0.258819045102521 0.965925826289068 0.0
outer loop
vertex 5.68700263072714 -0.996062814267945 3.5
vertex 4.48109785623975 -1.49556492679109 6.0
vertex 5.68700263072714 -0.996062814267945 6.0
endloop
endfacet
facet normal -0.707106781186548 0.707106781186547 0.0
outer loop
vertex 3.44556395030701 -2.29015803978055 6.0
vertex 4.48109785623975 -1.49556492679109 3.5
vertex 3.44556395030701 -2.29015803978055 3.5
endloop
endfacet
facet normal -0.5 0.866025403784439 0.0
outer loop
vertex 4.48109785623975 -1.49556492679109 3.5
vertex 3.44556395030701 -2.29015803978055 6.0
vertex 4.48109785623975 -1.49556492679109 6.0
endloop
endfacet
facet normal -1.0 -7.12888791651753e-017 0.0
outer loop
vertex 1.98109785623975 -5.82569194571329 6.0
vertex 2.15146872479441 -7.11978717122589 3.5
vertex 2.15146872479441 -7.11978717122589 6.0
endloop
endfacet
facet normal -0.965925826289068 -0.258819045102521 0.0
outer loop
vertex 2.15146872479441 -7.11978717122589 3.5
vertex 1.98109785623975 -5.82569194571329 6.0
vertex 1.98109785623975 -5.82569194571329 3.5
endloop
endfacet
facet normal -0.707106781186553 0.707106781186542 1.04948700859652e-016
outer loop
vertex 4.22338140961219 -3.06797549908577 8.0
vertex 3.60359878148042 -3.87569194571331 6.0
vertex 3.60359878148042 -3.87569194571332 8.0
endloop
endfacet
facet normal -0.866025403784443 0.499999999999993 1.80064659695792e-016
outer loop
vertex 3.60359878148042 -3.87569194571331 6.0
vertex 4.22338140961219 -3.06797549908577 8.0
vertex 4.22338140961219 -3.06797549908577 6.0
endloop
endfacet
facet normal 0.965925826289068 0.258819045102521 0.0
outer loop
vertex 11.8107269876851 -4.53159672020068 3.5
vertex 11.9810978562397 -5.82569194571329 6.0
vertex 11.9810978562397 -5.82569194571329 3.5
endloop
endfacet
facet normal 1.0 1.51488868225997e-016 0.0
outer loop
vertex 11.9810978562397 -5.82569194571329 6.0
vertex 11.8107269876851 -4.53159672020068 3.5
vertex 11.8107269876851 -4.53159672020068 6.0
endloop
endfacet
facet normal 0.866025403784439 0.5 0.0
outer loop
vertex 11.3112248751619 -3.32569194571328 3.5
vertex 11.8107269876851 -4.53159672020068 6.0
vertex 11.8107269876851 -4.53159672020068 3.5
endloop
endfacet
facet normal 0.965925826289068 0.258819045102521 0.0
outer loop
vertex 11.8107269876851 -4.53159672020068 6.0
vertex 11.3112248751619 -3.32569194571328 3.5
vertex 11.3112248751619 -3.32569194571328 6.0
endloop
endfacet
facet normal 0.258819045102521 0.965925826289068 0.0
outer loop
vertex 8.27519308175235 -0.996062814267945 6.0
vertex 9.48109785623975 -1.49556492679109 3.5
vertex 8.27519308175235 -0.996062814267945 3.5
endloop
endfacet
facet normal 0.5 0.866025403784439 0.0
outer loop
vertex 9.48109785623975 -1.49556492679109 3.5
vertex 8.27519308175235 -0.996062814267945 6.0
vertex 9.48109785623975 -1.49556492679109 6.0
endloop
endfacet
facet normal 3.20799956243289e-016 -1.0 0.0
outer loop
vertex 6.98109785623975 -10.8256919457133 6.0
vertex 5.68700263072715 -10.6553210771586 3.5
vertex 6.98109785623975 -10.8256919457133 3.5
endloop
endfacet
facet normal -0.25881904510252 -0.965925826289068 0.0
outer loop
vertex 5.68700263072715 -10.6553210771586 3.5
vertex 6.98109785623975 -10.8256919457133 6.0
vertex 5.68700263072715 -10.6553210771586 6.0
endloop
endfacet
facet normal -0.0 -0.0 1.0
outer loop
vertex 3.44556395030701 -9.36122585164602 6.0
vertex 3.08109785623975 -5.82569194571331 6.0
vertex 2.65097083731756 -8.32569194571329 6.0
endloop
endfacet
facet normal -0.0 -0.0 1.0
outer loop
vertex 3.08109785623975 -5.82569194571331 6.0
vertex 3.44556395030701 -9.36122585164602 6.0
vertex 3.21398713371239 -6.83508622161314 6.0
endloop
endfacet
facet normal -0.0 -0.0 1.0
outer loop
vertex 3.21398713371239 -6.83508622161314 6.0
vertex 3.44556395030701 -9.36122585164602 6.0
vertex 3.60359878148045 -7.77569194571331 6.0
endloop
endfacet
facet normal -0.0 -0.0 1.0
outer loop
vertex 3.60359878148045 -7.77569194571331 6.0
vertex 3.44556395030701 -9.36122585164602 6.0
vertex 4.48109785623975 -10.1558189646355 6.0
endloop
endfacet
facet normal -0.0 -0.0 1.0
outer loop
vertex 3.60359878148045 -7.77569194571331 6.0
vertex 4.48109785623975 -10.1558189646355 6.0
vertex 4.22338140961223 -8.58340839234084 6.0
endloop
endfacet
facet normal -0.0 -0.0 1.0
outer loop
vertex 4.22338140961223 -8.58340839234084 6.0
vertex 4.48109785623975 -10.1558189646355 6.0
vertex 5.03109785623977 -9.20319102047261 6.0
endloop
endfacet
facet normal -0.0 -0.0 1.0
outer loop
vertex 5.03109785623977 -9.20319102047261 6.0
vertex 4.48109785623975 -10.1558189646355 6.0
vertex 5.68700263072715 -10.6553210771586 6.0
endloop
endfacet
facet normal -0.0 -0.0 1.0
outer loop
vertex 5.03109785623977 -9.20319102047261 6.0
vertex 5.68700263072715 -10.6553210771586 6.0
vertex 5.97170358033994 -9.59280266824066 6.0
endloop
endfacet
facet normal -0.0 -0.0 1.0
outer loop
vertex 5.97170358033994 -9.59280266824066 6.0
vertex 5.68700263072715 -10.6553210771586 6.0
vertex 6.98109785623975 -10.8256919457133 6.0
endloop
endfacet
facet normal -0.0 -0.0 1.0
outer loop
vertex 5.97170358033994 -9.59280266824066 6.0
vertex 6.98109785623975 -10.8256919457133 6.0
vertex 6.98109785623977 -9.72569194571328 6.0
endloop
endfacet
facet normal -0.0 -0.0 1.0
outer loop
vertex 6.98109785623977 -9.72569194571328 6.0
vertex 6.98109785623975 -10.8256919457133 6.0
vertex 8.27519308175236 -10.6553210771586 6.0
endloop
endfacet
facet normal -0.0 -0.0 1.0
outer loop
vertex 6.98109785623977 -9.72569194571328 6.0
vertex 8.27519308175236 -10.6553210771586 6.0
vertex 7.9904921321396 -9.59280266824065 6.0
endloop
endfacet
facet normal -0.0 -0.0 1.0
outer loop
vertex 7.9904921321396 -9.59280266824065 6.0
vertex 8.27519308175236 -10.6553210771586 6.0
vertex 8.93109785623977 -9.20319102047259 6.0
endloop
endfacet
facet normal -0.0 -0.0 1.0
outer loop
vertex 8.93109785623977 -9.20319102047259 6.0
vertex 8.27519308175236 -10.6553210771586 6.0
vertex 9.48109785623975 -10.1558189646355 6.0
endloop
endfacet
facet normal -0.0 -0.0 1.0
outer loop
vertex 8.93109785623977 -9.20319102047259 6.0
vertex 9.48109785623975 -10.1558189646355 6.0
vertex 9.7388143028673 -8.5834083923408 6.0
endloop
endfacet
facet normal -0.0 -0.0 1.0
outer loop
vertex 9.7388143028673 -8.5834083923408 6.0
vertex 9.48109785623975 -10.1558189646355 6.0
vertex 10.5166317621725 -9.36122585164602 6.0
endloop
endfacet
facet normal -0.0 -0.0 1.0
outer loop
vertex 9.7388143028673 -8.5834083923408 6.0
vertex 10.5166317621725 -9.36122585164602 6.0
vertex 10.3585969309991 -7.77569194571327 6.0
endloop
endfacet
facet normal -0.0 -0.0 1.0
outer loop
vertex 10.3585969309991 -7.77569194571327 6.0
vertex 10.5166317621725 -9.36122585164602 6.0
vertex 10.7482085787671 -6.83508622161309 6.0
endloop
endfacet
facet normal -0.0 -0.0 1.0
outer loop
vertex 10.7482085787671 -6.83508622161309 6.0
vertex 10.5166317621725 -9.36122585164602 6.0
vertex 11.3112248751619 -8.32569194571328 6.0
endloop
endfacet
facet normal -0.0 -0.0 1.0
outer loop
vertex 10.7482085787671 -6.83508622161309 6.0
vertex 11.3112248751619 -8.32569194571328 6.0
vertex 10.8810978562397 -5.82569194571326 6.0
endloop
endfacet
facet normal -0.0 -0.0 1.0
outer loop
vertex 10.8810978562397 -5.82569194571326 6.0
vertex 11.3112248751619 -8.32569194571328 6.0
vertex 11.3112248751619 -3.32569194571328 6.0
endloop
endfacet
facet normal -0.0 -0.0 1.0
outer loop
vertex 11.3112248751619 -3.32569194571328 6.0
vertex 11.3112248751619 -8.32569194571328 6.0
vertex 11.8107269876851 -4.53159672020068 6.0
endloop
endfacet
facet normal -0.0 -0.0 1.0
outer loop
vertex 11.8107269876851 -4.53159672020068 6.0
vertex 11.3112248751619 -8.32569194571328 6.0
vertex 11.8107269876851 -7.11978717122589 6.0
endloop
endfacet
facet normal -0.0 -0.0 1.0
outer loop
vertex 11.8107269876851 -4.53159672020068 6.0
vertex 11.8107269876851 -7.11978717122589 6.0
vertex 11.9810978562397 -5.82569194571329 6.0
endloop
endfacet
facet normal -0.0 -0.0 1.0
outer loop
vertex 2.15146872479441 -7.11978717122589 6.0
vertex 2.15146872479441 -4.53159672020068 6.0
vertex 1.98109785623975 -5.82569194571329 6.0
endloop
endfacet
facet normal -0.0 -0.0 1.0
outer loop
vertex 2.15146872479441 -4.53159672020068 6.0
vertex 2.15146872479441 -7.11978717122589 6.0
vertex 2.65097083731755 -3.32569194571329 6.0
endloop
endfacet
facet normal -0.0 -0.0 1.0
outer loop
vertex 2.65097083731755 -3.32569194571329 6.0
vertex 2.15146872479441 -7.11978717122589 6.0
vertex 2.65097083731756 -8.32569194571329 6.0
endloop
endfacet
facet normal -0.0 -0.0 1.0
outer loop
vertex 2.65097083731755 -3.32569194571329 6.0
vertex 2.65097083731756 -8.32569194571329 6.0
vertex 3.44556395030701 -2.29015803978055 6.0
endloop
endfacet
facet normal -0.0 -0.0 1.0
outer loop
vertex 3.44556395030701 -2.29015803978055 6.0
vertex 2.65097083731756 -8.32569194571329 6.0
vertex 3.08109785623975 -5.82569194571331 6.0
endloop
endfacet
facet normal -0.0 -0.0 1.0
outer loop
vertex 3.44556395030701 -2.29015803978055 6.0
vertex 3.08109785623975 -5.82569194571331 6.0
vertex 3.21398713371237 -4.81629766981348 6.0
endloop
endfacet
facet normal -0.0 -0.0 1.0
outer loop
vertex 3.44556395030701 -2.29015803978055 6.0
vertex 3.21398713371237 -4.81629766981348 6.0
vertex 3.60359878148042 -3.87569194571331 6.0
endloop
endfacet
facet normal -0.0 -0.0 1.0
outer loop
vertex 3.44556395030701 -2.29015803978055 6.0
vertex 3.60359878148042 -3.87569194571331 6.0
vertex 4.48109785623975 -1.49556492679109 6.0
endloop
endfacet
facet normal -0.0 -0.0 1.0
outer loop
vertex 4.48109785623975 -1.49556492679109 6.0
vertex 3.60359878148042 -3.87569194571331 6.0
vertex 4.22338140961219 -3.06797549908577 6.0
endloop
endfacet
facet normal -0.0 -0.0 1.0
outer loop
vertex 4.48109785623975 -1.49556492679109 6.0
vertex 4.22338140961219 -3.06797549908577 6.0
vertex 5.03109785623973 -2.44819287095399 6.0
endloop
endfacet
facet normal -0.0 -0.0 1.0
outer loop
vertex 4.48109785623975 -1.49556492679109 6.0
vertex 5.03109785623973 -2.44819287095399 6.0
vertex 5.68700263072714 -0.996062814267945 6.0
endloop
endfacet
facet normal -0.0 -0.0 1.0
outer loop
vertex 5.68700263072714 -0.996062814267945 6.0
vertex 5.03109785623973 -2.44819287095399 6.0
vertex 5.97170358033989 -2.05858122318592 6.0
endloop
endfacet
facet normal -0.0 -0.0 1.0
outer loop
vertex 5.68700263072714 -0.996062814267945 6.0
vertex 5.97170358033989 -2.05858122318592 6.0
vertex 6.98109785623975 -0.825691945713286 6.0
endloop
endfacet
facet normal -0.0 -0.0 1.0
outer loop
vertex 6.98109785623975 -0.825691945713286 6.0
vertex 5.97170358033989 -2.05858122318592 6.0
vertex 6.98109785623972 -1.92569194571328 6.0
endloop
endfacet
facet normal -0.0 -0.0 1.0
outer loop
vertex 6.98109785623975 -0.825691945713286 6.0
vertex 6.98109785623972 -1.92569194571328 6.0
vertex 7.99049213213956 -2.05858122318591 6.0
endloop
endfacet
facet normal -0.0 -0.0 1.0
outer loop
vertex 6.98109785623975 -0.825691945713286 6.0
vertex 7.99049213213956 -2.05858122318591 6.0
vertex 8.27519308175235 -0.996062814267945 6.0
endloop
endfacet
facet normal -0.0 -0.0 1.0
outer loop
vertex 8.27519308175235 -0.996062814267945 6.0
vertex 7.99049213213956 -2.05858122318591 6.0
vertex 8.93109785623973 -2.44819287095396 6.0
endloop
endfacet
facet normal -0.0 -0.0 1.0
outer loop
vertex 8.27519308175235 -0.996062814267945 6.0
vertex 8.93109785623973 -2.44819287095396 6.0
vertex 9.48109785623975 -1.49556492679109 6.0
endloop
endfacet
facet normal -0.0 -0.0 1.0
outer loop
vertex 9.48109785623975 -1.49556492679109 6.0
vertex 8.93109785623973 -2.44819287095396 6.0
vertex 9.73881430286727 -3.06797549908573 6.0
endloop
endfacet
facet normal -0.0 -0.0 1.0
outer loop
vertex 9.48109785623975 -1.49556492679109 6.0
vertex 9.73881430286727 -3.06797549908573 6.0
vertex 10.5166317621725 -2.29015803978055 6.0
endloop
endfacet
facet normal -0.0 -0.0 1.0
outer loop
vertex 10.5166317621725 -2.29015803978055 6.0
vertex 9.73881430286727 -3.06797549908573 6.0
vertex 10.358596930999 -3.87569194571326 6.0
endloop
endfacet
facet normal -0.0 -0.0 1.0
outer loop
vertex 10.5166317621725 -2.29015803978055 6.0
vertex 10.358596930999 -3.87569194571326 6.0
vertex 10.7482085787671 -4.81629766981343 6.0
endloop
endfacet
facet normal -0.0 -0.0 1.0
outer loop
vertex 10.5166317621725 -2.29015803978055 6.0
vertex 10.7482085787671 -4.81629766981343 6.0
vertex 11.3112248751619 -3.32569194571328 6.0
endloop
endfacet
facet normal -0.0 -0.0 1.0
outer loop
vertex 11.3112248751619 -3.32569194571328 6.0
vertex 10.7482085787671 -4.81629766981343 6.0
vertex 10.8810978562397 -5.82569194571326 6.0
endloop
endfacet
facet normal -0.965925826289068 -0.258819045102521 0.0
outer loop
vertex 2.15146872479441 -7.11978717122589 6.0
vertex 2.65097083731756 -8.32569194571329 3.5
vertex 2.65097083731756 -8.32569194571329 6.0
endloop
endfacet
facet normal -0.866025403784438 -0.500000000000001 0.0
outer loop
vertex 2.65097083731756 -8.32569194571329 3.5
vertex 2.15146872479441 -7.11978717122589 6.0
vertex 2.15146872479441 -7.11978717122589 3.5
endloop
endfacet
facet normal 4.45555494782345e-017 1.0 0.0
outer loop
vertex 6.98109785623975 -0.825691945713286 6.0
vertex 8.27519308175235 -0.996062814267945 3.5
vertex 6.98109785623975 -0.825691945713286 3.5
endloop
endfacet
facet normal 0.258819045102521 0.965925826289068 0.0
outer loop
vertex 8.27519308175235 -0.996062814267945 3.5
vertex 6.98109785623975 -0.825691945713286 6.0
vertex 8.27519308175235 -0.996062814267945 6.0
endloop
endfacet
facet normal 0.500000000000001 -0.866025403784438 0.0
outer loop
vertex 9.48109785623975 -10.1558189646355 6.0
vertex 8.27519308175236 -10.6553210771586 3.5
vertex 9.48109785623975 -10.1558189646355 3.5
endloop
endfacet
facet normal 0.258819045102521 -0.965925826289068 0.0
outer loop
vertex 8.27519308175236 -10.6553210771586 3.5
vertex 9.48109785623975 -10.1558189646355 6.0
vertex 8.27519308175236 -10.6553210771586 6.0
endloop
endfacet
facet normal 0.866025403784439 -0.5 0.0
outer loop
vertex 11.3112248751619 -8.32569194571328 3.5
vertex 10.5166317621725 -9.36122585164602 6.0
vertex 10.5166317621725 -9.36122585164602 3.5
endloop
endfacet
facet normal 0.707106781186548 -0.707106781186547 0.0
outer loop
vertex 10.5166317621725 -9.36122585164602 6.0
vertex 11.3112248751619 -8.32569194571328 3.5
vertex 11.3112248751619 -8.32569194571328 6.0
endloop
endfacet
facet normal 0.707106781186547 0.707106781186548 0.0
outer loop
vertex 10.5166317621725 -2.29015803978055 3.5
vertex 11.3112248751619 -3.32569194571328 6.0
vertex 11.3112248751619 -3.32569194571328 3.5
endloop
endfacet
facet normal 0.866025403784439 0.5 0.0
outer loop
vertex 11.3112248751619 -3.32569194571328 6.0
vertex 10.5166317621725 -2.29015803978055 3.5
vertex 10.5166317621725 -2.29015803978055 6.0
endloop
endfacet
facet normal -0.499999999999999 -0.866025403784439 0.0
outer loop
vertex 4.48109785623975 -10.1558189646355 6.0
vertex 3.44556395030701 -9.36122585164602 3.5
vertex 4.48109785623975 -10.1558189646355 3.5
endloop
endfacet
facet normal -0.707106781186547 -0.707106781186548 0.0
outer loop
vertex 3.44556395030701 -9.36122585164602 3.5
vertex 4.48109785623975 -10.1558189646355 6.0
vertex 3.44556395030701 -9.36122585164602 6.0
endloop
endfacet
facet normal -0.965925826289068 0.258819045102521 0.0
outer loop
vertex 2.15146872479441 -4.53159672020068 6.0
vertex 1.98109785623975 -5.82569194571329 3.5
vertex 1.98109785623975 -5.82569194571329 6.0
endloop
endfacet
facet normal -1.0 -7.12888791651753e-017 0.0
outer loop
vertex 1.98109785623975 -5.82569194571329 3.5
vertex 2.15146872479441 -4.53159672020068 6.0
vertex 2.15146872479441 -4.53159672020068 3.5
endloop
endfacet
facet normal 0.258819045102521 -0.965925826289068 0.0
outer loop
vertex 8.27519308175236 -10.6553210771586 6.0
vertex 6.98109785623975 -10.8256919457133 3.5
vertex 8.27519308175236 -10.6553210771586 3.5
endloop
endfacet
facet normal 3.20799956243289e-016 -1.0 0.0
outer loop
vertex 6.98109785623975 -10.8256919457133 3.5
vertex 8.27519308175236 -10.6553210771586 6.0
vertex 6.98109785623975 -10.8256919457133 6.0
endloop
endfacet
facet normal 1.0 1.51488868225997e-016 0.0
outer loop
vertex 11.9810978562397 -5.82569194571329 3.5
vertex 11.8107269876851 -7.11978717122589 6.0
vertex 11.8107269876851 -7.11978717122589 3.5
endloop
endfacet
facet normal 0.965925826289068 -0.25881904510252 0.0
outer loop
vertex 11.8107269876851 -7.11978717122589 6.0
vertex 11.9810978562397 -5.82569194571329 3.5
vertex 11.9810978562397 -5.82569194571329 6.0
endloop
endfacet
facet normal -0.0 -0.0 1.0
outer loop
vertex 4.22338140961224 -8.58340839234084 8.0
vertex 4.54218772912202 -6.37498002299385 8.0
vertex 4.48160478377762 -5.77534931254971 8.0
endloop
endfacet
facet normal -0.0 -0.0 1.0
outer loop
vertex 4.54218772912202 -6.37498002299385 8.0
vertex 4.22338140961224 -8.58340839234084 8.0
vertex 5.03109785623978 -9.20319102047261 8.0
endloop
endfacet
facet normal -0.0 -0.0 1.0
outer loop
vertex 4.54218772912202 -6.37498002299385 8.0
vertex 5.03109785623978 -9.20319102047261 8.0
vertex 4.74451126597689 -6.94268810696737 8.0
endloop
endfacet
facet normal -0.0 -0.0 1.0
outer loop
vertex 4.74451126597689 -6.94268810696737 8.0
vertex 5.03109785623978 -9.20319102047261 8.0
vertex 5.07681708579637 -7.44548043416465 8.0
endloop
endfacet
facet normal -0.0 -0.0 1.0
outer loop
vertex 5.07681708579637 -7.44548043416465 8.0
vertex 5.03109785623978 -9.20319102047261 8.0
vertex 5.97170358033995 -9.59280266824066 8.0
endloop
endfacet
facet normal -0.0 -0.0 1.0
outer loop
vertex 5.07681708579637 -7.44548043416465 8.0
vertex 5.97170358033995 -9.59280266824066 8.0
vertex 5.51979278221505 -7.85413654210473 8.0
endloop
endfacet
facet normal -0.0 -0.0 1.0
outer loop
vertex 5.51979278221505 -7.85413654210473 8.0
vertex 5.97170358033995 -9.59280266824066 8.0
vertex 6.04769421790822 -8.14490682319865 8.0
endloop
endfacet
facet normal -0.0 -0.0 1.0
outer loop
vertex 6.04769421790822 -8.14490682319865 8.0
vertex 5.97170358033995 -9.59280266824066 8.0
vertex 6.98109785623978 -9.72569194571328 8.0
endloop
endfacet
facet normal -0.0 -0.0 1.0
outer loop
vertex 6.04769421790822 -8.14490682319865 8.0
vertex 6.98109785623978 -9.72569194571328 8.0
vertex 6.62984168027704 -8.3008927656162 8.0
endloop
endfacet
facet normal -0.0 -0.0 1.0
outer loop
vertex 6.62984168027704 -8.3008927656162 8.0
vertex 6.98109785623978 -9.72569194571328 8.0
vertex 7.23240287482856 -8.3130290333699 8.0
endloop
endfacet
facet normal -0.0 -0.0 1.0
outer loop
vertex 7.23240287482856 -8.3130290333699 8.0
vertex 6.98109785623978 -9.72569194571328 8.0
vertex 7.99049213213961 -9.59280266824064 8.0
endloop
endfacet
facet normal -0.0 -0.0 1.0
outer loop
vertex 7.23240287482856 -8.3130290333699 8.0
vertex 7.99049213213961 -9.59280266824064 8.0
vertex 7.82035913515628 -8.18061031069144 8.0
endloop
endfacet
facet normal -0.0 -0.0 1.0
outer loop
vertex 7.82035913515628 -8.18061031069144 8.0
vertex 7.99049213213961 -9.59280266824064 8.0
vertex 8.359540580544 -7.91133229242043 8.0
endloop
endfacet
facet normal -0.0 -0.0 1.0
outer loop
vertex 8.359540580544 -7.91133229242043 8.0
vertex 7.99049213213961 -9.59280266824064 8.0
vertex 8.93109785623977 -9.20319102047258 8.0
endloop
endfacet
facet normal -0.0 -0.0 1.0
outer loop
vertex 8.359540580544 -7.91133229242043 8.0
vertex 8.93109785623977 -9.20319102047258 8.0
vertex 8.81861194523058 -7.520844438193 8.0
endloop
endfacet
facet normal -0.0 -0.0 1.0
outer loop
vertex 8.81861194523058 -7.520844438193 8.0
vertex 8.93109785623977 -9.20319102047258 8.0
vertex 9.17089367015698 -7.03184048273125 8.0
endloop
endfacet
facet normal -0.0 -0.0 1.0
outer loop
vertex 9.17089367015698 -7.03184048273125 8.0
vertex 8.93109785623977 -9.20319102047258 8.0
vertex 9.7388143028673 -8.5834083923408 8.0
endloop
endfacet
facet normal -0.0 -0.0 1.0
outer loop
vertex 9.17089367015698 -7.03184048273125 8.0
vertex 9.7388143028673 -8.5834083923408 8.0
vertex 9.39591242196242 -6.47273955846957 8.0
endloop
endfacet
facet normal -0.0 -0.0 1.0
outer loop
vertex 9.39591242196242 -6.47273955846957 8.0
vertex 9.7388143028673 -8.5834083923408 8.0
vertex 9.48059092870187 -5.87603457887687 8.0
endloop
endfacet
facet normal -0.0 -0.0 1.0
outer loop
vertex 9.48059092870187 -5.87603457887687 8.0
vertex 9.7388143028673 -8.5834083923408 8.0
vertex 9.73881430286726 -3.06797549908573 8.0
endloop
endfacet
facet normal -0.0 -0.0 1.0
outer loop
vertex 9.73881430286726 -3.06797549908573 8.0
vertex 9.7388143028673 -8.5834083923408 8.0
vertex 10.358596930999 -3.87569194571326 8.0
endloop
endfacet
facet normal -0.0 -0.0 1.0
outer loop
vertex 10.358596930999 -3.87569194571326 8.0
vertex 9.7388143028673 -8.5834083923408 8.0
vertex 10.3585969309991 -7.77569194571326 8.0
endloop
endfacet
facet normal -0.0 -0.0 1.0
outer loop
vertex 10.358596930999 -3.87569194571326 8.0
vertex 10.3585969309991 -7.77569194571326 8.0
vertex 10.7482085787671 -4.81629766981342 8.0
endloop
endfacet
facet normal -0.0 -0.0 1.0
outer loop
vertex 10.7482085787671 -4.81629766981342 8.0
vertex 10.3585969309991 -7.77569194571326 8.0
vertex 10.7482085787671 -6.83508622161309 8.0
endloop
endfacet
facet normal -0.0 -0.0 1.0
outer loop
vertex 10.7482085787671 -4.81629766981342 8.0
vertex 10.7482085787671 -6.83508622161309 8.0
vertex 10.8810978562397 -5.82569194571325 8.0
endloop
endfacet
facet normal -0.0 -0.0 1.0
outer loop
vertex 3.21398713371239 -6.83508622161315 8.0
vertex 3.21398713371237 -4.81629766981349 8.0
vertex 3.08109785623975 -5.82569194571332 8.0
endloop
endfacet
facet normal -0.0 -0.0 1.0
outer loop
vertex 3.21398713371237 -4.81629766981349 8.0
vertex 3.21398713371239 -6.83508622161315 8.0
vertex 3.60359878148042 -3.87569194571332 8.0
endloop
endfacet
facet normal -0.0 -0.0 1.0
outer loop
vertex 3.60359878148042 -3.87569194571332 8.0
vertex 3.21398713371239 -6.83508622161315 8.0
vertex 3.60359878148046 -7.77569194571332 8.0
endloop
endfacet
facet normal -0.0 -0.0 1.0
outer loop
vertex 3.60359878148042 -3.87569194571332 8.0
vertex 3.60359878148046 -7.77569194571332 8.0
vertex 4.22338140961219 -3.06797549908577 8.0
endloop
endfacet
facet normal -0.0 -0.0 1.0
outer loop
vertex 4.22338140961219 -3.06797549908577 8.0
vertex 3.60359878148046 -7.77569194571332 8.0
vertex 4.22338140961224 -8.58340839234084 8.0
endloop
endfacet
facet normal -0.0 -0.0 1.0
outer loop
vertex 4.22338140961219 -3.06797549908577 8.0
vertex 4.22338140961224 -8.58340839234084 8.0
vertex 4.48160478377762 -5.77534931254971 8.0
endloop
endfacet
facet normal -0.0 -0.0 1.0
outer loop
vertex 4.22338140961219 -3.06797549908577 8.0
vertex 4.48160478377762 -5.77534931254971 8.0
vertex 4.56628329051707 -5.17864433295701 8.0
endloop
endfacet
facet normal -0.0 -0.0 1.0
outer loop
vertex 4.22338140961219 -3.06797549908577 8.0
vertex 4.56628329051707 -5.17864433295701 8.0
vertex 5.03109785623972 -2.44819287095399 8.0
endloop
endfacet
facet normal -0.0 -0.0 1.0
outer loop
vertex 5.03109785623972 -2.44819287095399 8.0
vertex 4.56628329051707 -5.17864433295701 8.0
vertex 4.79130204232252 -4.61954340869532 8.0
endloop
endfacet
facet normal -0.0 -0.0 1.0
outer loop
vertex 5.03109785623972 -2.44819287095399 8.0
vertex 4.79130204232252 -4.61954340869532 8.0
vertex 5.14358376724891 -4.13053945323357 8.0
endloop
endfacet
facet normal -0.0 -0.0 1.0
outer loop
vertex 5.03109785623972 -2.44819287095399 8.0
vertex 5.14358376724891 -4.13053945323357 8.0
vertex 5.97170358033989 -2.05858122318593 8.0
endloop
endfacet
facet normal -0.0 -0.0 1.0
outer loop
vertex 5.97170358033989 -2.05858122318593 8.0
vertex 5.14358376724891 -4.13053945323357 8.0
vertex 5.6026551319355 -3.74005159900614 8.0
endloop
endfacet
facet normal -0.0 -0.0 1.0
outer loop
vertex 5.97170358033989 -2.05858122318593 8.0
vertex 5.6026551319355 -3.74005159900614 8.0
vertex 6.14183657732322 -3.47077358073513 8.0
endloop
endfacet
facet normal -0.0 -0.0 1.0
outer loop
vertex 5.97170358033989 -2.05858122318593 8.0
vertex 6.14183657732322 -3.47077358073513 8.0
vertex 6.98109785623972 -1.92569194571329 8.0
endloop
endfacet
facet normal -0.0 -0.0 1.0
outer loop
vertex 6.98109785623972 -1.92569194571329 8.0
vertex 6.14183657732322 -3.47077358073513 8.0
vertex 6.72979283765094 -3.33835485805667 8.0
endloop
endfacet
facet normal -0.0 -0.0 1.0
outer loop
vertex 6.98109785623972 -1.92569194571329 8.0
vertex 6.72979283765094 -3.33835485805667 8.0
vertex 7.33235403220246 -3.35049112581037 8.0
endloop
endfacet
facet normal -0.0 -0.0 1.0
outer loop
vertex 6.98109785623972 -1.92569194571329 8.0
vertex 7.33235403220246 -3.35049112581037 8.0
vertex 7.99049213213955 -2.05858122318591 8.0
endloop
endfacet
facet normal -0.0 -0.0 1.0
outer loop
vertex 7.99049213213955 -2.05858122318591 8.0
vertex 7.33235403220246 -3.35049112581037 8.0
vertex 7.91450149457128 -3.50647706822792 8.0
endloop
endfacet
facet normal -0.0 -0.0 1.0
outer loop
vertex 7.99049213213955 -2.05858122318591 8.0
vertex 7.91450149457128 -3.50647706822792 8.0
vertex 8.44240293026446 -3.79724734932184 8.0
endloop
endfacet
facet normal -0.0 -0.0 1.0
outer loop
vertex 7.99049213213955 -2.05858122318591 8.0
vertex 8.44240293026446 -3.79724734932184 8.0
vertex 8.93109785623972 -2.44819287095396 8.0
endloop
endfacet
facet normal -0.0 -0.0 1.0
outer loop
vertex 8.93109785623972 -2.44819287095396 8.0
vertex 8.44240293026446 -3.79724734932184 8.0
vertex 8.88537862668313 -4.20590345726192 8.0
endloop
endfacet
facet normal -0.0 -0.0 1.0
outer loop
vertex 8.93109785623972 -2.44819287095396 8.0
vertex 8.88537862668313 -4.20590345726192 8.0
vertex 9.21768444650261 -4.7086957844592 8.0
endloop
endfacet
facet normal -0.0 -0.0 1.0
outer loop
vertex 8.93109785623972 -2.44819287095396 8.0
vertex 9.21768444650261 -4.7086957844592 8.0
vertex 9.73881430286726 -3.06797549908573 8.0
endloop
endfacet
facet normal -0.0 -0.0 1.0
outer loop
vertex 9.73881430286726 -3.06797549908573 8.0
vertex 9.21768444650261 -4.7086957844592 8.0
vertex 9.42000798335748 -5.27640386843272 8.0
endloop
endfacet
facet normal -0.0 -0.0 1.0
outer loop
vertex 9.73881430286726 -3.06797549908573 8.0
vertex 9.42000798335748 -5.27640386843272 8.0
vertex 9.48059092870187 -5.87603457887687 8.0
endloop
endfacet
facet normal 0.707106781186548 -0.707106781186547 0.0
outer loop
vertex 10.5166317621725 -9.36122585164602 6.0
vertex 9.48109785623975 -10.1558189646355 3.5
vertex 10.5166317621725 -9.36122585164602 3.5
endloop
endfacet
facet normal 0.500000000000001 -0.866025403784438 0.0
outer loop
vertex 9.48109785623975 -10.1558189646355 3.5
vertex 10.5166317621725 -9.36122585164602 6.0
vertex 9.48109785623975 -10.1558189646355 6.0
endloop
endfacet
facet normal -0.866025403784438 -0.500000000000001 0.0
outer loop
vertex 2.65097083731756 -8.32569194571329 6.0
vertex 3.44556395030701 -9.36122585164602 3.5
vertex 3.44556395030701 -9.36122585164602 6.0
endloop
endfacet
facet normal -0.707106781186547 -0.707106781186548 0.0
outer loop
vertex 3.44556395030701 -9.36122585164602 3.5
vertex 2.65097083731756 -8.32569194571329 6.0
vertex 2.65097083731756 -8.32569194571329 3.5
endloop
endfacet
facet normal -0.707106781186548 0.707106781186547 0.0
outer loop
vertex 3.44556395030701 -2.29015803978055 6.0
vertex 2.65097083731755 -3.32569194571329 3.5
vertex 2.65097083731755 -3.32569194571329 6.0
endloop
endfacet
facet normal -0.866025403784439 0.5 0.0
outer loop
vertex 2.65097083731755 -3.32569194571329 3.5
vertex 3.44556395030701 -2.29015803978055 6.0
vertex 3.44556395030701 -2.29015803978055 3.5
endloop
endfacet
facet normal -0.866025403784439 0.5 0.0
outer loop
vertex 2.65097083731755 -3.32569194571329 6.0
vertex 2.15146872479441 -4.53159672020068 3.5
vertex 2.15146872479441 -4.53159672020068 6.0
endloop
endfacet
facet normal -0.965925826289068 0.258819045102521 0.0
outer loop
vertex 2.15146872479441 -4.53159672020068 3.5
vertex 2.65097083731755 -3.32569194571329 6.0
vertex 2.65097083731755 -3.32569194571329 3.5
endloop
endfacet
facet normal -0.25881904510252 -0.965925826289068 0.0
outer loop
vertex 5.68700263072715 -10.6553210771586 6.0
vertex 4.48109785623975 -10.1558189646355 3.5
vertex 5.68700263072715 -10.6553210771586 3.5
endloop
endfacet
facet normal -0.499999999999999 -0.866025403784439 0.0
outer loop
vertex 4.48109785623975 -10.1558189646355 3.5
vertex 5.68700263072715 -10.6553210771586 6.0
vertex 4.48109785623975 -10.1558189646355 6.0
endloop
endfacet
facet normal 0.965925826289068 -0.25881904510252 0.0
outer loop
vertex 11.8107269876851 -7.11978717122589 3.5
vertex 11.3112248751619 -8.32569194571328 6.0
vertex 11.3112248751619 -8.32569194571328 3.5
endloop
endfacet
facet normal 0.866025403784439 -0.5 0.0
outer loop
vertex 11.3112248751619 -8.32569194571328 6.0
vertex 11.8107269876851 -7.11978717122589 3.5
vertex 11.8107269876851 -7.11978717122589 6.0
endloop
endfacet
facet normal 0.5 0.866025403784439 0.0
outer loop
vertex 9.48109785623975 -1.49556492679109 6.0
vertex 10.5166317621725 -2.29015803978055 3.5
vertex 9.48109785623975 -1.49556492679109 3.5
endloop
endfacet
facet normal 0.707106781186547 0.707106781186548 0.0
outer loop
vertex 10.5166317621725 -2.29015803978055 3.5
vertex 9.48109785623975 -1.49556492679109 6.0
vertex 10.5166317621725 -2.29015803978055 6.0
endloop
endfacet
facet normal 0.866025403784442 -0.499999999999994 5.75072795181665e-016
outer loop
vertex 10.3585969309991 -7.77569194571327 6.0
vertex 9.7388143028673 -8.5834083923408 8.0
vertex 9.7388143028673 -8.5834083923408 6.0
endloop
endfacet
facet normal 0.707106781186552 -0.707106781186543 2.40065855802434e-016
outer loop
vertex 9.7388143028673 -8.5834083923408 8.0
vertex 10.3585969309991 -7.77569194571327 6.0
vertex 10.3585969309991 -7.77569194571326 8.0
endloop
endfacet
facet normal 0.258819045102513 0.96592582628907 3.64359723798484e-017
outer loop
vertex 7.99049213213955 -2.05858122318591 8.0
vertex 8.93109785623973 -2.44819287095396 6.0
vertex 7.99049213213956 -2.05858122318591 6.0
endloop
endfacet
facet normal 0.499999999999994 0.866025403784442 1.45610921884508e-016
outer loop
vertex 8.93109785623973 -2.44819287095396 6.0
vertex 7.99049213213955 -2.05858122318591 8.0
vertex 8.93109785623972 -2.44819287095396 8.0
endloop
endfacet
facet normal 0.707106781186543 0.707106781186553 1.2919427174315e-016
outer loop
vertex 9.73881430286727 -3.06797549908573 6.0
vertex 10.358596930999 -3.87569194571326 8.0
vertex 10.358596930999 -3.87569194571326 6.0
endloop
endfacet
facet normal 0.866025403784435 0.500000000000007 2.12318285109857e-016
outer loop
vertex 10.358596930999 -3.87569194571326 8.0
vertex 9.73881430286727 -3.06797549908573 6.0
vertex 9.73881430286726 -3.06797549908573 8.0
endloop
endfacet
facet normal -0.866025403784434 -0.500000000000007 2.90542596918796e-016
outer loop
vertex 3.60359878148046 -7.77569194571332 8.0
vertex 4.22338140961223 -8.58340839234084 6.0
vertex 4.22338140961224 -8.58340839234084 8.0
endloop
endfacet
facet normal -0.707106781186543 -0.707106781186552 1.29194271743151e-016
outer loop
vertex 4.22338140961223 -8.58340839234084 6.0
vertex 3.60359878148046 -7.77569194571332 8.0
vertex 3.60359878148045 -7.77569194571331 6.0
endloop
endfacet
facet normal 0.965925826289066 0.258819045102527 4.75242791391486e-016
outer loop
vertex 10.7482085787671 -4.81629766981343 6.0
vertex 10.8810978562397 -5.82569194571325 8.0
vertex 10.8810978562397 -5.82569194571326 6.0
endloop
endfacet
facet normal 1.0 7.58335452119552e-015 5.27891735858036e-016
outer loop
vertex 10.8810978562397 -5.82569194571325 8.0
vertex 10.7482085787671 -4.81629766981343 6.0
vertex 10.7482085787671 -4.81629766981342 8.0
endloop
endfacet
facet normal 1.0 7.00413237797847e-015 5.27891735858036e-016
outer loop
vertex 10.8810978562397 -5.82569194571326 6.0
vertex 10.7482085787671 -6.83508622161309 8.0
vertex 10.7482085787671 -6.83508622161309 6.0
endloop
endfacet
facet normal 0.96592582628907 -0.258819045102513 6.74789155870639e-016
outer loop
vertex 10.7482085787671 -6.83508622161309 8.0
vertex 10.8810978562397 -5.82569194571326 6.0
vertex 10.8810978562397 -5.82569194571325 8.0
endloop
endfacet
facet normal -1.0 -8.86655434616867e-015 2.74910496025455e-016
outer loop
vertex 3.08109785623975 -5.82569194571332 8.0
vertex 3.21398713371239 -6.83508622161314 6.0
vertex 3.21398713371239 -6.83508622161315 8.0
endloop
endfacet
facet normal -0.965925826289066 -0.258819045102529 2.5023379996147e-016
outer loop
vertex 3.21398713371239 -6.83508622161314 6.0
vertex 3.08109785623975 -5.82569194571332 8.0
vertex 3.08109785623975 -5.82569194571331 6.0
endloop
endfacet
facet normal 0.258819045102527 -0.965925826289067 5.66714257417104e-017
outer loop
vertex 7.99049213213961 -9.59280266824064 8.0
vertex 6.98109785623977 -9.72569194571328 6.0
vertex 7.9904921321396 -9.59280266824065 6.0
endloop
endfacet
facet normal 6.28233247643107e-015 -1.0 -1.65603922067278e-016
outer loop
vertex 6.98109785623977 -9.72569194571328 6.0
vertex 7.99049213213961 -9.59280266824064 8.0
vertex 6.98109785623978 -9.72569194571328 8.0
endloop
endfacet
facet normal 0.500000000000006 -0.866025403784435 1.97467530535044e-016
outer loop
vertex 8.93109785623977 -9.20319102047258 8.0
vertex 7.9904921321396 -9.59280266824065 6.0
vertex 8.93109785623977 -9.20319102047259 6.0
endloop
endfacet
facet normal 0.258819045102527 -0.965925826289067 5.66714257417098e-017
outer loop
vertex 7.9904921321396 -9.59280266824065 6.0
vertex 8.93109785623977 -9.20319102047258 8.0
vertex 7.99049213213961 -9.59280266824064 8.0
endloop
endfacet
facet normal 6.98631015818717e-015 -1.0 -1.65603922067278e-016
outer loop
vertex 6.98109785623978 -9.72569194571328 8.0
vertex 5.97170358033994 -9.59280266824066 6.0
vertex 6.98109785623977 -9.72569194571328 6.0
endloop
endfacet
facet normal -0.258819045102514 -0.96592582628907 -3.21106358049578e-016
outer loop
vertex 5.97170358033994 -9.59280266824066 6.0
vertex 6.98109785623978 -9.72569194571328 8.0
vertex 5.97170358033995 -9.59280266824066 8.0
endloop
endfacet
facet normal -0.707106781186553 0.707106781186542 1.04948700859652e-016
outer loop
vertex 4.22338140961219 -3.06797549908577 8.0
vertex 5.03109785623973 -2.44819287095399 6.0
vertex 4.22338140961219 -3.06797549908577 6.0
endloop
endfacet
facet normal -0.500000000000006 0.866025403784435 5.40890048706962e-017
outer loop
vertex 5.03109785623973 -2.44819287095399 6.0
vertex 4.22338140961219 -3.06797549908577 8.0
vertex 5.03109785623972 -2.44819287095399 8.0
endloop
endfacet
facet normal -0.965925826289066 -0.258819045102529 2.50233799961471e-016
outer loop
vertex 3.21398713371239 -6.83508622161315 8.0
vertex 3.60359878148045 -7.77569194571331 6.0
vertex 3.60359878148046 -7.77569194571332 8.0
endloop
endfacet
facet normal -0.866025403784435 -0.500000000000007 2.90542596918796e-016
outer loop
vertex 3.60359878148045 -7.77569194571331 6.0
vertex 3.21398713371239 -6.83508622161315 8.0
vertex 3.21398713371239 -6.83508622161314 6.0
endloop
endfacet
facet normal -0.500000000000007 0.866025403784435 5.40890048706962e-017
outer loop
vertex 5.03109785623972 -2.44819287095399 8.0
vertex 5.97170358033989 -2.05858122318592 6.0
vertex 5.03109785623973 -2.44819287095399 6.0
endloop
endfacet
facet normal -0.258819045102527 0.965925826289066 1.35008062330864e-016
outer loop
vertex 5.97170358033989 -2.05858122318592 6.0
vertex 5.03109785623972 -2.44819287095399 8.0
vertex 5.97170358033989 -2.05858122318593 8.0
endloop
endfacet
facet normal 0.866025403784435 0.500000000000006 2.12318285109858e-016
outer loop
vertex 10.358596930999 -3.87569194571326 6.0
vertex 10.7482085787671 -4.81629766981342 8.0
vertex 10.7482085787671 -4.81629766981343 6.0
endloop
endfacet
facet normal 0.965925826289066 0.258819045102528 4.75242791391485e-016
outer loop
vertex 10.7482085787671 -4.81629766981342 8.0
vertex 10.358596930999 -3.87569194571326 6.0
vertex 10.358596930999 -3.87569194571326 8.0
endloop
endfacet
facet normal -7.55662119150857e-015 1.0 1.19642126427408e-016
outer loop
vertex 6.98109785623972 -1.92569194571329 8.0
vertex 7.99049213213956 -2.05858122318591 6.0
vertex 6.98109785623972 -1.92569194571328 6.0
endloop
endfacet
facet normal 0.258819045102514 0.96592582628907 3.64359723798485e-017
outer loop
vertex 7.99049213213956 -2.05858122318591 6.0
vertex 6.98109785623972 -1.92569194571329 8.0
vertex 7.99049213213955 -2.05858122318591 8.0
endloop
endfacet
facet normal 0.499999999999993 0.866025403784443 1.45610921884508e-016
outer loop
vertex 8.93109785623972 -2.44819287095396 8.0
vertex 9.73881430286727 -3.06797549908573 6.0
vertex 8.93109785623973 -2.44819287095396 6.0
endloop
endfacet
facet normal 0.707106781186543 0.707106781186553 1.2919427174315e-016
outer loop
vertex 9.73881430286727 -3.06797549908573 6.0
vertex 8.93109785623972 -2.44819287095396 8.0
vertex 9.73881430286726 -3.06797549908573 8.0
endloop
endfacet
facet normal 0.707106781186552 -0.707106781186543 2.40065855802434e-016
outer loop
vertex 9.7388143028673 -8.5834083923408 8.0
vertex 8.93109785623977 -9.20319102047259 6.0
vertex 9.7388143028673 -8.5834083923408 6.0
endloop
endfacet
facet normal 0.500000000000006 -0.866025403784435 1.97467530535044e-016
outer loop
vertex 8.93109785623977 -9.20319102047259 6.0
vertex 9.7388143028673 -8.5834083923408 8.0
vertex 8.93109785623977 -9.20319102047258 8.0
endloop
endfacet
facet normal -0.258819045102528 0.965925826289066 1.35008062330864e-016
outer loop
vertex 5.97170358033989 -2.05858122318593 8.0
vertex 6.98109785623972 -1.92569194571328 6.0
vertex 5.97170358033989 -2.05858122318592 6.0
endloop
endfacet
facet normal -6.96848793839588e-015 1.0 1.19642126427408e-016
outer loop
vertex 6.98109785623972 -1.92569194571328 6.0
vertex 5.97170358033989 -2.05858122318593 8.0
vertex 6.98109785623972 -1.92569194571329 8.0
endloop
endfacet
facet normal -0.499999999999993 -0.866025403784443 -2.32220883263725e-016
outer loop
vertex 5.03109785623978 -9.20319102047261 8.0
vertex 4.22338140961223 -8.58340839234084 6.0
vertex 5.03109785623977 -9.20319102047261 6.0
endloop
endfacet
facet normal -0.707106781186543 -0.707106781186552 1.29194271743151e-016
outer loop
vertex 4.22338140961223 -8.58340839234084 6.0
vertex 5.03109785623978 -9.20319102047261 8.0
vertex 4.22338140961224 -8.58340839234084 8.0
endloop
endfacet
facet normal -0.866025403784443 0.499999999999992 1.80064659695793e-016
outer loop
vertex 3.60359878148042 -3.87569194571332 8.0
vertex 3.21398713371237 -4.81629766981348 6.0
vertex 3.21398713371237 -4.81629766981349 8.0
endloop
endfacet
facet normal -0.96592582628907 0.258819045102512 2.6910739740143e-016
outer loop
vertex 3.21398713371237 -4.81629766981348 6.0
vertex 3.60359878148042 -3.87569194571332 8.0
vertex 3.60359878148042 -3.87569194571331 6.0
endloop
endfacet
facet normal 0.96592582628907 -0.258819045102514 6.7478915587064e-016
outer loop
vertex 10.7482085787671 -6.83508622161309 6.0
vertex 10.3585969309991 -7.77569194571326 8.0
vertex 10.3585969309991 -7.77569194571327 6.0
endloop
endfacet
facet normal 0.866025403784442 -0.499999999999994 5.75072795181666e-016
outer loop
vertex 10.3585969309991 -7.77569194571326 8.0
vertex 10.7482085787671 -6.83508622161309 6.0
vertex 10.7482085787671 -6.83508622161309 8.0
endloop
endfacet
facet normal -0.965925826289071 0.258819045102512 2.6910739740143e-016
outer loop
vertex 3.21398713371237 -4.81629766981349 8.0
vertex 3.08109785623975 -5.82569194571331 6.0
vertex 3.08109785623975 -5.82569194571332 8.0
endloop
endfacet
facet normal -1.0 -8.22495443368209e-015 2.74910496025455e-016
outer loop
vertex 3.08109785623975 -5.82569194571331 6.0
vertex 3.21398713371237 -4.81629766981349 8.0
vertex 3.21398713371237 -4.81629766981348 6.0
endloop
endfacet
facet normal -0.258819045102513 -0.96592582628907 -3.21106358049577e-016
outer loop
vertex 5.97170358033995 -9.59280266824066 8.0
vertex 5.03109785623977 -9.20319102047261 6.0
vertex 5.97170358033994 -9.59280266824066 6.0
endloop
endfacet
facet normal -0.499999999999994 -0.866025403784442 -2.32220883263724e-016
outer loop
vertex 5.03109785623977 -9.20319102047261 6.0
vertex 5.97170358033995 -9.59280266824066 8.0
vertex 5.03109785623978 -9.20319102047261 8.0
endloop
endfacet
facet normal -1.85551589129516e-031 -1.59044219253871e-031 -1.0
outer loop
vertex 2.15146872479441 -4.53159672020068 3.5
vertex 2.15146872479441 -7.11978717122589 3.5
vertex 1.98109785623975 -5.82569194571329 3.5
endloop
endfacet
facet normal -1.85551589129516e-031 -1.59044219253871e-031 -1.0
outer loop
vertex 2.15146872479441 -7.11978717122589 3.5
vertex 2.15146872479441 -4.53159672020068 3.5
vertex 2.65097083731755 -3.32569194571329 3.5
endloop
endfacet
facet normal -1.85551589129516e-031 -1.59044219253871e-031 -1.0
outer loop
vertex 2.15146872479441 -7.11978717122589 3.5
vertex 2.65097083731755 -3.32569194571329 3.5
vertex 2.65097083731756 -8.32569194571329 3.5
endloop
endfacet
facet normal -1.85551589129516e-031 -1.59044219253871e-031 -1.0
outer loop
vertex 2.65097083731756 -8.32569194571329 3.5
vertex 2.65097083731755 -3.32569194571329 3.5
vertex 3.44556395030701 -2.29015803978055 3.5
endloop
endfacet
facet normal -1.85551589129516e-031 -1.59044219253871e-031 -1.0
outer loop
vertex 2.65097083731756 -8.32569194571329 3.5
vertex 3.44556395030701 -2.29015803978055 3.5
vertex 3.44556395030701 -9.36122585164602 3.5
endloop
endfacet
facet normal -1.85551589129516e-031 -1.59044219253871e-031 -1.0
outer loop
vertex 3.44556395030701 -9.36122585164602 3.5
vertex 3.44556395030701 -2.29015803978055 3.5
vertex 4.48109785623975 -1.49556492679109 3.5
endloop
endfacet
facet normal -1.85551589129516e-031 -1.59044219253871e-031 -1.0
outer loop
vertex 3.44556395030701 -9.36122585164602 3.5
vertex 4.48109785623975 -1.49556492679109 3.5
vertex 4.48109785623975 -10.1558189646355 3.5
endloop
endfacet
facet normal -1.85551589129516e-031 -1.59044219253871e-031 -1.0
outer loop
vertex 4.48109785623975 -10.1558189646355 3.5
vertex 4.48109785623975 -1.49556492679109 3.5
vertex 4.48160478377762 -5.7753493125497 3.5
endloop
endfacet
facet normal -1.85551589129516e-031 -1.59044219253871e-031 -1.0
outer loop
vertex 4.48160478377762 -5.7753493125497 3.5
vertex 4.48109785623975 -1.49556492679109 3.5
vertex 4.56628329051707 -5.178644332957 3.5
endloop
endfacet
facet normal -1.85551589129516e-031 -1.59044219253871e-031 -1.0
outer loop
vertex 4.56628329051707 -5.178644332957 3.5
vertex 4.48109785623975 -1.49556492679109 3.5
vertex 5.68700263072714 -0.996062814267945 3.5
endloop
endfacet
facet normal -1.85551589129516e-031 -1.59044219253871e-031 -1.0
outer loop
vertex 4.56628329051707 -5.178644332957 3.5
vertex 5.68700263072714 -0.996062814267945 3.5
vertex 4.79130204232252 -4.61954340869531 3.5
endloop
endfacet
facet normal -1.85551589129516e-031 -1.59044219253871e-031 -1.0
outer loop
vertex 4.79130204232252 -4.61954340869531 3.5
vertex 5.68700263072714 -0.996062814267945 3.5
vertex 5.14358376724892 -4.13053945323357 3.5
endloop
endfacet
facet normal -1.85551589129516e-031 -1.59044219253871e-031 -1.0
outer loop
vertex 5.14358376724892 -4.13053945323357 3.5
vertex 5.68700263072714 -0.996062814267945 3.5
vertex 5.60265513193551 -3.74005159900614 3.5
endloop
endfacet
facet normal -1.85551589129516e-031 -1.59044219253871e-031 -1.0
outer loop
vertex 5.60265513193551 -3.74005159900614 3.5
vertex 5.68700263072714 -0.996062814267945 3.5
vertex 6.14183657732322 -3.47077358073513 3.5
endloop
endfacet
facet normal -1.85551589129516e-031 -1.59044219253871e-031 -1.0
outer loop
vertex 6.14183657732322 -3.47077358073513 3.5
vertex 5.68700263072714 -0.996062814267945 3.5
vertex 6.98109785623975 -0.825691945713286 3.5
endloop
endfacet
facet normal -1.85551589129516e-031 -1.59044219253871e-031 -1.0
outer loop
vertex 6.14183657732322 -3.47077358073513 3.5
vertex 6.98109785623975 -0.825691945713286 3.5
vertex 6.72979283765094 -3.33835485805667 3.5
endloop
endfacet
facet normal -1.85551589129516e-031 -1.59044219253871e-031 -1.0
outer loop
vertex 6.72979283765094 -3.33835485805667 3.5
vertex 6.98109785623975 -0.825691945713286 3.5
vertex 7.33235403220246 -3.35049112581037 3.5
endloop
endfacet
facet normal -1.85551589129516e-031 -1.59044219253871e-031 -1.0
outer loop
vertex 7.33235403220246 -3.35049112581037 3.5
vertex 6.98109785623975 -0.825691945713286 3.5
vertex 8.27519308175235 -0.996062814267945 3.5
endloop
endfacet
facet normal -1.85551589129516e-031 -1.59044219253871e-031 -1.0
outer loop
vertex 7.33235403220246 -3.35049112581037 3.5
vertex 8.27519308175235 -0.996062814267945 3.5
vertex 7.91450149457128 -3.50647706822792 3.5
endloop
endfacet
facet normal -1.85551589129516e-031 -1.59044219253871e-031 -1.0
outer loop
vertex 7.91450149457128 -3.50647706822792 3.5
vertex 8.27519308175235 -0.996062814267945 3.5
vertex 8.44240293026446 -3.79724734932184 3.5
endloop
endfacet
facet normal -1.85551589129516e-031 -1.59044219253871e-031 -1.0
outer loop
vertex 8.44240293026446 -3.79724734932184 3.5
vertex 8.27519308175235 -0.996062814267945 3.5
vertex 9.48109785623975 -1.49556492679109 3.5
endloop
endfacet
facet normal -1.85551589129516e-031 -1.59044219253871e-031 -1.0
outer loop
vertex 8.44240293026446 -3.79724734932184 3.5
vertex 9.48109785623975 -1.49556492679109 3.5
vertex 8.88537862668313 -4.20590345726192 3.5
endloop
endfacet
facet normal -1.85551589129516e-031 -1.59044219253871e-031 -1.0
outer loop
vertex 8.88537862668313 -4.20590345726192 3.5
vertex 9.48109785623975 -1.49556492679109 3.5
vertex 9.21768444650261 -4.7086957844592 3.5
endloop
endfacet
facet normal -1.85551589129516e-031 -1.59044219253871e-031 -1.0
outer loop
vertex 9.21768444650261 -4.7086957844592 3.5
vertex 9.48109785623975 -1.49556492679109 3.5
vertex 9.42000798335748 -5.27640386843272 3.5
endloop
endfacet
facet normal -1.85551589129516e-031 -1.59044219253871e-031 -1.0
outer loop
vertex 9.42000798335748 -5.27640386843272 3.5
vertex 9.48109785623975 -1.49556492679109 3.5
vertex 9.48059092870187 -5.87603457887687 3.5
endloop
endfacet
facet normal -1.85551589129516e-031 -1.59044219253871e-031 -1.0
outer loop
vertex 4.48109785623975 -10.1558189646355 3.5
vertex 4.54218772912202 -6.37498002299384 3.5
vertex 5.68700263072715 -10.6553210771586 3.5
endloop
endfacet
facet normal -1.85551589129516e-031 -1.59044219253871e-031 -1.0
outer loop
vertex 4.54218772912202 -6.37498002299384 3.5
vertex 4.48109785623975 -10.1558189646355 3.5
vertex 4.48160478377762 -5.7753493125497 3.5
endloop
endfacet
facet normal -1.85551589129516e-031 -1.59044219253871e-031 -1.0
outer loop
vertex 5.68700263072715 -10.6553210771586 3.5
vertex 4.54218772912202 -6.37498002299384 3.5
vertex 4.74451126597689 -6.94268810696736 3.5
endloop
endfacet
facet normal -1.85551589129516e-031 -1.59044219253871e-031 -1.0
outer loop
vertex 5.68700263072715 -10.6553210771586 3.5
vertex 4.74451126597689 -6.94268810696736 3.5
vertex 5.07681708579636 -7.44548043416464 3.5
endloop
endfacet
facet normal -1.85551589129516e-031 -1.59044219253871e-031 -1.0
outer loop
vertex 5.68700263072715 -10.6553210771586 3.5
vertex 5.07681708579636 -7.44548043416464 3.5
vertex 5.51979278221504 -7.85413654210473 3.5
endloop
endfacet
facet normal -1.85551589129516e-031 -1.59044219253871e-031 -1.0
outer loop
vertex 5.68700263072715 -10.6553210771586 3.5
vertex 5.51979278221504 -7.85413654210473 3.5
vertex 6.04769421790821 -8.14490682319865 3.5
endloop
endfacet
facet normal -1.85551589129516e-031 -1.59044219253871e-031 -1.0
outer loop
vertex 5.68700263072715 -10.6553210771586 3.5
vertex 6.04769421790821 -8.14490682319865 3.5
vertex 6.98109785623975 -10.8256919457133 3.5
endloop
endfacet
facet normal -1.85551589129516e-031 -1.59044219253871e-031 -1.0
outer loop
vertex 6.98109785623975 -10.8256919457133 3.5
vertex 6.04769421790821 -8.14490682319865 3.5
vertex 6.62984168027703 -8.3008927656162 3.5
endloop
endfacet
facet normal -1.85551589129516e-031 -1.59044219253871e-031 -1.0
outer loop
vertex 6.98109785623975 -10.8256919457133 3.5
vertex 6.62984168027703 -8.3008927656162 3.5
vertex 7.23240287482856 -8.3130290333699 3.5
endloop
endfacet
facet normal -1.85551589129516e-031 -1.59044219253871e-031 -1.0
outer loop
vertex 6.98109785623975 -10.8256919457133 3.5
vertex 7.23240287482856 -8.3130290333699 3.5
vertex 8.27519308175236 -10.6553210771586 3.5
endloop
endfacet
facet normal -1.85551589129516e-031 -1.59044219253871e-031 -1.0
outer loop
vertex 8.27519308175236 -10.6553210771586 3.5
vertex 7.23240287482856 -8.3130290333699 3.5
vertex 7.82035913515628 -8.18061031069144 3.5
endloop
endfacet
facet normal -1.85551589129516e-031 -1.59044219253871e-031 -1.0
outer loop
vertex 8.27519308175236 -10.6553210771586 3.5
vertex 7.82035913515628 -8.18061031069144 3.5
vertex 8.359540580544 -7.91133229242043 3.5
endloop
endfacet
facet normal -1.85551589129516e-031 -1.59044219253871e-031 -1.0
outer loop
vertex 8.27519308175236 -10.6553210771586 3.5
vertex 8.359540580544 -7.91133229242043 3.5
vertex 9.48109785623975 -10.1558189646355 3.5
endloop
endfacet
facet normal -1.85551589129516e-031 -1.59044219253871e-031 -1.0
outer loop
vertex 9.48109785623975 -10.1558189646355 3.5
vertex 8.359540580544 -7.91133229242043 3.5
vertex 8.81861194523058 -7.520844438193 3.5
endloop
endfacet
facet normal -1.85551589129516e-031 -1.59044219253871e-031 -1.0
outer loop
vertex 9.48109785623975 -10.1558189646355 3.5
vertex 8.81861194523058 -7.520844438193 3.5
vertex 9.17089367015698 -7.03184048273125 3.5
endloop
endfacet
facet normal -1.85551589129516e-031 -1.59044219253871e-031 -1.0
outer loop
vertex 9.48109785623975 -10.1558189646355 3.5
vertex 9.17089367015698 -7.03184048273125 3.5
vertex 9.39591242196242 -6.47273955846957 3.5
endloop
endfacet
facet normal -1.85551589129516e-031 -1.59044219253871e-031 -1.0
outer loop
vertex 9.48109785623975 -10.1558189646355 3.5
vertex 9.39591242196242 -6.47273955846957 3.5
vertex 9.48059092870187 -5.87603457887687 3.5
endloop
endfacet
facet normal -1.85551589129516e-031 -1.59044219253871e-031 -1.0
outer loop
vertex 9.48109785623975 -10.1558189646355 3.5
vertex 9.48059092870187 -5.87603457887687 3.5
vertex 9.48109785623975 -1.49556492679109 3.5
endloop
endfacet
facet normal -1.85551589129516e-031 -1.59044219253871e-031 -1.0
outer loop
vertex 9.48109785623975 -10.1558189646355 3.5
vertex 9.48109785623975 -1.49556492679109 3.5
vertex 10.5166317621725 -2.29015803978055 3.5
endloop
endfacet
facet normal -1.85551589129516e-031 -1.59044219253871e-031 -1.0
outer loop
vertex 9.48109785623975 -10.1558189646355 3.5
vertex 10.5166317621725 -2.29015803978055 3.5
vertex 10.5166317621725 -9.36122585164602 3.5
endloop
endfacet
facet normal -1.85551589129516e-031 -1.59044219253871e-031 -1.0
outer loop
vertex 10.5166317621725 -9.36122585164602 3.5
vertex 10.5166317621725 -2.29015803978055 3.5
vertex 11.3112248751619 -3.32569194571328 3.5
endloop
endfacet
facet normal -1.85551589129516e-031 -1.59044219253871e-031 -1.0
outer loop
vertex 10.5166317621725 -9.36122585164602 3.5
vertex 11.3112248751619 -3.32569194571328 3.5
vertex 11.3112248751619 -8.32569194571328 3.5
endloop
endfacet
facet normal -1.85551589129516e-031 -1.59044219253871e-031 -1.0
outer loop
vertex 11.3112248751619 -8.32569194571328 3.5
vertex 11.3112248751619 -3.32569194571328 3.5
vertex 11.8107269876851 -4.53159672020068 3.5
endloop
endfacet
facet normal -1.85551589129516e-031 -1.59044219253871e-031 -1.0
outer loop
vertex 11.3112248751619 -8.32569194571328 3.5
vertex 11.8107269876851 -4.53159672020068 3.5
vertex 11.8107269876851 -7.11978717122589 3.5
endloop
endfacet
facet normal -1.85551589129516e-031 -1.59044219253871e-031 -1.0
outer loop
vertex 11.8107269876851 -7.11978717122589 3.5
vertex 11.8107269876851 -4.53159672020068 3.5
vertex 11.9810978562397 -5.82569194571329 3.5
endloop
endfacet
facet normal 0.140502470385083 0.990080327961165 2.32943756966973e-017
outer loop
vertex 6.62984168027704 -8.3008927656162 8.0
vertex 7.23240287482856 -8.3130290333699 3.5
vertex 6.62984168027703 -8.3008927656162 3.5
endloop
endfacet
facet normal -0.100522007435526 0.994934835062645 1.52379686326065e-017
outer loop
vertex 7.23240287482856 -8.3130290333699 3.5
vertex 6.62984168027704 -8.3008927656162 8.0
vertex 7.23240287482856 -8.3130290333699 8.0
endloop
endfacet
facet normal -0.100522007435526 0.994934835062645 1.52379686326065e-017
outer loop
vertex 7.23240287482856 -8.3130290333699 8.0
vertex 7.82035913515628 -8.18061031069144 3.5
vertex 7.23240287482856 -8.3130290333699 3.5
endloop
endfacet
facet normal -0.335704511566613 0.941967345991262 1.68849157137411e-017
outer loop
vertex 7.82035913515628 -8.18061031069144 3.5
vertex 7.23240287482856 -8.3130290333699 8.0
vertex 7.82035913515628 -8.18061031069144 8.0
endloop
endfacet
facet normal -0.335704511566613 0.941967345991262 1.68849157137411e-017
outer loop
vertex 7.82035913515628 -8.18061031069144 8.0
vertex 8.359540580544 -7.91133229242043 3.5
vertex 7.82035913515628 -8.18061031069144 3.5
endloop
endfacet
facet normal -0.5513770897217 0.834256138682856 4.10770409976956e-017
outer loop
vertex 8.359540580544 -7.91133229242043 3.5
vertex 7.82035913515628 -8.18061031069144 8.0
vertex 8.359540580544 -7.91133229242043 8.0
endloop
endfacet
facet normal -0.5513770897217 0.834256138682856 4.10770409976956e-017
outer loop
vertex 8.359540580544 -7.91133229242043 8.0
vertex 8.81861194523058 -7.520844438193 3.5
vertex 8.359540580544 -7.91133229242043 3.5
endloop
endfacet
facet normal -0.735005635596335 0.678060996991884 -6.87862451570402e-019
outer loop
vertex 8.81861194523058 -7.520844438193 3.5
vertex 8.359540580544 -7.91133229242043 8.0
vertex 8.81861194523058 -7.520844438193 8.0
endloop
endfacet
facet normal -0.875918325566892 0.482459414807186 -1.95783205899777e-017
outer loop
vertex 9.17089367015698 -7.03184048273125 8.0
vertex 8.81861194523058 -7.520844438193 3.5
vertex 8.81861194523058 -7.520844438193 8.0
endloop
endfacet
facet normal -0.735005635596335 0.678060996991884 -6.87862451570402e-019
outer loop
vertex 8.81861194523058 -7.520844438193 3.5
vertex 9.17089367015698 -7.03184048273125 8.0
vertex 9.17089367015698 -7.03184048273125 3.5
endloop
endfacet
facet normal -0.96592582628907 0.258819045102513 1.69514268086039e-018
outer loop
vertex 9.39591242196242 -6.47273955846957 8.0
vertex 9.17089367015698 -7.03184048273125 3.5
vertex 9.17089367015698 -7.03184048273125 8.0
endloop
endfacet
facet normal -0.875918325566892 0.482459414807186 -1.95783205899777e-017
outer loop
vertex 9.17089367015698 -7.03184048273125 3.5
vertex 9.39591242196242 -6.47273955846957 8.0
vertex 9.39591242196242 -6.47273955846957 3.5
endloop
endfacet
facet normal -0.99979722898485 0.0201370532654319 -2.27291538278169e-017
outer loop
vertex 9.48059092870187 -5.87603457887687 8.0
vertex 9.39591242196242 -6.47273955846957 3.5
vertex 9.39591242196242 -6.47273955846957 8.0
endloop
endfacet
facet normal -0.96592582628907 0.258819045102513 1.69514268086039e-018
outer loop
vertex 9.39591242196242 -6.47273955846957 3.5
vertex 9.48059092870187 -5.87603457887687 8.0
vertex 9.48059092870187 -5.87603457887687 3.5
endloop
endfacet
facet normal -0.975564050847092 -0.219715230912224 -6.64642587851446e-017
outer loop
vertex 9.42000798335748 -5.27640386843272 8.0
vertex 9.48059092870187 -5.87603457887687 3.5
vertex 9.48059092870187 -5.87603457887687 8.0
endloop
endfacet
facet normal -0.99979722898485 0.0201370532654319 -2.27291538278169e-017
outer loop
vertex 9.48059092870187 -5.87603457887687 3.5
vertex 9.42000798335748 -5.27640386843272 8.0
vertex 9.42000798335748 -5.27640386843272 3.5
endloop
endfacet
facet normal -0.975564050847092 -0.219715230912224 -6.64642587851446e-017
outer loop
vertex 9.42000798335748 -5.27640386843272 8.0
vertex 9.21768444650261 -4.7086957844592 3.5
vertex 9.42000798335748 -5.27640386843272 3.5
endloop
endfacet
facet normal -0.894634636105144 -0.446798464501632 -4.20399622764673e-017
outer loop
vertex 9.21768444650261 -4.7086957844592 3.5
vertex 9.42000798335748 -5.27640386843272 8.0
vertex 9.21768444650261 -4.7086957844592 8.0
endloop
endfacet
facet normal -0.761712308177354 -0.647915395380544 9.36039257411528e-018
outer loop
vertex 8.88537862668313 -4.20590345726192 8.0
vertex 9.21768444650261 -4.7086957844592 3.5
vertex 9.21768444650261 -4.7086957844592 8.0
endloop
endfacet
facet normal -0.894634636105144 -0.446798464501632 -4.20399622764673e-017
outer loop
vertex 9.21768444650261 -4.7086957844592 3.5
vertex 8.88537862668313 -4.20590345726192 8.0
vertex 8.88537862668313 -4.20590345726192 3.5
endloop
endfacet
facet normal -0.761712308177354 -0.647915395380544 9.36039257411528e-018
outer loop
vertex 8.88537862668313 -4.20590345726192 8.0
vertex 8.44240293026446 -3.79724734932184 3.5
vertex 8.88537862668313 -4.20590345726192 3.5
endloop
endfacet
facet normal -0.584522029609883 -0.811377838556577 7.963235842968e-018
outer loop
vertex 8.44240293026446 -3.79724734932184 3.5
vertex 8.88537862668313 -4.20590345726192 8.0
vertex 8.44240293026446 -3.79724734932184 8.0
endloop
endfacet
facet normal -0.584522029609883 -0.811377838556577 7.96323584296799e-018
outer loop
vertex 8.44240293026446 -3.79724734932184 8.0
vertex 7.91450149457128 -3.50647706822792 3.5
vertex 8.44240293026446 -3.79724734932184 3.5
endloop
endfacet
facet normal -0.373361455332614 -0.927685950994145 -1.32127746923099e-017
outer loop
vertex 7.91450149457128 -3.50647706822792 3.5
vertex 8.44240293026446 -3.79724734932184 8.0
vertex 7.91450149457128 -3.50647706822792 8.0
endloop
endfacet
facet normal -0.373361455332614 -0.927685950994145 -1.32127746923099e-017
outer loop
vertex 7.91450149457128 -3.50647706822792 8.0
vertex 7.33235403220246 -3.35049112581037 3.5
vertex 7.91450149457128 -3.50647706822792 3.5
endloop
endfacet
facet normal -0.140502470385085 -0.990080327961165 -2.45524085723185e-017
outer loop
vertex 7.33235403220246 -3.35049112581037 3.5
vertex 7.91450149457128 -3.50647706822792 8.0
vertex 7.33235403220246 -3.35049112581037 8.0
endloop
endfacet
facet normal -0.140502470385085 -0.990080327961165 -2.45524085723185e-017
outer loop
vertex 7.33235403220246 -3.35049112581037 8.0
vertex 6.72979283765094 -3.33835485805667 3.5
vertex 7.33235403220246 -3.35049112581037 3.5
endloop
endfacet
facet normal 0.100522007435524 -0.994934835062645 -1.11216025311439e-017
outer loop
vertex 6.72979283765094 -3.33835485805667 3.5
vertex 7.33235403220246 -3.35049112581037 8.0
vertex 6.72979283765094 -3.33835485805667 8.0
endloop
endfacet
facet normal 0.100522007435524 -0.994934835062645 -1.11216025311439e-017
outer loop
vertex 6.72979283765094 -3.33835485805667 8.0
vertex 6.14183657732322 -3.47077358073513 3.5
vertex 6.72979283765094 -3.33835485805667 3.5
endloop
endfacet
facet normal 0.335704511566611 -0.941967345991263 1.87675654922794e-018
outer loop
vertex 6.14183657732322 -3.47077358073513 3.5
vertex 6.72979283765094 -3.33835485805667 8.0
vertex 6.14183657732322 -3.47077358073513 8.0
endloop
endfacet
facet normal 0.335704511566611 -0.941967345991263 1.87675654922794e-018
outer loop
vertex 6.14183657732322 -3.47077358073513 8.0
vertex 5.60265513193551 -3.74005159900614 3.5
vertex 6.14183657732322 -3.47077358073513 3.5
endloop
endfacet
facet normal 0.551377089721698 -0.834256138682857 -8.12864399994931e-018
outer loop
vertex 5.60265513193551 -3.74005159900614 3.5
vertex 6.14183657732322 -3.47077358073513 8.0
vertex 5.6026551319355 -3.74005159900614 8.0
endloop
endfacet
facet normal 0.551377089721698 -0.834256138682857 -8.12864399994931e-018
outer loop
vertex 5.6026551319355 -3.74005159900614 8.0
vertex 5.14358376724892 -4.13053945323357 3.5
vertex 5.60265513193551 -3.74005159900614 3.5
endloop
endfacet
facet normal 0.735005635596333 -0.678060996991886 -9.93169291839369e-018
outer loop
vertex 5.14358376724892 -4.13053945323357 3.5
vertex 5.6026551319355 -3.74005159900614 8.0
vertex 5.14358376724891 -4.13053945323357 8.0
endloop
endfacet
facet normal 0.875918325566891 -0.482459414807187 -4.67252302469785e-018
outer loop
vertex 4.79130204232252 -4.61954340869531 3.5
vertex 5.14358376724891 -4.13053945323357 8.0
vertex 4.79130204232252 -4.61954340869532 8.0
endloop
endfacet
facet normal 0.735005635596333 -0.678060996991886 -9.93169291839369e-018
outer loop
vertex 5.14358376724891 -4.13053945323357 8.0
vertex 4.79130204232252 -4.61954340869531 3.5
vertex 5.14358376724892 -4.13053945323357 3.5
endloop
endfacet
facet normal 0.96592582628907 -0.258819045102513 -1.49584377006551e-017
outer loop
vertex 4.56628329051707 -5.178644332957 3.5
vertex 4.79130204232252 -4.61954340869532 8.0
vertex 4.56628329051707 -5.17864433295701 8.0
endloop
endfacet
facet normal 0.875918325566891 -0.482459414807187 -4.67252302469785e-018
outer loop
vertex 4.79130204232252 -4.61954340869532 8.0
vertex 4.56628329051707 -5.178644332957 3.5
vertex 4.79130204232252 -4.61954340869531 3.5
endloop
endfacet
facet normal 0.99979722898485 -0.0201370532654324 -3.09894269296556e-017
outer loop
vertex 4.48160478377762 -5.7753493125497 3.5
vertex 4.56628329051707 -5.17864433295701 8.0
vertex 4.48160478377762 -5.77534931254971 8.0
endloop
endfacet
facet normal 0.96592582628907 -0.258819045102513 -1.49584377006552e-017
outer loop
vertex 4.56628329051707 -5.17864433295701 8.0
vertex 4.48160478377762 -5.7753493125497 3.5
vertex 4.56628329051707 -5.178644332957 3.5
endloop
endfacet
facet normal 0.975564050847092 0.219715230912224 -3.41256601107561e-017
outer loop
vertex 4.54218772912202 -6.37498002299384 3.5
vertex 4.48160478377762 -5.77534931254971 8.0
vertex 4.54218772912202 -6.37498002299385 8.0
endloop
endfacet
facet normal 0.99979722898485 -0.0201370532654319 -3.09894269296556e-017
outer loop
vertex 4.48160478377762 -5.77534931254971 8.0
vertex 4.54218772912202 -6.37498002299384 3.5
vertex 4.48160478377762 -5.7753493125497 3.5
endloop
endfacet
facet normal 0.894634636105144 0.446798464501632 -4.31471392909986e-017
outer loop
vertex 4.74451126597689 -6.94268810696736 3.5
vertex 4.54218772912202 -6.37498002299385 8.0
vertex 4.74451126597689 -6.94268810696737 8.0
endloop
endfacet
facet normal 0.975564050847092 0.219715230912225 -3.41256601107561e-017
outer loop
vertex 4.54218772912202 -6.37498002299385 8.0
vertex 4.74451126597689 -6.94268810696736 3.5
vertex 4.54218772912202 -6.37498002299384 3.5
endloop
endfacet
facet normal 0.761712308177354 0.647915395380545 -4.74294161873631e-017
outer loop
vertex 5.07681708579636 -7.44548043416464 3.5
vertex 4.74451126597689 -6.94268810696737 8.0
vertex 5.07681708579637 -7.44548043416465 8.0
endloop
endfacet
facet normal 0.894634636105144 0.446798464501633 -4.31471392909987e-017
outer loop
vertex 4.74451126597689 -6.94268810696737 8.0
vertex 5.07681708579636 -7.44548043416464 3.5
vertex 4.74451126597689 -6.94268810696736 3.5
endloop
endfacet
facet normal 0.761712308177353 0.647915395380545 -4.74294161873631e-017
outer loop
vertex 5.07681708579637 -7.44548043416465 8.0
vertex 5.51979278221504 -7.85413654210473 3.5
vertex 5.07681708579636 -7.44548043416464 3.5
endloop
endfacet
facet normal 0.584522029609882 0.811377838556578 -1.64082512647765e-017
outer loop
vertex 5.51979278221504 -7.85413654210473 3.5
vertex 5.07681708579637 -7.44548043416465 8.0
vertex 5.51979278221505 -7.85413654210473 8.0
endloop
endfacet
facet normal 0.584522029609882 0.811377838556578 -1.64082512647764e-017
outer loop
vertex 5.51979278221505 -7.85413654210473 8.0
vertex 6.04769421790821 -8.14490682319865 3.5
vertex 5.51979278221504 -7.85413654210473 3.5
endloop
endfacet
facet normal 0.373361455332614 0.927685950994146 5.59239385641784e-018
outer loop
vertex 6.04769421790821 -8.14490682319865 3.5
vertex 5.51979278221505 -7.85413654210473 8.0
vertex 6.04769421790822 -8.14490682319865 8.0
endloop
endfacet
facet normal 0.373361455332614 0.927685950994146 5.59239385641784e-018
outer loop
vertex 6.04769421790822 -8.14490682319865 8.0
vertex 6.62984168027703 -8.3008927656162 3.5
vertex 6.04769421790821 -8.14490682319865 3.5
endloop
endfacet
facet normal 0.140502470385084 0.990080327961165 2.32943756966973e-017
outer loop
vertex 6.62984168027703 -8.3008927656162 3.5
vertex 6.04769421790822 -8.14490682319865 8.0
vertex 6.62984168027704 -8.3008927656162 8.0
endloop
endfacet
endsolid upper-ball-bearing-adapter
