solid lower-bearing-clip
facet normal 0.141730322254415 0.989905306457976 0.0
outer loop
vertex 1.00123895024839 5.36859419547091 8.8
vertex 1.81223317392292 5.19292538975908 7.75490782700672e-015
vertex 1.00123895024839 5.36859419547091 7.75490782700672e-015
endloop
endfacet
facet normal 0.280599196171286 0.95982503150732 0.0
outer loop
vertex 1.81223317392292 5.19292538975908 7.75490782700672e-015
vertex 1.00123895024839 5.36859419547091 8.8
vertex 1.81223317392292 5.19292538975908 8.8
endloop
endfacet
facet normal 2.6428315177666e-016 5.34038200378647e-016 -1.0
outer loop
vertex -4.69115419105158 2.82195393637567 7.04991620636974e-016
vertex -10.9911541910516 0.0133249757955411 4.22994972382185e-015
vertex -10.9911541910516 2.82195393637567 7.04991620636974e-016
endloop
endfacet
facet normal 2.6428315177666e-016 5.34038200378647e-016 -1.0
outer loop
vertex -10.9911541910516 0.0133249757955411 4.22994972382185e-015
vertex -4.69115419105158 2.82195393637567 7.04991620636974e-016
vertex -3.82646613171739 0.0133249757955195 7.04991620636974e-016
endloop
endfacet
facet normal 2.6428315177666e-016 5.34038200378647e-016 -1.0
outer loop
vertex -3.82646613171739 0.0133249757955195 7.04991620636974e-016
vertex -4.69115419105158 2.82195393637567 7.04991620636974e-016
vertex -4.22646613171739 3.42754720575633 7.04991620636974e-016
endloop
endfacet
facet normal 2.6428315177666e-016 5.34038200378647e-016 -1.0
outer loop
vertex -3.82646613171739 0.0133249757955195 7.04991620636974e-016
vertex -4.22646613171739 3.42754720575633 7.04991620636974e-016
vertex -3.63780504267554 4.01239700047438 6.34492458573277e-015
endloop
endfacet
facet normal 2.6428315177666e-016 5.34038200378647e-016 -1.0
outer loop
vertex -3.82646613171739 0.0133249757955195 7.04991620636974e-016
vertex -3.63780504267554 4.01239700047438 6.34492458573277e-015
vertex -3.69016943687366 1.0486011562056 7.04991620636974e-016
endloop
endfacet
facet normal 2.6428315177666e-016 5.34038200378647e-016 -1.0
outer loop
vertex -3.69016943687366 1.0486011562056 7.04991620636974e-016
vertex -3.63780504267554 4.01239700047438 6.34492458573277e-015
vertex -3.29056774685514 2.01332497579552 7.04991620636974e-016
endloop
endfacet
facet normal 2.6428315177666e-016 5.34038200378647e-016 -1.0
outer loop
vertex -3.29056774685514 2.01332497579552 7.04991620636974e-016
vertex -3.63780504267554 4.01239700047438 6.34492458573277e-015
vertex -2.97219535705186 4.5079117898981 6.34492458573277e-015
endloop
endfacet
facet normal 2.6428315177666e-016 5.34038200378647e-016 -1.0
outer loop
vertex -3.29056774685514 2.01332497579552 7.04991620636974e-016
vertex -2.97219535705186 4.5079117898981 6.34492458573277e-015
vertex -2.65489325646358 2.84175210054171 7.04991620636974e-016
endloop
endfacet
facet normal 2.6428315177666e-016 5.34038200378647e-016 -1.0
outer loop
vertex -2.65489325646358 2.84175210054171 7.04991620636974e-016
vertex -2.97219535705186 4.5079117898981 6.34492458573277e-015
vertex -2.2430753264363 4.90408743413794 7.75490782700672e-015
endloop
endfacet
facet normal 2.6428315177666e-016 5.34038200378647e-016 -1.0
outer loop
vertex -2.65489325646358 2.84175210054171 7.04991620636974e-016
vertex -2.2430753264363 4.90408743413794 7.75490782700672e-015
vertex -1.82646613171739 3.47742659093328 7.04991620636974e-016
endloop
endfacet
facet normal 2.6428315177666e-016 5.34038200378647e-016 -1.0
outer loop
vertex -1.82646613171739 3.47742659093328 7.04991620636974e-016
vertex -2.2430753264363 4.90408743413794 7.75490782700672e-015
vertex -1.4651654373577 5.19292538975908 7.75490782700672e-015
endloop
endfacet
facet normal 2.6428315177666e-016 5.34038200378647e-016 -1.0
outer loop
vertex -1.82646613171739 3.47742659093328 7.04991620636974e-016
vertex -1.4651654373577 5.19292538975908 7.75490782700672e-015
vertex -0.861742312127469 3.87702828095179 7.04991620636974e-016
endloop
endfacet
facet normal 2.6428315177666e-016 5.34038200378647e-016 -1.0
outer loop
vertex -0.861742312127469 3.87702828095179 7.04991620636974e-016
vertex -1.4651654373577 5.19292538975908 7.75490782700672e-015
vertex -0.654171213683166 5.36859419547091 7.75490782700672e-015
endloop
endfacet
facet normal 2.6428315177666e-016 5.34038200378647e-016 -1.0
outer loop
vertex -0.861742312127469 3.87702828095179 7.04991620636974e-016
vertex -0.654171213683166 5.36859419547091 7.75490782700672e-015
vertex 0.173533868282611 4.01332497579552 7.04991620636974e-016
endloop
endfacet
facet normal 2.6428315177666e-016 5.34038200378647e-016 -1.0
outer loop
vertex 0.173533868282611 4.01332497579552 7.04991620636974e-016
vertex -0.654171213683166 5.36859419547091 7.75490782700672e-015
vertex 0.173533868282611 5.42754720575633 7.75490782700672e-015
endloop
endfacet
facet normal 2.6428315177666e-016 5.34038200378647e-016 -1.0
outer loop
vertex 0.173533868282611 4.01332497579552 7.04991620636974e-016
vertex 0.173533868282611 5.42754720575633 7.75490782700672e-015
vertex 1.00123895024839 5.36859419547091 7.75490782700672e-015
endloop
endfacet
facet normal 2.6428315177666e-016 5.34038200378647e-016 -1.0
outer loop
vertex 0.173533868282611 4.01332497579552 7.04991620636974e-016
vertex 1.00123895024839 5.36859419547091 7.75490782700672e-015
vertex 1.2088100486927 3.87702828095179 7.04991620636974e-016
endloop
endfacet
facet normal 2.6428315177666e-016 5.34038200378647e-016 -1.0
outer loop
vertex 1.2088100486927 3.87702828095179 7.04991620636974e-016
vertex 1.00123895024839 5.36859419547091 7.75490782700672e-015
vertex 1.81223317392292 5.19292538975908 7.75490782700672e-015
endloop
endfacet
facet normal 2.6428315177666e-016 5.34038200378647e-016 -1.0
outer loop
vertex 1.2088100486927 3.87702828095179 7.04991620636974e-016
vertex 1.81223317392292 5.19292538975908 7.75490782700672e-015
vertex 2.17353386828261 3.47742659093328 7.04991620636974e-016
endloop
endfacet
facet normal 2.6428315177666e-016 5.34038200378647e-016 -1.0
outer loop
vertex 2.17353386828261 3.47742659093328 7.04991620636974e-016
vertex 1.81223317392292 5.19292538975908 7.75490782700672e-015
vertex 2.59014306300153 4.90408743413794 7.75490782700672e-015
endloop
endfacet
facet normal 2.6428315177666e-016 5.34038200378647e-016 -1.0
outer loop
vertex 2.17353386828261 3.47742659093328 7.04991620636974e-016
vertex 2.59014306300153 4.90408743413794 7.75490782700672e-015
vertex 3.0019609930288 2.84175210054171 7.04991620636974e-016
endloop
endfacet
facet normal 2.6428315177666e-016 5.34038200378647e-016 -1.0
outer loop
vertex 3.0019609930288 2.84175210054171 7.04991620636974e-016
vertex 2.59014306300153 4.90408743413794 7.75490782700672e-015
vertex 3.31926309361708 4.5079117898981 7.75490782700672e-015
endloop
endfacet
facet normal 2.6428315177666e-016 5.34038200378647e-016 -1.0
outer loop
vertex 3.0019609930288 2.84175210054171 7.04991620636974e-016
vertex 3.31926309361708 4.5079117898981 7.75490782700672e-015
vertex 3.63763548342037 2.01332497579552 7.04991620636974e-016
endloop
endfacet
facet normal 2.6428315177666e-016 5.34038200378647e-016 -1.0
outer loop
vertex 3.63763548342037 2.01332497579552 7.04991620636974e-016
vertex 3.31926309361708 4.5079117898981 7.75490782700672e-015
vertex 3.98487277924076 4.01239700047438 6.34492458573277e-015
endloop
endfacet
facet normal 2.6428315177666e-016 5.34038200378647e-016 -1.0
outer loop
vertex 3.63763548342037 2.01332497579552 7.04991620636974e-016
vertex 3.98487277924076 4.01239700047438 6.34492458573277e-015
vertex 4.03723717343888 1.0486011562056 7.04991620636974e-016
endloop
endfacet
facet normal 2.6428315177666e-016 5.34038200378647e-016 -1.0
outer loop
vertex 4.03723717343888 1.0486011562056 7.04991620636974e-016
vertex 3.98487277924076 4.01239700047438 6.34492458573277e-015
vertex 4.57353386828261 3.42754720575633 7.04991620636974e-016
endloop
endfacet
facet normal 2.6428315177666e-016 5.34038200378647e-016 -1.0
outer loop
vertex 4.03723717343888 1.0486011562056 7.04991620636974e-016
vertex 4.57353386828261 3.42754720575633 7.04991620636974e-016
vertex 4.17353386828261 0.0133249757955138 7.04991620636974e-016
endloop
endfacet
facet normal 2.6428315177666e-016 5.34038200378647e-016 -1.0
outer loop
vertex 4.17353386828261 0.0133249757955138 7.04991620636974e-016
vertex 4.57353386828261 3.42754720575633 7.04991620636974e-016
vertex 5.0382219276168 2.82195393637568 7.04991620636974e-016
endloop
endfacet
facet normal 2.6428315177666e-016 5.34038200378647e-016 -1.0
outer loop
vertex 4.17353386828261 0.0133249757955138 7.04991620636974e-016
vertex 5.0382219276168 2.82195393637568 7.04991620636974e-016
vertex 11.7382219276168 0.0133249757955596 2.1743115757605e-014
endloop
endfacet
facet normal 2.6428315177666e-016 5.34038200378647e-016 -1.0
outer loop
vertex 11.7382219276168 0.0133249757955596 2.1743115757605e-014
vertex 5.0382219276168 2.82195393637568 7.04991620636974e-016
vertex 11.7382219276168 2.82195393637568 7.04991620636974e-016
endloop
endfacet
facet normal 0.707106781186548 -0.707106781186547 0.0
outer loop
vertex -2.65489325646358 2.84175210054171 7.04991620636974e-016
vertex -3.29056774685514 2.01332497579552 8.8
vertex -3.29056774685514 2.01332497579552 7.04991620636974e-016
endloop
endfacet
facet normal 0.866025403784439 -0.499999999999999 0.0
outer loop
vertex -3.29056774685514 2.01332497579552 8.8
vertex -2.65489325646358 2.84175210054171 7.04991620636974e-016
vertex -2.65489325646358 2.84175210054171 8.8
endloop
endfacet
facet normal 0.0 1.0 0.0
outer loop
vertex 0.173533868282611 5.42754720575633 8.8
vertex 1.00123895024839 5.36859419547091 7.75490782700672e-015
vertex 0.173533868282611 5.42754720575633 7.75490782700672e-015
endloop
endfacet
facet normal 0.141730322254415 0.989905306457976 0.0
outer loop
vertex 1.00123895024839 5.36859419547091 7.75490782700672e-015
vertex 0.173533868282611 5.42754720575633 8.8
vertex 1.00123895024839 5.36859419547091 8.8
endloop
endfacet
facet normal -0.866025403784439 -0.499999999999999 0.0
outer loop
vertex 3.63763548342037 2.01332497579552 8.8
vertex 4.03723717343888 1.0486011562056 7.04991620636974e-016
vertex 4.03723717343888 1.0486011562056 8.8
endloop
endfacet
facet normal -0.965925826289069 -0.258819045102519 0.0
outer loop
vertex 4.03723717343888 1.0486011562056 7.04991620636974e-016
vertex 3.63763548342037 2.01332497579552 8.8
vertex 3.63763548342037 2.01332497579552 7.04991620636974e-016
endloop
endfacet
facet normal 0.538652264612068 0.842528182216056 -9.05954059039671e-018
outer loop
vertex 3.31926309361708 4.5079117898981 7.75490782700672e-015
vertex 3.98487277924076 4.01239700047438 8.8
vertex 3.98487277924076 4.01239700047438 6.34492458573277e-015
endloop
endfacet
facet normal 0.652626525849 0.757679759369527 -9.10945092420777e-018
outer loop
vertex 3.98487277924076 4.01239700047438 8.8
vertex 3.31926309361708 4.5079117898981 7.75490782700672e-015
vertex 3.31926309361708 4.5079117898981 8.8
endloop
endfacet
facet normal -7.84505030304293e-017 -1.0 2.24887041715959e-016
outer loop
vertex -3.82646613171739 0.0133249757955195 7.04991620636974e-016
vertex -7.09115419105158 0.0219539363756779 2.60096189432334
vertex -10.9911541910516 0.0133249757955411 4.22994972382185e-015
endloop
endfacet
facet normal -7.84505030304293e-017 -1.0 2.24887041715959e-016
outer loop
vertex -7.09115419105158 0.0219539363756779 2.60096189432334
vertex -3.82646613171739 0.0133249757955195 7.04991620636974e-016
vertex -6.78049401927175 0.0219539363756779 2.83933982822018
endloop
endfacet
facet normal -7.84505030304293e-017 -1.0 2.24887041715959e-016
outer loop
vertex -6.78049401927175 0.0219539363756779 2.83933982822018
vertex -3.82646613171739 0.0133249757955195 7.04991620636974e-016
vertex -6.54211608537492 0.0219539363756779 3.15
endloop
endfacet
facet normal -7.84505030304293e-017 -1.0 2.24887041715959e-016
outer loop
vertex -6.54211608537492 0.0219539363756779 3.15
vertex -3.82646613171739 0.0133249757955195 7.04991620636974e-016
vertex -3.82646613171739 0.0133249757955195 8.8
endloop
endfacet
facet normal -7.84505030304293e-017 -1.0 2.24887041715959e-016
outer loop
vertex -10.9911541910516 0.0133249757955411 4.22994972382185e-015
vertex -7.09115419105158 0.0219539363756779 2.60096189432334
vertex -7.4529256233978 0.0219539363756779 2.4511112605664
endloop
endfacet
facet normal -7.84505030304293e-017 -1.0 2.24887041715959e-016
outer loop
vertex -10.9911541910516 0.0133249757955411 4.22994972382185e-015
vertex -7.4529256233978 0.0219539363756779 2.4511112605664
vertex -7.84115419105158 0.0219539363756779 2.4
endloop
endfacet
facet normal -7.84505030304293e-017 -1.0 2.24887041715959e-016
outer loop
vertex -6.54211608537492 0.0219539363756779 3.15
vertex -3.82646613171739 0.0133249757955195 8.8
vertex -6.39226545161798 0.0219539363756779 3.51177143234622
endloop
endfacet
facet normal -7.84505030304293e-017 -1.0 2.24887041715959e-016
outer loop
vertex -6.39226545161798 0.0219539363756779 3.51177143234622
vertex -3.82646613171739 0.0133249757955195 8.8
vertex -6.34115419105158 0.0219539363756779 3.9
endloop
endfacet
facet normal -7.84505030304293e-017 -1.0 2.24887041715959e-016
outer loop
vertex -6.34115419105158 0.0219539363756779 3.9
vertex -3.82646613171739 0.0133249757955195 8.8
vertex -6.39226545161798 0.0219539363756779 4.28822856765378
endloop
endfacet
facet normal -7.84505030304293e-017 -1.0 2.24887041715959e-016
outer loop
vertex -6.39226545161798 0.0219539363756779 4.28822856765378
vertex -3.82646613171739 0.0133249757955195 8.8
vertex -6.54211608537492 0.0219539363756779 4.65
endloop
endfacet
facet normal -7.84505030304293e-017 -1.0 2.24887041715959e-016
outer loop
vertex -6.54211608537492 0.0219539363756779 4.65
vertex -3.82646613171739 0.0133249757955195 8.8
vertex -6.78049401927175 0.0219539363756779 4.96066017177982
endloop
endfacet
facet normal -7.84505030304293e-017 -1.0 2.24887041715959e-016
outer loop
vertex -6.78049401927175 0.0219539363756779 4.96066017177982
vertex -3.82646613171739 0.0133249757955195 8.8
vertex -7.09115419105158 0.0219539363756779 5.19903810567666
endloop
endfacet
facet normal -7.84505030304293e-017 -1.0 2.24887041715959e-016
outer loop
vertex -7.09115419105158 0.0219539363756779 5.19903810567666
vertex -3.82646613171739 0.0133249757955195 8.8
vertex -7.4529256233978 0.0219539363756779 5.3488887394336
endloop
endfacet
facet normal -7.84505030304293e-017 -1.0 2.24887041715959e-016
outer loop
vertex -7.4529256233978 0.0219539363756779 5.3488887394336
vertex -3.82646613171739 0.0133249757955195 8.8
vertex -7.84115419105158 0.0219539363756779 5.4
endloop
endfacet
facet normal -7.84505030304293e-017 -1.0 2.24887041715959e-016
outer loop
vertex -7.84115419105158 0.0219539363756779 5.4
vertex -3.82646613171739 0.0133249757955195 8.8
vertex -5.44372405287769 0.0133249757955223 7.8
endloop
endfacet
facet normal -7.84505030304293e-017 -1.0 2.24887041715959e-016
outer loop
vertex -5.44372405287769 0.0133249757955223 7.8
vertex -3.82646613171739 0.0133249757955195 8.8
vertex -5.44372405287769 0.0133249757955223 8.8
endloop
endfacet
facet normal -7.84505030304293e-017 -1.0 2.24887041715959e-016
outer loop
vertex -10.9911541910516 0.0133249757955411 4.22994972382185e-015
vertex -9.29004293048518 0.0219539363756779 3.51177143234622
vertex -10.9911541910516 0.0133249757955432 7.8
endloop
endfacet
facet normal -7.84505030304293e-017 -1.0 2.24887041715959e-016
outer loop
vertex -9.29004293048518 0.0219539363756779 3.51177143234622
vertex -10.9911541910516 0.0133249757955411 4.22994972382185e-015
vertex -9.14019229672824 0.0219539363756779 3.15
endloop
endfacet
facet normal -7.84505030304293e-017 -1.0 2.24887041715959e-016
outer loop
vertex -9.14019229672824 0.0219539363756779 3.15
vertex -10.9911541910516 0.0133249757955411 4.22994972382185e-015
vertex -8.9018143628314 0.0219539363756779 2.83933982822018
endloop
endfacet
facet normal -7.84505030304293e-017 -1.0 2.24887041715959e-016
outer loop
vertex -8.9018143628314 0.0219539363756779 2.83933982822018
vertex -10.9911541910516 0.0133249757955411 4.22994972382185e-015
vertex -8.59115419105158 0.0219539363756779 2.60096189432334
endloop
endfacet
facet normal -7.84505030304293e-017 -1.0 2.24887041715959e-016
outer loop
vertex -8.59115419105158 0.0219539363756779 2.60096189432334
vertex -10.9911541910516 0.0133249757955411 4.22994972382185e-015
vertex -8.22938275870536 0.0219539363756779 2.4511112605664
endloop
endfacet
facet normal -7.84505030304293e-017 -1.0 2.24887041715959e-016
outer loop
vertex -8.22938275870536 0.0219539363756779 2.4511112605664
vertex -10.9911541910516 0.0133249757955411 4.22994972382185e-015
vertex -7.84115419105158 0.0219539363756779 2.4
endloop
endfacet
facet normal -7.84505030304293e-017 -1.0 2.24887041715959e-016
outer loop
vertex -10.9911541910516 0.0133249757955432 7.8
vertex -9.29004293048518 0.0219539363756779 3.51177143234622
vertex -9.34115419105158 0.0219539363756779 3.9
endloop
endfacet
facet normal -7.84505030304293e-017 -1.0 2.24887041715959e-016
outer loop
vertex -10.9911541910516 0.0133249757955432 7.8
vertex -9.34115419105158 0.0219539363756779 3.9
vertex -9.29004293048518 0.0219539363756779 4.28822856765378
endloop
endfacet
facet normal -7.84505030304293e-017 -1.0 2.24887041715959e-016
outer loop
vertex -10.9911541910516 0.0133249757955432 7.8
vertex -9.29004293048518 0.0219539363756779 4.28822856765378
vertex -9.14019229672824 0.0219539363756779 4.65
endloop
endfacet
facet normal -7.84505030304293e-017 -1.0 2.24887041715959e-016
outer loop
vertex -10.9911541910516 0.0133249757955432 7.8
vertex -9.14019229672824 0.0219539363756779 4.65
vertex -8.9018143628314 0.0219539363756779 4.96066017177982
endloop
endfacet
facet normal -7.84505030304293e-017 -1.0 2.24887041715959e-016
outer loop
vertex -10.9911541910516 0.0133249757955432 7.8
vertex -8.9018143628314 0.0219539363756779 4.96066017177982
vertex -8.59115419105158 0.0219539363756779 5.19903810567666
endloop
endfacet
facet normal -7.84505030304293e-017 -1.0 2.24887041715959e-016
outer loop
vertex -10.9911541910516 0.0133249757955432 7.8
vertex -8.59115419105158 0.0219539363756779 5.19903810567666
vertex -8.22938275870536 0.0219539363756779 5.3488887394336
endloop
endfacet
facet normal -7.84505030304293e-017 -1.0 2.24887041715959e-016
outer loop
vertex -10.9911541910516 0.0133249757955432 7.8
vertex -8.22938275870536 0.0219539363756779 5.3488887394336
vertex -7.84115419105158 0.0219539363756779 5.4
endloop
endfacet
facet normal -7.84505030304293e-017 -1.0 2.24887041715959e-016
outer loop
vertex -10.9911541910516 0.0133249757955432 7.8
vertex -7.84115419105158 0.0219539363756779 5.4
vertex -5.44372405287769 0.0133249757955223 7.8
endloop
endfacet
facet normal 0.258819045102521 -0.965925826289068 0.0
outer loop
vertex -0.861742312127469 3.87702828095179 8.8
vertex -1.82646613171739 3.47742659093328 7.04991620636974e-016
vertex -0.861742312127469 3.87702828095179 7.04991620636974e-016
endloop
endfacet
facet normal 0.499999999999999 -0.866025403784439 0.0
outer loop
vertex -1.82646613171739 3.47742659093328 7.04991620636974e-016
vertex -0.861742312127469 3.87702828095179 8.8
vertex -1.82646613171739 3.47742659093328 8.8
endloop
endfacet
facet normal -0.258819045102521 -0.965925826289068 0.0
outer loop
vertex 1.2088100486927 3.87702828095179 8.8
vertex 0.173533868282611 4.01332497579552 7.04991620636974e-016
vertex 1.2088100486927 3.87702828095179 7.04991620636974e-016
endloop
endfacet
facet normal 3.47533285930229e-016 -1.0 0.0
outer loop
vertex 0.173533868282611 4.01332497579552 7.04991620636974e-016
vertex 1.2088100486927 3.87702828095179 8.8
vertex 0.173533868282611 4.01332497579552 8.8
endloop
endfacet
facet normal 3.47533285930229e-016 -1.0 0.0
outer loop
vertex 0.173533868282611 4.01332497579552 8.8
vertex -0.861742312127469 3.87702828095179 7.04991620636974e-016
vertex 0.173533868282611 4.01332497579552 7.04991620636974e-016
endloop
endfacet
facet normal 0.258819045102521 -0.965925826289068 0.0
outer loop
vertex -0.861742312127469 3.87702828095179 7.04991620636974e-016
vertex 0.173533868282611 4.01332497579552 8.8
vertex -0.861742312127469 3.87702828095179 8.8
endloop
endfacet
facet normal 0.280599196171286 0.95982503150732 0.0
outer loop
vertex 1.81223317392292 5.19292538975908 8.8
vertex 2.59014306300153 4.90408743413794 7.75490782700672e-015
vertex 1.81223317392292 5.19292538975908 7.75490782700672e-015
endloop
endfacet
facet normal 0.413802944301183 0.910366477462605 4.37815686627939e-031
outer loop
vertex 2.59014306300153 4.90408743413794 7.75490782700672e-015
vertex 1.81223317392292 5.19292538975908 8.8
vertex 2.59014306300153 4.90408743413794 8.8
endloop
endfacet
facet normal -0.280599196171286 0.95982503150732 0.0
outer loop
vertex -1.4651654373577 5.19292538975908 8.8
vertex -0.654171213683166 5.36859419547091 7.75490782700672e-015
vertex -1.4651654373577 5.19292538975908 7.75490782700672e-015
endloop
endfacet
facet normal -0.141730322254415 0.989905306457976 0.0
outer loop
vertex -0.654171213683166 5.36859419547091 7.75490782700672e-015
vertex -1.4651654373577 5.19292538975908 8.8
vertex -0.654171213683166 5.36859419547091 8.8
endloop
endfacet
facet normal 0.413802944301183 0.910366477462605 4.37815686627939e-031
outer loop
vertex 2.59014306300153 4.90408743413794 8.8
vertex 3.31926309361708 4.5079117898981 7.75490782700672e-015
vertex 2.59014306300153 4.90408743413794 7.75490782700672e-015
endloop
endfacet
facet normal 0.538652264612068 0.842528182216056 -9.05954059039671e-018
outer loop
vertex 3.31926309361708 4.5079117898981 7.75490782700672e-015
vertex 2.59014306300153 4.90408743413794 8.8
vertex 3.31926309361708 4.5079117898981 8.8
endloop
endfacet
facet normal -0.965925826289069 -0.258819045102519 0.0
outer loop
vertex 4.03723717343888 1.0486011562056 8.8
vertex 4.17353386828261 0.0133249757955138 7.04991620636974e-016
vertex 4.17353386828261 0.0133249757955138 8.8
endloop
endfacet
facet normal -0.99144486137381 -0.130526192220051 0.0
outer loop
vertex 4.17353386828261 0.0133249757955138 7.04991620636974e-016
vertex 4.03723717343888 1.0486011562056 8.8
vertex 4.03723717343888 1.0486011562056 7.04991620636974e-016
endloop
endfacet
facet normal 0.652626525849 0.757679759369527 -9.10945092420774e-018
outer loop
vertex 3.98487277924076 4.01239700047438 6.34492458573277e-015
vertex 4.57353386828261 3.42754720575633 8.8
vertex 4.57353386828261 3.42754720575633 7.04991620636974e-016
endloop
endfacet
facet normal 0.704806543319911 0.709399560539361 -9.95684341789923e-020
outer loop
vertex 4.57353386828261 3.42754720575633 8.8
vertex 3.98487277924076 4.01239700047438 6.34492458573277e-015
vertex 3.98487277924076 4.01239700047438 8.8
endloop
endfacet
facet normal -0.707106781186547 -0.707106781186547 0.0
outer loop
vertex 3.0019609930288 2.84175210054171 8.8
vertex 3.63763548342037 2.01332497579552 7.04991620636974e-016
vertex 3.63763548342037 2.01332497579552 8.8
endloop
endfacet
facet normal -0.866025403784439 -0.499999999999999 0.0
outer loop
vertex 3.63763548342037 2.01332497579552 7.04991620636974e-016
vertex 3.0019609930288 2.84175210054171 8.8
vertex 3.0019609930288 2.84175210054171 7.04991620636974e-016
endloop
endfacet
facet normal -0.141730322254415 0.989905306457976 0.0
outer loop
vertex -0.654171213683166 5.36859419547091 8.8
vertex 0.173533868282611 5.42754720575633 7.75490782700672e-015
vertex -0.654171213683166 5.36859419547091 7.75490782700672e-015
endloop
endfacet
facet normal 0.0 1.0 0.0
outer loop
vertex 0.173533868282611 5.42754720575633 7.75490782700672e-015
vertex -0.654171213683166 5.36859419547091 8.8
vertex 0.173533868282611 5.42754720575633 8.8
endloop
endfacet
facet normal -0.707106781186547 -0.707106781186547 0.0
outer loop
vertex 3.0019609930288 2.84175210054171 8.8
vertex 2.17353386828261 3.47742659093328 7.04991620636974e-016
vertex 3.0019609930288 2.84175210054171 7.04991620636974e-016
endloop
endfacet
facet normal -0.5 -0.866025403784438 0.0
outer loop
vertex 2.17353386828261 3.47742659093328 7.04991620636974e-016
vertex 3.0019609930288 2.84175210054171 8.8
vertex 2.17353386828261 3.47742659093328 8.8
endloop
endfacet
facet normal -0.5 -0.866025403784438 0.0
outer loop
vertex 2.17353386828261 3.47742659093328 8.8
vertex 1.2088100486927 3.87702828095179 7.04991620636974e-016
vertex 2.17353386828261 3.47742659093328 7.04991620636974e-016
endloop
endfacet
facet normal -0.258819045102521 -0.965925826289068 0.0
outer loop
vertex 1.2088100486927 3.87702828095179 7.04991620636974e-016
vertex 2.17353386828261 3.47742659093328 8.8
vertex 1.2088100486927 3.87702828095179 8.8
endloop
endfacet
facet normal 0.866025403784439 -0.499999999999999 0.0
outer loop
vertex -3.29056774685514 2.01332497579552 7.04991620636974e-016
vertex -3.69016943687366 1.0486011562056 8.8
vertex -3.69016943687366 1.0486011562056 7.04991620636974e-016
endloop
endfacet
facet normal 0.965925826289068 -0.25881904510252 0.0
outer loop
vertex -3.69016943687366 1.0486011562056 8.8
vertex -3.29056774685514 2.01332497579552 7.04991620636974e-016
vertex -3.29056774685514 2.01332497579552 8.8
endloop
endfacet
facet normal 0.499999999999999 -0.866025403784439 0.0
outer loop
vertex -1.82646613171739 3.47742659093328 8.8
vertex -2.65489325646358 2.84175210054171 7.04991620636974e-016
vertex -1.82646613171739 3.47742659093328 7.04991620636974e-016
endloop
endfacet
facet normal 0.707106781186548 -0.707106781186547 0.0
outer loop
vertex -2.65489325646358 2.84175210054171 7.04991620636974e-016
vertex -1.82646613171739 3.47742659093328 8.8
vertex -2.65489325646358 2.84175210054171 8.8
endloop
endfacet
facet normal 1.09021363780582e-016 -1.0 7.78230496804755e-016
outer loop
vertex 11.7382219276168 0.0133249757955596 2.1743115757605e-014
vertex 8.57645049527058 0.0219539363756779 2.4511112605664
vertex 8.1882219276168 0.0219539363756779 2.4
endloop
endfacet
facet normal 1.09021363780582e-016 -1.0 7.78230496804755e-016
outer loop
vertex 8.57645049527058 0.0219539363756779 2.4511112605664
vertex 11.7382219276168 0.0133249757955596 2.1743115757605e-014
vertex 8.9382219276168 0.0219539363756779 2.60096189432334
endloop
endfacet
facet normal 1.09021363780582e-016 -1.0 7.78230496804755e-016
outer loop
vertex 8.9382219276168 0.0219539363756779 2.60096189432334
vertex 11.7382219276168 0.0133249757955596 2.1743115757605e-014
vertex 9.24888209939662 0.0219539363756779 2.83933982822018
endloop
endfacet
facet normal 1.09021363780582e-016 -1.0 7.78230496804755e-016
outer loop
vertex 9.24888209939662 0.0219539363756779 2.83933982822018
vertex 11.7382219276168 0.0133249757955596 2.1743115757605e-014
vertex 9.48726003329345 0.0219539363756779 3.15
endloop
endfacet
facet normal 1.09021363780582e-016 -1.0 7.78230496804755e-016
outer loop
vertex 9.48726003329345 0.0219539363756779 3.15
vertex 11.7382219276168 0.0133249757955596 2.1743115757605e-014
vertex 11.7382219276168 0.0133249757955614 7.80000000000003
endloop
endfacet
facet normal 1.09021363780582e-016 -1.0 7.78230496804755e-016
outer loop
vertex 9.48726003329345 0.0219539363756779 3.15
vertex 11.7382219276168 0.0133249757955614 7.80000000000003
vertex 9.6371106670504 0.0219539363756779 3.51177143234622
endloop
endfacet
facet normal 1.09021363780582e-016 -1.0 7.78230496804755e-016
outer loop
vertex 9.6371106670504 0.0219539363756779 3.51177143234622
vertex 11.7382219276168 0.0133249757955614 7.80000000000003
vertex 9.6882219276168 0.0219539363756779 3.9
endloop
endfacet
facet normal 1.09021363780582e-016 -1.0 7.78230496804755e-016
outer loop
vertex 9.6882219276168 0.0219539363756779 3.9
vertex 11.7382219276168 0.0133249757955614 7.80000000000003
vertex 9.6371106670504 0.0219539363756779 4.28822856765378
endloop
endfacet
facet normal 1.09021363780582e-016 -1.0 7.78230496804755e-016
outer loop
vertex 9.6371106670504 0.0219539363756779 4.28822856765378
vertex 11.7382219276168 0.0133249757955614 7.80000000000003
vertex 9.48726003329346 0.0219539363756779 4.65
endloop
endfacet
facet normal 1.09021363780582e-016 -1.0 7.78230496804755e-016
outer loop
vertex 9.48726003329346 0.0219539363756779 4.65
vertex 11.7382219276168 0.0133249757955614 7.80000000000003
vertex 9.24888209939662 0.0219539363756779 4.96066017177982
endloop
endfacet
facet normal 1.09021363780582e-016 -1.0 7.78230496804755e-016
outer loop
vertex 9.24888209939662 0.0219539363756779 4.96066017177982
vertex 11.7382219276168 0.0133249757955614 7.80000000000003
vertex 8.9382219276168 0.0219539363756779 5.19903810567666
endloop
endfacet
facet normal 1.09021363780582e-016 -1.0 7.78230496804755e-016
outer loop
vertex 8.9382219276168 0.0219539363756779 5.19903810567666
vertex 11.7382219276168 0.0133249757955614 7.80000000000003
vertex 8.57645049527058 0.0219539363756779 5.3488887394336
endloop
endfacet
facet normal 1.09021363780582e-016 -1.0 7.78230496804755e-016
outer loop
vertex 8.57645049527058 0.0219539363756779 5.3488887394336
vertex 11.7382219276168 0.0133249757955614 7.80000000000003
vertex 8.1882219276168 0.0219539363756779 5.4
endloop
endfacet
facet normal 1.09021363780582e-016 -1.0 7.78230496804755e-016
outer loop
vertex 8.1882219276168 0.0219539363756779 5.4
vertex 11.7382219276168 0.0133249757955614 7.80000000000003
vertex 5.79079178944292 0.0133249757955286 7.8
endloop
endfacet
facet normal 1.09021363780582e-016 -1.0 7.78230496804755e-016
outer loop
vertex 4.17353386828261 0.0133249757955138 7.04991620636974e-016
vertex 6.88918382194014 0.0219539363756779 3.15
vertex 4.17353386828261 0.0133249757955138 8.8
endloop
endfacet
facet normal 1.09021363780582e-016 -1.0 7.78230496804755e-016
outer loop
vertex 6.88918382194014 0.0219539363756779 3.15
vertex 4.17353386828261 0.0133249757955138 7.04991620636974e-016
vertex 7.12756175583697 0.0219539363756779 2.83933982822018
endloop
endfacet
facet normal 1.09021363780582e-016 -1.0 7.78230496804755e-016
outer loop
vertex 7.12756175583697 0.0219539363756779 2.83933982822018
vertex 4.17353386828261 0.0133249757955138 7.04991620636974e-016
vertex 7.4382219276168 0.0219539363756779 2.60096189432334
endloop
endfacet
facet normal 1.09021363780582e-016 -1.0 7.78230496804755e-016
outer loop
vertex 7.4382219276168 0.0219539363756779 2.60096189432334
vertex 4.17353386828261 0.0133249757955138 7.04991620636974e-016
vertex 11.7382219276168 0.0133249757955596 2.1743115757605e-014
endloop
endfacet
facet normal 1.09021363780582e-016 -1.0 7.78230496804755e-016
outer loop
vertex 7.4382219276168 0.0219539363756779 2.60096189432334
vertex 11.7382219276168 0.0133249757955596 2.1743115757605e-014
vertex 7.79999335996302 0.0219539363756779 2.4511112605664
endloop
endfacet
facet normal 1.09021363780582e-016 -1.0 7.78230496804755e-016
outer loop
vertex 7.79999335996302 0.0219539363756779 2.4511112605664
vertex 11.7382219276168 0.0133249757955596 2.1743115757605e-014
vertex 8.1882219276168 0.0219539363756779 2.4
endloop
endfacet
facet normal 1.09021363780582e-016 -1.0 7.78230496804755e-016
outer loop
vertex 4.17353386828261 0.0133249757955138 8.8
vertex 6.88918382194014 0.0219539363756779 3.15
vertex 6.7393331881832 0.0219539363756779 3.51177143234622
endloop
endfacet
facet normal 1.09021363780582e-016 -1.0 7.78230496804755e-016
outer loop
vertex 4.17353386828261 0.0133249757955138 8.8
vertex 6.7393331881832 0.0219539363756779 3.51177143234622
vertex 6.6882219276168 0.0219539363756779 3.9
endloop
endfacet
facet normal 1.09021363780582e-016 -1.0 7.78230496804755e-016
outer loop
vertex 4.17353386828261 0.0133249757955138 8.8
vertex 6.6882219276168 0.0219539363756779 3.9
vertex 6.7393331881832 0.0219539363756779 4.28822856765378
endloop
endfacet
facet normal 1.09021363780582e-016 -1.0 7.78230496804755e-016
outer loop
vertex 4.17353386828261 0.0133249757955138 8.8
vertex 6.7393331881832 0.0219539363756779 4.28822856765378
vertex 6.88918382194014 0.0219539363756779 4.65
endloop
endfacet
facet normal 1.09021363780582e-016 -1.0 7.78230496804755e-016
outer loop
vertex 4.17353386828261 0.0133249757955138 8.8
vertex 6.88918382194014 0.0219539363756779 4.65
vertex 7.12756175583697 0.0219539363756779 4.96066017177982
endloop
endfacet
facet normal 1.09021363780582e-016 -1.0 7.78230496804755e-016
outer loop
vertex 4.17353386828261 0.0133249757955138 8.8
vertex 7.12756175583697 0.0219539363756779 4.96066017177982
vertex 7.4382219276168 0.0219539363756779 5.19903810567666
endloop
endfacet
facet normal 1.09021363780582e-016 -1.0 7.78230496804755e-016
outer loop
vertex 4.17353386828261 0.0133249757955138 8.8
vertex 7.4382219276168 0.0219539363756779 5.19903810567666
vertex 7.79999335996302 0.0219539363756779 5.3488887394336
endloop
endfacet
facet normal 1.09021363780582e-016 -1.0 7.78230496804755e-016
outer loop
vertex 4.17353386828261 0.0133249757955138 8.8
vertex 7.79999335996302 0.0219539363756779 5.3488887394336
vertex 8.1882219276168 0.0219539363756779 5.4
endloop
endfacet
facet normal 1.09021363780582e-016 -1.0 7.78230496804755e-016
outer loop
vertex 4.17353386828261 0.0133249757955138 8.8
vertex 8.1882219276168 0.0219539363756779 5.4
vertex 5.79079178944292 0.0133249757955286 7.8
endloop
endfacet
facet normal 1.09021363780582e-016 -1.0 7.78230496804755e-016
outer loop
vertex 4.17353386828261 0.0133249757955138 8.8
vertex 5.79079178944292 0.0133249757955286 7.8
vertex 5.79079178944292 0.0133249757955286 8.8
endloop
endfacet
facet normal 0.965925826289068 -0.25881904510252 0.0
outer loop
vertex -3.69016943687366 1.0486011562056 7.04991620636974e-016
vertex -3.82646613171739 0.0133249757955195 8.8
vertex -3.82646613171739 0.0133249757955195 7.04991620636974e-016
endloop
endfacet
facet normal 0.99144486137381 -0.130526192220052 -0.0
outer loop
vertex -3.82646613171739 0.0133249757955195 8.8
vertex -3.69016943687366 1.0486011562056 7.04991620636974e-016
vertex -3.69016943687366 1.0486011562056 8.8
endloop
endfacet
facet normal -0.538652264612068 0.842528182216056 4.63422835500004e-018
outer loop
vertex -2.97219535705186 4.5079117898981 8.8
vertex -2.2430753264363 4.90408743413794 7.75490782700672e-015
vertex -2.97219535705186 4.5079117898981 6.34492458573277e-015
endloop
endfacet
facet normal -0.413802944301184 0.910366477462605 4.63422835500004e-018
outer loop
vertex -2.2430753264363 4.90408743413794 7.75490782700672e-015
vertex -2.97219535705186 4.5079117898981 8.8
vertex -2.2430753264363 4.90408743413794 8.8
endloop
endfacet
facet normal -0.413802944301184 0.910366477462605 4.63422835500003e-018
outer loop
vertex -2.2430753264363 4.90408743413794 8.8
vertex -1.4651654373577 5.19292538975908 7.75490782700672e-015
vertex -2.2430753264363 4.90408743413794 7.75490782700672e-015
endloop
endfacet
facet normal -0.280599196171286 0.95982503150732 0.0
outer loop
vertex -1.4651654373577 5.19292538975908 7.75490782700672e-015
vertex -2.2430753264363 4.90408743413794 8.8
vertex -1.4651654373577 5.19292538975908 8.8
endloop
endfacet
facet normal -0.499999999999998 0.0 0.86602540378444
outer loop
vertex -7.09115419105158 0.0219539363756779 2.60096189432334
vertex -7.4529256233978 2.82195393637568 2.4511112605664
vertex -7.4529256233978 0.0219539363756779 2.4511112605664
endloop
endfacet
facet normal -0.25881904510252 0.0 0.965925826289068
outer loop
vertex -7.4529256233978 2.82195393637568 2.4511112605664
vertex -7.09115419105158 0.0219539363756779 2.60096189432334
vertex -7.09115419105158 2.82195393637568 2.60096189432334
endloop
endfacet
facet normal -0.707106781186548 0.0 0.707106781186547
outer loop
vertex 9.24888209939662 0.0219539363756779 2.83933982822018
vertex 8.9382219276168 2.82195393637568 2.60096189432334
vertex 8.9382219276168 0.0219539363756779 2.60096189432334
endloop
endfacet
facet normal -0.499999999999997 0.0 0.86602540378444
outer loop
vertex 8.9382219276168 2.82195393637568 2.60096189432334
vertex 9.24888209939662 0.0219539363756779 2.83933982822018
vertex 9.24888209939662 2.82195393637568 2.83933982822018
endloop
endfacet
facet normal 0.86602540378444 7.40123182160456e-033 0.499999999999998
outer loop
vertex 6.88918382194014 2.82195393637568 3.15
vertex 6.7393331881832 0.0219539363756779 3.51177143234622
vertex 6.88918382194014 0.0219539363756779 3.15
endloop
endfacet
facet normal 0.965925826289069 7.40123182160457e-033 0.25881904510252
outer loop
vertex 6.7393331881832 0.0219539363756779 3.51177143234622
vertex 6.88918382194014 2.82195393637568 3.15
vertex 6.7393331881832 2.82195393637568 3.51177143234622
endloop
endfacet
facet normal 1.0 -6.74656513889457e-019 2.49511077078113e-016
outer loop
vertex -9.34115419105158 2.82195393637568 3.9
vertex -9.29004293048518 0.0219539363756779 4.28822856765378
vertex -9.34115419105158 0.0219539363756779 3.9
endloop
endfacet
facet normal 0.965925826289068 -6.74656513889472e-019 -0.25881904510252
outer loop
vertex -9.29004293048518 0.0219539363756779 4.28822856765378
vertex -9.34115419105158 2.82195393637568 3.9
vertex -9.29004293048518 2.82195393637568 4.28822856765378
endloop
endfacet
facet normal 0.707106781186549 0.0 0.707106781186546
outer loop
vertex 7.12756175583697 2.82195393637568 2.83933982822018
vertex 6.88918382194014 0.0219539363756779 3.15
vertex 7.12756175583697 0.0219539363756779 2.83933982822018
endloop
endfacet
facet normal 0.86602540378444 7.40123182160456e-033 0.499999999999998
outer loop
vertex 6.88918382194014 0.0219539363756779 3.15
vertex 7.12756175583697 2.82195393637568 2.83933982822018
vertex 6.88918382194014 2.82195393637568 3.15
endloop
endfacet
facet normal 0.866025403784438 -1.48024636432089e-032 -0.500000000000001
outer loop
vertex -9.14019229672824 2.82195393637568 4.65
vertex -8.9018143628314 0.0219539363756779 4.96066017177982
vertex -9.14019229672824 0.0219539363756779 4.65
endloop
endfacet
facet normal 0.707106781186546 -5.02443011043505e-019 -0.707106781186549
outer loop
vertex -8.9018143628314 0.0219539363756779 4.96066017177982
vertex -9.14019229672824 2.82195393637568 4.65
vertex -8.9018143628314 2.82195393637568 4.96066017177982
endloop
endfacet
facet normal 0.0 0.0 1.0
outer loop
vertex -7.84115419105158 0.0219539363756779 2.4
vertex -8.22938275870536 2.82195393637568 2.4511112605664
vertex -8.22938275870536 0.0219539363756779 2.4511112605664
endloop
endfacet
facet normal 0.25881904510252 0.0 0.965925826289068
outer loop
vertex -8.22938275870536 2.82195393637568 2.4511112605664
vertex -7.84115419105158 0.0219539363756779 2.4
vertex -7.84115419105158 2.82195393637568 2.4
endloop
endfacet
facet normal -0.965925826289069 -7.40123182160456e-033 0.258819045102519
outer loop
vertex 9.6371106670504 2.82195393637568 3.51177143234622
vertex 9.48726003329345 0.0219539363756779 3.15
vertex 9.6371106670504 0.0219539363756779 3.51177143234622
endloop
endfacet
facet normal -0.86602540378444 -7.40123182160455e-033 0.499999999999998
outer loop
vertex 9.48726003329345 0.0219539363756779 3.15
vertex 9.6371106670504 2.82195393637568 3.51177143234622
vertex 9.48726003329345 2.82195393637568 3.15
endloop
endfacet
facet normal -0.499999999999997 0.0 0.86602540378444
outer loop
vertex 8.9382219276168 0.0219539363756779 2.60096189432334
vertex 8.57645049527058 2.82195393637568 2.4511112605664
vertex 8.57645049527058 0.0219539363756779 2.4511112605664
endloop
endfacet
facet normal -0.258819045102521 0.0 0.965925826289068
outer loop
vertex 8.57645049527058 2.82195393637568 2.4511112605664
vertex 8.9382219276168 0.0219539363756779 2.60096189432334
vertex 8.9382219276168 2.82195393637568 2.60096189432334
endloop
endfacet
facet normal 0.965925826289068 -6.74656513889472e-019 -0.25881904510252
outer loop
vertex -9.29004293048518 2.82195393637568 4.28822856765378
vertex -9.14019229672824 0.0219539363756779 4.65
vertex -9.29004293048518 0.0219539363756779 4.28822856765378
endloop
endfacet
facet normal 0.866025403784438 -1.48024636432089e-032 -0.500000000000001
outer loop
vertex -9.14019229672824 0.0219539363756779 4.65
vertex -9.29004293048518 2.82195393637568 4.28822856765378
vertex -9.14019229672824 2.82195393637568 4.65
endloop
endfacet
facet normal 0.258819045102521 0.0 0.965925826289068
outer loop
vertex 7.79999335996302 0.0219539363756779 2.4511112605664
vertex 7.4382219276168 2.82195393637568 2.60096189432334
vertex 7.4382219276168 0.0219539363756779 2.60096189432334
endloop
endfacet
facet normal 0.499999999999997 0.0 0.86602540378444
outer loop
vertex 7.4382219276168 2.82195393637568 2.60096189432334
vertex 7.79999335996302 0.0219539363756779 2.4511112605664
vertex 7.79999335996302 2.82195393637568 2.4511112605664
endloop
endfacet
facet normal -0.96592582628907 -3.46537719747874e-032 -0.258819045102513
outer loop
vertex 9.6371106670504 2.82195393637568 4.28822856765378
vertex 9.6882219276168 0.0219539363756779 3.9
vertex 9.6371106670504 0.0219539363756779 4.28822856765378
endloop
endfacet
facet normal -1.0 -5.04884468837009e-033 -1.24755538539057e-016
outer loop
vertex 9.6882219276168 0.0219539363756779 3.9
vertex 9.6371106670504 2.82195393637568 4.28822856765378
vertex 9.6882219276168 2.82195393637568 3.9
endloop
endfacet
facet normal -0.965925826289068 6.74656513889488e-019 0.258819045102524
outer loop
vertex -6.39226545161798 2.82195393637568 3.51177143234622
vertex -6.54211608537492 0.0219539363756779 3.15
vertex -6.39226545161798 0.0219539363756779 3.51177143234622
endloop
endfacet
facet normal -0.86602540378444 -7.40123182160455e-033 0.499999999999998
outer loop
vertex -6.54211608537492 0.0219539363756779 3.15
vertex -6.39226545161798 2.82195393637568 3.51177143234622
vertex -6.54211608537492 2.82195393637568 3.15
endloop
endfacet
facet normal -0.86602540378444 -7.40123182160455e-033 0.499999999999998
outer loop
vertex -6.54211608537492 2.82195393637568 3.15
vertex -6.78049401927175 0.0219539363756779 2.83933982822018
vertex -6.54211608537492 0.0219539363756779 3.15
endloop
endfacet
facet normal -0.70710678118655 0.0 0.707106781186545
outer loop
vertex -6.78049401927175 0.0219539363756779 2.83933982822018
vertex -6.54211608537492 2.82195393637568 3.15
vertex -6.78049401927175 2.82195393637568 2.83933982822018
endloop
endfacet
facet normal -0.499999999999999 0.0 -0.866025403784439
outer loop
vertex -7.09115419105158 2.82195393637568 5.19903810567666
vertex -7.4529256233978 0.0219539363756779 5.3488887394336
vertex -7.4529256233978 2.82195393637568 5.3488887394336
endloop
endfacet
facet normal -0.258819045102521 0.0 -0.965925826289068
outer loop
vertex -7.4529256233978 0.0219539363756779 5.3488887394336
vertex -7.09115419105158 2.82195393637568 5.19903810567666
vertex -7.09115419105158 0.0219539363756779 5.19903810567666
endloop
endfacet
facet normal -0.707106781186548 2.35473191629906e-032 -0.707106781186547
outer loop
vertex -6.78049401927175 2.82195393637568 4.96066017177982
vertex -6.54211608537492 0.0219539363756779 4.65
vertex -6.78049401927175 0.0219539363756779 4.96066017177982
endloop
endfacet
facet normal -0.86602540378444 -6.05760812342728e-033 -0.499999999999997
outer loop
vertex -6.54211608537492 0.0219539363756779 4.65
vertex -6.78049401927175 2.82195393637568 4.96066017177982
vertex -6.54211608537492 2.82195393637568 4.65
endloop
endfacet
facet normal -0.258819045102521 0.0 0.965925826289068
outer loop
vertex 8.57645049527058 0.0219539363756779 2.4511112605664
vertex 8.1882219276168 2.82195393637568 2.4
vertex 8.1882219276168 0.0219539363756779 2.4
endloop
endfacet
facet normal 0.0 0.0 1.0
outer loop
vertex 8.1882219276168 2.82195393637568 2.4
vertex 8.57645049527058 0.0219539363756779 2.4511112605664
vertex 8.57645049527058 2.82195393637568 2.4511112605664
endloop
endfacet
facet normal -1.0 -5.04884468837009e-033 -1.24755538539057e-016
outer loop
vertex 9.6882219276168 2.82195393637568 3.9
vertex 9.6371106670504 0.0219539363756779 3.51177143234622
vertex 9.6882219276168 0.0219539363756779 3.9
endloop
endfacet
facet normal -0.965925826289069 -7.40123182160456e-033 0.258819045102519
outer loop
vertex 9.6371106670504 0.0219539363756779 3.51177143234622
vertex 9.6882219276168 2.82195393637568 3.9
vertex 9.6371106670504 2.82195393637568 3.51177143234622
endloop
endfacet
facet normal -0.965925826289068 3.69601083141139e-033 -0.258819045102521
outer loop
vertex -6.39226545161798 2.82195393637568 4.28822856765378
vertex -6.34115419105158 0.0219539363756779 3.9
vertex -6.39226545161798 0.0219539363756779 4.28822856765378
endloop
endfacet
facet normal -1.0 6.74656513889529e-019 -1.1584442864341e-016
outer loop
vertex -6.34115419105158 0.0219539363756779 3.9
vertex -6.39226545161798 2.82195393637568 4.28822856765378
vertex -6.34115419105158 2.82195393637568 3.9
endloop
endfacet
facet normal 0.0 0.0 1.0
outer loop
vertex 8.1882219276168 0.0219539363756779 2.4
vertex 7.79999335996302 2.82195393637568 2.4511112605664
vertex 7.79999335996302 0.0219539363756779 2.4511112605664
endloop
endfacet
facet normal 0.258819045102521 0.0 0.965925826289068
outer loop
vertex 7.79999335996302 2.82195393637568 2.4511112605664
vertex 8.1882219276168 0.0219539363756779 2.4
vertex 8.1882219276168 2.82195393637568 2.4
endloop
endfacet
facet normal 0.0 0.0 -1.0
outer loop
vertex -7.84115419105158 2.82195393637568 5.4
vertex -8.22938275870536 0.0219539363756779 5.3488887394336
vertex -8.22938275870536 2.82195393637568 5.3488887394336
endloop
endfacet
facet normal 0.258819045102521 0.0 -0.965925826289068
outer loop
vertex -8.22938275870536 0.0219539363756779 5.3488887394336
vertex -7.84115419105158 2.82195393637568 5.4
vertex -7.84115419105158 0.0219539363756779 5.4
endloop
endfacet
facet normal -0.86602540378444 -6.05760812342728e-033 -0.499999999999997
outer loop
vertex -6.54211608537492 2.82195393637568 4.65
vertex -6.39226545161798 0.0219539363756779 4.28822856765378
vertex -6.54211608537492 0.0219539363756779 4.65
endloop
endfacet
facet normal -0.965925826289068 3.69601083141139e-033 -0.258819045102521
outer loop
vertex -6.39226545161798 0.0219539363756779 4.28822856765378
vertex -6.54211608537492 2.82195393637568 4.65
vertex -6.39226545161798 2.82195393637568 4.28822856765378
endloop
endfacet
facet normal -0.707106781186548 2.35473191629906e-032 -0.707106781186547
outer loop
vertex -6.78049401927175 2.82195393637568 4.96066017177982
vertex -7.09115419105158 0.0219539363756779 5.19903810567666
vertex -7.09115419105158 2.82195393637568 5.19903810567666
endloop
endfacet
facet normal -0.499999999999999 0.0 -0.866025403784439
outer loop
vertex -7.09115419105158 0.0219539363756779 5.19903810567666
vertex -6.78049401927175 2.82195393637568 4.96066017177982
vertex -6.78049401927175 0.0219539363756779 4.96066017177982
endloop
endfacet
facet normal 0.499999999999999 -5.02443011043505e-019 -0.866025403784439
outer loop
vertex -8.59115419105158 2.82195393637568 5.19903810567666
vertex -8.9018143628314 0.0219539363756779 4.96066017177982
vertex -8.9018143628314 2.82195393637568 4.96066017177982
endloop
endfacet
facet normal 0.707106781186546 -5.02443011043505e-019 -0.707106781186549
outer loop
vertex -8.9018143628314 0.0219539363756779 4.96066017177982
vertex -8.59115419105158 2.82195393637568 5.19903810567666
vertex -8.59115419105158 0.0219539363756779 5.19903810567666
endloop
endfacet
facet normal -0.86602540378444 -7.40123182160455e-033 0.499999999999998
outer loop
vertex 9.48726003329345 2.82195393637568 3.15
vertex 9.24888209939662 0.0219539363756779 2.83933982822018
vertex 9.48726003329345 0.0219539363756779 3.15
endloop
endfacet
facet normal -0.707106781186548 0.0 0.707106781186547
outer loop
vertex 9.24888209939662 0.0219539363756779 2.83933982822018
vertex 9.48726003329345 2.82195393637568 3.15
vertex 9.24888209939662 2.82195393637568 2.83933982822018
endloop
endfacet
facet normal 0.499999999999997 0.0 0.86602540378444
outer loop
vertex 7.4382219276168 0.0219539363756779 2.60096189432334
vertex 7.12756175583697 2.82195393637568 2.83933982822018
vertex 7.12756175583697 0.0219539363756779 2.83933982822018
endloop
endfacet
facet normal 0.707106781186549 0.0 0.707106781186546
outer loop
vertex 7.12756175583697 2.82195393637568 2.83933982822018
vertex 7.4382219276168 0.0219539363756779 2.60096189432334
vertex 7.4382219276168 2.82195393637568 2.60096189432334
endloop
endfacet
facet normal 0.965925826289069 1.50346465757484e-031 0.25881904510252
outer loop
vertex -9.29004293048518 2.82195393637568 3.51177143234622
vertex -9.34115419105158 0.0219539363756779 3.9
vertex -9.29004293048518 0.0219539363756779 3.51177143234622
endloop
endfacet
facet normal 1.0 -6.74656513889457e-019 2.49511077078113e-016
outer loop
vertex -9.34115419105158 0.0219539363756779 3.9
vertex -9.29004293048518 2.82195393637568 3.51177143234622
vertex -9.34115419105158 2.82195393637568 3.9
endloop
endfacet
facet normal 0.258819045102521 0.0 -0.965925826289068
outer loop
vertex -8.22938275870536 2.82195393637568 5.3488887394336
vertex -8.59115419105158 0.0219539363756779 5.19903810567666
vertex -8.59115419105158 2.82195393637568 5.19903810567666
endloop
endfacet
facet normal 0.499999999999999 -5.02443011043505e-019 -0.866025403784439
outer loop
vertex -8.59115419105158 0.0219539363756779 5.19903810567666
vertex -8.22938275870536 2.82195393637568 5.3488887394336
vertex -8.22938275870536 0.0219539363756779 5.3488887394336
endloop
endfacet
facet normal -0.258819045102521 0.0 -0.965925826289068
outer loop
vertex -7.4529256233978 2.82195393637568 5.3488887394336
vertex -7.84115419105158 0.0219539363756779 5.4
vertex -7.84115419105158 2.82195393637568 5.4
endloop
endfacet
facet normal 0.0 0.0 -1.0
outer loop
vertex -7.84115419105158 0.0219539363756779 5.4
vertex -7.4529256233978 2.82195393637568 5.3488887394336
vertex -7.4529256233978 0.0219539363756779 5.3488887394336
endloop
endfacet
facet normal -1.0 6.74656513889529e-019 -1.1584442864341e-016
outer loop
vertex -6.34115419105158 2.82195393637568 3.9
vertex -6.39226545161798 0.0219539363756779 3.51177143234622
vertex -6.34115419105158 0.0219539363756779 3.9
endloop
endfacet
facet normal -0.965925826289068 6.74656513889488e-019 0.258819045102524
outer loop
vertex -6.39226545161798 0.0219539363756779 3.51177143234622
vertex -6.34115419105158 2.82195393637568 3.9
vertex -6.39226545161798 2.82195393637568 3.51177143234622
endloop
endfacet
facet normal 0.25881904510252 0.0 0.965925826289068
outer loop
vertex -8.22938275870536 0.0219539363756779 2.4511112605664
vertex -8.59115419105158 2.82195393637568 2.60096189432334
vertex -8.59115419105158 0.0219539363756779 2.60096189432334
endloop
endfacet
facet normal 0.500000000000001 0.0 0.866025403784438
outer loop
vertex -8.59115419105158 2.82195393637568 2.60096189432334
vertex -8.22938275870536 0.0219539363756779 2.4511112605664
vertex -8.22938275870536 2.82195393637568 2.4511112605664
endloop
endfacet
facet normal 0.500000000000001 0.0 0.866025403784438
outer loop
vertex -8.59115419105158 0.0219539363756779 2.60096189432334
vertex -8.9018143628314 2.82195393637568 2.83933982822018
vertex -8.9018143628314 0.0219539363756779 2.83933982822018
endloop
endfacet
facet normal 0.707106781186548 0.0 0.707106781186547
outer loop
vertex -8.9018143628314 2.82195393637568 2.83933982822018
vertex -8.59115419105158 0.0219539363756779 2.60096189432334
vertex -8.59115419105158 2.82195393637568 2.60096189432334
endloop
endfacet
facet normal -5.0881785406362e-032 1.0 8.45512046651044e-017
outer loop
vertex -10.9911541910516 2.82195393637567 7.04991620636974e-016
vertex -8.59115419105158 2.82195393637568 2.60096189432334
vertex -4.69115419105158 2.82195393637567 7.04991620636974e-016
endloop
endfacet
facet normal -5.0881785406362e-032 1.0 8.45512046651044e-017
outer loop
vertex -8.59115419105158 2.82195393637568 2.60096189432334
vertex -10.9911541910516 2.82195393637567 7.04991620636974e-016
vertex -8.9018143628314 2.82195393637568 2.83933982822018
endloop
endfacet
facet normal -5.0881785406362e-032 1.0 8.45512046651044e-017
outer loop
vertex -8.9018143628314 2.82195393637568 2.83933982822018
vertex -10.9911541910516 2.82195393637567 7.04991620636974e-016
vertex -9.14019229672824 2.82195393637568 3.15
endloop
endfacet
facet normal -5.0881785406362e-032 1.0 8.45512046651044e-017
outer loop
vertex -9.14019229672824 2.82195393637568 3.15
vertex -10.9911541910516 2.82195393637567 7.04991620636974e-016
vertex -9.29004293048518 2.82195393637568 3.51177143234622
endloop
endfacet
facet normal -5.0881785406362e-032 1.0 8.45512046651044e-017
outer loop
vertex -9.29004293048518 2.82195393637568 3.51177143234622
vertex -10.9911541910516 2.82195393637567 7.04991620636974e-016
vertex -10.9911541910516 2.82195393637567 7.8
endloop
endfacet
facet normal -5.0881785406362e-032 1.0 8.45512046651044e-017
outer loop
vertex -4.69115419105158 2.82195393637567 7.04991620636974e-016
vertex -8.59115419105158 2.82195393637568 2.60096189432334
vertex -8.22938275870536 2.82195393637568 2.4511112605664
endloop
endfacet
facet normal -5.0881785406362e-032 1.0 8.45512046651044e-017
outer loop
vertex -4.69115419105158 2.82195393637567 7.04991620636974e-016
vertex -8.22938275870536 2.82195393637568 2.4511112605664
vertex -7.84115419105158 2.82195393637568 2.4
endloop
endfacet
facet normal -5.0881785406362e-032 1.0 8.45512046651044e-017
outer loop
vertex -9.29004293048518 2.82195393637568 3.51177143234622
vertex -10.9911541910516 2.82195393637567 7.8
vertex -9.34115419105158 2.82195393637568 3.9
endloop
endfacet
facet normal -5.0881785406362e-032 1.0 8.45512046651044e-017
outer loop
vertex -9.34115419105158 2.82195393637568 3.9
vertex -10.9911541910516 2.82195393637567 7.8
vertex -9.29004293048518 2.82195393637568 4.28822856765378
endloop
endfacet
facet normal -5.0881785406362e-032 1.0 8.45512046651044e-017
outer loop
vertex -9.29004293048518 2.82195393637568 4.28822856765378
vertex -10.9911541910516 2.82195393637567 7.8
vertex -9.14019229672824 2.82195393637568 4.65
endloop
endfacet
facet normal -5.0881785406362e-032 1.0 8.45512046651044e-017
outer loop
vertex -9.14019229672824 2.82195393637568 4.65
vertex -10.9911541910516 2.82195393637567 7.8
vertex -8.9018143628314 2.82195393637568 4.96066017177982
endloop
endfacet
facet normal -5.0881785406362e-032 1.0 8.45512046651044e-017
outer loop
vertex -8.9018143628314 2.82195393637568 4.96066017177982
vertex -10.9911541910516 2.82195393637567 7.8
vertex -8.59115419105158 2.82195393637568 5.19903810567666
endloop
endfacet
facet normal -5.0881785406362e-032 1.0 8.45512046651044e-017
outer loop
vertex -8.59115419105158 2.82195393637568 5.19903810567666
vertex -10.9911541910516 2.82195393637567 7.8
vertex -8.22938275870536 2.82195393637568 5.3488887394336
endloop
endfacet
facet normal -5.0881785406362e-032 1.0 8.45512046651044e-017
outer loop
vertex -8.22938275870536 2.82195393637568 5.3488887394336
vertex -10.9911541910516 2.82195393637567 7.8
vertex -7.84115419105158 2.82195393637568 5.4
endloop
endfacet
facet normal -5.0881785406362e-032 1.0 8.45512046651044e-017
outer loop
vertex -4.69115419105158 2.82195393637567 7.04991620636974e-016
vertex -6.39226545161798 2.82195393637568 3.51177143234622
vertex -4.69115419105158 2.82195393637567 7.8
endloop
endfacet
facet normal -5.0881785406362e-032 1.0 8.45512046651044e-017
outer loop
vertex -6.39226545161798 2.82195393637568 3.51177143234622
vertex -4.69115419105158 2.82195393637567 7.04991620636974e-016
vertex -6.54211608537492 2.82195393637568 3.15
endloop
endfacet
facet normal -5.0881785406362e-032 1.0 8.45512046651044e-017
outer loop
vertex -6.54211608537492 2.82195393637568 3.15
vertex -4.69115419105158 2.82195393637567 7.04991620636974e-016
vertex -6.78049401927175 2.82195393637568 2.83933982822018
endloop
endfacet
facet normal -5.0881785406362e-032 1.0 8.45512046651044e-017
outer loop
vertex -6.78049401927175 2.82195393637568 2.83933982822018
vertex -4.69115419105158 2.82195393637567 7.04991620636974e-016
vertex -7.09115419105158 2.82195393637568 2.60096189432334
endloop
endfacet
facet normal -5.0881785406362e-032 1.0 8.45512046651044e-017
outer loop
vertex -7.09115419105158 2.82195393637568 2.60096189432334
vertex -4.69115419105158 2.82195393637567 7.04991620636974e-016
vertex -7.4529256233978 2.82195393637568 2.4511112605664
endloop
endfacet
facet normal -5.0881785406362e-032 1.0 8.45512046651044e-017
outer loop
vertex -7.4529256233978 2.82195393637568 2.4511112605664
vertex -4.69115419105158 2.82195393637567 7.04991620636974e-016
vertex -7.84115419105158 2.82195393637568 2.4
endloop
endfacet
facet normal -5.0881785406362e-032 1.0 8.45512046651044e-017
outer loop
vertex -4.69115419105158 2.82195393637567 7.8
vertex -6.39226545161798 2.82195393637568 3.51177143234622
vertex -6.34115419105158 2.82195393637568 3.9
endloop
endfacet
facet normal -5.0881785406362e-032 1.0 8.45512046651044e-017
outer loop
vertex -4.69115419105158 2.82195393637567 7.8
vertex -6.34115419105158 2.82195393637568 3.9
vertex -6.39226545161798 2.82195393637568 4.28822856765378
endloop
endfacet
facet normal -5.0881785406362e-032 1.0 8.45512046651044e-017
outer loop
vertex -4.69115419105158 2.82195393637567 7.8
vertex -6.39226545161798 2.82195393637568 4.28822856765378
vertex -6.54211608537492 2.82195393637568 4.65
endloop
endfacet
facet normal -5.0881785406362e-032 1.0 8.45512046651044e-017
outer loop
vertex -4.69115419105158 2.82195393637567 7.8
vertex -6.54211608537492 2.82195393637568 4.65
vertex -6.78049401927175 2.82195393637568 4.96066017177982
endloop
endfacet
facet normal -5.0881785406362e-032 1.0 8.45512046651044e-017
outer loop
vertex -4.69115419105158 2.82195393637567 7.8
vertex -6.78049401927175 2.82195393637568 4.96066017177982
vertex -7.09115419105158 2.82195393637568 5.19903810567666
endloop
endfacet
facet normal -5.0881785406362e-032 1.0 8.45512046651044e-017
outer loop
vertex -4.69115419105158 2.82195393637567 7.8
vertex -7.09115419105158 2.82195393637568 5.19903810567666
vertex -7.4529256233978 2.82195393637568 5.3488887394336
endloop
endfacet
facet normal -5.0881785406362e-032 1.0 8.45512046651044e-017
outer loop
vertex -4.69115419105158 2.82195393637567 7.8
vertex -7.4529256233978 2.82195393637568 5.3488887394336
vertex -7.84115419105158 2.82195393637568 5.4
endloop
endfacet
facet normal -5.0881785406362e-032 1.0 8.45512046651044e-017
outer loop
vertex -4.69115419105158 2.82195393637567 7.8
vertex -7.84115419105158 2.82195393637568 5.4
vertex -10.9911541910516 2.82195393637567 7.8
endloop
endfacet
facet normal -0.704806543319908 0.709399560539364 -9.95684341791367e-020
outer loop
vertex -4.22646613171739 3.42754720575633 8.8
vertex -3.63780504267554 4.01239700047438 6.34492458573277e-015
vertex -4.22646613171739 3.42754720575633 7.04991620636974e-016
endloop
endfacet
facet normal -0.652626525848998 0.757679759369529 -4.99103338106899e-020
outer loop
vertex -3.63780504267554 4.01239700047438 6.34492458573277e-015
vertex -4.22646613171739 3.42754720575633 8.8
vertex -3.63780504267554 4.01239700047438 8.8
endloop
endfacet
facet normal -0.652626525848998 0.757679759369529 -4.99103338106898e-020
outer loop
vertex -3.63780504267554 4.01239700047438 8.8
vertex -2.97219535705186 4.5079117898981 6.34492458573277e-015
vertex -3.63780504267554 4.01239700047438 6.34492458573277e-015
endloop
endfacet
facet normal -0.538652264612068 0.842528182216056 4.63422835500003e-018
outer loop
vertex -2.97219535705186 4.5079117898981 6.34492458573277e-015
vertex -3.63780504267554 4.01239700047438 8.8
vertex -2.97219535705186 4.5079117898981 8.8
endloop
endfacet
facet normal -0.0 1.0 -0.0
outer loop
vertex 5.0382219276168 2.82195393637568 7.04991620636974e-016
vertex 7.4382219276168 2.82195393637568 2.60096189432334
vertex 11.7382219276168 2.82195393637568 7.04991620636974e-016
endloop
endfacet
facet normal -0.0 1.0 -0.0
outer loop
vertex 7.4382219276168 2.82195393637568 2.60096189432334
vertex 5.0382219276168 2.82195393637568 7.04991620636974e-016
vertex 7.12756175583697 2.82195393637568 2.83933982822018
endloop
endfacet
facet normal -0.0 1.0 -0.0
outer loop
vertex 7.12756175583697 2.82195393637568 2.83933982822018
vertex 5.0382219276168 2.82195393637568 7.04991620636974e-016
vertex 6.88918382194014 2.82195393637568 3.15
endloop
endfacet
facet normal -0.0 1.0 -0.0
outer loop
vertex 6.88918382194014 2.82195393637568 3.15
vertex 5.0382219276168 2.82195393637568 7.04991620636974e-016
vertex 6.7393331881832 2.82195393637568 3.51177143234622
endloop
endfacet
facet normal -0.0 1.0 -0.0
outer loop
vertex 6.7393331881832 2.82195393637568 3.51177143234622
vertex 5.0382219276168 2.82195393637568 7.04991620636974e-016
vertex 5.0382219276168 2.82195393637568 7.8
endloop
endfacet
facet normal -0.0 1.0 -0.0
outer loop
vertex 11.7382219276168 2.82195393637568 7.04991620636974e-016
vertex 7.4382219276168 2.82195393637568 2.60096189432334
vertex 7.79999335996302 2.82195393637568 2.4511112605664
endloop
endfacet
facet normal -0.0 1.0 -0.0
outer loop
vertex 11.7382219276168 2.82195393637568 7.04991620636974e-016
vertex 7.79999335996302 2.82195393637568 2.4511112605664
vertex 8.1882219276168 2.82195393637568 2.4
endloop
endfacet
facet normal -0.0 1.0 -0.0
outer loop
vertex 6.7393331881832 2.82195393637568 3.51177143234622
vertex 5.0382219276168 2.82195393637568 7.8
vertex 6.6882219276168 2.82195393637568 3.9
endloop
endfacet
facet normal -0.0 1.0 -0.0
outer loop
vertex 6.6882219276168 2.82195393637568 3.9
vertex 5.0382219276168 2.82195393637568 7.8
vertex 6.7393331881832 2.82195393637568 4.28822856765378
endloop
endfacet
facet normal -0.0 1.0 -0.0
outer loop
vertex 6.7393331881832 2.82195393637568 4.28822856765378
vertex 5.0382219276168 2.82195393637568 7.8
vertex 6.88918382194014 2.82195393637568 4.65
endloop
endfacet
facet normal -0.0 1.0 -0.0
outer loop
vertex 6.88918382194014 2.82195393637568 4.65
vertex 5.0382219276168 2.82195393637568 7.8
vertex 7.12756175583697 2.82195393637568 4.96066017177982
endloop
endfacet
facet normal -0.0 1.0 -0.0
outer loop
vertex 7.12756175583697 2.82195393637568 4.96066017177982
vertex 5.0382219276168 2.82195393637568 7.8
vertex 7.4382219276168 2.82195393637568 5.19903810567666
endloop
endfacet
facet normal -0.0 1.0 -0.0
outer loop
vertex 7.4382219276168 2.82195393637568 5.19903810567666
vertex 5.0382219276168 2.82195393637568 7.8
vertex 7.79999335996302 2.82195393637568 5.3488887394336
endloop
endfacet
facet normal -0.0 1.0 -0.0
outer loop
vertex 7.79999335996302 2.82195393637568 5.3488887394336
vertex 5.0382219276168 2.82195393637568 7.8
vertex 8.1882219276168 2.82195393637568 5.4
endloop
endfacet
facet normal -0.0 1.0 -0.0
outer loop
vertex 11.7382219276168 2.82195393637568 7.04991620636974e-016
vertex 9.48726003329345 2.82195393637568 3.15
vertex 11.7382219276168 2.82195393637568 7.8
endloop
endfacet
facet normal -0.0 1.0 -0.0
outer loop
vertex 9.48726003329345 2.82195393637568 3.15
vertex 11.7382219276168 2.82195393637568 7.04991620636974e-016
vertex 9.24888209939662 2.82195393637568 2.83933982822018
endloop
endfacet
facet normal -0.0 1.0 -0.0
outer loop
vertex 9.24888209939662 2.82195393637568 2.83933982822018
vertex 11.7382219276168 2.82195393637568 7.04991620636974e-016
vertex 8.9382219276168 2.82195393637568 2.60096189432334
endloop
endfacet
facet normal -0.0 1.0 -0.0
outer loop
vertex 8.9382219276168 2.82195393637568 2.60096189432334
vertex 11.7382219276168 2.82195393637568 7.04991620636974e-016
vertex 8.57645049527058 2.82195393637568 2.4511112605664
endloop
endfacet
facet normal -0.0 1.0 -0.0
outer loop
vertex 8.57645049527058 2.82195393637568 2.4511112605664
vertex 11.7382219276168 2.82195393637568 7.04991620636974e-016
vertex 8.1882219276168 2.82195393637568 2.4
endloop
endfacet
facet normal -0.0 1.0 -0.0
outer loop
vertex 11.7382219276168 2.82195393637568 7.8
vertex 9.48726003329345 2.82195393637568 3.15
vertex 9.6371106670504 2.82195393637568 3.51177143234622
endloop
endfacet
facet normal -0.0 1.0 -0.0
outer loop
vertex 11.7382219276168 2.82195393637568 7.8
vertex 9.6371106670504 2.82195393637568 3.51177143234622
vertex 9.6882219276168 2.82195393637568 3.9
endloop
endfacet
facet normal -0.0 1.0 -0.0
outer loop
vertex 11.7382219276168 2.82195393637568 7.8
vertex 9.6882219276168 2.82195393637568 3.9
vertex 9.6371106670504 2.82195393637568 4.28822856765378
endloop
endfacet
facet normal -0.0 1.0 -0.0
outer loop
vertex 11.7382219276168 2.82195393637568 7.8
vertex 9.6371106670504 2.82195393637568 4.28822856765378
vertex 9.48726003329346 2.82195393637568 4.65
endloop
endfacet
facet normal -0.0 1.0 -0.0
outer loop
vertex 11.7382219276168 2.82195393637568 7.8
vertex 9.48726003329346 2.82195393637568 4.65
vertex 9.24888209939662 2.82195393637568 4.96066017177982
endloop
endfacet
facet normal -0.0 1.0 -0.0
outer loop
vertex 11.7382219276168 2.82195393637568 7.8
vertex 9.24888209939662 2.82195393637568 4.96066017177982
vertex 8.9382219276168 2.82195393637568 5.19903810567666
endloop
endfacet
facet normal -0.0 1.0 -0.0
outer loop
vertex 11.7382219276168 2.82195393637568 7.8
vertex 8.9382219276168 2.82195393637568 5.19903810567666
vertex 8.57645049527058 2.82195393637568 5.3488887394336
endloop
endfacet
facet normal -0.0 1.0 -0.0
outer loop
vertex 11.7382219276168 2.82195393637568 7.8
vertex 8.57645049527058 2.82195393637568 5.3488887394336
vertex 8.1882219276168 2.82195393637568 5.4
endloop
endfacet
facet normal -0.0 1.0 -0.0
outer loop
vertex 11.7382219276168 2.82195393637568 7.8
vertex 8.1882219276168 2.82195393637568 5.4
vertex 5.0382219276168 2.82195393637568 7.8
endloop
endfacet
facet normal 0.866025403784439 1.50346465757484e-031 0.5
outer loop
vertex -9.14019229672824 2.82195393637568 3.15
vertex -9.29004293048518 0.0219539363756779 3.51177143234622
vertex -9.14019229672824 0.0219539363756779 3.15
endloop
endfacet
facet normal 0.965925826289069 1.50346465757484e-031 0.25881904510252
outer loop
vertex -9.29004293048518 0.0219539363756779 3.51177143234622
vertex -9.14019229672824 2.82195393637568 3.15
vertex -9.29004293048518 2.82195393637568 3.51177143234622
endloop
endfacet
facet normal 0.707106781186548 0.0 0.707106781186547
outer loop
vertex -8.9018143628314 2.82195393637568 2.83933982822018
vertex -9.14019229672824 0.0219539363756779 3.15
vertex -8.9018143628314 0.0219539363756779 2.83933982822018
endloop
endfacet
facet normal 0.866025403784439 1.50346465757484e-031 0.5
outer loop
vertex -9.14019229672824 0.0219539363756779 3.15
vertex -8.9018143628314 2.82195393637568 2.83933982822018
vertex -9.14019229672824 2.82195393637568 3.15
endloop
endfacet
facet normal -0.793353340291236 0.60876142900872 -2.49911472534025e-017
outer loop
vertex -4.22646613171739 3.42754720575633 8.8
vertex -4.69115419105158 2.82195393637567 7.8
vertex -4.69115419105158 2.82195393637567 8.8
endloop
endfacet
facet normal -0.793353340291236 0.60876142900872 -2.49911472534025e-017
outer loop
vertex -4.69115419105158 2.82195393637567 7.8
vertex -4.22646613171739 3.42754720575633 8.8
vertex -4.69115419105158 2.82195393637567 7.04991620636974e-016
endloop
endfacet
facet normal -0.793353340291236 0.60876142900872 -2.49911472534025e-017
outer loop
vertex -4.69115419105158 2.82195393637567 7.04991620636974e-016
vertex -4.22646613171739 3.42754720575633 8.8
vertex -4.22646613171739 3.42754720575633 7.04991620636974e-016
endloop
endfacet
facet normal -0.258819045102523 0.0 -0.965925826289068
outer loop
vertex 8.57645049527058 2.82195393637568 5.3488887394336
vertex 8.1882219276168 0.0219539363756779 5.4
vertex 8.1882219276168 2.82195393637568 5.4
endloop
endfacet
facet normal 9.44577648938572e-016 0.0 -1.0
outer loop
vertex 8.1882219276168 0.0219539363756779 5.4
vertex 8.57645049527058 2.82195393637568 5.3488887394336
vertex 8.57645049527058 0.0219539363756779 5.3488887394336
endloop
endfacet
facet normal -1.90757497083248e-015 4.26488356477885e-015 1.0
outer loop
vertex 5.59938836725819 1.4671783070448 7.8
vertex 11.7382219276168 2.82195393637568 7.8
vertex 5.0382219276168 2.82195393637568 7.8
endloop
endfacet
facet normal -1.90757497083248e-015 4.26488356477885e-015 1.0
outer loop
vertex 11.7382219276168 2.82195393637568 7.8
vertex 5.59938836725819 1.4671783070448 7.8
vertex 5.79079178944292 0.0133249757955286 7.8
endloop
endfacet
facet normal -1.90757497083248e-015 4.26488356477885e-015 1.0
outer loop
vertex 11.7382219276168 2.82195393637568 7.8
vertex 5.79079178944292 0.0133249757955286 7.8
vertex 11.7382219276168 0.0133249757955614 7.80000000000003
endloop
endfacet
facet normal -0.499999999999999 0.0 -0.866025403784439
outer loop
vertex 8.9382219276168 2.82195393637568 5.19903810567666
vertex 8.57645049527058 0.0219539363756779 5.3488887394336
vertex 8.57645049527058 2.82195393637568 5.3488887394336
endloop
endfacet
facet normal -0.258819045102523 0.0 -0.965925826289068
outer loop
vertex 8.57645049527058 0.0219539363756779 5.3488887394336
vertex 8.9382219276168 2.82195393637568 5.19903810567666
vertex 8.9382219276168 0.0219539363756779 5.19903810567666
endloop
endfacet
facet normal -0.0 -0.0 1.0
outer loop
vertex -5.44372405287769 0.0133249757955223 7.8
vertex -10.9911541910516 2.82195393637567 7.8
vertex -10.9911541910516 0.0133249757955432 7.8
endloop
endfacet
facet normal -0.0 -0.0 1.0
outer loop
vertex -10.9911541910516 2.82195393637567 7.8
vertex -5.44372405287769 0.0133249757955223 7.8
vertex -5.25232063069297 1.46717830704481 7.8
endloop
endfacet
facet normal -0.0 -0.0 1.0
outer loop
vertex -10.9911541910516 2.82195393637567 7.8
vertex -5.25232063069297 1.46717830704481 7.8
vertex -4.69115419105158 2.82195393637567 7.8
endloop
endfacet
facet normal 0.923879532511287 0.382683432365091 -2.67680889633562e-017
outer loop
vertex 5.0382219276168 2.82195393637568 7.8
vertex 5.59938836725819 1.4671783070448 8.8
vertex 5.59938836725819 1.4671783070448 7.8
endloop
endfacet
facet normal 0.965925826289068 0.258819045102521 -1.34995348739135e-017
outer loop
vertex 5.59938836725819 1.4671783070448 8.8
vertex 5.0382219276168 2.82195393637568 7.8
vertex 5.0382219276168 2.82195393637568 8.8
endloop
endfacet
facet normal 0.499999999999996 -2.1594382892939e-018 -0.866025403784441
outer loop
vertex 7.4382219276168 2.82195393637568 5.19903810567666
vertex 7.12756175583697 0.0219539363756779 4.96066017177982
vertex 7.12756175583697 2.82195393637568 4.96066017177982
endloop
endfacet
facet normal 0.707106781186549 -2.1594382892939e-018 -0.707106781186546
outer loop
vertex 7.12756175583697 0.0219539363756779 4.96066017177982
vertex 7.4382219276168 2.82195393637568 5.19903810567666
vertex 7.4382219276168 0.0219539363756779 5.19903810567666
endloop
endfacet
facet normal 1.0 0.0 2.31688857286819e-016
outer loop
vertex 6.6882219276168 2.82195393637568 3.9
vertex 6.7393331881832 0.0219539363756779 4.28822856765378
vertex 6.6882219276168 0.0219539363756779 3.9
endloop
endfacet
facet normal 0.965925826289069 -1.48024636432092e-032 -0.25881904510252
outer loop
vertex 6.7393331881832 0.0219539363756779 4.28822856765378
vertex 6.6882219276168 2.82195393637568 3.9
vertex 6.7393331881832 2.82195393637568 4.28822856765378
endloop
endfacet
facet normal 0.965925826289069 7.40123182160457e-033 0.25881904510252
outer loop
vertex 6.7393331881832 2.82195393637568 3.51177143234622
vertex 6.6882219276168 0.0219539363756779 3.9
vertex 6.7393331881832 0.0219539363756779 3.51177143234622
endloop
endfacet
facet normal 1.0 0.0 2.31688857286819e-016
outer loop
vertex 6.6882219276168 0.0219539363756779 3.9
vertex 6.7393331881832 2.82195393637568 3.51177143234622
vertex 6.6882219276168 2.82195393637568 3.9
endloop
endfacet
facet normal -0.965925826289068 0.258819045102521 -1.34995348739137e-017
outer loop
vertex -5.25232063069297 1.46717830704481 8.8
vertex -5.44372405287769 0.0133249757955223 7.8
vertex -5.44372405287769 0.0133249757955223 8.8
endloop
endfacet
facet normal -0.99144486137381 0.130526192220051 0.0
outer loop
vertex -5.44372405287769 0.0133249757955223 7.8
vertex -5.25232063069297 1.46717830704481 8.8
vertex -5.25232063069297 1.46717830704481 7.8
endloop
endfacet
facet normal 0.793353340291233 0.608761429008723 8.92540973335809e-019
outer loop
vertex 4.57353386828261 3.42754720575633 7.04991620636974e-016
vertex 5.0382219276168 2.82195393637568 7.8
vertex 5.0382219276168 2.82195393637568 7.04991620636974e-016
endloop
endfacet
facet normal 0.793353340291233 0.608761429008723 8.92540973335809e-019
outer loop
vertex 5.0382219276168 2.82195393637568 7.8
vertex 4.57353386828261 3.42754720575633 7.04991620636974e-016
vertex 5.0382219276168 2.82195393637568 8.8
endloop
endfacet
facet normal 0.793353340291233 0.608761429008723 8.92540973335809e-019
outer loop
vertex 5.0382219276168 2.82195393637568 8.8
vertex 4.57353386828261 3.42754720575633 7.04991620636974e-016
vertex 4.57353386828261 3.42754720575633 8.8
endloop
endfacet
facet normal -1.14521097279725e-017 -2.41064626151733e-016 1.0
outer loop
vertex -3.82646613171739 0.0133249757955195 8.8
vertex -5.25232063069297 1.46717830704481 8.8
vertex -5.44372405287769 0.0133249757955223 8.8
endloop
endfacet
facet normal -1.14521097279725e-017 -2.41064626151733e-016 1.0
outer loop
vertex -5.25232063069297 1.46717830704481 8.8
vertex -3.82646613171739 0.0133249757955195 8.8
vertex -4.69115419105158 2.82195393637567 8.8
endloop
endfacet
facet normal -1.14521097279725e-017 -2.41064626151733e-016 1.0
outer loop
vertex -4.69115419105158 2.82195393637567 8.8
vertex -3.82646613171739 0.0133249757955195 8.8
vertex -4.22646613171739 3.42754720575633 8.8
endloop
endfacet
facet normal -1.14521097279725e-017 -2.41064626151733e-016 1.0
outer loop
vertex -4.22646613171739 3.42754720575633 8.8
vertex -3.82646613171739 0.0133249757955195 8.8
vertex -3.63780504267554 4.01239700047438 8.8
endloop
endfacet
facet normal -1.14521097279725e-017 -2.41064626151733e-016 1.0
outer loop
vertex -3.63780504267554 4.01239700047438 8.8
vertex -3.82646613171739 0.0133249757955195 8.8
vertex -3.69016943687366 1.0486011562056 8.8
endloop
endfacet
facet normal -1.14521097279725e-017 -2.41064626151733e-016 1.0
outer loop
vertex -3.63780504267554 4.01239700047438 8.8
vertex -3.69016943687366 1.0486011562056 8.8
vertex -3.29056774685514 2.01332497579552 8.8
endloop
endfacet
facet normal -1.14521097279725e-017 -2.41064626151733e-016 1.0
outer loop
vertex -3.63780504267554 4.01239700047438 8.8
vertex -3.29056774685514 2.01332497579552 8.8
vertex -2.97219535705186 4.5079117898981 8.8
endloop
endfacet
facet normal -1.14521097279725e-017 -2.41064626151733e-016 1.0
outer loop
vertex -2.97219535705186 4.5079117898981 8.8
vertex -3.29056774685514 2.01332497579552 8.8
vertex -2.65489325646358 2.84175210054171 8.8
endloop
endfacet
facet normal -1.14521097279725e-017 -2.41064626151733e-016 1.0
outer loop
vertex -2.97219535705186 4.5079117898981 8.8
vertex -2.65489325646358 2.84175210054171 8.8
vertex -2.2430753264363 4.90408743413794 8.8
endloop
endfacet
facet normal -1.14521097279725e-017 -2.41064626151733e-016 1.0
outer loop
vertex -2.2430753264363 4.90408743413794 8.8
vertex -2.65489325646358 2.84175210054171 8.8
vertex -1.82646613171739 3.47742659093328 8.8
endloop
endfacet
facet normal -1.14521097279725e-017 -2.41064626151733e-016 1.0
outer loop
vertex -2.2430753264363 4.90408743413794 8.8
vertex -1.82646613171739 3.47742659093328 8.8
vertex -1.4651654373577 5.19292538975908 8.8
endloop
endfacet
facet normal -1.14521097279725e-017 -2.41064626151733e-016 1.0
outer loop
vertex -1.4651654373577 5.19292538975908 8.8
vertex -1.82646613171739 3.47742659093328 8.8
vertex -0.861742312127469 3.87702828095179 8.8
endloop
endfacet
facet normal -1.14521097279725e-017 -2.41064626151733e-016 1.0
outer loop
vertex -1.4651654373577 5.19292538975908 8.8
vertex -0.861742312127469 3.87702828095179 8.8
vertex -0.654171213683166 5.36859419547091 8.8
endloop
endfacet
facet normal -1.14521097279725e-017 -2.41064626151733e-016 1.0
outer loop
vertex -0.654171213683166 5.36859419547091 8.8
vertex -0.861742312127469 3.87702828095179 8.8
vertex 0.173533868282611 4.01332497579552 8.8
endloop
endfacet
facet normal -1.14521097279725e-017 -2.41064626151733e-016 1.0
outer loop
vertex -0.654171213683166 5.36859419547091 8.8
vertex 0.173533868282611 4.01332497579552 8.8
vertex 0.173533868282611 5.42754720575633 8.8
endloop
endfacet
facet normal -1.14521097279725e-017 -2.41064626151733e-016 1.0
outer loop
vertex 0.173533868282611 5.42754720575633 8.8
vertex 0.173533868282611 4.01332497579552 8.8
vertex 1.2088100486927 3.87702828095179 8.8
endloop
endfacet
facet normal -1.14521097279725e-017 -2.41064626151733e-016 1.0
outer loop
vertex 0.173533868282611 5.42754720575633 8.8
vertex 1.2088100486927 3.87702828095179 8.8
vertex 1.00123895024839 5.36859419547091 8.8
endloop
endfacet
facet normal -1.14521097279725e-017 -2.41064626151733e-016 1.0
outer loop
vertex 1.00123895024839 5.36859419547091 8.8
vertex 1.2088100486927 3.87702828095179 8.8
vertex 1.81223317392292 5.19292538975908 8.8
endloop
endfacet
facet normal -1.14521097279725e-017 -2.41064626151733e-016 1.0
outer loop
vertex 1.81223317392292 5.19292538975908 8.8
vertex 1.2088100486927 3.87702828095179 8.8
vertex 2.17353386828261 3.47742659093328 8.8
endloop
endfacet
facet normal -1.14521097279725e-017 -2.41064626151733e-016 1.0
outer loop
vertex 1.81223317392292 5.19292538975908 8.8
vertex 2.17353386828261 3.47742659093328 8.8
vertex 2.59014306300153 4.90408743413794 8.8
endloop
endfacet
facet normal -1.14521097279725e-017 -2.41064626151733e-016 1.0
outer loop
vertex 2.59014306300153 4.90408743413794 8.8
vertex 2.17353386828261 3.47742659093328 8.8
vertex 3.0019609930288 2.84175210054171 8.8
endloop
endfacet
facet normal -1.14521097279725e-017 -2.41064626151733e-016 1.0
outer loop
vertex 2.59014306300153 4.90408743413794 8.8
vertex 3.0019609930288 2.84175210054171 8.8
vertex 3.31926309361708 4.5079117898981 8.8
endloop
endfacet
facet normal -1.14521097279725e-017 -2.41064626151733e-016 1.0
outer loop
vertex 3.31926309361708 4.5079117898981 8.8
vertex 3.0019609930288 2.84175210054171 8.8
vertex 3.63763548342037 2.01332497579552 8.8
endloop
endfacet
facet normal -1.14521097279725e-017 -2.41064626151733e-016 1.0
outer loop
vertex 3.31926309361708 4.5079117898981 8.8
vertex 3.63763548342037 2.01332497579552 8.8
vertex 3.98487277924076 4.01239700047438 8.8
endloop
endfacet
facet normal -1.14521097279725e-017 -2.41064626151733e-016 1.0
outer loop
vertex 3.98487277924076 4.01239700047438 8.8
vertex 3.63763548342037 2.01332497579552 8.8
vertex 4.03723717343888 1.0486011562056 8.8
endloop
endfacet
facet normal -1.14521097279725e-017 -2.41064626151733e-016 1.0
outer loop
vertex 3.98487277924076 4.01239700047438 8.8
vertex 4.03723717343888 1.0486011562056 8.8
vertex 4.57353386828261 3.42754720575633 8.8
endloop
endfacet
facet normal -1.14521097279725e-017 -2.41064626151733e-016 1.0
outer loop
vertex 4.57353386828261 3.42754720575633 8.8
vertex 4.03723717343888 1.0486011562056 8.8
vertex 4.17353386828261 0.0133249757955138 8.8
endloop
endfacet
facet normal -1.14521097279725e-017 -2.41064626151733e-016 1.0
outer loop
vertex 4.57353386828261 3.42754720575633 8.8
vertex 4.17353386828261 0.0133249757955138 8.8
vertex 5.79079178944292 0.0133249757955286 8.8
endloop
endfacet
facet normal -1.14521097279725e-017 -2.41064626151733e-016 1.0
outer loop
vertex 4.57353386828261 3.42754720575633 8.8
vertex 5.79079178944292 0.0133249757955286 8.8
vertex 5.0382219276168 2.82195393637568 8.8
endloop
endfacet
facet normal -1.14521097279725e-017 -2.41064626151733e-016 1.0
outer loop
vertex 5.0382219276168 2.82195393637568 8.8
vertex 5.79079178944292 0.0133249757955286 8.8
vertex 5.59938836725819 1.4671783070448 8.8
endloop
endfacet
facet normal -0.707106781186545 2.35473191629907e-032 -0.70710678118655
outer loop
vertex 9.24888209939662 2.82195393637568 4.96066017177982
vertex 8.9382219276168 0.0219539363756779 5.19903810567666
vertex 8.9382219276168 2.82195393637568 5.19903810567666
endloop
endfacet
facet normal -0.499999999999999 0.0 -0.866025403784439
outer loop
vertex 8.9382219276168 0.0219539363756779 5.19903810567666
vertex 9.24888209939662 2.82195393637568 4.96066017177982
vertex 9.24888209939662 0.0219539363756779 4.96066017177982
endloop
endfacet
facet normal 0.965925826289069 -1.48024636432092e-032 -0.25881904510252
outer loop
vertex 6.7393331881832 2.82195393637568 4.28822856765378
vertex 6.88918382194014 0.0219539363756779 4.65
vertex 6.7393331881832 0.0219539363756779 4.28822856765378
endloop
endfacet
facet normal 0.86602540378444 -1.48024636432092e-032 -0.499999999999999
outer loop
vertex 6.88918382194014 0.0219539363756779 4.65
vertex 6.7393331881832 2.82195393637568 4.28822856765378
vertex 6.88918382194014 2.82195393637568 4.65
endloop
endfacet
facet normal 0.25881904510252 0.0 -0.965925826289069
outer loop
vertex 7.79999335996302 2.82195393637568 5.3488887394336
vertex 7.4382219276168 0.0219539363756779 5.19903810567666
vertex 7.4382219276168 2.82195393637568 5.19903810567666
endloop
endfacet
facet normal 0.499999999999996 -2.1594382892939e-018 -0.866025403784441
outer loop
vertex 7.4382219276168 0.0219539363756779 5.19903810567666
vertex 7.79999335996302 2.82195393637568 5.3488887394336
vertex 7.79999335996302 0.0219539363756779 5.3488887394336
endloop
endfacet
facet normal 9.44577648938572e-016 0.0 -1.0
outer loop
vertex 8.1882219276168 2.82195393637568 5.4
vertex 7.79999335996302 0.0219539363756779 5.3488887394336
vertex 7.79999335996302 2.82195393637568 5.3488887394336
endloop
endfacet
facet normal 0.25881904510252 0.0 -0.965925826289069
outer loop
vertex 7.79999335996302 0.0219539363756779 5.3488887394336
vertex 8.1882219276168 2.82195393637568 5.4
vertex 8.1882219276168 0.0219539363756779 5.4
endloop
endfacet
facet normal 0.965925826289068 0.258819045102521 -1.34995348739135e-017
outer loop
vertex 5.59938836725819 1.4671783070448 7.8
vertex 5.79079178944292 0.0133249757955286 8.8
vertex 5.79079178944292 0.0133249757955286 7.8
endloop
endfacet
facet normal 0.99144486137381 0.130526192220052 -0.0
outer loop
vertex 5.79079178944292 0.0133249757955286 8.8
vertex 5.59938836725819 1.4671783070448 7.8
vertex 5.59938836725819 1.4671783070448 8.8
endloop
endfacet
facet normal 0.86602540378444 -1.48024636432092e-032 -0.499999999999999
outer loop
vertex 6.88918382194014 2.82195393637568 4.65
vertex 7.12756175583697 0.0219539363756779 4.96066017177982
vertex 6.88918382194014 0.0219539363756779 4.65
endloop
endfacet
facet normal 0.707106781186549 -2.1594382892939e-018 -0.707106781186546
outer loop
vertex 7.12756175583697 0.0219539363756779 4.96066017177982
vertex 6.88918382194014 2.82195393637568 4.65
vertex 7.12756175583697 2.82195393637568 4.96066017177982
endloop
endfacet
facet normal -0.923879532511287 0.38268343236509 -2.67680889633565e-017
outer loop
vertex -4.69115419105158 2.82195393637567 8.8
vertex -5.25232063069297 1.46717830704481 7.8
vertex -5.25232063069297 1.46717830704481 8.8
endloop
endfacet
facet normal -0.965925826289068 0.258819045102521 -1.34995348739137e-017
outer loop
vertex -5.25232063069297 1.46717830704481 7.8
vertex -4.69115419105158 2.82195393637567 8.8
vertex -4.69115419105158 2.82195393637567 7.8
endloop
endfacet
facet normal -0.70710678118655 0.0 0.707106781186545
outer loop
vertex -6.78049401927175 0.0219539363756779 2.83933982822018
vertex -7.09115419105158 2.82195393637568 2.60096189432334
vertex -7.09115419105158 0.0219539363756779 2.60096189432334
endloop
endfacet
facet normal -0.499999999999998 0.0 0.86602540378444
outer loop
vertex -7.09115419105158 2.82195393637568 2.60096189432334
vertex -6.78049401927175 0.0219539363756779 2.83933982822018
vertex -6.78049401927175 2.82195393637568 2.83933982822018
endloop
endfacet
facet normal -0.707106781186545 2.35473191629907e-032 -0.70710678118655
outer loop
vertex 9.24888209939662 2.82195393637568 4.96066017177982
vertex 9.48726003329346 0.0219539363756779 4.65
vertex 9.24888209939662 0.0219539363756779 4.96066017177982
endloop
endfacet
facet normal -0.86602540378444 -6.05760812342663e-033 -0.499999999999997
outer loop
vertex 9.48726003329346 0.0219539363756779 4.65
vertex 9.24888209939662 2.82195393637568 4.96066017177982
vertex 9.48726003329346 2.82195393637568 4.65
endloop
endfacet
facet normal -0.25881904510252 0.0 0.965925826289068
outer loop
vertex -7.4529256233978 0.0219539363756779 2.4511112605664
vertex -7.84115419105158 2.82195393637568 2.4
vertex -7.84115419105158 0.0219539363756779 2.4
endloop
endfacet
facet normal 0.0 0.0 1.0
outer loop
vertex -7.84115419105158 2.82195393637568 2.4
vertex -7.4529256233978 0.0219539363756779 2.4511112605664
vertex -7.4529256233978 2.82195393637568 2.4511112605664
endloop
endfacet
facet normal -0.86602540378444 -6.05760812342663e-033 -0.499999999999997
outer loop
vertex 9.48726003329346 2.82195393637568 4.65
vertex 9.6371106670504 0.0219539363756779 4.28822856765378
vertex 9.48726003329346 0.0219539363756779 4.65
endloop
endfacet
facet normal -0.96592582628907 -3.46537719747874e-032 -0.258819045102513
outer loop
vertex 9.6371106670504 0.0219539363756779 4.28822856765378
vertex 9.48726003329346 2.82195393637568 4.65
vertex 9.6371106670504 2.82195393637568 4.28822856765378
endloop
endfacet
facet normal -1.0 -4.97923464510731e-031 -2.5985868703259e-016
outer loop
vertex -10.9911541910516 0.0133249757955432 7.8
vertex -10.9911541910516 2.82195393637567 7.04991620636974e-016
vertex -10.9911541910516 0.0133249757955411 4.22994972382185e-015
endloop
endfacet
facet normal -1.0 -4.97923464510731e-031 -2.5985868703259e-016
outer loop
vertex -10.9911541910516 2.82195393637567 7.04991620636974e-016
vertex -10.9911541910516 0.0133249757955432 7.8
vertex -10.9911541910516 2.82195393637567 7.8
endloop
endfacet
facet normal 1.0 -4.87149539930937e-030 -5.19717374065181e-016
outer loop
vertex 11.7382219276168 2.82195393637568 7.04991620636974e-016
vertex 11.7382219276168 0.0133249757955614 7.80000000000003
vertex 11.7382219276168 0.0133249757955596 2.1743115757605e-014
endloop
endfacet
facet normal 1.0 -4.87149539930937e-030 -5.19717374065181e-016
outer loop
vertex 11.7382219276168 0.0133249757955614 7.80000000000003
vertex 11.7382219276168 2.82195393637568 7.04991620636974e-016
vertex 11.7382219276168 2.82195393637568 7.8
endloop
endfacet
endsolid lower-bearing-clip
