solid movement-ir-interrupter-spacer
facet normal -0.258819045102521 0.965925826289068 0.0
outer loop
vertex 5.68700263072714 -0.996062814267945 6.0
vertex 6.98109785623975 -0.825691945713286 2.0
vertex 5.68700263072714 -0.996062814267945 2.0
endloop
endfacet
facet normal 4.45555494782345e-017 1.0 0.0
outer loop
vertex 6.98109785623975 -0.825691945713286 2.0
vertex 5.68700263072714 -0.996062814267945 6.0
vertex 6.98109785623975 -0.825691945713286 6.0
endloop
endfacet
facet normal -0.5 0.866025403784439 0.0
outer loop
vertex 4.48109785623975 -1.49556492679109 6.0
vertex 5.68700263072714 -0.996062814267945 2.0
vertex 4.48109785623975 -1.49556492679109 2.0
endloop
endfacet
facet normal -0.258819045102521 0.965925826289068 0.0
outer loop
vertex 5.68700263072714 -0.996062814267945 2.0
vertex 4.48109785623975 -1.49556492679109 6.0
vertex 5.68700263072714 -0.996062814267945 6.0
endloop
endfacet
facet normal -0.707106781186548 0.707106781186547 0.0
outer loop
vertex 3.44556395030701 -2.29015803978055 6.0
vertex 4.48109785623975 -1.49556492679109 2.0
vertex 3.44556395030701 -2.29015803978055 2.0
endloop
endfacet
facet normal -0.5 0.866025403784439 0.0
outer loop
vertex 4.48109785623975 -1.49556492679109 2.0
vertex 3.44556395030701 -2.29015803978055 6.0
vertex 4.48109785623975 -1.49556492679109 6.0
endloop
endfacet
facet normal -1.0 -7.12888791651753e-017 0.0
outer loop
vertex 1.98109785623975 -5.82569194571329 6.0
vertex 2.15146872479441 -7.11978717122589 2.0
vertex 2.15146872479441 -7.11978717122589 6.0
endloop
endfacet
facet normal -0.965925826289068 -0.258819045102521 0.0
outer loop
vertex 2.15146872479441 -7.11978717122589 2.0
vertex 1.98109785623975 -5.82569194571329 6.0
vertex 1.98109785623975 -5.82569194571329 2.0
endloop
endfacet
facet normal -0.707106781186548 0.707106781186547 1.31556732194238e-016
outer loop
vertex 4.22338140961221 -3.06797549908575 8.0
vertex 3.60359878148044 -3.87569194571329 6.0
vertex 3.60359878148043 -3.87569194571329 8.0
endloop
endfacet
facet normal -0.866025403784439 0.5 1.12181171436725e-016
outer loop
vertex 3.60359878148044 -3.87569194571329 6.0
vertex 4.22338140961221 -3.06797549908575 8.0
vertex 4.22338140961221 -3.06797549908575 6.0
endloop
endfacet
facet normal 0.965925826289068 0.258819045102521 0.0
outer loop
vertex 11.8107269876851 -4.53159672020068 2.0
vertex 11.9810978562397 -5.82569194571329 6.0
vertex 11.9810978562397 -5.82569194571329 2.0
endloop
endfacet
facet normal 1.0 1.51488868225997e-016 0.0
outer loop
vertex 11.9810978562397 -5.82569194571329 6.0
vertex 11.8107269876851 -4.53159672020068 2.0
vertex 11.8107269876851 -4.53159672020068 6.0
endloop
endfacet
facet normal 0.866025403784439 0.5 0.0
outer loop
vertex 11.3112248751619 -3.32569194571328 2.0
vertex 11.8107269876851 -4.53159672020068 6.0
vertex 11.8107269876851 -4.53159672020068 2.0
endloop
endfacet
facet normal 0.965925826289068 0.258819045102521 0.0
outer loop
vertex 11.8107269876851 -4.53159672020068 6.0
vertex 11.3112248751619 -3.32569194571328 2.0
vertex 11.3112248751619 -3.32569194571328 6.0
endloop
endfacet
facet normal 0.258819045102521 0.965925826289068 0.0
outer loop
vertex 8.27519308175235 -0.996062814267945 6.0
vertex 9.48109785623975 -1.49556492679109 2.0
vertex 8.27519308175235 -0.996062814267945 2.0
endloop
endfacet
facet normal 0.5 0.866025403784439 0.0
outer loop
vertex 9.48109785623975 -1.49556492679109 2.0
vertex 8.27519308175235 -0.996062814267945 6.0
vertex 9.48109785623975 -1.49556492679109 6.0
endloop
endfacet
facet normal 3.20799956243289e-016 -1.0 0.0
outer loop
vertex 6.98109785623975 -10.8256919457133 6.0
vertex 5.68700263072715 -10.6553210771586 2.0
vertex 6.98109785623975 -10.8256919457133 2.0
endloop
endfacet
facet normal -0.25881904510252 -0.965925826289068 0.0
outer loop
vertex 5.68700263072715 -10.6553210771586 2.0
vertex 6.98109785623975 -10.8256919457133 6.0
vertex 5.68700263072715 -10.6553210771586 6.0
endloop
endfacet
facet normal 0.0 0.0 1.0
outer loop
vertex 3.44556395030701 -9.36122585164602 6.0
vertex 3.08109785623975 -5.82569194571329 6.0
vertex 2.65097083731756 -8.32569194571329 6.0
endloop
endfacet
facet normal 0.0 0.0 1.0
outer loop
vertex 3.08109785623975 -5.82569194571329 6.0
vertex 3.44556395030701 -9.36122585164602 6.0
vertex 3.21398713371238 -6.83508622161312 6.0
endloop
endfacet
facet normal 0.0 0.0 1.0
outer loop
vertex 3.21398713371238 -6.83508622161312 6.0
vertex 3.44556395030701 -9.36122585164602 6.0
vertex 3.60359878148044 -7.77569194571329 6.0
endloop
endfacet
facet normal 0.0 0.0 1.0
outer loop
vertex 3.60359878148044 -7.77569194571329 6.0
vertex 3.44556395030701 -9.36122585164602 6.0
vertex 4.48109785623975 -10.1558189646355 6.0
endloop
endfacet
facet normal 0.0 0.0 1.0
outer loop
vertex 3.60359878148044 -7.77569194571329 6.0
vertex 4.48109785623975 -10.1558189646355 6.0
vertex 4.22338140961222 -8.58340839234082 6.0
endloop
endfacet
facet normal 0.0 0.0 1.0
outer loop
vertex 4.22338140961222 -8.58340839234082 6.0
vertex 4.48109785623975 -10.1558189646355 6.0
vertex 5.03109785623975 -9.2031910204726 6.0
endloop
endfacet
facet normal 0.0 0.0 1.0
outer loop
vertex 5.03109785623975 -9.2031910204726 6.0
vertex 4.48109785623975 -10.1558189646355 6.0
vertex 5.68700263072715 -10.6553210771586 6.0
endloop
endfacet
facet normal 0.0 0.0 1.0
outer loop
vertex 5.03109785623975 -9.2031910204726 6.0
vertex 5.68700263072715 -10.6553210771586 6.0
vertex 5.97170358033992 -9.59280266824065 6.0
endloop
endfacet
facet normal 0.0 0.0 1.0
outer loop
vertex 5.97170358033992 -9.59280266824065 6.0
vertex 5.68700263072715 -10.6553210771586 6.0
vertex 6.98109785623975 -10.8256919457133 6.0
endloop
endfacet
facet normal 0.0 0.0 1.0
outer loop
vertex 5.97170358033992 -9.59280266824065 6.0
vertex 6.98109785623975 -10.8256919457133 6.0
vertex 6.98109785623975 -9.72569194571328 6.0
endloop
endfacet
facet normal 0.0 0.0 1.0
outer loop
vertex 6.98109785623975 -9.72569194571328 6.0
vertex 6.98109785623975 -10.8256919457133 6.0
vertex 8.27519308175236 -10.6553210771586 6.0
endloop
endfacet
facet normal 0.0 0.0 1.0
outer loop
vertex 6.98109785623975 -9.72569194571328 6.0
vertex 8.27519308175236 -10.6553210771586 6.0
vertex 7.99049213213958 -9.59280266824065 6.0
endloop
endfacet
facet normal 0.0 0.0 1.0
outer loop
vertex 7.99049213213958 -9.59280266824065 6.0
vertex 8.27519308175236 -10.6553210771586 6.0
vertex 8.93109785623975 -9.2031910204726 6.0
endloop
endfacet
facet normal 0.0 0.0 1.0
outer loop
vertex 8.93109785623975 -9.2031910204726 6.0
vertex 8.27519308175236 -10.6553210771586 6.0
vertex 9.48109785623975 -10.1558189646355 6.0
endloop
endfacet
facet normal 0.0 0.0 1.0
outer loop
vertex 8.93109785623975 -9.2031910204726 6.0
vertex 9.48109785623975 -10.1558189646355 6.0
vertex 9.73881430286728 -8.58340839234082 6.0
endloop
endfacet
facet normal 0.0 0.0 1.0
outer loop
vertex 9.73881430286728 -8.58340839234082 6.0
vertex 9.48109785623975 -10.1558189646355 6.0
vertex 10.5166317621725 -9.36122585164602 6.0
endloop
endfacet
facet normal 0.0 0.0 1.0
outer loop
vertex 9.73881430286728 -8.58340839234082 6.0
vertex 10.5166317621725 -9.36122585164602 6.0
vertex 10.3585969309991 -7.77569194571329 6.0
endloop
endfacet
facet normal 0.0 0.0 1.0
outer loop
vertex 10.3585969309991 -7.77569194571329 6.0
vertex 10.5166317621725 -9.36122585164602 6.0
vertex 10.7482085787671 -6.83508622161312 6.0
endloop
endfacet
facet normal 0.0 0.0 1.0
outer loop
vertex 10.7482085787671 -6.83508622161312 6.0
vertex 10.5166317621725 -9.36122585164602 6.0
vertex 11.3112248751619 -8.32569194571328 6.0
endloop
endfacet
facet normal 0.0 0.0 1.0
outer loop
vertex 10.7482085787671 -6.83508622161312 6.0
vertex 11.3112248751619 -8.32569194571328 6.0
vertex 10.8810978562397 -5.82569194571329 6.0
endloop
endfacet
facet normal 0.0 0.0 1.0
outer loop
vertex 10.8810978562397 -5.82569194571329 6.0
vertex 11.3112248751619 -8.32569194571328 6.0
vertex 11.3112248751619 -3.32569194571328 6.0
endloop
endfacet
facet normal 0.0 0.0 1.0
outer loop
vertex 11.3112248751619 -3.32569194571328 6.0
vertex 11.3112248751619 -8.32569194571328 6.0
vertex 11.8107269876851 -4.53159672020068 6.0
endloop
endfacet
facet normal 0.0 0.0 1.0
outer loop
vertex 11.8107269876851 -4.53159672020068 6.0
vertex 11.3112248751619 -8.32569194571328 6.0
vertex 11.8107269876851 -7.11978717122589 6.0
endloop
endfacet
facet normal 0.0 0.0 1.0
outer loop
vertex 11.8107269876851 -4.53159672020068 6.0
vertex 11.8107269876851 -7.11978717122589 6.0
vertex 11.9810978562397 -5.82569194571329 6.0
endloop
endfacet
facet normal 0.0 0.0 1.0
outer loop
vertex 2.15146872479441 -7.11978717122589 6.0
vertex 2.15146872479441 -4.53159672020068 6.0
vertex 1.98109785623975 -5.82569194571329 6.0
endloop
endfacet
facet normal 0.0 0.0 1.0
outer loop
vertex 2.15146872479441 -4.53159672020068 6.0
vertex 2.15146872479441 -7.11978717122589 6.0
vertex 2.65097083731755 -3.32569194571329 6.0
endloop
endfacet
facet normal 0.0 0.0 1.0
outer loop
vertex 2.65097083731755 -3.32569194571329 6.0
vertex 2.15146872479441 -7.11978717122589 6.0
vertex 2.65097083731756 -8.32569194571329 6.0
endloop
endfacet
facet normal 0.0 0.0 1.0
outer loop
vertex 2.65097083731755 -3.32569194571329 6.0
vertex 2.65097083731756 -8.32569194571329 6.0
vertex 3.44556395030701 -2.29015803978055 6.0
endloop
endfacet
facet normal 0.0 0.0 1.0
outer loop
vertex 3.44556395030701 -2.29015803978055 6.0
vertex 2.65097083731756 -8.32569194571329 6.0
vertex 3.08109785623975 -5.82569194571329 6.0
endloop
endfacet
facet normal 0.0 0.0 1.0
outer loop
vertex 3.44556395030701 -2.29015803978055 6.0
vertex 3.08109785623975 -5.82569194571329 6.0
vertex 3.21398713371238 -4.81629766981346 6.0
endloop
endfacet
facet normal 0.0 0.0 1.0
outer loop
vertex 3.44556395030701 -2.29015803978055 6.0
vertex 3.21398713371238 -4.81629766981346 6.0
vertex 3.60359878148044 -3.87569194571329 6.0
endloop
endfacet
facet normal 0.0 0.0 1.0
outer loop
vertex 3.44556395030701 -2.29015803978055 6.0
vertex 3.60359878148044 -3.87569194571329 6.0
vertex 4.48109785623975 -1.49556492679109 6.0
endloop
endfacet
facet normal 0.0 0.0 1.0
outer loop
vertex 4.48109785623975 -1.49556492679109 6.0
vertex 3.60359878148044 -3.87569194571329 6.0
vertex 4.22338140961221 -3.06797549908575 6.0
endloop
endfacet
facet normal 0.0 0.0 1.0
outer loop
vertex 4.48109785623975 -1.49556492679109 6.0
vertex 4.22338140961221 -3.06797549908575 6.0
vertex 5.03109785623975 -2.44819287095397 6.0
endloop
endfacet
facet normal 0.0 0.0 1.0
outer loop
vertex 4.48109785623975 -1.49556492679109 6.0
vertex 5.03109785623975 -2.44819287095397 6.0
vertex 5.68700263072714 -0.996062814267945 6.0
endloop
endfacet
facet normal 0.0 0.0 1.0
outer loop
vertex 5.68700263072714 -0.996062814267945 6.0
vertex 5.03109785623975 -2.44819287095397 6.0
vertex 5.97170358033992 -2.05858122318592 6.0
endloop
endfacet
facet normal 0.0 0.0 1.0
outer loop
vertex 5.68700263072714 -0.996062814267945 6.0
vertex 5.97170358033992 -2.05858122318592 6.0
vertex 6.98109785623975 -0.825691945713286 6.0
endloop
endfacet
facet normal 0.0 0.0 1.0
outer loop
vertex 6.98109785623975 -0.825691945713286 6.0
vertex 5.97170358033992 -2.05858122318592 6.0
vertex 6.98109785623975 -1.92569194571328 6.0
endloop
endfacet
facet normal 0.0 0.0 1.0
outer loop
vertex 6.98109785623975 -0.825691945713286 6.0
vertex 6.98109785623975 -1.92569194571328 6.0
vertex 7.99049213213958 -2.05858122318592 6.0
endloop
endfacet
facet normal 0.0 0.0 1.0
outer loop
vertex 6.98109785623975 -0.825691945713286 6.0
vertex 7.99049213213958 -2.05858122318592 6.0
vertex 8.27519308175235 -0.996062814267945 6.0
endloop
endfacet
facet normal 0.0 0.0 1.0
outer loop
vertex 8.27519308175235 -0.996062814267945 6.0
vertex 7.99049213213958 -2.05858122318592 6.0
vertex 8.93109785623975 -2.44819287095397 6.0
endloop
endfacet
facet normal 0.0 0.0 1.0
outer loop
vertex 8.27519308175235 -0.996062814267945 6.0
vertex 8.93109785623975 -2.44819287095397 6.0
vertex 9.48109785623975 -1.49556492679109 6.0
endloop
endfacet
facet normal 0.0 0.0 1.0
outer loop
vertex 9.48109785623975 -1.49556492679109 6.0
vertex 8.93109785623975 -2.44819287095397 6.0
vertex 9.73881430286728 -3.06797549908575 6.0
endloop
endfacet
facet normal 0.0 0.0 1.0
outer loop
vertex 9.48109785623975 -1.49556492679109 6.0
vertex 9.73881430286728 -3.06797549908575 6.0
vertex 10.5166317621725 -2.29015803978055 6.0
endloop
endfacet
facet normal 0.0 0.0 1.0
outer loop
vertex 10.5166317621725 -2.29015803978055 6.0
vertex 9.73881430286728 -3.06797549908575 6.0
vertex 10.3585969309991 -3.87569194571329 6.0
endloop
endfacet
facet normal 0.0 0.0 1.0
outer loop
vertex 10.5166317621725 -2.29015803978055 6.0
vertex 10.3585969309991 -3.87569194571329 6.0
vertex 10.7482085787671 -4.81629766981346 6.0
endloop
endfacet
facet normal 0.0 0.0 1.0
outer loop
vertex 10.5166317621725 -2.29015803978055 6.0
vertex 10.7482085787671 -4.81629766981346 6.0
vertex 11.3112248751619 -3.32569194571328 6.0
endloop
endfacet
facet normal 0.0 0.0 1.0
outer loop
vertex 11.3112248751619 -3.32569194571328 6.0
vertex 10.7482085787671 -4.81629766981346 6.0
vertex 10.8810978562397 -5.82569194571329 6.0
endloop
endfacet
facet normal -0.965925826289068 -0.258819045102521 0.0
outer loop
vertex 2.15146872479441 -7.11978717122589 6.0
vertex 2.65097083731756 -8.32569194571329 2.0
vertex 2.65097083731756 -8.32569194571329 6.0
endloop
endfacet
facet normal -0.866025403784438 -0.500000000000001 0.0
outer loop
vertex 2.65097083731756 -8.32569194571329 2.0
vertex 2.15146872479441 -7.11978717122589 6.0
vertex 2.15146872479441 -7.11978717122589 2.0
endloop
endfacet
facet normal 4.45555494782345e-017 1.0 0.0
outer loop
vertex 6.98109785623975 -0.825691945713286 6.0
vertex 8.27519308175235 -0.996062814267945 2.0
vertex 6.98109785623975 -0.825691945713286 2.0
endloop
endfacet
facet normal 0.258819045102521 0.965925826289068 0.0
outer loop
vertex 8.27519308175235 -0.996062814267945 2.0
vertex 6.98109785623975 -0.825691945713286 6.0
vertex 8.27519308175235 -0.996062814267945 6.0
endloop
endfacet
facet normal 0.5 -0.866025403784438 0.0
outer loop
vertex 9.48109785623975 -10.1558189646355 6.0
vertex 8.27519308175236 -10.6553210771586 2.0
vertex 9.48109785623975 -10.1558189646355 2.0
endloop
endfacet
facet normal 0.258819045102521 -0.965925826289068 0.0
outer loop
vertex 8.27519308175236 -10.6553210771586 2.0
vertex 9.48109785623975 -10.1558189646355 6.0
vertex 8.27519308175236 -10.6553210771586 6.0
endloop
endfacet
facet normal 0.866025403784439 -0.5 0.0
outer loop
vertex 11.3112248751619 -8.32569194571328 2.0
vertex 10.5166317621725 -9.36122585164602 6.0
vertex 10.5166317621725 -9.36122585164602 2.0
endloop
endfacet
facet normal 0.707106781186548 -0.707106781186547 0.0
outer loop
vertex 10.5166317621725 -9.36122585164602 6.0
vertex 11.3112248751619 -8.32569194571328 2.0
vertex 11.3112248751619 -8.32569194571328 6.0
endloop
endfacet
facet normal 0.707106781186547 0.707106781186548 0.0
outer loop
vertex 10.5166317621725 -2.29015803978055 2.0
vertex 11.3112248751619 -3.32569194571328 6.0
vertex 11.3112248751619 -3.32569194571328 2.0
endloop
endfacet
facet normal 0.866025403784439 0.5 0.0
outer loop
vertex 11.3112248751619 -3.32569194571328 6.0
vertex 10.5166317621725 -2.29015803978055 2.0
vertex 10.5166317621725 -2.29015803978055 6.0
endloop
endfacet
facet normal -0.499999999999999 -0.866025403784439 0.0
outer loop
vertex 4.48109785623975 -10.1558189646355 6.0
vertex 3.44556395030701 -9.36122585164602 2.0
vertex 4.48109785623975 -10.1558189646355 2.0
endloop
endfacet
facet normal -0.707106781186547 -0.707106781186548 0.0
outer loop
vertex 3.44556395030701 -9.36122585164602 2.0
vertex 4.48109785623975 -10.1558189646355 6.0
vertex 3.44556395030701 -9.36122585164602 6.0
endloop
endfacet
facet normal -0.965925826289068 0.258819045102521 0.0
outer loop
vertex 2.15146872479441 -4.53159672020068 6.0
vertex 1.98109785623975 -5.82569194571329 2.0
vertex 1.98109785623975 -5.82569194571329 6.0
endloop
endfacet
facet normal -1.0 -7.12888791651753e-017 0.0
outer loop
vertex 1.98109785623975 -5.82569194571329 2.0
vertex 2.15146872479441 -4.53159672020068 6.0
vertex 2.15146872479441 -4.53159672020068 2.0
endloop
endfacet
facet normal 0.258819045102521 -0.965925826289068 0.0
outer loop
vertex 8.27519308175236 -10.6553210771586 6.0
vertex 6.98109785623975 -10.8256919457133 2.0
vertex 8.27519308175236 -10.6553210771586 2.0
endloop
endfacet
facet normal 3.20799956243289e-016 -1.0 0.0
outer loop
vertex 6.98109785623975 -10.8256919457133 2.0
vertex 8.27519308175236 -10.6553210771586 6.0
vertex 6.98109785623975 -10.8256919457133 6.0
endloop
endfacet
facet normal 1.0 1.51488868225997e-016 0.0
outer loop
vertex 11.9810978562397 -5.82569194571329 2.0
vertex 11.8107269876851 -7.11978717122589 6.0
vertex 11.8107269876851 -7.11978717122589 2.0
endloop
endfacet
facet normal 0.965925826289068 -0.25881904510252 0.0
outer loop
vertex 11.8107269876851 -7.11978717122589 6.0
vertex 11.9810978562397 -5.82569194571329 2.0
vertex 11.9810978562397 -5.82569194571329 6.0
endloop
endfacet
facet normal -0.0 -0.0 1.0
outer loop
vertex 4.22338140961221 -8.58340839234082 8.0
vertex 4.44463132403731 -6.39695154608507 8.0
vertex 4.38162506087914 -5.77333560722316 8.0
endloop
endfacet
facet normal -0.0 -0.0 1.0
outer loop
vertex 4.44463132403731 -6.39695154608507 8.0
vertex 4.22338140961221 -8.58340839234082 8.0
vertex 5.03109785623975 -9.2031910204726 8.0
endloop
endfacet
facet normal -0.0 -0.0 1.0
outer loop
vertex 4.44463132403731 -6.39695154608507 8.0
vertex 5.03109785623975 -9.2031910204726 8.0
vertex 4.65504780236637 -6.98736795341753 8.0
endloop
endfacet
facet normal -0.0 -0.0 1.0
outer loop
vertex 4.65504780236637 -6.98736795341753 8.0
vertex 5.03109785623975 -9.2031910204726 8.0
vertex 5.00064585497863 -7.5102719737027 8.0
endloop
endfacet
facet normal -0.0 -0.0 1.0
outer loop
vertex 5.00064585497863 -7.5102719737027 8.0
vertex 5.03109785623975 -9.2031910204726 8.0
vertex 5.46134057925405 -7.93527432596038 8.0
endloop
endfacet
facet normal -0.0 -0.0 1.0
outer loop
vertex 5.46134057925405 -7.93527432596038 8.0
vertex 5.03109785623975 -9.2031910204726 8.0
vertex 5.97170358033992 -9.59280266824065 8.0
endloop
endfacet
facet normal -0.0 -0.0 1.0
outer loop
vertex 5.46134057925405 -7.93527432596038 8.0
vertex 5.97170358033992 -9.59280266824065 8.0
vertex 6.01035807237495 -8.23767541829806 8.0
endloop
endfacet
facet normal -0.0 -0.0 1.0
outer loop
vertex 6.01035807237495 -8.23767541829806 8.0
vertex 5.97170358033992 -9.59280266824065 8.0
vertex 6.98109785623975 -9.72569194571328 8.0
endloop
endfacet
facet normal -0.0 -0.0 1.0
outer loop
vertex 6.01035807237495 -8.23767541829806 8.0
vertex 6.98109785623975 -9.72569194571328 8.0
vertex 6.61579143323852 -8.39990079841231 8.0
endloop
endfacet
facet normal -0.0 -0.0 1.0
outer loop
vertex 6.61579143323852 -8.39990079841231 8.0
vertex 6.98109785623975 -9.72569194571328 8.0
vertex 7.24245507557211 -8.41252251687616 8.0
endloop
endfacet
facet normal -0.0 -0.0 1.0
outer loop
vertex 7.24245507557211 -8.41252251687616 8.0
vertex 6.98109785623975 -9.72569194571328 8.0
vertex 7.99049213213958 -9.59280266824065 8.0
endloop
endfacet
facet normal -0.0 -0.0 1.0
outer loop
vertex 7.24245507557211 -8.41252251687616 8.0
vertex 7.99049213213958 -9.59280266824065 8.0
vertex 7.85392958631293 -8.27480704529057 8.0
endloop
endfacet
facet normal -0.0 -0.0 1.0
outer loop
vertex 7.85392958631293 -8.27480704529057 8.0
vertex 7.99049213213958 -9.59280266824065 8.0
vertex 8.41467828951616 -7.99475790628872 8.0
endloop
endfacet
facet normal -0.0 -0.0 1.0
outer loop
vertex 8.41467828951616 -7.99475790628872 8.0
vertex 7.99049213213958 -9.59280266824065 8.0
vertex 8.93109785623975 -9.2031910204726 8.0
endloop
endfacet
facet normal -0.0 -0.0 1.0
outer loop
vertex 8.41467828951616 -7.99475790628872 8.0
vertex 8.93109785623975 -9.2031910204726 8.0
vertex 8.89211250879021 -7.58865053789219 8.0
endloop
endfacet
facet normal -0.0 -0.0 1.0
outer loop
vertex 8.89211250879021 -7.58865053789219 8.0
vertex 8.93109785623975 -9.2031910204726 8.0
vertex 9.25848550271366 -7.08008642421198 8.0
endloop
endfacet
facet normal -0.0 -0.0 1.0
outer loop
vertex 9.25848550271366 -7.08008642421198 8.0
vertex 8.93109785623975 -9.2031910204726 8.0
vertex 9.73881430286728 -8.58340839234082 8.0
endloop
endfacet
facet normal -0.0 -0.0 1.0
outer loop
vertex 9.25848550271366 -7.08008642421198 8.0
vertex 9.73881430286728 -8.58340839234082 8.0
vertex 9.49250500459133 -6.49862146297983 8.0
endloop
endfacet
facet normal -0.0 -0.0 1.0
outer loop
vertex 9.49250500459133 -6.49862146297983 8.0
vertex 9.73881430286728 -8.58340839234082 8.0
vertex 9.58057065160036 -5.87804828420342 8.0
endloop
endfacet
facet normal -0.0 -0.0 1.0
outer loop
vertex 3.21398713371238 -6.83508622161312 8.0
vertex 3.21398713371238 -4.81629766981346 8.0
vertex 3.08109785623975 -5.82569194571329 8.0
endloop
endfacet
facet normal -0.0 -0.0 1.0
outer loop
vertex 3.21398713371238 -4.81629766981346 8.0
vertex 3.21398713371238 -6.83508622161312 8.0
vertex 3.60359878148043 -3.87569194571329 8.0
endloop
endfacet
facet normal -0.0 -0.0 1.0
outer loop
vertex 3.60359878148043 -3.87569194571329 8.0
vertex 3.21398713371238 -6.83508622161312 8.0
vertex 3.60359878148044 -7.77569194571329 8.0
endloop
endfacet
facet normal -0.0 -0.0 1.0
outer loop
vertex 3.60359878148043 -3.87569194571329 8.0
vertex 3.60359878148044 -7.77569194571329 8.0
vertex 4.22338140961221 -3.06797549908575 8.0
endloop
endfacet
facet normal -0.0 -0.0 1.0
outer loop
vertex 4.22338140961221 -3.06797549908575 8.0
vertex 3.60359878148044 -7.77569194571329 8.0
vertex 4.22338140961221 -8.58340839234082 8.0
endloop
endfacet
facet normal -0.0 -0.0 1.0
outer loop
vertex 4.22338140961221 -3.06797549908575 8.0
vertex 4.22338140961221 -8.58340839234082 8.0
vertex 4.38162506087914 -5.77333560722316 8.0
endloop
endfacet
facet normal -0.0 -0.0 1.0
outer loop
vertex 4.22338140961221 -3.06797549908575 8.0
vertex 4.38162506087914 -5.77333560722316 8.0
vertex 4.46969070788816 -5.15276242844675 8.0
endloop
endfacet
facet normal -0.0 -0.0 1.0
outer loop
vertex 4.22338140961221 -3.06797549908575 8.0
vertex 4.46969070788816 -5.15276242844675 8.0
vertex 5.03109785623975 -2.44819287095397 8.0
endloop
endfacet
facet normal -0.0 -0.0 1.0
outer loop
vertex 5.03109785623975 -2.44819287095397 8.0
vertex 4.46969070788816 -5.15276242844675 8.0
vertex 4.70371020976584 -4.57129746721459 8.0
endloop
endfacet
facet normal -0.0 -0.0 1.0
outer loop
vertex 5.03109785623975 -2.44819287095397 8.0
vertex 4.70371020976584 -4.57129746721459 8.0
vertex 5.07008320368929 -4.06273335353438 8.0
endloop
endfacet
facet normal -0.0 -0.0 1.0
outer loop
vertex 5.03109785623975 -2.44819287095397 8.0
vertex 5.07008320368929 -4.06273335353438 8.0
vertex 5.97170358033992 -2.05858122318592 8.0
endloop
endfacet
facet normal -0.0 -0.0 1.0
outer loop
vertex 5.97170358033992 -2.05858122318592 8.0
vertex 5.07008320368929 -4.06273335353438 8.0
vertex 5.54751742296334 -3.65662598513785 8.0
endloop
endfacet
facet normal -0.0 -0.0 1.0
outer loop
vertex 5.97170358033992 -2.05858122318592 8.0
vertex 5.54751742296334 -3.65662598513785 8.0
vertex 6.10826612616657 -3.376576846136 8.0
endloop
endfacet
facet normal -0.0 -0.0 1.0
outer loop
vertex 5.97170358033992 -2.05858122318592 8.0
vertex 6.10826612616657 -3.376576846136 8.0
vertex 6.98109785623975 -1.92569194571328 8.0
endloop
endfacet
facet normal -0.0 -0.0 1.0
outer loop
vertex 6.98109785623975 -1.92569194571328 8.0
vertex 6.10826612616657 -3.376576846136 8.0
vertex 6.7197406369074 -3.23886137455041 8.0
endloop
endfacet
facet normal -0.0 -0.0 1.0
outer loop
vertex 6.98109785623975 -1.92569194571328 8.0
vertex 6.7197406369074 -3.23886137455041 8.0
vertex 7.34640427924098 -3.25148309301426 8.0
endloop
endfacet
facet normal -0.0 -0.0 1.0
outer loop
vertex 6.98109785623975 -1.92569194571328 8.0
vertex 7.34640427924098 -3.25148309301426 8.0
vertex 7.99049213213958 -2.05858122318592 8.0
endloop
endfacet
facet normal -0.0 -0.0 1.0
outer loop
vertex 7.99049213213958 -2.05858122318592 8.0
vertex 7.34640427924098 -3.25148309301426 8.0
vertex 7.95183764010455 -3.41370847312851 8.0
endloop
endfacet
facet normal -0.0 -0.0 1.0
outer loop
vertex 7.99049213213958 -2.05858122318592 8.0
vertex 7.95183764010455 -3.41370847312851 8.0
vertex 8.50085513322545 -3.71610956546619 8.0
endloop
endfacet
facet normal -0.0 -0.0 1.0
outer loop
vertex 7.99049213213958 -2.05858122318592 8.0
vertex 8.50085513322545 -3.71610956546619 8.0
vertex 8.93109785623975 -2.44819287095397 8.0
endloop
endfacet
facet normal -0.0 -0.0 1.0
outer loop
vertex 8.93109785623975 -2.44819287095397 8.0
vertex 8.50085513322545 -3.71610956546619 8.0
vertex 8.96154985750088 -4.14111191772388 8.0
endloop
endfacet
facet normal -0.0 -0.0 1.0
outer loop
vertex 8.93109785623975 -2.44819287095397 8.0
vertex 8.96154985750088 -4.14111191772388 8.0
vertex 9.73881430286728 -3.06797549908575 8.0
endloop
endfacet
facet normal -0.0 -0.0 1.0
outer loop
vertex 9.73881430286728 -3.06797549908575 8.0
vertex 8.96154985750088 -4.14111191772388 8.0
vertex 9.30714791011313 -4.66401593800905 8.0
endloop
endfacet
facet normal -0.0 -0.0 1.0
outer loop
vertex 9.73881430286728 -3.06797549908575 8.0
vertex 9.30714791011313 -4.66401593800905 8.0
vertex 9.51756438844219 -5.25443234534151 8.0
endloop
endfacet
facet normal -0.0 -0.0 1.0
outer loop
vertex 9.73881430286728 -3.06797549908575 8.0
vertex 9.51756438844219 -5.25443234534151 8.0
vertex 9.58057065160036 -5.87804828420342 8.0
endloop
endfacet
facet normal -0.0 -0.0 1.0
outer loop
vertex 9.73881430286728 -3.06797549908575 8.0
vertex 9.58057065160036 -5.87804828420342 8.0
vertex 9.73881430286728 -8.58340839234082 8.0
endloop
endfacet
facet normal -0.0 -0.0 1.0
outer loop
vertex 9.73881430286728 -3.06797549908575 8.0
vertex 9.73881430286728 -8.58340839234082 8.0
vertex 10.3585969309991 -7.77569194571329 8.0
endloop
endfacet
facet normal -0.0 -0.0 1.0
outer loop
vertex 9.73881430286728 -3.06797549908575 8.0
vertex 10.3585969309991 -7.77569194571329 8.0
vertex 10.3585969309991 -3.87569194571329 8.0
endloop
endfacet
facet normal -0.0 -0.0 1.0
outer loop
vertex 10.3585969309991 -3.87569194571329 8.0
vertex 10.3585969309991 -7.77569194571329 8.0
vertex 10.7482085787671 -6.83508622161312 8.0
endloop
endfacet
facet normal -0.0 -0.0 1.0
outer loop
vertex 10.3585969309991 -3.87569194571329 8.0
vertex 10.7482085787671 -6.83508622161312 8.0
vertex 10.7482085787671 -4.81629766981346 8.0
endloop
endfacet
facet normal -0.0 -0.0 1.0
outer loop
vertex 10.7482085787671 -4.81629766981346 8.0
vertex 10.7482085787671 -6.83508622161312 8.0
vertex 10.8810978562397 -5.82569194571329 8.0
endloop
endfacet
facet normal 0.707106781186548 -0.707106781186547 0.0
outer loop
vertex 10.5166317621725 -9.36122585164602 6.0
vertex 9.48109785623975 -10.1558189646355 2.0
vertex 10.5166317621725 -9.36122585164602 2.0
endloop
endfacet
facet normal 0.5 -0.866025403784438 0.0
outer loop
vertex 9.48109785623975 -10.1558189646355 2.0
vertex 10.5166317621725 -9.36122585164602 6.0
vertex 9.48109785623975 -10.1558189646355 6.0
endloop
endfacet
facet normal -0.866025403784438 -0.500000000000001 0.0
outer loop
vertex 2.65097083731756 -8.32569194571329 6.0
vertex 3.44556395030701 -9.36122585164602 2.0
vertex 3.44556395030701 -9.36122585164602 6.0
endloop
endfacet
facet normal -0.707106781186547 -0.707106781186548 0.0
outer loop
vertex 3.44556395030701 -9.36122585164602 2.0
vertex 2.65097083731756 -8.32569194571329 6.0
vertex 2.65097083731756 -8.32569194571329 2.0
endloop
endfacet
facet normal -0.707106781186548 0.707106781186547 0.0
outer loop
vertex 3.44556395030701 -2.29015803978055 6.0
vertex 2.65097083731755 -3.32569194571329 2.0
vertex 2.65097083731755 -3.32569194571329 6.0
endloop
endfacet
facet normal -0.866025403784439 0.5 0.0
outer loop
vertex 2.65097083731755 -3.32569194571329 2.0
vertex 3.44556395030701 -2.29015803978055 6.0
vertex 3.44556395030701 -2.29015803978055 2.0
endloop
endfacet
facet normal -0.866025403784439 0.5 0.0
outer loop
vertex 2.65097083731755 -3.32569194571329 6.0
vertex 2.15146872479441 -4.53159672020068 2.0
vertex 2.15146872479441 -4.53159672020068 6.0
endloop
endfacet
facet normal -0.965925826289068 0.258819045102521 0.0
outer loop
vertex 2.15146872479441 -4.53159672020068 2.0
vertex 2.65097083731755 -3.32569194571329 6.0
vertex 2.65097083731755 -3.32569194571329 2.0
endloop
endfacet
facet normal -0.25881904510252 -0.965925826289068 0.0
outer loop
vertex 5.68700263072715 -10.6553210771586 6.0
vertex 4.48109785623975 -10.1558189646355 2.0
vertex 5.68700263072715 -10.6553210771586 2.0
endloop
endfacet
facet normal -0.499999999999999 -0.866025403784439 0.0
outer loop
vertex 4.48109785623975 -10.1558189646355 2.0
vertex 5.68700263072715 -10.6553210771586 6.0
vertex 4.48109785623975 -10.1558189646355 6.0
endloop
endfacet
facet normal 0.965925826289068 -0.25881904510252 0.0
outer loop
vertex 11.8107269876851 -7.11978717122589 2.0
vertex 11.3112248751619 -8.32569194571328 6.0
vertex 11.3112248751619 -8.32569194571328 2.0
endloop
endfacet
facet normal 0.866025403784439 -0.5 0.0
outer loop
vertex 11.3112248751619 -8.32569194571328 6.0
vertex 11.8107269876851 -7.11978717122589 2.0
vertex 11.8107269876851 -7.11978717122589 6.0
endloop
endfacet
facet normal 0.5 0.866025403784439 0.0
outer loop
vertex 9.48109785623975 -1.49556492679109 6.0
vertex 10.5166317621725 -2.29015803978055 2.0
vertex 9.48109785623975 -1.49556492679109 2.0
endloop
endfacet
facet normal 0.707106781186547 0.707106781186548 0.0
outer loop
vertex 10.5166317621725 -2.29015803978055 2.0
vertex 9.48109785623975 -1.49556492679109 6.0
vertex 10.5166317621725 -2.29015803978055 6.0
endloop
endfacet
facet normal 0.866025403784438 -0.5 8.54007820145781e-017
outer loop
vertex 10.3585969309991 -7.77569194571329 6.0
vertex 9.73881430286728 -8.58340839234082 8.0
vertex 9.73881430286728 -8.58340839234082 6.0
endloop
endfacet
facet normal 0.707106781186547 -0.707106781186548 2.8998578621917e-017
outer loop
vertex 9.73881430286728 -8.58340839234082 8.0
vertex 10.3585969309991 -7.77569194571329 6.0
vertex 10.3585969309991 -7.77569194571329 8.0
endloop
endfacet
facet normal 0.258819045102521 0.965925826289068 8.13776753686666e-017
outer loop
vertex 7.99049213213958 -2.05858122318592 8.0
vertex 8.93109785623975 -2.44819287095397 6.0
vertex 7.99049213213958 -2.05858122318592 6.0
endloop
endfacet
facet normal 0.5 0.866025403784439 2.84383142310252e-017
outer loop
vertex 8.93109785623975 -2.44819287095397 6.0
vertex 7.99049213213958 -2.05858122318592 8.0
vertex 8.93109785623975 -2.44819287095397 8.0
endloop
endfacet
facet normal 0.707106781186548 0.707106781186548 3.01295336881207e-017
outer loop
vertex 9.73881430286728 -3.06797549908575 6.0
vertex 10.3585969309991 -3.87569194571329 8.0
vertex 10.3585969309991 -3.87569194571329 6.0
endloop
endfacet
facet normal 0.866025403784439 0.5 1.49164961325117e-016
outer loop
vertex 10.3585969309991 -3.87569194571329 8.0
vertex 9.73881430286728 -3.06797549908575 6.0
vertex 9.73881430286728 -3.06797549908575 8.0
endloop
endfacet
facet normal -0.707106781186547 -0.707106781186548 7.59119991907312e-017
outer loop
vertex 4.22338140961221 -8.58340839234082 8.0
vertex 3.60359878148044 -7.77569194571329 6.0
vertex 4.22338140961222 -8.58340839234082 6.0
endloop
endfacet
facet normal -0.866025403784438 -0.500000000000001 1.28769280475647e-017
outer loop
vertex 3.60359878148044 -7.77569194571329 6.0
vertex 4.22338140961221 -8.58340839234082 8.0
vertex 3.60359878148044 -7.77569194571329 8.0
endloop
endfacet
facet normal 0.965925826289068 0.258819045102521 1.42642257438286e-016
outer loop
vertex 10.7482085787671 -4.81629766981346 6.0
vertex 10.8810978562397 -5.82569194571329 8.0
vertex 10.8810978562397 -5.82569194571329 6.0
endloop
endfacet
facet normal 1.0 -1.42577758330351e-016 5.28941425336329e-017
outer loop
vertex 10.8810978562397 -5.82569194571329 8.0
vertex 10.7482085787671 -4.81629766981346 6.0
vertex 10.7482085787671 -4.81629766981346 8.0
endloop
endfacet
facet normal 1.0 -2.49511077078113e-016 5.28941425336328e-017
outer loop
vertex 10.8810978562397 -5.82569194571329 6.0
vertex 10.7482085787671 -6.83508622161312 8.0
vertex 10.7482085787671 -6.83508622161312 6.0
endloop
endfacet
facet normal 0.965925826289068 -0.258819045102521 6.71413110640671e-017
outer loop
vertex 10.7482085787671 -6.83508622161312 8.0
vertex 10.8810978562397 -5.82569194571329 6.0
vertex 10.8810978562397 -5.82569194571329 8.0
endloop
endfacet
facet normal -0.965925826289068 -0.258819045102522 4.21491794862557e-017
outer loop
vertex 3.21398713371238 -6.83508622161312 8.0
vertex 3.08109785623975 -5.82569194571329 6.0
vertex 3.21398713371238 -6.83508622161312 6.0
endloop
endfacet
facet normal -1.0 -1.47924424267739e-015 -2.24585157397723e-017
outer loop
vertex 3.08109785623975 -5.82569194571329 6.0
vertex 3.21398713371238 -6.83508622161312 8.0
vertex 3.08109785623975 -5.82569194571329 8.0
endloop
endfacet
facet normal 0.25881904510252 -0.965925826289068 7.87644645999607e-017
outer loop
vertex 7.99049213213958 -9.59280266824065 8.0
vertex 6.98109785623975 -9.72569194571328 6.0
vertex 7.99049213213958 -9.59280266824065 6.0
endloop
endfacet
facet normal 1.1584442864341e-016 -1.0 9.99262676572497e-017
outer loop
vertex 6.98109785623975 -9.72569194571328 6.0
vertex 7.99049213213958 -9.59280266824065 8.0
vertex 6.98109785623975 -9.72569194571328 8.0
endloop
endfacet
facet normal 0.499999999999999 -0.866025403784439 3.0153679987543e-017
outer loop
vertex 8.93109785623975 -9.2031910204726 8.0
vertex 7.99049213213958 -9.59280266824065 6.0
vertex 8.93109785623975 -9.2031910204726 6.0
endloop
endfacet
facet normal 0.258819045102521 -0.965925826289068 7.87644645999607e-017
outer loop
vertex 7.99049213213958 -9.59280266824065 6.0
vertex 8.93109785623975 -9.2031910204726 8.0
vertex 7.99049213213958 -9.59280266824065 8.0
endloop
endfacet
facet normal -1.1584442864341e-016 -1.0 9.99262676572497e-017
outer loop
vertex 6.98109785623975 -9.72569194571328 8.0
vertex 5.97170358033992 -9.59280266824065 6.0
vertex 6.98109785623975 -9.72569194571328 6.0
endloop
endfacet
facet normal -0.25881904510252 -0.965925826289068 1.31310644933366e-016
outer loop
vertex 5.97170358033992 -9.59280266824065 6.0
vertex 6.98109785623975 -9.72569194571328 8.0
vertex 5.97170358033992 -9.59280266824065 8.0
endloop
endfacet
facet normal -0.707106781186548 0.707106781186547 1.31556732194238e-016
outer loop
vertex 4.22338140961221 -3.06797549908575 8.0
vertex 5.03109785623975 -2.44819287095397 6.0
vertex 4.22338140961221 -3.06797549908575 6.0
endloop
endfacet
facet normal -0.5 0.866025403784439 6.2410680406515e-017
outer loop
vertex 5.03109785623975 -2.44819287095397 6.0
vertex 4.22338140961221 -3.06797549908575 8.0
vertex 5.03109785623975 -2.44819287095397 8.0
endloop
endfacet
facet normal -0.866025403784438 -0.500000000000001 1.28769280475647e-017
outer loop
vertex 3.60359878148044 -7.77569194571329 8.0
vertex 3.21398713371238 -6.83508622161312 6.0
vertex 3.60359878148044 -7.77569194571329 6.0
endloop
endfacet
facet normal -0.965925826289068 -0.258819045102522 4.21491794862557e-017
outer loop
vertex 3.21398713371238 -6.83508622161312 6.0
vertex 3.60359878148044 -7.77569194571329 8.0
vertex 3.21398713371238 -6.83508622161312 8.0
endloop
endfacet
facet normal -0.5 0.866025403784439 6.2410680406515e-017
outer loop
vertex 5.03109785623975 -2.44819287095397 8.0
vertex 5.97170358033992 -2.05858122318592 6.0
vertex 5.03109785623975 -2.44819287095397 6.0
endloop
endfacet
facet normal -0.258819045102521 0.965925826289068 4.58529994248746e-017
outer loop
vertex 5.97170358033992 -2.05858122318592 6.0
vertex 5.03109785623975 -2.44819287095397 8.0
vertex 5.97170358033992 -2.05858122318592 8.0
endloop
endfacet
facet normal 0.866025403784439 0.5 1.49164961325117e-016
outer loop
vertex 10.3585969309991 -3.87569194571329 6.0
vertex 10.7482085787671 -4.81629766981346 8.0
vertex 10.7482085787671 -4.81629766981346 6.0
endloop
endfacet
facet normal 0.965925826289068 0.258819045102521 1.42642257438286e-016
outer loop
vertex 10.7482085787671 -4.81629766981346 8.0
vertex 10.3585969309991 -3.87569194571329 6.0
vertex 10.3585969309991 -3.87569194571329 8.0
endloop
endfacet
facet normal -4.63377714573639e-016 1.0 5.2894142533633e-017
outer loop
vertex 6.98109785623975 -1.92569194571328 8.0
vertex 7.99049213213958 -2.05858122318592 6.0
vertex 6.98109785623975 -1.92569194571328 6.0
endloop
endfacet
facet normal 0.25881904510252 0.965925826289068 8.13776753686666e-017
outer loop
vertex 7.99049213213958 -2.05858122318592 6.0
vertex 6.98109785623975 -1.92569194571328 8.0
vertex 7.99049213213958 -2.05858122318592 8.0
endloop
endfacet
facet normal 0.5 0.866025403784439 2.84383142310252e-017
outer loop
vertex 8.93109785623975 -2.44819287095397 8.0
vertex 9.73881430286728 -3.06797549908575 6.0
vertex 8.93109785623975 -2.44819287095397 6.0
endloop
endfacet
facet normal 0.707106781186548 0.707106781186548 3.01295336881207e-017
outer loop
vertex 9.73881430286728 -3.06797549908575 6.0
vertex 8.93109785623975 -2.44819287095397 8.0
vertex 9.73881430286728 -3.06797549908575 8.0
endloop
endfacet
facet normal 0.707106781186547 -0.707106781186548 2.8998578621917e-017
outer loop
vertex 9.73881430286728 -8.58340839234082 8.0
vertex 8.93109785623975 -9.2031910204726 6.0
vertex 9.73881430286728 -8.58340839234082 6.0
endloop
endfacet
facet normal 0.499999999999999 -0.866025403784439 3.0153679987543e-017
outer loop
vertex 8.93109785623975 -9.2031910204726 6.0
vertex 9.73881430286728 -8.58340839234082 8.0
vertex 8.93109785623975 -9.2031910204726 8.0
endloop
endfacet
facet normal -0.258819045102521 0.965925826289068 4.58529994248746e-017
outer loop
vertex 5.97170358033992 -2.05858122318592 8.0
vertex 6.98109785623975 -1.92569194571328 6.0
vertex 5.97170358033992 -2.05858122318592 6.0
endloop
endfacet
facet normal -5.79222143217049e-016 1.0 5.2894142533633e-017
outer loop
vertex 6.98109785623975 -1.92569194571328 6.0
vertex 5.97170358033992 -2.05858122318592 8.0
vertex 6.98109785623975 -1.92569194571328 8.0
endloop
endfacet
facet normal -0.5 -0.866025403784439 1.39575609096776e-016
outer loop
vertex 5.03109785623975 -9.2031910204726 8.0
vertex 4.22338140961222 -8.58340839234082 6.0
vertex 5.03109785623975 -9.2031910204726 6.0
endloop
endfacet
facet normal -0.707106781186547 -0.707106781186548 7.59119991907312e-017
outer loop
vertex 4.22338140961222 -8.58340839234082 6.0
vertex 5.03109785623975 -9.2031910204726 8.0
vertex 4.22338140961221 -8.58340839234082 8.0
endloop
endfacet
facet normal -0.866025403784439 0.499999999999999 1.12181171436725e-016
outer loop
vertex 3.60359878148043 -3.87569194571329 8.0
vertex 3.21398713371238 -4.81629766981346 6.0
vertex 3.21398713371238 -4.81629766981346 8.0
endloop
endfacet
facet normal -0.965925826289068 0.25881904510252 -5.23772124798968e-017
outer loop
vertex 3.21398713371238 -4.81629766981346 6.0
vertex 3.60359878148043 -3.87569194571329 8.0
vertex 3.60359878148044 -3.87569194571329 6.0
endloop
endfacet
facet normal 0.965925826289068 -0.258819045102521 6.71413110640671e-017
outer loop
vertex 10.7482085787671 -6.83508622161312 6.0
vertex 10.3585969309991 -7.77569194571329 8.0
vertex 10.3585969309991 -7.77569194571329 6.0
endloop
endfacet
facet normal 0.866025403784439 -0.5 8.54007820145781e-017
outer loop
vertex 10.3585969309991 -7.77569194571329 8.0
vertex 10.7482085787671 -6.83508622161312 6.0
vertex 10.7482085787671 -6.83508622161312 8.0
endloop
endfacet
facet normal -1.0 -1.23864427549492e-015 -2.24585157397725e-017
outer loop
vertex 3.08109785623975 -5.82569194571329 8.0
vertex 3.21398713371238 -4.81629766981346 6.0
vertex 3.08109785623975 -5.82569194571329 6.0
endloop
endfacet
facet normal -0.965925826289068 0.25881904510252 -5.23772124798968e-017
outer loop
vertex 3.21398713371238 -4.81629766981346 6.0
vertex 3.08109785623975 -5.82569194571329 8.0
vertex 3.21398713371238 -4.81629766981346 8.0
endloop
endfacet
facet normal -0.258819045102521 -0.965925826289068 1.31310644933366e-016
outer loop
vertex 5.97170358033992 -9.59280266824065 8.0
vertex 5.03109785623975 -9.2031910204726 6.0
vertex 5.97170358033992 -9.59280266824065 6.0
endloop
endfacet
facet normal -0.5 -0.866025403784439 1.39575609096776e-016
outer loop
vertex 5.03109785623975 -9.2031910204726 6.0
vertex 5.97170358033992 -9.59280266824065 8.0
vertex 5.03109785623975 -9.2031910204726 8.0
endloop
endfacet
facet normal 0.0 0.0 -1.0
outer loop
vertex 2.15146872479441 -4.53159672020068 2.0
vertex 2.15146872479441 -7.11978717122589 2.0
vertex 1.98109785623975 -5.82569194571329 2.0
endloop
endfacet
facet normal 0.0 0.0 -1.0
outer loop
vertex 2.15146872479441 -7.11978717122589 2.0
vertex 2.15146872479441 -4.53159672020068 2.0
vertex 2.65097083731755 -3.32569194571329 2.0
endloop
endfacet
facet normal 0.0 0.0 -1.0
outer loop
vertex 2.15146872479441 -7.11978717122589 2.0
vertex 2.65097083731755 -3.32569194571329 2.0
vertex 2.65097083731756 -8.32569194571329 2.0
endloop
endfacet
facet normal 0.0 0.0 -1.0
outer loop
vertex 2.65097083731756 -8.32569194571329 2.0
vertex 2.65097083731755 -3.32569194571329 2.0
vertex 3.44556395030701 -2.29015803978055 2.0
endloop
endfacet
facet normal 0.0 0.0 -1.0
outer loop
vertex 2.65097083731756 -8.32569194571329 2.0
vertex 3.44556395030701 -2.29015803978055 2.0
vertex 3.44556395030701 -9.36122585164602 2.0
endloop
endfacet
facet normal 0.0 0.0 -1.0
outer loop
vertex 3.44556395030701 -9.36122585164602 2.0
vertex 3.44556395030701 -2.29015803978055 2.0
vertex 4.48109785623975 -1.49556492679109 2.0
endloop
endfacet
facet normal 0.0 0.0 -1.0
outer loop
vertex 3.44556395030701 -9.36122585164602 2.0
vertex 4.48109785623975 -1.49556492679109 2.0
vertex 4.38162506087914 -5.77333560722315 2.0
endloop
endfacet
facet normal 0.0 0.0 -1.0
outer loop
vertex 4.38162506087914 -5.77333560722315 2.0
vertex 4.48109785623975 -1.49556492679109 2.0
vertex 4.46969070788817 -5.15276242844674 2.0
endloop
endfacet
facet normal 0.0 0.0 -1.0
outer loop
vertex 4.46969070788817 -5.15276242844674 2.0
vertex 4.48109785623975 -1.49556492679109 2.0
vertex 4.70371020976584 -4.57129746721459 2.0
endloop
endfacet
facet normal 0.0 0.0 -1.0
outer loop
vertex 4.70371020976584 -4.57129746721459 2.0
vertex 4.48109785623975 -1.49556492679109 2.0
vertex 5.68700263072714 -0.996062814267945 2.0
endloop
endfacet
facet normal 0.0 0.0 -1.0
outer loop
vertex 4.70371020976584 -4.57129746721459 2.0
vertex 5.68700263072714 -0.996062814267945 2.0
vertex 5.07008320368929 -4.06273335353437 2.0
endloop
endfacet
facet normal 0.0 0.0 -1.0
outer loop
vertex 5.07008320368929 -4.06273335353437 2.0
vertex 5.68700263072714 -0.996062814267945 2.0
vertex 5.54751742296335 -3.65662598513785 2.0
endloop
endfacet
facet normal 0.0 0.0 -1.0
outer loop
vertex 5.54751742296335 -3.65662598513785 2.0
vertex 5.68700263072714 -0.996062814267945 2.0
vertex 6.10826612616657 -3.376576846136 2.0
endloop
endfacet
facet normal 0.0 0.0 -1.0
outer loop
vertex 6.10826612616657 -3.376576846136 2.0
vertex 5.68700263072714 -0.996062814267945 2.0
vertex 6.98109785623975 -0.825691945713286 2.0
endloop
endfacet
facet normal 0.0 0.0 -1.0
outer loop
vertex 6.10826612616657 -3.376576846136 2.0
vertex 6.98109785623975 -0.825691945713286 2.0
vertex 6.7197406369074 -3.23886137455041 2.0
endloop
endfacet
facet normal 0.0 0.0 -1.0
outer loop
vertex 6.7197406369074 -3.23886137455041 2.0
vertex 6.98109785623975 -0.825691945713286 2.0
vertex 7.34640427924098 -3.25148309301426 2.0
endloop
endfacet
facet normal 0.0 0.0 -1.0
outer loop
vertex 7.34640427924098 -3.25148309301426 2.0
vertex 6.98109785623975 -0.825691945713286 2.0
vertex 8.27519308175235 -0.996062814267945 2.0
endloop
endfacet
facet normal 0.0 0.0 -1.0
outer loop
vertex 7.34640427924098 -3.25148309301426 2.0
vertex 8.27519308175235 -0.996062814267945 2.0
vertex 7.95183764010455 -3.41370847312851 2.0
endloop
endfacet
facet normal 0.0 0.0 -1.0
outer loop
vertex 7.95183764010455 -3.41370847312851 2.0
vertex 8.27519308175235 -0.996062814267945 2.0
vertex 8.50085513322545 -3.71610956546619 2.0
endloop
endfacet
facet normal 0.0 0.0 -1.0
outer loop
vertex 8.50085513322545 -3.71610956546619 2.0
vertex 8.27519308175235 -0.996062814267945 2.0
vertex 9.48109785623975 -1.49556492679109 2.0
endloop
endfacet
facet normal 0.0 0.0 -1.0
outer loop
vertex 8.50085513322545 -3.71610956546619 2.0
vertex 9.48109785623975 -1.49556492679109 2.0
vertex 8.96154985750088 -4.14111191772388 2.0
endloop
endfacet
facet normal 0.0 0.0 -1.0
outer loop
vertex 8.96154985750088 -4.14111191772388 2.0
vertex 9.48109785623975 -1.49556492679109 2.0
vertex 9.30714791011313 -4.66401593800905 2.0
endloop
endfacet
facet normal 0.0 0.0 -1.0
outer loop
vertex 9.30714791011313 -4.66401593800905 2.0
vertex 9.48109785623975 -1.49556492679109 2.0
vertex 9.51756438844219 -5.25443234534151 2.0
endloop
endfacet
facet normal 0.0 0.0 -1.0
outer loop
vertex 9.51756438844219 -5.25443234534151 2.0
vertex 9.48109785623975 -1.49556492679109 2.0
vertex 10.5166317621725 -2.29015803978055 2.0
endloop
endfacet
facet normal 0.0 0.0 -1.0
outer loop
vertex 9.51756438844219 -5.25443234534151 2.0
vertex 10.5166317621725 -2.29015803978055 2.0
vertex 9.58057065160036 -5.87804828420342 2.0
endloop
endfacet
facet normal 0.0 0.0 -1.0
outer loop
vertex 4.38162506087914 -5.77333560722315 2.0
vertex 4.48109785623975 -10.1558189646355 2.0
vertex 3.44556395030701 -9.36122585164602 2.0
endloop
endfacet
facet normal 0.0 0.0 -1.0
outer loop
vertex 4.48109785623975 -10.1558189646355 2.0
vertex 4.38162506087914 -5.77333560722315 2.0
vertex 4.4446313240373 -6.39695154608506 2.0
endloop
endfacet
facet normal 0.0 0.0 -1.0
outer loop
vertex 4.48109785623975 -10.1558189646355 2.0
vertex 4.4446313240373 -6.39695154608506 2.0
vertex 4.65504780236637 -6.98736795341752 2.0
endloop
endfacet
facet normal 0.0 0.0 -1.0
outer loop
vertex 4.48109785623975 -10.1558189646355 2.0
vertex 4.65504780236637 -6.98736795341752 2.0
vertex 5.68700263072715 -10.6553210771586 2.0
endloop
endfacet
facet normal 0.0 0.0 -1.0
outer loop
vertex 5.68700263072715 -10.6553210771586 2.0
vertex 4.65504780236637 -6.98736795341752 2.0
vertex 5.00064585497862 -7.51027197370269 2.0
endloop
endfacet
facet normal 0.0 0.0 -1.0
outer loop
vertex 5.68700263072715 -10.6553210771586 2.0
vertex 5.00064585497862 -7.51027197370269 2.0
vertex 5.46134057925404 -7.93527432596038 2.0
endloop
endfacet
facet normal 0.0 0.0 -1.0
outer loop
vertex 5.68700263072715 -10.6553210771586 2.0
vertex 5.46134057925404 -7.93527432596038 2.0
vertex 6.01035807237494 -8.23767541829806 2.0
endloop
endfacet
facet normal 0.0 0.0 -1.0
outer loop
vertex 5.68700263072715 -10.6553210771586 2.0
vertex 6.01035807237494 -8.23767541829806 2.0
vertex 6.98109785623975 -10.8256919457133 2.0
endloop
endfacet
facet normal 0.0 0.0 -1.0
outer loop
vertex 6.98109785623975 -10.8256919457133 2.0
vertex 6.01035807237494 -8.23767541829806 2.0
vertex 6.61579143323851 -8.39990079841231 2.0
endloop
endfacet
facet normal 0.0 0.0 -1.0
outer loop
vertex 6.98109785623975 -10.8256919457133 2.0
vertex 6.61579143323851 -8.39990079841231 2.0
vertex 7.24245507557211 -8.41252251687616 2.0
endloop
endfacet
facet normal 0.0 0.0 -1.0
outer loop
vertex 6.98109785623975 -10.8256919457133 2.0
vertex 7.24245507557211 -8.41252251687616 2.0
vertex 8.27519308175236 -10.6553210771586 2.0
endloop
endfacet
facet normal 0.0 0.0 -1.0
outer loop
vertex 8.27519308175236 -10.6553210771586 2.0
vertex 7.24245507557211 -8.41252251687616 2.0
vertex 7.85392958631293 -8.27480704529057 2.0
endloop
endfacet
facet normal 0.0 0.0 -1.0
outer loop
vertex 8.27519308175236 -10.6553210771586 2.0
vertex 7.85392958631293 -8.27480704529057 2.0
vertex 8.41467828951616 -7.99475790628872 2.0
endloop
endfacet
facet normal 0.0 0.0 -1.0
outer loop
vertex 8.27519308175236 -10.6553210771586 2.0
vertex 8.41467828951616 -7.99475790628872 2.0
vertex 9.48109785623975 -10.1558189646355 2.0
endloop
endfacet
facet normal 0.0 0.0 -1.0
outer loop
vertex 9.48109785623975 -10.1558189646355 2.0
vertex 8.41467828951616 -7.99475790628872 2.0
vertex 8.89211250879021 -7.58865053789219 2.0
endloop
endfacet
facet normal 0.0 0.0 -1.0
outer loop
vertex 9.48109785623975 -10.1558189646355 2.0
vertex 8.89211250879021 -7.58865053789219 2.0
vertex 9.25848550271366 -7.08008642421198 2.0
endloop
endfacet
facet normal 0.0 0.0 -1.0
outer loop
vertex 9.48109785623975 -10.1558189646355 2.0
vertex 9.25848550271366 -7.08008642421198 2.0
vertex 9.49250500459133 -6.49862146297983 2.0
endloop
endfacet
facet normal 0.0 0.0 -1.0
outer loop
vertex 9.48109785623975 -10.1558189646355 2.0
vertex 9.49250500459133 -6.49862146297983 2.0
vertex 10.5166317621725 -9.36122585164602 2.0
endloop
endfacet
facet normal 0.0 0.0 -1.0
outer loop
vertex 10.5166317621725 -9.36122585164602 2.0
vertex 9.49250500459133 -6.49862146297983 2.0
vertex 9.58057065160036 -5.87804828420342 2.0
endloop
endfacet
facet normal 0.0 0.0 -1.0
outer loop
vertex 10.5166317621725 -9.36122585164602 2.0
vertex 9.58057065160036 -5.87804828420342 2.0
vertex 10.5166317621725 -2.29015803978055 2.0
endloop
endfacet
facet normal 0.0 0.0 -1.0
outer loop
vertex 10.5166317621725 -9.36122585164602 2.0
vertex 10.5166317621725 -2.29015803978055 2.0
vertex 11.3112248751619 -3.32569194571328 2.0
endloop
endfacet
facet normal 0.0 0.0 -1.0
outer loop
vertex 10.5166317621725 -9.36122585164602 2.0
vertex 11.3112248751619 -3.32569194571328 2.0
vertex 11.3112248751619 -8.32569194571328 2.0
endloop
endfacet
facet normal 0.0 0.0 -1.0
outer loop
vertex 11.3112248751619 -8.32569194571328 2.0
vertex 11.3112248751619 -3.32569194571328 2.0
vertex 11.8107269876851 -4.53159672020068 2.0
endloop
endfacet
facet normal 0.0 0.0 -1.0
outer loop
vertex 11.3112248751619 -8.32569194571328 2.0
vertex 11.8107269876851 -4.53159672020068 2.0
vertex 11.8107269876851 -7.11978717122589 2.0
endloop
endfacet
facet normal 0.0 0.0 -1.0
outer loop
vertex 11.8107269876851 -7.11978717122589 2.0
vertex 11.8107269876851 -4.53159672020068 2.0
vertex 11.9810978562397 -5.82569194571329 2.0
endloop
endfacet
facet normal 0.140502470385088 0.990080327961165 1.3323293692934e-016
outer loop
vertex 6.61579143323852 -8.39990079841231 8.0
vertex 7.24245507557211 -8.41252251687616 2.0
vertex 6.61579143323851 -8.39990079841231 2.0
endloop
endfacet
facet normal -0.100522007435522 0.994934835062645 2.26678980586859e-016
outer loop
vertex 7.24245507557211 -8.41252251687616 2.0
vertex 6.61579143323852 -8.39990079841231 8.0
vertex 7.24245507557211 -8.41252251687616 8.0
endloop
endfacet
facet normal -0.100522007435522 0.994934835062645 2.26678980586859e-016
outer loop
vertex 7.24245507557211 -8.41252251687616 8.0
vertex 7.85392958631293 -8.27480704529057 2.0
vertex 7.24245507557211 -8.41252251687616 2.0
endloop
endfacet
facet normal -0.335704511566609 0.941967345991263 2.2139862725732e-016
outer loop
vertex 7.85392958631293 -8.27480704529057 2.0
vertex 7.24245507557211 -8.41252251687616 8.0
vertex 7.85392958631293 -8.27480704529057 8.0
endloop
endfacet
facet normal -0.335704511566609 0.941967345991263 2.2139862725732e-016
outer loop
vertex 7.85392958631293 -8.27480704529057 8.0
vertex 8.41467828951616 -7.99475790628872 2.0
vertex 7.85392958631293 -8.27480704529057 2.0
endloop
endfacet
facet normal -0.551377089721696 0.834256138682858 9.91947117470873e-017
outer loop
vertex 8.41467828951616 -7.99475790628872 2.0
vertex 7.85392958631293 -8.27480704529057 8.0
vertex 8.41467828951616 -7.99475790628872 8.0
endloop
endfacet
facet normal -0.551377089721696 0.834256138682858 9.91947117470872e-017
outer loop
vertex 8.41467828951616 -7.99475790628872 8.0
vertex 8.89211250879021 -7.58865053789219 2.0
vertex 8.41467828951616 -7.99475790628872 2.0
endloop
endfacet
facet normal -0.735005635596332 0.678060996991887 -4.10042033796345e-017
outer loop
vertex 8.89211250879021 -7.58865053789219 2.0
vertex 8.41467828951616 -7.99475790628872 8.0
vertex 8.89211250879021 -7.58865053789219 8.0
endloop
endfacet
facet normal -0.735005635596332 0.678060996991887 -4.10042033796345e-017
outer loop
vertex 8.89211250879021 -7.58865053789219 8.0
vertex 9.25848550271366 -7.08008642421198 2.0
vertex 8.89211250879021 -7.58865053789219 2.0
endloop
endfacet
facet normal -0.87591832556689 0.48245941480719 -1.16682473728377e-017
outer loop
vertex 9.25848550271366 -7.08008642421198 2.0
vertex 8.89211250879021 -7.58865053789219 8.0
vertex 9.25848550271366 -7.08008642421198 8.0
endloop
endfacet
facet normal -0.965925826289069 0.258819045102517 3.0904064858237e-017
outer loop
vertex 9.49250500459133 -6.49862146297983 8.0
vertex 9.25848550271366 -7.08008642421198 2.0
vertex 9.25848550271366 -7.08008642421198 8.0
endloop
endfacet
facet normal -0.87591832556689 0.48245941480719 -1.16682473728377e-017
outer loop
vertex 9.25848550271366 -7.08008642421198 2.0
vertex 9.49250500459133 -6.49862146297983 8.0
vertex 9.49250500459133 -6.49862146297983 2.0
endloop
endfacet
facet normal -0.99979722898485 0.0201370532654358 -5.06577828933712e-017
outer loop
vertex 9.58057065160036 -5.87804828420342 8.0
vertex 9.49250500459133 -6.49862146297983 2.0
vertex 9.49250500459133 -6.49862146297983 8.0
endloop
endfacet
facet normal -0.965925826289069 0.258819045102517 3.0904064858237e-017
outer loop
vertex 9.49250500459133 -6.49862146297983 2.0
vertex 9.58057065160036 -5.87804828420342 8.0
vertex 9.58057065160036 -5.87804828420342 2.0
endloop
endfacet
facet normal -0.975564050847093 -0.219715230912222 -1.14875797015566e-016
outer loop
vertex 9.51756438844219 -5.25443234534151 8.0
vertex 9.58057065160036 -5.87804828420342 2.0
vertex 9.58057065160036 -5.87804828420342 8.0
endloop
endfacet
facet normal -0.99979722898485 0.0201370532654358 -5.06577828933712e-017
outer loop
vertex 9.58057065160036 -5.87804828420342 2.0
vertex 9.51756438844219 -5.25443234534151 8.0
vertex 9.51756438844219 -5.25443234534151 2.0
endloop
endfacet
facet normal -0.894634636105146 -0.446798464501629 -5.59679273478682e-017
outer loop
vertex 9.30714791011313 -4.66401593800905 8.0
vertex 9.51756438844219 -5.25443234534151 2.0
vertex 9.51756438844219 -5.25443234534151 8.0
endloop
endfacet
facet normal -0.975564050847093 -0.219715230912222 -1.14875797015566e-016
outer loop
vertex 9.51756438844219 -5.25443234534151 2.0
vertex 9.30714791011313 -4.66401593800905 8.0
vertex 9.30714791011313 -4.66401593800905 2.0
endloop
endfacet
facet normal -0.761712308177357 -0.647915395380541 1.91533596552301e-033
outer loop
vertex 8.96154985750088 -4.14111191772388 8.0
vertex 9.30714791011313 -4.66401593800905 2.0
vertex 9.30714791011313 -4.66401593800905 8.0
endloop
endfacet
facet normal -0.894634636105146 -0.446798464501629 -5.59679273478682e-017
outer loop
vertex 9.30714791011313 -4.66401593800905 2.0
vertex 8.96154985750088 -4.14111191772388 8.0
vertex 8.96154985750088 -4.14111191772388 2.0
endloop
endfacet
facet normal -0.761712308177357 -0.647915395380541 1.91533596552301e-033
outer loop
vertex 8.96154985750088 -4.14111191772388 8.0
vertex 8.50085513322545 -3.71610956546619 2.0
vertex 8.96154985750088 -4.14111191772388 2.0
endloop
endfacet
facet normal -0.584522029609886 -0.811377838556575 7.66646994896342e-033
outer loop
vertex 8.50085513322545 -3.71610956546619 2.0
vertex 8.96154985750088 -4.14111191772388 8.0
vertex 8.50085513322545 -3.71610956546619 8.0
endloop
endfacet
facet normal -0.584522029609886 -0.811377838556575 7.66646994896342e-033
outer loop
vertex 8.50085513322545 -3.71610956546619 8.0
vertex 7.95183764010455 -3.41370847312851 2.0
vertex 8.50085513322545 -3.71610956546619 2.0
endloop
endfacet
facet normal -0.373361455332618 -0.927685950994144 -5.92263835670782e-017
outer loop
vertex 7.95183764010455 -3.41370847312851 2.0
vertex 8.50085513322545 -3.71610956546619 8.0
vertex 7.95183764010455 -3.41370847312851 8.0
endloop
endfacet
facet normal -0.373361455332618 -0.927685950994144 -5.92263835670782e-017
outer loop
vertex 7.95183764010455 -3.41370847312851 8.0
vertex 7.34640427924098 -3.25148309301426 2.0
vertex 7.95183764010455 -3.41370847312851 2.0
endloop
endfacet
facet normal -0.14050247038509 -0.990080327961164 -1.21978231727498e-016
outer loop
vertex 7.34640427924098 -3.25148309301426 2.0
vertex 7.95183764010455 -3.41370847312851 8.0
vertex 7.34640427924098 -3.25148309301426 8.0
endloop
endfacet
facet normal -0.14050247038509 -0.990080327961164 -1.21978231727498e-016
outer loop
vertex 7.34640427924098 -3.25148309301426 8.0
vertex 6.7197406369074 -3.23886137455041 2.0
vertex 7.34640427924098 -3.25148309301426 2.0
endloop
endfacet
facet normal 0.10052200743552 -0.994934835062645 -1.03999940139368e-016
outer loop
vertex 6.7197406369074 -3.23886137455041 2.0
vertex 7.34640427924098 -3.25148309301426 8.0
vertex 6.7197406369074 -3.23886137455041 8.0
endloop
endfacet
facet normal 0.10052200743552 -0.994934835062645 -1.03999940139368e-016
outer loop
vertex 6.7197406369074 -3.23886137455041 8.0
vertex 6.10826612616657 -3.376576846136 2.0
vertex 6.7197406369074 -3.23886137455041 2.0
endloop
endfacet
facet normal 0.335704511566607 -0.941967345991264 -1.14349470525622e-018
outer loop
vertex 6.10826612616657 -3.376576846136 2.0
vertex 6.7197406369074 -3.23886137455041 8.0
vertex 6.10826612616657 -3.376576846136 8.0
endloop
endfacet
facet normal 0.335704511566608 -0.941967345991264 -1.14349470525614e-018
outer loop
vertex 6.10826612616657 -3.376576846136 8.0
vertex 5.54751742296335 -3.65662598513785 2.0
vertex 6.10826612616657 -3.376576846136 2.0
endloop
endfacet
facet normal 0.551377089721694 -0.83425613868286 1.16960989991474e-016
outer loop
vertex 5.54751742296335 -3.65662598513785 2.0
vertex 6.10826612616657 -3.376576846136 8.0
vertex 5.54751742296334 -3.65662598513785 8.0
endloop
endfacet
facet normal 0.551377089721694 -0.83425613868286 1.16960989991474e-016
outer loop
vertex 5.54751742296334 -3.65662598513785 8.0
vertex 5.07008320368929 -4.06273335353437 2.0
vertex 5.54751742296335 -3.65662598513785 2.0
endloop
endfacet
facet normal 0.73500563559633 -0.678060996991889 7.2439247513159e-017
outer loop
vertex 5.07008320368929 -4.06273335353437 2.0
vertex 5.54751742296334 -3.65662598513785 8.0
vertex 5.07008320368929 -4.06273335353438 8.0
endloop
endfacet
facet normal 0.875918325566889 -0.482459414807191 -4.39393593587413e-017
outer loop
vertex 4.70371020976584 -4.57129746721459 2.0
vertex 5.07008320368929 -4.06273335353438 8.0
vertex 4.70371020976584 -4.57129746721459 8.0
endloop
endfacet
facet normal 0.73500563559633 -0.678060996991889 7.2439247513159e-017
outer loop
vertex 5.07008320368929 -4.06273335353438 8.0
vertex 4.70371020976584 -4.57129746721459 2.0
vertex 5.07008320368929 -4.06273335353437 2.0
endloop
endfacet
facet normal 0.965925826289069 -0.258819045102517 3.27406295059702e-017
outer loop
vertex 4.46969070788817 -5.15276242844674 2.0
vertex 4.70371020976584 -4.57129746721459 8.0
vertex 4.46969070788816 -5.15276242844675 8.0
endloop
endfacet
facet normal 0.875918325566889 -0.48245941480719 -4.39393593587414e-017
outer loop
vertex 4.70371020976584 -4.57129746721459 8.0
vertex 4.46969070788817 -5.15276242844674 2.0
vertex 4.70371020976584 -4.57129746721459 2.0
endloop
endfacet
facet normal 0.99979722898485 -0.0201370532654364 5.85277856280117e-017
outer loop
vertex 4.38162506087914 -5.77333560722315 2.0
vertex 4.46969070788816 -5.15276242844675 8.0
vertex 4.38162506087914 -5.77333560722316 8.0
endloop
endfacet
facet normal 0.965925826289069 -0.258819045102516 3.27406295059706e-017
outer loop
vertex 4.46969070788816 -5.15276242844675 8.0
vertex 4.38162506087914 -5.77333560722315 2.0
vertex 4.46969070788817 -5.15276242844674 2.0
endloop
endfacet
facet normal 0.975564050847093 0.219715230912221 -3.92099546386517e-017
outer loop
vertex 4.4446313240373 -6.39695154608506 2.0
vertex 4.38162506087914 -5.77333560722316 8.0
vertex 4.44463132403731 -6.39695154608507 8.0
endloop
endfacet
facet normal 0.99979722898485 -0.0201370532654361 5.85277856280114e-017
outer loop
vertex 4.38162506087914 -5.77333560722316 8.0
vertex 4.4446313240373 -6.39695154608506 2.0
vertex 4.38162506087914 -5.77333560722315 2.0
endloop
endfacet
facet normal 0.894634636105145 0.446798464501629 -6.04852148056189e-018
outer loop
vertex 4.65504780236637 -6.98736795341752 2.0
vertex 4.44463132403731 -6.39695154608507 8.0
vertex 4.65504780236637 -6.98736795341753 8.0
endloop
endfacet
facet normal 0.975564050847093 0.219715230912221 -3.92099546386517e-017
outer loop
vertex 4.44463132403731 -6.39695154608507 8.0
vertex 4.65504780236637 -6.98736795341752 2.0
vertex 4.4446313240373 -6.39695154608506 2.0
endloop
endfacet
facet normal 0.761712308177357 0.647915395380542 3.79612651216912e-017
outer loop
vertex 5.00064585497862 -7.51027197370269 2.0
vertex 4.65504780236637 -6.98736795341753 8.0
vertex 5.00064585497863 -7.5102719737027 8.0
endloop
endfacet
facet normal 0.894634636105145 0.44679846450163 -6.04852148056176e-018
outer loop
vertex 4.65504780236637 -6.98736795341753 8.0
vertex 5.00064585497862 -7.51027197370269 2.0
vertex 4.65504780236637 -6.98736795341752 2.0
endloop
endfacet
facet normal 0.761712308177356 0.647915395380542 3.79612651216912e-017
outer loop
vertex 5.00064585497863 -7.5102719737027 8.0
vertex 5.46134057925404 -7.93527432596038 2.0
vertex 5.00064585497862 -7.51027197370269 2.0
endloop
endfacet
facet normal 0.584522029609886 0.811377838556575 7.65625652225444e-017
outer loop
vertex 5.46134057925404 -7.93527432596038 2.0
vertex 5.00064585497863 -7.5102719737027 8.0
vertex 5.46134057925405 -7.93527432596038 8.0
endloop
endfacet
facet normal 0.584522029609885 0.811377838556575 7.65625652225445e-017
outer loop
vertex 5.46134057925405 -7.93527432596038 8.0
vertex 6.01035807237494 -8.23767541829806 2.0
vertex 5.46134057925404 -7.93527432596038 2.0
endloop
endfacet
facet normal 0.373361455332618 0.927685950994144 8.01035691566933e-017
outer loop
vertex 6.01035807237494 -8.23767541829806 2.0
vertex 5.46134057925405 -7.93527432596038 8.0
vertex 6.01035807237495 -8.23767541829806 8.0
endloop
endfacet
facet normal 0.373361455332618 0.927685950994144 8.01035691566932e-017
outer loop
vertex 6.01035807237495 -8.23767541829806 8.0
vertex 6.61579143323851 -8.39990079841231 2.0
vertex 6.01035807237494 -8.23767541829806 2.0
endloop
endfacet
facet normal 0.140502470385089 0.990080327961165 1.3323293692934e-016
outer loop
vertex 6.61579143323851 -8.39990079841231 2.0
vertex 6.01035807237495 -8.23767541829806 8.0
vertex 6.61579143323852 -8.39990079841231 8.0
endloop
endfacet
endsolid movement-ir-interrupter-spacer
