solid lower-ball-bearing-adapter
facet normal -0.258819045102521 0.965925826289068 0.0
outer loop
vertex 5.68700263072714 -0.996062814267945 6.0
vertex 6.98109785623975 -0.825691945713286 -5.0
vertex 5.68700263072714 -0.996062814267945 -5.0
endloop
endfacet
facet normal 4.45555494782345e-017 1.0 0.0
outer loop
vertex 6.98109785623975 -0.825691945713286 -5.0
vertex 5.68700263072714 -0.996062814267945 6.0
vertex 6.98109785623975 -0.825691945713286 6.0
endloop
endfacet
facet normal -0.5 0.866025403784439 0.0
outer loop
vertex 4.48109785623975 -1.49556492679109 6.0
vertex 5.68700263072714 -0.996062814267945 -5.0
vertex 4.48109785623975 -1.49556492679109 -5.0
endloop
endfacet
facet normal -0.258819045102521 0.965925826289068 0.0
outer loop
vertex 5.68700263072714 -0.996062814267945 -5.0
vertex 4.48109785623975 -1.49556492679109 6.0
vertex 5.68700263072714 -0.996062814267945 6.0
endloop
endfacet
facet normal -0.707106781186548 0.707106781186547 0.0
outer loop
vertex 3.44556395030701 -2.29015803978055 6.0
vertex 4.48109785623975 -1.49556492679109 -5.0
vertex 3.44556395030701 -2.29015803978055 -5.0
endloop
endfacet
facet normal -0.5 0.866025403784439 0.0
outer loop
vertex 4.48109785623975 -1.49556492679109 -5.0
vertex 3.44556395030701 -2.29015803978055 6.0
vertex 4.48109785623975 -1.49556492679109 6.0
endloop
endfacet
facet normal -1.0 -7.12888791651753e-017 0.0
outer loop
vertex 1.98109785623975 -5.82569194571329 6.0
vertex 2.15146872479441 -7.11978717122589 -5.0
vertex 2.15146872479441 -7.11978717122589 6.0
endloop
endfacet
facet normal -0.965925826289068 -0.258819045102521 0.0
outer loop
vertex 2.15146872479441 -7.11978717122589 -5.0
vertex 1.98109785623975 -5.82569194571329 6.0
vertex 1.98109785623975 -5.82569194571329 -5.0
endloop
endfacet
facet normal -0.707106781186552 0.707106781186543 7.8105377352008e-017
outer loop
vertex 4.2233814096122 -3.06797549908577 8.0
vertex 3.60359878148042 -3.87569194571331 6.0
vertex 3.60359878148042 -3.87569194571331 8.0
endloop
endfacet
facet normal -0.866025403784442 0.499999999999994 2.19417659297318e-016
outer loop
vertex 3.60359878148042 -3.87569194571331 6.0
vertex 4.2233814096122 -3.06797549908577 8.0
vertex 4.2233814096122 -3.06797549908576 6.0
endloop
endfacet
facet normal 0.965925826289068 0.258819045102521 0.0
outer loop
vertex 11.8107269876851 -4.53159672020068 -5.0
vertex 11.9810978562397 -5.82569194571329 6.0
vertex 11.9810978562397 -5.82569194571329 -5.0
endloop
endfacet
facet normal 1.0 1.51488868225997e-016 0.0
outer loop
vertex 11.9810978562397 -5.82569194571329 6.0
vertex 11.8107269876851 -4.53159672020068 -5.0
vertex 11.8107269876851 -4.53159672020068 6.0
endloop
endfacet
facet normal 0.866025403784439 0.5 0.0
outer loop
vertex 11.3112248751619 -3.32569194571328 -5.0
vertex 11.8107269876851 -4.53159672020068 6.0
vertex 11.8107269876851 -4.53159672020068 -5.0
endloop
endfacet
facet normal 0.965925826289068 0.258819045102521 0.0
outer loop
vertex 11.8107269876851 -4.53159672020068 6.0
vertex 11.3112248751619 -3.32569194571328 -5.0
vertex 11.3112248751619 -3.32569194571328 6.0
endloop
endfacet
facet normal 0.258819045102521 0.965925826289068 0.0
outer loop
vertex 8.27519308175235 -0.996062814267945 6.0
vertex 9.48109785623975 -1.49556492679109 -5.0
vertex 8.27519308175235 -0.996062814267945 -5.0
endloop
endfacet
facet normal 0.5 0.866025403784439 0.0
outer loop
vertex 9.48109785623975 -1.49556492679109 -5.0
vertex 8.27519308175235 -0.996062814267945 6.0
vertex 9.48109785623975 -1.49556492679109 6.0
endloop
endfacet
facet normal 3.20799956243289e-016 -1.0 0.0
outer loop
vertex 6.98109785623975 -10.8256919457133 6.0
vertex 5.68700263072715 -10.6553210771586 -5.0
vertex 6.98109785623975 -10.8256919457133 -5.0
endloop
endfacet
facet normal -0.25881904510252 -0.965925826289068 0.0
outer loop
vertex 5.68700263072715 -10.6553210771586 -5.0
vertex 6.98109785623975 -10.8256919457133 6.0
vertex 5.68700263072715 -10.6553210771586 6.0
endloop
endfacet
facet normal -0.0 -0.0 1.0
outer loop
vertex 3.44556395030701 -9.36122585164602 6.0
vertex 3.08109785623975 -5.82569194571331 6.0
vertex 2.65097083731756 -8.32569194571329 6.0
endloop
endfacet
facet normal -0.0 -0.0 1.0
outer loop
vertex 3.08109785623975 -5.82569194571331 6.0
vertex 3.44556395030701 -9.36122585164602 6.0
vertex 3.21398713371239 -6.83508622161314 6.0
endloop
endfacet
facet normal -0.0 -0.0 1.0
outer loop
vertex 3.21398713371239 -6.83508622161314 6.0
vertex 3.44556395030701 -9.36122585164602 6.0
vertex 3.60359878148045 -7.7756919457133 6.0
endloop
endfacet
facet normal -0.0 -0.0 1.0
outer loop
vertex 3.60359878148045 -7.7756919457133 6.0
vertex 3.44556395030701 -9.36122585164602 6.0
vertex 4.48109785623975 -10.1558189646355 6.0
endloop
endfacet
facet normal -0.0 -0.0 1.0
outer loop
vertex 3.60359878148045 -7.7756919457133 6.0
vertex 4.48109785623975 -10.1558189646355 6.0
vertex 4.22338140961223 -8.58340839234083 6.0
endloop
endfacet
facet normal -0.0 -0.0 1.0
outer loop
vertex 4.22338140961223 -8.58340839234083 6.0
vertex 4.48109785623975 -10.1558189646355 6.0
vertex 5.03109785623976 -9.20319102047261 6.0
endloop
endfacet
facet normal -0.0 -0.0 1.0
outer loop
vertex 5.03109785623976 -9.20319102047261 6.0
vertex 4.48109785623975 -10.1558189646355 6.0
vertex 5.68700263072715 -10.6553210771586 6.0
endloop
endfacet
facet normal -0.0 -0.0 1.0
outer loop
vertex 5.03109785623976 -9.20319102047261 6.0
vertex 5.68700263072715 -10.6553210771586 6.0
vertex 5.97170358033993 -9.59280266824066 6.0
endloop
endfacet
facet normal -0.0 -0.0 1.0
outer loop
vertex 5.97170358033993 -9.59280266824066 6.0
vertex 5.68700263072715 -10.6553210771586 6.0
vertex 6.98109785623975 -10.8256919457133 6.0
endloop
endfacet
facet normal -0.0 -0.0 1.0
outer loop
vertex 5.97170358033993 -9.59280266824066 6.0
vertex 6.98109785623975 -10.8256919457133 6.0
vertex 6.98109785623976 -9.72569194571329 6.0
endloop
endfacet
facet normal -0.0 -0.0 1.0
outer loop
vertex 6.98109785623976 -9.72569194571329 6.0
vertex 6.98109785623975 -10.8256919457133 6.0
vertex 8.27519308175236 -10.6553210771586 6.0
endloop
endfacet
facet normal -0.0 -0.0 1.0
outer loop
vertex 6.98109785623976 -9.72569194571329 6.0
vertex 8.27519308175236 -10.6553210771586 6.0
vertex 7.99049213213959 -9.59280266824065 6.0
endloop
endfacet
facet normal -0.0 -0.0 1.0
outer loop
vertex 7.99049213213959 -9.59280266824065 6.0
vertex 8.27519308175236 -10.6553210771586 6.0
vertex 8.93109785623976 -9.20319102047259 6.0
endloop
endfacet
facet normal -0.0 -0.0 1.0
outer loop
vertex 8.93109785623976 -9.20319102047259 6.0
vertex 8.27519308175236 -10.6553210771586 6.0
vertex 9.48109785623975 -10.1558189646355 6.0
endloop
endfacet
facet normal -0.0 -0.0 1.0
outer loop
vertex 8.93109785623976 -9.20319102047259 6.0
vertex 9.48109785623975 -10.1558189646355 6.0
vertex 9.73881430286729 -8.58340839234081 6.0
endloop
endfacet
facet normal -0.0 -0.0 1.0
outer loop
vertex 9.73881430286729 -8.58340839234081 6.0
vertex 9.48109785623975 -10.1558189646355 6.0
vertex 10.5166317621725 -9.36122585164602 6.0
endloop
endfacet
facet normal -0.0 -0.0 1.0
outer loop
vertex 9.73881430286729 -8.58340839234081 6.0
vertex 10.5166317621725 -9.36122585164602 6.0
vertex 10.3585969309991 -7.77569194571327 6.0
endloop
endfacet
facet normal -0.0 -0.0 1.0
outer loop
vertex 10.3585969309991 -7.77569194571327 6.0
vertex 10.5166317621725 -9.36122585164602 6.0
vertex 10.7482085787671 -6.8350862216131 6.0
endloop
endfacet
facet normal -0.0 -0.0 1.0
outer loop
vertex 10.7482085787671 -6.8350862216131 6.0
vertex 10.5166317621725 -9.36122585164602 6.0
vertex 11.3112248751619 -8.32569194571328 6.0
endloop
endfacet
facet normal -0.0 -0.0 1.0
outer loop
vertex 10.7482085787671 -6.8350862216131 6.0
vertex 11.3112248751619 -8.32569194571328 6.0
vertex 10.8810978562397 -5.82569194571327 6.0
endloop
endfacet
facet normal -0.0 -0.0 1.0
outer loop
vertex 10.8810978562397 -5.82569194571327 6.0
vertex 11.3112248751619 -8.32569194571328 6.0
vertex 11.3112248751619 -3.32569194571328 6.0
endloop
endfacet
facet normal -0.0 -0.0 1.0
outer loop
vertex 11.3112248751619 -3.32569194571328 6.0
vertex 11.3112248751619 -8.32569194571328 6.0
vertex 11.8107269876851 -4.53159672020068 6.0
endloop
endfacet
facet normal -0.0 -0.0 1.0
outer loop
vertex 11.8107269876851 -4.53159672020068 6.0
vertex 11.3112248751619 -8.32569194571328 6.0
vertex 11.8107269876851 -7.11978717122589 6.0
endloop
endfacet
facet normal -0.0 -0.0 1.0
outer loop
vertex 11.8107269876851 -4.53159672020068 6.0
vertex 11.8107269876851 -7.11978717122589 6.0
vertex 11.9810978562397 -5.82569194571329 6.0
endloop
endfacet
facet normal -0.0 -0.0 1.0
outer loop
vertex 2.15146872479441 -7.11978717122589 6.0
vertex 2.15146872479441 -4.53159672020068 6.0
vertex 1.98109785623975 -5.82569194571329 6.0
endloop
endfacet
facet normal -0.0 -0.0 1.0
outer loop
vertex 2.15146872479441 -4.53159672020068 6.0
vertex 2.15146872479441 -7.11978717122589 6.0
vertex 2.65097083731755 -3.32569194571329 6.0
endloop
endfacet
facet normal -0.0 -0.0 1.0
outer loop
vertex 2.65097083731755 -3.32569194571329 6.0
vertex 2.15146872479441 -7.11978717122589 6.0
vertex 2.65097083731756 -8.32569194571329 6.0
endloop
endfacet
facet normal -0.0 -0.0 1.0
outer loop
vertex 2.65097083731755 -3.32569194571329 6.0
vertex 2.65097083731756 -8.32569194571329 6.0
vertex 3.44556395030701 -2.29015803978055 6.0
endloop
endfacet
facet normal -0.0 -0.0 1.0
outer loop
vertex 3.44556395030701 -2.29015803978055 6.0
vertex 2.65097083731756 -8.32569194571329 6.0
vertex 3.08109785623975 -5.82569194571331 6.0
endloop
endfacet
facet normal -0.0 -0.0 1.0
outer loop
vertex 3.44556395030701 -2.29015803978055 6.0
vertex 3.08109785623975 -5.82569194571331 6.0
vertex 3.21398713371237 -4.81629766981348 6.0
endloop
endfacet
facet normal -0.0 -0.0 1.0
outer loop
vertex 3.44556395030701 -2.29015803978055 6.0
vertex 3.21398713371237 -4.81629766981348 6.0
vertex 3.60359878148042 -3.87569194571331 6.0
endloop
endfacet
facet normal -0.0 -0.0 1.0
outer loop
vertex 3.44556395030701 -2.29015803978055 6.0
vertex 3.60359878148042 -3.87569194571331 6.0
vertex 4.48109785623975 -1.49556492679109 6.0
endloop
endfacet
facet normal -0.0 -0.0 1.0
outer loop
vertex 4.48109785623975 -1.49556492679109 6.0
vertex 3.60359878148042 -3.87569194571331 6.0
vertex 4.2233814096122 -3.06797549908576 6.0
endloop
endfacet
facet normal -0.0 -0.0 1.0
outer loop
vertex 4.48109785623975 -1.49556492679109 6.0
vertex 4.2233814096122 -3.06797549908576 6.0
vertex 5.03109785623973 -2.44819287095398 6.0
endloop
endfacet
facet normal -0.0 -0.0 1.0
outer loop
vertex 4.48109785623975 -1.49556492679109 6.0
vertex 5.03109785623973 -2.44819287095398 6.0
vertex 5.68700263072714 -0.996062814267945 6.0
endloop
endfacet
facet normal -0.0 -0.0 1.0
outer loop
vertex 5.68700263072714 -0.996062814267945 6.0
vertex 5.03109785623973 -2.44819287095398 6.0
vertex 5.9717035803399 -2.05858122318592 6.0
endloop
endfacet
facet normal -0.0 -0.0 1.0
outer loop
vertex 5.68700263072714 -0.996062814267945 6.0
vertex 5.9717035803399 -2.05858122318592 6.0
vertex 6.98109785623975 -0.825691945713286 6.0
endloop
endfacet
facet normal -0.0 -0.0 1.0
outer loop
vertex 6.98109785623975 -0.825691945713286 6.0
vertex 5.9717035803399 -2.05858122318592 6.0
vertex 6.98109785623973 -1.92569194571329 6.0
endloop
endfacet
facet normal -0.0 -0.0 1.0
outer loop
vertex 6.98109785623975 -0.825691945713286 6.0
vertex 6.98109785623973 -1.92569194571329 6.0
vertex 7.99049213213956 -2.05858122318591 6.0
endloop
endfacet
facet normal -0.0 -0.0 1.0
outer loop
vertex 6.98109785623975 -0.825691945713286 6.0
vertex 7.99049213213956 -2.05858122318591 6.0
vertex 8.27519308175235 -0.996062814267945 6.0
endloop
endfacet
facet normal -0.0 -0.0 1.0
outer loop
vertex 8.27519308175235 -0.996062814267945 6.0
vertex 7.99049213213956 -2.05858122318591 6.0
vertex 8.93109785623973 -2.44819287095397 6.0
endloop
endfacet
facet normal -0.0 -0.0 1.0
outer loop
vertex 8.27519308175235 -0.996062814267945 6.0
vertex 8.93109785623973 -2.44819287095397 6.0
vertex 9.48109785623975 -1.49556492679109 6.0
endloop
endfacet
facet normal -0.0 -0.0 1.0
outer loop
vertex 9.48109785623975 -1.49556492679109 6.0
vertex 8.93109785623973 -2.44819287095397 6.0
vertex 9.73881430286727 -3.06797549908574 6.0
endloop
endfacet
facet normal -0.0 -0.0 1.0
outer loop
vertex 9.48109785623975 -1.49556492679109 6.0
vertex 9.73881430286727 -3.06797549908574 6.0
vertex 10.5166317621725 -2.29015803978055 6.0
endloop
endfacet
facet normal -0.0 -0.0 1.0
outer loop
vertex 10.5166317621725 -2.29015803978055 6.0
vertex 9.73881430286727 -3.06797549908574 6.0
vertex 10.3585969309991 -3.87569194571327 6.0
endloop
endfacet
facet normal -0.0 -0.0 1.0
outer loop
vertex 10.5166317621725 -2.29015803978055 6.0
vertex 10.3585969309991 -3.87569194571327 6.0
vertex 10.7482085787671 -4.81629766981344 6.0
endloop
endfacet
facet normal -0.0 -0.0 1.0
outer loop
vertex 10.5166317621725 -2.29015803978055 6.0
vertex 10.7482085787671 -4.81629766981344 6.0
vertex 11.3112248751619 -3.32569194571328 6.0
endloop
endfacet
facet normal -0.0 -0.0 1.0
outer loop
vertex 11.3112248751619 -3.32569194571328 6.0
vertex 10.7482085787671 -4.81629766981344 6.0
vertex 10.8810978562397 -5.82569194571327 6.0
endloop
endfacet
facet normal -0.965925826289068 -0.258819045102521 0.0
outer loop
vertex 2.15146872479441 -7.11978717122589 6.0
vertex 2.65097083731756 -8.32569194571329 -5.0
vertex 2.65097083731756 -8.32569194571329 6.0
endloop
endfacet
facet normal -0.866025403784438 -0.500000000000001 0.0
outer loop
vertex 2.65097083731756 -8.32569194571329 -5.0
vertex 2.15146872479441 -7.11978717122589 6.0
vertex 2.15146872479441 -7.11978717122589 -5.0
endloop
endfacet
facet normal 4.45555494782345e-017 1.0 0.0
outer loop
vertex 6.98109785623975 -0.825691945713286 6.0
vertex 8.27519308175235 -0.996062814267945 -5.0
vertex 6.98109785623975 -0.825691945713286 -5.0
endloop
endfacet
facet normal 0.258819045102521 0.965925826289068 0.0
outer loop
vertex 8.27519308175235 -0.996062814267945 -5.0
vertex 6.98109785623975 -0.825691945713286 6.0
vertex 8.27519308175235 -0.996062814267945 6.0
endloop
endfacet
facet normal 0.5 -0.866025403784438 0.0
outer loop
vertex 9.48109785623975 -10.1558189646355 6.0
vertex 8.27519308175236 -10.6553210771586 -5.0
vertex 9.48109785623975 -10.1558189646355 -5.0
endloop
endfacet
facet normal 0.258819045102521 -0.965925826289068 0.0
outer loop
vertex 8.27519308175236 -10.6553210771586 -5.0
vertex 9.48109785623975 -10.1558189646355 6.0
vertex 8.27519308175236 -10.6553210771586 6.0
endloop
endfacet
facet normal 0.866025403784439 -0.5 0.0
outer loop
vertex 11.3112248751619 -8.32569194571328 -5.0
vertex 10.5166317621725 -9.36122585164602 6.0
vertex 10.5166317621725 -9.36122585164602 -5.0
endloop
endfacet
facet normal 0.707106781186548 -0.707106781186547 0.0
outer loop
vertex 10.5166317621725 -9.36122585164602 6.0
vertex 11.3112248751619 -8.32569194571328 -5.0
vertex 11.3112248751619 -8.32569194571328 6.0
endloop
endfacet
facet normal 0.707106781186547 0.707106781186548 0.0
outer loop
vertex 10.5166317621725 -2.29015803978055 -5.0
vertex 11.3112248751619 -3.32569194571328 6.0
vertex 11.3112248751619 -3.32569194571328 -5.0
endloop
endfacet
facet normal 0.866025403784439 0.5 0.0
outer loop
vertex 11.3112248751619 -3.32569194571328 6.0
vertex 10.5166317621725 -2.29015803978055 -5.0
vertex 10.5166317621725 -2.29015803978055 6.0
endloop
endfacet
facet normal -0.499999999999999 -0.866025403784439 0.0
outer loop
vertex 4.48109785623975 -10.1558189646355 6.0
vertex 3.44556395030701 -9.36122585164602 -5.0
vertex 4.48109785623975 -10.1558189646355 -5.0
endloop
endfacet
facet normal -0.707106781186547 -0.707106781186548 0.0
outer loop
vertex 3.44556395030701 -9.36122585164602 -5.0
vertex 4.48109785623975 -10.1558189646355 6.0
vertex 3.44556395030701 -9.36122585164602 6.0
endloop
endfacet
facet normal -0.965925826289068 0.258819045102521 0.0
outer loop
vertex 2.15146872479441 -4.53159672020068 6.0
vertex 1.98109785623975 -5.82569194571329 -5.0
vertex 1.98109785623975 -5.82569194571329 6.0
endloop
endfacet
facet normal -1.0 -7.12888791651753e-017 0.0
outer loop
vertex 1.98109785623975 -5.82569194571329 -5.0
vertex 2.15146872479441 -4.53159672020068 6.0
vertex 2.15146872479441 -4.53159672020068 -5.0
endloop
endfacet
facet normal 0.258819045102521 -0.965925826289068 0.0
outer loop
vertex 8.27519308175236 -10.6553210771586 6.0
vertex 6.98109785623975 -10.8256919457133 -5.0
vertex 8.27519308175236 -10.6553210771586 -5.0
endloop
endfacet
facet normal 3.20799956243289e-016 -1.0 0.0
outer loop
vertex 6.98109785623975 -10.8256919457133 -5.0
vertex 8.27519308175236 -10.6553210771586 6.0
vertex 6.98109785623975 -10.8256919457133 6.0
endloop
endfacet
facet normal 1.0 1.51488868225997e-016 0.0
outer loop
vertex 11.9810978562397 -5.82569194571329 -5.0
vertex 11.8107269876851 -7.11978717122589 6.0
vertex 11.8107269876851 -7.11978717122589 -5.0
endloop
endfacet
facet normal 0.965925826289068 -0.25881904510252 0.0
outer loop
vertex 11.8107269876851 -7.11978717122589 6.0
vertex 11.9810978562397 -5.82569194571329 -5.0
vertex 11.9810978562397 -5.82569194571329 6.0
endloop
endfacet
facet normal -0.0 -0.0 1.0
outer loop
vertex 4.22338140961223 -8.58340839234084 8.0
vertex 4.54218772912202 -6.37498002299385 8.0
vertex 4.48160478377762 -5.77534931254971 8.0
endloop
endfacet
facet normal -0.0 -0.0 1.0
outer loop
vertex 4.54218772912202 -6.37498002299385 8.0
vertex 4.22338140961223 -8.58340839234084 8.0
vertex 5.03109785623977 -9.20319102047261 8.0
endloop
endfacet
facet normal -0.0 -0.0 1.0
outer loop
vertex 4.54218772912202 -6.37498002299385 8.0
vertex 5.03109785623977 -9.20319102047261 8.0
vertex 4.74451126597689 -6.94268810696737 8.0
endloop
endfacet
facet normal -0.0 -0.0 1.0
outer loop
vertex 4.74451126597689 -6.94268810696737 8.0
vertex 5.03109785623977 -9.20319102047261 8.0
vertex 5.07681708579637 -7.44548043416465 8.0
endloop
endfacet
facet normal -0.0 -0.0 1.0
outer loop
vertex 5.07681708579637 -7.44548043416465 8.0
vertex 5.03109785623977 -9.20319102047261 8.0
vertex 5.97170358033994 -9.59280266824066 8.0
endloop
endfacet
facet normal -0.0 -0.0 1.0
outer loop
vertex 5.07681708579637 -7.44548043416465 8.0
vertex 5.97170358033994 -9.59280266824066 8.0
vertex 5.51979278221505 -7.85413654210473 8.0
endloop
endfacet
facet normal -0.0 -0.0 1.0
outer loop
vertex 5.51979278221505 -7.85413654210473 8.0
vertex 5.97170358033994 -9.59280266824066 8.0
vertex 6.04769421790822 -8.14490682319865 8.0
endloop
endfacet
facet normal -0.0 -0.0 1.0
outer loop
vertex 6.04769421790822 -8.14490682319865 8.0
vertex 5.97170358033994 -9.59280266824066 8.0
vertex 6.98109785623977 -9.72569194571328 8.0
endloop
endfacet
facet normal -0.0 -0.0 1.0
outer loop
vertex 6.04769421790822 -8.14490682319865 8.0
vertex 6.98109785623977 -9.72569194571328 8.0
vertex 6.62984168027704 -8.3008927656162 8.0
endloop
endfacet
facet normal -0.0 -0.0 1.0
outer loop
vertex 6.62984168027704 -8.3008927656162 8.0
vertex 6.98109785623977 -9.72569194571328 8.0
vertex 7.23240287482856 -8.3130290333699 8.0
endloop
endfacet
facet normal -0.0 -0.0 1.0
outer loop
vertex 7.23240287482856 -8.3130290333699 8.0
vertex 6.98109785623977 -9.72569194571328 8.0
vertex 7.9904921321396 -9.59280266824065 8.0
endloop
endfacet
facet normal -0.0 -0.0 1.0
outer loop
vertex 7.23240287482856 -8.3130290333699 8.0
vertex 7.9904921321396 -9.59280266824065 8.0
vertex 7.82035913515628 -8.18061031069144 8.0
endloop
endfacet
facet normal -0.0 -0.0 1.0
outer loop
vertex 7.82035913515628 -8.18061031069144 8.0
vertex 7.9904921321396 -9.59280266824065 8.0
vertex 8.359540580544 -7.91133229242043 8.0
endloop
endfacet
facet normal -0.0 -0.0 1.0
outer loop
vertex 8.359540580544 -7.91133229242043 8.0
vertex 7.9904921321396 -9.59280266824065 8.0
vertex 8.93109785623977 -9.20319102047259 8.0
endloop
endfacet
facet normal -0.0 -0.0 1.0
outer loop
vertex 8.359540580544 -7.91133229242043 8.0
vertex 8.93109785623977 -9.20319102047259 8.0
vertex 8.81861194523058 -7.520844438193 8.0
endloop
endfacet
facet normal -0.0 -0.0 1.0
outer loop
vertex 8.81861194523058 -7.520844438193 8.0
vertex 8.93109785623977 -9.20319102047259 8.0
vertex 9.17089367015698 -7.03184048273125 8.0
endloop
endfacet
facet normal -0.0 -0.0 1.0
outer loop
vertex 9.17089367015698 -7.03184048273125 8.0
vertex 8.93109785623977 -9.20319102047259 8.0
vertex 9.7388143028673 -8.58340839234081 8.0
endloop
endfacet
facet normal -0.0 -0.0 1.0
outer loop
vertex 9.17089367015698 -7.03184048273125 8.0
vertex 9.7388143028673 -8.58340839234081 8.0
vertex 9.39591242196242 -6.47273955846957 8.0
endloop
endfacet
facet normal -0.0 -0.0 1.0
outer loop
vertex 9.39591242196242 -6.47273955846957 8.0
vertex 9.7388143028673 -8.58340839234081 8.0
vertex 9.48059092870187 -5.87603457887687 8.0
endloop
endfacet
facet normal -0.0 -0.0 1.0
outer loop
vertex 9.48059092870187 -5.87603457887687 8.0
vertex 9.7388143028673 -8.58340839234081 8.0
vertex 9.73881430286727 -3.06797549908573 8.0
endloop
endfacet
facet normal -0.0 -0.0 1.0
outer loop
vertex 9.73881430286727 -3.06797549908573 8.0
vertex 9.7388143028673 -8.58340839234081 8.0
vertex 10.358596930999 -3.87569194571326 8.0
endloop
endfacet
facet normal -0.0 -0.0 1.0
outer loop
vertex 10.358596930999 -3.87569194571326 8.0
vertex 9.7388143028673 -8.58340839234081 8.0
vertex 10.3585969309991 -7.77569194571327 8.0
endloop
endfacet
facet normal -0.0 -0.0 1.0
outer loop
vertex 10.358596930999 -3.87569194571326 8.0
vertex 10.3585969309991 -7.77569194571327 8.0
vertex 10.7482085787671 -4.81629766981343 8.0
endloop
endfacet
facet normal -0.0 -0.0 1.0
outer loop
vertex 10.7482085787671 -4.81629766981343 8.0
vertex 10.3585969309991 -7.77569194571327 8.0
vertex 10.7482085787671 -6.83508622161309 8.0
endloop
endfacet
facet normal -0.0 -0.0 1.0
outer loop
vertex 10.7482085787671 -4.81629766981343 8.0
vertex 10.7482085787671 -6.83508622161309 8.0
vertex 10.8810978562397 -5.82569194571326 8.0
endloop
endfacet
facet normal -0.0 -0.0 1.0
outer loop
vertex 3.21398713371239 -6.83508622161314 8.0
vertex 3.21398713371237 -4.81629766981348 8.0
vertex 3.08109785623975 -5.82569194571331 8.0
endloop
endfacet
facet normal -0.0 -0.0 1.0
outer loop
vertex 3.21398713371237 -4.81629766981348 8.0
vertex 3.21398713371239 -6.83508622161314 8.0
vertex 3.60359878148042 -3.87569194571331 8.0
endloop
endfacet
facet normal -0.0 -0.0 1.0
outer loop
vertex 3.60359878148042 -3.87569194571331 8.0
vertex 3.21398713371239 -6.83508622161314 8.0
vertex 3.60359878148045 -7.77569194571331 8.0
endloop
endfacet
facet normal -0.0 -0.0 1.0
outer loop
vertex 3.60359878148042 -3.87569194571331 8.0
vertex 3.60359878148045 -7.77569194571331 8.0
vertex 4.2233814096122 -3.06797549908577 8.0
endloop
endfacet
facet normal -0.0 -0.0 1.0
outer loop
vertex 4.2233814096122 -3.06797549908577 8.0
vertex 3.60359878148045 -7.77569194571331 8.0
vertex 4.22338140961223 -8.58340839234084 8.0
endloop
endfacet
facet normal -0.0 -0.0 1.0
outer loop
vertex 4.2233814096122 -3.06797549908577 8.0
vertex 4.22338140961223 -8.58340839234084 8.0
vertex 4.48160478377762 -5.77534931254971 8.0
endloop
endfacet
facet normal -0.0 -0.0 1.0
outer loop
vertex 4.2233814096122 -3.06797549908577 8.0
vertex 4.48160478377762 -5.77534931254971 8.0
vertex 4.56628329051707 -5.17864433295701 8.0
endloop
endfacet
facet normal -0.0 -0.0 1.0
outer loop
vertex 4.2233814096122 -3.06797549908577 8.0
vertex 4.56628329051707 -5.17864433295701 8.0
vertex 5.03109785623973 -2.44819287095399 8.0
endloop
endfacet
facet normal -0.0 -0.0 1.0
outer loop
vertex 5.03109785623973 -2.44819287095399 8.0
vertex 4.56628329051707 -5.17864433295701 8.0
vertex 4.79130204232252 -4.61954340869532 8.0
endloop
endfacet
facet normal -0.0 -0.0 1.0
outer loop
vertex 5.03109785623973 -2.44819287095399 8.0
vertex 4.79130204232252 -4.61954340869532 8.0
vertex 5.14358376724891 -4.13053945323357 8.0
endloop
endfacet
facet normal -0.0 -0.0 1.0
outer loop
vertex 5.03109785623973 -2.44819287095399 8.0
vertex 5.14358376724891 -4.13053945323357 8.0
vertex 5.97170358033989 -2.05858122318593 8.0
endloop
endfacet
facet normal -0.0 -0.0 1.0
outer loop
vertex 5.97170358033989 -2.05858122318593 8.0
vertex 5.14358376724891 -4.13053945323357 8.0
vertex 5.6026551319355 -3.74005159900614 8.0
endloop
endfacet
facet normal -0.0 -0.0 1.0
outer loop
vertex 5.97170358033989 -2.05858122318593 8.0
vertex 5.6026551319355 -3.74005159900614 8.0
vertex 6.14183657732322 -3.47077358073513 8.0
endloop
endfacet
facet normal -0.0 -0.0 1.0
outer loop
vertex 5.97170358033989 -2.05858122318593 8.0
vertex 6.14183657732322 -3.47077358073513 8.0
vertex 6.98109785623972 -1.92569194571329 8.0
endloop
endfacet
facet normal -0.0 -0.0 1.0
outer loop
vertex 6.98109785623972 -1.92569194571329 8.0
vertex 6.14183657732322 -3.47077358073513 8.0
vertex 6.72979283765094 -3.33835485805667 8.0
endloop
endfacet
facet normal -0.0 -0.0 1.0
outer loop
vertex 6.98109785623972 -1.92569194571329 8.0
vertex 6.72979283765094 -3.33835485805667 8.0
vertex 7.33235403220246 -3.35049112581037 8.0
endloop
endfacet
facet normal -0.0 -0.0 1.0
outer loop
vertex 6.98109785623972 -1.92569194571329 8.0
vertex 7.33235403220246 -3.35049112581037 8.0
vertex 7.99049213213956 -2.05858122318591 8.0
endloop
endfacet
facet normal -0.0 -0.0 1.0
outer loop
vertex 7.99049213213956 -2.05858122318591 8.0
vertex 7.33235403220246 -3.35049112581037 8.0
vertex 7.91450149457128 -3.50647706822792 8.0
endloop
endfacet
facet normal -0.0 -0.0 1.0
outer loop
vertex 7.99049213213956 -2.05858122318591 8.0
vertex 7.91450149457128 -3.50647706822792 8.0
vertex 8.44240293026446 -3.79724734932184 8.0
endloop
endfacet
facet normal -0.0 -0.0 1.0
outer loop
vertex 7.99049213213956 -2.05858122318591 8.0
vertex 8.44240293026446 -3.79724734932184 8.0
vertex 8.93109785623973 -2.44819287095396 8.0
endloop
endfacet
facet normal -0.0 -0.0 1.0
outer loop
vertex 8.93109785623973 -2.44819287095396 8.0
vertex 8.44240293026446 -3.79724734932184 8.0
vertex 8.88537862668313 -4.20590345726192 8.0
endloop
endfacet
facet normal -0.0 -0.0 1.0
outer loop
vertex 8.93109785623973 -2.44819287095396 8.0
vertex 8.88537862668313 -4.20590345726192 8.0
vertex 9.21768444650261 -4.7086957844592 8.0
endloop
endfacet
facet normal -0.0 -0.0 1.0
outer loop
vertex 8.93109785623973 -2.44819287095396 8.0
vertex 9.21768444650261 -4.7086957844592 8.0
vertex 9.73881430286727 -3.06797549908573 8.0
endloop
endfacet
facet normal -0.0 -0.0 1.0
outer loop
vertex 9.73881430286727 -3.06797549908573 8.0
vertex 9.21768444650261 -4.7086957844592 8.0
vertex 9.42000798335748 -5.27640386843272 8.0
endloop
endfacet
facet normal -0.0 -0.0 1.0
outer loop
vertex 9.73881430286727 -3.06797549908573 8.0
vertex 9.42000798335748 -5.27640386843272 8.0
vertex 9.48059092870187 -5.87603457887687 8.0
endloop
endfacet
facet normal 0.707106781186548 -0.707106781186547 0.0
outer loop
vertex 10.5166317621725 -9.36122585164602 6.0
vertex 9.48109785623975 -10.1558189646355 -5.0
vertex 10.5166317621725 -9.36122585164602 -5.0
endloop
endfacet
facet normal 0.5 -0.866025403784438 0.0
outer loop
vertex 9.48109785623975 -10.1558189646355 -5.0
vertex 10.5166317621725 -9.36122585164602 6.0
vertex 9.48109785623975 -10.1558189646355 6.0
endloop
endfacet
facet normal -0.866025403784438 -0.500000000000001 0.0
outer loop
vertex 2.65097083731756 -8.32569194571329 6.0
vertex 3.44556395030701 -9.36122585164602 -5.0
vertex 3.44556395030701 -9.36122585164602 6.0
endloop
endfacet
facet normal -0.707106781186547 -0.707106781186548 0.0
outer loop
vertex 3.44556395030701 -9.36122585164602 -5.0
vertex 2.65097083731756 -8.32569194571329 6.0
vertex 2.65097083731756 -8.32569194571329 -5.0
endloop
endfacet
facet normal -0.707106781186548 0.707106781186547 0.0
outer loop
vertex 3.44556395030701 -2.29015803978055 6.0
vertex 2.65097083731755 -3.32569194571329 -5.0
vertex 2.65097083731755 -3.32569194571329 6.0
endloop
endfacet
facet normal -0.866025403784439 0.5 0.0
outer loop
vertex 2.65097083731755 -3.32569194571329 -5.0
vertex 3.44556395030701 -2.29015803978055 6.0
vertex 3.44556395030701 -2.29015803978055 -5.0
endloop
endfacet
facet normal -0.866025403784439 0.5 0.0
outer loop
vertex 2.65097083731755 -3.32569194571329 6.0
vertex 2.15146872479441 -4.53159672020068 -5.0
vertex 2.15146872479441 -4.53159672020068 6.0
endloop
endfacet
facet normal -0.965925826289068 0.258819045102521 0.0
outer loop
vertex 2.15146872479441 -4.53159672020068 -5.0
vertex 2.65097083731755 -3.32569194571329 6.0
vertex 2.65097083731755 -3.32569194571329 -5.0
endloop
endfacet
facet normal -0.25881904510252 -0.965925826289068 0.0
outer loop
vertex 5.68700263072715 -10.6553210771586 6.0
vertex 4.48109785623975 -10.1558189646355 -5.0
vertex 5.68700263072715 -10.6553210771586 -5.0
endloop
endfacet
facet normal -0.499999999999999 -0.866025403784439 0.0
outer loop
vertex 4.48109785623975 -10.1558189646355 -5.0
vertex 5.68700263072715 -10.6553210771586 6.0
vertex 4.48109785623975 -10.1558189646355 6.0
endloop
endfacet
facet normal 0.965925826289068 -0.25881904510252 0.0
outer loop
vertex 11.8107269876851 -7.11978717122589 -5.0
vertex 11.3112248751619 -8.32569194571328 6.0
vertex 11.3112248751619 -8.32569194571328 -5.0
endloop
endfacet
facet normal 0.866025403784439 -0.5 0.0
outer loop
vertex 11.3112248751619 -8.32569194571328 6.0
vertex 11.8107269876851 -7.11978717122589 -5.0
vertex 11.8107269876851 -7.11978717122589 6.0
endloop
endfacet
facet normal 0.5 0.866025403784439 0.0
outer loop
vertex 9.48109785623975 -1.49556492679109 6.0
vertex 10.5166317621725 -2.29015803978055 -5.0
vertex 9.48109785623975 -1.49556492679109 -5.0
endloop
endfacet
facet normal 0.707106781186547 0.707106781186548 0.0
outer loop
vertex 10.5166317621725 -2.29015803978055 -5.0
vertex 9.48109785623975 -1.49556492679109 6.0
vertex 10.5166317621725 -2.29015803978055 6.0
endloop
endfacet
facet normal 0.866025403784441 -0.499999999999996 -4.1053807714019e-017
outer loop
vertex 10.3585969309991 -7.77569194571327 6.0
vertex 9.7388143028673 -8.58340839234081 8.0
vertex 9.73881430286729 -8.58340839234081 6.0
endloop
endfacet
facet normal 0.707106781186551 -0.707106781186544 -1.48798555876443e-016
outer loop
vertex 9.7388143028673 -8.58340839234081 8.0
vertex 10.3585969309991 -7.77569194571327 6.0
vertex 10.3585969309991 -7.77569194571327 8.0
endloop
endfacet
facet normal 0.258819045102515 0.96592582628907 2.2558731522933e-016
outer loop
vertex 7.99049213213956 -2.05858122318591 8.0
vertex 8.93109785623973 -2.44819287095397 6.0
vertex 7.99049213213956 -2.05858122318591 6.0
endloop
endfacet
facet normal 0.499999999999995 0.866025403784441 1.703259065139e-016
outer loop
vertex 8.93109785623973 -2.44819287095397 6.0
vertex 7.99049213213956 -2.05858122318591 8.0
vertex 8.93109785623973 -2.44819287095396 8.0
endloop
endfacet
facet normal 0.707106781186544 0.707106781186551 2.77992827619593e-016
outer loop
vertex 9.73881430286727 -3.06797549908574 6.0
vertex 10.358596930999 -3.87569194571326 8.0
vertex 10.3585969309991 -3.87569194571327 6.0
endloop
endfacet
facet normal 0.866025403784436 0.500000000000005 6.45873579750767e-016
outer loop
vertex 10.358596930999 -3.87569194571326 8.0
vertex 9.73881430286727 -3.06797549908574 6.0
vertex 9.73881430286727 -3.06797549908573 8.0
endloop
endfacet
facet normal -0.866025403784436 -0.500000000000005 8.60203914821347e-017
outer loop
vertex 3.60359878148045 -7.77569194571331 8.0
vertex 4.22338140961223 -8.58340839234083 6.0
vertex 4.22338140961223 -8.58340839234084 8.0
endloop
endfacet
facet normal -0.707106781186544 -0.707106781186551 -1.181106234337e-016
outer loop
vertex 4.22338140961223 -8.58340839234083 6.0
vertex 3.60359878148045 -7.77569194571331 8.0
vertex 3.60359878148045 -7.7756919457133 6.0
endloop
endfacet
facet normal 0.965925826289067 0.258819045102526 5.4599798444617e-016
outer loop
vertex 10.7482085787671 -4.81629766981344 6.0
vertex 10.8810978562397 -5.82569194571326 8.0
vertex 10.8810978562397 -5.82569194571327 6.0
endloop
endfacet
facet normal 1.0 6.28233247643107e-015 1.66696865619735e-016
outer loop
vertex 10.8810978562397 -5.82569194571326 8.0
vertex 10.7482085787671 -4.81629766981344 6.0
vertex 10.7482085787671 -4.81629766981343 8.0
endloop
endfacet
facet normal 1.0 5.70311033321402e-015 1.66696865619734e-016
outer loop
vertex 10.8810978562397 -5.82569194571327 6.0
vertex 10.7482085787671 -6.83508622161309 8.0
vertex 10.7482085787671 -6.8350862216131 6.0
endloop
endfacet
facet normal 0.96592582628907 -0.258819045102515 8.39591367083056e-017
outer loop
vertex 10.7482085787671 -6.83508622161309 8.0
vertex 10.8810978562397 -5.82569194571327 6.0
vertex 10.8810978562397 -5.82569194571326 8.0
endloop
endfacet
facet normal -1.0 -7.12888791651752e-015 4.63478451403359e-016
outer loop
vertex 3.08109785623975 -5.82569194571331 8.0
vertex 3.21398713371239 -6.83508622161314 6.0
vertex 3.21398713371239 -6.83508622161314 8.0
endloop
endfacet
facet normal -0.965925826289067 -0.258819045102527 2.53827745957292e-016
outer loop
vertex 3.21398713371239 -6.83508622161314 6.0
vertex 3.08109785623975 -5.82569194571331 8.0
vertex 3.08109785623975 -5.82569194571331 6.0
endloop
endfacet
facet normal 0.258819045102526 -0.965925826289067 3.37710415106378e-016
outer loop
vertex 7.9904921321396 -9.59280266824065 8.0
vertex 6.98109785623976 -9.72569194571329 6.0
vertex 7.99049213213959 -9.59280266824065 6.0
endloop
endfacet
facet normal 5.0347770910405e-015 -1.0 9.03934703061336e-016
outer loop
vertex 6.98109785623976 -9.72569194571329 6.0
vertex 7.9904921321396 -9.59280266824065 8.0
vertex 6.98109785623977 -9.72569194571328 8.0
endloop
endfacet
facet normal 0.500000000000004 -0.866025403784436 -4.02470737928692e-017
outer loop
vertex 8.93109785623977 -9.20319102047259 8.0
vertex 7.99049213213959 -9.59280266824065 6.0
vertex 8.93109785623976 -9.20319102047259 6.0
endloop
endfacet
facet normal 0.258819045102525 -0.965925826289067 3.37710415106379e-016
outer loop
vertex 7.99049213213959 -9.59280266824065 6.0
vertex 8.93109785623977 -9.20319102047259 8.0
vertex 7.9904921321396 -9.59280266824065 8.0
endloop
endfacet
facet normal 5.61399923425755e-015 -1.0 9.03934703061335e-016
outer loop
vertex 6.98109785623977 -9.72569194571328 8.0
vertex 5.97170358033993 -9.59280266824066 6.0
vertex 6.98109785623976 -9.72569194571329 6.0
endloop
endfacet
facet normal -0.258819045102516 -0.96592582628907 8.6754832130421e-016
outer loop
vertex 5.97170358033993 -9.59280266824066 6.0
vertex 6.98109785623977 -9.72569194571328 8.0
vertex 5.97170358033994 -9.59280266824066 8.0
endloop
endfacet
facet normal -0.707106781186552 0.707106781186543 7.8105377352008e-017
outer loop
vertex 4.2233814096122 -3.06797549908577 8.0
vertex 5.03109785623973 -2.44819287095398 6.0
vertex 4.2233814096122 -3.06797549908576 6.0
endloop
endfacet
facet normal -0.500000000000004 0.866025403784436 2.66531335986443e-016
outer loop
vertex 5.03109785623973 -2.44819287095398 6.0
vertex 4.2233814096122 -3.06797549908577 8.0
vertex 5.03109785623973 -2.44819287095399 8.0
endloop
endfacet
facet normal -0.965925826289067 -0.258819045102527 2.53827745957292e-016
outer loop
vertex 3.21398713371239 -6.83508622161314 8.0
vertex 3.60359878148045 -7.7756919457133 6.0
vertex 3.60359878148045 -7.77569194571331 8.0
endloop
endfacet
facet normal -0.866025403784436 -0.500000000000005 8.60203914821353e-017
outer loop
vertex 3.60359878148045 -7.7756919457133 6.0
vertex 3.21398713371239 -6.83508622161314 8.0
vertex 3.21398713371239 -6.83508622161314 6.0
endloop
endfacet
facet normal -0.500000000000005 0.866025403784436 2.66531335986442e-016
outer loop
vertex 5.03109785623973 -2.44819287095399 8.0
vertex 5.9717035803399 -2.05858122318592 6.0
vertex 5.03109785623973 -2.44819287095398 6.0
endloop
endfacet
facet normal -0.258819045102526 0.965925826289067 3.31913989747251e-016
outer loop
vertex 5.9717035803399 -2.05858122318592 6.0
vertex 5.03109785623973 -2.44819287095399 8.0
vertex 5.97170358033989 -2.05858122318593 8.0
endloop
endfacet
facet normal 0.866025403784436 0.500000000000004 6.45873579750768e-016
outer loop
vertex 10.3585969309991 -3.87569194571327 6.0
vertex 10.7482085787671 -4.81629766981343 8.0
vertex 10.7482085787671 -4.81629766981344 6.0
endloop
endfacet
facet normal 0.965925826289067 0.258819045102526 5.45997984446171e-016
outer loop
vertex 10.7482085787671 -4.81629766981343 8.0
vertex 10.3585969309991 -3.87569194571327 6.0
vertex 10.358596930999 -3.87569194571326 8.0
endloop
endfacet
facet normal -5.38231037697073e-015 1.0 2.31134587490653e-016
outer loop
vertex 6.98109785623972 -1.92569194571329 8.0
vertex 7.99049213213956 -2.05858122318591 6.0
vertex 6.98109785623973 -1.92569194571329 6.0
endloop
endfacet
facet normal 0.258819045102516 0.96592582628907 2.2558731522933e-016
outer loop
vertex 7.99049213213956 -2.05858122318591 6.0
vertex 6.98109785623972 -1.92569194571329 8.0
vertex 7.99049213213956 -2.05858122318591 8.0
endloop
endfacet
facet normal 0.499999999999995 0.866025403784442 1.703259065139e-016
outer loop
vertex 8.93109785623973 -2.44819287095396 8.0
vertex 9.73881430286727 -3.06797549908574 6.0
vertex 8.93109785623973 -2.44819287095397 6.0
endloop
endfacet
facet normal 0.707106781186544 0.707106781186551 2.77992827619593e-016
outer loop
vertex 9.73881430286727 -3.06797549908574 6.0
vertex 8.93109785623973 -2.44819287095396 8.0
vertex 9.73881430286727 -3.06797549908573 8.0
endloop
endfacet
facet normal 0.707106781186551 -0.707106781186544 -1.48798555876443e-016
outer loop
vertex 9.7388143028673 -8.58340839234081 8.0
vertex 8.93109785623976 -9.20319102047259 6.0
vertex 9.73881430286729 -8.58340839234081 6.0
endloop
endfacet
facet normal 0.500000000000004 -0.866025403784437 -4.0247073792869e-017
outer loop
vertex 8.93109785623976 -9.20319102047259 6.0
vertex 9.7388143028673 -8.58340839234081 8.0
vertex 8.93109785623977 -9.20319102047259 8.0
endloop
endfacet
facet normal -0.258819045102526 0.965925826289067 3.31913989747251e-016
outer loop
vertex 5.97170358033989 -2.05858122318593 8.0
vertex 6.98109785623973 -1.92569194571329 6.0
vertex 5.9717035803399 -2.05858122318592 6.0
endloop
endfacet
facet normal -4.79417712385803e-015 1.0 2.31134587490653e-016
outer loop
vertex 6.98109785623973 -1.92569194571329 6.0
vertex 5.97170358033989 -2.05858122318593 8.0
vertex 6.98109785623972 -1.92569194571329 8.0
endloop
endfacet
facet normal -0.499999999999995 -0.866025403784441 1.89274261237022e-016
outer loop
vertex 5.03109785623977 -9.20319102047261 8.0
vertex 4.22338140961223 -8.58340839234083 6.0
vertex 5.03109785623976 -9.20319102047261 6.0
endloop
endfacet
facet normal -0.707106781186544 -0.707106781186551 -1.181106234337e-016
outer loop
vertex 4.22338140961223 -8.58340839234083 6.0
vertex 5.03109785623977 -9.20319102047261 8.0
vertex 4.22338140961223 -8.58340839234084 8.0
endloop
endfacet
facet normal -0.866025403784442 0.499999999999994 2.19417659297319e-016
outer loop
vertex 3.60359878148042 -3.87569194571331 8.0
vertex 3.21398713371237 -4.81629766981348 6.0
vertex 3.21398713371237 -4.81629766981348 8.0
endloop
endfacet
facet normal -0.96592582628907 0.258819045102514 5.25652926175385e-016
outer loop
vertex 3.21398713371237 -4.81629766981348 6.0
vertex 3.60359878148042 -3.87569194571331 8.0
vertex 3.60359878148042 -3.87569194571331 6.0
endloop
endfacet
facet normal 0.96592582628907 -0.258819045102516 8.39591367083057e-017
outer loop
vertex 10.7482085787671 -6.8350862216131 6.0
vertex 10.3585969309991 -7.77569194571327 8.0
vertex 10.3585969309991 -7.77569194571327 6.0
endloop
endfacet
facet normal 0.866025403784441 -0.499999999999996 -4.10538077140185e-017
outer loop
vertex 10.3585969309991 -7.77569194571327 8.0
vertex 10.7482085787671 -6.8350862216131 6.0
vertex 10.7482085787671 -6.83508622161309 8.0
endloop
endfacet
facet normal -0.96592582628907 0.258819045102514 5.25652926175385e-016
outer loop
vertex 3.21398713371237 -4.81629766981348 8.0
vertex 3.08109785623975 -5.82569194571331 6.0
vertex 3.08109785623975 -5.82569194571331 8.0
endloop
endfacet
facet normal -1.0 -6.54966577330047e-015 4.63478451403359e-016
outer loop
vertex 3.08109785623975 -5.82569194571331 6.0
vertex 3.21398713371237 -4.81629766981348 8.0
vertex 3.21398713371237 -4.81629766981348 6.0
endloop
endfacet
facet normal -0.258819045102515 -0.96592582628907 8.67548321304211e-016
outer loop
vertex 5.97170358033994 -9.59280266824066 8.0
vertex 5.03109785623976 -9.20319102047261 6.0
vertex 5.97170358033993 -9.59280266824066 6.0
endloop
endfacet
facet normal -0.499999999999996 -0.866025403784441 1.89274261237021e-016
outer loop
vertex 5.03109785623976 -9.20319102047261 6.0
vertex 5.97170358033994 -9.59280266824066 8.0
vertex 5.03109785623977 -9.20319102047261 8.0
endloop
endfacet
facet normal 0.0 0.0 -1.0
outer loop
vertex 2.15146872479441 -4.53159672020068 -5.0
vertex 2.15146872479441 -7.11978717122589 -5.0
vertex 1.98109785623975 -5.82569194571329 -5.0
endloop
endfacet
facet normal 0.0 0.0 -1.0
outer loop
vertex 2.15146872479441 -7.11978717122589 -5.0
vertex 2.15146872479441 -4.53159672020068 -5.0
vertex 2.65097083731755 -3.32569194571329 -5.0
endloop
endfacet
facet normal 0.0 0.0 -1.0
outer loop
vertex 2.15146872479441 -7.11978717122589 -5.0
vertex 2.65097083731755 -3.32569194571329 -5.0
vertex 2.65097083731756 -8.32569194571329 -5.0
endloop
endfacet
facet normal 0.0 0.0 -1.0
outer loop
vertex 2.65097083731756 -8.32569194571329 -5.0
vertex 2.65097083731755 -3.32569194571329 -5.0
vertex 3.44556395030701 -2.29015803978055 -5.0
endloop
endfacet
facet normal 0.0 0.0 -1.0
outer loop
vertex 2.65097083731756 -8.32569194571329 -5.0
vertex 3.44556395030701 -2.29015803978055 -5.0
vertex 3.44556395030701 -9.36122585164602 -5.0
endloop
endfacet
facet normal 0.0 0.0 -1.0
outer loop
vertex 3.44556395030701 -9.36122585164602 -5.0
vertex 3.44556395030701 -2.29015803978055 -5.0
vertex 4.48109785623975 -1.49556492679109 -5.0
endloop
endfacet
facet normal 0.0 0.0 -1.0
outer loop
vertex 3.44556395030701 -9.36122585164602 -5.0
vertex 4.48109785623975 -1.49556492679109 -5.0
vertex 4.48109785623975 -10.1558189646355 -5.0
endloop
endfacet
facet normal 0.0 0.0 -1.0
outer loop
vertex 4.48109785623975 -10.1558189646355 -5.0
vertex 4.48109785623975 -1.49556492679109 -5.0
vertex 4.48160478377762 -5.7753493125497 -5.0
endloop
endfacet
facet normal 0.0 0.0 -1.0
outer loop
vertex 4.48160478377762 -5.7753493125497 -5.0
vertex 4.48109785623975 -1.49556492679109 -5.0
vertex 4.56628329051707 -5.178644332957 -5.0
endloop
endfacet
facet normal 0.0 0.0 -1.0
outer loop
vertex 4.56628329051707 -5.178644332957 -5.0
vertex 4.48109785623975 -1.49556492679109 -5.0
vertex 5.68700263072714 -0.996062814267945 -5.0
endloop
endfacet
facet normal 0.0 0.0 -1.0
outer loop
vertex 4.56628329051707 -5.178644332957 -5.0
vertex 5.68700263072714 -0.996062814267945 -5.0
vertex 4.79130204232252 -4.61954340869531 -5.0
endloop
endfacet
facet normal 0.0 0.0 -1.0
outer loop
vertex 4.79130204232252 -4.61954340869531 -5.0
vertex 5.68700263072714 -0.996062814267945 -5.0
vertex 5.14358376724892 -4.13053945323357 -5.0
endloop
endfacet
facet normal 0.0 0.0 -1.0
outer loop
vertex 5.14358376724892 -4.13053945323357 -5.0
vertex 5.68700263072714 -0.996062814267945 -5.0
vertex 5.60265513193551 -3.74005159900614 -5.0
endloop
endfacet
facet normal 0.0 0.0 -1.0
outer loop
vertex 5.60265513193551 -3.74005159900614 -5.0
vertex 5.68700263072714 -0.996062814267945 -5.0
vertex 6.14183657732322 -3.47077358073513 -5.0
endloop
endfacet
facet normal 0.0 0.0 -1.0
outer loop
vertex 6.14183657732322 -3.47077358073513 -5.0
vertex 5.68700263072714 -0.996062814267945 -5.0
vertex 6.98109785623975 -0.825691945713286 -5.0
endloop
endfacet
facet normal 0.0 0.0 -1.0
outer loop
vertex 6.14183657732322 -3.47077358073513 -5.0
vertex 6.98109785623975 -0.825691945713286 -5.0
vertex 6.72979283765094 -3.33835485805667 -5.0
endloop
endfacet
facet normal 0.0 0.0 -1.0
outer loop
vertex 6.72979283765094 -3.33835485805667 -5.0
vertex 6.98109785623975 -0.825691945713286 -5.0
vertex 7.33235403220246 -3.35049112581037 -5.0
endloop
endfacet
facet normal 0.0 0.0 -1.0
outer loop
vertex 7.33235403220246 -3.35049112581037 -5.0
vertex 6.98109785623975 -0.825691945713286 -5.0
vertex 8.27519308175235 -0.996062814267945 -5.0
endloop
endfacet
facet normal 0.0 0.0 -1.0
outer loop
vertex 7.33235403220246 -3.35049112581037 -5.0
vertex 8.27519308175235 -0.996062814267945 -5.0
vertex 7.91450149457128 -3.50647706822792 -5.0
endloop
endfacet
facet normal 0.0 0.0 -1.0
outer loop
vertex 7.91450149457128 -3.50647706822792 -5.0
vertex 8.27519308175235 -0.996062814267945 -5.0
vertex 8.44240293026446 -3.79724734932184 -5.0
endloop
endfacet
facet normal 0.0 0.0 -1.0
outer loop
vertex 8.44240293026446 -3.79724734932184 -5.0
vertex 8.27519308175235 -0.996062814267945 -5.0
vertex 9.48109785623975 -1.49556492679109 -5.0
endloop
endfacet
facet normal 0.0 0.0 -1.0
outer loop
vertex 8.44240293026446 -3.79724734932184 -5.0
vertex 9.48109785623975 -1.49556492679109 -5.0
vertex 8.88537862668313 -4.20590345726192 -5.0
endloop
endfacet
facet normal 0.0 0.0 -1.0
outer loop
vertex 8.88537862668313 -4.20590345726192 -5.0
vertex 9.48109785623975 -1.49556492679109 -5.0
vertex 9.21768444650261 -4.7086957844592 -5.0
endloop
endfacet
facet normal 0.0 0.0 -1.0
outer loop
vertex 9.21768444650261 -4.7086957844592 -5.0
vertex 9.48109785623975 -1.49556492679109 -5.0
vertex 9.42000798335748 -5.27640386843272 -5.0
endloop
endfacet
facet normal 0.0 0.0 -1.0
outer loop
vertex 9.42000798335748 -5.27640386843272 -5.0
vertex 9.48109785623975 -1.49556492679109 -5.0
vertex 9.48059092870187 -5.87603457887687 -5.0
endloop
endfacet
facet normal 0.0 0.0 -1.0
outer loop
vertex 4.48109785623975 -10.1558189646355 -5.0
vertex 4.54218772912202 -6.37498002299384 -5.0
vertex 5.68700263072715 -10.6553210771586 -5.0
endloop
endfacet
facet normal 0.0 0.0 -1.0
outer loop
vertex 4.54218772912202 -6.37498002299384 -5.0
vertex 4.48109785623975 -10.1558189646355 -5.0
vertex 4.48160478377762 -5.7753493125497 -5.0
endloop
endfacet
facet normal 0.0 0.0 -1.0
outer loop
vertex 5.68700263072715 -10.6553210771586 -5.0
vertex 4.54218772912202 -6.37498002299384 -5.0
vertex 4.74451126597689 -6.94268810696736 -5.0
endloop
endfacet
facet normal 0.0 0.0 -1.0
outer loop
vertex 5.68700263072715 -10.6553210771586 -5.0
vertex 4.74451126597689 -6.94268810696736 -5.0
vertex 5.07681708579636 -7.44548043416464 -5.0
endloop
endfacet
facet normal 0.0 0.0 -1.0
outer loop
vertex 5.68700263072715 -10.6553210771586 -5.0
vertex 5.07681708579636 -7.44548043416464 -5.0
vertex 5.51979278221504 -7.85413654210473 -5.0
endloop
endfacet
facet normal 0.0 0.0 -1.0
outer loop
vertex 5.68700263072715 -10.6553210771586 -5.0
vertex 5.51979278221504 -7.85413654210473 -5.0
vertex 6.04769421790821 -8.14490682319865 -5.0
endloop
endfacet
facet normal 0.0 0.0 -1.0
outer loop
vertex 5.68700263072715 -10.6553210771586 -5.0
vertex 6.04769421790821 -8.14490682319865 -5.0
vertex 6.98109785623975 -10.8256919457133 -5.0
endloop
endfacet
facet normal 0.0 0.0 -1.0
outer loop
vertex 6.98109785623975 -10.8256919457133 -5.0
vertex 6.04769421790821 -8.14490682319865 -5.0
vertex 6.62984168027703 -8.3008927656162 -5.0
endloop
endfacet
facet normal 0.0 0.0 -1.0
outer loop
vertex 6.98109785623975 -10.8256919457133 -5.0
vertex 6.62984168027703 -8.3008927656162 -5.0
vertex 7.23240287482856 -8.3130290333699 -5.0
endloop
endfacet
facet normal 0.0 0.0 -1.0
outer loop
vertex 6.98109785623975 -10.8256919457133 -5.0
vertex 7.23240287482856 -8.3130290333699 -5.0
vertex 8.27519308175236 -10.6553210771586 -5.0
endloop
endfacet
facet normal 0.0 0.0 -1.0
outer loop
vertex 8.27519308175236 -10.6553210771586 -5.0
vertex 7.23240287482856 -8.3130290333699 -5.0
vertex 7.82035913515628 -8.18061031069144 -5.0
endloop
endfacet
facet normal 0.0 0.0 -1.0
outer loop
vertex 8.27519308175236 -10.6553210771586 -5.0
vertex 7.82035913515628 -8.18061031069144 -5.0
vertex 8.359540580544 -7.91133229242043 -5.0
endloop
endfacet
facet normal 0.0 0.0 -1.0
outer loop
vertex 8.27519308175236 -10.6553210771586 -5.0
vertex 8.359540580544 -7.91133229242043 -5.0
vertex 9.48109785623975 -10.1558189646355 -5.0
endloop
endfacet
facet normal 0.0 0.0 -1.0
outer loop
vertex 9.48109785623975 -10.1558189646355 -5.0
vertex 8.359540580544 -7.91133229242043 -5.0
vertex 8.81861194523058 -7.520844438193 -5.0
endloop
endfacet
facet normal 0.0 0.0 -1.0
outer loop
vertex 9.48109785623975 -10.1558189646355 -5.0
vertex 8.81861194523058 -7.520844438193 -5.0
vertex 9.17089367015698 -7.03184048273125 -5.0
endloop
endfacet
facet normal 0.0 0.0 -1.0
outer loop
vertex 9.48109785623975 -10.1558189646355 -5.0
vertex 9.17089367015698 -7.03184048273125 -5.0
vertex 9.39591242196242 -6.47273955846957 -5.0
endloop
endfacet
facet normal 0.0 0.0 -1.0
outer loop
vertex 9.48109785623975 -10.1558189646355 -5.0
vertex 9.39591242196242 -6.47273955846957 -5.0
vertex 9.48059092870187 -5.87603457887687 -5.0
endloop
endfacet
facet normal 0.0 0.0 -1.0
outer loop
vertex 9.48109785623975 -10.1558189646355 -5.0
vertex 9.48059092870187 -5.87603457887687 -5.0
vertex 9.48109785623975 -1.49556492679109 -5.0
endloop
endfacet
facet normal 0.0 0.0 -1.0
outer loop
vertex 9.48109785623975 -10.1558189646355 -5.0
vertex 9.48109785623975 -1.49556492679109 -5.0
vertex 10.5166317621725 -2.29015803978055 -5.0
endloop
endfacet
facet normal 0.0 0.0 -1.0
outer loop
vertex 9.48109785623975 -10.1558189646355 -5.0
vertex 10.5166317621725 -2.29015803978055 -5.0
vertex 10.5166317621725 -9.36122585164602 -5.0
endloop
endfacet
facet normal 0.0 0.0 -1.0
outer loop
vertex 10.5166317621725 -9.36122585164602 -5.0
vertex 10.5166317621725 -2.29015803978055 -5.0
vertex 11.3112248751619 -3.32569194571328 -5.0
endloop
endfacet
facet normal 0.0 0.0 -1.0
outer loop
vertex 10.5166317621725 -9.36122585164602 -5.0
vertex 11.3112248751619 -3.32569194571328 -5.0
vertex 11.3112248751619 -8.32569194571328 -5.0
endloop
endfacet
facet normal 0.0 0.0 -1.0
outer loop
vertex 11.3112248751619 -8.32569194571328 -5.0
vertex 11.3112248751619 -3.32569194571328 -5.0
vertex 11.8107269876851 -4.53159672020068 -5.0
endloop
endfacet
facet normal 0.0 0.0 -1.0
outer loop
vertex 11.3112248751619 -8.32569194571328 -5.0
vertex 11.8107269876851 -4.53159672020068 -5.0
vertex 11.8107269876851 -7.11978717122589 -5.0
endloop
endfacet
facet normal 0.0 0.0 -1.0
outer loop
vertex 11.8107269876851 -7.11978717122589 -5.0
vertex 11.8107269876851 -4.53159672020068 -5.0
vertex 11.9810978562397 -5.82569194571329 -5.0
endloop
endfacet
facet normal 0.140502470385083 0.990080327961165 5.59988851700468e-017
outer loop
vertex 6.62984168027704 -8.3008927656162 8.0
vertex 7.23240287482856 -8.3130290333699 -5.0
vertex 6.62984168027703 -8.3008927656162 -5.0
endloop
endfacet
facet normal -0.100522007435526 0.994934835062645 3.67256881979925e-017
outer loop
vertex 7.23240287482856 -8.3130290333699 -5.0
vertex 6.62984168027704 -8.3008927656162 8.0
vertex 7.23240287482856 -8.3130290333699 8.0
endloop
endfacet
facet normal -0.100522007435526 0.994934835062645 3.67256881979925e-017
outer loop
vertex 7.23240287482856 -8.3130290333699 8.0
vertex 7.82035913515628 -8.18061031069144 -5.0
vertex 7.23240287482856 -8.3130290333699 -5.0
endloop
endfacet
facet normal -0.335704511566613 0.941967345991262 3.87557085188724e-017
outer loop
vertex 7.82035913515628 -8.18061031069144 -5.0
vertex 7.23240287482856 -8.3130290333699 8.0
vertex 7.82035913515628 -8.18061031069144 8.0
endloop
endfacet
facet normal -0.335704511566613 0.941967345991262 3.87557085188724e-017
outer loop
vertex 7.82035913515628 -8.18061031069144 8.0
vertex 8.359540580544 -7.91133229242043 -5.0
vertex 7.82035913515628 -8.18061031069144 -5.0
endloop
endfacet
facet normal -0.5513770897217 0.834256138682856 9.63836088540835e-017
outer loop
vertex 8.359540580544 -7.91133229242043 -5.0
vertex 7.82035913515628 -8.18061031069144 8.0
vertex 8.359540580544 -7.91133229242043 8.0
endloop
endfacet
facet normal -0.5513770897217 0.834256138682856 9.63836088540835e-017
outer loop
vertex 8.359540580544 -7.91133229242043 8.0
vertex 8.81861194523058 -7.520844438193 -5.0
vertex 8.359540580544 -7.91133229242043 -5.0
endloop
endfacet
facet normal -0.735005635596335 0.678060996991884 -1.77220860088465e-018
outer loop
vertex 8.81861194523058 -7.520844438193 -5.0
vertex 8.359540580544 -7.91133229242043 8.0
vertex 8.81861194523058 -7.520844438193 8.0
endloop
endfacet
facet normal -0.875918325566892 0.482459414807186 -4.7406643225981e-017
outer loop
vertex 9.17089367015698 -7.03184048273125 8.0
vertex 8.81861194523058 -7.520844438193 -5.0
vertex 8.81861194523058 -7.520844438193 8.0
endloop
endfacet
facet normal -0.735005635596335 0.678060996991884 -1.77220860088465e-018
outer loop
vertex 8.81861194523058 -7.520844438193 -5.0
vertex 9.17089367015698 -7.03184048273125 8.0
vertex 9.17089367015698 -7.03184048273125 -5.0
endloop
endfacet
facet normal -0.96592582628907 0.258819045102513 2.97493884650268e-018
outer loop
vertex 9.39591242196242 -6.47273955846957 8.0
vertex 9.17089367015698 -7.03184048273125 -5.0
vertex 9.17089367015698 -7.03184048273125 8.0
endloop
endfacet
facet normal -0.875918325566892 0.482459414807186 -4.7406643225981e-017
outer loop
vertex 9.17089367015698 -7.03184048273125 -5.0
vertex 9.39591242196242 -6.47273955846957 8.0
vertex 9.39591242196242 -6.47273955846957 -5.0
endloop
endfacet
facet normal -0.99979722898485 0.0201370532654319 -5.52684804739692e-017
outer loop
vertex 9.48059092870187 -5.87603457887687 8.0
vertex 9.39591242196242 -6.47273955846957 -5.0
vertex 9.39591242196242 -6.47273955846957 8.0
endloop
endfacet
facet normal -0.96592582628907 0.258819045102513 2.97493884650268e-018
outer loop
vertex 9.39591242196242 -6.47273955846957 -5.0
vertex 9.48059092870187 -5.87603457887687 8.0
vertex 9.48059092870187 -5.87603457887687 -5.0
endloop
endfacet
facet normal -0.975564050847092 -0.219715230912224 -1.60181764545919e-016
outer loop
vertex 9.42000798335748 -5.27640386843272 8.0
vertex 9.48059092870187 -5.87603457887687 -5.0
vertex 9.48059092870187 -5.87603457887687 8.0
endloop
endfacet
facet normal -0.99979722898485 0.0201370532654319 -5.52684804739692e-017
outer loop
vertex 9.48059092870187 -5.87603457887687 -5.0
vertex 9.42000798335748 -5.27640386843272 8.0
vertex 9.42000798335748 -5.27640386843272 -5.0
endloop
endfacet
facet normal -0.975564050847092 -0.219715230912224 -1.60181764545919e-016
outer loop
vertex 9.42000798335748 -5.27640386843272 8.0
vertex 9.21768444650261 -4.7086957844592 -5.0
vertex 9.42000798335748 -5.27640386843272 -5.0
endloop
endfacet
facet normal -0.894634636105144 -0.446798464501632 -1.02109674131881e-016
outer loop
vertex 9.21768444650261 -4.7086957844592 -5.0
vertex 9.42000798335748 -5.27640386843272 8.0
vertex 9.21768444650261 -4.7086957844592 8.0
endloop
endfacet
facet normal -0.761712308177354 -0.647915395380544 2.12193007841209e-017
outer loop
vertex 8.88537862668313 -4.20590345726192 8.0
vertex 9.21768444650261 -4.7086957844592 -5.0
vertex 9.21768444650261 -4.7086957844592 8.0
endloop
endfacet
facet normal -0.894634636105144 -0.446798464501632 -1.02109674131881e-016
outer loop
vertex 9.21768444650261 -4.7086957844592 -5.0
vertex 8.88537862668313 -4.20590345726192 8.0
vertex 8.88537862668313 -4.20590345726192 -5.0
endloop
endfacet
facet normal -0.761712308177354 -0.647915395380544 2.12193007841209e-017
outer loop
vertex 8.88537862668313 -4.20590345726192 8.0
vertex 8.44240293026446 -3.79724734932184 -5.0
vertex 8.88537862668313 -4.20590345726192 -5.0
endloop
endfacet
facet normal -0.584522029609883 -0.811377838556577 2.0542724711523e-017
outer loop
vertex 8.44240293026446 -3.79724734932184 -5.0
vertex 8.88537862668313 -4.20590345726192 8.0
vertex 8.44240293026446 -3.79724734932184 8.0
endloop
endfacet
facet normal -0.584522029609883 -0.811377838556577 2.0542724711523e-017
outer loop
vertex 8.44240293026446 -3.79724734932184 8.0
vertex 7.91450149457128 -3.50647706822792 -5.0
vertex 8.44240293026446 -3.79724734932184 -5.0
endloop
endfacet
facet normal -0.373361455332614 -0.927685950994145 -3.01146081969232e-017
outer loop
vertex 7.91450149457128 -3.50647706822792 -5.0
vertex 8.44240293026446 -3.79724734932184 8.0
vertex 7.91450149457128 -3.50647706822792 8.0
endloop
endfacet
facet normal -0.373361455332614 -0.927685950994145 -3.01146081969232e-017
outer loop
vertex 7.91450149457128 -3.50647706822792 8.0
vertex 7.33235403220246 -3.35049112581037 -5.0
vertex 7.91450149457128 -3.50647706822792 -5.0
endloop
endfacet
facet normal -0.140502470385085 -0.990080327961165 -5.91085526577419e-017
outer loop
vertex 7.33235403220246 -3.35049112581037 -5.0
vertex 7.91450149457128 -3.50647706822792 8.0
vertex 7.33235403220246 -3.35049112581037 8.0
endloop
endfacet
facet normal -0.140502470385085 -0.990080327961165 -5.91085526577419e-017
outer loop
vertex 7.33235403220246 -3.35049112581037 8.0
vertex 6.72979283765094 -3.33835485805667 -5.0
vertex 7.33235403220246 -3.35049112581037 -5.0
endloop
endfacet
facet normal 0.100522007435524 -0.994934835062645 -2.71854997393515e-017
outer loop
vertex 6.72979283765094 -3.33835485805667 -5.0
vertex 7.33235403220246 -3.35049112581037 8.0
vertex 6.72979283765094 -3.33835485805667 8.0
endloop
endfacet
facet normal 0.100522007435524 -0.994934835062645 -2.71854997393515e-017
outer loop
vertex 6.72979283765094 -3.33835485805667 8.0
vertex 6.14183657732322 -3.47077358073513 -5.0
vertex 6.72979283765094 -3.33835485805667 -5.0
endloop
endfacet
facet normal 0.335704511566611 -0.941967345991263 1.72177030970331e-018
outer loop
vertex 6.14183657732322 -3.47077358073513 -5.0
vertex 6.72979283765094 -3.33835485805667 8.0
vertex 6.14183657732322 -3.47077358073513 8.0
endloop
endfacet
facet normal 0.335704511566611 -0.941967345991263 1.72177030970331e-018
outer loop
vertex 6.14183657732322 -3.47077358073513 8.0
vertex 5.60265513193551 -3.74005159900614 -5.0
vertex 6.14183657732322 -3.47077358073513 -5.0
endloop
endfacet
facet normal 0.551377089721698 -0.834256138682857 -2.06202316088553e-017
outer loop
vertex 5.60265513193551 -3.74005159900614 -5.0
vertex 6.14183657732322 -3.47077358073513 8.0
vertex 5.6026551319355 -3.74005159900614 8.0
endloop
endfacet
facet normal 0.551377089721698 -0.834256138682857 -2.06202316088553e-017
outer loop
vertex 5.6026551319355 -3.74005159900614 8.0
vertex 5.14358376724892 -4.13053945323357 -5.0
vertex 5.60265513193551 -3.74005159900614 -5.0
endloop
endfacet
facet normal 0.735005635596333 -0.678060996991886 -2.4339000308307e-017
outer loop
vertex 5.14358376724892 -4.13053945323357 -5.0
vertex 5.6026551319355 -3.74005159900614 8.0
vertex 5.14358376724891 -4.13053945323357 8.0
endloop
endfacet
facet normal 0.875918325566891 -0.482459414807187 -1.29294001312079e-017
outer loop
vertex 4.79130204232252 -4.61954340869531 -5.0
vertex 5.14358376724891 -4.13053945323357 8.0
vertex 4.79130204232252 -4.61954340869532 8.0
endloop
endfacet
facet normal 0.735005635596333 -0.678060996991886 -2.4339000308307e-017
outer loop
vertex 5.14358376724891 -4.13053945323357 8.0
vertex 4.79130204232252 -4.61954340869531 -5.0
vertex 5.14358376724892 -4.13053945323357 -5.0
endloop
endfacet
facet normal 0.96592582628907 -0.258819045102513 -3.58460538228299e-017
outer loop
vertex 4.56628329051707 -5.178644332957 -5.0
vertex 4.79130204232252 -4.61954340869532 8.0
vertex 4.56628329051707 -5.17864433295701 8.0
endloop
endfacet
facet normal 0.875918325566891 -0.482459414807187 -1.29294001312079e-017
outer loop
vertex 4.79130204232252 -4.61954340869532 8.0
vertex 4.56628329051707 -5.178644332957 -5.0
vertex 4.79130204232252 -4.61954340869531 -5.0
endloop
endfacet
facet normal 0.99979722898485 -0.0201370532654323 -7.43746930470958e-017
outer loop
vertex 4.48160478377762 -5.7753493125497 -5.0
vertex 4.56628329051707 -5.17864433295701 8.0
vertex 4.48160478377762 -5.77534931254971 8.0
endloop
endfacet
facet normal 0.96592582628907 -0.258819045102513 -3.584605382283e-017
outer loop
vertex 4.56628329051707 -5.17864433295701 8.0
vertex 4.48160478377762 -5.7753493125497 -5.0
vertex 4.56628329051707 -5.178644332957 -5.0
endloop
endfacet
facet normal 0.975564050847092 0.219715230912225 -8.28756023456178e-017
outer loop
vertex 4.54218772912202 -6.37498002299384 -5.0
vertex 4.48160478377762 -5.77534931254971 8.0
vertex 4.54218772912202 -6.37498002299385 8.0
endloop
endfacet
facet normal 0.99979722898485 -0.0201370532654321 -7.43746930470958e-017
outer loop
vertex 4.48160478377762 -5.77534931254971 8.0
vertex 4.54218772912202 -6.37498002299384 -5.0
vertex 4.48160478377762 -5.7753493125497 -5.0
endloop
endfacet
facet normal 0.894634636105144 0.446798464501633 -1.05981094515556e-016
outer loop
vertex 4.74451126597689 -6.94268810696736 -5.0
vertex 4.54218772912202 -6.37498002299385 8.0
vertex 4.74451126597689 -6.94268810696737 8.0
endloop
endfacet
facet normal 0.975564050847092 0.219715230912225 -8.28756023456178e-017
outer loop
vertex 4.54218772912202 -6.37498002299385 8.0
vertex 4.74451126597689 -6.94268810696736 -5.0
vertex 4.54218772912202 -6.37498002299384 -5.0
endloop
endfacet
facet normal 0.761712308177354 0.647915395380545 -1.14252461782368e-016
outer loop
vertex 5.07681708579636 -7.44548043416464 -5.0
vertex 4.74451126597689 -6.94268810696737 8.0
vertex 5.07681708579637 -7.44548043416465 8.0
endloop
endfacet
facet normal 0.894634636105144 0.446798464501633 -1.05981094515556e-016
outer loop
vertex 4.74451126597689 -6.94268810696737 8.0
vertex 5.07681708579636 -7.44548043416464 -5.0
vertex 4.74451126597689 -6.94268810696736 -5.0
endloop
endfacet
facet normal 0.761712308177354 0.647915395380545 -1.14252461782368e-016
outer loop
vertex 5.07681708579637 -7.44548043416465 8.0
vertex 5.51979278221504 -7.85413654210473 -5.0
vertex 5.07681708579636 -7.44548043416464 -5.0
endloop
endfacet
facet normal 0.584522029609882 0.811377838556578 -4.05436554731779e-017
outer loop
vertex 5.51979278221504 -7.85413654210473 -5.0
vertex 5.07681708579637 -7.44548043416465 8.0
vertex 5.51979278221505 -7.85413654210473 8.0
endloop
endfacet
facet normal 0.584522029609882 0.811377838556578 -4.05436554731778e-017
outer loop
vertex 5.51979278221505 -7.85413654210473 8.0
vertex 6.04769421790821 -8.14490682319865 -5.0
vertex 5.51979278221504 -7.85413654210473 -5.0
endloop
endfacet
facet normal 0.373361455332614 0.927685950994146 1.10783541359644e-017
outer loop
vertex 6.04769421790821 -8.14490682319865 -5.0
vertex 5.51979278221505 -7.85413654210473 8.0
vertex 6.04769421790822 -8.14490682319865 8.0
endloop
endfacet
facet normal 0.373361455332614 0.927685950994146 1.10783541359644e-017
outer loop
vertex 6.04769421790822 -8.14490682319865 8.0
vertex 6.62984168027703 -8.3008927656162 -5.0
vertex 6.04769421790821 -8.14490682319865 -5.0
endloop
endfacet
facet normal 0.140502470385084 0.990080327961165 5.59988851700468e-017
outer loop
vertex 6.62984168027703 -8.3008927656162 -5.0
vertex 6.04769421790822 -8.14490682319865 8.0
vertex 6.62984168027704 -8.3008927656162 8.0
endloop
endfacet
endsolid lower-ball-bearing-adapter
