solid ball-bearing-adapter
facet normal 0.0 0.0 -1.0
outer loop
vertex -2.75771644662753 2.75771644662754 -4.0
vertex -2.51140714835158 0.672929517266556 -4.0
vertex -2.6 0.0 -4.0
endloop
endfacet
facet normal 0.0 0.0 -1.0
outer loop
vertex -2.51140714835158 0.672929517266556 -4.0
vertex -2.75771644662753 2.75771644662754 -4.0
vertex -1.95 3.37749907475931 -4.0
endloop
endfacet
facet normal 0.0 0.0 -1.0
outer loop
vertex -2.51140714835158 0.672929517266556 -4.0
vertex -1.95 3.37749907475931 -4.0
vertex -2.25166604983954 1.3 -4.0
endloop
endfacet
facet normal 0.0 0.0 -1.0
outer loop
vertex -2.25166604983954 1.3 -4.0
vertex -1.95 3.37749907475931 -4.0
vertex -1.83847763108502 1.83847763108502 -4.0
endloop
endfacet
facet normal 0.0 0.0 -1.0
outer loop
vertex -1.83847763108502 1.83847763108502 -4.0
vertex -1.95 3.37749907475931 -4.0
vertex -1.00939427589983 3.76711072252737 -4.0
endloop
endfacet
facet normal 0.0 0.0 -1.0
outer loop
vertex -1.83847763108502 1.83847763108502 -4.0
vertex -1.00939427589983 3.76711072252737 -4.0
vertex -1.3 2.25166604983954 -4.0
endloop
endfacet
facet normal 0.0 0.0 -1.0
outer loop
vertex -1.3 2.25166604983954 -4.0
vertex -1.00939427589983 3.76711072252737 -4.0
vertex -0.672929517266553 2.51140714835158 -4.0
endloop
endfacet
facet normal 0.0 0.0 -1.0
outer loop
vertex -0.672929517266553 2.51140714835158 -4.0
vertex -1.00939427589983 3.76711072252737 -4.0
vertex 7.16418377501201e-016 3.9 -4.0
endloop
endfacet
facet normal 0.0 0.0 -1.0
outer loop
vertex -0.672929517266553 2.51140714835158 -4.0
vertex 7.16418377501201e-016 3.9 -4.0
vertex 4.77612251667468e-016 2.6 -4.0
endloop
endfacet
facet normal 0.0 0.0 -1.0
outer loop
vertex 4.77612251667468e-016 2.6 -4.0
vertex 7.16418377501201e-016 3.9 -4.0
vertex 0.672929517266556 2.51140714835158 -4.0
endloop
endfacet
facet normal 0.0 0.0 -1.0
outer loop
vertex 0.672929517266556 2.51140714835158 -4.0
vertex 7.16418377501201e-016 3.9 -4.0
vertex 1.00939427589983 3.76711072252737 -4.0
endloop
endfacet
facet normal 0.0 0.0 -1.0
outer loop
vertex 0.672929517266556 2.51140714835158 -4.0
vertex 1.00939427589983 3.76711072252737 -4.0
vertex 1.3 2.25166604983954 -4.0
endloop
endfacet
facet normal 0.0 0.0 -1.0
outer loop
vertex 1.3 2.25166604983954 -4.0
vertex 1.00939427589983 3.76711072252737 -4.0
vertex 1.95 3.37749907475931 -4.0
endloop
endfacet
facet normal 0.0 0.0 -1.0
outer loop
vertex 1.3 2.25166604983954 -4.0
vertex 1.95 3.37749907475931 -4.0
vertex 1.83847763108502 1.83847763108502 -4.0
endloop
endfacet
facet normal 0.0 0.0 -1.0
outer loop
vertex 1.83847763108502 1.83847763108502 -4.0
vertex 1.95 3.37749907475931 -4.0
vertex 2.25166604983954 1.3 -4.0
endloop
endfacet
facet normal 0.0 0.0 -1.0
outer loop
vertex 2.25166604983954 1.3 -4.0
vertex 1.95 3.37749907475931 -4.0
vertex 2.75771644662754 2.75771644662753 -4.0
endloop
endfacet
facet normal 0.0 0.0 -1.0
outer loop
vertex 2.25166604983954 1.3 -4.0
vertex 2.75771644662754 2.75771644662753 -4.0
vertex 2.51140714835158 0.672929517266553 -4.0
endloop
endfacet
facet normal 0.0 0.0 -1.0
outer loop
vertex 2.51140714835158 0.672929517266553 -4.0
vertex 2.75771644662754 2.75771644662753 -4.0
vertex 2.6 -3.18408167778312e-016 -4.0
endloop
endfacet
facet normal 0.0 0.0 -1.0
outer loop
vertex 2.6 -3.18408167778312e-016 -4.0
vertex 2.75771644662754 2.75771644662753 -4.0
vertex 2.75771644662753 -2.75771644662754 -4.0
endloop
endfacet
facet normal 0.0 0.0 -1.0
outer loop
vertex 2.75771644662753 -2.75771644662754 -4.0
vertex 2.75771644662754 2.75771644662753 -4.0
vertex 3.37749907475931 -1.95 -4.0
endloop
endfacet
facet normal 0.0 0.0 -1.0
outer loop
vertex 3.37749907475931 -1.95 -4.0
vertex 2.75771644662754 2.75771644662753 -4.0
vertex 3.37749907475931 1.95 -4.0
endloop
endfacet
facet normal 0.0 0.0 -1.0
outer loop
vertex 3.37749907475931 -1.95 -4.0
vertex 3.37749907475931 1.95 -4.0
vertex 3.76711072252736 -1.00939427589983 -4.0
endloop
endfacet
facet normal 0.0 0.0 -1.0
outer loop
vertex 3.76711072252736 -1.00939427589983 -4.0
vertex 3.37749907475931 1.95 -4.0
vertex 3.76711072252737 1.00939427589983 -4.0
endloop
endfacet
facet normal 0.0 0.0 -1.0
outer loop
vertex 3.76711072252736 -1.00939427589983 -4.0
vertex 3.76711072252737 1.00939427589983 -4.0
vertex 3.9 -4.77612251667468e-016 -4.0
endloop
endfacet
facet normal 0.0 0.0 -1.0
outer loop
vertex -3.76711072252736 1.00939427589983 -4.0
vertex -3.76711072252737 -1.00939427589983 -4.0
vertex -3.9 0.0 -4.0
endloop
endfacet
facet normal 0.0 0.0 -1.0
outer loop
vertex -3.76711072252737 -1.00939427589983 -4.0
vertex -3.76711072252736 1.00939427589983 -4.0
vertex -3.37749907475931 -1.95 -4.0
endloop
endfacet
facet normal 0.0 0.0 -1.0
outer loop
vertex -3.37749907475931 -1.95 -4.0
vertex -3.76711072252736 1.00939427589983 -4.0
vertex -3.37749907475931 1.95 -4.0
endloop
endfacet
facet normal 0.0 0.0 -1.0
outer loop
vertex -3.37749907475931 -1.95 -4.0
vertex -3.37749907475931 1.95 -4.0
vertex -2.75771644662754 -2.75771644662754 -4.0
endloop
endfacet
facet normal 0.0 0.0 -1.0
outer loop
vertex -2.75771644662754 -2.75771644662754 -4.0
vertex -3.37749907475931 1.95 -4.0
vertex -2.75771644662753 2.75771644662754 -4.0
endloop
endfacet
facet normal 0.0 0.0 -1.0
outer loop
vertex -2.75771644662754 -2.75771644662754 -4.0
vertex -2.75771644662753 2.75771644662754 -4.0
vertex -2.6 0.0 -4.0
endloop
endfacet
facet normal 0.0 0.0 -1.0
outer loop
vertex -2.75771644662754 -2.75771644662754 -4.0
vertex -2.6 0.0 -4.0
vertex -2.51140714835158 -0.672929517266554 -4.0
endloop
endfacet
facet normal 0.0 0.0 -1.0
outer loop
vertex -2.75771644662754 -2.75771644662754 -4.0
vertex -2.51140714835158 -0.672929517266554 -4.0
vertex -1.95 -3.37749907475931 -4.0
endloop
endfacet
facet normal 0.0 0.0 -1.0
outer loop
vertex -1.95 -3.37749907475931 -4.0
vertex -2.51140714835158 -0.672929517266554 -4.0
vertex -2.25166604983954 -1.3 -4.0
endloop
endfacet
facet normal 0.0 0.0 -1.0
outer loop
vertex -1.95 -3.37749907475931 -4.0
vertex -2.25166604983954 -1.3 -4.0
vertex -1.83847763108502 -1.83847763108502 -4.0
endloop
endfacet
facet normal 0.0 0.0 -1.0
outer loop
vertex -1.95 -3.37749907475931 -4.0
vertex -1.83847763108502 -1.83847763108502 -4.0
vertex -1.00939427589983 -3.76711072252737 -4.0
endloop
endfacet
facet normal 0.0 0.0 -1.0
outer loop
vertex -1.00939427589983 -3.76711072252737 -4.0
vertex -1.83847763108502 -1.83847763108502 -4.0
vertex -1.3 -2.25166604983954 -4.0
endloop
endfacet
facet normal 0.0 0.0 -1.0
outer loop
vertex -1.00939427589983 -3.76711072252737 -4.0
vertex -1.3 -2.25166604983954 -4.0
vertex -0.672929517266554 -2.51140714835158 -4.0
endloop
endfacet
facet normal 0.0 0.0 -1.0
outer loop
vertex -1.00939427589983 -3.76711072252737 -4.0
vertex -0.672929517266554 -2.51140714835158 -4.0
vertex -2.38806125833734e-016 -3.9 -4.0
endloop
endfacet
facet normal 0.0 0.0 -1.0
outer loop
vertex -2.38806125833734e-016 -3.9 -4.0
vertex -0.672929517266554 -2.51140714835158 -4.0
vertex -1.59204083889156e-016 -2.6 -4.0
endloop
endfacet
facet normal 0.0 0.0 -1.0
outer loop
vertex -2.38806125833734e-016 -3.9 -4.0
vertex -1.59204083889156e-016 -2.6 -4.0
vertex 1.00939427589983 -3.76711072252737 -4.0
endloop
endfacet
facet normal 0.0 0.0 -1.0
outer loop
vertex 1.00939427589983 -3.76711072252737 -4.0
vertex -1.59204083889156e-016 -2.6 -4.0
vertex 0.672929517266554 -2.51140714835158 -4.0
endloop
endfacet
facet normal 0.0 0.0 -1.0
outer loop
vertex 1.00939427589983 -3.76711072252737 -4.0
vertex 0.672929517266554 -2.51140714835158 -4.0
vertex 1.3 -2.25166604983954 -4.0
endloop
endfacet
facet normal 0.0 0.0 -1.0
outer loop
vertex 1.00939427589983 -3.76711072252737 -4.0
vertex 1.3 -2.25166604983954 -4.0
vertex 1.95 -3.37749907475931 -4.0
endloop
endfacet
facet normal 0.0 0.0 -1.0
outer loop
vertex 1.95 -3.37749907475931 -4.0
vertex 1.3 -2.25166604983954 -4.0
vertex 1.83847763108502 -1.83847763108502 -4.0
endloop
endfacet
facet normal 0.0 0.0 -1.0
outer loop
vertex 1.95 -3.37749907475931 -4.0
vertex 1.83847763108502 -1.83847763108502 -4.0
vertex 2.25166604983954 -1.3 -4.0
endloop
endfacet
facet normal 0.0 0.0 -1.0
outer loop
vertex 1.95 -3.37749907475931 -4.0
vertex 2.25166604983954 -1.3 -4.0
vertex 2.75771644662753 -2.75771644662754 -4.0
endloop
endfacet
facet normal 0.0 0.0 -1.0
outer loop
vertex 2.75771644662753 -2.75771644662754 -4.0
vertex 2.25166604983954 -1.3 -4.0
vertex 2.51140714835158 -0.672929517266555 -4.0
endloop
endfacet
facet normal 0.0 0.0 -1.0
outer loop
vertex 2.75771644662753 -2.75771644662754 -4.0
vertex 2.51140714835158 -0.672929517266555 -4.0
vertex 2.6 -3.18408167778312e-016 -4.0
endloop
endfacet
facet normal -0.965925826289068 -0.25881904510252 0.0
outer loop
vertex 2.51140714835158 0.672929517266553 3.0
vertex 2.6 -3.18408167778312e-016 -4.0
vertex 2.6 -3.18408167778312e-016 3.0
endloop
endfacet
facet normal -1.0 4.18822165095404e-016 0.0
outer loop
vertex 2.6 -3.18408167778312e-016 -4.0
vertex 2.51140714835158 0.672929517266553 3.0
vertex 2.51140714835158 0.672929517266553 -4.0
endloop
endfacet
facet normal -1.0 4.18822165095404e-016 0.0
outer loop
vertex 2.6 -3.18408167778312e-016 3.0
vertex 2.51140714835158 -0.672929517266555 -4.0
vertex 2.51140714835158 -0.672929517266555 3.0
endloop
endfacet
facet normal -0.965925826289068 0.258819045102521 0.0
outer loop
vertex 2.51140714835158 -0.672929517266555 -4.0
vertex 2.6 -3.18408167778312e-016 3.0
vertex 2.6 -3.18408167778312e-016 -4.0
endloop
endfacet
facet normal -0.965925826289068 0.258819045102521 0.0
outer loop
vertex 2.51140714835158 -0.672929517266555 3.0
vertex 2.25166604983954 -1.3 -4.0
vertex 2.25166604983954 -1.3 3.0
endloop
endfacet
facet normal -0.866025403784438 0.5 0.0
outer loop
vertex 2.25166604983954 -1.3 -4.0
vertex 2.51140714835158 -0.672929517266555 3.0
vertex 2.51140714835158 -0.672929517266555 -4.0
endloop
endfacet
facet normal -0.866025403784438 0.5 0.0
outer loop
vertex 2.25166604983954 -1.3 3.0
vertex 1.83847763108502 -1.83847763108502 -4.0
vertex 1.83847763108502 -1.83847763108502 3.0
endloop
endfacet
facet normal -0.707106781186547 0.707106781186548 0.0
outer loop
vertex 1.83847763108502 -1.83847763108502 -4.0
vertex 2.25166604983954 -1.3 3.0
vertex 2.25166604983954 -1.3 -4.0
endloop
endfacet
facet normal -0.5 0.866025403784439 0.0
outer loop
vertex 1.3 -2.25166604983954 3.0
vertex 1.83847763108502 -1.83847763108502 -4.0
vertex 1.3 -2.25166604983954 -4.0
endloop
endfacet
facet normal -0.707106781186547 0.707106781186548 0.0
outer loop
vertex 1.83847763108502 -1.83847763108502 -4.0
vertex 1.3 -2.25166604983954 3.0
vertex 1.83847763108502 -1.83847763108502 3.0
endloop
endfacet
facet normal -0.258819045102521 0.965925826289068 0.0
outer loop
vertex 0.672929517266554 -2.51140714835158 3.0
vertex 1.3 -2.25166604983954 -4.0
vertex 0.672929517266554 -2.51140714835158 -4.0
endloop
endfacet
facet normal -0.5 0.866025403784439 0.0
outer loop
vertex 1.3 -2.25166604983954 -4.0
vertex 0.672929517266554 -2.51140714835158 3.0
vertex 1.3 -2.25166604983954 3.0
endloop
endfacet
facet normal 2.22777747391173e-016 1.0 0.0
outer loop
vertex -1.59204083889156e-016 -2.6 3.0
vertex 0.672929517266554 -2.51140714835158 -4.0
vertex -1.59204083889156e-016 -2.6 -4.0
endloop
endfacet
facet normal -0.258819045102521 0.965925826289068 0.0
outer loop
vertex 0.672929517266554 -2.51140714835158 -4.0
vertex -1.59204083889156e-016 -2.6 3.0
vertex 0.672929517266554 -2.51140714835158 3.0
endloop
endfacet
facet normal 0.258819045102521 0.965925826289068 0.0
outer loop
vertex -0.672929517266554 -2.51140714835158 3.0
vertex -1.59204083889156e-016 -2.6 -4.0
vertex -0.672929517266554 -2.51140714835158 -4.0
endloop
endfacet
facet normal 2.22777747391173e-016 1.0 0.0
outer loop
vertex -1.59204083889156e-016 -2.6 -4.0
vertex -0.672929517266554 -2.51140714835158 3.0
vertex -1.59204083889156e-016 -2.6 3.0
endloop
endfacet
facet normal 0.5 0.866025403784439 0.0
outer loop
vertex -1.3 -2.25166604983954 3.0
vertex -0.672929517266554 -2.51140714835158 -4.0
vertex -1.3 -2.25166604983954 -4.0
endloop
endfacet
facet normal 0.258819045102521 0.965925826289068 0.0
outer loop
vertex -0.672929517266554 -2.51140714835158 -4.0
vertex -1.3 -2.25166604983954 3.0
vertex -0.672929517266554 -2.51140714835158 3.0
endloop
endfacet
facet normal 0.707106781186548 0.707106781186547 0.0
outer loop
vertex -1.83847763108502 -1.83847763108502 3.0
vertex -1.3 -2.25166604983954 -4.0
vertex -1.83847763108502 -1.83847763108502 -4.0
endloop
endfacet
facet normal 0.5 0.866025403784439 0.0
outer loop
vertex -1.3 -2.25166604983954 -4.0
vertex -1.83847763108502 -1.83847763108502 3.0
vertex -1.3 -2.25166604983954 3.0
endloop
endfacet
facet normal 0.866025403784439 0.5 0.0
outer loop
vertex -2.25166604983954 -1.3 -4.0
vertex -1.83847763108502 -1.83847763108502 3.0
vertex -1.83847763108502 -1.83847763108502 -4.0
endloop
endfacet
facet normal 0.707106781186548 0.707106781186547 0.0
outer loop
vertex -1.83847763108502 -1.83847763108502 3.0
vertex -2.25166604983954 -1.3 -4.0
vertex -2.25166604983954 -1.3 3.0
endloop
endfacet
facet normal 0.965925826289068 0.258819045102521 0.0
outer loop
vertex -2.51140714835158 -0.672929517266554 -4.0
vertex -2.25166604983954 -1.3 3.0
vertex -2.25166604983954 -1.3 -4.0
endloop
endfacet
facet normal 0.866025403784439 0.5 0.0
outer loop
vertex -2.25166604983954 -1.3 3.0
vertex -2.51140714835158 -0.672929517266554 -4.0
vertex -2.51140714835158 -0.672929517266554 3.0
endloop
endfacet
facet normal 1.0 -5.34666593738814e-017 0.0
outer loop
vertex -2.6 0.0 -4.0
vertex -2.51140714835158 -0.672929517266554 3.0
vertex -2.51140714835158 -0.672929517266554 -4.0
endloop
endfacet
facet normal 0.965925826289068 0.258819045102521 0.0
outer loop
vertex -2.51140714835158 -0.672929517266554 3.0
vertex -2.6 0.0 -4.0
vertex -2.6 0.0 3.0
endloop
endfacet
facet normal 0.965925826289068 -0.258819045102521 0.0
outer loop
vertex -2.51140714835158 0.672929517266556 -4.0
vertex -2.6 0.0 3.0
vertex -2.6 0.0 -4.0
endloop
endfacet
facet normal 1.0 -5.34666593738814e-017 0.0
outer loop
vertex -2.6 0.0 3.0
vertex -2.51140714835158 0.672929517266556 -4.0
vertex -2.51140714835158 0.672929517266556 3.0
endloop
endfacet
facet normal 0.866025403784438 -0.5 0.0
outer loop
vertex -2.25166604983954 1.3 -4.0
vertex -2.51140714835158 0.672929517266556 3.0
vertex -2.51140714835158 0.672929517266556 -4.0
endloop
endfacet
facet normal 0.965925826289068 -0.258819045102521 0.0
outer loop
vertex -2.51140714835158 0.672929517266556 3.0
vertex -2.25166604983954 1.3 -4.0
vertex -2.25166604983954 1.3 3.0
endloop
endfacet
facet normal 0.707106781186547 -0.707106781186548 0.0
outer loop
vertex -1.83847763108502 1.83847763108502 -4.0
vertex -2.25166604983954 1.3 3.0
vertex -2.25166604983954 1.3 -4.0
endloop
endfacet
facet normal 0.866025403784438 -0.5 0.0
outer loop
vertex -2.25166604983954 1.3 3.0
vertex -1.83847763108502 1.83847763108502 -4.0
vertex -1.83847763108502 1.83847763108502 3.0
endloop
endfacet
facet normal 0.5 -0.866025403784439 0.0
outer loop
vertex -1.3 2.25166604983954 3.0
vertex -1.83847763108502 1.83847763108502 -4.0
vertex -1.3 2.25166604983954 -4.0
endloop
endfacet
facet normal 0.707106781186547 -0.707106781186548 0.0
outer loop
vertex -1.83847763108502 1.83847763108502 -4.0
vertex -1.3 2.25166604983954 3.0
vertex -1.83847763108502 1.83847763108502 3.0
endloop
endfacet
facet normal 0.25881904510252 -0.965925826289068 0.0
outer loop
vertex -0.672929517266553 2.51140714835158 3.0
vertex -1.3 2.25166604983954 -4.0
vertex -0.672929517266553 2.51140714835158 -4.0
endloop
endfacet
facet normal 0.5 -0.866025403784439 0.0
outer loop
vertex -1.3 2.25166604983954 -4.0
vertex -0.672929517266553 2.51140714835158 3.0
vertex -1.3 2.25166604983954 3.0
endloop
endfacet
facet normal -2.76244406765054e-016 -1.0 0.0
outer loop
vertex 4.77612251667468e-016 2.6 3.0
vertex -0.672929517266553 2.51140714835158 -4.0
vertex 4.77612251667468e-016 2.6 -4.0
endloop
endfacet
facet normal 0.25881904510252 -0.965925826289068 0.0
outer loop
vertex -0.672929517266553 2.51140714835158 -4.0
vertex 4.77612251667468e-016 2.6 3.0
vertex -0.672929517266553 2.51140714835158 3.0
endloop
endfacet
facet normal -0.258819045102521 -0.965925826289068 0.0
outer loop
vertex 0.672929517266556 2.51140714835158 3.0
vertex 4.77612251667468e-016 2.6 -4.0
vertex 0.672929517266556 2.51140714835158 -4.0
endloop
endfacet
facet normal -2.76244406765054e-016 -1.0 0.0
outer loop
vertex 4.77612251667468e-016 2.6 -4.0
vertex 0.672929517266556 2.51140714835158 3.0
vertex 4.77612251667468e-016 2.6 3.0
endloop
endfacet
facet normal -0.500000000000001 -0.866025403784438 0.0
outer loop
vertex 1.3 2.25166604983954 3.0
vertex 0.672929517266556 2.51140714835158 -4.0
vertex 1.3 2.25166604983954 -4.0
endloop
endfacet
facet normal -0.258819045102521 -0.965925826289068 0.0
outer loop
vertex 0.672929517266556 2.51140714835158 -4.0
vertex 1.3 2.25166604983954 3.0
vertex 0.672929517266556 2.51140714835158 3.0
endloop
endfacet
facet normal -0.707106781186548 -0.707106781186547 0.0
outer loop
vertex 1.83847763108502 1.83847763108502 3.0
vertex 1.3 2.25166604983954 -4.0
vertex 1.83847763108502 1.83847763108502 -4.0
endloop
endfacet
facet normal -0.500000000000001 -0.866025403784438 0.0
outer loop
vertex 1.3 2.25166604983954 -4.0
vertex 1.83847763108502 1.83847763108502 3.0
vertex 1.3 2.25166604983954 3.0
endloop
endfacet
facet normal -0.707106781186548 -0.707106781186547 0.0
outer loop
vertex 1.83847763108502 1.83847763108502 3.0
vertex 2.25166604983954 1.3 -4.0
vertex 2.25166604983954 1.3 3.0
endloop
endfacet
facet normal -0.866025403784439 -0.5 0.0
outer loop
vertex 2.25166604983954 1.3 -4.0
vertex 1.83847763108502 1.83847763108502 3.0
vertex 1.83847763108502 1.83847763108502 -4.0
endloop
endfacet
facet normal -0.866025403784439 -0.5 0.0
outer loop
vertex 2.25166604983954 1.3 3.0
vertex 2.51140714835158 0.672929517266553 -4.0
vertex 2.51140714835158 0.672929517266553 3.0
endloop
endfacet
facet normal -0.965925826289068 -0.25881904510252 0.0
outer loop
vertex 2.51140714835158 0.672929517266553 -4.0
vertex 2.25166604983954 1.3 3.0
vertex 2.25166604983954 1.3 -4.0
endloop
endfacet
facet normal 0.0 0.0 -1.0
outer loop
vertex -3.53553390593274 3.53553390593274 -2.0
vertex -3.9 0.0 -2.0
vertex -4.33012701892219 2.5 -2.0
endloop
endfacet
facet normal 0.0 0.0 -1.0
outer loop
vertex -3.9 0.0 -2.0
vertex -3.53553390593274 3.53553390593274 -2.0
vertex -3.76711072252736 1.00939427589983 -2.0
endloop
endfacet
facet normal 0.0 0.0 -1.0
outer loop
vertex -3.76711072252736 1.00939427589983 -2.0
vertex -3.53553390593274 3.53553390593274 -2.0
vertex -3.37749907475931 1.95 -2.0
endloop
endfacet
facet normal 0.0 0.0 -1.0
outer loop
vertex -3.37749907475931 1.95 -2.0
vertex -3.53553390593274 3.53553390593274 -2.0
vertex -2.5 4.3301270189222 -2.0
endloop
endfacet
facet normal 0.0 0.0 -1.0
outer loop
vertex -3.37749907475931 1.95 -2.0
vertex -2.5 4.3301270189222 -2.0
vertex -2.75771644662753 2.75771644662754 -2.0
endloop
endfacet
facet normal 0.0 0.0 -1.0
outer loop
vertex -2.75771644662753 2.75771644662754 -2.0
vertex -2.5 4.3301270189222 -2.0
vertex -1.95 3.37749907475931 -2.0
endloop
endfacet
facet normal 0.0 0.0 -1.0
outer loop
vertex -1.95 3.37749907475931 -2.0
vertex -2.5 4.3301270189222 -2.0
vertex -1.2940952255126 4.82962913144534 -2.0
endloop
endfacet
facet normal 0.0 0.0 -1.0
outer loop
vertex -1.95 3.37749907475931 -2.0
vertex -1.2940952255126 4.82962913144534 -2.0
vertex -1.00939427589983 3.76711072252737 -2.0
endloop
endfacet
facet normal 0.0 0.0 -1.0
outer loop
vertex -1.00939427589983 3.76711072252737 -2.0
vertex -1.2940952255126 4.82962913144534 -2.0
vertex 9.18485099360515e-016 5.0 -2.0
endloop
endfacet
facet normal 0.0 0.0 -1.0
outer loop
vertex -1.00939427589983 3.76711072252737 -2.0
vertex 9.18485099360515e-016 5.0 -2.0
vertex 7.16418377501201e-016 3.9 -2.0
endloop
endfacet
facet normal 0.0 0.0 -1.0
outer loop
vertex 7.16418377501201e-016 3.9 -2.0
vertex 9.18485099360515e-016 5.0 -2.0
vertex 1.00939427589983 3.76711072252737 -2.0
endloop
endfacet
facet normal 0.0 0.0 -1.0
outer loop
vertex 1.00939427589983 3.76711072252737 -2.0
vertex 9.18485099360515e-016 5.0 -2.0
vertex 1.29409522551261 4.82962913144534 -2.0
endloop
endfacet
facet normal 0.0 0.0 -1.0
outer loop
vertex 1.00939427589983 3.76711072252737 -2.0
vertex 1.29409522551261 4.82962913144534 -2.0
vertex 1.95 3.37749907475931 -2.0
endloop
endfacet
facet normal 0.0 0.0 -1.0
outer loop
vertex 1.95 3.37749907475931 -2.0
vertex 1.29409522551261 4.82962913144534 -2.0
vertex 2.5 4.33012701892219 -2.0
endloop
endfacet
facet normal 0.0 0.0 -1.0
outer loop
vertex 1.95 3.37749907475931 -2.0
vertex 2.5 4.33012701892219 -2.0
vertex 2.75771644662754 2.75771644662753 -2.0
endloop
endfacet
facet normal 0.0 0.0 -1.0
outer loop
vertex 2.75771644662754 2.75771644662753 -2.0
vertex 2.5 4.33012701892219 -2.0
vertex 3.53553390593274 3.53553390593274 -2.0
endloop
endfacet
facet normal 0.0 0.0 -1.0
outer loop
vertex 2.75771644662754 2.75771644662753 -2.0
vertex 3.53553390593274 3.53553390593274 -2.0
vertex 3.37749907475931 1.95 -2.0
endloop
endfacet
facet normal 0.0 0.0 -1.0
outer loop
vertex 3.37749907475931 1.95 -2.0
vertex 3.53553390593274 3.53553390593274 -2.0
vertex 3.76711072252737 1.00939427589983 -2.0
endloop
endfacet
facet normal 0.0 0.0 -1.0
outer loop
vertex 3.76711072252737 1.00939427589983 -2.0
vertex 3.53553390593274 3.53553390593274 -2.0
vertex 4.33012701892219 2.5 -2.0
endloop
endfacet
facet normal 0.0 0.0 -1.0
outer loop
vertex 3.76711072252737 1.00939427589983 -2.0
vertex 4.33012701892219 2.5 -2.0
vertex 3.9 -4.77612251667468e-016 -2.0
endloop
endfacet
facet normal 0.0 0.0 -1.0
outer loop
vertex 3.9 -4.77612251667468e-016 -2.0
vertex 4.33012701892219 2.5 -2.0
vertex 4.33012701892219 -2.5 -2.0
endloop
endfacet
facet normal 0.0 0.0 -1.0
outer loop
vertex 4.33012701892219 -2.5 -2.0
vertex 4.33012701892219 2.5 -2.0
vertex 4.82962913144534 -1.29409522551261 -2.0
endloop
endfacet
facet normal 0.0 0.0 -1.0
outer loop
vertex 4.82962913144534 -1.29409522551261 -2.0
vertex 4.33012701892219 2.5 -2.0
vertex 4.82962913144534 1.2940952255126 -2.0
endloop
endfacet
facet normal 0.0 0.0 -1.0
outer loop
vertex 4.82962913144534 -1.29409522551261 -2.0
vertex 4.82962913144534 1.2940952255126 -2.0
vertex 5.0 -6.12323399573677e-016 -2.0
endloop
endfacet
facet normal 0.0 0.0 -1.0
outer loop
vertex -4.82962913144534 1.29409522551261 -2.0
vertex -4.82962913144534 -1.2940952255126 -2.0
vertex -5.0 0.0 -2.0
endloop
endfacet
facet normal 0.0 0.0 -1.0
outer loop
vertex -4.82962913144534 -1.2940952255126 -2.0
vertex -4.82962913144534 1.29409522551261 -2.0
vertex -4.33012701892219 -2.5 -2.0
endloop
endfacet
facet normal 0.0 0.0 -1.0
outer loop
vertex -4.33012701892219 -2.5 -2.0
vertex -4.82962913144534 1.29409522551261 -2.0
vertex -4.33012701892219 2.5 -2.0
endloop
endfacet
facet normal 0.0 0.0 -1.0
outer loop
vertex -4.33012701892219 -2.5 -2.0
vertex -4.33012701892219 2.5 -2.0
vertex -3.53553390593274 -3.53553390593274 -2.0
endloop
endfacet
facet normal 0.0 0.0 -1.0
outer loop
vertex -3.53553390593274 -3.53553390593274 -2.0
vertex -4.33012701892219 2.5 -2.0
vertex -3.9 0.0 -2.0
endloop
endfacet
facet normal 0.0 0.0 -1.0
outer loop
vertex -3.53553390593274 -3.53553390593274 -2.0
vertex -3.9 0.0 -2.0
vertex -3.76711072252737 -1.00939427589983 -2.0
endloop
endfacet
facet normal 0.0 0.0 -1.0
outer loop
vertex -3.53553390593274 -3.53553390593274 -2.0
vertex -3.76711072252737 -1.00939427589983 -2.0
vertex -3.37749907475931 -1.95 -2.0
endloop
endfacet
facet normal 0.0 0.0 -1.0
outer loop
vertex -3.53553390593274 -3.53553390593274 -2.0
vertex -3.37749907475931 -1.95 -2.0
vertex -2.5 -4.33012701892219 -2.0
endloop
endfacet
facet normal 0.0 0.0 -1.0
outer loop
vertex -2.5 -4.33012701892219 -2.0
vertex -3.37749907475931 -1.95 -2.0
vertex -2.75771644662754 -2.75771644662754 -2.0
endloop
endfacet
facet normal 0.0 0.0 -1.0
outer loop
vertex -2.5 -4.33012701892219 -2.0
vertex -2.75771644662754 -2.75771644662754 -2.0
vertex -1.95 -3.37749907475931 -2.0
endloop
endfacet
facet normal 0.0 0.0 -1.0
outer loop
vertex -2.5 -4.33012701892219 -2.0
vertex -1.95 -3.37749907475931 -2.0
vertex -1.2940952255126 -4.82962913144534 -2.0
endloop
endfacet
facet normal 0.0 0.0 -1.0
outer loop
vertex -1.2940952255126 -4.82962913144534 -2.0
vertex -1.95 -3.37749907475931 -2.0
vertex -1.00939427589983 -3.76711072252737 -2.0
endloop
endfacet
facet normal 0.0 0.0 -1.0
outer loop
vertex -1.2940952255126 -4.82962913144534 -2.0
vertex -1.00939427589983 -3.76711072252737 -2.0
vertex -3.06161699786838e-016 -5.0 -2.0
endloop
endfacet
facet normal 0.0 0.0 -1.0
outer loop
vertex -3.06161699786838e-016 -5.0 -2.0
vertex -1.00939427589983 -3.76711072252737 -2.0
vertex -2.38806125833734e-016 -3.9 -2.0
endloop
endfacet
facet normal 0.0 0.0 -1.0
outer loop
vertex -3.06161699786838e-016 -5.0 -2.0
vertex -2.38806125833734e-016 -3.9 -2.0
vertex 1.2940952255126 -4.82962913144534 -2.0
endloop
endfacet
facet normal 0.0 0.0 -1.0
outer loop
vertex 1.2940952255126 -4.82962913144534 -2.0
vertex -2.38806125833734e-016 -3.9 -2.0
vertex 1.00939427589983 -3.76711072252737 -2.0
endloop
endfacet
facet normal 0.0 0.0 -1.0
outer loop
vertex 1.2940952255126 -4.82962913144534 -2.0
vertex 1.00939427589983 -3.76711072252737 -2.0
vertex 1.95 -3.37749907475931 -2.0
endloop
endfacet
facet normal 0.0 0.0 -1.0
outer loop
vertex 1.2940952255126 -4.82962913144534 -2.0
vertex 1.95 -3.37749907475931 -2.0
vertex 2.5 -4.33012701892219 -2.0
endloop
endfacet
facet normal 0.0 0.0 -1.0
outer loop
vertex 2.5 -4.33012701892219 -2.0
vertex 1.95 -3.37749907475931 -2.0
vertex 2.75771644662753 -2.75771644662754 -2.0
endloop
endfacet
facet normal 0.0 0.0 -1.0
outer loop
vertex 2.5 -4.33012701892219 -2.0
vertex 2.75771644662753 -2.75771644662754 -2.0
vertex 3.53553390593274 -3.53553390593274 -2.0
endloop
endfacet
facet normal 0.0 0.0 -1.0
outer loop
vertex 3.53553390593274 -3.53553390593274 -2.0
vertex 2.75771644662753 -2.75771644662754 -2.0
vertex 3.37749907475931 -1.95 -2.0
endloop
endfacet
facet normal 0.0 0.0 -1.0
outer loop
vertex 3.53553390593274 -3.53553390593274 -2.0
vertex 3.37749907475931 -1.95 -2.0
vertex 3.76711072252736 -1.00939427589983 -2.0
endloop
endfacet
facet normal 0.0 0.0 -1.0
outer loop
vertex 3.53553390593274 -3.53553390593274 -2.0
vertex 3.76711072252736 -1.00939427589983 -2.0
vertex 4.33012701892219 -2.5 -2.0
endloop
endfacet
facet normal 0.0 0.0 -1.0
outer loop
vertex 4.33012701892219 -2.5 -2.0
vertex 3.76711072252736 -1.00939427589983 -2.0
vertex 3.9 -4.77612251667468e-016 -2.0
endloop
endfacet
facet normal -0.965925826289068 -0.258819045102521 0.0
outer loop
vertex -4.82962913144534 -1.2940952255126 0.0
vertex -4.33012701892219 -2.5 -2.0
vertex -4.33012701892219 -2.5 0.0
endloop
endfacet
facet normal -0.866025403784439 -0.5 0.0
outer loop
vertex -4.33012701892219 -2.5 -2.0
vertex -4.82962913144534 -1.2940952255126 0.0
vertex -4.82962913144534 -1.2940952255126 -2.0
endloop
endfacet
facet normal -1.0 7.12888791651753e-017 0.0
outer loop
vertex -5.0 0.0 0.0
vertex -4.82962913144534 -1.2940952255126 -2.0
vertex -4.82962913144534 -1.2940952255126 0.0
endloop
endfacet
facet normal -0.965925826289068 -0.258819045102521 0.0
outer loop
vertex -4.82962913144534 -1.2940952255126 -2.0
vertex -5.0 0.0 0.0
vertex -5.0 0.0 -2.0
endloop
endfacet
facet normal -0.965925826289068 0.258819045102521 0.0
outer loop
vertex -4.82962913144534 1.29409522551261 0.0
vertex -5.0 0.0 -2.0
vertex -5.0 0.0 0.0
endloop
endfacet
facet normal -1.0 7.12888791651753e-017 0.0
outer loop
vertex -5.0 0.0 -2.0
vertex -4.82962913144534 1.29409522551261 0.0
vertex -4.82962913144534 1.29409522551261 -2.0
endloop
endfacet
facet normal -0.866025403784438 0.500000000000001 0.0
outer loop
vertex -4.33012701892219 2.5 0.0
vertex -4.82962913144534 1.29409522551261 -2.0
vertex -4.82962913144534 1.29409522551261 0.0
endloop
endfacet
facet normal -0.965925826289068 0.258819045102521 0.0
outer loop
vertex -4.82962913144534 1.29409522551261 -2.0
vertex -4.33012701892219 2.5 0.0
vertex -4.33012701892219 2.5 -2.0
endloop
endfacet
facet normal -0.707106781186547 0.707106781186548 0.0
outer loop
vertex -3.53553390593274 3.53553390593274 0.0
vertex -4.33012701892219 2.5 -2.0
vertex -4.33012701892219 2.5 0.0
endloop
endfacet
facet normal -0.866025403784438 0.500000000000001 0.0
outer loop
vertex -4.33012701892219 2.5 -2.0
vertex -3.53553390593274 3.53553390593274 0.0
vertex -3.53553390593274 3.53553390593274 -2.0
endloop
endfacet
facet normal -0.707106781186547 0.707106781186548 0.0
outer loop
vertex -3.53553390593274 3.53553390593274 0.0
vertex -2.5 4.3301270189222 -2.0
vertex -3.53553390593274 3.53553390593274 -2.0
endloop
endfacet
facet normal -0.499999999999999 0.866025403784439 0.0
outer loop
vertex -2.5 4.3301270189222 -2.0
vertex -3.53553390593274 3.53553390593274 0.0
vertex -2.5 4.3301270189222 0.0
endloop
endfacet
facet normal -0.499999999999999 0.866025403784439 0.0
outer loop
vertex -2.5 4.3301270189222 0.0
vertex -1.2940952255126 4.82962913144534 -2.0
vertex -2.5 4.3301270189222 -2.0
endloop
endfacet
facet normal -0.25881904510252 0.965925826289068 0.0
outer loop
vertex -1.2940952255126 4.82962913144534 -2.0
vertex -2.5 4.3301270189222 0.0
vertex -1.2940952255126 4.82962913144534 0.0
endloop
endfacet
facet normal -0.25881904510252 0.965925826289068 0.0
outer loop
vertex -1.2940952255126 4.82962913144534 0.0
vertex 9.18485099360515e-016 5.0 -2.0
vertex -1.2940952255126 4.82962913144534 -2.0
endloop
endfacet
facet normal 3.20799956243289e-016 1.0 0.0
outer loop
vertex 9.18485099360515e-016 5.0 -2.0
vertex -1.2940952255126 4.82962913144534 0.0
vertex 9.18485099360515e-016 5.0 0.0
endloop
endfacet
facet normal 3.20799956243289e-016 1.0 0.0
outer loop
vertex 9.18485099360515e-016 5.0 0.0
vertex 1.29409522551261 4.82962913144534 -2.0
vertex 9.18485099360515e-016 5.0 -2.0
endloop
endfacet
facet normal 0.258819045102521 0.965925826289068 0.0
outer loop
vertex 1.29409522551261 4.82962913144534 -2.0
vertex 9.18485099360515e-016 5.0 0.0
vertex 1.29409522551261 4.82962913144534 0.0
endloop
endfacet
facet normal 0.258819045102521 0.965925826289068 0.0
outer loop
vertex 1.29409522551261 4.82962913144534 0.0
vertex 2.5 4.33012701892219 -2.0
vertex 1.29409522551261 4.82962913144534 -2.0
endloop
endfacet
facet normal 0.5 0.866025403784438 0.0
outer loop
vertex 2.5 4.33012701892219 -2.0
vertex 1.29409522551261 4.82962913144534 0.0
vertex 2.5 4.33012701892219 0.0
endloop
endfacet
facet normal 0.5 0.866025403784438 0.0
outer loop
vertex 2.5 4.33012701892219 0.0
vertex 3.53553390593274 3.53553390593274 -2.0
vertex 2.5 4.33012701892219 -2.0
endloop
endfacet
facet normal 0.707106781186548 0.707106781186547 0.0
outer loop
vertex 3.53553390593274 3.53553390593274 -2.0
vertex 2.5 4.33012701892219 0.0
vertex 3.53553390593274 3.53553390593274 0.0
endloop
endfacet
facet normal 0.707106781186548 0.707106781186547 0.0
outer loop
vertex 3.53553390593274 3.53553390593274 -2.0
vertex 4.33012701892219 2.5 0.0
vertex 4.33012701892219 2.5 -2.0
endloop
endfacet
facet normal 0.866025403784439 0.5 0.0
outer loop
vertex 4.33012701892219 2.5 0.0
vertex 3.53553390593274 3.53553390593274 -2.0
vertex 3.53553390593274 3.53553390593274 0.0
endloop
endfacet
facet normal 0.866025403784439 0.5 0.0
outer loop
vertex 4.33012701892219 2.5 -2.0
vertex 4.82962913144534 1.2940952255126 0.0
vertex 4.82962913144534 1.2940952255126 -2.0
endloop
endfacet
facet normal 0.965925826289068 0.25881904510252 0.0
outer loop
vertex 4.82962913144534 1.2940952255126 0.0
vertex 4.33012701892219 2.5 -2.0
vertex 4.33012701892219 2.5 0.0
endloop
endfacet
facet normal 0.965925826289068 0.25881904510252 0.0
outer loop
vertex 4.82962913144534 1.2940952255126 -2.0
vertex 5.0 -6.12323399573677e-016 0.0
vertex 5.0 -6.12323399573677e-016 -2.0
endloop
endfacet
facet normal 1.0 -1.51488868225997e-016 0.0
outer loop
vertex 5.0 -6.12323399573677e-016 0.0
vertex 4.82962913144534 1.2940952255126 -2.0
vertex 4.82962913144534 1.2940952255126 0.0
endloop
endfacet
facet normal 1.0 -1.51488868225997e-016 0.0
outer loop
vertex 5.0 -6.12323399573677e-016 -2.0
vertex 4.82962913144534 -1.29409522551261 0.0
vertex 4.82962913144534 -1.29409522551261 -2.0
endloop
endfacet
facet normal 0.965925826289068 -0.258819045102521 0.0
outer loop
vertex 4.82962913144534 -1.29409522551261 0.0
vertex 5.0 -6.12323399573677e-016 -2.0
vertex 5.0 -6.12323399573677e-016 0.0
endloop
endfacet
facet normal 0.965925826289068 -0.258819045102521 0.0
outer loop
vertex 4.82962913144534 -1.29409522551261 -2.0
vertex 4.33012701892219 -2.5 0.0
vertex 4.33012701892219 -2.5 -2.0
endloop
endfacet
facet normal 0.866025403784439 -0.5 0.0
outer loop
vertex 4.33012701892219 -2.5 0.0
vertex 4.82962913144534 -1.29409522551261 -2.0
vertex 4.82962913144534 -1.29409522551261 0.0
endloop
endfacet
facet normal 0.866025403784439 -0.5 0.0
outer loop
vertex 4.33012701892219 -2.5 -2.0
vertex 3.53553390593274 -3.53553390593274 0.0
vertex 3.53553390593274 -3.53553390593274 -2.0
endloop
endfacet
facet normal 0.707106781186547 -0.707106781186548 0.0
outer loop
vertex 3.53553390593274 -3.53553390593274 0.0
vertex 4.33012701892219 -2.5 -2.0
vertex 4.33012701892219 -2.5 0.0
endloop
endfacet
facet normal 0.707106781186547 -0.707106781186548 0.0
outer loop
vertex 3.53553390593274 -3.53553390593274 0.0
vertex 2.5 -4.33012701892219 -2.0
vertex 3.53553390593274 -3.53553390593274 -2.0
endloop
endfacet
facet normal 0.5 -0.866025403784439 0.0
outer loop
vertex 2.5 -4.33012701892219 -2.0
vertex 3.53553390593274 -3.53553390593274 0.0
vertex 2.5 -4.33012701892219 0.0
endloop
endfacet
facet normal 0.5 -0.866025403784439 0.0
outer loop
vertex 2.5 -4.33012701892219 0.0
vertex 1.2940952255126 -4.82962913144534 -2.0
vertex 2.5 -4.33012701892219 -2.0
endloop
endfacet
facet normal 0.258819045102521 -0.965925826289068 0.0
outer loop
vertex 1.2940952255126 -4.82962913144534 -2.0
vertex 2.5 -4.33012701892219 0.0
vertex 1.2940952255126 -4.82962913144534 0.0
endloop
endfacet
facet normal 0.258819045102521 -0.965925826289068 0.0
outer loop
vertex 1.2940952255126 -4.82962913144534 0.0
vertex -3.06161699786838e-016 -5.0 -2.0
vertex 1.2940952255126 -4.82962913144534 -2.0
endloop
endfacet
facet normal 4.45555494782345e-017 -1.0 0.0
outer loop
vertex -3.06161699786838e-016 -5.0 -2.0
vertex 1.2940952255126 -4.82962913144534 0.0
vertex -3.06161699786838e-016 -5.0 0.0
endloop
endfacet
facet normal 4.45555494782345e-017 -1.0 0.0
outer loop
vertex -3.06161699786838e-016 -5.0 0.0
vertex -1.2940952255126 -4.82962913144534 -2.0
vertex -3.06161699786838e-016 -5.0 -2.0
endloop
endfacet
facet normal -0.258819045102521 -0.965925826289068 0.0
outer loop
vertex -1.2940952255126 -4.82962913144534 -2.0
vertex -3.06161699786838e-016 -5.0 0.0
vertex -1.2940952255126 -4.82962913144534 0.0
endloop
endfacet
facet normal -0.258819045102521 -0.965925826289068 0.0
outer loop
vertex -1.2940952255126 -4.82962913144534 0.0
vertex -2.5 -4.33012701892219 -2.0
vertex -1.2940952255126 -4.82962913144534 -2.0
endloop
endfacet
facet normal -0.5 -0.866025403784439 0.0
outer loop
vertex -2.5 -4.33012701892219 -2.0
vertex -1.2940952255126 -4.82962913144534 0.0
vertex -2.5 -4.33012701892219 0.0
endloop
endfacet
facet normal -0.5 -0.866025403784439 0.0
outer loop
vertex -2.5 -4.33012701892219 0.0
vertex -3.53553390593274 -3.53553390593274 -2.0
vertex -2.5 -4.33012701892219 -2.0
endloop
endfacet
facet normal -0.707106781186548 -0.707106781186547 0.0
outer loop
vertex -3.53553390593274 -3.53553390593274 -2.0
vertex -2.5 -4.33012701892219 0.0
vertex -3.53553390593274 -3.53553390593274 0.0
endloop
endfacet
facet normal -0.866025403784439 -0.5 0.0
outer loop
vertex -4.33012701892219 -2.5 0.0
vertex -3.53553390593274 -3.53553390593274 -2.0
vertex -3.53553390593274 -3.53553390593274 0.0
endloop
endfacet
facet normal -0.707106781186548 -0.707106781186547 0.0
outer loop
vertex -3.53553390593274 -3.53553390593274 -2.0
vertex -4.33012701892219 -2.5 0.0
vertex -4.33012701892219 -2.5 -2.0
endloop
endfacet
facet normal -1.0 1.24755538539057e-016 0.0
outer loop
vertex -3.9 0.0 -2.0
vertex -3.76711072252737 -1.00939427589983 -4.0
vertex -3.76711072252737 -1.00939427589983 -2.0
endloop
endfacet
facet normal -0.965925826289068 -0.258819045102521 0.0
outer loop
vertex -3.76711072252737 -1.00939427589983 -4.0
vertex -3.9 0.0 -2.0
vertex -3.9 0.0 -4.0
endloop
endfacet
facet normal -0.965925826289068 -0.258819045102521 0.0
outer loop
vertex -3.76711072252737 -1.00939427589983 -2.0
vertex -3.37749907475931 -1.95 -4.0
vertex -3.37749907475931 -1.95 -2.0
endloop
endfacet
facet normal -0.866025403784439 -0.5 0.0
outer loop
vertex -3.37749907475931 -1.95 -4.0
vertex -3.76711072252737 -1.00939427589983 -2.0
vertex -3.76711072252737 -1.00939427589983 -4.0
endloop
endfacet
facet normal -0.866025403784439 -0.5 0.0
outer loop
vertex -3.37749907475931 -1.95 -2.0
vertex -2.75771644662754 -2.75771644662754 -4.0
vertex -2.75771644662754 -2.75771644662754 -2.0
endloop
endfacet
facet normal -0.707106781186548 -0.707106781186547 0.0
outer loop
vertex -2.75771644662754 -2.75771644662754 -4.0
vertex -3.37749907475931 -1.95 -2.0
vertex -3.37749907475931 -1.95 -4.0
endloop
endfacet
facet normal -0.5 -0.866025403784439 0.0
outer loop
vertex -1.95 -3.37749907475931 -2.0
vertex -2.75771644662754 -2.75771644662754 -4.0
vertex -1.95 -3.37749907475931 -4.0
endloop
endfacet
facet normal -0.707106781186548 -0.707106781186547 0.0
outer loop
vertex -2.75771644662754 -2.75771644662754 -4.0
vertex -1.95 -3.37749907475931 -2.0
vertex -2.75771644662754 -2.75771644662754 -2.0
endloop
endfacet
facet normal -0.258819045102521 -0.965925826289068 0.0
outer loop
vertex -1.00939427589983 -3.76711072252737 -2.0
vertex -1.95 -3.37749907475931 -4.0
vertex -1.00939427589983 -3.76711072252737 -4.0
endloop
endfacet
facet normal -0.5 -0.866025403784439 0.0
outer loop
vertex -1.95 -3.37749907475931 -4.0
vertex -1.00939427589983 -3.76711072252737 -2.0
vertex -1.95 -3.37749907475931 -2.0
endloop
endfacet
facet normal -2.76244406765054e-016 -1.0 0.0
outer loop
vertex -2.38806125833734e-016 -3.9 -2.0
vertex -1.00939427589983 -3.76711072252737 -4.0
vertex -2.38806125833734e-016 -3.9 -4.0
endloop
endfacet
facet normal -0.258819045102521 -0.965925826289068 0.0
outer loop
vertex -1.00939427589983 -3.76711072252737 -4.0
vertex -2.38806125833734e-016 -3.9 -2.0
vertex -1.00939427589983 -3.76711072252737 -2.0
endloop
endfacet
facet normal 0.258819045102521 -0.965925826289068 0.0
outer loop
vertex 1.00939427589983 -3.76711072252737 -2.0
vertex -2.38806125833734e-016 -3.9 -4.0
vertex 1.00939427589983 -3.76711072252737 -4.0
endloop
endfacet
facet normal -2.76244406765054e-016 -1.0 0.0
outer loop
vertex -2.38806125833734e-016 -3.9 -4.0
vertex 1.00939427589983 -3.76711072252737 -2.0
vertex -2.38806125833734e-016 -3.9 -2.0
endloop
endfacet
facet normal 0.5 -0.866025403784439 0.0
outer loop
vertex 1.95 -3.37749907475931 -2.0
vertex 1.00939427589983 -3.76711072252737 -4.0
vertex 1.95 -3.37749907475931 -4.0
endloop
endfacet
facet normal 0.258819045102521 -0.965925826289068 0.0
outer loop
vertex 1.00939427589983 -3.76711072252737 -4.0
vertex 1.95 -3.37749907475931 -2.0
vertex 1.00939427589983 -3.76711072252737 -2.0
endloop
endfacet
facet normal 0.707106781186548 -0.707106781186548 0.0
outer loop
vertex 2.75771644662753 -2.75771644662754 -2.0
vertex 1.95 -3.37749907475931 -4.0
vertex 2.75771644662753 -2.75771644662754 -4.0
endloop
endfacet
facet normal 0.5 -0.866025403784439 0.0
outer loop
vertex 1.95 -3.37749907475931 -4.0
vertex 2.75771644662753 -2.75771644662754 -2.0
vertex 1.95 -3.37749907475931 -2.0
endloop
endfacet
facet normal 0.866025403784439 -0.5 0.0
outer loop
vertex 3.37749907475931 -1.95 -4.0
vertex 2.75771644662753 -2.75771644662754 -2.0
vertex 2.75771644662753 -2.75771644662754 -4.0
endloop
endfacet
facet normal 0.707106781186548 -0.707106781186548 0.0
outer loop
vertex 2.75771644662753 -2.75771644662754 -2.0
vertex 3.37749907475931 -1.95 -4.0
vertex 3.37749907475931 -1.95 -2.0
endloop
endfacet
facet normal 0.965925826289068 -0.258819045102521 0.0
outer loop
vertex 3.76711072252736 -1.00939427589983 -4.0
vertex 3.37749907475931 -1.95 -2.0
vertex 3.37749907475931 -1.95 -4.0
endloop
endfacet
facet normal 0.866025403784439 -0.5 0.0
outer loop
vertex 3.37749907475931 -1.95 -2.0
vertex 3.76711072252736 -1.00939427589983 -4.0
vertex 3.76711072252736 -1.00939427589983 -2.0
endloop
endfacet
facet normal 1.0 -5.88133253112696e-016 0.0
outer loop
vertex 3.9 -4.77612251667468e-016 -4.0
vertex 3.76711072252736 -1.00939427589983 -2.0
vertex 3.76711072252736 -1.00939427589983 -4.0
endloop
endfacet
facet normal 0.965925826289068 -0.258819045102521 0.0
outer loop
vertex 3.76711072252736 -1.00939427589983 -2.0
vertex 3.9 -4.77612251667468e-016 -4.0
vertex 3.9 -4.77612251667468e-016 -2.0
endloop
endfacet
facet normal 0.965925826289068 0.258819045102521 0.0
outer loop
vertex 3.76711072252737 1.00939427589983 -4.0
vertex 3.9 -4.77612251667468e-016 -2.0
vertex 3.9 -4.77612251667468e-016 -4.0
endloop
endfacet
facet normal 1.0 -5.88133253112696e-016 0.0
outer loop
vertex 3.9 -4.77612251667468e-016 -2.0
vertex 3.76711072252737 1.00939427589983 -4.0
vertex 3.76711072252737 1.00939427589983 -2.0
endloop
endfacet
facet normal 0.866025403784439 0.5 0.0
outer loop
vertex 3.37749907475931 1.95 -4.0
vertex 3.76711072252737 1.00939427589983 -2.0
vertex 3.76711072252737 1.00939427589983 -4.0
endloop
endfacet
facet normal 0.965925826289068 0.258819045102521 0.0
outer loop
vertex 3.76711072252737 1.00939427589983 -2.0
vertex 3.37749907475931 1.95 -4.0
vertex 3.37749907475931 1.95 -2.0
endloop
endfacet
facet normal 0.707106781186548 0.707106781186547 0.0
outer loop
vertex 2.75771644662754 2.75771644662753 -4.0
vertex 3.37749907475931 1.95 -2.0
vertex 3.37749907475931 1.95 -4.0
endloop
endfacet
facet normal 0.866025403784439 0.5 0.0
outer loop
vertex 3.37749907475931 1.95 -2.0
vertex 2.75771644662754 2.75771644662753 -4.0
vertex 2.75771644662754 2.75771644662753 -2.0
endloop
endfacet
facet normal 0.500000000000001 0.866025403784438 0.0
outer loop
vertex 1.95 3.37749907475931 -2.0
vertex 2.75771644662754 2.75771644662753 -4.0
vertex 1.95 3.37749907475931 -4.0
endloop
endfacet
facet normal 0.707106781186548 0.707106781186547 0.0
outer loop
vertex 2.75771644662754 2.75771644662753 -4.0
vertex 1.95 3.37749907475931 -2.0
vertex 2.75771644662754 2.75771644662753 -2.0
endloop
endfacet
facet normal 0.258819045102521 0.965925826289068 0.0
outer loop
vertex 1.00939427589983 3.76711072252737 -2.0
vertex 1.95 3.37749907475931 -4.0
vertex 1.00939427589983 3.76711072252737 -4.0
endloop
endfacet
facet normal 0.500000000000001 0.866025403784438 0.0
outer loop
vertex 1.95 3.37749907475931 -4.0
vertex 1.00939427589983 3.76711072252737 -2.0
vertex 1.95 3.37749907475931 -2.0
endloop
endfacet
facet normal 4.72288824469286e-016 1.0 0.0
outer loop
vertex 7.16418377501201e-016 3.9 -2.0
vertex 1.00939427589983 3.76711072252737 -4.0
vertex 7.16418377501201e-016 3.9 -4.0
endloop
endfacet
facet normal 0.258819045102521 0.965925826289068 0.0
outer loop
vertex 1.00939427589983 3.76711072252737 -4.0
vertex 7.16418377501201e-016 3.9 -2.0
vertex 1.00939427589983 3.76711072252737 -2.0
endloop
endfacet
facet normal -0.25881904510252 0.965925826289068 0.0
outer loop
vertex -1.00939427589983 3.76711072252737 -2.0
vertex 7.16418377501201e-016 3.9 -4.0
vertex -1.00939427589983 3.76711072252737 -4.0
endloop
endfacet
facet normal 4.72288824469286e-016 1.0 0.0
outer loop
vertex 7.16418377501201e-016 3.9 -4.0
vertex -1.00939427589983 3.76711072252737 -2.0
vertex 7.16418377501201e-016 3.9 -2.0
endloop
endfacet
facet normal -0.5 0.866025403784439 0.0
outer loop
vertex -1.95 3.37749907475931 -2.0
vertex -1.00939427589983 3.76711072252737 -4.0
vertex -1.95 3.37749907475931 -4.0
endloop
endfacet
facet normal -0.25881904510252 0.965925826289068 0.0
outer loop
vertex -1.00939427589983 3.76711072252737 -4.0
vertex -1.95 3.37749907475931 -2.0
vertex -1.00939427589983 3.76711072252737 -2.0
endloop
endfacet
facet normal -0.707106781186547 0.707106781186548 0.0
outer loop
vertex -2.75771644662753 2.75771644662754 -2.0
vertex -1.95 3.37749907475931 -4.0
vertex -2.75771644662753 2.75771644662754 -4.0
endloop
endfacet
facet normal -0.5 0.866025403784439 0.0
outer loop
vertex -1.95 3.37749907475931 -4.0
vertex -2.75771644662753 2.75771644662754 -2.0
vertex -1.95 3.37749907475931 -2.0
endloop
endfacet
facet normal -0.707106781186547 0.707106781186548 0.0
outer loop
vertex -2.75771644662753 2.75771644662754 -2.0
vertex -3.37749907475931 1.95 -4.0
vertex -3.37749907475931 1.95 -2.0
endloop
endfacet
facet normal -0.866025403784438 0.5 0.0
outer loop
vertex -3.37749907475931 1.95 -4.0
vertex -2.75771644662753 2.75771644662754 -2.0
vertex -2.75771644662753 2.75771644662754 -4.0
endloop
endfacet
facet normal -0.866025403784438 0.5 0.0
outer loop
vertex -3.37749907475931 1.95 -2.0
vertex -3.76711072252736 1.00939427589983 -4.0
vertex -3.76711072252736 1.00939427589983 -2.0
endloop
endfacet
facet normal -0.965925826289068 0.258819045102521 0.0
outer loop
vertex -3.76711072252736 1.00939427589983 -4.0
vertex -3.37749907475931 1.95 -2.0
vertex -3.37749907475931 1.95 -4.0
endloop
endfacet
facet normal -0.965925826289068 0.258819045102521 0.0
outer loop
vertex -3.76711072252736 1.00939427589983 -2.0
vertex -3.9 0.0 -4.0
vertex -3.9 0.0 -2.0
endloop
endfacet
facet normal -1.0 1.24755538539057e-016 0.0
outer loop
vertex -3.9 0.0 -4.0
vertex -3.76711072252736 1.00939427589983 -2.0
vertex -3.76711072252736 1.00939427589983 -4.0
endloop
endfacet
facet normal 0.0 0.0 1.0
outer loop
vertex 3.0 -5.6 4.0
vertex -3.0 -4.6 4.0
vertex -3.0 -5.6 4.0
endloop
endfacet
facet normal 0.0 0.0 1.0
outer loop
vertex -3.0 -4.6 4.0
vertex 3.0 -5.6 4.0
vertex 3.0 -4.6 4.0
endloop
endfacet
facet normal -1.0 -0.0 -0.0
outer loop
vertex -3.0 -4.6 4.0
vertex -3.0 -5.6 3.0
vertex -3.0 -5.6 4.0
endloop
endfacet
facet normal -1.0 -0.0 -0.0
outer loop
vertex -3.0 -5.6 3.0
vertex -3.0 -4.6 4.0
vertex -3.0 -4.6 3.0
endloop
endfacet
facet normal 0.0 -1.0 0.0
outer loop
vertex 3.0 -5.6 4.0
vertex -3.0 -5.6 3.0
vertex 3.0 -5.6 3.0
endloop
endfacet
facet normal 0.0 -1.0 0.0
outer loop
vertex -3.0 -5.6 3.0
vertex 3.0 -5.6 4.0
vertex -3.0 -5.6 4.0
endloop
endfacet
facet normal 1.0 -0.0 0.0
outer loop
vertex 3.0 -4.6 3.0
vertex 3.0 -5.6 4.0
vertex 3.0 -5.6 3.0
endloop
endfacet
facet normal 1.0 -0.0 0.0
outer loop
vertex 3.0 -5.6 4.0
vertex 3.0 -4.6 3.0
vertex 3.0 -4.6 4.0
endloop
endfacet
facet normal -0.0 1.0 -0.0
outer loop
vertex -3.0 -4.6 4.0
vertex 3.0 -4.6 3.0
vertex -3.0 -4.6 3.0
endloop
endfacet
facet normal -0.0 1.0 -0.0
outer loop
vertex 3.0 -4.6 3.0
vertex -3.0 -4.6 4.0
vertex 3.0 -4.6 4.0
endloop
endfacet
facet normal 0.0 0.0 1.0
outer loop
vertex 3.0 4.6 4.0
vertex -3.0 5.6 4.0
vertex -3.0 4.6 4.0
endloop
endfacet
facet normal 0.0 0.0 1.0
outer loop
vertex -3.0 5.6 4.0
vertex 3.0 4.6 4.0
vertex 3.0 5.6 4.0
endloop
endfacet
facet normal 0.0 -1.0 0.0
outer loop
vertex 3.0 4.6 4.0
vertex -3.0 4.6 3.0
vertex 3.0 4.6 3.0
endloop
endfacet
facet normal 0.0 -1.0 0.0
outer loop
vertex -3.0 4.6 3.0
vertex 3.0 4.6 4.0
vertex -3.0 4.6 4.0
endloop
endfacet
facet normal 1.0 -0.0 0.0
outer loop
vertex 3.0 5.6 3.0
vertex 3.0 4.6 4.0
vertex 3.0 4.6 3.0
endloop
endfacet
facet normal 1.0 -0.0 0.0
outer loop
vertex 3.0 4.6 4.0
vertex 3.0 5.6 3.0
vertex 3.0 5.6 4.0
endloop
endfacet
facet normal 0.0 1.0 0.0
outer loop
vertex -3.0 5.6 4.0
vertex 3.0 5.6 3.0
vertex -3.0 5.6 3.0
endloop
endfacet
facet normal 0.0 1.0 0.0
outer loop
vertex 3.0 5.6 3.0
vertex -3.0 5.6 4.0
vertex 3.0 5.6 4.0
endloop
endfacet
facet normal -1.0 -0.0 -0.0
outer loop
vertex -3.0 5.6 4.0
vertex -3.0 4.6 3.0
vertex -3.0 4.6 4.0
endloop
endfacet
facet normal -1.0 -0.0 -0.0
outer loop
vertex -3.0 4.6 3.0
vertex -3.0 5.6 4.0
vertex -3.0 5.6 3.0
endloop
endfacet
facet normal -4.12818820571363e-032 2.56232371389121e-032 1.0
outer loop
vertex -3.0 -4.6 3.0
vertex -2.6 0.0 3.0
vertex -3.0 4.6 3.0
endloop
endfacet
facet normal -4.12818820571363e-032 2.56232371389121e-032 1.0
outer loop
vertex -2.6 0.0 3.0
vertex -3.0 -4.6 3.0
vertex -2.51140714835158 -0.672929517266554 3.0
endloop
endfacet
facet normal -4.12818820571363e-032 2.56232371389121e-032 1.0
outer loop
vertex -2.51140714835158 -0.672929517266554 3.0
vertex -3.0 -4.6 3.0
vertex -2.25166604983954 -1.3 3.0
endloop
endfacet
facet normal -4.12818820571363e-032 2.56232371389121e-032 1.0
outer loop
vertex -2.25166604983954 -1.3 3.0
vertex -3.0 -4.6 3.0
vertex -1.83847763108502 -1.83847763108502 3.0
endloop
endfacet
facet normal -4.12818820571363e-032 2.56232371389121e-032 1.0
outer loop
vertex -1.83847763108502 -1.83847763108502 3.0
vertex -3.0 -4.6 3.0
vertex -1.3 -2.25166604983954 3.0
endloop
endfacet
facet normal -4.12818820571363e-032 2.56232371389121e-032 1.0
outer loop
vertex -1.3 -2.25166604983954 3.0
vertex -3.0 -4.6 3.0
vertex 3.0 -4.6 3.0
endloop
endfacet
facet normal -4.12818820571363e-032 2.56232371389121e-032 1.0
outer loop
vertex -1.3 -2.25166604983954 3.0
vertex 3.0 -4.6 3.0
vertex -0.672929517266554 -2.51140714835158 3.0
endloop
endfacet
facet normal -4.12818820571363e-032 2.56232371389121e-032 1.0
outer loop
vertex -0.672929517266554 -2.51140714835158 3.0
vertex 3.0 -4.6 3.0
vertex -1.59204083889156e-016 -2.6 3.0
endloop
endfacet
facet normal -4.12818820571363e-032 2.56232371389121e-032 1.0
outer loop
vertex -1.59204083889156e-016 -2.6 3.0
vertex 3.0 -4.6 3.0
vertex 0.672929517266554 -2.51140714835158 3.0
endloop
endfacet
facet normal -4.12818820571363e-032 2.56232371389121e-032 1.0
outer loop
vertex 0.672929517266554 -2.51140714835158 3.0
vertex 3.0 -4.6 3.0
vertex 1.3 -2.25166604983954 3.0
endloop
endfacet
facet normal -4.12818820571363e-032 2.56232371389121e-032 1.0
outer loop
vertex 1.3 -2.25166604983954 3.0
vertex 3.0 -4.6 3.0
vertex 1.83847763108502 -1.83847763108502 3.0
endloop
endfacet
facet normal -4.12818820571363e-032 2.56232371389121e-032 1.0
outer loop
vertex 1.83847763108502 -1.83847763108502 3.0
vertex 3.0 -4.6 3.0
vertex 2.25166604983954 -1.3 3.0
endloop
endfacet
facet normal -4.12818820571363e-032 2.56232371389121e-032 1.0
outer loop
vertex 2.25166604983954 -1.3 3.0
vertex 3.0 -4.6 3.0
vertex 2.51140714835158 -0.672929517266555 3.0
endloop
endfacet
facet normal -4.12818820571363e-032 2.56232371389121e-032 1.0
outer loop
vertex 2.51140714835158 -0.672929517266555 3.0
vertex 3.0 -4.6 3.0
vertex 2.6 -3.18408167778312e-016 3.0
endloop
endfacet
facet normal -4.12818820571363e-032 2.56232371389121e-032 1.0
outer loop
vertex -1.97434850428287 -7.36836892983127 3.0
vertex -3.0 -5.6 3.0
vertex -3.81414842076402 -6.60629885237189 3.0
endloop
endfacet
facet normal -4.12818820571363e-032 2.56232371389121e-032 1.0
outer loop
vertex -3.0 -5.6 3.0
vertex -1.97434850428287 -7.36836892983127 3.0
vertex 3.0 -5.6 3.0
endloop
endfacet
facet normal -4.12818820571363e-032 2.56232371389121e-032 1.0
outer loop
vertex 3.0 -5.6 3.0
vertex -1.97434850428287 -7.36836892983127 3.0
vertex 1.32185928869433e-015 -7.62829684152805 3.0
endloop
endfacet
facet normal -4.12818820571363e-032 2.56232371389121e-032 1.0
outer loop
vertex 3.0 -5.6 3.0
vertex 1.32185928869433e-015 -7.62829684152805 3.0
vertex 1.97434850428286 -7.36836892983127 3.0
endloop
endfacet
facet normal -4.12818820571363e-032 2.56232371389121e-032 1.0
outer loop
vertex 3.0 -5.6 3.0
vertex 1.97434850428286 -7.36836892983127 3.0
vertex 3.81414842076402 -6.60629885237189 3.0
endloop
endfacet
facet normal -4.12818820571363e-032 2.56232371389121e-032 1.0
outer loop
vertex 3.0 -5.6 3.0
vertex 3.81414842076402 -6.60629885237189 3.0
vertex 3.0 -4.6 3.0
endloop
endfacet
facet normal -4.12818820571363e-032 2.56232371389121e-032 1.0
outer loop
vertex 3.0 -4.6 3.0
vertex 3.81414842076402 -6.60629885237189 3.0
vertex 3.0 4.6 3.0
endloop
endfacet
facet normal -4.12818820571363e-032 2.56232371389121e-032 1.0
outer loop
vertex 3.0 4.6 3.0
vertex 3.81414842076402 -6.60629885237189 3.0
vertex 3.0 5.6 3.0
endloop
endfacet
facet normal -4.12818820571363e-032 2.56232371389121e-032 1.0
outer loop
vertex -7.36836892983127 -1.97434850428287 3.0
vertex -7.36836892983127 1.97434850428287 3.0
vertex -7.62829684152805 9.07676711570104e-015 3.0
endloop
endfacet
facet normal -4.12818820571363e-032 2.56232371389121e-032 1.0
outer loop
vertex -7.36836892983127 1.97434850428287 3.0
vertex -7.36836892983127 -1.97434850428287 3.0
vertex -6.60629885237188 3.81414842076403 3.0
endloop
endfacet
facet normal -4.12818820571363e-032 2.56232371389121e-032 1.0
outer loop
vertex -6.60629885237188 3.81414842076403 3.0
vertex -7.36836892983127 -1.97434850428287 3.0
vertex -6.60629885237189 -3.81414842076402 3.0
endloop
endfacet
facet normal -4.12818820571363e-032 2.56232371389121e-032 1.0
outer loop
vertex -6.60629885237188 3.81414842076403 3.0
vertex -6.60629885237189 -3.81414842076402 3.0
vertex -5.39402042554841 -5.3940204255484 3.0
endloop
endfacet
facet normal -4.12818820571363e-032 2.56232371389121e-032 1.0
outer loop
vertex -6.60629885237188 3.81414842076403 3.0
vertex -5.39402042554841 -5.3940204255484 3.0
vertex -5.39402042554841 5.3940204255484 3.0
endloop
endfacet
facet normal -4.12818820571363e-032 2.56232371389121e-032 1.0
outer loop
vertex -5.39402042554841 5.3940204255484 3.0
vertex -5.39402042554841 -5.3940204255484 3.0
vertex -3.81414842076402 -6.60629885237189 3.0
endloop
endfacet
facet normal -4.12818820571363e-032 2.56232371389121e-032 1.0
outer loop
vertex -5.39402042554841 5.3940204255484 3.0
vertex -3.81414842076402 -6.60629885237189 3.0
vertex -3.81414842076402 6.60629885237189 3.0
endloop
endfacet
facet normal -4.12818820571363e-032 2.56232371389121e-032 1.0
outer loop
vertex -3.81414842076402 6.60629885237189 3.0
vertex -3.81414842076402 -6.60629885237189 3.0
vertex -3.0 5.6 3.0
endloop
endfacet
facet normal -4.12818820571363e-032 2.56232371389121e-032 1.0
outer loop
vertex -3.81414842076402 6.60629885237189 3.0
vertex -3.0 5.6 3.0
vertex -1.97434850428285 7.36836892983128 3.0
endloop
endfacet
facet normal -4.12818820571363e-032 2.56232371389121e-032 1.0
outer loop
vertex -3.0 5.6 3.0
vertex -3.81414842076402 -6.60629885237189 3.0
vertex -3.0 -5.6 3.0
endloop
endfacet
facet normal -4.12818820571363e-032 2.56232371389121e-032 1.0
outer loop
vertex -3.0 5.6 3.0
vertex -3.0 -5.6 3.0
vertex -3.0 -4.6 3.0
endloop
endfacet
facet normal -4.12818820571363e-032 2.56232371389121e-032 1.0
outer loop
vertex -3.0 5.6 3.0
vertex -3.0 -4.6 3.0
vertex -3.0 4.6 3.0
endloop
endfacet
facet normal -4.12818820571363e-032 2.56232371389121e-032 1.0
outer loop
vertex -1.97434850428285 7.36836892983128 3.0
vertex -3.0 5.6 3.0
vertex 3.0 5.6 3.0
endloop
endfacet
facet normal -4.12818820571363e-032 2.56232371389121e-032 1.0
outer loop
vertex -1.97434850428285 7.36836892983128 3.0
vertex 3.0 5.6 3.0
vertex -6.69742039605126e-015 7.62829684152805 3.0
endloop
endfacet
facet normal -4.12818820571363e-032 2.56232371389121e-032 1.0
outer loop
vertex -6.69742039605126e-015 7.62829684152805 3.0
vertex 3.0 5.6 3.0
vertex 1.97434850428287 7.36836892983127 3.0
endloop
endfacet
facet normal -4.12818820571363e-032 2.56232371389121e-032 1.0
outer loop
vertex 1.97434850428287 7.36836892983127 3.0
vertex 3.0 5.6 3.0
vertex 3.81414842076402 6.60629885237189 3.0
endloop
endfacet
facet normal -4.12818820571363e-032 2.56232371389121e-032 1.0
outer loop
vertex 3.81414842076402 6.60629885237189 3.0
vertex 3.0 5.6 3.0
vertex 3.81414842076402 -6.60629885237189 3.0
endloop
endfacet
facet normal -4.12818820571363e-032 2.56232371389121e-032 1.0
outer loop
vertex 3.81414842076402 6.60629885237189 3.0
vertex 3.81414842076402 -6.60629885237189 3.0
vertex 5.39402042554841 -5.3940204255484 3.0
endloop
endfacet
facet normal -4.12818820571363e-032 2.56232371389121e-032 1.0
outer loop
vertex 3.81414842076402 6.60629885237189 3.0
vertex 5.39402042554841 -5.3940204255484 3.0
vertex 5.3940204255484 5.39402042554841 3.0
endloop
endfacet
facet normal -4.12818820571363e-032 2.56232371389121e-032 1.0
outer loop
vertex 5.3940204255484 5.39402042554841 3.0
vertex 5.39402042554841 -5.3940204255484 3.0
vertex 6.60629885237189 3.81414842076402 3.0
endloop
endfacet
facet normal -4.12818820571363e-032 2.56232371389121e-032 1.0
outer loop
vertex 6.60629885237189 3.81414842076402 3.0
vertex 5.39402042554841 -5.3940204255484 3.0
vertex 6.60629885237188 -3.81414842076403 3.0
endloop
endfacet
facet normal -4.12818820571363e-032 2.56232371389121e-032 1.0
outer loop
vertex 6.60629885237189 3.81414842076402 3.0
vertex 6.60629885237188 -3.81414842076403 3.0
vertex 7.36836892983127 -1.97434850428286 3.0
endloop
endfacet
facet normal -4.12818820571363e-032 2.56232371389121e-032 1.0
outer loop
vertex 6.60629885237189 3.81414842076402 3.0
vertex 7.36836892983127 -1.97434850428286 3.0
vertex 7.36836892983127 1.97434850428286 3.0
endloop
endfacet
facet normal -4.12818820571363e-032 2.56232371389121e-032 1.0
outer loop
vertex 7.36836892983127 1.97434850428286 3.0
vertex 7.36836892983127 -1.97434850428286 3.0
vertex 7.62829684152805 -4.75869343929958e-015 3.0
endloop
endfacet
facet normal -4.12818820571363e-032 2.56232371389121e-032 1.0
outer loop
vertex -3.0 4.6 3.0
vertex -1.3 2.25166604983954 3.0
vertex 3.0 4.6 3.0
endloop
endfacet
facet normal -4.12818820571363e-032 2.56232371389121e-032 1.0
outer loop
vertex -1.3 2.25166604983954 3.0
vertex -3.0 4.6 3.0
vertex -1.83847763108502 1.83847763108502 3.0
endloop
endfacet
facet normal -4.12818820571363e-032 2.56232371389121e-032 1.0
outer loop
vertex -1.83847763108502 1.83847763108502 3.0
vertex -3.0 4.6 3.0
vertex -2.25166604983954 1.3 3.0
endloop
endfacet
facet normal -4.12818820571363e-032 2.56232371389121e-032 1.0
outer loop
vertex -2.25166604983954 1.3 3.0
vertex -3.0 4.6 3.0
vertex -2.51140714835158 0.672929517266556 3.0
endloop
endfacet
facet normal -4.12818820571363e-032 2.56232371389121e-032 1.0
outer loop
vertex -2.51140714835158 0.672929517266556 3.0
vertex -3.0 4.6 3.0
vertex -2.6 0.0 3.0
endloop
endfacet
facet normal -4.12818820571363e-032 2.56232371389121e-032 1.0
outer loop
vertex 3.0 4.6 3.0
vertex -1.3 2.25166604983954 3.0
vertex -0.672929517266553 2.51140714835158 3.0
endloop
endfacet
facet normal -4.12818820571363e-032 2.56232371389121e-032 1.0
outer loop
vertex 3.0 4.6 3.0
vertex -0.672929517266553 2.51140714835158 3.0
vertex 4.77612251667468e-016 2.6 3.0
endloop
endfacet
facet normal -4.12818820571363e-032 2.56232371389121e-032 1.0
outer loop
vertex 3.0 4.6 3.0
vertex 4.77612251667468e-016 2.6 3.0
vertex 0.672929517266556 2.51140714835158 3.0
endloop
endfacet
facet normal -4.12818820571363e-032 2.56232371389121e-032 1.0
outer loop
vertex 3.0 4.6 3.0
vertex 0.672929517266556 2.51140714835158 3.0
vertex 1.3 2.25166604983954 3.0
endloop
endfacet
facet normal -4.12818820571363e-032 2.56232371389121e-032 1.0
outer loop
vertex 3.0 4.6 3.0
vertex 1.3 2.25166604983954 3.0
vertex 1.83847763108502 1.83847763108502 3.0
endloop
endfacet
facet normal -4.12818820571363e-032 2.56232371389121e-032 1.0
outer loop
vertex 3.0 4.6 3.0
vertex 1.83847763108502 1.83847763108502 3.0
vertex 2.25166604983954 1.3 3.0
endloop
endfacet
facet normal -4.12818820571363e-032 2.56232371389121e-032 1.0
outer loop
vertex 3.0 4.6 3.0
vertex 2.25166604983954 1.3 3.0
vertex 2.51140714835158 0.672929517266553 3.0
endloop
endfacet
facet normal -4.12818820571363e-032 2.56232371389121e-032 1.0
outer loop
vertex 3.0 4.6 3.0
vertex 2.51140714835158 0.672929517266553 3.0
vertex 2.6 -3.18408167778312e-016 3.0
endloop
endfacet
facet normal -4.12818820571363e-032 2.56232371389121e-032 1.0
outer loop
vertex 3.0 4.6 3.0
vertex 2.6 -3.18408167778312e-016 3.0
vertex 3.0 -4.6 3.0
endloop
endfacet
facet normal 0.5 0.866025403784438 0.0
outer loop
vertex 3.81414842076402 6.60629885237189 3.0
vertex 5.3940204255484 5.39402042554841 2.46747067222941e-015
vertex 3.81414842076402 6.60629885237189 2.46747067222941e-015
endloop
endfacet
facet normal 0.707106781186547 0.707106781186548 0.0
outer loop
vertex 5.3940204255484 5.39402042554841 2.46747067222941e-015
vertex 3.81414842076402 6.60629885237189 3.0
vertex 5.3940204255484 5.39402042554841 3.0
endloop
endfacet
facet normal 0.707106781186547 0.707106781186548 0.0
outer loop
vertex 5.3940204255484 5.39402042554841 2.46747067222941e-015
vertex 6.60629885237189 3.81414842076402 3.0
vertex 6.60629885237189 3.81414842076402 2.46747067222941e-015
endloop
endfacet
facet normal 0.866025403784438 0.5 0.0
outer loop
vertex 6.60629885237189 3.81414842076402 3.0
vertex 5.3940204255484 5.39402042554841 2.46747067222941e-015
vertex 5.3940204255484 5.39402042554841 3.0
endloop
endfacet
facet normal 0.866025403784438 0.5 0.0
outer loop
vertex 6.60629885237189 3.81414842076402 2.46747067222941e-015
vertex 7.36836892983127 1.97434850428286 3.0
vertex 7.36836892983127 1.97434850428286 2.46747067222941e-015
endloop
endfacet
facet normal 0.965925826289068 0.25881904510252 0.0
outer loop
vertex 7.36836892983127 1.97434850428286 3.0
vertex 6.60629885237189 3.81414842076402 2.46747067222941e-015
vertex 6.60629885237189 3.81414842076402 3.0
endloop
endfacet
facet normal 0.965925826289068 0.25881904510252 0.0
outer loop
vertex 7.36836892983127 1.97434850428286 2.46747067222941e-015
vertex 7.62829684152805 -4.75869343929958e-015 3.0
vertex 7.62829684152805 -4.75869343929958e-015 2.46747067222941e-015
endloop
endfacet
facet normal 1.0 -1.16735539632974e-015 0.0
outer loop
vertex 7.62829684152805 -4.75869343929958e-015 3.0
vertex 7.36836892983127 1.97434850428286 2.46747067222941e-015
vertex 7.36836892983127 1.97434850428286 3.0
endloop
endfacet
facet normal 1.0 -1.16735539632974e-015 0.0
outer loop
vertex 7.62829684152805 -4.75869343929958e-015 2.46747067222941e-015
vertex 7.36836892983127 -1.97434850428286 3.0
vertex 7.36836892983127 -1.97434850428286 2.46747067222941e-015
endloop
endfacet
facet normal 0.965925826289068 -0.258819045102521 0.0
outer loop
vertex 7.36836892983127 -1.97434850428286 3.0
vertex 7.62829684152805 -4.75869343929958e-015 2.46747067222941e-015
vertex 7.62829684152805 -4.75869343929958e-015 3.0
endloop
endfacet
facet normal 0.965925826289068 -0.258819045102521 0.0
outer loop
vertex 7.36836892983127 -1.97434850428286 2.46747067222941e-015
vertex 6.60629885237188 -3.81414842076403 3.0
vertex 6.60629885237188 -3.81414842076403 2.46747067222941e-015
endloop
endfacet
facet normal 0.866025403784438 -0.5 0.0
outer loop
vertex 6.60629885237188 -3.81414842076403 3.0
vertex 7.36836892983127 -1.97434850428286 2.46747067222941e-015
vertex 7.36836892983127 -1.97434850428286 3.0
endloop
endfacet
facet normal 0.866025403784438 -0.5 0.0
outer loop
vertex 6.60629885237188 -3.81414842076403 2.46747067222941e-015
vertex 5.39402042554841 -5.3940204255484 3.0
vertex 5.39402042554841 -5.3940204255484 2.46747067222941e-015
endloop
endfacet
facet normal 0.707106781186547 -0.707106781186548 0.0
outer loop
vertex 5.39402042554841 -5.3940204255484 3.0
vertex 6.60629885237188 -3.81414842076403 2.46747067222941e-015
vertex 6.60629885237188 -3.81414842076403 3.0
endloop
endfacet
facet normal 0.707106781186547 -0.707106781186548 0.0
outer loop
vertex 5.39402042554841 -5.3940204255484 3.0
vertex 3.81414842076402 -6.60629885237189 2.46747067222941e-015
vertex 5.39402042554841 -5.3940204255484 2.46747067222941e-015
endloop
endfacet
facet normal 0.5 -0.866025403784438 0.0
outer loop
vertex 3.81414842076402 -6.60629885237189 2.46747067222941e-015
vertex 5.39402042554841 -5.3940204255484 3.0
vertex 3.81414842076402 -6.60629885237189 3.0
endloop
endfacet
facet normal 0.5 -0.866025403784438 0.0
outer loop
vertex 3.81414842076402 -6.60629885237189 3.0
vertex 1.97434850428286 -7.36836892983127 2.46747067222941e-015
vertex 3.81414842076402 -6.60629885237189 2.46747067222941e-015
endloop
endfacet
facet normal 0.25881904510252 -0.965925826289068 0.0
outer loop
vertex 1.97434850428286 -7.36836892983127 2.46747067222941e-015
vertex 3.81414842076402 -6.60629885237189 3.0
vertex 1.97434850428286 -7.36836892983127 3.0
endloop
endfacet
facet normal 0.25881904510252 -0.965925826289068 0.0
outer loop
vertex 1.97434850428286 -7.36836892983127 3.0
vertex 1.32185928869433e-015 -7.62829684152805 2.46747067222941e-015
vertex 1.97434850428286 -7.36836892983127 2.46747067222941e-015
endloop
endfacet
facet normal -3.56444395825876e-016 -1.0 0.0
outer loop
vertex 1.32185928869433e-015 -7.62829684152805 2.46747067222941e-015
vertex 1.97434850428286 -7.36836892983127 3.0
vertex 1.32185928869433e-015 -7.62829684152805 3.0
endloop
endfacet
facet normal -3.56444395825876e-016 -1.0 0.0
outer loop
vertex 1.32185928869433e-015 -7.62829684152805 3.0
vertex -1.97434850428287 -7.36836892983127 2.46747067222941e-015
vertex 1.32185928869433e-015 -7.62829684152805 2.46747067222941e-015
endloop
endfacet
facet normal -0.258819045102521 -0.965925826289068 0.0
outer loop
vertex -1.97434850428287 -7.36836892983127 2.46747067222941e-015
vertex 1.32185928869433e-015 -7.62829684152805 3.0
vertex -1.97434850428287 -7.36836892983127 3.0
endloop
endfacet
facet normal -0.258819045102521 -0.965925826289068 0.0
outer loop
vertex -1.97434850428287 -7.36836892983127 3.0
vertex -3.81414842076402 -6.60629885237189 2.46747067222941e-015
vertex -1.97434850428287 -7.36836892983127 2.46747067222941e-015
endloop
endfacet
facet normal -0.5 -0.866025403784439 0.0
outer loop
vertex -3.81414842076402 -6.60629885237189 2.46747067222941e-015
vertex -1.97434850428287 -7.36836892983127 3.0
vertex -3.81414842076402 -6.60629885237189 3.0
endloop
endfacet
facet normal -0.5 -0.866025403784439 0.0
outer loop
vertex -3.81414842076402 -6.60629885237189 3.0
vertex -5.39402042554841 -5.3940204255484 2.46747067222941e-015
vertex -3.81414842076402 -6.60629885237189 2.46747067222941e-015
endloop
endfacet
facet normal -0.707106781186547 -0.707106781186547 0.0
outer loop
vertex -5.39402042554841 -5.3940204255484 2.46747067222941e-015
vertex -3.81414842076402 -6.60629885237189 3.0
vertex -5.39402042554841 -5.3940204255484 3.0
endloop
endfacet
facet normal -0.866025403784439 -0.499999999999999 0.0
outer loop
vertex -6.60629885237189 -3.81414842076402 3.0
vertex -5.39402042554841 -5.3940204255484 2.46747067222941e-015
vertex -5.39402042554841 -5.3940204255484 3.0
endloop
endfacet
facet normal -0.707106781186547 -0.707106781186547 0.0
outer loop
vertex -5.39402042554841 -5.3940204255484 2.46747067222941e-015
vertex -6.60629885237189 -3.81414842076402 3.0
vertex -6.60629885237189 -3.81414842076402 2.46747067222941e-015
endloop
endfacet
facet normal -0.965925826289068 -0.258819045102521 0.0
outer loop
vertex -7.36836892983127 -1.97434850428287 3.0
vertex -6.60629885237189 -3.81414842076402 2.46747067222941e-015
vertex -6.60629885237189 -3.81414842076402 3.0
endloop
endfacet
facet normal -0.866025403784439 -0.499999999999999 0.0
outer loop
vertex -6.60629885237189 -3.81414842076402 2.46747067222941e-015
vertex -7.36836892983127 -1.97434850428287 3.0
vertex -7.36836892983127 -1.97434850428287 2.46747067222941e-015
endloop
endfacet
facet normal -1.0 0.0 0.0
outer loop
vertex -7.62829684152805 9.07676711570104e-015 3.0
vertex -7.36836892983127 -1.97434850428287 2.46747067222941e-015
vertex -7.36836892983127 -1.97434850428287 3.0
endloop
endfacet
facet normal -0.965925826289068 -0.258819045102521 0.0
outer loop
vertex -7.36836892983127 -1.97434850428287 2.46747067222941e-015
vertex -7.62829684152805 9.07676711570104e-015 3.0
vertex -7.62829684152805 9.07676711570104e-015 2.46747067222941e-015
endloop
endfacet
facet normal -0.965925826289068 0.258819045102522 0.0
outer loop
vertex -7.36836892983127 1.97434850428287 3.0
vertex -7.62829684152805 9.07676711570104e-015 2.46747067222941e-015
vertex -7.62829684152805 9.07676711570104e-015 3.0
endloop
endfacet
facet normal -1.0 0.0 0.0
outer loop
vertex -7.62829684152805 9.07676711570104e-015 2.46747067222941e-015
vertex -7.36836892983127 1.97434850428287 3.0
vertex -7.36836892983127 1.97434850428287 2.46747067222941e-015
endloop
endfacet
facet normal -0.866025403784438 0.500000000000001 0.0
outer loop
vertex -6.60629885237188 3.81414842076403 3.0
vertex -7.36836892983127 1.97434850428287 2.46747067222941e-015
vertex -7.36836892983127 1.97434850428287 3.0
endloop
endfacet
facet normal -0.965925826289068 0.258819045102522 0.0
outer loop
vertex -7.36836892983127 1.97434850428287 2.46747067222941e-015
vertex -6.60629885237188 3.81414842076403 3.0
vertex -6.60629885237188 3.81414842076403 2.46747067222941e-015
endloop
endfacet
facet normal -0.707106781186547 0.707106781186548 0.0
outer loop
vertex -5.39402042554841 5.3940204255484 3.0
vertex -6.60629885237188 3.81414842076403 2.46747067222941e-015
vertex -6.60629885237188 3.81414842076403 3.0
endloop
endfacet
facet normal -0.866025403784438 0.500000000000001 0.0
outer loop
vertex -6.60629885237188 3.81414842076403 2.46747067222941e-015
vertex -5.39402042554841 5.3940204255484 3.0
vertex -5.39402042554841 5.3940204255484 2.46747067222941e-015
endloop
endfacet
facet normal -0.707106781186547 0.707106781186548 0.0
outer loop
vertex -5.39402042554841 5.3940204255484 3.0
vertex -3.81414842076402 6.60629885237189 2.46747067222941e-015
vertex -5.39402042554841 5.3940204255484 2.46747067222941e-015
endloop
endfacet
facet normal -0.5 0.866025403784439 0.0
outer loop
vertex -3.81414842076402 6.60629885237189 2.46747067222941e-015
vertex -5.39402042554841 5.3940204255484 3.0
vertex -3.81414842076402 6.60629885237189 3.0
endloop
endfacet
facet normal -0.5 0.866025403784439 0.0
outer loop
vertex -3.81414842076402 6.60629885237189 3.0
vertex -1.97434850428285 7.36836892983128 2.46747067222941e-015
vertex -3.81414842076402 6.60629885237189 2.46747067222941e-015
endloop
endfacet
facet normal -0.25881904510252 0.965925826289068 0.0
outer loop
vertex -1.97434850428285 7.36836892983128 2.46747067222941e-015
vertex -3.81414842076402 6.60629885237189 3.0
vertex -1.97434850428285 7.36836892983128 3.0
endloop
endfacet
facet normal -0.25881904510252 0.965925826289068 0.0
outer loop
vertex -1.97434850428285 7.36836892983128 3.0
vertex -6.69742039605126e-015 7.62829684152805 2.46747067222941e-015
vertex -1.97434850428285 7.36836892983128 2.46747067222941e-015
endloop
endfacet
facet normal 3.83177725512817e-016 1.0 0.0
outer loop
vertex -6.69742039605126e-015 7.62829684152805 2.46747067222941e-015
vertex -1.97434850428285 7.36836892983128 3.0
vertex -6.69742039605126e-015 7.62829684152805 3.0
endloop
endfacet
facet normal 3.83177725512817e-016 1.0 0.0
outer loop
vertex -6.69742039605126e-015 7.62829684152805 3.0
vertex 1.97434850428287 7.36836892983127 2.46747067222941e-015
vertex -6.69742039605126e-015 7.62829684152805 2.46747067222941e-015
endloop
endfacet
facet normal 0.258819045102521 0.965925826289068 0.0
outer loop
vertex 1.97434850428287 7.36836892983127 2.46747067222941e-015
vertex -6.69742039605126e-015 7.62829684152805 3.0
vertex 1.97434850428287 7.36836892983127 3.0
endloop
endfacet
facet normal 0.258819045102521 0.965925826289068 0.0
outer loop
vertex 1.97434850428287 7.36836892983127 3.0
vertex 3.81414842076402 6.60629885237189 2.46747067222941e-015
vertex 1.97434850428287 7.36836892983127 2.46747067222941e-015
endloop
endfacet
facet normal 0.5 0.866025403784438 0.0
outer loop
vertex 3.81414842076402 6.60629885237189 2.46747067222941e-015
vertex 1.97434850428287 7.36836892983127 3.0
vertex 3.81414842076402 6.60629885237189 3.0
endloop
endfacet
facet normal 2.60429699265642e-018 -1.50359156975994e-018 -1.0
outer loop
vertex -5.39402042554841 5.3940204255484 2.46747067222941e-015
vertex -4.82962913144534 1.29409522551261 0.0
vertex -5.0 0.0 0.0
endloop
endfacet
facet normal 2.60429699265642e-018 -1.50359156975994e-018 -1.0
outer loop
vertex -4.82962913144534 1.29409522551261 0.0
vertex -5.39402042554841 5.3940204255484 2.46747067222941e-015
vertex -3.81414842076402 6.60629885237189 2.46747067222941e-015
endloop
endfacet
facet normal 2.60429699265642e-018 -1.50359156975994e-018 -1.0
outer loop
vertex -4.82962913144534 1.29409522551261 0.0
vertex -3.81414842076402 6.60629885237189 2.46747067222941e-015
vertex -4.33012701892219 2.5 0.0
endloop
endfacet
facet normal 2.60429699265642e-018 -1.50359156975994e-018 -1.0
outer loop
vertex -4.33012701892219 2.5 0.0
vertex -3.81414842076402 6.60629885237189 2.46747067222941e-015
vertex -3.53553390593274 3.53553390593274 0.0
endloop
endfacet
facet normal 2.60429699265642e-018 -1.50359156975994e-018 -1.0
outer loop
vertex -3.53553390593274 3.53553390593274 0.0
vertex -3.81414842076402 6.60629885237189 2.46747067222941e-015
vertex -1.97434850428285 7.36836892983128 2.46747067222941e-015
endloop
endfacet
facet normal 2.60429699265642e-018 -1.50359156975994e-018 -1.0
outer loop
vertex -3.53553390593274 3.53553390593274 0.0
vertex -1.97434850428285 7.36836892983128 2.46747067222941e-015
vertex -2.5 4.3301270189222 0.0
endloop
endfacet
facet normal 2.60429699265642e-018 -1.50359156975994e-018 -1.0
outer loop
vertex -2.5 4.3301270189222 0.0
vertex -1.97434850428285 7.36836892983128 2.46747067222941e-015
vertex -1.2940952255126 4.82962913144534 0.0
endloop
endfacet
facet normal 2.60429699265642e-018 -1.50359156975994e-018 -1.0
outer loop
vertex -1.2940952255126 4.82962913144534 0.0
vertex -1.97434850428285 7.36836892983128 2.46747067222941e-015
vertex -6.69742039605126e-015 7.62829684152805 2.46747067222941e-015
endloop
endfacet
facet normal 2.60429699265642e-018 -1.50359156975994e-018 -1.0
outer loop
vertex -1.2940952255126 4.82962913144534 0.0
vertex -6.69742039605126e-015 7.62829684152805 2.46747067222941e-015
vertex 9.18485099360515e-016 5.0 0.0
endloop
endfacet
facet normal 2.60429699265642e-018 -1.50359156975994e-018 -1.0
outer loop
vertex 9.18485099360515e-016 5.0 0.0
vertex -6.69742039605126e-015 7.62829684152805 2.46747067222941e-015
vertex 1.97434850428287 7.36836892983127 2.46747067222941e-015
endloop
endfacet
facet normal 2.60429699265642e-018 -1.50359156975994e-018 -1.0
outer loop
vertex 9.18485099360515e-016 5.0 0.0
vertex 1.97434850428287 7.36836892983127 2.46747067222941e-015
vertex 1.29409522551261 4.82962913144534 0.0
endloop
endfacet
facet normal 2.60429699265642e-018 -1.50359156975994e-018 -1.0
outer loop
vertex 1.29409522551261 4.82962913144534 0.0
vertex 1.97434850428287 7.36836892983127 2.46747067222941e-015
vertex 2.5 4.33012701892219 0.0
endloop
endfacet
facet normal 2.60429699265642e-018 -1.50359156975994e-018 -1.0
outer loop
vertex 2.5 4.33012701892219 0.0
vertex 1.97434850428287 7.36836892983127 2.46747067222941e-015
vertex 3.81414842076402 6.60629885237189 2.46747067222941e-015
endloop
endfacet
facet normal 2.60429699265642e-018 -1.50359156975994e-018 -1.0
outer loop
vertex 2.5 4.33012701892219 0.0
vertex 3.81414842076402 6.60629885237189 2.46747067222941e-015
vertex 3.53553390593274 3.53553390593274 0.0
endloop
endfacet
facet normal 2.60429699265642e-018 -1.50359156975994e-018 -1.0
outer loop
vertex 3.53553390593274 3.53553390593274 0.0
vertex 3.81414842076402 6.60629885237189 2.46747067222941e-015
vertex 4.33012701892219 2.5 0.0
endloop
endfacet
facet normal 2.60429699265642e-018 -1.50359156975994e-018 -1.0
outer loop
vertex 4.33012701892219 2.5 0.0
vertex 3.81414842076402 6.60629885237189 2.46747067222941e-015
vertex 5.3940204255484 5.39402042554841 2.46747067222941e-015
endloop
endfacet
facet normal 2.60429699265642e-018 -1.50359156975994e-018 -1.0
outer loop
vertex 4.33012701892219 2.5 0.0
vertex 5.3940204255484 5.39402042554841 2.46747067222941e-015
vertex 4.82962913144534 1.2940952255126 0.0
endloop
endfacet
facet normal 2.60429699265642e-018 -1.50359156975994e-018 -1.0
outer loop
vertex 4.82962913144534 1.2940952255126 0.0
vertex 5.3940204255484 5.39402042554841 2.46747067222941e-015
vertex 5.0 -6.12323399573677e-016 0.0
endloop
endfacet
facet normal 2.60429699265642e-018 -1.50359156975994e-018 -1.0
outer loop
vertex -7.36836892983127 1.97434850428287 2.46747067222941e-015
vertex -7.36836892983127 -1.97434850428287 2.46747067222941e-015
vertex -7.62829684152805 9.07676711570104e-015 2.46747067222941e-015
endloop
endfacet
facet normal 2.60429699265642e-018 -1.50359156975994e-018 -1.0
outer loop
vertex -7.36836892983127 -1.97434850428287 2.46747067222941e-015
vertex -7.36836892983127 1.97434850428287 2.46747067222941e-015
vertex -6.60629885237188 3.81414842076403 2.46747067222941e-015
endloop
endfacet
facet normal 2.60429699265642e-018 -1.50359156975994e-018 -1.0
outer loop
vertex -7.36836892983127 -1.97434850428287 2.46747067222941e-015
vertex -6.60629885237188 3.81414842076403 2.46747067222941e-015
vertex -6.60629885237189 -3.81414842076402 2.46747067222941e-015
endloop
endfacet
facet normal 2.60429699265642e-018 -1.50359156975994e-018 -1.0
outer loop
vertex -6.60629885237189 -3.81414842076402 2.46747067222941e-015
vertex -6.60629885237188 3.81414842076403 2.46747067222941e-015
vertex -5.39402042554841 -5.3940204255484 2.46747067222941e-015
endloop
endfacet
facet normal 2.60429699265642e-018 -1.50359156975994e-018 -1.0
outer loop
vertex -5.39402042554841 -5.3940204255484 2.46747067222941e-015
vertex -6.60629885237188 3.81414842076403 2.46747067222941e-015
vertex -5.39402042554841 5.3940204255484 2.46747067222941e-015
endloop
endfacet
facet normal 2.60429699265642e-018 -1.50359156975994e-018 -1.0
outer loop
vertex -5.39402042554841 -5.3940204255484 2.46747067222941e-015
vertex -5.39402042554841 5.3940204255484 2.46747067222941e-015
vertex -5.0 0.0 0.0
endloop
endfacet
facet normal 2.60429699265642e-018 -1.50359156975994e-018 -1.0
outer loop
vertex -5.39402042554841 -5.3940204255484 2.46747067222941e-015
vertex -5.0 0.0 0.0
vertex -4.82962913144534 -1.2940952255126 0.0
endloop
endfacet
facet normal 2.60429699265642e-018 -1.50359156975994e-018 -1.0
outer loop
vertex -5.39402042554841 -5.3940204255484 2.46747067222941e-015
vertex -4.82962913144534 -1.2940952255126 0.0
vertex -3.81414842076402 -6.60629885237189 2.46747067222941e-015
endloop
endfacet
facet normal 2.60429699265642e-018 -1.50359156975994e-018 -1.0
outer loop
vertex -3.81414842076402 -6.60629885237189 2.46747067222941e-015
vertex -4.82962913144534 -1.2940952255126 0.0
vertex -4.33012701892219 -2.5 0.0
endloop
endfacet
facet normal 2.60429699265642e-018 -1.50359156975994e-018 -1.0
outer loop
vertex -3.81414842076402 -6.60629885237189 2.46747067222941e-015
vertex -4.33012701892219 -2.5 0.0
vertex -3.53553390593274 -3.53553390593274 0.0
endloop
endfacet
facet normal 2.60429699265642e-018 -1.50359156975994e-018 -1.0
outer loop
vertex -3.81414842076402 -6.60629885237189 2.46747067222941e-015
vertex -3.53553390593274 -3.53553390593274 0.0
vertex -1.97434850428287 -7.36836892983127 2.46747067222941e-015
endloop
endfacet
facet normal 2.60429699265642e-018 -1.50359156975994e-018 -1.0
outer loop
vertex -1.97434850428287 -7.36836892983127 2.46747067222941e-015
vertex -3.53553390593274 -3.53553390593274 0.0
vertex -2.5 -4.33012701892219 0.0
endloop
endfacet
facet normal 2.60429699265642e-018 -1.50359156975994e-018 -1.0
outer loop
vertex -1.97434850428287 -7.36836892983127 2.46747067222941e-015
vertex -2.5 -4.33012701892219 0.0
vertex -1.2940952255126 -4.82962913144534 0.0
endloop
endfacet
facet normal 2.60429699265642e-018 -1.50359156975994e-018 -1.0
outer loop
vertex -1.97434850428287 -7.36836892983127 2.46747067222941e-015
vertex -1.2940952255126 -4.82962913144534 0.0
vertex 1.32185928869433e-015 -7.62829684152805 2.46747067222941e-015
endloop
endfacet
facet normal 2.60429699265642e-018 -1.50359156975994e-018 -1.0
outer loop
vertex 1.32185928869433e-015 -7.62829684152805 2.46747067222941e-015
vertex -1.2940952255126 -4.82962913144534 0.0
vertex -3.06161699786838e-016 -5.0 0.0
endloop
endfacet
facet normal 2.60429699265642e-018 -1.50359156975994e-018 -1.0
outer loop
vertex 1.32185928869433e-015 -7.62829684152805 2.46747067222941e-015
vertex -3.06161699786838e-016 -5.0 0.0
vertex 1.2940952255126 -4.82962913144534 0.0
endloop
endfacet
facet normal 2.60429699265642e-018 -1.50359156975994e-018 -1.0
outer loop
vertex 1.32185928869433e-015 -7.62829684152805 2.46747067222941e-015
vertex 1.2940952255126 -4.82962913144534 0.0
vertex 1.97434850428286 -7.36836892983127 2.46747067222941e-015
endloop
endfacet
facet normal 2.60429699265642e-018 -1.50359156975994e-018 -1.0
outer loop
vertex 1.97434850428286 -7.36836892983127 2.46747067222941e-015
vertex 1.2940952255126 -4.82962913144534 0.0
vertex 2.5 -4.33012701892219 0.0
endloop
endfacet
facet normal 2.60429699265642e-018 -1.50359156975994e-018 -1.0
outer loop
vertex 1.97434850428286 -7.36836892983127 2.46747067222941e-015
vertex 2.5 -4.33012701892219 0.0
vertex 3.81414842076402 -6.60629885237189 2.46747067222941e-015
endloop
endfacet
facet normal 2.60429699265642e-018 -1.50359156975994e-018 -1.0
outer loop
vertex 3.81414842076402 -6.60629885237189 2.46747067222941e-015
vertex 2.5 -4.33012701892219 0.0
vertex 3.53553390593274 -3.53553390593274 0.0
endloop
endfacet
facet normal 2.60429699265642e-018 -1.50359156975994e-018 -1.0
outer loop
vertex 3.81414842076402 -6.60629885237189 2.46747067222941e-015
vertex 3.53553390593274 -3.53553390593274 0.0
vertex 4.33012701892219 -2.5 0.0
endloop
endfacet
facet normal 2.60429699265642e-018 -1.50359156975994e-018 -1.0
outer loop
vertex 3.81414842076402 -6.60629885237189 2.46747067222941e-015
vertex 4.33012701892219 -2.5 0.0
vertex 5.39402042554841 -5.3940204255484 2.46747067222941e-015
endloop
endfacet
facet normal 2.60429699265642e-018 -1.50359156975994e-018 -1.0
outer loop
vertex 5.39402042554841 -5.3940204255484 2.46747067222941e-015
vertex 4.33012701892219 -2.5 0.0
vertex 4.82962913144534 -1.29409522551261 0.0
endloop
endfacet
facet normal 2.60429699265642e-018 -1.50359156975994e-018 -1.0
outer loop
vertex 5.39402042554841 -5.3940204255484 2.46747067222941e-015
vertex 4.82962913144534 -1.29409522551261 0.0
vertex 5.0 -6.12323399573677e-016 0.0
endloop
endfacet
facet normal 2.60429699265642e-018 -1.50359156975994e-018 -1.0
outer loop
vertex 5.39402042554841 -5.3940204255484 2.46747067222941e-015
vertex 5.0 -6.12323399573677e-016 0.0
vertex 5.3940204255484 5.39402042554841 2.46747067222941e-015
endloop
endfacet
facet normal 2.60429699265642e-018 -1.50359156975994e-018 -1.0
outer loop
vertex 5.39402042554841 -5.3940204255484 2.46747067222941e-015
vertex 5.3940204255484 5.39402042554841 2.46747067222941e-015
vertex 6.60629885237189 3.81414842076402 2.46747067222941e-015
endloop
endfacet
facet normal 2.60429699265642e-018 -1.50359156975994e-018 -1.0
outer loop
vertex 5.39402042554841 -5.3940204255484 2.46747067222941e-015
vertex 6.60629885237189 3.81414842076402 2.46747067222941e-015
vertex 6.60629885237188 -3.81414842076403 2.46747067222941e-015
endloop
endfacet
facet normal 2.60429699265642e-018 -1.50359156975994e-018 -1.0
outer loop
vertex 6.60629885237188 -3.81414842076403 2.46747067222941e-015
vertex 6.60629885237189 3.81414842076402 2.46747067222941e-015
vertex 7.36836892983127 -1.97434850428286 2.46747067222941e-015
endloop
endfacet
facet normal 2.60429699265642e-018 -1.50359156975994e-018 -1.0
outer loop
vertex 7.36836892983127 -1.97434850428286 2.46747067222941e-015
vertex 6.60629885237189 3.81414842076402 2.46747067222941e-015
vertex 7.36836892983127 1.97434850428286 2.46747067222941e-015
endloop
endfacet
facet normal 2.60429699265642e-018 -1.50359156975994e-018 -1.0
outer loop
vertex 7.36836892983127 -1.97434850428286 2.46747067222941e-015
vertex 7.36836892983127 1.97434850428286 2.46747067222941e-015
vertex 7.62829684152805 -4.75869343929958e-015 2.46747067222941e-015
endloop
endfacet
endsolid ball-bearing-adapter
