solid bottom-template
facet normal 0.0 0.0 -1.0
outer loop
vertex -8.79999999999999 10.0 0.0
vertex -4.23923048454133 4.6 0.0
vertex -8.79999999999999 -2.0 0.0
endloop
endfacet
facet normal 0.0 0.0 -1.0
outer loop
vertex -4.23923048454133 4.6 0.0
vertex -8.79999999999999 10.0 0.0
vertex -4.04852813742386 4.84852813742386 0.0
endloop
endfacet
facet normal 0.0 0.0 -1.0
outer loop
vertex -4.04852813742386 4.84852813742386 0.0
vertex -8.79999999999999 10.0 0.0
vertex 0.0 8.0 0.0
endloop
endfacet
facet normal 0.0 0.0 -1.0
outer loop
vertex 0.0 8.0 0.0
vertex -8.79999999999999 10.0 0.0
vertex 19.2 10.0 0.0
endloop
endfacet
facet normal 0.0 0.0 -1.0
outer loop
vertex -8.79999999999999 -2.0 0.0
vertex -4.23923048454133 4.6 0.0
vertex -4.35911099154688 4.31058285412302 0.0
endloop
endfacet
facet normal 0.0 0.0 -1.0
outer loop
vertex -8.79999999999999 -2.0 0.0
vertex -4.35911099154688 4.31058285412302 0.0
vertex -4.4 4.0 0.0
endloop
endfacet
facet normal 0.0 0.0 -1.0
outer loop
vertex -4.04852813742386 4.84852813742386 0.0
vertex 0.0 8.0 0.0
vertex -3.8 5.03923048454133 0.0
endloop
endfacet
facet normal 0.0 0.0 -1.0
outer loop
vertex -3.8 5.03923048454133 0.0
vertex 0.0 8.0 0.0
vertex -3.51058285412303 5.15911099154688 0.0
endloop
endfacet
facet normal 0.0 0.0 -1.0
outer loop
vertex -3.51058285412303 5.15911099154688 0.0
vertex 0.0 8.0 0.0
vertex -3.2 5.2 0.0
endloop
endfacet
facet normal 0.0 0.0 -1.0
outer loop
vertex -3.2 5.2 0.0
vertex 0.0 8.0 0.0
vertex -2.88941714587698 5.15911099154688 0.0
endloop
endfacet
facet normal 0.0 0.0 -1.0
outer loop
vertex -2.88941714587698 5.15911099154688 0.0
vertex 0.0 8.0 0.0
vertex -2.6 5.03923048454133 0.0
endloop
endfacet
facet normal 0.0 0.0 -1.0
outer loop
vertex -2.6 5.03923048454133 0.0
vertex 0.0 8.0 0.0
vertex -2.35147186257614 4.84852813742386 0.0
endloop
endfacet
facet normal 0.0 0.0 -1.0
outer loop
vertex -2.35147186257614 4.84852813742386 0.0
vertex 0.0 8.0 0.0
vertex -2.16076951545868 4.6 0.0
endloop
endfacet
facet normal 0.0 0.0 -1.0
outer loop
vertex -2.16076951545868 4.6 0.0
vertex 0.0 8.0 0.0
vertex -2.04088900845312 4.31058285412303 0.0
endloop
endfacet
facet normal 0.0 0.0 -1.0
outer loop
vertex -2.04088900845312 4.31058285412303 0.0
vertex 0.0 8.0 0.0
vertex -2.0 4.0 0.0
endloop
endfacet
facet normal 0.0 0.0 -1.0
outer loop
vertex 0.0 8.0 0.0
vertex 19.2 10.0 0.0
vertex 10.4 8.0 -1.37282182897074e-017
endloop
endfacet
facet normal 0.0 0.0 -1.0
outer loop
vertex 10.4 8.0 -1.37282182897074e-017
vertex 19.2 10.0 0.0
vertex 12.7514718625761 4.84852813742386 3.52495810318487e-015
endloop
endfacet
facet normal 0.0 0.0 -1.0
outer loop
vertex 10.4 8.0 -1.37282182897074e-017
vertex 12.7514718625761 4.84852813742386 3.52495810318487e-015
vertex 12.5607695154587 4.6 3.52495810318487e-015
endloop
endfacet
facet normal 0.0 0.0 -1.0
outer loop
vertex 10.4 8.0 -1.37282182897074e-017
vertex 12.5607695154587 4.6 3.52495810318487e-015
vertex 10.4 0.0 -1.37282182897074e-017
endloop
endfacet
facet normal 0.0 0.0 -1.0
outer loop
vertex 10.4 0.0 -1.37282182897074e-017
vertex 12.5607695154587 4.6 3.52495810318487e-015
vertex 12.4408890084531 4.31058285412302 3.52495810318487e-015
endloop
endfacet
facet normal 0.0 0.0 -1.0
outer loop
vertex 10.4 0.0 -1.37282182897074e-017
vertex 12.4408890084531 4.31058285412302 3.52495810318487e-015
vertex 12.4 4.0 3.52495810318487e-015
endloop
endfacet
facet normal 0.0 0.0 -1.0
outer loop
vertex 12.7514718625761 4.84852813742386 3.52495810318487e-015
vertex 19.2 10.0 0.0
vertex 13.0 5.03923048454133 3.52495810318487e-015
endloop
endfacet
facet normal 0.0 0.0 -1.0
outer loop
vertex 13.0 5.03923048454133 3.52495810318487e-015
vertex 19.2 10.0 0.0
vertex 13.289417145877 5.15911099154688 3.52495810318487e-015
endloop
endfacet
facet normal 0.0 0.0 -1.0
outer loop
vertex 13.289417145877 5.15911099154688 3.52495810318487e-015
vertex 19.2 10.0 0.0
vertex 13.6 5.2 3.52495810318487e-015
endloop
endfacet
facet normal 0.0 0.0 -1.0
outer loop
vertex 13.6 5.2 3.52495810318487e-015
vertex 19.2 10.0 0.0
vertex 13.910582854123 5.15911099154688 3.52495810318487e-015
endloop
endfacet
facet normal 0.0 0.0 -1.0
outer loop
vertex 13.910582854123 5.15911099154688 3.52495810318487e-015
vertex 19.2 10.0 0.0
vertex 14.2 5.03923048454133 3.52495810318487e-015
endloop
endfacet
facet normal 0.0 0.0 -1.0
outer loop
vertex 14.2 5.03923048454133 3.52495810318487e-015
vertex 19.2 10.0 0.0
vertex 14.4485281374239 4.84852813742386 3.52495810318487e-015
endloop
endfacet
facet normal 0.0 0.0 -1.0
outer loop
vertex 14.4485281374239 4.84852813742386 3.52495810318487e-015
vertex 19.2 10.0 0.0
vertex 14.6392304845413 4.6 3.52495810318487e-015
endloop
endfacet
facet normal 0.0 0.0 -1.0
outer loop
vertex 14.6392304845413 4.6 3.52495810318487e-015
vertex 19.2 10.0 0.0
vertex 14.7591109915469 4.31058285412302 3.52495810318487e-015
endloop
endfacet
facet normal 0.0 0.0 -1.0
outer loop
vertex 14.7591109915469 4.31058285412302 3.52495810318487e-015
vertex 19.2 10.0 0.0
vertex 14.8 4.0 3.52495810318487e-015
endloop
endfacet
facet normal 0.0 0.0 -1.0
outer loop
vertex -8.79999999999999 -2.0 0.0
vertex 0.0 0.0 0.0
vertex 19.2 -2.0 0.0
endloop
endfacet
facet normal 0.0 0.0 -1.0
outer loop
vertex 0.0 0.0 0.0
vertex -8.79999999999999 -2.0 0.0
vertex -4.04852813742386 3.15147186257614 0.0
endloop
endfacet
facet normal 0.0 0.0 -1.0
outer loop
vertex -4.04852813742386 3.15147186257614 0.0
vertex -8.79999999999999 -2.0 0.0
vertex -4.23923048454133 3.4 0.0
endloop
endfacet
facet normal 0.0 0.0 -1.0
outer loop
vertex -4.23923048454133 3.4 0.0
vertex -8.79999999999999 -2.0 0.0
vertex -4.35911099154688 3.68941714587697 0.0
endloop
endfacet
facet normal 0.0 0.0 -1.0
outer loop
vertex -4.35911099154688 3.68941714587697 0.0
vertex -8.79999999999999 -2.0 0.0
vertex -4.4 4.0 0.0
endloop
endfacet
facet normal 0.0 0.0 -1.0
outer loop
vertex 0.0 0.0 0.0
vertex -4.04852813742386 3.15147186257614 0.0
vertex -3.8 2.96076951545867 0.0
endloop
endfacet
facet normal 0.0 0.0 -1.0
outer loop
vertex 0.0 0.0 0.0
vertex -3.8 2.96076951545867 0.0
vertex -3.51058285412303 2.84088900845312 0.0
endloop
endfacet
facet normal 0.0 0.0 -1.0
outer loop
vertex 0.0 0.0 0.0
vertex -3.51058285412303 2.84088900845312 0.0
vertex -3.2 2.8 0.0
endloop
endfacet
facet normal 0.0 0.0 -1.0
outer loop
vertex 0.0 0.0 0.0
vertex -3.2 2.8 0.0
vertex -2.88941714587698 2.84088900845312 0.0
endloop
endfacet
facet normal 0.0 0.0 -1.0
outer loop
vertex 0.0 0.0 0.0
vertex -2.88941714587698 2.84088900845312 0.0
vertex -2.6 2.96076951545867 0.0
endloop
endfacet
facet normal 0.0 0.0 -1.0
outer loop
vertex 0.0 0.0 0.0
vertex -2.6 2.96076951545867 0.0
vertex -2.35147186257614 3.15147186257614 0.0
endloop
endfacet
facet normal 0.0 0.0 -1.0
outer loop
vertex 0.0 0.0 0.0
vertex -2.35147186257614 3.15147186257614 0.0
vertex -2.16076951545867 3.4 0.0
endloop
endfacet
facet normal 0.0 0.0 -1.0
outer loop
vertex 0.0 0.0 0.0
vertex -2.16076951545867 3.4 0.0
vertex -2.04088900845312 3.68941714587698 0.0
endloop
endfacet
facet normal 0.0 0.0 -1.0
outer loop
vertex 0.0 0.0 0.0
vertex -2.04088900845312 3.68941714587698 0.0
vertex -2.0 4.0 0.0
endloop
endfacet
facet normal 0.0 0.0 -1.0
outer loop
vertex 0.0 0.0 0.0
vertex -2.0 4.0 0.0
vertex 0.0 8.0 0.0
endloop
endfacet
facet normal 0.0 0.0 -1.0
outer loop
vertex 19.2 -2.0 0.0
vertex 0.0 0.0 0.0
vertex 10.4 0.0 -1.37282182897074e-017
endloop
endfacet
facet normal 0.0 0.0 -1.0
outer loop
vertex 19.2 -2.0 0.0
vertex 10.4 0.0 -1.37282182897074e-017
vertex 12.7514718625761 3.15147186257614 3.52495810318487e-015
endloop
endfacet
facet normal 0.0 0.0 -1.0
outer loop
vertex 12.7514718625761 3.15147186257614 3.52495810318487e-015
vertex 10.4 0.0 -1.37282182897074e-017
vertex 12.5607695154587 3.4 3.52495810318487e-015
endloop
endfacet
facet normal 0.0 0.0 -1.0
outer loop
vertex 12.5607695154587 3.4 3.52495810318487e-015
vertex 10.4 0.0 -1.37282182897074e-017
vertex 12.4408890084531 3.68941714587697 3.52495810318487e-015
endloop
endfacet
facet normal 0.0 0.0 -1.0
outer loop
vertex 12.4408890084531 3.68941714587697 3.52495810318487e-015
vertex 10.4 0.0 -1.37282182897074e-017
vertex 12.4 4.0 3.52495810318487e-015
endloop
endfacet
facet normal 0.0 0.0 -1.0
outer loop
vertex 19.2 -2.0 0.0
vertex 12.7514718625761 3.15147186257614 3.52495810318487e-015
vertex 13.0 2.96076951545867 3.52495810318487e-015
endloop
endfacet
facet normal 0.0 0.0 -1.0
outer loop
vertex 19.2 -2.0 0.0
vertex 13.0 2.96076951545867 3.52495810318487e-015
vertex 13.289417145877 2.84088900845312 3.52495810318487e-015
endloop
endfacet
facet normal 0.0 0.0 -1.0
outer loop
vertex 19.2 -2.0 0.0
vertex 13.289417145877 2.84088900845312 3.52495810318487e-015
vertex 13.6 2.8 3.52495810318487e-015
endloop
endfacet
facet normal 0.0 0.0 -1.0
outer loop
vertex 19.2 -2.0 0.0
vertex 13.6 2.8 3.52495810318487e-015
vertex 13.910582854123 2.84088900845312 3.52495810318487e-015
endloop
endfacet
facet normal 0.0 0.0 -1.0
outer loop
vertex 19.2 -2.0 0.0
vertex 13.910582854123 2.84088900845312 3.52495810318487e-015
vertex 14.2 2.96076951545867 3.52495810318487e-015
endloop
endfacet
facet normal 0.0 0.0 -1.0
outer loop
vertex 19.2 -2.0 0.0
vertex 14.2 2.96076951545867 3.52495810318487e-015
vertex 14.4485281374239 3.15147186257614 3.52495810318487e-015
endloop
endfacet
facet normal 0.0 0.0 -1.0
outer loop
vertex 19.2 -2.0 0.0
vertex 14.4485281374239 3.15147186257614 3.52495810318487e-015
vertex 14.6392304845413 3.4 3.52495810318487e-015
endloop
endfacet
facet normal 0.0 0.0 -1.0
outer loop
vertex 19.2 -2.0 0.0
vertex 14.6392304845413 3.4 3.52495810318487e-015
vertex 14.7591109915469 3.68941714587698 3.52495810318487e-015
endloop
endfacet
facet normal 0.0 0.0 -1.0
outer loop
vertex 19.2 -2.0 0.0
vertex 14.7591109915469 3.68941714587698 3.52495810318487e-015
vertex 14.8 4.0 3.52495810318487e-015
endloop
endfacet
facet normal 0.0 0.0 -1.0
outer loop
vertex 19.2 -2.0 0.0
vertex 14.8 4.0 3.52495810318487e-015
vertex 19.2 10.0 0.0
endloop
endfacet
facet normal -0.0 -0.0 1.0
outer loop
vertex -8.79999999999999 -2.0 1.0
vertex -4.23923048454133 3.4 1.0
vertex -8.79999999999999 10.0 1.0
endloop
endfacet
facet normal -0.0 -0.0 1.0
outer loop
vertex -4.23923048454133 3.4 1.0
vertex -8.79999999999999 -2.0 1.0
vertex -4.04852813742386 3.15147186257614 1.0
endloop
endfacet
facet normal -0.0 -0.0 1.0
outer loop
vertex -4.04852813742386 3.15147186257614 1.0
vertex -8.79999999999999 -2.0 1.0
vertex 0.0 0.0 1.0
endloop
endfacet
facet normal -0.0 -0.0 1.0
outer loop
vertex 0.0 0.0 1.0
vertex -8.79999999999999 -2.0 1.0
vertex 19.2 -2.0 1.0
endloop
endfacet
facet normal -0.0 -0.0 1.0
outer loop
vertex -8.79999999999999 10.0 1.0
vertex -4.23923048454133 3.4 1.0
vertex -4.35911099154688 3.68941714587697 1.0
endloop
endfacet
facet normal -0.0 -0.0 1.0
outer loop
vertex -8.79999999999999 10.0 1.0
vertex -4.35911099154688 3.68941714587697 1.0
vertex -4.4 4.0 1.0
endloop
endfacet
facet normal -0.0 -0.0 1.0
outer loop
vertex -4.04852813742386 3.15147186257614 1.0
vertex 0.0 0.0 1.0
vertex -3.8 2.96076951545867 1.0
endloop
endfacet
facet normal -0.0 -0.0 1.0
outer loop
vertex -3.8 2.96076951545867 1.0
vertex 0.0 0.0 1.0
vertex -3.51058285412303 2.84088900845312 1.0
endloop
endfacet
facet normal -0.0 -0.0 1.0
outer loop
vertex -3.51058285412303 2.84088900845312 1.0
vertex 0.0 0.0 1.0
vertex -3.2 2.8 1.0
endloop
endfacet
facet normal -0.0 -0.0 1.0
outer loop
vertex -3.2 2.8 1.0
vertex 0.0 0.0 1.0
vertex -2.88941714587698 2.84088900845312 1.0
endloop
endfacet
facet normal -0.0 -0.0 1.0
outer loop
vertex -2.88941714587698 2.84088900845312 1.0
vertex 0.0 0.0 1.0
vertex -2.6 2.96076951545867 1.0
endloop
endfacet
facet normal -0.0 -0.0 1.0
outer loop
vertex -2.6 2.96076951545867 1.0
vertex 0.0 0.0 1.0
vertex -2.35147186257614 3.15147186257614 1.0
endloop
endfacet
facet normal -0.0 -0.0 1.0
outer loop
vertex -2.35147186257614 3.15147186257614 1.0
vertex 0.0 0.0 1.0
vertex -2.16076951545867 3.4 1.0
endloop
endfacet
facet normal -0.0 -0.0 1.0
outer loop
vertex -2.16076951545867 3.4 1.0
vertex 0.0 0.0 1.0
vertex -2.04088900845312 3.68941714587698 1.0
endloop
endfacet
facet normal -0.0 -0.0 1.0
outer loop
vertex -2.04088900845312 3.68941714587698 1.0
vertex 0.0 0.0 1.0
vertex -2.0 4.0 1.0
endloop
endfacet
facet normal -0.0 -0.0 1.0
outer loop
vertex 0.0 0.0 1.0
vertex 19.2 -2.0 1.0
vertex 10.4 0.0 1.0
endloop
endfacet
facet normal -0.0 -0.0 1.0
outer loop
vertex 10.4 0.0 1.0
vertex 19.2 -2.0 1.0
vertex 12.7514718625761 3.15147186257614 1.0
endloop
endfacet
facet normal -0.0 -0.0 1.0
outer loop
vertex 10.4 0.0 1.0
vertex 12.7514718625761 3.15147186257614 1.0
vertex 12.5607695154587 3.4 1.0
endloop
endfacet
facet normal -0.0 -0.0 1.0
outer loop
vertex 10.4 0.0 1.0
vertex 12.5607695154587 3.4 1.0
vertex 10.4 8.0 1.0
endloop
endfacet
facet normal -0.0 -0.0 1.0
outer loop
vertex 10.4 8.0 1.0
vertex 12.5607695154587 3.4 1.0
vertex 12.4408890084531 3.68941714587697 1.0
endloop
endfacet
facet normal -0.0 -0.0 1.0
outer loop
vertex 10.4 8.0 1.0
vertex 12.4408890084531 3.68941714587697 1.0
vertex 12.4 4.0 1.0
endloop
endfacet
facet normal -0.0 -0.0 1.0
outer loop
vertex 12.7514718625761 3.15147186257614 1.0
vertex 19.2 -2.0 1.0
vertex 13.0 2.96076951545867 1.0
endloop
endfacet
facet normal -0.0 -0.0 1.0
outer loop
vertex 13.0 2.96076951545867 1.0
vertex 19.2 -2.0 1.0
vertex 13.289417145877 2.84088900845312 1.0
endloop
endfacet
facet normal -0.0 -0.0 1.0
outer loop
vertex 13.289417145877 2.84088900845312 1.0
vertex 19.2 -2.0 1.0
vertex 13.6 2.8 1.0
endloop
endfacet
facet normal -0.0 -0.0 1.0
outer loop
vertex 13.6 2.8 1.0
vertex 19.2 -2.0 1.0
vertex 13.910582854123 2.84088900845312 1.0
endloop
endfacet
facet normal -0.0 -0.0 1.0
outer loop
vertex 13.910582854123 2.84088900845312 1.0
vertex 19.2 -2.0 1.0
vertex 14.2 2.96076951545867 1.0
endloop
endfacet
facet normal -0.0 -0.0 1.0
outer loop
vertex 14.2 2.96076951545867 1.0
vertex 19.2 -2.0 1.0
vertex 14.4485281374239 3.15147186257614 1.0
endloop
endfacet
facet normal -0.0 -0.0 1.0
outer loop
vertex 14.4485281374239 3.15147186257614 1.0
vertex 19.2 -2.0 1.0
vertex 14.6392304845413 3.4 1.0
endloop
endfacet
facet normal -0.0 -0.0 1.0
outer loop
vertex 14.6392304845413 3.4 1.0
vertex 19.2 -2.0 1.0
vertex 14.7591109915469 3.68941714587698 1.0
endloop
endfacet
facet normal -0.0 -0.0 1.0
outer loop
vertex 14.7591109915469 3.68941714587698 1.0
vertex 19.2 -2.0 1.0
vertex 14.8 4.0 1.0
endloop
endfacet
facet normal -0.0 -0.0 1.0
outer loop
vertex -8.79999999999999 10.0 1.0
vertex 0.0 8.0 1.0
vertex 19.2 10.0 1.0
endloop
endfacet
facet normal -0.0 -0.0 1.0
outer loop
vertex 0.0 8.0 1.0
vertex -8.79999999999999 10.0 1.0
vertex -4.04852813742386 4.84852813742386 1.0
endloop
endfacet
facet normal -0.0 -0.0 1.0
outer loop
vertex -4.04852813742386 4.84852813742386 1.0
vertex -8.79999999999999 10.0 1.0
vertex -4.23923048454133 4.6 1.0
endloop
endfacet
facet normal -0.0 -0.0 1.0
outer loop
vertex -4.23923048454133 4.6 1.0
vertex -8.79999999999999 10.0 1.0
vertex -4.35911099154688 4.31058285412302 1.0
endloop
endfacet
facet normal -0.0 -0.0 1.0
outer loop
vertex -4.35911099154688 4.31058285412302 1.0
vertex -8.79999999999999 10.0 1.0
vertex -4.4 4.0 1.0
endloop
endfacet
facet normal -0.0 -0.0 1.0
outer loop
vertex 0.0 8.0 1.0
vertex -4.04852813742386 4.84852813742386 1.0
vertex -3.8 5.03923048454133 1.0
endloop
endfacet
facet normal -0.0 -0.0 1.0
outer loop
vertex 0.0 8.0 1.0
vertex -3.8 5.03923048454133 1.0
vertex -3.51058285412303 5.15911099154688 1.0
endloop
endfacet
facet normal -0.0 -0.0 1.0
outer loop
vertex 0.0 8.0 1.0
vertex -3.51058285412303 5.15911099154688 1.0
vertex -3.2 5.2 1.0
endloop
endfacet
facet normal -0.0 -0.0 1.0
outer loop
vertex 0.0 8.0 1.0
vertex -3.2 5.2 1.0
vertex -2.88941714587698 5.15911099154688 1.0
endloop
endfacet
facet normal -0.0 -0.0 1.0
outer loop
vertex 0.0 8.0 1.0
vertex -2.88941714587698 5.15911099154688 1.0
vertex -2.6 5.03923048454133 1.0
endloop
endfacet
facet normal -0.0 -0.0 1.0
outer loop
vertex 0.0 8.0 1.0
vertex -2.6 5.03923048454133 1.0
vertex -2.35147186257614 4.84852813742386 1.0
endloop
endfacet
facet normal -0.0 -0.0 1.0
outer loop
vertex 0.0 8.0 1.0
vertex -2.35147186257614 4.84852813742386 1.0
vertex -2.16076951545868 4.6 1.0
endloop
endfacet
facet normal -0.0 -0.0 1.0
outer loop
vertex 0.0 8.0 1.0
vertex -2.16076951545868 4.6 1.0
vertex -2.04088900845312 4.31058285412303 1.0
endloop
endfacet
facet normal -0.0 -0.0 1.0
outer loop
vertex 0.0 8.0 1.0
vertex -2.04088900845312 4.31058285412303 1.0
vertex -2.0 4.0 1.0
endloop
endfacet
facet normal -0.0 -0.0 1.0
outer loop
vertex 0.0 8.0 1.0
vertex -2.0 4.0 1.0
vertex 0.0 0.0 1.0
endloop
endfacet
facet normal -0.0 -0.0 1.0
outer loop
vertex 19.2 10.0 1.0
vertex 0.0 8.0 1.0
vertex 10.4 8.0 1.0
endloop
endfacet
facet normal -0.0 -0.0 1.0
outer loop
vertex 19.2 10.0 1.0
vertex 10.4 8.0 1.0
vertex 12.7514718625761 4.84852813742386 1.0
endloop
endfacet
facet normal -0.0 -0.0 1.0
outer loop
vertex 12.7514718625761 4.84852813742386 1.0
vertex 10.4 8.0 1.0
vertex 12.5607695154587 4.6 1.0
endloop
endfacet
facet normal -0.0 -0.0 1.0
outer loop
vertex 12.5607695154587 4.6 1.0
vertex 10.4 8.0 1.0
vertex 12.4408890084531 4.31058285412302 1.0
endloop
endfacet
facet normal -0.0 -0.0 1.0
outer loop
vertex 12.4408890084531 4.31058285412302 1.0
vertex 10.4 8.0 1.0
vertex 12.4 4.0 1.0
endloop
endfacet
facet normal -0.0 -0.0 1.0
outer loop
vertex 19.2 10.0 1.0
vertex 12.7514718625761 4.84852813742386 1.0
vertex 13.0 5.03923048454133 1.0
endloop
endfacet
facet normal -0.0 -0.0 1.0
outer loop
vertex 19.2 10.0 1.0
vertex 13.0 5.03923048454133 1.0
vertex 13.289417145877 5.15911099154688 1.0
endloop
endfacet
facet normal -0.0 -0.0 1.0
outer loop
vertex 19.2 10.0 1.0
vertex 13.289417145877 5.15911099154688 1.0
vertex 13.6 5.2 1.0
endloop
endfacet
facet normal -0.0 -0.0 1.0
outer loop
vertex 19.2 10.0 1.0
vertex 13.6 5.2 1.0
vertex 13.910582854123 5.15911099154688 1.0
endloop
endfacet
facet normal -0.0 -0.0 1.0
outer loop
vertex 19.2 10.0 1.0
vertex 13.910582854123 5.15911099154688 1.0
vertex 14.2 5.03923048454133 1.0
endloop
endfacet
facet normal -0.0 -0.0 1.0
outer loop
vertex 19.2 10.0 1.0
vertex 14.2 5.03923048454133 1.0
vertex 14.4485281374239 4.84852813742386 1.0
endloop
endfacet
facet normal -0.0 -0.0 1.0
outer loop
vertex 19.2 10.0 1.0
vertex 14.4485281374239 4.84852813742386 1.0
vertex 14.6392304845413 4.6 1.0
endloop
endfacet
facet normal -0.0 -0.0 1.0
outer loop
vertex 19.2 10.0 1.0
vertex 14.6392304845413 4.6 1.0
vertex 14.7591109915469 4.31058285412302 1.0
endloop
endfacet
facet normal -0.0 -0.0 1.0
outer loop
vertex 19.2 10.0 1.0
vertex 14.7591109915469 4.31058285412302 1.0
vertex 14.8 4.0 1.0
endloop
endfacet
facet normal -0.0 -0.0 1.0
outer loop
vertex 19.2 10.0 1.0
vertex 14.8 4.0 1.0
vertex 19.2 -2.0 1.0
endloop
endfacet
facet normal -1.0 0.0 0.0
outer loop
vertex -8.79999999999999 10.0 1.0
vertex -8.79999999999999 -2.0 0.0
vertex -8.79999999999999 -2.0 1.0
endloop
endfacet
facet normal -1.0 0.0 0.0
outer loop
vertex -8.79999999999999 -2.0 0.0
vertex -8.79999999999999 10.0 1.0
vertex -8.79999999999999 10.0 0.0
endloop
endfacet
facet normal -0.0 1.0 0.0
outer loop
vertex -8.79999999999999 10.0 1.0
vertex 19.2 10.0 0.0
vertex -8.79999999999999 10.0 0.0
endloop
endfacet
facet normal -0.0 1.0 0.0
outer loop
vertex 19.2 10.0 0.0
vertex -8.79999999999999 10.0 1.0
vertex 19.2 10.0 1.0
endloop
endfacet
facet normal 1.0 0.0 0.0
outer loop
vertex 19.2 10.0 0.0
vertex 19.2 -2.0 1.0
vertex 19.2 -2.0 0.0
endloop
endfacet
facet normal 1.0 0.0 0.0
outer loop
vertex 19.2 -2.0 1.0
vertex 19.2 10.0 0.0
vertex 19.2 10.0 1.0
endloop
endfacet
facet normal -0.0 -1.0 -0.0
outer loop
vertex 19.2 -2.0 1.0
vertex -8.79999999999999 -2.0 0.0
vertex 19.2 -2.0 0.0
endloop
endfacet
facet normal -0.0 -1.0 -0.0
outer loop
vertex -8.79999999999999 -2.0 0.0
vertex 19.2 -2.0 1.0
vertex -8.79999999999999 -2.0 1.0
endloop
endfacet
facet normal -1.0 5.88133253112696e-016 0.0
outer loop
vertex -2.0 4.0 1.0
vertex -2.04088900845312 3.68941714587698 0.0
vertex -2.04088900845312 3.68941714587698 1.0
endloop
endfacet
facet normal -0.965925826289068 0.25881904510252 0.0
outer loop
vertex -2.04088900845312 3.68941714587698 0.0
vertex -2.0 4.0 1.0
vertex -2.0 4.0 0.0
endloop
endfacet
facet normal -0.965925826289067 -0.258819045102525 0.0
outer loop
vertex -2.04088900845312 4.31058285412303 1.0
vertex -2.0 4.0 0.0
vertex -2.0 4.0 1.0
endloop
endfacet
facet normal -1.0 5.88133253112696e-016 0.0
outer loop
vertex -2.0 4.0 0.0
vertex -2.04088900845312 4.31058285412303 1.0
vertex -2.04088900845312 4.31058285412303 0.0
endloop
endfacet
facet normal -0.866025403784437 -0.500000000000003 0.0
outer loop
vertex -2.16076951545868 4.6 1.0
vertex -2.04088900845312 4.31058285412303 0.0
vertex -2.04088900845312 4.31058285412303 1.0
endloop
endfacet
facet normal -0.965925826289067 -0.258819045102525 0.0
outer loop
vertex -2.04088900845312 4.31058285412303 0.0
vertex -2.16076951545868 4.6 1.0
vertex -2.16076951545868 4.6 0.0
endloop
endfacet
facet normal -0.707106781186547 -0.707106781186548 0.0
outer loop
vertex -2.35147186257614 4.84852813742386 1.0
vertex -2.16076951545868 4.6 0.0
vertex -2.16076951545868 4.6 1.0
endloop
endfacet
facet normal -0.866025403784437 -0.500000000000003 0.0
outer loop
vertex -2.16076951545868 4.6 0.0
vertex -2.35147186257614 4.84852813742386 1.0
vertex -2.35147186257614 4.84852813742386 0.0
endloop
endfacet
facet normal -0.707106781186547 -0.707106781186548 0.0
outer loop
vertex -2.35147186257614 4.84852813742386 1.0
vertex -2.6 5.03923048454133 0.0
vertex -2.35147186257614 4.84852813742386 0.0
endloop
endfacet
facet normal -0.5 -0.866025403784439 0.0
outer loop
vertex -2.6 5.03923048454133 0.0
vertex -2.35147186257614 4.84852813742386 1.0
vertex -2.6 5.03923048454133 1.0
endloop
endfacet
facet normal -0.5 -0.866025403784439 0.0
outer loop
vertex -2.6 5.03923048454133 1.0
vertex -2.88941714587698 5.15911099154688 0.0
vertex -2.6 5.03923048454133 0.0
endloop
endfacet
facet normal -0.258819045102522 -0.965925826289068 0.0
outer loop
vertex -2.88941714587698 5.15911099154688 0.0
vertex -2.6 5.03923048454133 1.0
vertex -2.88941714587698 5.15911099154688 1.0
endloop
endfacet
facet normal -0.258819045102522 -0.965925826289068 0.0
outer loop
vertex -2.88941714587698 5.15911099154688 1.0
vertex -3.2 5.2 0.0
vertex -2.88941714587698 5.15911099154688 0.0
endloop
endfacet
facet normal -5.88133253112696e-016 -1.0 0.0
outer loop
vertex -3.2 5.2 0.0
vertex -2.88941714587698 5.15911099154688 1.0
vertex -3.2 5.2 1.0
endloop
endfacet
facet normal -5.88133253112696e-016 -1.0 0.0
outer loop
vertex -3.2 5.2 1.0
vertex -3.51058285412303 5.15911099154688 0.0
vertex -3.2 5.2 0.0
endloop
endfacet
facet normal 0.258819045102522 -0.965925826289068 0.0
outer loop
vertex -3.51058285412303 5.15911099154688 0.0
vertex -3.2 5.2 1.0
vertex -3.51058285412303 5.15911099154688 1.0
endloop
endfacet
facet normal 0.258819045102522 -0.965925826289068 0.0
outer loop
vertex -3.51058285412303 5.15911099154688 1.0
vertex -3.8 5.03923048454133 0.0
vertex -3.51058285412303 5.15911099154688 0.0
endloop
endfacet
facet normal 0.500000000000001 -0.866025403784438 0.0
outer loop
vertex -3.8 5.03923048454133 0.0
vertex -3.51058285412303 5.15911099154688 1.0
vertex -3.8 5.03923048454133 1.0
endloop
endfacet
facet normal 0.500000000000001 -0.866025403784438 0.0
outer loop
vertex -3.8 5.03923048454133 1.0
vertex -4.04852813742386 4.84852813742386 0.0
vertex -3.8 5.03923048454133 0.0
endloop
endfacet
facet normal 0.707106781186548 -0.707106781186548 0.0
outer loop
vertex -4.04852813742386 4.84852813742386 0.0
vertex -3.8 5.03923048454133 1.0
vertex -4.04852813742386 4.84852813742386 1.0
endloop
endfacet
facet normal 0.707106781186548 -0.707106781186548 0.0
outer loop
vertex -4.04852813742386 4.84852813742386 0.0
vertex -4.23923048454133 4.6 1.0
vertex -4.23923048454133 4.6 0.0
endloop
endfacet
facet normal 0.866025403784439 -0.499999999999999 0.0
outer loop
vertex -4.23923048454133 4.6 1.0
vertex -4.04852813742386 4.84852813742386 0.0
vertex -4.04852813742386 4.84852813742386 1.0
endloop
endfacet
facet normal 0.866025403784439 -0.499999999999999 0.0
outer loop
vertex -4.23923048454133 4.6 0.0
vertex -4.35911099154688 4.31058285412302 1.0
vertex -4.35911099154688 4.31058285412302 0.0
endloop
endfacet
facet normal 0.965925826289069 -0.25881904510252 0.0
outer loop
vertex -4.35911099154688 4.31058285412302 1.0
vertex -4.23923048454133 4.6 0.0
vertex -4.23923048454133 4.6 1.0
endloop
endfacet
facet normal 0.965925826289069 -0.25881904510252 0.0
outer loop
vertex -4.35911099154688 4.31058285412302 0.0
vertex -4.4 4.0 1.0
vertex -4.4 4.0 0.0
endloop
endfacet
facet normal 1.0 0.0 0.0
outer loop
vertex -4.4 4.0 1.0
vertex -4.35911099154688 4.31058285412302 0.0
vertex -4.35911099154688 4.31058285412302 1.0
endloop
endfacet
facet normal 1.0 0.0 0.0
outer loop
vertex -4.4 4.0 0.0
vertex -4.35911099154688 3.68941714587697 1.0
vertex -4.35911099154688 3.68941714587697 0.0
endloop
endfacet
facet normal 0.965925826289069 0.25881904510252 0.0
outer loop
vertex -4.35911099154688 3.68941714587697 1.0
vertex -4.4 4.0 0.0
vertex -4.4 4.0 1.0
endloop
endfacet
facet normal 0.965925826289069 0.25881904510252 0.0
outer loop
vertex -4.35911099154688 3.68941714587697 0.0
vertex -4.23923048454133 3.4 1.0
vertex -4.23923048454133 3.4 0.0
endloop
endfacet
facet normal 0.866025403784439 0.499999999999999 0.0
outer loop
vertex -4.23923048454133 3.4 1.0
vertex -4.35911099154688 3.68941714587697 0.0
vertex -4.35911099154688 3.68941714587697 1.0
endloop
endfacet
facet normal 0.866025403784439 0.499999999999999 0.0
outer loop
vertex -4.23923048454133 3.4 0.0
vertex -4.04852813742386 3.15147186257614 1.0
vertex -4.04852813742386 3.15147186257614 0.0
endloop
endfacet
facet normal 0.707106781186548 0.707106781186548 0.0
outer loop
vertex -4.04852813742386 3.15147186257614 1.0
vertex -4.23923048454133 3.4 0.0
vertex -4.23923048454133 3.4 1.0
endloop
endfacet
facet normal 0.707106781186548 0.707106781186548 0.0
outer loop
vertex -4.04852813742386 3.15147186257614 1.0
vertex -3.8 2.96076951545867 0.0
vertex -4.04852813742386 3.15147186257614 0.0
endloop
endfacet
facet normal 0.500000000000001 0.866025403784438 0.0
outer loop
vertex -3.8 2.96076951545867 0.0
vertex -4.04852813742386 3.15147186257614 1.0
vertex -3.8 2.96076951545867 1.0
endloop
endfacet
facet normal 0.500000000000001 0.866025403784438 0.0
outer loop
vertex -3.8 2.96076951545867 1.0
vertex -3.51058285412303 2.84088900845312 0.0
vertex -3.8 2.96076951545867 0.0
endloop
endfacet
facet normal 0.25881904510252 0.965925826289069 0.0
outer loop
vertex -3.51058285412303 2.84088900845312 0.0
vertex -3.8 2.96076951545867 1.0
vertex -3.51058285412303 2.84088900845312 1.0
endloop
endfacet
facet normal 0.25881904510252 0.965925826289069 0.0
outer loop
vertex -3.51058285412303 2.84088900845312 1.0
vertex -3.2 2.8 0.0
vertex -3.51058285412303 2.84088900845312 0.0
endloop
endfacet
facet normal -2.81591072702442e-015 1.0 0.0
outer loop
vertex -3.2 2.8 0.0
vertex -3.51058285412303 2.84088900845312 1.0
vertex -3.2 2.8 1.0
endloop
endfacet
facet normal -2.81591072702442e-015 1.0 0.0
outer loop
vertex -3.2 2.8 1.0
vertex -2.88941714587698 2.84088900845312 0.0
vertex -3.2 2.8 0.0
endloop
endfacet
facet normal -0.25881904510252 0.965925826289068 0.0
outer loop
vertex -2.88941714587698 2.84088900845312 0.0
vertex -3.2 2.8 1.0
vertex -2.88941714587698 2.84088900845312 1.0
endloop
endfacet
facet normal -0.25881904510252 0.965925826289068 0.0
outer loop
vertex -2.88941714587698 2.84088900845312 1.0
vertex -2.6 2.96076951545867 0.0
vertex -2.88941714587698 2.84088900845312 0.0
endloop
endfacet
facet normal -0.499999999999999 0.866025403784439 0.0
outer loop
vertex -2.6 2.96076951545867 0.0
vertex -2.88941714587698 2.84088900845312 1.0
vertex -2.6 2.96076951545867 1.0
endloop
endfacet
facet normal -0.499999999999999 0.866025403784439 0.0
outer loop
vertex -2.6 2.96076951545867 1.0
vertex -2.35147186257614 3.15147186257614 0.0
vertex -2.6 2.96076951545867 0.0
endloop
endfacet
facet normal -0.707106781186546 0.707106781186549 0.0
outer loop
vertex -2.35147186257614 3.15147186257614 0.0
vertex -2.6 2.96076951545867 1.0
vertex -2.35147186257614 3.15147186257614 1.0
endloop
endfacet
facet normal -0.866025403784438 0.500000000000001 0.0
outer loop
vertex -2.16076951545867 3.4 1.0
vertex -2.35147186257614 3.15147186257614 0.0
vertex -2.35147186257614 3.15147186257614 1.0
endloop
endfacet
facet normal -0.707106781186546 0.707106781186549 0.0
outer loop
vertex -2.35147186257614 3.15147186257614 0.0
vertex -2.16076951545867 3.4 1.0
vertex -2.16076951545867 3.4 0.0
endloop
endfacet
facet normal -0.965925826289068 0.25881904510252 0.0
outer loop
vertex -2.04088900845312 3.68941714587698 1.0
vertex -2.16076951545867 3.4 0.0
vertex -2.16076951545867 3.4 1.0
endloop
endfacet
facet normal -0.866025403784438 0.500000000000001 0.0
outer loop
vertex -2.16076951545867 3.4 0.0
vertex -2.04088900845312 3.68941714587698 1.0
vertex -2.04088900845312 3.68941714587698 0.0
endloop
endfacet
facet normal 0.965925826289069 -0.25881904510252 0.0
outer loop
vertex 12.4408890084531 4.31058285412302 3.52495810318487e-015
vertex 12.4 4.0 1.0
vertex 12.4 4.0 3.52495810318487e-015
endloop
endfacet
facet normal 1.0 0.0 0.0
outer loop
vertex 12.4 4.0 1.0
vertex 12.4408890084531 4.31058285412302 3.52495810318487e-015
vertex 12.4408890084531 4.31058285412302 1.0
endloop
endfacet
facet normal 1.0 0.0 0.0
outer loop
vertex 12.4 4.0 3.52495810318487e-015
vertex 12.4408890084531 3.68941714587697 1.0
vertex 12.4408890084531 3.68941714587697 3.52495810318487e-015
endloop
endfacet
facet normal 0.965925826289069 0.25881904510252 0.0
outer loop
vertex 12.4408890084531 3.68941714587697 1.0
vertex 12.4 4.0 3.52495810318487e-015
vertex 12.4 4.0 1.0
endloop
endfacet
facet normal 0.965925826289069 0.25881904510252 0.0
outer loop
vertex 12.4408890084531 3.68941714587697 3.52495810318487e-015
vertex 12.5607695154587 3.4 1.0
vertex 12.5607695154587 3.4 3.52495810318487e-015
endloop
endfacet
facet normal 0.866025403784439 0.5 0.0
outer loop
vertex 12.5607695154587 3.4 1.0
vertex 12.4408890084531 3.68941714587697 3.52495810318487e-015
vertex 12.4408890084531 3.68941714587697 1.0
endloop
endfacet
facet normal 0.866025403784439 0.5 0.0
outer loop
vertex 12.5607695154587 3.4 3.52495810318487e-015
vertex 12.7514718625761 3.15147186257614 1.0
vertex 12.7514718625761 3.15147186257614 3.52495810318487e-015
endloop
endfacet
facet normal 0.707106781186548 0.707106781186547 0.0
outer loop
vertex 12.7514718625761 3.15147186257614 1.0
vertex 12.5607695154587 3.4 3.52495810318487e-015
vertex 12.5607695154587 3.4 1.0
endloop
endfacet
facet normal 0.707106781186548 0.707106781186547 0.0
outer loop
vertex 12.7514718625761 3.15147186257614 1.0
vertex 13.0 2.96076951545867 3.52495810318487e-015
vertex 12.7514718625761 3.15147186257614 3.52495810318487e-015
endloop
endfacet
facet normal 0.499999999999999 0.866025403784439 0.0
outer loop
vertex 13.0 2.96076951545867 3.52495810318487e-015
vertex 12.7514718625761 3.15147186257614 1.0
vertex 13.0 2.96076951545867 1.0
endloop
endfacet
facet normal 0.499999999999999 0.866025403784439 0.0
outer loop
vertex 13.0 2.96076951545867 1.0
vertex 13.289417145877 2.84088900845312 3.52495810318487e-015
vertex 13.0 2.96076951545867 3.52495810318487e-015
endloop
endfacet
facet normal 0.25881904510252 0.965925826289068 0.0
outer loop
vertex 13.289417145877 2.84088900845312 3.52495810318487e-015
vertex 13.0 2.96076951545867 1.0
vertex 13.289417145877 2.84088900845312 1.0
endloop
endfacet
facet normal 0.25881904510252 0.965925826289068 0.0
outer loop
vertex 13.289417145877 2.84088900845312 1.0
vertex 13.6 2.8 3.52495810318487e-015
vertex 13.289417145877 2.84088900845312 3.52495810318487e-015
endloop
endfacet
facet normal 0.0 1.0 0.0
outer loop
vertex 13.6 2.8 3.52495810318487e-015
vertex 13.289417145877 2.84088900845312 1.0
vertex 13.6 2.8 1.0
endloop
endfacet
facet normal 0.0 1.0 0.0
outer loop
vertex 13.6 2.8 1.0
vertex 13.910582854123 2.84088900845312 3.52495810318487e-015
vertex 13.6 2.8 3.52495810318487e-015
endloop
endfacet
facet normal -0.25881904510252 0.965925826289068 0.0
outer loop
vertex 13.910582854123 2.84088900845312 3.52495810318487e-015
vertex 13.6 2.8 1.0
vertex 13.910582854123 2.84088900845312 1.0
endloop
endfacet
facet normal -0.25881904510252 0.965925826289068 0.0
outer loop
vertex 13.910582854123 2.84088900845312 1.0
vertex 14.2 2.96076951545867 3.52495810318487e-015
vertex 13.910582854123 2.84088900845312 3.52495810318487e-015
endloop
endfacet
facet normal -0.499999999999999 0.866025403784439 0.0
outer loop
vertex 14.2 2.96076951545867 3.52495810318487e-015
vertex 13.910582854123 2.84088900845312 1.0
vertex 14.2 2.96076951545867 1.0
endloop
endfacet
facet normal -0.499999999999999 0.866025403784439 0.0
outer loop
vertex 14.2 2.96076951545867 1.0
vertex 14.4485281374239 3.15147186257614 3.52495810318487e-015
vertex 14.2 2.96076951545867 3.52495810318487e-015
endloop
endfacet
facet normal -0.707106781186544 0.707106781186551 0.0
outer loop
vertex 14.4485281374239 3.15147186257614 3.52495810318487e-015
vertex 14.2 2.96076951545867 1.0
vertex 14.4485281374239 3.15147186257614 1.0
endloop
endfacet
facet normal -0.866025403784436 0.500000000000005 0.0
outer loop
vertex 14.6392304845413 3.4 1.0
vertex 14.4485281374239 3.15147186257614 3.52495810318487e-015
vertex 14.4485281374239 3.15147186257614 1.0
endloop
endfacet
facet normal -0.707106781186544 0.707106781186551 0.0
outer loop
vertex 14.4485281374239 3.15147186257614 3.52495810318487e-015
vertex 14.6392304845413 3.4 1.0
vertex 14.6392304845413 3.4 3.52495810318487e-015
endloop
endfacet
facet normal -0.965925826289069 0.25881904510252 0.0
outer loop
vertex 14.7591109915469 3.68941714587698 1.0
vertex 14.6392304845413 3.4 3.52495810318487e-015
vertex 14.6392304845413 3.4 1.0
endloop
endfacet
facet normal -0.866025403784436 0.500000000000005 0.0
outer loop
vertex 14.6392304845413 3.4 3.52495810318487e-015
vertex 14.7591109915469 3.68941714587698 1.0
vertex 14.7591109915469 3.68941714587698 3.52495810318487e-015
endloop
endfacet
facet normal -1.0 2.76244406765054e-016 0.0
outer loop
vertex 14.8 4.0 1.0
vertex 14.7591109915469 3.68941714587698 3.52495810318487e-015
vertex 14.7591109915469 3.68941714587698 1.0
endloop
endfacet
facet normal -0.965925826289069 0.25881904510252 0.0
outer loop
vertex 14.7591109915469 3.68941714587698 3.52495810318487e-015
vertex 14.8 4.0 1.0
vertex 14.8 4.0 3.52495810318487e-015
endloop
endfacet
facet normal -0.965925826289069 -0.25881904510252 0.0
outer loop
vertex 14.7591109915469 4.31058285412302 1.0
vertex 14.8 4.0 3.52495810318487e-015
vertex 14.8 4.0 1.0
endloop
endfacet
facet normal -1.0 2.76244406765054e-016 0.0
outer loop
vertex 14.8 4.0 3.52495810318487e-015
vertex 14.7591109915469 4.31058285412302 1.0
vertex 14.7591109915469 4.31058285412302 3.52495810318487e-015
endloop
endfacet
facet normal -0.866025403784436 -0.500000000000005 0.0
outer loop
vertex 14.6392304845413 4.6 1.0
vertex 14.7591109915469 4.31058285412302 3.52495810318487e-015
vertex 14.7591109915469 4.31058285412302 1.0
endloop
endfacet
facet normal -0.965925826289069 -0.25881904510252 0.0
outer loop
vertex 14.7591109915469 4.31058285412302 3.52495810318487e-015
vertex 14.6392304845413 4.6 1.0
vertex 14.6392304845413 4.6 3.52495810318487e-015
endloop
endfacet
facet normal -0.707106781186543 -0.707106781186552 0.0
outer loop
vertex 14.4485281374239 4.84852813742386 1.0
vertex 14.6392304845413 4.6 3.52495810318487e-015
vertex 14.6392304845413 4.6 1.0
endloop
endfacet
facet normal -0.866025403784436 -0.500000000000005 0.0
outer loop
vertex 14.6392304845413 4.6 3.52495810318487e-015
vertex 14.4485281374239 4.84852813742386 1.0
vertex 14.4485281374239 4.84852813742386 3.52495810318487e-015
endloop
endfacet
facet normal -0.707106781186543 -0.707106781186552 0.0
outer loop
vertex 14.4485281374239 4.84852813742386 1.0
vertex 14.2 5.03923048454133 3.52495810318487e-015
vertex 14.4485281374239 4.84852813742386 3.52495810318487e-015
endloop
endfacet
facet normal -0.499999999999997 -0.86602540378444 0.0
outer loop
vertex 14.2 5.03923048454133 3.52495810318487e-015
vertex 14.4485281374239 4.84852813742386 1.0
vertex 14.2 5.03923048454133 1.0
endloop
endfacet
facet normal -0.499999999999997 -0.86602540378444 0.0
outer loop
vertex 14.2 5.03923048454133 1.0
vertex 13.910582854123 5.15911099154688 3.52495810318487e-015
vertex 14.2 5.03923048454133 3.52495810318487e-015
endloop
endfacet
facet normal -0.25881904510252 -0.965925826289068 0.0
outer loop
vertex 13.910582854123 5.15911099154688 3.52495810318487e-015
vertex 14.2 5.03923048454133 1.0
vertex 13.910582854123 5.15911099154688 1.0
endloop
endfacet
facet normal -0.25881904510252 -0.965925826289068 0.0
outer loop
vertex 13.910582854123 5.15911099154688 1.0
vertex 13.6 5.2 3.52495810318487e-015
vertex 13.910582854123 5.15911099154688 3.52495810318487e-015
endloop
endfacet
facet normal 0.0 -1.0 0.0
outer loop
vertex 13.6 5.2 3.52495810318487e-015
vertex 13.910582854123 5.15911099154688 1.0
vertex 13.6 5.2 1.0
endloop
endfacet
facet normal 0.0 -1.0 0.0
outer loop
vertex 13.6 5.2 1.0
vertex 13.289417145877 5.15911099154688 3.52495810318487e-015
vertex 13.6 5.2 3.52495810318487e-015
endloop
endfacet
facet normal 0.25881904510252 -0.965925826289068 0.0
outer loop
vertex 13.289417145877 5.15911099154688 3.52495810318487e-015
vertex 13.6 5.2 1.0
vertex 13.289417145877 5.15911099154688 1.0
endloop
endfacet
facet normal 0.25881904510252 -0.965925826289068 0.0
outer loop
vertex 13.289417145877 5.15911099154688 1.0
vertex 13.0 5.03923048454133 3.52495810318487e-015
vertex 13.289417145877 5.15911099154688 3.52495810318487e-015
endloop
endfacet
facet normal 0.499999999999999 -0.866025403784439 0.0
outer loop
vertex 13.0 5.03923048454133 3.52495810318487e-015
vertex 13.289417145877 5.15911099154688 1.0
vertex 13.0 5.03923048454133 1.0
endloop
endfacet
facet normal 0.499999999999999 -0.866025403784439 0.0
outer loop
vertex 13.0 5.03923048454133 1.0
vertex 12.7514718625761 4.84852813742386 3.52495810318487e-015
vertex 13.0 5.03923048454133 3.52495810318487e-015
endloop
endfacet
facet normal 0.707106781186548 -0.707106781186547 0.0
outer loop
vertex 12.7514718625761 4.84852813742386 3.52495810318487e-015
vertex 13.0 5.03923048454133 1.0
vertex 12.7514718625761 4.84852813742386 1.0
endloop
endfacet
facet normal 0.707106781186548 -0.707106781186547 0.0
outer loop
vertex 12.7514718625761 4.84852813742386 3.52495810318487e-015
vertex 12.5607695154587 4.6 1.0
vertex 12.5607695154587 4.6 3.52495810318487e-015
endloop
endfacet
facet normal 0.866025403784439 -0.5 0.0
outer loop
vertex 12.5607695154587 4.6 1.0
vertex 12.7514718625761 4.84852813742386 3.52495810318487e-015
vertex 12.7514718625761 4.84852813742386 1.0
endloop
endfacet
facet normal 0.866025403784439 -0.5 0.0
outer loop
vertex 12.5607695154587 4.6 3.52495810318487e-015
vertex 12.4408890084531 4.31058285412302 1.0
vertex 12.4408890084531 4.31058285412302 3.52495810318487e-015
endloop
endfacet
facet normal 0.965925826289069 -0.25881904510252 0.0
outer loop
vertex 12.4408890084531 4.31058285412302 1.0
vertex 12.5607695154587 4.6 3.52495810318487e-015
vertex 12.5607695154587 4.6 1.0
endloop
endfacet
facet normal 0.0 1.0 0.0
outer loop
vertex 0.0 0.0 0.0
vertex 10.4 0.0 1.0
vertex 10.4 0.0 -1.37282182897074e-017
endloop
endfacet
facet normal 0.0 1.0 0.0
outer loop
vertex 10.4 0.0 1.0
vertex 0.0 0.0 0.0
vertex 0.0 0.0 1.0
endloop
endfacet
facet normal -1.0 0.0 0.0
outer loop
vertex 10.4 8.0 1.0
vertex 10.4 0.0 -1.37282182897074e-017
vertex 10.4 0.0 1.0
endloop
endfacet
facet normal -1.0 0.0 0.0
outer loop
vertex 10.4 0.0 -1.37282182897074e-017
vertex 10.4 8.0 1.0
vertex 10.4 8.0 -1.37282182897074e-017
endloop
endfacet
facet normal -0.0 -1.0 -0.0
outer loop
vertex 10.4 8.0 1.0
vertex 0.0 8.0 0.0
vertex 10.4 8.0 -1.37282182897074e-017
endloop
endfacet
facet normal -0.0 -1.0 -0.0
outer loop
vertex 0.0 8.0 0.0
vertex 10.4 8.0 1.0
vertex 0.0 8.0 1.0
endloop
endfacet
facet normal 1.0 0.0 0.0
outer loop
vertex 0.0 8.0 0.0
vertex 0.0 0.0 1.0
vertex 0.0 0.0 0.0
endloop
endfacet
facet normal 1.0 0.0 0.0
outer loop
vertex 0.0 0.0 1.0
vertex 0.0 8.0 0.0
vertex 0.0 8.0 1.0
endloop
endfacet
endsolid bottom-template
