solid home-mount-bottom
facet normal 0.0 0.0 1.0
outer loop
vertex -6.56829561876566 -1.75996950669714 11.0
vertex -6.56829561876566 1.75996950669714 11.0
vertex -6.8 8.327598234202e-016 11.0
endloop
endfacet
facet normal 0.0 0.0 1.0
outer loop
vertex -6.56829561876566 1.75996950669714 11.0
vertex -6.56829561876566 -1.75996950669714 11.0
vertex -5.88897274573418 -3.4 11.0
endloop
endfacet
facet normal 0.0 0.0 1.0
outer loop
vertex -6.56829561876566 1.75996950669714 11.0
vertex -5.88897274573418 -3.4 11.0
vertex -5.88897274573418 3.4 11.0
endloop
endfacet
facet normal 0.0 0.0 1.0
outer loop
vertex -5.88897274573418 3.4 11.0
vertex -5.88897274573418 -3.4 11.0
vertex -4.80832611206853 -4.80832611206852 11.0
endloop
endfacet
facet normal 0.0 0.0 1.0
outer loop
vertex -5.88897274573418 3.4 11.0
vertex -4.80832611206853 -4.80832611206852 11.0
vertex -4.80832611206852 4.80832611206852 11.0
endloop
endfacet
facet normal 0.0 0.0 1.0
outer loop
vertex -4.80832611206852 4.80832611206852 11.0
vertex -4.80832611206853 -4.80832611206852 11.0
vertex -4.8 -1.54379774368957e-015 11.0
endloop
endfacet
facet normal 0.0 0.0 1.0
outer loop
vertex -4.8 -1.54379774368957e-015 11.0
vertex -4.80832611206853 -4.80832611206852 11.0
vertex -4.63644396618753 -1.2423314164921 11.0
endloop
endfacet
facet normal 0.0 0.0 1.0
outer loop
vertex -4.63644396618753 -1.2423314164921 11.0
vertex -4.80832611206853 -4.80832611206852 11.0
vertex -3.4 -5.88897274573418 11.0
endloop
endfacet
facet normal 0.0 0.0 1.0
outer loop
vertex -4.63644396618753 -1.2423314164921 11.0
vertex -3.4 -5.88897274573418 11.0
vertex -4.1569219381653 -2.4 11.0
endloop
endfacet
facet normal 0.0 0.0 1.0
outer loop
vertex -4.1569219381653 -2.4 11.0
vertex -3.4 -5.88897274573418 11.0
vertex -3.39411254969543 -3.39411254969543 11.0
endloop
endfacet
facet normal 0.0 0.0 1.0
outer loop
vertex -3.39411254969543 -3.39411254969543 11.0
vertex -3.4 -5.88897274573418 11.0
vertex -1.75996950669715 -6.56829561876566 11.0
endloop
endfacet
facet normal 0.0 0.0 1.0
outer loop
vertex -3.39411254969543 -3.39411254969543 11.0
vertex -1.75996950669715 -6.56829561876566 11.0
vertex -2.4 -4.15692193816531 11.0
endloop
endfacet
facet normal 0.0 0.0 1.0
outer loop
vertex -2.4 -4.15692193816531 11.0
vertex -1.75996950669715 -6.56829561876566 11.0
vertex -1.2423314164921 -4.63644396618753 11.0
endloop
endfacet
facet normal 0.0 0.0 1.0
outer loop
vertex -1.2423314164921 -4.63644396618753 11.0
vertex -1.75996950669715 -6.56829561876566 11.0
vertex -1.2491397351303e-015 -6.8 11.0
endloop
endfacet
facet normal 0.0 0.0 1.0
outer loop
vertex -1.2423314164921 -4.63644396618753 11.0
vertex -1.2491397351303e-015 -6.8 11.0
vertex -8.81745695386094e-016 -4.8 11.0
endloop
endfacet
facet normal 0.0 0.0 1.0
outer loop
vertex -8.81745695386094e-016 -4.8 11.0
vertex -1.2491397351303e-015 -6.8 11.0
vertex 1.75996950669714 -6.56829561876566 11.0
endloop
endfacet
facet normal 0.0 0.0 1.0
outer loop
vertex -8.81745695386094e-016 -4.8 11.0
vertex 1.75996950669714 -6.56829561876566 11.0
vertex 1.2423314164921 -4.63644396618753 11.0
endloop
endfacet
facet normal 0.0 0.0 1.0
outer loop
vertex 1.2423314164921 -4.63644396618753 11.0
vertex 1.75996950669714 -6.56829561876566 11.0
vertex 2.4 -4.15692193816531 11.0
endloop
endfacet
facet normal 0.0 0.0 1.0
outer loop
vertex 2.4 -4.15692193816531 11.0
vertex 1.75996950669714 -6.56829561876566 11.0
vertex 3.4 -5.88897274573419 11.0
endloop
endfacet
facet normal 0.0 0.0 1.0
outer loop
vertex 2.4 -4.15692193816531 11.0
vertex 3.4 -5.88897274573419 11.0
vertex 3.39411254969542 -3.39411254969543 11.0
endloop
endfacet
facet normal 0.0 0.0 1.0
outer loop
vertex 3.39411254969542 -3.39411254969543 11.0
vertex 3.4 -5.88897274573419 11.0
vertex 4.1569219381653 -2.40000000000001 11.0
endloop
endfacet
facet normal 0.0 0.0 1.0
outer loop
vertex 4.1569219381653 -2.40000000000001 11.0
vertex 3.4 -5.88897274573419 11.0
vertex 4.80832611206852 -4.80832611206852 11.0
endloop
endfacet
facet normal 0.0 0.0 1.0
outer loop
vertex 4.1569219381653 -2.40000000000001 11.0
vertex 4.80832611206852 -4.80832611206852 11.0
vertex 4.63644396618753 -1.24233141649211 11.0
endloop
endfacet
facet normal 0.0 0.0 1.0
outer loop
vertex 4.63644396618753 -1.24233141649211 11.0
vertex 4.80832611206852 -4.80832611206852 11.0
vertex 4.8 -9.70217375630266e-015 11.0
endloop
endfacet
facet normal 0.0 0.0 1.0
outer loop
vertex -4.80832611206852 4.80832611206852 11.0
vertex -4.63644396618753 1.2423314164921 11.0
vertex -3.4 5.88897274573418 11.0
endloop
endfacet
facet normal 0.0 0.0 1.0
outer loop
vertex -4.63644396618753 1.2423314164921 11.0
vertex -4.80832611206852 4.80832611206852 11.0
vertex -4.8 -1.54379774368957e-015 11.0
endloop
endfacet
facet normal 0.0 0.0 1.0
outer loop
vertex -3.4 5.88897274573418 11.0
vertex -4.63644396618753 1.2423314164921 11.0
vertex -4.1569219381653 2.4 11.0
endloop
endfacet
facet normal 0.0 0.0 1.0
outer loop
vertex -3.4 5.88897274573418 11.0
vertex -4.1569219381653 2.4 11.0
vertex -3.39411254969543 3.39411254969543 11.0
endloop
endfacet
facet normal 0.0 0.0 1.0
outer loop
vertex -3.4 5.88897274573418 11.0
vertex -3.39411254969543 3.39411254969543 11.0
vertex -1.75996950669714 6.56829561876566 11.0
endloop
endfacet
facet normal 0.0 0.0 1.0
outer loop
vertex -1.75996950669714 6.56829561876566 11.0
vertex -3.39411254969543 3.39411254969543 11.0
vertex -2.4 4.1569219381653 11.0
endloop
endfacet
facet normal 0.0 0.0 1.0
outer loop
vertex -1.75996950669714 6.56829561876566 11.0
vertex -2.4 4.1569219381653 11.0
vertex -1.2423314164921 4.63644396618753 11.0
endloop
endfacet
facet normal 0.0 0.0 1.0
outer loop
vertex -1.75996950669714 6.56829561876566 11.0
vertex -1.2423314164921 4.63644396618753 11.0
vertex 4.163799117101e-016 6.8 11.0
endloop
endfacet
facet normal 0.0 0.0 1.0
outer loop
vertex 4.163799117101e-016 6.8 11.0
vertex -1.2423314164921 4.63644396618753 11.0
vertex 1.35972933543551e-015 4.8 11.0
endloop
endfacet
facet normal 0.0 0.0 1.0
outer loop
vertex 4.163799117101e-016 6.8 11.0
vertex 1.35972933543551e-015 4.8 11.0
vertex 1.75996950669714 6.56829561876566 11.0
endloop
endfacet
facet normal 0.0 0.0 1.0
outer loop
vertex 1.75996950669714 6.56829561876566 11.0
vertex 1.35972933543551e-015 4.8 11.0
vertex 1.2423314164921 4.63644396618753 11.0
endloop
endfacet
facet normal 0.0 0.0 1.0
outer loop
vertex 1.75996950669714 6.56829561876566 11.0
vertex 1.2423314164921 4.63644396618753 11.0
vertex 2.4 4.1569219381653 11.0
endloop
endfacet
facet normal 0.0 0.0 1.0
outer loop
vertex 1.75996950669714 6.56829561876566 11.0
vertex 2.4 4.1569219381653 11.0
vertex 3.4 5.88897274573418 11.0
endloop
endfacet
facet normal 0.0 0.0 1.0
outer loop
vertex 3.4 5.88897274573418 11.0
vertex 2.4 4.1569219381653 11.0
vertex 3.39411254969543 3.39411254969543 11.0
endloop
endfacet
facet normal 0.0 0.0 1.0
outer loop
vertex 3.4 5.88897274573418 11.0
vertex 3.39411254969543 3.39411254969543 11.0
vertex 4.1569219381653 2.4 11.0
endloop
endfacet
facet normal 0.0 0.0 1.0
outer loop
vertex 3.4 5.88897274573418 11.0
vertex 4.1569219381653 2.4 11.0
vertex 4.80832611206852 4.80832611206852 11.0
endloop
endfacet
facet normal 0.0 0.0 1.0
outer loop
vertex 4.80832611206852 4.80832611206852 11.0
vertex 4.1569219381653 2.4 11.0
vertex 4.63644396618753 1.2423314164921 11.0
endloop
endfacet
facet normal 0.0 0.0 1.0
outer loop
vertex 4.80832611206852 4.80832611206852 11.0
vertex 4.63644396618753 1.2423314164921 11.0
vertex 4.8 -9.70217375630266e-015 11.0
endloop
endfacet
facet normal 0.0 0.0 1.0
outer loop
vertex 4.80832611206852 4.80832611206852 11.0
vertex 4.8 -9.70217375630266e-015 11.0
vertex 4.80832611206852 -4.80832611206852 11.0
endloop
endfacet
facet normal 0.0 0.0 1.0
outer loop
vertex 4.80832611206852 4.80832611206852 11.0
vertex 4.80832611206852 -4.80832611206852 11.0
vertex 5.88897274573418 -3.4 11.0
endloop
endfacet
facet normal 0.0 0.0 1.0
outer loop
vertex 4.80832611206852 4.80832611206852 11.0
vertex 5.88897274573418 -3.4 11.0
vertex 5.88897274573418 3.4 11.0
endloop
endfacet
facet normal 0.0 0.0 1.0
outer loop
vertex 5.88897274573418 3.4 11.0
vertex 5.88897274573418 -3.4 11.0
vertex 6.56829561876566 -1.75996950669715 11.0
endloop
endfacet
facet normal 0.0 0.0 1.0
outer loop
vertex 5.88897274573418 3.4 11.0
vertex 6.56829561876566 -1.75996950669715 11.0
vertex 6.56829561876566 1.75996950669714 11.0
endloop
endfacet
facet normal 0.0 0.0 1.0
outer loop
vertex 6.56829561876566 1.75996950669714 11.0
vertex 6.56829561876566 -1.75996950669715 11.0
vertex 6.8 0.0 11.0
endloop
endfacet
facet normal 0.5 0.866025403784439 0.0
outer loop
vertex 3.4 5.88897274573418 11.0
vertex 4.80832611206852 4.80832611206852 0.0
vertex 3.4 5.88897274573418 0.0
endloop
endfacet
facet normal 0.707106781186548 0.707106781186547 0.0
outer loop
vertex 4.80832611206852 4.80832611206852 0.0
vertex 3.4 5.88897274573418 11.0
vertex 4.80832611206852 4.80832611206852 11.0
endloop
endfacet
facet normal 0.707106781186548 0.707106781186547 0.0
outer loop
vertex 4.80832611206852 4.80832611206852 0.0
vertex 5.88897274573418 3.4 11.0
vertex 5.88897274573418 3.4 0.0
endloop
endfacet
facet normal 0.866025403784439 0.5 0.0
outer loop
vertex 5.88897274573418 3.4 11.0
vertex 4.80832611206852 4.80832611206852 0.0
vertex 4.80832611206852 4.80832611206852 11.0
endloop
endfacet
facet normal 0.866025403784439 0.5 0.0
outer loop
vertex 5.88897274573418 3.4 0.0
vertex 6.56829561876566 1.75996950669714 11.0
vertex 6.56829561876566 1.75996950669714 0.0
endloop
endfacet
facet normal 0.965925826289068 0.258819045102521 0.0
outer loop
vertex 6.56829561876566 1.75996950669714 11.0
vertex 5.88897274573418 3.4 0.0
vertex 5.88897274573418 3.4 11.0
endloop
endfacet
facet normal 0.965925826289068 0.258819045102521 0.0
outer loop
vertex 6.56829561876566 1.75996950669714 0.0
vertex 6.8 0.0 11.0
vertex 6.8 0.0 0.0
endloop
endfacet
facet normal 1.0 -1.87133307808585e-016 0.0
outer loop
vertex 6.8 0.0 11.0
vertex 6.56829561876566 1.75996950669714 0.0
vertex 6.56829561876566 1.75996950669714 11.0
endloop
endfacet
facet normal 1.0 -1.87133307808585e-016 0.0
outer loop
vertex 6.8 0.0 0.0
vertex 6.56829561876566 -1.75996950669715 11.0
vertex 6.56829561876566 -1.75996950669715 0.0
endloop
endfacet
facet normal 0.965925826289068 -0.258819045102521 0.0
outer loop
vertex 6.56829561876566 -1.75996950669715 11.0
vertex 6.8 0.0 0.0
vertex 6.8 0.0 11.0
endloop
endfacet
facet normal 0.965925826289068 -0.258819045102521 0.0
outer loop
vertex 6.56829561876566 -1.75996950669715 0.0
vertex 5.88897274573418 -3.4 11.0
vertex 5.88897274573418 -3.4 0.0
endloop
endfacet
facet normal 0.866025403784438 -0.500000000000001 0.0
outer loop
vertex 5.88897274573418 -3.4 11.0
vertex 6.56829561876566 -1.75996950669715 0.0
vertex 6.56829561876566 -1.75996950669715 11.0
endloop
endfacet
facet normal 0.866025403784438 -0.500000000000001 0.0
outer loop
vertex 5.88897274573418 -3.4 0.0
vertex 4.80832611206852 -4.80832611206852 11.0
vertex 4.80832611206852 -4.80832611206852 0.0
endloop
endfacet
facet normal 0.707106781186547 -0.707106781186548 0.0
outer loop
vertex 4.80832611206852 -4.80832611206852 11.0
vertex 5.88897274573418 -3.4 0.0
vertex 5.88897274573418 -3.4 11.0
endloop
endfacet
facet normal 0.707106781186547 -0.707106781186548 0.0
outer loop
vertex 4.80832611206852 -4.80832611206852 11.0
vertex 3.4 -5.88897274573419 0.0
vertex 4.80832611206852 -4.80832611206852 0.0
endloop
endfacet
facet normal 0.499999999999999 -0.866025403784439 0.0
outer loop
vertex 3.4 -5.88897274573419 0.0
vertex 4.80832611206852 -4.80832611206852 11.0
vertex 3.4 -5.88897274573419 11.0
endloop
endfacet
facet normal 0.499999999999999 -0.866025403784439 0.0
outer loop
vertex 3.4 -5.88897274573419 11.0
vertex 1.75996950669714 -6.56829561876566 0.0
vertex 3.4 -5.88897274573419 0.0
endloop
endfacet
facet normal 0.25881904510252 -0.965925826289068 0.0
outer loop
vertex 1.75996950669714 -6.56829561876566 0.0
vertex 3.4 -5.88897274573419 11.0
vertex 1.75996950669714 -6.56829561876566 11.0
endloop
endfacet
facet normal 0.25881904510252 -0.965925826289068 0.0
outer loop
vertex 1.75996950669714 -6.56829561876566 11.0
vertex -1.2491397351303e-015 -6.8 0.0
vertex 1.75996950669714 -6.56829561876566 0.0
endloop
endfacet
facet normal -1.78222197912938e-016 -1.0 0.0
outer loop
vertex -1.2491397351303e-015 -6.8 0.0
vertex 1.75996950669714 -6.56829561876566 11.0
vertex -1.2491397351303e-015 -6.8 11.0
endloop
endfacet
facet normal -1.78222197912938e-016 -1.0 0.0
outer loop
vertex -1.2491397351303e-015 -6.8 11.0
vertex -1.75996950669715 -6.56829561876566 0.0
vertex -1.2491397351303e-015 -6.8 0.0
endloop
endfacet
facet normal -0.258819045102521 -0.965925826289068 0.0
outer loop
vertex -1.75996950669715 -6.56829561876566 0.0
vertex -1.2491397351303e-015 -6.8 11.0
vertex -1.75996950669715 -6.56829561876566 11.0
endloop
endfacet
facet normal -0.258819045102521 -0.965925826289068 0.0
outer loop
vertex -1.75996950669715 -6.56829561876566 11.0
vertex -3.4 -5.88897274573418 0.0
vertex -1.75996950669715 -6.56829561876566 0.0
endloop
endfacet
facet normal -0.500000000000001 -0.866025403784438 0.0
outer loop
vertex -3.4 -5.88897274573418 0.0
vertex -1.75996950669715 -6.56829561876566 11.0
vertex -3.4 -5.88897274573418 11.0
endloop
endfacet
facet normal -0.500000000000001 -0.866025403784438 0.0
outer loop
vertex -3.4 -5.88897274573418 11.0
vertex -4.80832611206853 -4.80832611206852 0.0
vertex -3.4 -5.88897274573418 0.0
endloop
endfacet
facet normal -0.707106781186548 -0.707106781186547 0.0
outer loop
vertex -4.80832611206853 -4.80832611206852 0.0
vertex -3.4 -5.88897274573418 11.0
vertex -4.80832611206853 -4.80832611206852 11.0
endloop
endfacet
facet normal -0.866025403784439 -0.5 0.0
outer loop
vertex -5.88897274573418 -3.4 11.0
vertex -4.80832611206853 -4.80832611206852 0.0
vertex -4.80832611206853 -4.80832611206852 11.0
endloop
endfacet
facet normal -0.707106781186548 -0.707106781186547 0.0
outer loop
vertex -4.80832611206853 -4.80832611206852 0.0
vertex -5.88897274573418 -3.4 11.0
vertex -5.88897274573418 -3.4 0.0
endloop
endfacet
facet normal -0.965925826289068 -0.25881904510252 0.0
outer loop
vertex -6.56829561876566 -1.75996950669714 11.0
vertex -5.88897274573418 -3.4 0.0
vertex -5.88897274573418 -3.4 11.0
endloop
endfacet
facet normal -0.866025403784439 -0.5 0.0
outer loop
vertex -5.88897274573418 -3.4 0.0
vertex -6.56829561876566 -1.75996950669714 11.0
vertex -6.56829561876566 -1.75996950669714 0.0
endloop
endfacet
facet normal -1.0 2.76244406765054e-016 0.0
outer loop
vertex -6.8 8.327598234202e-016 11.0
vertex -6.56829561876566 -1.75996950669714 0.0
vertex -6.56829561876566 -1.75996950669714 11.0
endloop
endfacet
facet normal -0.965925826289068 -0.25881904510252 0.0
outer loop
vertex -6.56829561876566 -1.75996950669714 0.0
vertex -6.8 8.327598234202e-016 11.0
vertex -6.8 8.327598234202e-016 0.0
endloop
endfacet
facet normal -0.965925826289068 0.258819045102521 0.0
outer loop
vertex -6.56829561876566 1.75996950669714 11.0
vertex -6.8 8.327598234202e-016 0.0
vertex -6.8 8.327598234202e-016 11.0
endloop
endfacet
facet normal -1.0 2.76244406765054e-016 0.0
outer loop
vertex -6.8 8.327598234202e-016 0.0
vertex -6.56829561876566 1.75996950669714 11.0
vertex -6.56829561876566 1.75996950669714 0.0
endloop
endfacet
facet normal -0.866025403784439 0.5 0.0
outer loop
vertex -5.88897274573418 3.4 11.0
vertex -6.56829561876566 1.75996950669714 0.0
vertex -6.56829561876566 1.75996950669714 11.0
endloop
endfacet
facet normal -0.965925826289068 0.258819045102521 0.0
outer loop
vertex -6.56829561876566 1.75996950669714 0.0
vertex -5.88897274573418 3.4 11.0
vertex -5.88897274573418 3.4 0.0
endloop
endfacet
facet normal -0.707106781186547 0.707106781186548 0.0
outer loop
vertex -4.80832611206852 4.80832611206852 11.0
vertex -5.88897274573418 3.4 0.0
vertex -5.88897274573418 3.4 11.0
endloop
endfacet
facet normal -0.866025403784439 0.5 0.0
outer loop
vertex -5.88897274573418 3.4 0.0
vertex -4.80832611206852 4.80832611206852 11.0
vertex -4.80832611206852 4.80832611206852 0.0
endloop
endfacet
facet normal -0.707106781186547 0.707106781186548 0.0
outer loop
vertex -4.80832611206852 4.80832611206852 11.0
vertex -3.4 5.88897274573418 0.0
vertex -4.80832611206852 4.80832611206852 0.0
endloop
endfacet
facet normal -0.5 0.866025403784439 0.0
outer loop
vertex -3.4 5.88897274573418 0.0
vertex -4.80832611206852 4.80832611206852 11.0
vertex -3.4 5.88897274573418 11.0
endloop
endfacet
facet normal -0.5 0.866025403784439 0.0
outer loop
vertex -3.4 5.88897274573418 11.0
vertex -1.75996950669714 6.56829561876566 0.0
vertex -3.4 5.88897274573418 0.0
endloop
endfacet
facet normal -0.258819045102521 0.965925826289068 0.0
outer loop
vertex -1.75996950669714 6.56829561876566 0.0
vertex -3.4 5.88897274573418 11.0
vertex -1.75996950669714 6.56829561876566 11.0
endloop
endfacet
facet normal -0.258819045102521 0.965925826289068 0.0
outer loop
vertex -1.75996950669714 6.56829561876566 11.0
vertex 4.163799117101e-016 6.8 0.0
vertex -1.75996950669714 6.56829561876566 0.0
endloop
endfacet
facet normal 3.38622176034582e-016 1.0 0.0
outer loop
vertex 4.163799117101e-016 6.8 0.0
vertex -1.75996950669714 6.56829561876566 11.0
vertex 4.163799117101e-016 6.8 11.0
endloop
endfacet
facet normal 3.38622176034582e-016 1.0 0.0
outer loop
vertex 4.163799117101e-016 6.8 11.0
vertex 1.75996950669714 6.56829561876566 0.0
vertex 4.163799117101e-016 6.8 0.0
endloop
endfacet
facet normal 0.258819045102521 0.965925826289068 0.0
outer loop
vertex 1.75996950669714 6.56829561876566 0.0
vertex 4.163799117101e-016 6.8 11.0
vertex 1.75996950669714 6.56829561876566 11.0
endloop
endfacet
facet normal 0.258819045102521 0.965925826289068 0.0
outer loop
vertex 1.75996950669714 6.56829561876566 11.0
vertex 3.4 5.88897274573418 0.0
vertex 1.75996950669714 6.56829561876566 0.0
endloop
endfacet
facet normal 0.5 0.866025403784439 0.0
outer loop
vertex 3.4 5.88897274573418 0.0
vertex 1.75996950669714 6.56829561876566 11.0
vertex 3.4 5.88897274573418 11.0
endloop
endfacet
facet normal 0.0 -1.0 0.0
outer loop
vertex 16.0 -10.0 0.0
vertex -18.0 -10.0 -3.5
vertex 18.0 -10.0 -3.5
endloop
endfacet
facet normal 0.0 -1.0 0.0
outer loop
vertex -18.0 -10.0 -3.5
vertex 16.0 -10.0 0.0
vertex -16.0 -10.0 0.0
endloop
endfacet
facet normal -0.868243142124459 0.0 0.496138938356834
outer loop
vertex -16.0 10.0 0.0
vertex -18.0 -10.0 -3.5
vertex -16.0 -10.0 0.0
endloop
endfacet
facet normal -0.868243142124459 0.0 0.496138938356834
outer loop
vertex -18.0 -10.0 -3.5
vertex -16.0 10.0 0.0
vertex -18.0 10.0 -3.5
endloop
endfacet
facet normal -0.0 1.0 -0.0
outer loop
vertex -16.0 10.0 0.0
vertex 18.0 10.0 -3.5
vertex -18.0 10.0 -3.5
endloop
endfacet
facet normal -0.0 1.0 -0.0
outer loop
vertex 18.0 10.0 -3.5
vertex -16.0 10.0 0.0
vertex 16.0 10.0 0.0
endloop
endfacet
facet normal 0.868243142124459 -0.0 0.496138938356834
outer loop
vertex 18.0 10.0 -3.5
vertex 16.0 -10.0 0.0
vertex 18.0 -10.0 -3.5
endloop
endfacet
facet normal 0.868243142124459 -0.0 0.496138938356834
outer loop
vertex 16.0 -10.0 0.0
vertex 18.0 10.0 -3.5
vertex 16.0 10.0 0.0
endloop
endfacet
facet normal 0.965925826289068 0.258819045102521 1.76093482988451e-018
outer loop
vertex -4.63644396618753 -1.2423314164921 0.0
vertex -4.1569219381653 -2.4 11.0
vertex -4.1569219381653 -2.4 0.0
endloop
endfacet
facet normal 0.866025403784438 0.500000000000001 3.39602292120614e-019
outer loop
vertex -4.1569219381653 -2.4 11.0
vertex -4.63644396618753 -1.2423314164921 0.0
vertex -4.63644396618753 -1.2423314164921 11.0
endloop
endfacet
facet normal 0.866025403784438 0.500000000000001 3.39602292120614e-019
outer loop
vertex -4.1569219381653 -2.4 0.0
vertex -3.39411254969543 -3.39411254969543 11.0
vertex -3.39411254969543 -3.39411254969543 0.0
endloop
endfacet
facet normal 0.707106781186547 0.707106781186548 2.65782098903044e-019
outer loop
vertex -3.39411254969543 -3.39411254969543 11.0
vertex -4.1569219381653 -2.4 0.0
vertex -4.1569219381653 -2.4 11.0
endloop
endfacet
facet normal 0.707106781186547 0.707106781186548 2.65782098903044e-019
outer loop
vertex -3.39411254969543 -3.39411254969543 11.0
vertex -2.4 -4.15692193816531 0.0
vertex -3.39411254969543 -3.39411254969543 0.0
endloop
endfacet
facet normal 0.5 0.866025403784439 4.77181230207474e-019
outer loop
vertex -2.4 -4.15692193816531 0.0
vertex -3.39411254969543 -3.39411254969543 11.0
vertex -2.4 -4.15692193816531 11.0
endloop
endfacet
facet normal 0.5 0.866025403784439 4.77181230207474e-019
outer loop
vertex -2.4 -4.15692193816531 11.0
vertex -1.2423314164921 -4.63644396618753 0.0
vertex -2.4 -4.15692193816531 0.0
endloop
endfacet
facet normal 0.258819045102521 0.965925826289068 -8.53053879112146e-019
outer loop
vertex -1.2423314164921 -4.63644396618753 0.0
vertex -2.4 -4.15692193816531 11.0
vertex -1.2423314164921 -4.63644396618753 11.0
endloop
endfacet
facet normal 1.0 2.67333296869407e-016 5.44815851799657e-019
outer loop
vertex -4.8 -1.54379774368957e-015 0.0
vertex -4.63644396618753 -1.2423314164921 11.0
vertex -4.63644396618753 -1.2423314164921 0.0
endloop
endfacet
facet normal 0.965925826289068 0.258819045102521 1.76093482988451e-018
outer loop
vertex -4.63644396618753 -1.2423314164921 11.0
vertex -4.8 -1.54379774368957e-015 0.0
vertex -4.8 -1.54379774368957e-015 11.0
endloop
endfacet
facet normal -0.965925826289068 0.258819045102522 -8.34060757554791e-019
outer loop
vertex 4.63644396618753 -1.24233141649211 11.0
vertex 4.1569219381653 -2.40000000000001 0.0
vertex 4.1569219381653 -2.40000000000001 11.0
endloop
endfacet
facet normal -0.866025403784438 0.500000000000001 -6.65117554659809e-019
outer loop
vertex 4.1569219381653 -2.40000000000001 0.0
vertex 4.63644396618753 -1.24233141649211 11.0
vertex 4.63644396618753 -1.24233141649211 0.0
endloop
endfacet
facet normal -1.0 1.42577758330351e-015 -1.68943202894982e-019
outer loop
vertex 4.8 -9.70217375630266e-015 11.0
vertex 4.63644396618753 -1.24233141649211 0.0
vertex 4.63644396618753 -1.24233141649211 11.0
endloop
endfacet
facet normal -0.965925826289068 0.258819045102522 -8.34060757554791e-019
outer loop
vertex 4.63644396618753 -1.24233141649211 0.0
vertex 4.8 -9.70217375630266e-015 11.0
vertex 4.8 -9.70217375630266e-015 0.0
endloop
endfacet
facet normal 2.67333296869407e-017 1.0 -5.63808973357008e-019
outer loop
vertex -8.81745695386094e-016 -4.8 11.0
vertex 1.2423314164921 -4.63644396618753 0.0
vertex -8.81745695386094e-016 -4.8 0.0
endloop
endfacet
facet normal -0.25881904510252 0.965925826289068 1.7512877452037e-019
outer loop
vertex 1.2423314164921 -4.63644396618753 0.0
vertex -8.81745695386094e-016 -4.8 11.0
vertex 1.2423314164921 -4.63644396618753 11.0
endloop
endfacet
facet normal -0.25881904510252 0.965925826289068 1.7512877452037e-019
outer loop
vertex 1.2423314164921 -4.63644396618753 11.0
vertex 2.4 -4.15692193816531 0.0
vertex 1.2423314164921 -4.63644396618753 0.0
endloop
endfacet
facet normal -0.499999999999999 0.866025403784439 -3.25515262539196e-019
outer loop
vertex 2.4 -4.15692193816531 0.0
vertex 1.2423314164921 -4.63644396618753 11.0
vertex 2.4 -4.15692193816531 11.0
endloop
endfacet
facet normal 0.258819045102521 0.965925826289068 -8.53053879112146e-019
outer loop
vertex -1.2423314164921 -4.63644396618753 11.0
vertex -8.81745695386094e-016 -4.8 0.0
vertex -1.2423314164921 -4.63644396618753 0.0
endloop
endfacet
facet normal 2.67333296869407e-017 1.0 -5.63808973357008e-019
outer loop
vertex -8.81745695386094e-016 -4.8 0.0
vertex -1.2423314164921 -4.63644396618753 11.0
vertex -8.81745695386094e-016 -4.8 11.0
endloop
endfacet
facet normal -0.499999999999999 0.866025403784439 -3.25515262539196e-019
outer loop
vertex 2.4 -4.15692193816531 11.0
vertex 3.39411254969542 -3.39411254969543 0.0
vertex 2.4 -4.15692193816531 0.0
endloop
endfacet
facet normal -0.707106781186547 0.707106781186548 -8.76516685964238e-019
outer loop
vertex 3.39411254969542 -3.39411254969543 0.0
vertex 2.4 -4.15692193816531 11.0
vertex 3.39411254969542 -3.39411254969543 11.0
endloop
endfacet
facet normal -0.866025403784438 0.500000000000001 -6.65117554659809e-019
outer loop
vertex 4.1569219381653 -2.40000000000001 11.0
vertex 3.39411254969542 -3.39411254969543 0.0
vertex 3.39411254969542 -3.39411254969543 11.0
endloop
endfacet
facet normal -0.707106781186547 0.707106781186548 -8.76516685964238e-019
outer loop
vertex 3.39411254969542 -3.39411254969543 0.0
vertex 4.1569219381653 -2.40000000000001 11.0
vertex 4.1569219381653 -2.40000000000001 0.0
endloop
endfacet
facet normal 0.258819045102521 -0.965925826289068 8.53053879112145e-019
outer loop
vertex -1.2423314164921 4.63644396618753 11.0
vertex -2.4 4.1569219381653 0.0
vertex -1.2423314164921 4.63644396618753 0.0
endloop
endfacet
facet normal 0.5 -0.866025403784439 6.6511755465981e-019
outer loop
vertex -2.4 4.1569219381653 0.0
vertex -1.2423314164921 4.63644396618753 11.0
vertex -2.4 4.1569219381653 11.0
endloop
endfacet
facet normal 0.5 -0.866025403784439 6.6511755465981e-019
outer loop
vertex -2.4 4.1569219381653 11.0
vertex -3.39411254969543 3.39411254969543 0.0
vertex -2.4 4.1569219381653 0.0
endloop
endfacet
facet normal 0.707106781186547 -0.707106781186548 8.76516685964238e-019
outer loop
vertex -3.39411254969543 3.39411254969543 0.0
vertex -2.4 4.1569219381653 11.0
vertex -3.39411254969543 3.39411254969543 11.0
endloop
endfacet
facet normal -0.5 -0.866025403784439 8.76516685964239e-019
outer loop
vertex 2.4 4.1569219381653 11.0
vertex 1.2423314164921 4.63644396618753 0.0
vertex 2.4 4.1569219381653 0.0
endloop
endfacet
facet normal -0.258819045102521 -0.965925826289068 -5.44815851799657e-019
outer loop
vertex 1.2423314164921 4.63644396618753 0.0
vertex 2.4 4.1569219381653 11.0
vertex 1.2423314164921 4.63644396618753 11.0
endloop
endfacet
facet normal -0.258819045102521 -0.965925826289068 -5.44815851799657e-019
outer loop
vertex 1.2423314164921 4.63644396618753 11.0
vertex 1.35972933543551e-015 4.8 0.0
vertex 1.2423314164921 4.63644396618753 0.0
endloop
endfacet
facet normal -2.94066626556348e-016 -1.0 -3.56879527347321e-019
outer loop
vertex 1.35972933543551e-015 4.8 0.0
vertex 1.2423314164921 4.63644396618753 11.0
vertex 1.35972933543551e-015 4.8 11.0
endloop
endfacet
facet normal -2.94066626556348e-016 -1.0 -3.56879527347321e-019
outer loop
vertex 1.35972933543551e-015 4.8 11.0
vertex -1.2423314164921 4.63644396618753 0.0
vertex 1.35972933543551e-015 4.8 0.0
endloop
endfacet
facet normal 0.258819045102521 -0.965925826289068 8.53053879112145e-019
outer loop
vertex -1.2423314164921 4.63644396618753 0.0
vertex 1.35972933543551e-015 4.8 11.0
vertex -1.2423314164921 4.63644396618753 11.0
endloop
endfacet
facet normal 0.707106781186547 -0.707106781186548 8.76516685964238e-019
outer loop
vertex -3.39411254969543 3.39411254969543 0.0
vertex -4.1569219381653 2.4 11.0
vertex -4.1569219381653 2.4 0.0
endloop
endfacet
facet normal 0.866025403784439 -0.5 2.11399131304429e-019
outer loop
vertex -4.1569219381653 2.4 11.0
vertex -3.39411254969543 3.39411254969543 0.0
vertex -3.39411254969543 3.39411254969543 11.0
endloop
endfacet
facet normal 0.866025403784439 -0.5 2.11399131304429e-019
outer loop
vertex -4.1569219381653 2.4 0.0
vertex -4.63644396618753 1.2423314164921 11.0
vertex -4.63644396618753 1.2423314164921 0.0
endloop
endfacet
facet normal 0.965925826289068 -0.258819045102521 -6.6511755465981e-019
outer loop
vertex -4.63644396618753 1.2423314164921 11.0
vertex -4.1569219381653 2.4 0.0
vertex -4.1569219381653 2.4 11.0
endloop
endfacet
facet normal 0.965925826289068 -0.258819045102521 -6.6511755465981e-019
outer loop
vertex -4.63644396618753 1.2423314164921 0.0
vertex -4.8 -1.54379774368957e-015 11.0
vertex -4.8 -1.54379774368957e-015 0.0
endloop
endfacet
facet normal 1.0 2.67333296869407e-016 5.44815851799657e-019
outer loop
vertex -4.8 -1.54379774368957e-015 11.0
vertex -4.63644396618753 1.2423314164921 0.0
vertex -4.63644396618753 1.2423314164921 11.0
endloop
endfacet
facet normal -0.707106781186548 -0.707106781186547 8.76516685964239e-019
outer loop
vertex 3.39411254969543 3.39411254969543 11.0
vertex 4.1569219381653 2.4 0.0
vertex 4.1569219381653 2.4 11.0
endloop
endfacet
facet normal -0.866025403784439 -0.5 6.6511755465981e-019
outer loop
vertex 4.1569219381653 2.4 0.0
vertex 3.39411254969543 3.39411254969543 11.0
vertex 3.39411254969543 3.39411254969543 0.0
endloop
endfacet
facet normal -0.965925826289068 -0.25881904510252 6.6511755465981e-019
outer loop
vertex 4.63644396618753 1.2423314164921 11.0
vertex 4.8 -9.70217375630266e-015 0.0
vertex 4.8 -9.70217375630266e-015 11.0
endloop
endfacet
facet normal -1.0 1.42577758330351e-015 -1.68943202894982e-019
outer loop
vertex 4.8 -9.70217375630266e-015 0.0
vertex 4.63644396618753 1.2423314164921 11.0
vertex 4.63644396618753 1.2423314164921 0.0
endloop
endfacet
facet normal -0.866025403784439 -0.5 6.6511755465981e-019
outer loop
vertex 4.1569219381653 2.4 11.0
vertex 4.63644396618753 1.2423314164921 0.0
vertex 4.63644396618753 1.2423314164921 11.0
endloop
endfacet
facet normal -0.965925826289068 -0.25881904510252 6.6511755465981e-019
outer loop
vertex 4.63644396618753 1.2423314164921 0.0
vertex 4.1569219381653 2.4 11.0
vertex 4.1569219381653 2.4 0.0
endloop
endfacet
facet normal -0.707106781186548 -0.707106781186547 8.76516685964239e-019
outer loop
vertex 3.39411254969543 3.39411254969543 11.0
vertex 2.4 4.1569219381653 0.0
vertex 3.39411254969543 3.39411254969543 0.0
endloop
endfacet
facet normal -0.5 -0.866025403784439 8.76516685964239e-019
outer loop
vertex 2.4 4.1569219381653 0.0
vertex 3.39411254969543 3.39411254969543 11.0
vertex 2.4 4.1569219381653 11.0
endloop
endfacet
facet normal -0.0 -0.0 1.0
outer loop
vertex -1.2423314164921 -4.63644396618753 0.0
vertex -1.5 -4.34823949802532e-015 0.0
vertex -2.4 -4.15692193816531 0.0
endloop
endfacet
facet normal -0.0 -0.0 1.0
outer loop
vertex -1.5 -4.34823949802532e-015 0.0
vertex -1.2423314164921 -4.63644396618753 0.0
vertex -1.4488887394336 -0.388228567653785 0.0
endloop
endfacet
facet normal -0.0 -0.0 1.0
outer loop
vertex -1.4488887394336 -0.388228567653785 0.0
vertex -1.2423314164921 -4.63644396618753 0.0
vertex -1.29903810567666 -0.750000000000004 0.0
endloop
endfacet
facet normal -0.0 -0.0 1.0
outer loop
vertex -1.29903810567666 -0.750000000000004 0.0
vertex -1.2423314164921 -4.63644396618753 0.0
vertex -1.06066017177982 -1.06066017177983 0.0
endloop
endfacet
facet normal -0.0 -0.0 1.0
outer loop
vertex -1.06066017177982 -1.06066017177983 0.0
vertex -1.2423314164921 -4.63644396618753 0.0
vertex -8.81745695386094e-016 -4.8 0.0
endloop
endfacet
facet normal -0.0 -0.0 1.0
outer loop
vertex -1.06066017177982 -1.06066017177983 0.0
vertex -8.81745695386094e-016 -4.8 0.0
vertex -0.750000000000001 -1.29903810567666 0.0
endloop
endfacet
facet normal -0.0 -0.0 1.0
outer loop
vertex -0.750000000000001 -1.29903810567666 0.0
vertex -8.81745695386094e-016 -4.8 0.0
vertex -0.388228567653783 -1.44888873943361 0.0
endloop
endfacet
facet normal -0.0 -0.0 1.0
outer loop
vertex -0.388228567653783 -1.44888873943361 0.0
vertex -8.81745695386094e-016 -4.8 0.0
vertex -1.36659476190685e-015 -1.50000000000001 0.0
endloop
endfacet
facet normal -0.0 -0.0 1.0
outer loop
vertex -1.36659476190685e-015 -1.50000000000001 0.0
vertex -8.81745695386094e-016 -4.8 0.0
vertex 0.38822856765378 -1.44888873943361 0.0
endloop
endfacet
facet normal -0.0 -0.0 1.0
outer loop
vertex 0.38822856765378 -1.44888873943361 0.0
vertex -8.81745695386094e-016 -4.8 0.0
vertex 1.2423314164921 -4.63644396618753 0.0
endloop
endfacet
facet normal -0.0 -0.0 1.0
outer loop
vertex 0.38822856765378 -1.44888873943361 0.0
vertex 1.2423314164921 -4.63644396618753 0.0
vertex 0.749999999999998 -1.29903810567666 0.0
endloop
endfacet
facet normal -0.0 -0.0 1.0
outer loop
vertex 0.749999999999998 -1.29903810567666 0.0
vertex 1.2423314164921 -4.63644396618753 0.0
vertex 1.06066017177982 -1.06066017177983 0.0
endloop
endfacet
facet normal -0.0 -0.0 1.0
outer loop
vertex 1.06066017177982 -1.06066017177983 0.0
vertex 1.2423314164921 -4.63644396618753 0.0
vertex 1.29903810567666 -0.750000000000007 0.0
endloop
endfacet
facet normal -0.0 -0.0 1.0
outer loop
vertex 1.29903810567666 -0.750000000000007 0.0
vertex 1.2423314164921 -4.63644396618753 0.0
vertex 2.4 -4.15692193816531 0.0
endloop
endfacet
facet normal -0.0 -0.0 1.0
outer loop
vertex 1.29903810567666 -0.750000000000007 0.0
vertex 2.4 -4.15692193816531 0.0
vertex 1.4488887394336 -0.388228567653788 0.0
endloop
endfacet
facet normal -0.0 -0.0 1.0
outer loop
vertex 1.4488887394336 -0.388228567653788 0.0
vertex 2.4 -4.15692193816531 0.0
vertex 1.5 -7.08142902183901e-015 0.0
endloop
endfacet
facet normal -0.0 -0.0 1.0
outer loop
vertex -4.63644396618753 -1.2423314164921 0.0
vertex -4.63644396618753 1.2423314164921 0.0
vertex -4.8 -1.54379774368957e-015 0.0
endloop
endfacet
facet normal -0.0 -0.0 1.0
outer loop
vertex -4.63644396618753 1.2423314164921 0.0
vertex -4.63644396618753 -1.2423314164921 0.0
vertex -4.1569219381653 2.4 0.0
endloop
endfacet
facet normal -0.0 -0.0 1.0
outer loop
vertex -4.1569219381653 2.4 0.0
vertex -4.63644396618753 -1.2423314164921 0.0
vertex -4.1569219381653 -2.4 0.0
endloop
endfacet
facet normal -0.0 -0.0 1.0
outer loop
vertex -4.1569219381653 2.4 0.0
vertex -4.1569219381653 -2.4 0.0
vertex -3.39411254969543 3.39411254969543 0.0
endloop
endfacet
facet normal -0.0 -0.0 1.0
outer loop
vertex -3.39411254969543 3.39411254969543 0.0
vertex -4.1569219381653 -2.4 0.0
vertex -3.39411254969543 -3.39411254969543 0.0
endloop
endfacet
facet normal -0.0 -0.0 1.0
outer loop
vertex -3.39411254969543 3.39411254969543 0.0
vertex -3.39411254969543 -3.39411254969543 0.0
vertex -2.4 4.1569219381653 0.0
endloop
endfacet
facet normal -0.0 -0.0 1.0
outer loop
vertex -2.4 4.1569219381653 0.0
vertex -3.39411254969543 -3.39411254969543 0.0
vertex -2.4 -4.15692193816531 0.0
endloop
endfacet
facet normal -0.0 -0.0 1.0
outer loop
vertex -2.4 4.1569219381653 0.0
vertex -2.4 -4.15692193816531 0.0
vertex -1.2423314164921 4.63644396618753 0.0
endloop
endfacet
facet normal -0.0 -0.0 1.0
outer loop
vertex -1.2423314164921 4.63644396618753 0.0
vertex -2.4 -4.15692193816531 0.0
vertex -1.5 -4.34823949802532e-015 0.0
endloop
endfacet
facet normal -0.0 -0.0 1.0
outer loop
vertex -1.2423314164921 4.63644396618753 0.0
vertex -1.5 -4.34823949802532e-015 0.0
vertex -1.4488887394336 0.388228567653778 0.0
endloop
endfacet
facet normal -0.0 -0.0 1.0
outer loop
vertex -1.2423314164921 4.63644396618753 0.0
vertex -1.4488887394336 0.388228567653778 0.0
vertex -1.29903810567666 0.749999999999996 0.0
endloop
endfacet
facet normal -0.0 -0.0 1.0
outer loop
vertex -1.2423314164921 4.63644396618753 0.0
vertex -1.29903810567666 0.749999999999996 0.0
vertex -1.06066017177982 1.06066017177982 0.0
endloop
endfacet
facet normal -0.0 -0.0 1.0
outer loop
vertex -1.2423314164921 4.63644396618753 0.0
vertex -1.06066017177982 1.06066017177982 0.0
vertex 1.35972933543551e-015 4.8 0.0
endloop
endfacet
facet normal -0.0 -0.0 1.0
outer loop
vertex 1.35972933543551e-015 4.8 0.0
vertex -1.06066017177982 1.06066017177982 0.0
vertex -0.749999999999998 1.29903810567665 0.0
endloop
endfacet
facet normal -0.0 -0.0 1.0
outer loop
vertex 1.35972933543551e-015 4.8 0.0
vertex -0.749999999999998 1.29903810567665 0.0
vertex -0.388228567653779 1.4488887394336 0.0
endloop
endfacet
facet normal -0.0 -0.0 1.0
outer loop
vertex 1.35972933543551e-015 4.8 0.0
vertex -0.388228567653779 1.4488887394336 0.0
vertex 1.55029178177895e-015 1.49999999999999 0.0
endloop
endfacet
facet normal -0.0 -0.0 1.0
outer loop
vertex 1.35972933543551e-015 4.8 0.0
vertex 1.55029178177895e-015 1.49999999999999 0.0
vertex 1.2423314164921 4.63644396618753 0.0
endloop
endfacet
facet normal -0.0 -0.0 1.0
outer loop
vertex 1.2423314164921 4.63644396618753 0.0
vertex 1.55029178177895e-015 1.49999999999999 0.0
vertex 0.388228567653784 1.4488887394336 0.0
endloop
endfacet
facet normal -0.0 -0.0 1.0
outer loop
vertex 1.2423314164921 4.63644396618753 0.0
vertex 0.388228567653784 1.4488887394336 0.0
vertex 0.750000000000002 1.29903810567665 0.0
endloop
endfacet
facet normal -0.0 -0.0 1.0
outer loop
vertex 1.2423314164921 4.63644396618753 0.0
vertex 0.750000000000002 1.29903810567665 0.0
vertex 1.06066017177982 1.06066017177981 0.0
endloop
endfacet
facet normal -0.0 -0.0 1.0
outer loop
vertex 1.2423314164921 4.63644396618753 0.0
vertex 1.06066017177982 1.06066017177981 0.0
vertex 1.29903810567666 0.749999999999993 0.0
endloop
endfacet
facet normal -0.0 -0.0 1.0
outer loop
vertex 1.2423314164921 4.63644396618753 0.0
vertex 1.29903810567666 0.749999999999993 0.0
vertex 2.4 4.1569219381653 0.0
endloop
endfacet
facet normal -0.0 -0.0 1.0
outer loop
vertex 2.4 4.1569219381653 0.0
vertex 1.29903810567666 0.749999999999993 0.0
vertex 1.4488887394336 0.388228567653774 0.0
endloop
endfacet
facet normal -0.0 -0.0 1.0
outer loop
vertex 2.4 4.1569219381653 0.0
vertex 1.4488887394336 0.388228567653774 0.0
vertex 1.5 -7.08142902183901e-015 0.0
endloop
endfacet
facet normal -0.0 -0.0 1.0
outer loop
vertex 2.4 4.1569219381653 0.0
vertex 1.5 -7.08142902183901e-015 0.0
vertex 2.4 -4.15692193816531 0.0
endloop
endfacet
facet normal -0.0 -0.0 1.0
outer loop
vertex 2.4 4.1569219381653 0.0
vertex 2.4 -4.15692193816531 0.0
vertex 3.39411254969542 -3.39411254969543 0.0
endloop
endfacet
facet normal -0.0 -0.0 1.0
outer loop
vertex 2.4 4.1569219381653 0.0
vertex 3.39411254969542 -3.39411254969543 0.0
vertex 3.39411254969543 3.39411254969543 0.0
endloop
endfacet
facet normal -0.0 -0.0 1.0
outer loop
vertex 3.39411254969543 3.39411254969543 0.0
vertex 3.39411254969542 -3.39411254969543 0.0
vertex 4.1569219381653 -2.40000000000001 0.0
endloop
endfacet
facet normal -0.0 -0.0 1.0
outer loop
vertex 3.39411254969543 3.39411254969543 0.0
vertex 4.1569219381653 -2.40000000000001 0.0
vertex 4.1569219381653 2.4 0.0
endloop
endfacet
facet normal -0.0 -0.0 1.0
outer loop
vertex 4.1569219381653 2.4 0.0
vertex 4.1569219381653 -2.40000000000001 0.0
vertex 4.63644396618753 -1.24233141649211 0.0
endloop
endfacet
facet normal -0.0 -0.0 1.0
outer loop
vertex 4.1569219381653 2.4 0.0
vertex 4.63644396618753 -1.24233141649211 0.0
vertex 4.63644396618753 1.2423314164921 0.0
endloop
endfacet
facet normal -0.0 -0.0 1.0
outer loop
vertex 4.63644396618753 1.2423314164921 0.0
vertex 4.63644396618753 -1.24233141649211 0.0
vertex 4.8 -9.70217375630266e-015 0.0
endloop
endfacet
facet normal 0.965925826289068 -0.258819045102522 0.0
outer loop
vertex -1.4488887394336 0.388228567653778 -1.0
vertex -1.5 -4.34823949802532e-015 0.0
vertex -1.5 -4.34823949802532e-015 -1.0
endloop
endfacet
facet normal 1.0 -1.17626650622539e-015 0.0
outer loop
vertex -1.5 -4.34823949802532e-015 0.0
vertex -1.4488887394336 0.388228567653778 -1.0
vertex -1.4488887394336 0.388228567653778 0.0
endloop
endfacet
facet normal 1.0 -1.17626650622539e-015 0.0
outer loop
vertex -1.5 -4.34823949802532e-015 -1.0
vertex -1.4488887394336 -0.388228567653785 0.0
vertex -1.4488887394336 -0.388228567653785 -1.0
endloop
endfacet
facet normal 0.965925826289069 0.25881904510252 0.0
outer loop
vertex -1.4488887394336 -0.388228567653785 0.0
vertex -1.5 -4.34823949802532e-015 -1.0
vertex -1.5 -4.34823949802532e-015 0.0
endloop
endfacet
facet normal 0.965925826289069 0.25881904510252 0.0
outer loop
vertex -1.4488887394336 -0.388228567653785 -1.0
vertex -1.29903810567666 -0.750000000000004 0.0
vertex -1.29903810567666 -0.750000000000004 -1.0
endloop
endfacet
facet normal 0.866025403784439 0.499999999999999 0.0
outer loop
vertex -1.29903810567666 -0.750000000000004 0.0
vertex -1.4488887394336 -0.388228567653785 -1.0
vertex -1.4488887394336 -0.388228567653785 0.0
endloop
endfacet
facet normal 0.866025403784439 0.499999999999999 0.0
outer loop
vertex -1.29903810567666 -0.750000000000004 -1.0
vertex -1.06066017177982 -1.06066017177983 0.0
vertex -1.06066017177982 -1.06066017177983 -1.0
endloop
endfacet
facet normal 0.707106781186548 0.707106781186547 0.0
outer loop
vertex -1.06066017177982 -1.06066017177983 0.0
vertex -1.29903810567666 -0.750000000000004 -1.0
vertex -1.29903810567666 -0.750000000000004 0.0
endloop
endfacet
facet normal 0.707106781186548 0.707106781186547 0.0
outer loop
vertex -1.06066017177982 -1.06066017177983 0.0
vertex -0.750000000000001 -1.29903810567666 -1.0
vertex -1.06066017177982 -1.06066017177983 -1.0
endloop
endfacet
facet normal 0.500000000000001 0.866025403784438 0.0
outer loop
vertex -0.750000000000001 -1.29903810567666 -1.0
vertex -1.06066017177982 -1.06066017177983 0.0
vertex -0.750000000000001 -1.29903810567666 0.0
endloop
endfacet
facet normal 0.500000000000001 0.866025403784438 0.0
outer loop
vertex -0.750000000000001 -1.29903810567666 0.0
vertex -0.388228567653783 -1.44888873943361 -1.0
vertex -0.750000000000001 -1.29903810567666 -1.0
endloop
endfacet
facet normal 0.258819045102522 0.965925826289068 0.0
outer loop
vertex -0.388228567653783 -1.44888873943361 -1.0
vertex -0.750000000000001 -1.29903810567666 0.0
vertex -0.388228567653783 -1.44888873943361 0.0
endloop
endfacet
facet normal 0.258819045102522 0.965925826289068 0.0
outer loop
vertex -0.388228567653783 -1.44888873943361 0.0
vertex -1.36659476190685e-015 -1.50000000000001 -1.0
vertex -0.388228567653783 -1.44888873943361 -1.0
endloop
endfacet
facet normal 1.07824429737328e-015 1.0 0.0
outer loop
vertex -1.36659476190685e-015 -1.50000000000001 -1.0
vertex -0.388228567653783 -1.44888873943361 0.0
vertex -1.36659476190685e-015 -1.50000000000001 0.0
endloop
endfacet
facet normal 1.07824429737328e-015 1.0 0.0
outer loop
vertex -1.36659476190685e-015 -1.50000000000001 0.0
vertex 0.38822856765378 -1.44888873943361 -1.0
vertex -1.36659476190685e-015 -1.50000000000001 -1.0
endloop
endfacet
facet normal -0.25881904510252 0.965925826289069 0.0
outer loop
vertex 0.38822856765378 -1.44888873943361 -1.0
vertex -1.36659476190685e-015 -1.50000000000001 0.0
vertex 0.38822856765378 -1.44888873943361 0.0
endloop
endfacet
facet normal -0.25881904510252 0.965925826289069 0.0
outer loop
vertex 0.38822856765378 -1.44888873943361 0.0
vertex 0.749999999999998 -1.29903810567666 -1.0
vertex 0.38822856765378 -1.44888873943361 -1.0
endloop
endfacet
facet normal -0.499999999999999 0.866025403784439 0.0
outer loop
vertex 0.749999999999998 -1.29903810567666 -1.0
vertex 0.38822856765378 -1.44888873943361 0.0
vertex 0.749999999999998 -1.29903810567666 0.0
endloop
endfacet
facet normal -0.499999999999999 0.866025403784439 0.0
outer loop
vertex 0.749999999999998 -1.29903810567666 0.0
vertex 1.06066017177982 -1.06066017177983 -1.0
vertex 0.749999999999998 -1.29903810567666 -1.0
endloop
endfacet
facet normal -0.707106781186547 0.707106781186548 0.0
outer loop
vertex 1.06066017177982 -1.06066017177983 -1.0
vertex 0.749999999999998 -1.29903810567666 0.0
vertex 1.06066017177982 -1.06066017177983 0.0
endloop
endfacet
facet normal -0.866025403784438 0.500000000000001 0.0
outer loop
vertex 1.29903810567666 -0.750000000000007 0.0
vertex 1.06066017177982 -1.06066017177983 -1.0
vertex 1.06066017177982 -1.06066017177983 0.0
endloop
endfacet
facet normal -0.707106781186547 0.707106781186548 0.0
outer loop
vertex 1.06066017177982 -1.06066017177983 -1.0
vertex 1.29903810567666 -0.750000000000007 0.0
vertex 1.29903810567666 -0.750000000000007 -1.0
endloop
endfacet
facet normal -0.965925826289068 0.258819045102522 0.0
outer loop
vertex 1.4488887394336 -0.388228567653788 0.0
vertex 1.29903810567666 -0.750000000000007 -1.0
vertex 1.29903810567666 -0.750000000000007 0.0
endloop
endfacet
facet normal -0.866025403784438 0.500000000000001 0.0
outer loop
vertex 1.29903810567666 -0.750000000000007 -1.0
vertex 1.4488887394336 -0.388228567653788 0.0
vertex 1.4488887394336 -0.388228567653788 -1.0
endloop
endfacet
facet normal -1.0 1.22082205570363e-015 0.0
outer loop
vertex 1.5 -7.08142902183901e-015 0.0
vertex 1.4488887394336 -0.388228567653788 -1.0
vertex 1.4488887394336 -0.388228567653788 0.0
endloop
endfacet
facet normal -0.965925826289068 0.258819045102522 0.0
outer loop
vertex 1.4488887394336 -0.388228567653788 -1.0
vertex 1.5 -7.08142902183901e-015 0.0
vertex 1.5 -7.08142902183901e-015 -1.0
endloop
endfacet
facet normal -0.965925826289069 -0.25881904510252 0.0
outer loop
vertex 1.4488887394336 0.388228567653774 0.0
vertex 1.5 -7.08142902183901e-015 -1.0
vertex 1.5 -7.08142902183901e-015 0.0
endloop
endfacet
facet normal -1.0 1.22082205570363e-015 0.0
outer loop
vertex 1.5 -7.08142902183901e-015 -1.0
vertex 1.4488887394336 0.388228567653774 0.0
vertex 1.4488887394336 0.388228567653774 -1.0
endloop
endfacet
facet normal -0.866025403784439 -0.499999999999999 0.0
outer loop
vertex 1.29903810567666 0.749999999999993 0.0
vertex 1.4488887394336 0.388228567653774 -1.0
vertex 1.4488887394336 0.388228567653774 0.0
endloop
endfacet
facet normal -0.965925826289069 -0.25881904510252 0.0
outer loop
vertex 1.4488887394336 0.388228567653774 -1.0
vertex 1.29903810567666 0.749999999999993 0.0
vertex 1.29903810567666 0.749999999999993 -1.0
endloop
endfacet
facet normal -0.707106781186549 -0.707106781186547 0.0
outer loop
vertex 1.06066017177982 1.06066017177981 0.0
vertex 1.29903810567666 0.749999999999993 -1.0
vertex 1.29903810567666 0.749999999999993 0.0
endloop
endfacet
facet normal -0.866025403784439 -0.499999999999999 0.0
outer loop
vertex 1.29903810567666 0.749999999999993 -1.0
vertex 1.06066017177982 1.06066017177981 0.0
vertex 1.06066017177982 1.06066017177981 -1.0
endloop
endfacet
facet normal -0.707106781186549 -0.707106781186547 0.0
outer loop
vertex 1.06066017177982 1.06066017177981 0.0
vertex 0.750000000000002 1.29903810567665 -1.0
vertex 1.06066017177982 1.06066017177981 -1.0
endloop
endfacet
facet normal -0.500000000000001 -0.866025403784438 0.0
outer loop
vertex 0.750000000000002 1.29903810567665 -1.0
vertex 1.06066017177982 1.06066017177981 0.0
vertex 0.750000000000002 1.29903810567665 0.0
endloop
endfacet
facet normal -0.500000000000001 -0.866025403784438 0.0
outer loop
vertex 0.750000000000002 1.29903810567665 0.0
vertex 0.388228567653784 1.4488887394336 -1.0
vertex 0.750000000000002 1.29903810567665 -1.0
endloop
endfacet
facet normal -0.258819045102522 -0.965925826289068 0.0
outer loop
vertex 0.388228567653784 1.4488887394336 -1.0
vertex 0.750000000000002 1.29903810567665 0.0
vertex 0.388228567653784 1.4488887394336 0.0
endloop
endfacet
facet normal -0.258819045102522 -0.965925826289068 0.0
outer loop
vertex 0.388228567653784 1.4488887394336 0.0
vertex 1.55029178177895e-015 1.49999999999999 -1.0
vertex 0.388228567653784 1.4488887394336 -1.0
endloop
endfacet
facet normal -1.34557759424268e-015 -1.0 0.0
outer loop
vertex 1.55029178177895e-015 1.49999999999999 -1.0
vertex 0.388228567653784 1.4488887394336 0.0
vertex 1.55029178177895e-015 1.49999999999999 0.0
endloop
endfacet
facet normal -1.34557759424268e-015 -1.0 0.0
outer loop
vertex 1.55029178177895e-015 1.49999999999999 0.0
vertex -0.388228567653779 1.4488887394336 -1.0
vertex 1.55029178177895e-015 1.49999999999999 -1.0
endloop
endfacet
facet normal 0.258819045102519 -0.965925826289069 0.0
outer loop
vertex -0.388228567653779 1.4488887394336 -1.0
vertex 1.55029178177895e-015 1.49999999999999 0.0
vertex -0.388228567653779 1.4488887394336 0.0
endloop
endfacet
facet normal 0.258819045102519 -0.965925826289069 0.0
outer loop
vertex -0.388228567653779 1.4488887394336 0.0
vertex -0.749999999999998 1.29903810567665 -1.0
vertex -0.388228567653779 1.4488887394336 -1.0
endloop
endfacet
facet normal 0.499999999999999 -0.866025403784439 0.0
outer loop
vertex -0.749999999999998 1.29903810567665 -1.0
vertex -0.388228567653779 1.4488887394336 0.0
vertex -0.749999999999998 1.29903810567665 0.0
endloop
endfacet
facet normal 0.499999999999999 -0.866025403784439 0.0
outer loop
vertex -0.749999999999998 1.29903810567665 0.0
vertex -1.06066017177982 1.06066017177982 -1.0
vertex -0.749999999999998 1.29903810567665 -1.0
endloop
endfacet
facet normal 0.707106781186547 -0.707106781186548 0.0
outer loop
vertex -1.06066017177982 1.06066017177982 -1.0
vertex -0.749999999999998 1.29903810567665 0.0
vertex -1.06066017177982 1.06066017177982 0.0
endloop
endfacet
facet normal 0.707106781186547 -0.707106781186548 0.0
outer loop
vertex -1.06066017177982 1.06066017177982 -1.0
vertex -1.29903810567666 0.749999999999996 0.0
vertex -1.29903810567666 0.749999999999996 -1.0
endloop
endfacet
facet normal 0.866025403784438 -0.500000000000001 0.0
outer loop
vertex -1.29903810567666 0.749999999999996 0.0
vertex -1.06066017177982 1.06066017177982 -1.0
vertex -1.06066017177982 1.06066017177982 0.0
endloop
endfacet
facet normal 0.866025403784438 -0.500000000000001 0.0
outer loop
vertex -1.29903810567666 0.749999999999996 -1.0
vertex -1.4488887394336 0.388228567653778 0.0
vertex -1.4488887394336 0.388228567653778 -1.0
endloop
endfacet
facet normal 0.965925826289068 -0.258819045102522 0.0
outer loop
vertex -1.4488887394336 0.388228567653778 0.0
vertex -1.29903810567666 0.749999999999996 -1.0
vertex -1.29903810567666 0.749999999999996 0.0
endloop
endfacet
facet normal 0.0 0.0 -1.0
outer loop
vertex -18.0 10.0 -3.5
vertex -12.4392304845413 0.6 -3.5
vertex -18.0 -10.0 -3.5
endloop
endfacet
facet normal 0.0 0.0 -1.0
outer loop
vertex -12.4392304845413 0.6 -3.5
vertex -18.0 10.0 -3.5
vertex -12.2485281374239 0.848528137423857 -3.5
endloop
endfacet
facet normal 0.0 0.0 -1.0
outer loop
vertex -12.2485281374239 0.848528137423857 -3.5
vertex -18.0 10.0 -3.5
vertex -12.0 1.03923048454133 -3.5
endloop
endfacet
facet normal 0.0 0.0 -1.0
outer loop
vertex -12.0 1.03923048454133 -3.5
vertex -18.0 10.0 -3.5
vertex -11.710582854123 1.15911099154688 -3.5
endloop
endfacet
facet normal 0.0 0.0 -1.0
outer loop
vertex -11.710582854123 1.15911099154688 -3.5
vertex -18.0 10.0 -3.5
vertex 18.0 10.0 -3.5
endloop
endfacet
facet normal 0.0 0.0 -1.0
outer loop
vertex -18.0 -10.0 -3.5
vertex -12.4392304845413 0.6 -3.5
vertex -12.5591109915469 0.310582854123025 -3.5
endloop
endfacet
facet normal 0.0 0.0 -1.0
outer loop
vertex -18.0 -10.0 -3.5
vertex -12.5591109915469 0.310582854123025 -3.5
vertex -12.6 3.42901103761259e-016 -3.5
endloop
endfacet
facet normal 0.0 0.0 -1.0
outer loop
vertex -11.710582854123 1.15911099154688 -3.5
vertex 18.0 10.0 -3.5
vertex -11.4 1.2 -3.5
endloop
endfacet
facet normal 0.0 0.0 -1.0
outer loop
vertex -11.4 1.2 -3.5
vertex 18.0 10.0 -3.5
vertex -11.089417145877 1.15911099154688 -3.5
endloop
endfacet
facet normal 0.0 0.0 -1.0
outer loop
vertex -11.089417145877 1.15911099154688 -3.5
vertex 18.0 10.0 -3.5
vertex -10.8 1.03923048454133 -3.5
endloop
endfacet
facet normal 0.0 0.0 -1.0
outer loop
vertex -10.8 1.03923048454133 -3.5
vertex 18.0 10.0 -3.5
vertex -3.35 3.34999999999999 -3.5
endloop
endfacet
facet normal 0.0 0.0 -1.0
outer loop
vertex -10.8 1.03923048454133 -3.5
vertex -3.35 3.34999999999999 -3.5
vertex -10.5514718625761 0.848528137423858 -3.5
endloop
endfacet
facet normal 0.0 0.0 -1.0
outer loop
vertex -10.5514718625761 0.848528137423858 -3.5
vertex -3.35 3.34999999999999 -3.5
vertex -10.3607695154587 0.600000000000001 -3.5
endloop
endfacet
facet normal 0.0 0.0 -1.0
outer loop
vertex -10.3607695154587 0.600000000000001 -3.5
vertex -3.35 3.34999999999999 -3.5
vertex -10.2408890084531 0.310582854123026 -3.5
endloop
endfacet
facet normal 0.0 0.0 -1.0
outer loop
vertex -10.2408890084531 0.310582854123026 -3.5
vertex -3.35 3.34999999999999 -3.5
vertex -10.2 6.36816335556624e-016 -3.5
endloop
endfacet
facet normal 0.0 0.0 -1.0
outer loop
vertex -3.35 3.34999999999999 -3.5
vertex 18.0 10.0 -3.5
vertex 3.35 3.34999999999999 -3.5
endloop
endfacet
facet normal 0.0 0.0 -1.0
outer loop
vertex 3.35 3.34999999999999 -3.5
vertex 18.0 10.0 -3.5
vertex 3.35 -3.35000000000001 -3.5
endloop
endfacet
facet normal 0.0 0.0 -1.0
outer loop
vertex 3.35 -3.35000000000001 -3.5
vertex 18.0 10.0 -3.5
vertex 10.5514718625761 0.848528137423857 -3.49999999999999
endloop
endfacet
facet normal 0.0 0.0 -1.0
outer loop
vertex 3.35 -3.35000000000001 -3.5
vertex 10.5514718625761 0.848528137423857 -3.49999999999999
vertex 10.3607695154587 0.6 -3.49999999999999
endloop
endfacet
facet normal 0.0 0.0 -1.0
outer loop
vertex 3.35 -3.35000000000001 -3.5
vertex 10.3607695154587 0.6 -3.49999999999999
vertex 10.2408890084531 0.310582854123025 -3.49999999999999
endloop
endfacet
facet normal 0.0 0.0 -1.0
outer loop
vertex 3.35 -3.35000000000001 -3.5
vertex 10.2408890084531 0.310582854123025 -3.49999999999999
vertex 10.2 -7.34788079488412e-017 -3.49999999999999
endloop
endfacet
facet normal 0.0 0.0 -1.0
outer loop
vertex 10.5514718625761 0.848528137423857 -3.49999999999999
vertex 18.0 10.0 -3.5
vertex 10.8 1.03923048454133 -3.49999999999999
endloop
endfacet
facet normal 0.0 0.0 -1.0
outer loop
vertex 10.8 1.03923048454133 -3.49999999999999
vertex 18.0 10.0 -3.5
vertex 11.089417145877 1.15911099154688 -3.49999999999999
endloop
endfacet
facet normal 0.0 0.0 -1.0
outer loop
vertex 11.089417145877 1.15911099154688 -3.49999999999999
vertex 18.0 10.0 -3.5
vertex 11.4 1.2 -3.49999999999999
endloop
endfacet
facet normal 0.0 0.0 -1.0
outer loop
vertex 11.4 1.2 -3.49999999999999
vertex 18.0 10.0 -3.5
vertex 11.710582854123 1.15911099154688 -3.49999999999999
endloop
endfacet
facet normal 0.0 0.0 -1.0
outer loop
vertex 11.710582854123 1.15911099154688 -3.49999999999999
vertex 18.0 10.0 -3.5
vertex 12.0 1.03923048454133 -3.49999999999999
endloop
endfacet
facet normal 0.0 0.0 -1.0
outer loop
vertex 12.0 1.03923048454133 -3.49999999999999
vertex 18.0 10.0 -3.5
vertex 12.2485281374239 0.848528137423857 -3.49999999999999
endloop
endfacet
facet normal 0.0 0.0 -1.0
outer loop
vertex 12.2485281374239 0.848528137423857 -3.49999999999999
vertex 18.0 10.0 -3.5
vertex 12.4392304845413 0.600000000000001 -3.49999999999999
endloop
endfacet
facet normal 0.0 0.0 -1.0
outer loop
vertex 12.4392304845413 0.600000000000001 -3.49999999999999
vertex 18.0 10.0 -3.5
vertex 12.5591109915469 0.310582854123026 -3.49999999999999
endloop
endfacet
facet normal 0.0 0.0 -1.0
outer loop
vertex 12.5591109915469 0.310582854123026 -3.49999999999999
vertex 18.0 10.0 -3.5
vertex 12.6 2.20436423846524e-016 -3.49999999999999
endloop
endfacet
facet normal 0.0 0.0 -1.0
outer loop
vertex -18.0 -10.0 -3.5
vertex -11.710582854123 -1.15911099154688 -3.5
vertex 18.0 -10.0 -3.5
endloop
endfacet
facet normal 0.0 0.0 -1.0
outer loop
vertex -11.710582854123 -1.15911099154688 -3.5
vertex -18.0 -10.0 -3.5
vertex -12.0 -1.03923048454133 -3.5
endloop
endfacet
facet normal 0.0 0.0 -1.0
outer loop
vertex -12.0 -1.03923048454133 -3.5
vertex -18.0 -10.0 -3.5
vertex -12.2485281374239 -0.848528137423856 -3.5
endloop
endfacet
facet normal 0.0 0.0 -1.0
outer loop
vertex -12.2485281374239 -0.848528137423856 -3.5
vertex -18.0 -10.0 -3.5
vertex -12.4392304845413 -0.6 -3.5
endloop
endfacet
facet normal 0.0 0.0 -1.0
outer loop
vertex -12.4392304845413 -0.6 -3.5
vertex -18.0 -10.0 -3.5
vertex -12.5591109915469 -0.310582854123025 -3.5
endloop
endfacet
facet normal 0.0 0.0 -1.0
outer loop
vertex -12.5591109915469 -0.310582854123025 -3.5
vertex -18.0 -10.0 -3.5
vertex -12.6 3.42901103761259e-016 -3.5
endloop
endfacet
facet normal 0.0 0.0 -1.0
outer loop
vertex 18.0 -10.0 -3.5
vertex -11.710582854123 -1.15911099154688 -3.5
vertex -11.4 -1.2 -3.5
endloop
endfacet
facet normal 0.0 0.0 -1.0
outer loop
vertex 18.0 -10.0 -3.5
vertex -11.4 -1.2 -3.5
vertex -11.089417145877 -1.15911099154688 -3.5
endloop
endfacet
facet normal 0.0 0.0 -1.0
outer loop
vertex 18.0 -10.0 -3.5
vertex -11.089417145877 -1.15911099154688 -3.5
vertex -10.8 -1.03923048454133 -3.5
endloop
endfacet
facet normal 0.0 0.0 -1.0
outer loop
vertex 18.0 -10.0 -3.5
vertex -10.8 -1.03923048454133 -3.5
vertex -3.35 -3.35000000000001 -3.5
endloop
endfacet
facet normal 0.0 0.0 -1.0
outer loop
vertex -3.35 -3.35000000000001 -3.5
vertex -10.8 -1.03923048454133 -3.5
vertex -10.5514718625761 -0.848528137423856 -3.5
endloop
endfacet
facet normal 0.0 0.0 -1.0
outer loop
vertex -3.35 -3.35000000000001 -3.5
vertex -10.5514718625761 -0.848528137423856 -3.5
vertex -10.3607695154587 -0.599999999999999 -3.5
endloop
endfacet
facet normal 0.0 0.0 -1.0
outer loop
vertex -3.35 -3.35000000000001 -3.5
vertex -10.3607695154587 -0.599999999999999 -3.5
vertex -10.2408890084531 -0.310582854123024 -3.5
endloop
endfacet
facet normal 0.0 0.0 -1.0
outer loop
vertex -3.35 -3.35000000000001 -3.5
vertex -10.2408890084531 -0.310582854123024 -3.5
vertex -10.2 6.36816335556624e-016 -3.5
endloop
endfacet
facet normal 0.0 0.0 -1.0
outer loop
vertex -3.35 -3.35000000000001 -3.5
vertex -10.2 6.36816335556624e-016 -3.5
vertex -3.35 3.34999999999999 -3.5
endloop
endfacet
facet normal 0.0 0.0 -1.0
outer loop
vertex 18.0 -10.0 -3.5
vertex -3.35 -3.35000000000001 -3.5
vertex 3.35 -3.35000000000001 -3.5
endloop
endfacet
facet normal 0.0 0.0 -1.0
outer loop
vertex 18.0 -10.0 -3.5
vertex 3.35 -3.35000000000001 -3.5
vertex 10.5514718625761 -0.848528137423857 -3.49999999999999
endloop
endfacet
facet normal 0.0 0.0 -1.0
outer loop
vertex 10.5514718625761 -0.848528137423857 -3.49999999999999
vertex 3.35 -3.35000000000001 -3.5
vertex 10.3607695154587 -0.6 -3.49999999999999
endloop
endfacet
facet normal 0.0 0.0 -1.0
outer loop
vertex 10.3607695154587 -0.6 -3.49999999999999
vertex 3.35 -3.35000000000001 -3.5
vertex 10.2408890084531 -0.310582854123025 -3.49999999999999
endloop
endfacet
facet normal 0.0 0.0 -1.0
outer loop
vertex 10.2408890084531 -0.310582854123025 -3.49999999999999
vertex 3.35 -3.35000000000001 -3.5
vertex 10.2 -7.34788079488412e-017 -3.49999999999999
endloop
endfacet
facet normal 0.0 0.0 -1.0
outer loop
vertex 18.0 -10.0 -3.5
vertex 10.5514718625761 -0.848528137423857 -3.49999999999999
vertex 10.8 -1.03923048454133 -3.49999999999999
endloop
endfacet
facet normal 0.0 0.0 -1.0
outer loop
vertex 18.0 -10.0 -3.5
vertex 10.8 -1.03923048454133 -3.49999999999999
vertex 11.089417145877 -1.15911099154688 -3.49999999999999
endloop
endfacet
facet normal 0.0 0.0 -1.0
outer loop
vertex 18.0 -10.0 -3.5
vertex 11.089417145877 -1.15911099154688 -3.49999999999999
vertex 11.4 -1.2 -3.49999999999999
endloop
endfacet
facet normal 0.0 0.0 -1.0
outer loop
vertex 18.0 -10.0 -3.5
vertex 11.4 -1.2 -3.49999999999999
vertex 11.710582854123 -1.15911099154688 -3.49999999999999
endloop
endfacet
facet normal 0.0 0.0 -1.0
outer loop
vertex 18.0 -10.0 -3.5
vertex 11.710582854123 -1.15911099154688 -3.49999999999999
vertex 12.0 -1.03923048454133 -3.49999999999999
endloop
endfacet
facet normal 0.0 0.0 -1.0
outer loop
vertex 18.0 -10.0 -3.5
vertex 12.0 -1.03923048454133 -3.49999999999999
vertex 12.2485281374239 -0.848528137423857 -3.49999999999999
endloop
endfacet
facet normal 0.0 0.0 -1.0
outer loop
vertex 18.0 -10.0 -3.5
vertex 12.2485281374239 -0.848528137423857 -3.49999999999999
vertex 12.4392304845413 -0.599999999999999 -3.49999999999999
endloop
endfacet
facet normal 0.0 0.0 -1.0
outer loop
vertex 18.0 -10.0 -3.5
vertex 12.4392304845413 -0.599999999999999 -3.49999999999999
vertex 12.5591109915469 -0.310582854123024 -3.49999999999999
endloop
endfacet
facet normal 0.0 0.0 -1.0
outer loop
vertex 18.0 -10.0 -3.5
vertex 12.5591109915469 -0.310582854123024 -3.49999999999999
vertex 12.6 2.20436423846524e-016 -3.49999999999999
endloop
endfacet
facet normal 0.0 0.0 -1.0
outer loop
vertex 18.0 -10.0 -3.5
vertex 12.6 2.20436423846524e-016 -3.49999999999999
vertex 18.0 10.0 -3.5
endloop
endfacet
facet normal 0.0 0.0 -1.0
outer loop
vertex -3.35 3.34999999999999 -1.0
vertex -1.29903810567666 0.749999999999996 -1.0
vertex -3.35 -3.35000000000001 -1.0
endloop
endfacet
facet normal 0.0 0.0 -1.0
outer loop
vertex -1.29903810567666 0.749999999999996 -1.0
vertex -3.35 3.34999999999999 -1.0
vertex -1.06066017177982 1.06066017177982 -1.0
endloop
endfacet
facet normal 0.0 0.0 -1.0
outer loop
vertex -1.06066017177982 1.06066017177982 -1.0
vertex -3.35 3.34999999999999 -1.0
vertex -0.749999999999998 1.29903810567665 -1.0
endloop
endfacet
facet normal 0.0 0.0 -1.0
outer loop
vertex -0.749999999999998 1.29903810567665 -1.0
vertex -3.35 3.34999999999999 -1.0
vertex 3.35 3.34999999999999 -1.0
endloop
endfacet
facet normal 0.0 0.0 -1.0
outer loop
vertex -3.35 -3.35000000000001 -1.0
vertex -1.29903810567666 0.749999999999996 -1.0
vertex -1.4488887394336 0.388228567653778 -1.0
endloop
endfacet
facet normal 0.0 0.0 -1.0
outer loop
vertex -3.35 -3.35000000000001 -1.0
vertex -1.4488887394336 0.388228567653778 -1.0
vertex -1.5 -4.34823949802532e-015 -1.0
endloop
endfacet
facet normal 0.0 0.0 -1.0
outer loop
vertex -0.749999999999998 1.29903810567665 -1.0
vertex 3.35 3.34999999999999 -1.0
vertex -0.388228567653779 1.4488887394336 -1.0
endloop
endfacet
facet normal 0.0 0.0 -1.0
outer loop
vertex -0.388228567653779 1.4488887394336 -1.0
vertex 3.35 3.34999999999999 -1.0
vertex 1.55029178177895e-015 1.49999999999999 -1.0
endloop
endfacet
facet normal 0.0 0.0 -1.0
outer loop
vertex 1.55029178177895e-015 1.49999999999999 -1.0
vertex 3.35 3.34999999999999 -1.0
vertex 0.388228567653784 1.4488887394336 -1.0
endloop
endfacet
facet normal 0.0 0.0 -1.0
outer loop
vertex 0.388228567653784 1.4488887394336 -1.0
vertex 3.35 3.34999999999999 -1.0
vertex 0.750000000000002 1.29903810567665 -1.0
endloop
endfacet
facet normal 0.0 0.0 -1.0
outer loop
vertex 0.750000000000002 1.29903810567665 -1.0
vertex 3.35 3.34999999999999 -1.0
vertex 1.06066017177982 1.06066017177981 -1.0
endloop
endfacet
facet normal 0.0 0.0 -1.0
outer loop
vertex 1.06066017177982 1.06066017177981 -1.0
vertex 3.35 3.34999999999999 -1.0
vertex 1.29903810567666 0.749999999999993 -1.0
endloop
endfacet
facet normal 0.0 0.0 -1.0
outer loop
vertex 1.29903810567666 0.749999999999993 -1.0
vertex 3.35 3.34999999999999 -1.0
vertex 1.4488887394336 0.388228567653774 -1.0
endloop
endfacet
facet normal 0.0 0.0 -1.0
outer loop
vertex 1.4488887394336 0.388228567653774 -1.0
vertex 3.35 3.34999999999999 -1.0
vertex 1.5 -7.08142902183901e-015 -1.0
endloop
endfacet
facet normal 0.0 0.0 -1.0
outer loop
vertex -3.35 -3.35000000000001 -1.0
vertex -0.750000000000001 -1.29903810567666 -1.0
vertex 3.35 -3.35000000000001 -1.0
endloop
endfacet
facet normal 0.0 0.0 -1.0
outer loop
vertex -0.750000000000001 -1.29903810567666 -1.0
vertex -3.35 -3.35000000000001 -1.0
vertex -1.06066017177982 -1.06066017177983 -1.0
endloop
endfacet
facet normal 0.0 0.0 -1.0
outer loop
vertex -1.06066017177982 -1.06066017177983 -1.0
vertex -3.35 -3.35000000000001 -1.0
vertex -1.29903810567666 -0.750000000000004 -1.0
endloop
endfacet
facet normal 0.0 0.0 -1.0
outer loop
vertex -1.29903810567666 -0.750000000000004 -1.0
vertex -3.35 -3.35000000000001 -1.0
vertex -1.4488887394336 -0.388228567653785 -1.0
endloop
endfacet
facet normal 0.0 0.0 -1.0
outer loop
vertex -1.4488887394336 -0.388228567653785 -1.0
vertex -3.35 -3.35000000000001 -1.0
vertex -1.5 -4.34823949802532e-015 -1.0
endloop
endfacet
facet normal 0.0 0.0 -1.0
outer loop
vertex 3.35 -3.35000000000001 -1.0
vertex -0.750000000000001 -1.29903810567666 -1.0
vertex -0.388228567653783 -1.44888873943361 -1.0
endloop
endfacet
facet normal 0.0 0.0 -1.0
outer loop
vertex 3.35 -3.35000000000001 -1.0
vertex -0.388228567653783 -1.44888873943361 -1.0
vertex -1.36659476190685e-015 -1.50000000000001 -1.0
endloop
endfacet
facet normal 0.0 0.0 -1.0
outer loop
vertex 3.35 -3.35000000000001 -1.0
vertex -1.36659476190685e-015 -1.50000000000001 -1.0
vertex 0.38822856765378 -1.44888873943361 -1.0
endloop
endfacet
facet normal 0.0 0.0 -1.0
outer loop
vertex 3.35 -3.35000000000001 -1.0
vertex 0.38822856765378 -1.44888873943361 -1.0
vertex 0.749999999999998 -1.29903810567666 -1.0
endloop
endfacet
facet normal 0.0 0.0 -1.0
outer loop
vertex 3.35 -3.35000000000001 -1.0
vertex 0.749999999999998 -1.29903810567666 -1.0
vertex 1.06066017177982 -1.06066017177983 -1.0
endloop
endfacet
facet normal 0.0 0.0 -1.0
outer loop
vertex 3.35 -3.35000000000001 -1.0
vertex 1.06066017177982 -1.06066017177983 -1.0
vertex 1.29903810567666 -0.750000000000007 -1.0
endloop
endfacet
facet normal 0.0 0.0 -1.0
outer loop
vertex 3.35 -3.35000000000001 -1.0
vertex 1.29903810567666 -0.750000000000007 -1.0
vertex 1.4488887394336 -0.388228567653788 -1.0
endloop
endfacet
facet normal 0.0 0.0 -1.0
outer loop
vertex 3.35 -3.35000000000001 -1.0
vertex 1.4488887394336 -0.388228567653788 -1.0
vertex 1.5 -7.08142902183901e-015 -1.0
endloop
endfacet
facet normal 0.0 0.0 -1.0
outer loop
vertex 3.35 -3.35000000000001 -1.0
vertex 1.5 -7.08142902183901e-015 -1.0
vertex 3.35 3.34999999999999 -1.0
endloop
endfacet
facet normal 0.0 1.0 0.0
outer loop
vertex -3.35 -3.35000000000001 -1.0
vertex 3.35 -3.35000000000001 -3.5
vertex -3.35 -3.35000000000001 -3.5
endloop
endfacet
facet normal 0.0 1.0 0.0
outer loop
vertex 3.35 -3.35000000000001 -3.5
vertex -3.35 -3.35000000000001 -1.0
vertex 3.35 -3.35000000000001 -1.0
endloop
endfacet
facet normal 1.0 -0.0 -0.0
outer loop
vertex -3.35 3.34999999999999 -3.5
vertex -3.35 -3.35000000000001 -1.0
vertex -3.35 -3.35000000000001 -3.5
endloop
endfacet
facet normal 1.0 -0.0 -0.0
outer loop
vertex -3.35 -3.35000000000001 -1.0
vertex -3.35 3.34999999999999 -3.5
vertex -3.35 3.34999999999999 -1.0
endloop
endfacet
facet normal 0.0 -1.0 -0.0
outer loop
vertex 3.35 3.34999999999999 -1.0
vertex -3.35 3.34999999999999 -3.5
vertex 3.35 3.34999999999999 -3.5
endloop
endfacet
facet normal 0.0 -1.0 -0.0
outer loop
vertex -3.35 3.34999999999999 -3.5
vertex 3.35 3.34999999999999 -1.0
vertex -3.35 3.34999999999999 -1.0
endloop
endfacet
facet normal -1.0 -0.0 -0.0
outer loop
vertex 3.35 3.34999999999999 -1.0
vertex 3.35 -3.35000000000001 -3.5
vertex 3.35 -3.35000000000001 -1.0
endloop
endfacet
facet normal -1.0 -0.0 -0.0
outer loop
vertex 3.35 -3.35000000000001 -3.5
vertex 3.35 3.34999999999999 -1.0
vertex 3.35 3.34999999999999 -3.5
endloop
endfacet
facet normal -0.0 -0.0 1.0
outer loop
vertex -16.0 -10.0 0.0
vertex -12.5591109915469 -0.310582854123025 0.0
vertex -16.0 10.0 0.0
endloop
endfacet
facet normal -0.0 -0.0 1.0
outer loop
vertex -12.5591109915469 -0.310582854123025 0.0
vertex -16.0 -10.0 0.0
vertex -12.4392304845413 -0.6 0.0
endloop
endfacet
facet normal -0.0 -0.0 1.0
outer loop
vertex -12.4392304845413 -0.6 0.0
vertex -16.0 -10.0 0.0
vertex -12.2485281374239 -0.848528137423856 0.0
endloop
endfacet
facet normal -0.0 -0.0 1.0
outer loop
vertex -12.2485281374239 -0.848528137423856 0.0
vertex -16.0 -10.0 0.0
vertex -12.0 -1.03923048454133 0.0
endloop
endfacet
facet normal -0.0 -0.0 1.0
outer loop
vertex -12.0 -1.03923048454133 0.0
vertex -16.0 -10.0 0.0
vertex -3.4 -5.88897274573418 0.0
endloop
endfacet
facet normal -0.0 -0.0 1.0
outer loop
vertex -3.4 -5.88897274573418 0.0
vertex -16.0 -10.0 0.0
vertex -1.75996950669715 -6.56829561876566 0.0
endloop
endfacet
facet normal -0.0 -0.0 1.0
outer loop
vertex -1.75996950669715 -6.56829561876566 0.0
vertex -16.0 -10.0 0.0
vertex 16.0 -10.0 0.0
endloop
endfacet
facet normal -0.0 -0.0 1.0
outer loop
vertex -16.0 10.0 0.0
vertex -12.5591109915469 -0.310582854123025 0.0
vertex -12.6 3.42901103761259e-016 0.0
endloop
endfacet
facet normal -0.0 -0.0 1.0
outer loop
vertex -12.0 -1.03923048454133 0.0
vertex -3.4 -5.88897274573418 0.0
vertex -11.710582854123 -1.15911099154688 0.0
endloop
endfacet
facet normal -0.0 -0.0 1.0
outer loop
vertex -11.710582854123 -1.15911099154688 0.0
vertex -3.4 -5.88897274573418 0.0
vertex -11.4 -1.2 0.0
endloop
endfacet
facet normal -0.0 -0.0 1.0
outer loop
vertex -11.4 -1.2 0.0
vertex -3.4 -5.88897274573418 0.0
vertex -11.089417145877 -1.15911099154688 0.0
endloop
endfacet
facet normal -0.0 -0.0 1.0
outer loop
vertex -11.089417145877 -1.15911099154688 0.0
vertex -3.4 -5.88897274573418 0.0
vertex -10.8 -1.03923048454133 0.0
endloop
endfacet
facet normal -0.0 -0.0 1.0
outer loop
vertex -10.8 -1.03923048454133 0.0
vertex -3.4 -5.88897274573418 0.0
vertex -10.5514718625761 -0.848528137423856 0.0
endloop
endfacet
facet normal -0.0 -0.0 1.0
outer loop
vertex -10.5514718625761 -0.848528137423856 0.0
vertex -3.4 -5.88897274573418 0.0
vertex -10.3607695154587 -0.599999999999999 0.0
endloop
endfacet
facet normal -0.0 -0.0 1.0
outer loop
vertex -10.3607695154587 -0.599999999999999 0.0
vertex -3.4 -5.88897274573418 0.0
vertex -4.80832611206853 -4.80832611206852 0.0
endloop
endfacet
facet normal -0.0 -0.0 1.0
outer loop
vertex -10.3607695154587 -0.599999999999999 0.0
vertex -4.80832611206853 -4.80832611206852 0.0
vertex -10.2408890084531 -0.310582854123024 0.0
endloop
endfacet
facet normal -0.0 -0.0 1.0
outer loop
vertex -10.2408890084531 -0.310582854123024 0.0
vertex -4.80832611206853 -4.80832611206852 0.0
vertex -10.2 6.36816335556624e-016 0.0
endloop
endfacet
facet normal -0.0 -0.0 1.0
outer loop
vertex -10.2 6.36816335556624e-016 0.0
vertex -4.80832611206853 -4.80832611206852 0.0
vertex -5.88897274573418 -3.4 0.0
endloop
endfacet
facet normal -0.0 -0.0 1.0
outer loop
vertex -10.2 6.36816335556624e-016 0.0
vertex -5.88897274573418 -3.4 0.0
vertex -6.56829561876566 -1.75996950669714 0.0
endloop
endfacet
facet normal -0.0 -0.0 1.0
outer loop
vertex -10.2 6.36816335556624e-016 0.0
vertex -6.56829561876566 -1.75996950669714 0.0
vertex -6.8 8.327598234202e-016 0.0
endloop
endfacet
facet normal -0.0 -0.0 1.0
outer loop
vertex -1.75996950669715 -6.56829561876566 0.0
vertex 16.0 -10.0 0.0
vertex -1.2491397351303e-015 -6.8 0.0
endloop
endfacet
facet normal -0.0 -0.0 1.0
outer loop
vertex -1.2491397351303e-015 -6.8 0.0
vertex 16.0 -10.0 0.0
vertex 1.75996950669714 -6.56829561876566 0.0
endloop
endfacet
facet normal -0.0 -0.0 1.0
outer loop
vertex 1.75996950669714 -6.56829561876566 0.0
vertex 16.0 -10.0 0.0
vertex 3.4 -5.88897274573419 0.0
endloop
endfacet
facet normal -0.0 -0.0 1.0
outer loop
vertex 3.4 -5.88897274573419 0.0
vertex 16.0 -10.0 0.0
vertex 4.80832611206852 -4.80832611206852 0.0
endloop
endfacet
facet normal -0.0 -0.0 1.0
outer loop
vertex 4.80832611206852 -4.80832611206852 0.0
vertex 16.0 -10.0 0.0
vertex 5.88897274573418 -3.4 0.0
endloop
endfacet
facet normal -0.0 -0.0 1.0
outer loop
vertex 5.88897274573418 -3.4 0.0
vertex 16.0 -10.0 0.0
vertex 6.56829561876566 -1.75996950669715 0.0
endloop
endfacet
facet normal -0.0 -0.0 1.0
outer loop
vertex 6.56829561876566 -1.75996950669715 0.0
vertex 16.0 -10.0 0.0
vertex 6.8 0.0 0.0
endloop
endfacet
facet normal -0.0 -0.0 1.0
outer loop
vertex 6.8 0.0 0.0
vertex 16.0 -10.0 0.0
vertex 10.3607695154587 -0.6 0.0
endloop
endfacet
facet normal -0.0 -0.0 1.0
outer loop
vertex 6.8 0.0 0.0
vertex 10.3607695154587 -0.6 0.0
vertex 10.2408890084531 -0.310582854123025 0.0
endloop
endfacet
facet normal -0.0 -0.0 1.0
outer loop
vertex 6.8 0.0 0.0
vertex 10.2408890084531 -0.310582854123025 0.0
vertex 10.2 -7.34788079488412e-017 0.0
endloop
endfacet
facet normal -0.0 -0.0 1.0
outer loop
vertex 10.3607695154587 -0.6 0.0
vertex 16.0 -10.0 0.0
vertex 10.5514718625761 -0.848528137423857 0.0
endloop
endfacet
facet normal -0.0 -0.0 1.0
outer loop
vertex 10.5514718625761 -0.848528137423857 0.0
vertex 16.0 -10.0 0.0
vertex 10.8 -1.03923048454133 0.0
endloop
endfacet
facet normal -0.0 -0.0 1.0
outer loop
vertex 10.8 -1.03923048454133 0.0
vertex 16.0 -10.0 0.0
vertex 11.089417145877 -1.15911099154688 0.0
endloop
endfacet
facet normal -0.0 -0.0 1.0
outer loop
vertex 11.089417145877 -1.15911099154688 0.0
vertex 16.0 -10.0 0.0
vertex 11.4 -1.2 0.0
endloop
endfacet
facet normal -0.0 -0.0 1.0
outer loop
vertex 11.4 -1.2 0.0
vertex 16.0 -10.0 0.0
vertex 11.710582854123 -1.15911099154688 0.0
endloop
endfacet
facet normal -0.0 -0.0 1.0
outer loop
vertex 11.710582854123 -1.15911099154688 0.0
vertex 16.0 -10.0 0.0
vertex 12.0 -1.03923048454133 0.0
endloop
endfacet
facet normal -0.0 -0.0 1.0
outer loop
vertex 12.0 -1.03923048454133 0.0
vertex 16.0 -10.0 0.0
vertex 12.2485281374239 -0.848528137423857 0.0
endloop
endfacet
facet normal -0.0 -0.0 1.0
outer loop
vertex 12.2485281374239 -0.848528137423857 0.0
vertex 16.0 -10.0 0.0
vertex 12.4392304845413 -0.599999999999999 0.0
endloop
endfacet
facet normal -0.0 -0.0 1.0
outer loop
vertex 12.4392304845413 -0.599999999999999 0.0
vertex 16.0 -10.0 0.0
vertex 12.5591109915469 -0.310582854123024 0.0
endloop
endfacet
facet normal -0.0 -0.0 1.0
outer loop
vertex 12.5591109915469 -0.310582854123024 0.0
vertex 16.0 -10.0 0.0
vertex 12.6 2.20436423846524e-016 0.0
endloop
endfacet
facet normal -0.0 -0.0 1.0
outer loop
vertex -16.0 10.0 0.0
vertex -1.75996950669714 6.56829561876566 0.0
vertex 16.0 10.0 0.0
endloop
endfacet
facet normal -0.0 -0.0 1.0
outer loop
vertex -1.75996950669714 6.56829561876566 0.0
vertex -16.0 10.0 0.0
vertex -3.4 5.88897274573418 0.0
endloop
endfacet
facet normal -0.0 -0.0 1.0
outer loop
vertex -3.4 5.88897274573418 0.0
vertex -16.0 10.0 0.0
vertex -12.0 1.03923048454133 0.0
endloop
endfacet
facet normal -0.0 -0.0 1.0
outer loop
vertex -12.0 1.03923048454133 0.0
vertex -16.0 10.0 0.0
vertex -12.2485281374239 0.848528137423857 0.0
endloop
endfacet
facet normal -0.0 -0.0 1.0
outer loop
vertex -12.2485281374239 0.848528137423857 0.0
vertex -16.0 10.0 0.0
vertex -12.4392304845413 0.6 0.0
endloop
endfacet
facet normal -0.0 -0.0 1.0
outer loop
vertex -12.4392304845413 0.6 0.0
vertex -16.0 10.0 0.0
vertex -12.5591109915469 0.310582854123025 0.0
endloop
endfacet
facet normal -0.0 -0.0 1.0
outer loop
vertex -12.5591109915469 0.310582854123025 0.0
vertex -16.0 10.0 0.0
vertex -12.6 3.42901103761259e-016 0.0
endloop
endfacet
facet normal -0.0 -0.0 1.0
outer loop
vertex -3.4 5.88897274573418 0.0
vertex -12.0 1.03923048454133 0.0
vertex -11.710582854123 1.15911099154688 0.0
endloop
endfacet
facet normal -0.0 -0.0 1.0
outer loop
vertex -3.4 5.88897274573418 0.0
vertex -11.710582854123 1.15911099154688 0.0
vertex -11.4 1.2 0.0
endloop
endfacet
facet normal -0.0 -0.0 1.0
outer loop
vertex -3.4 5.88897274573418 0.0
vertex -11.4 1.2 0.0
vertex -11.089417145877 1.15911099154688 0.0
endloop
endfacet
facet normal -0.0 -0.0 1.0
outer loop
vertex -3.4 5.88897274573418 0.0
vertex -11.089417145877 1.15911099154688 0.0
vertex -10.8 1.03923048454133 0.0
endloop
endfacet
facet normal -0.0 -0.0 1.0
outer loop
vertex -3.4 5.88897274573418 0.0
vertex -10.8 1.03923048454133 0.0
vertex -10.5514718625761 0.848528137423858 0.0
endloop
endfacet
facet normal -0.0 -0.0 1.0
outer loop
vertex -3.4 5.88897274573418 0.0
vertex -10.5514718625761 0.848528137423858 0.0
vertex -10.3607695154587 0.600000000000001 0.0
endloop
endfacet
facet normal -0.0 -0.0 1.0
outer loop
vertex -3.4 5.88897274573418 0.0
vertex -10.3607695154587 0.600000000000001 0.0
vertex -4.80832611206852 4.80832611206852 0.0
endloop
endfacet
facet normal -0.0 -0.0 1.0
outer loop
vertex -4.80832611206852 4.80832611206852 0.0
vertex -10.3607695154587 0.600000000000001 0.0
vertex -10.2408890084531 0.310582854123026 0.0
endloop
endfacet
facet normal -0.0 -0.0 1.0
outer loop
vertex -4.80832611206852 4.80832611206852 0.0
vertex -10.2408890084531 0.310582854123026 0.0
vertex -10.2 6.36816335556624e-016 0.0
endloop
endfacet
facet normal -0.0 -0.0 1.0
outer loop
vertex -4.80832611206852 4.80832611206852 0.0
vertex -10.2 6.36816335556624e-016 0.0
vertex -5.88897274573418 3.4 0.0
endloop
endfacet
facet normal -0.0 -0.0 1.0
outer loop
vertex -5.88897274573418 3.4 0.0
vertex -10.2 6.36816335556624e-016 0.0
vertex -6.56829561876566 1.75996950669714 0.0
endloop
endfacet
facet normal -0.0 -0.0 1.0
outer loop
vertex -6.56829561876566 1.75996950669714 0.0
vertex -10.2 6.36816335556624e-016 0.0
vertex -6.8 8.327598234202e-016 0.0
endloop
endfacet
facet normal -0.0 -0.0 1.0
outer loop
vertex 16.0 10.0 0.0
vertex -1.75996950669714 6.56829561876566 0.0
vertex 4.163799117101e-016 6.8 0.0
endloop
endfacet
facet normal -0.0 -0.0 1.0
outer loop
vertex 16.0 10.0 0.0
vertex 4.163799117101e-016 6.8 0.0
vertex 1.75996950669714 6.56829561876566 0.0
endloop
endfacet
facet normal -0.0 -0.0 1.0
outer loop
vertex 16.0 10.0 0.0
vertex 1.75996950669714 6.56829561876566 0.0
vertex 3.4 5.88897274573418 0.0
endloop
endfacet
facet normal -0.0 -0.0 1.0
outer loop
vertex 16.0 10.0 0.0
vertex 3.4 5.88897274573418 0.0
vertex 4.80832611206852 4.80832611206852 0.0
endloop
endfacet
facet normal -0.0 -0.0 1.0
outer loop
vertex 16.0 10.0 0.0
vertex 4.80832611206852 4.80832611206852 0.0
vertex 5.88897274573418 3.4 0.0
endloop
endfacet
facet normal -0.0 -0.0 1.0
outer loop
vertex 16.0 10.0 0.0
vertex 5.88897274573418 3.4 0.0
vertex 6.56829561876566 1.75996950669714 0.0
endloop
endfacet
facet normal -0.0 -0.0 1.0
outer loop
vertex 16.0 10.0 0.0
vertex 6.56829561876566 1.75996950669714 0.0
vertex 6.8 0.0 0.0
endloop
endfacet
facet normal -0.0 -0.0 1.0
outer loop
vertex 16.0 10.0 0.0
vertex 6.8 0.0 0.0
vertex 10.3607695154587 0.6 0.0
endloop
endfacet
facet normal -0.0 -0.0 1.0
outer loop
vertex 10.3607695154587 0.6 0.0
vertex 6.8 0.0 0.0
vertex 10.2408890084531 0.310582854123025 0.0
endloop
endfacet
facet normal -0.0 -0.0 1.0
outer loop
vertex 10.2408890084531 0.310582854123025 0.0
vertex 6.8 0.0 0.0
vertex 10.2 -7.34788079488412e-017 0.0
endloop
endfacet
facet normal -0.0 -0.0 1.0
outer loop
vertex 16.0 10.0 0.0
vertex 10.3607695154587 0.6 0.0
vertex 10.5514718625761 0.848528137423857 0.0
endloop
endfacet
facet normal -0.0 -0.0 1.0
outer loop
vertex 16.0 10.0 0.0
vertex 10.5514718625761 0.848528137423857 0.0
vertex 10.8 1.03923048454133 0.0
endloop
endfacet
facet normal -0.0 -0.0 1.0
outer loop
vertex 16.0 10.0 0.0
vertex 10.8 1.03923048454133 0.0
vertex 11.089417145877 1.15911099154688 0.0
endloop
endfacet
facet normal -0.0 -0.0 1.0
outer loop
vertex 16.0 10.0 0.0
vertex 11.089417145877 1.15911099154688 0.0
vertex 11.4 1.2 0.0
endloop
endfacet
facet normal -0.0 -0.0 1.0
outer loop
vertex 16.0 10.0 0.0
vertex 11.4 1.2 0.0
vertex 11.710582854123 1.15911099154688 0.0
endloop
endfacet
facet normal -0.0 -0.0 1.0
outer loop
vertex 16.0 10.0 0.0
vertex 11.710582854123 1.15911099154688 0.0
vertex 12.0 1.03923048454133 0.0
endloop
endfacet
facet normal -0.0 -0.0 1.0
outer loop
vertex 16.0 10.0 0.0
vertex 12.0 1.03923048454133 0.0
vertex 12.2485281374239 0.848528137423857 0.0
endloop
endfacet
facet normal -0.0 -0.0 1.0
outer loop
vertex 16.0 10.0 0.0
vertex 12.2485281374239 0.848528137423857 0.0
vertex 12.4392304845413 0.600000000000001 0.0
endloop
endfacet
facet normal -0.0 -0.0 1.0
outer loop
vertex 16.0 10.0 0.0
vertex 12.4392304845413 0.600000000000001 0.0
vertex 12.5591109915469 0.310582854123026 0.0
endloop
endfacet
facet normal -0.0 -0.0 1.0
outer loop
vertex 16.0 10.0 0.0
vertex 12.5591109915469 0.310582854123026 0.0
vertex 12.6 2.20436423846524e-016 0.0
endloop
endfacet
facet normal -0.0 -0.0 1.0
outer loop
vertex 16.0 10.0 0.0
vertex 12.6 2.20436423846524e-016 0.0
vertex 16.0 -10.0 0.0
endloop
endfacet
facet normal 0.500000000000001 -0.866025403784438 0.0
outer loop
vertex -12.0 1.03923048454133 0.0
vertex -12.2485281374239 0.848528137423857 -3.5
vertex -12.0 1.03923048454133 -3.5
endloop
endfacet
facet normal 0.707106781186548 -0.707106781186547 0.0
outer loop
vertex -12.2485281374239 0.848528137423857 -3.5
vertex -12.0 1.03923048454133 0.0
vertex -12.2485281374239 0.848528137423857 0.0
endloop
endfacet
facet normal 0.707106781186548 -0.707106781186547 0.0
outer loop
vertex -12.2485281374239 0.848528137423857 -3.5
vertex -12.4392304845413 0.6 0.0
vertex -12.4392304845413 0.6 -3.5
endloop
endfacet
facet normal 0.866025403784438 -0.500000000000001 0.0
outer loop
vertex -12.4392304845413 0.6 0.0
vertex -12.2485281374239 0.848528137423857 -3.5
vertex -12.2485281374239 0.848528137423857 0.0
endloop
endfacet
facet normal 0.866025403784438 -0.500000000000001 0.0
outer loop
vertex -12.4392304845413 0.6 -3.5
vertex -12.5591109915469 0.310582854123025 0.0
vertex -12.5591109915469 0.310582854123025 -3.5
endloop
endfacet
facet normal 0.965925826289068 -0.258819045102522 0.0
outer loop
vertex -12.5591109915469 0.310582854123025 0.0
vertex -12.4392304845413 0.6 -3.5
vertex -12.4392304845413 0.6 0.0
endloop
endfacet
facet normal 0.965925826289068 -0.258819045102522 0.0
outer loop
vertex -12.5591109915469 0.310582854123025 -3.5
vertex -12.6 3.42901103761259e-016 0.0
vertex -12.6 3.42901103761259e-016 -3.5
endloop
endfacet
facet normal 1.0 -6.23777692695283e-017 0.0
outer loop
vertex -12.6 3.42901103761259e-016 0.0
vertex -12.5591109915469 0.310582854123025 -3.5
vertex -12.5591109915469 0.310582854123025 0.0
endloop
endfacet
facet normal 1.0 -6.23777692695283e-017 0.0
outer loop
vertex -12.6 3.42901103761259e-016 -3.5
vertex -12.5591109915469 -0.310582854123025 0.0
vertex -12.5591109915469 -0.310582854123025 -3.5
endloop
endfacet
facet normal 0.965925826289068 0.258819045102522 0.0
outer loop
vertex -12.5591109915469 -0.310582854123025 0.0
vertex -12.6 3.42901103761259e-016 -3.5
vertex -12.6 3.42901103761259e-016 0.0
endloop
endfacet
facet normal 0.965925826289068 0.258819045102522 0.0
outer loop
vertex -12.5591109915469 -0.310582854123025 -3.5
vertex -12.4392304845413 -0.6 0.0
vertex -12.4392304845413 -0.6 -3.5
endloop
endfacet
facet normal 0.866025403784438 0.500000000000001 0.0
outer loop
vertex -12.4392304845413 -0.6 0.0
vertex -12.5591109915469 -0.310582854123025 -3.5
vertex -12.5591109915469 -0.310582854123025 0.0
endloop
endfacet
facet normal 0.866025403784438 0.500000000000001 0.0
outer loop
vertex -12.4392304845413 -0.6 -3.5
vertex -12.2485281374239 -0.848528137423856 0.0
vertex -12.2485281374239 -0.848528137423856 -3.5
endloop
endfacet
facet normal 0.707106781186548 0.707106781186547 0.0
outer loop
vertex -12.2485281374239 -0.848528137423856 0.0
vertex -12.4392304845413 -0.6 -3.5
vertex -12.4392304845413 -0.6 0.0
endloop
endfacet
facet normal 0.707106781186548 0.707106781186547 0.0
outer loop
vertex -12.2485281374239 -0.848528137423856 0.0
vertex -12.0 -1.03923048454133 -3.5
vertex -12.2485281374239 -0.848528137423856 -3.5
endloop
endfacet
facet normal 0.500000000000001 0.866025403784438 0.0
outer loop
vertex -12.0 -1.03923048454133 -3.5
vertex -12.2485281374239 -0.848528137423856 0.0
vertex -12.0 -1.03923048454133 0.0
endloop
endfacet
facet normal 0.500000000000001 0.866025403784438 0.0
outer loop
vertex -12.0 -1.03923048454133 0.0
vertex -11.710582854123 -1.15911099154688 -3.5
vertex -12.0 -1.03923048454133 -3.5
endloop
endfacet
facet normal 0.258819045102521 0.965925826289068 0.0
outer loop
vertex -11.710582854123 -1.15911099154688 -3.5
vertex -12.0 -1.03923048454133 0.0
vertex -11.710582854123 -1.15911099154688 0.0
endloop
endfacet
facet normal 0.258819045102521 0.965925826289068 0.0
outer loop
vertex -11.710582854123 -1.15911099154688 0.0
vertex -11.4 -1.2 -3.5
vertex -11.710582854123 -1.15911099154688 -3.5
endloop
endfacet
facet normal -5.61399923425755e-016 1.0 0.0
outer loop
vertex -11.4 -1.2 -3.5
vertex -11.710582854123 -1.15911099154688 0.0
vertex -11.4 -1.2 0.0
endloop
endfacet
facet normal -5.61399923425755e-016 1.0 0.0
outer loop
vertex -11.4 -1.2 0.0
vertex -11.089417145877 -1.15911099154688 -3.5
vertex -11.4 -1.2 -3.5
endloop
endfacet
facet normal -0.258819045102521 0.965925826289068 0.0
outer loop
vertex -11.089417145877 -1.15911099154688 -3.5
vertex -11.4 -1.2 0.0
vertex -11.089417145877 -1.15911099154688 0.0
endloop
endfacet
facet normal -0.258819045102521 0.965925826289068 0.0
outer loop
vertex -11.089417145877 -1.15911099154688 0.0
vertex -10.8 -1.03923048454133 -3.5
vertex -11.089417145877 -1.15911099154688 -3.5
endloop
endfacet
facet normal -0.500000000000001 0.866025403784438 0.0
outer loop
vertex -10.8 -1.03923048454133 -3.5
vertex -11.089417145877 -1.15911099154688 0.0
vertex -10.8 -1.03923048454133 0.0
endloop
endfacet
facet normal -0.500000000000001 0.866025403784438 0.0
outer loop
vertex -10.8 -1.03923048454133 0.0
vertex -10.5514718625761 -0.848528137423856 -3.5
vertex -10.8 -1.03923048454133 -3.5
endloop
endfacet
facet normal -0.707106781186547 0.707106781186548 0.0
outer loop
vertex -10.5514718625761 -0.848528137423856 -3.5
vertex -10.8 -1.03923048454133 0.0
vertex -10.5514718625761 -0.848528137423856 0.0
endloop
endfacet
facet normal -0.866025403784439 0.5 0.0
outer loop
vertex -10.3607695154587 -0.599999999999999 0.0
vertex -10.5514718625761 -0.848528137423856 -3.5
vertex -10.5514718625761 -0.848528137423856 0.0
endloop
endfacet
facet normal -0.707106781186547 0.707106781186548 0.0
outer loop
vertex -10.5514718625761 -0.848528137423856 -3.5
vertex -10.3607695154587 -0.599999999999999 0.0
vertex -10.3607695154587 -0.599999999999999 -3.5
endloop
endfacet
facet normal -0.965925826289068 0.25881904510252 0.0
outer loop
vertex -10.2408890084531 -0.310582854123024 0.0
vertex -10.3607695154587 -0.599999999999999 -3.5
vertex -10.3607695154587 -0.599999999999999 0.0
endloop
endfacet
facet normal -0.866025403784439 0.5 0.0
outer loop
vertex -10.3607695154587 -0.599999999999999 -3.5
vertex -10.2408890084531 -0.310582854123024 0.0
vertex -10.2408890084531 -0.310582854123024 -3.5
endloop
endfacet
facet normal -1.0 2.22777747391173e-016 0.0
outer loop
vertex -10.2 6.36816335556624e-016 0.0
vertex -10.2408890084531 -0.310582854123024 -3.5
vertex -10.2408890084531 -0.310582854123024 0.0
endloop
endfacet
facet normal -0.965925826289068 0.25881904510252 0.0
outer loop
vertex -10.2408890084531 -0.310582854123024 -3.5
vertex -10.2 6.36816335556624e-016 0.0
vertex -10.2 6.36816335556624e-016 -3.5
endloop
endfacet
facet normal -0.965925826289068 -0.258819045102522 0.0
outer loop
vertex -10.2408890084531 0.310582854123026 0.0
vertex -10.2 6.36816335556624e-016 -3.5
vertex -10.2 6.36816335556624e-016 0.0
endloop
endfacet
facet normal -1.0 2.22777747391173e-016 0.0
outer loop
vertex -10.2 6.36816335556624e-016 -3.5
vertex -10.2408890084531 0.310582854123026 0.0
vertex -10.2408890084531 0.310582854123026 -3.5
endloop
endfacet
facet normal -0.866025403784438 -0.500000000000001 0.0
outer loop
vertex -10.3607695154587 0.600000000000001 0.0
vertex -10.2408890084531 0.310582854123026 -3.5
vertex -10.2408890084531 0.310582854123026 0.0
endloop
endfacet
facet normal -0.965925826289068 -0.258819045102522 0.0
outer loop
vertex -10.2408890084531 0.310582854123026 -3.5
vertex -10.3607695154587 0.600000000000001 0.0
vertex -10.3607695154587 0.600000000000001 -3.5
endloop
endfacet
facet normal -0.707106781186547 -0.707106781186549 0.0
outer loop
vertex -10.5514718625761 0.848528137423858 0.0
vertex -10.3607695154587 0.600000000000001 -3.5
vertex -10.3607695154587 0.600000000000001 0.0
endloop
endfacet
facet normal -0.866025403784438 -0.500000000000001 0.0
outer loop
vertex -10.3607695154587 0.600000000000001 -3.5
vertex -10.5514718625761 0.848528137423858 0.0
vertex -10.5514718625761 0.848528137423858 -3.5
endloop
endfacet
facet normal -0.707106781186547 -0.707106781186549 0.0
outer loop
vertex -10.5514718625761 0.848528137423858 0.0
vertex -10.8 1.03923048454133 -3.5
vertex -10.5514718625761 0.848528137423858 -3.5
endloop
endfacet
facet normal -0.499999999999999 -0.866025403784439 0.0
outer loop
vertex -10.8 1.03923048454133 -3.5
vertex -10.5514718625761 0.848528137423858 0.0
vertex -10.8 1.03923048454133 0.0
endloop
endfacet
facet normal -0.499999999999999 -0.866025403784439 0.0
outer loop
vertex -10.8 1.03923048454133 0.0
vertex -11.089417145877 1.15911099154688 -3.5
vertex -10.8 1.03923048454133 -3.5
endloop
endfacet
facet normal -0.258819045102521 -0.965925826289068 0.0
outer loop
vertex -11.089417145877 1.15911099154688 -3.5
vertex -10.8 1.03923048454133 0.0
vertex -11.089417145877 1.15911099154688 0.0
endloop
endfacet
facet normal -0.258819045102521 -0.965925826289068 0.0
outer loop
vertex -11.089417145877 1.15911099154688 0.0
vertex -11.4 1.2 -3.5
vertex -11.089417145877 1.15911099154688 -3.5
endloop
endfacet
facet normal 0.0 -1.0 0.0
outer loop
vertex -11.4 1.2 -3.5
vertex -11.089417145877 1.15911099154688 0.0
vertex -11.4 1.2 0.0
endloop
endfacet
facet normal 0.0 -1.0 0.0
outer loop
vertex -11.4 1.2 0.0
vertex -11.710582854123 1.15911099154688 -3.5
vertex -11.4 1.2 -3.5
endloop
endfacet
facet normal 0.258819045102521 -0.965925826289068 0.0
outer loop
vertex -11.710582854123 1.15911099154688 -3.5
vertex -11.4 1.2 0.0
vertex -11.710582854123 1.15911099154688 0.0
endloop
endfacet
facet normal 0.258819045102521 -0.965925826289068 0.0
outer loop
vertex -11.710582854123 1.15911099154688 0.0
vertex -12.0 1.03923048454133 -3.5
vertex -11.710582854123 1.15911099154688 -3.5
endloop
endfacet
facet normal 0.500000000000001 -0.866025403784438 0.0
outer loop
vertex -12.0 1.03923048454133 -3.5
vertex -11.710582854123 1.15911099154688 0.0
vertex -12.0 1.03923048454133 0.0
endloop
endfacet
facet normal 0.866025403784438 0.500000000000001 0.0
outer loop
vertex 10.3607695154587 -0.6 -3.49999999999999
vertex 10.5514718625761 -0.848528137423857 0.0
vertex 10.5514718625761 -0.848528137423857 -3.49999999999999
endloop
endfacet
facet normal 0.707106781186548 0.707106781186547 0.0
outer loop
vertex 10.5514718625761 -0.848528137423857 0.0
vertex 10.3607695154587 -0.6 -3.49999999999999
vertex 10.3607695154587 -0.6 0.0
endloop
endfacet
facet normal 0.707106781186548 0.707106781186547 0.0
outer loop
vertex 10.5514718625761 -0.848528137423857 0.0
vertex 10.8 -1.03923048454133 -3.49999999999999
vertex 10.5514718625761 -0.848528137423857 -3.49999999999999
endloop
endfacet
facet normal 0.500000000000001 0.866025403784438 0.0
outer loop
vertex 10.8 -1.03923048454133 -3.49999999999999
vertex 10.5514718625761 -0.848528137423857 0.0
vertex 10.8 -1.03923048454133 0.0
endloop
endfacet
facet normal 0.500000000000001 0.866025403784438 0.0
outer loop
vertex 10.8 -1.03923048454133 0.0
vertex 11.089417145877 -1.15911099154688 -3.49999999999999
vertex 10.8 -1.03923048454133 -3.49999999999999
endloop
endfacet
facet normal 0.258819045102521 0.965925826289068 0.0
outer loop
vertex 11.089417145877 -1.15911099154688 -3.49999999999999
vertex 10.8 -1.03923048454133 0.0
vertex 11.089417145877 -1.15911099154688 0.0
endloop
endfacet
facet normal 0.258819045102521 0.965925826289068 0.0
outer loop
vertex 11.089417145877 -1.15911099154688 0.0
vertex 11.4 -1.2 -3.49999999999999
vertex 11.089417145877 -1.15911099154688 -3.49999999999999
endloop
endfacet
facet normal -5.61399923425755e-016 1.0 0.0
outer loop
vertex 11.4 -1.2 -3.49999999999999
vertex 11.089417145877 -1.15911099154688 0.0
vertex 11.4 -1.2 0.0
endloop
endfacet
facet normal -5.61399923425755e-016 1.0 0.0
outer loop
vertex 11.4 -1.2 0.0
vertex 11.710582854123 -1.15911099154688 -3.49999999999999
vertex 11.4 -1.2 -3.49999999999999
endloop
endfacet
facet normal -0.258819045102521 0.965925826289068 0.0
outer loop
vertex 11.710582854123 -1.15911099154688 -3.49999999999999
vertex 11.4 -1.2 0.0
vertex 11.710582854123 -1.15911099154688 0.0
endloop
endfacet
facet normal -0.258819045102521 0.965925826289068 0.0
outer loop
vertex 11.710582854123 -1.15911099154688 0.0
vertex 12.0 -1.03923048454133 -3.49999999999999
vertex 11.710582854123 -1.15911099154688 -3.49999999999999
endloop
endfacet
facet normal -0.500000000000001 0.866025403784438 0.0
outer loop
vertex 12.0 -1.03923048454133 -3.49999999999999
vertex 11.710582854123 -1.15911099154688 0.0
vertex 12.0 -1.03923048454133 0.0
endloop
endfacet
facet normal -0.500000000000001 0.866025403784438 0.0
outer loop
vertex 12.0 -1.03923048454133 0.0
vertex 12.2485281374239 -0.848528137423857 -3.49999999999999
vertex 12.0 -1.03923048454133 -3.49999999999999
endloop
endfacet
facet normal -0.707106781186547 0.707106781186548 0.0
outer loop
vertex 12.2485281374239 -0.848528137423857 -3.49999999999999
vertex 12.0 -1.03923048454133 0.0
vertex 12.2485281374239 -0.848528137423857 0.0
endloop
endfacet
facet normal -0.866025403784439 0.5 0.0
outer loop
vertex 12.4392304845413 -0.599999999999999 0.0
vertex 12.2485281374239 -0.848528137423857 -3.49999999999999
vertex 12.2485281374239 -0.848528137423857 0.0
endloop
endfacet
facet normal -0.707106781186547 0.707106781186548 0.0
outer loop
vertex 12.2485281374239 -0.848528137423857 -3.49999999999999
vertex 12.4392304845413 -0.599999999999999 0.0
vertex 12.4392304845413 -0.599999999999999 -3.49999999999999
endloop
endfacet
facet normal -0.965925826289068 0.25881904510252 0.0
outer loop
vertex 12.5591109915469 -0.310582854123024 0.0
vertex 12.4392304845413 -0.599999999999999 -3.49999999999999
vertex 12.4392304845413 -0.599999999999999 0.0
endloop
endfacet
facet normal -0.866025403784439 0.5 0.0
outer loop
vertex 12.4392304845413 -0.599999999999999 -3.49999999999999
vertex 12.5591109915469 -0.310582854123024 0.0
vertex 12.5591109915469 -0.310582854123024 -3.49999999999999
endloop
endfacet
facet normal -1.0 2.04955527599879e-016 0.0
outer loop
vertex 12.6 2.20436423846524e-016 0.0
vertex 12.5591109915469 -0.310582854123024 -3.49999999999999
vertex 12.5591109915469 -0.310582854123024 0.0
endloop
endfacet
facet normal -0.965925826289068 0.25881904510252 0.0
outer loop
vertex 12.5591109915469 -0.310582854123024 -3.49999999999999
vertex 12.6 2.20436423846524e-016 0.0
vertex 12.6 2.20436423846524e-016 -3.49999999999999
endloop
endfacet
facet normal -0.965925826289068 -0.258819045102522 0.0
outer loop
vertex 12.5591109915469 0.310582854123026 0.0
vertex 12.6 2.20436423846524e-016 -3.49999999999999
vertex 12.6 2.20436423846524e-016 0.0
endloop
endfacet
facet normal -1.0 2.04955527599879e-016 0.0
outer loop
vertex 12.6 2.20436423846524e-016 -3.49999999999999
vertex 12.5591109915469 0.310582854123026 0.0
vertex 12.5591109915469 0.310582854123026 -3.49999999999999
endloop
endfacet
facet normal -0.866025403784438 -0.500000000000001 0.0
outer loop
vertex 12.4392304845413 0.600000000000001 0.0
vertex 12.5591109915469 0.310582854123026 -3.49999999999999
vertex 12.5591109915469 0.310582854123026 0.0
endloop
endfacet
facet normal -0.965925826289068 -0.258819045102522 0.0
outer loop
vertex 12.5591109915469 0.310582854123026 -3.49999999999999
vertex 12.4392304845413 0.600000000000001 0.0
vertex 12.4392304845413 0.600000000000001 -3.49999999999999
endloop
endfacet
facet normal -0.707106781186547 -0.707106781186549 0.0
outer loop
vertex 12.2485281374239 0.848528137423857 0.0
vertex 12.4392304845413 0.600000000000001 -3.49999999999999
vertex 12.4392304845413 0.600000000000001 0.0
endloop
endfacet
facet normal -0.866025403784438 -0.500000000000001 0.0
outer loop
vertex 12.4392304845413 0.600000000000001 -3.49999999999999
vertex 12.2485281374239 0.848528137423857 0.0
vertex 12.2485281374239 0.848528137423857 -3.49999999999999
endloop
endfacet
facet normal -0.707106781186547 -0.707106781186549 0.0
outer loop
vertex 12.2485281374239 0.848528137423857 0.0
vertex 12.0 1.03923048454133 -3.49999999999999
vertex 12.2485281374239 0.848528137423857 -3.49999999999999
endloop
endfacet
facet normal -0.499999999999999 -0.866025403784439 0.0
outer loop
vertex 12.0 1.03923048454133 -3.49999999999999
vertex 12.2485281374239 0.848528137423857 0.0
vertex 12.0 1.03923048454133 0.0
endloop
endfacet
facet normal -0.499999999999999 -0.866025403784439 0.0
outer loop
vertex 12.0 1.03923048454133 0.0
vertex 11.710582854123 1.15911099154688 -3.49999999999999
vertex 12.0 1.03923048454133 -3.49999999999999
endloop
endfacet
facet normal -0.258819045102521 -0.965925826289068 0.0
outer loop
vertex 11.710582854123 1.15911099154688 -3.49999999999999
vertex 12.0 1.03923048454133 0.0
vertex 11.710582854123 1.15911099154688 0.0
endloop
endfacet
facet normal -0.258819045102521 -0.965925826289068 0.0
outer loop
vertex 11.710582854123 1.15911099154688 0.0
vertex 11.4 1.2 -3.49999999999999
vertex 11.710582854123 1.15911099154688 -3.49999999999999
endloop
endfacet
facet normal 0.0 -1.0 0.0
outer loop
vertex 11.4 1.2 -3.49999999999999
vertex 11.710582854123 1.15911099154688 0.0
vertex 11.4 1.2 0.0
endloop
endfacet
facet normal 0.0 -1.0 0.0
outer loop
vertex 11.4 1.2 0.0
vertex 11.089417145877 1.15911099154688 -3.49999999999999
vertex 11.4 1.2 -3.49999999999999
endloop
endfacet
facet normal 0.258819045102521 -0.965925826289068 0.0
outer loop
vertex 11.089417145877 1.15911099154688 -3.49999999999999
vertex 11.4 1.2 0.0
vertex 11.089417145877 1.15911099154688 0.0
endloop
endfacet
facet normal 0.258819045102521 -0.965925826289068 0.0
outer loop
vertex 11.089417145877 1.15911099154688 0.0
vertex 10.8 1.03923048454133 -3.49999999999999
vertex 11.089417145877 1.15911099154688 -3.49999999999999
endloop
endfacet
facet normal 0.500000000000001 -0.866025403784438 0.0
outer loop
vertex 10.8 1.03923048454133 -3.49999999999999
vertex 11.089417145877 1.15911099154688 0.0
vertex 10.8 1.03923048454133 0.0
endloop
endfacet
facet normal 0.500000000000001 -0.866025403784438 0.0
outer loop
vertex 10.8 1.03923048454133 0.0
vertex 10.5514718625761 0.848528137423857 -3.49999999999999
vertex 10.8 1.03923048454133 -3.49999999999999
endloop
endfacet
facet normal 0.707106781186548 -0.707106781186547 0.0
outer loop
vertex 10.5514718625761 0.848528137423857 -3.49999999999999
vertex 10.8 1.03923048454133 0.0
vertex 10.5514718625761 0.848528137423857 0.0
endloop
endfacet
facet normal 0.707106781186548 -0.707106781186547 0.0
outer loop
vertex 10.5514718625761 0.848528137423857 -3.49999999999999
vertex 10.3607695154587 0.6 0.0
vertex 10.3607695154587 0.6 -3.49999999999999
endloop
endfacet
facet normal 0.866025403784439 -0.5 0.0
outer loop
vertex 10.3607695154587 0.6 0.0
vertex 10.5514718625761 0.848528137423857 -3.49999999999999
vertex 10.5514718625761 0.848528137423857 0.0
endloop
endfacet
facet normal 0.866025403784439 -0.5 0.0
outer loop
vertex 10.3607695154587 0.6 -3.49999999999999
vertex 10.2408890084531 0.310582854123025 0.0
vertex 10.2408890084531 0.310582854123025 -3.49999999999999
endloop
endfacet
facet normal 0.965925826289068 -0.258819045102522 0.0
outer loop
vertex 10.2408890084531 0.310582854123025 0.0
vertex 10.3607695154587 0.6 -3.49999999999999
vertex 10.3607695154587 0.6 0.0
endloop
endfacet
facet normal 0.965925826289068 -0.258819045102522 0.0
outer loop
vertex 10.2408890084531 0.310582854123025 -3.49999999999999
vertex 10.2 -7.34788079488412e-017 0.0
vertex 10.2 -7.34788079488412e-017 -3.49999999999999
endloop
endfacet
facet normal 1.0 -4.45555494782345e-017 0.0
outer loop
vertex 10.2 -7.34788079488412e-017 0.0
vertex 10.2408890084531 0.310582854123025 -3.49999999999999
vertex 10.2408890084531 0.310582854123025 0.0
endloop
endfacet
facet normal 1.0 -4.45555494782345e-017 0.0
outer loop
vertex 10.2 -7.34788079488412e-017 -3.49999999999999
vertex 10.2408890084531 -0.310582854123025 0.0
vertex 10.2408890084531 -0.310582854123025 -3.49999999999999
endloop
endfacet
facet normal 0.965925826289068 0.258819045102522 0.0
outer loop
vertex 10.2408890084531 -0.310582854123025 0.0
vertex 10.2 -7.34788079488412e-017 -3.49999999999999
vertex 10.2 -7.34788079488412e-017 0.0
endloop
endfacet
facet normal 0.965925826289068 0.258819045102522 0.0
outer loop
vertex 10.2408890084531 -0.310582854123025 -3.49999999999999
vertex 10.3607695154587 -0.6 0.0
vertex 10.3607695154587 -0.6 -3.49999999999999
endloop
endfacet
facet normal 0.866025403784438 0.500000000000001 0.0
outer loop
vertex 10.3607695154587 -0.6 0.0
vertex 10.2408890084531 -0.310582854123025 -3.49999999999999
vertex 10.2408890084531 -0.310582854123025 0.0
endloop
endfacet
endsolid home-mount-bottom
