solid home-mount-wing-nut
facet normal 0.5 0.866025403784438 9.29740017555323e-017
outer loop
vertex 1.75 3.03108891324554 4.0
vertex 2.47487373415292 2.47487373415292 0.0
vertex 1.75 3.03108891324554 0.0
endloop
endfacet
facet normal 0.707106781186548 0.707106781186547 1.43447080831161e-016
outer loop
vertex 2.47487373415292 2.47487373415292 0.0
vertex 1.75 3.03108891324554 4.0
vertex 2.47487373415292 2.47487373415291 4.0
endloop
endfacet
facet normal 0.707106781186547 -0.707106781186548 3.62469462537634e-017
outer loop
vertex 2.47487373415292 -2.47487373415292 4.0
vertex 1.75 -3.03108891324554 0.0
vertex 2.47487373415291 -2.47487373415292 0.0
endloop
endfacet
facet normal 0.5 -0.866025403784439 -1.2613129260358e-017
outer loop
vertex 1.75 -3.03108891324554 0.0
vertex 2.47487373415292 -2.47487373415292 4.0
vertex 1.75 -3.03108891324554 4.0
endloop
endfacet
facet normal 0.5 -0.866025403784439 -1.26131292603579e-017
outer loop
vertex 1.75 -3.03108891324554 4.0
vertex 0.905866657858821 -3.38074039201174 0.0
vertex 1.75 -3.03108891324554 0.0
endloop
endfacet
facet normal 0.258819045102521 -0.965925826289068 -3.78345399421449e-017
outer loop
vertex 0.905866657858821 -3.38074039201174 0.0
vertex 1.75 -3.03108891324554 4.0
vertex 0.905866657858824 -3.38074039201174 4.0
endloop
endfacet
facet normal 0.258819045102521 -0.965925826289068 -3.78345399421449e-017
outer loop
vertex 0.905866657858824 -3.38074039201174 4.0
vertex -6.4293956955236e-016 -3.5 0.0
vertex 0.905866657858821 -3.38074039201174 0.0
endloop
endfacet
facet normal -2.67333296869407e-017 -1.0 -4.38585123858202e-017
outer loop
vertex -6.4293956955236e-016 -3.5 0.0
vertex 0.905866657858824 -3.38074039201174 4.0
vertex 2.11497486191092e-015 -3.5 4.0
endloop
endfacet
facet normal 8.01999890608221e-017 -1.0 -4.38585123858201e-017
outer loop
vertex 2.11497486191092e-015 -3.5 4.0
vertex -0.905866657858822 -3.38074039201174 0.0
vertex -6.4293956955236e-016 -3.5 0.0
endloop
endfacet
facet normal -0.258819045102521 -0.965925826289068 -2.00328154508386e-016
outer loop
vertex -0.905866657858822 -3.38074039201174 0.0
vertex 2.11497486191092e-015 -3.5 4.0
vertex -0.905866657858821 -3.38074039201174 4.0
endloop
endfacet
facet normal -0.25881904510252 -0.965925826289068 -2.00328154508385e-016
outer loop
vertex -0.905866657858821 -3.38074039201174 4.0
vertex -1.75 -3.03108891324554 0.0
vertex -0.905866657858822 -3.38074039201174 0.0
endloop
endfacet
facet normal -0.5 -0.866025403784439 -2.85185358587348e-016
outer loop
vertex -1.75 -3.03108891324554 0.0
vertex -0.905866657858821 -3.38074039201174 4.0
vertex -1.75 -3.03108891324554 4.0
endloop
endfacet
facet normal -0.5 -0.866025403784439 -2.85185358587348e-016
outer loop
vertex -1.75 -3.03108891324554 4.0
vertex -2.47487373415291 -2.47487373415292 0.0
vertex -1.75 -3.03108891324554 0.0
endloop
endfacet
facet normal -0.707106781186547 -0.707106781186548 -1.27826185773696e-016
outer loop
vertex -2.47487373415291 -2.47487373415292 0.0
vertex -1.75 -3.03108891324554 4.0
vertex -2.47487373415292 -2.47487373415292 4.0
endloop
endfacet
facet normal -0.707106781186547 0.707106781186548 -5.5331842233825e-017
outer loop
vertex -2.47487373415292 2.47487373415292 4.0
vertex -1.75 3.03108891324554 0.0
vertex -2.47487373415292 2.47487373415292 0.0
endloop
endfacet
facet normal -0.5 0.866025403784439 -1.64063198304045e-016
outer loop
vertex -1.75 3.03108891324554 0.0
vertex -2.47487373415292 2.47487373415292 4.0
vertex -1.75 3.03108891324554 4.0
endloop
endfacet
facet normal -0.5 0.866025403784439 -1.64063198304045e-016
outer loop
vertex -1.75 3.03108891324554 4.0
vertex -0.905866657858821 3.38074039201174 0.0
vertex -1.75 3.03108891324554 0.0
endloop
endfacet
facet normal -0.258819045102521 0.965925826289068 -1.45154597299645e-016
outer loop
vertex -0.905866657858821 3.38074039201174 0.0
vertex -1.75 3.03108891324554 4.0
vertex -0.905866657858822 3.38074039201174 4.0
endloop
endfacet
facet normal -0.258819045102521 0.965925826289068 -1.45154597299645e-016
outer loop
vertex -0.905866657858822 3.38074039201174 4.0
vertex 9.91469307088396e-016 3.5 0.0
vertex -0.905866657858821 3.38074039201174 0.0
endloop
endfacet
facet normal 4.09911055199758e-016 1.0 -1.61155398217877e-017
outer loop
vertex 9.91469307088396e-016 3.5 0.0
vertex -0.905866657858822 3.38074039201174 4.0
vertex 7.04991620636974e-016 3.5 4.0
endloop
endfacet
facet normal 3.92088835408464e-016 1.0 -1.61155398217877e-017
outer loop
vertex 7.04991620636974e-016 3.5 4.0
vertex 0.905866657858823 3.38074039201174 0.0
vertex 9.91469307088396e-016 3.5 0.0
endloop
endfacet
facet normal 0.258819045102521 0.965925826289068 -4.74142782877096e-017
outer loop
vertex 0.905866657858823 3.38074039201174 0.0
vertex 7.04991620636974e-016 3.5 4.0
vertex 0.905866657858823 3.38074039201174 4.0
endloop
endfacet
facet normal 0.258819045102521 0.965925826289068 -4.74142782877096e-017
outer loop
vertex 0.905866657858823 3.38074039201174 4.0
vertex 1.75 3.03108891324554 0.0
vertex 0.905866657858823 3.38074039201174 0.0
endloop
endfacet
facet normal 0.5 0.866025403784439 9.29740017555323e-017
outer loop
vertex 1.75 3.03108891324554 0.0
vertex 0.905866657858823 3.38074039201174 4.0
vertex 1.75 3.03108891324554 4.0
endloop
endfacet
facet normal 0.5 0.866025403784438 0.0
outer loop
vertex -0.750000000000001 -1.29903810567666 1.0
vertex -0.388228567653782 -1.4488887394336 0.0
vertex -0.750000000000001 -1.29903810567666 0.0
endloop
endfacet
facet normal 0.258819045102521 0.965925826289068 0.0
outer loop
vertex -0.388228567653782 -1.4488887394336 0.0
vertex -0.750000000000001 -1.29903810567666 1.0
vertex -0.388228567653782 -1.4488887394336 1.0
endloop
endfacet
facet normal 0.258819045102521 0.965925826289068 0.0
outer loop
vertex -0.388228567653782 -1.4488887394336 1.0
vertex -1.83697019872103e-016 -1.5 0.0
vertex -0.388228567653782 -1.4488887394336 0.0
endloop
endfacet
facet normal 1.06933318747763e-016 1.0 0.0
outer loop
vertex -1.83697019872103e-016 -1.5 0.0
vertex -0.388228567653782 -1.4488887394336 1.0
vertex -1.83697019872103e-016 -1.5 1.0
endloop
endfacet
facet normal 1.06933318747763e-016 1.0 0.0
outer loop
vertex -1.83697019872103e-016 -1.5 1.0
vertex 0.388228567653781 -1.4488887394336 0.0
vertex -1.83697019872103e-016 -1.5 0.0
endloop
endfacet
facet normal -0.258819045102521 0.965925826289068 0.0
outer loop
vertex 0.388228567653781 -1.4488887394336 0.0
vertex -1.83697019872103e-016 -1.5 1.0
vertex 0.388228567653781 -1.4488887394336 1.0
endloop
endfacet
facet normal -0.258819045102521 0.965925826289068 0.0
outer loop
vertex 0.388228567653781 -1.4488887394336 1.0
vertex 0.75 -1.29903810567666 0.0
vertex 0.388228567653781 -1.4488887394336 0.0
endloop
endfacet
facet normal -0.5 0.866025403784439 0.0
outer loop
vertex 0.75 -1.29903810567666 0.0
vertex 0.388228567653781 -1.4488887394336 1.0
vertex 0.75 -1.29903810567666 1.0
endloop
endfacet
facet normal -0.5 0.866025403784439 0.0
outer loop
vertex 0.75 -1.29903810567666 1.0
vertex 1.06066017177982 -1.06066017177982 0.0
vertex 0.75 -1.29903810567666 0.0
endloop
endfacet
facet normal -0.707106781186547 0.707106781186548 0.0
outer loop
vertex 1.06066017177982 -1.06066017177982 0.0
vertex 0.75 -1.29903810567666 1.0
vertex 1.06066017177982 -1.06066017177982 1.0
endloop
endfacet
facet normal -0.866025403784438 0.500000000000001 0.0
outer loop
vertex 1.29903810567666 -0.750000000000001 1.0
vertex 1.06066017177982 -1.06066017177982 0.0
vertex 1.06066017177982 -1.06066017177982 1.0
endloop
endfacet
facet normal -0.707106781186547 0.707106781186548 0.0
outer loop
vertex 1.06066017177982 -1.06066017177982 0.0
vertex 1.29903810567666 -0.750000000000001 1.0
vertex 1.29903810567666 -0.750000000000001 0.0
endloop
endfacet
facet normal -0.965925826289068 0.258819045102521 0.0
outer loop
vertex 1.4488887394336 -0.388228567653782 1.0
vertex 1.29903810567666 -0.750000000000001 0.0
vertex 1.29903810567666 -0.750000000000001 1.0
endloop
endfacet
facet normal -0.866025403784438 0.500000000000001 0.0
outer loop
vertex 1.29903810567666 -0.750000000000001 0.0
vertex 1.4488887394336 -0.388228567653782 1.0
vertex 1.4488887394336 -0.388228567653782 0.0
endloop
endfacet
facet normal -1.0 2.22777747391173e-016 0.0
outer loop
vertex 1.5 -2.75545529808154e-016 1.0
vertex 1.4488887394336 -0.388228567653782 0.0
vertex 1.4488887394336 -0.388228567653782 1.0
endloop
endfacet
facet normal -0.965925826289068 0.258819045102521 0.0
outer loop
vertex 1.4488887394336 -0.388228567653782 0.0
vertex 1.5 -2.75545529808154e-016 1.0
vertex 1.5 -2.75545529808154e-016 0.0
endloop
endfacet
facet normal -0.965925826289068 -0.25881904510252 0.0
outer loop
vertex 1.4488887394336 0.38822856765378 1.0
vertex 1.5 -2.75545529808154e-016 0.0
vertex 1.5 -2.75545529808154e-016 1.0
endloop
endfacet
facet normal -1.0 2.22777747391173e-016 0.0
outer loop
vertex 1.5 -2.75545529808154e-016 0.0
vertex 1.4488887394336 0.38822856765378 1.0
vertex 1.4488887394336 0.38822856765378 0.0
endloop
endfacet
facet normal -0.866025403784439 -0.499999999999999 0.0
outer loop
vertex 1.29903810567666 0.749999999999999 1.0
vertex 1.4488887394336 0.38822856765378 0.0
vertex 1.4488887394336 0.38822856765378 1.0
endloop
endfacet
facet normal -0.965925826289068 -0.25881904510252 0.0
outer loop
vertex 1.4488887394336 0.38822856765378 0.0
vertex 1.29903810567666 0.749999999999999 1.0
vertex 1.29903810567666 0.749999999999999 0.0
endloop
endfacet
facet normal -0.707106781186548 -0.707106781186547 0.0
outer loop
vertex 1.06066017177982 1.06066017177982 1.0
vertex 1.29903810567666 0.749999999999999 0.0
vertex 1.29903810567666 0.749999999999999 1.0
endloop
endfacet
facet normal -0.866025403784439 -0.499999999999999 0.0
outer loop
vertex 1.29903810567666 0.749999999999999 0.0
vertex 1.06066017177982 1.06066017177982 1.0
vertex 1.06066017177982 1.06066017177982 0.0
endloop
endfacet
facet normal -0.707106781186548 -0.707106781186547 0.0
outer loop
vertex 1.06066017177982 1.06066017177982 1.0
vertex 0.750000000000001 1.29903810567666 0.0
vertex 1.06066017177982 1.06066017177982 0.0
endloop
endfacet
facet normal -0.500000000000001 -0.866025403784438 0.0
outer loop
vertex 0.750000000000001 1.29903810567666 0.0
vertex 1.06066017177982 1.06066017177982 1.0
vertex 0.750000000000001 1.29903810567666 1.0
endloop
endfacet
facet normal -0.500000000000001 -0.866025403784438 0.0
outer loop
vertex 0.750000000000001 1.29903810567666 1.0
vertex 0.388228567653782 1.4488887394336 0.0
vertex 0.750000000000001 1.29903810567666 0.0
endloop
endfacet
facet normal -0.258819045102521 -0.965925826289068 0.0
outer loop
vertex 0.388228567653782 1.4488887394336 0.0
vertex 0.750000000000001 1.29903810567666 1.0
vertex 0.388228567653782 1.4488887394336 1.0
endloop
endfacet
facet normal -0.258819045102521 -0.965925826289068 0.0
outer loop
vertex 0.388228567653782 1.4488887394336 1.0
vertex 0.0 1.5 0.0
vertex 0.388228567653782 1.4488887394336 0.0
endloop
endfacet
facet normal -2.31688857286819e-016 -1.0 0.0
outer loop
vertex 0.0 1.5 0.0
vertex 0.388228567653782 1.4488887394336 1.0
vertex 0.0 1.5 1.0
endloop
endfacet
facet normal -2.31688857286819e-016 -1.0 0.0
outer loop
vertex 0.0 1.5 1.0
vertex -0.388228567653781 1.4488887394336 0.0
vertex 0.0 1.5 0.0
endloop
endfacet
facet normal 0.258819045102521 -0.965925826289068 0.0
outer loop
vertex -0.388228567653781 1.4488887394336 0.0
vertex 0.0 1.5 1.0
vertex -0.388228567653781 1.4488887394336 1.0
endloop
endfacet
facet normal 0.258819045102521 -0.965925826289068 0.0
outer loop
vertex -0.388228567653781 1.4488887394336 1.0
vertex -0.75 1.29903810567666 0.0
vertex -0.388228567653781 1.4488887394336 0.0
endloop
endfacet
facet normal 0.5 -0.866025403784439 0.0
outer loop
vertex -0.75 1.29903810567666 0.0
vertex -0.388228567653781 1.4488887394336 1.0
vertex -0.75 1.29903810567666 1.0
endloop
endfacet
facet normal 0.5 -0.866025403784439 0.0
outer loop
vertex -0.75 1.29903810567666 1.0
vertex -1.06066017177982 1.06066017177982 0.0
vertex -0.75 1.29903810567666 0.0
endloop
endfacet
facet normal 0.707106781186547 -0.707106781186548 0.0
outer loop
vertex -1.06066017177982 1.06066017177982 0.0
vertex -0.75 1.29903810567666 1.0
vertex -1.06066017177982 1.06066017177982 1.0
endloop
endfacet
facet normal 0.707106781186547 -0.707106781186548 0.0
outer loop
vertex -1.06066017177982 1.06066017177982 0.0
vertex -1.29903810567666 0.75 1.0
vertex -1.29903810567666 0.75 0.0
endloop
endfacet
facet normal 0.866025403784439 -0.5 0.0
outer loop
vertex -1.29903810567666 0.75 1.0
vertex -1.06066017177982 1.06066017177982 0.0
vertex -1.06066017177982 1.06066017177982 1.0
endloop
endfacet
facet normal 0.866025403784439 -0.5 0.0
outer loop
vertex -1.29903810567666 0.75 0.0
vertex -1.4488887394336 0.388228567653781 1.0
vertex -1.4488887394336 0.388228567653781 0.0
endloop
endfacet
facet normal 0.965925826289068 -0.258819045102521 0.0
outer loop
vertex -1.4488887394336 0.388228567653781 1.0
vertex -1.29903810567666 0.75 0.0
vertex -1.29903810567666 0.75 1.0
endloop
endfacet
facet normal 0.965925826289068 -0.258819045102521 0.0
outer loop
vertex -1.4488887394336 0.388228567653781 0.0
vertex -1.5 9.18485099360515e-017 1.0
vertex -1.5 9.18485099360515e-017 0.0
endloop
endfacet
facet normal 1.0 -1.69311088017291e-016 0.0
outer loop
vertex -1.5 9.18485099360515e-017 1.0
vertex -1.4488887394336 0.388228567653781 0.0
vertex -1.4488887394336 0.388228567653781 1.0
endloop
endfacet
facet normal 1.0 -1.69311088017291e-016 0.0
outer loop
vertex -1.5 9.18485099360515e-017 0.0
vertex -1.4488887394336 -0.388228567653781 1.0
vertex -1.4488887394336 -0.388228567653781 0.0
endloop
endfacet
facet normal 0.965925826289068 0.258819045102521 0.0
outer loop
vertex -1.4488887394336 -0.388228567653781 1.0
vertex -1.5 9.18485099360515e-017 0.0
vertex -1.5 9.18485099360515e-017 1.0
endloop
endfacet
facet normal 0.965925826289068 0.258819045102521 0.0
outer loop
vertex -1.4488887394336 -0.388228567653781 0.0
vertex -1.29903810567666 -0.75 1.0
vertex -1.29903810567666 -0.75 0.0
endloop
endfacet
facet normal 0.866025403784439 0.5 0.0
outer loop
vertex -1.29903810567666 -0.75 1.0
vertex -1.4488887394336 -0.388228567653781 0.0
vertex -1.4488887394336 -0.388228567653781 1.0
endloop
endfacet
facet normal 0.866025403784439 0.5 0.0
outer loop
vertex -1.29903810567666 -0.75 0.0
vertex -1.06066017177982 -1.06066017177982 1.0
vertex -1.06066017177982 -1.06066017177982 0.0
endloop
endfacet
facet normal 0.707106781186548 0.707106781186547 0.0
outer loop
vertex -1.06066017177982 -1.06066017177982 1.0
vertex -1.29903810567666 -0.75 0.0
vertex -1.29903810567666 -0.75 1.0
endloop
endfacet
facet normal 0.707106781186548 0.707106781186547 0.0
outer loop
vertex -1.06066017177982 -1.06066017177982 1.0
vertex -0.750000000000001 -1.29903810567666 0.0
vertex -1.06066017177982 -1.06066017177982 0.0
endloop
endfacet
facet normal 0.5 0.866025403784438 0.0
outer loop
vertex -0.750000000000001 -1.29903810567666 0.0
vertex -1.06066017177982 -1.06066017177982 1.0
vertex -0.750000000000001 -1.29903810567666 1.0
endloop
endfacet
facet normal -0.0 -0.0 1.0
outer loop
vertex -1.62634559672906 -1.62634559672906 1.0
vertex -1.4488887394336 -0.388228567653781 1.0
vertex -1.5 9.18485099360515e-017 1.0
endloop
endfacet
facet normal -0.0 -0.0 1.0
outer loop
vertex -1.4488887394336 -0.388228567653781 1.0
vertex -1.62634559672906 -1.62634559672906 1.0
vertex -1.15 -1.99185842870421 1.0
endloop
endfacet
facet normal -0.0 -0.0 1.0
outer loop
vertex -1.4488887394336 -0.388228567653781 1.0
vertex -1.15 -1.99185842870421 1.0
vertex -1.29903810567666 -0.75 1.0
endloop
endfacet
facet normal -0.0 -0.0 1.0
outer loop
vertex -1.29903810567666 -0.75 1.0
vertex -1.15 -1.99185842870421 1.0
vertex -1.06066017177982 -1.06066017177982 1.0
endloop
endfacet
facet normal -0.0 -0.0 1.0
outer loop
vertex -1.06066017177982 -1.06066017177982 1.0
vertex -1.15 -1.99185842870421 1.0
vertex -0.595283803735797 -2.22162940046486 1.0
endloop
endfacet
facet normal -0.0 -0.0 1.0
outer loop
vertex -1.06066017177982 -1.06066017177982 1.0
vertex -0.595283803735797 -2.22162940046486 1.0
vertex -0.750000000000001 -1.29903810567666 1.0
endloop
endfacet
facet normal -0.0 -0.0 1.0
outer loop
vertex -0.750000000000001 -1.29903810567666 1.0
vertex -0.595283803735797 -2.22162940046486 1.0
vertex -0.388228567653782 -1.4488887394336 1.0
endloop
endfacet
facet normal -0.0 -0.0 1.0
outer loop
vertex -0.388228567653782 -1.4488887394336 1.0
vertex -0.595283803735797 -2.22162940046486 1.0
vertex 4.22503145705837e-016 -2.3 1.0
endloop
endfacet
facet normal -0.0 -0.0 1.0
outer loop
vertex -0.388228567653782 -1.4488887394336 1.0
vertex 4.22503145705837e-016 -2.3 1.0
vertex -1.83697019872103e-016 -1.5 1.0
endloop
endfacet
facet normal -0.0 -0.0 1.0
outer loop
vertex -1.83697019872103e-016 -1.5 1.0
vertex 4.22503145705837e-016 -2.3 1.0
vertex 0.388228567653781 -1.4488887394336 1.0
endloop
endfacet
facet normal -0.0 -0.0 1.0
outer loop
vertex 0.388228567653781 -1.4488887394336 1.0
vertex 4.22503145705837e-016 -2.3 1.0
vertex 0.595283803735797 -2.22162940046486 1.0
endloop
endfacet
facet normal -0.0 -0.0 1.0
outer loop
vertex 0.388228567653781 -1.4488887394336 1.0
vertex 0.595283803735797 -2.22162940046486 1.0
vertex 0.75 -1.29903810567666 1.0
endloop
endfacet
facet normal -0.0 -0.0 1.0
outer loop
vertex 0.75 -1.29903810567666 1.0
vertex 0.595283803735797 -2.22162940046486 1.0
vertex 1.15 -1.99185842870421 1.0
endloop
endfacet
facet normal -0.0 -0.0 1.0
outer loop
vertex 0.75 -1.29903810567666 1.0
vertex 1.15 -1.99185842870421 1.0
vertex 1.06066017177982 -1.06066017177982 1.0
endloop
endfacet
facet normal -0.0 -0.0 1.0
outer loop
vertex 1.06066017177982 -1.06066017177982 1.0
vertex 1.15 -1.99185842870421 1.0
vertex 1.29903810567666 -0.750000000000001 1.0
endloop
endfacet
facet normal -0.0 -0.0 1.0
outer loop
vertex 1.29903810567666 -0.750000000000001 1.0
vertex 1.15 -1.99185842870421 1.0
vertex 1.62634559672906 -1.62634559672906 1.0
endloop
endfacet
facet normal -0.0 -0.0 1.0
outer loop
vertex 1.29903810567666 -0.750000000000001 1.0
vertex 1.62634559672906 -1.62634559672906 1.0
vertex 1.4488887394336 -0.388228567653782 1.0
endloop
endfacet
facet normal -0.0 -0.0 1.0
outer loop
vertex 1.4488887394336 -0.388228567653782 1.0
vertex 1.62634559672906 -1.62634559672906 1.0
vertex 1.5 -2.75545529808154e-016 1.0
endloop
endfacet
facet normal -0.0 -0.0 1.0
outer loop
vertex -2.22162940046486 -0.595283803735801 1.0
vertex -2.22162940046486 0.595283803735798 1.0
vertex -2.3 -4.64895825822836e-015 1.0
endloop
endfacet
facet normal -0.0 -0.0 1.0
outer loop
vertex -2.22162940046486 0.595283803735798 1.0
vertex -2.22162940046486 -0.595283803735801 1.0
vertex -1.99185842870421 1.15 1.0
endloop
endfacet
facet normal -0.0 -0.0 1.0
outer loop
vertex -1.99185842870421 1.15 1.0
vertex -2.22162940046486 -0.595283803735801 1.0
vertex -1.99185842870421 -1.15 1.0
endloop
endfacet
facet normal -0.0 -0.0 1.0
outer loop
vertex -1.99185842870421 1.15 1.0
vertex -1.99185842870421 -1.15 1.0
vertex -1.62634559672906 1.62634559672906 1.0
endloop
endfacet
facet normal -0.0 -0.0 1.0
outer loop
vertex -1.62634559672906 1.62634559672906 1.0
vertex -1.99185842870421 -1.15 1.0
vertex -1.62634559672906 -1.62634559672906 1.0
endloop
endfacet
facet normal -0.0 -0.0 1.0
outer loop
vertex -1.62634559672906 1.62634559672906 1.0
vertex -1.62634559672906 -1.62634559672906 1.0
vertex -1.5 9.18485099360515e-017 1.0
endloop
endfacet
facet normal -0.0 -0.0 1.0
outer loop
vertex -1.62634559672906 1.62634559672906 1.0
vertex -1.5 9.18485099360515e-017 1.0
vertex -1.4488887394336 0.388228567653781 1.0
endloop
endfacet
facet normal -0.0 -0.0 1.0
outer loop
vertex -1.62634559672906 1.62634559672906 1.0
vertex -1.4488887394336 0.388228567653781 1.0
vertex -1.15 1.99185842870421 1.0
endloop
endfacet
facet normal -0.0 -0.0 1.0
outer loop
vertex -1.15 1.99185842870421 1.0
vertex -1.4488887394336 0.388228567653781 1.0
vertex -1.29903810567666 0.75 1.0
endloop
endfacet
facet normal -0.0 -0.0 1.0
outer loop
vertex -1.15 1.99185842870421 1.0
vertex -1.29903810567666 0.75 1.0
vertex -1.06066017177982 1.06066017177982 1.0
endloop
endfacet
facet normal -0.0 -0.0 1.0
outer loop
vertex -1.15 1.99185842870421 1.0
vertex -1.06066017177982 1.06066017177982 1.0
vertex -0.595283803735798 2.22162940046486 1.0
endloop
endfacet
facet normal -0.0 -0.0 1.0
outer loop
vertex -0.595283803735798 2.22162940046486 1.0
vertex -1.06066017177982 1.06066017177982 1.0
vertex -0.75 1.29903810567666 1.0
endloop
endfacet
facet normal -0.0 -0.0 1.0
outer loop
vertex -0.595283803735798 2.22162940046486 1.0
vertex -0.75 1.29903810567666 1.0
vertex -0.388228567653781 1.4488887394336 1.0
endloop
endfacet
facet normal -0.0 -0.0 1.0
outer loop
vertex -0.595283803735798 2.22162940046486 1.0
vertex -0.388228567653781 1.4488887394336 1.0
vertex -6.51536973229518e-016 2.3 1.0
endloop
endfacet
facet normal -0.0 -0.0 1.0
outer loop
vertex -6.51536973229518e-016 2.3 1.0
vertex -0.388228567653781 1.4488887394336 1.0
vertex 0.0 1.5 1.0
endloop
endfacet
facet normal -0.0 -0.0 1.0
outer loop
vertex -6.51536973229518e-016 2.3 1.0
vertex 0.0 1.5 1.0
vertex 0.595283803735797 2.22162940046486 1.0
endloop
endfacet
facet normal -0.0 -0.0 1.0
outer loop
vertex 0.595283803735797 2.22162940046486 1.0
vertex 0.0 1.5 1.0
vertex 0.388228567653782 1.4488887394336 1.0
endloop
endfacet
facet normal -0.0 -0.0 1.0
outer loop
vertex 0.595283803735797 2.22162940046486 1.0
vertex 0.388228567653782 1.4488887394336 1.0
vertex 0.750000000000001 1.29903810567666 1.0
endloop
endfacet
facet normal -0.0 -0.0 1.0
outer loop
vertex 0.595283803735797 2.22162940046486 1.0
vertex 0.750000000000001 1.29903810567666 1.0
vertex 1.15 1.99185842870421 1.0
endloop
endfacet
facet normal -0.0 -0.0 1.0
outer loop
vertex 1.15 1.99185842870421 1.0
vertex 0.750000000000001 1.29903810567666 1.0
vertex 1.06066017177982 1.06066017177982 1.0
endloop
endfacet
facet normal -0.0 -0.0 1.0
outer loop
vertex 1.15 1.99185842870421 1.0
vertex 1.06066017177982 1.06066017177982 1.0
vertex 1.29903810567666 0.749999999999999 1.0
endloop
endfacet
facet normal -0.0 -0.0 1.0
outer loop
vertex 1.15 1.99185842870421 1.0
vertex 1.29903810567666 0.749999999999999 1.0
vertex 1.62634559672906 1.62634559672906 1.0
endloop
endfacet
facet normal -0.0 -0.0 1.0
outer loop
vertex 1.62634559672906 1.62634559672906 1.0
vertex 1.29903810567666 0.749999999999999 1.0
vertex 1.4488887394336 0.38822856765378 1.0
endloop
endfacet
facet normal -0.0 -0.0 1.0
outer loop
vertex 1.62634559672906 1.62634559672906 1.0
vertex 1.4488887394336 0.38822856765378 1.0
vertex 1.5 -2.75545529808154e-016 1.0
endloop
endfacet
facet normal -0.0 -0.0 1.0
outer loop
vertex 1.62634559672906 1.62634559672906 1.0
vertex 1.5 -2.75545529808154e-016 1.0
vertex 1.62634559672906 -1.62634559672906 1.0
endloop
endfacet
facet normal -0.0 -0.0 1.0
outer loop
vertex 1.62634559672906 1.62634559672906 1.0
vertex 1.62634559672906 -1.62634559672906 1.0
vertex 1.99185842870421 -1.15 1.0
endloop
endfacet
facet normal -0.0 -0.0 1.0
outer loop
vertex 1.62634559672906 1.62634559672906 1.0
vertex 1.99185842870421 -1.15 1.0
vertex 1.99185842870421 1.15 1.0
endloop
endfacet
facet normal -0.0 -0.0 1.0
outer loop
vertex 1.99185842870421 1.15 1.0
vertex 1.99185842870421 -1.15 1.0
vertex 2.22162940046486 -0.595283803735799 1.0
endloop
endfacet
facet normal -0.0 -0.0 1.0
outer loop
vertex 1.99185842870421 1.15 1.0
vertex 2.22162940046486 -0.595283803735799 1.0
vertex 2.22162940046486 0.595283803735797 1.0
endloop
endfacet
facet normal -0.0 -0.0 1.0
outer loop
vertex 2.22162940046486 0.595283803735797 1.0
vertex 2.22162940046486 -0.595283803735799 1.0
vertex 2.3 -7.39736418851253e-016 1.0
endloop
endfacet
facet normal 0.707106781186547 0.707106781186548 -1.09882566989299e-016
outer loop
vertex -1.62634559672906 -1.62634559672906 1.0
vertex -1.99185842870421 -1.15 4.0
vertex -1.62634559672906 -1.62634559672906 4.0
endloop
endfacet
facet normal 0.866025403784438 0.500000000000001 -1.09254177311855e-016
outer loop
vertex -1.99185842870421 -1.15 4.0
vertex -1.62634559672906 -1.62634559672906 1.0
vertex -1.99185842870421 -1.15 1.0
endloop
endfacet
facet normal 0.965925826289068 0.258819045102522 -6.21676467246409e-017
outer loop
vertex -2.22162940046486 -0.595283803735801 1.0
vertex -1.99185842870421 -1.15 4.0
vertex -1.99185842870421 -1.15 1.0
endloop
endfacet
facet normal 0.866025403784438 0.500000000000001 -1.09254177311855e-016
outer loop
vertex -1.99185842870421 -1.15 4.0
vertex -2.22162940046486 -0.595283803735801 1.0
vertex -2.22162940046486 -0.595283803735799 4.0
endloop
endfacet
facet normal 1.0 9.89133198416806e-016 -4.14141077929545e-017
outer loop
vertex -2.3 -4.64895825822836e-015 1.0
vertex -2.22162940046486 -0.595283803735799 4.0
vertex -2.22162940046486 -0.595283803735801 1.0
endloop
endfacet
facet normal 0.965925826289068 0.258819045102522 -6.21676467246409e-017
outer loop
vertex -2.22162940046486 -0.595283803735799 4.0
vertex -2.3 -4.64895825822836e-015 1.0
vertex -2.3 -8.81239525796218e-016 4.0
endloop
endfacet
facet normal 0.965925826289069 -0.25881904510252 -3.97849597558961e-017
outer loop
vertex -2.22162940046486 0.595283803735798 1.0
vertex -2.3 -8.81239525796218e-016 4.0
vertex -2.3 -4.64895825822836e-015 1.0
endloop
endfacet
facet normal 1.0 7.75266560921281e-016 -4.14141077929544e-017
outer loop
vertex -2.3 -8.81239525796218e-016 4.0
vertex -2.22162940046486 0.595283803735798 1.0
vertex -2.22162940046486 0.595283803735797 4.0
endloop
endfacet
facet normal 0.965925826289069 -0.25881904510252 -3.97849597558961e-017
outer loop
vertex -2.22162940046486 0.595283803735798 1.0
vertex -1.99185842870421 1.15 4.0
vertex -2.22162940046486 0.595283803735797 4.0
endloop
endfacet
facet normal 0.866025403784439 -0.5 -6.10436886070273e-017
outer loop
vertex -1.99185842870421 1.15 4.0
vertex -2.22162940046486 0.595283803735798 1.0
vertex -1.99185842870421 1.15 1.0
endloop
endfacet
facet normal 0.866025403784439 -0.5 -6.10436886070273e-017
outer loop
vertex -1.99185842870421 1.15 1.0
vertex -1.62634559672906 1.62634559672906 4.0
vertex -1.99185842870421 1.15 4.0
endloop
endfacet
facet normal 0.707106781186548 -0.707106781186547 -6.61942111961058e-018
outer loop
vertex -1.62634559672906 1.62634559672906 4.0
vertex -1.99185842870421 1.15 1.0
vertex -1.62634559672906 1.62634559672906 1.0
endloop
endfacet
facet normal 0.5 -0.866025403784438 4.60617881483687e-018
outer loop
vertex -1.15 1.99185842870421 4.0
vertex -1.62634559672906 1.62634559672906 1.0
vertex -1.15 1.99185842870421 1.0
endloop
endfacet
facet normal 0.707106781186548 -0.707106781186547 -6.61942111961056e-018
outer loop
vertex -1.62634559672906 1.62634559672906 1.0
vertex -1.15 1.99185842870421 4.0
vertex -1.62634559672906 1.62634559672906 4.0
endloop
endfacet
facet normal 0.258819045102521 -0.965925826289068 -5.70001589550384e-017
outer loop
vertex -0.595283803735799 2.22162940046486 4.0
vertex -1.15 1.99185842870421 1.0
vertex -0.595283803735798 2.22162940046486 1.0
endloop
endfacet
facet normal 0.5 -0.866025403784439 4.60617881483685e-018
outer loop
vertex -1.15 1.99185842870421 1.0
vertex -0.595283803735799 2.22162940046486 4.0
vertex -1.15 1.99185842870421 4.0
endloop
endfacet
facet normal 6.14866582799636e-016 -1.0 -1.03738831132879e-016
outer loop
vertex -8.81239525796218e-016 2.3 4.0
vertex -0.595283803735798 2.22162940046486 1.0
vertex -6.51536973229518e-016 2.3 1.0
endloop
endfacet
facet normal 0.258819045102521 -0.965925826289068 -5.70001589550384e-017
outer loop
vertex -0.595283803735798 2.22162940046486 1.0
vertex -8.81239525796218e-016 2.3 4.0
vertex -0.595283803735799 2.22162940046486 4.0
endloop
endfacet
facet normal -0.25881904510252 -0.965925826289068 -6.23777436408717e-017
outer loop
vertex 0.595283803735797 2.22162940046486 4.0
vertex -6.51536973229518e-016 2.3 1.0
vertex 0.595283803735797 2.22162940046486 1.0
endloop
endfacet
facet normal 5.97044363008343e-016 -1.0 -1.03738831132879e-016
outer loop
vertex -6.51536973229518e-016 2.3 1.0
vertex 0.595283803735797 2.22162940046486 4.0
vertex -8.81239525796218e-016 2.3 4.0
endloop
endfacet
facet normal -0.5 -0.866025403784439 3.38460245797834e-018
outer loop
vertex 1.15 1.99185842870421 4.0
vertex 0.595283803735797 2.22162940046486 1.0
vertex 1.15 1.99185842870421 1.0
endloop
endfacet
facet normal -0.25881904510252 -0.965925826289068 -6.23777436408717e-017
outer loop
vertex 0.595283803735797 2.22162940046486 1.0
vertex 1.15 1.99185842870421 4.0
vertex 0.595283803735797 2.22162940046486 4.0
endloop
endfacet
facet normal -0.707106781186547 -0.707106781186548 9.54429280272171e-018
outer loop
vertex 1.62634559672906 1.62634559672906 4.0
vertex 1.15 1.99185842870421 1.0
vertex 1.62634559672906 1.62634559672906 1.0
endloop
endfacet
facet normal -0.5 -0.866025403784439 3.38460245797834e-018
outer loop
vertex 1.15 1.99185842870421 1.0
vertex 1.62634559672906 1.62634559672906 4.0
vertex 1.15 1.99185842870421 4.0
endloop
endfacet
facet normal -0.707106781186547 -0.707106781186548 9.54429280272171e-018
outer loop
vertex 1.62634559672906 1.62634559672906 4.0
vertex 1.99185842870421 1.15 1.0
vertex 1.99185842870421 1.15 4.0
endloop
endfacet
facet normal -0.866025403784439 -0.5 -4.49984495797118e-018
outer loop
vertex 1.99185842870421 1.15 1.0
vertex 1.62634559672906 1.62634559672906 4.0
vertex 1.62634559672906 1.62634559672906 1.0
endloop
endfacet
facet normal -0.866025403784439 -0.5 -4.49984495797118e-018
outer loop
vertex 1.99185842870421 1.15 4.0
vertex 2.22162940046486 0.595283803735797 1.0
vertex 2.22162940046486 0.595283803735797 4.0
endloop
endfacet
facet normal -0.965925826289068 -0.25881904510252 -3.66887812419374e-017
outer loop
vertex 2.22162940046486 0.595283803735797 1.0
vertex 1.99185842870421 1.15 4.0
vertex 1.99185842870421 1.15 1.0
endloop
endfacet
facet normal -0.965925826289068 -0.25881904510252 -3.66887812419374e-017
outer loop
vertex 2.22162940046486 0.595283803735797 4.0
vertex 2.3 -7.39736418851253e-016 1.0
vertex 2.3 -8.81239525796218e-016 4.0
endloop
endfacet
facet normal -1.0 3.56444395825876e-016 -6.69617465106535e-017
outer loop
vertex 2.3 -7.39736418851253e-016 1.0
vertex 2.22162940046486 0.595283803735797 4.0
vertex 2.22162940046486 0.595283803735797 1.0
endloop
endfacet
facet normal -0.965925826289068 0.258819045102521 -5.69522408816463e-017
outer loop
vertex 2.22162940046486 -0.595283803735798 4.0
vertex 2.3 -7.39736418851253e-016 1.0
vertex 2.22162940046486 -0.595283803735799 1.0
endloop
endfacet
facet normal -1.0 3.56444395825876e-016 -6.69617465106535e-017
outer loop
vertex 2.3 -7.39736418851253e-016 1.0
vertex 2.22162940046486 -0.595283803735798 4.0
vertex 2.3 -8.81239525796218e-016 4.0
endloop
endfacet
facet normal -0.866025403784439 0.5 -3.20932425481535e-017
outer loop
vertex 1.99185842870421 -1.15 4.0
vertex 2.22162940046486 -0.595283803735799 1.0
vertex 1.99185842870421 -1.15 1.0
endloop
endfacet
facet normal -0.965925826289068 0.258819045102521 -5.69522408816463e-017
outer loop
vertex 2.22162940046486 -0.595283803735799 1.0
vertex 1.99185842870421 -1.15 4.0
vertex 2.22162940046486 -0.595283803735798 4.0
endloop
endfacet
facet normal -0.707106781186547 0.707106781186548 1.24691644858325e-017
outer loop
vertex 1.62634559672906 -1.62634559672906 4.0
vertex 1.99185842870421 -1.15 1.0
vertex 1.62634559672906 -1.62634559672906 1.0
endloop
endfacet
facet normal -0.866025403784438 0.5 -3.20932425481535e-017
outer loop
vertex 1.99185842870421 -1.15 1.0
vertex 1.62634559672906 -1.62634559672906 4.0
vertex 1.99185842870421 -1.15 4.0
endloop
endfacet
facet normal -0.5 0.866025403784439 5.2771756279222e-017
outer loop
vertex 1.15 -1.99185842870421 4.0
vertex 1.62634559672906 -1.62634559672906 1.0
vertex 1.15 -1.99185842870421 1.0
endloop
endfacet
facet normal -0.707106781186547 0.707106781186548 1.24691644858326e-017
outer loop
vertex 1.62634559672906 -1.62634559672906 1.0
vertex 1.15 -1.99185842870421 4.0
vertex 1.62634559672906 -1.62634559672906 4.0
endloop
endfacet
facet normal -0.258819045102521 0.965925826289068 3.30310888133487e-017
outer loop
vertex 0.5952838037358 -2.22162940046486 4.0
vertex 1.15 -1.99185842870421 1.0
vertex 0.595283803735797 -2.22162940046486 1.0
endloop
endfacet
facet normal -0.5 0.866025403784439 5.2771756279222e-017
outer loop
vertex 1.15 -1.99185842870421 1.0
vertex 0.5952838037358 -2.22162940046486 4.0
vertex 1.15 -1.99185842870421 4.0
endloop
endfacet
facet normal -8.37644330190809e-016 1.0 -3.06541229676048e-017
outer loop
vertex 3.34871019802563e-015 -2.3 4.0
vertex 0.595283803735797 -2.22162940046486 1.0
vertex 4.22503145705837e-016 -2.3 1.0
endloop
endfacet
facet normal -0.258819045102521 0.965925826289068 3.30310888133486e-017
outer loop
vertex 0.595283803735797 -2.22162940046486 1.0
vertex 3.34871019802563e-015 -2.3 4.0
vertex 0.5952838037358 -2.22162940046486 4.0
endloop
endfacet
facet normal 0.25881904510252 0.965925826289069 -6.33745623125913e-017
outer loop
vertex -0.595283803735794 -2.22162940046486 4.0
vertex 4.22503145705837e-016 -2.3 1.0
vertex -0.595283803735797 -2.22162940046486 1.0
endloop
endfacet
facet normal -6.68333242173518e-016 1.0 -3.06541229676048e-017
outer loop
vertex 4.22503145705837e-016 -2.3 1.0
vertex -0.595283803735794 -2.22162940046486 4.0
vertex 3.34871019802563e-015 -2.3 4.0
endloop
endfacet
facet normal 0.499999999999999 0.86602540378444 -5.09063112425676e-017
outer loop
vertex -1.15 -1.99185842870421 4.0
vertex -0.595283803735797 -2.22162940046486 1.0
vertex -1.15 -1.99185842870421 1.0
endloop
endfacet
facet normal 0.25881904510252 0.965925826289069 -6.33745623125913e-017
outer loop
vertex -0.595283803735797 -2.22162940046486 1.0
vertex -1.15 -1.99185842870421 4.0
vertex -0.595283803735794 -2.22162940046486 4.0
endloop
endfacet
facet normal 0.707106781186546 0.707106781186549 -1.09882566989299e-016
outer loop
vertex -1.62634559672906 -1.62634559672906 4.0
vertex -1.15 -1.99185842870421 1.0
vertex -1.62634559672906 -1.62634559672906 1.0
endloop
endfacet
facet normal 0.499999999999999 0.866025403784439 -5.09063112425676e-017
outer loop
vertex -1.15 -1.99185842870421 1.0
vertex -1.62634559672906 -1.62634559672906 4.0
vertex -1.15 -1.99185842870421 4.0
endloop
endfacet
facet normal -0.793353340291235 0.608761429008721 -1.28776424516999e-017
outer loop
vertex -3.03108891324553 1.75 4.0
vertex -2.47487373415292 2.47487373415292 0.0
vertex -3.03108891324554 1.75 0.0
endloop
endfacet
facet normal -0.707106781186547 0.707106781186548 -5.5331842233825e-017
outer loop
vertex -2.47487373415292 2.47487373415292 0.0
vertex -3.03108891324553 1.75 4.0
vertex -2.47487373415292 2.47487373415292 4.0
endloop
endfacet
facet normal -0.707106781186547 -0.707106781186548 -1.27826185773696e-016
outer loop
vertex -2.47487373415292 -2.47487373415292 4.0
vertex -3.03108891324553 -1.75 0.0
vertex -2.47487373415291 -2.47487373415292 0.0
endloop
endfacet
facet normal -0.793353340291235 -0.608761429008721 1.33933920799021e-018
outer loop
vertex -3.03108891324553 -1.75 0.0
vertex -2.47487373415292 -2.47487373415292 4.0
vertex -3.03108891324554 -1.75 4.0
endloop
endfacet
facet normal 0.793353340291235 -0.608761429008721 2.22869232308941e-017
outer loop
vertex 3.03108891324553 -1.75 0.0
vertex 2.47487373415292 -2.47487373415292 4.0
vertex 2.47487373415291 -2.47487373415292 0.0
endloop
endfacet
facet normal 0.707106781186547 -0.707106781186548 3.62469462537634e-017
outer loop
vertex 2.47487373415292 -2.47487373415292 4.0
vertex 3.03108891324553 -1.75 0.0
vertex 3.03108891324553 -1.75 4.0
endloop
endfacet
facet normal 0.793353340291236 0.60876142900872 -2.13250253158341e-017
outer loop
vertex 3.03108891324554 1.75 0.0
vertex 2.47487373415292 2.47487373415291 4.0
vertex 3.03108891324554 1.74999999999999 4.0
endloop
endfacet
facet normal 0.707106781186548 0.707106781186547 1.43447080831161e-016
outer loop
vertex 2.47487373415292 2.47487373415291 4.0
vertex 3.03108891324554 1.75 0.0
vertex 2.47487373415292 2.47487373415292 0.0
endloop
endfacet
facet normal 1.38511255788061e-016 -1.0 7.26795485192757e-017
outer loop
vertex -3.03108891324554 -1.75 4.0
vertex -13.25 -1.75 2.46747067222941e-015
vertex -3.03108891324553 -1.75 0.0
endloop
endfacet
facet normal 1.38511255788061e-016 -1.0 7.26795485192757e-017
outer loop
vertex -13.25 -1.75 2.46747067222941e-015
vertex -3.03108891324554 -1.75 4.0
vertex -13.25 -1.75 9.0
endloop
endfacet
facet normal 6.84554986885793e-017 1.0 -7.26795485192757e-017
outer loop
vertex -13.25 1.75 2.8199664825479e-015
vertex -3.03108891324553 1.75 4.0
vertex -3.03108891324554 1.75 0.0
endloop
endfacet
facet normal 6.84554986885793e-017 1.0 -7.26795485192757e-017
outer loop
vertex -3.03108891324553 1.75 4.0
vertex -13.25 1.75 2.8199664825479e-015
vertex -13.25 1.75 9.0
endloop
endfacet
facet normal -0.707106781186547 0.707106781186548 -0.0
outer loop
vertex -15.0 5.28743715477731e-016 9.0
vertex -13.25 1.75 2.8199664825479e-015
vertex -15.0 5.28743715477731e-016 2.8199664825479e-015
endloop
endfacet
facet normal -0.707106781186547 0.707106781186548 -0.0
outer loop
vertex -13.25 1.75 2.8199664825479e-015
vertex -15.0 5.28743715477731e-016 9.0
vertex -13.25 1.75 9.0
endloop
endfacet
facet normal -0.707106781186548 -0.707106781186547 0.0
outer loop
vertex -15.0 5.28743715477731e-016 9.0
vertex -13.25 -1.75 2.46747067222941e-015
vertex -13.25 -1.75 9.0
endloop
endfacet
facet normal -0.707106781186548 -0.707106781186547 0.0
outer loop
vertex -13.25 -1.75 2.46747067222941e-015
vertex -15.0 5.28743715477731e-016 9.0
vertex -15.0 5.28743715477731e-016 2.8199664825479e-015
endloop
endfacet
facet normal 9.5837698164011e-017 -1.0 1.01751367926986e-016
outer loop
vertex 13.25 -1.75 3.17246229286638e-015
vertex 3.03108891324553 -1.75 4.0
vertex 3.03108891324553 -1.75 0.0
endloop
endfacet
facet normal 9.5837698164011e-017 -1.0 1.01751367926986e-016
outer loop
vertex 3.03108891324553 -1.75 4.0
vertex 13.25 -1.75 3.17246229286638e-015
vertex 13.25 -1.75 9.0
endloop
endfacet
facet normal 3.0750902407853e-017 1.73280568870705e-017 -1.0
outer loop
vertex -13.25 1.75 2.8199664825479e-015
vertex -13.25 -1.75 2.46747067222941e-015
vertex -15.0 5.28743715477731e-016 2.8199664825479e-015
endloop
endfacet
facet normal 3.0750902407853e-017 1.73280568870705e-017 -1.0
outer loop
vertex -13.25 -1.75 2.46747067222941e-015
vertex -13.25 1.75 2.8199664825479e-015
vertex -3.03108891324554 1.75 0.0
endloop
endfacet
facet normal 3.0750902407853e-017 1.73280568870705e-017 -1.0
outer loop
vertex -13.25 -1.75 2.46747067222941e-015
vertex -3.03108891324554 1.75 0.0
vertex -3.03108891324553 -1.75 0.0
endloop
endfacet
facet normal 3.0750902407853e-017 1.73280568870705e-017 -1.0
outer loop
vertex -3.03108891324553 -1.75 0.0
vertex -3.03108891324554 1.75 0.0
vertex -2.47487373415292 2.47487373415292 0.0
endloop
endfacet
facet normal 3.0750902407853e-017 1.73280568870705e-017 -1.0
outer loop
vertex -3.03108891324553 -1.75 0.0
vertex -2.47487373415292 2.47487373415292 0.0
vertex -2.47487373415291 -2.47487373415292 0.0
endloop
endfacet
facet normal 3.0750902407853e-017 1.73280568870705e-017 -1.0
outer loop
vertex -2.47487373415291 -2.47487373415292 0.0
vertex -2.47487373415292 2.47487373415292 0.0
vertex -1.75 3.03108891324554 0.0
endloop
endfacet
facet normal 3.0750902407853e-017 1.73280568870705e-017 -1.0
outer loop
vertex -2.47487373415291 -2.47487373415292 0.0
vertex -1.75 3.03108891324554 0.0
vertex -1.75 -3.03108891324554 0.0
endloop
endfacet
facet normal 3.0750902407853e-017 1.73280568870705e-017 -1.0
outer loop
vertex -1.75 -3.03108891324554 0.0
vertex -1.75 3.03108891324554 0.0
vertex -1.5 9.18485099360515e-017 0.0
endloop
endfacet
facet normal 3.0750902407853e-017 1.73280568870705e-017 -1.0
outer loop
vertex -1.5 9.18485099360515e-017 0.0
vertex -1.75 3.03108891324554 0.0
vertex -1.4488887394336 0.388228567653781 0.0
endloop
endfacet
facet normal 3.0750902407853e-017 1.73280568870705e-017 -1.0
outer loop
vertex -1.4488887394336 0.388228567653781 0.0
vertex -1.75 3.03108891324554 0.0
vertex -0.905866657858821 3.38074039201174 0.0
endloop
endfacet
facet normal 3.0750902407853e-017 1.73280568870705e-017 -1.0
outer loop
vertex -1.4488887394336 0.388228567653781 0.0
vertex -0.905866657858821 3.38074039201174 0.0
vertex -1.29903810567666 0.75 0.0
endloop
endfacet
facet normal 3.0750902407853e-017 1.73280568870705e-017 -1.0
outer loop
vertex -1.29903810567666 0.75 0.0
vertex -0.905866657858821 3.38074039201174 0.0
vertex -1.06066017177982 1.06066017177982 0.0
endloop
endfacet
facet normal 3.0750902407853e-017 1.73280568870705e-017 -1.0
outer loop
vertex -1.06066017177982 1.06066017177982 0.0
vertex -0.905866657858821 3.38074039201174 0.0
vertex -0.75 1.29903810567666 0.0
endloop
endfacet
facet normal 3.0750902407853e-017 1.73280568870705e-017 -1.0
outer loop
vertex -0.75 1.29903810567666 0.0
vertex -0.905866657858821 3.38074039201174 0.0
vertex 9.91469307088396e-016 3.5 0.0
endloop
endfacet
facet normal 3.0750902407853e-017 1.73280568870705e-017 -1.0
outer loop
vertex -0.75 1.29903810567666 0.0
vertex 9.91469307088396e-016 3.5 0.0
vertex -0.388228567653781 1.4488887394336 0.0
endloop
endfacet
facet normal 3.0750902407853e-017 1.73280568870705e-017 -1.0
outer loop
vertex -0.388228567653781 1.4488887394336 0.0
vertex 9.91469307088396e-016 3.5 0.0
vertex 0.0 1.5 0.0
endloop
endfacet
facet normal 3.0750902407853e-017 1.73280568870705e-017 -1.0
outer loop
vertex 0.0 1.5 0.0
vertex 9.91469307088396e-016 3.5 0.0
vertex 0.388228567653782 1.4488887394336 0.0
endloop
endfacet
facet normal 3.0750902407853e-017 1.73280568870705e-017 -1.0
outer loop
vertex 0.388228567653782 1.4488887394336 0.0
vertex 9.91469307088396e-016 3.5 0.0
vertex 0.905866657858823 3.38074039201174 0.0
endloop
endfacet
facet normal 3.0750902407853e-017 1.73280568870705e-017 -1.0
outer loop
vertex 0.388228567653782 1.4488887394336 0.0
vertex 0.905866657858823 3.38074039201174 0.0
vertex 0.750000000000001 1.29903810567666 0.0
endloop
endfacet
facet normal 3.0750902407853e-017 1.73280568870705e-017 -1.0
outer loop
vertex 0.750000000000001 1.29903810567666 0.0
vertex 0.905866657858823 3.38074039201174 0.0
vertex 1.06066017177982 1.06066017177982 0.0
endloop
endfacet
facet normal 3.0750902407853e-017 1.73280568870705e-017 -1.0
outer loop
vertex 1.06066017177982 1.06066017177982 0.0
vertex 0.905866657858823 3.38074039201174 0.0
vertex 1.75 3.03108891324554 0.0
endloop
endfacet
facet normal 3.0750902407853e-017 1.73280568870705e-017 -1.0
outer loop
vertex 1.06066017177982 1.06066017177982 0.0
vertex 1.75 3.03108891324554 0.0
vertex 1.29903810567666 0.749999999999999 0.0
endloop
endfacet
facet normal 3.0750902407853e-017 1.73280568870705e-017 -1.0
outer loop
vertex 1.29903810567666 0.749999999999999 0.0
vertex 1.75 3.03108891324554 0.0
vertex 1.4488887394336 0.38822856765378 0.0
endloop
endfacet
facet normal 3.0750902407853e-017 1.73280568870705e-017 -1.0
outer loop
vertex 1.4488887394336 0.38822856765378 0.0
vertex 1.75 3.03108891324554 0.0
vertex 1.5 -2.75545529808154e-016 0.0
endloop
endfacet
facet normal 3.0750902407853e-017 1.73280568870705e-017 -1.0
outer loop
vertex 1.5 -2.75545529808154e-016 0.0
vertex 1.75 3.03108891324554 0.0
vertex 1.75 -3.03108891324554 0.0
endloop
endfacet
facet normal 3.0750902407853e-017 1.73280568870705e-017 -1.0
outer loop
vertex 1.75 -3.03108891324554 0.0
vertex 1.75 3.03108891324554 0.0
vertex 2.47487373415291 -2.47487373415292 0.0
endloop
endfacet
facet normal 3.0750902407853e-017 1.73280568870705e-017 -1.0
outer loop
vertex 2.47487373415291 -2.47487373415292 0.0
vertex 1.75 3.03108891324554 0.0
vertex 2.47487373415292 2.47487373415292 0.0
endloop
endfacet
facet normal 3.0750902407853e-017 1.73280568870705e-017 -1.0
outer loop
vertex 2.47487373415291 -2.47487373415292 0.0
vertex 2.47487373415292 2.47487373415292 0.0
vertex 3.03108891324553 -1.75 0.0
endloop
endfacet
facet normal 3.0750902407853e-017 1.73280568870705e-017 -1.0
outer loop
vertex 3.03108891324553 -1.75 0.0
vertex 2.47487373415292 2.47487373415292 0.0
vertex 3.03108891324554 1.75 0.0
endloop
endfacet
facet normal 3.0750902407853e-017 1.73280568870705e-017 -1.0
outer loop
vertex 3.03108891324553 -1.75 0.0
vertex 3.03108891324554 1.75 0.0
vertex 13.25 -1.75 3.17246229286638e-015
endloop
endfacet
facet normal 3.0750902407853e-017 1.73280568870705e-017 -1.0
outer loop
vertex 13.25 -1.75 3.17246229286638e-015
vertex 3.03108891324554 1.75 0.0
vertex 13.25 1.74999999999999 2.8199664825479e-015
endloop
endfacet
facet normal 3.0750902407853e-017 1.73280568870705e-017 -1.0
outer loop
vertex 13.25 -1.75 3.17246229286638e-015
vertex 13.25 1.74999999999999 2.8199664825479e-015
vertex 15.0 -3.52495810318487e-015 3.17246229286638e-015
endloop
endfacet
facet normal 3.0750902407853e-017 1.73280568870705e-017 -1.0
outer loop
vertex -1.75 -3.03108891324554 0.0
vertex -1.4488887394336 -0.388228567653781 0.0
vertex -0.905866657858822 -3.38074039201174 0.0
endloop
endfacet
facet normal 3.0750902407853e-017 1.73280568870705e-017 -1.0
outer loop
vertex -1.4488887394336 -0.388228567653781 0.0
vertex -1.75 -3.03108891324554 0.0
vertex -1.5 9.18485099360515e-017 0.0
endloop
endfacet
facet normal 3.0750902407853e-017 1.73280568870705e-017 -1.0
outer loop
vertex -0.905866657858822 -3.38074039201174 0.0
vertex -1.4488887394336 -0.388228567653781 0.0
vertex -1.29903810567666 -0.75 0.0
endloop
endfacet
facet normal 3.0750902407853e-017 1.73280568870705e-017 -1.0
outer loop
vertex -0.905866657858822 -3.38074039201174 0.0
vertex -1.29903810567666 -0.75 0.0
vertex -1.06066017177982 -1.06066017177982 0.0
endloop
endfacet
facet normal 3.0750902407853e-017 1.73280568870705e-017 -1.0
outer loop
vertex -0.905866657858822 -3.38074039201174 0.0
vertex -1.06066017177982 -1.06066017177982 0.0
vertex -0.750000000000001 -1.29903810567666 0.0
endloop
endfacet
facet normal 3.0750902407853e-017 1.73280568870705e-017 -1.0
outer loop
vertex -0.905866657858822 -3.38074039201174 0.0
vertex -0.750000000000001 -1.29903810567666 0.0
vertex -6.4293956955236e-016 -3.5 0.0
endloop
endfacet
facet normal 3.0750902407853e-017 1.73280568870705e-017 -1.0
outer loop
vertex -6.4293956955236e-016 -3.5 0.0
vertex -0.750000000000001 -1.29903810567666 0.0
vertex -0.388228567653782 -1.4488887394336 0.0
endloop
endfacet
facet normal 3.0750902407853e-017 1.73280568870705e-017 -1.0
outer loop
vertex -6.4293956955236e-016 -3.5 0.0
vertex -0.388228567653782 -1.4488887394336 0.0
vertex -1.83697019872103e-016 -1.5 0.0
endloop
endfacet
facet normal 3.0750902407853e-017 1.73280568870705e-017 -1.0
outer loop
vertex -6.4293956955236e-016 -3.5 0.0
vertex -1.83697019872103e-016 -1.5 0.0
vertex 0.905866657858821 -3.38074039201174 0.0
endloop
endfacet
facet normal 3.0750902407853e-017 1.73280568870705e-017 -1.0
outer loop
vertex 0.905866657858821 -3.38074039201174 0.0
vertex -1.83697019872103e-016 -1.5 0.0
vertex 0.388228567653781 -1.4488887394336 0.0
endloop
endfacet
facet normal 3.0750902407853e-017 1.73280568870705e-017 -1.0
outer loop
vertex 0.905866657858821 -3.38074039201174 0.0
vertex 0.388228567653781 -1.4488887394336 0.0
vertex 0.75 -1.29903810567666 0.0
endloop
endfacet
facet normal 3.0750902407853e-017 1.73280568870705e-017 -1.0
outer loop
vertex 0.905866657858821 -3.38074039201174 0.0
vertex 0.75 -1.29903810567666 0.0
vertex 1.06066017177982 -1.06066017177982 0.0
endloop
endfacet
facet normal 3.0750902407853e-017 1.73280568870705e-017 -1.0
outer loop
vertex 0.905866657858821 -3.38074039201174 0.0
vertex 1.06066017177982 -1.06066017177982 0.0
vertex 1.75 -3.03108891324554 0.0
endloop
endfacet
facet normal 3.0750902407853e-017 1.73280568870705e-017 -1.0
outer loop
vertex 1.75 -3.03108891324554 0.0
vertex 1.06066017177982 -1.06066017177982 0.0
vertex 1.29903810567666 -0.750000000000001 0.0
endloop
endfacet
facet normal 3.0750902407853e-017 1.73280568870705e-017 -1.0
outer loop
vertex 1.75 -3.03108891324554 0.0
vertex 1.29903810567666 -0.750000000000001 0.0
vertex 1.4488887394336 -0.388228567653782 0.0
endloop
endfacet
facet normal 3.0750902407853e-017 1.73280568870705e-017 -1.0
outer loop
vertex 1.75 -3.03108891324554 0.0
vertex 1.4488887394336 -0.388228567653782 0.0
vertex 1.5 -2.75545529808154e-016 0.0
endloop
endfacet
facet normal 1.91675396328022e-016 1.0 2.03502735853972e-016
outer loop
vertex 3.03108891324554 1.74999999999999 4.0
vertex 13.25 1.74999999999999 2.8199664825479e-015
vertex 3.03108891324554 1.75 0.0
endloop
endfacet
facet normal 1.91675396328022e-016 1.0 2.03502735853972e-016
outer loop
vertex 13.25 1.74999999999999 2.8199664825479e-015
vertex 3.03108891324554 1.74999999999999 4.0
vertex 13.25 1.74999999999999 9.0
endloop
endfacet
facet normal 0.0 0.0 1.0
outer loop
vertex -13.25 1.75 9.0
vertex -15.0 5.28743715477731e-016 9.0
vertex -13.25 -1.75 9.0
endloop
endfacet
facet normal 0.707106781186547 -0.707106781186548 0.0
outer loop
vertex 15.0 -3.52495810318487e-015 9.0
vertex 13.25 -1.75 3.17246229286638e-015
vertex 15.0 -3.52495810318487e-015 3.17246229286638e-015
endloop
endfacet
facet normal 0.707106781186547 -0.707106781186548 0.0
outer loop
vertex 13.25 -1.75 3.17246229286638e-015
vertex 15.0 -3.52495810318487e-015 9.0
vertex 13.25 -1.75 9.0
endloop
endfacet
facet normal 0.707106781186547 0.707106781186548 -0.0
outer loop
vertex 13.25 1.74999999999999 9.0
vertex 15.0 -3.52495810318487e-015 3.17246229286638e-015
vertex 13.25 1.74999999999999 2.8199664825479e-015
endloop
endfacet
facet normal 0.707106781186547 0.707106781186548 -0.0
outer loop
vertex 15.0 -3.52495810318487e-015 3.17246229286638e-015
vertex 13.25 1.74999999999999 9.0
vertex 15.0 -3.52495810318487e-015 9.0
endloop
endfacet
facet normal 0.0 0.0 1.0
outer loop
vertex 15.0 -3.52495810318487e-015 9.0
vertex 13.25 1.74999999999999 9.0
vertex 13.25 -1.75 9.0
endloop
endfacet
facet normal 0.439500120486782 -1.13427729573976e-016 0.898242530774459
outer loop
vertex -3.03108891324554 -1.75 4.0
vertex -13.25 1.75 9.0
vertex -13.25 -1.75 9.0
endloop
endfacet
facet normal 0.439500120486782 -1.13427729573976e-016 0.898242530774459
outer loop
vertex -13.25 1.75 9.0
vertex -3.03108891324554 -1.75 4.0
vertex -3.03108891324553 1.75 4.0
endloop
endfacet
facet normal -0.0 -0.0 1.0
outer loop
vertex -2.47487373415292 -2.47487373415292 4.0
vertex -3.03108891324553 1.75 4.0
vertex -3.03108891324554 -1.75 4.0
endloop
endfacet
facet normal -0.0 -0.0 1.0
outer loop
vertex -3.03108891324553 1.75 4.0
vertex -2.47487373415292 -2.47487373415292 4.0
vertex -2.47487373415292 2.47487373415292 4.0
endloop
endfacet
facet normal -0.0 -0.0 1.0
outer loop
vertex -2.47487373415292 2.47487373415292 4.0
vertex -2.47487373415292 -2.47487373415292 4.0
vertex -2.3 -8.81239525796218e-016 4.0
endloop
endfacet
facet normal -0.0 -0.0 1.0
outer loop
vertex -2.3 -8.81239525796218e-016 4.0
vertex -2.47487373415292 -2.47487373415292 4.0
vertex -2.22162940046486 -0.595283803735799 4.0
endloop
endfacet
facet normal -0.0 -0.0 1.0
outer loop
vertex -2.22162940046486 -0.595283803735799 4.0
vertex -2.47487373415292 -2.47487373415292 4.0
vertex -1.75 -3.03108891324554 4.0
endloop
endfacet
facet normal -0.0 -0.0 1.0
outer loop
vertex -2.22162940046486 -0.595283803735799 4.0
vertex -1.75 -3.03108891324554 4.0
vertex -1.99185842870421 -1.15 4.0
endloop
endfacet
facet normal -0.0 -0.0 1.0
outer loop
vertex -1.99185842870421 -1.15 4.0
vertex -1.75 -3.03108891324554 4.0
vertex -1.62634559672906 -1.62634559672906 4.0
endloop
endfacet
facet normal -0.0 -0.0 1.0
outer loop
vertex -1.62634559672906 -1.62634559672906 4.0
vertex -1.75 -3.03108891324554 4.0
vertex -0.905866657858821 -3.38074039201174 4.0
endloop
endfacet
facet normal -0.0 -0.0 1.0
outer loop
vertex -1.62634559672906 -1.62634559672906 4.0
vertex -0.905866657858821 -3.38074039201174 4.0
vertex -1.15 -1.99185842870421 4.0
endloop
endfacet
facet normal -0.0 -0.0 1.0
outer loop
vertex -1.15 -1.99185842870421 4.0
vertex -0.905866657858821 -3.38074039201174 4.0
vertex -0.595283803735794 -2.22162940046486 4.0
endloop
endfacet
facet normal -0.0 -0.0 1.0
outer loop
vertex -0.595283803735794 -2.22162940046486 4.0
vertex -0.905866657858821 -3.38074039201174 4.0
vertex 2.11497486191092e-015 -3.5 4.0
endloop
endfacet
facet normal -0.0 -0.0 1.0
outer loop
vertex -0.595283803735794 -2.22162940046486 4.0
vertex 2.11497486191092e-015 -3.5 4.0
vertex 3.34871019802563e-015 -2.3 4.0
endloop
endfacet
facet normal -0.0 -0.0 1.0
outer loop
vertex 3.34871019802563e-015 -2.3 4.0
vertex 2.11497486191092e-015 -3.5 4.0
vertex 0.905866657858824 -3.38074039201174 4.0
endloop
endfacet
facet normal -0.0 -0.0 1.0
outer loop
vertex 3.34871019802563e-015 -2.3 4.0
vertex 0.905866657858824 -3.38074039201174 4.0
vertex 0.5952838037358 -2.22162940046486 4.0
endloop
endfacet
facet normal -0.0 -0.0 1.0
outer loop
vertex 0.5952838037358 -2.22162940046486 4.0
vertex 0.905866657858824 -3.38074039201174 4.0
vertex 1.15 -1.99185842870421 4.0
endloop
endfacet
facet normal -0.0 -0.0 1.0
outer loop
vertex 1.15 -1.99185842870421 4.0
vertex 0.905866657858824 -3.38074039201174 4.0
vertex 1.75 -3.03108891324554 4.0
endloop
endfacet
facet normal -0.0 -0.0 1.0
outer loop
vertex 1.15 -1.99185842870421 4.0
vertex 1.75 -3.03108891324554 4.0
vertex 1.62634559672906 -1.62634559672906 4.0
endloop
endfacet
facet normal -0.0 -0.0 1.0
outer loop
vertex 1.62634559672906 -1.62634559672906 4.0
vertex 1.75 -3.03108891324554 4.0
vertex 1.99185842870421 -1.15 4.0
endloop
endfacet
facet normal -0.0 -0.0 1.0
outer loop
vertex 1.99185842870421 -1.15 4.0
vertex 1.75 -3.03108891324554 4.0
vertex 2.47487373415292 -2.47487373415292 4.0
endloop
endfacet
facet normal -0.0 -0.0 1.0
outer loop
vertex 1.99185842870421 -1.15 4.0
vertex 2.47487373415292 -2.47487373415292 4.0
vertex 2.22162940046486 -0.595283803735798 4.0
endloop
endfacet
facet normal -0.0 -0.0 1.0
outer loop
vertex 2.22162940046486 -0.595283803735798 4.0
vertex 2.47487373415292 -2.47487373415292 4.0
vertex 2.3 -8.81239525796218e-016 4.0
endloop
endfacet
facet normal -0.0 -0.0 1.0
outer loop
vertex -2.47487373415292 2.47487373415292 4.0
vertex -2.22162940046486 0.595283803735797 4.0
vertex -1.75 3.03108891324554 4.0
endloop
endfacet
facet normal -0.0 -0.0 1.0
outer loop
vertex -2.22162940046486 0.595283803735797 4.0
vertex -2.47487373415292 2.47487373415292 4.0
vertex -2.3 -8.81239525796218e-016 4.0
endloop
endfacet
facet normal -0.0 -0.0 1.0
outer loop
vertex -1.75 3.03108891324554 4.0
vertex -2.22162940046486 0.595283803735797 4.0
vertex -1.99185842870421 1.15 4.0
endloop
endfacet
facet normal -0.0 -0.0 1.0
outer loop
vertex -1.75 3.03108891324554 4.0
vertex -1.99185842870421 1.15 4.0
vertex -1.62634559672906 1.62634559672906 4.0
endloop
endfacet
facet normal -0.0 -0.0 1.0
outer loop
vertex -1.75 3.03108891324554 4.0
vertex -1.62634559672906 1.62634559672906 4.0
vertex -0.905866657858822 3.38074039201174 4.0
endloop
endfacet
facet normal -0.0 -0.0 1.0
outer loop
vertex -0.905866657858822 3.38074039201174 4.0
vertex -1.62634559672906 1.62634559672906 4.0
vertex -1.15 1.99185842870421 4.0
endloop
endfacet
facet normal -0.0 -0.0 1.0
outer loop
vertex -0.905866657858822 3.38074039201174 4.0
vertex -1.15 1.99185842870421 4.0
vertex -0.595283803735799 2.22162940046486 4.0
endloop
endfacet
facet normal -0.0 -0.0 1.0
outer loop
vertex -0.905866657858822 3.38074039201174 4.0
vertex -0.595283803735799 2.22162940046486 4.0
vertex 7.04991620636974e-016 3.5 4.0
endloop
endfacet
facet normal -0.0 -0.0 1.0
outer loop
vertex 7.04991620636974e-016 3.5 4.0
vertex -0.595283803735799 2.22162940046486 4.0
vertex -8.81239525796218e-016 2.3 4.0
endloop
endfacet
facet normal -0.0 -0.0 1.0
outer loop
vertex 7.04991620636974e-016 3.5 4.0
vertex -8.81239525796218e-016 2.3 4.0
vertex 0.595283803735797 2.22162940046486 4.0
endloop
endfacet
facet normal -0.0 -0.0 1.0
outer loop
vertex 7.04991620636974e-016 3.5 4.0
vertex 0.595283803735797 2.22162940046486 4.0
vertex 0.905866657858823 3.38074039201174 4.0
endloop
endfacet
facet normal -0.0 -0.0 1.0
outer loop
vertex 0.905866657858823 3.38074039201174 4.0
vertex 0.595283803735797 2.22162940046486 4.0
vertex 1.15 1.99185842870421 4.0
endloop
endfacet
facet normal -0.0 -0.0 1.0
outer loop
vertex 0.905866657858823 3.38074039201174 4.0
vertex 1.15 1.99185842870421 4.0
vertex 1.75 3.03108891324554 4.0
endloop
endfacet
facet normal -0.0 -0.0 1.0
outer loop
vertex 1.75 3.03108891324554 4.0
vertex 1.15 1.99185842870421 4.0
vertex 1.62634559672906 1.62634559672906 4.0
endloop
endfacet
facet normal -0.0 -0.0 1.0
outer loop
vertex 1.75 3.03108891324554 4.0
vertex 1.62634559672906 1.62634559672906 4.0
vertex 1.99185842870421 1.15 4.0
endloop
endfacet
facet normal -0.0 -0.0 1.0
outer loop
vertex 1.75 3.03108891324554 4.0
vertex 1.99185842870421 1.15 4.0
vertex 2.47487373415292 2.47487373415291 4.0
endloop
endfacet
facet normal -0.0 -0.0 1.0
outer loop
vertex 2.47487373415292 2.47487373415291 4.0
vertex 1.99185842870421 1.15 4.0
vertex 2.22162940046486 0.595283803735797 4.0
endloop
endfacet
facet normal -0.0 -0.0 1.0
outer loop
vertex 2.47487373415292 2.47487373415291 4.0
vertex 2.22162940046486 0.595283803735797 4.0
vertex 2.3 -8.81239525796218e-016 4.0
endloop
endfacet
facet normal -0.0 -0.0 1.0
outer loop
vertex 2.47487373415292 2.47487373415291 4.0
vertex 2.3 -8.81239525796218e-016 4.0
vertex 2.47487373415292 -2.47487373415292 4.0
endloop
endfacet
facet normal -0.0 -0.0 1.0
outer loop
vertex 2.47487373415292 2.47487373415291 4.0
vertex 2.47487373415292 -2.47487373415292 4.0
vertex 3.03108891324553 -1.75 4.0
endloop
endfacet
facet normal -0.0 -0.0 1.0
outer loop
vertex 2.47487373415292 2.47487373415291 4.0
vertex 3.03108891324553 -1.75 4.0
vertex 3.03108891324554 1.74999999999999 4.0
endloop
endfacet
facet normal -0.439500120486781 2.40919442332283e-016 0.898242530774459
outer loop
vertex 13.25 -1.75 9.0
vertex 3.03108891324554 1.74999999999999 4.0
vertex 3.03108891324553 -1.75 4.0
endloop
endfacet
facet normal -0.439500120486781 2.40919442332283e-016 0.898242530774459
outer loop
vertex 3.03108891324554 1.74999999999999 4.0
vertex 13.25 -1.75 9.0
vertex 13.25 1.74999999999999 9.0
endloop
endfacet
endsolid home-mount-wing-nut
