solid home-mount-base-rev-2
facet normal -0.965925826289067 -0.258819045102525 0.0
outer loop
vertex -7.24088900845312 0.310582854123032 2.0
vertex -7.2 5.46368505993655e-015 0.0
vertex -7.2 5.46368505993655e-015 2.0
endloop
endfacet
facet normal -1.0 5.79222143217049e-016 0.0
outer loop
vertex -7.2 5.46368505993655e-015 0.0
vertex -7.24088900845312 0.310582854123032 2.0
vertex -7.24088900845312 0.310582854123032 0.0
endloop
endfacet
facet normal -0.707106781186547 -0.707106781186548 0.0
outer loop
vertex -7.55147186257614 0.848528137423863 2.0
vertex -7.36076951545867 0.600000000000006 0.0
vertex -7.36076951545867 0.600000000000006 2.0
endloop
endfacet
facet normal -0.866025403784437 -0.500000000000003 0.0
outer loop
vertex -7.36076951545867 0.600000000000006 0.0
vertex -7.55147186257614 0.848528137423863 2.0
vertex -7.55147186257614 0.848528137423863 0.0
endloop
endfacet
facet normal -2.80699961712877e-015 1.0 0.0
outer loop
vertex -8.4 -1.19999999999999 2.0
vertex -8.08941714587698 -1.15911099154688 0.0
vertex -8.4 -1.19999999999999 0.0
endloop
endfacet
facet normal -0.25881904510252 0.965925826289068 0.0
outer loop
vertex -8.08941714587698 -1.15911099154688 0.0
vertex -8.4 -1.19999999999999 2.0
vertex -8.08941714587698 -1.15911099154688 2.0
endloop
endfacet
facet normal -0.866025403784437 -0.500000000000003 0.0
outer loop
vertex -7.36076951545867 0.600000000000006 2.0
vertex -7.24088900845312 0.310582854123032 0.0
vertex -7.24088900845312 0.310582854123032 2.0
endloop
endfacet
facet normal -0.965925826289067 -0.258819045102525 0.0
outer loop
vertex -7.24088900845312 0.310582854123032 0.0
vertex -7.36076951545867 0.600000000000006 2.0
vertex -7.36076951545867 0.600000000000006 0.0
endloop
endfacet
facet normal -0.707106781186547 -0.707106781186548 0.0
outer loop
vertex -7.55147186257614 0.848528137423863 2.0
vertex -7.8 1.03923048454133 0.0
vertex -7.55147186257614 0.848528137423863 0.0
endloop
endfacet
facet normal -0.5 -0.866025403784439 0.0
outer loop
vertex -7.8 1.03923048454133 0.0
vertex -7.55147186257614 0.848528137423863 2.0
vertex -7.8 1.03923048454133 2.0
endloop
endfacet
facet normal 0.866025403784439 0.5 0.0
outer loop
vertex -9.43923048454133 -0.599999999999995 0.0
vertex -9.24852813742386 -0.848528137423851 2.0
vertex -9.24852813742386 -0.848528137423851 0.0
endloop
endfacet
facet normal 0.707106781186548 0.707106781186547 0.0
outer loop
vertex -9.24852813742386 -0.848528137423851 2.0
vertex -9.43923048454133 -0.599999999999995 0.0
vertex -9.43923048454133 -0.599999999999995 2.0
endloop
endfacet
facet normal -0.25881904510252 0.965925826289068 0.0
outer loop
vertex -8.08941714587698 -1.15911099154688 2.0
vertex -7.8 -1.03923048454132 0.0
vertex -8.08941714587698 -1.15911099154688 0.0
endloop
endfacet
facet normal -0.5 0.866025403784438 0.0
outer loop
vertex -7.8 -1.03923048454132 0.0
vertex -8.08941714587698 -1.15911099154688 2.0
vertex -7.8 -1.03923048454132 2.0
endloop
endfacet
facet normal 0.965925826289069 -0.25881904510252 0.0
outer loop
vertex -9.55911099154688 0.310582854123031 0.0
vertex -9.6 5.46368505993655e-015 2.0
vertex -9.6 5.46368505993655e-015 0.0
endloop
endfacet
facet normal 1.0 0.0 0.0
outer loop
vertex -9.6 5.46368505993655e-015 2.0
vertex -9.55911099154688 0.310582854123031 0.0
vertex -9.55911099154688 0.310582854123031 2.0
endloop
endfacet
facet normal -0.258819045102522 -0.965925826289068 0.0
outer loop
vertex -8.08941714587698 1.15911099154689 2.0
vertex -8.4 1.20000000000001 0.0
vertex -8.08941714587698 1.15911099154689 0.0
endloop
endfacet
facet normal -5.79222143217049e-016 -1.0 0.0
outer loop
vertex -8.4 1.20000000000001 0.0
vertex -8.08941714587698 1.15911099154689 2.0
vertex -8.4 1.20000000000001 2.0
endloop
endfacet
facet normal -5.79222143217049e-016 -1.0 0.0
outer loop
vertex -8.4 1.20000000000001 2.0
vertex -8.71058285412303 1.15911099154689 0.0
vertex -8.4 1.20000000000001 0.0
endloop
endfacet
facet normal 0.258819045102522 -0.965925826289068 0.0
outer loop
vertex -8.71058285412303 1.15911099154689 0.0
vertex -8.4 1.20000000000001 2.0
vertex -8.71058285412303 1.15911099154689 2.0
endloop
endfacet
facet normal 0.707106781186548 -0.707106781186548 0.0
outer loop
vertex -9.24852813742386 0.848528137423862 0.0
vertex -9.43923048454133 0.600000000000006 2.0
vertex -9.43923048454133 0.600000000000006 0.0
endloop
endfacet
facet normal 0.866025403784439 -0.5 0.0
outer loop
vertex -9.43923048454133 0.600000000000006 2.0
vertex -9.24852813742386 0.848528137423862 0.0
vertex -9.24852813742386 0.848528137423862 2.0
endloop
endfacet
facet normal 0.707106781186548 0.707106781186547 0.0
outer loop
vertex -9.24852813742386 -0.848528137423851 2.0
vertex -9.0 -1.03923048454132 0.0
vertex -9.24852813742386 -0.848528137423851 0.0
endloop
endfacet
facet normal 0.500000000000002 0.866025403784437 0.0
outer loop
vertex -9.0 -1.03923048454132 0.0
vertex -9.24852813742386 -0.848528137423851 2.0
vertex -9.0 -1.03923048454132 2.0
endloop
endfacet
facet normal -0.965925826289069 0.25881904510252 0.0
outer loop
vertex -7.24088900845312 -0.310582854123018 2.0
vertex -7.36076951545867 -0.599999999999994 0.0
vertex -7.36076951545867 -0.599999999999994 2.0
endloop
endfacet
facet normal -0.866025403784437 0.500000000000002 0.0
outer loop
vertex -7.36076951545867 -0.599999999999994 0.0
vertex -7.24088900845312 -0.310582854123018 2.0
vertex -7.24088900845312 -0.310582854123018 0.0
endloop
endfacet
facet normal 0.965925826289069 0.25881904510252 0.0
outer loop
vertex -9.55911099154688 -0.31058285412302 0.0
vertex -9.43923048454133 -0.599999999999995 2.0
vertex -9.43923048454133 -0.599999999999995 0.0
endloop
endfacet
facet normal 0.866025403784439 0.5 0.0
outer loop
vertex -9.43923048454133 -0.599999999999995 2.0
vertex -9.55911099154688 -0.31058285412302 0.0
vertex -9.55911099154688 -0.31058285412302 2.0
endloop
endfacet
facet normal -0.866025403784437 0.500000000000002 0.0
outer loop
vertex -7.36076951545867 -0.599999999999994 2.0
vertex -7.55147186257614 -0.848528137423851 0.0
vertex -7.55147186257614 -0.848528137423851 2.0
endloop
endfacet
facet normal -0.707106781186546 0.707106781186549 0.0
outer loop
vertex -7.55147186257614 -0.848528137423851 0.0
vertex -7.36076951545867 -0.599999999999994 2.0
vertex -7.36076951545867 -0.599999999999994 0.0
endloop
endfacet
facet normal -0.5 -0.866025403784439 0.0
outer loop
vertex -7.8 1.03923048454133 2.0
vertex -8.08941714587698 1.15911099154689 0.0
vertex -7.8 1.03923048454133 0.0
endloop
endfacet
facet normal -0.258819045102522 -0.965925826289068 0.0
outer loop
vertex -8.08941714587698 1.15911099154689 0.0
vertex -7.8 1.03923048454133 2.0
vertex -8.08941714587698 1.15911099154689 2.0
endloop
endfacet
facet normal 0.866025403784439 -0.5 0.0
outer loop
vertex -9.43923048454133 0.600000000000006 0.0
vertex -9.55911099154688 0.310582854123031 2.0
vertex -9.55911099154688 0.310582854123031 0.0
endloop
endfacet
facet normal 0.965925826289069 -0.25881904510252 0.0
outer loop
vertex -9.55911099154688 0.310582854123031 2.0
vertex -9.43923048454133 0.600000000000006 0.0
vertex -9.43923048454133 0.600000000000006 2.0
endloop
endfacet
facet normal 1.0 0.0 0.0
outer loop
vertex -9.6 5.46368505993655e-015 0.0
vertex -9.55911099154688 -0.31058285412302 2.0
vertex -9.55911099154688 -0.31058285412302 0.0
endloop
endfacet
facet normal 0.965925826289069 0.25881904510252 0.0
outer loop
vertex -9.55911099154688 -0.31058285412302 2.0
vertex -9.6 5.46368505993655e-015 0.0
vertex -9.6 5.46368505993655e-015 2.0
endloop
endfacet
facet normal 0.500000000000001 -0.866025403784438 0.0
outer loop
vertex -9.0 1.03923048454133 2.0
vertex -9.24852813742386 0.848528137423862 0.0
vertex -9.0 1.03923048454133 0.0
endloop
endfacet
facet normal 0.707106781186548 -0.707106781186548 0.0
outer loop
vertex -9.24852813742386 0.848528137423862 0.0
vertex -9.0 1.03923048454133 2.0
vertex -9.24852813742386 0.848528137423862 2.0
endloop
endfacet
facet normal 0.258819045102522 -0.965925826289068 0.0
outer loop
vertex -8.71058285412303 1.15911099154689 2.0
vertex -9.0 1.03923048454133 0.0
vertex -8.71058285412303 1.15911099154689 0.0
endloop
endfacet
facet normal 0.500000000000001 -0.866025403784438 0.0
outer loop
vertex -9.0 1.03923048454133 0.0
vertex -8.71058285412303 1.15911099154689 2.0
vertex -9.0 1.03923048454133 2.0
endloop
endfacet
facet normal 0.25881904510252 0.965925826289069 0.0
outer loop
vertex -8.71058285412303 -1.15911099154688 2.0
vertex -8.4 -1.19999999999999 0.0
vertex -8.71058285412303 -1.15911099154688 0.0
endloop
endfacet
facet normal -2.80699961712877e-015 1.0 0.0
outer loop
vertex -8.4 -1.19999999999999 0.0
vertex -8.71058285412303 -1.15911099154688 2.0
vertex -8.4 -1.19999999999999 2.0
endloop
endfacet
facet normal 0.707106781186547 -0.0 0.707106781186548
outer loop
vertex 14.0 -5.99999999999999 0.0
vertex 12.0 6.00000000000001 2.0
vertex 12.0 -5.99999999999999 2.0
endloop
endfacet
facet normal 0.707106781186547 -0.0 0.707106781186548
outer loop
vertex 12.0 6.00000000000001 2.0
vertex 14.0 -5.99999999999999 0.0
vertex 14.0 6.00000000000001 0.0
endloop
endfacet
facet normal -0.707106781186548 0.0 0.707106781186547
outer loop
vertex -12.0 6.00000000000001 2.0
vertex -14.0 -5.99999999999999 0.0
vertex -12.0 -5.99999999999999 2.0
endloop
endfacet
facet normal -0.707106781186548 0.0 0.707106781186547
outer loop
vertex -14.0 -5.99999999999999 0.0
vertex -12.0 6.00000000000001 2.0
vertex -14.0 6.00000000000001 0.0
endloop
endfacet
facet normal 0.0 -1.0 0.0
outer loop
vertex 12.0 -5.99999999999999 2.0
vertex -14.0 -5.99999999999999 0.0
vertex 14.0 -5.99999999999999 0.0
endloop
endfacet
facet normal 0.0 -1.0 0.0
outer loop
vertex -14.0 -5.99999999999999 0.0
vertex 12.0 -5.99999999999999 2.0
vertex -12.0 -5.99999999999999 2.0
endloop
endfacet
facet normal 0.0 1.0 0.0
outer loop
vertex -12.0 6.00000000000001 2.0
vertex 14.0 6.00000000000001 0.0
vertex -14.0 6.00000000000001 0.0
endloop
endfacet
facet normal 0.0 1.0 0.0
outer loop
vertex 14.0 6.00000000000001 0.0
vertex -12.0 6.00000000000001 2.0
vertex 12.0 6.00000000000001 2.0
endloop
endfacet
facet normal 0.499999999999999 0.866025403784439 0.0
outer loop
vertex 7.8 -1.03923048454132 2.0
vertex 8.08941714587697 -1.15911099154688 3.52495810318487e-015
vertex 7.8 -1.03923048454132 3.52495810318487e-015
endloop
endfacet
facet normal 0.25881904510252 0.965925826289068 0.0
outer loop
vertex 8.08941714587697 -1.15911099154688 3.52495810318487e-015
vertex 7.8 -1.03923048454132 2.0
vertex 8.08941714587697 -1.15911099154688 2.0
endloop
endfacet
facet normal 0.499999999999999 -0.866025403784439 0.0
outer loop
vertex 7.8 1.03923048454133 2.0
vertex 7.55147186257614 0.848528137423862 3.52495810318487e-015
vertex 7.8 1.03923048454133 3.52495810318487e-015
endloop
endfacet
facet normal 0.707106781186548 -0.707106781186547 0.0
outer loop
vertex 7.55147186257614 0.848528137423862 3.52495810318487e-015
vertex 7.8 1.03923048454133 2.0
vertex 7.55147186257614 0.848528137423862 2.0
endloop
endfacet
facet normal -0.965925826289069 -0.25881904510252 0.0
outer loop
vertex 9.55911099154688 0.310582854123031 2.0
vertex 9.6 5.46368505993655e-015 3.52495810318487e-015
vertex 9.6 5.46368505993655e-015 2.0
endloop
endfacet
facet normal -1.0 2.76244406765054e-016 0.0
outer loop
vertex 9.6 5.46368505993655e-015 3.52495810318487e-015
vertex 9.55911099154688 0.310582854123031 2.0
vertex 9.55911099154688 0.310582854123031 3.52495810318487e-015
endloop
endfacet
facet normal -0.499999999999999 0.866025403784439 0.0
outer loop
vertex 8.99999999999999 -1.03923048454132 2.0
vertex 9.24852813742385 -0.848528137423851 3.52495810318487e-015
vertex 8.99999999999999 -1.03923048454132 3.52495810318487e-015
endloop
endfacet
facet normal -0.707106781186547 0.707106781186548 0.0
outer loop
vertex 9.24852813742385 -0.848528137423851 3.52495810318487e-015
vertex 8.99999999999999 -1.03923048454132 2.0
vertex 9.24852813742385 -0.848528137423851 2.0
endloop
endfacet
facet normal 0.866025403784439 0.5 0.0
outer loop
vertex 7.36076951545867 -0.599999999999995 3.52495810318487e-015
vertex 7.55147186257614 -0.848528137423851 2.0
vertex 7.55147186257614 -0.848528137423851 3.52495810318487e-015
endloop
endfacet
facet normal 0.707106781186548 0.707106781186547 0.0
outer loop
vertex 7.55147186257614 -0.848528137423851 2.0
vertex 7.36076951545867 -0.599999999999995 3.52495810318487e-015
vertex 7.36076951545867 -0.599999999999995 2.0
endloop
endfacet
facet normal 0.25881904510252 -0.965925826289068 0.0
outer loop
vertex 8.08941714587697 1.15911099154689 2.0
vertex 7.8 1.03923048454133 3.52495810318487e-015
vertex 8.08941714587697 1.15911099154689 3.52495810318487e-015
endloop
endfacet
facet normal 0.499999999999999 -0.866025403784439 0.0
outer loop
vertex 7.8 1.03923048454133 3.52495810318487e-015
vertex 8.08941714587697 1.15911099154689 2.0
vertex 7.8 1.03923048454133 2.0
endloop
endfacet
facet normal -0.707106781186545 -0.70710678118655 0.0
outer loop
vertex 9.24852813742385 0.848528137423863 2.0
vertex 8.99999999999999 1.03923048454133 3.52495810318487e-015
vertex 9.24852813742385 0.848528137423863 3.52495810318487e-015
endloop
endfacet
facet normal -0.499999999999997 -0.86602540378444 0.0
outer loop
vertex 8.99999999999999 1.03923048454133 3.52495810318487e-015
vertex 9.24852813742385 0.848528137423863 2.0
vertex 8.99999999999999 1.03923048454133 2.0
endloop
endfacet
facet normal -0.499999999999997 -0.86602540378444 0.0
outer loop
vertex 8.99999999999999 1.03923048454133 2.0
vertex 8.71058285412302 1.15911099154689 3.52495810318487e-015
vertex 8.99999999999999 1.03923048454133 3.52495810318487e-015
endloop
endfacet
facet normal -0.25881904510252 -0.965925826289068 0.0
outer loop
vertex 8.71058285412302 1.15911099154689 3.52495810318487e-015
vertex 8.99999999999999 1.03923048454133 2.0
vertex 8.71058285412302 1.15911099154689 2.0
endloop
endfacet
facet normal 0.25881904510252 0.965925826289068 0.0
outer loop
vertex 8.08941714587697 -1.15911099154688 2.0
vertex 8.4 -1.19999999999999 3.52495810318487e-015
vertex 8.08941714587697 -1.15911099154688 3.52495810318487e-015
endloop
endfacet
facet normal 0.0 1.0 0.0
outer loop
vertex 8.4 -1.19999999999999 3.52495810318487e-015
vertex 8.08941714587697 -1.15911099154688 2.0
vertex 8.4 -1.19999999999999 2.0
endloop
endfacet
facet normal -0.866025403784437 -0.500000000000002 0.0
outer loop
vertex 9.43923048454132 0.600000000000006 2.0
vertex 9.55911099154688 0.310582854123031 3.52495810318487e-015
vertex 9.55911099154688 0.310582854123031 2.0
endloop
endfacet
facet normal -0.965925826289069 -0.25881904510252 0.0
outer loop
vertex 9.55911099154688 0.310582854123031 3.52495810318487e-015
vertex 9.43923048454132 0.600000000000006 2.0
vertex 9.43923048454132 0.600000000000006 3.52495810318487e-015
endloop
endfacet
facet normal -0.25881904510252 0.965925826289068 0.0
outer loop
vertex 8.71058285412302 -1.15911099154688 2.0
vertex 8.99999999999999 -1.03923048454132 3.52495810318487e-015
vertex 8.71058285412302 -1.15911099154688 3.52495810318487e-015
endloop
endfacet
facet normal -0.499999999999999 0.866025403784439 0.0
outer loop
vertex 8.99999999999999 -1.03923048454132 3.52495810318487e-015
vertex 8.71058285412302 -1.15911099154688 2.0
vertex 8.99999999999999 -1.03923048454132 2.0
endloop
endfacet
facet normal 0.0 1.0 0.0
outer loop
vertex 8.4 -1.19999999999999 2.0
vertex 8.71058285412302 -1.15911099154688 3.52495810318487e-015
vertex 8.4 -1.19999999999999 3.52495810318487e-015
endloop
endfacet
facet normal -0.25881904510252 0.965925826289068 0.0
outer loop
vertex 8.71058285412302 -1.15911099154688 3.52495810318487e-015
vertex 8.4 -1.19999999999999 2.0
vertex 8.71058285412302 -1.15911099154688 2.0
endloop
endfacet
facet normal -0.965925826289068 0.25881904510252 0.0
outer loop
vertex 9.55911099154688 -0.310582854123018 2.0
vertex 9.43923048454132 -0.599999999999993 3.52495810318487e-015
vertex 9.43923048454132 -0.599999999999993 2.0
endloop
endfacet
facet normal -0.866025403784438 0.500000000000002 0.0
outer loop
vertex 9.43923048454132 -0.599999999999993 3.52495810318487e-015
vertex 9.55911099154688 -0.310582854123018 2.0
vertex 9.55911099154688 -0.310582854123018 3.52495810318487e-015
endloop
endfacet
facet normal -1.0 2.76244406765054e-016 0.0
outer loop
vertex 9.6 5.46368505993655e-015 2.0
vertex 9.55911099154688 -0.310582854123018 3.52495810318487e-015
vertex 9.55911099154688 -0.310582854123018 2.0
endloop
endfacet
facet normal -0.965925826289068 0.25881904510252 0.0
outer loop
vertex 9.55911099154688 -0.310582854123018 3.52495810318487e-015
vertex 9.6 5.46368505993655e-015 2.0
vertex 9.6 5.46368505993655e-015 3.52495810318487e-015
endloop
endfacet
facet normal 0.707106781186548 -0.707106781186547 0.0
outer loop
vertex 7.55147186257614 0.848528137423862 3.52495810318487e-015
vertex 7.36076951545867 0.600000000000006 2.0
vertex 7.36076951545867 0.600000000000006 3.52495810318487e-015
endloop
endfacet
facet normal 0.866025403784439 -0.5 0.0
outer loop
vertex 7.36076951545867 0.600000000000006 2.0
vertex 7.55147186257614 0.848528137423862 3.52495810318487e-015
vertex 7.55147186257614 0.848528137423862 2.0
endloop
endfacet
facet normal 0.965925826289069 -0.25881904510252 0.0
outer loop
vertex 7.24088900845311 0.310582854123031 3.52495810318487e-015
vertex 7.2 5.46368505993655e-015 2.0
vertex 7.2 5.46368505993655e-015 3.52495810318487e-015
endloop
endfacet
facet normal 1.0 0.0 0.0
outer loop
vertex 7.2 5.46368505993655e-015 2.0
vertex 7.24088900845311 0.310582854123031 3.52495810318487e-015
vertex 7.24088900845311 0.310582854123031 2.0
endloop
endfacet
facet normal 0.0 -1.0 0.0
outer loop
vertex 8.4 1.2 2.0
vertex 8.08941714587697 1.15911099154689 3.52495810318487e-015
vertex 8.4 1.2 3.52495810318487e-015
endloop
endfacet
facet normal 0.25881904510252 -0.965925826289068 0.0
outer loop
vertex 8.08941714587697 1.15911099154689 3.52495810318487e-015
vertex 8.4 1.2 2.0
vertex 8.08941714587697 1.15911099154689 2.0
endloop
endfacet
facet normal 1.0 0.0 0.0
outer loop
vertex 7.2 5.46368505993655e-015 3.52495810318487e-015
vertex 7.24088900845311 -0.31058285412302 2.0
vertex 7.24088900845311 -0.31058285412302 3.52495810318487e-015
endloop
endfacet
facet normal 0.965925826289069 0.25881904510252 0.0
outer loop
vertex 7.24088900845311 -0.31058285412302 2.0
vertex 7.2 5.46368505993655e-015 3.52495810318487e-015
vertex 7.2 5.46368505993655e-015 2.0
endloop
endfacet
facet normal -0.25881904510252 -0.965925826289068 0.0
outer loop
vertex 8.71058285412302 1.15911099154689 2.0
vertex 8.4 1.2 3.52495810318487e-015
vertex 8.71058285412302 1.15911099154689 3.52495810318487e-015
endloop
endfacet
facet normal 0.0 -1.0 0.0
outer loop
vertex 8.4 1.2 3.52495810318487e-015
vertex 8.71058285412302 1.15911099154689 2.0
vertex 8.4 1.2 2.0
endloop
endfacet
facet normal 0.965925826289069 0.25881904510252 0.0
outer loop
vertex 7.24088900845311 -0.31058285412302 3.52495810318487e-015
vertex 7.36076951545867 -0.599999999999995 2.0
vertex 7.36076951545867 -0.599999999999995 3.52495810318487e-015
endloop
endfacet
facet normal 0.866025403784439 0.5 0.0
outer loop
vertex 7.36076951545867 -0.599999999999995 2.0
vertex 7.24088900845311 -0.31058285412302 3.52495810318487e-015
vertex 7.24088900845311 -0.31058285412302 2.0
endloop
endfacet
facet normal -0.866025403784438 0.500000000000002 0.0
outer loop
vertex 9.43923048454132 -0.599999999999993 2.0
vertex 9.24852813742385 -0.848528137423851 3.52495810318487e-015
vertex 9.24852813742385 -0.848528137423851 2.0
endloop
endfacet
facet normal -0.707106781186547 0.707106781186548 0.0
outer loop
vertex 9.24852813742385 -0.848528137423851 3.52495810318487e-015
vertex 9.43923048454132 -0.599999999999993 2.0
vertex 9.43923048454132 -0.599999999999993 3.52495810318487e-015
endloop
endfacet
facet normal -0.707106781186545 -0.70710678118655 0.0
outer loop
vertex 9.24852813742385 0.848528137423863 2.0
vertex 9.43923048454132 0.600000000000006 3.52495810318487e-015
vertex 9.43923048454132 0.600000000000006 2.0
endloop
endfacet
facet normal -0.866025403784437 -0.500000000000002 0.0
outer loop
vertex 9.43923048454132 0.600000000000006 3.52495810318487e-015
vertex 9.24852813742385 0.848528137423863 2.0
vertex 9.24852813742385 0.848528137423863 3.52495810318487e-015
endloop
endfacet
facet normal 0.707106781186548 0.707106781186547 0.0
outer loop
vertex 7.55147186257614 -0.848528137423851 2.0
vertex 7.8 -1.03923048454132 3.52495810318487e-015
vertex 7.55147186257614 -0.848528137423851 3.52495810318487e-015
endloop
endfacet
facet normal 0.499999999999999 0.866025403784439 0.0
outer loop
vertex 7.8 -1.03923048454132 3.52495810318487e-015
vertex 7.55147186257614 -0.848528137423851 2.0
vertex 7.8 -1.03923048454132 2.0
endloop
endfacet
facet normal 0.866025403784439 -0.5 0.0
outer loop
vertex 7.36076951545867 0.600000000000006 3.52495810318487e-015
vertex 7.24088900845311 0.310582854123031 2.0
vertex 7.24088900845311 0.310582854123031 3.52495810318487e-015
endloop
endfacet
facet normal 0.965925826289069 -0.25881904510252 0.0
outer loop
vertex 7.24088900845311 0.310582854123031 2.0
vertex 7.36076951545867 0.600000000000006 3.52495810318487e-015
vertex 7.36076951545867 0.600000000000006 2.0
endloop
endfacet
facet normal -1.0 5.79222143217049e-016 0.0
outer loop
vertex -7.2 5.46368505993655e-015 2.0
vertex -7.24088900845312 -0.310582854123018 0.0
vertex -7.24088900845312 -0.310582854123018 2.0
endloop
endfacet
facet normal -0.965925826289069 0.25881904510252 0.0
outer loop
vertex -7.24088900845312 -0.310582854123018 0.0
vertex -7.2 5.46368505993655e-015 2.0
vertex -7.2 5.46368505993655e-015 0.0
endloop
endfacet
facet normal 0.500000000000002 0.866025403784437 0.0
outer loop
vertex -9.0 -1.03923048454132 2.0
vertex -8.71058285412303 -1.15911099154688 0.0
vertex -9.0 -1.03923048454132 0.0
endloop
endfacet
facet normal 0.25881904510252 0.965925826289069 0.0
outer loop
vertex -8.71058285412303 -1.15911099154688 0.0
vertex -9.0 -1.03923048454132 2.0
vertex -8.71058285412303 -1.15911099154688 2.0
endloop
endfacet
facet normal -0.5 0.866025403784438 0.0
outer loop
vertex -7.8 -1.03923048454132 2.0
vertex -7.55147186257614 -0.848528137423851 0.0
vertex -7.8 -1.03923048454132 0.0
endloop
endfacet
facet normal -0.707106781186546 0.707106781186549 0.0
outer loop
vertex -7.55147186257614 -0.848528137423851 0.0
vertex -7.8 -1.03923048454132 2.0
vertex -7.55147186257614 -0.848528137423851 2.0
endloop
endfacet
facet normal 0.0 0.0 -1.0
outer loop
vertex -5.2 4.00000000000001 -5.0
vertex -2.07846096908265 1.2 -5.0
vertex -5.2 -3.99999999999999 -5.0
endloop
endfacet
facet normal 0.0 0.0 -1.0
outer loop
vertex -2.07846096908265 1.2 -5.0
vertex -5.2 4.00000000000001 -5.0
vertex -1.69705627484771 1.69705627484772 -5.0
endloop
endfacet
facet normal 0.0 0.0 -1.0
outer loop
vertex -1.69705627484771 1.69705627484772 -5.0
vertex -5.2 4.00000000000001 -5.0
vertex -1.2 2.07846096908266 -5.0
endloop
endfacet
facet normal 0.0 0.0 -1.0
outer loop
vertex -1.2 2.07846096908266 -5.0
vertex -5.2 4.00000000000001 -5.0
vertex -0.621165708246051 2.31822198309377 -5.0
endloop
endfacet
facet normal 0.0 0.0 -1.0
outer loop
vertex -0.621165708246051 2.31822198309377 -5.0
vertex -5.2 4.00000000000001 -5.0
vertex 5.2 4.00000000000001 -5.0
endloop
endfacet
facet normal 0.0 0.0 -1.0
outer loop
vertex -5.2 -3.99999999999999 -5.0
vertex -2.07846096908265 1.2 -5.0
vertex -2.31822198309377 0.621165708246049 -5.0
endloop
endfacet
facet normal 0.0 0.0 -1.0
outer loop
vertex -5.2 -3.99999999999999 -5.0
vertex -2.31822198309377 0.621165708246049 -5.0
vertex -2.4 1.76247905159244e-016 -5.0
endloop
endfacet
facet normal 0.0 0.0 -1.0
outer loop
vertex -0.621165708246051 2.31822198309377 -5.0
vertex 5.2 4.00000000000001 -5.0
vertex -1.76247905159244e-015 2.40000000000001 -5.0
endloop
endfacet
facet normal 0.0 0.0 -1.0
outer loop
vertex -1.76247905159244e-015 2.40000000000001 -5.0
vertex 5.2 4.00000000000001 -5.0
vertex 0.621165708246048 2.31822198309377 -5.0
endloop
endfacet
facet normal 0.0 0.0 -1.0
outer loop
vertex 0.621165708246048 2.31822198309377 -5.0
vertex 5.2 4.00000000000001 -5.0
vertex 1.2 2.07846096908266 -5.0
endloop
endfacet
facet normal 0.0 0.0 -1.0
outer loop
vertex 1.2 2.07846096908266 -5.0
vertex 5.2 4.00000000000001 -5.0
vertex 1.69705627484771 1.69705627484772 -5.0
endloop
endfacet
facet normal 0.0 0.0 -1.0
outer loop
vertex 1.69705627484771 1.69705627484772 -5.0
vertex 5.2 4.00000000000001 -5.0
vertex 2.07846096908265 1.20000000000001 -5.0
endloop
endfacet
facet normal 0.0 0.0 -1.0
outer loop
vertex 2.07846096908265 1.20000000000001 -5.0
vertex 5.2 4.00000000000001 -5.0
vertex 2.31822198309376 0.621165708246056 -5.0
endloop
endfacet
facet normal 0.0 0.0 -1.0
outer loop
vertex 2.31822198309376 0.621165708246056 -5.0
vertex 5.2 4.00000000000001 -5.0
vertex 2.4 6.25680063315315e-015 -5.0
endloop
endfacet
facet normal 0.0 0.0 -1.0
outer loop
vertex -5.2 -3.99999999999999 -5.0
vertex -0.621165708246048 -2.31822198309376 -5.0
vertex 5.2 -3.99999999999999 -5.0
endloop
endfacet
facet normal 0.0 0.0 -1.0
outer loop
vertex -0.621165708246048 -2.31822198309376 -5.0
vertex -5.2 -3.99999999999999 -5.0
vertex -1.2 -2.07846096908265 -5.0
endloop
endfacet
facet normal 0.0 0.0 -1.0
outer loop
vertex -1.2 -2.07846096908265 -5.0
vertex -5.2 -3.99999999999999 -5.0
vertex -1.69705627484771 -1.69705627484771 -5.0
endloop
endfacet
facet normal 0.0 0.0 -1.0
outer loop
vertex -1.69705627484771 -1.69705627484771 -5.0
vertex -5.2 -3.99999999999999 -5.0
vertex -2.07846096908265 -1.2 -5.0
endloop
endfacet
facet normal 0.0 0.0 -1.0
outer loop
vertex -2.07846096908265 -1.2 -5.0
vertex -5.2 -3.99999999999999 -5.0
vertex -2.31822198309376 -0.621165708246049 -5.0
endloop
endfacet
facet normal 0.0 0.0 -1.0
outer loop
vertex -2.31822198309376 -0.621165708246049 -5.0
vertex -5.2 -3.99999999999999 -5.0
vertex -2.4 1.76247905159244e-016 -5.0
endloop
endfacet
facet normal 0.0 0.0 -1.0
outer loop
vertex 5.2 -3.99999999999999 -5.0
vertex -0.621165708246048 -2.31822198309376 -5.0
vertex 8.81239525796218e-016 -2.39999999999999 -5.0
endloop
endfacet
facet normal 0.0 0.0 -1.0
outer loop
vertex 5.2 -3.99999999999999 -5.0
vertex 8.81239525796218e-016 -2.39999999999999 -5.0
vertex 0.62116570824605 -2.31822198309376 -5.0
endloop
endfacet
facet normal 0.0 0.0 -1.0
outer loop
vertex 5.2 -3.99999999999999 -5.0
vertex 0.62116570824605 -2.31822198309376 -5.0
vertex 1.2 -2.07846096908265 -5.0
endloop
endfacet
facet normal 0.0 0.0 -1.0
outer loop
vertex 5.2 -3.99999999999999 -5.0
vertex 1.2 -2.07846096908265 -5.0
vertex 1.69705627484771 -1.69705627484771 -5.0
endloop
endfacet
facet normal 0.0 0.0 -1.0
outer loop
vertex 5.2 -3.99999999999999 -5.0
vertex 1.69705627484771 -1.69705627484771 -5.0
vertex 2.07846096908265 -1.19999999999999 -5.0
endloop
endfacet
facet normal 0.0 0.0 -1.0
outer loop
vertex 5.2 -3.99999999999999 -5.0
vertex 2.07846096908265 -1.19999999999999 -5.0
vertex 2.31822198309376 -0.621165708246044 -5.0
endloop
endfacet
facet normal 0.0 0.0 -1.0
outer loop
vertex 5.2 -3.99999999999999 -5.0
vertex 2.31822198309376 -0.621165708246044 -5.0
vertex 2.4 6.25680063315315e-015 -5.0
endloop
endfacet
facet normal 0.0 0.0 -1.0
outer loop
vertex 5.2 -3.99999999999999 -5.0
vertex 2.4 6.25680063315315e-015 -5.0
vertex 5.2 4.00000000000001 -5.0
endloop
endfacet
facet normal 2.92615067790261e-052 1.0 3.06934001722488e-034
outer loop
vertex -5.2 4.00000000000001 -9.20802005167465e-034
vertex 5.2 4.00000000000001 -5.0
vertex -5.2 4.00000000000001 -5.0
endloop
endfacet
facet normal 2.92615067790261e-052 1.0 3.06934001722488e-034
outer loop
vertex 5.2 4.00000000000001 -5.0
vertex -5.2 4.00000000000001 -9.20802005167465e-034
vertex 5.2 4.00000000000001 -1.37282182897074e-017
endloop
endfacet
facet normal -2.92615067790261e-052 -1.0 -3.06934001722488e-034
outer loop
vertex 5.2 -3.99999999999999 -1.37282182897074e-017
vertex -5.2 -3.99999999999999 -5.0
vertex 5.2 -3.99999999999999 -5.0
endloop
endfacet
facet normal -2.92615067790261e-052 -1.0 -3.06934001722488e-034
outer loop
vertex -5.2 -3.99999999999999 -5.0
vertex 5.2 -3.99999999999999 -1.37282182897074e-017
vertex -5.2 -3.99999999999999 9.20802005167465e-034
endloop
endfacet
facet normal 0.866025403784439 -0.499999999999999 7.16591077439546e-018
outer loop
vertex -2.07846096908265 1.2 -5.0
vertex -2.31822198309377 0.62116570824605 4.0
vertex -2.31822198309377 0.621165708246049 -5.0
endloop
endfacet
facet normal 0.965925826289069 -0.258819045102519 2.24280639724225e-018
outer loop
vertex -2.31822198309377 0.62116570824605 4.0
vertex -2.07846096908265 1.2 -5.0
vertex -2.07846096908265 1.2 4.0
endloop
endfacet
facet normal 0.965925826289069 -0.258819045102519 2.24280639724225e-018
outer loop
vertex -2.31822198309377 0.621165708246049 -5.0
vertex -2.4 2.64371857738865e-016 4.0
vertex -2.4 1.76247905159244e-016 -5.0
endloop
endfacet
facet normal 1.0 2.56639964994631e-015 4.54759501143899e-019
outer loop
vertex -2.4 2.64371857738865e-016 4.0
vertex -2.31822198309377 0.621165708246049 -5.0
vertex -2.31822198309377 0.62116570824605 4.0
endloop
endfacet
facet normal 1.0 2.56639964994631e-015 4.54759501143899e-019
outer loop
vertex -2.4 1.76247905159244e-016 -5.0
vertex -2.31822198309376 -0.621165708246049 4.0
vertex -2.31822198309376 -0.621165708246049 -5.0
endloop
endfacet
facet normal 0.965925826289068 0.258819045102523 8.13276327176904e-018
outer loop
vertex -2.31822198309376 -0.621165708246049 4.0
vertex -2.4 1.76247905159244e-016 -5.0
vertex -2.4 2.64371857738865e-016 4.0
endloop
endfacet
facet normal 0.965925826289068 0.258819045102523 8.13276327176904e-018
outer loop
vertex -2.31822198309376 -0.621165708246049 -5.0
vertex -2.07846096908265 -1.2 4.0
vertex -2.07846096908265 -1.2 -5.0
endloop
endfacet
facet normal 0.866025403784438 0.500000000000001 1.03561221717863e-017
outer loop
vertex -2.07846096908265 -1.2 4.0
vertex -2.31822198309376 -0.621165708246049 -5.0
vertex -2.31822198309376 -0.621165708246049 4.0
endloop
endfacet
facet normal 0.866025403784438 0.500000000000001 1.03561221717863e-017
outer loop
vertex -2.07846096908265 -1.2 -5.0
vertex -1.69705627484771 -1.69705627484771 4.0
vertex -1.69705627484771 -1.69705627484771 -5.0
endloop
endfacet
facet normal 0.707106781186547 0.707106781186548 -2.65119244520051e-018
outer loop
vertex -1.69705627484771 -1.69705627484771 4.0
vertex -2.07846096908265 -1.2 -5.0
vertex -2.07846096908265 -1.2 4.0
endloop
endfacet
facet normal 0.707106781186547 0.707106781186548 -2.65119244520051e-018
outer loop
vertex -1.69705627484771 -1.69705627484771 4.0
vertex -1.2 -2.07846096908265 -5.0
vertex -1.69705627484771 -1.69705627484771 -5.0
endloop
endfacet
facet normal 0.499999999999999 0.866025403784439 -1.75321705416498e-018
outer loop
vertex -1.2 -2.07846096908265 -5.0
vertex -1.69705627484771 -1.69705627484771 4.0
vertex -1.2 -2.07846096908265 4.0
endloop
endfacet
facet normal 0.499999999999999 0.866025403784439 -1.75321705416498e-018
outer loop
vertex -1.2 -2.07846096908265 4.0
vertex -0.621165708246048 -2.31822198309376 -5.0
vertex -1.2 -2.07846096908265 -5.0
endloop
endfacet
facet normal 0.25881904510252 0.965925826289069 3.12133429105277e-018
outer loop
vertex -0.621165708246048 -2.31822198309376 -5.0
vertex -1.2 -2.07846096908265 4.0
vertex -0.621165708246048 -2.31822198309376 4.0
endloop
endfacet
facet normal 0.25881904510252 0.965925826289069 3.12133429105277e-018
outer loop
vertex -0.621165708246048 -2.31822198309376 4.0
vertex 8.81239525796218e-016 -2.39999999999999 -5.0
vertex -0.621165708246048 -2.31822198309376 -5.0
endloop
endfacet
facet normal -5.34666593738814e-016 1.0 -4.5475950114393e-019
outer loop
vertex 8.81239525796218e-016 -2.39999999999999 -5.0
vertex -0.621165708246048 -2.31822198309376 4.0
vertex 7.93115573216596e-016 -2.39999999999999 4.0
endloop
endfacet
facet normal -5.34666593738814e-016 1.0 -4.5475950114393e-019
outer loop
vertex 7.93115573216596e-016 -2.39999999999999 4.0
vertex 0.62116570824605 -2.31822198309376 -5.0
vertex 8.81239525796218e-016 -2.39999999999999 -5.0
endloop
endfacet
facet normal -0.258819045102521 0.965925826289068 -1.57616269976506e-018
outer loop
vertex 0.62116570824605 -2.31822198309376 -5.0
vertex 7.93115573216596e-016 -2.39999999999999 4.0
vertex 0.62116570824605 -2.31822198309376 4.0
endloop
endfacet
facet normal -0.258819045102521 0.965925826289068 -1.57616269976506e-018
outer loop
vertex 0.62116570824605 -2.31822198309376 4.0
vertex 1.2 -2.07846096908265 -5.0
vertex 0.62116570824605 -2.31822198309376 -5.0
endloop
endfacet
facet normal -0.5 0.866025403784439 -6.66643697477212e-019
outer loop
vertex 1.2 -2.07846096908265 -5.0
vertex 0.62116570824605 -2.31822198309376 4.0
vertex 1.2 -2.07846096908265 4.0
endloop
endfacet
facet normal -0.5 0.866025403784439 -6.66643697477212e-019
outer loop
vertex 1.2 -2.07846096908265 4.0
vertex 1.69705627484771 -1.69705627484771 -5.0
vertex 1.2 -2.07846096908265 -5.0
endloop
endfacet
facet normal -0.707106781186547 0.707106781186548 -5.11081209664786e-018
outer loop
vertex 1.69705627484771 -1.69705627484771 -5.0
vertex 1.2 -2.07846096908265 4.0
vertex 1.69705627484771 -1.69705627484771 4.0
endloop
endfacet
facet normal -0.866025403784439 0.5 -1.16984037771292e-017
outer loop
vertex 2.07846096908265 -1.19999999999999 4.0
vertex 1.69705627484771 -1.69705627484771 -5.0
vertex 1.69705627484771 -1.69705627484771 4.0
endloop
endfacet
facet normal -0.707106781186547 0.707106781186548 -5.11081209664786e-018
outer loop
vertex 1.69705627484771 -1.69705627484771 -5.0
vertex 2.07846096908265 -1.19999999999999 4.0
vertex 2.07846096908265 -1.19999999999999 -5.0
endloop
endfacet
facet normal -0.965925826289068 0.25881904510252 -6.13283217933742e-018
outer loop
vertex 2.31822198309376 -0.621165708246044 4.0
vertex 2.07846096908265 -1.19999999999999 -5.0
vertex 2.07846096908265 -1.19999999999999 4.0
endloop
endfacet
facet normal -0.866025403784439 0.5 -1.16984037771292e-017
outer loop
vertex 2.07846096908265 -1.19999999999999 -5.0
vertex 2.31822198309376 -0.621165708246044 4.0
vertex 2.31822198309376 -0.621165708246044 -5.0
endloop
endfacet
facet normal -1.0 -2.94066626556348e-016 -2.10233036848636e-033
outer loop
vertex 2.4 6.16867668057353e-015 4.0
vertex 2.31822198309376 -0.621165708246044 -5.0
vertex 2.31822198309376 -0.621165708246044 4.0
endloop
endfacet
facet normal -0.965925826289068 0.25881904510252 -6.13283217933742e-018
outer loop
vertex 2.31822198309376 -0.621165708246044 -5.0
vertex 2.4 6.16867668057353e-015 4.0
vertex 2.4 6.25680063315315e-015 -5.0
endloop
endfacet
facet normal -0.965925826289068 -0.258819045102521 5.06383341793019e-018
outer loop
vertex 2.31822198309376 0.621165708246056 4.0
vertex 2.4 6.25680063315315e-015 -5.0
vertex 2.4 6.16867668057353e-015 4.0
endloop
endfacet
facet normal -1.0 -2.94066626556348e-016 -2.10233036848636e-033
outer loop
vertex 2.4 6.25680063315315e-015 -5.0
vertex 2.31822198309376 0.621165708246056 4.0
vertex 2.31822198309376 0.621165708246056 -5.0
endloop
endfacet
facet normal -0.866025403784438 -0.5 1.11596435047621e-017
outer loop
vertex 2.07846096908265 1.20000000000001 4.0
vertex 2.31822198309376 0.621165708246056 -5.0
vertex 2.31822198309376 0.621165708246056 4.0
endloop
endfacet
facet normal -0.965925826289068 -0.258819045102521 5.06383341793019e-018
outer loop
vertex 2.31822198309376 0.621165708246056 -5.0
vertex 2.07846096908265 1.20000000000001 4.0
vertex 2.07846096908265 1.20000000000001 -5.0
endloop
endfacet
facet normal -0.707106781186547 -0.707106781186548 8.82248151992851e-018
outer loop
vertex 1.69705627484771 1.69705627484772 4.0
vertex 2.07846096908265 1.20000000000001 -5.0
vertex 2.07846096908265 1.20000000000001 4.0
endloop
endfacet
facet normal -0.866025403784438 -0.5 1.11596435047621e-017
outer loop
vertex 2.07846096908265 1.20000000000001 -5.0
vertex 1.69705627484771 1.69705627484772 4.0
vertex 1.69705627484771 1.69705627484772 -5.0
endloop
endfacet
facet normal -0.707106781186547 -0.707106781186548 8.82248151992851e-018
outer loop
vertex 1.69705627484771 1.69705627484772 4.0
vertex 1.2 2.07846096908266 -5.0
vertex 1.69705627484771 1.69705627484772 -5.0
endloop
endfacet
facet normal -0.499999999999999 -0.866025403784439 6.51464942162662e-018
outer loop
vertex 1.2 2.07846096908266 -5.0
vertex 1.69705627484771 1.69705627484772 4.0
vertex 1.2 2.07846096908266 4.0
endloop
endfacet
facet normal -0.499999999999999 -0.866025403784439 6.51464942162662e-018
outer loop
vertex 1.2 2.07846096908266 4.0
vertex 0.621165708246048 2.31822198309377 -5.0
vertex 1.2 2.07846096908266 -5.0
endloop
endfacet
facet normal -0.25881904510252 -0.965925826289068 4.01535773910194e-018
outer loop
vertex 0.621165708246048 2.31822198309377 -5.0
vertex 1.2 2.07846096908266 4.0
vertex 0.621165708246048 2.31822198309377 4.0
endloop
endfacet
facet normal -0.25881904510252 -0.965925826289068 4.01535773910194e-018
outer loop
vertex 0.621165708246048 2.31822198309377 4.0
vertex -1.76247905159244e-015 2.40000000000001 -5.0
vertex 0.621165708246048 2.31822198309377 -5.0
endloop
endfacet
facet normal 5.88133253112696e-016 -1.0 2.27379750571957e-019
outer loop
vertex -1.76247905159244e-015 2.40000000000001 -5.0
vertex 0.621165708246048 2.31822198309377 4.0
vertex -1.67435509901281e-015 2.40000000000001 4.0
endloop
endfacet
facet normal 5.88133253112696e-016 -1.0 2.27379750571957e-019
outer loop
vertex -1.67435509901281e-015 2.40000000000001 4.0
vertex -0.621165708246051 2.31822198309377 -5.0
vertex -1.76247905159244e-015 2.40000000000001 -5.0
endloop
endfacet
facet normal 0.258819045102521 -0.965925826289068 -1.12140319862114e-018
outer loop
vertex -0.621165708246051 2.31822198309377 -5.0
vertex -1.67435509901281e-015 2.40000000000001 4.0
vertex -0.621165708246051 2.31822198309377 4.0
endloop
endfacet
facet normal 0.258819045102521 -0.965925826289068 -1.12140319862114e-018
outer loop
vertex -0.621165708246051 2.31822198309377 4.0
vertex -1.2 2.07846096908266 -5.0
vertex -0.621165708246051 2.31822198309377 -5.0
endloop
endfacet
facet normal 0.500000000000001 -0.866025403784438 7.62559933341121e-018
outer loop
vertex -1.2 2.07846096908266 -5.0
vertex -0.621165708246051 2.31822198309377 4.0
vertex -1.2 2.07846096908266 4.0
endloop
endfacet
facet normal 0.500000000000001 -0.866025403784438 7.62559933341121e-018
outer loop
vertex -1.2 2.07846096908266 4.0
vertex -1.69705627484771 1.69705627484772 -5.0
vertex -1.2 2.07846096908266 -5.0
endloop
endfacet
facet normal 0.707106781186548 -0.707106781186547 1.41248664103295e-017
outer loop
vertex -1.69705627484771 1.69705627484772 -5.0
vertex -1.2 2.07846096908266 4.0
vertex -1.69705627484771 1.69705627484772 4.0
endloop
endfacet
facet normal 0.707106781186548 -0.707106781186547 1.41248664103295e-017
outer loop
vertex -1.69705627484771 1.69705627484772 -5.0
vertex -2.07846096908265 1.2 4.0
vertex -2.07846096908265 1.2 -5.0
endloop
endfacet
facet normal 0.866025403784439 -0.499999999999999 7.16591077439546e-018
outer loop
vertex -2.07846096908265 1.2 4.0
vertex -1.69705627484771 1.69705627484772 -5.0
vertex -1.69705627484771 1.69705627484772 4.0
endloop
endfacet
facet normal -0.0 -0.0 1.0
outer loop
vertex -2.2 -3.81051177665152 4.0
vertex -2.4 2.64371857738865e-016 4.0
vertex -3.1112698372208 -3.1112698372208 4.0
endloop
endfacet
facet normal -0.0 -0.0 1.0
outer loop
vertex -2.4 2.64371857738865e-016 4.0
vertex -2.2 -3.81051177665152 4.0
vertex -2.31822198309376 -0.621165708246049 4.0
endloop
endfacet
facet normal -0.0 -0.0 1.0
outer loop
vertex -2.31822198309376 -0.621165708246049 4.0
vertex -2.2 -3.81051177665152 4.0
vertex -2.07846096908265 -1.2 4.0
endloop
endfacet
facet normal -0.0 -0.0 1.0
outer loop
vertex -2.07846096908265 -1.2 4.0
vertex -2.2 -3.81051177665152 4.0
vertex -1.13880379845109 -4.25007363567189 4.0
endloop
endfacet
facet normal -0.0 -0.0 1.0
outer loop
vertex -2.07846096908265 -1.2 4.0
vertex -1.13880379845109 -4.25007363567189 4.0
vertex -1.69705627484771 -1.69705627484771 4.0
endloop
endfacet
facet normal -0.0 -0.0 1.0
outer loop
vertex -1.69705627484771 -1.69705627484771 4.0
vertex -1.13880379845109 -4.25007363567189 4.0
vertex -1.2 -2.07846096908265 4.0
endloop
endfacet
facet normal -0.0 -0.0 1.0
outer loop
vertex -1.2 -2.07846096908265 4.0
vertex -1.13880379845109 -4.25007363567189 4.0
vertex -0.621165708246048 -2.31822198309376 4.0
endloop
endfacet
facet normal -0.0 -0.0 1.0
outer loop
vertex -0.621165708246048 -2.31822198309376 4.0
vertex -1.13880379845109 -4.25007363567189 4.0
vertex 4.58244553414033e-015 -4.39999999999999 4.0
endloop
endfacet
facet normal -0.0 -0.0 1.0
outer loop
vertex -0.621165708246048 -2.31822198309376 4.0
vertex 4.58244553414033e-015 -4.39999999999999 4.0
vertex 7.93115573216596e-016 -2.39999999999999 4.0
endloop
endfacet
facet normal -0.0 -0.0 1.0
outer loop
vertex 7.93115573216596e-016 -2.39999999999999 4.0
vertex 4.58244553414033e-015 -4.39999999999999 4.0
vertex 0.62116570824605 -2.31822198309376 4.0
endloop
endfacet
facet normal -0.0 -0.0 1.0
outer loop
vertex 0.62116570824605 -2.31822198309376 4.0
vertex 4.58244553414033e-015 -4.39999999999999 4.0
vertex 1.1388037984511 -4.25007363567189 4.0
endloop
endfacet
facet normal -0.0 -0.0 1.0
outer loop
vertex 0.62116570824605 -2.31822198309376 4.0
vertex 1.1388037984511 -4.25007363567189 4.0
vertex 1.2 -2.07846096908265 4.0
endloop
endfacet
facet normal -0.0 -0.0 1.0
outer loop
vertex 1.2 -2.07846096908265 4.0
vertex 1.1388037984511 -4.25007363567189 4.0
vertex 2.2 -3.81051177665152 4.0
endloop
endfacet
facet normal -0.0 -0.0 1.0
outer loop
vertex 1.2 -2.07846096908265 4.0
vertex 2.2 -3.81051177665152 4.0
vertex 1.69705627484771 -1.69705627484771 4.0
endloop
endfacet
facet normal -0.0 -0.0 1.0
outer loop
vertex 1.69705627484771 -1.69705627484771 4.0
vertex 2.2 -3.81051177665152 4.0
vertex 2.07846096908265 -1.19999999999999 4.0
endloop
endfacet
facet normal -0.0 -0.0 1.0
outer loop
vertex 2.07846096908265 -1.19999999999999 4.0
vertex 2.2 -3.81051177665152 4.0
vertex 2.31822198309376 -0.621165708246044 4.0
endloop
endfacet
facet normal -0.0 -0.0 1.0
outer loop
vertex 2.31822198309376 -0.621165708246044 4.0
vertex 2.2 -3.81051177665152 4.0
vertex 3.11126983722081 -3.1112698372208 4.0
endloop
endfacet
facet normal -0.0 -0.0 1.0
outer loop
vertex 2.31822198309376 -0.621165708246044 4.0
vertex 3.11126983722081 -3.1112698372208 4.0
vertex 2.4 6.16867668057353e-015 4.0
endloop
endfacet
facet normal -0.0 -0.0 1.0
outer loop
vertex 2.4 6.16867668057353e-015 4.0
vertex 3.11126983722081 -3.1112698372208 4.0
vertex 3.11126983722081 3.11126983722082 4.0
endloop
endfacet
facet normal -0.0 -0.0 1.0
outer loop
vertex 3.11126983722081 3.11126983722082 4.0
vertex 3.11126983722081 -3.1112698372208 4.0
vertex 3.81051177665153 2.20000000000001 4.0
endloop
endfacet
facet normal -0.0 -0.0 1.0
outer loop
vertex 3.81051177665153 2.20000000000001 4.0
vertex 3.11126983722081 -3.1112698372208 4.0
vertex 3.81051177665154 -2.19999999999998 4.0
endloop
endfacet
facet normal -0.0 -0.0 1.0
outer loop
vertex 3.81051177665153 2.20000000000001 4.0
vertex 3.81051177665154 -2.19999999999998 4.0
vertex 4.2500736356719 1.13880379845111 4.0
endloop
endfacet
facet normal -0.0 -0.0 1.0
outer loop
vertex 4.2500736356719 1.13880379845111 4.0
vertex 3.81051177665154 -2.19999999999998 4.0
vertex 4.2500736356719 -1.13880379845107 4.0
endloop
endfacet
facet normal -0.0 -0.0 1.0
outer loop
vertex 4.2500736356719 1.13880379845111 4.0
vertex 4.2500736356719 -1.13880379845107 4.0
vertex 4.4 1.69197988952874e-014 4.0
endloop
endfacet
facet normal -0.0 -0.0 1.0
outer loop
vertex -4.2500736356719 -1.13880379845109 4.0
vertex -4.2500736356719 1.1388037984511 4.0
vertex -4.4 5.28743715477731e-015 4.0
endloop
endfacet
facet normal -0.0 -0.0 1.0
outer loop
vertex -4.2500736356719 1.1388037984511 4.0
vertex -4.2500736356719 -1.13880379845109 4.0
vertex -3.81051177665153 2.20000000000001 4.0
endloop
endfacet
facet normal -0.0 -0.0 1.0
outer loop
vertex -3.81051177665153 2.20000000000001 4.0
vertex -4.2500736356719 -1.13880379845109 4.0
vertex -3.81051177665153 -2.2 4.0
endloop
endfacet
facet normal -0.0 -0.0 1.0
outer loop
vertex -3.81051177665153 2.20000000000001 4.0
vertex -3.81051177665153 -2.2 4.0
vertex -3.11126983722081 3.11126983722082 4.0
endloop
endfacet
facet normal -0.0 -0.0 1.0
outer loop
vertex -3.11126983722081 3.11126983722082 4.0
vertex -3.81051177665153 -2.2 4.0
vertex -3.1112698372208 -3.1112698372208 4.0
endloop
endfacet
facet normal -0.0 -0.0 1.0
outer loop
vertex -3.11126983722081 3.11126983722082 4.0
vertex -3.1112698372208 -3.1112698372208 4.0
vertex -2.2 3.81051177665154 4.0
endloop
endfacet
facet normal -0.0 -0.0 1.0
outer loop
vertex -2.2 3.81051177665154 4.0
vertex -3.1112698372208 -3.1112698372208 4.0
vertex -2.4 2.64371857738865e-016 4.0
endloop
endfacet
facet normal -0.0 -0.0 1.0
outer loop
vertex -2.2 3.81051177665154 4.0
vertex -2.4 2.64371857738865e-016 4.0
vertex -2.31822198309377 0.62116570824605 4.0
endloop
endfacet
facet normal -0.0 -0.0 1.0
outer loop
vertex -2.2 3.81051177665154 4.0
vertex -2.31822198309377 0.62116570824605 4.0
vertex -2.07846096908265 1.2 4.0
endloop
endfacet
facet normal -0.0 -0.0 1.0
outer loop
vertex -2.2 3.81051177665154 4.0
vertex -2.07846096908265 1.2 4.0
vertex -1.13880379845109 4.25007363567191 4.0
endloop
endfacet
facet normal -0.0 -0.0 1.0
outer loop
vertex -1.13880379845109 4.25007363567191 4.0
vertex -2.07846096908265 1.2 4.0
vertex -1.69705627484771 1.69705627484772 4.0
endloop
endfacet
facet normal -0.0 -0.0 1.0
outer loop
vertex -1.13880379845109 4.25007363567191 4.0
vertex -1.69705627484771 1.69705627484772 4.0
vertex -1.2 2.07846096908266 4.0
endloop
endfacet
facet normal -0.0 -0.0 1.0
outer loop
vertex -1.13880379845109 4.25007363567191 4.0
vertex -1.2 2.07846096908266 4.0
vertex -0.621165708246051 2.31822198309377 4.0
endloop
endfacet
facet normal -0.0 -0.0 1.0
outer loop
vertex -1.13880379845109 4.25007363567191 4.0
vertex -0.621165708246051 2.31822198309377 4.0
vertex 0.0 4.40000000000001 4.0
endloop
endfacet
facet normal -0.0 -0.0 1.0
outer loop
vertex 0.0 4.40000000000001 4.0
vertex -0.621165708246051 2.31822198309377 4.0
vertex -1.67435509901281e-015 2.40000000000001 4.0
endloop
endfacet
facet normal -0.0 -0.0 1.0
outer loop
vertex 0.0 4.40000000000001 4.0
vertex -1.67435509901281e-015 2.40000000000001 4.0
vertex 0.621165708246048 2.31822198309377 4.0
endloop
endfacet
facet normal -0.0 -0.0 1.0
outer loop
vertex 0.0 4.40000000000001 4.0
vertex 0.621165708246048 2.31822198309377 4.0
vertex 1.13880379845109 4.25007363567191 4.0
endloop
endfacet
facet normal -0.0 -0.0 1.0
outer loop
vertex 1.13880379845109 4.25007363567191 4.0
vertex 0.621165708246048 2.31822198309377 4.0
vertex 1.2 2.07846096908266 4.0
endloop
endfacet
facet normal -0.0 -0.0 1.0
outer loop
vertex 1.13880379845109 4.25007363567191 4.0
vertex 1.2 2.07846096908266 4.0
vertex 2.2 3.81051177665154 4.0
endloop
endfacet
facet normal -0.0 -0.0 1.0
outer loop
vertex 2.2 3.81051177665154 4.0
vertex 1.2 2.07846096908266 4.0
vertex 1.69705627484771 1.69705627484772 4.0
endloop
endfacet
facet normal -0.0 -0.0 1.0
outer loop
vertex 2.2 3.81051177665154 4.0
vertex 1.69705627484771 1.69705627484772 4.0
vertex 2.07846096908265 1.20000000000001 4.0
endloop
endfacet
facet normal -0.0 -0.0 1.0
outer loop
vertex 2.2 3.81051177665154 4.0
vertex 2.07846096908265 1.20000000000001 4.0
vertex 2.31822198309376 0.621165708246056 4.0
endloop
endfacet
facet normal -0.0 -0.0 1.0
outer loop
vertex 2.2 3.81051177665154 4.0
vertex 2.31822198309376 0.621165708246056 4.0
vertex 3.11126983722081 3.11126983722082 4.0
endloop
endfacet
facet normal -0.0 -0.0 1.0
outer loop
vertex 3.11126983722081 3.11126983722082 4.0
vertex 2.31822198309376 0.621165708246056 4.0
vertex 2.4 6.16867668057353e-015 4.0
endloop
endfacet
facet normal -0.866025403784438 -0.500000000000001 0.0
outer loop
vertex -3.81051177665153 -2.2 4.0
vertex -3.1112698372208 -3.1112698372208 2.0
vertex -3.1112698372208 -3.1112698372208 4.0
endloop
endfacet
facet normal -0.707106781186547 -0.707106781186548 0.0
outer loop
vertex -3.1112698372208 -3.1112698372208 2.0
vertex -3.81051177665153 -2.2 4.0
vertex -3.81051177665153 -2.2 2.0
endloop
endfacet
facet normal 0.866025403784438 0.500000000000001 0.0
outer loop
vertex 3.81051177665153 2.20000000000001 2.0
vertex 4.2500736356719 1.13880379845111 4.0
vertex 4.2500736356719 1.13880379845111 2.0
endloop
endfacet
facet normal 0.965925826289068 0.258819045102523 0.0
outer loop
vertex 4.2500736356719 1.13880379845111 4.0
vertex 3.81051177665153 2.20000000000001 2.0
vertex 3.81051177665153 2.20000000000001 4.0
endloop
endfacet
facet normal 0.499999999999999 0.866025403784439 0.0
outer loop
vertex 2.2 3.81051177665154 4.0
vertex 3.11126983722081 3.11126983722082 2.0
vertex 2.2 3.81051177665154 2.0
endloop
endfacet
facet normal 0.707106781186547 0.707106781186548 0.0
outer loop
vertex 3.11126983722081 3.11126983722082 2.0
vertex 2.2 3.81051177665154 4.0
vertex 3.11126983722081 3.11126983722082 4.0
endloop
endfacet
facet normal 0.965925826289068 0.258819045102523 0.0
outer loop
vertex 4.2500736356719 1.13880379845111 2.0
vertex 4.4 1.69197988952874e-014 4.0
vertex 4.4 1.69197988952874e-014 2.0
endloop
endfacet
facet normal 1.0 2.17431081453784e-015 0.0
outer loop
vertex 4.4 1.69197988952874e-014 4.0
vertex 4.2500736356719 1.13880379845111 2.0
vertex 4.2500736356719 1.13880379845111 4.0
endloop
endfacet
facet normal 1.0 2.17431081453784e-015 0.0
outer loop
vertex 4.4 1.69197988952874e-014 2.0
vertex 4.2500736356719 -1.13880379845107 4.0
vertex 4.2500736356719 -1.13880379845107 2.0
endloop
endfacet
facet normal 0.965925826289069 -0.258819045102519 0.0
outer loop
vertex 4.2500736356719 -1.13880379845107 4.0
vertex 4.4 1.69197988952874e-014 2.0
vertex 4.4 1.69197988952874e-014 4.0
endloop
endfacet
facet normal 0.258819045102521 -0.965925826289068 0.0
outer loop
vertex 1.1388037984511 -4.25007363567189 4.0
vertex 4.58244553414033e-015 -4.39999999999999 2.0
vertex 1.1388037984511 -4.25007363567189 2.0
endloop
endfacet
facet normal 9.17844319251631e-016 -1.0 0.0
outer loop
vertex 4.58244553414033e-015 -4.39999999999999 2.0
vertex 1.1388037984511 -4.25007363567189 4.0
vertex 4.58244553414033e-015 -4.39999999999999 4.0
endloop
endfacet
facet normal 0.707106781186549 -0.707106781186547 0.0
outer loop
vertex 3.11126983722081 -3.1112698372208 4.0
vertex 2.2 -3.81051177665152 2.0
vertex 3.11126983722081 -3.1112698372208 2.0
endloop
endfacet
facet normal 0.5 -0.866025403784438 0.0
outer loop
vertex 2.2 -3.81051177665152 2.0
vertex 3.11126983722081 -3.1112698372208 4.0
vertex 2.2 -3.81051177665152 4.0
endloop
endfacet
facet normal -0.258819045102521 0.965925826289068 0.0
outer loop
vertex -1.13880379845109 4.25007363567191 4.0
vertex 0.0 4.40000000000001 2.0
vertex -1.13880379845109 4.25007363567191 2.0
endloop
endfacet
facet normal -2.85155516660701e-016 1.0 0.0
outer loop
vertex 0.0 4.40000000000001 2.0
vertex -1.13880379845109 4.25007363567191 4.0
vertex 0.0 4.40000000000001 4.0
endloop
endfacet
facet normal -0.866025403784439 0.5 0.0
outer loop
vertex -3.81051177665153 2.20000000000001 4.0
vertex -4.2500736356719 1.1388037984511 2.0
vertex -4.2500736356719 1.1388037984511 4.0
endloop
endfacet
facet normal -0.965925826289068 0.258819045102521 0.0
outer loop
vertex -4.2500736356719 1.1388037984511 2.0
vertex -3.81051177665153 2.20000000000001 4.0
vertex -3.81051177665153 2.20000000000001 2.0
endloop
endfacet
facet normal 0.25881904510252 0.965925826289068 0.0
outer loop
vertex 1.13880379845109 4.25007363567191 4.0
vertex 2.2 3.81051177665154 2.0
vertex 1.13880379845109 4.25007363567191 2.0
endloop
endfacet
facet normal 0.499999999999999 0.866025403784439 0.0
outer loop
vertex 2.2 3.81051177665154 2.0
vertex 1.13880379845109 4.25007363567191 4.0
vertex 2.2 3.81051177665154 4.0
endloop
endfacet
facet normal -0.965925826289068 0.258819045102521 0.0
outer loop
vertex -4.2500736356719 1.1388037984511 4.0
vertex -4.4 5.28743715477731e-015 2.0
vertex -4.4 5.28743715477731e-015 4.0
endloop
endfacet
facet normal -1.0 -8.82199879669044e-016 0.0
outer loop
vertex -4.4 5.28743715477731e-015 2.0
vertex -4.2500736356719 1.1388037984511 4.0
vertex -4.2500736356719 1.1388037984511 2.0
endloop
endfacet
facet normal -0.5 0.866025403784438 0.0
outer loop
vertex -2.2 3.81051177665154 4.0
vertex -1.13880379845109 4.25007363567191 2.0
vertex -2.2 3.81051177665154 2.0
endloop
endfacet
facet normal -0.258819045102521 0.965925826289068 0.0
outer loop
vertex -1.13880379845109 4.25007363567191 2.0
vertex -2.2 3.81051177665154 4.0
vertex -1.13880379845109 4.25007363567191 4.0
endloop
endfacet
facet normal -0.965925826289068 -0.258819045102522 0.0
outer loop
vertex -4.2500736356719 -1.13880379845109 4.0
vertex -3.81051177665153 -2.2 2.0
vertex -3.81051177665153 -2.2 4.0
endloop
endfacet
facet normal -0.866025403784438 -0.500000000000001 0.0
outer loop
vertex -3.81051177665153 -2.2 2.0
vertex -4.2500736356719 -1.13880379845109 4.0
vertex -4.2500736356719 -1.13880379845109 2.0
endloop
endfacet
facet normal 0.965925826289069 -0.258819045102519 0.0
outer loop
vertex 4.2500736356719 -1.13880379845107 2.0
vertex 3.81051177665154 -2.19999999999998 4.0
vertex 3.81051177665154 -2.19999999999998 2.0
endloop
endfacet
facet normal 0.86602540378444 -0.499999999999998 0.0
outer loop
vertex 3.81051177665154 -2.19999999999998 4.0
vertex 4.2500736356719 -1.13880379845107 2.0
vertex 4.2500736356719 -1.13880379845107 4.0
endloop
endfacet
facet normal -0.707106781186548 0.707106781186547 0.0
outer loop
vertex -3.11126983722081 3.11126983722082 4.0
vertex -3.81051177665153 2.20000000000001 2.0
vertex -3.81051177665153 2.20000000000001 4.0
endloop
endfacet
facet normal -0.866025403784439 0.5 0.0
outer loop
vertex -3.81051177665153 2.20000000000001 2.0
vertex -3.11126983722081 3.11126983722082 4.0
vertex -3.11126983722081 3.11126983722082 2.0
endloop
endfacet
facet normal -0.499999999999999 -0.866025403784439 0.0
outer loop
vertex -2.2 -3.81051177665152 4.0
vertex -3.1112698372208 -3.1112698372208 2.0
vertex -2.2 -3.81051177665152 2.0
endloop
endfacet
facet normal -0.707106781186547 -0.707106781186548 0.0
outer loop
vertex -3.1112698372208 -3.1112698372208 2.0
vertex -2.2 -3.81051177665152 4.0
vertex -3.1112698372208 -3.1112698372208 4.0
endloop
endfacet
facet normal 9.17844319251631e-016 -1.0 0.0
outer loop
vertex 4.58244553414033e-015 -4.39999999999999 4.0
vertex -1.13880379845109 -4.25007363567189 2.0
vertex 4.58244553414033e-015 -4.39999999999999 2.0
endloop
endfacet
facet normal -0.25881904510252 -0.965925826289069 0.0
outer loop
vertex -1.13880379845109 -4.25007363567189 2.0
vertex 4.58244553414033e-015 -4.39999999999999 4.0
vertex -1.13880379845109 -4.25007363567189 4.0
endloop
endfacet
facet normal 0.707106781186547 0.707106781186548 0.0
outer loop
vertex 3.11126983722081 3.11126983722082 2.0
vertex 3.81051177665153 2.20000000000001 4.0
vertex 3.81051177665153 2.20000000000001 2.0
endloop
endfacet
facet normal 0.866025403784438 0.500000000000001 0.0
outer loop
vertex 3.81051177665153 2.20000000000001 4.0
vertex 3.11126983722081 3.11126983722082 2.0
vertex 3.11126983722081 3.11126983722082 4.0
endloop
endfacet
facet normal -2.85155516660701e-016 1.0 0.0
outer loop
vertex 0.0 4.40000000000001 4.0
vertex 1.13880379845109 4.25007363567191 2.0
vertex 0.0 4.40000000000001 2.0
endloop
endfacet
facet normal 0.25881904510252 0.965925826289068 0.0
outer loop
vertex 1.13880379845109 4.25007363567191 2.0
vertex 0.0 4.40000000000001 4.0
vertex 1.13880379845109 4.25007363567191 4.0
endloop
endfacet
facet normal 0.86602540378444 -0.499999999999998 0.0
outer loop
vertex 3.81051177665154 -2.19999999999998 2.0
vertex 3.11126983722081 -3.1112698372208 4.0
vertex 3.11126983722081 -3.1112698372208 2.0
endloop
endfacet
facet normal 0.707106781186549 -0.707106781186547 0.0
outer loop
vertex 3.11126983722081 -3.1112698372208 4.0
vertex 3.81051177665154 -2.19999999999998 2.0
vertex 3.81051177665154 -2.19999999999998 4.0
endloop
endfacet
facet normal -0.707106781186548 0.707106781186547 0.0
outer loop
vertex -3.11126983722081 3.11126983722082 4.0
vertex -2.2 3.81051177665154 2.0
vertex -3.11126983722081 3.11126983722082 2.0
endloop
endfacet
facet normal -0.5 0.866025403784438 0.0
outer loop
vertex -2.2 3.81051177665154 2.0
vertex -3.11126983722081 3.11126983722082 4.0
vertex -2.2 3.81051177665154 4.0
endloop
endfacet
facet normal -0.25881904510252 -0.965925826289069 0.0
outer loop
vertex -1.13880379845109 -4.25007363567189 4.0
vertex -2.2 -3.81051177665152 2.0
vertex -1.13880379845109 -4.25007363567189 2.0
endloop
endfacet
facet normal -0.499999999999999 -0.866025403784439 0.0
outer loop
vertex -2.2 -3.81051177665152 2.0
vertex -1.13880379845109 -4.25007363567189 4.0
vertex -2.2 -3.81051177665152 4.0
endloop
endfacet
facet normal 0.5 -0.866025403784438 0.0
outer loop
vertex 2.2 -3.81051177665152 4.0
vertex 1.1388037984511 -4.25007363567189 2.0
vertex 2.2 -3.81051177665152 2.0
endloop
endfacet
facet normal 0.258819045102521 -0.965925826289068 0.0
outer loop
vertex 1.1388037984511 -4.25007363567189 2.0
vertex 2.2 -3.81051177665152 4.0
vertex 1.1388037984511 -4.25007363567189 4.0
endloop
endfacet
facet normal -1.0 -8.82199879669044e-016 0.0
outer loop
vertex -4.4 5.28743715477731e-015 4.0
vertex -4.2500736356719 -1.13880379845109 2.0
vertex -4.2500736356719 -1.13880379845109 4.0
endloop
endfacet
facet normal -0.965925826289068 -0.258819045102522 0.0
outer loop
vertex -4.2500736356719 -1.13880379845109 2.0
vertex -4.4 5.28743715477731e-015 4.0
vertex -4.4 5.28743715477731e-015 2.0
endloop
endfacet
facet normal 1.0 0.0 0.0
outer loop
vertex 5.2 4.00000000000001 -5.0
vertex 5.2 -3.99999999999999 -1.37282182897074e-017
vertex 5.2 -3.99999999999999 -5.0
endloop
endfacet
facet normal 1.0 0.0 0.0
outer loop
vertex 5.2 -3.99999999999999 -1.37282182897074e-017
vertex 5.2 4.00000000000001 -5.0
vertex 5.2 4.00000000000001 -1.37282182897074e-017
endloop
endfacet
facet normal -1.0 0.0 0.0
outer loop
vertex -5.2 4.00000000000001 -9.20802005167465e-034
vertex -5.2 -3.99999999999999 -5.0
vertex -5.2 -3.99999999999999 9.20802005167465e-034
endloop
endfacet
facet normal -1.0 0.0 0.0
outer loop
vertex -5.2 -3.99999999999999 -5.0
vertex -5.2 4.00000000000001 -9.20802005167465e-034
vertex -5.2 4.00000000000001 -5.0
endloop
endfacet
facet normal 0.0 0.0 -1.0
outer loop
vertex -14.0 6.00000000000001 0.0
vertex -9.43923048454133 0.600000000000006 0.0
vertex -14.0 -5.99999999999999 0.0
endloop
endfacet
facet normal 0.0 0.0 -1.0
outer loop
vertex -9.43923048454133 0.600000000000006 0.0
vertex -14.0 6.00000000000001 0.0
vertex -9.24852813742386 0.848528137423862 0.0
endloop
endfacet
facet normal 0.0 0.0 -1.0
outer loop
vertex -9.24852813742386 0.848528137423862 0.0
vertex -14.0 6.00000000000001 0.0
vertex -5.2 4.00000000000001 -9.20802005167465e-034
endloop
endfacet
facet normal 0.0 0.0 -1.0
outer loop
vertex -5.2 4.00000000000001 -9.20802005167465e-034
vertex -14.0 6.00000000000001 0.0
vertex 14.0 6.00000000000001 0.0
endloop
endfacet
facet normal 0.0 0.0 -1.0
outer loop
vertex -14.0 -5.99999999999999 0.0
vertex -9.43923048454133 0.600000000000006 0.0
vertex -9.55911099154688 0.310582854123031 0.0
endloop
endfacet
facet normal 0.0 0.0 -1.0
outer loop
vertex -14.0 -5.99999999999999 0.0
vertex -9.55911099154688 0.310582854123031 0.0
vertex -9.6 5.46368505993655e-015 0.0
endloop
endfacet
facet normal 0.0 0.0 -1.0
outer loop
vertex -9.24852813742386 0.848528137423862 0.0
vertex -5.2 4.00000000000001 -9.20802005167465e-034
vertex -9.0 1.03923048454133 0.0
endloop
endfacet
facet normal 0.0 0.0 -1.0
outer loop
vertex -9.0 1.03923048454133 0.0
vertex -5.2 4.00000000000001 -9.20802005167465e-034
vertex -8.71058285412303 1.15911099154689 0.0
endloop
endfacet
facet normal 0.0 0.0 -1.0
outer loop
vertex -8.71058285412303 1.15911099154689 0.0
vertex -5.2 4.00000000000001 -9.20802005167465e-034
vertex -8.4 1.20000000000001 0.0
endloop
endfacet
facet normal 0.0 0.0 -1.0
outer loop
vertex -8.4 1.20000000000001 0.0
vertex -5.2 4.00000000000001 -9.20802005167465e-034
vertex -8.08941714587698 1.15911099154689 0.0
endloop
endfacet
facet normal 0.0 0.0 -1.0
outer loop
vertex -8.08941714587698 1.15911099154689 0.0
vertex -5.2 4.00000000000001 -9.20802005167465e-034
vertex -7.8 1.03923048454133 0.0
endloop
endfacet
facet normal 0.0 0.0 -1.0
outer loop
vertex -7.8 1.03923048454133 0.0
vertex -5.2 4.00000000000001 -9.20802005167465e-034
vertex -7.55147186257614 0.848528137423863 0.0
endloop
endfacet
facet normal 0.0 0.0 -1.0
outer loop
vertex -7.55147186257614 0.848528137423863 0.0
vertex -5.2 4.00000000000001 -9.20802005167465e-034
vertex -7.36076951545867 0.600000000000006 0.0
endloop
endfacet
facet normal 0.0 0.0 -1.0
outer loop
vertex -7.36076951545867 0.600000000000006 0.0
vertex -5.2 4.00000000000001 -9.20802005167465e-034
vertex -7.24088900845312 0.310582854123032 0.0
endloop
endfacet
facet normal 0.0 0.0 -1.0
outer loop
vertex -7.24088900845312 0.310582854123032 0.0
vertex -5.2 4.00000000000001 -9.20802005167465e-034
vertex -7.2 5.46368505993655e-015 0.0
endloop
endfacet
facet normal 0.0 0.0 -1.0
outer loop
vertex -5.2 4.00000000000001 -9.20802005167465e-034
vertex 14.0 6.00000000000001 0.0
vertex 5.2 4.00000000000001 -1.37282182897074e-017
endloop
endfacet
facet normal 0.0 0.0 -1.0
outer loop
vertex 5.2 4.00000000000001 -1.37282182897074e-017
vertex 14.0 6.00000000000001 0.0
vertex 7.55147186257614 0.848528137423862 3.52495810318487e-015
endloop
endfacet
facet normal 0.0 0.0 -1.0
outer loop
vertex 5.2 4.00000000000001 -1.37282182897074e-017
vertex 7.55147186257614 0.848528137423862 3.52495810318487e-015
vertex 7.36076951545867 0.600000000000006 3.52495810318487e-015
endloop
endfacet
facet normal 0.0 0.0 -1.0
outer loop
vertex 5.2 4.00000000000001 -1.37282182897074e-017
vertex 7.36076951545867 0.600000000000006 3.52495810318487e-015
vertex 5.2 -3.99999999999999 -1.37282182897074e-017
endloop
endfacet
facet normal 0.0 0.0 -1.0
outer loop
vertex 5.2 -3.99999999999999 -1.37282182897074e-017
vertex 7.36076951545867 0.600000000000006 3.52495810318487e-015
vertex 7.24088900845311 0.310582854123031 3.52495810318487e-015
endloop
endfacet
facet normal 0.0 0.0 -1.0
outer loop
vertex 5.2 -3.99999999999999 -1.37282182897074e-017
vertex 7.24088900845311 0.310582854123031 3.52495810318487e-015
vertex 7.2 5.46368505993655e-015 3.52495810318487e-015
endloop
endfacet
facet normal 0.0 0.0 -1.0
outer loop
vertex 7.55147186257614 0.848528137423862 3.52495810318487e-015
vertex 14.0 6.00000000000001 0.0
vertex 7.8 1.03923048454133 3.52495810318487e-015
endloop
endfacet
facet normal 0.0 0.0 -1.0
outer loop
vertex 7.8 1.03923048454133 3.52495810318487e-015
vertex 14.0 6.00000000000001 0.0
vertex 8.08941714587697 1.15911099154689 3.52495810318487e-015
endloop
endfacet
facet normal 0.0 0.0 -1.0
outer loop
vertex 8.08941714587697 1.15911099154689 3.52495810318487e-015
vertex 14.0 6.00000000000001 0.0
vertex 8.4 1.2 3.52495810318487e-015
endloop
endfacet
facet normal 0.0 0.0 -1.0
outer loop
vertex 8.4 1.2 3.52495810318487e-015
vertex 14.0 6.00000000000001 0.0
vertex 8.71058285412302 1.15911099154689 3.52495810318487e-015
endloop
endfacet
facet normal 0.0 0.0 -1.0
outer loop
vertex 8.71058285412302 1.15911099154689 3.52495810318487e-015
vertex 14.0 6.00000000000001 0.0
vertex 8.99999999999999 1.03923048454133 3.52495810318487e-015
endloop
endfacet
facet normal 0.0 0.0 -1.0
outer loop
vertex 8.99999999999999 1.03923048454133 3.52495810318487e-015
vertex 14.0 6.00000000000001 0.0
vertex 9.24852813742385 0.848528137423863 3.52495810318487e-015
endloop
endfacet
facet normal 0.0 0.0 -1.0
outer loop
vertex 9.24852813742385 0.848528137423863 3.52495810318487e-015
vertex 14.0 6.00000000000001 0.0
vertex 9.43923048454132 0.600000000000006 3.52495810318487e-015
endloop
endfacet
facet normal 0.0 0.0 -1.0
outer loop
vertex 9.43923048454132 0.600000000000006 3.52495810318487e-015
vertex 14.0 6.00000000000001 0.0
vertex 9.55911099154688 0.310582854123031 3.52495810318487e-015
endloop
endfacet
facet normal 0.0 0.0 -1.0
outer loop
vertex 9.55911099154688 0.310582854123031 3.52495810318487e-015
vertex 14.0 6.00000000000001 0.0
vertex 9.6 5.46368505993655e-015 3.52495810318487e-015
endloop
endfacet
facet normal 0.0 0.0 -1.0
outer loop
vertex -14.0 -5.99999999999999 0.0
vertex -5.2 -3.99999999999999 9.20802005167465e-034
vertex 14.0 -5.99999999999999 0.0
endloop
endfacet
facet normal 0.0 0.0 -1.0
outer loop
vertex -5.2 -3.99999999999999 9.20802005167465e-034
vertex -14.0 -5.99999999999999 0.0
vertex -9.24852813742386 -0.848528137423851 0.0
endloop
endfacet
facet normal 0.0 0.0 -1.0
outer loop
vertex -9.24852813742386 -0.848528137423851 0.0
vertex -14.0 -5.99999999999999 0.0
vertex -9.43923048454133 -0.599999999999995 0.0
endloop
endfacet
facet normal 0.0 0.0 -1.0
outer loop
vertex -9.43923048454133 -0.599999999999995 0.0
vertex -14.0 -5.99999999999999 0.0
vertex -9.55911099154688 -0.31058285412302 0.0
endloop
endfacet
facet normal 0.0 0.0 -1.0
outer loop
vertex -9.55911099154688 -0.31058285412302 0.0
vertex -14.0 -5.99999999999999 0.0
vertex -9.6 5.46368505993655e-015 0.0
endloop
endfacet
facet normal 0.0 0.0 -1.0
outer loop
vertex -5.2 -3.99999999999999 9.20802005167465e-034
vertex -9.24852813742386 -0.848528137423851 0.0
vertex -9.0 -1.03923048454132 0.0
endloop
endfacet
facet normal 0.0 0.0 -1.0
outer loop
vertex -5.2 -3.99999999999999 9.20802005167465e-034
vertex -9.0 -1.03923048454132 0.0
vertex -8.71058285412303 -1.15911099154688 0.0
endloop
endfacet
facet normal 0.0 0.0 -1.0
outer loop
vertex -5.2 -3.99999999999999 9.20802005167465e-034
vertex -8.71058285412303 -1.15911099154688 0.0
vertex -8.4 -1.19999999999999 0.0
endloop
endfacet
facet normal 0.0 0.0 -1.0
outer loop
vertex -5.2 -3.99999999999999 9.20802005167465e-034
vertex -8.4 -1.19999999999999 0.0
vertex -8.08941714587698 -1.15911099154688 0.0
endloop
endfacet
facet normal 0.0 0.0 -1.0
outer loop
vertex -5.2 -3.99999999999999 9.20802005167465e-034
vertex -8.08941714587698 -1.15911099154688 0.0
vertex -7.8 -1.03923048454132 0.0
endloop
endfacet
facet normal 0.0 0.0 -1.0
outer loop
vertex -5.2 -3.99999999999999 9.20802005167465e-034
vertex -7.8 -1.03923048454132 0.0
vertex -7.55147186257614 -0.848528137423851 0.0
endloop
endfacet
facet normal 0.0 0.0 -1.0
outer loop
vertex -5.2 -3.99999999999999 9.20802005167465e-034
vertex -7.55147186257614 -0.848528137423851 0.0
vertex -7.36076951545867 -0.599999999999994 0.0
endloop
endfacet
facet normal 0.0 0.0 -1.0
outer loop
vertex -5.2 -3.99999999999999 9.20802005167465e-034
vertex -7.36076951545867 -0.599999999999994 0.0
vertex -7.24088900845312 -0.310582854123018 0.0
endloop
endfacet
facet normal 0.0 0.0 -1.0
outer loop
vertex -5.2 -3.99999999999999 9.20802005167465e-034
vertex -7.24088900845312 -0.310582854123018 0.0
vertex -7.2 5.46368505993655e-015 0.0
endloop
endfacet
facet normal 0.0 0.0 -1.0
outer loop
vertex -5.2 -3.99999999999999 9.20802005167465e-034
vertex -7.2 5.46368505993655e-015 0.0
vertex -5.2 4.00000000000001 -9.20802005167465e-034
endloop
endfacet
facet normal 0.0 0.0 -1.0
outer loop
vertex 14.0 -5.99999999999999 0.0
vertex -5.2 -3.99999999999999 9.20802005167465e-034
vertex 5.2 -3.99999999999999 -1.37282182897074e-017
endloop
endfacet
facet normal 0.0 0.0 -1.0
outer loop
vertex 14.0 -5.99999999999999 0.0
vertex 5.2 -3.99999999999999 -1.37282182897074e-017
vertex 7.55147186257614 -0.848528137423851 3.52495810318487e-015
endloop
endfacet
facet normal 0.0 0.0 -1.0
outer loop
vertex 7.55147186257614 -0.848528137423851 3.52495810318487e-015
vertex 5.2 -3.99999999999999 -1.37282182897074e-017
vertex 7.36076951545867 -0.599999999999995 3.52495810318487e-015
endloop
endfacet
facet normal 0.0 0.0 -1.0
outer loop
vertex 7.36076951545867 -0.599999999999995 3.52495810318487e-015
vertex 5.2 -3.99999999999999 -1.37282182897074e-017
vertex 7.24088900845311 -0.31058285412302 3.52495810318487e-015
endloop
endfacet
facet normal 0.0 0.0 -1.0
outer loop
vertex 7.24088900845311 -0.31058285412302 3.52495810318487e-015
vertex 5.2 -3.99999999999999 -1.37282182897074e-017
vertex 7.2 5.46368505993655e-015 3.52495810318487e-015
endloop
endfacet
facet normal 0.0 0.0 -1.0
outer loop
vertex 14.0 -5.99999999999999 0.0
vertex 7.55147186257614 -0.848528137423851 3.52495810318487e-015
vertex 7.8 -1.03923048454132 3.52495810318487e-015
endloop
endfacet
facet normal 0.0 0.0 -1.0
outer loop
vertex 14.0 -5.99999999999999 0.0
vertex 7.8 -1.03923048454132 3.52495810318487e-015
vertex 8.08941714587697 -1.15911099154688 3.52495810318487e-015
endloop
endfacet
facet normal 0.0 0.0 -1.0
outer loop
vertex 14.0 -5.99999999999999 0.0
vertex 8.08941714587697 -1.15911099154688 3.52495810318487e-015
vertex 8.4 -1.19999999999999 3.52495810318487e-015
endloop
endfacet
facet normal 0.0 0.0 -1.0
outer loop
vertex 14.0 -5.99999999999999 0.0
vertex 8.4 -1.19999999999999 3.52495810318487e-015
vertex 8.71058285412302 -1.15911099154688 3.52495810318487e-015
endloop
endfacet
facet normal 0.0 0.0 -1.0
outer loop
vertex 14.0 -5.99999999999999 0.0
vertex 8.71058285412302 -1.15911099154688 3.52495810318487e-015
vertex 8.99999999999999 -1.03923048454132 3.52495810318487e-015
endloop
endfacet
facet normal 0.0 0.0 -1.0
outer loop
vertex 14.0 -5.99999999999999 0.0
vertex 8.99999999999999 -1.03923048454132 3.52495810318487e-015
vertex 9.24852813742385 -0.848528137423851 3.52495810318487e-015
endloop
endfacet
facet normal 0.0 0.0 -1.0
outer loop
vertex 14.0 -5.99999999999999 0.0
vertex 9.24852813742385 -0.848528137423851 3.52495810318487e-015
vertex 9.43923048454132 -0.599999999999993 3.52495810318487e-015
endloop
endfacet
facet normal 0.0 0.0 -1.0
outer loop
vertex 14.0 -5.99999999999999 0.0
vertex 9.43923048454132 -0.599999999999993 3.52495810318487e-015
vertex 9.55911099154688 -0.310582854123018 3.52495810318487e-015
endloop
endfacet
facet normal 0.0 0.0 -1.0
outer loop
vertex 14.0 -5.99999999999999 0.0
vertex 9.55911099154688 -0.310582854123018 3.52495810318487e-015
vertex 9.6 5.46368505993655e-015 3.52495810318487e-015
endloop
endfacet
facet normal 0.0 0.0 -1.0
outer loop
vertex 14.0 -5.99999999999999 0.0
vertex 9.6 5.46368505993655e-015 3.52495810318487e-015
vertex 14.0 6.00000000000001 0.0
endloop
endfacet
facet normal -0.0 -0.0 1.0
outer loop
vertex -12.0 -5.99999999999999 2.0
vertex -9.55911099154688 -0.31058285412302 2.0
vertex -12.0 6.00000000000001 2.0
endloop
endfacet
facet normal -0.0 -0.0 1.0
outer loop
vertex -9.55911099154688 -0.31058285412302 2.0
vertex -12.0 -5.99999999999999 2.0
vertex -9.43923048454133 -0.599999999999995 2.0
endloop
endfacet
facet normal -0.0 -0.0 1.0
outer loop
vertex -9.43923048454133 -0.599999999999995 2.0
vertex -12.0 -5.99999999999999 2.0
vertex -9.24852813742386 -0.848528137423851 2.0
endloop
endfacet
facet normal -0.0 -0.0 1.0
outer loop
vertex -9.24852813742386 -0.848528137423851 2.0
vertex -12.0 -5.99999999999999 2.0
vertex -9.0 -1.03923048454132 2.0
endloop
endfacet
facet normal -0.0 -0.0 1.0
outer loop
vertex -9.0 -1.03923048454132 2.0
vertex -12.0 -5.99999999999999 2.0
vertex -8.71058285412303 -1.15911099154688 2.0
endloop
endfacet
facet normal -0.0 -0.0 1.0
outer loop
vertex -8.71058285412303 -1.15911099154688 2.0
vertex -12.0 -5.99999999999999 2.0
vertex -1.13880379845109 -4.25007363567189 2.0
endloop
endfacet
facet normal -0.0 -0.0 1.0
outer loop
vertex -1.13880379845109 -4.25007363567189 2.0
vertex -12.0 -5.99999999999999 2.0
vertex 12.0 -5.99999999999999 2.0
endloop
endfacet
facet normal -0.0 -0.0 1.0
outer loop
vertex -12.0 6.00000000000001 2.0
vertex -9.55911099154688 -0.31058285412302 2.0
vertex -9.6 5.46368505993655e-015 2.0
endloop
endfacet
facet normal -0.0 -0.0 1.0
outer loop
vertex -8.71058285412303 -1.15911099154688 2.0
vertex -1.13880379845109 -4.25007363567189 2.0
vertex -2.2 -3.81051177665152 2.0
endloop
endfacet
facet normal -0.0 -0.0 1.0
outer loop
vertex -8.71058285412303 -1.15911099154688 2.0
vertex -2.2 -3.81051177665152 2.0
vertex -8.4 -1.19999999999999 2.0
endloop
endfacet
facet normal -0.0 -0.0 1.0
outer loop
vertex -8.4 -1.19999999999999 2.0
vertex -2.2 -3.81051177665152 2.0
vertex -8.08941714587698 -1.15911099154688 2.0
endloop
endfacet
facet normal -0.0 -0.0 1.0
outer loop
vertex -8.08941714587698 -1.15911099154688 2.0
vertex -2.2 -3.81051177665152 2.0
vertex -7.8 -1.03923048454132 2.0
endloop
endfacet
facet normal -0.0 -0.0 1.0
outer loop
vertex -7.8 -1.03923048454132 2.0
vertex -2.2 -3.81051177665152 2.0
vertex -7.55147186257614 -0.848528137423851 2.0
endloop
endfacet
facet normal -0.0 -0.0 1.0
outer loop
vertex -7.55147186257614 -0.848528137423851 2.0
vertex -2.2 -3.81051177665152 2.0
vertex -7.36076951545867 -0.599999999999994 2.0
endloop
endfacet
facet normal -0.0 -0.0 1.0
outer loop
vertex -7.36076951545867 -0.599999999999994 2.0
vertex -2.2 -3.81051177665152 2.0
vertex -7.24088900845312 -0.310582854123018 2.0
endloop
endfacet
facet normal -0.0 -0.0 1.0
outer loop
vertex -7.24088900845312 -0.310582854123018 2.0
vertex -2.2 -3.81051177665152 2.0
vertex -7.2 5.46368505993655e-015 2.0
endloop
endfacet
facet normal -0.0 -0.0 1.0
outer loop
vertex -7.2 5.46368505993655e-015 2.0
vertex -2.2 -3.81051177665152 2.0
vertex -3.1112698372208 -3.1112698372208 2.0
endloop
endfacet
facet normal -0.0 -0.0 1.0
outer loop
vertex -7.2 5.46368505993655e-015 2.0
vertex -3.1112698372208 -3.1112698372208 2.0
vertex -3.81051177665153 -2.2 2.0
endloop
endfacet
facet normal -0.0 -0.0 1.0
outer loop
vertex -7.2 5.46368505993655e-015 2.0
vertex -3.81051177665153 -2.2 2.0
vertex -4.2500736356719 -1.13880379845109 2.0
endloop
endfacet
facet normal -0.0 -0.0 1.0
outer loop
vertex -7.2 5.46368505993655e-015 2.0
vertex -4.2500736356719 -1.13880379845109 2.0
vertex -4.4 5.28743715477731e-015 2.0
endloop
endfacet
facet normal -0.0 -0.0 1.0
outer loop
vertex -1.13880379845109 -4.25007363567189 2.0
vertex 12.0 -5.99999999999999 2.0
vertex 4.58244553414033e-015 -4.39999999999999 2.0
endloop
endfacet
facet normal -0.0 -0.0 1.0
outer loop
vertex 4.58244553414033e-015 -4.39999999999999 2.0
vertex 12.0 -5.99999999999999 2.0
vertex 1.1388037984511 -4.25007363567189 2.0
endloop
endfacet
facet normal -0.0 -0.0 1.0
outer loop
vertex 1.1388037984511 -4.25007363567189 2.0
vertex 12.0 -5.99999999999999 2.0
vertex 2.2 -3.81051177665152 2.0
endloop
endfacet
facet normal -0.0 -0.0 1.0
outer loop
vertex 2.2 -3.81051177665152 2.0
vertex 12.0 -5.99999999999999 2.0
vertex 3.11126983722081 -3.1112698372208 2.0
endloop
endfacet
facet normal -0.0 -0.0 1.0
outer loop
vertex 3.11126983722081 -3.1112698372208 2.0
vertex 12.0 -5.99999999999999 2.0
vertex 3.81051177665154 -2.19999999999998 2.0
endloop
endfacet
facet normal -0.0 -0.0 1.0
outer loop
vertex 3.81051177665154 -2.19999999999998 2.0
vertex 12.0 -5.99999999999999 2.0
vertex 4.2500736356719 -1.13880379845107 2.0
endloop
endfacet
facet normal -0.0 -0.0 1.0
outer loop
vertex 4.2500736356719 -1.13880379845107 2.0
vertex 12.0 -5.99999999999999 2.0
vertex 4.4 1.69197988952874e-014 2.0
endloop
endfacet
facet normal -0.0 -0.0 1.0
outer loop
vertex 4.4 1.69197988952874e-014 2.0
vertex 12.0 -5.99999999999999 2.0
vertex 7.55147186257614 -0.848528137423851 2.0
endloop
endfacet
facet normal -0.0 -0.0 1.0
outer loop
vertex 4.4 1.69197988952874e-014 2.0
vertex 7.55147186257614 -0.848528137423851 2.0
vertex 7.36076951545867 -0.599999999999995 2.0
endloop
endfacet
facet normal -0.0 -0.0 1.0
outer loop
vertex 4.4 1.69197988952874e-014 2.0
vertex 7.36076951545867 -0.599999999999995 2.0
vertex 7.24088900845311 -0.31058285412302 2.0
endloop
endfacet
facet normal -0.0 -0.0 1.0
outer loop
vertex 4.4 1.69197988952874e-014 2.0
vertex 7.24088900845311 -0.31058285412302 2.0
vertex 7.2 5.46368505993655e-015 2.0
endloop
endfacet
facet normal -0.0 -0.0 1.0
outer loop
vertex 7.55147186257614 -0.848528137423851 2.0
vertex 12.0 -5.99999999999999 2.0
vertex 7.8 -1.03923048454132 2.0
endloop
endfacet
facet normal -0.0 -0.0 1.0
outer loop
vertex 7.8 -1.03923048454132 2.0
vertex 12.0 -5.99999999999999 2.0
vertex 8.08941714587697 -1.15911099154688 2.0
endloop
endfacet
facet normal -0.0 -0.0 1.0
outer loop
vertex 8.08941714587697 -1.15911099154688 2.0
vertex 12.0 -5.99999999999999 2.0
vertex 8.4 -1.19999999999999 2.0
endloop
endfacet
facet normal -0.0 -0.0 1.0
outer loop
vertex 8.4 -1.19999999999999 2.0
vertex 12.0 -5.99999999999999 2.0
vertex 8.71058285412302 -1.15911099154688 2.0
endloop
endfacet
facet normal -0.0 -0.0 1.0
outer loop
vertex 8.71058285412302 -1.15911099154688 2.0
vertex 12.0 -5.99999999999999 2.0
vertex 8.99999999999999 -1.03923048454132 2.0
endloop
endfacet
facet normal -0.0 -0.0 1.0
outer loop
vertex 8.99999999999999 -1.03923048454132 2.0
vertex 12.0 -5.99999999999999 2.0
vertex 9.24852813742385 -0.848528137423851 2.0
endloop
endfacet
facet normal -0.0 -0.0 1.0
outer loop
vertex 9.24852813742385 -0.848528137423851 2.0
vertex 12.0 -5.99999999999999 2.0
vertex 9.43923048454132 -0.599999999999993 2.0
endloop
endfacet
facet normal -0.0 -0.0 1.0
outer loop
vertex 9.43923048454132 -0.599999999999993 2.0
vertex 12.0 -5.99999999999999 2.0
vertex 9.55911099154688 -0.310582854123018 2.0
endloop
endfacet
facet normal -0.0 -0.0 1.0
outer loop
vertex 9.55911099154688 -0.310582854123018 2.0
vertex 12.0 -5.99999999999999 2.0
vertex 9.6 5.46368505993655e-015 2.0
endloop
endfacet
facet normal -0.0 -0.0 1.0
outer loop
vertex -12.0 6.00000000000001 2.0
vertex -1.13880379845109 4.25007363567191 2.0
vertex 12.0 6.00000000000001 2.0
endloop
endfacet
facet normal -0.0 -0.0 1.0
outer loop
vertex -1.13880379845109 4.25007363567191 2.0
vertex -12.0 6.00000000000001 2.0
vertex -8.71058285412303 1.15911099154689 2.0
endloop
endfacet
facet normal -0.0 -0.0 1.0
outer loop
vertex -8.71058285412303 1.15911099154689 2.0
vertex -12.0 6.00000000000001 2.0
vertex -9.0 1.03923048454133 2.0
endloop
endfacet
facet normal -0.0 -0.0 1.0
outer loop
vertex -9.0 1.03923048454133 2.0
vertex -12.0 6.00000000000001 2.0
vertex -9.24852813742386 0.848528137423862 2.0
endloop
endfacet
facet normal -0.0 -0.0 1.0
outer loop
vertex -9.24852813742386 0.848528137423862 2.0
vertex -12.0 6.00000000000001 2.0
vertex -9.43923048454133 0.600000000000006 2.0
endloop
endfacet
facet normal -0.0 -0.0 1.0
outer loop
vertex -9.43923048454133 0.600000000000006 2.0
vertex -12.0 6.00000000000001 2.0
vertex -9.55911099154688 0.310582854123031 2.0
endloop
endfacet
facet normal -0.0 -0.0 1.0
outer loop
vertex -9.55911099154688 0.310582854123031 2.0
vertex -12.0 6.00000000000001 2.0
vertex -9.6 5.46368505993655e-015 2.0
endloop
endfacet
facet normal -0.0 -0.0 1.0
outer loop
vertex -1.13880379845109 4.25007363567191 2.0
vertex -8.71058285412303 1.15911099154689 2.0
vertex -2.2 3.81051177665154 2.0
endloop
endfacet
facet normal -0.0 -0.0 1.0
outer loop
vertex -2.2 3.81051177665154 2.0
vertex -8.71058285412303 1.15911099154689 2.0
vertex -8.4 1.20000000000001 2.0
endloop
endfacet
facet normal -0.0 -0.0 1.0
outer loop
vertex -2.2 3.81051177665154 2.0
vertex -8.4 1.20000000000001 2.0
vertex -8.08941714587698 1.15911099154689 2.0
endloop
endfacet
facet normal -0.0 -0.0 1.0
outer loop
vertex -2.2 3.81051177665154 2.0
vertex -8.08941714587698 1.15911099154689 2.0
vertex -7.8 1.03923048454133 2.0
endloop
endfacet
facet normal -0.0 -0.0 1.0
outer loop
vertex -2.2 3.81051177665154 2.0
vertex -7.8 1.03923048454133 2.0
vertex -7.55147186257614 0.848528137423863 2.0
endloop
endfacet
facet normal -0.0 -0.0 1.0
outer loop
vertex -2.2 3.81051177665154 2.0
vertex -7.55147186257614 0.848528137423863 2.0
vertex -7.36076951545867 0.600000000000006 2.0
endloop
endfacet
facet normal -0.0 -0.0 1.0
outer loop
vertex -2.2 3.81051177665154 2.0
vertex -7.36076951545867 0.600000000000006 2.0
vertex -7.24088900845312 0.310582854123032 2.0
endloop
endfacet
facet normal -0.0 -0.0 1.0
outer loop
vertex -2.2 3.81051177665154 2.0
vertex -7.24088900845312 0.310582854123032 2.0
vertex -7.2 5.46368505993655e-015 2.0
endloop
endfacet
facet normal -0.0 -0.0 1.0
outer loop
vertex -2.2 3.81051177665154 2.0
vertex -7.2 5.46368505993655e-015 2.0
vertex -3.11126983722081 3.11126983722082 2.0
endloop
endfacet
facet normal -0.0 -0.0 1.0
outer loop
vertex -3.11126983722081 3.11126983722082 2.0
vertex -7.2 5.46368505993655e-015 2.0
vertex -3.81051177665153 2.20000000000001 2.0
endloop
endfacet
facet normal -0.0 -0.0 1.0
outer loop
vertex -3.81051177665153 2.20000000000001 2.0
vertex -7.2 5.46368505993655e-015 2.0
vertex -4.2500736356719 1.1388037984511 2.0
endloop
endfacet
facet normal -0.0 -0.0 1.0
outer loop
vertex -4.2500736356719 1.1388037984511 2.0
vertex -7.2 5.46368505993655e-015 2.0
vertex -4.4 5.28743715477731e-015 2.0
endloop
endfacet
facet normal -0.0 -0.0 1.0
outer loop
vertex 12.0 6.00000000000001 2.0
vertex -1.13880379845109 4.25007363567191 2.0
vertex 0.0 4.40000000000001 2.0
endloop
endfacet
facet normal -0.0 -0.0 1.0
outer loop
vertex 12.0 6.00000000000001 2.0
vertex 0.0 4.40000000000001 2.0
vertex 1.13880379845109 4.25007363567191 2.0
endloop
endfacet
facet normal -0.0 -0.0 1.0
outer loop
vertex 12.0 6.00000000000001 2.0
vertex 1.13880379845109 4.25007363567191 2.0
vertex 2.2 3.81051177665154 2.0
endloop
endfacet
facet normal -0.0 -0.0 1.0
outer loop
vertex 12.0 6.00000000000001 2.0
vertex 2.2 3.81051177665154 2.0
vertex 3.11126983722081 3.11126983722082 2.0
endloop
endfacet
facet normal -0.0 -0.0 1.0
outer loop
vertex 12.0 6.00000000000001 2.0
vertex 3.11126983722081 3.11126983722082 2.0
vertex 3.81051177665153 2.20000000000001 2.0
endloop
endfacet
facet normal -0.0 -0.0 1.0
outer loop
vertex 12.0 6.00000000000001 2.0
vertex 3.81051177665153 2.20000000000001 2.0
vertex 4.2500736356719 1.13880379845111 2.0
endloop
endfacet
facet normal -0.0 -0.0 1.0
outer loop
vertex 12.0 6.00000000000001 2.0
vertex 4.2500736356719 1.13880379845111 2.0
vertex 4.4 1.69197988952874e-014 2.0
endloop
endfacet
facet normal -0.0 -0.0 1.0
outer loop
vertex 12.0 6.00000000000001 2.0
vertex 4.4 1.69197988952874e-014 2.0
vertex 7.55147186257614 0.848528137423862 2.0
endloop
endfacet
facet normal -0.0 -0.0 1.0
outer loop
vertex 7.55147186257614 0.848528137423862 2.0
vertex 4.4 1.69197988952874e-014 2.0
vertex 7.36076951545867 0.600000000000006 2.0
endloop
endfacet
facet normal -0.0 -0.0 1.0
outer loop
vertex 7.36076951545867 0.600000000000006 2.0
vertex 4.4 1.69197988952874e-014 2.0
vertex 7.24088900845311 0.310582854123031 2.0
endloop
endfacet
facet normal -0.0 -0.0 1.0
outer loop
vertex 7.24088900845311 0.310582854123031 2.0
vertex 4.4 1.69197988952874e-014 2.0
vertex 7.2 5.46368505993655e-015 2.0
endloop
endfacet
facet normal -0.0 -0.0 1.0
outer loop
vertex 12.0 6.00000000000001 2.0
vertex 7.55147186257614 0.848528137423862 2.0
vertex 7.8 1.03923048454133 2.0
endloop
endfacet
facet normal -0.0 -0.0 1.0
outer loop
vertex 12.0 6.00000000000001 2.0
vertex 7.8 1.03923048454133 2.0
vertex 8.08941714587697 1.15911099154689 2.0
endloop
endfacet
facet normal -0.0 -0.0 1.0
outer loop
vertex 12.0 6.00000000000001 2.0
vertex 8.08941714587697 1.15911099154689 2.0
vertex 8.4 1.2 2.0
endloop
endfacet
facet normal -0.0 -0.0 1.0
outer loop
vertex 12.0 6.00000000000001 2.0
vertex 8.4 1.2 2.0
vertex 8.71058285412302 1.15911099154689 2.0
endloop
endfacet
facet normal -0.0 -0.0 1.0
outer loop
vertex 12.0 6.00000000000001 2.0
vertex 8.71058285412302 1.15911099154689 2.0
vertex 8.99999999999999 1.03923048454133 2.0
endloop
endfacet
facet normal -0.0 -0.0 1.0
outer loop
vertex 12.0 6.00000000000001 2.0
vertex 8.99999999999999 1.03923048454133 2.0
vertex 9.24852813742385 0.848528137423863 2.0
endloop
endfacet
facet normal -0.0 -0.0 1.0
outer loop
vertex 12.0 6.00000000000001 2.0
vertex 9.24852813742385 0.848528137423863 2.0
vertex 9.43923048454132 0.600000000000006 2.0
endloop
endfacet
facet normal -0.0 -0.0 1.0
outer loop
vertex 12.0 6.00000000000001 2.0
vertex 9.43923048454132 0.600000000000006 2.0
vertex 9.55911099154688 0.310582854123031 2.0
endloop
endfacet
facet normal -0.0 -0.0 1.0
outer loop
vertex 12.0 6.00000000000001 2.0
vertex 9.55911099154688 0.310582854123031 2.0
vertex 9.6 5.46368505993655e-015 2.0
endloop
endfacet
facet normal -0.0 -0.0 1.0
outer loop
vertex 12.0 6.00000000000001 2.0
vertex 9.6 5.46368505993655e-015 2.0
vertex 12.0 -5.99999999999999 2.0
endloop
endfacet
endsolid home-mount-base-rev-2
