solid tonearm
facet normal 1.0 0.0 0.0
outer loop
vertex 0.0 178.256580161445 -1.0
vertex 5.21918260034699e-017 118.256580161445 1.0
vertex 0.0 118.256580161445 -1.0
endloop
endfacet
facet normal 1.0 0.0 0.0
outer loop
vertex 5.21918260034699e-017 118.256580161445 1.0
vertex 0.0 178.256580161445 -1.0
vertex 5.21918260034699e-017 178.256580161445 1.0
endloop
endfacet
facet normal 0.0 -1.0 0.0
outer loop
vertex 22.0 178.256580161445 1.0
vertex 0.0 178.256580161445 -1.0
vertex 22.0 178.256580161445 -1.0
endloop
endfacet
facet normal 0.0 -1.0 0.0
outer loop
vertex 0.0 178.256580161445 -1.0
vertex 22.0 178.256580161445 1.0
vertex 5.21918260034699e-017 178.256580161445 1.0
endloop
endfacet
facet normal -1.0 0.0 0.0
outer loop
vertex 22.0 178.256580161445 1.0
vertex 22.0 118.256580161445 -1.0
vertex 22.0 118.256580161445 1.0
endloop
endfacet
facet normal -1.0 0.0 0.0
outer loop
vertex 22.0 118.256580161445 -1.0
vertex 22.0 178.256580161445 1.0
vertex 22.0 178.256580161445 -1.0
endloop
endfacet
facet normal 0.0 -1.0 0.0
outer loop
vertex 2.0 118.256580161445 1.00000000000001
vertex 0.0 118.256580161445 10.0
vertex 5.21918260034699e-017 118.256580161445 1.0
endloop
endfacet
facet normal 0.0 -1.0 0.0
outer loop
vertex 0.0 118.256580161445 10.0
vertex 2.0 118.256580161445 1.00000000000001
vertex 2.0 118.256580161445 10.0
endloop
endfacet
facet normal 5.21918260034699e-017 -6.71064141805471e-017 -1.0
outer loop
vertex 22.0 178.256580161445 1.0
vertex 5.21918260034699e-017 118.256580161445 1.0
vertex 5.21918260034699e-017 178.256580161445 1.0
endloop
endfacet
facet normal 5.21918260034699e-017 -6.71064141805471e-017 -1.0
outer loop
vertex 5.21918260034699e-017 118.256580161445 1.0
vertex 22.0 178.256580161445 1.0
vertex 2.0 118.256580161445 1.00000000000001
endloop
endfacet
facet normal 5.21918260034699e-017 -6.71064141805471e-017 -1.0
outer loop
vertex 2.0 118.256580161445 1.00000000000001
vertex 22.0 178.256580161445 1.0
vertex 20.0 118.256580161445 1.00000000000001
endloop
endfacet
facet normal 5.21918260034699e-017 -6.71064141805471e-017 -1.0
outer loop
vertex 20.0 118.256580161445 1.00000000000001
vertex 22.0 178.256580161445 1.0
vertex 22.0 118.256580161445 1.0
endloop
endfacet
facet normal 5.21918260034699e-017 -6.71064141805471e-017 -1.0
outer loop
vertex 2.0 118.256580161445 1.00000000000001
vertex -20.2365547294117 21.1169440305317 1.00000000000001
vertex -35.7149482819416 27.2046405149814 1.0
endloop
endfacet
facet normal 5.21918260034699e-017 -6.71064141805471e-017 -1.0
outer loop
vertex -20.2365547294117 21.1169440305317 1.00000000000001
vertex 2.0 118.256580161445 1.00000000000001
vertex 20.0 118.256580161445 1.00000000000001
endloop
endfacet
facet normal 0.923879532511287 -0.38268343236509 9.63110419412404e-017
outer loop
vertex 20.0 118.256580161445 1.00000000000001
vertex -20.2365547294117 21.1169440305317 5.80000000000001
vertex -20.2365547294117 21.1169440305317 1.00000000000001
endloop
endfacet
facet normal 0.923879532511287 -0.38268343236509 9.63110419412404e-017
outer loop
vertex -20.2365547294117 21.1169440305317 5.80000000000001
vertex 20.0 118.256580161445 1.00000000000001
vertex -20.2365547294117 21.1169440305317 10.0
endloop
endfacet
facet normal 0.923879532511287 -0.38268343236509 9.63110419412404e-017
outer loop
vertex -20.2365547294117 21.1169440305317 10.0
vertex 20.0 118.256580161445 1.00000000000001
vertex 20.0 118.256580161445 10.0
endloop
endfacet
facet normal 0.0 -1.0 0.0
outer loop
vertex 22.0 118.256580161445 10.0
vertex 20.0 118.256580161445 1.00000000000001
vertex 22.0 118.256580161445 1.0
endloop
endfacet
facet normal 0.0 -1.0 0.0
outer loop
vertex 20.0 118.256580161445 1.00000000000001
vertex 22.0 118.256580161445 10.0
vertex 20.0 118.256580161445 10.0
endloop
endfacet
facet normal -0.366011677817324 -0.930610257681134 8.12390670829368e-019
outer loop
vertex -20.2365547294117 21.1169440305317 1.00000000000001
vertex -35.7149482819416 27.2046405149814 5.8
vertex -35.7149482819416 27.2046405149814 1.0
endloop
endfacet
facet normal -0.366011677817324 -0.930610257681134 8.12390670829368e-019
outer loop
vertex -35.7149482819416 27.2046405149814 5.8
vertex -20.2365547294117 21.1169440305317 1.00000000000001
vertex -20.2365547294117 21.1169440305317 5.80000000000001
endloop
endfacet
facet normal 0.366011677817324 0.930610257681134 -2.6414317289106e-017
outer loop
vertex -36.4804388691113 25.3565827575674 5.8
vertex -21.0020453165814 19.2688862731177 1.00000000000001
vertex -36.4804388691113 25.3565827575674 1.0
endloop
endfacet
facet normal 0.366011677817324 0.930610257681134 -2.6414317289106e-017
outer loop
vertex -21.0020453165814 19.2688862731177 1.00000000000001
vertex -36.4804388691113 25.3565827575674 5.8
vertex -21.0020453165814 19.2688862731177 5.80000000000001
endloop
endfacet
facet normal -0.923879532511287 0.382683432365089 5.95696180332995e-017
outer loop
vertex 2.0 118.256580161445 10.0
vertex -35.7149482819416 27.2046405149814 5.8
vertex -35.7149482819416 27.2046405149814 9.99999999999999
endloop
endfacet
facet normal -0.923879532511287 0.382683432365089 5.95696180332995e-017
outer loop
vertex -35.7149482819416 27.2046405149814 5.8
vertex 2.0 118.256580161445 10.0
vertex -35.7149482819416 27.2046405149814 1.0
endloop
endfacet
facet normal -0.923879532511287 0.382683432365089 5.95696180332995e-017
outer loop
vertex -35.7149482819416 27.2046405149814 1.0
vertex 2.0 118.256580161445 10.0
vertex 2.0 118.256580161445 1.00000000000001
endloop
endfacet
facet normal 0.923879532511287 -0.38268343236509 -7.66253288476392e-016
outer loop
vertex -49.668667233448 -1.6541898985417 -1.0
vertex -43.2034034372715 13.9543376425075 3.66789676999539
vertex -43.2453258212 13.8531280546602 4.5
endloop
endfacet
facet normal 0.923879532511287 -0.38268343236509 -7.66253288476392e-016
outer loop
vertex -43.2034034372715 13.9543376425075 3.66789676999539
vertex -49.668667233448 -1.6541898985417 -1.0
vertex -43.0804932266706 14.2510691398941 2.8925
endloop
endfacet
facet normal 0.923879532511287 -0.38268343236509 -7.66253288476392e-016
outer loop
vertex -43.0804932266706 14.2510691398941 2.8925
vertex -49.668667233448 -1.6541898985417 -1.0
vertex -42.8849713171312 14.7231007856453 2.22665169848525
endloop
endfacet
facet normal 0.923879532511287 -0.38268343236509 -7.66253288476392e-016
outer loop
vertex -42.8849713171312 14.7231007856453 2.22665169848525
vertex -49.668667233448 -1.6541898985417 -1.0
vertex -42.6301622036731 15.3382644031721 1.71572832683303
endloop
endfacet
facet normal 0.923879532511287 -0.38268343236509 -7.66253288476392e-016
outer loop
vertex -42.6301622036731 15.3382644031721 1.71572832683303
vertex -49.668667233448 -1.6541898985417 -1.0
vertex -42.3334307062865 16.0546376085463 1.39454846848064
endloop
endfacet
facet normal 0.923879532511287 -0.38268343236509 -7.66253288476392e-016
outer loop
vertex -42.3334307062865 16.0546376085463 1.39454846848064
vertex -49.668667233448 -1.6541898985417 -1.0
vertex -42.0149985861462 16.823400751684 1.285
endloop
endfacet
facet normal 0.923879532511287 -0.38268343236509 -7.66253288476392e-016
outer loop
vertex -42.0149985861462 16.823400751684 1.285
vertex -49.668667233448 -1.6541898985417 -1.0
vertex 0.0 118.256580161445 -1.0
endloop
endfacet
facet normal 0.923879532511287 -0.38268343236509 -7.66253288476392e-016
outer loop
vertex -42.0149985861462 16.823400751684 1.285
vertex 0.0 118.256580161445 -1.0
vertex -41.696566466006 17.5921638948218 1.39454846848065
endloop
endfacet
facet normal 0.923879532511287 -0.38268343236509 -7.66253288476392e-016
outer loop
vertex -41.696566466006 17.5921638948218 1.39454846848065
vertex 0.0 118.256580161445 -1.0
vertex -41.3998349686193 18.3085371001959 1.71572832683303
endloop
endfacet
facet normal 0.923879532511287 -0.38268343236509 -7.66253288476392e-016
outer loop
vertex -41.3998349686193 18.3085371001959 1.71572832683303
vertex 0.0 118.256580161445 -1.0
vertex -41.1450258551612 18.9237007177228 2.22665169848525
endloop
endfacet
facet normal 0.923879532511287 -0.38268343236509 -7.66253288476392e-016
outer loop
vertex -41.1450258551612 18.9237007177228 2.22665169848525
vertex 0.0 118.256580161445 -1.0
vertex -40.9495039456218 19.395732363474 2.8925
endloop
endfacet
facet normal 0.923879532511287 -0.38268343236509 -7.66253288476392e-016
outer loop
vertex -40.9495039456218 19.395732363474 2.8925
vertex 0.0 118.256580161445 -1.0
vertex -40.826593735021 19.6924638608606 3.6678967699954
endloop
endfacet
facet normal 0.923879532511287 -0.38268343236509 -7.66253288476392e-016
outer loop
vertex -40.826593735021 19.6924638608606 3.6678967699954
vertex 0.0 118.256580161445 -1.0
vertex -40.7846713510925 19.7936734487078 4.5
endloop
endfacet
facet normal 0.923879532511287 -0.38268343236509 -7.66253288476392e-016
outer loop
vertex -49.668667233448 -1.65418989854171 10.0
vertex -42.0149985861462 16.823400751684 7.715
vertex 0.0 118.256580161445 10.0
endloop
endfacet
facet normal 0.923879532511287 -0.38268343236509 -7.66253288476392e-016
outer loop
vertex -42.0149985861462 16.823400751684 7.715
vertex -49.668667233448 -1.65418989854171 10.0
vertex -42.3334307062865 16.0546376085463 7.60545153151935
endloop
endfacet
facet normal 0.923879532511287 -0.38268343236509 -7.66253288476392e-016
outer loop
vertex -42.3334307062865 16.0546376085463 7.60545153151935
vertex -49.668667233448 -1.65418989854171 10.0
vertex -42.6301622036731 15.3382644031721 7.28427167316697
endloop
endfacet
facet normal 0.923879532511287 -0.38268343236509 -7.66253288476392e-016
outer loop
vertex -42.6301622036731 15.3382644031721 7.28427167316697
vertex -49.668667233448 -1.65418989854171 10.0
vertex -49.668667233448 -1.6541898985417 -1.0
endloop
endfacet
facet normal 0.923879532511287 -0.38268343236509 -7.66253288476392e-016
outer loop
vertex -42.6301622036731 15.3382644031721 7.28427167316697
vertex -49.668667233448 -1.6541898985417 -1.0
vertex -42.8849713171312 14.7231007856453 6.77334830151475
endloop
endfacet
facet normal 0.923879532511287 -0.38268343236509 -7.66253288476392e-016
outer loop
vertex -42.8849713171312 14.7231007856453 6.77334830151475
vertex -49.668667233448 -1.6541898985417 -1.0
vertex -43.0804932266706 14.2510691398941 6.1075
endloop
endfacet
facet normal 0.923879532511287 -0.38268343236509 -7.66253288476392e-016
outer loop
vertex -43.0804932266706 14.2510691398941 6.1075
vertex -49.668667233448 -1.6541898985417 -1.0
vertex -43.2034034372715 13.9543376425075 5.3321032300046
endloop
endfacet
facet normal 0.923879532511287 -0.38268343236509 -7.66253288476392e-016
outer loop
vertex -43.2034034372715 13.9543376425075 5.3321032300046
vertex -49.668667233448 -1.6541898985417 -1.0
vertex -43.2453258212 13.8531280546602 4.5
endloop
endfacet
facet normal 0.923879532511287 -0.38268343236509 -7.66253288476392e-016
outer loop
vertex 0.0 118.256580161445 10.0
vertex -42.0149985861462 16.823400751684 7.715
vertex -41.696566466006 17.5921638948218 7.60545153151935
endloop
endfacet
facet normal 0.923879532511287 -0.38268343236509 -7.66253288476392e-016
outer loop
vertex 0.0 118.256580161445 10.0
vertex -41.696566466006 17.5921638948218 7.60545153151935
vertex -41.3998349686193 18.3085371001959 7.28427167316697
endloop
endfacet
facet normal 0.923879532511287 -0.38268343236509 -7.66253288476392e-016
outer loop
vertex 0.0 118.256580161445 10.0
vertex -41.3998349686193 18.3085371001959 7.28427167316697
vertex -41.1450258551612 18.9237007177228 6.77334830151475
endloop
endfacet
facet normal 0.923879532511287 -0.38268343236509 -7.66253288476392e-016
outer loop
vertex 0.0 118.256580161445 10.0
vertex -41.1450258551612 18.9237007177228 6.77334830151475
vertex -40.9495039456218 19.395732363474 6.1075
endloop
endfacet
facet normal 0.923879532511287 -0.38268343236509 -7.66253288476392e-016
outer loop
vertex 0.0 118.256580161445 10.0
vertex -40.9495039456218 19.395732363474 6.1075
vertex -40.826593735021 19.6924638608606 5.3321032300046
endloop
endfacet
facet normal 0.923879532511287 -0.38268343236509 -7.66253288476392e-016
outer loop
vertex 0.0 118.256580161445 10.0
vertex -40.826593735021 19.6924638608606 5.3321032300046
vertex -40.7846713510925 19.7936734487078 4.5
endloop
endfacet
facet normal 0.923879532511287 -0.38268343236509 -7.66253288476392e-016
outer loop
vertex 0.0 118.256580161445 10.0
vertex -40.7846713510925 19.7936734487078 4.5
vertex 0.0 118.256580161445 -1.0
endloop
endfacet
facet normal 0.923879532511287 -0.38268343236509 -7.66253288476392e-016
outer loop
vertex 0.0 118.256580161445 10.0
vertex 0.0 118.256580161445 -1.0
vertex 5.21918260034699e-017 118.256580161445 1.0
endloop
endfacet
facet normal 0.923879532511287 -0.38268343236509 1.19535187567177e-016
outer loop
vertex -21.0020453165814 19.2688862731177 1.00000000000001
vertex -23.0305136124553 14.371730602375 10.0
vertex -23.0305136124553 14.371730602375 1.00000000000001
endloop
endfacet
facet normal 0.923879532511287 -0.38268343236509 1.19535187567177e-016
outer loop
vertex -23.0305136124553 14.371730602375 10.0
vertex -21.0020453165814 19.2688862731177 1.00000000000001
vertex -21.0020453165814 19.2688862731177 10.0
endloop
endfacet
facet normal 0.923879532511287 -0.38268343236509 1.19535187567177e-016
outer loop
vertex -21.0020453165814 19.2688862731177 10.0
vertex -21.0020453165814 19.2688862731177 1.00000000000001
vertex -21.0020453165814 19.2688862731177 5.80000000000001
endloop
endfacet
facet normal -0.923879532511287 0.38268343236509 -2.22448454469116e-016
outer loop
vertex -30.776060118545 -9.15609994536456 10.0
vertex -23.851987610621 7.56008981012011 7.28427167316697
vertex -30.776060118545 -9.15609994536454 -1.0
endloop
endfacet
facet normal -0.923879532511287 0.38268343236509 -2.22448454469116e-016
outer loop
vertex -23.851987610621 7.56008981012011 7.28427167316697
vertex -30.776060118545 -9.15609994536456 10.0
vertex -23.5552561132344 8.27646301549422 7.60545153151935
endloop
endfacet
facet normal -0.923879532511287 0.38268343236509 -2.22448454469116e-016
outer loop
vertex -23.5552561132344 8.27646301549422 7.60545153151935
vertex -30.776060118545 -9.15609994536456 10.0
vertex -23.2368239930941 9.04522615863201 7.715
endloop
endfacet
facet normal -0.923879532511287 0.38268343236509 -2.22448454469116e-016
outer loop
vertex -23.2368239930941 9.04522615863201 7.715
vertex -30.776060118545 -9.15609994536456 10.0
vertex 22.0 118.256580161445 10.0
endloop
endfacet
facet normal -0.923879532511287 0.38268343236509 -2.22448454469116e-016
outer loop
vertex -30.776060118545 -9.15609994536454 -1.0
vertex -23.851987610621 7.56008981012011 7.28427167316697
vertex -24.1067967240791 6.94492619259323 6.77334830151475
endloop
endfacet
facet normal -0.923879532511287 0.38268343236509 -2.22448454469116e-016
outer loop
vertex -30.776060118545 -9.15609994536454 -1.0
vertex -24.1067967240791 6.94492619259323 6.77334830151475
vertex -24.3023186336186 6.47289454684208 6.1075
endloop
endfacet
facet normal -0.923879532511287 0.38268343236509 -2.22448454469116e-016
outer loop
vertex -30.776060118545 -9.15609994536454 -1.0
vertex -24.3023186336186 6.47289454684208 6.1075
vertex -24.4252288442194 6.17616304945544 5.3321032300046
endloop
endfacet
facet normal -0.923879532511287 0.38268343236509 -2.22448454469116e-016
outer loop
vertex -30.776060118545 -9.15609994536454 -1.0
vertex -24.4252288442194 6.17616304945544 5.3321032300046
vertex -24.4671512281479 6.07495346160822 4.5
endloop
endfacet
facet normal -0.923879532511287 0.38268343236509 -2.22448454469116e-016
outer loop
vertex -23.2368239930941 9.04522615863201 7.715
vertex 22.0 118.256580161445 10.0
vertex -22.9183918729539 9.81398930176979 7.60545153151935
endloop
endfacet
facet normal -0.923879532511287 0.38268343236509 -2.22448454469116e-016
outer loop
vertex -22.9183918729539 9.81398930176979 7.60545153151935
vertex 22.0 118.256580161445 10.0
vertex -22.6216603755673 10.5303625071439 7.28427167316697
endloop
endfacet
facet normal -0.923879532511287 0.38268343236509 -2.22448454469116e-016
outer loop
vertex -22.6216603755673 10.5303625071439 7.28427167316697
vertex 22.0 118.256580161445 10.0
vertex -22.3668512621091 11.1455261246708 6.77334830151475
endloop
endfacet
facet normal -0.923879532511287 0.38268343236509 -2.22448454469116e-016
outer loop
vertex -22.3668512621091 11.1455261246708 6.77334830151475
vertex 22.0 118.256580161445 10.0
vertex -22.1713293525697 11.6175577704219 6.1075
endloop
endfacet
facet normal -0.923879532511287 0.38268343236509 -2.22448454469116e-016
outer loop
vertex -22.1713293525697 11.6175577704219 6.1075
vertex 22.0 118.256580161445 10.0
vertex -22.0484191419689 11.9142892678086 5.3321032300046
endloop
endfacet
facet normal -0.923879532511287 0.38268343236509 -2.22448454469116e-016
outer loop
vertex -22.0484191419689 11.9142892678086 5.3321032300046
vertex 22.0 118.256580161445 10.0
vertex -22.0064967580404 12.0154988556558 4.5
endloop
endfacet
facet normal -0.923879532511287 0.38268343236509 -2.22448454469116e-016
outer loop
vertex -30.776060118545 -9.15609994536454 -1.0
vertex -23.2368239930941 9.04522615863201 1.285
vertex 22.0 118.256580161445 -1.0
endloop
endfacet
facet normal -0.923879532511287 0.38268343236509 -2.22448454469116e-016
outer loop
vertex -23.2368239930941 9.04522615863201 1.285
vertex -30.776060118545 -9.15609994536454 -1.0
vertex -23.5552561132344 8.27646301549422 1.39454846848064
endloop
endfacet
facet normal -0.923879532511287 0.38268343236509 -2.22448454469116e-016
outer loop
vertex -23.5552561132344 8.27646301549422 1.39454846848064
vertex -30.776060118545 -9.15609994536454 -1.0
vertex -23.851987610621 7.56008981012011 1.71572832683303
endloop
endfacet
facet normal -0.923879532511287 0.38268343236509 -2.22448454469116e-016
outer loop
vertex -23.851987610621 7.56008981012011 1.71572832683303
vertex -30.776060118545 -9.15609994536454 -1.0
vertex -24.1067967240791 6.94492619259323 2.22665169848525
endloop
endfacet
facet normal -0.923879532511287 0.38268343236509 -2.22448454469116e-016
outer loop
vertex -24.1067967240791 6.94492619259323 2.22665169848525
vertex -30.776060118545 -9.15609994536454 -1.0
vertex -24.3023186336186 6.47289454684208 2.8925
endloop
endfacet
facet normal -0.923879532511287 0.38268343236509 -2.22448454469116e-016
outer loop
vertex -24.3023186336186 6.47289454684208 2.8925
vertex -30.776060118545 -9.15609994536454 -1.0
vertex -24.4252288442194 6.17616304945544 3.66789676999539
endloop
endfacet
facet normal -0.923879532511287 0.38268343236509 -2.22448454469116e-016
outer loop
vertex -24.4252288442194 6.17616304945544 3.66789676999539
vertex -30.776060118545 -9.15609994536454 -1.0
vertex -24.4671512281479 6.07495346160822 4.5
endloop
endfacet
facet normal -0.923879532511287 0.38268343236509 -2.22448454469116e-016
outer loop
vertex 22.0 118.256580161445 -1.0
vertex -23.2368239930941 9.04522615863201 1.285
vertex -22.9183918729539 9.8139893017698 1.39454846848065
endloop
endfacet
facet normal -0.923879532511287 0.38268343236509 -2.22448454469116e-016
outer loop
vertex 22.0 118.256580161445 -1.0
vertex -22.9183918729539 9.8139893017698 1.39454846848065
vertex -22.6216603755673 10.5303625071439 1.71572832683303
endloop
endfacet
facet normal -0.923879532511287 0.38268343236509 -2.22448454469116e-016
outer loop
vertex 22.0 118.256580161445 -1.0
vertex -22.6216603755673 10.5303625071439 1.71572832683303
vertex -22.3668512621091 11.1455261246708 2.22665169848525
endloop
endfacet
facet normal -0.923879532511287 0.38268343236509 -2.22448454469116e-016
outer loop
vertex 22.0 118.256580161445 -1.0
vertex -22.3668512621091 11.1455261246708 2.22665169848525
vertex -22.1713293525697 11.6175577704219 2.8925
endloop
endfacet
facet normal -0.923879532511287 0.38268343236509 -2.22448454469116e-016
outer loop
vertex 22.0 118.256580161445 -1.0
vertex -22.1713293525697 11.6175577704219 2.8925
vertex -22.0484191419689 11.9142892678086 3.6678967699954
endloop
endfacet
facet normal -0.923879532511287 0.38268343236509 -2.22448454469116e-016
outer loop
vertex 22.0 118.256580161445 -1.0
vertex -22.0484191419689 11.9142892678086 3.6678967699954
vertex -22.0064967580404 12.0154988556558 4.5
endloop
endfacet
facet normal -0.923879532511287 0.38268343236509 -2.22448454469116e-016
outer loop
vertex 22.0 118.256580161445 -1.0
vertex -22.0064967580404 12.0154988556558 4.5
vertex 22.0 118.256580161445 10.0
endloop
endfacet
facet normal -0.923879532511287 0.38268343236509 -2.22448454469116e-016
outer loop
vertex 22.0 118.256580161445 -1.0
vertex 22.0 118.256580161445 10.0
vertex 22.0 118.256580161445 1.0
endloop
endfacet
facet normal 4.57825943029521e-018 2.70500162274608e-019 1.0
outer loop
vertex -47.1954162558022 -2.63627279714173 -1.0
vertex 0.0 118.256580161445 -1.0
vertex -49.668667233448 -1.6541898985417 -1.0
endloop
endfacet
facet normal 4.57825943029521e-018 2.70500162274608e-019 1.0
outer loop
vertex 0.0 118.256580161445 -1.0
vertex -47.1954162558022 -2.63627279714173 -1.0
vertex -39.6159188751205 -5.64595310246867 -1.0
endloop
endfacet
facet normal 4.57825943029521e-018 2.70500162274608e-019 1.0
outer loop
vertex 0.0 118.256580161445 -1.0
vertex -39.6159188751205 -5.64595310246867 -1.0
vertex -30.776060118545 -9.15609994536454 -1.0
endloop
endfacet
facet normal 4.57825943029521e-018 2.70500162274608e-019 1.0
outer loop
vertex 0.0 118.256580161445 -1.0
vertex -30.776060118545 -9.15609994536454 -1.0
vertex 22.0 118.256580161445 -1.0
endloop
endfacet
facet normal 4.57825943029521e-018 2.70500162274608e-019 1.0
outer loop
vertex 0.0 118.256580161445 -1.0
vertex 22.0 118.256580161445 -1.0
vertex 0.0 178.256580161445 -1.0
endloop
endfacet
facet normal 4.57825943029521e-018 2.70500162274608e-019 1.0
outer loop
vertex 0.0 178.256580161445 -1.0
vertex 22.0 118.256580161445 -1.0
vertex 22.0 178.256580161445 -1.0
endloop
endfacet
facet normal 4.90704891854781e-016 -2.84924611222962e-016 -1.0
outer loop
vertex -36.4804388691113 25.3565827575674 1.0
vertex -23.0305136124553 14.371730602375 1.00000000000001
vertex -38.3944746431342 20.7356916330539 1.0
endloop
endfacet
facet normal 4.90704891854781e-016 -2.84924611222962e-016 -1.0
outer loop
vertex -23.0305136124553 14.371730602375 1.00000000000001
vertex -36.4804388691113 25.3565827575674 1.0
vertex -21.0020453165814 19.2688862731177 1.00000000000001
endloop
endfacet
facet normal 1.7178169861595e-016 -8.14098125340242e-017 -1.0
outer loop
vertex 0.0 118.256580161445 10.0
vertex -47.9615604522615 -2.36129667972823 10.0
vertex -49.668667233448 -1.65418989854171 10.0
endloop
endfacet
facet normal 1.7178169861595e-016 -8.14098125340242e-017 -1.0
outer loop
vertex -47.9615604522615 -2.36129667972823 10.0
vertex 0.0 118.256580161445 10.0
vertex -42.2213089667851 11.4968963079411 10.0
endloop
endfacet
facet normal 1.7178169861595e-016 -8.14098125340242e-017 -1.0
outer loop
vertex -42.2213089667851 11.4968963079411 10.0
vertex 0.0 118.256580161445 10.0
vertex -38.3944746431342 20.7356916330539 9.99999999999999
endloop
endfacet
facet normal 1.7178169861595e-016 -8.14098125340242e-017 -1.0
outer loop
vertex -38.3944746431342 20.7356916330539 9.99999999999999
vertex 0.0 118.256580161445 10.0
vertex -36.4804388691113 25.3565827575674 9.99999999999999
endloop
endfacet
facet normal 1.7178169861595e-016 -8.14098125340242e-017 -1.0
outer loop
vertex -36.4804388691113 25.3565827575674 9.99999999999999
vertex 0.0 118.256580161445 10.0
vertex -35.7149482819416 27.2046405149814 9.99999999999999
endloop
endfacet
facet normal 1.7178169861595e-016 -8.14098125340242e-017 -1.0
outer loop
vertex -35.7149482819416 27.2046405149814 9.99999999999999
vertex 0.0 118.256580161445 10.0
vertex 2.0 118.256580161445 10.0
endloop
endfacet
facet normal 1.7178169861595e-016 -8.14098125340242e-017 -1.0
outer loop
vertex -38.3944746431342 20.7356916330539 9.99999999999999
vertex -26.8573479361062 5.13293527726215 10.0
vertex -42.2213089667851 11.4968963079411 10.0
endloop
endfacet
facet normal 1.7178169861595e-016 -8.14098125340242e-017 -1.0
outer loop
vertex -26.8573479361062 5.13293527726215 10.0
vertex -38.3944746431342 20.7356916330539 9.99999999999999
vertex -23.0305136124553 14.371730602375 10.0
endloop
endfacet
facet normal 1.7178169861595e-016 -8.14098125340242e-017 -1.0
outer loop
vertex -26.8573479361062 5.13293527726215 10.0
vertex -30.776060118545 -9.15609994536456 10.0
vertex -32.4831668997316 -8.44899316417801 10.0
endloop
endfacet
facet normal 1.7178169861595e-016 -8.14098125340242e-017 -1.0
outer loop
vertex -30.776060118545 -9.15609994536456 10.0
vertex -26.8573479361062 5.13293527726215 10.0
vertex 22.0 118.256580161445 10.0
endloop
endfacet
facet normal 1.7178169861595e-016 -8.14098125340242e-017 -1.0
outer loop
vertex 22.0 118.256580161445 10.0
vertex -26.8573479361062 5.13293527726215 10.0
vertex -23.0305136124553 14.371730602375 10.0
endloop
endfacet
facet normal 1.7178169861595e-016 -8.14098125340242e-017 -1.0
outer loop
vertex 22.0 118.256580161445 10.0
vertex -23.0305136124553 14.371730602375 10.0
vertex -21.0020453165814 19.2688862731177 10.0
endloop
endfacet
facet normal 1.7178169861595e-016 -8.14098125340242e-017 -1.0
outer loop
vertex 22.0 118.256580161445 10.0
vertex -21.0020453165814 19.2688862731177 10.0
vertex -20.2365547294117 21.1169440305317 10.0
endloop
endfacet
facet normal 1.7178169861595e-016 -8.14098125340242e-017 -1.0
outer loop
vertex 22.0 118.256580161445 10.0
vertex -20.2365547294117 21.1169440305317 10.0
vertex 20.0 118.256580161445 10.0
endloop
endfacet
facet normal 4.69994413757983e-016 -1.94678060418149e-016 -1.0
outer loop
vertex -35.7149482819416 27.2046405149814 5.8
vertex -21.0020453165814 19.2688862731177 5.80000000000001
vertex -36.4804388691113 25.3565827575674 5.8
endloop
endfacet
facet normal 4.69994413757983e-016 -1.94678060418149e-016 -1.0
outer loop
vertex -21.0020453165814 19.2688862731177 5.80000000000001
vertex -35.7149482819416 27.2046405149814 5.8
vertex -20.2365547294117 21.1169440305317 5.80000000000001
endloop
endfacet
facet normal 0.923879532511287 -0.382683432365089 5.08718287632637e-016
outer loop
vertex -20.2365547294117 21.1169440305317 5.80000000000001
vertex -21.0020453165814 19.2688862731177 10.0
vertex -21.0020453165814 19.2688862731177 5.80000000000001
endloop
endfacet
facet normal 0.923879532511287 -0.382683432365089 5.08718287632637e-016
outer loop
vertex -21.0020453165814 19.2688862731177 10.0
vertex -20.2365547294117 21.1169440305317 5.80000000000001
vertex -20.2365547294117 21.1169440305317 10.0
endloop
endfacet
facet normal -0.923879532511287 0.38268343236509 -5.08718287632637e-016
outer loop
vertex -35.7149482819416 27.2046405149814 9.99999999999999
vertex -36.4804388691113 25.3565827575674 5.8
vertex -36.4804388691113 25.3565827575674 9.99999999999999
endloop
endfacet
facet normal -0.923879532511287 0.38268343236509 -5.08718287632637e-016
outer loop
vertex -36.4804388691113 25.3565827575674 5.8
vertex -35.7149482819416 27.2046405149814 9.99999999999999
vertex -35.7149482819416 27.2046405149814 5.8
endloop
endfacet
facet normal -0.923879532511287 0.38268343236509 -1.92064270040081e-016
outer loop
vertex -38.3944746431342 20.7356916330539 9.99999999999999
vertex -36.4804388691113 25.3565827575674 1.0
vertex -38.3944746431342 20.7356916330539 1.0
endloop
endfacet
facet normal -0.923879532511287 0.38268343236509 -1.92064270040081e-016
outer loop
vertex -36.4804388691113 25.3565827575674 1.0
vertex -38.3944746431342 20.7356916330539 9.99999999999999
vertex -36.4804388691113 25.3565827575674 9.99999999999999
endloop
endfacet
facet normal -0.923879532511287 0.38268343236509 -1.92064270040081e-016
outer loop
vertex -36.4804388691113 25.3565827575674 1.0
vertex -36.4804388691113 25.3565827575674 9.99999999999999
vertex -36.4804388691113 25.3565827575674 5.8
endloop
endfacet
facet normal -0.38268343236509 -0.923879532511287 7.1910322943535e-016
outer loop
vertex -23.0305136124553 14.371730602375 1.00000000000001
vertex -38.3944746431342 20.7356916330539 9.99999999999999
vertex -38.3944746431342 20.7356916330539 1.0
endloop
endfacet
facet normal -0.38268343236509 -0.923879532511287 7.1910322943535e-016
outer loop
vertex -38.3944746431342 20.7356916330539 9.99999999999999
vertex -23.0305136124553 14.371730602375 1.00000000000001
vertex -23.0305136124553 14.371730602375 10.0
endloop
endfacet
facet normal 5.66059208513632e-016 -2.68129281637109e-016 -1.0
outer loop
vertex -42.2213089667851 11.4968963079411 1.0
vertex -44.8216764603531 -3.59622204031234 1.00000000000001
vertex -47.9615604522615 -2.36129667972824 1.0
endloop
endfacet
facet normal 5.66059208513632e-016 -2.68129281637109e-016 -1.0
outer loop
vertex -44.8216764603531 -3.59622204031234 1.00000000000001
vertex -42.2213089667851 11.4968963079411 1.0
vertex -32.4831668997316 -8.448993164178 1.00000000000001
endloop
endfacet
facet normal 5.66059208513632e-016 -2.68129281637109e-016 -1.0
outer loop
vertex -32.4831668997316 -8.448993164178 1.00000000000001
vertex -42.2213089667851 11.4968963079411 1.0
vertex -26.8573479361062 5.13293527726214 1.00000000000001
endloop
endfacet
facet normal 0.923879532511287 -0.382683432365089 7.29366976594167e-016
outer loop
vertex -32.4831668997316 -8.448993164178 1.00000000000001
vertex -26.8573479361062 5.13293527726215 10.0
vertex -32.4831668997316 -8.44899316417801 10.0
endloop
endfacet
facet normal 0.923879532511287 -0.382683432365089 7.29366976594167e-016
outer loop
vertex -26.8573479361062 5.13293527726215 10.0
vertex -32.4831668997316 -8.448993164178 1.00000000000001
vertex -26.8573479361062 5.13293527726214 1.00000000000001
endloop
endfacet
facet normal 0.38268343236509 0.923879532511287 -8.99319281946916e-016
outer loop
vertex -42.2213089667851 11.4968963079411 10.0
vertex -26.8573479361062 5.13293527726214 1.00000000000001
vertex -42.2213089667851 11.4968963079411 1.0
endloop
endfacet
facet normal 0.38268343236509 0.923879532511287 -8.99319281946916e-016
outer loop
vertex -26.8573479361062 5.13293527726214 1.00000000000001
vertex -42.2213089667851 11.4968963079411 10.0
vertex -26.8573479361062 5.13293527726215 10.0
endloop
endfacet
facet normal -0.923879532511287 0.38268343236509 -1.14373716489427e-015
outer loop
vertex -47.9615604522615 -2.36129667972823 10.0
vertex -42.2213089667851 11.4968963079411 1.0
vertex -47.9615604522615 -2.36129667972824 1.0
endloop
endfacet
facet normal -0.923879532511287 0.38268343236509 -1.14373716489427e-015
outer loop
vertex -42.2213089667851 11.4968963079411 1.0
vertex -47.9615604522615 -2.36129667972823 10.0
vertex -42.2213089667851 11.4968963079411 10.0
endloop
endfacet
facet normal 4.45555494782345e-017 -3.56444395825876e-016 1.0
outer loop
vertex -23.2368239930941 9.04522615863201 7.715
vertex -41.696566466006 17.5921638948218 7.60545153151935
vertex -42.0149985861462 16.823400751684 7.715
endloop
endfacet
facet normal 0.099045760541288 0.239117618394335 0.965925826289068
outer loop
vertex -41.696566466006 17.5921638948218 7.60545153151935
vertex -23.2368239930941 9.04522615863201 7.715
vertex -22.9183918729539 9.81398930176979 7.60545153151935
endloop
endfacet
facet normal -0.0990457605412873 -0.239117618394334 0.965925826289068
outer loop
vertex -23.5552561132344 8.27646301549422 7.60545153151935
vertex -42.0149985861462 16.823400751684 7.715
vertex -42.3334307062865 16.0546376085463 7.60545153151935
endloop
endfacet
facet normal 1.1584442864341e-016 -1.96044417704232e-016 1.0
outer loop
vertex -42.0149985861462 16.823400751684 7.715
vertex -23.5552561132344 8.27646301549422 7.60545153151935
vertex -23.2368239930941 9.04522615863201 7.715
endloop
endfacet
facet normal -0.191341716182545 -0.461939766255644 0.866025403784438
outer loop
vertex -23.851987610621 7.56008981012011 7.28427167316697
vertex -42.3334307062865 16.0546376085463 7.60545153151935
vertex -42.6301622036731 15.3382644031721 7.28427167316697
endloop
endfacet
facet normal -0.0990457605412874 -0.239117618394335 0.965925826289068
outer loop
vertex -42.3334307062865 16.0546376085463 7.60545153151935
vertex -23.851987610621 7.56008981012011 7.28427167316697
vertex -23.5552561132344 8.27646301549422 7.60545153151935
endloop
endfacet
facet normal -0.270598050073099 -0.653281482438189 0.707106781186547
outer loop
vertex -24.1067967240791 6.94492619259323 6.77334830151475
vertex -42.6301622036731 15.3382644031721 7.28427167316697
vertex -42.8849713171312 14.7231007856453 6.77334830151475
endloop
endfacet
facet normal -0.191341716182545 -0.461939766255644 0.866025403784438
outer loop
vertex -42.6301622036731 15.3382644031721 7.28427167316697
vertex -24.1067967240791 6.94492619259323 6.77334830151475
vertex -23.851987610621 7.56008981012011 7.28427167316697
endloop
endfacet
facet normal -0.270598050073099 -0.653281482438189 0.707106781186547
outer loop
vertex -24.1067967240791 6.94492619259323 6.77334830151475
vertex -43.0804932266706 14.2510691398941 6.1075
vertex -24.3023186336186 6.47289454684208 6.1075
endloop
endfacet
facet normal -0.331413574035591 -0.800103145191265 0.5
outer loop
vertex -43.0804932266706 14.2510691398941 6.1075
vertex -24.1067967240791 6.94492619259323 6.77334830151475
vertex -42.8849713171312 14.7231007856453 6.77334830151475
endloop
endfacet
facet normal -0.331413574035592 -0.800103145191265 0.5
outer loop
vertex -24.3023186336186 6.47289454684208 6.1075
vertex -43.2034034372715 13.9543376425075 5.3321032300046
vertex -24.4252288442194 6.17616304945544 5.3321032300046
endloop
endfacet
facet normal -0.369643810614386 -0.892399100832523 0.258819045102522
outer loop
vertex -43.2034034372715 13.9543376425075 5.3321032300046
vertex -24.3023186336186 6.47289454684208 6.1075
vertex -43.0804932266706 14.2510691398941 6.1075
endloop
endfacet
facet normal -0.369643810614386 -0.892399100832523 0.258819045102521
outer loop
vertex -24.4252288442194 6.17616304945544 5.3321032300046
vertex -43.2453258212 13.8531280546602 4.5
vertex -24.4671512281479 6.07495346160822 4.5
endloop
endfacet
facet normal -0.38268343236509 -0.923879532511287 6.23777692695283e-017
outer loop
vertex -43.2453258212 13.8531280546602 4.5
vertex -24.4252288442194 6.17616304945544 5.3321032300046
vertex -43.2034034372715 13.9543376425075 5.3321032300046
endloop
endfacet
facet normal -0.38268343236509 -0.923879532511287 5.34666593738817e-017
outer loop
vertex -24.4671512281479 6.07495346160822 4.5
vertex -43.2034034372715 13.9543376425075 3.66789676999539
vertex -24.4252288442194 6.17616304945544 3.66789676999539
endloop
endfacet
facet normal -0.369643810614386 -0.892399100832523 -0.258819045102522
outer loop
vertex -43.2034034372715 13.9543376425075 3.66789676999539
vertex -24.4671512281479 6.07495346160822 4.5
vertex -43.2453258212 13.8531280546602 4.5
endloop
endfacet
facet normal -0.369643810614386 -0.892399100832523 -0.258819045102522
outer loop
vertex -24.4252288442194 6.17616304945544 3.66789676999539
vertex -43.0804932266706 14.2510691398941 2.8925
vertex -24.3023186336186 6.47289454684208 2.8925
endloop
endfacet
facet normal -0.331413574035592 -0.800103145191265 -0.5
outer loop
vertex -43.0804932266706 14.2510691398941 2.8925
vertex -24.4252288442194 6.17616304945544 3.66789676999539
vertex -43.2034034372715 13.9543376425075 3.66789676999539
endloop
endfacet
facet normal -0.331413574035592 -0.800103145191265 -0.5
outer loop
vertex -24.3023186336186 6.47289454684208 2.8925
vertex -42.8849713171312 14.7231007856453 2.22665169848525
vertex -24.1067967240791 6.94492619259323 2.22665169848525
endloop
endfacet
facet normal -0.270598050073099 -0.653281482438189 -0.707106781186547
outer loop
vertex -42.8849713171312 14.7231007856453 2.22665169848525
vertex -24.3023186336186 6.47289454684208 2.8925
vertex -43.0804932266706 14.2510691398941 2.8925
endloop
endfacet
facet normal -0.191341716182545 -0.461939766255644 -0.866025403784439
outer loop
vertex -42.6301622036731 15.3382644031721 1.71572832683303
vertex -24.1067967240791 6.94492619259323 2.22665169848525
vertex -42.8849713171312 14.7231007856453 2.22665169848525
endloop
endfacet
facet normal -0.270598050073099 -0.653281482438189 -0.707106781186547
outer loop
vertex -24.1067967240791 6.94492619259323 2.22665169848525
vertex -42.6301622036731 15.3382644031721 1.71572832683303
vertex -23.851987610621 7.56008981012011 1.71572832683303
endloop
endfacet
facet normal -0.0990457605412875 -0.239117618394334 -0.965925826289069
outer loop
vertex -42.3334307062865 16.0546376085463 1.39454846848064
vertex -23.851987610621 7.56008981012011 1.71572832683303
vertex -42.6301622036731 15.3382644031721 1.71572832683303
endloop
endfacet
facet normal -0.191341716182545 -0.461939766255643 -0.866025403784439
outer loop
vertex -23.851987610621 7.56008981012011 1.71572832683303
vertex -42.3334307062865 16.0546376085463 1.39454846848064
vertex -23.5552561132344 8.27646301549422 1.39454846848064
endloop
endfacet
facet normal 3.07433291399818e-016 1.21191094580798e-015 -1.0
outer loop
vertex -42.0149985861462 16.823400751684 1.285
vertex -23.5552561132344 8.27646301549422 1.39454846848064
vertex -42.3334307062865 16.0546376085463 1.39454846848064
endloop
endfacet
facet normal -0.0990457605412876 -0.239117618394334 -0.965925826289068
outer loop
vertex -23.5552561132344 8.27646301549422 1.39454846848064
vertex -42.0149985861462 16.823400751684 1.285
vertex -23.2368239930941 9.04522615863201 1.285
endloop
endfacet
facet normal 0.0990457605412881 0.239117618394336 -0.965925826289068
outer loop
vertex -41.696566466006 17.5921638948218 1.39454846848065
vertex -23.2368239930941 9.04522615863201 1.285
vertex -42.0149985861462 16.823400751684 1.285
endloop
endfacet
facet normal 1.60399978121644e-016 8.46555440086455e-016 -1.0
outer loop
vertex -23.2368239930941 9.04522615863201 1.285
vertex -41.696566466006 17.5921638948218 1.39454846848065
vertex -22.9183918729539 9.8139893017698 1.39454846848065
endloop
endfacet
facet normal 0.191341716182545 0.461939766255644 -0.866025403784438
outer loop
vertex -41.3998349686193 18.3085371001959 1.71572832683303
vertex -22.9183918729539 9.8139893017698 1.39454846848065
vertex -41.696566466006 17.5921638948218 1.39454846848065
endloop
endfacet
facet normal 0.0990457605412882 0.239117618394336 -0.965925826289068
outer loop
vertex -22.9183918729539 9.8139893017698 1.39454846848065
vertex -41.3998349686193 18.3085371001959 1.71572832683303
vertex -22.6216603755673 10.5303625071439 1.71572832683303
endloop
endfacet
facet normal 0.270598050073098 0.653281482438189 -0.707106781186547
outer loop
vertex -41.1450258551612 18.9237007177228 2.22665169848525
vertex -22.6216603755673 10.5303625071439 1.71572832683303
vertex -41.3998349686193 18.3085371001959 1.71572832683303
endloop
endfacet
facet normal 0.191341716182545 0.461939766255644 -0.866025403784438
outer loop
vertex -22.6216603755673 10.5303625071439 1.71572832683303
vertex -41.1450258551612 18.9237007177228 2.22665169848525
vertex -22.3668512621091 11.1455261246708 2.22665169848525
endloop
endfacet
facet normal 0.331413574035592 0.800103145191267 -0.499999999999998
outer loop
vertex -40.9495039456218 19.395732363474 2.8925
vertex -22.3668512621091 11.1455261246708 2.22665169848525
vertex -41.1450258551612 18.9237007177228 2.22665169848525
endloop
endfacet
facet normal 0.270598050073098 0.653281482438189 -0.707106781186547
outer loop
vertex -22.3668512621091 11.1455261246708 2.22665169848525
vertex -40.9495039456218 19.395732363474 2.8925
vertex -22.1713293525697 11.6175577704219 2.8925
endloop
endfacet
facet normal 0.369643810614386 0.892399100832523 -0.258819045102521
outer loop
vertex -40.826593735021 19.6924638608606 3.6678967699954
vertex -22.1713293525697 11.6175577704219 2.8925
vertex -40.9495039456218 19.395732363474 2.8925
endloop
endfacet
facet normal 0.331413574035592 0.800103145191266 -0.499999999999999
outer loop
vertex -22.1713293525697 11.6175577704219 2.8925
vertex -40.826593735021 19.6924638608606 3.6678967699954
vertex -22.0484191419689 11.9142892678086 3.6678967699954
endloop
endfacet
facet normal 0.38268343236509 0.923879532511287 0.0
outer loop
vertex -40.7846713510925 19.7936734487078 4.5
vertex -22.0484191419689 11.9142892678086 3.6678967699954
vertex -40.826593735021 19.6924638608606 3.6678967699954
endloop
endfacet
facet normal 0.369643810614386 0.892399100832523 -0.25881904510252
outer loop
vertex -22.0484191419689 11.9142892678086 3.6678967699954
vertex -40.7846713510925 19.7936734487078 4.5
vertex -22.0064967580404 12.0154988556558 4.5
endloop
endfacet
facet normal 0.369643810614386 0.892399100832523 0.258819045102522
outer loop
vertex -40.826593735021 19.6924638608606 5.3321032300046
vertex -22.0064967580404 12.0154988556558 4.5
vertex -40.7846713510925 19.7936734487078 4.5
endloop
endfacet
facet normal 0.38268343236509 0.923879532511287 0.0
outer loop
vertex -22.0064967580404 12.0154988556558 4.5
vertex -40.826593735021 19.6924638608606 5.3321032300046
vertex -22.0484191419689 11.9142892678086 5.3321032300046
endloop
endfacet
facet normal 0.331413574035592 0.800103145191266 0.5
outer loop
vertex -40.9495039456218 19.395732363474 6.1075
vertex -22.0484191419689 11.9142892678086 5.3321032300046
vertex -40.826593735021 19.6924638608606 5.3321032300046
endloop
endfacet
facet normal 0.369643810614386 0.892399100832523 0.258819045102522
outer loop
vertex -22.0484191419689 11.9142892678086 5.3321032300046
vertex -40.9495039456218 19.395732363474 6.1075
vertex -22.1713293525697 11.6175577704219 6.1075
endloop
endfacet
facet normal 0.270598050073099 0.653281482438189 0.707106781186547
outer loop
vertex -41.1450258551612 18.9237007177228 6.77334830151475
vertex -22.1713293525697 11.6175577704219 6.1075
vertex -40.9495039456218 19.395732363474 6.1075
endloop
endfacet
facet normal 0.331413574035592 0.800103145191266 0.5
outer loop
vertex -22.1713293525697 11.6175577704219 6.1075
vertex -41.1450258551612 18.9237007177228 6.77334830151475
vertex -22.3668512621091 11.1455261246708 6.77334830151475
endloop
endfacet
facet normal 0.191341716182545 0.461939766255644 0.866025403784438
outer loop
vertex -22.6216603755673 10.5303625071439 7.28427167316697
vertex -41.1450258551612 18.9237007177228 6.77334830151475
vertex -41.3998349686193 18.3085371001959 7.28427167316697
endloop
endfacet
facet normal 0.270598050073099 0.653281482438189 0.707106781186547
outer loop
vertex -41.1450258551612 18.9237007177228 6.77334830151475
vertex -22.6216603755673 10.5303625071439 7.28427167316697
vertex -22.3668512621091 11.1455261246708 6.77334830151475
endloop
endfacet
facet normal 0.099045760541288 0.239117618394335 0.965925826289068
outer loop
vertex -22.9183918729539 9.81398930176979 7.60545153151935
vertex -41.3998349686193 18.3085371001959 7.28427167316697
vertex -41.696566466006 17.5921638948218 7.60545153151935
endloop
endfacet
facet normal 0.191341716182545 0.461939766255644 0.866025403784439
outer loop
vertex -41.3998349686193 18.3085371001959 7.28427167316697
vertex -22.9183918729539 9.81398930176979 7.60545153151935
vertex -22.6216603755673 10.5303625071439 7.28427167316697
endloop
endfacet
facet normal 0.382683432365088 0.923879532511287 1.36781145936379e-015
outer loop
vertex -32.4831668997316 -8.448993164178 1.00000000000001
vertex -30.776060118545 -9.15609994536456 10.0
vertex -30.776060118545 -9.15609994536454 -1.0
endloop
endfacet
facet normal 0.382683432365088 0.923879532511287 1.36781145936379e-015
outer loop
vertex -30.776060118545 -9.15609994536456 10.0
vertex -32.4831668997316 -8.448993164178 1.00000000000001
vertex -32.4831668997316 -8.44899316417801 10.0
endloop
endfacet
facet normal 0.382683432365083 0.92387953251129 -4.32697638034987e-016
outer loop
vertex -49.668667233448 -1.65418989854171 10.0
vertex -47.9615604522615 -2.36129667972824 1.0
vertex -49.668667233448 -1.6541898985417 -1.0
endloop
endfacet
facet normal 0.382683432365083 0.92387953251129 -4.32697638034987e-016
outer loop
vertex -47.9615604522615 -2.36129667972824 1.0
vertex -49.668667233448 -1.65418989854171 10.0
vertex -47.9615604522615 -2.36129667972823 10.0
endloop
endfacet
facet normal 0.369017299277652 0.929323173743984 0.0135893920480707
outer loop
vertex -47.9615604522615 -2.36129667972824 1.0
vertex -47.1954162558022 -2.63627279714173 -1.0
vertex -49.668667233448 -1.6541898985417 -1.0
endloop
endfacet
facet normal 0.365984168977324 0.930540314533873 0.0122601421353457
outer loop
vertex -44.8216764603531 -3.59622204031234 1.00000000000001
vertex -47.1954162558022 -2.63627279714173 -1.0
vertex -47.9615604522615 -2.36129667972824 1.0
endloop
endfacet
facet normal 0.369017299277653 0.929323173743984 -0.0135893920480678
outer loop
vertex -32.4831668997316 -8.448993164178 1.00000000000001
vertex -30.776060118545 -9.15609994536454 -1.0
vertex -39.6159188751205 -5.64595310246867 -1.0
endloop
endfacet
facet normal 0.366011469724289 0.930609728590056 -0.0010663413182853
outer loop
vertex -32.4831668997316 -8.448993164178 1.00000000000001
vertex -39.6159188751205 -5.64595310246867 -1.0
vertex -44.8216764603531 -3.59622204031234 1.00000000000001
endloop
endfacet
facet normal 0.369039340730743 0.929378682342576 0.00807649677739605
outer loop
vertex -44.8216764603531 -3.59622204031234 1.00000000000001
vertex -39.6159188751205 -5.64595310246867 -1.0
vertex -47.1954162558022 -2.63627279714173 -1.0
endloop
endfacet
endsolid tonearm
