solid tonearm
facet normal 1.0 0.0 0.0
outer loop
vertex 0.0 178.256580161445 -1.0
vertex 5.21918260034699e-017 118.256580161445 1.0
vertex 0.0 118.256580161445 -1.0
endloop
endfacet
facet normal 1.0 0.0 0.0
outer loop
vertex 5.21918260034699e-017 118.256580161445 1.0
vertex 0.0 178.256580161445 -1.0
vertex 5.21918260034699e-017 178.256580161445 1.0
endloop
endfacet
facet normal 0.0 -1.0 0.0
outer loop
vertex 22.0 178.256580161445 1.0
vertex 0.0 178.256580161445 -1.0
vertex 22.0 178.256580161445 -1.0
endloop
endfacet
facet normal 0.0 -1.0 0.0
outer loop
vertex 0.0 178.256580161445 -1.0
vertex 22.0 178.256580161445 1.0
vertex 5.21918260034699e-017 178.256580161445 1.0
endloop
endfacet
facet normal -1.0 0.0 0.0
outer loop
vertex 22.0 178.256580161445 1.0
vertex 22.0 118.256580161445 -1.0
vertex 22.0 118.256580161445 1.0
endloop
endfacet
facet normal -1.0 0.0 0.0
outer loop
vertex 22.0 118.256580161445 -1.0
vertex 22.0 178.256580161445 1.0
vertex 22.0 178.256580161445 -1.0
endloop
endfacet
facet normal -0.923879532511287 0.382683432365089 0.0
outer loop
vertex 22.0 118.256580161445 10.0
vertex -23.9220118838108 7.39103626009028 -1.0
vertex -23.9220118838108 7.39103626009028 10.0
endloop
endfacet
facet normal -0.923879532511287 0.382683432365089 0.0
outer loop
vertex -23.9220118838108 7.39103626009028 -1.0
vertex 22.0 118.256580161445 10.0
vertex 22.0 118.256580161445 -1.0
endloop
endfacet
facet normal -0.923879532511287 0.382683432365089 0.0
outer loop
vertex 22.0 118.256580161445 -1.0
vertex 22.0 118.256580161445 10.0
vertex 22.0 118.256580161445 1.0
endloop
endfacet
facet normal 0.923879532511287 -0.38268343236509 0.0
outer loop
vertex 0.0 118.256580161445 -1.0
vertex -45.9220118838107 7.39103626009032 10.0
vertex -45.9220118838107 7.39103626009032 -1.0
endloop
endfacet
facet normal 0.923879532511287 -0.38268343236509 0.0
outer loop
vertex -45.9220118838107 7.39103626009032 10.0
vertex 0.0 118.256580161445 -1.0
vertex 0.0 118.256580161445 10.0
endloop
endfacet
facet normal 0.923879532511287 -0.38268343236509 0.0
outer loop
vertex 0.0 118.256580161445 10.0
vertex 0.0 118.256580161445 -1.0
vertex 5.21918260034699e-017 118.256580161445 1.0
endloop
endfacet
facet normal 0.0 0.0 1.0
outer loop
vertex -37.9834793427315 0.0 -1.0
vertex -34.5465709548605 12.7757862927346 -0.999999999999993
vertex -34.5559575788003 13.2978066764156 -0.999999999999993
endloop
endfacet
facet normal 0.0 0.0 1.0
outer loop
vertex -34.5465709548605 12.7757862927346 -0.999999999999993
vertex -37.9834793427315 0.0 -1.0
vertex -34.4023953551471 12.2739827593326 -0.999999999999992
endloop
endfacet
facet normal 0.0 0.0 1.0
outer loop
vertex -34.4023953551471 12.2739827593326 -0.999999999999992
vertex -37.9834793427315 0.0 -1.0
vertex -34.133256108519 11.8265931577414 -0.999999999999992
endloop
endfacet
facet normal 0.0 0.0 1.0
outer loop
vertex -34.133256108519 11.8265931577414 -0.999999999999992
vertex -37.9834793427315 0.0 -1.0
vertex -33.7574946098603 11.4641063499633 -0.999999999999992
endloop
endfacet
facet normal 0.0 0.0 1.0
outer loop
vertex -33.7574946098603 11.4641063499633 -0.999999999999992
vertex -37.9834793427315 0.0 -1.0
vertex -33.3007183843294 11.2112252129103 -0.999999999999992
endloop
endfacet
facet normal 0.0 0.0 1.0
outer loop
vertex -33.3007183843294 11.2112252129103 -0.999999999999992
vertex -37.9834793427315 0.0 -1.0
vertex -23.9220118838108 7.39103626009028 -1.0
endloop
endfacet
facet normal 0.0 0.0 1.0
outer loop
vertex -33.3007183843294 11.2112252129103 -0.999999999999992
vertex -23.9220118838108 7.39103626009028 -1.0
vertex -32.7940559768377 11.085183178167 -0.999999999999992
endloop
endfacet
facet normal 0.0 0.0 1.0
outer loop
vertex -32.7940559768377 11.085183178167 -0.999999999999992
vertex -23.9220118838108 7.39103626009028 -1.0
vertex -32.2720355931567 11.0945698021068 -0.999999999999992
endloop
endfacet
facet normal 0.0 0.0 1.0
outer loop
vertex -32.2720355931567 11.0945698021068 -0.999999999999992
vertex -23.9220118838108 7.39103626009028 -1.0
vertex -31.7702320597547 11.2387454018202 -0.999999999999992
endloop
endfacet
facet normal 0.0 0.0 1.0
outer loop
vertex -31.7702320597547 11.2387454018202 -0.999999999999992
vertex -23.9220118838108 7.39103626009028 -1.0
vertex -31.3228424581635 11.5078846484483 -0.999999999999991
endloop
endfacet
facet normal 0.0 0.0 1.0
outer loop
vertex -31.3228424581635 11.5078846484483 -0.999999999999991
vertex -23.9220118838108 7.39103626009028 -1.0
vertex -30.9603556503854 11.883646147107 -0.999999999999991
endloop
endfacet
facet normal 0.0 0.0 1.0
outer loop
vertex -30.9603556503854 11.883646147107 -0.999999999999991
vertex -23.9220118838108 7.39103626009028 -1.0
vertex -30.7074745133324 12.340422372638 -0.999999999999991
endloop
endfacet
facet normal 0.0 0.0 1.0
outer loop
vertex -30.7074745133324 12.340422372638 -0.999999999999991
vertex -23.9220118838108 7.39103626009028 -1.0
vertex -30.5814324785891 12.8470847801296 -0.999999999999991
endloop
endfacet
facet normal 0.0 0.0 1.0
outer loop
vertex -45.9220118838107 7.39103626009032 -1.0
vertex -34.429915544057 13.8044690839073 -0.999999999999993
vertex 0.0 118.256580161445 -1.0
endloop
endfacet
facet normal 0.0 0.0 1.0
outer loop
vertex -34.429915544057 13.8044690839073 -0.999999999999993
vertex -45.9220118838107 7.39103626009032 -1.0
vertex -37.9834793427315 0.0 -1.0
endloop
endfacet
facet normal 0.0 0.0 1.0
outer loop
vertex -34.429915544057 13.8044690839073 -0.999999999999993
vertex -37.9834793427315 0.0 -1.0
vertex -34.5559575788003 13.2978066764156 -0.999999999999993
endloop
endfacet
facet normal 0.0 0.0 1.0
outer loop
vertex 0.0 118.256580161445 -1.0
vertex -34.429915544057 13.8044690839073 -0.999999999999993
vertex -34.1770344070041 14.2612453094382 -0.999999999999993
endloop
endfacet
facet normal 0.0 0.0 1.0
outer loop
vertex 0.0 118.256580161445 -1.0
vertex -34.1770344070041 14.2612453094382 -0.999999999999993
vertex -33.8145475992259 14.6370068080969 -0.999999999999993
endloop
endfacet
facet normal 0.0 0.0 1.0
outer loop
vertex 0.0 118.256580161445 -1.0
vertex -33.8145475992259 14.6370068080969 -0.999999999999993
vertex -33.3671579976347 14.906146054725 -0.999999999999992
endloop
endfacet
facet normal 0.0 0.0 1.0
outer loop
vertex 0.0 118.256580161445 -1.0
vertex -33.3671579976347 14.906146054725 -0.999999999999992
vertex -32.8653544642327 15.0503216544384 -0.999999999999992
endloop
endfacet
facet normal 0.0 0.0 1.0
outer loop
vertex 0.0 118.256580161445 -1.0
vertex -32.8653544642327 15.0503216544384 -0.999999999999992
vertex -32.3433340805517 15.0597082783782 -0.999999999999992
endloop
endfacet
facet normal 0.0 0.0 1.0
outer loop
vertex 0.0 118.256580161445 -1.0
vertex -32.3433340805517 15.0597082783782 -0.999999999999992
vertex -31.8366716730601 14.9336662436349 -0.999999999999992
endloop
endfacet
facet normal 0.0 0.0 1.0
outer loop
vertex 0.0 118.256580161445 -1.0
vertex -31.8366716730601 14.9336662436349 -0.999999999999992
vertex -31.3798954475291 14.680785106582 -0.999999999999992
endloop
endfacet
facet normal 0.0 0.0 1.0
outer loop
vertex 0.0 118.256580161445 -1.0
vertex -31.3798954475291 14.680785106582 -0.999999999999992
vertex -31.0041339488704 14.3182982988038 -0.999999999999992
endloop
endfacet
facet normal 0.0 0.0 1.0
outer loop
vertex 0.0 118.256580161445 -1.0
vertex -31.0041339488704 14.3182982988038 -0.999999999999992
vertex -30.7349947022423 13.8709086972126 -0.999999999999992
endloop
endfacet
facet normal 0.0 0.0 1.0
outer loop
vertex 0.0 118.256580161445 -1.0
vertex -30.7349947022423 13.8709086972126 -0.999999999999992
vertex -30.5908191025289 13.3691051638106 -0.999999999999991
endloop
endfacet
facet normal 0.0 0.0 1.0
outer loop
vertex 0.0 118.256580161445 -1.0
vertex -30.5908191025289 13.3691051638106 -0.999999999999991
vertex -30.5814324785891 12.8470847801296 -0.999999999999991
endloop
endfacet
facet normal 0.0 0.0 1.0
outer loop
vertex 0.0 118.256580161445 -1.0
vertex -30.5814324785891 12.8470847801296 -0.999999999999991
vertex -23.9220118838108 7.39103626009028 -1.0
endloop
endfacet
facet normal 0.0 0.0 1.0
outer loop
vertex 0.0 118.256580161445 -1.0
vertex -23.9220118838108 7.39103626009028 -1.0
vertex 22.0 118.256580161445 -1.0
endloop
endfacet
facet normal 0.0 0.0 1.0
outer loop
vertex 0.0 118.256580161445 -1.0
vertex 22.0 118.256580161445 -1.0
vertex 0.0 178.256580161445 -1.0
endloop
endfacet
facet normal 0.0 0.0 1.0
outer loop
vertex 0.0 178.256580161445 -1.0
vertex 22.0 118.256580161445 -1.0
vertex 22.0 178.256580161445 -1.0
endloop
endfacet
facet normal 0.0 -1.0 0.0
outer loop
vertex 2.0 118.256580161445 1.00000000000001
vertex 0.0 118.256580161445 10.0
vertex 5.21918260034699e-017 118.256580161445 1.0
endloop
endfacet
facet normal 0.0 -1.0 0.0
outer loop
vertex 0.0 118.256580161445 10.0
vertex 2.0 118.256580161445 1.00000000000001
vertex 2.0 118.256580161445 10.0
endloop
endfacet
facet normal 5.21918260034699e-017 -6.71064141805471e-017 -1.0
outer loop
vertex 22.0 178.256580161445 1.0
vertex 5.21918260034699e-017 118.256580161445 1.0
vertex 5.21918260034699e-017 178.256580161445 1.0
endloop
endfacet
facet normal 5.21918260034699e-017 -6.71064141805471e-017 -1.0
outer loop
vertex 5.21918260034699e-017 118.256580161445 1.0
vertex 22.0 178.256580161445 1.0
vertex 2.0 118.256580161445 1.00000000000001
endloop
endfacet
facet normal 5.21918260034699e-017 -6.71064141805471e-017 -1.0
outer loop
vertex 2.0 118.256580161445 1.00000000000001
vertex 22.0 178.256580161445 1.0
vertex 20.0 118.256580161445 1.00000000000001
endloop
endfacet
facet normal 5.21918260034699e-017 -6.71064141805471e-017 -1.0
outer loop
vertex 20.0 118.256580161445 1.00000000000001
vertex 22.0 178.256580161445 1.0
vertex 22.0 118.256580161445 1.0
endloop
endfacet
facet normal 5.21918260034699e-017 -6.71064141805471e-017 -1.0
outer loop
vertex 2.0 118.256580161445 1.00000000000001
vertex -20.2365547294117 21.1169440305317 1.00000000000001
vertex -35.7149482819416 27.2046405149814 1.0
endloop
endfacet
facet normal 5.21918260034699e-017 -6.71064141805471e-017 -1.0
outer loop
vertex -20.2365547294117 21.1169440305317 1.00000000000001
vertex 2.0 118.256580161445 1.00000000000001
vertex 20.0 118.256580161445 1.00000000000001
endloop
endfacet
facet normal -0.465266424175698 0.885170692315759 0.0
outer loop
vertex -37.9834793427315 0.0 10.0
vertex -23.9220118838108 7.39103626009028 -1.0
vertex -37.9834793427315 0.0 -1.0
endloop
endfacet
facet normal -0.465266424175698 0.885170692315759 0.0
outer loop
vertex -23.9220118838108 7.39103626009028 -1.0
vertex -37.9834793427315 0.0 10.0
vertex -23.9220118838108 7.39103626009028 10.0
endloop
endfacet
facet normal 0.681417970934687 0.731894493002409 0.0
outer loop
vertex -45.9220118838107 7.39103626009032 10.0
vertex -37.9834793427315 0.0 -1.0
vertex -45.9220118838107 7.39103626009032 -1.0
endloop
endfacet
facet normal 0.681417970934687 0.731894493002409 0.0
outer loop
vertex -37.9834793427315 0.0 -1.0
vertex -45.9220118838107 7.39103626009032 10.0
vertex -37.9834793427315 0.0 10.0
endloop
endfacet
facet normal 0.923879532511287 -0.382683432365089 9.63110419412403e-017
outer loop
vertex 20.0 118.256580161445 1.00000000000001
vertex -20.2365547294117 21.1169440305317 10.0
vertex -20.2365547294117 21.1169440305317 1.00000000000001
endloop
endfacet
facet normal 0.923879532511287 -0.382683432365089 9.63110419412403e-017
outer loop
vertex -20.2365547294117 21.1169440305317 10.0
vertex 20.0 118.256580161445 1.00000000000001
vertex 20.0 118.256580161445 10.0
endloop
endfacet
facet normal 0.0 -1.0 0.0
outer loop
vertex 22.0 118.256580161445 10.0
vertex 20.0 118.256580161445 1.00000000000001
vertex 22.0 118.256580161445 1.0
endloop
endfacet
facet normal 0.0 -1.0 0.0
outer loop
vertex 20.0 118.256580161445 1.00000000000001
vertex 22.0 118.256580161445 10.0
vertex 20.0 118.256580161445 10.0
endloop
endfacet
facet normal 2.06265492833582e-016 -7.17825299574595e-017 -1.0
outer loop
vertex 0.0 118.256580161445 10.0
vertex -43.6617715249809 8.01931206385422 10.0
vertex -45.9220118838107 7.39103626009032 10.0
endloop
endfacet
facet normal 2.06265492833582e-016 -7.17825299574595e-017 -1.0
outer loop
vertex -43.6617715249809 8.01931206385422 10.0
vertex 0.0 118.256580161445 10.0
vertex -36.4804388691113 25.3565827575674 9.99999999999999
endloop
endfacet
facet normal 2.06265492833582e-016 -7.17825299574595e-017 -1.0
outer loop
vertex -36.4804388691113 25.3565827575674 9.99999999999999
vertex 0.0 118.256580161445 10.0
vertex -35.7149482819416 27.2046405149814 9.99999999999999
endloop
endfacet
facet normal 2.06265492833582e-016 -7.17825299574595e-017 -1.0
outer loop
vertex -35.7149482819416 27.2046405149814 9.99999999999999
vertex 0.0 118.256580161445 10.0
vertex 2.0 118.256580161445 10.0
endloop
endfacet
facet normal 2.06265492833582e-016 -7.17825299574595e-017 -1.0
outer loop
vertex -35.7149482819416 27.2046405149814 9.99999999999999
vertex -21.0020453165814 19.2688862731177 10.0
vertex -36.4804388691113 25.3565827575674 9.99999999999999
endloop
endfacet
facet normal 2.06265492833582e-016 -7.17825299574595e-017 -1.0
outer loop
vertex -21.0020453165814 19.2688862731177 10.0
vertex -35.7149482819416 27.2046405149814 9.99999999999999
vertex -20.2365547294117 21.1169440305317 10.0
endloop
endfacet
facet normal 2.06265492833582e-016 -7.17825299574595e-017 -1.0
outer loop
vertex -43.6617715249809 8.01931206385422 10.0
vertex -37.9834793427315 0.0 10.0
vertex -45.9220118838107 7.39103626009032 10.0
endloop
endfacet
facet normal 2.06265492833582e-016 -7.17825299574595e-017 -1.0
outer loop
vertex -37.9834793427315 0.0 10.0
vertex -43.6617715249809 8.01931206385422 10.0
vertex -37.6586374181879 2.43019573436957 10.0
endloop
endfacet
facet normal 2.06265492833582e-016 -7.17825299574595e-017 -1.0
outer loop
vertex -37.9834793427315 0.0 10.0
vertex -37.6586374181879 2.43019573436957 10.0
vertex -23.9220118838108 7.39103626009028 10.0
endloop
endfacet
facet normal 2.06265492833582e-016 -7.17825299574595e-017 -1.0
outer loop
vertex -23.9220118838108 7.39103626009028 10.0
vertex -37.6586374181879 2.43019573436957 10.0
vertex -25.2822730719994 8.93550237594176 10.0
endloop
endfacet
facet normal 2.06265492833582e-016 -7.17825299574595e-017 -1.0
outer loop
vertex -23.9220118838108 7.39103626009028 10.0
vertex -25.2822730719994 8.93550237594176 10.0
vertex -21.0020453165814 19.2688862731177 10.0
endloop
endfacet
facet normal 2.06265492833582e-016 -7.17825299574595e-017 -1.0
outer loop
vertex -23.9220118838108 7.39103626009028 10.0
vertex -21.0020453165814 19.2688862731177 10.0
vertex 22.0 118.256580161445 10.0
endloop
endfacet
facet normal 2.06265492833582e-016 -7.17825299574595e-017 -1.0
outer loop
vertex 22.0 118.256580161445 10.0
vertex -21.0020453165814 19.2688862731177 10.0
vertex -20.2365547294117 21.1169440305317 10.0
endloop
endfacet
facet normal 2.06265492833582e-016 -7.17825299574595e-017 -1.0
outer loop
vertex 22.0 118.256580161445 10.0
vertex -20.2365547294117 21.1169440305317 10.0
vertex 20.0 118.256580161445 10.0
endloop
endfacet
facet normal 0.465266424175698 -0.885170692315759 0.0
outer loop
vertex -25.2822730719994 8.93550237594176 10.0
vertex -37.6586374181879 2.43019573436957 1.00000000000001
vertex -25.2822730719994 8.93550237594176 1.00000000000001
endloop
endfacet
facet normal 0.465266424175698 -0.885170692315759 0.0
outer loop
vertex -37.6586374181879 2.43019573436957 1.00000000000001
vertex -25.2822730719994 8.93550237594176 10.0
vertex -37.6586374181879 2.43019573436957 10.0
endloop
endfacet
facet normal -0.681417970934687 -0.731894493002409 -0.0
outer loop
vertex -37.6586374181879 2.43019573436957 10.0
vertex -43.6617715249809 8.01931206385422 1.00000000000001
vertex -37.6586374181879 2.43019573436957 1.00000000000001
endloop
endfacet
facet normal -0.681417970934687 -0.731894493002409 -0.0
outer loop
vertex -43.6617715249809 8.01931206385422 1.00000000000001
vertex -37.6586374181879 2.43019573436957 10.0
vertex -43.6617715249809 8.01931206385422 10.0
endloop
endfacet
facet normal -0.923879532511287 0.38268343236509 -1.02671663401899e-016
outer loop
vertex -36.4804388691113 25.3565827575674 9.99999999999999
vertex -43.6617715249809 8.01931206385422 1.00000000000001
vertex -43.6617715249809 8.01931206385422 10.0
endloop
endfacet
facet normal -0.923879532511287 0.38268343236509 -1.02671663401899e-016
outer loop
vertex -43.6617715249809 8.01931206385422 1.00000000000001
vertex -36.4804388691113 25.3565827575674 9.99999999999999
vertex -40.3078918049597 16.1162939704975 1.0
endloop
endfacet
facet normal -0.923879532511287 0.38268343236509 -1.02671663401899e-016
outer loop
vertex -40.3078918049597 16.1162939704975 1.0
vertex -36.4804388691113 25.3565827575674 9.99999999999999
vertex -36.4804388691113 25.3565827575674 1.0
endloop
endfacet
facet normal 4.72513369200775e-016 -2.36253383609745e-016 -1.0
outer loop
vertex -36.4804388691113 25.3565827575674 1.0
vertex -34.429915544057 13.8044690839073 1.00000000000001
vertex -40.3078918049597 16.1162939704975 1.0
endloop
endfacet
facet normal 4.72513369200775e-016 -2.36253383609745e-016 -1.0
outer loop
vertex -34.429915544057 13.8044690839073 1.00000000000001
vertex -36.4804388691113 25.3565827575674 1.0
vertex -34.1770344070041 14.2612453094382 1.00000000000001
endloop
endfacet
facet normal 4.72513369200775e-016 -2.36253383609745e-016 -1.0
outer loop
vertex -34.1770344070041 14.2612453094382 1.00000000000001
vertex -36.4804388691113 25.3565827575674 1.0
vertex -33.8145475992259 14.6370068080969 1.00000000000001
endloop
endfacet
facet normal 4.72513369200775e-016 -2.36253383609745e-016 -1.0
outer loop
vertex -33.8145475992259 14.6370068080969 1.00000000000001
vertex -36.4804388691113 25.3565827575674 1.0
vertex -33.3671579976347 14.906146054725 1.00000000000001
endloop
endfacet
facet normal 4.72513369200775e-016 -2.36253383609745e-016 -1.0
outer loop
vertex -33.3671579976347 14.906146054725 1.00000000000001
vertex -36.4804388691113 25.3565827575674 1.0
vertex -21.0020453165814 19.2688862731177 1.00000000000001
endloop
endfacet
facet normal 4.72513369200775e-016 -2.36253383609745e-016 -1.0
outer loop
vertex -33.3671579976347 14.906146054725 1.00000000000001
vertex -21.0020453165814 19.2688862731177 1.00000000000001
vertex -32.8653544642327 15.0503216544384 1.00000000000001
endloop
endfacet
facet normal 4.72513369200775e-016 -2.36253383609745e-016 -1.0
outer loop
vertex -32.8653544642327 15.0503216544384 1.00000000000001
vertex -21.0020453165814 19.2688862731177 1.00000000000001
vertex -32.3433340805517 15.0597082783782 1.00000000000001
endloop
endfacet
facet normal 4.72513369200775e-016 -2.36253383609745e-016 -1.0
outer loop
vertex -32.3433340805517 15.0597082783782 1.00000000000001
vertex -21.0020453165814 19.2688862731177 1.00000000000001
vertex -31.8366716730601 14.9336662436349 1.00000000000001
endloop
endfacet
facet normal 4.72513369200775e-016 -2.36253383609745e-016 -1.0
outer loop
vertex -31.8366716730601 14.9336662436349 1.00000000000001
vertex -21.0020453165814 19.2688862731177 1.00000000000001
vertex -31.3798954475291 14.680785106582 1.00000000000001
endloop
endfacet
facet normal 4.72513369200775e-016 -2.36253383609745e-016 -1.0
outer loop
vertex -31.3798954475291 14.680785106582 1.00000000000001
vertex -21.0020453165814 19.2688862731177 1.00000000000001
vertex -31.0041339488704 14.3182982988038 1.00000000000001
endloop
endfacet
facet normal 4.72513369200775e-016 -2.36253383609745e-016 -1.0
outer loop
vertex -31.0041339488704 14.3182982988038 1.00000000000001
vertex -21.0020453165814 19.2688862731177 1.00000000000001
vertex -30.7349947022423 13.8709086972126 1.00000000000001
endloop
endfacet
facet normal 4.72513369200775e-016 -2.36253383609745e-016 -1.0
outer loop
vertex -30.7349947022423 13.8709086972126 1.00000000000001
vertex -21.0020453165814 19.2688862731177 1.00000000000001
vertex -30.5908191025289 13.3691051638106 1.00000000000001
endloop
endfacet
facet normal 4.72513369200775e-016 -2.36253383609745e-016 -1.0
outer loop
vertex -30.5908191025289 13.3691051638106 1.00000000000001
vertex -21.0020453165814 19.2688862731177 1.00000000000001
vertex -30.5814324785891 12.8470847801296 1.00000000000001
endloop
endfacet
facet normal 4.72513369200775e-016 -2.36253383609745e-016 -1.0
outer loop
vertex -30.5814324785891 12.8470847801296 1.00000000000001
vertex -21.0020453165814 19.2688862731177 1.00000000000001
vertex -24.8294982524298 10.0285974860477 1.00000000000001
endloop
endfacet
facet normal 4.72513369200775e-016 -2.36253383609745e-016 -1.0
outer loop
vertex -24.8294982524298 10.0285974860477 1.00000000000001
vertex -30.7074745133324 12.340422372638 1.00000000000001
vertex -30.5814324785891 12.8470847801296 1.00000000000001
endloop
endfacet
facet normal -0.366011677817324 -0.930610257681134 8.12390670829368e-019
outer loop
vertex -20.2365547294117 21.1169440305317 1.00000000000001
vertex -35.7149482819416 27.2046405149814 9.99999999999999
vertex -35.7149482819416 27.2046405149814 1.0
endloop
endfacet
facet normal -0.366011677817324 -0.930610257681134 8.12390670829368e-019
outer loop
vertex -35.7149482819416 27.2046405149814 9.99999999999999
vertex -20.2365547294117 21.1169440305317 1.00000000000001
vertex -20.2365547294117 21.1169440305317 10.0
endloop
endfacet
facet normal 0.366011677817324 0.930610257681134 -2.6414317289106e-017
outer loop
vertex -36.4804388691113 25.3565827575674 9.99999999999999
vertex -21.0020453165814 19.2688862731177 1.00000000000001
vertex -36.4804388691113 25.3565827575674 1.0
endloop
endfacet
facet normal 0.366011677817324 0.930610257681134 -2.6414317289106e-017
outer loop
vertex -21.0020453165814 19.2688862731177 1.00000000000001
vertex -36.4804388691113 25.3565827575674 9.99999999999999
vertex -21.0020453165814 19.2688862731177 10.0
endloop
endfacet
facet normal 0.923879532511287 -0.38268343236509 -1.45598036811193e-017
outer loop
vertex -24.8294982524298 10.0285974860477 1.00000000000001
vertex -25.2822730719994 8.93550237594176 10.0
vertex -25.2822730719994 8.93550237594176 1.00000000000001
endloop
endfacet
facet normal 0.923879532511287 -0.38268343236509 -1.45598036811193e-017
outer loop
vertex -25.2822730719994 8.93550237594176 10.0
vertex -24.8294982524298 10.0285974860477 1.00000000000001
vertex -21.0020453165814 19.2688862731177 10.0
endloop
endfacet
facet normal 0.923879532511287 -0.38268343236509 -1.45598036811193e-017
outer loop
vertex -21.0020453165814 19.2688862731177 10.0
vertex -24.8294982524298 10.0285974860477 1.00000000000001
vertex -21.0020453165814 19.2688862731177 1.00000000000001
endloop
endfacet
facet normal -0.923879532511287 0.382683432365089 5.95696180332995e-017
outer loop
vertex 2.0 118.256580161445 10.0
vertex -35.7149482819416 27.2046405149814 1.0
vertex -35.7149482819416 27.2046405149814 9.99999999999999
endloop
endfacet
facet normal -0.923879532511287 0.382683432365089 5.95696180332995e-017
outer loop
vertex -35.7149482819416 27.2046405149814 1.0
vertex 2.0 118.256580161445 10.0
vertex 2.0 118.256580161445 1.00000000000001
endloop
endfacet
facet normal 2.83884350456299e-016 -4.52055354308938e-018 -1.0
outer loop
vertex -40.3078918049597 16.1162939704975 1.0
vertex -37.6586374181879 2.43019573436957 1.00000000000001
vertex -43.6617715249809 8.01931206385422 1.00000000000001
endloop
endfacet
facet normal 2.83884350456299e-016 -4.52055354308938e-018 -1.0
outer loop
vertex -37.6586374181879 2.43019573436957 1.00000000000001
vertex -40.3078918049597 16.1162939704975 1.0
vertex -34.429915544057 13.8044690839073 1.00000000000001
endloop
endfacet
facet normal 2.83884350456299e-016 -4.52055354308938e-018 -1.0
outer loop
vertex -37.6586374181879 2.43019573436957 1.00000000000001
vertex -34.429915544057 13.8044690839073 1.00000000000001
vertex -34.5559575788003 13.2978066764156 1.00000000000001
endloop
endfacet
facet normal 2.83884350456299e-016 -4.52055354308938e-018 -1.0
outer loop
vertex -37.6586374181879 2.43019573436957 1.00000000000001
vertex -33.3007183843294 11.2112252129103 1.00000000000001
vertex -25.2822730719994 8.93550237594176 1.00000000000001
endloop
endfacet
facet normal 2.83884350456299e-016 -4.52055354308938e-018 -1.0
outer loop
vertex -33.3007183843294 11.2112252129103 1.00000000000001
vertex -37.6586374181879 2.43019573436957 1.00000000000001
vertex -33.7574946098603 11.4641063499633 1.00000000000001
endloop
endfacet
facet normal 2.83884350456299e-016 -4.52055354308938e-018 -1.0
outer loop
vertex -33.7574946098603 11.4641063499633 1.00000000000001
vertex -37.6586374181879 2.43019573436957 1.00000000000001
vertex -34.133256108519 11.8265931577414 1.00000000000001
endloop
endfacet
facet normal 2.83884350456299e-016 -4.52055354308938e-018 -1.0
outer loop
vertex -34.133256108519 11.8265931577414 1.00000000000001
vertex -37.6586374181879 2.43019573436957 1.00000000000001
vertex -34.4023953551471 12.2739827593326 1.00000000000001
endloop
endfacet
facet normal 2.83884350456299e-016 -4.52055354308938e-018 -1.0
outer loop
vertex -34.4023953551471 12.2739827593326 1.00000000000001
vertex -37.6586374181879 2.43019573436957 1.00000000000001
vertex -34.5465709548605 12.7757862927346 1.00000000000001
endloop
endfacet
facet normal 2.83884350456299e-016 -4.52055354308938e-018 -1.0
outer loop
vertex -34.5465709548605 12.7757862927346 1.00000000000001
vertex -37.6586374181879 2.43019573436957 1.00000000000001
vertex -34.5559575788003 13.2978066764156 1.00000000000001
endloop
endfacet
facet normal 2.83884350456299e-016 -4.52055354308938e-018 -1.0
outer loop
vertex -25.2822730719994 8.93550237594176 1.00000000000001
vertex -33.3007183843294 11.2112252129103 1.00000000000001
vertex -32.7940559768377 11.085183178167 1.00000000000001
endloop
endfacet
facet normal 2.83884350456299e-016 -4.52055354308938e-018 -1.0
outer loop
vertex -25.2822730719994 8.93550237594176 1.00000000000001
vertex -32.7940559768377 11.085183178167 1.00000000000001
vertex -32.2720355931567 11.0945698021068 1.00000000000001
endloop
endfacet
facet normal 2.83884350456299e-016 -4.52055354308938e-018 -1.0
outer loop
vertex -25.2822730719994 8.93550237594176 1.00000000000001
vertex -32.2720355931567 11.0945698021068 1.00000000000001
vertex -31.7702320597547 11.2387454018202 1.00000000000001
endloop
endfacet
facet normal 2.83884350456299e-016 -4.52055354308938e-018 -1.0
outer loop
vertex -25.2822730719994 8.93550237594176 1.00000000000001
vertex -31.7702320597547 11.2387454018202 1.00000000000001
vertex -31.3228424581635 11.5078846484483 1.00000000000001
endloop
endfacet
facet normal 2.83884350456299e-016 -4.52055354308938e-018 -1.0
outer loop
vertex -25.2822730719994 8.93550237594176 1.00000000000001
vertex -31.3228424581635 11.5078846484483 1.00000000000001
vertex -30.9603556503854 11.883646147107 1.00000000000001
endloop
endfacet
facet normal 2.83884350456299e-016 -4.52055354308938e-018 -1.0
outer loop
vertex -25.2822730719994 8.93550237594176 1.00000000000001
vertex -30.9603556503854 11.883646147107 1.00000000000001
vertex -30.7074745133324 12.340422372638 1.00000000000001
endloop
endfacet
facet normal 2.83884350456299e-016 -4.52055354308938e-018 -1.0
outer loop
vertex -25.2822730719994 8.93550237594176 1.00000000000001
vertex -30.7074745133324 12.340422372638 1.00000000000001
vertex -24.8294982524298 10.0285974860477 1.00000000000001
endloop
endfacet
facet normal 0.993631275052784 -0.112680474071503 2.74342406956702e-016
outer loop
vertex -30.5814324785891 12.8470847801296 -0.999999999999991
vertex -30.7074745133324 12.340422372638 1.00000000000001
vertex -30.7074745133324 12.340422372638 -0.999999999999991
endloop
endfacet
facet normal 0.970422868533286 -0.241411383798754 2.81590327364066e-016
outer loop
vertex -30.7074745133324 12.340422372638 1.00000000000001
vertex -30.5814324785891 12.8470847801296 -0.999999999999991
vertex -30.5814324785891 12.8470847801296 1.00000000000001
endloop
endfacet
facet normal 0.874874647306149 -0.484349410550836 2.81590327364066e-016
outer loop
vertex -30.7074745133324 12.340422372638 -0.999999999999991
vertex -30.9603556503854 11.883646147107 1.00000000000001
vertex -30.9603556503854 11.883646147107 -0.999999999999991
endloop
endfacet
facet normal 0.804169689154681 -0.59439979058279 2.74342406956702e-016
outer loop
vertex -30.9603556503854 11.883646147107 1.00000000000001
vertex -30.7074745133324 12.340422372638 -0.999999999999991
vertex -30.7074745133324 12.340422372638 1.00000000000001
endloop
endfacet
facet normal 0.804169689154681 -0.59439979058279 2.74342406956702e-016
outer loop
vertex -30.9603556503854 11.883646147107 -0.999999999999991
vertex -31.3228424581635 11.5078846484483 1.00000000000001
vertex -31.3228424581635 11.5078846484483 -0.999999999999991
endloop
endfacet
facet normal 0.622926285265584 -0.782280539912135 2.45968673052926e-016
outer loop
vertex -31.3228424581635 11.5078846484483 1.00000000000001
vertex -30.9603556503854 11.883646147107 -0.999999999999991
vertex -30.9603556503854 11.883646147107 1.00000000000001
endloop
endfacet
facet normal 0.622926285265584 -0.782280539912135 2.45968673052926e-016
outer loop
vertex -31.3228424581635 11.5078846484483 -0.999999999999991
vertex -31.7702320597547 11.2387454018202 1.00000000000001
vertex -31.7702320597547 11.2387454018202 -0.999999999999992
endloop
endfacet
facet normal 0.399231484469995 -0.916850163226186 2.00832580563043e-016
outer loop
vertex -31.7702320597547 11.2387454018202 1.00000000000001
vertex -31.3228424581635 11.5078846484483 -0.999999999999991
vertex -31.3228424581635 11.5078846484483 1.00000000000001
endloop
endfacet
facet normal 0.399231484469995 -0.916850163226186 2.00832580563043e-016
outer loop
vertex -31.7702320597547 11.2387454018202 1.00000000000001
vertex -32.2720355931567 11.0945698021068 -0.999999999999992
vertex -31.7702320597547 11.2387454018202 -0.999999999999992
endloop
endfacet
facet normal 0.148329717768999 -0.988937963082907 1.42010079599322e-016
outer loop
vertex -32.2720355931567 11.0945698021068 -0.999999999999992
vertex -31.7702320597547 11.2387454018202 1.00000000000001
vertex -32.2720355931567 11.0945698021068 1.00000000000001
endloop
endfacet
facet normal 0.148329717768999 -0.988937963082907 1.42010079599322e-016
outer loop
vertex -32.2720355931567 11.0945698021068 -0.999999999999992
vertex -32.7940559768377 11.085183178167 1.00000000000001
vertex -32.7940559768377 11.085183178167 -0.999999999999992
endloop
endfacet
facet normal -0.112680474071506 -0.993631275052784 7.35098263936586e-017
outer loop
vertex -32.7940559768377 11.085183178167 1.00000000000001
vertex -32.2720355931567 11.0945698021068 -0.999999999999992
vertex -32.2720355931567 11.0945698021068 1.00000000000001
endloop
endfacet
facet normal -0.112680474071506 -0.993631275052784 7.35098263936586e-017
outer loop
vertex -32.7940559768377 11.085183178167 -0.999999999999992
vertex -33.3007183843294 11.2112252129103 1.00000000000001
vertex -33.3007183843294 11.2112252129103 -0.999999999999992
endloop
endfacet
facet normal -0.366011677817324 -0.930610257681134 2.0973837087958e-031
outer loop
vertex -33.3007183843294 11.2112252129103 1.00000000000001
vertex -32.7940559768377 11.085183178167 -0.999999999999992
vertex -32.7940559768377 11.085183178167 1.00000000000001
endloop
endfacet
facet normal -0.366011677817324 -0.930610257681134 1.939090598698e-031
outer loop
vertex -33.3007183843294 11.2112252129103 -0.999999999999992
vertex -33.7574946098603 11.4641063499633 1.00000000000001
vertex -33.7574946098603 11.4641063499633 -0.999999999999992
endloop
endfacet
facet normal -0.594399790582788 -0.804169689154682 -7.35098263936583e-017
outer loop
vertex -33.7574946098603 11.4641063499633 1.00000000000001
vertex -33.3007183843294 11.2112252129103 -0.999999999999992
vertex -33.3007183843294 11.2112252129103 1.00000000000001
endloop
endfacet
facet normal -0.594399790582788 -0.804169689154682 -7.35098263936583e-017
outer loop
vertex -33.7574946098603 11.4641063499633 -0.999999999999992
vertex -34.133256108519 11.8265931577414 1.00000000000001
vertex -34.133256108519 11.8265931577414 -0.999999999999992
endloop
endfacet
facet normal -0.782280539912136 -0.622926285265582 -1.42010079599322e-016
outer loop
vertex -34.133256108519 11.8265931577414 1.00000000000001
vertex -33.7574946098603 11.4641063499633 -0.999999999999992
vertex -33.7574946098603 11.4641063499633 1.00000000000001
endloop
endfacet
facet normal -0.916850163226187 -0.399231484469992 -2.00832580563044e-016
outer loop
vertex -34.4023953551471 12.2739827593326 1.00000000000001
vertex -34.133256108519 11.8265931577414 -0.999999999999992
vertex -34.133256108519 11.8265931577414 1.00000000000001
endloop
endfacet
facet normal -0.782280539912136 -0.622926285265582 -1.42010079599322e-016
outer loop
vertex -34.133256108519 11.8265931577414 -0.999999999999992
vertex -34.4023953551471 12.2739827593326 1.00000000000001
vertex -34.4023953551471 12.2739827593326 -0.999999999999992
endloop
endfacet
facet normal -0.988937963082907 -0.148329717769001 -2.45968673052925e-016
outer loop
vertex -34.5465709548605 12.7757862927346 1.00000000000001
vertex -34.4023953551471 12.2739827593326 -0.999999999999992
vertex -34.4023953551471 12.2739827593326 1.00000000000001
endloop
endfacet
facet normal -0.916850163226188 -0.399231484469992 -2.00832580563044e-016
outer loop
vertex -34.4023953551471 12.2739827593326 -0.999999999999992
vertex -34.5465709548605 12.7757862927346 1.00000000000001
vertex -34.5465709548605 12.7757862927346 -0.999999999999993
endloop
endfacet
facet normal -0.993631275052784 0.112680474071503 -2.74342406956702e-016
outer loop
vertex -34.5559575788003 13.2978066764156 1.00000000000001
vertex -34.5465709548605 12.7757862927346 -0.999999999999993
vertex -34.5465709548605 12.7757862927346 1.00000000000001
endloop
endfacet
facet normal -0.988937963082907 -0.148329717769001 -2.45968673052925e-016
outer loop
vertex -34.5465709548605 12.7757862927346 -0.999999999999993
vertex -34.5559575788003 13.2978066764156 1.00000000000001
vertex -34.5559575788003 13.2978066764156 -0.999999999999993
endloop
endfacet
facet normal -0.970422868533286 0.241411383798753 -2.81590327364066e-016
outer loop
vertex -34.429915544057 13.8044690839073 1.00000000000001
vertex -34.5559575788003 13.2978066764156 -0.999999999999993
vertex -34.5559575788003 13.2978066764156 1.00000000000001
endloop
endfacet
facet normal -0.993631275052784 0.112680474071503 -2.74342406956702e-016
outer loop
vertex -34.5559575788003 13.2978066764156 -0.999999999999993
vertex -34.429915544057 13.8044690839073 1.00000000000001
vertex -34.429915544057 13.8044690839073 -0.999999999999993
endloop
endfacet
facet normal -0.804169689154681 0.59439979058279 -2.74342406956702e-016
outer loop
vertex -34.1770344070041 14.2612453094382 1.00000000000001
vertex -34.429915544057 13.8044690839073 -0.999999999999993
vertex -34.429915544057 13.8044690839073 1.00000000000001
endloop
endfacet
facet normal -0.874874647306153 0.484349410550829 -2.81590327364067e-016
outer loop
vertex -34.429915544057 13.8044690839073 -0.999999999999993
vertex -34.1770344070041 14.2612453094382 1.00000000000001
vertex -34.1770344070041 14.2612453094382 -0.999999999999993
endloop
endfacet
facet normal -0.622926285265582 0.782280539912136 -2.45968673052925e-016
outer loop
vertex -33.8145475992259 14.6370068080969 1.00000000000001
vertex -34.1770344070041 14.2612453094382 -0.999999999999993
vertex -34.1770344070041 14.2612453094382 1.00000000000001
endloop
endfacet
facet normal -0.804169689154681 0.59439979058279 -2.74342406956702e-016
outer loop
vertex -34.1770344070041 14.2612453094382 -0.999999999999993
vertex -33.8145475992259 14.6370068080969 1.00000000000001
vertex -33.8145475992259 14.6370068080969 -0.999999999999993
endloop
endfacet
facet normal -0.622926285265582 0.782280539912136 -2.45968673052925e-016
outer loop
vertex -33.8145475992259 14.6370068080969 1.00000000000001
vertex -33.3671579976347 14.906146054725 -0.999999999999992
vertex -33.8145475992259 14.6370068080969 -0.999999999999993
endloop
endfacet
facet normal -0.399231484469996 0.916850163226186 -2.00832580563044e-016
outer loop
vertex -33.3671579976347 14.906146054725 -0.999999999999992
vertex -33.8145475992259 14.6370068080969 1.00000000000001
vertex -33.3671579976347 14.906146054725 1.00000000000001
endloop
endfacet
facet normal -0.399231484469996 0.916850163226186 -2.00832580563044e-016
outer loop
vertex -33.3671579976347 14.906146054725 1.00000000000001
vertex -32.8653544642327 15.0503216544384 -0.999999999999992
vertex -33.3671579976347 14.906146054725 -0.999999999999992
endloop
endfacet
facet normal -0.148329717768998 0.988937963082907 -1.42010079599321e-016
outer loop
vertex -32.8653544642327 15.0503216544384 -0.999999999999992
vertex -33.3671579976347 14.906146054725 1.00000000000001
vertex -32.8653544642327 15.0503216544384 1.00000000000001
endloop
endfacet
facet normal -0.148329717768998 0.988937963082907 -1.42010079599321e-016
outer loop
vertex -32.8653544642327 15.0503216544384 1.00000000000001
vertex -32.3433340805517 15.0597082783782 -0.999999999999992
vertex -32.8653544642327 15.0503216544384 -0.999999999999992
endloop
endfacet
facet normal 0.112680474071506 0.993631275052784 -7.35098263936586e-017
outer loop
vertex -32.3433340805517 15.0597082783782 -0.999999999999992
vertex -32.8653544642327 15.0503216544384 1.00000000000001
vertex -32.3433340805517 15.0597082783782 1.00000000000001
endloop
endfacet
facet normal 0.112680474071506 0.993631275052784 -7.35098263936586e-017
outer loop
vertex -32.3433340805517 15.0597082783782 1.00000000000001
vertex -31.8366716730601 14.9336662436349 -0.999999999999992
vertex -32.3433340805517 15.0597082783782 -0.999999999999992
endloop
endfacet
facet normal 0.366011677817324 0.930610257681134 -2.0973837087958e-031
outer loop
vertex -31.8366716730601 14.9336662436349 -0.999999999999992
vertex -32.3433340805517 15.0597082783782 1.00000000000001
vertex -31.8366716730601 14.9336662436349 1.00000000000001
endloop
endfacet
facet normal 0.366011677817324 0.930610257681134 -1.939090598698e-031
outer loop
vertex -31.8366716730601 14.9336662436349 1.00000000000001
vertex -31.3798954475291 14.680785106582 -0.999999999999992
vertex -31.8366716730601 14.9336662436349 -0.999999999999992
endloop
endfacet
facet normal 0.594399790582787 0.804169689154682 7.35098263936581e-017
outer loop
vertex -31.3798954475291 14.680785106582 -0.999999999999992
vertex -31.8366716730601 14.9336662436349 1.00000000000001
vertex -31.3798954475291 14.680785106582 1.00000000000001
endloop
endfacet
facet normal 0.594399790582787 0.804169689154682 7.35098263936581e-017
outer loop
vertex -31.3798954475291 14.680785106582 1.00000000000001
vertex -31.0041339488704 14.3182982988038 -0.999999999999992
vertex -31.3798954475291 14.680785106582 -0.999999999999992
endloop
endfacet
facet normal 0.782280539912136 0.622926285265582 1.42010079599322e-016
outer loop
vertex -31.0041339488704 14.3182982988038 -0.999999999999992
vertex -31.3798954475291 14.680785106582 1.00000000000001
vertex -31.0041339488704 14.3182982988038 1.00000000000001
endloop
endfacet
facet normal 0.782280539912136 0.622926285265582 1.42010079599322e-016
outer loop
vertex -31.0041339488704 14.3182982988038 -0.999999999999992
vertex -30.7349947022423 13.8709086972126 1.00000000000001
vertex -30.7349947022423 13.8709086972126 -0.999999999999992
endloop
endfacet
facet normal 0.916850163226188 0.399231484469991 2.00832580563044e-016
outer loop
vertex -30.7349947022423 13.8709086972126 1.00000000000001
vertex -31.0041339488704 14.3182982988038 -0.999999999999992
vertex -31.0041339488704 14.3182982988038 1.00000000000001
endloop
endfacet
facet normal 0.916850163226188 0.399231484469991 2.00832580563044e-016
outer loop
vertex -30.7349947022423 13.8709086972126 -0.999999999999992
vertex -30.5908191025289 13.3691051638106 1.00000000000001
vertex -30.5908191025289 13.3691051638106 -0.999999999999991
endloop
endfacet
facet normal 0.988937963082907 0.148329717769 2.45968673052925e-016
outer loop
vertex -30.5908191025289 13.3691051638106 1.00000000000001
vertex -30.7349947022423 13.8709086972126 -0.999999999999992
vertex -30.7349947022423 13.8709086972126 1.00000000000001
endloop
endfacet
facet normal 0.988937963082907 0.148329717769 2.45968673052925e-016
outer loop
vertex -30.5908191025289 13.3691051638106 -0.999999999999991
vertex -30.5814324785891 12.8470847801296 1.00000000000001
vertex -30.5814324785891 12.8470847801296 -0.999999999999991
endloop
endfacet
facet normal 0.993631275052784 -0.112680474071503 2.74342406956702e-016
outer loop
vertex -30.5814324785891 12.8470847801296 1.00000000000001
vertex -30.5908191025289 13.3691051638106 -0.999999999999991
vertex -30.5908191025289 13.3691051638106 1.00000000000001
endloop
endfacet
endsolid tonearm
