solid home-mount-top
facet normal -0.0 -0.0 1.0
outer loop
vertex 0.0 0.0 2.0
vertex 8.73223304703363 3.23223304703363 2.0
vertex 0.0 10.0 2.0
endloop
endfacet
facet normal -0.0 -0.0 1.0
outer loop
vertex 8.73223304703363 3.23223304703363 2.0
vertex 0.0 0.0 2.0
vertex 9.25 2.8349364905389 2.0
endloop
endfacet
facet normal -0.0 -0.0 1.0
outer loop
vertex 9.25 2.8349364905389 2.0
vertex 0.0 0.0 2.0
vertex 9.8529523872437 2.58518543427733 2.0
endloop
endfacet
facet normal -0.0 -0.0 1.0
outer loop
vertex 9.8529523872437 2.58518543427733 2.0
vertex 0.0 0.0 2.0
vertex 21.0 0.0 2.0
endloop
endfacet
facet normal -0.0 -0.0 1.0
outer loop
vertex 0.0 10.0 2.0
vertex 8.73223304703363 3.23223304703363 2.0
vertex 8.3349364905389 3.75 2.0
endloop
endfacet
facet normal -0.0 -0.0 1.0
outer loop
vertex 0.0 10.0 2.0
vertex 8.3349364905389 3.75 2.0
vertex 8.08518543427733 4.3529523872437 2.0
endloop
endfacet
facet normal -0.0 -0.0 1.0
outer loop
vertex 0.0 10.0 2.0
vertex 8.08518543427733 4.3529523872437 2.0
vertex 8.0 5.0 2.0
endloop
endfacet
facet normal -0.0 -0.0 1.0
outer loop
vertex 9.8529523872437 2.58518543427733 2.0
vertex 21.0 0.0 2.0
vertex 10.5 2.5 2.0
endloop
endfacet
facet normal -0.0 -0.0 1.0
outer loop
vertex 10.5 2.5 2.0
vertex 21.0 0.0 2.0
vertex 11.1470476127563 2.58518543427733 2.0
endloop
endfacet
facet normal -0.0 -0.0 1.0
outer loop
vertex 11.1470476127563 2.58518543427733 2.0
vertex 21.0 0.0 2.0
vertex 11.75 2.8349364905389 2.0
endloop
endfacet
facet normal -0.0 -0.0 1.0
outer loop
vertex 11.75 2.8349364905389 2.0
vertex 21.0 0.0 2.0
vertex 12.2677669529664 3.23223304703363 2.0
endloop
endfacet
facet normal -0.0 -0.0 1.0
outer loop
vertex 12.2677669529664 3.23223304703363 2.0
vertex 21.0 0.0 2.0
vertex 12.6650635094611 3.75 2.0
endloop
endfacet
facet normal -0.0 -0.0 1.0
outer loop
vertex 12.6650635094611 3.75 2.0
vertex 21.0 0.0 2.0
vertex 12.9148145657227 4.3529523872437 2.0
endloop
endfacet
facet normal -0.0 -0.0 1.0
outer loop
vertex 12.9148145657227 4.3529523872437 2.0
vertex 21.0 0.0 2.0
vertex 13.0 5.0 2.0
endloop
endfacet
facet normal -0.0 -0.0 1.0
outer loop
vertex 0.0 10.0 2.0
vertex 9.8529523872437 7.41481456572267 2.0
vertex 21.0 10.0 2.0
endloop
endfacet
facet normal -0.0 -0.0 1.0
outer loop
vertex 9.8529523872437 7.41481456572267 2.0
vertex 0.0 10.0 2.0
vertex 9.25 7.1650635094611 2.0
endloop
endfacet
facet normal -0.0 -0.0 1.0
outer loop
vertex 9.25 7.1650635094611 2.0
vertex 0.0 10.0 2.0
vertex 8.73223304703363 6.76776695296637 2.0
endloop
endfacet
facet normal -0.0 -0.0 1.0
outer loop
vertex 8.73223304703363 6.76776695296637 2.0
vertex 0.0 10.0 2.0
vertex 8.3349364905389 6.25 2.0
endloop
endfacet
facet normal -0.0 -0.0 1.0
outer loop
vertex 8.3349364905389 6.25 2.0
vertex 0.0 10.0 2.0
vertex 8.08518543427733 5.6470476127563 2.0
endloop
endfacet
facet normal -0.0 -0.0 1.0
outer loop
vertex 8.08518543427733 5.6470476127563 2.0
vertex 0.0 10.0 2.0
vertex 8.0 5.0 2.0
endloop
endfacet
facet normal -0.0 -0.0 1.0
outer loop
vertex 21.0 10.0 2.0
vertex 9.8529523872437 7.41481456572267 2.0
vertex 10.5 7.5 2.0
endloop
endfacet
facet normal -0.0 -0.0 1.0
outer loop
vertex 21.0 10.0 2.0
vertex 10.5 7.5 2.0
vertex 11.1470476127563 7.41481456572267 2.0
endloop
endfacet
facet normal -0.0 -0.0 1.0
outer loop
vertex 21.0 10.0 2.0
vertex 11.1470476127563 7.41481456572267 2.0
vertex 11.75 7.1650635094611 2.0
endloop
endfacet
facet normal -0.0 -0.0 1.0
outer loop
vertex 21.0 10.0 2.0
vertex 11.75 7.1650635094611 2.0
vertex 12.2677669529664 6.76776695296637 2.0
endloop
endfacet
facet normal -0.0 -0.0 1.0
outer loop
vertex 21.0 10.0 2.0
vertex 12.2677669529664 6.76776695296637 2.0
vertex 12.6650635094611 6.25 2.0
endloop
endfacet
facet normal -0.0 -0.0 1.0
outer loop
vertex 21.0 10.0 2.0
vertex 12.6650635094611 6.25 2.0
vertex 12.9148145657227 5.6470476127563 2.0
endloop
endfacet
facet normal -0.0 -0.0 1.0
outer loop
vertex 21.0 10.0 2.0
vertex 12.9148145657227 5.6470476127563 2.0
vertex 13.0 5.0 2.0
endloop
endfacet
facet normal -0.0 -0.0 1.0
outer loop
vertex 21.0 10.0 2.0
vertex 13.0 5.0 2.0
vertex 21.0 0.0 2.0
endloop
endfacet
facet normal 0.0 -1.0 0.0
outer loop
vertex 23.0 0.0 0.0
vertex -2.0 0.0 -2.0
vertex 23.0 0.0 -2.0
endloop
endfacet
facet normal 0.0 -1.0 0.0
outer loop
vertex -2.0 0.0 -2.0
vertex 23.0 0.0 0.0
vertex -2.0 0.0 0.0
endloop
endfacet
facet normal 0.0 -1.0 0.0
outer loop
vertex -2.0 0.0 0.0
vertex 23.0 0.0 0.0
vertex 21.0 0.0 2.0
endloop
endfacet
facet normal 0.0 -1.0 0.0
outer loop
vertex 21.0 0.0 2.0
vertex 23.0 0.0 0.0
vertex 24.0 0.0 9.0
endloop
endfacet
facet normal 0.0 -1.0 0.0
outer loop
vertex 21.0 0.0 2.0
vertex 24.0 0.0 9.0
vertex 22.0 0.0 7.0
endloop
endfacet
facet normal 0.0 -1.0 0.0
outer loop
vertex -2.0 0.0 0.0
vertex 0.0 0.0 2.0
vertex -3.0 0.0 15.0
endloop
endfacet
facet normal 0.0 -1.0 0.0
outer loop
vertex 0.0 0.0 2.0
vertex -2.0 0.0 0.0
vertex 21.0 0.0 2.0
endloop
endfacet
facet normal 0.0 -1.0 0.0
outer loop
vertex -3.0 0.0 15.0
vertex 0.0 0.0 2.0
vertex -1.0 0.0 13.0
endloop
endfacet
facet normal 0.993883734673619 -0.0 -0.110431526074847
outer loop
vertex 23.0 10.0 0.0
vertex 24.0 0.0 9.0
vertex 23.0 0.0 0.0
endloop
endfacet
facet normal 0.993883734673619 -0.0 -0.110431526074847
outer loop
vertex 24.0 0.0 9.0
vertex 23.0 10.0 0.0
vertex 24.0 10.0 9.0
endloop
endfacet
facet normal -0.0 1.0 -0.0
outer loop
vertex -2.0 10.0 0.0
vertex 23.0 10.0 -2.0
vertex -2.0 10.0 -2.0
endloop
endfacet
facet normal -0.0 1.0 -0.0
outer loop
vertex 23.0 10.0 -2.0
vertex -2.0 10.0 0.0
vertex 23.0 10.0 0.0
endloop
endfacet
facet normal -0.0 1.0 -0.0
outer loop
vertex 23.0 10.0 0.0
vertex -2.0 10.0 0.0
vertex 0.0 10.0 2.0
endloop
endfacet
facet normal -0.0 1.0 -0.0
outer loop
vertex 0.0 10.0 2.0
vertex -2.0 10.0 0.0
vertex -3.0 10.0 15.0
endloop
endfacet
facet normal -0.0 1.0 -0.0
outer loop
vertex 0.0 10.0 2.0
vertex -3.0 10.0 15.0
vertex -1.0 10.0 13.0
endloop
endfacet
facet normal -0.0 1.0 -0.0
outer loop
vertex 23.0 10.0 0.0
vertex 21.0 10.0 2.0
vertex 24.0 10.0 9.0
endloop
endfacet
facet normal -0.0 1.0 -0.0
outer loop
vertex 21.0 10.0 2.0
vertex 23.0 10.0 0.0
vertex 0.0 10.0 2.0
endloop
endfacet
facet normal -0.0 1.0 -0.0
outer loop
vertex 24.0 10.0 9.0
vertex 21.0 10.0 2.0
vertex 22.0 10.0 7.0
endloop
endfacet
facet normal -0.997785157856609 0.0 -0.0665190105237739
outer loop
vertex -3.0 10.0 15.0
vertex -2.0 0.0 0.0
vertex -3.0 0.0 15.0
endloop
endfacet
facet normal -0.997785157856609 0.0 -0.0665190105237739
outer loop
vertex -2.0 0.0 0.0
vertex -3.0 10.0 15.0
vertex -2.0 10.0 0.0
endloop
endfacet
facet normal 0.707106781186547 -0.0 0.707106781186547
outer loop
vertex -1.0 10.0 13.0
vertex -3.0 0.0 15.0
vertex -1.0 0.0 13.0
endloop
endfacet
facet normal 0.707106781186547 -0.0 0.707106781186547
outer loop
vertex -3.0 0.0 15.0
vertex -1.0 10.0 13.0
vertex -3.0 10.0 15.0
endloop
endfacet
facet normal 0.995893206467704 -0.0 0.0905357460425185
outer loop
vertex 0.0 10.0 2.0
vertex -1.0 0.0 13.0
vertex 0.0 0.0 2.0
endloop
endfacet
facet normal 0.995893206467704 -0.0 0.0905357460425185
outer loop
vertex -1.0 0.0 13.0
vertex 0.0 10.0 2.0
vertex -1.0 10.0 13.0
endloop
endfacet
facet normal -0.707106781186548 0.0 0.707106781186547
outer loop
vertex 24.0 10.0 9.0
vertex 22.0 0.0 7.0
vertex 24.0 0.0 9.0
endloop
endfacet
facet normal -0.707106781186548 0.0 0.707106781186547
outer loop
vertex 22.0 0.0 7.0
vertex 24.0 10.0 9.0
vertex 22.0 10.0 7.0
endloop
endfacet
facet normal -0.98058067569092 0.0 0.196116135138184
outer loop
vertex 22.0 10.0 7.0
vertex 21.0 0.0 2.0
vertex 22.0 0.0 7.0
endloop
endfacet
facet normal -0.98058067569092 0.0 0.196116135138184
outer loop
vertex 21.0 0.0 2.0
vertex 22.0 10.0 7.0
vertex 21.0 10.0 2.0
endloop
endfacet
facet normal 1.0 0.0 0.0
outer loop
vertex 23.0 10.0 -2.0
vertex 23.0 0.0 0.0
vertex 23.0 0.0 -2.0
endloop
endfacet
facet normal 1.0 0.0 0.0
outer loop
vertex 23.0 0.0 0.0
vertex 23.0 10.0 -2.0
vertex 23.0 10.0 0.0
endloop
endfacet
facet normal -1.0 0.0 0.0
outer loop
vertex -2.0 10.0 0.0
vertex -2.0 0.0 -2.0
vertex -2.0 0.0 0.0
endloop
endfacet
facet normal -1.0 0.0 0.0
outer loop
vertex -2.0 0.0 -2.0
vertex -2.0 10.0 0.0
vertex -2.0 10.0 -2.0
endloop
endfacet
facet normal -0.0 -0.0 1.0
outer loop
vertex 9.25 2.8349364905389 -1.0
vertex 9.0 5.0 -1.0
vertex 8.73223304703363 3.23223304703363 -1.0
endloop
endfacet
facet normal -0.0 -0.0 1.0
outer loop
vertex 9.0 5.0 -1.0
vertex 9.25 2.8349364905389 -1.0
vertex 9.0511112605664 4.61177143234622 -1.0
endloop
endfacet
facet normal -0.0 -0.0 1.0
outer loop
vertex 9.0511112605664 4.61177143234622 -1.0
vertex 9.25 2.8349364905389 -1.0
vertex 9.20096189432334 4.25 -1.0
endloop
endfacet
facet normal -0.0 -0.0 1.0
outer loop
vertex 9.20096189432334 4.25 -1.0
vertex 9.25 2.8349364905389 -1.0
vertex 9.43933982822018 3.93933982822018 -1.0
endloop
endfacet
facet normal -0.0 -0.0 1.0
outer loop
vertex 9.43933982822018 3.93933982822018 -1.0
vertex 9.25 2.8349364905389 -1.0
vertex 9.8529523872437 2.58518543427733 -1.0
endloop
endfacet
facet normal -0.0 -0.0 1.0
outer loop
vertex 9.43933982822018 3.93933982822018 -1.0
vertex 9.8529523872437 2.58518543427733 -1.0
vertex 9.75 3.70096189432334 -1.0
endloop
endfacet
facet normal -0.0 -0.0 1.0
outer loop
vertex 9.75 3.70096189432334 -1.0
vertex 9.8529523872437 2.58518543427733 -1.0
vertex 10.1117714323462 3.5511112605664 -1.0
endloop
endfacet
facet normal -0.0 -0.0 1.0
outer loop
vertex 10.1117714323462 3.5511112605664 -1.0
vertex 9.8529523872437 2.58518543427733 -1.0
vertex 10.5 2.5 -1.0
endloop
endfacet
facet normal -0.0 -0.0 1.0
outer loop
vertex 10.1117714323462 3.5511112605664 -1.0
vertex 10.5 2.5 -1.0
vertex 10.5 3.5 -1.0
endloop
endfacet
facet normal -0.0 -0.0 1.0
outer loop
vertex 10.5 3.5 -1.0
vertex 10.5 2.5 -1.0
vertex 11.1470476127563 2.58518543427733 -1.0
endloop
endfacet
facet normal -0.0 -0.0 1.0
outer loop
vertex 10.5 3.5 -1.0
vertex 11.1470476127563 2.58518543427733 -1.0
vertex 10.8882285676538 3.5511112605664 -1.0
endloop
endfacet
facet normal -0.0 -0.0 1.0
outer loop
vertex 10.8882285676538 3.5511112605664 -1.0
vertex 11.1470476127563 2.58518543427733 -1.0
vertex 11.25 3.70096189432334 -1.0
endloop
endfacet
facet normal -0.0 -0.0 1.0
outer loop
vertex 11.25 3.70096189432334 -1.0
vertex 11.1470476127563 2.58518543427733 -1.0
vertex 11.75 2.8349364905389 -1.0
endloop
endfacet
facet normal -0.0 -0.0 1.0
outer loop
vertex 11.25 3.70096189432334 -1.0
vertex 11.75 2.8349364905389 -1.0
vertex 11.5606601717798 3.93933982822018 -1.0
endloop
endfacet
facet normal -0.0 -0.0 1.0
outer loop
vertex 11.5606601717798 3.93933982822018 -1.0
vertex 11.75 2.8349364905389 -1.0
vertex 11.7990381056767 4.25 -1.0
endloop
endfacet
facet normal -0.0 -0.0 1.0
outer loop
vertex 11.7990381056767 4.25 -1.0
vertex 11.75 2.8349364905389 -1.0
vertex 12.2677669529664 3.23223304703363 -1.0
endloop
endfacet
facet normal -0.0 -0.0 1.0
outer loop
vertex 11.7990381056767 4.25 -1.0
vertex 12.2677669529664 3.23223304703363 -1.0
vertex 11.9488887394336 4.61177143234622 -1.0
endloop
endfacet
facet normal -0.0 -0.0 1.0
outer loop
vertex 11.9488887394336 4.61177143234622 -1.0
vertex 12.2677669529664 3.23223304703363 -1.0
vertex 12.0 5.0 -1.0
endloop
endfacet
facet normal -0.0 -0.0 1.0
outer loop
vertex 12.0 5.0 -1.0
vertex 12.2677669529664 3.23223304703363 -1.0
vertex 12.2677669529664 6.76776695296637 -1.0
endloop
endfacet
facet normal -0.0 -0.0 1.0
outer loop
vertex 12.2677669529664 6.76776695296637 -1.0
vertex 12.2677669529664 3.23223304703363 -1.0
vertex 12.6650635094611 6.25 -1.0
endloop
endfacet
facet normal -0.0 -0.0 1.0
outer loop
vertex 12.6650635094611 6.25 -1.0
vertex 12.2677669529664 3.23223304703363 -1.0
vertex 12.6650635094611 3.75 -1.0
endloop
endfacet
facet normal -0.0 -0.0 1.0
outer loop
vertex 12.6650635094611 6.25 -1.0
vertex 12.6650635094611 3.75 -1.0
vertex 12.9148145657227 5.6470476127563 -1.0
endloop
endfacet
facet normal -0.0 -0.0 1.0
outer loop
vertex 12.9148145657227 5.6470476127563 -1.0
vertex 12.6650635094611 3.75 -1.0
vertex 12.9148145657227 4.3529523872437 -1.0
endloop
endfacet
facet normal -0.0 -0.0 1.0
outer loop
vertex 12.9148145657227 5.6470476127563 -1.0
vertex 12.9148145657227 4.3529523872437 -1.0
vertex 13.0 5.0 -1.0
endloop
endfacet
facet normal -0.0 -0.0 1.0
outer loop
vertex 8.08518543427733 4.3529523872437 -1.0
vertex 8.08518543427733 5.6470476127563 -1.0
vertex 8.0 5.0 -1.0
endloop
endfacet
facet normal -0.0 -0.0 1.0
outer loop
vertex 8.08518543427733 5.6470476127563 -1.0
vertex 8.08518543427733 4.3529523872437 -1.0
vertex 8.3349364905389 3.75 -1.0
endloop
endfacet
facet normal -0.0 -0.0 1.0
outer loop
vertex 8.08518543427733 5.6470476127563 -1.0
vertex 8.3349364905389 3.75 -1.0
vertex 8.3349364905389 6.25 -1.0
endloop
endfacet
facet normal -0.0 -0.0 1.0
outer loop
vertex 8.3349364905389 6.25 -1.0
vertex 8.3349364905389 3.75 -1.0
vertex 8.73223304703363 6.76776695296637 -1.0
endloop
endfacet
facet normal -0.0 -0.0 1.0
outer loop
vertex 8.73223304703363 6.76776695296637 -1.0
vertex 8.3349364905389 3.75 -1.0
vertex 8.73223304703363 3.23223304703363 -1.0
endloop
endfacet
facet normal -0.0 -0.0 1.0
outer loop
vertex 8.73223304703363 6.76776695296637 -1.0
vertex 8.73223304703363 3.23223304703363 -1.0
vertex 9.25 7.1650635094611 -1.0
endloop
endfacet
facet normal -0.0 -0.0 1.0
outer loop
vertex 9.25 7.1650635094611 -1.0
vertex 8.73223304703363 3.23223304703363 -1.0
vertex 9.0 5.0 -1.0
endloop
endfacet
facet normal -0.0 -0.0 1.0
outer loop
vertex 9.25 7.1650635094611 -1.0
vertex 9.0 5.0 -1.0
vertex 9.0511112605664 5.38822856765378 -1.0
endloop
endfacet
facet normal -0.0 -0.0 1.0
outer loop
vertex 9.25 7.1650635094611 -1.0
vertex 9.0511112605664 5.38822856765378 -1.0
vertex 9.20096189432334 5.75 -1.0
endloop
endfacet
facet normal -0.0 -0.0 1.0
outer loop
vertex 9.25 7.1650635094611 -1.0
vertex 9.20096189432334 5.75 -1.0
vertex 9.43933982822018 6.06066017177982 -1.0
endloop
endfacet
facet normal -0.0 -0.0 1.0
outer loop
vertex 9.25 7.1650635094611 -1.0
vertex 9.43933982822018 6.06066017177982 -1.0
vertex 9.8529523872437 7.41481456572267 -1.0
endloop
endfacet
facet normal -0.0 -0.0 1.0
outer loop
vertex 9.8529523872437 7.41481456572267 -1.0
vertex 9.43933982822018 6.06066017177982 -1.0
vertex 9.75 6.29903810567666 -1.0
endloop
endfacet
facet normal -0.0 -0.0 1.0
outer loop
vertex 9.8529523872437 7.41481456572267 -1.0
vertex 9.75 6.29903810567666 -1.0
vertex 10.1117714323462 6.4488887394336 -1.0
endloop
endfacet
facet normal -0.0 -0.0 1.0
outer loop
vertex 9.8529523872437 7.41481456572267 -1.0
vertex 10.1117714323462 6.4488887394336 -1.0
vertex 10.5 7.5 -1.0
endloop
endfacet
facet normal -0.0 -0.0 1.0
outer loop
vertex 10.5 7.5 -1.0
vertex 10.1117714323462 6.4488887394336 -1.0
vertex 10.5 6.5 -1.0
endloop
endfacet
facet normal -0.0 -0.0 1.0
outer loop
vertex 10.5 7.5 -1.0
vertex 10.5 6.5 -1.0
vertex 10.8882285676538 6.4488887394336 -1.0
endloop
endfacet
facet normal -0.0 -0.0 1.0
outer loop
vertex 10.5 7.5 -1.0
vertex 10.8882285676538 6.4488887394336 -1.0
vertex 11.1470476127563 7.41481456572267 -1.0
endloop
endfacet
facet normal -0.0 -0.0 1.0
outer loop
vertex 11.1470476127563 7.41481456572267 -1.0
vertex 10.8882285676538 6.4488887394336 -1.0
vertex 11.25 6.29903810567666 -1.0
endloop
endfacet
facet normal -0.0 -0.0 1.0
outer loop
vertex 11.1470476127563 7.41481456572267 -1.0
vertex 11.25 6.29903810567666 -1.0
vertex 11.75 7.1650635094611 -1.0
endloop
endfacet
facet normal -0.0 -0.0 1.0
outer loop
vertex 11.75 7.1650635094611 -1.0
vertex 11.25 6.29903810567666 -1.0
vertex 11.5606601717798 6.06066017177982 -1.0
endloop
endfacet
facet normal -0.0 -0.0 1.0
outer loop
vertex 11.75 7.1650635094611 -1.0
vertex 11.5606601717798 6.06066017177982 -1.0
vertex 11.7990381056767 5.75 -1.0
endloop
endfacet
facet normal -0.0 -0.0 1.0
outer loop
vertex 11.75 7.1650635094611 -1.0
vertex 11.7990381056767 5.75 -1.0
vertex 12.2677669529664 6.76776695296637 -1.0
endloop
endfacet
facet normal -0.0 -0.0 1.0
outer loop
vertex 12.2677669529664 6.76776695296637 -1.0
vertex 11.7990381056767 5.75 -1.0
vertex 11.9488887394336 5.38822856765378 -1.0
endloop
endfacet
facet normal -0.0 -0.0 1.0
outer loop
vertex 12.2677669529664 6.76776695296637 -1.0
vertex 11.9488887394336 5.38822856765378 -1.0
vertex 12.0 5.0 -1.0
endloop
endfacet
facet normal -1.0 2.22777747391173e-016 0.0
outer loop
vertex 13.0 5.0 2.0
vertex 12.9148145657227 4.3529523872437 -1.0
vertex 12.9148145657227 4.3529523872437 2.0
endloop
endfacet
facet normal -0.965925826289068 0.258819045102521 0.0
outer loop
vertex 12.9148145657227 4.3529523872437 -1.0
vertex 13.0 5.0 2.0
vertex 13.0 5.0 -1.0
endloop
endfacet
facet normal -0.965925826289068 -0.258819045102522 0.0
outer loop
vertex 12.9148145657227 5.6470476127563 2.0
vertex 13.0 5.0 -1.0
vertex 13.0 5.0 2.0
endloop
endfacet
facet normal -1.0 2.22777747391173e-016 0.0
outer loop
vertex 13.0 5.0 -1.0
vertex 12.9148145657227 5.6470476127563 2.0
vertex 12.9148145657227 5.6470476127563 -1.0
endloop
endfacet
facet normal -0.866025403784438 -0.500000000000001 0.0
outer loop
vertex 12.6650635094611 6.25 2.0
vertex 12.9148145657227 5.6470476127563 -1.0
vertex 12.9148145657227 5.6470476127563 2.0
endloop
endfacet
facet normal -0.965925826289068 -0.258819045102522 0.0
outer loop
vertex 12.9148145657227 5.6470476127563 -1.0
vertex 12.6650635094611 6.25 2.0
vertex 12.6650635094611 6.25 -1.0
endloop
endfacet
facet normal -0.707106781186547 -0.707106781186548 0.0
outer loop
vertex 12.2677669529664 6.76776695296637 2.0
vertex 12.6650635094611 6.25 -1.0
vertex 12.6650635094611 6.25 2.0
endloop
endfacet
facet normal -0.866025403784438 -0.500000000000001 0.0
outer loop
vertex 12.6650635094611 6.25 -1.0
vertex 12.2677669529664 6.76776695296637 2.0
vertex 12.2677669529664 6.76776695296637 -1.0
endloop
endfacet
facet normal -0.707106781186547 -0.707106781186548 0.0
outer loop
vertex 12.2677669529664 6.76776695296637 2.0
vertex 11.75 7.1650635094611 -1.0
vertex 12.2677669529664 6.76776695296637 -1.0
endloop
endfacet
facet normal -0.499999999999999 -0.866025403784439 0.0
outer loop
vertex 11.75 7.1650635094611 -1.0
vertex 12.2677669529664 6.76776695296637 2.0
vertex 11.75 7.1650635094611 2.0
endloop
endfacet
facet normal -0.499999999999999 -0.866025403784439 0.0
outer loop
vertex 11.75 7.1650635094611 2.0
vertex 11.1470476127563 7.41481456572267 -1.0
vertex 11.75 7.1650635094611 -1.0
endloop
endfacet
facet normal -0.258819045102521 -0.965925826289068 0.0
outer loop
vertex 11.1470476127563 7.41481456572267 -1.0
vertex 11.75 7.1650635094611 2.0
vertex 11.1470476127563 7.41481456572267 2.0
endloop
endfacet
facet normal -0.258819045102521 -0.965925826289068 0.0
outer loop
vertex 11.1470476127563 7.41481456572267 2.0
vertex 10.5 7.5 -1.0
vertex 11.1470476127563 7.41481456572267 -1.0
endloop
endfacet
facet normal -1.51488868225997e-016 -1.0 0.0
outer loop
vertex 10.5 7.5 -1.0
vertex 11.1470476127563 7.41481456572267 2.0
vertex 10.5 7.5 2.0
endloop
endfacet
facet normal -1.51488868225997e-016 -1.0 0.0
outer loop
vertex 10.5 7.5 2.0
vertex 9.8529523872437 7.41481456572267 -1.0
vertex 10.5 7.5 -1.0
endloop
endfacet
facet normal 0.258819045102521 -0.965925826289068 0.0
outer loop
vertex 9.8529523872437 7.41481456572267 -1.0
vertex 10.5 7.5 2.0
vertex 9.8529523872437 7.41481456572267 2.0
endloop
endfacet
facet normal 0.258819045102521 -0.965925826289068 0.0
outer loop
vertex 9.8529523872437 7.41481456572267 2.0
vertex 9.25 7.1650635094611 -1.0
vertex 9.8529523872437 7.41481456572267 -1.0
endloop
endfacet
facet normal 0.5 -0.866025403784439 0.0
outer loop
vertex 9.25 7.1650635094611 -1.0
vertex 9.8529523872437 7.41481456572267 2.0
vertex 9.25 7.1650635094611 2.0
endloop
endfacet
facet normal 0.5 -0.866025403784439 0.0
outer loop
vertex 9.25 7.1650635094611 2.0
vertex 8.73223304703363 6.76776695296637 -1.0
vertex 9.25 7.1650635094611 -1.0
endloop
endfacet
facet normal 0.707106781186548 -0.707106781186547 0.0
outer loop
vertex 8.73223304703363 6.76776695296637 -1.0
vertex 9.25 7.1650635094611 2.0
vertex 8.73223304703363 6.76776695296637 2.0
endloop
endfacet
facet normal 0.707106781186548 -0.707106781186547 0.0
outer loop
vertex 8.73223304703363 6.76776695296637 -1.0
vertex 8.3349364905389 6.25 2.0
vertex 8.3349364905389 6.25 -1.0
endloop
endfacet
facet normal 0.866025403784439 -0.5 0.0
outer loop
vertex 8.3349364905389 6.25 2.0
vertex 8.73223304703363 6.76776695296637 -1.0
vertex 8.73223304703363 6.76776695296637 2.0
endloop
endfacet
facet normal 0.866025403784439 -0.5 0.0
outer loop
vertex 8.3349364905389 6.25 -1.0
vertex 8.08518543427733 5.6470476127563 2.0
vertex 8.08518543427733 5.6470476127563 -1.0
endloop
endfacet
facet normal 0.965925826289068 -0.258819045102521 0.0
outer loop
vertex 8.08518543427733 5.6470476127563 2.0
vertex 8.3349364905389 6.25 -1.0
vertex 8.3349364905389 6.25 2.0
endloop
endfacet
facet normal 0.965925826289068 -0.258819045102521 0.0
outer loop
vertex 8.08518543427733 5.6470476127563 -1.0
vertex 8.0 5.0 2.0
vertex 8.0 5.0 -1.0
endloop
endfacet
facet normal 1.0 -2.22777747391173e-016 0.0
outer loop
vertex 8.0 5.0 2.0
vertex 8.08518543427733 5.6470476127563 -1.0
vertex 8.08518543427733 5.6470476127563 2.0
endloop
endfacet
facet normal 1.0 -2.22777747391173e-016 0.0
outer loop
vertex 8.0 5.0 -1.0
vertex 8.08518543427733 4.3529523872437 2.0
vertex 8.08518543427733 4.3529523872437 -1.0
endloop
endfacet
facet normal 0.965925826289068 0.258819045102522 0.0
outer loop
vertex 8.08518543427733 4.3529523872437 2.0
vertex 8.0 5.0 -1.0
vertex 8.0 5.0 2.0
endloop
endfacet
facet normal 0.965925826289068 0.258819045102522 0.0
outer loop
vertex 8.08518543427733 4.3529523872437 -1.0
vertex 8.3349364905389 3.75 2.0
vertex 8.3349364905389 3.75 -1.0
endloop
endfacet
facet normal 0.866025403784438 0.500000000000001 0.0
outer loop
vertex 8.3349364905389 3.75 2.0
vertex 8.08518543427733 4.3529523872437 -1.0
vertex 8.08518543427733 4.3529523872437 2.0
endloop
endfacet
facet normal 0.866025403784438 0.500000000000001 0.0
outer loop
vertex 8.3349364905389 3.75 -1.0
vertex 8.73223304703363 3.23223304703363 2.0
vertex 8.73223304703363 3.23223304703363 -1.0
endloop
endfacet
facet normal 0.707106781186547 0.707106781186548 0.0
outer loop
vertex 8.73223304703363 3.23223304703363 2.0
vertex 8.3349364905389 3.75 -1.0
vertex 8.3349364905389 3.75 2.0
endloop
endfacet
facet normal 0.707106781186547 0.707106781186548 0.0
outer loop
vertex 8.73223304703363 3.23223304703363 2.0
vertex 9.25 2.8349364905389 -1.0
vertex 8.73223304703363 3.23223304703363 -1.0
endloop
endfacet
facet normal 0.5 0.866025403784439 0.0
outer loop
vertex 9.25 2.8349364905389 -1.0
vertex 8.73223304703363 3.23223304703363 2.0
vertex 9.25 2.8349364905389 2.0
endloop
endfacet
facet normal 0.5 0.866025403784439 0.0
outer loop
vertex 9.25 2.8349364905389 2.0
vertex 9.8529523872437 2.58518543427733 -1.0
vertex 9.25 2.8349364905389 -1.0
endloop
endfacet
facet normal 0.258819045102521 0.965925826289068 0.0
outer loop
vertex 9.8529523872437 2.58518543427733 -1.0
vertex 9.25 2.8349364905389 2.0
vertex 9.8529523872437 2.58518543427733 2.0
endloop
endfacet
facet normal 0.258819045102521 0.965925826289068 0.0
outer loop
vertex 9.8529523872437 2.58518543427733 2.0
vertex 10.5 2.5 -1.0
vertex 9.8529523872437 2.58518543427733 -1.0
endloop
endfacet
facet normal -2.67333296869407e-016 1.0 0.0
outer loop
vertex 10.5 2.5 -1.0
vertex 9.8529523872437 2.58518543427733 2.0
vertex 10.5 2.5 2.0
endloop
endfacet
facet normal -2.67333296869407e-016 1.0 0.0
outer loop
vertex 10.5 2.5 2.0
vertex 11.1470476127563 2.58518543427733 -1.0
vertex 10.5 2.5 -1.0
endloop
endfacet
facet normal -0.258819045102522 0.965925826289068 0.0
outer loop
vertex 11.1470476127563 2.58518543427733 -1.0
vertex 10.5 2.5 2.0
vertex 11.1470476127563 2.58518543427733 2.0
endloop
endfacet
facet normal -0.258819045102522 0.965925826289068 0.0
outer loop
vertex 11.1470476127563 2.58518543427733 2.0
vertex 11.75 2.8349364905389 -1.0
vertex 11.1470476127563 2.58518543427733 -1.0
endloop
endfacet
facet normal -0.5 0.866025403784438 0.0
outer loop
vertex 11.75 2.8349364905389 -1.0
vertex 11.1470476127563 2.58518543427733 2.0
vertex 11.75 2.8349364905389 2.0
endloop
endfacet
facet normal -0.5 0.866025403784438 0.0
outer loop
vertex 11.75 2.8349364905389 2.0
vertex 12.2677669529664 3.23223304703363 -1.0
vertex 11.75 2.8349364905389 -1.0
endloop
endfacet
facet normal -0.707106781186547 0.707106781186548 0.0
outer loop
vertex 12.2677669529664 3.23223304703363 -1.0
vertex 11.75 2.8349364905389 2.0
vertex 12.2677669529664 3.23223304703363 2.0
endloop
endfacet
facet normal -0.866025403784439 0.5 0.0
outer loop
vertex 12.6650635094611 3.75 2.0
vertex 12.2677669529664 3.23223304703363 -1.0
vertex 12.2677669529664 3.23223304703363 2.0
endloop
endfacet
facet normal -0.707106781186547 0.707106781186548 0.0
outer loop
vertex 12.2677669529664 3.23223304703363 -1.0
vertex 12.6650635094611 3.75 2.0
vertex 12.6650635094611 3.75 -1.0
endloop
endfacet
facet normal -0.965925826289068 0.258819045102521 0.0
outer loop
vertex 12.9148145657227 4.3529523872437 2.0
vertex 12.6650635094611 3.75 -1.0
vertex 12.6650635094611 3.75 2.0
endloop
endfacet
facet normal -0.866025403784439 0.5 0.0
outer loop
vertex 12.6650635094611 3.75 -1.0
vertex 12.9148145657227 4.3529523872437 2.0
vertex 12.9148145657227 4.3529523872437 -1.0
endloop
endfacet
facet normal -1.0 1.06933318747763e-016 0.0
outer loop
vertex 12.0 5.0 -1.0
vertex 11.9488887394336 4.61177143234622 -2.0
vertex 11.9488887394336 4.61177143234622 -1.0
endloop
endfacet
facet normal -0.965925826289068 0.25881904510252 0.0
outer loop
vertex 11.9488887394336 4.61177143234622 -2.0
vertex 12.0 5.0 -1.0
vertex 12.0 5.0 -2.0
endloop
endfacet
facet normal -0.965925826289068 -0.258819045102521 0.0
outer loop
vertex 11.9488887394336 5.38822856765378 -1.0
vertex 12.0 5.0 -2.0
vertex 12.0 5.0 -1.0
endloop
endfacet
facet normal -1.0 1.06933318747763e-016 0.0
outer loop
vertex 12.0 5.0 -2.0
vertex 11.9488887394336 5.38822856765378 -1.0
vertex 11.9488887394336 5.38822856765378 -2.0
endloop
endfacet
facet normal -0.866025403784438 -0.500000000000001 0.0
outer loop
vertex 11.7990381056767 5.75 -1.0
vertex 11.9488887394336 5.38822856765378 -2.0
vertex 11.9488887394336 5.38822856765378 -1.0
endloop
endfacet
facet normal -0.965925826289068 -0.258819045102521 0.0
outer loop
vertex 11.9488887394336 5.38822856765378 -2.0
vertex 11.7990381056767 5.75 -1.0
vertex 11.7990381056767 5.75 -2.0
endloop
endfacet
facet normal -0.707106781186548 -0.707106781186547 0.0
outer loop
vertex 11.5606601717798 6.06066017177982 -1.0
vertex 11.7990381056767 5.75 -2.0
vertex 11.7990381056767 5.75 -1.0
endloop
endfacet
facet normal -0.866025403784438 -0.500000000000001 0.0
outer loop
vertex 11.7990381056767 5.75 -2.0
vertex 11.5606601717798 6.06066017177982 -1.0
vertex 11.5606601717798 6.06066017177982 -2.0
endloop
endfacet
facet normal -0.707106781186548 -0.707106781186547 0.0
outer loop
vertex 11.5606601717798 6.06066017177982 -1.0
vertex 11.25 6.29903810567666 -2.0
vertex 11.5606601717798 6.06066017177982 -2.0
endloop
endfacet
facet normal -0.5 -0.866025403784438 0.0
outer loop
vertex 11.25 6.29903810567666 -2.0
vertex 11.5606601717798 6.06066017177982 -1.0
vertex 11.25 6.29903810567666 -1.0
endloop
endfacet
facet normal -0.5 -0.866025403784438 0.0
outer loop
vertex 11.25 6.29903810567666 -1.0
vertex 10.8882285676538 6.4488887394336 -2.0
vertex 11.25 6.29903810567666 -2.0
endloop
endfacet
facet normal -0.258819045102521 -0.965925826289068 0.0
outer loop
vertex 10.8882285676538 6.4488887394336 -2.0
vertex 11.25 6.29903810567666 -1.0
vertex 10.8882285676538 6.4488887394336 -1.0
endloop
endfacet
facet normal -0.258819045102521 -0.965925826289068 0.0
outer loop
vertex 10.8882285676538 6.4488887394336 -1.0
vertex 10.5 6.5 -2.0
vertex 10.8882285676538 6.4488887394336 -2.0
endloop
endfacet
facet normal 0.0 -1.0 0.0
outer loop
vertex 10.5 6.5 -2.0
vertex 10.8882285676538 6.4488887394336 -1.0
vertex 10.5 6.5 -1.0
endloop
endfacet
facet normal 0.0 -1.0 0.0
outer loop
vertex 10.5 6.5 -1.0
vertex 10.1117714323462 6.4488887394336 -2.0
vertex 10.5 6.5 -2.0
endloop
endfacet
facet normal 0.258819045102521 -0.965925826289068 0.0
outer loop
vertex 10.1117714323462 6.4488887394336 -2.0
vertex 10.5 6.5 -1.0
vertex 10.1117714323462 6.4488887394336 -1.0
endloop
endfacet
facet normal 0.258819045102521 -0.965925826289068 0.0
outer loop
vertex 10.1117714323462 6.4488887394336 -1.0
vertex 9.75 6.29903810567666 -2.0
vertex 10.1117714323462 6.4488887394336 -2.0
endloop
endfacet
facet normal 0.5 -0.866025403784438 0.0
outer loop
vertex 9.75 6.29903810567666 -2.0
vertex 10.1117714323462 6.4488887394336 -1.0
vertex 9.75 6.29903810567666 -1.0
endloop
endfacet
facet normal 0.5 -0.866025403784438 0.0
outer loop
vertex 9.75 6.29903810567666 -1.0
vertex 9.43933982822018 6.06066017177982 -2.0
vertex 9.75 6.29903810567666 -2.0
endloop
endfacet
facet normal 0.707106781186548 -0.707106781186547 0.0
outer loop
vertex 9.43933982822018 6.06066017177982 -2.0
vertex 9.75 6.29903810567666 -1.0
vertex 9.43933982822018 6.06066017177982 -1.0
endloop
endfacet
facet normal 0.707106781186548 -0.707106781186547 0.0
outer loop
vertex 9.43933982822018 6.06066017177982 -2.0
vertex 9.20096189432334 5.75 -1.0
vertex 9.20096189432334 5.75 -2.0
endloop
endfacet
facet normal 0.866025403784438 -0.5 0.0
outer loop
vertex 9.20096189432334 5.75 -1.0
vertex 9.43933982822018 6.06066017177982 -2.0
vertex 9.43933982822018 6.06066017177982 -1.0
endloop
endfacet
facet normal 0.866025403784438 -0.5 0.0
outer loop
vertex 9.20096189432334 5.75 -2.0
vertex 9.0511112605664 5.38822856765378 -1.0
vertex 9.0511112605664 5.38822856765378 -2.0
endloop
endfacet
facet normal 0.965925826289068 -0.258819045102522 0.0
outer loop
vertex 9.0511112605664 5.38822856765378 -1.0
vertex 9.20096189432334 5.75 -2.0
vertex 9.20096189432334 5.75 -1.0
endloop
endfacet
facet normal 0.965925826289068 -0.258819045102522 0.0
outer loop
vertex 9.0511112605664 5.38822856765378 -2.0
vertex 9.0 5.0 -1.0
vertex 9.0 5.0 -2.0
endloop
endfacet
facet normal 1.0 -2.22777747391173e-016 0.0
outer loop
vertex 9.0 5.0 -1.0
vertex 9.0511112605664 5.38822856765378 -2.0
vertex 9.0511112605664 5.38822856765378 -1.0
endloop
endfacet
facet normal 1.0 -2.22777747391173e-016 0.0
outer loop
vertex 9.0 5.0 -2.0
vertex 9.0511112605664 4.61177143234622 -1.0
vertex 9.0511112605664 4.61177143234622 -2.0
endloop
endfacet
facet normal 0.965925826289068 0.258819045102522 0.0
outer loop
vertex 9.0511112605664 4.61177143234622 -1.0
vertex 9.0 5.0 -2.0
vertex 9.0 5.0 -1.0
endloop
endfacet
facet normal 0.965925826289068 0.258819045102522 0.0
outer loop
vertex 9.0511112605664 4.61177143234622 -2.0
vertex 9.20096189432334 4.25 -1.0
vertex 9.20096189432334 4.25 -2.0
endloop
endfacet
facet normal 0.866025403784438 0.500000000000001 0.0
outer loop
vertex 9.20096189432334 4.25 -1.0
vertex 9.0511112605664 4.61177143234622 -2.0
vertex 9.0511112605664 4.61177143234622 -1.0
endloop
endfacet
facet normal 0.866025403784438 0.500000000000001 0.0
outer loop
vertex 9.20096189432334 4.25 -2.0
vertex 9.43933982822018 3.93933982822018 -1.0
vertex 9.43933982822018 3.93933982822018 -2.0
endloop
endfacet
facet normal 0.707106781186547 0.707106781186548 0.0
outer loop
vertex 9.43933982822018 3.93933982822018 -1.0
vertex 9.20096189432334 4.25 -2.0
vertex 9.20096189432334 4.25 -1.0
endloop
endfacet
facet normal 0.707106781186547 0.707106781186548 0.0
outer loop
vertex 9.43933982822018 3.93933982822018 -1.0
vertex 9.75 3.70096189432334 -2.0
vertex 9.43933982822018 3.93933982822018 -2.0
endloop
endfacet
facet normal 0.499999999999999 0.866025403784439 0.0
outer loop
vertex 9.75 3.70096189432334 -2.0
vertex 9.43933982822018 3.93933982822018 -1.0
vertex 9.75 3.70096189432334 -1.0
endloop
endfacet
facet normal 0.499999999999999 0.866025403784439 0.0
outer loop
vertex 9.75 3.70096189432334 -1.0
vertex 10.1117714323462 3.5511112605664 -2.0
vertex 9.75 3.70096189432334 -2.0
endloop
endfacet
facet normal 0.25881904510252 0.965925826289068 0.0
outer loop
vertex 10.1117714323462 3.5511112605664 -2.0
vertex 9.75 3.70096189432334 -1.0
vertex 10.1117714323462 3.5511112605664 -1.0
endloop
endfacet
facet normal 0.25881904510252 0.965925826289068 0.0
outer loop
vertex 10.1117714323462 3.5511112605664 -1.0
vertex 10.5 3.5 -2.0
vertex 10.1117714323462 3.5511112605664 -2.0
endloop
endfacet
facet normal 4.63377714573639e-016 1.0 0.0
outer loop
vertex 10.5 3.5 -2.0
vertex 10.1117714323462 3.5511112605664 -1.0
vertex 10.5 3.5 -1.0
endloop
endfacet
facet normal 4.63377714573639e-016 1.0 0.0
outer loop
vertex 10.5 3.5 -1.0
vertex 10.8882285676538 3.5511112605664 -2.0
vertex 10.5 3.5 -2.0
endloop
endfacet
facet normal -0.258819045102522 0.965925826289068 0.0
outer loop
vertex 10.8882285676538 3.5511112605664 -2.0
vertex 10.5 3.5 -1.0
vertex 10.8882285676538 3.5511112605664 -1.0
endloop
endfacet
facet normal -0.258819045102522 0.965925826289068 0.0
outer loop
vertex 10.8882285676538 3.5511112605664 -1.0
vertex 11.25 3.70096189432334 -2.0
vertex 10.8882285676538 3.5511112605664 -2.0
endloop
endfacet
facet normal -0.500000000000001 0.866025403784438 0.0
outer loop
vertex 11.25 3.70096189432334 -2.0
vertex 10.8882285676538 3.5511112605664 -1.0
vertex 11.25 3.70096189432334 -1.0
endloop
endfacet
facet normal -0.500000000000001 0.866025403784438 0.0
outer loop
vertex 11.25 3.70096189432334 -1.0
vertex 11.5606601717798 3.93933982822018 -2.0
vertex 11.25 3.70096189432334 -2.0
endloop
endfacet
facet normal -0.707106781186547 0.707106781186548 0.0
outer loop
vertex 11.5606601717798 3.93933982822018 -2.0
vertex 11.25 3.70096189432334 -1.0
vertex 11.5606601717798 3.93933982822018 -1.0
endloop
endfacet
facet normal -0.866025403784439 0.5 0.0
outer loop
vertex 11.7990381056767 4.25 -1.0
vertex 11.5606601717798 3.93933982822018 -2.0
vertex 11.5606601717798 3.93933982822018 -1.0
endloop
endfacet
facet normal -0.707106781186547 0.707106781186548 0.0
outer loop
vertex 11.5606601717798 3.93933982822018 -2.0
vertex 11.7990381056767 4.25 -1.0
vertex 11.7990381056767 4.25 -2.0
endloop
endfacet
facet normal -0.965925826289068 0.25881904510252 0.0
outer loop
vertex 11.9488887394336 4.61177143234622 -1.0
vertex 11.7990381056767 4.25 -2.0
vertex 11.7990381056767 4.25 -1.0
endloop
endfacet
facet normal -0.866025403784439 0.5 0.0
outer loop
vertex 11.7990381056767 4.25 -2.0
vertex 11.9488887394336 4.61177143234622 -1.0
vertex 11.9488887394336 4.61177143234622 -2.0
endloop
endfacet
facet normal -4.63878972823792e-032 1.39163691847137e-031 -1.0
outer loop
vertex 8.08518543427733 5.6470476127563 -2.0
vertex 8.08518543427733 4.3529523872437 -2.0
vertex 8.0 5.0 -2.0
endloop
endfacet
facet normal -4.63878972823792e-032 1.39163691847137e-031 -1.0
outer loop
vertex 8.08518543427733 4.3529523872437 -2.0
vertex 8.08518543427733 5.6470476127563 -2.0
vertex 8.3349364905389 3.75 -2.0
endloop
endfacet
facet normal -4.63878972823792e-032 1.39163691847137e-031 -1.0
outer loop
vertex 8.3349364905389 3.75 -2.0
vertex 8.08518543427733 5.6470476127563 -2.0
vertex 8.3349364905389 6.25 -2.0
endloop
endfacet
facet normal -4.63878972823792e-032 1.39163691847137e-031 -1.0
outer loop
vertex 8.3349364905389 3.75 -2.0
vertex 8.3349364905389 6.25 -2.0
vertex 8.73223304703363 3.23223304703363 -2.0
endloop
endfacet
facet normal -4.63878972823792e-032 1.39163691847137e-031 -1.0
outer loop
vertex 8.73223304703363 3.23223304703363 -2.0
vertex 8.3349364905389 6.25 -2.0
vertex 8.73223304703363 6.76776695296637 -2.0
endloop
endfacet
facet normal -4.63878972823792e-032 1.39163691847137e-031 -1.0
outer loop
vertex 8.73223304703363 3.23223304703363 -2.0
vertex 8.73223304703363 6.76776695296637 -2.0
vertex 9.25 7.1650635094611 -2.0
endloop
endfacet
facet normal -4.63878972823792e-032 1.39163691847137e-031 -1.0
outer loop
vertex 8.73223304703363 3.23223304703363 -2.0
vertex 9.25 7.1650635094611 -2.0
vertex 9.0 5.0 -2.0
endloop
endfacet
facet normal -4.63878972823792e-032 1.39163691847137e-031 -1.0
outer loop
vertex 9.0 5.0 -2.0
vertex 9.25 7.1650635094611 -2.0
vertex 9.0511112605664 5.38822856765378 -2.0
endloop
endfacet
facet normal -4.63878972823792e-032 1.39163691847137e-031 -1.0
outer loop
vertex 9.0511112605664 5.38822856765378 -2.0
vertex 9.25 7.1650635094611 -2.0
vertex 9.20096189432334 5.75 -2.0
endloop
endfacet
facet normal -4.63878972823792e-032 1.39163691847137e-031 -1.0
outer loop
vertex 9.20096189432334 5.75 -2.0
vertex 9.25 7.1650635094611 -2.0
vertex 9.43933982822018 6.06066017177982 -2.0
endloop
endfacet
facet normal -4.63878972823792e-032 1.39163691847137e-031 -1.0
outer loop
vertex 9.43933982822018 6.06066017177982 -2.0
vertex 9.25 7.1650635094611 -2.0
vertex 9.8529523872437 7.41481456572267 -2.0
endloop
endfacet
facet normal -4.63878972823792e-032 1.39163691847137e-031 -1.0
outer loop
vertex 9.43933982822018 6.06066017177982 -2.0
vertex 9.8529523872437 7.41481456572267 -2.0
vertex 9.75 6.29903810567666 -2.0
endloop
endfacet
facet normal -4.63878972823792e-032 1.39163691847137e-031 -1.0
outer loop
vertex 9.75 6.29903810567666 -2.0
vertex 9.8529523872437 7.41481456572267 -2.0
vertex 10.1117714323462 6.4488887394336 -2.0
endloop
endfacet
facet normal -4.63878972823792e-032 1.39163691847137e-031 -1.0
outer loop
vertex 10.1117714323462 6.4488887394336 -2.0
vertex 9.8529523872437 7.41481456572267 -2.0
vertex 10.5 7.5 -2.0
endloop
endfacet
facet normal -4.63878972823792e-032 1.39163691847137e-031 -1.0
outer loop
vertex 10.1117714323462 6.4488887394336 -2.0
vertex 10.5 7.5 -2.0
vertex 10.5 6.5 -2.0
endloop
endfacet
facet normal -4.63878972823792e-032 1.39163691847137e-031 -1.0
outer loop
vertex 10.5 6.5 -2.0
vertex 10.5 7.5 -2.0
vertex 11.1470476127563 7.41481456572267 -2.0
endloop
endfacet
facet normal -4.63878972823792e-032 1.39163691847137e-031 -1.0
outer loop
vertex 10.5 6.5 -2.0
vertex 11.1470476127563 7.41481456572267 -2.0
vertex 10.8882285676538 6.4488887394336 -2.0
endloop
endfacet
facet normal -4.63878972823792e-032 1.39163691847137e-031 -1.0
outer loop
vertex 10.8882285676538 6.4488887394336 -2.0
vertex 11.1470476127563 7.41481456572267 -2.0
vertex 11.25 6.29903810567666 -2.0
endloop
endfacet
facet normal -4.63878972823792e-032 1.39163691847137e-031 -1.0
outer loop
vertex 11.25 6.29903810567666 -2.0
vertex 11.1470476127563 7.41481456572267 -2.0
vertex 11.75 7.16506350946109 -2.0
endloop
endfacet
facet normal -4.63878972823792e-032 1.39163691847137e-031 -1.0
outer loop
vertex 11.25 6.29903810567666 -2.0
vertex 11.75 7.16506350946109 -2.0
vertex 11.5606601717798 6.06066017177982 -2.0
endloop
endfacet
facet normal -4.63878972823792e-032 1.39163691847137e-031 -1.0
outer loop
vertex 11.5606601717798 6.06066017177982 -2.0
vertex 11.75 7.16506350946109 -2.0
vertex 11.7990381056767 5.75 -2.0
endloop
endfacet
facet normal -4.63878972823792e-032 1.39163691847137e-031 -1.0
outer loop
vertex 11.7990381056767 5.75 -2.0
vertex 11.75 7.16506350946109 -2.0
vertex 12.2677669529664 6.76776695296637 -2.0
endloop
endfacet
facet normal -4.63878972823792e-032 1.39163691847137e-031 -1.0
outer loop
vertex 11.7990381056767 5.75 -2.0
vertex 12.2677669529664 6.76776695296637 -2.0
vertex 11.9488887394336 5.38822856765378 -2.0
endloop
endfacet
facet normal -4.63878972823792e-032 1.39163691847137e-031 -1.0
outer loop
vertex 11.9488887394336 5.38822856765378 -2.0
vertex 12.2677669529664 6.76776695296637 -2.0
vertex 12.0 5.0 -2.0
endloop
endfacet
facet normal -4.63878972823792e-032 1.39163691847137e-031 -1.0
outer loop
vertex 12.0 5.0 -2.0
vertex 12.2677669529664 6.76776695296637 -2.0
vertex 12.2677669529664 3.23223304703363 -2.0
endloop
endfacet
facet normal -4.63878972823792e-032 1.39163691847137e-031 -1.0
outer loop
vertex 12.2677669529664 3.23223304703363 -2.0
vertex 12.2677669529664 6.76776695296637 -2.0
vertex 12.6650635094611 3.75 -2.0
endloop
endfacet
facet normal -4.63878972823792e-032 1.39163691847137e-031 -1.0
outer loop
vertex 12.6650635094611 3.75 -2.0
vertex 12.2677669529664 6.76776695296637 -2.0
vertex 12.6650635094611 6.25 -2.0
endloop
endfacet
facet normal -4.63878972823792e-032 1.39163691847137e-031 -1.0
outer loop
vertex 12.6650635094611 3.75 -2.0
vertex 12.6650635094611 6.25 -2.0
vertex 12.9148145657227 4.3529523872437 -2.0
endloop
endfacet
facet normal -4.63878972823792e-032 1.39163691847137e-031 -1.0
outer loop
vertex 12.9148145657227 4.3529523872437 -2.0
vertex 12.6650635094611 6.25 -2.0
vertex 12.9148145657227 5.6470476127563 -2.0
endloop
endfacet
facet normal -4.63878972823792e-032 1.39163691847137e-031 -1.0
outer loop
vertex 12.9148145657227 4.3529523872437 -2.0
vertex 12.9148145657227 5.6470476127563 -2.0
vertex 13.0 5.0 -2.0
endloop
endfacet
facet normal -4.63878972823792e-032 1.39163691847137e-031 -1.0
outer loop
vertex 9.0 5.0 -2.0
vertex 9.25 2.8349364905389 -2.0
vertex 8.73223304703363 3.23223304703363 -2.0
endloop
endfacet
facet normal -4.63878972823792e-032 1.39163691847137e-031 -1.0
outer loop
vertex 9.25 2.8349364905389 -2.0
vertex 9.0 5.0 -2.0
vertex 9.0511112605664 4.61177143234622 -2.0
endloop
endfacet
facet normal -4.63878972823792e-032 1.39163691847137e-031 -1.0
outer loop
vertex 9.25 2.8349364905389 -2.0
vertex 9.0511112605664 4.61177143234622 -2.0
vertex 9.20096189432334 4.25 -2.0
endloop
endfacet
facet normal -4.63878972823792e-032 1.39163691847137e-031 -1.0
outer loop
vertex 9.25 2.8349364905389 -2.0
vertex 9.20096189432334 4.25 -2.0
vertex 9.43933982822018 3.93933982822018 -2.0
endloop
endfacet
facet normal -4.63878972823792e-032 1.39163691847137e-031 -1.0
outer loop
vertex 9.25 2.8349364905389 -2.0
vertex 9.43933982822018 3.93933982822018 -2.0
vertex 9.8529523872437 2.58518543427733 -2.0
endloop
endfacet
facet normal -4.63878972823792e-032 1.39163691847137e-031 -1.0
outer loop
vertex 9.8529523872437 2.58518543427733 -2.0
vertex 9.43933982822018 3.93933982822018 -2.0
vertex 9.75 3.70096189432334 -2.0
endloop
endfacet
facet normal -4.63878972823792e-032 1.39163691847137e-031 -1.0
outer loop
vertex 9.8529523872437 2.58518543427733 -2.0
vertex 9.75 3.70096189432334 -2.0
vertex 10.1117714323462 3.5511112605664 -2.0
endloop
endfacet
facet normal -4.63878972823792e-032 1.39163691847137e-031 -1.0
outer loop
vertex 9.8529523872437 2.58518543427733 -2.0
vertex 10.1117714323462 3.5511112605664 -2.0
vertex 10.5 2.5 -2.0
endloop
endfacet
facet normal -4.63878972823792e-032 1.39163691847137e-031 -1.0
outer loop
vertex 10.5 2.5 -2.0
vertex 10.1117714323462 3.5511112605664 -2.0
vertex 10.5 3.5 -2.0
endloop
endfacet
facet normal -4.63878972823792e-032 1.39163691847137e-031 -1.0
outer loop
vertex 10.5 2.5 -2.0
vertex 10.5 3.5 -2.0
vertex 10.8882285676538 3.5511112605664 -2.0
endloop
endfacet
facet normal -4.63878972823792e-032 1.39163691847137e-031 -1.0
outer loop
vertex 10.5 2.5 -2.0
vertex 10.8882285676538 3.5511112605664 -2.0
vertex 11.1470476127563 2.58518543427733 -2.0
endloop
endfacet
facet normal -4.63878972823792e-032 1.39163691847137e-031 -1.0
outer loop
vertex 11.1470476127563 2.58518543427733 -2.0
vertex 10.8882285676538 3.5511112605664 -2.0
vertex 11.25 3.70096189432334 -2.0
endloop
endfacet
facet normal -4.63878972823792e-032 1.39163691847137e-031 -1.0
outer loop
vertex 11.1470476127563 2.58518543427733 -2.0
vertex 11.25 3.70096189432334 -2.0
vertex 11.75 2.8349364905389 -2.0
endloop
endfacet
facet normal -4.63878972823792e-032 1.39163691847137e-031 -1.0
outer loop
vertex 11.75 2.8349364905389 -2.0
vertex 11.25 3.70096189432334 -2.0
vertex 11.5606601717798 3.93933982822018 -2.0
endloop
endfacet
facet normal -4.63878972823792e-032 1.39163691847137e-031 -1.0
outer loop
vertex 11.75 2.8349364905389 -2.0
vertex 11.5606601717798 3.93933982822018 -2.0
vertex 11.7990381056767 4.25 -2.0
endloop
endfacet
facet normal -4.63878972823792e-032 1.39163691847137e-031 -1.0
outer loop
vertex 11.75 2.8349364905389 -2.0
vertex 11.7990381056767 4.25 -2.0
vertex 12.2677669529664 3.23223304703363 -2.0
endloop
endfacet
facet normal -4.63878972823792e-032 1.39163691847137e-031 -1.0
outer loop
vertex 12.2677669529664 3.23223304703363 -2.0
vertex 11.7990381056767 4.25 -2.0
vertex 11.9488887394336 4.61177143234622 -2.0
endloop
endfacet
facet normal -4.63878972823792e-032 1.39163691847137e-031 -1.0
outer loop
vertex 12.2677669529664 3.23223304703363 -2.0
vertex 11.9488887394336 4.61177143234622 -2.0
vertex 12.0 5.0 -2.0
endloop
endfacet
facet normal -3.18088438507743e-033 -1.17498603439496e-016 -1.0
outer loop
vertex -2.0 10.0 -2.0
vertex 7.31801948466054 8.18198051533946 -2.0
vertex -2.0 0.0 -2.0
endloop
endfacet
facet normal -3.18088438507743e-033 -1.17498603439496e-016 -1.0
outer loop
vertex 7.31801948466054 8.18198051533946 -2.0
vertex -2.0 10.0 -2.0
vertex 8.25 8.89711431702998 -2.0
endloop
endfacet
facet normal -3.18088438507743e-033 -1.17498603439496e-016 -1.0
outer loop
vertex 8.25 8.89711431702998 -2.0
vertex -2.0 10.0 -2.0
vertex 9.33531429703866 9.34666621830081 -2.0
endloop
endfacet
facet normal -3.18088438507743e-033 -1.17498603439496e-016 -1.0
outer loop
vertex 9.33531429703866 9.34666621830081 -2.0
vertex -2.0 10.0 -2.0
vertex 10.5 9.5 -2.0
endloop
endfacet
facet normal -3.18088438507743e-033 -1.17498603439496e-016 -1.0
outer loop
vertex 10.5 9.5 -2.0
vertex -2.0 10.0 -2.0
vertex 23.0 10.0 -2.0
endloop
endfacet
facet normal -3.18088438507743e-033 -1.17498603439496e-016 -1.0
outer loop
vertex -2.0 0.0 -2.0
vertex 7.31801948466054 8.18198051533946 -2.0
vertex 6.60288568297003 7.25 -2.0
endloop
endfacet
facet normal -3.18088438507743e-033 -1.17498603439496e-016 -1.0
outer loop
vertex -2.0 0.0 -2.0
vertex 6.60288568297003 7.25 -2.0
vertex 6.15333378169919 6.16468570296135 -2.0
endloop
endfacet
facet normal -3.18088438507743e-033 -1.17498603439496e-016 -1.0
outer loop
vertex -2.0 0.0 -2.0
vertex 6.15333378169919 6.16468570296135 -2.0
vertex 6.0 5.0 -2.0
endloop
endfacet
facet normal -3.18088438507743e-033 -1.17498603439496e-016 -1.0
outer loop
vertex 10.5 9.5 -2.0
vertex 23.0 10.0 -2.0
vertex 11.6646857029613 9.34666621830081 -2.0
endloop
endfacet
facet normal -3.18088438507743e-033 -1.17498603439496e-016 -1.0
outer loop
vertex 11.6646857029613 9.34666621830081 -2.0
vertex 23.0 10.0 -2.0
vertex 12.75 8.89711431702997 -2.0
endloop
endfacet
facet normal -3.18088438507743e-033 -1.17498603439496e-016 -1.0
outer loop
vertex 12.75 8.89711431702997 -2.0
vertex 23.0 10.0 -2.0
vertex 13.6819805153395 8.18198051533946 -2.0
endloop
endfacet
facet normal -3.18088438507743e-033 -1.17498603439496e-016 -1.0
outer loop
vertex 13.6819805153395 8.18198051533946 -2.0
vertex 23.0 10.0 -2.0
vertex 14.39711431703 7.25 -2.0
endloop
endfacet
facet normal -3.18088438507743e-033 -1.17498603439496e-016 -1.0
outer loop
vertex 14.39711431703 7.25 -2.0
vertex 23.0 10.0 -2.0
vertex 14.8466662183008 6.16468570296134 -2.0
endloop
endfacet
facet normal -3.18088438507743e-033 -1.17498603439496e-016 -1.0
outer loop
vertex 14.8466662183008 6.16468570296134 -2.0
vertex 23.0 10.0 -2.0
vertex 15.0 5.0 -2.0
endloop
endfacet
facet normal -3.18088438507743e-033 -1.17498603439496e-016 -1.0
outer loop
vertex -2.0 0.0 -2.0
vertex 10.5 0.499999999999999 -2.0
vertex 23.0 0.0 -2.0
endloop
endfacet
facet normal -3.18088438507743e-033 -1.17498603439496e-016 -1.0
outer loop
vertex 10.5 0.499999999999999 -2.0
vertex -2.0 0.0 -2.0
vertex 9.33531429703866 0.653333781699192 -2.0
endloop
endfacet
facet normal -3.18088438507743e-033 -1.17498603439496e-016 -1.0
outer loop
vertex 9.33531429703866 0.653333781699192 -2.0
vertex -2.0 0.0 -2.0
vertex 8.25 1.10288568297003 -2.0
endloop
endfacet
facet normal -3.18088438507743e-033 -1.17498603439496e-016 -1.0
outer loop
vertex 8.25 1.10288568297003 -2.0
vertex -2.0 0.0 -2.0
vertex 7.31801948466054 1.81801948466054 -2.0
endloop
endfacet
facet normal -3.18088438507743e-033 -1.17498603439496e-016 -1.0
outer loop
vertex 7.31801948466054 1.81801948466054 -2.0
vertex -2.0 0.0 -2.0
vertex 6.60288568297003 2.75 -2.0
endloop
endfacet
facet normal -3.18088438507743e-033 -1.17498603439496e-016 -1.0
outer loop
vertex 6.60288568297003 2.75 -2.0
vertex -2.0 0.0 -2.0
vertex 6.15333378169919 3.83531429703866 -2.0
endloop
endfacet
facet normal -3.18088438507743e-033 -1.17498603439496e-016 -1.0
outer loop
vertex 6.15333378169919 3.83531429703866 -2.0
vertex -2.0 0.0 -2.0
vertex 6.0 5.0 -2.0
endloop
endfacet
facet normal -3.18088438507743e-033 -1.17498603439496e-016 -1.0
outer loop
vertex 23.0 0.0 -2.0
vertex 10.5 0.499999999999999 -2.0
vertex 11.6646857029613 0.653333781699192 -2.0
endloop
endfacet
facet normal -3.18088438507743e-033 -1.17498603439496e-016 -1.0
outer loop
vertex 23.0 0.0 -2.0
vertex 11.6646857029613 0.653333781699192 -2.0
vertex 12.75 1.10288568297003 -2.0
endloop
endfacet
facet normal -3.18088438507743e-033 -1.17498603439496e-016 -1.0
outer loop
vertex 23.0 0.0 -2.0
vertex 12.75 1.10288568297003 -2.0
vertex 13.6819805153395 1.81801948466054 -2.0
endloop
endfacet
facet normal -3.18088438507743e-033 -1.17498603439496e-016 -1.0
outer loop
vertex 23.0 0.0 -2.0
vertex 13.6819805153395 1.81801948466054 -2.0
vertex 14.39711431703 2.75 -2.0
endloop
endfacet
facet normal -3.18088438507743e-033 -1.17498603439496e-016 -1.0
outer loop
vertex 23.0 0.0 -2.0
vertex 14.39711431703 2.75 -2.0
vertex 14.8466662183008 3.83531429703865 -2.0
endloop
endfacet
facet normal -3.18088438507743e-033 -1.17498603439496e-016 -1.0
outer loop
vertex 23.0 0.0 -2.0
vertex 14.8466662183008 3.83531429703865 -2.0
vertex 15.0 5.0 -2.0
endloop
endfacet
facet normal -3.18088438507743e-033 -1.17498603439496e-016 -1.0
outer loop
vertex 23.0 0.0 -2.0
vertex 15.0 5.0 -2.0
vertex 23.0 10.0 -2.0
endloop
endfacet
facet normal -0.965925826289069 -0.258819045102519 3.62325358290874e-032
outer loop
vertex 12.9148145657227 5.6470476127563 -2.0
vertex 13.0 5.0 -13.0
vertex 13.0 5.0 -2.0
endloop
endfacet
facet normal -1.0 1.92479973745973e-015 3.47704697442877e-032
outer loop
vertex 13.0 5.0 -13.0
vertex 12.9148145657227 5.6470476127563 -2.0
vertex 12.9148145657227 5.6470476127563 -13.0
endloop
endfacet
facet normal -0.866025403784438 -0.500000000000001 3.52254144742313e-032
outer loop
vertex 12.6650635094611 6.25 -2.0
vertex 12.9148145657227 5.6470476127563 -13.0
vertex 12.9148145657227 5.6470476127563 -2.0
endloop
endfacet
facet normal -0.965925826289069 -0.258819045102519 3.62325358290874e-032
outer loop
vertex 12.9148145657227 5.6470476127563 -13.0
vertex 12.6650635094611 6.25 -2.0
vertex 12.6650635094611 6.25 -13.0
endloop
endfacet
facet normal -0.707106781186547 -0.707106781186547 3.18177393357062e-032
outer loop
vertex 12.2677669529664 6.76776695296637 -2.0
vertex 12.6650635094611 6.25 -13.0
vertex 12.6650635094611 6.25 -2.0
endloop
endfacet
facet normal -0.866025403784438 -0.500000000000001 3.52254144742313e-032
outer loop
vertex 12.6650635094611 6.25 -13.0
vertex 12.2677669529664 6.76776695296637 -2.0
vertex 12.2677669529664 6.76776695296637 -13.0
endloop
endfacet
facet normal -0.707106781186547 -0.707106781186547 3.18177393357062e-032
outer loop
vertex 12.2677669529664 6.76776695296637 -2.0
vertex 11.75 7.16506350946109 -13.0
vertex 12.2677669529664 6.76776695296637 -13.0
endloop
endfacet
facet normal -0.500000000000001 -0.866025403784438 2.62417378427531e-032
outer loop
vertex 11.75 7.16506350946109 -13.0
vertex 12.2677669529664 6.76776695296637 -2.0
vertex 11.75 7.16506350946109 -2.0
endloop
endfacet
facet normal -0.500000000000001 -0.866025403784438 2.62417378427531e-032
outer loop
vertex 11.75 7.16506350946109 -2.0
vertex 11.1470476127563 7.41481456572267 -13.0
vertex 11.75 7.16506350946109 -13.0
endloop
endfacet
facet normal -0.258819045102522 -0.965925826289068 1.88774052823386e-032
outer loop
vertex 11.1470476127563 7.41481456572267 -13.0
vertex 11.75 7.16506350946109 -2.0
vertex 11.1470476127563 7.41481456572267 -2.0
endloop
endfacet
facet normal -0.258819045102522 -0.965925826289068 1.88774052823386e-032
outer loop
vertex 11.1470476127563 7.41481456572267 -2.0
vertex 10.5 7.5 -13.0
vertex 11.1470476127563 7.41481456572267 -13.0
endloop
endfacet
facet normal 2.94066626556348e-016 -1.0 1.02266087483199e-032
outer loop
vertex 10.5 7.5 -13.0
vertex 11.1470476127563 7.41481456572267 -2.0
vertex 10.5 7.5 -2.0
endloop
endfacet
facet normal 2.94066626556348e-016 -1.0 1.02266087483199e-032
outer loop
vertex 10.5 7.5 -2.0
vertex 9.8529523872437 7.41481456572267 -13.0
vertex 10.5 7.5 -13.0
endloop
endfacet
facet normal 0.25881904510252 -0.965925826289069 8.78885728373313e-034
outer loop
vertex 9.8529523872437 7.41481456572267 -13.0
vertex 10.5 7.5 -2.0
vertex 9.8529523872437 7.41481456572267 -2.0
endloop
endfacet
facet normal 0.25881904510252 -0.965925826289069 8.78885728373313e-034
outer loop
vertex 9.8529523872437 7.41481456572267 -2.0
vertex 9.25 7.1650635094611 -13.0
vertex 9.8529523872437 7.41481456572267 -13.0
endloop
endfacet
facet normal 0.5 -0.866025403784439 -8.5287319015346e-033
outer loop
vertex 9.25 7.1650635094611 -13.0
vertex 9.8529523872437 7.41481456572267 -2.0
vertex 9.25 7.1650635094611 -2.0
endloop
endfacet
facet normal 0.5 -0.866025403784439 -8.5287319015346e-033
outer loop
vertex 9.25 7.1650635094611 -2.0
vertex 8.73223304703363 6.76776695296637 -13.0
vertex 9.25 7.1650635094611 -13.0
endloop
endfacet
facet normal 0.707106781186548 -0.707106781186547 -1.73551305467488e-032
outer loop
vertex 8.73223304703363 6.76776695296637 -13.0
vertex 9.25 7.1650635094611 -2.0
vertex 8.73223304703363 6.76776695296637 -2.0
endloop
endfacet
facet normal 0.707106781186548 -0.707106781186547 -1.73551305467488e-032
outer loop
vertex 8.73223304703363 6.76776695296637 -13.0
vertex 8.3349364905389 6.25 -2.0
vertex 8.3349364905389 6.25 -13.0
endloop
endfacet
facet normal 0.866025403784439 -0.5 -2.49988057259114e-032
outer loop
vertex 8.3349364905389 6.25 -2.0
vertex 8.73223304703363 6.76776695296637 -13.0
vertex 8.73223304703363 6.76776695296637 -2.0
endloop
endfacet
facet normal 0.866025403784439 -0.5 -2.49988057259114e-032
outer loop
vertex 8.3349364905389 6.25 -13.0
vertex 8.08518543427733 5.6470476127563 -2.0
vertex 8.08518543427733 5.6470476127563 -13.0
endloop
endfacet
facet normal 0.965925826289068 -0.258819045102522 -3.09388536073329e-032
outer loop
vertex 8.08518543427733 5.6470476127563 -2.0
vertex 8.3349364905389 6.25 -13.0
vertex 8.3349364905389 6.25 -2.0
endloop
endfacet
facet normal 0.965925826289068 -0.258819045102522 -3.09388536073329e-032
outer loop
vertex 8.08518543427733 5.6470476127563 -13.0
vertex 8.0 5.0 -2.0
vertex 8.0 5.0 -13.0
endloop
endfacet
facet normal 1.0 -8.37644330190809e-016 -3.47704697442877e-032
outer loop
vertex 8.0 5.0 -2.0
vertex 8.08518543427733 5.6470476127563 -13.0
vertex 8.08518543427733 5.6470476127563 -2.0
endloop
endfacet
facet normal 1.0 -8.37644330190809e-016 -3.47704697442877e-032
outer loop
vertex 8.0 5.0 -13.0
vertex 8.08518543427733 4.3529523872437 -2.0
vertex 8.08518543427733 4.3529523872437 -13.0
endloop
endfacet
facet normal 0.965925826289068 0.258819045102521 -3.62325358290874e-032
outer loop
vertex 8.08518543427733 4.3529523872437 -2.0
vertex 8.0 5.0 -13.0
vertex 8.0 5.0 -2.0
endloop
endfacet
facet normal 0.965925826289068 0.258819045102521 -3.62325358290874e-032
outer loop
vertex 8.08518543427733 4.3529523872437 -13.0
vertex 8.3349364905389 3.75 -2.0
vertex 8.3349364905389 3.75 -13.0
endloop
endfacet
facet normal 0.866025403784438 0.500000000000001 -3.52254144742313e-032
outer loop
vertex 8.3349364905389 3.75 -2.0
vertex 8.08518543427733 4.3529523872437 -13.0
vertex 8.08518543427733 4.3529523872437 -2.0
endloop
endfacet
facet normal 0.866025403784438 0.500000000000001 -3.52254144742313e-032
outer loop
vertex 8.3349364905389 3.75 -13.0
vertex 8.73223304703363 3.23223304703363 -2.0
vertex 8.73223304703363 3.23223304703363 -13.0
endloop
endfacet
facet normal 0.707106781186548 0.707106781186548 -3.18177393357062e-032
outer loop
vertex 8.73223304703363 3.23223304703363 -2.0
vertex 8.3349364905389 3.75 -13.0
vertex 8.3349364905389 3.75 -2.0
endloop
endfacet
facet normal 0.707106781186548 0.707106781186548 -3.18177393357062e-032
outer loop
vertex 8.73223304703363 3.23223304703363 -2.0
vertex 9.25 2.8349364905389 -13.0
vertex 8.73223304703363 3.23223304703363 -13.0
endloop
endfacet
facet normal 0.500000000000001 0.866025403784438 -2.62417378427531e-032
outer loop
vertex 9.25 2.8349364905389 -13.0
vertex 8.73223304703363 3.23223304703363 -2.0
vertex 9.25 2.8349364905389 -2.0
endloop
endfacet
facet normal 0.500000000000001 0.866025403784438 -2.62417378427531e-032
outer loop
vertex 9.25 2.8349364905389 -2.0
vertex 9.8529523872437 2.58518543427733 -13.0
vertex 9.25 2.8349364905389 -13.0
endloop
endfacet
facet normal 0.258819045102521 0.965925826289068 -1.88774052823385e-032
outer loop
vertex 9.8529523872437 2.58518543427733 -13.0
vertex 9.25 2.8349364905389 -2.0
vertex 9.8529523872437 2.58518543427733 -2.0
endloop
endfacet
facet normal 0.258819045102521 0.965925826289068 -1.88774052823385e-032
outer loop
vertex 9.8529523872437 2.58518543427733 -2.0
vertex 10.5 2.5 -13.0
vertex 9.8529523872437 2.58518543427733 -13.0
endloop
endfacet
facet normal -1.51488868225997e-016 1.0 -1.02266087483199e-032
outer loop
vertex 10.5 2.5 -13.0
vertex 9.8529523872437 2.58518543427733 -2.0
vertex 10.5 2.5 -2.0
endloop
endfacet
facet normal -1.51488868225997e-016 1.0 -1.02266087483199e-032
outer loop
vertex 10.5 2.5 -2.0
vertex 11.1470476127563 2.58518543427733 -13.0
vertex 10.5 2.5 -13.0
endloop
endfacet
facet normal -0.258819045102521 0.965925826289068 -8.78885728373292e-034
outer loop
vertex 11.1470476127563 2.58518543427733 -13.0
vertex 10.5 2.5 -2.0
vertex 11.1470476127563 2.58518543427733 -2.0
endloop
endfacet
facet normal -0.258819045102521 0.965925826289068 -8.78885728373292e-034
outer loop
vertex 11.1470476127563 2.58518543427733 -2.0
vertex 11.75 2.8349364905389 -13.0
vertex 11.1470476127563 2.58518543427733 -13.0
endloop
endfacet
facet normal -0.5 0.866025403784439 8.52873190153462e-033
outer loop
vertex 11.75 2.8349364905389 -13.0
vertex 11.1470476127563 2.58518543427733 -2.0
vertex 11.75 2.8349364905389 -2.0
endloop
endfacet
facet normal -0.5 0.866025403784439 8.52873190153462e-033
outer loop
vertex 11.75 2.8349364905389 -2.0
vertex 12.2677669529664 3.23223304703363 -13.0
vertex 11.75 2.8349364905389 -13.0
endloop
endfacet
facet normal -0.707106781186547 0.707106781186547 1.73551305467488e-032
outer loop
vertex 12.2677669529664 3.23223304703363 -13.0
vertex 11.75 2.8349364905389 -2.0
vertex 12.2677669529664 3.23223304703363 -2.0
endloop
endfacet
facet normal -0.866025403784439 0.5 2.49988057259114e-032
outer loop
vertex 12.6650635094611 3.75 -2.0
vertex 12.2677669529664 3.23223304703363 -13.0
vertex 12.2677669529664 3.23223304703363 -2.0
endloop
endfacet
facet normal -0.707106781186547 0.707106781186547 1.73551305467488e-032
outer loop
vertex 12.2677669529664 3.23223304703363 -13.0
vertex 12.6650635094611 3.75 -2.0
vertex 12.6650635094611 3.75 -13.0
endloop
endfacet
facet normal -0.965925826289068 0.258819045102521 3.09388536073329e-032
outer loop
vertex 12.9148145657227 4.3529523872437 -2.0
vertex 12.6650635094611 3.75 -13.0
vertex 12.6650635094611 3.75 -2.0
endloop
endfacet
facet normal -0.866025403784439 0.5 2.49988057259114e-032
outer loop
vertex 12.6650635094611 3.75 -13.0
vertex 12.9148145657227 4.3529523872437 -2.0
vertex 12.9148145657227 4.3529523872437 -13.0
endloop
endfacet
facet normal -1.0 1.92479973745973e-015 3.47704697442877e-032
outer loop
vertex 13.0 5.0 -2.0
vertex 12.9148145657227 4.3529523872437 -13.0
vertex 12.9148145657227 4.3529523872437 -2.0
endloop
endfacet
facet normal -0.965925826289068 0.258819045102521 3.09388536073329e-032
outer loop
vertex 12.9148145657227 4.3529523872437 -13.0
vertex 13.0 5.0 -2.0
vertex 13.0 5.0 -13.0
endloop
endfacet
facet normal -0.25881904510252 0.965925826289068 -8.78885728373318e-034
outer loop
vertex 9.33531429703866 9.34666621830081 -2.0
vertex 10.5 9.5 -13.0
vertex 9.33531429703866 9.34666621830081 -13.0
endloop
endfacet
facet normal -1.42577758330351e-016 1.0 -1.02266087483199e-032
outer loop
vertex 10.5 9.5 -13.0
vertex 9.33531429703866 9.34666621830081 -2.0
vertex 10.5 9.5 -2.0
endloop
endfacet
facet normal 8.91110989564691e-017 -1.0 1.02266087483199e-032
outer loop
vertex 10.5 0.499999999999999 -2.0
vertex 9.33531429703866 0.653333781699192 -13.0
vertex 10.5 0.499999999999999 -13.0
endloop
endfacet
facet normal -0.258819045102521 -0.965925826289068 1.88774052823385e-032
outer loop
vertex 9.33531429703866 0.653333781699192 -13.0
vertex 10.5 0.499999999999999 -2.0
vertex 9.33531429703866 0.653333781699192 -2.0
endloop
endfacet
facet normal 0.707106781186548 0.707106781186547 -3.18177393357062e-032
outer loop
vertex 13.6819805153395 8.18198051533946 -13.0
vertex 14.39711431703 7.25 -2.0
vertex 14.39711431703 7.25 -13.0
endloop
endfacet
facet normal 0.866025403784439 0.499999999999999 -3.52254144742313e-032
outer loop
vertex 14.39711431703 7.25 -2.0
vertex 13.6819805153395 8.18198051533946 -13.0
vertex 13.6819805153395 8.18198051533946 -2.0
endloop
endfacet
facet normal 0.707106781186547 -0.707106781186548 -1.73551305467488e-032
outer loop
vertex 13.6819805153395 1.81801948466054 -2.0
vertex 12.75 1.10288568297003 -13.0
vertex 13.6819805153395 1.81801948466054 -13.0
endloop
endfacet
facet normal 0.5 -0.866025403784439 -8.52873190153462e-033
outer loop
vertex 12.75 1.10288568297003 -13.0
vertex 13.6819805153395 1.81801948466054 -2.0
vertex 12.75 1.10288568297003 -2.0
endloop
endfacet
facet normal -0.965925826289068 0.258819045102521 3.09388536073329e-032
outer loop
vertex 6.15333378169919 6.16468570296135 -2.0
vertex 6.0 5.0 -13.0
vertex 6.0 5.0 -2.0
endloop
endfacet
facet normal -1.0 9.8022208852116e-017 3.47704697442877e-032
outer loop
vertex 6.0 5.0 -13.0
vertex 6.15333378169919 6.16468570296135 -2.0
vertex 6.15333378169919 6.16468570296135 -13.0
endloop
endfacet
facet normal 0.965925826289068 0.25881904510252 -3.62325358290874e-032
outer loop
vertex 14.8466662183008 6.16468570296134 -13.0
vertex 15.0 5.0 -2.0
vertex 15.0 5.0 -13.0
endloop
endfacet
facet normal 1.0 8.91110989564691e-017 -3.47704697442877e-032
outer loop
vertex 15.0 5.0 -2.0
vertex 14.8466662183008 6.16468570296134 -13.0
vertex 14.8466662183008 6.16468570296134 -2.0
endloop
endfacet
facet normal -0.866025403784438 0.5 2.49988057259114e-032
outer loop
vertex 6.60288568297003 7.25 -2.0
vertex 6.15333378169919 6.16468570296135 -13.0
vertex 6.15333378169919 6.16468570296135 -2.0
endloop
endfacet
facet normal -0.965925826289068 0.258819045102521 3.09388536073329e-032
outer loop
vertex 6.15333378169919 6.16468570296135 -13.0
vertex 6.60288568297003 7.25 -2.0
vertex 6.60288568297003 7.25 -13.0
endloop
endfacet
facet normal -0.5 -0.866025403784439 2.62417378427531e-032
outer loop
vertex 8.25 1.10288568297003 -2.0
vertex 7.31801948466054 1.81801948466054 -13.0
vertex 8.25 1.10288568297003 -13.0
endloop
endfacet
facet normal -0.707106781186548 -0.707106781186547 3.18177393357062e-032
outer loop
vertex 7.31801948466054 1.81801948466054 -13.0
vertex 8.25 1.10288568297003 -2.0
vertex 7.31801948466054 1.81801948466054 -2.0
endloop
endfacet
facet normal 1.0 8.91110989564691e-017 -3.47704697442877e-032
outer loop
vertex 15.0 5.0 -13.0
vertex 14.8466662183008 3.83531429703865 -2.0
vertex 14.8466662183008 3.83531429703865 -13.0
endloop
endfacet
facet normal 0.965925826289068 -0.258819045102521 -3.09388536073329e-032
outer loop
vertex 14.8466662183008 3.83531429703865 -2.0
vertex 15.0 5.0 -13.0
vertex 15.0 5.0 -2.0
endloop
endfacet
facet normal -0.258819045102521 -0.965925826289068 1.88774052823385e-032
outer loop
vertex 9.33531429703866 0.653333781699192 -2.0
vertex 8.25 1.10288568297003 -13.0
vertex 9.33531429703866 0.653333781699192 -13.0
endloop
endfacet
facet normal -0.5 -0.866025403784439 2.62417378427531e-032
outer loop
vertex 8.25 1.10288568297003 -13.0
vertex 9.33531429703866 0.653333781699192 -2.0
vertex 8.25 1.10288568297003 -2.0
endloop
endfacet
facet normal -0.965925826289068 -0.258819045102521 3.62325358290874e-032
outer loop
vertex 6.15333378169919 3.83531429703866 -2.0
vertex 6.60288568297003 2.75 -13.0
vertex 6.60288568297003 2.75 -2.0
endloop
endfacet
facet normal -0.866025403784439 -0.5 3.52254144742313e-032
outer loop
vertex 6.60288568297003 2.75 -13.0
vertex 6.15333378169919 3.83531429703866 -2.0
vertex 6.15333378169919 3.83531429703866 -13.0
endloop
endfacet
facet normal 0.965925826289068 -0.258819045102521 -3.09388536073329e-032
outer loop
vertex 14.8466662183008 3.83531429703865 -13.0
vertex 14.39711431703 2.75 -2.0
vertex 14.39711431703 2.75 -13.0
endloop
endfacet
facet normal 0.866025403784438 -0.5 -2.49988057259114e-032
outer loop
vertex 14.39711431703 2.75 -2.0
vertex 14.8466662183008 3.83531429703865 -13.0
vertex 14.8466662183008 3.83531429703865 -2.0
endloop
endfacet
facet normal -3.47704697442877e-032 -1.02266087483199e-032 -1.0
outer loop
vertex 6.15333378169919 6.16468570296135 -13.0
vertex 6.15333378169919 3.83531429703866 -13.0
vertex 6.0 5.0 -13.0
endloop
endfacet
facet normal -3.47704697442877e-032 -1.02266087483199e-032 -1.0
outer loop
vertex 6.15333378169919 3.83531429703866 -13.0
vertex 6.15333378169919 6.16468570296135 -13.0
vertex 6.60288568297003 2.75 -13.0
endloop
endfacet
facet normal -3.47704697442877e-032 -1.02266087483199e-032 -1.0
outer loop
vertex 6.60288568297003 2.75 -13.0
vertex 6.15333378169919 6.16468570296135 -13.0
vertex 6.60288568297003 7.25 -13.0
endloop
endfacet
facet normal -3.47704697442877e-032 -1.02266087483199e-032 -1.0
outer loop
vertex 6.60288568297003 2.75 -13.0
vertex 6.60288568297003 7.25 -13.0
vertex 7.31801948466054 8.18198051533946 -13.0
endloop
endfacet
facet normal -3.47704697442877e-032 -1.02266087483199e-032 -1.0
outer loop
vertex 6.60288568297003 2.75 -13.0
vertex 7.31801948466054 8.18198051533946 -13.0
vertex 7.31801948466054 1.81801948466054 -13.0
endloop
endfacet
facet normal -3.47704697442877e-032 -1.02266087483199e-032 -1.0
outer loop
vertex 7.31801948466054 1.81801948466054 -13.0
vertex 7.31801948466054 8.18198051533946 -13.0
vertex 8.25 8.89711431702998 -13.0
endloop
endfacet
facet normal -3.47704697442877e-032 -1.02266087483199e-032 -1.0
outer loop
vertex 7.31801948466054 1.81801948466054 -13.0
vertex 8.25 8.89711431702998 -13.0
vertex 8.0 5.0 -13.0
endloop
endfacet
facet normal -3.47704697442877e-032 -1.02266087483199e-032 -1.0
outer loop
vertex 8.0 5.0 -13.0
vertex 8.25 8.89711431702998 -13.0
vertex 8.08518543427733 5.6470476127563 -13.0
endloop
endfacet
facet normal -3.47704697442877e-032 -1.02266087483199e-032 -1.0
outer loop
vertex 8.08518543427733 5.6470476127563 -13.0
vertex 8.25 8.89711431702998 -13.0
vertex 8.3349364905389 6.25 -13.0
endloop
endfacet
facet normal -3.47704697442877e-032 -1.02266087483199e-032 -1.0
outer loop
vertex 8.3349364905389 6.25 -13.0
vertex 8.25 8.89711431702998 -13.0
vertex 9.33531429703866 9.34666621830081 -13.0
endloop
endfacet
facet normal -3.47704697442877e-032 -1.02266087483199e-032 -1.0
outer loop
vertex 8.3349364905389 6.25 -13.0
vertex 9.33531429703866 9.34666621830081 -13.0
vertex 8.73223304703363 6.76776695296637 -13.0
endloop
endfacet
facet normal -3.47704697442877e-032 -1.02266087483199e-032 -1.0
outer loop
vertex 8.73223304703363 6.76776695296637 -13.0
vertex 9.33531429703866 9.34666621830081 -13.0
vertex 9.25 7.1650635094611 -13.0
endloop
endfacet
facet normal -3.47704697442877e-032 -1.02266087483199e-032 -1.0
outer loop
vertex 9.25 7.1650635094611 -13.0
vertex 9.33531429703866 9.34666621830081 -13.0
vertex 9.8529523872437 7.41481456572267 -13.0
endloop
endfacet
facet normal -3.47704697442877e-032 -1.02266087483199e-032 -1.0
outer loop
vertex 9.8529523872437 7.41481456572267 -13.0
vertex 9.33531429703866 9.34666621830081 -13.0
vertex 10.5 9.5 -13.0
endloop
endfacet
facet normal -3.47704697442877e-032 -1.02266087483199e-032 -1.0
outer loop
vertex 9.8529523872437 7.41481456572267 -13.0
vertex 10.5 9.5 -13.0
vertex 10.5 7.5 -13.0
endloop
endfacet
facet normal -3.47704697442877e-032 -1.02266087483199e-032 -1.0
outer loop
vertex 10.5 7.5 -13.0
vertex 10.5 9.5 -13.0
vertex 11.1470476127563 7.41481456572267 -13.0
endloop
endfacet
facet normal -3.47704697442877e-032 -1.02266087483199e-032 -1.0
outer loop
vertex 11.1470476127563 7.41481456572267 -13.0
vertex 10.5 9.5 -13.0
vertex 11.6646857029613 9.34666621830081 -13.0
endloop
endfacet
facet normal -3.47704697442877e-032 -1.02266087483199e-032 -1.0
outer loop
vertex 11.1470476127563 7.41481456572267 -13.0
vertex 11.6646857029613 9.34666621830081 -13.0
vertex 11.75 7.16506350946109 -13.0
endloop
endfacet
facet normal -3.47704697442877e-032 -1.02266087483199e-032 -1.0
outer loop
vertex 11.75 7.16506350946109 -13.0
vertex 11.6646857029613 9.34666621830081 -13.0
vertex 12.75 8.89711431702997 -13.0
endloop
endfacet
facet normal -3.47704697442877e-032 -1.02266087483199e-032 -1.0
outer loop
vertex 11.75 7.16506350946109 -13.0
vertex 12.75 8.89711431702997 -13.0
vertex 12.2677669529664 6.76776695296637 -13.0
endloop
endfacet
facet normal -3.47704697442877e-032 -1.02266087483199e-032 -1.0
outer loop
vertex 12.2677669529664 6.76776695296637 -13.0
vertex 12.75 8.89711431702997 -13.0
vertex 12.6650635094611 6.25 -13.0
endloop
endfacet
facet normal -3.47704697442877e-032 -1.02266087483199e-032 -1.0
outer loop
vertex 12.6650635094611 6.25 -13.0
vertex 12.75 8.89711431702997 -13.0
vertex 12.9148145657227 5.6470476127563 -13.0
endloop
endfacet
facet normal -3.47704697442877e-032 -1.02266087483199e-032 -1.0
outer loop
vertex 12.9148145657227 5.6470476127563 -13.0
vertex 12.75 8.89711431702997 -13.0
vertex 13.6819805153395 8.18198051533946 -13.0
endloop
endfacet
facet normal -3.47704697442877e-032 -1.02266087483199e-032 -1.0
outer loop
vertex 12.9148145657227 5.6470476127563 -13.0
vertex 13.6819805153395 8.18198051533946 -13.0
vertex 13.0 5.0 -13.0
endloop
endfacet
facet normal -3.47704697442877e-032 -1.02266087483199e-032 -1.0
outer loop
vertex 13.0 5.0 -13.0
vertex 13.6819805153395 8.18198051533946 -13.0
vertex 13.6819805153395 1.81801948466054 -13.0
endloop
endfacet
facet normal -3.47704697442877e-032 -1.02266087483199e-032 -1.0
outer loop
vertex 13.6819805153395 1.81801948466054 -13.0
vertex 13.6819805153395 8.18198051533946 -13.0
vertex 14.39711431703 2.75 -13.0
endloop
endfacet
facet normal -3.47704697442877e-032 -1.02266087483199e-032 -1.0
outer loop
vertex 14.39711431703 2.75 -13.0
vertex 13.6819805153395 8.18198051533946 -13.0
vertex 14.39711431703 7.25 -13.0
endloop
endfacet
facet normal -3.47704697442877e-032 -1.02266087483199e-032 -1.0
outer loop
vertex 14.39711431703 2.75 -13.0
vertex 14.39711431703 7.25 -13.0
vertex 14.8466662183008 3.83531429703865 -13.0
endloop
endfacet
facet normal -3.47704697442877e-032 -1.02266087483199e-032 -1.0
outer loop
vertex 14.8466662183008 3.83531429703865 -13.0
vertex 14.39711431703 7.25 -13.0
vertex 14.8466662183008 6.16468570296134 -13.0
endloop
endfacet
facet normal -3.47704697442877e-032 -1.02266087483199e-032 -1.0
outer loop
vertex 14.8466662183008 3.83531429703865 -13.0
vertex 14.8466662183008 6.16468570296134 -13.0
vertex 15.0 5.0 -13.0
endloop
endfacet
facet normal -3.47704697442877e-032 -1.02266087483199e-032 -1.0
outer loop
vertex 8.0 5.0 -13.0
vertex 8.25 1.10288568297003 -13.0
vertex 7.31801948466054 1.81801948466054 -13.0
endloop
endfacet
facet normal -3.47704697442877e-032 -1.02266087483199e-032 -1.0
outer loop
vertex 8.25 1.10288568297003 -13.0
vertex 8.0 5.0 -13.0
vertex 8.08518543427733 4.3529523872437 -13.0
endloop
endfacet
facet normal -3.47704697442877e-032 -1.02266087483199e-032 -1.0
outer loop
vertex 8.25 1.10288568297003 -13.0
vertex 8.08518543427733 4.3529523872437 -13.0
vertex 8.3349364905389 3.75 -13.0
endloop
endfacet
facet normal -3.47704697442877e-032 -1.02266087483199e-032 -1.0
outer loop
vertex 8.25 1.10288568297003 -13.0
vertex 8.3349364905389 3.75 -13.0
vertex 9.33531429703866 0.653333781699192 -13.0
endloop
endfacet
facet normal -3.47704697442877e-032 -1.02266087483199e-032 -1.0
outer loop
vertex 9.33531429703866 0.653333781699192 -13.0
vertex 8.3349364905389 3.75 -13.0
vertex 8.73223304703363 3.23223304703363 -13.0
endloop
endfacet
facet normal -3.47704697442877e-032 -1.02266087483199e-032 -1.0
outer loop
vertex 9.33531429703866 0.653333781699192 -13.0
vertex 8.73223304703363 3.23223304703363 -13.0
vertex 9.25 2.8349364905389 -13.0
endloop
endfacet
facet normal -3.47704697442877e-032 -1.02266087483199e-032 -1.0
outer loop
vertex 9.33531429703866 0.653333781699192 -13.0
vertex 9.25 2.8349364905389 -13.0
vertex 9.8529523872437 2.58518543427733 -13.0
endloop
endfacet
facet normal -3.47704697442877e-032 -1.02266087483199e-032 -1.0
outer loop
vertex 9.33531429703866 0.653333781699192 -13.0
vertex 9.8529523872437 2.58518543427733 -13.0
vertex 10.5 0.499999999999999 -13.0
endloop
endfacet
facet normal -3.47704697442877e-032 -1.02266087483199e-032 -1.0
outer loop
vertex 10.5 0.499999999999999 -13.0
vertex 9.8529523872437 2.58518543427733 -13.0
vertex 10.5 2.5 -13.0
endloop
endfacet
facet normal -3.47704697442877e-032 -1.02266087483199e-032 -1.0
outer loop
vertex 10.5 0.499999999999999 -13.0
vertex 10.5 2.5 -13.0
vertex 11.1470476127563 2.58518543427733 -13.0
endloop
endfacet
facet normal -3.47704697442877e-032 -1.02266087483199e-032 -1.0
outer loop
vertex 10.5 0.499999999999999 -13.0
vertex 11.1470476127563 2.58518543427733 -13.0
vertex 11.6646857029613 0.653333781699192 -13.0
endloop
endfacet
facet normal -3.47704697442877e-032 -1.02266087483199e-032 -1.0
outer loop
vertex 11.6646857029613 0.653333781699192 -13.0
vertex 11.1470476127563 2.58518543427733 -13.0
vertex 11.75 2.8349364905389 -13.0
endloop
endfacet
facet normal -3.47704697442877e-032 -1.02266087483199e-032 -1.0
outer loop
vertex 11.6646857029613 0.653333781699192 -13.0
vertex 11.75 2.8349364905389 -13.0
vertex 12.75 1.10288568297003 -13.0
endloop
endfacet
facet normal -3.47704697442877e-032 -1.02266087483199e-032 -1.0
outer loop
vertex 12.75 1.10288568297003 -13.0
vertex 11.75 2.8349364905389 -13.0
vertex 12.2677669529664 3.23223304703363 -13.0
endloop
endfacet
facet normal -3.47704697442877e-032 -1.02266087483199e-032 -1.0
outer loop
vertex 12.75 1.10288568297003 -13.0
vertex 12.2677669529664 3.23223304703363 -13.0
vertex 12.6650635094611 3.75 -13.0
endloop
endfacet
facet normal -3.47704697442877e-032 -1.02266087483199e-032 -1.0
outer loop
vertex 12.75 1.10288568297003 -13.0
vertex 12.6650635094611 3.75 -13.0
vertex 12.9148145657227 4.3529523872437 -13.0
endloop
endfacet
facet normal -3.47704697442877e-032 -1.02266087483199e-032 -1.0
outer loop
vertex 12.75 1.10288568297003 -13.0
vertex 12.9148145657227 4.3529523872437 -13.0
vertex 13.6819805153395 1.81801948466054 -13.0
endloop
endfacet
facet normal -3.47704697442877e-032 -1.02266087483199e-032 -1.0
outer loop
vertex 13.6819805153395 1.81801948466054 -13.0
vertex 12.9148145657227 4.3529523872437 -13.0
vertex 13.0 5.0 -13.0
endloop
endfacet
facet normal 0.866025403784438 -0.5 -2.49988057259114e-032
outer loop
vertex 14.39711431703 2.75 -13.0
vertex 13.6819805153395 1.81801948466054 -2.0
vertex 13.6819805153395 1.81801948466054 -13.0
endloop
endfacet
facet normal 0.707106781186547 -0.707106781186548 -1.73551305467488e-032
outer loop
vertex 13.6819805153395 1.81801948466054 -2.0
vertex 14.39711431703 2.75 -13.0
vertex 14.39711431703 2.75 -2.0
endloop
endfacet
facet normal -0.707106781186547 0.707106781186548 1.73551305467488e-032
outer loop
vertex 7.31801948466054 8.18198051533946 -2.0
vertex 8.25 8.89711431702998 -13.0
vertex 7.31801948466054 8.18198051533946 -13.0
endloop
endfacet
facet normal -0.499999999999999 0.866025403784439 8.52873190153459e-033
outer loop
vertex 8.25 8.89711431702998 -13.0
vertex 7.31801948466054 8.18198051533946 -2.0
vertex 8.25 8.89711431702998 -2.0
endloop
endfacet
facet normal 0.5 -0.866025403784439 -8.52873190153462e-033
outer loop
vertex 12.75 1.10288568297003 -2.0
vertex 11.6646857029613 0.653333781699192 -13.0
vertex 12.75 1.10288568297003 -13.0
endloop
endfacet
facet normal 0.258819045102521 -0.965925826289068 8.78885728373287e-034
outer loop
vertex 11.6646857029613 0.653333781699192 -13.0
vertex 12.75 1.10288568297003 -2.0
vertex 11.6646857029613 0.653333781699192 -2.0
endloop
endfacet
facet normal 0.258819045102521 -0.965925826289068 8.78885728373287e-034
outer loop
vertex 11.6646857029613 0.653333781699192 -2.0
vertex 10.5 0.499999999999999 -13.0
vertex 11.6646857029613 0.653333781699192 -13.0
endloop
endfacet
facet normal 8.91110989564691e-017 -1.0 1.02266087483199e-032
outer loop
vertex 10.5 0.499999999999999 -13.0
vertex 11.6646857029613 0.653333781699192 -2.0
vertex 10.5 0.499999999999999 -2.0
endloop
endfacet
facet normal -0.707106781186547 0.707106781186548 1.73551305467488e-032
outer loop
vertex 7.31801948466054 8.18198051533946 -2.0
vertex 6.60288568297003 7.25 -13.0
vertex 6.60288568297003 7.25 -2.0
endloop
endfacet
facet normal -0.866025403784438 0.5 2.49988057259114e-032
outer loop
vertex 6.60288568297003 7.25 -13.0
vertex 7.31801948466054 8.18198051533946 -2.0
vertex 7.31801948466054 8.18198051533946 -13.0
endloop
endfacet
facet normal -0.866025403784439 -0.5 3.52254144742313e-032
outer loop
vertex 6.60288568297003 2.75 -2.0
vertex 7.31801948466054 1.81801948466054 -13.0
vertex 7.31801948466054 1.81801948466054 -2.0
endloop
endfacet
facet normal -0.707106781186548 -0.707106781186547 3.18177393357062e-032
outer loop
vertex 7.31801948466054 1.81801948466054 -13.0
vertex 6.60288568297003 2.75 -2.0
vertex 6.60288568297003 2.75 -13.0
endloop
endfacet
facet normal -1.0 9.8022208852116e-017 3.47704697442877e-032
outer loop
vertex 6.0 5.0 -2.0
vertex 6.15333378169919 3.83531429703866 -13.0
vertex 6.15333378169919 3.83531429703866 -2.0
endloop
endfacet
facet normal -0.965925826289068 -0.258819045102521 3.62325358290874e-032
outer loop
vertex 6.15333378169919 3.83531429703866 -13.0
vertex 6.0 5.0 -2.0
vertex 6.0 5.0 -13.0
endloop
endfacet
facet normal -1.42577758330351e-016 1.0 -1.02266087483199e-032
outer loop
vertex 10.5 9.5 -2.0
vertex 11.6646857029613 9.34666621830081 -13.0
vertex 10.5 9.5 -13.0
endloop
endfacet
facet normal 0.258819045102521 0.965925826289068 -1.88774052823386e-032
outer loop
vertex 11.6646857029613 9.34666621830081 -13.0
vertex 10.5 9.5 -2.0
vertex 11.6646857029613 9.34666621830081 -2.0
endloop
endfacet
facet normal 0.258819045102521 0.965925826289068 -1.88774052823386e-032
outer loop
vertex 11.6646857029613 9.34666621830081 -2.0
vertex 12.75 8.89711431702997 -13.0
vertex 11.6646857029613 9.34666621830081 -13.0
endloop
endfacet
facet normal 0.500000000000001 0.866025403784438 -2.62417378427531e-032
outer loop
vertex 12.75 8.89711431702997 -13.0
vertex 11.6646857029613 9.34666621830081 -2.0
vertex 12.75 8.89711431702997 -2.0
endloop
endfacet
facet normal 0.500000000000001 0.866025403784438 -2.62417378427531e-032
outer loop
vertex 12.75 8.89711431702997 -2.0
vertex 13.6819805153395 8.18198051533946 -13.0
vertex 12.75 8.89711431702997 -13.0
endloop
endfacet
facet normal 0.707106781186548 0.707106781186547 -3.18177393357062e-032
outer loop
vertex 13.6819805153395 8.18198051533946 -13.0
vertex 12.75 8.89711431702997 -2.0
vertex 13.6819805153395 8.18198051533946 -2.0
endloop
endfacet
facet normal 0.866025403784439 0.499999999999999 -3.52254144742313e-032
outer loop
vertex 14.39711431703 7.25 -13.0
vertex 14.8466662183008 6.16468570296134 -2.0
vertex 14.8466662183008 6.16468570296134 -13.0
endloop
endfacet
facet normal 0.965925826289068 0.25881904510252 -3.62325358290874e-032
outer loop
vertex 14.8466662183008 6.16468570296134 -2.0
vertex 14.39711431703 7.25 -13.0
vertex 14.39711431703 7.25 -2.0
endloop
endfacet
facet normal -0.499999999999999 0.866025403784439 8.52873190153459e-033
outer loop
vertex 8.25 8.89711431702998 -2.0
vertex 9.33531429703866 9.34666621830081 -13.0
vertex 8.25 8.89711431702998 -13.0
endloop
endfacet
facet normal -0.25881904510252 0.965925826289068 -8.78885728373318e-034
outer loop
vertex 9.33531429703866 9.34666621830081 -13.0
vertex 8.25 8.89711431702998 -2.0
vertex 9.33531429703866 9.34666621830081 -2.0
endloop
endfacet
endsolid home-mount-top
