solid dowel-pin-cap
facet normal -0.0 -0.0 1.0
outer loop
vertex -2.31822198309376 -0.62116570824605 0.5
vertex -2.31822198309376 0.621165708246051 0.5
vertex -2.4 7.04991620636974e-016 0.5
endloop
endfacet
facet normal -0.0 -0.0 1.0
outer loop
vertex -2.31822198309376 0.621165708246051 0.5
vertex -2.31822198309376 -0.62116570824605 0.5
vertex -2.07846096908265 -1.2 0.5
endloop
endfacet
facet normal -0.0 -0.0 1.0
outer loop
vertex -2.31822198309376 0.621165708246051 0.5
vertex -2.07846096908265 -1.2 0.5
vertex -2.07846096908265 1.2 0.5
endloop
endfacet
facet normal -0.0 -0.0 1.0
outer loop
vertex -2.07846096908265 1.2 0.5
vertex -2.07846096908265 -1.2 0.5
vertex -1.69705627484771 -1.69705627484771 0.5
endloop
endfacet
facet normal -0.0 -0.0 1.0
outer loop
vertex -2.07846096908265 1.2 0.5
vertex -1.69705627484771 -1.69705627484771 0.5
vertex -1.69705627484771 1.69705627484771 0.5
endloop
endfacet
facet normal -0.0 -0.0 1.0
outer loop
vertex -1.69705627484771 1.69705627484771 0.5
vertex -1.69705627484771 -1.69705627484771 0.5
vertex -1.2 -2.07846096908265 0.5
endloop
endfacet
facet normal -0.0 -0.0 1.0
outer loop
vertex -1.69705627484771 1.69705627484771 0.5
vertex -1.2 -2.07846096908265 0.5
vertex -1.2 2.07846096908265 0.5
endloop
endfacet
facet normal -0.0 -0.0 1.0
outer loop
vertex -1.2 2.07846096908265 0.5
vertex -1.2 -2.07846096908265 0.5
vertex -0.621165708246049 -2.31822198309376 0.5
endloop
endfacet
facet normal -0.0 -0.0 1.0
outer loop
vertex -1.2 2.07846096908265 0.5
vertex -0.621165708246049 -2.31822198309376 0.5
vertex -0.621165708246049 2.31822198309376 0.5
endloop
endfacet
facet normal -0.0 -0.0 1.0
outer loop
vertex -0.621165708246049 2.31822198309376 0.5
vertex -0.621165708246049 -2.31822198309376 0.5
vertex 1.23373533611471e-015 -2.4 0.5
endloop
endfacet
facet normal -0.0 -0.0 1.0
outer loop
vertex -0.621165708246049 2.31822198309376 0.5
vertex 1.23373533611471e-015 -2.4 0.5
vertex 7.04991620636974e-016 2.4 0.5
endloop
endfacet
facet normal -0.0 -0.0 1.0
outer loop
vertex 7.04991620636974e-016 2.4 0.5
vertex 1.23373533611471e-015 -2.4 0.5
vertex 0.621165708246051 2.31822198309376 0.5
endloop
endfacet
facet normal -0.0 -0.0 1.0
outer loop
vertex 0.621165708246051 2.31822198309376 0.5
vertex 1.23373533611471e-015 -2.4 0.5
vertex 0.62116570824605 -2.31822198309376 0.5
endloop
endfacet
facet normal -0.0 -0.0 1.0
outer loop
vertex 0.621165708246051 2.31822198309376 0.5
vertex 0.62116570824605 -2.31822198309376 0.5
vertex 1.2 -2.07846096908265 0.5
endloop
endfacet
facet normal -0.0 -0.0 1.0
outer loop
vertex 0.621165708246051 2.31822198309376 0.5
vertex 1.2 -2.07846096908265 0.5
vertex 1.2 2.07846096908265 0.5
endloop
endfacet
facet normal -0.0 -0.0 1.0
outer loop
vertex 1.2 2.07846096908265 0.5
vertex 1.2 -2.07846096908265 0.5
vertex 1.69705627484771 -1.69705627484771 0.5
endloop
endfacet
facet normal -0.0 -0.0 1.0
outer loop
vertex 1.2 2.07846096908265 0.5
vertex 1.69705627484771 -1.69705627484771 0.5
vertex 1.69705627484772 1.69705627484771 0.5
endloop
endfacet
facet normal -0.0 -0.0 1.0
outer loop
vertex 1.69705627484772 1.69705627484771 0.5
vertex 1.69705627484771 -1.69705627484771 0.5
vertex 2.07846096908265 -1.2 0.5
endloop
endfacet
facet normal -0.0 -0.0 1.0
outer loop
vertex 1.69705627484772 1.69705627484771 0.5
vertex 2.07846096908265 -1.2 0.5
vertex 2.07846096908266 1.2 0.5
endloop
endfacet
facet normal -0.0 -0.0 1.0
outer loop
vertex 2.07846096908266 1.2 0.5
vertex 2.07846096908265 -1.2 0.5
vertex 2.31822198309376 -0.621165708246052 0.5
endloop
endfacet
facet normal -0.0 -0.0 1.0
outer loop
vertex 2.07846096908266 1.2 0.5
vertex 2.31822198309376 -0.621165708246052 0.5
vertex 2.31822198309377 0.621165708246046 0.5
endloop
endfacet
facet normal -0.0 -0.0 1.0
outer loop
vertex 2.31822198309377 0.621165708246046 0.5
vertex 2.31822198309376 -0.621165708246052 0.5
vertex 2.4 -3.17246229286638e-015 0.5
endloop
endfacet
facet normal 0.5 0.866025403784439 0.0
outer loop
vertex 2.5 4.33012701892219 2.5
vertex 3.53553390593274 3.53553390593274 0.0
vertex 2.5 4.33012701892219 0.0
endloop
endfacet
facet normal 0.707106781186548 0.707106781186547 0.0
outer loop
vertex 3.53553390593274 3.53553390593274 0.0
vertex 2.5 4.33012701892219 2.5
vertex 3.53553390593274 3.53553390593274 2.5
endloop
endfacet
facet normal 0.707106781186548 0.707106781186547 0.0
outer loop
vertex 3.53553390593274 3.53553390593274 0.0
vertex 4.33012701892219 2.5 2.5
vertex 4.33012701892219 2.5 0.0
endloop
endfacet
facet normal 0.866025403784439 0.5 0.0
outer loop
vertex 4.33012701892219 2.5 2.5
vertex 3.53553390593274 3.53553390593274 0.0
vertex 3.53553390593274 3.53553390593274 2.5
endloop
endfacet
facet normal 0.866025403784439 0.5 0.0
outer loop
vertex 4.33012701892219 2.5 0.0
vertex 4.82962913144534 1.2940952255126 2.5
vertex 4.82962913144534 1.2940952255126 0.0
endloop
endfacet
facet normal 0.965925826289069 0.25881904510252 0.0
outer loop
vertex 4.82962913144534 1.2940952255126 2.5
vertex 4.33012701892219 2.5 0.0
vertex 4.33012701892219 2.5 2.5
endloop
endfacet
facet normal 0.965925826289069 0.25881904510252 0.0
outer loop
vertex 4.82962913144534 1.2940952255126 0.0
vertex 5.0 -1.01064309961486e-014 2.5
vertex 5.0 -1.01064309961486e-014 0.0
endloop
endfacet
facet normal 1.0 -1.39013314372092e-015 0.0
outer loop
vertex 5.0 -1.01064309961486e-014 2.5
vertex 4.82962913144534 1.2940952255126 0.0
vertex 4.82962913144534 1.2940952255126 2.5
endloop
endfacet
facet normal 1.0 -1.39013314372092e-015 0.0
outer loop
vertex 5.0 -1.01064309961486e-014 0.0
vertex 4.82962913144534 -1.29409522551261 2.5
vertex 4.82962913144534 -1.29409522551261 0.0
endloop
endfacet
facet normal 0.965925826289068 -0.258819045102523 0.0
outer loop
vertex 4.82962913144534 -1.29409522551261 2.5
vertex 5.0 -1.01064309961486e-014 0.0
vertex 5.0 -1.01064309961486e-014 2.5
endloop
endfacet
facet normal 0.965925826289068 -0.258819045102523 0.0
outer loop
vertex 4.82962913144534 -1.29409522551261 0.0
vertex 4.33012701892219 -2.50000000000001 2.5
vertex 4.33012701892219 -2.50000000000001 0.0
endloop
endfacet
facet normal 0.866025403784438 -0.500000000000001 0.0
outer loop
vertex 4.33012701892219 -2.50000000000001 2.5
vertex 4.82962913144534 -1.29409522551261 0.0
vertex 4.82962913144534 -1.29409522551261 2.5
endloop
endfacet
facet normal 0.866025403784438 -0.500000000000001 0.0
outer loop
vertex 4.33012701892219 -2.50000000000001 0.0
vertex 3.53553390593273 -3.53553390593274 2.5
vertex 3.53553390593273 -3.53553390593274 0.0
endloop
endfacet
facet normal 0.707106781186547 -0.707106781186548 0.0
outer loop
vertex 3.53553390593273 -3.53553390593274 2.5
vertex 4.33012701892219 -2.50000000000001 0.0
vertex 4.33012701892219 -2.50000000000001 2.5
endloop
endfacet
facet normal 0.707106781186547 -0.707106781186548 0.0
outer loop
vertex 3.53553390593273 -3.53553390593274 2.5
vertex 2.5 -4.33012701892219 0.0
vertex 3.53553390593273 -3.53553390593274 0.0
endloop
endfacet
facet normal 0.499999999999999 -0.866025403784439 0.0
outer loop
vertex 2.5 -4.33012701892219 0.0
vertex 3.53553390593273 -3.53553390593274 2.5
vertex 2.5 -4.33012701892219 2.5
endloop
endfacet
facet normal 0.499999999999999 -0.866025403784439 0.0
outer loop
vertex 2.5 -4.33012701892219 2.5
vertex 1.2940952255126 -4.82962913144534 0.0
vertex 2.5 -4.33012701892219 0.0
endloop
endfacet
facet normal 0.25881904510252 -0.965925826289068 0.0
outer loop
vertex 1.2940952255126 -4.82962913144534 0.0
vertex 2.5 -4.33012701892219 2.5
vertex 1.2940952255126 -4.82962913144534 2.5
endloop
endfacet
facet normal 0.25881904510252 -0.965925826289068 0.0
outer loop
vertex 1.2940952255126 -4.82962913144534 2.5
vertex -9.18485099360515e-016 -5.0 0.0
vertex 1.2940952255126 -4.82962913144534 0.0
endloop
endfacet
facet normal -2.5842218697376e-016 -1.0 0.0
outer loop
vertex -9.18485099360515e-016 -5.0 0.0
vertex 1.2940952255126 -4.82962913144534 2.5
vertex -9.18485099360515e-016 -5.0 2.5
endloop
endfacet
facet normal -2.5842218697376e-016 -1.0 0.0
outer loop
vertex -9.18485099360515e-016 -5.0 2.5
vertex -1.2940952255126 -4.82962913144534 0.0
vertex -9.18485099360515e-016 -5.0 0.0
endloop
endfacet
facet normal -0.258819045102521 -0.965925826289068 0.0
outer loop
vertex -1.2940952255126 -4.82962913144534 0.0
vertex -9.18485099360515e-016 -5.0 2.5
vertex -1.2940952255126 -4.82962913144534 2.5
endloop
endfacet
facet normal -0.258819045102521 -0.965925826289068 0.0
outer loop
vertex -1.2940952255126 -4.82962913144534 2.5
vertex -2.5 -4.33012701892219 0.0
vertex -1.2940952255126 -4.82962913144534 0.0
endloop
endfacet
facet normal -0.5 -0.866025403784439 0.0
outer loop
vertex -2.5 -4.33012701892219 0.0
vertex -1.2940952255126 -4.82962913144534 2.5
vertex -2.5 -4.33012701892219 2.5
endloop
endfacet
facet normal -0.5 -0.866025403784439 0.0
outer loop
vertex -2.5 -4.33012701892219 2.5
vertex -3.53553390593273 -3.53553390593274 0.0
vertex -2.5 -4.33012701892219 0.0
endloop
endfacet
facet normal -0.707106781186547 -0.707106781186548 0.0
outer loop
vertex -3.53553390593273 -3.53553390593274 0.0
vertex -2.5 -4.33012701892219 2.5
vertex -3.53553390593273 -3.53553390593274 2.5
endloop
endfacet
facet normal -0.866025403784438 -0.500000000000001 0.0
outer loop
vertex -4.33012701892219 -2.5 2.5
vertex -3.53553390593273 -3.53553390593274 0.0
vertex -3.53553390593273 -3.53553390593274 2.5
endloop
endfacet
facet normal -0.707106781186547 -0.707106781186548 0.0
outer loop
vertex -3.53553390593273 -3.53553390593274 0.0
vertex -4.33012701892219 -2.5 2.5
vertex -4.33012701892219 -2.5 0.0
endloop
endfacet
facet normal -0.965925826289068 -0.258819045102521 0.0
outer loop
vertex -4.82962913144534 -1.29409522551261 2.5
vertex -4.33012701892219 -2.5 0.0
vertex -4.33012701892219 -2.5 2.5
endloop
endfacet
facet normal -0.866025403784438 -0.500000000000001 0.0
outer loop
vertex -4.33012701892219 -2.5 0.0
vertex -4.82962913144534 -1.29409522551261 2.5
vertex -4.82962913144534 -1.29409522551261 0.0
endloop
endfacet
facet normal -1.0 -8.91110989564691e-018 0.0
outer loop
vertex -5.0 -1.60812264967664e-015 2.5
vertex -4.82962913144534 -1.29409522551261 0.0
vertex -4.82962913144534 -1.29409522551261 2.5
endloop
endfacet
facet normal -0.965925826289068 -0.258819045102521 0.0
outer loop
vertex -4.82962913144534 -1.29409522551261 0.0
vertex -5.0 -1.60812264967664e-015 2.5
vertex -5.0 -1.60812264967664e-015 0.0
endloop
endfacet
facet normal -0.965925826289068 0.258819045102521 0.0
outer loop
vertex -4.82962913144534 1.2940952255126 2.5
vertex -5.0 -1.60812264967664e-015 0.0
vertex -5.0 -1.60812264967664e-015 2.5
endloop
endfacet
facet normal -1.0 -8.91110989564691e-018 0.0
outer loop
vertex -5.0 -1.60812264967664e-015 0.0
vertex -4.82962913144534 1.2940952255126 2.5
vertex -4.82962913144534 1.2940952255126 0.0
endloop
endfacet
facet normal -0.866025403784439 0.5 0.0
outer loop
vertex -4.33012701892219 2.5 2.5
vertex -4.82962913144534 1.2940952255126 0.0
vertex -4.82962913144534 1.2940952255126 2.5
endloop
endfacet
facet normal -0.965925826289068 0.258819045102521 0.0
outer loop
vertex -4.82962913144534 1.2940952255126 0.0
vertex -4.33012701892219 2.5 2.5
vertex -4.33012701892219 2.5 0.0
endloop
endfacet
facet normal -0.707106781186547 0.707106781186548 0.0
outer loop
vertex -3.53553390593274 3.53553390593274 2.5
vertex -4.33012701892219 2.5 0.0
vertex -4.33012701892219 2.5 2.5
endloop
endfacet
facet normal -0.866025403784439 0.5 0.0
outer loop
vertex -4.33012701892219 2.5 0.0
vertex -3.53553390593274 3.53553390593274 2.5
vertex -3.53553390593274 3.53553390593274 0.0
endloop
endfacet
facet normal -0.707106781186547 0.707106781186548 0.0
outer loop
vertex -3.53553390593274 3.53553390593274 2.5
vertex -2.5 4.33012701892219 0.0
vertex -3.53553390593274 3.53553390593274 0.0
endloop
endfacet
facet normal -0.5 0.866025403784439 0.0
outer loop
vertex -2.5 4.33012701892219 0.0
vertex -3.53553390593274 3.53553390593274 2.5
vertex -2.5 4.33012701892219 2.5
endloop
endfacet
facet normal -0.5 0.866025403784439 0.0
outer loop
vertex -2.5 4.33012701892219 2.5
vertex -1.2940952255126 4.82962913144534 0.0
vertex -2.5 4.33012701892219 0.0
endloop
endfacet
facet normal -0.258819045102521 0.965925826289068 0.0
outer loop
vertex -1.2940952255126 4.82962913144534 0.0
vertex -2.5 4.33012701892219 2.5
vertex -1.2940952255126 4.82962913144534 2.5
endloop
endfacet
facet normal -0.258819045102521 0.965925826289068 0.0
outer loop
vertex -1.2940952255126 4.82962913144534 2.5
vertex 1.41638472441199e-015 5.0 0.0
vertex -1.2940952255126 4.82962913144534 0.0
endloop
endfacet
facet normal 2.67333296869407e-016 1.0 0.0
outer loop
vertex 1.41638472441199e-015 5.0 0.0
vertex -1.2940952255126 4.82962913144534 2.5
vertex 1.41638472441199e-015 5.0 2.5
endloop
endfacet
facet normal 2.67333296869407e-016 1.0 0.0
outer loop
vertex 1.41638472441199e-015 5.0 2.5
vertex 1.2940952255126 4.82962913144534 0.0
vertex 1.41638472441199e-015 5.0 0.0
endloop
endfacet
facet normal 0.258819045102521 0.965925826289068 0.0
outer loop
vertex 1.2940952255126 4.82962913144534 0.0
vertex 1.41638472441199e-015 5.0 2.5
vertex 1.2940952255126 4.82962913144534 2.5
endloop
endfacet
facet normal 0.258819045102521 0.965925826289068 0.0
outer loop
vertex 1.2940952255126 4.82962913144534 2.5
vertex 2.5 4.33012701892219 0.0
vertex 1.2940952255126 4.82962913144534 0.0
endloop
endfacet
facet normal 0.5 0.866025403784439 0.0
outer loop
vertex 2.5 4.33012701892219 0.0
vertex 1.2940952255126 4.82962913144534 2.5
vertex 2.5 4.33012701892219 2.5
endloop
endfacet
facet normal -0.0 -0.0 1.0
outer loop
vertex -2.5 -4.33012701892219 2.5
vertex -2.31822198309376 -0.62116570824605 2.5
vertex -2.4 7.04991620636974e-016 2.5
endloop
endfacet
facet normal -0.0 -0.0 1.0
outer loop
vertex -2.31822198309376 -0.62116570824605 2.5
vertex -2.5 -4.33012701892219 2.5
vertex -1.2940952255126 -4.82962913144534 2.5
endloop
endfacet
facet normal -0.0 -0.0 1.0
outer loop
vertex -2.31822198309376 -0.62116570824605 2.5
vertex -1.2940952255126 -4.82962913144534 2.5
vertex -2.07846096908265 -1.2 2.5
endloop
endfacet
facet normal -0.0 -0.0 1.0
outer loop
vertex -2.07846096908265 -1.2 2.5
vertex -1.2940952255126 -4.82962913144534 2.5
vertex -1.69705627484771 -1.69705627484771 2.5
endloop
endfacet
facet normal -0.0 -0.0 1.0
outer loop
vertex -1.69705627484771 -1.69705627484771 2.5
vertex -1.2940952255126 -4.82962913144534 2.5
vertex -1.2 -2.07846096908265 2.5
endloop
endfacet
facet normal -0.0 -0.0 1.0
outer loop
vertex -1.2 -2.07846096908265 2.5
vertex -1.2940952255126 -4.82962913144534 2.5
vertex -9.18485099360515e-016 -5.0 2.5
endloop
endfacet
facet normal -0.0 -0.0 1.0
outer loop
vertex -1.2 -2.07846096908265 2.5
vertex -9.18485099360515e-016 -5.0 2.5
vertex -0.621165708246049 -2.31822198309376 2.5
endloop
endfacet
facet normal -0.0 -0.0 1.0
outer loop
vertex -0.621165708246049 -2.31822198309376 2.5
vertex -9.18485099360515e-016 -5.0 2.5
vertex 1.23373533611471e-015 -2.4 2.5
endloop
endfacet
facet normal -0.0 -0.0 1.0
outer loop
vertex 1.23373533611471e-015 -2.4 2.5
vertex -9.18485099360515e-016 -5.0 2.5
vertex 1.2940952255126 -4.82962913144534 2.5
endloop
endfacet
facet normal -0.0 -0.0 1.0
outer loop
vertex 1.23373533611471e-015 -2.4 2.5
vertex 1.2940952255126 -4.82962913144534 2.5
vertex 0.62116570824605 -2.31822198309376 2.5
endloop
endfacet
facet normal -0.0 -0.0 1.0
outer loop
vertex 0.62116570824605 -2.31822198309376 2.5
vertex 1.2940952255126 -4.82962913144534 2.5
vertex 1.2 -2.07846096908265 2.5
endloop
endfacet
facet normal -0.0 -0.0 1.0
outer loop
vertex 1.2 -2.07846096908265 2.5
vertex 1.2940952255126 -4.82962913144534 2.5
vertex 1.69705627484771 -1.69705627484771 2.5
endloop
endfacet
facet normal -0.0 -0.0 1.0
outer loop
vertex 1.69705627484771 -1.69705627484771 2.5
vertex 1.2940952255126 -4.82962913144534 2.5
vertex 2.5 -4.33012701892219 2.5
endloop
endfacet
facet normal -0.0 -0.0 1.0
outer loop
vertex 1.69705627484771 -1.69705627484771 2.5
vertex 2.5 -4.33012701892219 2.5
vertex 2.07846096908265 -1.2 2.5
endloop
endfacet
facet normal -0.0 -0.0 1.0
outer loop
vertex 2.07846096908265 -1.2 2.5
vertex 2.5 -4.33012701892219 2.5
vertex 2.31822198309376 -0.621165708246052 2.5
endloop
endfacet
facet normal -0.0 -0.0 1.0
outer loop
vertex 2.31822198309376 -0.621165708246052 2.5
vertex 2.5 -4.33012701892219 2.5
vertex 2.4 -3.17246229286638e-015 2.5
endloop
endfacet
facet normal -0.0 -0.0 1.0
outer loop
vertex -4.82962913144534 -1.29409522551261 2.5
vertex -4.82962913144534 1.2940952255126 2.5
vertex -5.0 -1.60812264967664e-015 2.5
endloop
endfacet
facet normal -0.0 -0.0 1.0
outer loop
vertex -4.82962913144534 1.2940952255126 2.5
vertex -4.82962913144534 -1.29409522551261 2.5
vertex -4.33012701892219 -2.5 2.5
endloop
endfacet
facet normal -0.0 -0.0 1.0
outer loop
vertex -4.82962913144534 1.2940952255126 2.5
vertex -4.33012701892219 -2.5 2.5
vertex -4.33012701892219 2.5 2.5
endloop
endfacet
facet normal -0.0 -0.0 1.0
outer loop
vertex -4.33012701892219 2.5 2.5
vertex -4.33012701892219 -2.5 2.5
vertex -3.53553390593274 3.53553390593274 2.5
endloop
endfacet
facet normal -0.0 -0.0 1.0
outer loop
vertex -3.53553390593274 3.53553390593274 2.5
vertex -4.33012701892219 -2.5 2.5
vertex -3.53553390593273 -3.53553390593274 2.5
endloop
endfacet
facet normal -0.0 -0.0 1.0
outer loop
vertex -3.53553390593274 3.53553390593274 2.5
vertex -3.53553390593273 -3.53553390593274 2.5
vertex -2.5 4.33012701892219 2.5
endloop
endfacet
facet normal -0.0 -0.0 1.0
outer loop
vertex -2.5 4.33012701892219 2.5
vertex -3.53553390593273 -3.53553390593274 2.5
vertex -2.5 -4.33012701892219 2.5
endloop
endfacet
facet normal -0.0 -0.0 1.0
outer loop
vertex -2.5 4.33012701892219 2.5
vertex -2.5 -4.33012701892219 2.5
vertex -2.4 7.04991620636974e-016 2.5
endloop
endfacet
facet normal -0.0 -0.0 1.0
outer loop
vertex -2.5 4.33012701892219 2.5
vertex -2.4 7.04991620636974e-016 2.5
vertex -2.31822198309376 0.621165708246051 2.5
endloop
endfacet
facet normal -0.0 -0.0 1.0
outer loop
vertex -2.5 4.33012701892219 2.5
vertex -2.31822198309376 0.621165708246051 2.5
vertex -1.2940952255126 4.82962913144534 2.5
endloop
endfacet
facet normal -0.0 -0.0 1.0
outer loop
vertex -1.2940952255126 4.82962913144534 2.5
vertex -2.31822198309376 0.621165708246051 2.5
vertex -2.07846096908265 1.2 2.5
endloop
endfacet
facet normal -0.0 -0.0 1.0
outer loop
vertex -1.2940952255126 4.82962913144534 2.5
vertex -2.07846096908265 1.2 2.5
vertex -1.69705627484771 1.69705627484771 2.5
endloop
endfacet
facet normal -0.0 -0.0 1.0
outer loop
vertex -1.2940952255126 4.82962913144534 2.5
vertex -1.69705627484771 1.69705627484771 2.5
vertex -1.2 2.07846096908265 2.5
endloop
endfacet
facet normal -0.0 -0.0 1.0
outer loop
vertex -1.2940952255126 4.82962913144534 2.5
vertex -1.2 2.07846096908265 2.5
vertex 1.41638472441199e-015 5.0 2.5
endloop
endfacet
facet normal -0.0 -0.0 1.0
outer loop
vertex 1.41638472441199e-015 5.0 2.5
vertex -1.2 2.07846096908265 2.5
vertex -0.621165708246049 2.31822198309376 2.5
endloop
endfacet
facet normal -0.0 -0.0 1.0
outer loop
vertex 1.41638472441199e-015 5.0 2.5
vertex -0.621165708246049 2.31822198309376 2.5
vertex 7.04991620636974e-016 2.4 2.5
endloop
endfacet
facet normal -0.0 -0.0 1.0
outer loop
vertex 1.41638472441199e-015 5.0 2.5
vertex 7.04991620636974e-016 2.4 2.5
vertex 0.621165708246051 2.31822198309376 2.5
endloop
endfacet
facet normal -0.0 -0.0 1.0
outer loop
vertex 1.41638472441199e-015 5.0 2.5
vertex 0.621165708246051 2.31822198309376 2.5
vertex 1.2940952255126 4.82962913144534 2.5
endloop
endfacet
facet normal -0.0 -0.0 1.0
outer loop
vertex 1.2940952255126 4.82962913144534 2.5
vertex 0.621165708246051 2.31822198309376 2.5
vertex 1.2 2.07846096908265 2.5
endloop
endfacet
facet normal -0.0 -0.0 1.0
outer loop
vertex 1.2940952255126 4.82962913144534 2.5
vertex 1.2 2.07846096908265 2.5
vertex 1.69705627484772 1.69705627484771 2.5
endloop
endfacet
facet normal -0.0 -0.0 1.0
outer loop
vertex 1.2940952255126 4.82962913144534 2.5
vertex 1.69705627484772 1.69705627484771 2.5
vertex 2.5 4.33012701892219 2.5
endloop
endfacet
facet normal -0.0 -0.0 1.0
outer loop
vertex 2.5 4.33012701892219 2.5
vertex 1.69705627484772 1.69705627484771 2.5
vertex 2.07846096908266 1.2 2.5
endloop
endfacet
facet normal -0.0 -0.0 1.0
outer loop
vertex 2.5 4.33012701892219 2.5
vertex 2.07846096908266 1.2 2.5
vertex 2.31822198309377 0.621165708246046 2.5
endloop
endfacet
facet normal -0.0 -0.0 1.0
outer loop
vertex 2.5 4.33012701892219 2.5
vertex 2.31822198309377 0.621165708246046 2.5
vertex 2.4 -3.17246229286638e-015 2.5
endloop
endfacet
facet normal -0.0 -0.0 1.0
outer loop
vertex 2.5 4.33012701892219 2.5
vertex 2.4 -3.17246229286638e-015 2.5
vertex 2.5 -4.33012701892219 2.5
endloop
endfacet
facet normal -0.0 -0.0 1.0
outer loop
vertex 2.5 4.33012701892219 2.5
vertex 2.5 -4.33012701892219 2.5
vertex 3.53553390593273 -3.53553390593274 2.5
endloop
endfacet
facet normal -0.0 -0.0 1.0
outer loop
vertex 2.5 4.33012701892219 2.5
vertex 3.53553390593273 -3.53553390593274 2.5
vertex 3.53553390593274 3.53553390593274 2.5
endloop
endfacet
facet normal -0.0 -0.0 1.0
outer loop
vertex 3.53553390593274 3.53553390593274 2.5
vertex 3.53553390593273 -3.53553390593274 2.5
vertex 4.33012701892219 -2.50000000000001 2.5
endloop
endfacet
facet normal -0.0 -0.0 1.0
outer loop
vertex 3.53553390593274 3.53553390593274 2.5
vertex 4.33012701892219 -2.50000000000001 2.5
vertex 4.33012701892219 2.5 2.5
endloop
endfacet
facet normal -0.0 -0.0 1.0
outer loop
vertex 4.33012701892219 2.5 2.5
vertex 4.33012701892219 -2.50000000000001 2.5
vertex 4.82962913144534 -1.29409522551261 2.5
endloop
endfacet
facet normal -0.0 -0.0 1.0
outer loop
vertex 4.33012701892219 2.5 2.5
vertex 4.82962913144534 -1.29409522551261 2.5
vertex 4.82962913144534 1.2940952255126 2.5
endloop
endfacet
facet normal -0.0 -0.0 1.0
outer loop
vertex 4.82962913144534 1.2940952255126 2.5
vertex 4.82962913144534 -1.29409522551261 2.5
vertex 5.0 -1.01064309961486e-014 2.5
endloop
endfacet
facet normal -0.707106781186549 -0.707106781186546 -6.21421141860888e-033
outer loop
vertex 1.69705627484772 1.69705627484771 2.5
vertex 1.2 2.07846096908265 0.5
vertex 1.69705627484772 1.69705627484771 0.5
endloop
endfacet
facet normal -0.500000000000001 -0.866025403784438 -2.03692251114568e-018
outer loop
vertex 1.2 2.07846096908265 0.5
vertex 1.69705627484772 1.69705627484771 2.5
vertex 1.2 2.07846096908265 2.5
endloop
endfacet
facet normal -0.707106781186549 -0.707106781186546 -6.21421141860888e-033
outer loop
vertex 1.69705627484772 1.69705627484771 2.5
vertex 2.07846096908266 1.2 0.5
vertex 2.07846096908266 1.2 2.5
endloop
endfacet
facet normal -0.86602540378444 -0.499999999999999 0.0
outer loop
vertex 2.07846096908266 1.2 0.5
vertex 1.69705627484772 1.69705627484771 2.5
vertex 1.69705627484772 1.69705627484771 0.5
endloop
endfacet
facet normal -0.86602540378444 -0.499999999999999 0.0
outer loop
vertex 2.07846096908266 1.2 2.5
vertex 2.31822198309377 0.621165708246046 0.5
vertex 2.31822198309377 0.621165708246046 2.5
endloop
endfacet
facet normal -0.965925826289069 -0.25881904510252 0.0
outer loop
vertex 2.31822198309377 0.621165708246046 0.5
vertex 2.07846096908266 1.2 2.5
vertex 2.07846096908266 1.2 0.5
endloop
endfacet
facet normal -0.965925826289069 -0.25881904510252 0.0
outer loop
vertex 2.31822198309377 0.621165708246046 2.5
vertex 2.4 -3.17246229286638e-015 0.5
vertex 2.4 -3.17246229286638e-015 2.5
endloop
endfacet
facet normal -1.0 1.14953317653845e-015 1.55316620365109e-032
outer loop
vertex 2.4 -3.17246229286638e-015 0.5
vertex 2.31822198309377 0.621165708246046 2.5
vertex 2.31822198309377 0.621165708246046 0.5
endloop
endfacet
facet normal -1.0 1.14953317653845e-015 1.55316620365109e-032
outer loop
vertex 2.4 -3.17246229286638e-015 2.5
vertex 2.31822198309376 -0.621165708246052 0.5
vertex 2.31822198309376 -0.621165708246052 2.5
endloop
endfacet
facet normal -0.965925826289068 0.258819045102522 1.55316620365109e-032
outer loop
vertex 2.31822198309376 -0.621165708246052 0.5
vertex 2.4 -3.17246229286638e-015 2.5
vertex 2.4 -3.17246229286638e-015 0.5
endloop
endfacet
facet normal -0.965925826289068 0.258819045102522 1.55316620365109e-032
outer loop
vertex 2.31822198309376 -0.621165708246052 2.5
vertex 2.07846096908265 -1.2 0.5
vertex 2.07846096908265 -1.2 2.5
endloop
endfacet
facet normal -0.866025403784438 0.500000000000001 -6.21421141860888e-033
outer loop
vertex 2.07846096908265 -1.2 0.5
vertex 2.31822198309376 -0.621165708246052 2.5
vertex 2.31822198309376 -0.621165708246052 0.5
endloop
endfacet
facet normal -0.866025403784438 0.500000000000001 -6.21421141860888e-033
outer loop
vertex 2.07846096908265 -1.2 2.5
vertex 1.69705627484771 -1.69705627484771 0.5
vertex 1.69705627484771 -1.69705627484771 2.5
endloop
endfacet
facet normal -0.707106781186547 0.707106781186548 -3.49829002865606e-018
outer loop
vertex 1.69705627484771 -1.69705627484771 0.5
vertex 2.07846096908265 -1.2 2.5
vertex 2.07846096908265 -1.2 0.5
endloop
endfacet
facet normal -0.5 0.866025403784439 -3.49829002865607e-018
outer loop
vertex 1.2 -2.07846096908265 2.5
vertex 1.69705627484771 -1.69705627484771 0.5
vertex 1.2 -2.07846096908265 0.5
endloop
endfacet
facet normal -0.707106781186547 0.707106781186548 -3.49829002865606e-018
outer loop
vertex 1.69705627484771 -1.69705627484771 0.5
vertex 1.2 -2.07846096908265 2.5
vertex 1.69705627484771 -1.69705627484771 2.5
endloop
endfacet
facet normal -0.258819045102521 0.965925826289068 -1.09294355250119e-018
outer loop
vertex 0.62116570824605 -2.31822198309376 2.5
vertex 1.2 -2.07846096908265 0.5
vertex 0.62116570824605 -2.31822198309376 0.5
endloop
endfacet
facet normal -0.5 0.866025403784439 -3.49829002865607e-018
outer loop
vertex 1.2 -2.07846096908265 0.5
vertex 0.62116570824605 -2.31822198309376 2.5
vertex 1.2 -2.07846096908265 2.5
endloop
endfacet
facet normal -6.77244352069165e-016 1.0 -1.09294355250118e-018
outer loop
vertex 1.23373533611471e-015 -2.4 2.5
vertex 0.62116570824605 -2.31822198309376 0.5
vertex 1.23373533611471e-015 -2.4 0.5
endloop
endfacet
facet normal -0.258819045102521 0.965925826289068 -1.09294355250119e-018
outer loop
vertex 0.62116570824605 -2.31822198309376 0.5
vertex 1.23373533611471e-015 -2.4 2.5
vertex 0.62116570824605 -2.31822198309376 2.5
endloop
endfacet
facet normal 0.25881904510252 0.965925826289068 -2.03692251114568e-018
outer loop
vertex -0.621165708246049 -2.31822198309376 2.5
vertex 1.23373533611471e-015 -2.4 0.5
vertex -0.621165708246049 -2.31822198309376 0.5
endloop
endfacet
facet normal -6.77244352069165e-016 1.0 -1.09294355250118e-018
outer loop
vertex 1.23373533611471e-015 -2.4 0.5
vertex -0.621165708246049 -2.31822198309376 2.5
vertex 1.23373533611471e-015 -2.4 2.5
endloop
endfacet
facet normal 0.5 0.866025403784439 6.47409839619815e-019
outer loop
vertex -1.2 -2.07846096908265 2.5
vertex -0.621165708246049 -2.31822198309376 0.5
vertex -1.2 -2.07846096908265 0.5
endloop
endfacet
facet normal 0.25881904510252 0.965925826289068 -2.03692251114568e-018
outer loop
vertex -0.621165708246049 -2.31822198309376 0.5
vertex -1.2 -2.07846096908265 2.5
vertex -0.621165708246049 -2.31822198309376 2.5
endloop
endfacet
facet normal 0.707106781186548 0.707106781186547 2.68433235076549e-018
outer loop
vertex -1.69705627484771 -1.69705627484771 2.5
vertex -1.2 -2.07846096908265 0.5
vertex -1.69705627484771 -1.69705627484771 0.5
endloop
endfacet
facet normal 0.5 0.866025403784439 6.47409839619815e-019
outer loop
vertex -1.2 -2.07846096908265 0.5
vertex -1.69705627484771 -1.69705627484771 2.5
vertex -1.2 -2.07846096908265 2.5
endloop
endfacet
facet normal 0.866025403784439 0.5 2.03692251114568e-018
outer loop
vertex -2.07846096908265 -1.2 0.5
vertex -1.69705627484771 -1.69705627484771 2.5
vertex -1.69705627484771 -1.69705627484771 0.5
endloop
endfacet
facet normal 0.707106781186548 0.707106781186547 2.68433235076549e-018
outer loop
vertex -1.69705627484771 -1.69705627484771 2.5
vertex -2.07846096908265 -1.2 0.5
vertex -2.07846096908265 -1.2 2.5
endloop
endfacet
facet normal 0.965925826289068 0.258819045102521 2.03692251114568e-018
outer loop
vertex -2.31822198309376 -0.62116570824605 0.5
vertex -2.07846096908265 -1.2 2.5
vertex -2.07846096908265 -1.2 0.5
endloop
endfacet
facet normal 0.866025403784439 0.5 2.03692251114568e-018
outer loop
vertex -2.07846096908265 -1.2 2.5
vertex -2.31822198309376 -0.62116570824605 0.5
vertex -2.31822198309376 -0.62116570824605 2.5
endloop
endfacet
facet normal 1.0 -2.85155516660701e-016 -1.09294355250118e-018
outer loop
vertex -2.4 7.04991620636974e-016 0.5
vertex -2.31822198309376 -0.62116570824605 2.5
vertex -2.31822198309376 -0.62116570824605 0.5
endloop
endfacet
facet normal 0.965925826289068 0.258819045102521 2.03692251114568e-018
outer loop
vertex -2.31822198309376 -0.62116570824605 2.5
vertex -2.4 7.04991620636974e-016 0.5
vertex -2.4 7.04991620636974e-016 2.5
endloop
endfacet
facet normal 0.965925826289068 -0.258819045102521 -1.09294355250118e-018
outer loop
vertex -2.31822198309376 0.621165708246051 0.5
vertex -2.4 7.04991620636974e-016 2.5
vertex -2.4 7.04991620636974e-016 0.5
endloop
endfacet
facet normal 1.0 -2.85155516660701e-016 -1.09294355250118e-018
outer loop
vertex -2.4 7.04991620636974e-016 2.5
vertex -2.31822198309376 0.621165708246051 0.5
vertex -2.31822198309376 0.621165708246051 2.5
endloop
endfacet
facet normal 0.866025403784438 -0.5 -7.71296086248379e-033
outer loop
vertex -2.07846096908265 1.2 0.5
vertex -2.31822198309376 0.621165708246051 2.5
vertex -2.31822198309376 0.621165708246051 0.5
endloop
endfacet
facet normal 0.965925826289068 -0.258819045102521 -1.09294355250118e-018
outer loop
vertex -2.31822198309376 0.621165708246051 2.5
vertex -2.07846096908265 1.2 0.5
vertex -2.07846096908265 1.2 2.5
endloop
endfacet
facet normal 0.707106781186547 -0.707106781186548 -2.68433235076549e-018
outer loop
vertex -1.69705627484771 1.69705627484771 0.5
vertex -2.07846096908265 1.2 2.5
vertex -2.07846096908265 1.2 0.5
endloop
endfacet
facet normal 0.866025403784438 -0.5 -7.71296086248379e-033
outer loop
vertex -2.07846096908265 1.2 2.5
vertex -1.69705627484771 1.69705627484771 0.5
vertex -1.69705627484771 1.69705627484771 2.5
endloop
endfacet
facet normal 0.5 -0.866025403784439 -6.47409839619808e-019
outer loop
vertex -1.2 2.07846096908265 2.5
vertex -1.69705627484771 1.69705627484771 0.5
vertex -1.2 2.07846096908265 0.5
endloop
endfacet
facet normal 0.707106781186547 -0.707106781186548 -2.68433235076549e-018
outer loop
vertex -1.69705627484771 1.69705627484771 0.5
vertex -1.2 2.07846096908265 2.5
vertex -1.69705627484771 1.69705627484771 2.5
endloop
endfacet
facet normal 0.25881904510252 -0.965925826289068 2.03692251114568e-018
outer loop
vertex -0.621165708246049 2.31822198309376 2.5
vertex -1.2 2.07846096908265 0.5
vertex -0.621165708246049 2.31822198309376 0.5
endloop
endfacet
facet normal 0.5 -0.866025403784439 -6.47409839619808e-019
outer loop
vertex -1.2 2.07846096908265 0.5
vertex -0.621165708246049 2.31822198309376 2.5
vertex -1.2 2.07846096908265 2.5
endloop
endfacet
facet normal -5.52488813530108e-016 -1.0 -1.09294355250117e-018
outer loop
vertex 7.04991620636974e-016 2.4 2.5
vertex -0.621165708246049 2.31822198309376 0.5
vertex 7.04991620636974e-016 2.4 0.5
endloop
endfacet
facet normal 0.25881904510252 -0.965925826289068 2.03692251114568e-018
outer loop
vertex -0.621165708246049 2.31822198309376 0.5
vertex 7.04991620636974e-016 2.4 2.5
vertex -0.621165708246049 2.31822198309376 2.5
endloop
endfacet
facet normal -0.258819045102521 -0.965925826289068 -3.12986606364685e-018
outer loop
vertex 0.621165708246051 2.31822198309376 2.5
vertex 7.04991620636974e-016 2.4 0.5
vertex 0.621165708246051 2.31822198309376 0.5
endloop
endfacet
facet normal -5.52488813530108e-016 -1.0 -1.09294355250117e-018
outer loop
vertex 7.04991620636974e-016 2.4 0.5
vertex 0.621165708246051 2.31822198309376 2.5
vertex 7.04991620636974e-016 2.4 2.5
endloop
endfacet
facet normal -0.500000000000001 -0.866025403784438 -2.03692251114568e-018
outer loop
vertex 1.2 2.07846096908265 2.5
vertex 0.621165708246051 2.31822198309376 0.5
vertex 1.2 2.07846096908265 0.5
endloop
endfacet
facet normal -0.258819045102521 -0.965925826289068 -3.12986606364685e-018
outer loop
vertex 0.621165708246051 2.31822198309376 0.5
vertex 1.2 2.07846096908265 2.5
vertex 0.621165708246051 2.31822198309376 2.5
endloop
endfacet
facet normal 0.0 0.0 -1.0
outer loop
vertex -4.82962913144534 1.2940952255126 0.0
vertex -4.82962913144534 -1.29409522551261 0.0
vertex -5.0 -1.60812264967664e-015 0.0
endloop
endfacet
facet normal 0.0 0.0 -1.0
outer loop
vertex -4.82962913144534 -1.29409522551261 0.0
vertex -4.82962913144534 1.2940952255126 0.0
vertex -4.33012701892219 2.5 0.0
endloop
endfacet
facet normal 0.0 0.0 -1.0
outer loop
vertex -4.82962913144534 -1.29409522551261 0.0
vertex -4.33012701892219 2.5 0.0
vertex -4.33012701892219 -2.5 0.0
endloop
endfacet
facet normal 0.0 0.0 -1.0
outer loop
vertex -4.33012701892219 -2.5 0.0
vertex -4.33012701892219 2.5 0.0
vertex -3.53553390593274 3.53553390593274 0.0
endloop
endfacet
facet normal 0.0 0.0 -1.0
outer loop
vertex -4.33012701892219 -2.5 0.0
vertex -3.53553390593274 3.53553390593274 0.0
vertex -3.53553390593273 -3.53553390593274 0.0
endloop
endfacet
facet normal 0.0 0.0 -1.0
outer loop
vertex -3.53553390593273 -3.53553390593274 0.0
vertex -3.53553390593274 3.53553390593274 0.0
vertex -2.5 4.33012701892219 0.0
endloop
endfacet
facet normal 0.0 0.0 -1.0
outer loop
vertex -3.53553390593273 -3.53553390593274 0.0
vertex -2.5 4.33012701892219 0.0
vertex -2.5 -4.33012701892219 0.0
endloop
endfacet
facet normal 0.0 0.0 -1.0
outer loop
vertex -2.5 -4.33012701892219 0.0
vertex -2.5 4.33012701892219 0.0
vertex -1.2940952255126 4.82962913144534 0.0
endloop
endfacet
facet normal 0.0 0.0 -1.0
outer loop
vertex -2.5 -4.33012701892219 0.0
vertex -1.2940952255126 4.82962913144534 0.0
vertex -1.2940952255126 -4.82962913144534 0.0
endloop
endfacet
facet normal 0.0 0.0 -1.0
outer loop
vertex -1.2940952255126 -4.82962913144534 0.0
vertex -1.2940952255126 4.82962913144534 0.0
vertex -9.18485099360515e-016 -5.0 0.0
endloop
endfacet
facet normal 0.0 0.0 -1.0
outer loop
vertex -9.18485099360515e-016 -5.0 0.0
vertex -1.2940952255126 4.82962913144534 0.0
vertex 1.41638472441199e-015 5.0 0.0
endloop
endfacet
facet normal 0.0 0.0 -1.0
outer loop
vertex -9.18485099360515e-016 -5.0 0.0
vertex 1.41638472441199e-015 5.0 0.0
vertex 1.2940952255126 -4.82962913144534 0.0
endloop
endfacet
facet normal 0.0 0.0 -1.0
outer loop
vertex 1.2940952255126 -4.82962913144534 0.0
vertex 1.41638472441199e-015 5.0 0.0
vertex 1.2940952255126 4.82962913144534 0.0
endloop
endfacet
facet normal 0.0 0.0 -1.0
outer loop
vertex 1.2940952255126 -4.82962913144534 0.0
vertex 1.2940952255126 4.82962913144534 0.0
vertex 2.5 -4.33012701892219 0.0
endloop
endfacet
facet normal 0.0 0.0 -1.0
outer loop
vertex 2.5 -4.33012701892219 0.0
vertex 1.2940952255126 4.82962913144534 0.0
vertex 2.5 4.33012701892219 0.0
endloop
endfacet
facet normal 0.0 0.0 -1.0
outer loop
vertex 2.5 -4.33012701892219 0.0
vertex 2.5 4.33012701892219 0.0
vertex 3.53553390593273 -3.53553390593274 0.0
endloop
endfacet
facet normal 0.0 0.0 -1.0
outer loop
vertex 3.53553390593273 -3.53553390593274 0.0
vertex 2.5 4.33012701892219 0.0
vertex 3.53553390593274 3.53553390593274 0.0
endloop
endfacet
facet normal 0.0 0.0 -1.0
outer loop
vertex 3.53553390593273 -3.53553390593274 0.0
vertex 3.53553390593274 3.53553390593274 0.0
vertex 4.33012701892219 -2.50000000000001 0.0
endloop
endfacet
facet normal 0.0 0.0 -1.0
outer loop
vertex 4.33012701892219 -2.50000000000001 0.0
vertex 3.53553390593274 3.53553390593274 0.0
vertex 4.33012701892219 2.5 0.0
endloop
endfacet
facet normal 0.0 0.0 -1.0
outer loop
vertex 4.33012701892219 -2.50000000000001 0.0
vertex 4.33012701892219 2.5 0.0
vertex 4.82962913144534 -1.29409522551261 0.0
endloop
endfacet
facet normal 0.0 0.0 -1.0
outer loop
vertex 4.82962913144534 -1.29409522551261 0.0
vertex 4.33012701892219 2.5 0.0
vertex 4.82962913144534 1.2940952255126 0.0
endloop
endfacet
facet normal 0.0 0.0 -1.0
outer loop
vertex 4.82962913144534 -1.29409522551261 0.0
vertex 4.82962913144534 1.2940952255126 0.0
vertex 5.0 -1.01064309961486e-014 0.0
endloop
endfacet
endsolid dowel-pin-cap
