solid tonearm-rod-clip-drive-gear
facet normal -0.0 1.0 -0.0
outer loop
vertex -0.126321861527798 9.12006804012854 6.79999999999999
vertex 1.8736781384722 9.12006804012854 0.0
vertex -0.126321861527793 9.12006804012854 0.0
endloop
endfacet
facet normal -0.0 1.0 -0.0
outer loop
vertex 1.8736781384722 9.12006804012854 0.0
vertex -0.126321861527798 9.12006804012854 6.79999999999999
vertex 1.87367813847219 9.12006804012854 6.79999999999999
endloop
endfacet
facet normal 0.0 -0.866025403784437 -0.500000000000003
outer loop
vertex 1.87367813847219 7.3191061458052 4.14999999999999
vertex -0.126321861527805 7.46895677956215 3.78822856765377
vertex 1.87367813847219 7.46895677956215 3.78822856765377
endloop
endfacet
facet normal 8.89361030808521e-019 -0.965925826289069 -0.25881904510252
outer loop
vertex -0.126321861527805 7.46895677956215 3.78822856765377
vertex 1.87367813847219 7.3191061458052 4.14999999999999
vertex -0.126321861527805 7.3191061458052 4.14999999999999
endloop
endfacet
facet normal 0.0 -9.26755429147278e-016 -1.0
outer loop
vertex 1.87367813847219 6.02006804012854 4.89999999999999
vertex -0.126321861527805 5.63183947247476 4.84888873943359
vertex -0.126321861527805 6.02006804012854 4.89999999999999
endloop
endfacet
facet normal 0.0 0.258819045102523 -0.965925826289068
outer loop
vertex -0.126321861527805 5.63183947247476 4.84888873943359
vertex 1.87367813847219 6.02006804012854 4.89999999999999
vertex 1.87367813847219 5.63183947247476 4.84888873943359
endloop
endfacet
facet normal 1.0 1.92718232989792e-032 1.2441028599476e-015
outer loop
vertex 1.8736781384722 2.72006804012855 0.0
vertex 1.8736781384722 4.72102993445189 2.64999999999999
vertex 1.87367813847219 2.72006804012856 6.79999999999999
endloop
endfacet
facet normal 1.0 1.92718232989792e-032 1.2441028599476e-015
outer loop
vertex 1.8736781384722 4.72102993445189 2.64999999999999
vertex 1.8736781384722 2.72006804012855 0.0
vertex 1.8736781384722 4.95940786834872 2.33933982822017
endloop
endfacet
facet normal 1.0 1.92718232989792e-032 1.2441028599476e-015
outer loop
vertex 1.8736781384722 4.95940786834872 2.33933982822017
vertex 1.8736781384722 2.72006804012855 0.0
vertex 1.8736781384722 5.27006804012855 2.10096189432333
endloop
endfacet
facet normal 1.0 1.92718232989792e-032 1.2441028599476e-015
outer loop
vertex 1.8736781384722 5.27006804012855 2.10096189432333
vertex 1.8736781384722 2.72006804012855 0.0
vertex 1.8736781384722 9.12006804012854 0.0
endloop
endfacet
facet normal 1.0 1.92718232989792e-032 1.2441028599476e-015
outer loop
vertex 1.87367813847219 2.72006804012856 6.79999999999999
vertex 1.8736781384722 4.72102993445189 2.64999999999999
vertex 1.8736781384722 4.57117930069494 3.01177143234621
endloop
endfacet
facet normal 1.0 1.92718232989792e-032 1.2441028599476e-015
outer loop
vertex 1.87367813847219 2.72006804012856 6.79999999999999
vertex 1.8736781384722 4.57117930069494 3.01177143234621
vertex 1.87367813847219 4.52006804012854 3.39999999999999
endloop
endfacet
facet normal 1.0 1.92718232989792e-032 1.2441028599476e-015
outer loop
vertex 1.8736781384722 5.27006804012855 2.10096189432333
vertex 1.8736781384722 9.12006804012854 0.0
vertex 1.8736781384722 5.63183947247476 1.95111126056639
endloop
endfacet
facet normal 1.0 1.92718232989792e-032 1.2441028599476e-015
outer loop
vertex 1.8736781384722 5.63183947247476 1.95111126056639
vertex 1.8736781384722 9.12006804012854 0.0
vertex 1.8736781384722 6.02006804012854 1.89999999999999
endloop
endfacet
facet normal 1.0 1.92718232989792e-032 1.2441028599476e-015
outer loop
vertex 1.8736781384722 6.02006804012854 1.89999999999999
vertex 1.8736781384722 9.12006804012854 0.0
vertex 1.8736781384722 6.40829660778233 1.95111126056639
endloop
endfacet
facet normal 1.0 1.92718232989792e-032 1.2441028599476e-015
outer loop
vertex 1.8736781384722 6.40829660778233 1.95111126056639
vertex 1.8736781384722 9.12006804012854 0.0
vertex 1.8736781384722 6.77006804012854 2.10096189432333
endloop
endfacet
facet normal 1.0 1.92718232989792e-032 1.2441028599476e-015
outer loop
vertex 1.8736781384722 6.77006804012854 2.10096189432333
vertex 1.8736781384722 9.12006804012854 0.0
vertex 1.8736781384722 7.08072821190836 2.33933982822017
endloop
endfacet
facet normal 1.0 1.92718232989792e-032 1.2441028599476e-015
outer loop
vertex 1.8736781384722 7.08072821190836 2.33933982822017
vertex 1.8736781384722 9.12006804012854 0.0
vertex 1.8736781384722 7.3191061458052 2.64999999999999
endloop
endfacet
facet normal 1.0 1.92718232989792e-032 1.2441028599476e-015
outer loop
vertex 1.8736781384722 7.3191061458052 2.64999999999999
vertex 1.8736781384722 9.12006804012854 0.0
vertex 1.8736781384722 7.46895677956215 3.01177143234621
endloop
endfacet
facet normal 1.0 1.92718232989792e-032 1.2441028599476e-015
outer loop
vertex 1.8736781384722 7.46895677956215 3.01177143234621
vertex 1.8736781384722 9.12006804012854 0.0
vertex 1.87367813847219 7.52006804012854 3.39999999999999
endloop
endfacet
facet normal 1.0 1.92718232989792e-032 1.2441028599476e-015
outer loop
vertex 1.87367813847219 2.72006804012856 6.79999999999999
vertex 1.87367813847219 5.27006804012855 4.69903810567665
vertex 1.87367813847219 9.12006804012854 6.79999999999999
endloop
endfacet
facet normal 1.0 1.92718232989792e-032 1.2441028599476e-015
outer loop
vertex 1.87367813847219 5.27006804012855 4.69903810567665
vertex 1.87367813847219 2.72006804012856 6.79999999999999
vertex 1.87367813847219 4.95940786834872 4.46066017177981
endloop
endfacet
facet normal 1.0 1.92718232989792e-032 1.2441028599476e-015
outer loop
vertex 1.87367813847219 4.95940786834872 4.46066017177981
vertex 1.87367813847219 2.72006804012856 6.79999999999999
vertex 1.87367813847219 4.72102993445189 4.14999999999999
endloop
endfacet
facet normal 1.0 1.92718232989792e-032 1.2441028599476e-015
outer loop
vertex 1.87367813847219 4.72102993445189 4.14999999999999
vertex 1.87367813847219 2.72006804012856 6.79999999999999
vertex 1.87367813847219 4.57117930069494 3.78822856765377
endloop
endfacet
facet normal 1.0 1.92718232989792e-032 1.2441028599476e-015
outer loop
vertex 1.87367813847219 4.57117930069494 3.78822856765377
vertex 1.87367813847219 2.72006804012856 6.79999999999999
vertex 1.87367813847219 4.52006804012854 3.39999999999999
endloop
endfacet
facet normal 1.0 1.92718232989792e-032 1.2441028599476e-015
outer loop
vertex 1.87367813847219 9.12006804012854 6.79999999999999
vertex 1.87367813847219 5.27006804012855 4.69903810567665
vertex 1.87367813847219 5.63183947247476 4.84888873943359
endloop
endfacet
facet normal 1.0 1.92718232989792e-032 1.2441028599476e-015
outer loop
vertex 1.87367813847219 9.12006804012854 6.79999999999999
vertex 1.87367813847219 5.63183947247476 4.84888873943359
vertex 1.87367813847219 6.02006804012854 4.89999999999999
endloop
endfacet
facet normal 1.0 1.92718232989792e-032 1.2441028599476e-015
outer loop
vertex 1.87367813847219 9.12006804012854 6.79999999999999
vertex 1.87367813847219 6.02006804012854 4.89999999999999
vertex 1.87367813847219 6.40829660778232 4.84888873943359
endloop
endfacet
facet normal 1.0 1.92718232989792e-032 1.2441028599476e-015
outer loop
vertex 1.87367813847219 9.12006804012854 6.79999999999999
vertex 1.87367813847219 6.40829660778232 4.84888873943359
vertex 1.87367813847219 6.77006804012854 4.69903810567665
endloop
endfacet
facet normal 1.0 1.92718232989792e-032 1.2441028599476e-015
outer loop
vertex 1.87367813847219 9.12006804012854 6.79999999999999
vertex 1.87367813847219 6.77006804012854 4.69903810567665
vertex 1.87367813847219 7.08072821190836 4.46066017177981
endloop
endfacet
facet normal 1.0 1.92718232989792e-032 1.2441028599476e-015
outer loop
vertex 1.87367813847219 9.12006804012854 6.79999999999999
vertex 1.87367813847219 7.08072821190836 4.46066017177981
vertex 1.87367813847219 7.3191061458052 4.14999999999999
endloop
endfacet
facet normal 1.0 1.92718232989792e-032 1.2441028599476e-015
outer loop
vertex 1.87367813847219 9.12006804012854 6.79999999999999
vertex 1.87367813847219 7.3191061458052 4.14999999999999
vertex 1.87367813847219 7.46895677956215 3.78822856765377
endloop
endfacet
facet normal 1.0 1.92718232989792e-032 1.2441028599476e-015
outer loop
vertex 1.87367813847219 9.12006804012854 6.79999999999999
vertex 1.87367813847219 7.46895677956215 3.78822856765377
vertex 1.87367813847219 7.52006804012854 3.39999999999999
endloop
endfacet
facet normal 1.0 1.92718232989792e-032 1.2441028599476e-015
outer loop
vertex 1.87367813847219 9.12006804012854 6.79999999999999
vertex 1.87367813847219 7.52006804012854 3.39999999999999
vertex 1.8736781384722 9.12006804012854 0.0
endloop
endfacet
facet normal 0.0 -1.0 0.0
outer loop
vertex 1.8736781384722 -9.47993195987143 2.8199664825479e-015
vertex -0.126321861527798 -9.47993195987143 6.79999999999999
vertex -0.126321861527793 -9.47993195987143 0.0
endloop
endfacet
facet normal 0.0 -1.0 0.0
outer loop
vertex -0.126321861527798 -9.47993195987143 6.79999999999999
vertex 1.8736781384722 -9.47993195987143 2.8199664825479e-015
vertex 1.87367813847219 -9.47993195987143 6.79999999999999
endloop
endfacet
facet normal 1.0 2.20309881449055e-016 1.03675238328967e-015
outer loop
vertex 1.8736781384722 -9.47993195987143 2.8199664825479e-015
vertex 1.8736781384722 -7.67897006554811 2.64999999999999
vertex 1.87367813847219 -9.47993195987143 6.79999999999999
endloop
endfacet
facet normal 1.0 2.20309881449055e-016 1.03675238328967e-015
outer loop
vertex 1.8736781384722 -7.67897006554811 2.64999999999999
vertex 1.8736781384722 -9.47993195987143 2.8199664825479e-015
vertex 1.8736781384722 -7.44059213165127 2.33933982822017
endloop
endfacet
facet normal 1.0 2.20309881449055e-016 1.03675238328967e-015
outer loop
vertex 1.8736781384722 -7.44059213165127 2.33933982822017
vertex 1.8736781384722 -9.47993195987143 2.8199664825479e-015
vertex 1.8736781384722 -7.12993195987145 2.10096189432333
endloop
endfacet
facet normal 1.0 2.20309881449055e-016 1.03675238328967e-015
outer loop
vertex 1.8736781384722 -7.12993195987145 2.10096189432333
vertex 1.8736781384722 -9.47993195987143 2.8199664825479e-015
vertex 1.8736781384722 -3.07993195987145 2.8199664825479e-015
endloop
endfacet
facet normal 1.0 2.20309881449055e-016 1.03675238328967e-015
outer loop
vertex 1.87367813847219 -9.47993195987143 6.79999999999999
vertex 1.8736781384722 -7.67897006554811 2.64999999999999
vertex 1.8736781384722 -7.82882069930505 3.01177143234621
endloop
endfacet
facet normal 1.0 2.20309881449055e-016 1.03675238328967e-015
outer loop
vertex 1.87367813847219 -9.47993195987143 6.79999999999999
vertex 1.8736781384722 -7.82882069930505 3.01177143234621
vertex 1.8736781384722 -7.87993195987145 3.39999999999999
endloop
endfacet
facet normal 1.0 2.20309881449055e-016 1.03675238328967e-015
outer loop
vertex 1.8736781384722 -7.12993195987145 2.10096189432333
vertex 1.8736781384722 -3.07993195987145 2.8199664825479e-015
vertex 1.8736781384722 -6.76816052752523 1.95111126056639
endloop
endfacet
facet normal 1.0 2.20309881449055e-016 1.03675238328967e-015
outer loop
vertex 1.8736781384722 -6.76816052752523 1.95111126056639
vertex 1.8736781384722 -3.07993195987145 2.8199664825479e-015
vertex 1.8736781384722 -6.37993195987145 1.89999999999999
endloop
endfacet
facet normal 1.0 2.20309881449055e-016 1.03675238328967e-015
outer loop
vertex 1.8736781384722 -6.37993195987145 1.89999999999999
vertex 1.8736781384722 -3.07993195987145 2.8199664825479e-015
vertex 1.8736781384722 -5.99170339221767 1.95111126056639
endloop
endfacet
facet normal 1.0 2.20309881449055e-016 1.03675238328967e-015
outer loop
vertex 1.8736781384722 -5.99170339221767 1.95111126056639
vertex 1.8736781384722 -3.07993195987145 2.8199664825479e-015
vertex 1.8736781384722 -5.62993195987145 2.10096189432333
endloop
endfacet
facet normal 1.0 2.20309881449055e-016 1.03675238328967e-015
outer loop
vertex 1.8736781384722 -5.62993195987145 2.10096189432333
vertex 1.8736781384722 -3.07993195987145 2.8199664825479e-015
vertex 1.8736781384722 -5.31927178809163 2.33933982822017
endloop
endfacet
facet normal 1.0 2.20309881449055e-016 1.03675238328967e-015
outer loop
vertex 1.8736781384722 -5.31927178809163 2.33933982822017
vertex 1.8736781384722 -3.07993195987145 2.8199664825479e-015
vertex 1.8736781384722 -5.08089385419479 2.64999999999999
endloop
endfacet
facet normal 1.0 2.20309881449055e-016 1.03675238328967e-015
outer loop
vertex 1.8736781384722 -5.08089385419479 2.64999999999999
vertex 1.8736781384722 -3.07993195987145 2.8199664825479e-015
vertex 1.8736781384722 -4.93104322043785 3.01177143234621
endloop
endfacet
facet normal 1.0 2.20309881449055e-016 1.03675238328967e-015
outer loop
vertex 1.8736781384722 -4.93104322043785 3.01177143234621
vertex 1.8736781384722 -3.07993195987145 2.8199664825479e-015
vertex 1.8736781384722 -4.87993195987145 3.39999999999999
endloop
endfacet
facet normal 1.0 2.20309881449055e-016 1.03675238328967e-015
outer loop
vertex 1.87367813847219 -9.47993195987143 6.79999999999999
vertex 1.87367813847219 -7.12993195987145 4.69903810567665
vertex 1.87367813847219 -3.07993195987145 6.79999999999999
endloop
endfacet
facet normal 1.0 2.20309881449055e-016 1.03675238328967e-015
outer loop
vertex 1.87367813847219 -7.12993195987145 4.69903810567665
vertex 1.87367813847219 -9.47993195987143 6.79999999999999
vertex 1.87367813847219 -7.44059213165127 4.46066017177981
endloop
endfacet
facet normal 1.0 2.20309881449055e-016 1.03675238328967e-015
outer loop
vertex 1.87367813847219 -7.44059213165127 4.46066017177981
vertex 1.87367813847219 -9.47993195987143 6.79999999999999
vertex 1.8736781384722 -7.67897006554811 4.14999999999999
endloop
endfacet
facet normal 1.0 2.20309881449055e-016 1.03675238328967e-015
outer loop
vertex 1.8736781384722 -7.67897006554811 4.14999999999999
vertex 1.87367813847219 -9.47993195987143 6.79999999999999
vertex 1.8736781384722 -7.82882069930505 3.78822856765377
endloop
endfacet
facet normal 1.0 2.20309881449055e-016 1.03675238328967e-015
outer loop
vertex 1.8736781384722 -7.82882069930505 3.78822856765377
vertex 1.87367813847219 -9.47993195987143 6.79999999999999
vertex 1.8736781384722 -7.87993195987145 3.39999999999999
endloop
endfacet
facet normal 1.0 2.20309881449055e-016 1.03675238328967e-015
outer loop
vertex 1.87367813847219 -3.07993195987145 6.79999999999999
vertex 1.87367813847219 -7.12993195987145 4.69903810567665
vertex 1.87367813847219 -6.76816052752523 4.84888873943359
endloop
endfacet
facet normal 1.0 2.20309881449055e-016 1.03675238328967e-015
outer loop
vertex 1.87367813847219 -3.07993195987145 6.79999999999999
vertex 1.87367813847219 -6.76816052752523 4.84888873943359
vertex 1.87367813847219 -6.37993195987145 4.89999999999999
endloop
endfacet
facet normal 1.0 2.20309881449055e-016 1.03675238328967e-015
outer loop
vertex 1.87367813847219 -3.07993195987145 6.79999999999999
vertex 1.87367813847219 -6.37993195987145 4.89999999999999
vertex 1.87367813847219 -5.99170339221767 4.84888873943359
endloop
endfacet
facet normal 1.0 2.20309881449055e-016 1.03675238328967e-015
outer loop
vertex 1.87367813847219 -3.07993195987145 6.79999999999999
vertex 1.87367813847219 -5.99170339221767 4.84888873943359
vertex 1.87367813847219 -5.62993195987145 4.69903810567665
endloop
endfacet
facet normal 1.0 2.20309881449055e-016 1.03675238328967e-015
outer loop
vertex 1.87367813847219 -3.07993195987145 6.79999999999999
vertex 1.87367813847219 -5.62993195987145 4.69903810567665
vertex 1.87367813847219 -5.31927178809163 4.46066017177981
endloop
endfacet
facet normal 1.0 2.20309881449055e-016 1.03675238328967e-015
outer loop
vertex 1.87367813847219 -3.07993195987145 6.79999999999999
vertex 1.87367813847219 -5.31927178809163 4.46066017177981
vertex 1.87367813847219 -5.08089385419479 4.14999999999999
endloop
endfacet
facet normal 1.0 2.20309881449055e-016 1.03675238328967e-015
outer loop
vertex 1.87367813847219 -3.07993195987145 6.79999999999999
vertex 1.87367813847219 -5.08089385419479 4.14999999999999
vertex 1.87367813847219 -4.93104322043785 3.78822856765377
endloop
endfacet
facet normal 1.0 2.20309881449055e-016 1.03675238328967e-015
outer loop
vertex 1.87367813847219 -3.07993195987145 6.79999999999999
vertex 1.87367813847219 -4.93104322043785 3.78822856765377
vertex 1.8736781384722 -4.87993195987145 3.39999999999999
endloop
endfacet
facet normal 1.0 2.20309881449055e-016 1.03675238328967e-015
outer loop
vertex 1.87367813847219 -3.07993195987145 6.79999999999999
vertex 1.8736781384722 -4.87993195987145 3.39999999999999
vertex 1.8736781384722 -3.07993195987145 2.8199664825479e-015
endloop
endfacet
facet normal 8.89361030808522e-019 -0.965925826289069 -0.258819045102519
outer loop
vertex 1.87367813847219 7.46895677956215 3.78822856765377
vertex -0.126321861527804 7.52006804012854 3.39999999999999
vertex 1.87367813847219 7.52006804012854 3.39999999999999
endloop
endfacet
facet normal 8.08220732712598e-019 -1.0 8.91110989564689e-017
outer loop
vertex -0.126321861527804 7.52006804012854 3.39999999999999
vertex 1.87367813847219 7.46895677956215 3.78822856765377
vertex -0.126321861527805 7.46895677956215 3.78822856765377
endloop
endfacet
facet normal 0.0 0.500000000000001 -0.866025403784438
outer loop
vertex 1.87367813847219 5.27006804012855 4.69903810567665
vertex -0.126321861527805 4.95940786834872 4.46066017177981
vertex -0.126321861527805 5.27006804012855 4.69903810567665
endloop
endfacet
facet normal 0.0 0.707106781186546 -0.707106781186549
outer loop
vertex -0.126321861527805 4.95940786834872 4.46066017177981
vertex 1.87367813847219 5.27006804012855 4.69903810567665
vertex 1.87367813847219 4.95940786834872 4.46066017177981
endloop
endfacet
facet normal 0.0 -0.258819045102521 -0.965925826289068
outer loop
vertex 1.87367813847219 6.40829660778232 4.84888873943359
vertex -0.126321861527805 6.02006804012854 4.89999999999999
vertex -0.126321861527805 6.40829660778232 4.84888873943359
endloop
endfacet
facet normal 0.0 -9.26755429147278e-016 -1.0
outer loop
vertex -0.126321861527805 6.02006804012854 4.89999999999999
vertex 1.87367813847219 6.40829660778232 4.84888873943359
vertex 1.87367813847219 6.02006804012854 4.89999999999999
endloop
endfacet
facet normal 0.0 -0.707106781186547 -0.707106781186548
outer loop
vertex 1.87367813847219 7.08072821190836 4.46066017177981
vertex -0.126321861527805 7.3191061458052 4.14999999999999
vertex 1.87367813847219 7.3191061458052 4.14999999999999
endloop
endfacet
facet normal 0.0 -0.866025403784437 -0.500000000000003
outer loop
vertex -0.126321861527805 7.3191061458052 4.14999999999999
vertex 1.87367813847219 7.08072821190836 4.46066017177981
vertex -0.126321861527805 7.08072821190836 4.46066017177981
endloop
endfacet
facet normal 0.0 0.258819045102523 -0.965925826289068
outer loop
vertex 1.87367813847219 5.63183947247476 4.84888873943359
vertex -0.126321861527805 5.27006804012855 4.69903810567665
vertex -0.126321861527805 5.63183947247476 4.84888873943359
endloop
endfacet
facet normal 0.0 0.500000000000001 -0.866025403784438
outer loop
vertex -0.126321861527805 5.27006804012855 4.69903810567665
vertex 1.87367813847219 5.63183947247476 4.84888873943359
vertex 1.87367813847219 5.27006804012855 4.69903810567665
endloop
endfacet
facet normal 0.0 -0.500000000000001 -0.866025403784438
outer loop
vertex 1.87367813847219 6.77006804012854 4.69903810567665
vertex -0.126321861527805 6.40829660778232 4.84888873943359
vertex -0.126321861527805 6.77006804012854 4.69903810567665
endloop
endfacet
facet normal 0.0 -0.258819045102521 -0.965925826289068
outer loop
vertex -0.126321861527805 6.40829660778232 4.84888873943359
vertex 1.87367813847219 6.77006804012854 4.69903810567665
vertex 1.87367813847219 6.40829660778232 4.84888873943359
endloop
endfacet
facet normal -1.38545490144877e-018 0.866025403784438 0.500000000000001
outer loop
vertex -0.126322682369032 -7.67897006554811 2.64999999999999
vertex 1.8736781384722 -7.44059213165127 2.33933982822017
vertex -0.126322682369031 -7.44059213165127 2.33933982822017
endloop
endfacet
facet normal -1.38545490144877e-018 0.707106781186549 0.707106781186546
outer loop
vertex 1.8736781384722 -7.44059213165127 2.33933982822017
vertex -0.126322682369032 -7.67897006554811 2.64999999999999
vertex 1.8736781384722 -7.67897006554811 2.64999999999999
endloop
endfacet
facet normal -1.38545490144877e-018 0.707106781186549 0.707106781186546
outer loop
vertex 1.8736781384722 -7.44059213165127 2.33933982822017
vertex -0.126322682369031 -7.12993195987145 2.10096189432333
vertex -0.126322682369031 -7.44059213165127 2.33933982822017
endloop
endfacet
facet normal 0.0 0.499999999999999 0.866025403784439
outer loop
vertex -0.126322682369031 -7.12993195987145 2.10096189432333
vertex 1.8736781384722 -7.44059213165127 2.33933982822017
vertex 1.8736781384722 -7.12993195987145 2.10096189432333
endloop
endfacet
facet normal -2.3254846395948e-017 -1.0 6.32688802590932e-016
outer loop
vertex 1.8736781384722 -4.87993195987145 3.39999999999999
vertex -0.126322682369032 -4.93104322043785 3.01177143234621
vertex 1.8736781384722 -4.93104322043785 3.01177143234621
endloop
endfacet
facet normal -1.6373946200402e-016 -0.965925826289069 0.25881904510252
outer loop
vertex -0.126322682369032 -4.93104322043785 3.01177143234621
vertex 1.8736781384722 -4.87993195987145 3.39999999999999
vertex -0.126322682369034 -4.87993195987145 3.39999999999999
endloop
endfacet
facet normal -9.17977985705858e-017 -0.258819045102522 0.965925826289068
outer loop
vertex -0.126322682369031 -5.99170339221767 1.95111126056639
vertex 1.8736781384722 -5.62993195987145 2.10096189432333
vertex -0.126322682369032 -5.62993195987145 2.10096189432333
endloop
endfacet
facet normal -1.77490988690658e-016 -0.5 0.866025403784439
outer loop
vertex 1.8736781384722 -5.62993195987145 2.10096189432333
vertex -0.126322682369031 -5.99170339221767 1.95111126056639
vertex 1.8736781384722 -5.99170339221767 1.95111126056639
endloop
endfacet
facet normal -3.0565275741536e-016 -0.86602540378444 0.499999999999999
outer loop
vertex 1.8736781384722 -5.08089385419479 2.64999999999999
vertex -0.126322682369032 -5.31927178809163 2.33933982822017
vertex 1.8736781384722 -5.31927178809163 2.33933982822017
endloop
endfacet
facet normal -2.50396000831169e-016 -0.707106781186548 0.707106781186547
outer loop
vertex -0.126322682369032 -5.31927178809163 2.33933982822017
vertex 1.8736781384722 -5.08089385419479 2.64999999999999
vertex -0.126322682369032 -5.08089385419479 2.64999999999999
endloop
endfacet
facet normal -1.59295417535314e-016 0.965925826289069 -0.25881904510252
outer loop
vertex -0.126322682369032 -7.82882069930505 3.78822856765378
vertex 1.8736781384722 -7.67897006554811 4.14999999999999
vertex 1.8736781384722 -7.82882069930505 3.78822856765377
endloop
endfacet
facet normal -3.5402437747265e-016 0.866025403784438 -0.5
outer loop
vertex 1.8736781384722 -7.67897006554811 4.14999999999999
vertex -0.126322682369032 -7.82882069930505 3.78822856765378
vertex -0.126322682369034 -7.67897006554811 4.14999999999999
endloop
endfacet
facet normal -1.0903677307871e-015 -0.5 -0.866025403784439
outer loop
vertex 1.87367813847219 -5.62993195987145 4.69903810567665
vertex -0.126322682369034 -5.99170339221767 4.8488887394336
vertex -0.126322682369034 -5.62993195987145 4.69903810567665
endloop
endfacet
facet normal -9.60515761839993e-016 -0.258819045102521 -0.965925826289068
outer loop
vertex -0.126322682369034 -5.99170339221767 4.8488887394336
vertex 1.87367813847219 -5.62993195987145 4.69903810567665
vertex 1.87367813847219 -5.99170339221767 4.84888873943359
endloop
endfacet
facet normal -9.60515761839993e-016 -0.258819045102521 -0.965925826289068
outer loop
vertex 1.87367813847219 -5.99170339221767 4.84888873943359
vertex -0.126322682369034 -6.37993195987145 4.89999999999999
vertex -0.126322682369034 -5.99170339221767 4.8488887394336
endloop
endfacet
facet normal -7.29063136215964e-016 -4.18822165095405e-016 -1.0
outer loop
vertex -0.126322682369034 -6.37993195987145 4.89999999999999
vertex 1.87367813847219 -5.99170339221767 4.84888873943359
vertex 1.87367813847219 -6.37993195987145 4.89999999999999
endloop
endfacet
facet normal 1.0 -0.0 -0.0
outer loop
vertex 3.87367813847219 2.72006804012856 5.63993296509579e-015
vertex 3.87367813847219 -3.07993195987145 6.79999999999999
vertex 3.87367813847219 -3.07993195987145 5.63993296509579e-015
endloop
endfacet
facet normal 1.0 -0.0 -0.0
outer loop
vertex 3.87367813847219 -3.07993195987145 6.79999999999999
vertex 3.87367813847219 2.72006804012856 5.63993296509579e-015
vertex 3.87367813847219 2.72006804012856 6.79999999999999
endloop
endfacet
facet normal -4.92764444654872e-016 -0.866025403784439 -0.5
outer loop
vertex 1.87367813847219 -5.08089385419479 4.14999999999999
vertex -0.126322682369034 -4.93104322043785 3.78822856765378
vertex 1.87367813847219 -4.93104322043785 3.78822856765377
endloop
endfacet
facet normal -1.58482749873501e-016 -0.965925826289068 -0.258819045102521
outer loop
vertex -0.126322682369034 -4.93104322043785 3.78822856765378
vertex 1.87367813847219 -5.08089385419479 4.14999999999999
vertex -0.126322682369034 -5.08089385419479 4.14999999999999
endloop
endfacet
facet normal -8.86686015052279e-016 -0.707106781186548 -0.707106781186547
outer loop
vertex 1.87367813847219 -5.31927178809163 4.46066017177981
vertex -0.126322682369034 -5.62993195987145 4.69903810567665
vertex -0.126322682369034 -5.31927178809163 4.46066017177982
endloop
endfacet
facet normal -1.0903677307871e-015 -0.5 -0.866025403784439
outer loop
vertex -0.126322682369034 -5.62993195987145 4.69903810567665
vertex 1.87367813847219 -5.31927178809163 4.46066017177981
vertex 1.87367813847219 -5.62993195987145 4.69903810567665
endloop
endfacet
facet normal -7.29063136215964e-016 -3.02977736451995e-016 -1.0
outer loop
vertex 1.87367813847219 -6.37993195987145 4.89999999999999
vertex -0.126322682369034 -6.76816052752523 4.8488887394336
vertex -0.126322682369034 -6.37993195987145 4.89999999999999
endloop
endfacet
facet normal -8.21914679492552e-016 0.258819045102521 -0.965925826289068
outer loop
vertex -0.126322682369034 -6.76816052752523 4.8488887394336
vertex 1.87367813847219 -6.37993195987145 4.89999999999999
vertex 1.87367813847219 -6.76816052752523 4.84888873943359
endloop
endfacet
facet normal -8.21914679492552e-016 0.258819045102521 -0.965925826289068
outer loop
vertex 1.87367813847219 -6.76816052752523 4.84888873943359
vertex -0.126322682369034 -7.12993195987145 4.69903810567665
vertex -0.126322682369034 -6.76816052752523 4.8488887394336
endloop
endfacet
facet normal -9.13459985088964e-016 0.499999999999999 -0.866025403784439
outer loop
vertex -0.126322682369034 -7.12993195987145 4.69903810567665
vertex 1.87367813847219 -6.76816052752523 4.84888873943359
vertex 1.87367813847219 -7.12993195987145 4.69903810567665
endloop
endfacet
facet normal 0.0 0.499999999999999 0.866025403784439
outer loop
vertex 1.8736781384722 -7.12993195987145 2.10096189432333
vertex -0.126322682369031 -6.76816052752523 1.95111126056639
vertex -0.126322682369031 -7.12993195987145 2.10096189432333
endloop
endfacet
facet normal 2.30221808478522e-017 0.258819045102519 0.965925826289069
outer loop
vertex -0.126322682369031 -6.76816052752523 1.95111126056639
vertex 1.8736781384722 -7.12993195987145 2.10096189432333
vertex 1.8736781384722 -6.76816052752523 1.95111126056639
endloop
endfacet
facet normal -1.77490988690658e-016 -0.5 0.866025403784439
outer loop
vertex 1.8736781384722 -5.62993195987145 2.10096189432333
vertex -0.126322682369032 -5.31927178809163 2.33933982822017
vertex -0.126322682369032 -5.62993195987145 2.10096189432333
endloop
endfacet
facet normal -2.50396000831169e-016 -0.707106781186548 0.707106781186547
outer loop
vertex -0.126322682369032 -5.31927178809163 2.33933982822017
vertex 1.8736781384722 -5.62993195987145 2.10096189432333
vertex 1.8736781384722 -5.31927178809163 2.33933982822017
endloop
endfacet
facet normal 0.0 -0.707106781186547 -0.707106781186548
outer loop
vertex 1.87367813847219 7.08072821190836 4.46066017177981
vertex -0.126321861527805 6.77006804012854 4.69903810567665
vertex -0.126321861527805 7.08072821190836 4.46066017177981
endloop
endfacet
facet normal 0.0 -0.500000000000001 -0.866025403784438
outer loop
vertex -0.126321861527805 6.77006804012854 4.69903810567665
vertex 1.87367813847219 7.08072821190836 4.46066017177981
vertex 1.87367813847219 6.77006804012854 4.69903810567665
endloop
endfacet
facet normal 0.0 0.965925826289069 0.25881904510252
outer loop
vertex -0.126322682369032 -7.82882069930505 3.01177143234621
vertex 1.8736781384722 -7.67897006554811 2.64999999999999
vertex -0.126322682369032 -7.67897006554811 2.64999999999999
endloop
endfacet
facet normal -1.38545490144877e-018 0.866025403784438 0.500000000000001
outer loop
vertex 1.8736781384722 -7.67897006554811 2.64999999999999
vertex -0.126322682369032 -7.82882069930505 3.01177143234621
vertex 1.8736781384722 -7.82882069930505 3.01177143234621
endloop
endfacet
facet normal -3.54024377472651e-016 0.866025403784438 -0.500000000000001
outer loop
vertex -0.126322682369034 -7.67897006554811 4.14999999999999
vertex 1.87367813847219 -7.44059213165127 4.46066017177981
vertex 1.8736781384722 -7.67897006554811 4.14999999999999
endloop
endfacet
facet normal -6.39294743217803e-016 0.707106781186548 -0.707106781186547
outer loop
vertex 1.87367813847219 -7.44059213165127 4.46066017177981
vertex -0.126322682369034 -7.67897006554811 4.14999999999999
vertex -0.126322682369034 -7.44059213165127 4.46066017177982
endloop
endfacet
facet normal -9.13459985088964e-016 0.5 -0.866025403784439
outer loop
vertex 1.87367813847219 -7.12993195987145 4.69903810567665
vertex -0.126322682369034 -7.44059213165127 4.46066017177982
vertex -0.126322682369034 -7.12993195987145 4.69903810567665
endloop
endfacet
facet normal -6.39294743217804e-016 0.707106781186548 -0.707106781186547
outer loop
vertex -0.126322682369034 -7.44059213165127 4.46066017177982
vertex 1.87367813847219 -7.12993195987145 4.69903810567665
vertex 1.87367813847219 -7.44059213165127 4.46066017177981
endloop
endfacet
facet normal 3.52495810318487e-016 -1.0 1.03675238328967e-016
outer loop
vertex 3.87367813847219 -3.07993195987145 5.63993296509579e-015
vertex 1.87367813847219 -3.07993195987145 6.79999999999999
vertex 1.8736781384722 -3.07993195987145 2.8199664825479e-015
endloop
endfacet
facet normal 3.52495810318487e-016 -1.0 1.03675238328967e-016
outer loop
vertex 1.87367813847219 -3.07993195987145 6.79999999999999
vertex 3.87367813847219 -3.07993195987145 5.63993296509579e-015
vertex 3.87367813847219 -3.07993195987145 6.79999999999999
endloop
endfacet
facet normal -1.59295417535314e-016 0.965925826289069 -0.25881904510252
outer loop
vertex -0.126322682369032 -7.82882069930505 3.78822856765378
vertex 1.8736781384722 -7.87993195987145 3.39999999999999
vertex -0.126322682369032 -7.87993195987145 3.39999999999999
endloop
endfacet
facet normal -2.30221808478508e-017 1.0 -9.80222088521159e-017
outer loop
vertex 1.8736781384722 -7.87993195987145 3.39999999999999
vertex -0.126322682369032 -7.82882069930505 3.78822856765378
vertex 1.8736781384722 -7.82882069930505 3.78822856765377
endloop
endfacet
facet normal -1.584827498735e-016 -0.965925826289068 -0.258819045102521
outer loop
vertex 1.87367813847219 -4.93104322043785 3.78822856765377
vertex -0.126322682369034 -4.87993195987145 3.39999999999999
vertex 1.8736781384722 -4.87993195987145 3.39999999999999
endloop
endfacet
facet normal -2.32548463959481e-017 -1.0 1.87133307808585e-016
outer loop
vertex -0.126322682369034 -4.87993195987145 3.39999999999999
vertex 1.87367813847219 -4.93104322043785 3.78822856765377
vertex -0.126322682369034 -4.93104322043785 3.78822856765378
endloop
endfacet
facet normal 1.06847849316013e-031 3.11888846347642e-016 1.0
outer loop
vertex 1.8736781384722 -6.37993195987145 1.89999999999999
vertex -0.126322682369031 -5.99170339221767 1.95111126056639
vertex -0.126322682369031 -6.37993195987145 1.89999999999999
endloop
endfacet
facet normal -9.17977985705858e-017 -0.258819045102522 0.965925826289068
outer loop
vertex -0.126322682369031 -5.99170339221767 1.95111126056639
vertex 1.8736781384722 -6.37993195987145 1.89999999999999
vertex 1.8736781384722 -5.99170339221767 1.95111126056639
endloop
endfacet
facet normal -2.30221808478508e-017 1.0 -9.80222088521159e-017
outer loop
vertex -0.126322682369032 -7.87993195987145 3.39999999999999
vertex 1.8736781384722 -7.82882069930505 3.01177143234621
vertex -0.126322682369032 -7.82882069930505 3.01177143234621
endloop
endfacet
facet normal 0.0 0.965925826289069 0.25881904510252
outer loop
vertex 1.8736781384722 -7.82882069930505 3.01177143234621
vertex -0.126322682369032 -7.87993195987145 3.39999999999999
vertex 1.8736781384722 -7.87993195987145 3.39999999999999
endloop
endfacet
facet normal -1.6373946200402e-016 -0.965925826289068 0.25881904510252
outer loop
vertex 1.8736781384722 -4.93104322043785 3.01177143234621
vertex -0.126322682369032 -5.08089385419479 2.64999999999999
vertex 1.8736781384722 -5.08089385419479 2.64999999999999
endloop
endfacet
facet normal -3.0565275741536e-016 -0.866025403784439 0.499999999999999
outer loop
vertex -0.126322682369032 -5.08089385419479 2.64999999999999
vertex 1.8736781384722 -4.93104322043785 3.01177143234621
vertex -0.126322682369032 -4.93104322043785 3.01177143234621
endloop
endfacet
facet normal -8.86686015052279e-016 -0.707106781186548 -0.707106781186547
outer loop
vertex 1.87367813847219 -5.31927178809163 4.46066017177981
vertex -0.126322682369034 -5.08089385419479 4.14999999999999
vertex 1.87367813847219 -5.08089385419479 4.14999999999999
endloop
endfacet
facet normal -4.92764444654872e-016 -0.866025403784439 -0.5
outer loop
vertex -0.126322682369034 -5.08089385419479 4.14999999999999
vertex 1.87367813847219 -5.31927178809163 4.46066017177981
vertex -0.126322682369034 -5.31927178809163 4.46066017177982
endloop
endfacet
facet normal 2.30221808478522e-017 0.258819045102519 0.965925826289069
outer loop
vertex 1.8736781384722 -6.76816052752523 1.95111126056639
vertex -0.126322682369031 -6.37993195987145 1.89999999999999
vertex -0.126322682369031 -6.76816052752523 1.95111126056639
endloop
endfacet
facet normal 6.72745717915634e-032 1.96044417704232e-016 1.0
outer loop
vertex -0.126322682369031 -6.37993195987145 1.89999999999999
vertex 1.8736781384722 -6.76816052752523 1.95111126056639
vertex 1.8736781384722 -6.37993195987145 1.89999999999999
endloop
endfacet
facet normal 0.0 -0.500000000000003 0.866025403784437
outer loop
vertex 1.8736781384722 6.77006804012854 2.10096189432333
vertex -0.126321861527802 7.08072821190836 2.33933982822017
vertex -0.126321861527802 6.77006804012854 2.10096189432333
endloop
endfacet
facet normal 0.0 -0.707106781186547 0.707106781186548
outer loop
vertex -0.126321861527802 7.08072821190836 2.33933982822017
vertex 1.8736781384722 6.77006804012854 2.10096189432333
vertex 1.8736781384722 7.08072821190836 2.33933982822017
endloop
endfacet
facet normal 3.42889254557712e-019 0.965925826289068 -0.25881904510252
outer loop
vertex -0.126321861527805 4.57117930069494 3.78822856765377
vertex 1.87367813847219 4.52006804012854 3.39999999999999
vertex -0.126321861527804 4.52006804012854 3.39999999999999
endloop
endfacet
facet normal 2.32665739077534e-019 1.0 7.12888791651751e-017
outer loop
vertex 1.87367813847219 4.52006804012854 3.39999999999999
vertex -0.126321861527805 4.57117930069494 3.78822856765377
vertex 1.87367813847219 4.57117930069494 3.78822856765377
endloop
endfacet
facet normal -5.19665567679609e-019 0.965925826289068 0.258819045102524
outer loop
vertex -0.126321861527804 4.57117930069494 3.01177143234621
vertex 1.8736781384722 4.72102993445189 2.64999999999999
vertex -0.126321861527802 4.72102993445189 2.64999999999999
endloop
endfacet
facet normal -4.09442052199431e-019 0.866025403784438 0.500000000000001
outer loop
vertex 1.8736781384722 4.72102993445189 2.64999999999999
vertex -0.126321861527804 4.57117930069494 3.01177143234621
vertex 1.8736781384722 4.57117930069494 3.01177143234621
endloop
endfacet
facet normal 0.0 0.707106781186546 -0.707106781186549
outer loop
vertex -0.126321861527805 4.95940786834872 4.46066017177981
vertex 1.87367813847219 4.72102993445189 4.14999999999999
vertex -0.126321861527805 4.72102993445189 4.14999999999999
endloop
endfacet
facet normal 0.0 0.866025403784438 -0.5
outer loop
vertex 1.87367813847219 4.72102993445189 4.14999999999999
vertex -0.126321861527805 4.95940786834872 4.46066017177981
vertex 1.87367813847219 4.95940786834872 4.46066017177981
endloop
endfacet
facet normal -4.09442052199431e-019 0.866025403784438 0.500000000000001
outer loop
vertex -0.126321861527802 4.72102993445189 2.64999999999999
vertex 1.8736781384722 4.95940786834872 2.33933982822017
vertex -0.126321861527802 4.95940786834872 2.33933982822017
endloop
endfacet
facet normal 0.0 0.707106781186549 0.707106781186546
outer loop
vertex 1.8736781384722 4.95940786834872 2.33933982822017
vertex -0.126321861527802 4.72102993445189 2.64999999999999
vertex 1.8736781384722 4.72102993445189 2.64999999999999
endloop
endfacet
facet normal 0.0 0.866025403784438 -0.5
outer loop
vertex -0.126321861527805 4.72102993445189 4.14999999999999
vertex 1.87367813847219 4.57117930069494 3.78822856765377
vertex -0.126321861527805 4.57117930069494 3.78822856765377
endloop
endfacet
facet normal 3.42889254557713e-019 0.965925826289069 -0.25881904510252
outer loop
vertex 1.87367813847219 4.57117930069494 3.78822856765377
vertex -0.126321861527805 4.72102993445189 4.14999999999999
vertex 1.87367813847219 4.72102993445189 4.14999999999999
endloop
endfacet
facet normal 2.32665739077536e-019 1.0 -3.92088835408463e-016
outer loop
vertex -0.126321861527804 4.52006804012854 3.39999999999999
vertex 1.8736781384722 4.57117930069494 3.01177143234621
vertex -0.126321861527804 4.57117930069494 3.01177143234621
endloop
endfacet
facet normal -5.19665567679609e-019 0.965925826289067 0.258819045102524
outer loop
vertex 1.8736781384722 4.57117930069494 3.01177143234621
vertex -0.126321861527804 4.52006804012854 3.39999999999999
vertex 1.87367813847219 4.52006804012854 3.39999999999999
endloop
endfacet
facet normal 0.0 0.258819045102522 0.965925826289068
outer loop
vertex 1.8736781384722 5.63183947247476 1.95111126056639
vertex -0.126321861527802 6.02006804012854 1.89999999999999
vertex -0.126321861527802 5.63183947247476 1.95111126056639
endloop
endfacet
facet normal 0.0 0.0 1.0
outer loop
vertex -0.126321861527802 6.02006804012854 1.89999999999999
vertex 1.8736781384722 5.63183947247476 1.95111126056639
vertex 1.8736781384722 6.02006804012854 1.89999999999999
endloop
endfacet
facet normal 0.0 -0.258819045102523 0.965925826289068
outer loop
vertex 1.8736781384722 6.40829660778233 1.95111126056639
vertex -0.126321861527802 6.77006804012854 2.10096189432333
vertex -0.126321861527802 6.40829660778233 1.95111126056639
endloop
endfacet
facet normal 0.0 -0.500000000000003 0.866025403784437
outer loop
vertex -0.126321861527802 6.77006804012854 2.10096189432333
vertex 1.8736781384722 6.40829660778233 1.95111126056639
vertex 1.8736781384722 6.77006804012854 2.10096189432333
endloop
endfacet
facet normal 0.0 0.0 1.0
outer loop
vertex 1.8736781384722 6.02006804012854 1.89999999999999
vertex -0.126321861527802 6.40829660778233 1.95111126056639
vertex -0.126321861527802 6.02006804012854 1.89999999999999
endloop
endfacet
facet normal 0.0 -0.258819045102523 0.965925826289068
outer loop
vertex -0.126321861527802 6.40829660778233 1.95111126056639
vertex 1.8736781384722 6.02006804012854 1.89999999999999
vertex 1.8736781384722 6.40829660778233 1.95111126056639
endloop
endfacet
facet normal 0.0 0.707106781186549 0.707106781186546
outer loop
vertex 1.8736781384722 4.95940786834872 2.33933982822017
vertex -0.126321861527802 5.27006804012855 2.10096189432333
vertex -0.126321861527802 4.95940786834872 2.33933982822017
endloop
endfacet
facet normal 0.0 0.500000000000001 0.866025403784438
outer loop
vertex -0.126321861527802 5.27006804012855 2.10096189432333
vertex 1.8736781384722 4.95940786834872 2.33933982822017
vertex 1.8736781384722 5.27006804012855 2.10096189432333
endloop
endfacet
facet normal 0.0 0.500000000000001 0.866025403784438
outer loop
vertex 1.8736781384722 5.27006804012855 2.10096189432333
vertex -0.126321861527802 5.63183947247476 1.95111126056639
vertex -0.126321861527802 5.27006804012855 2.10096189432333
endloop
endfacet
facet normal 0.0 0.258819045102522 0.965925826289068
outer loop
vertex -0.126321861527802 5.63183947247476 1.95111126056639
vertex 1.8736781384722 5.27006804012855 2.10096189432333
vertex 1.8736781384722 5.63183947247476 1.95111126056639
endloop
endfacet
facet normal 8.08220732712595e-019 -1.0 5.43577703634459e-016
outer loop
vertex 1.87367813847219 7.52006804012854 3.39999999999999
vertex -0.126321861527804 7.46895677956215 3.01177143234621
vertex 1.8736781384722 7.46895677956215 3.01177143234621
endloop
endfacet
facet normal 1.19685950894376e-018 -0.965925826289069 0.258819045102519
outer loop
vertex -0.126321861527804 7.46895677956215 3.01177143234621
vertex 1.87367813847219 7.52006804012854 3.39999999999999
vertex -0.126321861527804 7.52006804012854 3.39999999999999
endloop
endfacet
facet normal 1.19685950894377e-018 -0.965925826289069 0.25881904510252
outer loop
vertex 1.8736781384722 7.46895677956215 3.01177143234621
vertex -0.126321861527802 7.3191061458052 2.64999999999999
vertex 1.8736781384722 7.3191061458052 2.64999999999999
endloop
endfacet
facet normal 1.27799980703969e-018 -0.866025403784437 0.500000000000002
outer loop
vertex -0.126321861527802 7.3191061458052 2.64999999999999
vertex 1.8736781384722 7.46895677956215 3.01177143234621
vertex -0.126321861527804 7.46895677956215 3.01177143234621
endloop
endfacet
facet normal -7.04991620636974e-016 1.0 -2.07350476657935e-016
outer loop
vertex 1.87367813847219 2.72006804012856 6.79999999999999
vertex 3.87367813847219 2.72006804012856 5.63993296509579e-015
vertex 1.8736781384722 2.72006804012855 0.0
endloop
endfacet
facet normal -7.04991620636974e-016 1.0 -2.07350476657935e-016
outer loop
vertex 3.87367813847219 2.72006804012856 5.63993296509579e-015
vertex 1.87367813847219 2.72006804012856 6.79999999999999
vertex 3.87367813847219 2.72006804012856 6.79999999999999
endloop
endfacet
facet normal 1.27799980703969e-018 -0.866025403784437 0.500000000000003
outer loop
vertex 1.8736781384722 7.3191061458052 2.64999999999999
vertex -0.126321861527802 7.08072821190836 2.33933982822017
vertex 1.8736781384722 7.08072821190836 2.33933982822017
endloop
endfacet
facet normal 0.0 -0.707106781186547 0.707106781186548
outer loop
vertex -0.126321861527802 7.08072821190836 2.33933982822017
vertex 1.8736781384722 7.3191061458052 2.64999999999999
vertex -0.126321861527802 7.3191061458052 2.64999999999999
endloop
endfacet
facet normal -2.29309348581477e-016 9.23902323087124e-017 1.0
outer loop
vertex 1.87367813847219 -9.47993195987143 6.79999999999999
vertex -0.126321861527798 -2.47993195987144 6.79999999999999
vertex -0.126321861527798 -9.47993195987143 6.79999999999999
endloop
endfacet
facet normal -2.29309348581477e-016 9.23902323087124e-017 1.0
outer loop
vertex -0.126321861527798 -2.47993195987144 6.79999999999999
vertex 1.87367813847219 -9.47993195987143 6.79999999999999
vertex 0.468961942208 -2.4015613603363 6.79999999999999
endloop
endfacet
facet normal -2.29309348581477e-016 9.23902323087124e-017 1.0
outer loop
vertex 0.468961942208 -2.4015613603363 6.79999999999999
vertex 1.87367813847219 -9.47993195987143 6.79999999999999
vertex 1.0236781384722 -2.17179038857565 6.79999999999999
endloop
endfacet
facet normal -2.29309348581477e-016 9.23902323087124e-017 1.0
outer loop
vertex 1.0236781384722 -2.17179038857565 6.79999999999999
vertex 1.87367813847219 -9.47993195987143 6.79999999999999
vertex 1.50002373520126 -1.8062775566005 6.79999999999999
endloop
endfacet
facet normal -2.29309348581477e-016 9.23902323087124e-017 1.0
outer loop
vertex 1.50002373520126 -1.8062775566005 6.79999999999999
vertex 1.87367813847219 -9.47993195987143 6.79999999999999
vertex 1.86553656717641 -1.32993195987144 6.79999999999999
endloop
endfacet
facet normal -2.29309348581477e-016 9.23902323087124e-017 1.0
outer loop
vertex 1.86553656717641 -1.32993195987144 6.79999999999999
vertex 1.87367813847219 -9.47993195987143 6.79999999999999
vertex 1.87367813847219 -3.07993195987145 6.79999999999999
endloop
endfacet
facet normal -2.29309348581477e-016 9.23902323087124e-017 1.0
outer loop
vertex 1.87367813847219 -3.07993195987145 6.79999999999999
vertex 2.09530753893706 -0.775215763607242 6.79999999999999
vertex 1.86553656717641 -1.32993195987144 6.79999999999999
endloop
endfacet
facet normal -2.29309348581477e-016 9.23902323087124e-017 1.0
outer loop
vertex 2.09530753893706 -0.775215763607242 6.79999999999999
vertex 1.87367813847219 -3.07993195987145 6.79999999999999
vertex 3.87367813847219 -3.07993195987145 6.79999999999999
endloop
endfacet
facet normal -2.29309348581477e-016 9.23902323087124e-017 1.0
outer loop
vertex 2.09530753893706 0.415351843864354 6.79999999999999
vertex 1.87367813847219 2.72006804012856 6.79999999999999
vertex 1.86553656717641 0.970068040128556 6.79999999999999
endloop
endfacet
facet normal -2.29309348581477e-016 9.23902323087124e-017 1.0
outer loop
vertex 1.87367813847219 2.72006804012856 6.79999999999999
vertex 2.09530753893706 0.415351843864354 6.79999999999999
vertex 3.87367813847219 2.72006804012856 6.79999999999999
endloop
endfacet
facet normal -2.29309348581477e-016 9.23902323087124e-017 1.0
outer loop
vertex 3.87367813847219 2.72006804012856 6.79999999999999
vertex 2.09530753893706 0.415351843864354 6.79999999999999
vertex 2.09530753893706 -0.775215763607242 6.79999999999999
endloop
endfacet
facet normal -2.29309348581477e-016 9.23902323087124e-017 1.0
outer loop
vertex 3.87367813847219 2.72006804012856 6.79999999999999
vertex 2.09530753893706 -0.775215763607242 6.79999999999999
vertex 3.87367813847219 -3.07993195987145 6.79999999999999
endloop
endfacet
facet normal -2.29309348581477e-016 9.23902323087124e-017 1.0
outer loop
vertex 0.468961942208 2.04169744059341 6.79999999999999
vertex -0.126321861527798 9.12006804012854 6.79999999999999
vertex -0.126321861527798 2.12006804012856 6.79999999999999
endloop
endfacet
facet normal -2.29309348581477e-016 9.23902323087124e-017 1.0
outer loop
vertex -0.126321861527798 9.12006804012854 6.79999999999999
vertex 0.468961942208 2.04169744059341 6.79999999999999
vertex 1.87367813847219 9.12006804012854 6.79999999999999
endloop
endfacet
facet normal -2.29309348581477e-016 9.23902323087124e-017 1.0
outer loop
vertex 1.87367813847219 9.12006804012854 6.79999999999999
vertex 0.468961942208 2.04169744059341 6.79999999999999
vertex 1.0236781384722 1.81192646883277 6.79999999999999
endloop
endfacet
facet normal -2.29309348581477e-016 9.23902323087124e-017 1.0
outer loop
vertex 1.87367813847219 9.12006804012854 6.79999999999999
vertex 1.0236781384722 1.81192646883277 6.79999999999999
vertex 1.50002373520126 1.44641363685762 6.79999999999999
endloop
endfacet
facet normal -2.29309348581477e-016 9.23902323087124e-017 1.0
outer loop
vertex 1.87367813847219 9.12006804012854 6.79999999999999
vertex 1.50002373520126 1.44641363685762 6.79999999999999
vertex 1.86553656717641 0.970068040128556 6.79999999999999
endloop
endfacet
facet normal -2.29309348581477e-016 9.23902323087124e-017 1.0
outer loop
vertex 1.87367813847219 9.12006804012854 6.79999999999999
vertex 1.86553656717641 0.970068040128556 6.79999999999999
vertex 1.87367813847219 2.72006804012856 6.79999999999999
endloop
endfacet
facet normal -1.0 4.028523546497e-016 -4.14700953315868e-016
outer loop
vertex -0.126321861527798 2.12006804012856 6.79999999999999
vertex -0.126321861527805 4.72102993445189 4.14999999999999
vertex -0.126321861527798 2.12006804012856 7.04991620636974e-016
endloop
endfacet
facet normal -1.0 4.028523546497e-016 -4.14700953315868e-016
outer loop
vertex -0.126321861527805 4.72102993445189 4.14999999999999
vertex -0.126321861527798 2.12006804012856 6.79999999999999
vertex -0.126321861527805 4.95940786834872 4.46066017177981
endloop
endfacet
facet normal -1.0 4.028523546497e-016 -4.14700953315868e-016
outer loop
vertex -0.126321861527805 4.95940786834872 4.46066017177981
vertex -0.126321861527798 2.12006804012856 6.79999999999999
vertex -0.126321861527805 5.27006804012855 4.69903810567665
endloop
endfacet
facet normal -1.0 4.028523546497e-016 -4.14700953315868e-016
outer loop
vertex -0.126321861527805 5.27006804012855 4.69903810567665
vertex -0.126321861527798 2.12006804012856 6.79999999999999
vertex -0.126321861527798 9.12006804012854 6.79999999999999
endloop
endfacet
facet normal -1.0 4.028523546497e-016 -4.14700953315868e-016
outer loop
vertex -0.126321861527798 2.12006804012856 7.04991620636974e-016
vertex -0.126321861527805 4.72102993445189 4.14999999999999
vertex -0.126321861527805 4.57117930069494 3.78822856765377
endloop
endfacet
facet normal -1.0 4.028523546497e-016 -4.14700953315868e-016
outer loop
vertex -0.126321861527798 2.12006804012856 7.04991620636974e-016
vertex -0.126321861527805 4.57117930069494 3.78822856765377
vertex -0.126321861527804 4.52006804012854 3.39999999999999
endloop
endfacet
facet normal -1.0 4.028523546497e-016 -4.14700953315868e-016
outer loop
vertex -0.126321861527805 5.27006804012855 4.69903810567665
vertex -0.126321861527798 9.12006804012854 6.79999999999999
vertex -0.126321861527805 5.63183947247476 4.84888873943359
endloop
endfacet
facet normal -1.0 4.028523546497e-016 -4.14700953315868e-016
outer loop
vertex -0.126321861527805 5.63183947247476 4.84888873943359
vertex -0.126321861527798 9.12006804012854 6.79999999999999
vertex -0.126321861527805 6.02006804012854 4.89999999999999
endloop
endfacet
facet normal -1.0 4.028523546497e-016 -4.14700953315868e-016
outer loop
vertex -0.126321861527805 6.02006804012854 4.89999999999999
vertex -0.126321861527798 9.12006804012854 6.79999999999999
vertex -0.126321861527805 6.40829660778232 4.84888873943359
endloop
endfacet
facet normal -1.0 4.028523546497e-016 -4.14700953315868e-016
outer loop
vertex -0.126321861527805 6.40829660778232 4.84888873943359
vertex -0.126321861527798 9.12006804012854 6.79999999999999
vertex -0.126321861527805 6.77006804012854 4.69903810567665
endloop
endfacet
facet normal -1.0 4.028523546497e-016 -4.14700953315868e-016
outer loop
vertex -0.126321861527805 6.77006804012854 4.69903810567665
vertex -0.126321861527798 9.12006804012854 6.79999999999999
vertex -0.126321861527805 7.08072821190836 4.46066017177981
endloop
endfacet
facet normal -1.0 4.028523546497e-016 -4.14700953315868e-016
outer loop
vertex -0.126321861527805 7.08072821190836 4.46066017177981
vertex -0.126321861527798 9.12006804012854 6.79999999999999
vertex -0.126321861527805 7.3191061458052 4.14999999999999
endloop
endfacet
facet normal -1.0 4.028523546497e-016 -4.14700953315868e-016
outer loop
vertex -0.126321861527805 7.3191061458052 4.14999999999999
vertex -0.126321861527798 9.12006804012854 6.79999999999999
vertex -0.126321861527805 7.46895677956215 3.78822856765377
endloop
endfacet
facet normal -1.0 4.028523546497e-016 -4.14700953315868e-016
outer loop
vertex -0.126321861527805 7.46895677956215 3.78822856765377
vertex -0.126321861527798 9.12006804012854 6.79999999999999
vertex -0.126321861527804 7.52006804012854 3.39999999999999
endloop
endfacet
facet normal -1.0 4.028523546497e-016 -4.14700953315868e-016
outer loop
vertex -0.126321861527798 2.12006804012856 7.04991620636974e-016
vertex -0.126321861527802 5.27006804012855 2.10096189432333
vertex -0.126321861527793 9.12006804012854 0.0
endloop
endfacet
facet normal -1.0 4.028523546497e-016 -4.14700953315868e-016
outer loop
vertex -0.126321861527802 5.27006804012855 2.10096189432333
vertex -0.126321861527798 2.12006804012856 7.04991620636974e-016
vertex -0.126321861527802 4.95940786834872 2.33933982822017
endloop
endfacet
facet normal -1.0 4.028523546497e-016 -4.14700953315868e-016
outer loop
vertex -0.126321861527802 4.95940786834872 2.33933982822017
vertex -0.126321861527798 2.12006804012856 7.04991620636974e-016
vertex -0.126321861527802 4.72102993445189 2.64999999999999
endloop
endfacet
facet normal -1.0 4.028523546497e-016 -4.14700953315868e-016
outer loop
vertex -0.126321861527802 4.72102993445189 2.64999999999999
vertex -0.126321861527798 2.12006804012856 7.04991620636974e-016
vertex -0.126321861527804 4.57117930069494 3.01177143234621
endloop
endfacet
facet normal -1.0 4.028523546497e-016 -4.14700953315868e-016
outer loop
vertex -0.126321861527804 4.57117930069494 3.01177143234621
vertex -0.126321861527798 2.12006804012856 7.04991620636974e-016
vertex -0.126321861527804 4.52006804012854 3.39999999999999
endloop
endfacet
facet normal -1.0 4.028523546497e-016 -4.14700953315868e-016
outer loop
vertex -0.126321861527793 9.12006804012854 0.0
vertex -0.126321861527802 5.27006804012855 2.10096189432333
vertex -0.126321861527802 5.63183947247476 1.95111126056639
endloop
endfacet
facet normal -1.0 4.028523546497e-016 -4.14700953315868e-016
outer loop
vertex -0.126321861527793 9.12006804012854 0.0
vertex -0.126321861527802 5.63183947247476 1.95111126056639
vertex -0.126321861527802 6.02006804012854 1.89999999999999
endloop
endfacet
facet normal -1.0 4.028523546497e-016 -4.14700953315868e-016
outer loop
vertex -0.126321861527793 9.12006804012854 0.0
vertex -0.126321861527802 6.02006804012854 1.89999999999999
vertex -0.126321861527802 6.40829660778233 1.95111126056639
endloop
endfacet
facet normal -1.0 4.028523546497e-016 -4.14700953315868e-016
outer loop
vertex -0.126321861527793 9.12006804012854 0.0
vertex -0.126321861527802 6.40829660778233 1.95111126056639
vertex -0.126321861527802 6.77006804012854 2.10096189432333
endloop
endfacet
facet normal -1.0 4.028523546497e-016 -4.14700953315868e-016
outer loop
vertex -0.126321861527793 9.12006804012854 0.0
vertex -0.126321861527802 6.77006804012854 2.10096189432333
vertex -0.126321861527802 7.08072821190836 2.33933982822017
endloop
endfacet
facet normal -1.0 4.028523546497e-016 -4.14700953315868e-016
outer loop
vertex -0.126321861527793 9.12006804012854 0.0
vertex -0.126321861527802 7.08072821190836 2.33933982822017
vertex -0.126321861527802 7.3191061458052 2.64999999999999
endloop
endfacet
facet normal -1.0 4.028523546497e-016 -4.14700953315868e-016
outer loop
vertex -0.126321861527793 9.12006804012854 0.0
vertex -0.126321861527802 7.3191061458052 2.64999999999999
vertex -0.126321861527804 7.46895677956215 3.01177143234621
endloop
endfacet
facet normal -1.0 4.028523546497e-016 -4.14700953315868e-016
outer loop
vertex -0.126321861527793 9.12006804012854 0.0
vertex -0.126321861527804 7.46895677956215 3.01177143234621
vertex -0.126321861527804 7.52006804012854 3.39999999999999
endloop
endfacet
facet normal -1.0 4.028523546497e-016 -4.14700953315868e-016
outer loop
vertex -0.126321861527793 9.12006804012854 0.0
vertex -0.126321861527804 7.52006804012854 3.39999999999999
vertex -0.126321861527798 9.12006804012854 6.79999999999999
endloop
endfacet
facet normal 1.2085570639491e-015 -8.81736405943011e-017 -1.0
outer loop
vertex -0.126321861527793 9.12006804012854 0.0
vertex 0.468961942208 2.04169744059341 7.04991620636974e-016
vertex -0.126321861527798 2.12006804012856 7.04991620636974e-016
endloop
endfacet
facet normal 1.2085570639491e-015 -8.81736405943011e-017 -1.0
outer loop
vertex 0.468961942208 2.04169744059341 7.04991620636974e-016
vertex -0.126321861527793 9.12006804012854 0.0
vertex 1.8736781384722 9.12006804012854 0.0
endloop
endfacet
facet normal 1.2085570639491e-015 -8.81736405943011e-017 -1.0
outer loop
vertex 0.468961942208 2.04169744059341 7.04991620636974e-016
vertex 1.8736781384722 9.12006804012854 0.0
vertex 1.0236781384722 1.81192646883277 7.04991620636974e-016
endloop
endfacet
facet normal 1.2085570639491e-015 -8.81736405943011e-017 -1.0
outer loop
vertex 1.0236781384722 1.81192646883277 7.04991620636974e-016
vertex 1.8736781384722 9.12006804012854 0.0
vertex 1.50002373520126 1.44641363685762 7.04991620636974e-016
endloop
endfacet
facet normal 1.2085570639491e-015 -8.81736405943011e-017 -1.0
outer loop
vertex 1.50002373520126 1.44641363685762 7.04991620636974e-016
vertex 1.8736781384722 9.12006804012854 0.0
vertex 1.86553656717641 0.970068040128556 7.04991620636974e-016
endloop
endfacet
facet normal 1.2085570639491e-015 -8.81736405943011e-017 -1.0
outer loop
vertex 1.86553656717641 0.970068040128556 7.04991620636974e-016
vertex 1.8736781384722 9.12006804012854 0.0
vertex 1.8736781384722 2.72006804012855 0.0
endloop
endfacet
facet normal 1.2085570639491e-015 -8.81736405943011e-017 -1.0
outer loop
vertex 1.86553656717641 0.970068040128556 7.04991620636974e-016
vertex 1.8736781384722 2.72006804012855 0.0
vertex 2.09530753893706 0.415351843864354 7.04991620636974e-016
endloop
endfacet
facet normal 1.2085570639491e-015 -8.81736405943011e-017 -1.0
outer loop
vertex 2.09530753893706 0.415351843864354 7.04991620636974e-016
vertex 1.8736781384722 2.72006804012855 0.0
vertex 3.87367813847219 2.72006804012856 5.63993296509579e-015
endloop
endfacet
facet normal 1.2085570639491e-015 -8.81736405943011e-017 -1.0
outer loop
vertex 2.09530753893706 0.415351843864354 7.04991620636974e-016
vertex 3.87367813847219 2.72006804012856 5.63993296509579e-015
vertex 2.09530753893706 -0.775215763607242 7.04991620636974e-016
endloop
endfacet
facet normal 1.2085570639491e-015 -8.81736405943011e-017 -1.0
outer loop
vertex 2.09530753893706 -0.775215763607242 7.04991620636974e-016
vertex 1.8736781384722 -3.07993195987145 2.8199664825479e-015
vertex 1.86553656717641 -1.32993195987144 7.04991620636974e-016
endloop
endfacet
facet normal 1.2085570639491e-015 -8.81736405943011e-017 -1.0
outer loop
vertex 1.8736781384722 -3.07993195987145 2.8199664825479e-015
vertex 2.09530753893706 -0.775215763607242 7.04991620636974e-016
vertex 3.87367813847219 -3.07993195987145 5.63993296509579e-015
endloop
endfacet
facet normal 1.2085570639491e-015 -8.81736405943011e-017 -1.0
outer loop
vertex 3.87367813847219 -3.07993195987145 5.63993296509579e-015
vertex 2.09530753893706 -0.775215763607242 7.04991620636974e-016
vertex 3.87367813847219 2.72006804012856 5.63993296509579e-015
endloop
endfacet
facet normal 1.2085570639491e-015 -8.81736405943011e-017 -1.0
outer loop
vertex 0.468961942208 -2.4015613603363 7.04991620636974e-016
vertex -0.126321861527793 -9.47993195987143 0.0
vertex -0.126321861527798 -2.47993195987144 7.04991620636974e-016
endloop
endfacet
facet normal 1.2085570639491e-015 -8.81736405943011e-017 -1.0
outer loop
vertex -0.126321861527793 -9.47993195987143 0.0
vertex 0.468961942208 -2.4015613603363 7.04991620636974e-016
vertex 1.8736781384722 -9.47993195987143 2.8199664825479e-015
endloop
endfacet
facet normal 1.2085570639491e-015 -8.81736405943011e-017 -1.0
outer loop
vertex 1.8736781384722 -9.47993195987143 2.8199664825479e-015
vertex 0.468961942208 -2.4015613603363 7.04991620636974e-016
vertex 1.0236781384722 -2.17179038857565 7.04991620636974e-016
endloop
endfacet
facet normal 1.2085570639491e-015 -8.81736405943011e-017 -1.0
outer loop
vertex 1.8736781384722 -9.47993195987143 2.8199664825479e-015
vertex 1.0236781384722 -2.17179038857565 7.04991620636974e-016
vertex 1.50002373520126 -1.8062775566005 7.04991620636974e-016
endloop
endfacet
facet normal 1.2085570639491e-015 -8.81736405943011e-017 -1.0
outer loop
vertex 1.8736781384722 -9.47993195987143 2.8199664825479e-015
vertex 1.50002373520126 -1.8062775566005 7.04991620636974e-016
vertex 1.86553656717641 -1.32993195987144 7.04991620636974e-016
endloop
endfacet
facet normal 1.2085570639491e-015 -8.81736405943011e-017 -1.0
outer loop
vertex 1.8736781384722 -9.47993195987143 2.8199664825479e-015
vertex 1.86553656717641 -1.32993195987144 7.04991620636974e-016
vertex 1.8736781384722 -3.07993195987145 2.8199664825479e-015
endloop
endfacet
facet normal -0.923879532511287 0.38268343236509 -0.0
outer loop
vertex 2.09530753893706 -0.775215763607242 6.79999999999999
vertex 1.86553656717641 -1.32993195987144 7.04991620636974e-016
vertex 1.86553656717641 -1.32993195987144 6.79999999999999
endloop
endfacet
facet normal -0.866025403784439 0.5 0.0
outer loop
vertex 1.86553656717641 -1.32993195987144 7.04991620636974e-016
vertex 2.09530753893706 -0.775215763607242 6.79999999999999
vertex 2.09530753893706 -0.775215763607242 7.04991620636974e-016
endloop
endfacet
facet normal -1.0 -2.96073745082886e-016 -0.0
outer loop
vertex 2.09530753893706 0.415351843864354 6.79999999999999
vertex 2.09530753893706 -0.775215763607242 7.04991620636974e-016
vertex 2.09530753893706 -0.775215763607242 6.79999999999999
endloop
endfacet
facet normal -1.0 -2.96073745082886e-016 -0.0
outer loop
vertex 2.09530753893706 -0.775215763607242 7.04991620636974e-016
vertex 2.09530753893706 0.415351843864354 6.79999999999999
vertex 2.09530753893706 0.415351843864354 7.04991620636974e-016
endloop
endfacet
facet normal -0.866025403784439 -0.5 0.0
outer loop
vertex 1.86553656717641 0.970068040128556 6.79999999999999
vertex 2.09530753893706 0.415351843864354 7.04991620636974e-016
vertex 2.09530753893706 0.415351843864354 6.79999999999999
endloop
endfacet
facet normal -0.923879532511287 -0.38268343236509 -0.0
outer loop
vertex 2.09530753893706 0.415351843864354 7.04991620636974e-016
vertex 1.86553656717641 0.970068040128556 6.79999999999999
vertex 1.86553656717641 0.970068040128556 7.04991620636974e-016
endloop
endfacet
facet normal -0.707106781186547 -0.707106781186548 0.0
outer loop
vertex 1.50002373520126 1.44641363685762 6.79999999999999
vertex 1.86553656717641 0.970068040128556 7.04991620636974e-016
vertex 1.86553656717641 0.970068040128556 6.79999999999999
endloop
endfacet
facet normal -0.866025403784439 -0.5 0.0
outer loop
vertex 1.86553656717641 0.970068040128556 7.04991620636974e-016
vertex 1.50002373520126 1.44641363685762 6.79999999999999
vertex 1.50002373520126 1.44641363685762 7.04991620636974e-016
endloop
endfacet
facet normal -0.707106781186547 -0.707106781186548 0.0
outer loop
vertex 1.50002373520126 1.44641363685762 6.79999999999999
vertex 1.0236781384722 1.81192646883277 7.04991620636974e-016
vertex 1.50002373520126 1.44641363685762 7.04991620636974e-016
endloop
endfacet
facet normal -0.5 -0.866025403784439 0.0
outer loop
vertex 1.0236781384722 1.81192646883277 7.04991620636974e-016
vertex 1.50002373520126 1.44641363685762 6.79999999999999
vertex 1.0236781384722 1.81192646883277 6.79999999999999
endloop
endfacet
facet normal -0.5 -0.866025403784439 0.0
outer loop
vertex 1.0236781384722 1.81192646883277 6.79999999999999
vertex 0.468961942208 2.04169744059341 7.04991620636974e-016
vertex 1.0236781384722 1.81192646883277 7.04991620636974e-016
endloop
endfacet
facet normal -0.258819045102521 -0.965925826289068 -2.68713876064203e-033
outer loop
vertex 0.468961942208 2.04169744059341 7.04991620636974e-016
vertex 1.0236781384722 1.81192646883277 6.79999999999999
vertex 0.468961942208 2.04169744059341 6.79999999999999
endloop
endfacet
facet normal -0.258819045102521 -0.965925826289068 -2.68713876064203e-033
outer loop
vertex 0.468961942208 2.04169744059341 6.79999999999999
vertex -0.126321861527798 2.12006804012856 7.04991620636974e-016
vertex 0.468961942208 2.04169744059341 7.04991620636974e-016
endloop
endfacet
facet normal -0.130526192220051 -0.99144486137381 -5.32829983207385e-033
outer loop
vertex -0.126321861527798 2.12006804012856 7.04991620636974e-016
vertex 0.468961942208 2.04169744059341 6.79999999999999
vertex -0.126321861527798 2.12006804012856 6.79999999999999
endloop
endfacet
facet normal -0.130526192220052 0.99144486137381 -8.76854975983783e-035
outer loop
vertex -0.126321861527798 -2.47993195987144 6.79999999999999
vertex 0.468961942208 -2.4015613603363 7.04991620636974e-016
vertex -0.126321861527798 -2.47993195987144 7.04991620636974e-016
endloop
endfacet
facet normal -0.258819045102521 0.965925826289068 -4.42210661503029e-035
outer loop
vertex 0.468961942208 -2.4015613603363 7.04991620636974e-016
vertex -0.126321861527798 -2.47993195987144 6.79999999999999
vertex 0.468961942208 -2.4015613603363 6.79999999999999
endloop
endfacet
facet normal -0.258819045102521 0.965925826289068 -4.42210661503029e-035
outer loop
vertex 0.468961942208 -2.4015613603363 6.79999999999999
vertex 1.0236781384722 -2.17179038857565 7.04991620636974e-016
vertex 0.468961942208 -2.4015613603363 7.04991620636974e-016
endloop
endfacet
facet normal -0.5 0.866025403784439 0.0
outer loop
vertex 1.0236781384722 -2.17179038857565 7.04991620636974e-016
vertex 0.468961942208 -2.4015613603363 6.79999999999999
vertex 1.0236781384722 -2.17179038857565 6.79999999999999
endloop
endfacet
facet normal -0.5 0.866025403784439 0.0
outer loop
vertex 1.0236781384722 -2.17179038857565 6.79999999999999
vertex 1.50002373520126 -1.8062775566005 7.04991620636974e-016
vertex 1.0236781384722 -2.17179038857565 7.04991620636974e-016
endloop
endfacet
facet normal -0.707106781186548 0.707106781186547 0.0
outer loop
vertex 1.50002373520126 -1.8062775566005 7.04991620636974e-016
vertex 1.0236781384722 -2.17179038857565 6.79999999999999
vertex 1.50002373520126 -1.8062775566005 6.79999999999999
endloop
endfacet
facet normal -0.866025403784439 0.5 0.0
outer loop
vertex 1.86553656717641 -1.32993195987144 6.79999999999999
vertex 1.50002373520126 -1.8062775566005 7.04991620636974e-016
vertex 1.50002373520126 -1.8062775566005 6.79999999999999
endloop
endfacet
facet normal -0.707106781186548 0.707106781186547 0.0
outer loop
vertex 1.50002373520126 -1.8062775566005 7.04991620636974e-016
vertex 1.86553656717641 -1.32993195987144 6.79999999999999
vertex 1.86553656717641 -1.32993195987144 7.04991620636974e-016
endloop
endfacet
facet normal -1.0 -3.6193766238059e-016 -4.14700953315868e-016
outer loop
vertex -0.126321861527798 -9.47993195987143 6.79999999999999
vertex -0.126322682369034 -7.67897006554811 4.14999999999999
vertex -0.126321861527793 -9.47993195987143 0.0
endloop
endfacet
facet normal -1.0 -3.6193766238059e-016 -4.14700953315868e-016
outer loop
vertex -0.126322682369034 -7.67897006554811 4.14999999999999
vertex -0.126321861527798 -9.47993195987143 6.79999999999999
vertex -0.126322682369034 -7.44059213165127 4.46066017177982
endloop
endfacet
facet normal -1.0 -3.6193766238059e-016 -4.14700953315868e-016
outer loop
vertex -0.126322682369034 -7.44059213165127 4.46066017177982
vertex -0.126321861527798 -9.47993195987143 6.79999999999999
vertex -0.126322682369034 -7.12993195987145 4.69903810567665
endloop
endfacet
facet normal -1.0 -3.6193766238059e-016 -4.14700953315868e-016
outer loop
vertex -0.126322682369034 -7.12993195987145 4.69903810567665
vertex -0.126321861527798 -9.47993195987143 6.79999999999999
vertex -0.126321861527798 -2.47993195987144 6.79999999999999
endloop
endfacet
facet normal -1.0 -3.6193766238059e-016 -4.14700953315868e-016
outer loop
vertex -0.126321861527793 -9.47993195987143 0.0
vertex -0.126322682369034 -7.67897006554811 4.14999999999999
vertex -0.126322682369032 -7.82882069930505 3.78822856765378
endloop
endfacet
facet normal -1.0 -3.6193766238059e-016 -4.14700953315868e-016
outer loop
vertex -0.126321861527793 -9.47993195987143 0.0
vertex -0.126322682369032 -7.82882069930505 3.78822856765378
vertex -0.126322682369032 -7.87993195987145 3.39999999999999
endloop
endfacet
facet normal -1.0 -3.6193766238059e-016 -4.14700953315868e-016
outer loop
vertex -0.126322682369034 -7.12993195987145 4.69903810567665
vertex -0.126321861527798 -2.47993195987144 6.79999999999999
vertex -0.126322682369034 -6.76816052752523 4.8488887394336
endloop
endfacet
facet normal -1.0 -3.6193766238059e-016 -4.14700953315868e-016
outer loop
vertex -0.126322682369034 -6.76816052752523 4.8488887394336
vertex -0.126321861527798 -2.47993195987144 6.79999999999999
vertex -0.126322682369034 -6.37993195987145 4.89999999999999
endloop
endfacet
facet normal -1.0 -3.6193766238059e-016 -4.14700953315868e-016
outer loop
vertex -0.126322682369034 -6.37993195987145 4.89999999999999
vertex -0.126321861527798 -2.47993195987144 6.79999999999999
vertex -0.126322682369034 -5.99170339221767 4.8488887394336
endloop
endfacet
facet normal -1.0 -3.6193766238059e-016 -4.14700953315868e-016
outer loop
vertex -0.126322682369034 -5.99170339221767 4.8488887394336
vertex -0.126321861527798 -2.47993195987144 6.79999999999999
vertex -0.126322682369034 -5.62993195987145 4.69903810567665
endloop
endfacet
facet normal -1.0 -3.6193766238059e-016 -4.14700953315868e-016
outer loop
vertex -0.126322682369034 -5.62993195987145 4.69903810567665
vertex -0.126321861527798 -2.47993195987144 6.79999999999999
vertex -0.126322682369034 -5.31927178809163 4.46066017177982
endloop
endfacet
facet normal -1.0 -3.6193766238059e-016 -4.14700953315868e-016
outer loop
vertex -0.126322682369034 -5.31927178809163 4.46066017177982
vertex -0.126321861527798 -2.47993195987144 6.79999999999999
vertex -0.126322682369034 -5.08089385419479 4.14999999999999
endloop
endfacet
facet normal -1.0 -3.6193766238059e-016 -4.14700953315868e-016
outer loop
vertex -0.126322682369034 -5.08089385419479 4.14999999999999
vertex -0.126321861527798 -2.47993195987144 6.79999999999999
vertex -0.126322682369034 -4.93104322043785 3.78822856765378
endloop
endfacet
facet normal -1.0 -3.6193766238059e-016 -4.14700953315868e-016
outer loop
vertex -0.126322682369034 -4.93104322043785 3.78822856765378
vertex -0.126321861527798 -2.47993195987144 6.79999999999999
vertex -0.126322682369034 -4.87993195987145 3.39999999999999
endloop
endfacet
facet normal -1.0 -3.6193766238059e-016 -4.14700953315868e-016
outer loop
vertex -0.126321861527793 -9.47993195987143 0.0
vertex -0.126322682369031 -7.12993195987145 2.10096189432333
vertex -0.126321861527798 -2.47993195987144 7.04991620636974e-016
endloop
endfacet
facet normal -1.0 -3.6193766238059e-016 -4.14700953315868e-016
outer loop
vertex -0.126322682369031 -7.12993195987145 2.10096189432333
vertex -0.126321861527793 -9.47993195987143 0.0
vertex -0.126322682369031 -7.44059213165127 2.33933982822017
endloop
endfacet
facet normal -1.0 -3.6193766238059e-016 -4.14700953315868e-016
outer loop
vertex -0.126322682369031 -7.44059213165127 2.33933982822017
vertex -0.126321861527793 -9.47993195987143 0.0
vertex -0.126322682369032 -7.67897006554811 2.64999999999999
endloop
endfacet
facet normal -1.0 -3.6193766238059e-016 -4.14700953315868e-016
outer loop
vertex -0.126322682369032 -7.67897006554811 2.64999999999999
vertex -0.126321861527793 -9.47993195987143 0.0
vertex -0.126322682369032 -7.82882069930505 3.01177143234621
endloop
endfacet
facet normal -1.0 -3.6193766238059e-016 -4.14700953315868e-016
outer loop
vertex -0.126322682369032 -7.82882069930505 3.01177143234621
vertex -0.126321861527793 -9.47993195987143 0.0
vertex -0.126322682369032 -7.87993195987145 3.39999999999999
endloop
endfacet
facet normal -1.0 -3.6193766238059e-016 -4.14700953315868e-016
outer loop
vertex -0.126321861527798 -2.47993195987144 7.04991620636974e-016
vertex -0.126322682369031 -7.12993195987145 2.10096189432333
vertex -0.126322682369031 -6.76816052752523 1.95111126056639
endloop
endfacet
facet normal -1.0 -3.6193766238059e-016 -4.14700953315868e-016
outer loop
vertex -0.126321861527798 -2.47993195987144 7.04991620636974e-016
vertex -0.126322682369031 -6.76816052752523 1.95111126056639
vertex -0.126322682369031 -6.37993195987145 1.89999999999999
endloop
endfacet
facet normal -1.0 -3.6193766238059e-016 -4.14700953315868e-016
outer loop
vertex -0.126321861527798 -2.47993195987144 7.04991620636974e-016
vertex -0.126322682369031 -6.37993195987145 1.89999999999999
vertex -0.126322682369031 -5.99170339221767 1.95111126056639
endloop
endfacet
facet normal -1.0 -3.6193766238059e-016 -4.14700953315868e-016
outer loop
vertex -0.126321861527798 -2.47993195987144 7.04991620636974e-016
vertex -0.126322682369031 -5.99170339221767 1.95111126056639
vertex -0.126322682369032 -5.62993195987145 2.10096189432333
endloop
endfacet
facet normal -1.0 -3.6193766238059e-016 -4.14700953315868e-016
outer loop
vertex -0.126321861527798 -2.47993195987144 7.04991620636974e-016
vertex -0.126322682369032 -5.62993195987145 2.10096189432333
vertex -0.126322682369032 -5.31927178809163 2.33933982822017
endloop
endfacet
facet normal -1.0 -3.6193766238059e-016 -4.14700953315868e-016
outer loop
vertex -0.126321861527798 -2.47993195987144 7.04991620636974e-016
vertex -0.126322682369032 -5.31927178809163 2.33933982822017
vertex -0.126322682369032 -5.08089385419479 2.64999999999999
endloop
endfacet
facet normal -1.0 -3.6193766238059e-016 -4.14700953315868e-016
outer loop
vertex -0.126321861527798 -2.47993195987144 7.04991620636974e-016
vertex -0.126322682369032 -5.08089385419479 2.64999999999999
vertex -0.126322682369032 -4.93104322043785 3.01177143234621
endloop
endfacet
facet normal -1.0 -3.6193766238059e-016 -4.14700953315868e-016
outer loop
vertex -0.126321861527798 -2.47993195987144 7.04991620636974e-016
vertex -0.126322682369032 -4.93104322043785 3.01177143234621
vertex -0.126322682369034 -4.87993195987145 3.39999999999999
endloop
endfacet
facet normal -1.0 -3.6193766238059e-016 -4.14700953315868e-016
outer loop
vertex -0.126321861527798 -2.47993195987144 7.04991620636974e-016
vertex -0.126322682369034 -4.87993195987145 3.39999999999999
vertex -0.126321861527798 -2.47993195987144 6.79999999999999
endloop
endfacet
endsolid tonearm-rod-clip-drive-gear
