solid motor-wheel-h
facet normal -0.0 -0.0 1.0
outer loop
vertex 1.5 -2.5 9.0
vertex -1.5 2.5 9.0
vertex -1.5 -2.5 9.0
endloop
endfacet
facet normal -0.0 -0.0 1.0
outer loop
vertex -1.5 2.5 9.0
vertex 1.5 -2.5 9.0
vertex 1.5 2.5 9.0
endloop
endfacet
facet normal 0.0 0.0 1.0
outer loop
vertex -3.95075336238055 -0.625737860160923 15.0
vertex -3.95075336238055 0.625737860160923 15.0
vertex -4.0 3.52495810318487e-016 15.0
endloop
endfacet
facet normal 0.0 0.0 1.0
outer loop
vertex -3.95075336238055 0.625737860160923 15.0
vertex -3.95075336238055 -0.625737860160923 15.0
vertex -3.80422606518061 -1.23606797749979 15.0
endloop
endfacet
facet normal 0.0 0.0 1.0
outer loop
vertex -3.95075336238055 0.625737860160923 15.0
vertex -3.80422606518061 -1.23606797749979 15.0
vertex -3.80422606518061 1.23606797749979 15.0
endloop
endfacet
facet normal 0.0 0.0 1.0
outer loop
vertex -3.80422606518061 1.23606797749979 15.0
vertex -3.80422606518061 -1.23606797749979 15.0
vertex -3.56402609675347 -1.81596199895819 15.0
endloop
endfacet
facet normal 0.0 0.0 1.0
outer loop
vertex -3.80422606518061 1.23606797749979 15.0
vertex -3.56402609675347 -1.81596199895819 15.0
vertex -3.56402609675347 1.81596199895819 15.0
endloop
endfacet
facet normal 0.0 0.0 1.0
outer loop
vertex -3.56402609675347 1.81596199895819 15.0
vertex -3.56402609675347 -1.81596199895819 15.0
vertex -3.23606797749979 -2.35114100916989 15.0
endloop
endfacet
facet normal 0.0 0.0 1.0
outer loop
vertex -3.56402609675347 1.81596199895819 15.0
vertex -3.23606797749979 -2.35114100916989 15.0
vertex -3.23606797749979 2.35114100916989 15.0
endloop
endfacet
facet normal 0.0 0.0 1.0
outer loop
vertex -3.23606797749979 2.35114100916989 15.0
vertex -3.23606797749979 -2.35114100916989 15.0
vertex -2.82842712474619 -2.82842712474619 15.0
endloop
endfacet
facet normal 0.0 0.0 1.0
outer loop
vertex -3.23606797749979 2.35114100916989 15.0
vertex -2.82842712474619 -2.82842712474619 15.0
vertex -2.82842712474619 2.82842712474619 15.0
endloop
endfacet
facet normal 0.0 0.0 1.0
outer loop
vertex -2.82842712474619 2.82842712474619 15.0
vertex -2.82842712474619 -2.82842712474619 15.0
vertex -2.35114100916989 -3.23606797749979 15.0
endloop
endfacet
facet normal 0.0 0.0 1.0
outer loop
vertex -2.82842712474619 2.82842712474619 15.0
vertex -2.35114100916989 -3.23606797749979 15.0
vertex -2.35114100916989 3.23606797749979 15.0
endloop
endfacet
facet normal 0.0 0.0 1.0
outer loop
vertex -2.35114100916989 3.23606797749979 15.0
vertex -2.35114100916989 -3.23606797749979 15.0
vertex -1.81596199895819 -3.56402609675347 15.0
endloop
endfacet
facet normal 0.0 0.0 1.0
outer loop
vertex -2.35114100916989 3.23606797749979 15.0
vertex -1.81596199895819 -3.56402609675347 15.0
vertex -1.81596199895819 3.56402609675347 15.0
endloop
endfacet
facet normal 0.0 0.0 1.0
outer loop
vertex -1.81596199895819 3.56402609675347 15.0
vertex -1.81596199895819 -3.56402609675347 15.0
vertex -1.5 -2.5 15.0
endloop
endfacet
facet normal 0.0 0.0 1.0
outer loop
vertex -1.5 -2.5 15.0
vertex -1.81596199895819 -3.56402609675347 15.0
vertex -1.23606797749979 -3.80422606518061 15.0
endloop
endfacet
facet normal 0.0 0.0 1.0
outer loop
vertex -1.5 -2.5 15.0
vertex -1.23606797749979 -3.80422606518061 15.0
vertex 1.5 -2.5 15.0
endloop
endfacet
facet normal 0.0 0.0 1.0
outer loop
vertex 1.5 -2.5 15.0
vertex -1.23606797749979 -3.80422606518061 15.0
vertex -0.625737860160924 -3.95075336238055 15.0
endloop
endfacet
facet normal 0.0 0.0 1.0
outer loop
vertex 1.5 -2.5 15.0
vertex -0.625737860160924 -3.95075336238055 15.0
vertex -7.04991620636974e-016 -4.0 15.0
endloop
endfacet
facet normal 0.0 0.0 1.0
outer loop
vertex 1.5 -2.5 15.0
vertex -7.04991620636974e-016 -4.0 15.0
vertex 0.625737860160923 -3.95075336238055 15.0
endloop
endfacet
facet normal 0.0 0.0 1.0
outer loop
vertex 1.5 -2.5 15.0
vertex 0.625737860160923 -3.95075336238055 15.0
vertex 1.23606797749979 -3.80422606518061 15.0
endloop
endfacet
facet normal 0.0 0.0 1.0
outer loop
vertex 1.5 -2.5 15.0
vertex 1.23606797749979 -3.80422606518061 15.0
vertex 1.81596199895819 -3.56402609675347 15.0
endloop
endfacet
facet normal 0.0 0.0 1.0
outer loop
vertex 1.5 -2.5 15.0
vertex 1.81596199895819 -3.56402609675347 15.0
vertex 1.5 2.5 15.0
endloop
endfacet
facet normal 0.0 0.0 1.0
outer loop
vertex -1.81596199895819 3.56402609675347 15.0
vertex -1.5 2.5 15.0
vertex -1.23606797749979 3.80422606518061 15.0
endloop
endfacet
facet normal 0.0 0.0 1.0
outer loop
vertex -1.5 2.5 15.0
vertex -1.81596199895819 3.56402609675347 15.0
vertex -1.5 -2.5 15.0
endloop
endfacet
facet normal 0.0 0.0 1.0
outer loop
vertex -1.23606797749979 3.80422606518061 15.0
vertex -1.5 2.5 15.0
vertex 1.5 2.5 15.0
endloop
endfacet
facet normal 0.0 0.0 1.0
outer loop
vertex -1.23606797749979 3.80422606518061 15.0
vertex 1.5 2.5 15.0
vertex -0.625737860160923 3.95075336238055 15.0
endloop
endfacet
facet normal 0.0 0.0 1.0
outer loop
vertex -0.625737860160923 3.95075336238055 15.0
vertex 1.5 2.5 15.0
vertex 3.52495810318487e-016 4.0 15.0
endloop
endfacet
facet normal 0.0 0.0 1.0
outer loop
vertex 3.52495810318487e-016 4.0 15.0
vertex 1.5 2.5 15.0
vertex 0.625737860160923 3.95075336238055 15.0
endloop
endfacet
facet normal 0.0 0.0 1.0
outer loop
vertex 0.625737860160923 3.95075336238055 15.0
vertex 1.5 2.5 15.0
vertex 1.23606797749979 3.80422606518061 15.0
endloop
endfacet
facet normal 0.0 0.0 1.0
outer loop
vertex 1.23606797749979 3.80422606518061 15.0
vertex 1.5 2.5 15.0
vertex 1.81596199895819 3.56402609675347 15.0
endloop
endfacet
facet normal 0.0 0.0 1.0
outer loop
vertex 1.81596199895819 3.56402609675347 15.0
vertex 1.5 2.5 15.0
vertex 1.81596199895819 -3.56402609675347 15.0
endloop
endfacet
facet normal 0.0 0.0 1.0
outer loop
vertex 1.81596199895819 3.56402609675347 15.0
vertex 1.81596199895819 -3.56402609675347 15.0
vertex 2.35114100916989 -3.23606797749979 15.0
endloop
endfacet
facet normal 0.0 0.0 1.0
outer loop
vertex 1.81596199895819 3.56402609675347 15.0
vertex 2.35114100916989 -3.23606797749979 15.0
vertex 2.35114100916989 3.23606797749979 15.0
endloop
endfacet
facet normal 0.0 0.0 1.0
outer loop
vertex 2.35114100916989 3.23606797749979 15.0
vertex 2.35114100916989 -3.23606797749979 15.0
vertex 2.82842712474619 -2.82842712474619 15.0
endloop
endfacet
facet normal 0.0 0.0 1.0
outer loop
vertex 2.35114100916989 3.23606797749979 15.0
vertex 2.82842712474619 -2.82842712474619 15.0
vertex 2.82842712474619 2.82842712474619 15.0
endloop
endfacet
facet normal 0.0 0.0 1.0
outer loop
vertex 2.82842712474619 2.82842712474619 15.0
vertex 2.82842712474619 -2.82842712474619 15.0
vertex 3.23606797749979 -2.35114100916989 15.0
endloop
endfacet
facet normal 0.0 0.0 1.0
outer loop
vertex 2.82842712474619 2.82842712474619 15.0
vertex 3.23606797749979 -2.35114100916989 15.0
vertex 3.23606797749979 2.35114100916989 15.0
endloop
endfacet
facet normal 0.0 0.0 1.0
outer loop
vertex 3.23606797749979 2.35114100916989 15.0
vertex 3.23606797749979 -2.35114100916989 15.0
vertex 3.56402609675347 -1.81596199895819 15.0
endloop
endfacet
facet normal 0.0 0.0 1.0
outer loop
vertex 3.23606797749979 2.35114100916989 15.0
vertex 3.56402609675347 -1.81596199895819 15.0
vertex 3.56402609675347 1.81596199895819 15.0
endloop
endfacet
facet normal 0.0 0.0 1.0
outer loop
vertex 3.56402609675347 1.81596199895819 15.0
vertex 3.56402609675347 -1.81596199895819 15.0
vertex 3.80422606518061 -1.23606797749979 15.0
endloop
endfacet
facet normal 0.0 0.0 1.0
outer loop
vertex 3.56402609675347 1.81596199895819 15.0
vertex 3.80422606518061 -1.23606797749979 15.0
vertex 3.80422606518061 1.23606797749979 15.0
endloop
endfacet
facet normal 0.0 0.0 1.0
outer loop
vertex 3.80422606518061 1.23606797749979 15.0
vertex 3.80422606518061 -1.23606797749979 15.0
vertex 3.95075336238055 -0.625737860160924 15.0
endloop
endfacet
facet normal 0.0 0.0 1.0
outer loop
vertex 3.80422606518061 1.23606797749979 15.0
vertex 3.95075336238055 -0.625737860160924 15.0
vertex 3.95075336238055 0.625737860160922 15.0
endloop
endfacet
facet normal 0.0 0.0 1.0
outer loop
vertex 3.95075336238055 0.625737860160922 15.0
vertex 3.95075336238055 -0.625737860160924 15.0
vertex 4.0 -1.05748743095546e-015 15.0
endloop
endfacet
facet normal -1.0 0.0 0.0
outer loop
vertex 1.5 2.5 15.0
vertex 1.5 -2.5 9.0
vertex 1.5 -2.5 15.0
endloop
endfacet
facet normal -1.0 0.0 0.0
outer loop
vertex 1.5 -2.5 9.0
vertex 1.5 2.5 15.0
vertex 1.5 2.5 9.0
endloop
endfacet
facet normal -0.0 1.0 -0.0
outer loop
vertex -1.5 -2.5 15.0
vertex 1.5 -2.5 9.0
vertex -1.5 -2.5 9.0
endloop
endfacet
facet normal -0.0 1.0 -0.0
outer loop
vertex 1.5 -2.5 9.0
vertex -1.5 -2.5 15.0
vertex 1.5 -2.5 15.0
endloop
endfacet
facet normal 1.0 -0.0 -0.0
outer loop
vertex -1.5 2.5 9.0
vertex -1.5 -2.5 15.0
vertex -1.5 -2.5 9.0
endloop
endfacet
facet normal 1.0 -0.0 -0.0
outer loop
vertex -1.5 -2.5 15.0
vertex -1.5 2.5 9.0
vertex -1.5 2.5 15.0
endloop
endfacet
facet normal 0.0 -1.0 0.0
outer loop
vertex 1.5 2.5 15.0
vertex -1.5 2.5 9.0
vertex 1.5 2.5 9.0
endloop
endfacet
facet normal 0.0 -1.0 0.0
outer loop
vertex -1.5 2.5 9.0
vertex 1.5 2.5 15.0
vertex -1.5 2.5 15.0
endloop
endfacet
facet normal -0.453990499739547 0.891006524188368 6.98865533004631e-017
outer loop
vertex -1.81596199895819 3.56402609675347 15.0
vertex -1.23606797749979 3.80422606518061 -0.899999999999995
vertex -1.81596199895819 3.56402609675347 -0.899999999999995
endloop
endfacet
facet normal -0.309016994374947 0.951056516295154 5.11112698272944e-017
outer loop
vertex -1.23606797749979 3.80422606518061 -0.899999999999995
vertex -1.81596199895819 3.56402609675347 15.0
vertex -1.23606797749979 3.80422606518061 15.0
endloop
endfacet
facet normal -0.707106781186547 0.707106781186548 5.3827598390955e-017
outer loop
vertex -2.82842712474619 2.82842712474619 15.0
vertex -3.23606797749979 2.35114100916989 -0.899999999999995
vertex -3.23606797749979 2.35114100916989 15.0
endloop
endfacet
facet normal -0.809016994374947 0.587785252292474 9.17526121480221e-017
outer loop
vertex -3.23606797749979 2.35114100916989 -0.899999999999995
vertex -2.82842712474619 2.82842712474619 15.0
vertex -2.82842712474619 2.82842712474619 -0.899999999999995
endloop
endfacet
facet normal -0.809016994374947 -0.587785252292473 -1.53771663067122e-017
outer loop
vertex -3.23606797749979 -2.35114100916989 15.0
vertex -2.82842712474619 -2.82842712474619 -0.899999999999995
vertex -2.82842712474619 -2.82842712474619 15.0
endloop
endfacet
facet normal -0.707106781186548 -0.707106781186547 -3.03019522125629e-017
outer loop
vertex -2.82842712474619 -2.82842712474619 -0.899999999999995
vertex -3.23606797749979 -2.35114100916989 15.0
vertex -3.23606797749979 -2.35114100916989 -0.899999999999995
endloop
endfacet
facet normal -0.156434465040231 -0.987688340595138 -7.86020686491713e-017
outer loop
vertex -0.625737860160924 -3.95075336238055 15.0
vertex -1.23606797749979 -3.80422606518061 -0.899999999999995
vertex -0.625737860160924 -3.95075336238055 -0.899999999999995
endloop
endfacet
facet normal -0.309016994374948 -0.951056516295154 -6.61168322886713e-017
outer loop
vertex -1.23606797749979 -3.80422606518061 -0.899999999999995
vertex -0.625737860160924 -3.95075336238055 15.0
vertex -1.23606797749979 -3.80422606518061 15.0
endloop
endfacet
facet normal 0.587785252292473 -0.809016994374947 -9.44656492715206e-017
outer loop
vertex 2.35114100916989 -3.23606797749979 15.0
vertex 1.81596199895819 -3.56402609675347 -0.899999999999995
vertex 2.35114100916989 -3.23606797749979 -0.899999999999995
endloop
endfacet
facet normal 0.453990499739547 -0.891006524188368 -9.64498780535118e-017
outer loop
vertex 1.81596199895819 -3.56402609675347 -0.899999999999995
vertex 2.35114100916989 -3.23606797749979 15.0
vertex 1.81596199895819 -3.56402609675347 15.0
endloop
endfacet
facet normal -0.951056516295154 0.309016994374947 8.08458232548228e-017
outer loop
vertex -3.80422606518061 1.23606797749979 15.0
vertex -3.95075336238055 0.625737860160925 -0.899999999999995
vertex -3.95075336238055 0.625737860160923 15.0
endloop
endfacet
facet normal -0.987688340595138 0.156434465040231 5.68657513133117e-017
outer loop
vertex -3.95075336238055 0.625737860160925 -0.899999999999995
vertex -3.80422606518061 1.23606797749979 15.0
vertex -3.80422606518061 1.23606797749979 -0.899999999999995
endloop
endfacet
facet normal 0.707106781186547 -0.707106781186548 -8.25108806779243e-017
outer loop
vertex 2.82842712474619 -2.82842712474619 -0.899999999999995
vertex 3.23606797749979 -2.35114100916989 15.0
vertex 2.82842712474619 -2.82842712474619 15.0
endloop
endfacet
facet normal 0.809016994374948 -0.587785252292473 -7.62319725291821e-017
outer loop
vertex 3.23606797749979 -2.35114100916989 15.0
vertex 2.82842712474619 -2.82842712474619 -0.899999999999995
vertex 3.23606797749979 -2.35114100916989 -0.899999999999995
endloop
endfacet
facet normal -0.156434465040231 0.987688340595138 1.49462650203888e-017
outer loop
vertex -0.625737860160923 3.95075336238055 15.0
vertex -7.04991620636974e-016 4.0 -0.899999999999995
vertex -0.625737860160923 3.95075336238055 -0.899999999999995
endloop
endfacet
facet normal -2.6586579898534e-017 1.0 -8.57263037871914e-019
outer loop
vertex -7.04991620636974e-016 4.0 -0.899999999999995
vertex -0.625737860160923 3.95075336238055 15.0
vertex 3.52495810318487e-016 4.0 15.0
endloop
endfacet
facet normal -0.309016994374947 0.951056516295154 5.11112698272944e-017
outer loop
vertex -1.23606797749979 3.80422606518061 15.0
vertex -0.625737860160923 3.95075336238055 -0.899999999999995
vertex -1.23606797749979 3.80422606518061 -0.899999999999995
endloop
endfacet
facet normal -0.156434465040231 0.987688340595138 1.49462650203888e-017
outer loop
vertex -0.625737860160923 3.95075336238055 -0.899999999999995
vertex -1.23606797749979 3.80422606518061 15.0
vertex -0.625737860160923 3.95075336238055 15.0
endloop
endfacet
facet normal -0.809016994374947 0.587785252292474 9.17526121480221e-017
outer loop
vertex -3.23606797749979 2.35114100916989 15.0
vertex -3.56402609675347 1.81596199895819 -0.899999999999995
vertex -3.56402609675347 1.81596199895819 15.0
endloop
endfacet
facet normal -0.891006524188368 0.453990499739547 1.07236924787141e-016
outer loop
vertex -3.56402609675347 1.81596199895819 -0.899999999999995
vertex -3.23606797749979 2.35114100916989 15.0
vertex -3.23606797749979 2.35114100916989 -0.899999999999995
endloop
endfacet
facet normal -7.08975463960907e-017 -1.0 -8.62075389355863e-017
outer loop
vertex -7.04991620636974e-016 -4.0 15.0
vertex -0.625737860160924 -3.95075336238055 -0.899999999999995
vertex -2.11497486191092e-015 -4.0 -0.899999999999995
endloop
endfacet
facet normal -0.156434465040231 -0.987688340595138 -7.86020686491713e-017
outer loop
vertex -0.625737860160924 -3.95075336238055 -0.899999999999995
vertex -7.04991620636974e-016 -4.0 15.0
vertex -0.625737860160924 -3.95075336238055 15.0
endloop
endfacet
facet normal -0.951056516295154 -0.309016994374947 1.50228478282619e-017
outer loop
vertex -3.80422606518061 -1.23606797749979 15.0
vertex -3.56402609675347 -1.81596199895818 -0.899999999999995
vertex -3.56402609675347 -1.81596199895819 15.0
endloop
endfacet
facet normal -0.891006524188368 -0.453990499739547 1.17472515282039e-018
outer loop
vertex -3.56402609675347 -1.81596199895818 -0.899999999999995
vertex -3.80422606518061 -1.23606797749979 15.0
vertex -3.80422606518061 -1.23606797749979 -0.899999999999995
endloop
endfacet
facet normal -1.0 -6.20353530965794e-017 4.28894537083252e-017
outer loop
vertex -4.0 3.52495810318487e-016 15.0
vertex -3.95075336238055 -0.625737860160921 -0.899999999999995
vertex -3.95075336238055 -0.625737860160923 15.0
endloop
endfacet
facet normal -0.987688340595138 -0.156434465040231 2.79594647190256e-017
outer loop
vertex -3.95075336238055 -0.625737860160921 -0.899999999999995
vertex -4.0 3.52495810318487e-016 15.0
vertex -4.0 1.40998324127395e-015 -0.899999999999995
endloop
endfacet
facet normal 0.707106781186547 -0.707106781186548 -8.25108806779243e-017
outer loop
vertex 2.82842712474619 -2.82842712474619 15.0
vertex 2.35114100916989 -3.23606797749979 -0.899999999999995
vertex 2.82842712474619 -2.82842712474619 -0.899999999999995
endloop
endfacet
facet normal 0.587785252292473 -0.809016994374947 -9.44656492715206e-017
outer loop
vertex 2.35114100916989 -3.23606797749979 -0.899999999999995
vertex 2.82842712474619 -2.82842712474619 15.0
vertex 2.35114100916989 -3.23606797749979 15.0
endloop
endfacet
facet normal 0.309016994374947 0.951056516295154 2.83138757252818e-018
outer loop
vertex 1.23606797749979 3.80422606518061 15.0
vertex 1.81596199895819 3.56402609675347 -0.899999999999995
vertex 1.23606797749979 3.80422606518061 -0.899999999999995
endloop
endfacet
facet normal 0.453990499739547 0.891006524188368 7.53810011219472e-018
outer loop
vertex 1.81596199895819 3.56402609675347 -0.899999999999995
vertex 1.23606797749979 3.80422606518061 15.0
vertex 1.81596199895819 3.56402609675347 15.0
endloop
endfacet
facet normal 0.453990499739547 0.891006524188368 7.53810011219472e-018
outer loop
vertex 1.81596199895819 3.56402609675347 15.0
vertex 2.35114100916989 3.23606797749979 -0.899999999999995
vertex 1.81596199895819 3.56402609675347 -0.899999999999995
endloop
endfacet
facet normal 0.587785252292472 0.809016994374948 1.79293195591058e-018
outer loop
vertex 2.35114100916989 3.23606797749979 -0.899999999999995
vertex 1.81596199895819 3.56402609675347 15.0
vertex 2.35114100916989 3.23606797749979 15.0
endloop
endfacet
facet normal -0.987688340595138 -0.156434465040231 2.79594647190256e-017
outer loop
vertex -3.95075336238055 -0.625737860160923 15.0
vertex -3.80422606518061 -1.23606797749979 -0.899999999999995
vertex -3.80422606518061 -1.23606797749979 15.0
endloop
endfacet
facet normal -0.951056516295154 -0.309016994374947 1.50228478282619e-017
outer loop
vertex -3.80422606518061 -1.23606797749979 -0.899999999999995
vertex -3.95075336238055 -0.625737860160923 15.0
vertex -3.95075336238055 -0.625737860160921 -0.899999999999995
endloop
endfacet
facet normal -0.587785252292473 -0.809016994374947 -4.02194916862174e-017
outer loop
vertex -2.35114100916989 -3.23606797749979 15.0
vertex -2.82842712474619 -2.82842712474619 -0.899999999999995
vertex -2.35114100916989 -3.23606797749979 -0.899999999999995
endloop
endfacet
facet normal -0.707106781186548 -0.707106781186547 -3.03019522125629e-017
outer loop
vertex -2.82842712474619 -2.82842712474619 -0.899999999999995
vertex -2.35114100916989 -3.23606797749979 15.0
vertex -2.82842712474619 -2.82842712474619 15.0
endloop
endfacet
facet normal -0.891006524188368 0.453990499739547 1.07236924787141e-016
outer loop
vertex -3.56402609675347 1.81596199895819 15.0
vertex -3.80422606518061 1.23606797749979 -0.899999999999995
vertex -3.80422606518061 1.23606797749979 15.0
endloop
endfacet
facet normal -0.951056516295154 0.309016994374947 8.08458232548228e-017
outer loop
vertex -3.80422606518061 1.23606797749979 -0.899999999999995
vertex -3.56402609675347 1.81596199895819 15.0
vertex -3.56402609675347 1.81596199895819 -0.899999999999995
endloop
endfacet
facet normal -0.309016994374948 -0.951056516295154 -6.61168322886713e-017
outer loop
vertex -1.23606797749979 -3.80422606518061 15.0
vertex -1.81596199895819 -3.56402609675347 -0.899999999999995
vertex -1.23606797749979 -3.80422606518061 -0.899999999999995
endloop
endfacet
facet normal -0.453990499739547 -0.891006524188368 -4.94065005778864e-017
outer loop
vertex -1.81596199895819 -3.56402609675347 -0.899999999999995
vertex -1.23606797749979 -3.80422606518061 15.0
vertex -1.81596199895819 -3.56402609675347 15.0
endloop
endfacet
facet normal 0.587785252292472 0.809016994374948 1.79293195591058e-018
outer loop
vertex 2.35114100916989 3.23606797749979 15.0
vertex 2.82842712474619 2.82842712474619 -0.899999999999995
vertex 2.35114100916989 3.23606797749979 -0.899999999999995
endloop
endfacet
facet normal 0.707106781186548 0.707106781186548 8.30837931585875e-018
outer loop
vertex 2.82842712474619 2.82842712474619 -0.899999999999995
vertex 2.35114100916989 3.23606797749979 15.0
vertex 2.82842712474619 2.82842712474619 15.0
endloop
endfacet
facet normal 0.309016994374947 -0.951056516295154 -9.77671692545665e-017
outer loop
vertex 1.23606797749979 -3.80422606518061 15.0
vertex 0.625737860160922 -3.95075336238055 -0.899999999999995
vertex 1.23606797749979 -3.80422606518061 -0.899999999999995
endloop
endfacet
facet normal 0.156434465040231 -0.987688340595138 -9.47413831272505e-017
outer loop
vertex 0.625737860160922 -3.95075336238055 -0.899999999999995
vertex 1.23606797749979 -3.80422606518061 15.0
vertex 0.625737860160923 -3.95075336238055 15.0
endloop
endfacet
facet normal -1.77243865990227e-017 1.0 -8.57263037871915e-019
outer loop
vertex 3.52495810318487e-016 4.0 15.0
vertex 0.625737860160922 3.95075336238055 -0.899999999999995
vertex -7.04991620636974e-016 4.0 -0.899999999999995
endloop
endfacet
facet normal 0.156434465040231 0.987688340595138 -7.729859808292e-018
outer loop
vertex 0.625737860160922 3.95075336238055 -0.899999999999995
vertex 3.52495810318487e-016 4.0 15.0
vertex 0.625737860160923 3.95075336238055 15.0
endloop
endfacet
facet normal -0.987688340595138 0.156434465040231 5.68657513133117e-017
outer loop
vertex -3.95075336238055 0.625737860160923 15.0
vertex -4.0 1.40998324127395e-015 -0.899999999999995
vertex -4.0 3.52495810318487e-016 15.0
endloop
endfacet
facet normal -1.0 -5.3173159797068e-017 4.28894537083252e-017
outer loop
vertex -4.0 1.40998324127395e-015 -0.899999999999995
vertex -3.95075336238055 0.625737860160923 15.0
vertex -3.95075336238055 0.625737860160925 -0.899999999999995
endloop
endfacet
facet normal 0.156434465040231 0.987688340595138 -7.729859808292e-018
outer loop
vertex 0.625737860160923 3.95075336238055 15.0
vertex 1.23606797749979 3.80422606518061 -0.899999999999995
vertex 0.625737860160922 3.95075336238055 -0.899999999999995
endloop
endfacet
facet normal 0.309016994374947 0.951056516295154 2.83138757252818e-018
outer loop
vertex 1.23606797749979 3.80422606518061 -0.899999999999995
vertex 0.625737860160923 3.95075336238055 15.0
vertex 1.23606797749979 3.80422606518061 15.0
endloop
endfacet
facet normal -0.707106781186547 0.707106781186548 5.3827598390955e-017
outer loop
vertex -2.82842712474619 2.82842712474619 15.0
vertex -2.35114100916989 3.23606797749979 -0.899999999999995
vertex -2.82842712474619 2.82842712474619 -0.899999999999995
endloop
endfacet
facet normal -0.587785252292474 0.809016994374947 5.27712478713951e-017
outer loop
vertex -2.35114100916989 3.23606797749979 -0.899999999999995
vertex -2.82842712474619 2.82842712474619 15.0
vertex -2.35114100916989 3.23606797749979 15.0
endloop
endfacet
facet normal -0.587785252292474 0.809016994374947 5.27712478713951e-017
outer loop
vertex -2.35114100916989 3.23606797749979 15.0
vertex -1.81596199895819 3.56402609675347 -0.899999999999995
vertex -2.35114100916989 3.23606797749979 -0.899999999999995
endloop
endfacet
facet normal -0.453990499739547 0.891006524188368 6.98865533004631e-017
outer loop
vertex -1.81596199895819 3.56402609675347 -0.899999999999995
vertex -2.35114100916989 3.23606797749979 15.0
vertex -1.81596199895819 3.56402609675347 15.0
endloop
endfacet
facet normal -0.453990499739547 -0.891006524188368 -4.94065005778864e-017
outer loop
vertex -1.81596199895819 -3.56402609675347 15.0
vertex -2.35114100916989 -3.23606797749979 -0.899999999999995
vertex -1.81596199895819 -3.56402609675347 -0.899999999999995
endloop
endfacet
facet normal -0.587785252292473 -0.809016994374947 -4.02194916862174e-017
outer loop
vertex -2.35114100916989 -3.23606797749979 -0.899999999999995
vertex -1.81596199895819 -3.56402609675347 15.0
vertex -2.35114100916989 -3.23606797749979 15.0
endloop
endfacet
facet normal 0.156434465040231 -0.987688340595138 -9.47413831272505e-017
outer loop
vertex 0.625737860160923 -3.95075336238055 15.0
vertex -2.11497486191092e-015 -4.0 -0.899999999999995
vertex 0.625737860160922 -3.95075336238055 -0.899999999999995
endloop
endfacet
facet normal -8.41908363453577e-017 -1.0 -8.62075389355863e-017
outer loop
vertex -2.11497486191092e-015 -4.0 -0.899999999999995
vertex 0.625737860160923 -3.95075336238055 15.0
vertex -7.04991620636974e-016 -4.0 15.0
endloop
endfacet
facet normal 0.453990499739547 -0.891006524188368 -9.64498780535118e-017
outer loop
vertex 1.81596199895819 -3.56402609675347 15.0
vertex 1.23606797749979 -3.80422606518061 -0.899999999999995
vertex 1.81596199895819 -3.56402609675347 -0.899999999999995
endloop
endfacet
facet normal 0.309016994374947 -0.951056516295154 -9.77671692545665e-017
outer loop
vertex 1.23606797749979 -3.80422606518061 -0.899999999999995
vertex 1.81596199895819 -3.56402609675347 15.0
vertex 1.23606797749979 -3.80422606518061 15.0
endloop
endfacet
facet normal -0.891006524188368 -0.453990499739547 1.17472515282039e-018
outer loop
vertex -3.56402609675347 -1.81596199895819 15.0
vertex -3.23606797749979 -2.35114100916989 -0.899999999999995
vertex -3.23606797749979 -2.35114100916989 15.0
endloop
endfacet
facet normal -0.809016994374947 -0.587785252292473 -1.53771663067122e-017
outer loop
vertex -3.23606797749979 -2.35114100916989 -0.899999999999995
vertex -3.56402609675347 -1.81596199895819 15.0
vertex -3.56402609675347 -1.81596199895818 -0.899999999999995
endloop
endfacet
facet normal 0.809016994374948 -0.587785252292473 -7.62319725291821e-017
outer loop
vertex 3.23606797749979 -2.35114100916989 -0.899999999999995
vertex 3.56402609675347 -1.81596199895819 15.0
vertex 3.23606797749979 -2.35114100916989 15.0
endloop
endfacet
facet normal 0.891006524188368 -0.453990499739547 -7.66089058069235e-017
outer loop
vertex 3.56402609675347 -1.81596199895819 15.0
vertex 3.23606797749979 -2.35114100916989 -0.899999999999995
vertex 3.56402609675347 -1.81596199895819 -0.899999999999995
endloop
endfacet
facet normal 0.951056516295153 -0.309016994374948 -5.78766015474549e-017
outer loop
vertex 3.80422606518061 -1.23606797749979 -0.899999999999995
vertex 3.95075336238055 -0.625737860160924 15.0
vertex 3.80422606518061 -1.23606797749979 15.0
endloop
endfacet
facet normal 0.987688340595138 -0.156434465040231 -4.69776975060423e-017
outer loop
vertex 3.95075336238055 -0.625737860160924 15.0
vertex 3.80422606518061 -1.23606797749979 -0.899999999999995
vertex 3.95075336238055 -0.625737860160922 -0.899999999999995
endloop
endfacet
facet normal 0.987688340595138 -0.156434465040231 -4.69776975060423e-017
outer loop
vertex 3.95075336238055 -0.625737860160922 -0.899999999999995
vertex 4.0 -1.05748743095546e-015 15.0
vertex 3.95075336238055 -0.625737860160924 15.0
endloop
endfacet
facet normal 1.0 -7.53286430458464e-017 -4.32568521531274e-017
outer loop
vertex 4.0 -1.05748743095546e-015 15.0
vertex 3.95075336238055 -0.625737860160922 -0.899999999999995
vertex 4.0 0.0 -0.899999999999995
endloop
endfacet
facet normal 1.0 -6.64664497463351e-017 -4.32568521531274e-017
outer loop
vertex 4.0 0.0 -0.899999999999995
vertex 3.95075336238055 0.625737860160922 15.0
vertex 4.0 -1.05748743095546e-015 15.0
endloop
endfacet
facet normal 0.987688340595138 0.156434465040231 -2.86912460856179e-017
outer loop
vertex 3.95075336238055 0.625737860160922 15.0
vertex 4.0 0.0 -0.899999999999995
vertex 3.95075336238055 0.625737860160924 -0.899999999999995
endloop
endfacet
facet normal 0.891006524188368 0.453990499739547 -1.04269083697236e-017
outer loop
vertex 3.56402609675347 1.81596199895819 -0.899999999999995
vertex 3.23606797749979 2.35114100916989 15.0
vertex 3.56402609675347 1.81596199895819 15.0
endloop
endfacet
facet normal 0.809016994374948 0.587785252292472 -2.04797099295692e-018
outer loop
vertex 3.23606797749979 2.35114100916989 15.0
vertex 3.56402609675347 1.81596199895819 -0.899999999999995
vertex 3.23606797749979 2.35114100916989 -0.899999999999995
endloop
endfacet
facet normal 0.891006524188368 -0.453990499739547 -7.66089058069235e-017
outer loop
vertex 3.56402609675347 -1.81596199895819 -0.899999999999995
vertex 3.80422606518061 -1.23606797749979 15.0
vertex 3.56402609675347 -1.81596199895819 15.0
endloop
endfacet
facet normal 0.951056516295153 -0.309016994374948 -5.78766015474549e-017
outer loop
vertex 3.80422606518061 -1.23606797749979 15.0
vertex 3.56402609675347 -1.81596199895819 -0.899999999999995
vertex 3.80422606518061 -1.23606797749979 -0.899999999999995
endloop
endfacet
facet normal 0.707106781186548 0.707106781186548 8.30837931585875e-018
outer loop
vertex 2.82842712474619 2.82842712474619 -0.899999999999995
vertex 3.23606797749979 2.35114100916989 15.0
vertex 3.23606797749979 2.35114100916989 -0.899999999999995
endloop
endfacet
facet normal 0.809016994374948 0.587785252292472 -2.04797099295692e-018
outer loop
vertex 3.23606797749979 2.35114100916989 15.0
vertex 2.82842712474619 2.82842712474619 -0.899999999999995
vertex 2.82842712474619 2.82842712474619 15.0
endloop
endfacet
facet normal 0.987688340595138 0.156434465040231 -2.86912460856179e-017
outer loop
vertex 3.95075336238055 0.625737860160924 -0.899999999999995
vertex 3.80422606518061 1.23606797749979 15.0
vertex 3.95075336238055 0.625737860160922 15.0
endloop
endfacet
facet normal 0.951056516295154 0.309016994374947 -1.32965849254397e-017
outer loop
vertex 3.80422606518061 1.23606797749979 15.0
vertex 3.95075336238055 0.625737860160924 -0.899999999999995
vertex 3.80422606518061 1.23606797749979 -0.899999999999995
endloop
endfacet
facet normal 0.951056516295154 0.309016994374947 -1.32965849254397e-017
outer loop
vertex 3.80422606518061 1.23606797749979 -0.899999999999995
vertex 3.56402609675347 1.81596199895819 15.0
vertex 3.80422606518061 1.23606797749979 15.0
endloop
endfacet
facet normal 0.891006524188368 0.453990499739547 -1.04269083697236e-017
outer loop
vertex 3.56402609675347 1.81596199895819 15.0
vertex 3.80422606518061 1.23606797749979 -0.899999999999995
vertex 3.56402609675347 1.81596199895819 -0.899999999999995
endloop
endfacet
facet normal -3.10633240730218e-032 -5.03225849982952e-031 -1.0
outer loop
vertex -3.95075336238055 0.625737860160923 -2.89999999999999
vertex -3.95075336238055 -0.625737860160923 -2.89999999999999
vertex -4.0 3.52495810318481e-016 -2.89999999999999
endloop
endfacet
facet normal -3.10633240730218e-032 -5.03225849982952e-031 -1.0
outer loop
vertex -3.95075336238055 -0.625737860160923 -2.89999999999999
vertex -3.95075336238055 0.625737860160923 -2.89999999999999
vertex -3.80422606518061 1.23606797749979 -2.89999999999999
endloop
endfacet
facet normal -3.10633240730218e-032 -5.03225849982952e-031 -1.0
outer loop
vertex -3.95075336238055 -0.625737860160923 -2.89999999999999
vertex -3.80422606518061 1.23606797749979 -2.89999999999999
vertex -3.80422606518061 -1.23606797749979 -2.89999999999999
endloop
endfacet
facet normal -3.10633240730218e-032 -5.03225849982952e-031 -1.0
outer loop
vertex -3.80422606518061 -1.23606797749979 -2.89999999999999
vertex -3.80422606518061 1.23606797749979 -2.89999999999999
vertex -3.56402609675347 1.81596199895819 -2.89999999999999
endloop
endfacet
facet normal -3.10633240730218e-032 -5.03225849982952e-031 -1.0
outer loop
vertex -3.80422606518061 -1.23606797749979 -2.89999999999999
vertex -3.56402609675347 1.81596199895819 -2.89999999999999
vertex -3.56402609675347 -1.81596199895819 -2.89999999999999
endloop
endfacet
facet normal -3.10633240730218e-032 -5.03225849982952e-031 -1.0
outer loop
vertex -3.56402609675347 -1.81596199895819 -2.89999999999999
vertex -3.56402609675347 1.81596199895819 -2.89999999999999
vertex -3.23606797749979 -2.35114100916989 -2.89999999999999
endloop
endfacet
facet normal -3.10633240730218e-032 -5.03225849982952e-031 -1.0
outer loop
vertex -3.23606797749979 -2.35114100916989 -2.89999999999999
vertex -3.56402609675347 1.81596199895819 -2.89999999999999
vertex -3.23606797749979 2.35114100916989 -2.89999999999999
endloop
endfacet
facet normal -3.10633240730218e-032 -5.03225849982952e-031 -1.0
outer loop
vertex -3.23606797749979 -2.35114100916989 -2.89999999999999
vertex -3.23606797749979 2.35114100916989 -2.89999999999999
vertex -2.82842712474619 2.82842712474619 -2.89999999999999
endloop
endfacet
facet normal -3.10633240730218e-032 -5.03225849982952e-031 -1.0
outer loop
vertex -3.23606797749979 -2.35114100916989 -2.89999999999999
vertex -2.82842712474619 2.82842712474619 -2.89999999999999
vertex -2.82842712474619 -2.82842712474619 -2.89999999999999
endloop
endfacet
facet normal -3.10633240730218e-032 -5.03225849982952e-031 -1.0
outer loop
vertex -2.82842712474619 -2.82842712474619 -2.89999999999999
vertex -2.82842712474619 2.82842712474619 -2.89999999999999
vertex -2.35114100916989 -3.23606797749979 -2.89999999999999
endloop
endfacet
facet normal -3.10633240730218e-032 -5.03225849982952e-031 -1.0
outer loop
vertex -2.35114100916989 -3.23606797749979 -2.89999999999999
vertex -2.82842712474619 2.82842712474619 -2.89999999999999
vertex -2.35114100916989 3.23606797749979 -2.89999999999999
endloop
endfacet
facet normal -3.10633240730218e-032 -5.03225849982952e-031 -1.0
outer loop
vertex -2.35114100916989 -3.23606797749979 -2.89999999999999
vertex -2.35114100916989 3.23606797749979 -2.89999999999999
vertex -1.81596199895819 -3.56402609675347 -2.89999999999999
endloop
endfacet
facet normal -3.10633240730218e-032 -5.03225849982952e-031 -1.0
outer loop
vertex -1.81596199895819 -3.56402609675347 -2.89999999999999
vertex -2.35114100916989 3.23606797749979 -2.89999999999999
vertex -1.81596199895819 3.56402609675347 -2.89999999999999
endloop
endfacet
facet normal -3.10633240730218e-032 -5.03225849982952e-031 -1.0
outer loop
vertex -1.81596199895819 -3.56402609675347 -2.89999999999999
vertex -1.81596199895819 3.56402609675347 -2.89999999999999
vertex -1.23606797749979 -3.80422606518061 -2.89999999999999
endloop
endfacet
facet normal -3.10633240730218e-032 -5.03225849982952e-031 -1.0
outer loop
vertex -1.23606797749979 -3.80422606518061 -2.89999999999999
vertex -1.81596199895819 3.56402609675347 -2.89999999999999
vertex -1.23606797749979 3.80422606518061 -2.89999999999999
endloop
endfacet
facet normal -3.10633240730218e-032 -5.03225849982952e-031 -1.0
outer loop
vertex -1.23606797749979 -3.80422606518061 -2.89999999999999
vertex -1.23606797749979 3.80422606518061 -2.89999999999999
vertex -0.625737860160924 -3.95075336238055 -2.89999999999999
endloop
endfacet
facet normal -3.10633240730218e-032 -5.03225849982952e-031 -1.0
outer loop
vertex -0.625737860160924 -3.95075336238055 -2.89999999999999
vertex -1.23606797749979 3.80422606518061 -2.89999999999999
vertex -0.625737860160923 3.95075336238055 -2.89999999999999
endloop
endfacet
facet normal -3.10633240730218e-032 -5.03225849982952e-031 -1.0
outer loop
vertex -0.625737860160924 -3.95075336238055 -2.89999999999999
vertex -0.625737860160923 3.95075336238055 -2.89999999999999
vertex -7.04991620636975e-016 -4.0 -2.89999999999999
endloop
endfacet
facet normal -3.10633240730218e-032 -5.03225849982952e-031 -1.0
outer loop
vertex -7.04991620636975e-016 -4.0 -2.89999999999999
vertex -0.625737860160923 3.95075336238055 -2.89999999999999
vertex 3.52495810318487e-016 4.0 -2.89999999999999
endloop
endfacet
facet normal -3.10633240730218e-032 -5.03225849982952e-031 -1.0
outer loop
vertex -7.04991620636975e-016 -4.0 -2.89999999999999
vertex 3.52495810318487e-016 4.0 -2.89999999999999
vertex 0.625737860160923 -3.95075336238055 -2.89999999999999
endloop
endfacet
facet normal -3.10633240730218e-032 -5.03225849982952e-031 -1.0
outer loop
vertex 0.625737860160923 -3.95075336238055 -2.89999999999999
vertex 3.52495810318487e-016 4.0 -2.89999999999999
vertex 0.625737860160923 3.95075336238055 -2.89999999999999
endloop
endfacet
facet normal -3.10633240730218e-032 -5.03225849982952e-031 -1.0
outer loop
vertex 0.625737860160923 -3.95075336238055 -2.89999999999999
vertex 0.625737860160923 3.95075336238055 -2.89999999999999
vertex 1.23606797749979 -3.80422606518061 -2.89999999999999
endloop
endfacet
facet normal -3.10633240730218e-032 -5.03225849982952e-031 -1.0
outer loop
vertex 1.23606797749979 -3.80422606518061 -2.89999999999999
vertex 0.625737860160923 3.95075336238055 -2.89999999999999
vertex 1.23606797749979 3.80422606518061 -2.89999999999999
endloop
endfacet
facet normal -3.10633240730218e-032 -5.03225849982952e-031 -1.0
outer loop
vertex 1.23606797749979 -3.80422606518061 -2.89999999999999
vertex 1.23606797749979 3.80422606518061 -2.89999999999999
vertex 1.81596199895819 -3.56402609675347 -2.89999999999999
endloop
endfacet
facet normal -3.10633240730218e-032 -5.03225849982952e-031 -1.0
outer loop
vertex 1.81596199895819 -3.56402609675347 -2.89999999999999
vertex 1.23606797749979 3.80422606518061 -2.89999999999999
vertex 1.81596199895819 3.56402609675347 -2.89999999999999
endloop
endfacet
facet normal -3.10633240730218e-032 -5.03225849982952e-031 -1.0
outer loop
vertex 1.81596199895819 -3.56402609675347 -2.89999999999999
vertex 1.81596199895819 3.56402609675347 -2.89999999999999
vertex 2.35114100916989 -3.23606797749979 -2.89999999999999
endloop
endfacet
facet normal -3.10633240730218e-032 -5.03225849982952e-031 -1.0
outer loop
vertex 2.35114100916989 -3.23606797749979 -2.89999999999999
vertex 1.81596199895819 3.56402609675347 -2.89999999999999
vertex 2.35114100916989 3.23606797749979 -2.89999999999999
endloop
endfacet
facet normal -3.10633240730218e-032 -5.03225849982952e-031 -1.0
outer loop
vertex 2.35114100916989 -3.23606797749979 -2.89999999999999
vertex 2.35114100916989 3.23606797749979 -2.89999999999999
vertex 2.82842712474619 -2.82842712474619 -2.89999999999999
endloop
endfacet
facet normal -3.10633240730218e-032 -5.03225849982952e-031 -1.0
outer loop
vertex 2.82842712474619 -2.82842712474619 -2.89999999999999
vertex 2.35114100916989 3.23606797749979 -2.89999999999999
vertex 2.82842712474619 2.82842712474619 -2.89999999999999
endloop
endfacet
facet normal -3.10633240730218e-032 -5.03225849982952e-031 -1.0
outer loop
vertex 2.82842712474619 -2.82842712474619 -2.89999999999999
vertex 2.82842712474619 2.82842712474619 -2.89999999999999
vertex 3.23606797749979 -2.35114100916989 -2.89999999999999
endloop
endfacet
facet normal -3.10633240730218e-032 -5.03225849982952e-031 -1.0
outer loop
vertex 3.23606797749979 -2.35114100916989 -2.89999999999999
vertex 2.82842712474619 2.82842712474619 -2.89999999999999
vertex 3.23606797749979 2.35114100916989 -2.89999999999999
endloop
endfacet
facet normal -3.10633240730218e-032 -5.03225849982952e-031 -1.0
outer loop
vertex 3.23606797749979 -2.35114100916989 -2.89999999999999
vertex 3.23606797749979 2.35114100916989 -2.89999999999999
vertex 3.56402609675347 -1.81596199895819 -2.89999999999999
endloop
endfacet
facet normal -3.10633240730218e-032 -5.03225849982952e-031 -1.0
outer loop
vertex 3.56402609675347 -1.81596199895819 -2.89999999999999
vertex 3.23606797749979 2.35114100916989 -2.89999999999999
vertex 3.56402609675347 1.81596199895819 -2.89999999999999
endloop
endfacet
facet normal -3.10633240730218e-032 -5.03225849982952e-031 -1.0
outer loop
vertex 3.56402609675347 -1.81596199895819 -2.89999999999999
vertex 3.56402609675347 1.81596199895819 -2.89999999999999
vertex 3.80422606518061 -1.23606797749979 -2.89999999999999
endloop
endfacet
facet normal -3.10633240730218e-032 -5.03225849982952e-031 -1.0
outer loop
vertex 3.80422606518061 -1.23606797749979 -2.89999999999999
vertex 3.56402609675347 1.81596199895819 -2.89999999999999
vertex 3.80422606518061 1.23606797749979 -2.89999999999999
endloop
endfacet
facet normal -3.10633240730218e-032 -5.03225849982952e-031 -1.0
outer loop
vertex 3.80422606518061 -1.23606797749979 -2.89999999999999
vertex 3.80422606518061 1.23606797749979 -2.89999999999999
vertex 3.95075336238055 -0.625737860160924 -2.89999999999999
endloop
endfacet
facet normal -3.10633240730218e-032 -5.03225849982952e-031 -1.0
outer loop
vertex 3.95075336238055 -0.625737860160924 -2.89999999999999
vertex 3.80422606518061 1.23606797749979 -2.89999999999999
vertex 3.95075336238055 0.625737860160922 -2.89999999999999
endloop
endfacet
facet normal -3.10633240730218e-032 -5.03225849982952e-031 -1.0
outer loop
vertex 3.95075336238055 -0.625737860160924 -2.89999999999999
vertex 3.95075336238055 0.625737860160922 -2.89999999999999
vertex 4.0 -1.05748743095547e-015 -2.89999999999999
endloop
endfacet
facet normal 0.957826285221152 -3.68547647348551e-016 0.287347885566345
outer loop
vertex 4.0 -1.05748743095547e-015 -2.89999999999999
vertex 3.65444686020201 -0.578807520648854 -1.89999999999999
vertex 3.95075336238055 -0.625737860160924 -2.89999999999999
endloop
endfacet
facet normal 0.946033854228484 -0.149837042530043 0.287347885566345
outer loop
vertex 3.65444686020201 -0.578807520648854 -1.89999999999999
vertex 4.0 -1.05748743095547e-015 -2.89999999999999
vertex 3.7 4.40619762898109e-016 -1.89999999999999
endloop
endfacet
facet normal -0.946033854228485 -0.149837042530042 0.287347885566344
outer loop
vertex -3.65444686020201 -0.578807520648851 -1.89999999999999
vertex -4.0 3.52495810318481e-016 -2.89999999999999
vertex -3.95075336238055 -0.625737860160923 -2.89999999999999
endloop
endfacet
facet normal -0.957826285221152 1.48317955640271e-016 0.287347885566344
outer loop
vertex -4.0 3.52495810318481e-016 -2.89999999999999
vertex -3.65444686020201 -0.578807520648851 -1.89999999999999
vertex -3.7 3.08433834028676e-015 -1.89999999999999
endloop
endfacet
facet normal 0.910946930038356 -0.295984599792362 0.287347885566346
outer loop
vertex 3.80422606518061 -1.23606797749979 -2.89999999999999
vertex 3.29672413949696 -1.67976484903632 -1.89999999999999
vertex 3.56402609675347 -1.81596199895819 -2.89999999999999
endloop
endfacet
facet normal 0.853429469171154 -0.434844033891224 0.287347885566345
outer loop
vertex 3.29672413949696 -1.67976484903632 -1.89999999999999
vertex 3.80422606518061 -1.23606797749979 -2.89999999999999
vertex 3.51890911029207 -1.1433628791873 -1.89999999999999
endloop
endfacet
facet normal 0.774897742402937 -0.562996164711077 0.287347885566345
outer loop
vertex 3.23606797749979 -2.35114100916989 -2.89999999999999
vertex 2.61629509039022 -2.61629509039022 -1.89999999999999
vertex 2.82842712474619 -2.82842712474619 -2.89999999999999
endloop
endfacet
facet normal 0.677285461478596 -0.677285461478596 0.287347885566346
outer loop
vertex 2.61629509039022 -2.61629509039022 -1.89999999999999
vertex 3.23606797749979 -2.35114100916989 -2.89999999999999
vertex 2.9933628791873 -2.17480543348215 -1.89999999999999
endloop
endfacet
facet normal -0.774897742402937 -0.562996164711077 0.287347885566344
outer loop
vertex -2.99336287918731 -2.17480543348215 -1.89999999999999
vertex -3.56402609675347 -1.81596199895819 -2.89999999999999
vertex -3.23606797749979 -2.35114100916989 -2.89999999999999
endloop
endfacet
facet normal -0.853429469171155 -0.434844033891224 0.287347885566344
outer loop
vertex -3.56402609675347 -1.81596199895819 -2.89999999999999
vertex -2.99336287918731 -2.17480543348215 -1.89999999999999
vertex -3.29672413949696 -1.67976484903632 -1.89999999999999
endloop
endfacet
facet normal -0.562996164711077 -0.774897742402937 0.287347885566345
outer loop
vertex -2.17480543348215 -2.9933628791873 -1.89999999999999
vertex -2.82842712474619 -2.82842712474619 -2.89999999999999
vertex -2.35114100916989 -3.23606797749979 -2.89999999999999
endloop
endfacet
facet normal -0.677285461478597 -0.677285461478596 0.287347885566345
outer loop
vertex -2.82842712474619 -2.82842712474619 -2.89999999999999
vertex -2.17480543348215 -2.9933628791873 -1.89999999999999
vertex -2.61629509039023 -2.61629509039022 -1.89999999999999
endloop
endfacet
facet normal -0.910946930038357 0.295984599792362 0.287347885566344
outer loop
vertex -3.51890911029207 1.14336287918731 -1.89999999999999
vertex -3.95075336238055 0.625737860160923 -2.89999999999999
vertex -3.65444686020201 0.578807520648857 -1.89999999999999
endloop
endfacet
facet normal -0.946033854228485 0.149837042530042 0.287347885566344
outer loop
vertex -3.95075336238055 0.625737860160923 -2.89999999999999
vertex -3.51890911029207 1.14336287918731 -1.89999999999999
vertex -3.80422606518061 1.23606797749979 -2.89999999999999
endloop
endfacet
facet normal 0.562996164711077 0.774897742402938 0.287347885566344
outer loop
vertex 2.17480543348215 2.99336287918731 -1.89999999999999
vertex 2.82842712474619 2.82842712474619 -2.89999999999999
vertex 2.35114100916989 3.23606797749979 -2.89999999999999
endloop
endfacet
facet normal 0.677285461478597 0.677285461478596 0.287347885566344
outer loop
vertex 2.82842712474619 2.82842712474619 -2.89999999999999
vertex 2.17480543348215 2.99336287918731 -1.89999999999999
vertex 2.61629509039023 2.61629509039023 -1.89999999999999
endloop
endfacet
facet normal 0.434844033891224 -0.853429469171154 0.287347885566346
outer loop
vertex 1.67976484903632 -3.29672413949696 -1.89999999999999
vertex 1.23606797749979 -3.80422606518061 -2.89999999999999
vertex 1.81596199895819 -3.56402609675347 -2.89999999999999
endloop
endfacet
facet normal 0.295984599792361 -0.910946930038356 0.287347885566346
outer loop
vertex 1.23606797749979 -3.80422606518061 -2.89999999999999
vertex 1.67976484903632 -3.29672413949696 -1.89999999999999
vertex 1.1433628791873 -3.51890911029207 -1.89999999999999
endloop
endfacet
facet normal 0.853429469171154 -0.434844033891224 0.287347885566345
outer loop
vertex 3.56402609675347 -1.81596199895819 -2.89999999999999
vertex 2.9933628791873 -2.17480543348215 -1.89999999999999
vertex 3.23606797749979 -2.35114100916989 -2.89999999999999
endloop
endfacet
facet normal 0.774897742402937 -0.562996164711077 0.287347885566346
outer loop
vertex 2.9933628791873 -2.17480543348215 -1.89999999999999
vertex 3.56402609675347 -1.81596199895819 -2.89999999999999
vertex 3.29672413949696 -1.67976484903632 -1.89999999999999
endloop
endfacet
facet normal 0.853429469171155 0.434844033891224 0.287347885566344
outer loop
vertex 3.56402609675347 1.81596199895819 -2.89999999999999
vertex 2.99336287918731 2.17480543348215 -1.89999999999999
vertex 3.29672413949696 1.67976484903632 -1.89999999999999
endloop
endfacet
facet normal 0.774897742402938 0.562996164711077 0.287347885566344
outer loop
vertex 2.99336287918731 2.17480543348215 -1.89999999999999
vertex 3.56402609675347 1.81596199895819 -2.89999999999999
vertex 3.23606797749979 2.35114100916989 -2.89999999999999
endloop
endfacet
facet normal 0.946033854228484 -0.149837042530043 0.287347885566346
outer loop
vertex 3.95075336238055 -0.625737860160924 -2.89999999999999
vertex 3.51890911029207 -1.1433628791873 -1.89999999999999
vertex 3.80422606518061 -1.23606797749979 -2.89999999999999
endloop
endfacet
facet normal 0.910946930038356 -0.295984599792362 0.287347885566346
outer loop
vertex 3.51890911029207 -1.1433628791873 -1.89999999999999
vertex 3.95075336238055 -0.625737860160924 -2.89999999999999
vertex 3.65444686020201 -0.578807520648854 -1.89999999999999
endloop
endfacet
facet normal 0.946033854228485 0.149837042530042 0.287347885566345
outer loop
vertex 3.95075336238055 0.625737860160922 -2.89999999999999
vertex 3.51890911029207 1.14336287918731 -1.89999999999999
vertex 3.65444686020201 0.578807520648855 -1.89999999999999
endloop
endfacet
facet normal 0.910946930038357 0.295984599792361 0.287347885566344
outer loop
vertex 3.51890911029207 1.14336287918731 -1.89999999999999
vertex 3.95075336238055 0.625737860160922 -2.89999999999999
vertex 3.80422606518061 1.23606797749979 -2.89999999999999
endloop
endfacet
facet normal 0.677285461478596 -0.677285461478596 0.287347885566346
outer loop
vertex 2.61629509039022 -2.61629509039022 -1.89999999999999
vertex 2.35114100916989 -3.23606797749979 -2.89999999999999
vertex 2.82842712474619 -2.82842712474619 -2.89999999999999
endloop
endfacet
facet normal 0.562996164711077 -0.774897742402937 0.287347885566345
outer loop
vertex 2.35114100916989 -3.23606797749979 -2.89999999999999
vertex 2.61629509039022 -2.61629509039022 -1.89999999999999
vertex 2.17480543348215 -2.9933628791873 -1.89999999999999
endloop
endfacet
facet normal 0.946033854228485 0.149837042530042 0.287347885566345
outer loop
vertex 3.95075336238055 0.625737860160922 -2.89999999999999
vertex 3.7 4.40619762898109e-016 -1.89999999999999
vertex 4.0 -1.05748743095547e-015 -2.89999999999999
endloop
endfacet
facet normal 0.957826285221152 -2.44567852943198e-016 0.287347885566345
outer loop
vertex 3.7 4.40619762898109e-016 -1.89999999999999
vertex 3.95075336238055 0.625737860160922 -2.89999999999999
vertex 3.65444686020201 0.578807520648855 -1.89999999999999
endloop
endfacet
facet normal 0.562996164711077 -0.774897742402937 0.287347885566346
outer loop
vertex 2.17480543348215 -2.9933628791873 -1.89999999999999
vertex 1.81596199895819 -3.56402609675347 -2.89999999999999
vertex 2.35114100916989 -3.23606797749979 -2.89999999999999
endloop
endfacet
facet normal 0.434844033891224 -0.853429469171154 0.287347885566346
outer loop
vertex 1.81596199895819 -3.56402609675347 -2.89999999999999
vertex 2.17480543348215 -2.9933628791873 -1.89999999999999
vertex 1.67976484903632 -3.29672413949696 -1.89999999999999
endloop
endfacet
facet normal -3.66851779414797e-016 -0.957826285221151 0.287347885566346
outer loop
vertex -2.55559462480903e-015 -3.7 -1.89999999999999
vertex -0.625737860160924 -3.95075336238055 -2.89999999999999
vertex -7.04991620636975e-016 -4.0 -2.89999999999999
endloop
endfacet
facet normal -0.149837042530042 -0.946033854228484 0.287347885566346
outer loop
vertex -0.625737860160924 -3.95075336238055 -2.89999999999999
vertex -2.55559462480903e-015 -3.7 -1.89999999999999
vertex -0.578807520648857 -3.65444686020201 -1.89999999999999
endloop
endfacet
facet normal 0.774897742402938 0.562996164711077 0.287347885566344
outer loop
vertex 3.23606797749979 2.35114100916989 -2.89999999999999
vertex 2.61629509039023 2.61629509039023 -1.89999999999999
vertex 2.99336287918731 2.17480543348215 -1.89999999999999
endloop
endfacet
facet normal 0.677285461478597 0.677285461478596 0.287347885566344
outer loop
vertex 2.61629509039023 2.61629509039023 -1.89999999999999
vertex 3.23606797749979 2.35114100916989 -2.89999999999999
vertex 2.82842712474619 2.82842712474619 -2.89999999999999
endloop
endfacet
facet normal -0.295984599792362 -0.910946930038356 0.287347885566346
outer loop
vertex -1.14336287918731 -3.51890911029207 -1.89999999999999
vertex -1.81596199895819 -3.56402609675347 -2.89999999999999
vertex -1.23606797749979 -3.80422606518061 -2.89999999999999
endloop
endfacet
facet normal -0.434844033891225 -0.853429469171154 0.287347885566345
outer loop
vertex -1.81596199895819 -3.56402609675347 -2.89999999999999
vertex -1.14336287918731 -3.51890911029207 -1.89999999999999
vertex -1.67976484903633 -3.29672413949696 -1.89999999999999
endloop
endfacet
facet normal -0.434844033891225 -0.853429469171154 0.287347885566345
outer loop
vertex -1.67976484903633 -3.29672413949696 -1.89999999999999
vertex -2.35114100916989 -3.23606797749979 -2.89999999999999
vertex -1.81596199895819 -3.56402609675347 -2.89999999999999
endloop
endfacet
facet normal -0.562996164711077 -0.774897742402937 0.287347885566345
outer loop
vertex -2.35114100916989 -3.23606797749979 -2.89999999999999
vertex -1.67976484903633 -3.29672413949696 -1.89999999999999
vertex -2.17480543348215 -2.9933628791873 -1.89999999999999
endloop
endfacet
facet normal 0.910946930038357 0.295984599792361 0.287347885566344
outer loop
vertex 3.80422606518061 1.23606797749979 -2.89999999999999
vertex 3.29672413949696 1.67976484903632 -1.89999999999999
vertex 3.51890911029207 1.14336287918731 -1.89999999999999
endloop
endfacet
facet normal 0.853429469171155 0.434844033891224 0.287347885566344
outer loop
vertex 3.29672413949696 1.67976484903632 -1.89999999999999
vertex 3.80422606518061 1.23606797749979 -2.89999999999999
vertex 3.56402609675347 1.81596199895819 -2.89999999999999
endloop
endfacet
facet normal -0.677285461478597 -0.677285461478596 0.287347885566345
outer loop
vertex -2.61629509039023 -2.61629509039022 -1.89999999999999
vertex -3.23606797749979 -2.35114100916989 -2.89999999999999
vertex -2.82842712474619 -2.82842712474619 -2.89999999999999
endloop
endfacet
facet normal -0.774897742402937 -0.562996164711077 0.287347885566344
outer loop
vertex -3.23606797749979 -2.35114100916989 -2.89999999999999
vertex -2.61629509039023 -2.61629509039022 -1.89999999999999
vertex -2.99336287918731 -2.17480543348215 -1.89999999999999
endloop
endfacet
facet normal -0.957826285221152 4.10524610297511e-016 0.287347885566344
outer loop
vertex -3.7 3.08433834028676e-015 -1.89999999999999
vertex -3.95075336238055 0.625737860160923 -2.89999999999999
vertex -4.0 3.52495810318481e-016 -2.89999999999999
endloop
endfacet
facet normal -0.946033854228485 0.149837042530042 0.287347885566344
outer loop
vertex -3.95075336238055 0.625737860160923 -2.89999999999999
vertex -3.7 3.08433834028676e-015 -1.89999999999999
vertex -3.65444686020201 0.578807520648857 -1.89999999999999
endloop
endfacet
facet normal 3.27546231620355e-016 0.957826285221152 0.287347885566344
outer loop
vertex 6.16867668057353e-016 3.7 -1.89999999999999
vertex 0.625737860160923 3.95075336238055 -2.89999999999999
vertex 3.52495810318487e-016 4.0 -2.89999999999999
endloop
endfacet
facet normal 0.149837042530043 0.946033854228485 0.287347885566344
outer loop
vertex 0.625737860160923 3.95075336238055 -2.89999999999999
vertex 6.16867668057353e-016 3.7 -1.89999999999999
vertex 0.578807520648855 3.65444686020201 -1.89999999999999
endloop
endfacet
facet normal -0.910946930038357 -0.295984599792361 0.287347885566344
outer loop
vertex -3.51890911029207 -1.1433628791873 -1.89999999999999
vertex -3.95075336238055 -0.625737860160923 -2.89999999999999
vertex -3.80422606518061 -1.23606797749979 -2.89999999999999
endloop
endfacet
facet normal -0.946033854228485 -0.149837042530042 0.287347885566344
outer loop
vertex -3.95075336238055 -0.625737860160923 -2.89999999999999
vertex -3.51890911029207 -1.1433628791873 -1.89999999999999
vertex -3.65444686020201 -0.578807520648851 -1.89999999999999
endloop
endfacet
facet normal 0.295984599792361 -0.910946930038356 0.287347885566346
outer loop
vertex 1.1433628791873 -3.51890911029207 -1.89999999999999
vertex 0.625737860160923 -3.95075336238055 -2.89999999999999
vertex 1.23606797749979 -3.80422606518061 -2.89999999999999
endloop
endfacet
facet normal 0.149837042530042 -0.946033854228484 0.287347885566346
outer loop
vertex 0.625737860160923 -3.95075336238055 -2.89999999999999
vertex 1.1433628791873 -3.51890911029207 -1.89999999999999
vertex 0.578807520648852 -3.65444686020201 -1.89999999999999
endloop
endfacet
facet normal -0.853429469171155 -0.434844033891224 0.287347885566344
outer loop
vertex -3.29672413949696 -1.67976484903632 -1.89999999999999
vertex -3.80422606518061 -1.23606797749979 -2.89999999999999
vertex -3.56402609675347 -1.81596199895819 -2.89999999999999
endloop
endfacet
facet normal -0.910946930038357 -0.295984599792361 0.287347885566344
outer loop
vertex -3.80422606518061 -1.23606797749979 -2.89999999999999
vertex -3.29672413949696 -1.67976484903632 -1.89999999999999
vertex -3.51890911029207 -1.1433628791873 -1.89999999999999
endloop
endfacet
facet normal 0.149837042530042 -0.946033854228484 0.287347885566346
outer loop
vertex 0.578807520648852 -3.65444686020201 -1.89999999999999
vertex -7.04991620636975e-016 -4.0 -2.89999999999999
vertex 0.625737860160923 -3.95075336238055 -2.89999999999999
endloop
endfacet
facet normal -1.84273823674276e-016 -0.957826285221151 0.287347885566346
outer loop
vertex -7.04991620636975e-016 -4.0 -2.89999999999999
vertex 0.578807520648852 -3.65444686020201 -1.89999999999999
vertex -2.55559462480903e-015 -3.7 -1.89999999999999
endloop
endfacet
facet normal -0.149837042530043 -0.946033854228484 0.287347885566346
outer loop
vertex -0.578807520648857 -3.65444686020201 -1.89999999999999
vertex -1.23606797749979 -3.80422606518061 -2.89999999999999
vertex -0.625737860160924 -3.95075336238055 -2.89999999999999
endloop
endfacet
facet normal -0.295984599792361 -0.910946930038356 0.287347885566346
outer loop
vertex -1.23606797749979 -3.80422606518061 -2.89999999999999
vertex -0.578807520648857 -3.65444686020201 -1.89999999999999
vertex -1.14336287918731 -3.51890911029207 -1.89999999999999
endloop
endfacet
facet normal 0.149837042530043 0.946033854228485 0.287347885566344
outer loop
vertex 0.578807520648855 3.65444686020201 -1.89999999999999
vertex 1.23606797749979 3.80422606518061 -2.89999999999999
vertex 0.625737860160923 3.95075336238055 -2.89999999999999
endloop
endfacet
facet normal 0.295984599792361 0.910946930038357 0.287347885566344
outer loop
vertex 1.23606797749979 3.80422606518061 -2.89999999999999
vertex 0.578807520648855 3.65444686020201 -1.89999999999999
vertex 1.14336287918731 3.51890911029207 -1.89999999999999
endloop
endfacet
facet normal -0.677285461478597 0.677285461478597 0.287347885566343
outer loop
vertex -2.61629509039023 2.61629509039023 -1.89999999999999
vertex -2.35114100916989 3.23606797749979 -2.89999999999999
vertex -2.82842712474619 2.82842712474619 -2.89999999999999
endloop
endfacet
facet normal -0.562996164711077 0.774897742402938 0.287347885566343
outer loop
vertex -2.35114100916989 3.23606797749979 -2.89999999999999
vertex -2.61629509039023 2.61629509039023 -1.89999999999999
vertex -2.17480543348215 2.99336287918731 -1.89999999999999
endloop
endfacet
facet normal -0.149837042530042 0.946033854228485 0.287347885566343
outer loop
vertex -0.578807520648854 3.65444686020201 -1.89999999999999
vertex 3.52495810318487e-016 4.0 -2.89999999999999
vertex -0.625737860160923 3.95075336238055 -2.89999999999999
endloop
endfacet
facet normal 2.96635911280541e-016 0.957826285221152 0.287347885566343
outer loop
vertex 3.52495810318487e-016 4.0 -2.89999999999999
vertex -0.578807520648854 3.65444686020201 -1.89999999999999
vertex 6.16867668057353e-016 3.7 -1.89999999999999
endloop
endfacet
facet normal -0.774897742402938 0.562996164711078 0.287347885566343
outer loop
vertex -2.99336287918731 2.17480543348215 -1.89999999999999
vertex -3.56402609675347 1.81596199895819 -2.89999999999999
vertex -3.29672413949696 1.67976484903633 -1.89999999999999
endloop
endfacet
facet normal -0.853429469171155 0.434844033891225 0.287347885566343
outer loop
vertex -3.56402609675347 1.81596199895819 -2.89999999999999
vertex -2.99336287918731 2.17480543348215 -1.89999999999999
vertex -3.23606797749979 2.35114100916989 -2.89999999999999
endloop
endfacet
facet normal -0.295984599792361 0.910946930038357 0.287347885566343
outer loop
vertex -1.1433628791873 3.51890911029207 -1.89999999999999
vertex -0.625737860160923 3.95075336238055 -2.89999999999999
vertex -1.23606797749979 3.80422606518061 -2.89999999999999
endloop
endfacet
facet normal -0.149837042530042 0.946033854228485 0.287347885566343
outer loop
vertex -0.625737860160923 3.95075336238055 -2.89999999999999
vertex -1.1433628791873 3.51890911029207 -1.89999999999999
vertex -0.578807520648854 3.65444686020201 -1.89999999999999
endloop
endfacet
facet normal -0.853429469171155 0.434844033891225 0.287347885566343
outer loop
vertex -3.29672413949696 1.67976484903633 -1.89999999999999
vertex -3.80422606518061 1.23606797749979 -2.89999999999999
vertex -3.51890911029207 1.14336287918731 -1.89999999999999
endloop
endfacet
facet normal -0.910946930038357 0.295984599792362 0.287347885566344
outer loop
vertex -3.80422606518061 1.23606797749979 -2.89999999999999
vertex -3.29672413949696 1.67976484903633 -1.89999999999999
vertex -3.56402609675347 1.81596199895819 -2.89999999999999
endloop
endfacet
facet normal 0.295984599792361 0.910946930038357 0.287347885566344
outer loop
vertex 1.14336287918731 3.51890911029207 -1.89999999999999
vertex 1.81596199895819 3.56402609675347 -2.89999999999999
vertex 1.23606797749979 3.80422606518061 -2.89999999999999
endloop
endfacet
facet normal 0.434844033891225 0.853429469171155 0.287347885566344
outer loop
vertex 1.81596199895819 3.56402609675347 -2.89999999999999
vertex 1.14336287918731 3.51890911029207 -1.89999999999999
vertex 1.67976484903632 3.29672413949696 -1.89999999999999
endloop
endfacet
facet normal -0.677285461478597 0.677285461478597 0.287347885566343
outer loop
vertex -2.61629509039023 2.61629509039023 -1.89999999999999
vertex -3.23606797749979 2.35114100916989 -2.89999999999999
vertex -2.99336287918731 2.17480543348215 -1.89999999999999
endloop
endfacet
facet normal -0.774897742402938 0.562996164711077 0.287347885566343
outer loop
vertex -3.23606797749979 2.35114100916989 -2.89999999999999
vertex -2.61629509039023 2.61629509039023 -1.89999999999999
vertex -2.82842712474619 2.82842712474619 -2.89999999999999
endloop
endfacet
facet normal -0.562996164711077 0.774897742402938 0.287347885566343
outer loop
vertex -2.17480543348215 2.99336287918731 -1.89999999999999
vertex -1.81596199895819 3.56402609675347 -2.89999999999999
vertex -2.35114100916989 3.23606797749979 -2.89999999999999
endloop
endfacet
facet normal -0.434844033891224 0.853429469171155 0.287347885566343
outer loop
vertex -1.81596199895819 3.56402609675347 -2.89999999999999
vertex -2.17480543348215 2.99336287918731 -1.89999999999999
vertex -1.67976484903632 3.29672413949696 -1.89999999999999
endloop
endfacet
facet normal -0.434844033891224 0.853429469171155 0.287347885566343
outer loop
vertex -1.67976484903632 3.29672413949696 -1.89999999999999
vertex -1.23606797749979 3.80422606518061 -2.89999999999999
vertex -1.81596199895819 3.56402609675347 -2.89999999999999
endloop
endfacet
facet normal -0.295984599792361 0.910946930038357 0.287347885566343
outer loop
vertex -1.23606797749979 3.80422606518061 -2.89999999999999
vertex -1.67976484903632 3.29672413949696 -1.89999999999999
vertex -1.1433628791873 3.51890911029207 -1.89999999999999
endloop
endfacet
facet normal 0.434844033891225 0.853429469171155 0.287347885566344
outer loop
vertex 1.67976484903632 3.29672413949696 -1.89999999999999
vertex 2.35114100916989 3.23606797749979 -2.89999999999999
vertex 1.81596199895819 3.56402609675347 -2.89999999999999
endloop
endfacet
facet normal 0.562996164711077 0.774897742402937 0.287347885566344
outer loop
vertex 2.35114100916989 3.23606797749979 -2.89999999999999
vertex 1.67976484903632 3.29672413949696 -1.89999999999999
vertex 2.17480543348215 2.99336287918731 -1.89999999999999
endloop
endfacet
facet normal 0.434844033891225 0.853429469171155 -0.287347885566344
outer loop
vertex 1.81596199895819 3.56402609675347 -0.899999999999995
vertex 2.17480543348215 2.99336287918731 -1.89999999999999
vertex 1.67976484903632 3.29672413949696 -1.89999999999999
endloop
endfacet
facet normal 0.562996164711077 0.774897742402938 -0.287347885566344
outer loop
vertex 2.17480543348215 2.99336287918731 -1.89999999999999
vertex 1.81596199895819 3.56402609675347 -0.899999999999995
vertex 2.35114100916989 3.23606797749979 -0.899999999999995
endloop
endfacet
facet normal 0.295984599792361 0.910946930038357 -0.287347885566344
outer loop
vertex 1.23606797749979 3.80422606518061 -0.899999999999995
vertex 1.67976484903632 3.29672413949696 -1.89999999999999
vertex 1.14336287918731 3.51890911029207 -1.89999999999999
endloop
endfacet
facet normal 0.434844033891225 0.853429469171155 -0.287347885566344
outer loop
vertex 1.67976484903632 3.29672413949696 -1.89999999999999
vertex 1.23606797749979 3.80422606518061 -0.899999999999995
vertex 1.81596199895819 3.56402609675347 -0.899999999999995
endloop
endfacet
facet normal 0.149837042530042 0.946033854228485 -0.287347885566344
outer loop
vertex 0.625737860160922 3.95075336238055 -0.899999999999995
vertex 1.14336287918731 3.51890911029207 -1.89999999999999
vertex 0.578807520648855 3.65444686020201 -1.89999999999999
endloop
endfacet
facet normal 0.295984599792361 0.910946930038357 -0.287347885566344
outer loop
vertex 1.14336287918731 3.51890911029207 -1.89999999999999
vertex 0.625737860160922 3.95075336238055 -0.899999999999995
vertex 1.23606797749979 3.80422606518061 -0.899999999999995
endloop
endfacet
facet normal 1.97757274187028e-016 0.957826285221152 -0.287347885566344
outer loop
vertex -7.04991620636974e-016 4.0 -0.899999999999995
vertex 0.578807520648855 3.65444686020201 -1.89999999999999
vertex 6.16867668057353e-016 3.7 -1.89999999999999
endloop
endfacet
facet normal 0.149837042530043 0.946033854228485 -0.287347885566344
outer loop
vertex 0.578807520648855 3.65444686020201 -1.89999999999999
vertex -7.04991620636974e-016 4.0 -0.899999999999995
vertex 0.625737860160922 3.95075336238055 -0.899999999999995
endloop
endfacet
facet normal -0.149837042530042 0.946033854228485 -0.287347885566343
outer loop
vertex -0.625737860160923 3.95075336238055 -0.899999999999995
vertex 6.16867668057353e-016 3.7 -1.89999999999999
vertex -0.578807520648854 3.65444686020201 -1.89999999999999
endloop
endfacet
facet normal 3.31913514708626e-016 0.957826285221152 -0.287347885566344
outer loop
vertex 6.16867668057353e-016 3.7 -1.89999999999999
vertex -0.625737860160923 3.95075336238055 -0.899999999999995
vertex -7.04991620636974e-016 4.0 -0.899999999999995
endloop
endfacet
facet normal -0.295984599792361 0.910946930038357 -0.287347885566343
outer loop
vertex -1.23606797749979 3.80422606518061 -0.899999999999995
vertex -0.578807520648854 3.65444686020201 -1.89999999999999
vertex -1.1433628791873 3.51890911029207 -1.89999999999999
endloop
endfacet
facet normal -0.149837042530042 0.946033854228485 -0.287347885566343
outer loop
vertex -0.578807520648854 3.65444686020201 -1.89999999999999
vertex -1.23606797749979 3.80422606518061 -0.899999999999995
vertex -0.625737860160923 3.95075336238055 -0.899999999999995
endloop
endfacet
facet normal -0.434844033891224 0.853429469171155 -0.287347885566344
outer loop
vertex -1.81596199895819 3.56402609675347 -0.899999999999995
vertex -1.1433628791873 3.51890911029207 -1.89999999999999
vertex -1.67976484903632 3.29672413949696 -1.89999999999999
endloop
endfacet
facet normal -0.295984599792361 0.910946930038357 -0.287347885566343
outer loop
vertex -1.1433628791873 3.51890911029207 -1.89999999999999
vertex -1.81596199895819 3.56402609675347 -0.899999999999995
vertex -1.23606797749979 3.80422606518061 -0.899999999999995
endloop
endfacet
facet normal -0.562996164711078 0.774897742402937 -0.287347885566343
outer loop
vertex -2.35114100916989 3.23606797749979 -0.899999999999995
vertex -1.67976484903632 3.29672413949696 -1.89999999999999
vertex -2.17480543348215 2.99336287918731 -1.89999999999999
endloop
endfacet
facet normal -0.434844033891224 0.853429469171155 -0.287347885566344
outer loop
vertex -1.67976484903632 3.29672413949696 -1.89999999999999
vertex -2.35114100916989 3.23606797749979 -0.899999999999995
vertex -1.81596199895819 3.56402609675347 -0.899999999999995
endloop
endfacet
facet normal -0.677285461478597 0.677285461478597 -0.287347885566344
outer loop
vertex -2.82842712474619 2.82842712474619 -0.899999999999995
vertex -2.17480543348215 2.99336287918731 -1.89999999999999
vertex -2.61629509039023 2.61629509039023 -1.89999999999999
endloop
endfacet
facet normal -0.562996164711077 0.774897742402937 -0.287347885566343
outer loop
vertex -2.17480543348215 2.99336287918731 -1.89999999999999
vertex -2.82842712474619 2.82842712474619 -0.899999999999995
vertex -2.35114100916989 3.23606797749979 -0.899999999999995
endloop
endfacet
facet normal -0.774897742402937 0.562996164711078 -0.287347885566344
outer loop
vertex -3.23606797749979 2.35114100916989 -0.899999999999995
vertex -2.61629509039023 2.61629509039023 -1.89999999999999
vertex -2.99336287918731 2.17480543348215 -1.89999999999999
endloop
endfacet
facet normal -0.677285461478596 0.677285461478597 -0.287347885566344
outer loop
vertex -2.61629509039023 2.61629509039023 -1.89999999999999
vertex -3.23606797749979 2.35114100916989 -0.899999999999995
vertex -2.82842712474619 2.82842712474619 -0.899999999999995
endloop
endfacet
facet normal -0.853429469171155 0.434844033891224 -0.287347885566345
outer loop
vertex -3.56402609675347 1.81596199895819 -0.899999999999995
vertex -2.99336287918731 2.17480543348215 -1.89999999999999
vertex -3.29672413949696 1.67976484903633 -1.89999999999999
endloop
endfacet
facet normal -0.774897742402937 0.562996164711078 -0.287347885566344
outer loop
vertex -2.99336287918731 2.17480543348215 -1.89999999999999
vertex -3.56402609675347 1.81596199895819 -0.899999999999995
vertex -3.23606797749979 2.35114100916989 -0.899999999999995
endloop
endfacet
facet normal -0.910946930038357 0.295984599792361 -0.287347885566345
outer loop
vertex -3.80422606518061 1.23606797749979 -0.899999999999995
vertex -3.29672413949696 1.67976484903633 -1.89999999999999
vertex -3.51890911029207 1.14336287918731 -1.89999999999999
endloop
endfacet
facet normal -0.853429469171155 0.434844033891224 -0.287347885566345
outer loop
vertex -3.29672413949696 1.67976484903633 -1.89999999999999
vertex -3.80422606518061 1.23606797749979 -0.899999999999995
vertex -3.56402609675347 1.81596199895819 -0.899999999999995
endloop
endfacet
facet normal -0.946033854228484 0.149837042530042 -0.287347885566345
outer loop
vertex -3.95075336238055 0.625737860160925 -0.899999999999995
vertex -3.51890911029207 1.14336287918731 -1.89999999999999
vertex -3.65444686020201 0.578807520648857 -1.89999999999999
endloop
endfacet
facet normal -0.910946930038357 0.295984599792361 -0.287347885566345
outer loop
vertex -3.51890911029207 1.14336287918731 -1.89999999999999
vertex -3.95075336238055 0.625737860160925 -0.899999999999995
vertex -3.80422606518061 1.23606797749979 -0.899999999999995
endloop
endfacet
facet normal -0.946033854228484 0.149837042530042 -0.287347885566345
outer loop
vertex -3.95075336238055 0.625737860160925 -0.899999999999995
vertex -3.7 3.08433834028676e-015 -1.89999999999999
vertex -4.0 1.40998324127395e-015 -0.899999999999995
endloop
endfacet
facet normal -0.957826285221152 3.10077099267269e-016 -0.287347885566345
outer loop
vertex -3.7 3.08433834028676e-015 -1.89999999999999
vertex -3.95075336238055 0.625737860160925 -0.899999999999995
vertex -3.65444686020201 0.578807520648857 -1.89999999999999
endloop
endfacet
facet normal -0.957826285221152 1.52812439144521e-016 -0.287347885566345
outer loop
vertex -4.0 1.40998324127395e-015 -0.899999999999995
vertex -3.65444686020201 -0.578807520648851 -1.89999999999999
vertex -3.95075336238055 -0.625737860160921 -0.899999999999995
endloop
endfacet
facet normal -0.946033854228485 -0.149837042530042 -0.287347885566345
outer loop
vertex -3.65444686020201 -0.578807520648851 -1.89999999999999
vertex -4.0 1.40998324127395e-015 -0.899999999999995
vertex -3.7 3.08433834028676e-015 -1.89999999999999
endloop
endfacet
facet normal -0.946033854228485 -0.149837042530042 -0.287347885566345
outer loop
vertex -3.95075336238055 -0.625737860160921 -0.899999999999995
vertex -3.51890911029207 -1.1433628791873 -1.89999999999999
vertex -3.80422606518061 -1.23606797749979 -0.899999999999995
endloop
endfacet
facet normal -0.910946930038357 -0.295984599792361 -0.287347885566344
outer loop
vertex -3.51890911029207 -1.1433628791873 -1.89999999999999
vertex -3.95075336238055 -0.625737860160921 -0.899999999999995
vertex -3.65444686020201 -0.578807520648851 -1.89999999999999
endloop
endfacet
facet normal -0.910946930038357 -0.295984599792361 -0.287347885566344
outer loop
vertex -3.80422606518061 -1.23606797749979 -0.899999999999995
vertex -3.29672413949696 -1.67976484903632 -1.89999999999999
vertex -3.56402609675347 -1.81596199895818 -0.899999999999995
endloop
endfacet
facet normal -0.853429469171155 -0.434844033891224 -0.287347885566344
outer loop
vertex -3.29672413949696 -1.67976484903632 -1.89999999999999
vertex -3.80422606518061 -1.23606797749979 -0.899999999999995
vertex -3.51890911029207 -1.1433628791873 -1.89999999999999
endloop
endfacet
facet normal -0.853429469171155 -0.434844033891224 -0.287347885566344
outer loop
vertex -3.56402609675347 -1.81596199895818 -0.899999999999995
vertex -2.99336287918731 -2.17480543348215 -1.89999999999999
vertex -3.23606797749979 -2.35114100916989 -0.899999999999995
endloop
endfacet
facet normal -0.774897742402938 -0.562996164711077 -0.287347885566344
outer loop
vertex -2.99336287918731 -2.17480543348215 -1.89999999999999
vertex -3.56402609675347 -1.81596199895818 -0.899999999999995
vertex -3.29672413949696 -1.67976484903632 -1.89999999999999
endloop
endfacet
facet normal -0.774897742402938 -0.562996164711077 -0.287347885566344
outer loop
vertex -3.23606797749979 -2.35114100916989 -0.899999999999995
vertex -2.61629509039023 -2.61629509039022 -1.89999999999999
vertex -2.82842712474619 -2.82842712474619 -0.899999999999995
endloop
endfacet
facet normal -0.677285461478597 -0.677285461478596 -0.287347885566344
outer loop
vertex -2.61629509039023 -2.61629509039022 -1.89999999999999
vertex -3.23606797749979 -2.35114100916989 -0.899999999999995
vertex -2.99336287918731 -2.17480543348215 -1.89999999999999
endloop
endfacet
facet normal -0.562996164711077 -0.774897742402937 -0.287347885566344
outer loop
vertex -2.35114100916989 -3.23606797749979 -0.899999999999995
vertex -2.61629509039023 -2.61629509039022 -1.89999999999999
vertex -2.17480543348215 -2.9933628791873 -1.89999999999999
endloop
endfacet
facet normal -0.677285461478597 -0.677285461478596 -0.287347885566344
outer loop
vertex -2.61629509039023 -2.61629509039022 -1.89999999999999
vertex -2.35114100916989 -3.23606797749979 -0.899999999999995
vertex -2.82842712474619 -2.82842712474619 -0.899999999999995
endloop
endfacet
facet normal -0.434844033891225 -0.853429469171155 -0.287347885566344
outer loop
vertex -1.81596199895819 -3.56402609675347 -0.899999999999995
vertex -2.17480543348215 -2.9933628791873 -1.89999999999999
vertex -1.67976484903633 -3.29672413949696 -1.89999999999999
endloop
endfacet
facet normal -0.562996164711078 -0.774897742402937 -0.287347885566344
outer loop
vertex -2.17480543348215 -2.9933628791873 -1.89999999999999
vertex -1.81596199895819 -3.56402609675347 -0.899999999999995
vertex -2.35114100916989 -3.23606797749979 -0.899999999999995
endloop
endfacet
facet normal -0.295984599792361 -0.910946930038357 -0.287347885566345
outer loop
vertex -1.23606797749979 -3.80422606518061 -0.899999999999995
vertex -1.67976484903633 -3.29672413949696 -1.89999999999999
vertex -1.14336287918731 -3.51890911029207 -1.89999999999999
endloop
endfacet
facet normal -0.434844033891225 -0.853429469171154 -0.287347885566344
outer loop
vertex -1.67976484903633 -3.29672413949696 -1.89999999999999
vertex -1.23606797749979 -3.80422606518061 -0.899999999999995
vertex -1.81596199895819 -3.56402609675347 -0.899999999999995
endloop
endfacet
facet normal -0.149837042530043 -0.946033854228484 -0.287347885566345
outer loop
vertex -0.625737860160924 -3.95075336238055 -0.899999999999995
vertex -1.14336287918731 -3.51890911029207 -1.89999999999999
vertex -0.578807520648857 -3.65444686020201 -1.89999999999999
endloop
endfacet
facet normal -0.295984599792362 -0.910946930038357 -0.287347885566345
outer loop
vertex -1.14336287918731 -3.51890911029207 -1.89999999999999
vertex -0.625737860160924 -3.95075336238055 -0.899999999999995
vertex -1.23606797749979 -3.80422606518061 -0.899999999999995
endloop
endfacet
facet normal -2.78657977263539e-016 -0.957826285221152 -0.287347885566345
outer loop
vertex -2.11497486191092e-015 -4.0 -0.899999999999995
vertex -0.578807520648857 -3.65444686020201 -1.89999999999999
vertex -2.55559462480903e-015 -3.7 -1.89999999999999
endloop
endfacet
facet normal -0.149837042530043 -0.946033854228484 -0.287347885566345
outer loop
vertex -0.578807520648857 -3.65444686020201 -1.89999999999999
vertex -2.11497486191092e-015 -4.0 -0.899999999999995
vertex -0.625737860160924 -3.95075336238055 -0.899999999999995
endloop
endfacet
facet normal 0.149837042530042 -0.946033854228485 -0.287347885566344
outer loop
vertex 0.625737860160922 -3.95075336238055 -0.899999999999995
vertex -2.55559462480903e-015 -3.7 -1.89999999999999
vertex 0.578807520648852 -3.65444686020201 -1.89999999999999
endloop
endfacet
facet normal -3.27546231620355e-016 -0.957826285221152 -0.287347885566345
outer loop
vertex -2.55559462480903e-015 -3.7 -1.89999999999999
vertex 0.625737860160922 -3.95075336238055 -0.899999999999995
vertex -2.11497486191092e-015 -4.0 -0.899999999999995
endloop
endfacet
facet normal 0.295984599792361 -0.910946930038357 -0.287347885566344
outer loop
vertex 1.23606797749979 -3.80422606518061 -0.899999999999995
vertex 0.578807520648852 -3.65444686020201 -1.89999999999999
vertex 1.1433628791873 -3.51890911029207 -1.89999999999999
endloop
endfacet
facet normal 0.149837042530042 -0.946033854228485 -0.287347885566344
outer loop
vertex 0.578807520648852 -3.65444686020201 -1.89999999999999
vertex 1.23606797749979 -3.80422606518061 -0.899999999999995
vertex 0.625737860160922 -3.95075336238055 -0.899999999999995
endloop
endfacet
facet normal 0.434844033891225 -0.853429469171155 -0.287347885566344
outer loop
vertex 1.81596199895819 -3.56402609675347 -0.899999999999995
vertex 1.1433628791873 -3.51890911029207 -1.89999999999999
vertex 1.67976484903632 -3.29672413949696 -1.89999999999999
endloop
endfacet
facet normal 0.295984599792361 -0.910946930038357 -0.287347885566344
outer loop
vertex 1.1433628791873 -3.51890911029207 -1.89999999999999
vertex 1.81596199895819 -3.56402609675347 -0.899999999999995
vertex 1.23606797749979 -3.80422606518061 -0.899999999999995
endloop
endfacet
facet normal 0.562996164711077 -0.774897742402938 -0.287347885566344
outer loop
vertex 2.35114100916989 -3.23606797749979 -0.899999999999995
vertex 1.67976484903632 -3.29672413949696 -1.89999999999999
vertex 2.17480543348215 -2.9933628791873 -1.89999999999999
endloop
endfacet
facet normal 0.434844033891224 -0.853429469171155 -0.287347885566344
outer loop
vertex 1.67976484903632 -3.29672413949696 -1.89999999999999
vertex 2.35114100916989 -3.23606797749979 -0.899999999999995
vertex 1.81596199895819 -3.56402609675347 -0.899999999999995
endloop
endfacet
facet normal 0.677285461478597 -0.677285461478597 -0.287347885566344
outer loop
vertex 2.82842712474619 -2.82842712474619 -0.899999999999995
vertex 2.17480543348215 -2.9933628791873 -1.89999999999999
vertex 2.61629509039022 -2.61629509039022 -1.89999999999999
endloop
endfacet
facet normal 0.562996164711077 -0.774897742402937 -0.287347885566344
outer loop
vertex 2.17480543348215 -2.9933628791873 -1.89999999999999
vertex 2.82842712474619 -2.82842712474619 -0.899999999999995
vertex 2.35114100916989 -3.23606797749979 -0.899999999999995
endloop
endfacet
facet normal 0.677285461478596 -0.677285461478597 -0.287347885566344
outer loop
vertex 2.61629509039022 -2.61629509039022 -1.89999999999999
vertex 3.23606797749979 -2.35114100916989 -0.899999999999995
vertex 2.82842712474619 -2.82842712474619 -0.899999999999995
endloop
endfacet
facet normal 0.774897742402938 -0.562996164711077 -0.287347885566344
outer loop
vertex 3.23606797749979 -2.35114100916989 -0.899999999999995
vertex 2.61629509039022 -2.61629509039022 -1.89999999999999
vertex 2.9933628791873 -2.17480543348215 -1.89999999999999
endloop
endfacet
facet normal 0.774897742402938 -0.562996164711077 -0.287347885566344
outer loop
vertex 2.9933628791873 -2.17480543348215 -1.89999999999999
vertex 3.56402609675347 -1.81596199895819 -0.899999999999995
vertex 3.23606797749979 -2.35114100916989 -0.899999999999995
endloop
endfacet
facet normal 0.853429469171155 -0.434844033891225 -0.287347885566344
outer loop
vertex 3.56402609675347 -1.81596199895819 -0.899999999999995
vertex 2.9933628791873 -2.17480543348215 -1.89999999999999
vertex 3.29672413949696 -1.67976484903632 -1.89999999999999
endloop
endfacet
facet normal 0.853429469171155 -0.434844033891225 -0.287347885566344
outer loop
vertex 3.29672413949696 -1.67976484903632 -1.89999999999999
vertex 3.80422606518061 -1.23606797749979 -0.899999999999995
vertex 3.56402609675347 -1.81596199895819 -0.899999999999995
endloop
endfacet
facet normal 0.910946930038357 -0.295984599792362 -0.287347885566345
outer loop
vertex 3.80422606518061 -1.23606797749979 -0.899999999999995
vertex 3.29672413949696 -1.67976484903632 -1.89999999999999
vertex 3.51890911029207 -1.1433628791873 -1.89999999999999
endloop
endfacet
facet normal 0.910946930038356 -0.295984599792362 -0.287347885566345
outer loop
vertex 3.51890911029207 -1.1433628791873 -1.89999999999999
vertex 3.95075336238055 -0.625737860160922 -0.899999999999995
vertex 3.80422606518061 -1.23606797749979 -0.899999999999995
endloop
endfacet
facet normal 0.946033854228484 -0.149837042530043 -0.287347885566345
outer loop
vertex 3.95075336238055 -0.625737860160922 -0.899999999999995
vertex 3.51890911029207 -1.1433628791873 -1.89999999999999
vertex 3.65444686020201 -0.578807520648854 -1.89999999999999
endloop
endfacet
facet normal 0.946033854228484 -0.149837042530043 -0.287347885566345
outer loop
vertex 3.65444686020201 -0.578807520648854 -1.89999999999999
vertex 4.0 0.0 -0.899999999999995
vertex 3.95075336238055 -0.625737860160922 -0.899999999999995
endloop
endfacet
facet normal 0.957826285221152 -3.23602812306045e-016 -0.287347885566344
outer loop
vertex 4.0 0.0 -0.899999999999995
vertex 3.65444686020201 -0.578807520648854 -1.89999999999999
vertex 3.7 4.40619762898109e-016 -1.89999999999999
endloop
endfacet
facet normal 0.853429469171155 0.434844033891225 -0.287347885566344
outer loop
vertex 3.29672413949696 1.67976484903632 -1.89999999999999
vertex 3.80422606518061 1.23606797749979 -0.899999999999995
vertex 3.51890911029207 1.14336287918731 -1.89999999999999
endloop
endfacet
facet normal 0.910946930038357 0.295984599792361 -0.287347885566344
outer loop
vertex 3.80422606518061 1.23606797749979 -0.899999999999995
vertex 3.29672413949696 1.67976484903632 -1.89999999999999
vertex 3.56402609675347 1.81596199895819 -0.899999999999995
endloop
endfacet
facet normal 0.774897742402938 0.562996164711076 -0.287347885566344
outer loop
vertex 2.99336287918731 2.17480543348215 -1.89999999999999
vertex 3.56402609675347 1.81596199895819 -0.899999999999995
vertex 3.29672413949696 1.67976484903632 -1.89999999999999
endloop
endfacet
facet normal 0.853429469171155 0.434844033891225 -0.287347885566344
outer loop
vertex 3.56402609675347 1.81596199895819 -0.899999999999995
vertex 2.99336287918731 2.17480543348215 -1.89999999999999
vertex 3.23606797749979 2.35114100916989 -0.899999999999995
endloop
endfacet
facet normal 0.677285461478596 0.677285461478597 -0.287347885566344
outer loop
vertex 2.61629509039023 2.61629509039023 -1.89999999999999
vertex 3.23606797749979 2.35114100916989 -0.899999999999995
vertex 2.99336287918731 2.17480543348215 -1.89999999999999
endloop
endfacet
facet normal 0.774897742402938 0.562996164711076 -0.287347885566344
outer loop
vertex 3.23606797749979 2.35114100916989 -0.899999999999995
vertex 2.61629509039023 2.61629509039023 -1.89999999999999
vertex 2.82842712474619 2.82842712474619 -0.899999999999995
endloop
endfacet
facet normal 0.562996164711077 0.774897742402938 -0.287347885566344
outer loop
vertex 2.35114100916989 3.23606797749979 -0.899999999999995
vertex 2.61629509039023 2.61629509039023 -1.89999999999999
vertex 2.17480543348215 2.99336287918731 -1.89999999999999
endloop
endfacet
facet normal 0.677285461478596 0.677285461478597 -0.287347885566344
outer loop
vertex 2.61629509039023 2.61629509039023 -1.89999999999999
vertex 2.35114100916989 3.23606797749979 -0.899999999999995
vertex 2.82842712474619 2.82842712474619 -0.899999999999995
endloop
endfacet
facet normal 0.957826285221152 -2.88240683825912e-016 -0.287347885566344
outer loop
vertex 3.7 4.40619762898109e-016 -1.89999999999999
vertex 3.95075336238055 0.625737860160924 -0.899999999999995
vertex 4.0 0.0 -0.899999999999995
endloop
endfacet
facet normal 0.946033854228485 0.149837042530042 -0.287347885566344
outer loop
vertex 3.95075336238055 0.625737860160924 -0.899999999999995
vertex 3.7 4.40619762898109e-016 -1.89999999999999
vertex 3.65444686020201 0.578807520648855 -1.89999999999999
endloop
endfacet
facet normal 0.910946930038357 0.295984599792361 -0.287347885566344
outer loop
vertex 3.51890911029207 1.14336287918731 -1.89999999999999
vertex 3.95075336238055 0.625737860160924 -0.899999999999995
vertex 3.65444686020201 0.578807520648855 -1.89999999999999
endloop
endfacet
facet normal 0.946033854228485 0.149837042530042 -0.287347885566344
outer loop
vertex 3.95075336238055 0.625737860160924 -0.899999999999995
vertex 3.51890911029207 1.14336287918731 -1.89999999999999
vertex 3.80422606518061 1.23606797749979 -0.899999999999995
endloop
endfacet
endsolid motor-wheel-h
