solid motor-gear-v
facet normal 0.0 0.0 -1.0
outer loop
vertex -1.03527618041008 3.86370330515627 -10.0
vertex -1.5 2.5 -10.0
vertex -2.0 3.46410161513776 -10.0
endloop
endfacet
facet normal 0.0 0.0 -1.0
outer loop
vertex -1.5 2.5 -10.0
vertex -1.03527618041008 3.86370330515627 -10.0
vertex 1.5 2.5 -10.0
endloop
endfacet
facet normal 0.0 0.0 -1.0
outer loop
vertex 1.5 2.5 -10.0
vertex -1.03527618041008 3.86370330515627 -10.0
vertex 7.34788079488412e-016 4.0 -10.0
endloop
endfacet
facet normal 0.0 0.0 -1.0
outer loop
vertex 1.5 2.5 -10.0
vertex 7.34788079488412e-016 4.0 -10.0
vertex 1.03527618041008 3.86370330515627 -10.0
endloop
endfacet
facet normal 0.0 0.0 -1.0
outer loop
vertex 1.5 2.5 -10.0
vertex 1.03527618041008 3.86370330515627 -10.0
vertex 2.0 3.46410161513776 -10.0
endloop
endfacet
facet normal 0.0 0.0 -1.0
outer loop
vertex 1.5 2.5 -10.0
vertex 2.0 3.46410161513776 -10.0
vertex 1.5 -2.5 -10.0
endloop
endfacet
facet normal 0.0 0.0 -1.0
outer loop
vertex -3.86370330515627 1.03527618041009 -10.0
vertex -3.86370330515627 -1.03527618041008 -10.0
vertex -4.0 8.08514479691888e-015 -10.0
endloop
endfacet
facet normal 0.0 0.0 -1.0
outer loop
vertex -3.86370330515627 -1.03527618041008 -10.0
vertex -3.86370330515627 1.03527618041009 -10.0
vertex -3.46410161513775 -2.0 -10.0
endloop
endfacet
facet normal 0.0 0.0 -1.0
outer loop
vertex -3.46410161513775 -2.0 -10.0
vertex -3.86370330515627 1.03527618041009 -10.0
vertex -3.46410161513775 2.0 -10.0
endloop
endfacet
facet normal 0.0 0.0 -1.0
outer loop
vertex -3.46410161513775 -2.0 -10.0
vertex -3.46410161513775 2.0 -10.0
vertex -2.82842712474619 -2.82842712474619 -10.0
endloop
endfacet
facet normal 0.0 0.0 -1.0
outer loop
vertex -2.82842712474619 -2.82842712474619 -10.0
vertex -3.46410161513775 2.0 -10.0
vertex -2.82842712474619 2.82842712474619 -10.0
endloop
endfacet
facet normal 0.0 0.0 -1.0
outer loop
vertex -2.82842712474619 -2.82842712474619 -10.0
vertex -2.82842712474619 2.82842712474619 -10.0
vertex -2.0 -3.46410161513775 -10.0
endloop
endfacet
facet normal 0.0 0.0 -1.0
outer loop
vertex -2.0 -3.46410161513775 -10.0
vertex -2.82842712474619 2.82842712474619 -10.0
vertex -2.0 3.46410161513776 -10.0
endloop
endfacet
facet normal 0.0 0.0 -1.0
outer loop
vertex -2.0 -3.46410161513775 -10.0
vertex -2.0 3.46410161513776 -10.0
vertex -1.5 -2.5 -10.0
endloop
endfacet
facet normal 0.0 0.0 -1.0
outer loop
vertex -2.0 -3.46410161513775 -10.0
vertex -1.5 -2.5 -10.0
vertex -1.03527618041008 -3.86370330515627 -10.0
endloop
endfacet
facet normal 0.0 0.0 -1.0
outer loop
vertex -1.5 -2.5 -10.0
vertex -2.0 3.46410161513776 -10.0
vertex -1.5 2.5 -10.0
endloop
endfacet
facet normal 0.0 0.0 -1.0
outer loop
vertex -1.03527618041008 -3.86370330515627 -10.0
vertex -1.5 -2.5 -10.0
vertex 1.5 -2.5 -10.0
endloop
endfacet
facet normal 0.0 0.0 -1.0
outer loop
vertex -1.03527618041008 -3.86370330515627 -10.0
vertex 1.5 -2.5 -10.0
vertex -1.1331077795296e-015 -4.0 -10.0
endloop
endfacet
facet normal 0.0 0.0 -1.0
outer loop
vertex -1.1331077795296e-015 -4.0 -10.0
vertex 1.5 -2.5 -10.0
vertex 1.03527618041008 -3.86370330515627 -10.0
endloop
endfacet
facet normal 0.0 0.0 -1.0
outer loop
vertex 1.03527618041008 -3.86370330515627 -10.0
vertex 1.5 -2.5 -10.0
vertex 2.0 -3.46410161513775 -10.0
endloop
endfacet
facet normal 0.0 0.0 -1.0
outer loop
vertex 2.0 -3.46410161513775 -10.0
vertex 1.5 -2.5 -10.0
vertex 2.0 3.46410161513776 -10.0
endloop
endfacet
facet normal 0.0 0.0 -1.0
outer loop
vertex 2.0 -3.46410161513775 -10.0
vertex 2.0 3.46410161513776 -10.0
vertex 2.82842712474619 2.82842712474619 -10.0
endloop
endfacet
facet normal 0.0 0.0 -1.0
outer loop
vertex 2.0 -3.46410161513775 -10.0
vertex 2.82842712474619 2.82842712474619 -10.0
vertex 2.82842712474619 -2.82842712474619 -10.0
endloop
endfacet
facet normal 0.0 0.0 -1.0
outer loop
vertex 2.82842712474619 -2.82842712474619 -10.0
vertex 2.82842712474619 2.82842712474619 -10.0
vertex 3.46410161513775 2.0 -10.0
endloop
endfacet
facet normal 0.0 0.0 -1.0
outer loop
vertex 2.82842712474619 -2.82842712474619 -10.0
vertex 3.46410161513775 2.0 -10.0
vertex 3.46410161513775 -2.0 -10.0
endloop
endfacet
facet normal 0.0 0.0 -1.0
outer loop
vertex 3.46410161513775 -2.0 -10.0
vertex 3.46410161513775 2.0 -10.0
vertex 3.86370330515627 1.03527618041008 -10.0
endloop
endfacet
facet normal 0.0 0.0 -1.0
outer loop
vertex 3.46410161513775 -2.0 -10.0
vertex 3.86370330515627 1.03527618041008 -10.0
vertex 3.86370330515627 -1.03527618041008 -10.0
endloop
endfacet
facet normal 0.0 0.0 -1.0
outer loop
vertex 3.86370330515627 -1.03527618041008 -10.0
vertex 3.86370330515627 1.03527618041008 -10.0
vertex 4.0 1.28649811974131e-015 -10.0
endloop
endfacet
facet normal -0.991444861373811 -0.130526192220051 -0.0
outer loop
vertex -4.0 8.08514479691888e-015 -3.0
vertex -3.86370330515627 -1.03527618041008 -10.0
vertex -3.86370330515627 -1.03527618041008 -3.0
endloop
endfacet
facet normal -0.991444861373811 -0.130526192220051 -0.0
outer loop
vertex -3.86370330515627 -1.03527618041008 -10.0
vertex -4.0 8.08514479691888e-015 -3.0
vertex -4.0 8.08514479691888e-015 -10.0
endloop
endfacet
facet normal -0.99144486137381 0.130526192220053 0.0
outer loop
vertex -3.86370330515627 1.03527618041009 1.0
vertex -4.0 8.08514479691888e-015 -3.0
vertex -4.0 8.08514479691888e-015 1.0
endloop
endfacet
facet normal -0.99144486137381 0.130526192220053 0.0
outer loop
vertex -4.0 8.08514479691888e-015 -3.0
vertex -3.86370330515627 1.03527618041009 1.0
vertex -4.0 8.08514479691888e-015 -10.0
endloop
endfacet
facet normal -0.99144486137381 0.130526192220053 0.0
outer loop
vertex -4.0 8.08514479691888e-015 -10.0
vertex -3.86370330515627 1.03527618041009 1.0
vertex -3.86370330515627 1.03527618041009 -10.0
endloop
endfacet
facet normal -0.99144486137381 0.130526192220053 0.0
outer loop
vertex -3.86370330515627 1.03527618041009 -10.0
vertex -3.86370330515627 1.03527618041009 1.0
vertex -3.86370330515627 1.03527618041009 -3.0
endloop
endfacet
facet normal -0.923879532511286 0.382683432365091 0.0
outer loop
vertex -3.46410161513775 2.0 -3.0
vertex -3.86370330515627 1.03527618041009 -10.0
vertex -3.86370330515627 1.03527618041009 -3.0
endloop
endfacet
facet normal -0.923879532511286 0.382683432365091 0.0
outer loop
vertex -3.86370330515627 1.03527618041009 -10.0
vertex -3.46410161513775 2.0 -3.0
vertex -3.46410161513775 2.0 -10.0
endloop
endfacet
facet normal -0.793353340291235 0.608761429008722 0.0
outer loop
vertex -2.82842712474619 2.82842712474619 1.0
vertex -3.46410161513775 2.0 -3.0
vertex -3.46410161513775 2.0 1.0
endloop
endfacet
facet normal -0.793353340291235 0.608761429008722 0.0
outer loop
vertex -3.46410161513775 2.0 -3.0
vertex -2.82842712474619 2.82842712474619 1.0
vertex -3.46410161513775 2.0 -10.0
endloop
endfacet
facet normal -0.793353340291235 0.608761429008722 0.0
outer loop
vertex -3.46410161513775 2.0 -10.0
vertex -2.82842712474619 2.82842712474619 1.0
vertex -2.82842712474619 2.82842712474619 -10.0
endloop
endfacet
facet normal -0.793353340291235 0.608761429008722 0.0
outer loop
vertex -2.82842712474619 2.82842712474619 -10.0
vertex -2.82842712474619 2.82842712474619 1.0
vertex -2.82842712474619 2.82842712474619 -3.0
endloop
endfacet
facet normal -0.60876142900872 0.793353340291236 0.0
outer loop
vertex -2.82842712474619 2.82842712474619 -3.0
vertex -2.0 3.46410161513776 -10.0
vertex -2.82842712474619 2.82842712474619 -10.0
endloop
endfacet
facet normal -0.60876142900872 0.793353340291236 0.0
outer loop
vertex -2.0 3.46410161513776 -10.0
vertex -2.82842712474619 2.82842712474619 -3.0
vertex -2.0 3.46410161513776 -3.0
endloop
endfacet
facet normal -0.382683432365089 0.923879532511287 0.0
outer loop
vertex -2.0 3.46410161513776 -3.0
vertex -1.03527618041008 3.86370330515627 -10.0
vertex -2.0 3.46410161513776 -10.0
endloop
endfacet
facet normal -0.382683432365089 0.923879532511287 0.0
outer loop
vertex -1.03527618041008 3.86370330515627 -10.0
vertex -2.0 3.46410161513776 -3.0
vertex -1.03527618041008 3.86370330515627 -3.0
endloop
endfacet
facet normal -0.382683432365089 0.923879532511287 0.0
outer loop
vertex -1.03527618041008 3.86370330515627 -3.0
vertex -2.0 3.46410161513776 -3.0
vertex -2.0 3.46410161513776 1.0
endloop
endfacet
facet normal -0.382683432365089 0.923879532511287 0.0
outer loop
vertex -1.03527618041008 3.86370330515627 -3.0
vertex -2.0 3.46410161513776 1.0
vertex -1.03527618041008 3.86370330515627 1.0
endloop
endfacet
facet normal -0.130526192220051 0.99144486137381 0.0
outer loop
vertex -1.03527618041008 3.86370330515627 -3.0
vertex 7.34788079488412e-016 4.0 -10.0
vertex -1.03527618041008 3.86370330515627 -10.0
endloop
endfacet
facet normal -0.130526192220051 0.99144486137381 0.0
outer loop
vertex 7.34788079488412e-016 4.0 -10.0
vertex -1.03527618041008 3.86370330515627 -3.0
vertex 7.34788079488412e-016 4.0 -3.0
endloop
endfacet
facet normal 0.130526192220052 0.99144486137381 0.0
outer loop
vertex 7.34788079488412e-016 4.0 -3.0
vertex 1.03527618041008 3.86370330515627 -10.0
vertex 7.34788079488412e-016 4.0 -10.0
endloop
endfacet
facet normal 0.130526192220052 0.99144486137381 0.0
outer loop
vertex 1.03527618041008 3.86370330515627 -10.0
vertex 7.34788079488412e-016 4.0 -3.0
vertex 1.03527618041008 3.86370330515627 -3.0
endloop
endfacet
facet normal 0.130526192220052 0.99144486137381 0.0
outer loop
vertex 1.03527618041008 3.86370330515627 -3.0
vertex 7.34788079488412e-016 4.0 -3.0
vertex 7.34788079488412e-016 4.0 1.0
endloop
endfacet
facet normal 0.130526192220052 0.99144486137381 0.0
outer loop
vertex 1.03527618041008 3.86370330515627 -3.0
vertex 7.34788079488412e-016 4.0 1.0
vertex 1.03527618041008 3.86370330515627 1.0
endloop
endfacet
facet normal 0.382683432365089 0.923879532511287 0.0
outer loop
vertex 1.03527618041008 3.86370330515627 -3.0
vertex 2.0 3.46410161513776 -10.0
vertex 1.03527618041008 3.86370330515627 -10.0
endloop
endfacet
facet normal 0.382683432365089 0.923879532511287 0.0
outer loop
vertex 2.0 3.46410161513776 -10.0
vertex 1.03527618041008 3.86370330515627 -3.0
vertex 2.0 3.46410161513776 -3.0
endloop
endfacet
facet normal 0.60876142900872 0.793353340291236 0.0
outer loop
vertex 2.0 3.46410161513776 -3.0
vertex 2.82842712474619 2.82842712474619 -10.0
vertex 2.0 3.46410161513776 -10.0
endloop
endfacet
facet normal 0.60876142900872 0.793353340291236 0.0
outer loop
vertex 2.82842712474619 2.82842712474619 -10.0
vertex 2.0 3.46410161513776 -3.0
vertex 2.82842712474619 2.82842712474619 -3.0
endloop
endfacet
facet normal 0.60876142900872 0.793353340291236 0.0
outer loop
vertex 2.82842712474619 2.82842712474619 -3.0
vertex 2.0 3.46410161513776 -3.0
vertex 2.0 3.46410161513776 1.0
endloop
endfacet
facet normal 0.60876142900872 0.793353340291236 0.0
outer loop
vertex 2.82842712474619 2.82842712474619 -3.0
vertex 2.0 3.46410161513776 1.0
vertex 2.82842712474619 2.82842712474619 1.0
endloop
endfacet
facet normal 0.793353340291235 0.608761429008721 0.0
outer loop
vertex 2.82842712474619 2.82842712474619 -10.0
vertex 3.46410161513775 2.0 -3.0
vertex 3.46410161513775 2.0 -10.0
endloop
endfacet
facet normal 0.793353340291235 0.608761429008721 0.0
outer loop
vertex 3.46410161513775 2.0 -3.0
vertex 2.82842712474619 2.82842712474619 -10.0
vertex 2.82842712474619 2.82842712474619 -3.0
endloop
endfacet
facet normal 0.923879532511286 0.38268343236509 0.0
outer loop
vertex 3.46410161513775 2.0 -10.0
vertex 3.86370330515627 1.03527618041008 -3.0
vertex 3.86370330515627 1.03527618041008 -10.0
endloop
endfacet
facet normal 0.923879532511286 0.38268343236509 0.0
outer loop
vertex 3.86370330515627 1.03527618041008 -3.0
vertex 3.46410161513775 2.0 -10.0
vertex 3.86370330515627 1.03527618041008 1.0
endloop
endfacet
facet normal 0.923879532511286 0.38268343236509 0.0
outer loop
vertex 3.86370330515627 1.03527618041008 1.0
vertex 3.46410161513775 2.0 -10.0
vertex 3.46410161513775 2.0 1.0
endloop
endfacet
facet normal 0.923879532511286 0.38268343236509 0.0
outer loop
vertex 3.46410161513775 2.0 1.0
vertex 3.46410161513775 2.0 -10.0
vertex 3.46410161513775 2.0 -3.0
endloop
endfacet
facet normal 0.99144486137381 0.130526192220052 0.0
outer loop
vertex 3.86370330515627 1.03527618041008 -10.0
vertex 4.0 1.28649811974131e-015 -3.0
vertex 4.0 1.28649811974131e-015 -10.0
endloop
endfacet
facet normal 0.99144486137381 0.130526192220052 0.0
outer loop
vertex 4.0 1.28649811974131e-015 -3.0
vertex 3.86370330515627 1.03527618041008 -10.0
vertex 3.86370330515627 1.03527618041008 -3.0
endloop
endfacet
facet normal 0.99144486137381 -0.130526192220052 0.0
outer loop
vertex 4.0 1.28649811974131e-015 -10.0
vertex 3.86370330515627 -1.03527618041008 -3.0
vertex 3.86370330515627 -1.03527618041008 -10.0
endloop
endfacet
facet normal 0.99144486137381 -0.130526192220052 0.0
outer loop
vertex 3.86370330515627 -1.03527618041008 -3.0
vertex 4.0 1.28649811974131e-015 -10.0
vertex 3.86370330515627 -1.03527618041008 1.0
endloop
endfacet
facet normal 0.99144486137381 -0.130526192220052 0.0
outer loop
vertex 3.86370330515627 -1.03527618041008 1.0
vertex 4.0 1.28649811974131e-015 -10.0
vertex 4.0 1.28649811974131e-015 1.0
endloop
endfacet
facet normal 0.99144486137381 -0.130526192220052 0.0
outer loop
vertex 4.0 1.28649811974131e-015 1.0
vertex 4.0 1.28649811974131e-015 -10.0
vertex 4.0 1.28649811974131e-015 -3.0
endloop
endfacet
facet normal 0.923879532511287 -0.382683432365089 0.0
outer loop
vertex 3.86370330515627 -1.03527618041008 -10.0
vertex 3.46410161513775 -2.0 -3.0
vertex 3.46410161513775 -2.0 -10.0
endloop
endfacet
facet normal 0.923879532511287 -0.382683432365089 0.0
outer loop
vertex 3.46410161513775 -2.0 -3.0
vertex 3.86370330515627 -1.03527618041008 -10.0
vertex 3.86370330515627 -1.03527618041008 -3.0
endloop
endfacet
facet normal 0.793353340291235 -0.608761429008721 0.0
outer loop
vertex 3.46410161513775 -2.0 -10.0
vertex 2.82842712474619 -2.82842712474619 -3.0
vertex 2.82842712474619 -2.82842712474619 -10.0
endloop
endfacet
facet normal 0.793353340291235 -0.608761429008721 0.0
outer loop
vertex 2.82842712474619 -2.82842712474619 -3.0
vertex 3.46410161513775 -2.0 -10.0
vertex 2.82842712474619 -2.82842712474619 1.0
endloop
endfacet
facet normal 0.793353340291235 -0.608761429008721 0.0
outer loop
vertex 2.82842712474619 -2.82842712474619 1.0
vertex 3.46410161513775 -2.0 -10.0
vertex 3.46410161513775 -2.0 1.0
endloop
endfacet
facet normal 0.793353340291235 -0.608761429008721 0.0
outer loop
vertex 3.46410161513775 -2.0 1.0
vertex 3.46410161513775 -2.0 -10.0
vertex 3.46410161513775 -2.0 -3.0
endloop
endfacet
facet normal 0.60876142900872 -0.793353340291236 0.0
outer loop
vertex 2.82842712474619 -2.82842712474619 -3.0
vertex 2.0 -3.46410161513775 -10.0
vertex 2.82842712474619 -2.82842712474619 -10.0
endloop
endfacet
facet normal 0.60876142900872 -0.793353340291236 0.0
outer loop
vertex 2.0 -3.46410161513775 -10.0
vertex 2.82842712474619 -2.82842712474619 -3.0
vertex 2.0 -3.46410161513775 -3.0
endloop
endfacet
facet normal 0.38268343236509 -0.923879532511287 0.0
outer loop
vertex 2.0 -3.46410161513775 -3.0
vertex 1.03527618041008 -3.86370330515627 -10.0
vertex 2.0 -3.46410161513775 -10.0
endloop
endfacet
facet normal 0.38268343236509 -0.923879532511287 0.0
outer loop
vertex 1.03527618041008 -3.86370330515627 -10.0
vertex 2.0 -3.46410161513775 -3.0
vertex 1.03527618041008 -3.86370330515627 -3.0
endloop
endfacet
facet normal 0.38268343236509 -0.923879532511287 0.0
outer loop
vertex 1.03527618041008 -3.86370330515627 -3.0
vertex 2.0 -3.46410161513775 -3.0
vertex 2.0 -3.46410161513775 1.0
endloop
endfacet
facet normal 0.38268343236509 -0.923879532511287 0.0
outer loop
vertex 1.03527618041008 -3.86370330515627 -3.0
vertex 2.0 -3.46410161513775 1.0
vertex 1.03527618041008 -3.86370330515627 1.0
endloop
endfacet
facet normal 0.130526192220051 -0.99144486137381 0.0
outer loop
vertex 1.03527618041008 -3.86370330515627 -3.0
vertex -1.1331077795296e-015 -4.0 -10.0
vertex 1.03527618041008 -3.86370330515627 -10.0
endloop
endfacet
facet normal 0.130526192220051 -0.99144486137381 0.0
outer loop
vertex -1.1331077795296e-015 -4.0 -10.0
vertex 1.03527618041008 -3.86370330515627 -3.0
vertex -1.1331077795296e-015 -4.0 -3.0
endloop
endfacet
facet normal -0.130526192220052 -0.99144486137381 -0.0
outer loop
vertex -1.1331077795296e-015 -4.0 -3.0
vertex -1.03527618041008 -3.86370330515627 -10.0
vertex -1.1331077795296e-015 -4.0 -10.0
endloop
endfacet
facet normal -0.130526192220052 -0.99144486137381 -0.0
outer loop
vertex -1.03527618041008 -3.86370330515627 -10.0
vertex -1.1331077795296e-015 -4.0 -3.0
vertex -1.03527618041008 -3.86370330515627 -3.0
endloop
endfacet
facet normal -0.130526192220052 -0.99144486137381 -0.0
outer loop
vertex -1.03527618041008 -3.86370330515627 -3.0
vertex -1.1331077795296e-015 -4.0 -3.0
vertex -1.1331077795296e-015 -4.0 1.0
endloop
endfacet
facet normal -0.130526192220052 -0.99144486137381 -0.0
outer loop
vertex -1.03527618041008 -3.86370330515627 -3.0
vertex -1.1331077795296e-015 -4.0 1.0
vertex -1.03527618041008 -3.86370330515627 1.0
endloop
endfacet
facet normal -0.38268343236509 -0.923879532511287 -0.0
outer loop
vertex -1.03527618041008 -3.86370330515627 -3.0
vertex -2.0 -3.46410161513775 -10.0
vertex -1.03527618041008 -3.86370330515627 -10.0
endloop
endfacet
facet normal -0.38268343236509 -0.923879532511287 -0.0
outer loop
vertex -2.0 -3.46410161513775 -10.0
vertex -1.03527618041008 -3.86370330515627 -3.0
vertex -2.0 -3.46410161513775 -3.0
endloop
endfacet
facet normal -0.608761429008721 -0.793353340291235 -0.0
outer loop
vertex -2.0 -3.46410161513775 -3.0
vertex -2.82842712474619 -2.82842712474619 -10.0
vertex -2.0 -3.46410161513775 -10.0
endloop
endfacet
facet normal -0.608761429008721 -0.793353340291235 -0.0
outer loop
vertex -2.82842712474619 -2.82842712474619 -10.0
vertex -2.0 -3.46410161513775 -3.0
vertex -2.82842712474619 -2.82842712474619 -3.0
endloop
endfacet
facet normal -0.608761429008721 -0.793353340291235 -0.0
outer loop
vertex -2.82842712474619 -2.82842712474619 -3.0
vertex -2.0 -3.46410161513775 -3.0
vertex -2.0 -3.46410161513775 1.0
endloop
endfacet
facet normal -0.608761429008721 -0.793353340291235 -0.0
outer loop
vertex -2.82842712474619 -2.82842712474619 -3.0
vertex -2.0 -3.46410161513775 1.0
vertex -2.82842712474619 -2.82842712474619 1.0
endloop
endfacet
facet normal -0.793353340291235 -0.608761429008721 -0.0
outer loop
vertex -3.46410161513775 -2.0 -3.0
vertex -2.82842712474619 -2.82842712474619 -10.0
vertex -2.82842712474619 -2.82842712474619 -3.0
endloop
endfacet
facet normal -0.793353340291235 -0.608761429008721 -0.0
outer loop
vertex -2.82842712474619 -2.82842712474619 -10.0
vertex -3.46410161513775 -2.0 -3.0
vertex -3.46410161513775 -2.0 -10.0
endloop
endfacet
facet normal -0.923879532511287 -0.38268343236509 -0.0
outer loop
vertex -3.86370330515627 -1.03527618041008 1.0
vertex -3.46410161513775 -2.0 -3.0
vertex -3.46410161513775 -2.0 1.0
endloop
endfacet
facet normal -0.923879532511287 -0.38268343236509 -0.0
outer loop
vertex -3.46410161513775 -2.0 -3.0
vertex -3.86370330515627 -1.03527618041008 1.0
vertex -3.46410161513775 -2.0 -10.0
endloop
endfacet
facet normal -0.923879532511287 -0.38268343236509 -0.0
outer loop
vertex -3.46410161513775 -2.0 -10.0
vertex -3.86370330515627 -1.03527618041008 1.0
vertex -3.86370330515627 -1.03527618041008 -10.0
endloop
endfacet
facet normal -0.923879532511287 -0.38268343236509 -0.0
outer loop
vertex -3.86370330515627 -1.03527618041008 -10.0
vertex -3.86370330515627 -1.03527618041008 1.0
vertex -3.86370330515627 -1.03527618041008 -3.0
endloop
endfacet
facet normal 0.0 0.0 -1.0
outer loop
vertex 1.03527618041008 -3.86370330515627 -3.0
vertex 0.356713689267585 -5.46598119275454 -3.0
vertex -1.1331077795296e-015 -4.0 -3.0
endloop
endfacet
facet normal 0.0 0.0 -1.0
outer loop
vertex 0.356713689267585 -5.46598119275454 -3.0
vertex 1.03527618041008 -3.86370330515627 -3.0
vertex 1.07014106780271 -5.37205669652316 -3.0
endloop
endfacet
facet normal -0.971648775754624 -0.236428967291533 -0.0
outer loop
vertex -1.1331077795296e-015 -4.0 1.0
vertex 0.356713689267585 -5.46598119275454 -3.0
vertex 0.356713689267585 -5.46598119275454 1.0
endloop
endfacet
facet normal -0.971648775754624 -0.236428967291533 -0.0
outer loop
vertex 0.356713689267585 -5.46598119275454 -3.0
vertex -1.1331077795296e-015 -4.0 1.0
vertex -1.1331077795296e-015 -4.0 -3.0
endloop
endfacet
facet normal 0.999732966132516 0.0231083627261368 0.0
outer loop
vertex 1.03527618041008 -3.86370330515627 -3.0
vertex 1.07014106780271 -5.37205669652316 1.0
vertex 1.07014106780271 -5.37205669652316 -3.0
endloop
endfacet
facet normal 0.999732966132516 0.0231083627261368 0.0
outer loop
vertex 1.07014106780271 -5.37205669652316 1.0
vertex 1.03527618041008 -3.86370330515627 -3.0
vertex 1.03527618041008 -3.86370330515627 1.0
endloop
endfacet
facet normal 0.130526192220057 -0.99144486137381 0.0
outer loop
vertex 1.07014106780271 -5.37205669652316 1.0
vertex 0.356713689267585 -5.46598119275454 -3.0
vertex 1.07014106780271 -5.37205669652316 -3.0
endloop
endfacet
facet normal 0.130526192220057 -0.99144486137381 0.0
outer loop
vertex 0.356713689267585 -5.46598119275454 -3.0
vertex 1.07014106780271 -5.37205669652316 1.0
vertex 0.356713689267585 -5.46598119275454 1.0
endloop
endfacet
facet normal 0.0 0.0 -1.0
outer loop
vertex 2.82842712474619 -2.82842712474619 -3.0
vertex 3.04191371316068 -4.5553217248996 -3.0
vertex 2.0 -3.46410161513775 -3.0
endloop
endfacet
facet normal 0.0 0.0 -1.0
outer loop
vertex 3.04191371316068 -4.5553217248996 -3.0
vertex 2.82842712474619 -2.82842712474619 -3.0
vertex 3.61279769861174 -4.117267035858 -3.0
endloop
endfacet
facet normal -0.723258039713782 -0.690577879742305 -0.0
outer loop
vertex 2.0 -3.46410161513775 1.0
vertex 3.04191371316068 -4.5553217248996 -3.0
vertex 3.04191371316068 -4.5553217248996 1.0
endloop
endfacet
facet normal -0.723258039713782 -0.690577879742305 -0.0
outer loop
vertex 3.04191371316068 -4.5553217248996 -3.0
vertex 2.0 -3.46410161513775 1.0
vertex 2.0 -3.46410161513775 -3.0
endloop
endfacet
facet normal 0.854239964308454 0.519878912226963 0.0
outer loop
vertex 2.82842712474619 -2.82842712474619 -3.0
vertex 3.61279769861174 -4.117267035858 1.0
vertex 3.61279769861174 -4.117267035858 -3.0
endloop
endfacet
facet normal 0.854239964308454 0.519878912226963 0.0
outer loop
vertex 3.61279769861174 -4.117267035858 1.0
vertex 2.82842712474619 -2.82842712474619 -3.0
vertex 2.82842712474619 -2.82842712474619 1.0
endloop
endfacet
facet normal 0.608761429008726 -0.793353340291231 0.0
outer loop
vertex 3.61279769861174 -4.117267035858 1.0
vertex 3.04191371316068 -4.5553217248996 -3.0
vertex 3.61279769861174 -4.117267035858 -3.0
endloop
endfacet
facet normal 0.608761429008726 -0.793353340291231 0.0
outer loop
vertex 3.04191371316068 -4.5553217248996 -3.0
vertex 3.61279769861174 -4.117267035858 1.0
vertex 3.04191371316068 -4.5553217248996 1.0
endloop
endfacet
facet normal 0.0 0.0 -1.0
outer loop
vertex 3.86370330515627 -1.03527618041008 -3.0
vertex 4.9120354141672 -2.42406747959385 -3.0
vertex 3.46410161513775 -2.0 -3.0
endloop
endfacet
facet normal 0.0 0.0 -1.0
outer loop
vertex 4.9120354141672 -2.42406747959385 -3.0
vertex 3.86370330515627 -1.03527618041008 -3.0
vertex 5.18740810366072 -1.75925899791141 -3.0
endloop
endfacet
facet normal -0.281070896012311 -0.959687007005324 -0.0
outer loop
vertex 4.9120354141672 -2.42406747959385 1.0
vertex 3.46410161513775 -2.0 -3.0
vertex 4.9120354141672 -2.42406747959385 -3.0
endloop
endfacet
facet normal -0.281070896012311 -0.959687007005324 -0.0
outer loop
vertex 3.46410161513775 -2.0 -3.0
vertex 4.9120354141672 -2.42406747959385 1.0
vertex 3.46410161513775 -2.0 1.0
endloop
endfacet
facet normal 0.479854053905546 0.877348327034601 0.0
outer loop
vertex 3.86370330515627 -1.03527618041008 1.0
vertex 5.18740810366072 -1.75925899791141 -3.0
vertex 3.86370330515627 -1.03527618041008 -3.0
endloop
endfacet
facet normal 0.479854053905546 0.877348327034601 0.0
outer loop
vertex 5.18740810366072 -1.75925899791141 -3.0
vertex 3.86370330515627 -1.03527618041008 1.0
vertex 5.18740810366072 -1.75925899791141 1.0
endloop
endfacet
facet normal 0.92387953251129 -0.382683432365081 0.0
outer loop
vertex 5.18740810366072 -1.75925899791141 -3.0
vertex 4.9120354141672 -2.42406747959385 1.0
vertex 4.9120354141672 -2.42406747959385 -3.0
endloop
endfacet
facet normal 0.92387953251129 -0.382683432365081 0.0
outer loop
vertex 4.9120354141672 -2.42406747959385 1.0
vertex 5.18740810366072 -1.75925899791141 -3.0
vertex 5.18740810366072 -1.75925899791141 1.0
endloop
endfacet
facet normal 0.0 0.0 -1.0
outer loop
vertex 5.37205669652315 1.07014106780274 -3.0
vertex 4.0 1.28649811974131e-015 -3.0
vertex 3.86370330515627 1.03527618041008 -3.0
endloop
endfacet
facet normal 0.0 0.0 -1.0
outer loop
vertex 4.0 1.28649811974131e-015 -3.0
vertex 5.37205669652315 1.07014106780274 -3.0
vertex 5.46598119275454 0.356713689267619 -3.0
endloop
endfacet
facet normal 0.236428967291553 -0.971648775754619 0.0
outer loop
vertex 5.46598119275454 0.356713689267619 1.0
vertex 4.0 1.28649811974131e-015 -3.0
vertex 5.46598119275454 0.356713689267619 -3.0
endloop
endfacet
facet normal 0.236428967291553 -0.971648775754619 0.0
outer loop
vertex 4.0 1.28649811974131e-015 -3.0
vertex 5.46598119275454 0.356713689267619 1.0
vertex 4.0 1.28649811974131e-015 1.0
endloop
endfacet
facet normal -0.0231083627261566 0.999732966132515 0.0
outer loop
vertex 3.86370330515627 1.03527618041008 1.0
vertex 5.37205669652315 1.07014106780274 -3.0
vertex 3.86370330515627 1.03527618041008 -3.0
endloop
endfacet
facet normal -0.0231083627261566 0.999732966132515 0.0
outer loop
vertex 5.37205669652315 1.07014106780274 -3.0
vertex 3.86370330515627 1.03527618041008 1.0
vertex 5.37205669652315 1.07014106780274 1.0
endloop
endfacet
facet normal 0.991444861373809 0.130526192220063 0.0
outer loop
vertex 5.37205669652315 1.07014106780274 -3.0
vertex 5.46598119275454 0.356713689267619 1.0
vertex 5.46598119275454 0.356713689267619 -3.0
endloop
endfacet
facet normal 0.991444861373809 0.130526192220063 0.0
outer loop
vertex 5.46598119275454 0.356713689267619 1.0
vertex 5.37205669652315 1.07014106780274 -3.0
vertex 5.37205669652315 1.07014106780274 1.0
endloop
endfacet
facet normal 0.0 0.0 -1.0
outer loop
vertex 4.11726703585798 3.61279769861176 -3.0
vertex 3.46410161513775 2.0 -3.0
vertex 2.82842712474619 2.82842712474619 -3.0
endloop
endfacet
facet normal 0.0 0.0 -1.0
outer loop
vertex 3.46410161513775 2.0 -3.0
vertex 4.11726703585798 3.61279769861176 -3.0
vertex 4.55532172489958 3.0419137131607 -3.0
endloop
endfacet
facet normal 0.690577879742319 -0.723258039713768 0.0
outer loop
vertex 4.55532172489958 3.0419137131607 1.0
vertex 3.46410161513775 2.0 -3.0
vertex 4.55532172489958 3.0419137131607 -3.0
endloop
endfacet
facet normal 0.690577879742319 -0.723258039713768 0.0
outer loop
vertex 3.46410161513775 2.0 -3.0
vertex 4.55532172489958 3.0419137131607 1.0
vertex 3.46410161513775 2.0 1.0
endloop
endfacet
facet normal -0.519878912226981 0.854239964308444 0.0
outer loop
vertex 2.82842712474619 2.82842712474619 1.0
vertex 4.11726703585798 3.61279769861176 -3.0
vertex 2.82842712474619 2.82842712474619 -3.0
endloop
endfacet
facet normal -0.519878912226981 0.854239964308444 0.0
outer loop
vertex 4.11726703585798 3.61279769861176 -3.0
vertex 2.82842712474619 2.82842712474619 1.0
vertex 4.11726703585798 3.61279769861176 1.0
endloop
endfacet
facet normal 0.793353340291227 0.608761429008732 0.0
outer loop
vertex 4.11726703585798 3.61279769861176 -3.0
vertex 4.55532172489958 3.0419137131607 1.0
vertex 4.55532172489958 3.0419137131607 -3.0
endloop
endfacet
facet normal 0.793353340291227 0.608761429008732 0.0
outer loop
vertex 4.55532172489958 3.0419137131607 1.0
vertex 4.11726703585798 3.61279769861176 -3.0
vertex 4.11726703585798 3.61279769861176 1.0
endloop
endfacet
facet normal 0.0 0.0 -1.0
outer loop
vertex 1.75925899791138 5.18740810366073 -3.0
vertex 2.0 3.46410161513776 -3.0
vertex 1.03527618041008 3.86370330515627 -3.0
endloop
endfacet
facet normal 0.0 0.0 -1.0
outer loop
vertex 2.0 3.46410161513776 -3.0
vertex 1.75925899791138 5.18740810366073 -3.0
vertex 2.42406747959382 4.91203541416721 -3.0
endloop
endfacet
facet normal 0.95968700700533 -0.281070896012291 0.0
outer loop
vertex 2.42406747959382 4.91203541416721 -3.0
vertex 2.0 3.46410161513776 1.0
vertex 2.0 3.46410161513776 -3.0
endloop
endfacet
facet normal 0.95968700700533 -0.281070896012291 0.0
outer loop
vertex 2.0 3.46410161513776 1.0
vertex 2.42406747959382 4.91203541416721 -3.0
vertex 2.42406747959382 4.91203541416721 1.0
endloop
endfacet
facet normal -0.877348327034611 0.479854053905527 0.0
outer loop
vertex 1.75925899791138 5.18740810366073 1.0
vertex 1.03527618041008 3.86370330515627 -3.0
vertex 1.03527618041008 3.86370330515627 1.0
endloop
endfacet
facet normal -0.877348327034611 0.479854053905527 0.0
outer loop
vertex 1.03527618041008 3.86370330515627 -3.0
vertex 1.75925899791138 5.18740810366073 1.0
vertex 1.75925899791138 5.18740810366073 -3.0
endloop
endfacet
facet normal 0.382683432365075 0.923879532511293 0.0
outer loop
vertex 1.75925899791138 5.18740810366073 1.0
vertex 2.42406747959382 4.91203541416721 -3.0
vertex 1.75925899791138 5.18740810366073 -3.0
endloop
endfacet
facet normal 0.382683432365075 0.923879532511293 0.0
outer loop
vertex 2.42406747959382 4.91203541416721 -3.0
vertex 1.75925899791138 5.18740810366073 1.0
vertex 2.42406747959382 4.91203541416721 1.0
endloop
endfacet
facet normal 0.0 0.0 -1.0
outer loop
vertex -0.356713689267652 5.46598119275453 -3.0
vertex -1.03527618041008 3.86370330515627 -3.0
vertex -1.07014106780277 5.37205669652314 -3.0
endloop
endfacet
facet normal 0.0 0.0 -1.0
outer loop
vertex -1.03527618041008 3.86370330515627 -3.0
vertex -0.356713689267652 5.46598119275453 -3.0
vertex 7.34788079488412e-016 4.0 -3.0
endloop
endfacet
facet normal 0.971648775754613 0.236428967291576 0.0
outer loop
vertex -0.356713689267652 5.46598119275453 -3.0
vertex 7.34788079488412e-016 4.0 1.0
vertex 7.34788079488412e-016 4.0 -3.0
endloop
endfacet
facet normal 0.971648775754613 0.236428967291576 0.0
outer loop
vertex 7.34788079488412e-016 4.0 1.0
vertex -0.356713689267652 5.46598119275453 -3.0
vertex -0.356713689267652 5.46598119275453 1.0
endloop
endfacet
facet normal -0.999732966132515 -0.0231083627261811 -0.0
outer loop
vertex -1.07014106780277 5.37205669652314 1.0
vertex -1.03527618041008 3.86370330515627 -3.0
vertex -1.03527618041008 3.86370330515627 1.0
endloop
endfacet
facet normal -0.999732966132515 -0.0231083627261811 -0.0
outer loop
vertex -1.03527618041008 3.86370330515627 -3.0
vertex -1.07014106780277 5.37205669652314 1.0
vertex -1.07014106780277 5.37205669652314 -3.0
endloop
endfacet
facet normal -0.130526192220069 0.991444861373808 0.0
outer loop
vertex -1.07014106780277 5.37205669652314 1.0
vertex -0.356713689267652 5.46598119275453 -3.0
vertex -1.07014106780277 5.37205669652314 -3.0
endloop
endfacet
facet normal -0.130526192220069 0.991444861373808 0.0
outer loop
vertex -0.356713689267652 5.46598119275453 -3.0
vertex -1.07014106780277 5.37205669652314 1.0
vertex -0.356713689267652 5.46598119275453 1.0
endloop
endfacet
facet normal 0.0 0.0 -1.0
outer loop
vertex -3.04191371316073 4.55532172489956 -3.0
vertex -2.82842712474619 2.82842712474619 -3.0
vertex -3.61279769861179 4.11726703585796 -3.0
endloop
endfacet
facet normal 0.0 0.0 -1.0
outer loop
vertex -2.82842712474619 2.82842712474619 -3.0
vertex -3.04191371316073 4.55532172489956 -3.0
vertex -2.0 3.46410161513776 -3.0
endloop
endfacet
facet normal 0.723258039713751 0.690577879742338 0.0
outer loop
vertex -3.04191371316073 4.55532172489956 -3.0
vertex -2.0 3.46410161513776 1.0
vertex -2.0 3.46410161513776 -3.0
endloop
endfacet
facet normal 0.723258039713751 0.690577879742338 0.0
outer loop
vertex -2.0 3.46410161513776 1.0
vertex -3.04191371316073 4.55532172489956 -3.0
vertex -3.04191371316073 4.55532172489956 1.0
endloop
endfacet
facet normal -0.85423996430843 -0.519878912227003 -0.0
outer loop
vertex -3.61279769861179 4.11726703585796 1.0
vertex -2.82842712474619 2.82842712474619 -3.0
vertex -2.82842712474619 2.82842712474619 1.0
endloop
endfacet
facet normal -0.85423996430843 -0.519878912227003 -0.0
outer loop
vertex -2.82842712474619 2.82842712474619 -3.0
vertex -3.61279769861179 4.11726703585796 1.0
vertex -3.61279769861179 4.11726703585796 -3.0
endloop
endfacet
facet normal -0.608761429008736 0.793353340291223 0.0
outer loop
vertex -3.61279769861179 4.11726703585796 1.0
vertex -3.04191371316073 4.55532172489956 -3.0
vertex -3.61279769861179 4.11726703585796 -3.0
endloop
endfacet
facet normal -0.608761429008736 0.793353340291223 0.0
outer loop
vertex -3.04191371316073 4.55532172489956 -3.0
vertex -3.61279769861179 4.11726703585796 1.0
vertex -3.04191371316073 4.55532172489956 1.0
endloop
endfacet
facet normal 0.0 0.0 -1.0
outer loop
vertex -4.91203541416723 2.42406747959379 -3.0
vertex -3.86370330515627 1.03527618041009 -3.0
vertex -5.18740810366075 1.75925899791134 -3.0
endloop
endfacet
facet normal 0.0 0.0 -1.0
outer loop
vertex -3.86370330515627 1.03527618041009 -3.0
vertex -4.91203541416723 2.42406747959379 -3.0
vertex -3.46410161513775 2.0 -3.0
endloop
endfacet
facet normal 0.281070896012265 0.959687007005337 0.0
outer loop
vertex -4.91203541416723 2.42406747959379 1.0
vertex -3.46410161513775 2.0 -3.0
vertex -4.91203541416723 2.42406747959379 -3.0
endloop
endfacet
facet normal 0.281070896012265 0.959687007005337 0.0
outer loop
vertex -3.46410161513775 2.0 -3.0
vertex -4.91203541416723 2.42406747959379 1.0
vertex -3.46410161513775 2.0 1.0
endloop
endfacet
facet normal -0.479854053905504 -0.877348327034624 -0.0
outer loop
vertex -3.86370330515627 1.03527618041009 1.0
vertex -5.18740810366075 1.75925899791134 -3.0
vertex -3.86370330515627 1.03527618041009 -3.0
endloop
endfacet
facet normal -0.479854053905504 -0.877348327034624 -0.0
outer loop
vertex -5.18740810366075 1.75925899791134 -3.0
vertex -3.86370330515627 1.03527618041009 1.0
vertex -5.18740810366075 1.75925899791134 1.0
endloop
endfacet
facet normal -0.923879532511295 0.382683432365069 0.0
outer loop
vertex -4.91203541416723 2.42406747959379 1.0
vertex -5.18740810366075 1.75925899791134 -3.0
vertex -5.18740810366075 1.75925899791134 1.0
endloop
endfacet
facet normal -0.923879532511295 0.382683432365069 0.0
outer loop
vertex -5.18740810366075 1.75925899791134 -3.0
vertex -4.91203541416723 2.42406747959379 1.0
vertex -4.91203541416723 2.42406747959379 -3.0
endloop
endfacet
facet normal 0.0 0.0 -1.0
outer loop
vertex -4.0 8.08514479691888e-015 -3.0
vertex -5.37205669652316 -1.07014106780267 -3.0
vertex -5.46598119275454 -0.356713689267551 -3.0
endloop
endfacet
facet normal 0.0 0.0 -1.0
outer loop
vertex -5.37205669652316 -1.07014106780267 -3.0
vertex -4.0 8.08514479691888e-015 -3.0
vertex -3.86370330515627 -1.03527618041008 -3.0
endloop
endfacet
facet normal -0.236428967291516 0.971648775754628 0.0
outer loop
vertex -5.46598119275454 -0.356713689267551 1.0
vertex -4.0 8.08514479691888e-015 -3.0
vertex -5.46598119275454 -0.356713689267551 -3.0
endloop
endfacet
facet normal -0.236428967291516 0.971648775754628 0.0
outer loop
vertex -4.0 8.08514479691888e-015 -3.0
vertex -5.46598119275454 -0.356713689267551 1.0
vertex -4.0 8.08514479691888e-015 1.0
endloop
endfacet
facet normal 0.0231083627261138 -0.999732966132516 0.0
outer loop
vertex -3.86370330515627 -1.03527618041008 1.0
vertex -5.37205669652316 -1.07014106780267 -3.0
vertex -3.86370330515627 -1.03527618041008 -3.0
endloop
endfacet
facet normal 0.0231083627261138 -0.999732966132516 0.0
outer loop
vertex -5.37205669652316 -1.07014106780267 -3.0
vertex -3.86370330515627 -1.03527618041008 1.0
vertex -5.37205669652316 -1.07014106780267 1.0
endloop
endfacet
facet normal -0.99144486137381 -0.130526192220051 -0.0
outer loop
vertex -5.46598119275454 -0.356713689267551 1.0
vertex -5.37205669652316 -1.07014106780267 -3.0
vertex -5.37205669652316 -1.07014106780267 1.0
endloop
endfacet
facet normal -0.99144486137381 -0.130526192220051 -0.0
outer loop
vertex -5.37205669652316 -1.07014106780267 -3.0
vertex -5.46598119275454 -0.356713689267551 1.0
vertex -5.46598119275454 -0.356713689267551 -3.0
endloop
endfacet
facet normal 0.0 0.0 -1.0
outer loop
vertex -3.46410161513775 -2.0 -3.0
vertex -4.11726703585803 -3.61279769861171 -3.0
vertex -4.55532172489962 -3.04191371316065 -3.0
endloop
endfacet
facet normal 0.0 0.0 -1.0
outer loop
vertex -4.11726703585803 -3.61279769861171 -3.0
vertex -3.46410161513775 -2.0 -3.0
vertex -2.82842712474619 -2.82842712474619 -3.0
endloop
endfacet
facet normal -0.690577879742289 0.723258039713797 0.0
outer loop
vertex -4.55532172489962 -3.04191371316065 1.0
vertex -3.46410161513775 -2.0 -3.0
vertex -4.55532172489962 -3.04191371316065 -3.0
endloop
endfacet
facet normal -0.690577879742289 0.723258039713797 0.0
outer loop
vertex -3.46410161513775 -2.0 -3.0
vertex -4.55532172489962 -3.04191371316065 1.0
vertex -3.46410161513775 -2.0 1.0
endloop
endfacet
facet normal 0.519878912226944 -0.854239964308466 0.0
outer loop
vertex -2.82842712474619 -2.82842712474619 1.0
vertex -4.11726703585803 -3.61279769861171 -3.0
vertex -2.82842712474619 -2.82842712474619 -3.0
endloop
endfacet
facet normal 0.519878912226944 -0.854239964308466 0.0
outer loop
vertex -4.11726703585803 -3.61279769861171 -3.0
vertex -2.82842712474619 -2.82842712474619 1.0
vertex -4.11726703585803 -3.61279769861171 1.0
endloop
endfacet
facet normal -0.793353340291235 -0.608761429008721 -0.0
outer loop
vertex -4.55532172489962 -3.04191371316065 1.0
vertex -4.11726703585803 -3.61279769861171 -3.0
vertex -4.11726703585803 -3.61279769861171 1.0
endloop
endfacet
facet normal -0.793353340291235 -0.608761429008721 -0.0
outer loop
vertex -4.11726703585803 -3.61279769861171 -3.0
vertex -4.55532172489962 -3.04191371316065 1.0
vertex -4.55532172489962 -3.04191371316065 -3.0
endloop
endfacet
facet normal 0.0 0.0 -1.0
outer loop
vertex -2.0 -3.46410161513775 -3.0
vertex -1.75925899791144 -5.18740810366071 -3.0
vertex -2.42406747959388 -4.91203541416718 -3.0
endloop
endfacet
facet normal 0.0 0.0 -1.0
outer loop
vertex -1.75925899791144 -5.18740810366071 -3.0
vertex -2.0 -3.46410161513775 -3.0
vertex -1.03527618041008 -3.86370330515627 -3.0
endloop
endfacet
facet normal -0.959687007005318 0.281070896012332 0.0
outer loop
vertex -2.0 -3.46410161513775 1.0
vertex -2.42406747959388 -4.91203541416718 -3.0
vertex -2.42406747959388 -4.91203541416718 1.0
endloop
endfacet
facet normal -0.959687007005318 0.281070896012332 0.0
outer loop
vertex -2.42406747959388 -4.91203541416718 -3.0
vertex -2.0 -3.46410161513775 1.0
vertex -2.0 -3.46410161513775 -3.0
endloop
endfacet
facet normal 0.877348327034591 -0.479854053905565 0.0
outer loop
vertex -1.03527618041008 -3.86370330515627 -3.0
vertex -1.75925899791144 -5.18740810366071 1.0
vertex -1.75925899791144 -5.18740810366071 -3.0
endloop
endfacet
facet normal 0.877348327034591 -0.479854053905565 0.0
outer loop
vertex -1.75925899791144 -5.18740810366071 1.0
vertex -1.03527618041008 -3.86370330515627 -3.0
vertex -1.03527618041008 -3.86370330515627 1.0
endloop
endfacet
facet normal -0.382683432365087 -0.923879532511288 -0.0
outer loop
vertex -1.75925899791144 -5.18740810366071 1.0
vertex -2.42406747959388 -4.91203541416718 -3.0
vertex -1.75925899791144 -5.18740810366071 -3.0
endloop
endfacet
facet normal -0.382683432365087 -0.923879532511288 -0.0
outer loop
vertex -2.42406747959388 -4.91203541416718 -3.0
vertex -1.75925899791144 -5.18740810366071 1.0
vertex -2.42406747959388 -4.91203541416718 1.0
endloop
endfacet
facet normal 0.0 0.0 1.0
outer loop
vertex -5.37205669652316 -1.07014106780267 1.0
vertex -4.0 8.08514479691888e-015 1.0
vertex -5.46598119275454 -0.356713689267551 1.0
endloop
endfacet
facet normal 0.0 0.0 1.0
outer loop
vertex -4.0 8.08514479691888e-015 1.0
vertex -5.37205669652316 -1.07014106780267 1.0
vertex -3.86370330515627 -1.03527618041008 1.0
endloop
endfacet
facet normal 0.0 0.0 1.0
outer loop
vertex -4.0 8.08514479691888e-015 1.0
vertex -3.86370330515627 -1.03527618041008 1.0
vertex -3.86370330515627 1.03527618041009 1.0
endloop
endfacet
facet normal 0.0 0.0 1.0
outer loop
vertex -3.86370330515627 1.03527618041009 1.0
vertex -3.86370330515627 -1.03527618041008 1.0
vertex -3.46410161513775 -2.0 1.0
endloop
endfacet
facet normal 0.0 0.0 1.0
outer loop
vertex -4.11726703585803 -3.61279769861171 1.0
vertex -3.46410161513775 -2.0 1.0
vertex -4.55532172489962 -3.04191371316065 1.0
endloop
endfacet
facet normal 0.0 0.0 1.0
outer loop
vertex -3.46410161513775 -2.0 1.0
vertex -4.11726703585803 -3.61279769861171 1.0
vertex -2.82842712474619 -2.82842712474619 1.0
endloop
endfacet
facet normal 0.0 0.0 1.0
outer loop
vertex -3.46410161513775 -2.0 1.0
vertex -2.82842712474619 -2.82842712474619 1.0
vertex -3.46410161513775 2.0 1.0
endloop
endfacet
facet normal 0.0 0.0 1.0
outer loop
vertex -3.46410161513775 2.0 1.0
vertex -2.82842712474619 -2.82842712474619 1.0
vertex -2.82842712474619 2.82842712474619 1.0
endloop
endfacet
facet normal 0.0 0.0 1.0
outer loop
vertex -2.82842712474619 2.82842712474619 1.0
vertex -2.82842712474619 -2.82842712474619 1.0
vertex -2.0 -3.46410161513775 1.0
endloop
endfacet
facet normal 0.0 0.0 1.0
outer loop
vertex 1.07014106780271 -5.37205669652316 1.0
vertex 1.03527618041008 -3.86370330515627 1.0
vertex 0.356713689267585 -5.46598119275454 1.0
endloop
endfacet
facet normal 0.0 0.0 1.0
outer loop
vertex -0.356713689267652 5.46598119275453 1.0
vertex -1.07014106780277 5.37205669652314 1.0
vertex -1.03527618041008 3.86370330515627 1.0
endloop
endfacet
facet normal 0.0 0.0 1.0
outer loop
vertex -2.82842712474619 2.82842712474619 1.0
vertex -3.04191371316073 4.55532172489956 1.0
vertex -3.61279769861179 4.11726703585796 1.0
endloop
endfacet
facet normal 0.0 0.0 1.0
outer loop
vertex -3.04191371316073 4.55532172489956 1.0
vertex -2.82842712474619 2.82842712474619 1.0
vertex -2.0 3.46410161513776 1.0
endloop
endfacet
facet normal 0.0 0.0 1.0
outer loop
vertex -2.0 3.46410161513776 1.0
vertex -2.82842712474619 2.82842712474619 1.0
vertex -2.0 -3.46410161513775 1.0
endloop
endfacet
facet normal 0.0 0.0 1.0
outer loop
vertex -3.86370330515627 1.03527618041009 1.0
vertex -4.91203541416723 2.42406747959379 1.0
vertex -5.18740810366075 1.75925899791134 1.0
endloop
endfacet
facet normal 0.0 0.0 1.0
outer loop
vertex -4.91203541416723 2.42406747959379 1.0
vertex -3.86370330515627 1.03527618041009 1.0
vertex -3.46410161513775 2.0 1.0
endloop
endfacet
facet normal 0.0 0.0 1.0
outer loop
vertex -3.46410161513775 2.0 1.0
vertex -3.86370330515627 1.03527618041009 1.0
vertex -3.46410161513775 -2.0 1.0
endloop
endfacet
facet normal 0.0 0.0 1.0
outer loop
vertex -1.75925899791144 -5.18740810366071 1.0
vertex -2.0 -3.46410161513775 1.0
vertex -2.42406747959388 -4.91203541416718 1.0
endloop
endfacet
facet normal 0.0 0.0 1.0
outer loop
vertex -2.0 -3.46410161513775 1.0
vertex -1.75925899791144 -5.18740810366071 1.0
vertex -2.0 3.46410161513776 1.0
endloop
endfacet
facet normal 0.0 0.0 1.0
outer loop
vertex -2.0 3.46410161513776 1.0
vertex -1.75925899791144 -5.18740810366071 1.0
vertex -1.03527618041008 3.86370330515627 1.0
endloop
endfacet
facet normal 0.0 0.0 1.0
outer loop
vertex -1.03527618041008 3.86370330515627 1.0
vertex -1.75925899791144 -5.18740810366071 1.0
vertex -1.03527618041008 -3.86370330515627 1.0
endloop
endfacet
facet normal 0.0 0.0 1.0
outer loop
vertex -1.03527618041008 3.86370330515627 1.0
vertex -1.03527618041008 -3.86370330515627 1.0
vertex -1.1331077795296e-015 -4.0 1.0
endloop
endfacet
facet normal 0.0 0.0 1.0
outer loop
vertex -1.03527618041008 3.86370330515627 1.0
vertex -1.1331077795296e-015 -4.0 1.0
vertex -0.356713689267652 5.46598119275453 1.0
endloop
endfacet
facet normal 0.0 0.0 1.0
outer loop
vertex -0.356713689267652 5.46598119275453 1.0
vertex -1.1331077795296e-015 -4.0 1.0
vertex 7.34788079488412e-016 4.0 1.0
endloop
endfacet
facet normal 0.0 0.0 1.0
outer loop
vertex 7.34788079488412e-016 4.0 1.0
vertex -1.1331077795296e-015 -4.0 1.0
vertex 0.356713689267585 -5.46598119275454 1.0
endloop
endfacet
facet normal 0.0 0.0 1.0
outer loop
vertex 7.34788079488412e-016 4.0 1.0
vertex 0.356713689267585 -5.46598119275454 1.0
vertex 1.03527618041008 3.86370330515627 1.0
endloop
endfacet
facet normal 0.0 0.0 1.0
outer loop
vertex 1.03527618041008 3.86370330515627 1.0
vertex 0.356713689267585 -5.46598119275454 1.0
vertex 1.03527618041008 -3.86370330515627 1.0
endloop
endfacet
facet normal 0.0 0.0 1.0
outer loop
vertex 1.03527618041008 3.86370330515627 1.0
vertex 1.03527618041008 -3.86370330515627 1.0
vertex 2.0 -3.46410161513775 1.0
endloop
endfacet
facet normal 0.0 0.0 1.0
outer loop
vertex 1.03527618041008 3.86370330515627 1.0
vertex 2.0 -3.46410161513775 1.0
vertex 1.75925899791138 5.18740810366073 1.0
endloop
endfacet
facet normal 0.0 0.0 1.0
outer loop
vertex 1.75925899791138 5.18740810366073 1.0
vertex 2.0 -3.46410161513775 1.0
vertex 2.0 3.46410161513776 1.0
endloop
endfacet
facet normal 0.0 0.0 1.0
outer loop
vertex 2.0 3.46410161513776 1.0
vertex 2.0 -3.46410161513775 1.0
vertex 2.82842712474619 2.82842712474619 1.0
endloop
endfacet
facet normal 0.0 0.0 1.0
outer loop
vertex 2.82842712474619 2.82842712474619 1.0
vertex 2.0 -3.46410161513775 1.0
vertex 2.82842712474619 -2.82842712474619 1.0
endloop
endfacet
facet normal 0.0 0.0 1.0
outer loop
vertex 2.82842712474619 -2.82842712474619 1.0
vertex 2.0 -3.46410161513775 1.0
vertex 3.04191371316068 -4.5553217248996 1.0
endloop
endfacet
facet normal 0.0 0.0 1.0
outer loop
vertex 2.82842712474619 -2.82842712474619 1.0
vertex 3.04191371316068 -4.5553217248996 1.0
vertex 3.61279769861174 -4.117267035858 1.0
endloop
endfacet
facet normal 0.0 0.0 1.0
outer loop
vertex 4.9120354141672 -2.42406747959385 1.0
vertex 3.86370330515627 -1.03527618041008 1.0
vertex 3.46410161513775 -2.0 1.0
endloop
endfacet
facet normal 0.0 0.0 1.0
outer loop
vertex 3.86370330515627 -1.03527618041008 1.0
vertex 4.9120354141672 -2.42406747959385 1.0
vertex 5.18740810366072 -1.75925899791141 1.0
endloop
endfacet
facet normal 0.0 0.0 1.0
outer loop
vertex 3.46410161513775 -2.0 1.0
vertex 3.46410161513775 2.0 1.0
vertex 2.82842712474619 -2.82842712474619 1.0
endloop
endfacet
facet normal 0.0 0.0 1.0
outer loop
vertex 3.46410161513775 2.0 1.0
vertex 3.46410161513775 -2.0 1.0
vertex 3.86370330515627 1.03527618041008 1.0
endloop
endfacet
facet normal 0.0 0.0 1.0
outer loop
vertex 3.86370330515627 1.03527618041008 1.0
vertex 3.46410161513775 -2.0 1.0
vertex 3.86370330515627 -1.03527618041008 1.0
endloop
endfacet
facet normal 0.0 0.0 1.0
outer loop
vertex 3.86370330515627 1.03527618041008 1.0
vertex 3.86370330515627 -1.03527618041008 1.0
vertex 4.0 1.28649811974131e-015 1.0
endloop
endfacet
facet normal 0.0 0.0 1.0
outer loop
vertex 3.86370330515627 1.03527618041008 1.0
vertex 4.0 1.28649811974131e-015 1.0
vertex 5.37205669652315 1.07014106780274 1.0
endloop
endfacet
facet normal 0.0 0.0 1.0
outer loop
vertex 5.37205669652315 1.07014106780274 1.0
vertex 4.0 1.28649811974131e-015 1.0
vertex 5.46598119275454 0.356713689267619 1.0
endloop
endfacet
facet normal 0.0 0.0 1.0
outer loop
vertex 2.82842712474619 2.82842712474619 1.0
vertex 3.46410161513775 2.0 1.0
vertex 4.11726703585798 3.61279769861176 1.0
endloop
endfacet
facet normal 0.0 0.0 1.0
outer loop
vertex 3.46410161513775 2.0 1.0
vertex 2.82842712474619 2.82842712474619 1.0
vertex 2.82842712474619 -2.82842712474619 1.0
endloop
endfacet
facet normal 0.0 0.0 1.0
outer loop
vertex 4.11726703585798 3.61279769861176 1.0
vertex 3.46410161513775 2.0 1.0
vertex 4.55532172489958 3.0419137131607 1.0
endloop
endfacet
facet normal 0.0 0.0 1.0
outer loop
vertex 2.42406747959382 4.91203541416721 1.0
vertex 1.75925899791138 5.18740810366073 1.0
vertex 2.0 3.46410161513776 1.0
endloop
endfacet
facet normal 0.0 0.0 -1.0
outer loop
vertex 1.5 2.5 -4.0
vertex -1.5 -2.5 -4.0
vertex -1.5 2.5 -4.0
endloop
endfacet
facet normal 0.0 0.0 -1.0
outer loop
vertex -1.5 -2.5 -4.0
vertex 1.5 2.5 -4.0
vertex 1.5 -2.5 -4.0
endloop
endfacet
facet normal 0.0 -1.0 -0.0
outer loop
vertex 1.5 2.5 -4.0
vertex -1.5 2.5 -10.0
vertex 1.5 2.5 -10.0
endloop
endfacet
facet normal 0.0 -1.0 -0.0
outer loop
vertex -1.5 2.5 -10.0
vertex 1.5 2.5 -4.0
vertex -1.5 2.5 -4.0
endloop
endfacet
facet normal -1.0 -0.0 -0.0
outer loop
vertex 1.5 2.5 -4.0
vertex 1.5 -2.5 -10.0
vertex 1.5 -2.5 -4.0
endloop
endfacet
facet normal -1.0 -0.0 -0.0
outer loop
vertex 1.5 -2.5 -10.0
vertex 1.5 2.5 -4.0
vertex 1.5 2.5 -10.0
endloop
endfacet
facet normal 0.0 1.0 0.0
outer loop
vertex -1.5 -2.5 -4.0
vertex 1.5 -2.5 -10.0
vertex -1.5 -2.5 -10.0
endloop
endfacet
facet normal 0.0 1.0 0.0
outer loop
vertex 1.5 -2.5 -10.0
vertex -1.5 -2.5 -4.0
vertex 1.5 -2.5 -4.0
endloop
endfacet
facet normal 1.0 3.52495810318487e-017 0.0
outer loop
vertex -1.5 2.5 -10.0
vertex -1.5 -2.5 -4.0
vertex -1.5 -2.5 -10.0
endloop
endfacet
facet normal 1.0 3.52495810318487e-017 0.0
outer loop
vertex -1.5 -2.5 -4.0
vertex -1.5 2.5 -10.0
vertex -1.5 2.5 -4.0
endloop
endfacet
endsolid motor-gear-v
