solid tonearm
facet normal -1.0 -0.0 -0.0
outer loop
vertex 5.21918260034699e-017 178.256580161445 1.0
vertex 0.0 118.256580161445 -1.0
vertex 5.21918260034699e-017 118.256580161445 1.0
endloop
endfacet
facet normal -1.0 -0.0 -0.0
outer loop
vertex 0.0 118.256580161445 -1.0
vertex 5.21918260034699e-017 178.256580161445 1.0
vertex 0.0 178.256580161445 -1.0
endloop
endfacet
facet normal -0.0 1.0 -0.0
outer loop
vertex 5.21918260034699e-017 178.256580161445 1.0
vertex 22.0 178.256580161445 -1.0
vertex 0.0 178.256580161445 -1.0
endloop
endfacet
facet normal -0.0 1.0 -0.0
outer loop
vertex 22.0 178.256580161445 -1.0
vertex 5.21918260034699e-017 178.256580161445 1.0
vertex 22.0 178.256580161445 1.0
endloop
endfacet
facet normal 1.0 -0.0 -0.0
outer loop
vertex 22.0 178.256580161445 -1.0
vertex 22.0 118.256580161445 1.0
vertex 22.0 118.256580161445 -1.0
endloop
endfacet
facet normal 1.0 -0.0 -0.0
outer loop
vertex 22.0 118.256580161445 1.0
vertex 22.0 178.256580161445 -1.0
vertex 22.0 178.256580161445 1.0
endloop
endfacet
facet normal -0.0 1.0 -0.0
outer loop
vertex 0.0 118.256580161445 10.0
vertex 2.0 118.256580161445 1.00000000000001
vertex 5.21918260034699e-017 118.256580161445 1.0
endloop
endfacet
facet normal -0.0 1.0 -0.0
outer loop
vertex 2.0 118.256580161445 1.00000000000001
vertex 0.0 118.256580161445 10.0
vertex 2.0 118.256580161445 10.0
endloop
endfacet
facet normal -5.21918260034699e-017 6.71064141805471e-017 1.0
outer loop
vertex -20.2365547294117 21.1169440305317 1.00000000000001
vertex 2.0 118.256580161445 1.00000000000001
vertex -35.7149482819416 27.2046405149814 1.0
endloop
endfacet
facet normal -5.21918260034699e-017 6.71064141805471e-017 1.0
outer loop
vertex 2.0 118.256580161445 1.00000000000001
vertex -20.2365547294117 21.1169440305317 1.00000000000001
vertex 20.0 118.256580161445 1.00000000000001
endloop
endfacet
facet normal -5.21918260034699e-017 6.71064141805471e-017 1.0
outer loop
vertex 2.0 118.256580161445 1.00000000000001
vertex 5.21918260034699e-017 178.256580161445 1.0
vertex 5.21918260034699e-017 118.256580161445 1.0
endloop
endfacet
facet normal -5.21918260034699e-017 6.71064141805471e-017 1.0
outer loop
vertex 5.21918260034699e-017 178.256580161445 1.0
vertex 2.0 118.256580161445 1.00000000000001
vertex 22.0 178.256580161445 1.0
endloop
endfacet
facet normal -5.21918260034699e-017 6.71064141805471e-017 1.0
outer loop
vertex 22.0 178.256580161445 1.0
vertex 2.0 118.256580161445 1.00000000000001
vertex 20.0 118.256580161445 1.00000000000001
endloop
endfacet
facet normal -5.21918260034699e-017 6.71064141805471e-017 1.0
outer loop
vertex 22.0 178.256580161445 1.0
vertex 20.0 118.256580161445 1.00000000000001
vertex 22.0 118.256580161445 1.0
endloop
endfacet
facet normal -0.923879532511287 0.382683432365089 -9.63110419412403e-017
outer loop
vertex 20.0 118.256580161445 10.0
vertex -20.2365547294117 21.1169440305317 5.80000000000001
vertex -20.2365547294117 21.1169440305317 10.0
endloop
endfacet
facet normal -0.923879532511287 0.382683432365089 -9.63110419412403e-017
outer loop
vertex -20.2365547294117 21.1169440305317 5.80000000000001
vertex 20.0 118.256580161445 10.0
vertex -20.2365547294117 21.1169440305317 1.00000000000001
endloop
endfacet
facet normal -0.923879532511287 0.382683432365089 -9.63110419412403e-017
outer loop
vertex -20.2365547294117 21.1169440305317 1.00000000000001
vertex 20.0 118.256580161445 10.0
vertex 20.0 118.256580161445 1.00000000000001
endloop
endfacet
facet normal -0.0 1.0 -0.0
outer loop
vertex 20.0 118.256580161445 1.00000000000001
vertex 22.0 118.256580161445 10.0
vertex 22.0 118.256580161445 1.0
endloop
endfacet
facet normal -0.0 1.0 -0.0
outer loop
vertex 22.0 118.256580161445 10.0
vertex 20.0 118.256580161445 1.00000000000001
vertex 20.0 118.256580161445 10.0
endloop
endfacet
facet normal 0.366011677817324 0.930610257681134 -8.12390670829368e-019
outer loop
vertex -35.7149482819416 27.2046405149814 5.8
vertex -20.2365547294117 21.1169440305317 1.00000000000001
vertex -35.7149482819416 27.2046405149814 1.0
endloop
endfacet
facet normal 0.366011677817324 0.930610257681134 -8.12390670829368e-019
outer loop
vertex -20.2365547294117 21.1169440305317 1.00000000000001
vertex -35.7149482819416 27.2046405149814 5.8
vertex -20.2365547294117 21.1169440305317 5.80000000000001
endloop
endfacet
facet normal -0.366011677817324 -0.930610257681134 2.6414317289106e-017
outer loop
vertex -21.0020453165814 19.2688862731177 1.00000000000001
vertex -36.4804388691113 25.3565827575674 5.8
vertex -36.4804388691113 25.3565827575674 1.0
endloop
endfacet
facet normal -0.366011677817324 -0.930610257681134 2.6414317289106e-017
outer loop
vertex -36.4804388691113 25.3565827575674 5.8
vertex -21.0020453165814 19.2688862731177 1.00000000000001
vertex -21.0020453165814 19.2688862731177 5.80000000000001
endloop
endfacet
facet normal 0.923879532511287 -0.382683432365089 -5.95696180332995e-017
outer loop
vertex 2.0 118.256580161445 1.00000000000001
vertex -35.7149482819416 27.2046405149814 5.8
vertex -35.7149482819416 27.2046405149814 1.0
endloop
endfacet
facet normal 0.923879532511287 -0.382683432365089 -5.95696180332995e-017
outer loop
vertex -35.7149482819416 27.2046405149814 5.8
vertex 2.0 118.256580161445 1.00000000000001
vertex -35.7149482819416 27.2046405149814 9.99999999999999
endloop
endfacet
facet normal 0.923879532511287 -0.382683432365089 -5.95696180332995e-017
outer loop
vertex -35.7149482819416 27.2046405149814 9.99999999999999
vertex 2.0 118.256580161445 1.00000000000001
vertex 2.0 118.256580161445 10.0
endloop
endfacet
facet normal -0.923879532511287 0.38268343236509 2.9387831254834e-016
outer loop
vertex -43.9284157479716 12.2040030891276 10.0
vertex -43.2034034372715 13.9543376425075 5.3321032300046
vertex -43.9284157479717 12.2040030891276 -1.0
endloop
endfacet
facet normal -0.923879532511287 0.38268343236509 2.9387831254834e-016
outer loop
vertex -43.2034034372715 13.9543376425075 5.3321032300046
vertex -43.9284157479716 12.2040030891276 10.0
vertex -43.0804932266706 14.2510691398941 6.1075
endloop
endfacet
facet normal -0.923879532511287 0.38268343236509 2.9387831254834e-016
outer loop
vertex -43.0804932266706 14.2510691398941 6.1075
vertex -43.9284157479716 12.2040030891276 10.0
vertex -42.8849713171312 14.7231007856453 6.77334830151475
endloop
endfacet
facet normal -0.923879532511287 0.38268343236509 2.9387831254834e-016
outer loop
vertex -42.8849713171312 14.7231007856453 6.77334830151475
vertex -43.9284157479716 12.2040030891276 10.0
vertex -42.6301622036731 15.3382644031721 7.28427167316697
endloop
endfacet
facet normal -0.923879532511287 0.38268343236509 2.9387831254834e-016
outer loop
vertex -42.6301622036731 15.3382644031721 7.28427167316697
vertex -43.9284157479716 12.2040030891276 10.0
vertex -42.3334307062865 16.0546376085462 7.60545153151935
endloop
endfacet
facet normal -0.923879532511287 0.38268343236509 2.9387831254834e-016
outer loop
vertex -42.3334307062865 16.0546376085462 7.60545153151935
vertex -43.9284157479716 12.2040030891276 10.0
vertex -42.0149985861462 16.823400751684 7.715
endloop
endfacet
facet normal -0.923879532511287 0.38268343236509 2.9387831254834e-016
outer loop
vertex -42.0149985861462 16.823400751684 7.715
vertex -43.9284157479716 12.2040030891276 10.0
vertex 0.0 118.256580161445 10.0
endloop
endfacet
facet normal -0.923879532511287 0.38268343236509 2.9387831254834e-016
outer loop
vertex -43.9284157479717 12.2040030891276 -1.0
vertex -43.2034034372715 13.9543376425075 5.3321032300046
vertex -43.2453258212 13.8531280546602 4.5
endloop
endfacet
facet normal -0.923879532511287 0.38268343236509 2.9387831254834e-016
outer loop
vertex -42.0149985861462 16.823400751684 7.715
vertex 0.0 118.256580161445 10.0
vertex -41.696566466006 17.5921638948218 7.60545153151935
endloop
endfacet
facet normal -0.923879532511287 0.38268343236509 2.9387831254834e-016
outer loop
vertex -41.696566466006 17.5921638948218 7.60545153151935
vertex 0.0 118.256580161445 10.0
vertex -41.3998349686193 18.3085371001959 7.28427167316697
endloop
endfacet
facet normal -0.923879532511287 0.38268343236509 2.9387831254834e-016
outer loop
vertex -41.3998349686193 18.3085371001959 7.28427167316697
vertex 0.0 118.256580161445 10.0
vertex -41.1450258551612 18.9237007177228 6.77334830151475
endloop
endfacet
facet normal -0.923879532511287 0.38268343236509 2.9387831254834e-016
outer loop
vertex -41.1450258551612 18.9237007177228 6.77334830151475
vertex 0.0 118.256580161445 10.0
vertex -40.9495039456218 19.3957323634739 6.1075
endloop
endfacet
facet normal -0.923879532511287 0.38268343236509 2.9387831254834e-016
outer loop
vertex -40.9495039456218 19.3957323634739 6.1075
vertex 0.0 118.256580161445 10.0
vertex -40.826593735021 19.6924638608606 5.3321032300046
endloop
endfacet
facet normal -0.923879532511287 0.38268343236509 2.9387831254834e-016
outer loop
vertex -40.826593735021 19.6924638608606 5.3321032300046
vertex 0.0 118.256580161445 10.0
vertex -40.7846713510925 19.7936734487078 4.5
endloop
endfacet
facet normal -0.923879532511287 0.38268343236509 2.9387831254834e-016
outer loop
vertex -43.9284157479717 12.2040030891276 -1.0
vertex -42.0149985861462 16.823400751684 1.285
vertex 0.0 118.256580161445 -1.0
endloop
endfacet
facet normal -0.923879532511287 0.38268343236509 2.9387831254834e-016
outer loop
vertex -42.0149985861462 16.823400751684 1.285
vertex -43.9284157479717 12.2040030891276 -1.0
vertex -42.3334307062865 16.0546376085462 1.39454846848064
endloop
endfacet
facet normal -0.923879532511287 0.38268343236509 2.9387831254834e-016
outer loop
vertex -42.3334307062865 16.0546376085462 1.39454846848064
vertex -43.9284157479717 12.2040030891276 -1.0
vertex -42.6301622036731 15.3382644031721 1.71572832683303
endloop
endfacet
facet normal -0.923879532511287 0.38268343236509 2.9387831254834e-016
outer loop
vertex -42.6301622036731 15.3382644031721 1.71572832683303
vertex -43.9284157479717 12.2040030891276 -1.0
vertex -42.8849713171312 14.7231007856453 2.22665169848525
endloop
endfacet
facet normal -0.923879532511287 0.38268343236509 2.9387831254834e-016
outer loop
vertex -42.8849713171312 14.7231007856453 2.22665169848525
vertex -43.9284157479717 12.2040030891276 -1.0
vertex -43.0804932266706 14.2510691398941 2.8925
endloop
endfacet
facet normal -0.923879532511287 0.38268343236509 2.9387831254834e-016
outer loop
vertex -43.0804932266706 14.2510691398941 2.8925
vertex -43.9284157479717 12.2040030891276 -1.0
vertex -43.2034034372715 13.9543376425075 3.66789676999539
endloop
endfacet
facet normal -0.923879532511287 0.38268343236509 2.9387831254834e-016
outer loop
vertex -43.2034034372715 13.9543376425075 3.66789676999539
vertex -43.9284157479717 12.2040030891276 -1.0
vertex -43.2453258212 13.8531280546602 4.5
endloop
endfacet
facet normal -0.923879532511287 0.38268343236509 2.9387831254834e-016
outer loop
vertex 0.0 118.256580161445 -1.0
vertex -42.0149985861462 16.823400751684 1.285
vertex -41.696566466006 17.5921638948218 1.39454846848065
endloop
endfacet
facet normal -0.923879532511287 0.38268343236509 2.9387831254834e-016
outer loop
vertex 0.0 118.256580161445 -1.0
vertex -41.696566466006 17.5921638948218 1.39454846848065
vertex -41.3998349686193 18.3085371001959 1.71572832683303
endloop
endfacet
facet normal -0.923879532511287 0.38268343236509 2.9387831254834e-016
outer loop
vertex 0.0 118.256580161445 -1.0
vertex -41.3998349686193 18.3085371001959 1.71572832683303
vertex -41.1450258551612 18.9237007177228 2.22665169848525
endloop
endfacet
facet normal -0.923879532511287 0.38268343236509 2.9387831254834e-016
outer loop
vertex 0.0 118.256580161445 -1.0
vertex -41.1450258551612 18.9237007177228 2.22665169848525
vertex -40.9495039456218 19.395732363474 2.8925
endloop
endfacet
facet normal -0.923879532511287 0.38268343236509 2.9387831254834e-016
outer loop
vertex 0.0 118.256580161445 -1.0
vertex -40.9495039456218 19.395732363474 2.8925
vertex -40.826593735021 19.6924638608606 3.6678967699954
endloop
endfacet
facet normal -0.923879532511287 0.38268343236509 2.9387831254834e-016
outer loop
vertex 0.0 118.256580161445 -1.0
vertex -40.826593735021 19.6924638608606 3.6678967699954
vertex -40.7846713510925 19.7936734487078 4.5
endloop
endfacet
facet normal -0.923879532511287 0.38268343236509 2.9387831254834e-016
outer loop
vertex 0.0 118.256580161445 -1.0
vertex -40.7846713510925 19.7936734487078 4.5
vertex 0.0 118.256580161445 10.0
endloop
endfacet
facet normal -0.923879532511287 0.38268343236509 2.9387831254834e-016
outer loop
vertex 0.0 118.256580161445 -1.0
vertex 0.0 118.256580161445 10.0
vertex 5.21918260034699e-017 118.256580161445 1.0
endloop
endfacet
facet normal -0.923879532511287 0.38268343236509 -1.19535187567177e-016
outer loop
vertex -23.0305136124553 14.371730602375 10.0
vertex -21.0020453165814 19.2688862731177 1.00000000000001
vertex -23.0305136124553 14.371730602375 1.00000000000001
endloop
endfacet
facet normal -0.923879532511287 0.38268343236509 -1.19535187567177e-016
outer loop
vertex -21.0020453165814 19.2688862731177 1.00000000000001
vertex -23.0305136124553 14.371730602375 10.0
vertex -21.0020453165814 19.2688862731177 10.0
endloop
endfacet
facet normal -0.923879532511287 0.38268343236509 -1.19535187567177e-016
outer loop
vertex -21.0020453165814 19.2688862731177 1.00000000000001
vertex -21.0020453165814 19.2688862731177 10.0
vertex -21.0020453165814 19.2688862731177 5.80000000000001
endloop
endfacet
facet normal 0.596006017298726 -0.802979966962882 -6.23590248288602e-016
outer loop
vertex -25.1502411549196 4.42582849607561 -1.0
vertex -32.4144946314252 -0.966010604912415 10.0
vertex -32.4144946314252 -0.966010604912397 -1.0
endloop
endfacet
facet normal 0.596006017298726 -0.802979966962882 -6.23590248288602e-016
outer loop
vertex -32.4144946314252 -0.966010604912415 10.0
vertex -25.1502411549196 4.42582849607561 -1.0
vertex -25.1502411549196 4.42582849607559 10.0
endloop
endfacet
facet normal -8.13895116551242e-007 5.36748374685667e-007 -0.999999999999525
outer loop
vertex 22.0 178.256580161445 -1.0
vertex 0.0 118.256580161445 -1.0
vertex 0.0 178.256580161445 -1.0
endloop
endfacet
facet normal -8.13895116551242e-007 5.36748374685667e-007 -0.999999999999525
outer loop
vertex 0.0 118.256580161445 -1.0
vertex -42.6726646674566 3.0900342161642 -0.99999999999999
vertex -43.9284157479717 12.2040030891276 -1.0
endloop
endfacet
facet normal -8.13895116551242e-007 5.36748374685667e-007 -0.999999999999525
outer loop
vertex -42.6726646674566 3.0900342161642 -0.99999999999999
vertex 0.0 118.256580161445 -1.0
vertex -33.4060003530033 -3.47736794063944 -1.0002541788768
endloop
endfacet
facet normal -8.13895116551242e-007 5.36748374685667e-007 -0.999999999999525
outer loop
vertex -33.4060003530033 -3.47736794063944 -1.0002541788768
vertex 0.0 118.256580161445 -1.0
vertex -32.4144946314252 -0.966010604912397 -1.0
endloop
endfacet
facet normal -8.13895116551242e-007 5.36748374685667e-007 -0.999999999999525
outer loop
vertex -32.4144946314252 -0.966010604912397 -1.0
vertex 0.0 118.256580161445 -1.0
vertex -25.1502411549196 4.42582849607561 -1.0
endloop
endfacet
facet normal -8.13895116551242e-007 5.36748374685667e-007 -0.999999999999525
outer loop
vertex -25.1502411549196 4.42582849607561 -1.0
vertex 0.0 118.256580161445 -1.0
vertex 22.0 118.256580161445 -1.0
endloop
endfacet
facet normal -8.13895116551242e-007 5.36748374685667e-007 -0.999999999999525
outer loop
vertex 22.0 118.256580161445 -1.0
vertex 0.0 118.256580161445 -1.0
vertex 22.0 178.256580161445 -1.0
endloop
endfacet
facet normal -8.13895116551242e-007 5.36748374685667e-007 -0.999999999999525
outer loop
vertex -33.4060003530033 -3.47736794063944 -1.0002541788768
vertex -43.6713655887116 0.581532222875103 -1.0000078044895
vertex -42.6726646674566 3.0900342161642 -0.99999999999999
endloop
endfacet
facet normal -4.90704891854781e-016 2.84924611222962e-016 1.0
outer loop
vertex -23.0305136124553 14.371730602375 1.00000000000001
vertex -36.4804388691113 25.3565827575674 1.0
vertex -38.3944746431342 20.7356916330539 1.0
endloop
endfacet
facet normal -4.90704891854781e-016 2.84924611222962e-016 1.0
outer loop
vertex -36.4804388691113 25.3565827575674 1.0
vertex -23.0305136124553 14.371730602375 1.00000000000001
vertex -21.0020453165814 19.2688862731177 1.00000000000001
endloop
endfacet
facet normal -4.69994413757983e-016 1.94678060418149e-016 1.0
outer loop
vertex -21.0020453165814 19.2688862731177 5.80000000000001
vertex -35.7149482819416 27.2046405149814 5.8
vertex -36.4804388691113 25.3565827575674 5.8
endloop
endfacet
facet normal -4.69994413757983e-016 1.94678060418149e-016 1.0
outer loop
vertex -35.7149482819416 27.2046405149814 5.8
vertex -21.0020453165814 19.2688862731177 5.80000000000001
vertex -20.2365547294117 21.1169440305317 5.80000000000001
endloop
endfacet
facet normal -0.923879532511287 0.382683432365089 -5.08718287632637e-016
outer loop
vertex -20.2365547294117 21.1169440305317 10.0
vertex -21.0020453165814 19.2688862731177 5.80000000000001
vertex -21.0020453165814 19.2688862731177 10.0
endloop
endfacet
facet normal -0.923879532511287 0.382683432365089 -5.08718287632637e-016
outer loop
vertex -21.0020453165814 19.2688862731177 5.80000000000001
vertex -20.2365547294117 21.1169440305317 10.0
vertex -20.2365547294117 21.1169440305317 5.80000000000001
endloop
endfacet
facet normal 0.923879532511287 -0.38268343236509 5.08718287632637e-016
outer loop
vertex -35.7149482819416 27.2046405149814 5.8
vertex -36.4804388691113 25.3565827575674 9.99999999999999
vertex -36.4804388691113 25.3565827575674 5.8
endloop
endfacet
facet normal 0.923879532511287 -0.38268343236509 5.08718287632637e-016
outer loop
vertex -36.4804388691113 25.3565827575674 9.99999999999999
vertex -35.7149482819416 27.2046405149814 5.8
vertex -35.7149482819416 27.2046405149814 9.99999999999999
endloop
endfacet
facet normal 0.923879532511287 -0.38268343236509 1.92064270040081e-016
outer loop
vertex -36.4804388691113 25.3565827575674 1.0
vertex -38.3944746431342 20.7356916330539 9.99999999999999
vertex -38.3944746431342 20.7356916330539 1.0
endloop
endfacet
facet normal 0.923879532511287 -0.38268343236509 1.92064270040081e-016
outer loop
vertex -38.3944746431342 20.7356916330539 9.99999999999999
vertex -36.4804388691113 25.3565827575674 1.0
vertex -36.4804388691113 25.3565827575674 9.99999999999999
endloop
endfacet
facet normal 0.923879532511287 -0.38268343236509 1.92064270040081e-016
outer loop
vertex -36.4804388691113 25.3565827575674 9.99999999999999
vertex -36.4804388691113 25.3565827575674 1.0
vertex -36.4804388691113 25.3565827575674 5.8
endloop
endfacet
facet normal 0.38268343236509 0.923879532511287 -7.1910322943535e-016
outer loop
vertex -38.3944746431342 20.7356916330539 9.99999999999999
vertex -23.0305136124553 14.371730602375 1.00000000000001
vertex -38.3944746431342 20.7356916330539 1.0
endloop
endfacet
facet normal 0.38268343236509 0.923879532511287 -7.1910322943535e-016
outer loop
vertex -23.0305136124553 14.371730602375 1.00000000000001
vertex -38.3944746431342 20.7356916330539 9.99999999999999
vertex -23.0305136124553 14.371730602375 10.0
endloop
endfacet
facet normal -6.16373438650996e-016 8.48404239977996e-017 1.0
outer loop
vertex -40.8151251045553 2.34871999651321 1.00000000000001
vertex -26.8573479361062 5.13293527726214 1.00000000000001
vertex -42.2213089667851 11.4968963079411 1.0
endloop
endfacet
facet normal -6.16373438650996e-016 8.48404239977996e-017 1.0
outer loop
vertex -26.8573479361062 5.13293527726214 1.00000000000001
vertex -40.8151251045553 2.34871999651321 1.00000000000001
vertex -34.2720341943265 -0.224696385261435 1.00000000000001
endloop
endfacet
facet normal -0.585675926885975 0.810545315615515 -7.47823827060768e-016
outer loop
vertex -34.2720341943265 -0.224696385261437 10.0
vertex -26.8573479361062 5.13293527726214 1.00000000000001
vertex -34.2720341943265 -0.224696385261435 1.00000000000001
endloop
endfacet
facet normal -0.585675926885975 0.810545315615515 -7.47823827060768e-016
outer loop
vertex -26.8573479361062 5.13293527726214 1.00000000000001
vertex -34.2720341943265 -0.224696385261437 10.0
vertex -26.8573479361062 5.13293527726215 10.0
endloop
endfacet
facet normal -0.38268343236509 -0.923879532511287 8.99319281946916e-016
outer loop
vertex -26.8573479361062 5.13293527726214 1.00000000000001
vertex -42.2213089667851 11.4968963079411 10.0
vertex -42.2213089667851 11.4968963079411 1.0
endloop
endfacet
facet normal -0.38268343236509 -0.923879532511287 8.99319281946916e-016
outer loop
vertex -42.2213089667851 11.4968963079411 10.0
vertex -26.8573479361062 5.13293527726214 1.00000000000001
vertex -26.8573479361062 5.13293527726215 10.0
endloop
endfacet
facet normal 0.988391626943094 0.151927587319696 3.90876070496074e-016
outer loop
vertex -42.2213089667851 11.4968963079411 1.0
vertex -40.8151251045553 2.34871999651322 10.0
vertex -40.8151251045553 2.34871999651321 1.00000000000001
endloop
endfacet
facet normal 0.988391626943094 0.151927587319696 3.90876070496074e-016
outer loop
vertex -40.8151251045553 2.34871999651322 10.0
vertex -42.2213089667851 11.4968963079411 1.0
vertex -42.2213089667851 11.4968963079411 10.0
endloop
endfacet
facet normal -0.099045760541288 -0.239117618394335 -0.965925826289068
outer loop
vertex -41.696566466006 17.5921638948218 7.60545153151935
vertex -23.2368239930942 9.04522615863203 7.715
vertex -42.0149985861462 16.823400751684 7.715
endloop
endfacet
facet normal -1.11388873695586e-016 2.04955527599879e-016 -1.0
outer loop
vertex -23.2368239930942 9.04522615863203 7.715
vertex -41.696566466006 17.5921638948218 7.60545153151935
vertex -22.918391872954 9.81398930176981 7.60545153151935
endloop
endfacet
facet normal -1.1584442864341e-016 1.96044417704232e-016 -1.0
outer loop
vertex -42.0149985861462 16.823400751684 7.715
vertex -23.5552561132344 8.27646301549425 7.60545153151935
vertex -42.3334307062865 16.0546376085462 7.60545153151935
endloop
endfacet
facet normal 0.0990457605412874 0.239117618394335 -0.965925826289068
outer loop
vertex -23.5552561132344 8.27646301549425 7.60545153151935
vertex -42.0149985861462 16.823400751684 7.715
vertex -23.2368239930942 9.04522615863203 7.715
endloop
endfacet
facet normal 0.0990457605412874 0.239117618394335 -0.965925826289068
outer loop
vertex -42.3334307062865 16.0546376085462 7.60545153151935
vertex -23.8519876106211 7.56008981012014 7.28427167316697
vertex -42.6301622036731 15.3382644031721 7.28427167316697
endloop
endfacet
facet normal 0.191341716182545 0.461939766255644 -0.866025403784438
outer loop
vertex -23.8519876106211 7.56008981012014 7.28427167316697
vertex -42.3334307062865 16.0546376085462 7.60545153151935
vertex -23.5552561132344 8.27646301549425 7.60545153151935
endloop
endfacet
facet normal 0.191341716182545 0.461939766255644 -0.866025403784438
outer loop
vertex -42.6301622036731 15.3382644031721 7.28427167316697
vertex -24.1067967240792 6.94492619259325 6.77334830151475
vertex -42.8849713171312 14.7231007856453 6.77334830151475
endloop
endfacet
facet normal 0.270598050073099 0.653281482438189 -0.707106781186547
outer loop
vertex -24.1067967240792 6.94492619259325 6.77334830151475
vertex -42.6301622036731 15.3382644031721 7.28427167316697
vertex -23.8519876106211 7.56008981012014 7.28427167316697
endloop
endfacet
facet normal 0.270598050073098 0.653281482438189 -0.707106781186547
outer loop
vertex -42.8849713171312 14.7231007856453 6.77334830151475
vertex -24.3023186336186 6.47289454684211 6.1075
vertex -43.0804932266706 14.2510691398941 6.1075
endloop
endfacet
facet normal 0.331413574035591 0.800103145191265 -0.5
outer loop
vertex -24.3023186336186 6.47289454684211 6.1075
vertex -42.8849713171312 14.7231007856453 6.77334830151475
vertex -24.1067967240792 6.94492619259325 6.77334830151475
endloop
endfacet
facet normal 0.331413574035591 0.800103145191266 -0.5
outer loop
vertex -43.0804932266706 14.2510691398941 6.1075
vertex -24.4252288442194 6.17616304945547 5.3321032300046
vertex -43.2034034372715 13.9543376425075 5.3321032300046
endloop
endfacet
facet normal 0.369643810614386 0.892399100832523 -0.258819045102522
outer loop
vertex -24.4252288442194 6.17616304945547 5.3321032300046
vertex -43.0804932266706 14.2510691398941 6.1075
vertex -24.3023186336186 6.47289454684211 6.1075
endloop
endfacet
facet normal 0.369643810614386 0.892399100832523 -0.258819045102521
outer loop
vertex -43.2034034372715 13.9543376425075 5.3321032300046
vertex -24.4671512281479 6.07495346160824 4.5
vertex -43.2453258212 13.8531280546602 4.5
endloop
endfacet
facet normal 0.38268343236509 0.923879532511287 -6.23777692695283e-017
outer loop
vertex -24.4671512281479 6.07495346160824 4.5
vertex -43.2034034372715 13.9543376425075 5.3321032300046
vertex -24.4252288442194 6.17616304945547 5.3321032300046
endloop
endfacet
facet normal 0.38268343236509 0.923879532511287 -7.12888791651752e-017
outer loop
vertex -43.2453258212 13.8531280546602 4.5
vertex -24.4252288442194 6.17616304945547 3.66789676999539
vertex -43.2034034372715 13.9543376425075 3.66789676999539
endloop
endfacet
facet normal 0.369643810614386 0.892399100832523 0.258819045102522
outer loop
vertex -24.4252288442194 6.17616304945547 3.66789676999539
vertex -43.2453258212 13.8531280546602 4.5
vertex -24.4671512281479 6.07495346160824 4.5
endloop
endfacet
facet normal 0.369643810614386 0.892399100832523 0.258819045102522
outer loop
vertex -43.2034034372715 13.9543376425075 3.66789676999539
vertex -24.3023186336186 6.47289454684211 2.8925
vertex -43.0804932266706 14.2510691398941 2.8925
endloop
endfacet
facet normal 0.331413574035592 0.800103145191265 0.5
outer loop
vertex -24.3023186336186 6.47289454684211 2.8925
vertex -43.2034034372715 13.9543376425075 3.66789676999539
vertex -24.4252288442194 6.17616304945547 3.66789676999539
endloop
endfacet
facet normal 0.331413574035592 0.800103145191265 0.500000000000001
outer loop
vertex -43.0804932266706 14.2510691398941 2.8925
vertex -24.1067967240792 6.94492619259325 2.22665169848525
vertex -42.8849713171312 14.7231007856453 2.22665169848525
endloop
endfacet
facet normal 0.270598050073099 0.653281482438189 0.707106781186547
outer loop
vertex -24.1067967240792 6.94492619259325 2.22665169848525
vertex -43.0804932266706 14.2510691398941 2.8925
vertex -24.3023186336186 6.47289454684211 2.8925
endloop
endfacet
facet normal 0.270598050073099 0.653281482438189 0.707106781186547
outer loop
vertex -24.1067967240792 6.94492619259325 2.22665169848525
vertex -42.6301622036731 15.3382644031721 1.71572832683303
vertex -42.8849713171312 14.7231007856453 2.22665169848525
endloop
endfacet
facet normal 0.191341716182545 0.461939766255644 0.866025403784439
outer loop
vertex -42.6301622036731 15.3382644031721 1.71572832683303
vertex -24.1067967240792 6.94492619259325 2.22665169848525
vertex -23.8519876106211 7.56008981012014 1.71572832683303
endloop
endfacet
facet normal 0.191341716182545 0.461939766255643 0.866025403784439
outer loop
vertex -23.8519876106211 7.56008981012014 1.71572832683303
vertex -42.3334307062865 16.0546376085462 1.39454846848064
vertex -42.6301622036731 15.3382644031721 1.71572832683303
endloop
endfacet
facet normal 0.0990457605412877 0.239117618394334 0.965925826289068
outer loop
vertex -42.3334307062865 16.0546376085462 1.39454846848064
vertex -23.8519876106211 7.56008981012014 1.71572832683303
vertex -23.5552561132344 8.27646301549425 1.39454846848064
endloop
endfacet
facet normal 0.0990457605412876 0.239117618394334 0.965925826289068
outer loop
vertex -23.5552561132344 8.27646301549425 1.39454846848064
vertex -42.0149985861462 16.823400751684 1.285
vertex -42.3334307062865 16.0546376085462 1.39454846848064
endloop
endfacet
facet normal -1.96044417704232e-016 -9.26755429147276e-016 1.0
outer loop
vertex -42.0149985861462 16.823400751684 1.285
vertex -23.5552561132344 8.27646301549425 1.39454846848064
vertex -23.2368239930942 9.04522615863204 1.285
endloop
endfacet
facet normal -2.94066626556348e-016 -1.16735539632974e-015 1.0
outer loop
vertex -23.2368239930942 9.04522615863204 1.285
vertex -41.696566466006 17.5921638948218 1.39454846848065
vertex -42.0149985861462 16.823400751684 1.285
endloop
endfacet
facet normal -0.0990457605412882 -0.239117618394337 0.965925826289068
outer loop
vertex -41.696566466006 17.5921638948218 1.39454846848065
vertex -23.2368239930942 9.04522615863204 1.285
vertex -22.9183918729539 9.81398930176982 1.39454846848065
endloop
endfacet
facet normal -0.0990457605412882 -0.239117618394337 0.965925826289068
outer loop
vertex -22.9183918729539 9.81398930176982 1.39454846848065
vertex -41.3998349686193 18.3085371001959 1.71572832683303
vertex -41.696566466006 17.5921638948218 1.39454846848065
endloop
endfacet
facet normal -0.191341716182545 -0.461939766255644 0.866025403784438
outer loop
vertex -41.3998349686193 18.3085371001959 1.71572832683303
vertex -22.9183918729539 9.81398930176982 1.39454846848065
vertex -22.6216603755673 10.5303625071439 1.71572832683303
endloop
endfacet
facet normal -0.191341716182545 -0.461939766255644 0.866025403784438
outer loop
vertex -22.6216603755673 10.5303625071439 1.71572832683303
vertex -41.1450258551612 18.9237007177228 2.22665169848525
vertex -41.3998349686193 18.3085371001959 1.71572832683303
endloop
endfacet
facet normal -0.270598050073098 -0.653281482438189 0.707106781186547
outer loop
vertex -41.1450258551612 18.9237007177228 2.22665169848525
vertex -22.6216603755673 10.5303625071439 1.71572832683303
vertex -22.3668512621092 11.1455261246708 2.22665169848525
endloop
endfacet
facet normal -0.331413574035592 -0.800103145191266 0.499999999999999
outer loop
vertex -22.1713293525698 11.617557770422 2.8925
vertex -41.1450258551612 18.9237007177228 2.22665169848525
vertex -22.3668512621092 11.1455261246708 2.22665169848525
endloop
endfacet
facet normal -0.270598050073098 -0.653281482438189 0.707106781186547
outer loop
vertex -41.1450258551612 18.9237007177228 2.22665169848525
vertex -22.1713293525698 11.617557770422 2.8925
vertex -40.9495039456218 19.395732363474 2.8925
endloop
endfacet
facet normal -0.369643810614386 -0.892399100832523 0.25881904510252
outer loop
vertex -22.0484191419689 11.9142892678086 3.6678967699954
vertex -40.9495039456218 19.395732363474 2.8925
vertex -22.1713293525698 11.617557770422 2.8925
endloop
endfacet
facet normal -0.331413574035592 -0.800103145191267 0.499999999999999
outer loop
vertex -40.9495039456218 19.395732363474 2.8925
vertex -22.0484191419689 11.9142892678086 3.6678967699954
vertex -40.826593735021 19.6924638608606 3.6678967699954
endloop
endfacet
facet normal -0.38268343236509 -0.923879532511287 0.0
outer loop
vertex -22.0064967580404 12.0154988556558 4.5
vertex -40.826593735021 19.6924638608606 3.6678967699954
vertex -22.0484191419689 11.9142892678086 3.6678967699954
endloop
endfacet
facet normal -0.369643810614386 -0.892399100832523 0.25881904510252
outer loop
vertex -40.826593735021 19.6924638608606 3.6678967699954
vertex -22.0064967580404 12.0154988556558 4.5
vertex -40.7846713510925 19.7936734487078 4.5
endloop
endfacet
facet normal -0.369643810614386 -0.892399100832523 -0.258819045102522
outer loop
vertex -22.0484191419689 11.9142892678086 5.3321032300046
vertex -40.7846713510925 19.7936734487078 4.5
vertex -22.0064967580404 12.0154988556558 4.5
endloop
endfacet
facet normal -0.38268343236509 -0.923879532511287 0.0
outer loop
vertex -40.7846713510925 19.7936734487078 4.5
vertex -22.0484191419689 11.9142892678086 5.3321032300046
vertex -40.826593735021 19.6924638608606 5.3321032300046
endloop
endfacet
facet normal -0.331413574035592 -0.800103145191266 -0.5
outer loop
vertex -22.1713293525698 11.617557770422 6.1075
vertex -40.826593735021 19.6924638608606 5.3321032300046
vertex -22.0484191419689 11.9142892678086 5.3321032300046
endloop
endfacet
facet normal -0.369643810614386 -0.892399100832523 -0.258819045102522
outer loop
vertex -40.826593735021 19.6924638608606 5.3321032300046
vertex -22.1713293525698 11.617557770422 6.1075
vertex -40.9495039456218 19.3957323634739 6.1075
endloop
endfacet
facet normal -0.270598050073099 -0.653281482438189 -0.707106781186547
outer loop
vertex -22.3668512621092 11.1455261246708 6.77334830151475
vertex -40.9495039456218 19.3957323634739 6.1075
vertex -22.1713293525698 11.617557770422 6.1075
endloop
endfacet
facet normal -0.331413574035592 -0.800103145191266 -0.499999999999999
outer loop
vertex -40.9495039456218 19.3957323634739 6.1075
vertex -22.3668512621092 11.1455261246708 6.77334830151475
vertex -41.1450258551612 18.9237007177228 6.77334830151475
endloop
endfacet
facet normal -0.270598050073099 -0.653281482438189 -0.707106781186547
outer loop
vertex -41.1450258551612 18.9237007177228 6.77334830151475
vertex -22.6216603755673 10.5303625071439 7.28427167316697
vertex -41.3998349686193 18.3085371001959 7.28427167316697
endloop
endfacet
facet normal -0.191341716182545 -0.461939766255644 -0.866025403784438
outer loop
vertex -22.6216603755673 10.5303625071439 7.28427167316697
vertex -41.1450258551612 18.9237007177228 6.77334830151475
vertex -22.3668512621092 11.1455261246708 6.77334830151475
endloop
endfacet
facet normal -0.191341716182545 -0.461939766255644 -0.866025403784439
outer loop
vertex -41.3998349686193 18.3085371001959 7.28427167316697
vertex -22.918391872954 9.81398930176981 7.60545153151935
vertex -41.696566466006 17.5921638948218 7.60545153151935
endloop
endfacet
facet normal -0.099045760541288 -0.239117618394335 -0.965925826289068
outer loop
vertex -22.918391872954 9.81398930176981 7.60545153151935
vertex -41.3998349686193 18.3085371001959 7.28427167316697
vertex -22.6216603755673 10.5303625071439 7.28427167316697
endloop
endfacet
facet normal -0.990640952325516 -0.136493602691095 6.69406963388563e-016
outer loop
vertex -43.9284157479716 12.2040030891276 10.0
vertex -42.6726646674566 3.0900342161642 -0.99999999999999
vertex -42.6726646674565 3.09003421616419 10.0
endloop
endfacet
facet normal -0.990640952325516 -0.136493602691095 6.69406963388563e-016
outer loop
vertex -42.6726646674566 3.0900342161642 -0.99999999999999
vertex -43.9284157479716 12.2040030891276 10.0
vertex -43.9284157479717 12.2040030891276 -1.0
endloop
endfacet
facet normal 0.923879532511287 -0.382683432365089 3.40117923835525e-016
outer loop
vertex -25.1502411549196 4.42582849607561 -1.0
vertex -24.4252288442194 6.17616304945547 3.66789676999539
vertex -24.4671512281479 6.07495346160824 4.5
endloop
endfacet
facet normal 0.923879532511287 -0.382683432365089 3.40117923835525e-016
outer loop
vertex -24.4252288442194 6.17616304945547 3.66789676999539
vertex -25.1502411549196 4.42582849607561 -1.0
vertex -24.3023186336186 6.47289454684211 2.8925
endloop
endfacet
facet normal 0.923879532511287 -0.382683432365089 3.40117923835525e-016
outer loop
vertex -24.3023186336186 6.47289454684211 2.8925
vertex -25.1502411549196 4.42582849607561 -1.0
vertex -24.1067967240792 6.94492619259325 2.22665169848525
endloop
endfacet
facet normal 0.923879532511287 -0.382683432365089 3.40117923835525e-016
outer loop
vertex -24.1067967240792 6.94492619259325 2.22665169848525
vertex -25.1502411549196 4.42582849607561 -1.0
vertex -23.8519876106211 7.56008981012014 1.71572832683303
endloop
endfacet
facet normal 0.923879532511287 -0.382683432365089 3.40117923835525e-016
outer loop
vertex -23.8519876106211 7.56008981012014 1.71572832683303
vertex -25.1502411549196 4.42582849607561 -1.0
vertex -23.5552561132344 8.27646301549425 1.39454846848064
endloop
endfacet
facet normal 0.923879532511287 -0.382683432365089 3.40117923835525e-016
outer loop
vertex -23.5552561132344 8.27646301549425 1.39454846848064
vertex -25.1502411549196 4.42582849607561 -1.0
vertex -23.2368239930942 9.04522615863204 1.285
endloop
endfacet
facet normal 0.923879532511287 -0.382683432365089 3.40117923835525e-016
outer loop
vertex -23.2368239930942 9.04522615863204 1.285
vertex -25.1502411549196 4.42582849607561 -1.0
vertex 22.0 118.256580161445 -1.0
endloop
endfacet
facet normal 0.923879532511287 -0.382683432365089 3.40117923835525e-016
outer loop
vertex -23.2368239930942 9.04522615863204 1.285
vertex 22.0 118.256580161445 -1.0
vertex -22.9183918729539 9.81398930176982 1.39454846848065
endloop
endfacet
facet normal 0.923879532511287 -0.382683432365089 3.40117923835525e-016
outer loop
vertex -22.9183918729539 9.81398930176982 1.39454846848065
vertex 22.0 118.256580161445 -1.0
vertex -22.6216603755673 10.5303625071439 1.71572832683303
endloop
endfacet
facet normal 0.923879532511287 -0.382683432365089 3.40117923835525e-016
outer loop
vertex -22.6216603755673 10.5303625071439 1.71572832683303
vertex 22.0 118.256580161445 -1.0
vertex -22.3668512621092 11.1455261246708 2.22665169848525
endloop
endfacet
facet normal 0.923879532511287 -0.382683432365089 3.40117923835525e-016
outer loop
vertex -22.3668512621092 11.1455261246708 2.22665169848525
vertex 22.0 118.256580161445 -1.0
vertex -22.1713293525698 11.617557770422 2.8925
endloop
endfacet
facet normal 0.923879532511287 -0.382683432365089 3.40117923835525e-016
outer loop
vertex -22.1713293525698 11.617557770422 2.8925
vertex 22.0 118.256580161445 -1.0
vertex -22.0484191419689 11.9142892678086 3.6678967699954
endloop
endfacet
facet normal 0.923879532511287 -0.382683432365089 3.40117923835525e-016
outer loop
vertex -22.0484191419689 11.9142892678086 3.6678967699954
vertex 22.0 118.256580161445 -1.0
vertex -22.0064967580404 12.0154988556558 4.5
endloop
endfacet
facet normal 0.923879532511287 -0.382683432365089 3.40117923835525e-016
outer loop
vertex -25.1502411549196 4.42582849607559 10.0
vertex -23.2368239930942 9.04522615863203 7.715
vertex 22.0 118.256580161445 10.0
endloop
endfacet
facet normal 0.923879532511287 -0.382683432365089 3.40117923835525e-016
outer loop
vertex -23.2368239930942 9.04522615863203 7.715
vertex -25.1502411549196 4.42582849607559 10.0
vertex -23.5552561132344 8.27646301549425 7.60545153151935
endloop
endfacet
facet normal 0.923879532511287 -0.382683432365089 3.40117923835525e-016
outer loop
vertex -23.5552561132344 8.27646301549425 7.60545153151935
vertex -25.1502411549196 4.42582849607559 10.0
vertex -23.8519876106211 7.56008981012014 7.28427167316697
endloop
endfacet
facet normal 0.923879532511287 -0.382683432365089 3.40117923835525e-016
outer loop
vertex -23.8519876106211 7.56008981012014 7.28427167316697
vertex -25.1502411549196 4.42582849607559 10.0
vertex -24.1067967240792 6.94492619259325 6.77334830151475
endloop
endfacet
facet normal 0.923879532511287 -0.382683432365089 3.40117923835525e-016
outer loop
vertex -24.1067967240792 6.94492619259325 6.77334830151475
vertex -25.1502411549196 4.42582849607559 10.0
vertex -24.3023186336186 6.47289454684211 6.1075
endloop
endfacet
facet normal 0.923879532511287 -0.382683432365089 3.40117923835525e-016
outer loop
vertex -24.3023186336186 6.47289454684211 6.1075
vertex -25.1502411549196 4.42582849607559 10.0
vertex -24.4252288442194 6.17616304945547 5.3321032300046
endloop
endfacet
facet normal 0.923879532511287 -0.382683432365089 3.40117923835525e-016
outer loop
vertex -24.4252288442194 6.17616304945547 5.3321032300046
vertex -25.1502411549196 4.42582849607559 10.0
vertex -25.1502411549196 4.42582849607561 -1.0
endloop
endfacet
facet normal 0.923879532511287 -0.382683432365089 3.40117923835525e-016
outer loop
vertex -24.4252288442194 6.17616304945547 5.3321032300046
vertex -25.1502411549196 4.42582849607561 -1.0
vertex -24.4671512281479 6.07495346160824 4.5
endloop
endfacet
facet normal 0.923879532511287 -0.382683432365089 3.40117923835525e-016
outer loop
vertex 22.0 118.256580161445 10.0
vertex -23.2368239930942 9.04522615863203 7.715
vertex -22.918391872954 9.81398930176981 7.60545153151935
endloop
endfacet
facet normal 0.923879532511287 -0.382683432365089 3.40117923835525e-016
outer loop
vertex 22.0 118.256580161445 10.0
vertex -22.918391872954 9.81398930176981 7.60545153151935
vertex -22.6216603755673 10.5303625071439 7.28427167316697
endloop
endfacet
facet normal 0.923879532511287 -0.382683432365089 3.40117923835525e-016
outer loop
vertex 22.0 118.256580161445 10.0
vertex -22.6216603755673 10.5303625071439 7.28427167316697
vertex -22.3668512621092 11.1455261246708 6.77334830151475
endloop
endfacet
facet normal 0.923879532511287 -0.382683432365089 3.40117923835525e-016
outer loop
vertex 22.0 118.256580161445 10.0
vertex -22.3668512621092 11.1455261246708 6.77334830151475
vertex -22.1713293525698 11.617557770422 6.1075
endloop
endfacet
facet normal 0.923879532511287 -0.382683432365089 3.40117923835525e-016
outer loop
vertex 22.0 118.256580161445 10.0
vertex -22.1713293525698 11.617557770422 6.1075
vertex -22.0484191419689 11.9142892678086 5.3321032300046
endloop
endfacet
facet normal 0.923879532511287 -0.382683432365089 3.40117923835525e-016
outer loop
vertex 22.0 118.256580161445 10.0
vertex -22.0484191419689 11.9142892678086 5.3321032300046
vertex -22.0064967580404 12.0154988556558 4.5
endloop
endfacet
facet normal 0.923879532511287 -0.382683432365089 3.40117923835525e-016
outer loop
vertex 22.0 118.256580161445 10.0
vertex -22.0064967580404 12.0154988556558 4.5
vertex 22.0 118.256580161445 -1.0
endloop
endfacet
facet normal 0.923879532511287 -0.382683432365089 3.40117923835525e-016
outer loop
vertex 22.0 118.256580161445 10.0
vertex 22.0 118.256580161445 -1.0
vertex 22.0 118.256580161445 1.0
endloop
endfacet
facet normal 0.930197459727496 -0.36705951277213 3.42216521278677e-016
outer loop
vertex -33.4060003530033 -3.47736794063944 -1.0002541788768
vertex -32.4144946314252 -0.966010604912415 10.0
vertex -33.4060003530033 -3.47736794063946 9.99974582112321
endloop
endfacet
facet normal 0.930197459727496 -0.36705951277213 3.42216521278677e-016
outer loop
vertex -32.4144946314252 -0.966010604912415 10.0
vertex -33.4060003530033 -3.47736794063944 -1.0002541788768
vertex -32.4144946314252 -0.966010604912397 -1.0
endloop
endfacet
facet normal 9.36619260591654e-007 -7.10187256346105e-007 0.999999999999309
outer loop
vertex -39.0966505459656 -1.22729885176549 9.99987629923123
vertex -42.6726646674565 3.09003421616419 10.0
vertex -43.6713655887115 0.581532222875098 9.9999921955105
endloop
endfacet
facet normal 9.36619260591654e-007 -7.10187256346105e-007 0.999999999999309
outer loop
vertex -42.6726646674565 3.09003421616419 10.0
vertex -39.0966505459656 -1.22729885176549 9.99987629923123
vertex -40.8151251045553 2.34871999651322 10.0
endloop
endfacet
facet normal 9.36619260591654e-007 -7.10187256346105e-007 0.999999999999309
outer loop
vertex -42.6726646674565 3.09003421616419 10.0
vertex -40.8151251045553 2.34871999651322 10.0
vertex -42.2213089667851 11.4968963079411 10.0
endloop
endfacet
facet normal 9.36619260591654e-007 -7.10187256346105e-007 0.999999999999309
outer loop
vertex -40.8151251045553 2.34871999651322 10.0
vertex -39.0966505459656 -1.22729885176549 9.99987629923123
vertex -38.101948420758 1.28161984143805 10.0000005616539
endloop
endfacet
facet normal 9.36619260591654e-007 -7.10187256346105e-007 0.999999999999309
outer loop
vertex -33.4060003530033 -3.47736794063946 9.99974582112321
vertex -36.9852108781281 0.842403769802293 9.9999996372887
vertex -37.9807153957524 -1.66853686603734 9.99986298031725
endloop
endfacet
facet normal 9.36619260591654e-007 -7.10187256346105e-007 0.999999999999309
outer loop
vertex -36.9852108781281 0.842403769802293 9.9999996372887
vertex -33.4060003530033 -3.47736794063946 9.99974582112321
vertex -34.2720341943265 -0.224696385261437 10.0
endloop
endfacet
facet normal 9.36619260591654e-007 -7.10187256346105e-007 0.999999999999309
outer loop
vertex -34.2720341943265 -0.224696385261437 10.0
vertex -33.4060003530033 -3.47736794063946 9.99974582112321
vertex -32.4144946314252 -0.966010604912415 10.0
endloop
endfacet
facet normal 9.36619260591654e-007 -7.10187256346105e-007 0.999999999999309
outer loop
vertex -34.2720341943265 -0.224696385261437 10.0
vertex -32.4144946314252 -0.966010604912415 10.0
vertex -26.8573479361062 5.13293527726215 10.0
endloop
endfacet
facet normal 9.36619260591654e-007 -7.10187256346105e-007 0.999999999999309
outer loop
vertex -26.8573479361062 5.13293527726215 10.0
vertex -32.4144946314252 -0.966010604912415 10.0
vertex -25.1502411549196 4.42582849607559 10.0
endloop
endfacet
facet normal 9.36619260591654e-007 -7.10187256346105e-007 0.999999999999309
outer loop
vertex -26.8573479361062 5.13293527726215 10.0
vertex -38.3944746431342 20.7356916330539 9.99999999999999
vertex -42.2213089667851 11.4968963079411 10.0
endloop
endfacet
facet normal 9.36619260591654e-007 -7.10187256346105e-007 0.999999999999309
outer loop
vertex -38.3944746431342 20.7356916330539 9.99999999999999
vertex -26.8573479361062 5.13293527726215 10.0
vertex -23.0305136124553 14.371730602375 10.0
endloop
endfacet
facet normal 9.36619260591654e-007 -7.10187256346105e-007 0.999999999999309
outer loop
vertex -23.0305136124553 14.371730602375 10.0
vertex -26.8573479361062 5.13293527726215 10.0
vertex -25.1502411549196 4.42582849607559 10.0
endloop
endfacet
facet normal 9.36619260591654e-007 -7.10187256346105e-007 0.999999999999309
outer loop
vertex -23.0305136124553 14.371730602375 10.0
vertex -25.1502411549196 4.42582849607559 10.0
vertex 22.0 118.256580161445 10.0
endloop
endfacet
facet normal 9.36619260591654e-007 -7.10187256346105e-007 0.999999999999309
outer loop
vertex -23.0305136124553 14.371730602375 10.0
vertex 22.0 118.256580161445 10.0
vertex -21.0020453165814 19.2688862731177 10.0
endloop
endfacet
facet normal 9.36619260591654e-007 -7.10187256346105e-007 0.999999999999309
outer loop
vertex -21.0020453165814 19.2688862731177 10.0
vertex 22.0 118.256580161445 10.0
vertex -20.2365547294117 21.1169440305317 10.0
endloop
endfacet
facet normal 9.36619260591654e-007 -7.10187256346105e-007 0.999999999999309
outer loop
vertex -20.2365547294117 21.1169440305317 10.0
vertex 22.0 118.256580161445 10.0
vertex 20.0 118.256580161445 10.0
endloop
endfacet
facet normal 9.36619260591654e-007 -7.10187256346105e-007 0.999999999999309
outer loop
vertex -43.9284157479716 12.2040030891276 10.0
vertex -42.2213089667851 11.4968963079411 10.0
vertex 0.0 118.256580161445 10.0
endloop
endfacet
facet normal 9.36619260591654e-007 -7.10187256346105e-007 0.999999999999309
outer loop
vertex -42.2213089667851 11.4968963079411 10.0
vertex -43.9284157479716 12.2040030891276 10.0
vertex -42.6726646674565 3.09003421616419 10.0
endloop
endfacet
facet normal 9.36619260591654e-007 -7.10187256346105e-007 0.999999999999309
outer loop
vertex 0.0 118.256580161445 10.0
vertex -42.2213089667851 11.4968963079411 10.0
vertex -38.3944746431342 20.7356916330539 9.99999999999999
endloop
endfacet
facet normal 9.36619260591654e-007 -7.10187256346105e-007 0.999999999999309
outer loop
vertex 0.0 118.256580161445 10.0
vertex -38.3944746431342 20.7356916330539 9.99999999999999
vertex -36.4804388691113 25.3565827575674 9.99999999999999
endloop
endfacet
facet normal 9.36619260591654e-007 -7.10187256346105e-007 0.999999999999309
outer loop
vertex 0.0 118.256580161445 10.0
vertex -36.4804388691113 25.3565827575674 9.99999999999999
vertex -35.7149482819416 27.2046405149814 9.99999999999999
endloop
endfacet
facet normal 9.36619260591654e-007 -7.10187256346105e-007 0.999999999999309
outer loop
vertex 0.0 118.256580161445 10.0
vertex -35.7149482819416 27.2046405149814 9.99999999999999
vertex 2.0 118.256580161445 10.0
endloop
endfacet
facet normal -0.355865098124876 0.140708184521001 0.923883779890835
outer loop
vertex -37.6345279462779 0.0230088753709138 3.98028197560196
vertex -37.4018019803794 1.00514642755888 3.92031978362576
vertex -37.7690997175553 0.0762182227151409 3.92034328151496
endloop
endfacet
facet normal -0.355865098124876 0.140708184521001 0.923883779890835
outer loop
vertex -37.4018019803794 1.00514642755888 3.92031978362576
vertex -37.6345279462779 0.0230088753709138 3.98028197560196
vertex -37.267230209102 0.951937080214649 3.98025847771276
endloop
endfacet
facet normal 1.03215424326966e-005 -4.08111248975675e-006 0.999999999938405
outer loop
vertex -37.7690997175553 0.0762182227151409 3.92034328151496
vertex -37.690627250429 1.1193472288858 3.92032323081436
vertex -38.0579249876049 0.190419024042062 3.92034672870356
endloop
endfacet
facet normal 1.03215424326966e-005 -4.08111248975675e-006 0.999999999938405
outer loop
vertex -37.690627250429 1.1193472288858 3.92032323081436
vertex -37.7690997175553 0.0762182227151409 3.92034328151496
vertex -37.4018019803794 1.00514642755888 3.92031978362576
endloop
endfacet
facet normal 0.355884169848483 -0.140715725433604 0.923875285017924
outer loop
vertex -38.0579249876049 0.190419024042062 3.92034672870356
vertex -37.8251977843536 1.17255608698381 3.98026513716975
vertex -38.1924955215296 0.243627882140073 3.98028863505895
endloop
endfacet
facet normal 0.355884169848483 -0.140715725433604 0.923875285017924
outer loop
vertex -37.8251977843536 1.17255608698381 3.98026513716975
vertex -38.0579249876049 0.190419024042062 3.92034672870356
vertex -37.690627250429 1.1193472288858 3.92032323081436
endloop
endfacet
facet normal 0.56612297806532 -0.223843633104025 0.793346583546715
outer loop
vertex -38.1924955215296 0.243627882140073 3.98028863505895
vertex -37.9407556686985 1.21824739020517 4.07561776426545
vertex -38.3080534058744 0.289319185361438 4.07564126215465
endloop
endfacet
facet normal 0.56612297806532 -0.223843633104025 0.793346583546715
outer loop
vertex -37.9407556686985 1.21824739020517 4.07561776426545
vertex -38.1924955215296 0.243627882140073 3.98028863505895
vertex -37.8251977843536 1.17255608698381 3.98026513716975
endloop
endfacet
facet normal 0.737781440889464 -0.291716967097501 0.60875262347402
outer loop
vertex -37.9407556686985 1.21824739020517 4.07561776426545
vertex -38.3967235617899 0.324379146900069 4.19990648603175
vertex -38.3080534058744 0.289319185361438 4.07564126215465
endloop
endfacet
facet normal 0.737781440889464 -0.291716967097501 0.60875262347402
outer loop
vertex -38.3967235617899 0.324379146900069 4.19990648603175
vertex -37.9407556686985 1.21824739020517 4.07561776426545
vertex -38.0294258246139 1.2533073517438 4.19988298814255
endloop
endfacet
facet normal 0.859161317758491 -0.339710271868373 0.382673178122807
outer loop
vertex -38.0294258246139 1.2533073517438 4.19988298814255
vertex -38.4524632646845 0.346418488316435 4.34461583704104
vertex -38.3967235617899 0.324379146900069 4.19990648603175
endloop
endfacet
facet normal 0.859161317758491 -0.339710271868373 0.382673178122807
outer loop
vertex -38.4524632646845 0.346418488316435 4.34461583704104
vertex -38.0294258246139 1.2533073517438 4.19988298814255
vertex -38.0851655275086 1.27534669316017 4.34459233915183
endloop
endfacet
facet normal 0.922697988645951 -0.365502511779247 0.122622737009817
outer loop
vertex -38.0851655275086 1.27534669316017 4.34459233915183
vertex -38.4714739457754 0.353935265281507 4.49990761205472
vertex -38.4524632646845 0.346418488316435 4.34461583704104
endloop
endfacet
facet normal 0.922697988645951 -0.365502511779247 0.122622737009817
outer loop
vertex -38.4714739457754 0.353935265281507 4.49990761205472
vertex -38.0851655275086 1.27534669316017 4.34459233915183
vertex -38.1018550152005 1.28194567566152 4.50000057209871
endloop
endfacet
facet normal -0.9219880761902 0.364551817625028 0.130537196344119
outer loop
vertex -36.9882410583862 0.841625455853398 4.49987079525154
vertex -37.3745526823497 -0.0797847045007121 4.34460297195805
vertex -37.3555387955622 -0.0873027489903373 4.49989429314074
endloop
endfacet
facet normal -0.9219880761902 0.364551817625028 0.130537196344119
outer loop
vertex -37.3745526823497 -0.0797847045007121 4.34460297195805
vertex -36.9882410583862 0.841625455853398 4.49987079525154
vertex -37.0072549451737 0.849143500343023 4.34457947406885
endloop
endfacet
facet normal -0.85915341799192 0.339707148320103 0.382693686560184
outer loop
vertex -37.0072549451737 0.849143500343023 4.34457947406885
vertex -37.430295372478 -0.0577441819394965 4.1998949515139
vertex -37.3745526823497 -0.0797847045007121 4.34460297195805
endloop
endfacet
facet normal -0.85915341799192 0.339707148320103 0.382693686560184
outer loop
vertex -37.430295372478 -0.0577441819394965 4.1998949515139
vertex -37.0072549451737 0.849143500343023 4.34457947406885
vertex -37.0629976353021 0.871184022904239 4.1998714536247
endloop
endfacet
facet normal -0.737768874175625 0.29171199824976 0.608770234468443
outer loop
vertex -37.0629976353021 0.871184022904239 4.1998714536247
vertex -37.5189680935892 -0.0226832061287886 4.07563184426026
vertex -37.430295372478 -0.0577441819394965 4.1998949515139
endloop
endfacet
facet normal -0.737768874175625 0.29171199824976 0.608770234468443
outer loop
vertex -37.5189680935892 -0.0226832061287886 4.07563184426026
vertex -37.0629976353021 0.871184022904239 4.1998714536247
vertex -37.1516703564132 0.906244998714947 4.07560834637105
endloop
endfacet
facet normal -0.566106600804986 0.223837157575572 0.793360096938025
outer loop
vertex -37.5189680935892 -0.0226832061287886 4.07563184426026
vertex -37.267230209102 0.951937080214649 3.98025847771276
vertex -37.6345279462779 0.0230088753709138 3.98028197560196
endloop
endfacet
facet normal -0.566106600804986 0.223837157575572 0.793360096938025
outer loop
vertex -37.267230209102 0.951937080214649 3.98025847771276
vertex -37.5189680935892 -0.0226832061287886 4.07563184426026
vertex -37.1516703564132 0.906244998714947 4.07560834637105
endloop
endfacet
facet normal -0.367696493028649 -0.929945852435658 -2.34978892012259e-005
outer loop
vertex -35.5886690904268 -0.785918685608223 1.99987320503589
vertex -37.6345279462779 0.0230088753709138 3.98028197560196
vertex -40.2383987049107 1.05256289226832 1.99987320503589
endloop
endfacet
facet normal -0.367696493028649 -0.929945852435658 -2.34978892012259e-005
outer loop
vertex -37.6345279462779 0.0230088753709138 3.98028197560196
vertex -35.5886690904268 -0.785918685608223 1.99987320503589
vertex -37.5189680935892 -0.0226832061287886 4.07563184426026
endloop
endfacet
facet normal -0.367696493028649 -0.929945852435658 -2.34978892012259e-005
outer loop
vertex -37.5189680935892 -0.0226832061287886 4.07563184426026
vertex -35.5886690904268 -0.785918685608223 1.99987320503589
vertex -37.430295372478 -0.0577441819394965 4.1998949515139
endloop
endfacet
facet normal -0.367696493028649 -0.929945852435658 -2.34978892012259e-005
outer loop
vertex -37.430295372478 -0.0577441819394965 4.1998949515139
vertex -35.5886690904268 -0.785918685608223 1.99987320503589
vertex -35.5887001954401 -0.785997353734808 6.99987320432027
endloop
endfacet
facet normal -0.367696493028649 -0.929945852435658 -2.34978892012259e-005
outer loop
vertex -40.2383987049107 1.05256289226832 1.99987320503589
vertex -37.6345279462779 0.0230088753709138 3.98028197560196
vertex -37.7690997175553 0.0762182227151409 3.92034328151496
endloop
endfacet
facet normal -0.367696493028649 -0.929945852435658 -2.34978892012259e-005
outer loop
vertex -37.430295372478 -0.0577441819394965 4.1998949515139
vertex -35.5887001954401 -0.785997353734808 6.99987320432027
vertex -37.3745526823497 -0.0797847045007121 4.34460297195805
endloop
endfacet
facet normal -0.367696493028649 -0.929945852435658 -2.34978892012259e-005
outer loop
vertex -37.3745526823497 -0.0797847045007121 4.34460297195805
vertex -35.5887001954401 -0.785997353734808 6.99987320432027
vertex -37.3555387955622 -0.0873027489903373 4.49989429314074
endloop
endfacet
facet normal -0.367696493028649 -0.929945852435658 -2.34978892012259e-005
outer loop
vertex -37.3555387955622 -0.0873027489903373 4.49989429314074
vertex -35.5887001954401 -0.785997353734808 6.99987320432027
vertex -37.3555692680475 -0.0874205447262216 6.99987320232113
endloop
endfacet
facet normal -0.367696493028649 -0.929945852435658 -2.34978892012259e-005
outer loop
vertex -40.2383987049107 1.05256289226832 1.99987320503589
vertex -38.3967235617899 0.324379146900069 4.19990648603175
vertex -40.238429809924 1.05248422414173 6.99987320432027
endloop
endfacet
facet normal -0.367696493028649 -0.929945852435658 -2.34978892012259e-005
outer loop
vertex -38.3967235617899 0.324379146900069 4.19990648603175
vertex -40.2383987049107 1.05256289226832 1.99987320503589
vertex -38.3080534058744 0.289319185361438 4.07564126215465
endloop
endfacet
facet normal -0.367696493028649 -0.929945852435658 -2.34978892012259e-005
outer loop
vertex -38.3080534058744 0.289319185361438 4.07564126215465
vertex -40.2383987049107 1.05256289226832 1.99987320503589
vertex -38.1924955215296 0.243627882140073 3.98028863505895
endloop
endfacet
facet normal -0.367696493028649 -0.929945852435658 -2.34978892012259e-005
outer loop
vertex -38.1924955215296 0.243627882140073 3.98028863505895
vertex -40.2383987049107 1.05256289226832 1.99987320503589
vertex -38.0579249876049 0.190419024042062 3.92034672870356
endloop
endfacet
facet normal -0.367696493028649 -0.929945852435658 -2.34978892012259e-005
outer loop
vertex -38.0579249876049 0.190419024042062 3.92034672870356
vertex -40.2383987049107 1.05256289226832 1.99987320503589
vertex -37.7690997175553 0.0762182227151409 3.92034328151496
endloop
endfacet
facet normal -0.367696493028649 -0.929945852435658 -2.34978892012259e-005
outer loop
vertex -40.238429809924 1.05248422414173 6.99987320432027
vertex -38.3967235617899 0.324379146900069 4.19990648603175
vertex -38.4524632646845 0.346418488316435 4.34461583704104
endloop
endfacet
facet normal -0.367696493028649 -0.929945852435658 -2.34978892012259e-005
outer loop
vertex -40.238429809924 1.05248422414173 6.99987320432027
vertex -38.4524632646845 0.346418488316435 4.34461583704104
vertex -38.4714739457754 0.353935265281507 4.49990761205472
endloop
endfacet
facet normal -0.367696493028649 -0.929945852435658 -2.34978892012259e-005
outer loop
vertex -40.238429809924 1.05248422414173 6.99987320432027
vertex -38.4714739457754 0.353935265281507 4.49990761205472
vertex -38.4715048317042 0.353816424116795 6.99987320239014
endloop
endfacet
facet normal -8.64008728308773e-006 -2.18517662593607e-005 0.999999999723925
outer loop
vertex -36.2137522850595 -2.36682696843175 1.99984190265718
vertex -40.2383987049107 1.05256289226832 1.99987320503589
vertex -40.8634818995434 -0.528345390555212 1.99984190265718
endloop
endfacet
facet normal -8.64008728308773e-006 -2.18517662593607e-005 0.999999999723925
outer loop
vertex -40.2383987049107 1.05256289226832 1.99987320503589
vertex -36.2137522850595 -2.36682696843175 1.99984190265718
vertex -35.5886690904268 -0.785918685608223 1.99987320503589
endloop
endfacet
facet normal 0.929945852692393 -0.367696493130161 -3.23018694358101e-012
outer loop
vertex -40.8634818995434 -0.528345390555212 1.99984190265718
vertex -40.238429809924 1.05248422414173 6.99987320432027
vertex -40.8635130045567 -0.528424058681799 6.99984190194156
endloop
endfacet
facet normal 0.929945852692393 -0.367696493130161 -3.23018694358101e-012
outer loop
vertex -40.238429809924 1.05248422414173 6.99987320432027
vertex -40.8634818995434 -0.528345390555212 1.99984190265718
vertex -40.2383987049107 1.05256289226832 1.99987320503589
endloop
endfacet
facet normal 8.63950451019142e-006 2.18519966851964e-005 -0.999999999723925
outer loop
vertex -40.238429809924 1.05248422414173 6.99987320432027
vertex -39.0965880263369 -1.22709185870673 6.99984190001143
vertex -40.8635130045567 -0.528424058681799 6.99984190194156
endloop
endfacet
facet normal 8.63950451019142e-006 2.18519966851964e-005 -0.999999999723925
outer loop
vertex -39.0965880263369 -1.22709185870673 6.99984190001143
vertex -40.238429809924 1.05248422414173 6.99987320432027
vertex -38.4715048317042 0.353816424116795 6.99987320239014
endloop
endfacet
facet normal 8.64069091841624e-006 2.18515275846112e-005 -0.999999999723925
outer loop
vertex -37.3555692680475 -0.0874205447262216 6.99987320232113
vertex -36.2137833900728 -2.36690563655834 6.99984190194156
vertex -37.9806524626801 -1.66832882754975 6.99984189994242
endloop
endfacet
facet normal 8.64069091841624e-006 2.18515275846112e-005 -0.999999999723925
outer loop
vertex -36.2137833900728 -2.36690563655834 6.99984190194156
vertex -37.3555692680475 -0.0874205447262216 6.99987320232113
vertex -35.5887001954401 -0.785997353734808 6.99987320432027
endloop
endfacet
facet normal -0.929945852692393 0.367696493130161 3.23009135512517e-012
outer loop
vertex -35.5887001954401 -0.785997353734808 6.99987320432027
vertex -36.2137522850595 -2.36682696843175 1.99984190265718
vertex -36.2137833900728 -2.36690563655834 6.99984190194156
endloop
endfacet
facet normal -0.929945852692393 0.367696493130161 3.23009135512517e-012
outer loop
vertex -36.2137522850595 -2.36682696843175 1.99984190265718
vertex -35.5887001954401 -0.785997353734808 6.99987320432027
vertex -35.5886690904268 -0.785918685608223 1.99987320503589
endloop
endfacet
facet normal -0.929646111909928 0.368453542154708 0.000306405618660982
outer loop
vertex -36.9852108781281 0.842403769802293 9.9999996372887
vertex -37.9806524626801 -1.66832882754975 6.99984189994242
vertex -37.9807153957524 -1.66853686603734 9.99986298031725
endloop
endfacet
facet normal -0.929646111909928 0.368453542154708 0.000306405618660982
outer loop
vertex -37.9806524626801 -1.66832882754975 6.99984189994242
vertex -36.9852108781281 0.842403769802293 9.9999996372887
vertex -37.3555692680475 -0.0874205447262216 6.99987320232113
endloop
endfacet
facet normal -0.929646111909928 0.368453542154708 0.000306405618660982
outer loop
vertex -37.3555692680475 -0.0874205447262216 6.99987320232113
vertex -36.9852108781281 0.842403769802293 9.9999996372887
vertex -37.3555387955622 -0.0873027489903373 4.49989429314074
endloop
endfacet
facet normal -0.929646111909928 0.368453542154708 0.000306405618660982
outer loop
vertex -37.3555387955622 -0.0873027489903373 4.49989429314074
vertex -36.9852108781281 0.842403769802293 9.9999996372887
vertex -36.9882410583862 0.841625455853398 4.49987079525154
endloop
endfacet
facet normal 0.366078456337113 0.930583989889111 -3.95967141075656e-005
outer loop
vertex -40.8151251045553 2.34871999651321 1.00000000000001
vertex -37.9407556686985 1.21824739020517 4.07561776426545
vertex -34.2720341943265 -0.224696385261435 1.00000000000001
endloop
endfacet
facet normal 0.366078456337113 0.930583989889111 -3.95967141075656e-005
outer loop
vertex -37.9407556686985 1.21824739020517 4.07561776426545
vertex -40.8151251045553 2.34871999651321 1.00000000000001
vertex -38.0294258246139 1.2533073517438 4.19988298814255
endloop
endfacet
facet normal 0.366078456337113 0.930583989889111 -3.95967141075656e-005
outer loop
vertex -38.0294258246139 1.2533073517438 4.19988298814255
vertex -40.8151251045553 2.34871999651321 1.00000000000001
vertex -40.8151251045553 2.34871999651322 10.0
endloop
endfacet
facet normal 0.366078456337113 0.930583989889111 -3.95967141075656e-005
outer loop
vertex -34.2720341943265 -0.224696385261435 1.00000000000001
vertex -37.9407556686985 1.21824739020517 4.07561776426545
vertex -37.8251977843536 1.17255608698381 3.98026513716975
endloop
endfacet
facet normal 0.366078456337113 0.930583989889111 -3.95967141075656e-005
outer loop
vertex -34.2720341943265 -0.224696385261435 1.00000000000001
vertex -37.8251977843536 1.17255608698381 3.98026513716975
vertex -37.690627250429 1.1193472288858 3.92032323081436
endloop
endfacet
facet normal 0.366078456337113 0.930583989889111 -3.95967141075656e-005
outer loop
vertex -34.2720341943265 -0.224696385261435 1.00000000000001
vertex -37.690627250429 1.1193472288858 3.92032323081436
vertex -37.4018019803794 1.00514642755888 3.92031978362576
endloop
endfacet
facet normal 0.366078456337113 0.930583989889111 -3.95967141075656e-005
outer loop
vertex -38.0294258246139 1.2533073517438 4.19988298814255
vertex -40.8151251045553 2.34871999651322 10.0
vertex -38.0851655275086 1.27534669316017 4.34459233915183
endloop
endfacet
facet normal 0.366078456337113 0.930583989889111 -3.95967141075656e-005
outer loop
vertex -38.0851655275086 1.27534669316017 4.34459233915183
vertex -40.8151251045553 2.34871999651322 10.0
vertex -38.1018550152005 1.28194567566152 4.50000057209871
endloop
endfacet
facet normal 0.366078456337113 0.930583989889111 -3.95967141075656e-005
outer loop
vertex -38.1018550152005 1.28194567566152 4.50000057209871
vertex -40.8151251045553 2.34871999651322 10.0
vertex -38.101948420758 1.28161984143805 10.0000005616539
endloop
endfacet
facet normal 0.366078456337113 0.930583989889111 -3.95967141075656e-005
outer loop
vertex -34.2720341943265 -0.224696385261435 1.00000000000001
vertex -37.0629976353021 0.871184022904239 4.1998714536247
vertex -34.2720341943265 -0.224696385261437 10.0
endloop
endfacet
facet normal 0.366078456337113 0.930583989889111 -3.95967141075656e-005
outer loop
vertex -37.0629976353021 0.871184022904239 4.1998714536247
vertex -34.2720341943265 -0.224696385261435 1.00000000000001
vertex -37.1516703564132 0.906244998714947 4.07560834637105
endloop
endfacet
facet normal 0.366078456337113 0.930583989889111 -3.95967141075656e-005
outer loop
vertex -37.1516703564132 0.906244998714947 4.07560834637105
vertex -34.2720341943265 -0.224696385261435 1.00000000000001
vertex -37.267230209102 0.951937080214649 3.98025847771276
endloop
endfacet
facet normal 0.366078456337113 0.930583989889111 -3.95967141075656e-005
outer loop
vertex -37.267230209102 0.951937080214649 3.98025847771276
vertex -34.2720341943265 -0.224696385261435 1.00000000000001
vertex -37.4018019803794 1.00514642755888 3.92031978362576
endloop
endfacet
facet normal 0.366078456337113 0.930583989889111 -3.95967141075656e-005
outer loop
vertex -34.2720341943265 -0.224696385261437 10.0
vertex -37.0629976353021 0.871184022904239 4.1998714536247
vertex -37.0072549451737 0.849143500343023 4.34457947406885
endloop
endfacet
facet normal 0.366078456337113 0.930583989889111 -3.95967141075656e-005
outer loop
vertex -34.2720341943265 -0.224696385261437 10.0
vertex -37.0072549451737 0.849143500343023 4.34457947406885
vertex -36.9882410583862 0.841625455853398 4.49987079525154
endloop
endfacet
facet normal 0.366078456337113 0.930583989889111 -3.95967141075656e-005
outer loop
vertex -34.2720341943265 -0.224696385261437 10.0
vertex -36.9882410583862 0.841625455853398 4.49987079525154
vertex -36.9852108781281 0.842403769802293 9.9999996372887
endloop
endfacet
facet normal -0.367695288005763 -0.929946329125533 -1.11492707288215e-005
outer loop
vertex -39.0966505459656 -1.22729885176549 9.99987629923123
vertex -40.8635130045567 -0.528424058681799 6.99984190194156
vertex -39.0965880263369 -1.22709185870673 6.99984190001143
endloop
endfacet
facet normal -0.367695288005763 -0.929946329125533 -1.11492707288215e-005
outer loop
vertex -43.6713655887116 0.581532222875103 -1.0000078044895
vertex -40.8634818995434 -0.528345390555212 1.99984190265718
vertex -43.6713655887115 0.581532222875098 9.9999921955105
endloop
endfacet
facet normal -0.367695288005763 -0.929946329125533 -1.11492707288215e-005
outer loop
vertex -40.8634818995434 -0.528345390555212 1.99984190265718
vertex -43.6713655887116 0.581532222875103 -1.0000078044895
vertex -36.2137522850595 -2.36682696843175 1.99984190265718
endloop
endfacet
facet normal -0.367695288005763 -0.929946329125533 -1.11492707288215e-005
outer loop
vertex -43.6713655887115 0.581532222875098 9.9999921955105
vertex -40.8634818995434 -0.528345390555212 1.99984190265718
vertex -40.8635130045567 -0.528424058681799 6.99984190194156
endloop
endfacet
facet normal -0.367695288005763 -0.929946329125533 -1.11492707288215e-005
outer loop
vertex -43.6713655887115 0.581532222875098 9.9999921955105
vertex -40.8635130045567 -0.528424058681799 6.99984190194156
vertex -39.0966505459656 -1.22729885176549 9.99987629923123
endloop
endfacet
facet normal -0.367695288005763 -0.929946329125533 -1.11492707288215e-005
outer loop
vertex -33.4060003530033 -3.47736794063944 -1.0002541788768
vertex -36.2137522850595 -2.36682696843175 1.99984190265718
vertex -43.6713655887116 0.581532222875103 -1.0000078044895
endloop
endfacet
facet normal -0.367695288005763 -0.929946329125533 -1.11492707288215e-005
outer loop
vertex -36.2137522850595 -2.36682696843175 1.99984190265718
vertex -33.4060003530033 -3.47736794063944 -1.0002541788768
vertex -33.4060003530033 -3.47736794063946 9.99974582112321
endloop
endfacet
facet normal -0.367695288005763 -0.929946329125533 -1.11492707288215e-005
outer loop
vertex -36.2137522850595 -2.36682696843175 1.99984190265718
vertex -33.4060003530033 -3.47736794063946 9.99974582112321
vertex -36.2137833900728 -2.36690563655834 6.99984190194156
endloop
endfacet
facet normal -0.367695288005763 -0.929946329125533 -1.11492707288215e-005
outer loop
vertex -36.2137833900728 -2.36690563655834 6.99984190194156
vertex -37.9807153957524 -1.66853686603734 9.99986298031725
vertex -37.9806524626801 -1.66832882754975 6.99984189994242
endloop
endfacet
facet normal -0.367695288005763 -0.929946329125533 -1.11492707288215e-005
outer loop
vertex -37.9807153957524 -1.66853686603734 9.99986298031725
vertex -36.2137833900728 -2.36690563655834 6.99984190194156
vertex -33.4060003530033 -3.47736794063946 9.99974582112321
endloop
endfacet
facet normal -0.929075718436578 0.369889590839694 1.14005231127753e-015
outer loop
vertex -42.6726646674565 3.09003421616419 10.0
vertex -43.6713655887116 0.581532222875103 -1.0000078044895
vertex -43.6713655887115 0.581532222875098 9.9999921955105
endloop
endfacet
facet normal -0.929075718436578 0.369889590839694 1.14005231127753e-015
outer loop
vertex -43.6713655887116 0.581532222875103 -1.0000078044895
vertex -42.6726646674565 3.09003421616419 10.0
vertex -42.6726646674566 3.0900342161642 -0.99999999999999
endloop
endfacet
facet normal 0.929618443004469 -0.368523442239709 -0.000151478521449983
outer loop
vertex -39.0965880263369 -1.22709185870673 6.99984190001143
vertex -38.101948420758 1.28161984143805 10.0000005616539
vertex -39.0966505459656 -1.22729885176549 9.99987629923123
endloop
endfacet
facet normal 0.929618443004469 -0.368523442239709 -0.000151478521449983
outer loop
vertex -38.101948420758 1.28161984143805 10.0000005616539
vertex -39.0965880263369 -1.22709185870673 6.99984190001143
vertex -38.4715048317042 0.353816424116795 6.99987320239014
endloop
endfacet
facet normal 0.929618443004469 -0.368523442239709 -0.000151478521449983
outer loop
vertex -38.101948420758 1.28161984143805 10.0000005616539
vertex -38.4715048317042 0.353816424116795 6.99987320239014
vertex -38.4714739457754 0.353935265281507 4.49990761205472
endloop
endfacet
facet normal 0.929618443004469 -0.368523442239709 -0.000151478521449983
outer loop
vertex -38.101948420758 1.28161984143805 10.0000005616539
vertex -38.4714739457754 0.353935265281507 4.49990761205472
vertex -38.1018550152005 1.28194567566152 4.50000057209871
endloop
endfacet
endsolid tonearm
