solid vertical-gear-rev-2
facet normal -0.499999999999999 -0.866025403784439 3.0140568528628e-032
outer loop
vertex 6.05 17.6650635094611 17.0
vertex 5.4470476127563 17.9148145657227 12.5
vertex 6.05 17.6650635094611 12.5
endloop
endfacet
facet normal -0.258819045102521 -0.965925826289068 4.31780168889154e-019
outer loop
vertex 5.4470476127563 17.9148145657227 12.5
vertex 6.05 17.6650635094611 17.0
vertex 5.4470476127563 17.9148145657227 17.0
endloop
endfacet
facet normal -0.866025403784439 -0.499999999999999 -7.57886138532297e-032
outer loop
vertex 6.9650635094611 16.75 17.0
vertex 7.21481456572267 16.1470476127563 12.5
vertex 7.21481456572267 16.1470476127563 17.0
endloop
endfacet
facet normal -0.965925826289068 -0.25881904510252 -7.57886138532297e-032
outer loop
vertex 7.21481456572267 16.1470476127563 12.5
vertex 6.9650635094611 16.75 17.0
vertex 6.9650635094611 16.75 12.5
endloop
endfacet
facet normal 0.707106781186547 -0.707106781186548 0.0
outer loop
vertex 3.73933982822018 16.5606601717798 11.5
vertex 3.50096189432334 16.25 12.5
vertex 3.50096189432334 16.25 11.5
endloop
endfacet
facet normal 0.866025403784438 -0.500000000000001 0.0
outer loop
vertex 3.50096189432334 16.25 12.5
vertex 3.73933982822018 16.5606601717798 11.5
vertex 3.73933982822018 16.5606601717798 12.5
endloop
endfacet
facet normal -0.258819045102519 0.965925826289069 0.0
outer loop
vertex 5.4470476127563 13.0851854342773 17.0
vertex 6.05 13.3349364905389 12.5
vertex 5.4470476127563 13.0851854342773 12.5
endloop
endfacet
facet normal -0.499999999999999 0.866025403784439 -3.0140568528628e-032
outer loop
vertex 6.05 13.3349364905389 12.5
vertex 5.4470476127563 13.0851854342773 17.0
vertex 6.05 13.3349364905389 17.0
endloop
endfacet
facet normal 0.965925826289068 0.258819045102521 0.0
outer loop
vertex 3.3511112605664 15.1117714323462 11.5
vertex 3.50096189432334 14.75 12.5
vertex 3.50096189432334 14.75 11.5
endloop
endfacet
facet normal 0.866025403784438 0.500000000000001 0.0
outer loop
vertex 3.50096189432334 14.75 12.5
vertex 3.3511112605664 15.1117714323462 11.5
vertex 3.3511112605664 15.1117714323462 12.5
endloop
endfacet
facet normal -0.866025403784438 0.500000000000001 0.0
outer loop
vertex 6.09903810567666 14.75 12.5
vertex 5.86066017177982 14.4393398282202 11.5
vertex 5.86066017177982 14.4393398282202 12.5
endloop
endfacet
facet normal -0.707106781186547 0.707106781186548 0.0
outer loop
vertex 5.86066017177982 14.4393398282202 11.5
vertex 6.09903810567666 14.75 12.5
vertex 6.09903810567666 14.75 11.5
endloop
endfacet
facet normal -0.866025403784438 0.500000000000001 0.0
outer loop
vertex 6.9650635094611 14.25 17.0
vertex 6.56776695296637 13.7322330470336 12.5
vertex 6.56776695296637 13.7322330470336 17.0
endloop
endfacet
facet normal -0.707106781186547 0.707106781186548 -3.0140568528628e-032
outer loop
vertex 6.56776695296637 13.7322330470336 12.5
vertex 6.9650635094611 14.25 17.0
vertex 6.9650635094611 14.25 12.5
endloop
endfacet
facet normal 0.965925826289068 -0.258819045102521 0.0
outer loop
vertex 3.3511112605664 15.8882285676538 11.5
vertex 3.3 15.5 12.5
vertex 3.3 15.5 11.5
endloop
endfacet
facet normal 1.0 0.0 0.0
outer loop
vertex 3.3 15.5 12.5
vertex 3.3511112605664 15.8882285676538 11.5
vertex 3.3511112605664 15.8882285676538 12.5
endloop
endfacet
facet normal 1.0 0.0 0.0
outer loop
vertex 3.3 15.5 11.5
vertex 3.3511112605664 15.1117714323462 12.5
vertex 3.3511112605664 15.1117714323462 11.5
endloop
endfacet
facet normal 0.965925826289068 0.258819045102521 0.0
outer loop
vertex 3.3511112605664 15.1117714323462 12.5
vertex 3.3 15.5 11.5
vertex 3.3 15.5 12.5
endloop
endfacet
facet normal 0.25881904510252 0.965925826289069 0.0
outer loop
vertex 4.41177143234622 14.0511112605664 12.5
vertex 4.8 14.0 11.5
vertex 4.41177143234622 14.0511112605664 11.5
endloop
endfacet
facet normal 0.0 1.0 0.0
outer loop
vertex 4.8 14.0 11.5
vertex 4.41177143234622 14.0511112605664 12.5
vertex 4.8 14.0 12.5
endloop
endfacet
facet normal 0.866025403784438 -0.500000000000001 0.0
outer loop
vertex 3.50096189432334 16.25 11.5
vertex 3.3511112605664 15.8882285676538 12.5
vertex 3.3511112605664 15.8882285676538 11.5
endloop
endfacet
facet normal 0.965925826289068 -0.258819045102521 0.0
outer loop
vertex 3.3511112605664 15.8882285676538 12.5
vertex 3.50096189432334 16.25 11.5
vertex 3.50096189432334 16.25 12.5
endloop
endfacet
facet normal -0.499999999999999 0.866025403784439 -3.0140568528628e-032
outer loop
vertex 6.05 13.3349364905389 17.0
vertex 6.56776695296637 13.7322330470336 12.5
vertex 6.05 13.3349364905389 12.5
endloop
endfacet
facet normal -0.707106781186547 0.707106781186548 -3.0140568528628e-032
outer loop
vertex 6.56776695296637 13.7322330470336 12.5
vertex 6.05 13.3349364905389 17.0
vertex 6.56776695296637 13.7322330470336 17.0
endloop
endfacet
facet normal -2.85155516660701e-016 1.0 0.0
outer loop
vertex 4.8 13.0 17.0
vertex 5.4470476127563 13.0851854342773 12.5
vertex 4.8 13.0 12.5
endloop
endfacet
facet normal -0.258819045102519 0.965925826289069 0.0
outer loop
vertex 5.4470476127563 13.0851854342773 12.5
vertex 4.8 13.0 17.0
vertex 5.4470476127563 13.0851854342773 17.0
endloop
endfacet
facet normal 0.707106781186548 0.707106781186547 0.0
outer loop
vertex 3.73933982822018 14.4393398282202 12.5
vertex 4.05 14.2009618943233 11.5
vertex 3.73933982822018 14.4393398282202 11.5
endloop
endfacet
facet normal 0.5 0.866025403784438 0.0
outer loop
vertex 4.05 14.2009618943233 11.5
vertex 3.73933982822018 14.4393398282202 12.5
vertex 4.05 14.2009618943233 12.5
endloop
endfacet
facet normal 0.866025403784438 0.500000000000001 0.0
outer loop
vertex 3.50096189432334 14.75 11.5
vertex 3.73933982822018 14.4393398282202 12.5
vertex 3.73933982822018 14.4393398282202 11.5
endloop
endfacet
facet normal 0.707106781186548 0.707106781186547 0.0
outer loop
vertex 3.73933982822018 14.4393398282202 12.5
vertex 3.50096189432334 14.75 11.5
vertex 3.50096189432334 14.75 12.5
endloop
endfacet
facet normal -0.866025403784438 -0.500000000000001 0.0
outer loop
vertex 6.09903810567666 16.25 12.5
vertex 6.2488887394336 15.8882285676538 11.5
vertex 6.2488887394336 15.8882285676538 12.5
endloop
endfacet
facet normal -0.965925826289069 -0.258819045102519 0.0
outer loop
vertex 6.2488887394336 15.8882285676538 11.5
vertex 6.09903810567666 16.25 12.5
vertex 6.09903810567666 16.25 11.5
endloop
endfacet
facet normal 0.258819045102521 0.965925826289068 1.82969899437925e-031
outer loop
vertex 4.1529523872437 13.0851854342773 17.0
vertex 4.8 13.0 12.5
vertex 4.1529523872437 13.0851854342773 12.5
endloop
endfacet
facet normal -2.85155516660701e-016 1.0 0.0
outer loop
vertex 4.8 13.0 12.5
vertex 4.1529523872437 13.0851854342773 17.0
vertex 4.8 13.0 17.0
endloop
endfacet
facet normal -1.0 -2.85155516660701e-016 4.54759501143898e-019
outer loop
vertex 7.3 15.5 17.0
vertex 7.21481456572267 14.8529523872437 12.5
vertex 7.21481456572267 14.8529523872437 17.0
endloop
endfacet
facet normal -0.965925826289068 0.258819045102523 4.54759501143898e-019
outer loop
vertex 7.21481456572267 14.8529523872437 12.5
vertex 7.3 15.5 17.0
vertex 7.3 15.5 12.5
endloop
endfacet
facet normal 0.707106781186547 0.707106781186548 -1.06047697808007e-018
outer loop
vertex 3.03223304703363 13.7322330470336 17.0
vertex 3.55 13.3349364905389 12.5
vertex 3.03223304703363 13.7322330470336 12.5
endloop
endfacet
facet normal 0.500000000000002 0.866025403784438 1.82969899437925e-031
outer loop
vertex 3.55 13.3349364905389 12.5
vertex 3.03223304703363 13.7322330470336 17.0
vertex 3.55 13.3349364905389 17.0
endloop
endfacet
facet normal -0.965925826289068 -0.25881904510252 -7.57886138532297e-032
outer loop
vertex 7.21481456572267 16.1470476127563 17.0
vertex 7.3 15.5 12.5
vertex 7.3 15.5 17.0
endloop
endfacet
facet normal -1.0 -2.85155516660701e-016 4.54759501143898e-019
outer loop
vertex 7.3 15.5 12.5
vertex 7.21481456572267 16.1470476127563 17.0
vertex 7.21481456572267 16.1470476127563 12.5
endloop
endfacet
facet normal -0.707106781186547 -0.707106781186548 3.0140568528628e-032
outer loop
vertex 6.56776695296637 17.2677669529664 17.0
vertex 6.9650635094611 16.75 12.5
vertex 6.9650635094611 16.75 17.0
endloop
endfacet
facet normal -0.866025403784439 -0.499999999999999 -7.57886138532297e-032
outer loop
vertex 6.9650635094611 16.75 12.5
vertex 6.56776695296637 17.2677669529664 17.0
vertex 6.56776695296637 17.2677669529664 12.5
endloop
endfacet
facet normal -0.965925826289068 0.258819045102523 4.54759501143898e-019
outer loop
vertex 7.21481456572267 14.8529523872437 17.0
vertex 6.9650635094611 14.25 12.5
vertex 6.9650635094611 14.25 17.0
endloop
endfacet
facet normal -0.866025403784438 0.500000000000001 0.0
outer loop
vertex 6.9650635094611 14.25 12.5
vertex 7.21481456572267 14.8529523872437 17.0
vertex 7.21481456572267 14.8529523872437 12.5
endloop
endfacet
facet normal -2.48967643776348e-033 -6.4090147330634e-017 1.0
outer loop
vertex 3.05 -1.0 3.75
vertex 6.55 22.0 3.75
vertex 3.05 22.0 3.75
endloop
endfacet
facet normal -2.48967643776348e-033 -6.4090147330634e-017 1.0
outer loop
vertex 6.55 22.0 3.75
vertex 3.05 -1.0 3.75
vertex 6.55 -1.0 3.75
endloop
endfacet
facet normal 0.0 -1.0 0.0
outer loop
vertex 4.8 17.0 12.5
vertex 4.41177143234622 16.9488887394336 11.5
vertex 4.8 17.0 11.5
endloop
endfacet
facet normal 0.258819045102521 -0.965925826289068 0.0
outer loop
vertex 4.41177143234622 16.9488887394336 11.5
vertex 4.8 17.0 12.5
vertex 4.41177143234622 16.9488887394336 12.5
endloop
endfacet
facet normal 1.42577758330351e-016 -1.0 8.63560337778309e-019
outer loop
vertex 4.8 18.0 17.0
vertex 4.1529523872437 17.9148145657227 12.5
vertex 4.8 18.0 12.5
endloop
endfacet
facet normal 0.258819045102521 -0.965925826289068 4.31780168889154e-019
outer loop
vertex 4.1529523872437 17.9148145657227 12.5
vertex 4.8 18.0 17.0
vertex 4.1529523872437 17.9148145657227 17.0
endloop
endfacet
facet normal -0.258819045102521 -0.965925826289068 4.31780168889154e-019
outer loop
vertex 5.4470476127563 17.9148145657227 17.0
vertex 4.8 18.0 12.5
vertex 5.4470476127563 17.9148145657227 12.5
endloop
endfacet
facet normal 1.42577758330351e-016 -1.0 8.63560337778309e-019
outer loop
vertex 4.8 18.0 12.5
vertex 5.4470476127563 17.9148145657227 17.0
vertex 4.8 18.0 17.0
endloop
endfacet
facet normal 0.5 0.866025403784438 0.0
outer loop
vertex 4.05 14.2009618943233 12.5
vertex 4.41177143234622 14.0511112605664 11.5
vertex 4.05 14.2009618943233 11.5
endloop
endfacet
facet normal 0.25881904510252 0.965925826289069 0.0
outer loop
vertex 4.41177143234622 14.0511112605664 11.5
vertex 4.05 14.2009618943233 12.5
vertex 4.41177143234622 14.0511112605664 12.5
endloop
endfacet
facet normal 0.866025403784438 0.500000000000001 -1.06047697808015e-018
outer loop
vertex 2.6349364905389 14.25 12.5
vertex 3.03223304703363 13.7322330470336 17.0
vertex 3.03223304703363 13.7322330470336 12.5
endloop
endfacet
facet normal 0.707106781186547 0.707106781186548 -1.06047697808007e-018
outer loop
vertex 3.03223304703363 13.7322330470336 17.0
vertex 2.6349364905389 14.25 12.5
vertex 2.6349364905389 14.25 17.0
endloop
endfacet
facet normal -0.5 0.866025403784439 0.0
outer loop
vertex 5.55 14.2009618943233 12.5
vertex 5.86066017177982 14.4393398282202 11.5
vertex 5.55 14.2009618943233 11.5
endloop
endfacet
facet normal -0.707106781186547 0.707106781186548 0.0
outer loop
vertex 5.86066017177982 14.4393398282202 11.5
vertex 5.55 14.2009618943233 12.5
vertex 5.86066017177982 14.4393398282202 12.5
endloop
endfacet
facet normal -1.0 -1.28180294661268e-016 1.65978429184232e-033
outer loop
vertex 6.55 22.0 7.25
vertex 6.55 -1.0 3.75
vertex 6.55 -1.0 7.25
endloop
endfacet
facet normal -1.0 -1.28180294661268e-016 1.65978429184232e-033
outer loop
vertex 6.55 -1.0 3.75
vertex 6.55 22.0 7.25
vertex 6.55 22.0 3.75
endloop
endfacet
facet normal 0.965925826289068 0.258819045102521 -7.57886138532299e-032
outer loop
vertex 2.38518543427733 14.8529523872437 12.5
vertex 2.6349364905389 14.25 17.0
vertex 2.6349364905389 14.25 12.5
endloop
endfacet
facet normal 0.866025403784438 0.500000000000001 -1.06047697808015e-018
outer loop
vertex 2.6349364905389 14.25 17.0
vertex 2.38518543427733 14.8529523872437 12.5
vertex 2.38518543427733 14.8529523872437 17.0
endloop
endfacet
facet normal -0.0 -0.0 1.0
outer loop
vertex 2.38518543427733 14.8529523872437 12.5
vertex 2.38518543427733 16.1470476127563 12.5
vertex 2.3 15.5 12.5
endloop
endfacet
facet normal -0.0 -0.0 1.0
outer loop
vertex 2.38518543427733 16.1470476127563 12.5
vertex 2.38518543427733 14.8529523872437 12.5
vertex 2.6349364905389 14.25 12.5
endloop
endfacet
facet normal -0.0 -0.0 1.0
outer loop
vertex 2.38518543427733 16.1470476127563 12.5
vertex 2.6349364905389 14.25 12.5
vertex 2.6349364905389 16.75 12.5
endloop
endfacet
facet normal -0.0 -0.0 1.0
outer loop
vertex 2.6349364905389 16.75 12.5
vertex 2.6349364905389 14.25 12.5
vertex 3.03223304703363 13.7322330470336 12.5
endloop
endfacet
facet normal -0.0 -0.0 1.0
outer loop
vertex 2.6349364905389 16.75 12.5
vertex 3.03223304703363 13.7322330470336 12.5
vertex 3.03223304703363 17.2677669529664 12.5
endloop
endfacet
facet normal -0.0 -0.0 1.0
outer loop
vertex 3.03223304703363 17.2677669529664 12.5
vertex 3.03223304703363 13.7322330470336 12.5
vertex 3.55 13.3349364905389 12.5
endloop
endfacet
facet normal -0.0 -0.0 1.0
outer loop
vertex 3.03223304703363 17.2677669529664 12.5
vertex 3.55 13.3349364905389 12.5
vertex 3.3 15.5 12.5
endloop
endfacet
facet normal -0.0 -0.0 1.0
outer loop
vertex 3.3 15.5 12.5
vertex 3.55 13.3349364905389 12.5
vertex 3.3511112605664 15.1117714323462 12.5
endloop
endfacet
facet normal -0.0 -0.0 1.0
outer loop
vertex 3.3511112605664 15.1117714323462 12.5
vertex 3.55 13.3349364905389 12.5
vertex 3.50096189432334 14.75 12.5
endloop
endfacet
facet normal -0.0 -0.0 1.0
outer loop
vertex 3.50096189432334 14.75 12.5
vertex 3.55 13.3349364905389 12.5
vertex 3.73933982822018 14.4393398282202 12.5
endloop
endfacet
facet normal -0.0 -0.0 1.0
outer loop
vertex 3.73933982822018 14.4393398282202 12.5
vertex 3.55 13.3349364905389 12.5
vertex 4.1529523872437 13.0851854342773 12.5
endloop
endfacet
facet normal -0.0 -0.0 1.0
outer loop
vertex 3.73933982822018 14.4393398282202 12.5
vertex 4.1529523872437 13.0851854342773 12.5
vertex 4.05 14.2009618943233 12.5
endloop
endfacet
facet normal -0.0 -0.0 1.0
outer loop
vertex 4.05 14.2009618943233 12.5
vertex 4.1529523872437 13.0851854342773 12.5
vertex 4.41177143234622 14.0511112605664 12.5
endloop
endfacet
facet normal -0.0 -0.0 1.0
outer loop
vertex 4.41177143234622 14.0511112605664 12.5
vertex 4.1529523872437 13.0851854342773 12.5
vertex 4.8 13.0 12.5
endloop
endfacet
facet normal -0.0 -0.0 1.0
outer loop
vertex 4.41177143234622 14.0511112605664 12.5
vertex 4.8 13.0 12.5
vertex 4.8 14.0 12.5
endloop
endfacet
facet normal -0.0 -0.0 1.0
outer loop
vertex 4.8 14.0 12.5
vertex 4.8 13.0 12.5
vertex 5.4470476127563 13.0851854342773 12.5
endloop
endfacet
facet normal -0.0 -0.0 1.0
outer loop
vertex 4.8 14.0 12.5
vertex 5.4470476127563 13.0851854342773 12.5
vertex 5.18822856765378 14.0511112605664 12.5
endloop
endfacet
facet normal -0.0 -0.0 1.0
outer loop
vertex 5.18822856765378 14.0511112605664 12.5
vertex 5.4470476127563 13.0851854342773 12.5
vertex 5.55 14.2009618943233 12.5
endloop
endfacet
facet normal -0.0 -0.0 1.0
outer loop
vertex 5.55 14.2009618943233 12.5
vertex 5.4470476127563 13.0851854342773 12.5
vertex 6.05 13.3349364905389 12.5
endloop
endfacet
facet normal -0.0 -0.0 1.0
outer loop
vertex 5.55 14.2009618943233 12.5
vertex 6.05 13.3349364905389 12.5
vertex 5.86066017177982 14.4393398282202 12.5
endloop
endfacet
facet normal -0.0 -0.0 1.0
outer loop
vertex 5.86066017177982 14.4393398282202 12.5
vertex 6.05 13.3349364905389 12.5
vertex 6.09903810567666 14.75 12.5
endloop
endfacet
facet normal -0.0 -0.0 1.0
outer loop
vertex 6.09903810567666 14.75 12.5
vertex 6.05 13.3349364905389 12.5
vertex 6.56776695296637 13.7322330470336 12.5
endloop
endfacet
facet normal -0.0 -0.0 1.0
outer loop
vertex 6.09903810567666 14.75 12.5
vertex 6.56776695296637 13.7322330470336 12.5
vertex 6.2488887394336 15.1117714323462 12.5
endloop
endfacet
facet normal -0.0 -0.0 1.0
outer loop
vertex 6.2488887394336 15.1117714323462 12.5
vertex 6.56776695296637 13.7322330470336 12.5
vertex 6.3 15.5 12.5
endloop
endfacet
facet normal -0.0 -0.0 1.0
outer loop
vertex 3.3 15.5 12.5
vertex 3.55 17.6650635094611 12.5
vertex 3.03223304703363 17.2677669529664 12.5
endloop
endfacet
facet normal -0.0 -0.0 1.0
outer loop
vertex 3.55 17.6650635094611 12.5
vertex 3.3 15.5 12.5
vertex 3.3511112605664 15.8882285676538 12.5
endloop
endfacet
facet normal -0.0 -0.0 1.0
outer loop
vertex 3.55 17.6650635094611 12.5
vertex 3.3511112605664 15.8882285676538 12.5
vertex 3.50096189432334 16.25 12.5
endloop
endfacet
facet normal -0.0 -0.0 1.0
outer loop
vertex 3.55 17.6650635094611 12.5
vertex 3.50096189432334 16.25 12.5
vertex 3.73933982822018 16.5606601717798 12.5
endloop
endfacet
facet normal -0.0 -0.0 1.0
outer loop
vertex 3.55 17.6650635094611 12.5
vertex 3.73933982822018 16.5606601717798 12.5
vertex 4.1529523872437 17.9148145657227 12.5
endloop
endfacet
facet normal -0.0 -0.0 1.0
outer loop
vertex 4.1529523872437 17.9148145657227 12.5
vertex 3.73933982822018 16.5606601717798 12.5
vertex 4.05 16.7990381056767 12.5
endloop
endfacet
facet normal -0.0 -0.0 1.0
outer loop
vertex 4.1529523872437 17.9148145657227 12.5
vertex 4.05 16.7990381056767 12.5
vertex 4.41177143234622 16.9488887394336 12.5
endloop
endfacet
facet normal -0.0 -0.0 1.0
outer loop
vertex 4.1529523872437 17.9148145657227 12.5
vertex 4.41177143234622 16.9488887394336 12.5
vertex 4.8 18.0 12.5
endloop
endfacet
facet normal -0.0 -0.0 1.0
outer loop
vertex 4.8 18.0 12.5
vertex 4.41177143234622 16.9488887394336 12.5
vertex 4.8 17.0 12.5
endloop
endfacet
facet normal -0.0 -0.0 1.0
outer loop
vertex 4.8 18.0 12.5
vertex 4.8 17.0 12.5
vertex 5.18822856765378 16.9488887394336 12.5
endloop
endfacet
facet normal -0.0 -0.0 1.0
outer loop
vertex 4.8 18.0 12.5
vertex 5.18822856765378 16.9488887394336 12.5
vertex 5.4470476127563 17.9148145657227 12.5
endloop
endfacet
facet normal -0.0 -0.0 1.0
outer loop
vertex 5.4470476127563 17.9148145657227 12.5
vertex 5.18822856765378 16.9488887394336 12.5
vertex 5.55 16.7990381056767 12.5
endloop
endfacet
facet normal -0.0 -0.0 1.0
outer loop
vertex 5.4470476127563 17.9148145657227 12.5
vertex 5.55 16.7990381056767 12.5
vertex 6.05 17.6650635094611 12.5
endloop
endfacet
facet normal -0.0 -0.0 1.0
outer loop
vertex 6.05 17.6650635094611 12.5
vertex 5.55 16.7990381056767 12.5
vertex 5.86066017177982 16.5606601717798 12.5
endloop
endfacet
facet normal -0.0 -0.0 1.0
outer loop
vertex 6.05 17.6650635094611 12.5
vertex 5.86066017177982 16.5606601717798 12.5
vertex 6.09903810567666 16.25 12.5
endloop
endfacet
facet normal -0.0 -0.0 1.0
outer loop
vertex 6.05 17.6650635094611 12.5
vertex 6.09903810567666 16.25 12.5
vertex 6.56776695296637 17.2677669529664 12.5
endloop
endfacet
facet normal -0.0 -0.0 1.0
outer loop
vertex 6.56776695296637 17.2677669529664 12.5
vertex 6.09903810567666 16.25 12.5
vertex 6.2488887394336 15.8882285676538 12.5
endloop
endfacet
facet normal -0.0 -0.0 1.0
outer loop
vertex 6.56776695296637 17.2677669529664 12.5
vertex 6.2488887394336 15.8882285676538 12.5
vertex 6.3 15.5 12.5
endloop
endfacet
facet normal -0.0 -0.0 1.0
outer loop
vertex 6.56776695296637 17.2677669529664 12.5
vertex 6.3 15.5 12.5
vertex 6.56776695296637 13.7322330470336 12.5
endloop
endfacet
facet normal -0.0 -0.0 1.0
outer loop
vertex 6.56776695296637 17.2677669529664 12.5
vertex 6.56776695296637 13.7322330470336 12.5
vertex 6.9650635094611 14.25 12.5
endloop
endfacet
facet normal -0.0 -0.0 1.0
outer loop
vertex 6.56776695296637 17.2677669529664 12.5
vertex 6.9650635094611 14.25 12.5
vertex 6.9650635094611 16.75 12.5
endloop
endfacet
facet normal -0.0 -0.0 1.0
outer loop
vertex 6.9650635094611 16.75 12.5
vertex 6.9650635094611 14.25 12.5
vertex 7.21481456572267 14.8529523872437 12.5
endloop
endfacet
facet normal -0.0 -0.0 1.0
outer loop
vertex 6.9650635094611 16.75 12.5
vertex 7.21481456572267 14.8529523872437 12.5
vertex 7.21481456572267 16.1470476127563 12.5
endloop
endfacet
facet normal -0.0 -0.0 1.0
outer loop
vertex 7.21481456572267 16.1470476127563 12.5
vertex 7.21481456572267 14.8529523872437 12.5
vertex 7.3 15.5 12.5
endloop
endfacet
facet normal 0.0 1.0 0.0
outer loop
vertex 4.8 14.0 12.5
vertex 5.18822856765378 14.0511112605664 11.5
vertex 4.8 14.0 11.5
endloop
endfacet
facet normal -0.258819045102521 0.965925826289068 0.0
outer loop
vertex 5.18822856765378 14.0511112605664 11.5
vertex 4.8 14.0 12.5
vertex 5.18822856765378 14.0511112605664 12.5
endloop
endfacet
facet normal 0.258819045102521 -0.965925826289068 4.31780168889154e-019
outer loop
vertex 4.1529523872437 17.9148145657227 17.0
vertex 3.55 17.6650635094611 12.5
vertex 4.1529523872437 17.9148145657227 12.5
endloop
endfacet
facet normal 0.5 -0.866025403784439 0.0
outer loop
vertex 3.55 17.6650635094611 12.5
vertex 4.1529523872437 17.9148145657227 17.0
vertex 3.55 17.6650635094611 17.0
endloop
endfacet
facet normal -0.707106781186547 -0.707106781186548 3.0140568528628e-032
outer loop
vertex 6.56776695296637 17.2677669529664 17.0
vertex 6.05 17.6650635094611 12.5
vertex 6.56776695296637 17.2677669529664 12.5
endloop
endfacet
facet normal -0.499999999999999 -0.866025403784439 3.0140568528628e-032
outer loop
vertex 6.05 17.6650635094611 12.5
vertex 6.56776695296637 17.2677669529664 17.0
vertex 6.05 17.6650635094611 17.0
endloop
endfacet
facet normal -0.707106781186547 -0.707106781186548 0.0
outer loop
vertex 5.86066017177982 16.5606601717798 12.5
vertex 6.09903810567666 16.25 11.5
vertex 6.09903810567666 16.25 12.5
endloop
endfacet
facet normal -0.866025403784438 -0.500000000000001 0.0
outer loop
vertex 6.09903810567666 16.25 11.5
vertex 5.86066017177982 16.5606601717798 12.5
vertex 5.86066017177982 16.5606601717798 11.5
endloop
endfacet
facet normal 0.866025403784438 -0.500000000000001 -4.57424748594812e-032
outer loop
vertex 2.6349364905389 16.75 12.5
vertex 2.38518543427733 16.1470476127563 17.0
vertex 2.38518543427733 16.1470476127563 12.5
endloop
endfacet
facet normal 0.965925826289068 -0.258819045102521 4.54759501143852e-019
outer loop
vertex 2.38518543427733 16.1470476127563 17.0
vertex 2.6349364905389 16.75 12.5
vertex 2.6349364905389 16.75 17.0
endloop
endfacet
facet normal -0.965925826289068 0.258819045102521 0.0
outer loop
vertex 6.2488887394336 15.1117714323462 12.5
vertex 6.09903810567666 14.75 11.5
vertex 6.09903810567666 14.75 12.5
endloop
endfacet
facet normal -0.866025403784438 0.500000000000001 0.0
outer loop
vertex 6.09903810567666 14.75 11.5
vertex 6.2488887394336 15.1117714323462 12.5
vertex 6.2488887394336 15.1117714323462 11.5
endloop
endfacet
facet normal -0.0 -0.0 1.0
outer loop
vertex -1.09503499957585e-015 -1.00000000000001 17.0
vertex 2.38518543427733 14.8529523872437 17.0
vertex 2.3 15.5 17.0
endloop
endfacet
facet normal -0.0 -0.0 1.0
outer loop
vertex 2.38518543427733 14.8529523872437 17.0
vertex -1.09503499957585e-015 -1.00000000000001 17.0
vertex 2.6349364905389 14.25 17.0
endloop
endfacet
facet normal -0.0 -0.0 1.0
outer loop
vertex 2.6349364905389 14.25 17.0
vertex -1.09503499957585e-015 -1.00000000000001 17.0
vertex 9.8 -1.0 17.0
endloop
endfacet
facet normal -0.0 -0.0 1.0
outer loop
vertex 2.6349364905389 14.25 17.0
vertex 9.8 -1.0 17.0
vertex 3.03223304703363 13.7322330470336 17.0
endloop
endfacet
facet normal -0.0 -0.0 1.0
outer loop
vertex 3.03223304703363 13.7322330470336 17.0
vertex 9.8 -1.0 17.0
vertex 3.55 13.3349364905389 17.0
endloop
endfacet
facet normal -0.0 -0.0 1.0
outer loop
vertex 3.55 13.3349364905389 17.0
vertex 9.8 -1.0 17.0
vertex 4.1529523872437 13.0851854342773 17.0
endloop
endfacet
facet normal -0.0 -0.0 1.0
outer loop
vertex 4.1529523872437 13.0851854342773 17.0
vertex 9.8 -1.0 17.0
vertex 4.8 13.0 17.0
endloop
endfacet
facet normal -0.0 -0.0 1.0
outer loop
vertex 4.8 13.0 17.0
vertex 9.8 -1.0 17.0
vertex 5.4470476127563 13.0851854342773 17.0
endloop
endfacet
facet normal -0.0 -0.0 1.0
outer loop
vertex 5.4470476127563 13.0851854342773 17.0
vertex 9.8 -1.0 17.0
vertex 6.05 13.3349364905389 17.0
endloop
endfacet
facet normal -0.0 -0.0 1.0
outer loop
vertex 6.05 13.3349364905389 17.0
vertex 9.8 -1.0 17.0
vertex 6.56776695296637 13.7322330470336 17.0
endloop
endfacet
facet normal -0.0 -0.0 1.0
outer loop
vertex 6.56776695296637 13.7322330470336 17.0
vertex 9.8 -1.0 17.0
vertex 6.9650635094611 14.25 17.0
endloop
endfacet
facet normal -0.0 -0.0 1.0
outer loop
vertex 6.9650635094611 14.25 17.0
vertex 9.8 -1.0 17.0
vertex 7.21481456572267 14.8529523872437 17.0
endloop
endfacet
facet normal -0.0 -0.0 1.0
outer loop
vertex 7.21481456572267 14.8529523872437 17.0
vertex 9.8 -1.0 17.0
vertex 7.3 15.5 17.0
endloop
endfacet
facet normal -0.0 -0.0 1.0
outer loop
vertex 7.3 15.5 17.0
vertex 9.8 -1.0 17.0
vertex 9.8 22.0 17.0
endloop
endfacet
facet normal -0.0 -0.0 1.0
outer loop
vertex -3.87745391350336e-015 22.0 17.0
vertex 3.55 17.6650635094611 17.0
vertex 9.8 22.0 17.0
endloop
endfacet
facet normal -0.0 -0.0 1.0
outer loop
vertex 3.55 17.6650635094611 17.0
vertex -3.87745391350336e-015 22.0 17.0
vertex 3.03223304703363 17.2677669529664 17.0
endloop
endfacet
facet normal -0.0 -0.0 1.0
outer loop
vertex 3.03223304703363 17.2677669529664 17.0
vertex -3.87745391350336e-015 22.0 17.0
vertex 2.6349364905389 16.75 17.0
endloop
endfacet
facet normal -0.0 -0.0 1.0
outer loop
vertex 2.6349364905389 16.75 17.0
vertex -3.87745391350336e-015 22.0 17.0
vertex 2.38518543427733 16.1470476127563 17.0
endloop
endfacet
facet normal -0.0 -0.0 1.0
outer loop
vertex 2.38518543427733 16.1470476127563 17.0
vertex -3.87745391350336e-015 22.0 17.0
vertex -1.09503499957585e-015 -1.00000000000001 17.0
endloop
endfacet
facet normal -0.0 -0.0 1.0
outer loop
vertex 2.38518543427733 16.1470476127563 17.0
vertex -1.09503499957585e-015 -1.00000000000001 17.0
vertex 2.3 15.5 17.0
endloop
endfacet
facet normal -0.0 -0.0 1.0
outer loop
vertex 9.8 22.0 17.0
vertex 3.55 17.6650635094611 17.0
vertex 4.1529523872437 17.9148145657227 17.0
endloop
endfacet
facet normal -0.0 -0.0 1.0
outer loop
vertex 9.8 22.0 17.0
vertex 4.1529523872437 17.9148145657227 17.0
vertex 4.8 18.0 17.0
endloop
endfacet
facet normal -0.0 -0.0 1.0
outer loop
vertex 9.8 22.0 17.0
vertex 4.8 18.0 17.0
vertex 5.4470476127563 17.9148145657227 17.0
endloop
endfacet
facet normal -0.0 -0.0 1.0
outer loop
vertex 9.8 22.0 17.0
vertex 5.4470476127563 17.9148145657227 17.0
vertex 6.05 17.6650635094611 17.0
endloop
endfacet
facet normal -0.0 -0.0 1.0
outer loop
vertex 9.8 22.0 17.0
vertex 6.05 17.6650635094611 17.0
vertex 6.56776695296637 17.2677669529664 17.0
endloop
endfacet
facet normal -0.0 -0.0 1.0
outer loop
vertex 9.8 22.0 17.0
vertex 6.56776695296637 17.2677669529664 17.0
vertex 6.9650635094611 16.75 17.0
endloop
endfacet
facet normal -0.0 -0.0 1.0
outer loop
vertex 9.8 22.0 17.0
vertex 6.9650635094611 16.75 17.0
vertex 7.21481456572267 16.1470476127563 17.0
endloop
endfacet
facet normal -0.0 -0.0 1.0
outer loop
vertex 9.8 22.0 17.0
vertex 7.21481456572267 16.1470476127563 17.0
vertex 7.3 15.5 17.0
endloop
endfacet
facet normal 0.965925826289068 -0.258819045102521 4.54759501143852e-019
outer loop
vertex 2.38518543427733 16.1470476127563 12.5
vertex 2.3 15.5 17.0
vertex 2.3 15.5 12.5
endloop
endfacet
facet normal 1.0 2.85155516660701e-016 4.54759501143898e-019
outer loop
vertex 2.3 15.5 17.0
vertex 2.38518543427733 16.1470476127563 12.5
vertex 2.38518543427733 16.1470476127563 17.0
endloop
endfacet
facet normal 0.500000000000002 0.866025403784438 1.82969899437925e-031
outer loop
vertex 3.55 13.3349364905389 17.0
vertex 4.1529523872437 13.0851854342773 12.5
vertex 3.55 13.3349364905389 12.5
endloop
endfacet
facet normal 0.258819045102521 0.965925826289068 1.82969899437925e-031
outer loop
vertex 4.1529523872437 13.0851854342773 12.5
vertex 3.55 13.3349364905389 17.0
vertex 4.1529523872437 13.0851854342773 17.0
endloop
endfacet
facet normal 0.707106781186547 -0.707106781186548 0.0
outer loop
vertex 3.03223304703363 17.2677669529664 12.5
vertex 2.6349364905389 16.75 17.0
vertex 2.6349364905389 16.75 12.5
endloop
endfacet
facet normal 0.866025403784438 -0.500000000000001 -4.57424748594812e-032
outer loop
vertex 2.6349364905389 16.75 17.0
vertex 3.03223304703363 17.2677669529664 12.5
vertex 3.03223304703363 17.2677669529664 17.0
endloop
endfacet
facet normal 0.5 -0.866025403784439 0.0
outer loop
vertex 3.55 17.6650635094611 17.0
vertex 3.03223304703363 17.2677669529664 12.5
vertex 3.55 17.6650635094611 12.5
endloop
endfacet
facet normal 0.707106781186547 -0.707106781186548 0.0
outer loop
vertex 3.03223304703363 17.2677669529664 12.5
vertex 3.55 17.6650635094611 17.0
vertex 3.03223304703363 17.2677669529664 17.0
endloop
endfacet
facet normal 1.0 2.85155516660701e-016 4.54759501143898e-019
outer loop
vertex 2.3 15.5 12.5
vertex 2.38518543427733 14.8529523872437 17.0
vertex 2.38518543427733 14.8529523872437 12.5
endloop
endfacet
facet normal 0.965925826289068 0.258819045102521 -7.57886138532299e-032
outer loop
vertex 2.38518543427733 14.8529523872437 17.0
vertex 2.3 15.5 12.5
vertex 2.3 15.5 17.0
endloop
endfacet
facet normal -0.0 1.0 -0.0
outer loop
vertex 1.5 11.0 11.5
vertex 8.1 11.0 8.8
vertex 1.5 11.0 8.8
endloop
endfacet
facet normal -0.0 1.0 -0.0
outer loop
vertex 8.1 11.0 8.8
vertex 1.5 11.0 11.5
vertex 8.1 11.0 11.5
endloop
endfacet
facet normal 0.999999996165928 9.11395590297184e-006 8.70923690431979e-005
outer loop
vertex 1.5 22.0 8.8
vertex 1.5 11.0 11.5
vertex 1.5 11.0 8.8
endloop
endfacet
facet normal 0.999999996165928 9.11395590297184e-006 8.70923690431979e-005
outer loop
vertex 1.5 11.0 11.5
vertex 1.5 22.0 8.8
vertex 1.5 22.0 11.5
endloop
endfacet
facet normal -0.707106781186547 -0.707106781186548 0.0
outer loop
vertex 5.86066017177982 16.5606601717798 12.5
vertex 5.55 16.7990381056767 11.5
vertex 5.86066017177982 16.5606601717798 11.5
endloop
endfacet
facet normal -0.5 -0.866025403784438 0.0
outer loop
vertex 5.55 16.7990381056767 11.5
vertex 5.86066017177982 16.5606601717798 12.5
vertex 5.55 16.7990381056767 12.5
endloop
endfacet
facet normal -1.0 0.0 0.0
outer loop
vertex 8.1 22.0 11.5
vertex 8.1 11.0 8.8
vertex 8.1 11.0 11.5
endloop
endfacet
facet normal -1.0 0.0 0.0
outer loop
vertex 8.1 11.0 8.8
vertex 8.1 22.0 11.5
vertex 8.1 22.0 8.8
endloop
endfacet
facet normal -0.965925826289069 -0.258819045102519 0.0
outer loop
vertex 6.2488887394336 15.8882285676538 12.5
vertex 6.3 15.5 11.5
vertex 6.3 15.5 12.5
endloop
endfacet
facet normal -1.0 0.0 0.0
outer loop
vertex 6.3 15.5 11.5
vertex 6.2488887394336 15.8882285676538 12.5
vertex 6.2488887394336 15.8882285676538 11.5
endloop
endfacet
facet normal 0.258819045102521 -0.965925826289068 0.0
outer loop
vertex 4.41177143234622 16.9488887394336 12.5
vertex 4.05 16.7990381056767 11.5
vertex 4.41177143234622 16.9488887394336 11.5
endloop
endfacet
facet normal 0.5 -0.866025403784439 0.0
outer loop
vertex 4.05 16.7990381056767 11.5
vertex 4.41177143234622 16.9488887394336 12.5
vertex 4.05 16.7990381056767 12.5
endloop
endfacet
facet normal -0.258819045102521 0.965925826289068 0.0
outer loop
vertex 5.18822856765378 14.0511112605664 12.5
vertex 5.55 14.2009618943233 11.5
vertex 5.18822856765378 14.0511112605664 11.5
endloop
endfacet
facet normal -0.5 0.866025403784439 0.0
outer loop
vertex 5.55 14.2009618943233 11.5
vertex 5.18822856765378 14.0511112605664 12.5
vertex 5.55 14.2009618943233 12.5
endloop
endfacet
facet normal 0.0 0.0 -1.0
outer loop
vertex 1.5 22.0 11.5
vertex 3.3511112605664 15.8882285676538 11.5
vertex 1.5 11.0 11.5
endloop
endfacet
facet normal 0.0 0.0 -1.0
outer loop
vertex 3.3511112605664 15.8882285676538 11.5
vertex 1.5 22.0 11.5
vertex 3.50096189432334 16.25 11.5
endloop
endfacet
facet normal 0.0 0.0 -1.0
outer loop
vertex 3.50096189432334 16.25 11.5
vertex 1.5 22.0 11.5
vertex 3.73933982822018 16.5606601717798 11.5
endloop
endfacet
facet normal 0.0 0.0 -1.0
outer loop
vertex 3.73933982822018 16.5606601717798 11.5
vertex 1.5 22.0 11.5
vertex 8.1 22.0 11.5
endloop
endfacet
facet normal 0.0 0.0 -1.0
outer loop
vertex 1.5 11.0 11.5
vertex 3.3511112605664 15.8882285676538 11.5
vertex 3.3 15.5 11.5
endloop
endfacet
facet normal 0.0 0.0 -1.0
outer loop
vertex 3.73933982822018 16.5606601717798 11.5
vertex 8.1 22.0 11.5
vertex 4.05 16.7990381056767 11.5
endloop
endfacet
facet normal 0.0 0.0 -1.0
outer loop
vertex 4.05 16.7990381056767 11.5
vertex 8.1 22.0 11.5
vertex 4.41177143234622 16.9488887394336 11.5
endloop
endfacet
facet normal 0.0 0.0 -1.0
outer loop
vertex 4.41177143234622 16.9488887394336 11.5
vertex 8.1 22.0 11.5
vertex 4.8 17.0 11.5
endloop
endfacet
facet normal 0.0 0.0 -1.0
outer loop
vertex 4.8 17.0 11.5
vertex 8.1 22.0 11.5
vertex 5.18822856765378 16.9488887394336 11.5
endloop
endfacet
facet normal 0.0 0.0 -1.0
outer loop
vertex 5.18822856765378 16.9488887394336 11.5
vertex 8.1 22.0 11.5
vertex 5.55 16.7990381056767 11.5
endloop
endfacet
facet normal 0.0 0.0 -1.0
outer loop
vertex 5.55 16.7990381056767 11.5
vertex 8.1 22.0 11.5
vertex 5.86066017177982 16.5606601717798 11.5
endloop
endfacet
facet normal 0.0 0.0 -1.0
outer loop
vertex 5.86066017177982 16.5606601717798 11.5
vertex 8.1 22.0 11.5
vertex 6.09903810567666 16.25 11.5
endloop
endfacet
facet normal 0.0 0.0 -1.0
outer loop
vertex 6.09903810567666 16.25 11.5
vertex 8.1 22.0 11.5
vertex 6.2488887394336 15.8882285676538 11.5
endloop
endfacet
facet normal 0.0 0.0 -1.0
outer loop
vertex 6.2488887394336 15.8882285676538 11.5
vertex 8.1 22.0 11.5
vertex 6.3 15.5 11.5
endloop
endfacet
facet normal 0.0 0.0 -1.0
outer loop
vertex 1.5 11.0 11.5
vertex 3.73933982822018 14.4393398282202 11.5
vertex 8.1 11.0 11.5
endloop
endfacet
facet normal 0.0 0.0 -1.0
outer loop
vertex 3.73933982822018 14.4393398282202 11.5
vertex 1.5 11.0 11.5
vertex 3.50096189432334 14.75 11.5
endloop
endfacet
facet normal 0.0 0.0 -1.0
outer loop
vertex 3.50096189432334 14.75 11.5
vertex 1.5 11.0 11.5
vertex 3.3511112605664 15.1117714323462 11.5
endloop
endfacet
facet normal 0.0 0.0 -1.0
outer loop
vertex 3.3511112605664 15.1117714323462 11.5
vertex 1.5 11.0 11.5
vertex 3.3 15.5 11.5
endloop
endfacet
facet normal 0.0 0.0 -1.0
outer loop
vertex 8.1 11.0 11.5
vertex 3.73933982822018 14.4393398282202 11.5
vertex 4.05 14.2009618943233 11.5
endloop
endfacet
facet normal 0.0 0.0 -1.0
outer loop
vertex 8.1 11.0 11.5
vertex 4.05 14.2009618943233 11.5
vertex 4.41177143234622 14.0511112605664 11.5
endloop
endfacet
facet normal 0.0 0.0 -1.0
outer loop
vertex 8.1 11.0 11.5
vertex 4.41177143234622 14.0511112605664 11.5
vertex 4.8 14.0 11.5
endloop
endfacet
facet normal 0.0 0.0 -1.0
outer loop
vertex 8.1 11.0 11.5
vertex 4.8 14.0 11.5
vertex 5.18822856765378 14.0511112605664 11.5
endloop
endfacet
facet normal 0.0 0.0 -1.0
outer loop
vertex 8.1 11.0 11.5
vertex 5.18822856765378 14.0511112605664 11.5
vertex 5.55 14.2009618943233 11.5
endloop
endfacet
facet normal 0.0 0.0 -1.0
outer loop
vertex 8.1 11.0 11.5
vertex 5.55 14.2009618943233 11.5
vertex 5.86066017177982 14.4393398282202 11.5
endloop
endfacet
facet normal 0.0 0.0 -1.0
outer loop
vertex 8.1 11.0 11.5
vertex 5.86066017177982 14.4393398282202 11.5
vertex 6.09903810567666 14.75 11.5
endloop
endfacet
facet normal 0.0 0.0 -1.0
outer loop
vertex 8.1 11.0 11.5
vertex 6.09903810567666 14.75 11.5
vertex 6.2488887394336 15.1117714323462 11.5
endloop
endfacet
facet normal 0.0 0.0 -1.0
outer loop
vertex 8.1 11.0 11.5
vertex 6.2488887394336 15.1117714323462 11.5
vertex 6.3 15.5 11.5
endloop
endfacet
facet normal 0.0 0.0 -1.0
outer loop
vertex 8.1 11.0 11.5
vertex 6.3 15.5 11.5
vertex 8.1 22.0 11.5
endloop
endfacet
facet normal 0.5 -0.866025403784439 0.0
outer loop
vertex 4.05 16.7990381056767 12.5
vertex 3.73933982822018 16.5606601717798 11.5
vertex 4.05 16.7990381056767 11.5
endloop
endfacet
facet normal 0.707106781186547 -0.707106781186548 0.0
outer loop
vertex 3.73933982822018 16.5606601717798 11.5
vertex 4.05 16.7990381056767 12.5
vertex 3.73933982822018 16.5606601717798 12.5
endloop
endfacet
facet normal -0.5 -0.866025403784438 0.0
outer loop
vertex 5.55 16.7990381056767 12.5
vertex 5.18822856765378 16.9488887394336 11.5
vertex 5.55 16.7990381056767 11.5
endloop
endfacet
facet normal -0.25881904510252 -0.965925826289069 0.0
outer loop
vertex 5.18822856765378 16.9488887394336 11.5
vertex 5.55 16.7990381056767 12.5
vertex 5.18822856765378 16.9488887394336 12.5
endloop
endfacet
facet normal -1.0 0.0 0.0
outer loop
vertex 6.3 15.5 12.5
vertex 6.2488887394336 15.1117714323462 11.5
vertex 6.2488887394336 15.1117714323462 12.5
endloop
endfacet
facet normal -0.965925826289068 0.258819045102521 0.0
outer loop
vertex 6.2488887394336 15.1117714323462 11.5
vertex 6.3 15.5 12.5
vertex 6.3 15.5 11.5
endloop
endfacet
facet normal 1.0 1.28180294661268e-016 -1.06312980784673e-033
outer loop
vertex 9.8 22.0 1.32185928869433e-015
vertex 9.8 -1.0 17.0
vertex 9.8 -1.0 -3.04800337982958e-016
endloop
endfacet
facet normal 1.0 1.28180294661268e-016 -1.06312980784673e-033
outer loop
vertex 9.8 -1.0 17.0
vertex 9.8 22.0 1.32185928869433e-015
vertex 9.8 22.0 17.0
endloop
endfacet
facet normal -0.25881904510252 -0.965925826289069 0.0
outer loop
vertex 5.18822856765378 16.9488887394336 12.5
vertex 4.8 17.0 11.5
vertex 5.18822856765378 16.9488887394336 11.5
endloop
endfacet
facet normal 0.0 -1.0 0.0
outer loop
vertex 4.8 17.0 11.5
vertex 5.18822856765378 16.9488887394336 12.5
vertex 4.8 17.0 12.5
endloop
endfacet
facet normal -1.73439830928002e-016 -2.64492975320288e-017 1.0
outer loop
vertex 1.5 11.0 8.8
vertex 3.3511112605664 15.1117714323462 8.8
vertex 1.5 22.0 8.8
endloop
endfacet
facet normal -1.73439830928002e-016 -2.64492975320288e-017 1.0
outer loop
vertex 3.3511112605664 15.1117714323462 8.8
vertex 1.5 11.0 8.8
vertex 3.50096189432334 14.75 8.8
endloop
endfacet
facet normal -1.73439830928002e-016 -2.64492975320288e-017 1.0
outer loop
vertex 3.50096189432334 14.75 8.8
vertex 1.5 11.0 8.8
vertex 3.73933982822018 14.4393398282202 8.8
endloop
endfacet
facet normal -1.73439830928002e-016 -2.64492975320288e-017 1.0
outer loop
vertex 3.73933982822018 14.4393398282202 8.8
vertex 1.5 11.0 8.8
vertex 8.1 11.0 8.8
endloop
endfacet
facet normal -1.73439830928002e-016 -2.64492975320288e-017 1.0
outer loop
vertex 1.5 22.0 8.8
vertex 3.3511112605664 15.1117714323462 8.8
vertex 3.3 15.5 8.8
endloop
endfacet
facet normal -1.73439830928002e-016 -2.64492975320288e-017 1.0
outer loop
vertex 3.73933982822018 14.4393398282202 8.8
vertex 8.1 11.0 8.8
vertex 4.05 14.2009618943233 8.8
endloop
endfacet
facet normal -1.73439830928002e-016 -2.64492975320288e-017 1.0
outer loop
vertex 4.05 14.2009618943233 8.8
vertex 8.1 11.0 8.8
vertex 4.41177143234622 14.0511112605664 8.8
endloop
endfacet
facet normal -1.73439830928002e-016 -2.64492975320288e-017 1.0
outer loop
vertex 4.41177143234622 14.0511112605664 8.8
vertex 8.1 11.0 8.8
vertex 4.8 14.0 8.8
endloop
endfacet
facet normal -1.73439830928002e-016 -2.64492975320288e-017 1.0
outer loop
vertex 4.8 14.0 8.8
vertex 8.1 11.0 8.8
vertex 5.18822856765378 14.0511112605664 8.8
endloop
endfacet
facet normal -1.73439830928002e-016 -2.64492975320288e-017 1.0
outer loop
vertex 5.18822856765378 14.0511112605664 8.8
vertex 8.1 11.0 8.8
vertex 5.55 14.2009618943233 8.8
endloop
endfacet
facet normal -1.73439830928002e-016 -2.64492975320288e-017 1.0
outer loop
vertex 5.55 14.2009618943233 8.8
vertex 8.1 11.0 8.8
vertex 5.86066017177982 14.4393398282202 8.8
endloop
endfacet
facet normal -1.73439830928002e-016 -2.64492975320288e-017 1.0
outer loop
vertex 5.86066017177982 14.4393398282202 8.8
vertex 8.1 11.0 8.8
vertex 6.09903810567666 14.75 8.8
endloop
endfacet
facet normal -1.73439830928002e-016 -2.64492975320288e-017 1.0
outer loop
vertex 6.09903810567666 14.75 8.8
vertex 8.1 11.0 8.8
vertex 6.2488887394336 15.1117714323462 8.8
endloop
endfacet
facet normal -1.73439830928002e-016 -2.64492975320288e-017 1.0
outer loop
vertex 6.2488887394336 15.1117714323462 8.8
vertex 8.1 11.0 8.8
vertex 6.3 15.5 8.8
endloop
endfacet
facet normal -1.73439830928002e-016 -2.64492975320288e-017 1.0
outer loop
vertex 1.5 22.0 8.8
vertex 3.73933982822018 16.5606601717798 8.8
vertex 8.1 22.0 8.8
endloop
endfacet
facet normal -1.73439830928002e-016 -2.64492975320288e-017 1.0
outer loop
vertex 3.73933982822018 16.5606601717798 8.8
vertex 1.5 22.0 8.8
vertex 3.50096189432334 16.25 8.8
endloop
endfacet
facet normal -1.73439830928002e-016 -2.64492975320288e-017 1.0
outer loop
vertex 3.50096189432334 16.25 8.8
vertex 1.5 22.0 8.8
vertex 3.3511112605664 15.8882285676538 8.8
endloop
endfacet
facet normal -1.73439830928002e-016 -2.64492975320288e-017 1.0
outer loop
vertex 3.3511112605664 15.8882285676538 8.8
vertex 1.5 22.0 8.8
vertex 3.3 15.5 8.8
endloop
endfacet
facet normal -1.73439830928002e-016 -2.64492975320288e-017 1.0
outer loop
vertex 8.1 22.0 8.8
vertex 3.73933982822018 16.5606601717798 8.8
vertex 4.05 16.7990381056767 8.8
endloop
endfacet
facet normal -1.73439830928002e-016 -2.64492975320288e-017 1.0
outer loop
vertex 8.1 22.0 8.8
vertex 4.05 16.7990381056767 8.8
vertex 4.41177143234622 16.9488887394336 8.8
endloop
endfacet
facet normal -1.73439830928002e-016 -2.64492975320288e-017 1.0
outer loop
vertex 8.1 22.0 8.8
vertex 4.41177143234622 16.9488887394336 8.8
vertex 4.8 17.0 8.8
endloop
endfacet
facet normal -1.73439830928002e-016 -2.64492975320288e-017 1.0
outer loop
vertex 8.1 22.0 8.8
vertex 4.8 17.0 8.8
vertex 5.18822856765378 16.9488887394336 8.8
endloop
endfacet
facet normal -1.73439830928002e-016 -2.64492975320288e-017 1.0
outer loop
vertex 8.1 22.0 8.8
vertex 5.18822856765378 16.9488887394336 8.8
vertex 5.55 16.7990381056767 8.8
endloop
endfacet
facet normal -1.73439830928002e-016 -2.64492975320288e-017 1.0
outer loop
vertex 8.1 22.0 8.8
vertex 5.55 16.7990381056767 8.8
vertex 5.86066017177982 16.5606601717798 8.8
endloop
endfacet
facet normal -1.73439830928002e-016 -2.64492975320288e-017 1.0
outer loop
vertex 8.1 22.0 8.8
vertex 5.86066017177982 16.5606601717798 8.8
vertex 6.09903810567666 16.25 8.8
endloop
endfacet
facet normal -1.73439830928002e-016 -2.64492975320288e-017 1.0
outer loop
vertex 8.1 22.0 8.8
vertex 6.09903810567666 16.25 8.8
vertex 6.2488887394336 15.8882285676538 8.8
endloop
endfacet
facet normal -1.73439830928002e-016 -2.64492975320288e-017 1.0
outer loop
vertex 8.1 22.0 8.8
vertex 6.2488887394336 15.8882285676538 8.8
vertex 6.3 15.5 8.8
endloop
endfacet
facet normal -1.73439830928002e-016 -2.64492975320288e-017 1.0
outer loop
vertex 8.1 22.0 8.8
vertex 6.3 15.5 8.8
vertex 8.1 11.0 8.8
endloop
endfacet
facet normal 0.0 0.0 -1.0
outer loop
vertex 3.05 22.0 7.25
vertex 3.3 15.5 7.25000000000001
vertex 3.05 -1.0 7.25
endloop
endfacet
facet normal 0.0 0.0 -1.0
outer loop
vertex 3.3 15.5 7.25000000000001
vertex 3.05 22.0 7.25
vertex 3.3511112605664 15.8882285676538 7.25000000000001
endloop
endfacet
facet normal 0.0 0.0 -1.0
outer loop
vertex 3.3511112605664 15.8882285676538 7.25000000000001
vertex 3.05 22.0 7.25
vertex 3.50096189432334 16.25 7.25000000000001
endloop
endfacet
facet normal 0.0 0.0 -1.0
outer loop
vertex 3.50096189432334 16.25 7.25000000000001
vertex 3.05 22.0 7.25
vertex 6.55 22.0 7.25
endloop
endfacet
facet normal 0.0 0.0 -1.0
outer loop
vertex 3.50096189432334 16.25 7.25000000000001
vertex 6.55 22.0 7.25
vertex 3.73933982822018 16.5606601717798 7.25000000000001
endloop
endfacet
facet normal 0.0 0.0 -1.0
outer loop
vertex 3.73933982822018 16.5606601717798 7.25000000000001
vertex 6.55 22.0 7.25
vertex 4.05 16.7990381056767 7.25000000000001
endloop
endfacet
facet normal 0.0 0.0 -1.0
outer loop
vertex 4.05 16.7990381056767 7.25000000000001
vertex 6.55 22.0 7.25
vertex 4.41177143234622 16.9488887394336 7.25000000000001
endloop
endfacet
facet normal 0.0 0.0 -1.0
outer loop
vertex 4.41177143234622 16.9488887394336 7.25000000000001
vertex 6.55 22.0 7.25
vertex 4.8 17.0 7.25000000000001
endloop
endfacet
facet normal 0.0 0.0 -1.0
outer loop
vertex 4.8 17.0 7.25000000000001
vertex 6.55 22.0 7.25
vertex 5.18822856765378 16.9488887394336 7.25000000000001
endloop
endfacet
facet normal 0.0 0.0 -1.0
outer loop
vertex 5.18822856765378 16.9488887394336 7.25000000000001
vertex 6.55 22.0 7.25
vertex 5.55 16.7990381056767 7.25000000000001
endloop
endfacet
facet normal 0.0 0.0 -1.0
outer loop
vertex 5.55 16.7990381056767 7.25000000000001
vertex 6.55 22.0 7.25
vertex 5.86066017177982 16.5606601717798 7.25000000000001
endloop
endfacet
facet normal 0.0 0.0 -1.0
outer loop
vertex 5.86066017177982 16.5606601717798 7.25000000000001
vertex 6.55 22.0 7.25
vertex 6.09903810567666 16.25 7.25000000000001
endloop
endfacet
facet normal 0.0 0.0 -1.0
outer loop
vertex 6.09903810567666 16.25 7.25000000000001
vertex 6.55 22.0 7.25
vertex 6.2488887394336 15.8882285676538 7.25000000000001
endloop
endfacet
facet normal 0.0 0.0 -1.0
outer loop
vertex 6.2488887394336 15.8882285676538 7.25000000000001
vertex 6.55 22.0 7.25
vertex 6.3 15.5 7.25000000000001
endloop
endfacet
facet normal 0.0 0.0 -1.0
outer loop
vertex 3.05 -1.0 7.25
vertex 3.3511112605664 15.1117714323462 7.25000000000001
vertex 6.55 -1.0 7.25
endloop
endfacet
facet normal 0.0 0.0 -1.0
outer loop
vertex 3.3511112605664 15.1117714323462 7.25000000000001
vertex 3.05 -1.0 7.25
vertex 3.3 15.5 7.25000000000001
endloop
endfacet
facet normal 0.0 0.0 -1.0
outer loop
vertex 6.55 -1.0 7.25
vertex 3.3511112605664 15.1117714323462 7.25000000000001
vertex 3.50096189432334 14.75 7.25000000000001
endloop
endfacet
facet normal 0.0 0.0 -1.0
outer loop
vertex 6.55 -1.0 7.25
vertex 3.50096189432334 14.75 7.25000000000001
vertex 3.73933982822018 14.4393398282202 7.25000000000001
endloop
endfacet
facet normal 0.0 0.0 -1.0
outer loop
vertex 6.55 -1.0 7.25
vertex 3.73933982822018 14.4393398282202 7.25000000000001
vertex 4.05 14.2009618943233 7.25000000000001
endloop
endfacet
facet normal 0.0 0.0 -1.0
outer loop
vertex 6.55 -1.0 7.25
vertex 4.05 14.2009618943233 7.25000000000001
vertex 4.41177143234622 14.0511112605664 7.25000000000001
endloop
endfacet
facet normal 0.0 0.0 -1.0
outer loop
vertex 6.55 -1.0 7.25
vertex 4.41177143234622 14.0511112605664 7.25000000000001
vertex 4.8 14.0 7.25000000000001
endloop
endfacet
facet normal 0.0 0.0 -1.0
outer loop
vertex 6.55 -1.0 7.25
vertex 4.8 14.0 7.25000000000001
vertex 5.18822856765378 14.0511112605664 7.25000000000001
endloop
endfacet
facet normal 0.0 0.0 -1.0
outer loop
vertex 6.55 -1.0 7.25
vertex 5.18822856765378 14.0511112605664 7.25000000000001
vertex 5.55 14.2009618943233 7.25000000000001
endloop
endfacet
facet normal 0.0 0.0 -1.0
outer loop
vertex 6.55 -1.0 7.25
vertex 5.55 14.2009618943233 7.25000000000001
vertex 5.86066017177982 14.4393398282202 7.25000000000001
endloop
endfacet
facet normal 0.0 0.0 -1.0
outer loop
vertex 6.55 -1.0 7.25
vertex 5.86066017177982 14.4393398282202 7.25000000000001
vertex 6.09903810567666 14.75 7.25000000000001
endloop
endfacet
facet normal 0.0 0.0 -1.0
outer loop
vertex 6.55 -1.0 7.25
vertex 6.09903810567666 14.75 7.25000000000001
vertex 6.2488887394336 15.1117714323462 7.25000000000001
endloop
endfacet
facet normal 0.0 0.0 -1.0
outer loop
vertex 6.55 -1.0 7.25
vertex 6.2488887394336 15.1117714323462 7.25000000000001
vertex 6.3 15.5 7.25000000000001
endloop
endfacet
facet normal 0.0 0.0 -1.0
outer loop
vertex 6.55 -1.0 7.25
vertex 6.3 15.5 7.25000000000001
vertex 6.55 22.0 7.25
endloop
endfacet
facet normal 1.0 6.4090147330634e-017 1.08808081354109e-032
outer loop
vertex 3.05 -1.0 3.75
vertex 3.05 22.0 7.25
vertex 3.05 -1.0 7.25
endloop
endfacet
facet normal 1.0 6.4090147330634e-017 1.08808081354109e-032
outer loop
vertex 3.05 22.0 7.25
vertex 3.05 -1.0 3.75
vertex 3.05 22.0 3.75
endloop
endfacet
facet normal 0.25881904510252 0.965925826289068 0.0
outer loop
vertex 4.41177143234622 14.0511112605664 8.8
vertex 4.8 14.0 7.25000000000001
vertex 4.41177143234622 14.0511112605664 7.25000000000001
endloop
endfacet
facet normal 2.22777747391173e-016 1.0 0.0
outer loop
vertex 4.8 14.0 7.25000000000001
vertex 4.41177143234622 14.0511112605664 8.8
vertex 4.8 14.0 8.8
endloop
endfacet
facet normal 2.22777747391173e-016 1.0 0.0
outer loop
vertex 4.8 14.0 8.8
vertex 5.18822856765378 14.0511112605664 7.25000000000001
vertex 4.8 14.0 7.25000000000001
endloop
endfacet
facet normal -0.25881904510252 0.965925826289068 0.0
outer loop
vertex 5.18822856765378 14.0511112605664 7.25000000000001
vertex 4.8 14.0 8.8
vertex 5.18822856765378 14.0511112605664 8.8
endloop
endfacet
facet normal -0.25881904510252 0.965925826289068 0.0
outer loop
vertex 5.18822856765378 14.0511112605664 8.8
vertex 5.55 14.2009618943233 7.25000000000001
vertex 5.18822856765378 14.0511112605664 7.25000000000001
endloop
endfacet
facet normal -0.5 0.866025403784438 0.0
outer loop
vertex 5.55 14.2009618943233 7.25000000000001
vertex 5.18822856765378 14.0511112605664 8.8
vertex 5.55 14.2009618943233 8.8
endloop
endfacet
facet normal -0.5 0.866025403784438 0.0
outer loop
vertex 5.55 14.2009618943233 8.8
vertex 5.86066017177982 14.4393398282202 7.25000000000001
vertex 5.55 14.2009618943233 7.25000000000001
endloop
endfacet
facet normal -0.707106781186549 0.707106781186546 0.0
outer loop
vertex 5.86066017177982 14.4393398282202 7.25000000000001
vertex 5.55 14.2009618943233 8.8
vertex 5.86066017177982 14.4393398282202 8.8
endloop
endfacet
facet normal -0.866025403784439 0.499999999999999 0.0
outer loop
vertex 6.09903810567666 14.75 8.8
vertex 5.86066017177982 14.4393398282202 7.25000000000001
vertex 5.86066017177982 14.4393398282202 8.8
endloop
endfacet
facet normal -0.707106781186549 0.707106781186546 0.0
outer loop
vertex 5.86066017177982 14.4393398282202 7.25000000000001
vertex 6.09903810567666 14.75 8.8
vertex 6.09903810567666 14.75 7.25000000000001
endloop
endfacet
facet normal -0.965925826289068 0.258819045102521 0.0
outer loop
vertex 6.2488887394336 15.1117714323462 8.8
vertex 6.09903810567666 14.75 7.25000000000001
vertex 6.09903810567666 14.75 8.8
endloop
endfacet
facet normal -0.866025403784439 0.499999999999999 0.0
outer loop
vertex 6.09903810567666 14.75 7.25000000000001
vertex 6.2488887394336 15.1117714323462 8.8
vertex 6.2488887394336 15.1117714323462 7.25000000000001
endloop
endfacet
facet normal -1.0 0.0 0.0
outer loop
vertex 6.3 15.5 8.8
vertex 6.2488887394336 15.1117714323462 7.25000000000001
vertex 6.2488887394336 15.1117714323462 8.8
endloop
endfacet
facet normal -0.965925826289068 0.258819045102521 0.0
outer loop
vertex 6.2488887394336 15.1117714323462 7.25000000000001
vertex 6.3 15.5 8.8
vertex 6.3 15.5 7.25000000000001
endloop
endfacet
facet normal -0.965925826289068 -0.25881904510252 0.0
outer loop
vertex 6.2488887394336 15.8882285676538 8.8
vertex 6.3 15.5 7.25000000000001
vertex 6.3 15.5 8.8
endloop
endfacet
facet normal -1.0 0.0 0.0
outer loop
vertex 6.3 15.5 7.25000000000001
vertex 6.2488887394336 15.8882285676538 8.8
vertex 6.2488887394336 15.8882285676538 7.25000000000001
endloop
endfacet
facet normal -0.866025403784438 -0.500000000000001 0.0
outer loop
vertex 6.09903810567666 16.25 8.8
vertex 6.2488887394336 15.8882285676538 7.25000000000001
vertex 6.2488887394336 15.8882285676538 8.8
endloop
endfacet
facet normal -0.965925826289068 -0.25881904510252 0.0
outer loop
vertex 6.2488887394336 15.8882285676538 7.25000000000001
vertex 6.09903810567666 16.25 8.8
vertex 6.09903810567666 16.25 7.25000000000001
endloop
endfacet
facet normal -0.707106781186547 -0.707106781186548 0.0
outer loop
vertex 5.86066017177982 16.5606601717798 8.8
vertex 6.09903810567666 16.25 7.25000000000001
vertex 6.09903810567666 16.25 8.8
endloop
endfacet
facet normal -0.866025403784438 -0.500000000000001 0.0
outer loop
vertex 6.09903810567666 16.25 7.25000000000001
vertex 5.86066017177982 16.5606601717798 8.8
vertex 5.86066017177982 16.5606601717798 7.25000000000001
endloop
endfacet
facet normal -0.707106781186547 -0.707106781186548 0.0
outer loop
vertex 5.86066017177982 16.5606601717798 8.8
vertex 5.55 16.7990381056767 7.25000000000001
vertex 5.86066017177982 16.5606601717798 7.25000000000001
endloop
endfacet
facet normal -0.5 -0.866025403784439 0.0
outer loop
vertex 5.55 16.7990381056767 7.25000000000001
vertex 5.86066017177982 16.5606601717798 8.8
vertex 5.55 16.7990381056767 8.8
endloop
endfacet
facet normal -0.5 -0.866025403784439 0.0
outer loop
vertex 5.55 16.7990381056767 8.8
vertex 5.18822856765378 16.9488887394336 7.25000000000001
vertex 5.55 16.7990381056767 7.25000000000001
endloop
endfacet
facet normal -0.25881904510252 -0.965925826289068 0.0
outer loop
vertex 5.18822856765378 16.9488887394336 7.25000000000001
vertex 5.55 16.7990381056767 8.8
vertex 5.18822856765378 16.9488887394336 8.8
endloop
endfacet
facet normal -0.25881904510252 -0.965925826289068 0.0
outer loop
vertex 5.18822856765378 16.9488887394336 8.8
vertex 4.8 17.0 7.25000000000001
vertex 5.18822856765378 16.9488887394336 7.25000000000001
endloop
endfacet
facet normal -1.06933318747763e-016 -1.0 0.0
outer loop
vertex 4.8 17.0 7.25000000000001
vertex 5.18822856765378 16.9488887394336 8.8
vertex 4.8 17.0 8.8
endloop
endfacet
facet normal -1.06933318747763e-016 -1.0 0.0
outer loop
vertex 4.8 17.0 8.8
vertex 4.41177143234622 16.9488887394336 7.25000000000001
vertex 4.8 17.0 7.25000000000001
endloop
endfacet
facet normal 0.25881904510252 -0.965925826289068 0.0
outer loop
vertex 4.41177143234622 16.9488887394336 7.25000000000001
vertex 4.8 17.0 8.8
vertex 4.41177143234622 16.9488887394336 8.8
endloop
endfacet
facet normal 0.25881904510252 -0.965925826289068 0.0
outer loop
vertex 4.41177143234622 16.9488887394336 8.8
vertex 4.05 16.7990381056767 7.25000000000001
vertex 4.41177143234622 16.9488887394336 7.25000000000001
endloop
endfacet
facet normal 0.5 -0.866025403784439 0.0
outer loop
vertex 4.05 16.7990381056767 7.25000000000001
vertex 4.41177143234622 16.9488887394336 8.8
vertex 4.05 16.7990381056767 8.8
endloop
endfacet
facet normal 0.5 -0.866025403784439 0.0
outer loop
vertex 4.05 16.7990381056767 8.8
vertex 3.73933982822018 16.5606601717798 7.25000000000001
vertex 4.05 16.7990381056767 7.25000000000001
endloop
endfacet
facet normal 0.707106781186549 -0.707106781186546 0.0
outer loop
vertex 3.73933982822018 16.5606601717798 7.25000000000001
vertex 4.05 16.7990381056767 8.8
vertex 3.73933982822018 16.5606601717798 8.8
endloop
endfacet
facet normal 0.707106781186549 -0.707106781186546 0.0
outer loop
vertex 3.73933982822018 16.5606601717798 7.25000000000001
vertex 3.50096189432334 16.25 8.8
vertex 3.50096189432334 16.25 7.25000000000001
endloop
endfacet
facet normal 0.866025403784439 -0.499999999999999 0.0
outer loop
vertex 3.50096189432334 16.25 8.8
vertex 3.73933982822018 16.5606601717798 7.25000000000001
vertex 3.73933982822018 16.5606601717798 8.8
endloop
endfacet
facet normal 0.866025403784439 -0.499999999999999 0.0
outer loop
vertex 3.50096189432334 16.25 7.25000000000001
vertex 3.3511112605664 15.8882285676538 8.8
vertex 3.3511112605664 15.8882285676538 7.25000000000001
endloop
endfacet
facet normal 0.965925826289068 -0.258819045102521 0.0
outer loop
vertex 3.3511112605664 15.8882285676538 8.8
vertex 3.50096189432334 16.25 7.25000000000001
vertex 3.50096189432334 16.25 8.8
endloop
endfacet
facet normal 0.965925826289068 -0.258819045102521 0.0
outer loop
vertex 3.3511112605664 15.8882285676538 7.25000000000001
vertex 3.3 15.5 8.8
vertex 3.3 15.5 7.25000000000001
endloop
endfacet
facet normal 1.0 0.0 0.0
outer loop
vertex 3.3 15.5 8.8
vertex 3.3511112605664 15.8882285676538 7.25000000000001
vertex 3.3511112605664 15.8882285676538 8.8
endloop
endfacet
facet normal 1.0 0.0 0.0
outer loop
vertex 3.3 15.5 7.25000000000001
vertex 3.3511112605664 15.1117714323462 8.8
vertex 3.3511112605664 15.1117714323462 7.25000000000001
endloop
endfacet
facet normal 0.965925826289068 0.25881904510252 0.0
outer loop
vertex 3.3511112605664 15.1117714323462 8.8
vertex 3.3 15.5 7.25000000000001
vertex 3.3 15.5 8.8
endloop
endfacet
facet normal 0.965925826289068 0.25881904510252 0.0
outer loop
vertex 3.3511112605664 15.1117714323462 7.25000000000001
vertex 3.50096189432334 14.75 8.8
vertex 3.50096189432334 14.75 7.25000000000001
endloop
endfacet
facet normal 0.866025403784438 0.500000000000001 0.0
outer loop
vertex 3.50096189432334 14.75 8.8
vertex 3.3511112605664 15.1117714323462 7.25000000000001
vertex 3.3511112605664 15.1117714323462 8.8
endloop
endfacet
facet normal 0.866025403784438 0.500000000000001 0.0
outer loop
vertex 3.50096189432334 14.75 7.25000000000001
vertex 3.73933982822018 14.4393398282202 8.8
vertex 3.73933982822018 14.4393398282202 7.25000000000001
endloop
endfacet
facet normal 0.707106781186547 0.707106781186548 0.0
outer loop
vertex 3.73933982822018 14.4393398282202 8.8
vertex 3.50096189432334 14.75 7.25000000000001
vertex 3.50096189432334 14.75 8.8
endloop
endfacet
facet normal 0.707106781186547 0.707106781186548 0.0
outer loop
vertex 3.73933982822018 14.4393398282202 8.8
vertex 4.05 14.2009618943233 7.25000000000001
vertex 3.73933982822018 14.4393398282202 7.25000000000001
endloop
endfacet
facet normal 0.5 0.866025403784439 0.0
outer loop
vertex 4.05 14.2009618943233 7.25000000000001
vertex 3.73933982822018 14.4393398282202 8.8
vertex 4.05 14.2009618943233 8.8
endloop
endfacet
facet normal 0.5 0.866025403784439 0.0
outer loop
vertex 4.05 14.2009618943233 8.8
vertex 4.41177143234622 14.0511112605664 7.25000000000001
vertex 4.05 14.2009618943233 7.25000000000001
endloop
endfacet
facet normal 0.25881904510252 0.965925826289068 0.0
outer loop
vertex 4.41177143234622 14.0511112605664 7.25000000000001
vertex 4.05 14.2009618943233 8.8
vertex 4.41177143234622 14.0511112605664 8.8
endloop
endfacet
facet normal -0.224393258238898 -0.974498674014968 0.0
outer loop
vertex -1.00000000000003 17.6488328276589 11.4759462309417
vertex -2.50000000000003 17.994230821862 1.32185928869433e-015
vertex -1.00000000000003 17.6488328276589 1.32185928869433e-015
endloop
endfacet
facet normal -0.224393258238898 -0.974498674014968 0.0
outer loop
vertex -2.50000000000003 17.994230821862 1.32185928869433e-015
vertex -1.00000000000003 17.6488328276589 11.4759462309417
vertex -2.50000000000003 17.994230821862 11.4759462309417
endloop
endfacet
facet normal -1.0 7.04991620636972e-015 0.0
outer loop
vertex -2.50000000000003 18.494230821862 11.4759462309417
vertex -2.50000000000003 17.994230821862 1.32185928869433e-015
vertex -2.50000000000003 17.994230821862 11.4759462309417
endloop
endfacet
facet normal -1.0 7.04991620636972e-015 0.0
outer loop
vertex -2.50000000000003 17.994230821862 1.32185928869433e-015
vertex -2.50000000000003 18.494230821862 11.4759462309417
vertex -2.50000000000003 18.494230821862 1.32185928869433e-015
endloop
endfacet
facet normal -0.999999999713999 -2.3916579766902e-005 1.53579728128788e-017
outer loop
vertex -1.00000000000003 17.6488328276589 11.4759462309417
vertex -0.999976083420191 16.6488328247989 1.39601066289992e-015
vertex -0.99997608342019 16.6488328247989 11.4759462309417
endloop
endfacet
facet normal -0.999999999713999 -2.3916579766902e-005 1.53579728128788e-017
outer loop
vertex -0.999976083420191 16.6488328247989 1.39601066289992e-015
vertex -1.00000000000003 17.6488328276589 11.4759462309417
vertex -1.00000000000003 17.6488328276589 1.32185928869433e-015
endloop
endfacet
facet normal -0.224396659776092 -0.974497890752634 3.81388034216426e-018
outer loop
vertex -1.00002395596847 15.4488328305283 2.64489512362516e-015
vertex -2.50000000000005 15.794230821862 11.4759462309417
vertex -2.50000000000005 15.794230821862 2.6115241685168e-015
endloop
endfacet
facet normal -0.224396659776092 -0.974497890752634 3.81388034216426e-018
outer loop
vertex -2.50000000000005 15.794230821862 11.4759462309417
vertex -1.00002395596847 15.4488328305283 2.64489512362516e-015
vertex -1.00002395596847 15.4488328305283 11.4759462309417
endloop
endfacet
facet normal -1.0 7.04991620636972e-015 0.0
outer loop
vertex -2.50000000000004 16.294230821862 11.4759462309417
vertex -2.50000000000005 15.794230821862 2.6115241685168e-015
vertex -2.50000000000005 15.794230821862 11.4759462309417
endloop
endfacet
facet normal -1.0 7.04991620636972e-015 0.0
outer loop
vertex -2.50000000000005 15.794230821862 2.6115241685168e-015
vertex -2.50000000000004 16.294230821862 11.4759462309417
vertex -2.50000000000004 16.294230821862 2.574448481414e-015
endloop
endfacet
facet normal -0.230056726309671 0.973177220592261 4.13506764624122e-018
outer loop
vertex -2.50000000000004 16.294230821862 2.574448481414e-015
vertex -0.99997608342019 16.6488328247989 11.4759462309417
vertex -0.999976083420191 16.6488328247989 1.39601066289992e-015
endloop
endfacet
facet normal -0.230056726309671 0.973177220592261 4.13506764624122e-018
outer loop
vertex -0.99997608342019 16.6488328247989 11.4759462309417
vertex -2.50000000000004 16.294230821862 2.574448481414e-015
vertex -2.50000000000004 16.294230821862 11.4759462309417
endloop
endfacet
facet normal -0.999999999082853 4.2828649605917e-005 1.53260598407739e-017
outer loop
vertex -1.00002395596847 15.4488328305283 11.4759462309417
vertex -1.0000660895677 14.4650614630876 5.52832706412932e-015
vertex -1.0000660895677 14.4650614630876 11.5
endloop
endfacet
facet normal -0.999999999082853 4.2828649605917e-005 1.53260598407739e-017
outer loop
vertex -1.0000660895677 14.4650614630876 5.52832706412932e-015
vertex -1.00002395596847 15.4488328305283 11.4759462309417
vertex -1.00002395596847 15.4488328305283 2.64489512362516e-015
endloop
endfacet
facet normal -0.210423483881718 -0.977610330055427 0.0
outer loop
vertex -1.00011237792329 13.2713707681234 5.60388805967312e-015
vertex -2.50009388495807 13.59423083288 11.5
vertex -2.50009388495807 13.59423083288 5.45260709430608e-015
endloop
endfacet
facet normal -0.210423483881718 -0.977610330055427 0.0
outer loop
vertex -2.50009388495807 13.59423083288 11.5
vertex -1.00011237792329 13.2713707681234 5.60388805967312e-015
vertex -1.00011237792329 13.2713707681234 11.5
endloop
endfacet
facet normal -1.0 5.63993296509577e-015 -8.8492299080403e-017
outer loop
vertex -2.50009388495807 14.09423083288 11.5
vertex -2.50009388495807 13.59423083288 5.45260709430608e-015
vertex -2.50009388495807 13.59423083288 11.5
endloop
endfacet
facet normal -1.0 5.63993296509577e-015 -8.8492299080403e-017
outer loop
vertex -2.50009388495807 13.59423083288 5.45260709430608e-015
vertex -2.50009388495807 14.09423083288 11.5
vertex -2.50009388495807 14.09423083288 5.41482659653418e-015
endloop
endfacet
facet normal -0.23999098509826 0.970775116631842 0.0
outer loop
vertex -2.50009388495807 14.09423083288 11.5
vertex -1.0000660895677 14.4650614630876 5.52832706412932e-015
vertex -2.50009388495807 14.09423083288 5.41482659653418e-015
endloop
endfacet
facet normal -0.23999098509826 0.970775116631842 0.0
outer loop
vertex -1.0000660895677 14.4650614630876 5.52832706412932e-015
vertex -2.50009388495807 14.09423083288 11.5
vertex -1.0000660895677 14.4650614630876 11.5
endloop
endfacet
facet normal -0.999999999997767 2.11331615732944e-006 0.0
outer loop
vertex -1.00011237792329 13.2713707681234 11.5
vertex -1.00011450444323 12.2651228716343 5.75360042942251e-015
vertex -1.00011450444323 12.2651228716343 11.5
endloop
endfacet
facet normal -0.999999999997767 2.11331615732944e-006 0.0
outer loop
vertex -1.00011450444323 12.2651228716343 5.75360042942251e-015
vertex -1.00011237792329 13.2713707681234 11.5
vertex -1.00011237792329 13.2713707681234 5.60388805967312e-015
endloop
endfacet
facet normal -0.224393258238898 -0.974498674014968 0.0
outer loop
vertex -1.00014229674773 11.0488328445325 7.07804588569156e-015
vertex -2.50014229674773 11.3942308387356 11.5
vertex -2.50014229674773 11.3942308387356 6.89339396521615e-015
endloop
endfacet
facet normal -0.224393258238898 -0.974498674014968 0.0
outer loop
vertex -2.50014229674773 11.3942308387356 11.5
vertex -1.00014229674773 11.0488328445325 7.07804588569156e-015
vertex -1.00014229674773 11.0488328445325 11.5
endloop
endfacet
facet normal -1.0 8.45989944764366e-015 0.0
outer loop
vertex -2.50014229674772 11.8942308387356 11.5
vertex -2.50014229674773 11.3942308387356 6.89339396521615e-015
vertex -2.50014229674773 11.3942308387356 11.5
endloop
endfacet
facet normal -1.0 8.45989944764366e-015 0.0
outer loop
vertex -2.50014229674773 11.3942308387356 6.89339396521615e-015
vertex -2.50014229674772 11.8942308387356 11.5
vertex -2.50014229674772 11.8942308387356 6.81853778034145e-015
endloop
endfacet
facet normal -0.240028434353827 0.970765857816214 1.06070022216242e-018
outer loop
vertex -2.50014229674772 11.8942308387356 6.81853778034145e-015
vertex -1.00011450444323 12.2651228716343 11.5
vertex -1.00011450444323 12.2651228716343 5.75360042942251e-015
endloop
endfacet
facet normal -0.240028434353827 0.970765857816214 1.06070022216242e-018
outer loop
vertex -1.00011450444323 12.2651228716343 11.5
vertex -2.50014229674772 11.8942308387356 6.81853778034145e-015
vertex -2.50014229674772 11.8942308387356 11.5
endloop
endfacet
facet normal -0.999999989875818 -0.000142296743821886 1.76322016634482e-015
outer loop
vertex -1.00000000000004 10.048832827659 11.5
vertex -1.00014229674773 11.0488328445325 7.07804588569156e-015
vertex -1.00000000000008 10.0488328276589 1.00370388217395e-014
endloop
endfacet
facet normal -0.999999989875818 -0.000142296743821886 1.76322016634482e-015
outer loop
vertex -1.00014229674773 11.0488328445325 7.07804588569156e-015
vertex -1.00000000000004 10.048832827659 11.5
vertex -1.00014229674773 11.0488328445325 11.5
endloop
endfacet
facet normal -0.237564738251295 -0.97137170801892 1.11033679913579e-014
outer loop
vertex -1.00002898784974 8.82738853281407 2.17901626343514e-014
vertex -2.50000000000004 9.19423082186209 11.5
vertex -2.50000000000009 9.19423082186196 2.16388816689843e-014
endloop
endfacet
facet normal -0.237564738251295 -0.97137170801892 1.11033679913579e-014
outer loop
vertex -2.50000000000004 9.19423082186209 11.5
vertex -1.00002898784974 8.82738853281407 2.17901626343514e-014
vertex -1.0000289878497 8.82738853281419 11.5
endloop
endfacet
facet normal -1.0 7.04991620636972e-015 3.7753671936607e-015
outer loop
vertex -2.50000000000004 9.19423082186209 11.5
vertex -2.50000000000009 9.69423082186197 2.16011011712124e-014
vertex -2.50000000000009 9.19423082186196 2.16388816689843e-014
endloop
endfacet
facet normal -1.0 7.04991620636972e-015 3.7753671936607e-015
outer loop
vertex -2.50000000000009 9.69423082186197 2.16011011712124e-014
vertex -2.50000000000004 9.19423082186209 11.5
vertex -2.50000000000003 9.69423082186209 11.5
endloop
endfacet
facet normal -0.230060202037048 0.973176398932215 -9.19320000285082e-015
outer loop
vertex -2.50000000000009 9.69423082186197 2.16011011712124e-014
vertex -1.00000000000004 10.048832827659 11.5
vertex -1.00000000000008 10.0488328276589 1.00370388217395e-014
endloop
endfacet
facet normal -0.230060202037048 0.973176398932215 -9.19320000285082e-015
outer loop
vertex -1.00000000000004 10.048832827659 11.5
vertex -2.50000000000009 9.69423082186197 2.16011011712124e-014
vertex -2.50000000000003 9.69423082186209 11.5
endloop
endfacet
facet normal -0.232833110555721 -0.97251670557834 8.75017965141421e-034
outer loop
vertex -1.00002714999766 6.63511787047311 2.32643204603698e-014
vertex -2.5000000000001 6.99423082186196 11.5
vertex -2.5000000000001 6.99423082186196 2.30796685398944e-014
endloop
endfacet
facet normal -0.232833110555721 -0.97251670557834 8.75017965141421e-034
outer loop
vertex -2.5000000000001 6.99423082186196 11.5
vertex -1.00002714999766 6.63511787047311 2.32643204603698e-014
vertex -1.00002714999766 6.63511787047311 11.5
endloop
endfacet
facet normal -1.0 7.04991620636972e-015 1.12744011758415e-032
outer loop
vertex -2.5000000000001 7.49423082186197 11.5
vertex -2.5000000000001 6.99423082186196 2.30796685398944e-014
vertex -2.5000000000001 6.99423082186196 11.5
endloop
endfacet
facet normal -1.0 7.04991620636972e-015 1.12744011758415e-032
outer loop
vertex -2.5000000000001 6.99423082186196 2.30796685398944e-014
vertex -2.5000000000001 7.49423082186197 11.5
vertex -2.5000000000001 7.49423082186197 2.30048123550197e-014
endloop
endfacet
facet normal -0.233739133776763 0.972299345541942 1.06802027404656e-018
outer loop
vertex -2.5000000000001 7.49423082186197 2.30048123550197e-014
vertex -0.999974668989948 7.8548343984468 11.5
vertex -0.999974668989948 7.8548343984468 2.19398750041008e-014
endloop
endfacet
facet normal -0.233739133776763 0.972299345541942 1.06802027404656e-018
outer loop
vertex -0.999974668989948 7.8548343984468 11.5
vertex -2.5000000000001 7.49423082186197 2.30048123550197e-014
vertex -2.5000000000001 7.49423082186197 11.5
endloop
endfacet
facet normal -0.226000591342344 -0.974127164549327 4.51024059406171e-033
outer loop
vertex -1.00006666592112 4.46979851930985 11.5
vertex -2.50004216623584 4.81779759212801 2.05703473027344e-014
vertex -1.00006666592112 4.46979851930985 2.05703473027344e-014
endloop
endfacet
facet normal -0.226000591342344 -0.974127164549327 4.51024059406171e-033
outer loop
vertex -2.50004216623584 4.81779759212801 2.05703473027344e-014
vertex -1.00006666592112 4.46979851930985 11.5
vertex -2.50004216623584 4.81779759212801 11.5
endloop
endfacet
facet normal -1.0 8.45989944764366e-015 0.0
outer loop
vertex -2.50004216623584 5.31779759212801 11.5
vertex -2.50004216623584 4.81779759212801 2.05703473027344e-014
vertex -2.50004216623584 4.81779759212801 11.5
endloop
endfacet
facet normal -1.0 8.45989944764366e-015 0.0
outer loop
vertex -2.50004216623584 4.81779759212801 2.05703473027344e-014
vertex -2.50004216623584 5.31779759212801 11.5
vertex -2.50004216623584 5.31779759212801 2.05703473027344e-014
endloop
endfacet
facet normal -0.235877075829525 0.971782900188161 3.65209009084803e-033
outer loop
vertex -2.50004216623584 5.31779759212801 11.5
vertex -1.00001600174398 5.6818930966688 2.05703473027344e-014
vertex -2.50004216623584 5.31779759212801 2.05703473027344e-014
endloop
endfacet
facet normal -0.235877075829525 0.971782900188161 3.65209009084803e-033
outer loop
vertex -1.00001600174398 5.6818930966688 2.05703473027344e-014
vertex -2.50004216623584 5.31779759212801 11.5
vertex -1.00001600174398 5.6818930966688 11.5
endloop
endfacet
facet normal -0.214074917347265 -0.976817244812335 5.98279198497659e-016
outer loop
vertex -1.00010127459074 2.32561881807285 2.18933831376652e-014
vertex -2.50008136339558 2.65434777452687 11.5
vertex -2.50008136339558 2.65434777452686 2.18600121825568e-014
endloop
endfacet
facet normal -0.214074917347265 -0.976817244812335 5.98279198497659e-016
outer loop
vertex -2.50008136339558 2.65434777452687 11.5
vertex -1.00010127459074 2.32561881807285 2.18933831376652e-014
vertex -1.00010127459074 2.32561881807286 11.5
endloop
endfacet
facet normal -1.0 5.63993296509578e-015 -3.46030162755202e-030
outer loop
vertex -2.50008136339558 2.65434777452687 11.5
vertex -2.50008136339558 3.15434777452686 2.1822936495454e-014
vertex -2.50008136339558 2.65434777452686 2.18600121825568e-014
endloop
endfacet
facet normal -1.0 5.63993296509578e-015 -3.46030162755202e-030
outer loop
vertex -2.50008136339558 3.15434777452686 2.1822936495454e-014
vertex -2.50008136339558 2.65434777452687 11.5
vertex -2.50008136339558 3.15434777452687 11.5
endloop
endfacet
facet normal -0.230060202037046 0.973176398932215 -5.95769278232188e-016
outer loop
vertex -2.50008136339558 3.15434777452686 2.1822936495454e-014
vertex -1.00008136339558 3.50894978032377 11.5
vertex -1.00008136339558 3.50894978032377 2.064449867694e-014
endloop
endfacet
facet normal -0.230060202037046 0.973176398932215 -5.95769278232188e-016
outer loop
vertex -1.00008136339558 3.50894978032377 11.5
vertex -2.50008136339558 3.15434777452686 2.1822936495454e-014
vertex -2.50008136339558 3.15434777452687 11.5
endloop
endfacet
facet normal -0.224393258238898 -0.974498674014968 2.71397043109729e-017
outer loop
vertex -1.0000813633956 0.108949780323764 2.48523760737132e-014
vertex -2.5000813633956 0.45434777452686 11.4974051758351
vertex -2.5000813633956 0.454347774526859 2.47010951083461e-014
endloop
endfacet
facet normal -0.224393258238898 -0.974498674014968 2.71397043109729e-017
outer loop
vertex -2.5000813633956 0.45434777452686 11.4974051758351
vertex -1.0000813633956 0.108949780323764 2.48523760737132e-014
vertex -1.0000813633956 0.108949780323764 11.4974051758351
endloop
endfacet
facet normal -1.0 5.63993296509577e-015 -9.54996882641923e-032
outer loop
vertex -2.5000813633956 0.45434777452686 11.4974051758351
vertex -2.5000813633956 0.954347774526862 2.46633146105742e-014
vertex -2.5000813633956 0.454347774526859 2.47010951083461e-014
endloop
endfacet
facet normal -1.0 5.63993296509577e-015 -9.54996882641923e-032
outer loop
vertex -2.5000813633956 0.954347774526862 2.46633146105742e-014
vertex -2.5000813633956 0.45434777452686 11.4974051758351
vertex -2.5000813633956 0.954347774526862 11.4974051758351
endloop
endfacet
facet normal -0.230060202037047 0.973176398932215 -2.92166738228625e-018
outer loop
vertex -2.5000813633956 0.954347774526862 11.4974051758351
vertex -1.00008136339559 1.30894978032376 2.47768150781694e-014
vertex -2.5000813633956 0.954347774526862 2.46633146105742e-014
endloop
endfacet
facet normal -0.230060202037047 0.973176398932215 -2.92166738228625e-018
outer loop
vertex -1.00008136339559 1.30894978032376 2.47768150781694e-014
vertex -2.5000813633956 0.954347774526862 11.4974051758351
vertex -1.00008136339559 1.30894978032376 11.4974051758351
endloop
endfacet
facet normal -0.99999999993161 -1.1695304175875e-005 5.37379369491572e-023
outer loop
vertex -1.00002714999766 6.63511787047311 11.5
vertex -1.00001600174398 5.6818930966688 2.05703473027344e-014
vertex -1.00001600174398 5.6818930966688 11.5
endloop
endfacet
facet normal -0.99999999993161 -1.1695304175875e-005 5.37379369491572e-023
outer loop
vertex -1.00001600174398 5.6818930966688 2.05703473027344e-014
vertex -1.00002714999766 6.63511787047311 11.5
vertex -1.00002714999766 6.63511787047311 2.32643204603698e-014
endloop
endfacet
facet normal -0.999999999883011 1.52963456811219e-005 -4.66006740739707e-021
outer loop
vertex -1.00008136339558 3.50894978032377 11.5
vertex -1.00006666592112 4.46979851930985 2.05703473027344e-014
vertex -1.00008136339558 3.50894978032377 2.064449867694e-014
endloop
endfacet
facet normal -0.999999999883011 1.52963456811219e-005 -4.66006740739707e-021
outer loop
vertex -1.00006666592112 4.46979851930985 2.05703473027344e-014
vertex -1.00008136339558 3.50894978032377 11.5
vertex -1.00006666592112 4.46979851930985 11.5
endloop
endfacet
facet normal -0.999999999808219 -1.95847364301591e-005 -1.53199905386782e-017
outer loop
vertex -1.00010127459074 2.32561881807286 11.5
vertex -1.00008136339559 1.30894978032376 2.47768150781694e-014
vertex -1.00008136339559 1.30894978032376 11.4974051758351
endloop
endfacet
facet normal -0.999999999808219 -1.95847364301591e-005 -1.53199905386782e-017
outer loop
vertex -1.00008136339559 1.30894978032376 2.47768150781694e-014
vertex -1.00010127459074 2.32561881807286 11.5
vertex -1.00010127459074 2.32561881807285 2.18933831376652e-014
endloop
endfacet
facet normal -0.999999998440291 -5.58517595747092e-005 1.76276982610726e-015
outer loop
vertex -1.0000289878497 8.82738853281419 11.5
vertex -0.999974668989948 7.8548343984468 2.19398750041008e-014
vertex -0.999974668989948 7.8548343984468 11.5
endloop
endfacet
facet normal -0.999999998440291 -5.58517595747092e-005 1.76276982610726e-015
outer loop
vertex -0.999974668989948 7.8548343984468 2.19398750041008e-014
vertex -1.0000289878497 8.82738853281419 11.5
vertex -1.00002898784974 8.82738853281407 2.17901626343514e-014
endloop
endfacet
facet normal -0.999999997308438 -7.33697745608149e-005 -1.07350919972145e-016
outer loop
vertex -1.0000813633956 0.108949780323764 11.4974051758351
vertex -1.0 -1.0 -3.04800337982958e-016
vertex -1.0 -1.00000000000001 11.4759462309417
endloop
endfacet
facet normal -0.999999997308438 -7.33697745608149e-005 -1.07350919972145e-016
outer loop
vertex -1.0 -1.0 -3.04800337982958e-016
vertex -1.0000813633956 0.108949780323764 11.4974051758351
vertex -1.0000813633956 0.108949780323764 2.48523760737132e-014
endloop
endfacet
facet normal -1.0 7.10323595386861e-015 -4.60740844229576e-017
outer loop
vertex -1.0 22.0 11.4759462309417
vertex -1.00000000000003 18.8488328276589 1.32185928869433e-015
vertex -1.00000000000003 18.8488328276589 11.4759462309417
endloop
endfacet
facet normal -1.0 7.10323595386861e-015 -4.60740844229576e-017
outer loop
vertex -1.00000000000003 18.8488328276589 1.32185928869433e-015
vertex -1.0 22.0 11.4759462309417
vertex -1.0 22.0 1.32185928869433e-015
endloop
endfacet
facet normal -0.230060202037047 0.973176398932215 0.0
outer loop
vertex -2.50000000000003 18.494230821862 11.4759462309417
vertex -1.00000000000003 18.8488328276589 1.32185928869433e-015
vertex -2.50000000000003 18.494230821862 1.32185928869433e-015
endloop
endfacet
facet normal -0.230060202037047 0.973176398932215 0.0
outer loop
vertex -1.00000000000003 18.8488328276589 1.32185928869433e-015
vertex -2.50000000000003 18.494230821862 11.4759462309417
vertex -1.00000000000003 18.8488328276589 11.4759462309417
endloop
endfacet
facet normal 4.08409440689656e-016 -1.0 -2.64380378648084e-016
outer loop
vertex 9.8 -1.0 -3.04800337982958e-016
vertex 6.55 -1.0 3.75
vertex -1.0 -1.0 -3.04800337982958e-016
endloop
endfacet
facet normal 4.08409440689656e-016 -1.0 -2.64380378648084e-016
outer loop
vertex 6.55 -1.0 3.75
vertex 9.8 -1.0 -3.04800337982958e-016
vertex 9.8 -1.0 17.0
endloop
endfacet
facet normal 4.08409440689656e-016 -1.0 -2.64380378648084e-016
outer loop
vertex 6.55 -1.0 3.75
vertex 9.8 -1.0 17.0
vertex 6.55 -1.0 7.25
endloop
endfacet
facet normal 4.08409440689656e-016 -1.0 -2.64380378648084e-016
outer loop
vertex 6.55 -1.0 7.25
vertex 9.8 -1.0 17.0
vertex 3.05 -1.0 7.25
endloop
endfacet
facet normal 4.08409440689656e-016 -1.0 -2.64380378648084e-016
outer loop
vertex 3.05 -1.0 7.25
vertex 9.8 -1.0 17.0
vertex -1.0 -1.00000000000001 11.4759462309417
endloop
endfacet
facet normal 4.08409440689656e-016 -1.0 -2.64380378648084e-016
outer loop
vertex -1.0 -1.00000000000001 11.4759462309417
vertex 9.8 -1.0 17.0
vertex -1.09503499957585e-015 -1.00000000000001 17.0
endloop
endfacet
facet normal 4.08409440689656e-016 -1.0 -2.64380378648084e-016
outer loop
vertex -1.0 -1.0 -3.04800337982958e-016
vertex 3.05 -1.0 3.75
vertex -1.0 -1.00000000000001 11.4759462309417
endloop
endfacet
facet normal 4.08409440689656e-016 -1.0 -2.64380378648084e-016
outer loop
vertex 3.05 -1.0 3.75
vertex -1.0 -1.0 -3.04800337982958e-016
vertex 6.55 -1.0 3.75
endloop
endfacet
facet normal 4.08409440689656e-016 -1.0 -2.64380378648084e-016
outer loop
vertex -1.0 -1.00000000000001 11.4759462309417
vertex 3.05 -1.0 3.75
vertex 3.05 -1.0 7.25
endloop
endfacet
facet normal -0.0 -0.0 1.0
outer loop
vertex -1.00002714999766 6.63511787047311 11.5
vertex -2.5000000000001 7.49423082186197 11.5
vertex -2.5000000000001 6.99423082186196 11.5
endloop
endfacet
facet normal -0.0 -0.0 1.0
outer loop
vertex -2.5000000000001 7.49423082186197 11.5
vertex -1.00002714999766 6.63511787047311 11.5
vertex -0.999974668989948 7.8548343984468 11.5
endloop
endfacet
facet normal -0.0 -0.0 1.0
outer loop
vertex -1.00006666592112 4.46979851930985 11.5
vertex -2.50004216623584 5.31779759212801 11.5
vertex -2.50004216623584 4.81779759212801 11.5
endloop
endfacet
facet normal -0.0 -0.0 1.0
outer loop
vertex -2.50004216623584 5.31779759212801 11.5
vertex -1.00006666592112 4.46979851930985 11.5
vertex -1.00001600174398 5.6818930966688 11.5
endloop
endfacet
facet normal -0.0 -0.0 1.0
outer loop
vertex -1.00011237792329 13.2713707681234 11.5
vertex -2.50009388495807 14.09423083288 11.5
vertex -2.50009388495807 13.59423083288 11.5
endloop
endfacet
facet normal -0.0 -0.0 1.0
outer loop
vertex -2.50009388495807 14.09423083288 11.5
vertex -1.00011237792329 13.2713707681234 11.5
vertex -1.0000660895677 14.4650614630876 11.5
endloop
endfacet
facet normal -0.0 1.0 -0.0
outer loop
vertex -1.0 22.0 1.32185928869433e-015
vertex 3.05 22.0 3.75
vertex 9.8 22.0 1.32185928869433e-015
endloop
endfacet
facet normal -0.0 1.0 -0.0
outer loop
vertex 3.05 22.0 3.75
vertex -1.0 22.0 1.32185928869433e-015
vertex -1.0 22.0 11.4759462309417
endloop
endfacet
facet normal -0.0 1.0 -0.0
outer loop
vertex 3.05 22.0 3.75
vertex -1.0 22.0 11.4759462309417
vertex 1.5 22.0 8.8
endloop
endfacet
facet normal -0.0 1.0 -0.0
outer loop
vertex 3.05 22.0 3.75
vertex 1.5 22.0 8.8
vertex 3.05 22.0 7.25
endloop
endfacet
facet normal -0.0 1.0 -0.0
outer loop
vertex 3.05 22.0 7.25
vertex 1.5 22.0 8.8
vertex 6.55 22.0 7.25
endloop
endfacet
facet normal -0.0 1.0 -0.0
outer loop
vertex 1.5 22.0 8.8
vertex -1.0 22.0 11.4759462309417
vertex 1.5 22.0 11.5
endloop
endfacet
facet normal -0.0 1.0 -0.0
outer loop
vertex 1.5 22.0 11.5
vertex -1.0 22.0 11.4759462309417
vertex -3.87745391350336e-015 22.0 17.0
endloop
endfacet
facet normal -0.0 1.0 -0.0
outer loop
vertex 1.5 22.0 11.5
vertex -3.87745391350336e-015 22.0 17.0
vertex 8.1 22.0 11.5
endloop
endfacet
facet normal -0.0 1.0 -0.0
outer loop
vertex 9.8 22.0 1.32185928869433e-015
vertex 8.1 22.0 8.8
vertex 9.8 22.0 17.0
endloop
endfacet
facet normal -0.0 1.0 -0.0
outer loop
vertex 8.1 22.0 8.8
vertex 9.8 22.0 1.32185928869433e-015
vertex 6.55 22.0 3.75
endloop
endfacet
facet normal -0.0 1.0 -0.0
outer loop
vertex 6.55 22.0 3.75
vertex 9.8 22.0 1.32185928869433e-015
vertex 3.05 22.0 3.75
endloop
endfacet
facet normal -0.0 1.0 -0.0
outer loop
vertex 8.1 22.0 8.8
vertex 6.55 22.0 3.75
vertex 6.55 22.0 7.25
endloop
endfacet
facet normal -0.0 1.0 -0.0
outer loop
vertex 8.1 22.0 8.8
vertex 6.55 22.0 7.25
vertex 1.5 22.0 8.8
endloop
endfacet
facet normal -0.0 1.0 -0.0
outer loop
vertex 9.8 22.0 17.0
vertex 8.1 22.0 8.8
vertex 8.1 22.0 11.5
endloop
endfacet
facet normal -0.0 1.0 -0.0
outer loop
vertex 9.8 22.0 17.0
vertex 8.1 22.0 11.5
vertex -3.87745391350336e-015 22.0 17.0
endloop
endfacet
facet normal 9.22557979530369e-016 2.02204939849948e-015 1.0
outer loop
vertex -1.00010127459074 2.32561881807286 11.5
vertex -2.50008136339558 3.15434777452687 11.5
vertex -2.50008136339558 2.65434777452687 11.5
endloop
endfacet
facet normal 9.22557979530369e-016 2.02204939849948e-015 1.0
outer loop
vertex -2.50008136339558 3.15434777452687 11.5
vertex -1.00010127459074 2.32561881807286 11.5
vertex -1.00008136339558 3.50894978032377 11.5
endloop
endfacet
facet normal 4.6692508937876e-016 1.00115564562746e-015 1.0
outer loop
vertex -1.00002395596847 15.4488328305283 11.4759462309417
vertex -2.50000000000004 16.294230821862 11.4759462309417
vertex -2.50000000000005 15.794230821862 11.4759462309417
endloop
endfacet
facet normal 4.6692508937876e-016 1.00115564562746e-015 1.0
outer loop
vertex -2.50000000000004 16.294230821862 11.4759462309417
vertex -1.00002395596847 15.4488328305283 11.4759462309417
vertex -0.99997608342019 16.6488328247989 11.4759462309417
endloop
endfacet
facet normal -0.0 -0.0 1.0
outer loop
vertex -1.00000000000003 17.6488328276589 11.4759462309417
vertex -2.50000000000003 18.494230821862 11.4759462309417
vertex -2.50000000000003 17.994230821862 11.4759462309417
endloop
endfacet
facet normal -0.0 -0.0 1.0
outer loop
vertex -2.50000000000003 18.494230821862 11.4759462309417
vertex -1.00000000000003 17.6488328276589 11.4759462309417
vertex -1.00000000000003 18.8488328276589 11.4759462309417
endloop
endfacet
facet normal 4.61564284925542e-016 9.91656731979947e-016 1.0
outer loop
vertex -1.00014229674773 11.0488328445325 11.5
vertex -2.50014229674772 11.8942308387356 11.5
vertex -2.50014229674773 11.3942308387356 11.5
endloop
endfacet
facet normal 4.61564284925542e-016 9.91656731979947e-016 1.0
outer loop
vertex -2.50014229674772 11.8942308387356 11.5
vertex -1.00014229674773 11.0488328445325 11.5
vertex -1.00011450444323 12.2651228716343 11.5
endloop
endfacet
facet normal -1.03258621863681e-015 -1.02390135624886e-015 -1.0
outer loop
vertex -2.50009388495807 14.09423083288 5.41482659653418e-015
vertex -1.00011237792329 13.2713707681234 5.60388805967312e-015
vertex -2.50009388495807 13.59423083288 5.45260709430608e-015
endloop
endfacet
facet normal -1.03258621863681e-015 -1.02390135624886e-015 -1.0
outer loop
vertex -1.00011237792329 13.2713707681234 5.60388805967312e-015
vertex -2.50009388495807 14.09423083288 5.41482659653418e-015
vertex -1.0000660895677 14.4650614630876 5.52832706412932e-015
endloop
endfacet
facet normal -1.03258621863681e-015 -1.02390135624886e-015 -1.0
outer loop
vertex -2.50008136339558 3.15434777452686 2.1822936495454e-014
vertex -1.00010127459074 2.32561881807285 2.18933831376652e-014
vertex -2.50008136339558 2.65434777452686 2.18600121825568e-014
endloop
endfacet
facet normal -1.03258621863681e-015 -1.02390135624886e-015 -1.0
outer loop
vertex -1.00010127459074 2.32561881807285 2.18933831376652e-014
vertex -2.50008136339558 3.15434777452686 2.1822936495454e-014
vertex -1.00008136339558 3.50894978032377 2.064449867694e-014
endloop
endfacet
facet normal -1.03258621863681e-015 -1.02390135624886e-015 -1.0
outer loop
vertex -1.00010127459074 2.32561881807285 2.18933831376652e-014
vertex -1.00008136339558 3.50894978032377 2.064449867694e-014
vertex -1.00008136339559 1.30894978032376 2.47768150781694e-014
endloop
endfacet
facet normal -1.03258621863681e-015 -1.02390135624886e-015 -1.0
outer loop
vertex -2.50004216623584 5.31779759212801 2.05703473027344e-014
vertex -1.00006666592112 4.46979851930985 2.05703473027344e-014
vertex -2.50004216623584 4.81779759212801 2.05703473027344e-014
endloop
endfacet
facet normal -1.03258621863681e-015 -1.02390135624886e-015 -1.0
outer loop
vertex -1.00006666592112 4.46979851930985 2.05703473027344e-014
vertex -2.50004216623584 5.31779759212801 2.05703473027344e-014
vertex -1.00001600174398 5.6818930966688 2.05703473027344e-014
endloop
endfacet
facet normal -1.03258621863681e-015 -1.02390135624886e-015 -1.0
outer loop
vertex -2.50000000000004 16.294230821862 2.574448481414e-015
vertex -1.00002395596847 15.4488328305283 2.64489512362516e-015
vertex -2.50000000000005 15.794230821862 2.6115241685168e-015
endloop
endfacet
facet normal -1.03258621863681e-015 -1.02390135624886e-015 -1.0
outer loop
vertex -1.00002395596847 15.4488328305283 2.64489512362516e-015
vertex -2.50000000000004 16.294230821862 2.574448481414e-015
vertex -0.999976083420191 16.6488328247989 1.39601066289992e-015
endloop
endfacet
facet normal -1.03258621863681e-015 -1.02390135624886e-015 -1.0
outer loop
vertex -1.00002395596847 15.4488328305283 2.64489512362516e-015
vertex -0.999976083420191 16.6488328247989 1.39601066289992e-015
vertex -1.00000000000008 10.0488328276589 1.00370388217395e-014
endloop
endfacet
facet normal -1.03258621863681e-015 -1.02390135624886e-015 -1.0
outer loop
vertex -2.50000000000003 18.494230821862 1.32185928869433e-015
vertex -1.00000000000003 17.6488328276589 1.32185928869433e-015
vertex -2.50000000000003 17.994230821862 1.32185928869433e-015
endloop
endfacet
facet normal -1.03258621863681e-015 -1.02390135624886e-015 -1.0
outer loop
vertex -1.00000000000003 17.6488328276589 1.32185928869433e-015
vertex -2.50000000000003 18.494230821862 1.32185928869433e-015
vertex -1.00000000000003 18.8488328276589 1.32185928869433e-015
endloop
endfacet
facet normal -1.03258621863681e-015 -1.02390135624886e-015 -1.0
outer loop
vertex -1.00000000000003 17.6488328276589 1.32185928869433e-015
vertex -1.00000000000003 18.8488328276589 1.32185928869433e-015
vertex -0.999976083420191 16.6488328247989 1.39601066289992e-015
endloop
endfacet
facet normal -1.03258621863681e-015 -1.02390135624886e-015 -1.0
outer loop
vertex -0.999976083420191 16.6488328247989 1.39601066289992e-015
vertex -1.00000000000003 18.8488328276589 1.32185928869433e-015
vertex -1.0 22.0 1.32185928869433e-015
endloop
endfacet
facet normal -1.03258621863681e-015 -1.02390135624886e-015 -1.0
outer loop
vertex -0.999976083420191 16.6488328247989 1.39601066289992e-015
vertex -1.0 22.0 1.32185928869433e-015
vertex 9.8 22.0 1.32185928869433e-015
endloop
endfacet
facet normal -1.03258621863681e-015 -1.02390135624886e-015 -1.0
outer loop
vertex -0.999976083420191 16.6488328247989 1.39601066289992e-015
vertex 9.8 22.0 1.32185928869433e-015
vertex -0.999974668989948 7.8548343984468 2.19398750041008e-014
endloop
endfacet
facet normal -1.03258621863681e-015 -1.02390135624886e-015 -1.0
outer loop
vertex -2.5000000000001 7.49423082186197 2.30048123550197e-014
vertex -1.00002714999766 6.63511787047311 2.32643204603698e-014
vertex -2.5000000000001 6.99423082186196 2.30796685398944e-014
endloop
endfacet
facet normal -1.03258621863681e-015 -1.02390135624886e-015 -1.0
outer loop
vertex -1.00002714999766 6.63511787047311 2.32643204603698e-014
vertex -2.5000000000001 7.49423082186197 2.30048123550197e-014
vertex -0.999974668989948 7.8548343984468 2.19398750041008e-014
endloop
endfacet
facet normal -1.03258621863681e-015 -1.02390135624886e-015 -1.0
outer loop
vertex -1.00002714999766 6.63511787047311 2.32643204603698e-014
vertex -0.999974668989948 7.8548343984468 2.19398750041008e-014
vertex -1.00001600174398 5.6818930966688 2.05703473027344e-014
endloop
endfacet
facet normal -1.03258621863681e-015 -1.02390135624886e-015 -1.0
outer loop
vertex -1.00001600174398 5.6818930966688 2.05703473027344e-014
vertex -0.999974668989948 7.8548343984468 2.19398750041008e-014
vertex -1.0 -1.0 -3.04800337982958e-016
endloop
endfacet
facet normal -1.03258621863681e-015 -1.02390135624886e-015 -1.0
outer loop
vertex -1.0 -1.0 -3.04800337982958e-016
vertex -0.999974668989948 7.8548343984468 2.19398750041008e-014
vertex 9.8 -1.0 -3.04800337982958e-016
endloop
endfacet
facet normal -1.03258621863681e-015 -1.02390135624886e-015 -1.0
outer loop
vertex 9.8 -1.0 -3.04800337982958e-016
vertex -0.999974668989948 7.8548343984468 2.19398750041008e-014
vertex 9.8 22.0 1.32185928869433e-015
endloop
endfacet
facet normal -1.03258621863681e-015 -1.02390135624886e-015 -1.0
outer loop
vertex -2.50000000000009 9.69423082186197 2.16011011712124e-014
vertex -1.00002898784974 8.82738853281407 2.17901626343514e-014
vertex -2.50000000000009 9.19423082186196 2.16388816689843e-014
endloop
endfacet
facet normal -1.03258621863681e-015 -1.02390135624886e-015 -1.0
outer loop
vertex -1.00002898784974 8.82738853281407 2.17901626343514e-014
vertex -2.50000000000009 9.69423082186197 2.16011011712124e-014
vertex -1.00000000000008 10.0488328276589 1.00370388217395e-014
endloop
endfacet
facet normal -1.03258621863681e-015 -1.02390135624886e-015 -1.0
outer loop
vertex -1.00002898784974 8.82738853281407 2.17901626343514e-014
vertex -1.00000000000008 10.0488328276589 1.00370388217395e-014
vertex -0.999974668989948 7.8548343984468 2.19398750041008e-014
endloop
endfacet
facet normal -1.03258621863681e-015 -1.02390135624886e-015 -1.0
outer loop
vertex -0.999974668989948 7.8548343984468 2.19398750041008e-014
vertex -1.00000000000008 10.0488328276589 1.00370388217395e-014
vertex -0.999976083420191 16.6488328247989 1.39601066289992e-015
endloop
endfacet
facet normal -1.03258621863681e-015 -1.02390135624886e-015 -1.0
outer loop
vertex -2.5000813633956 0.954347774526862 2.46633146105742e-014
vertex -1.0000813633956 0.108949780323764 2.48523760737132e-014
vertex -2.5000813633956 0.454347774526859 2.47010951083461e-014
endloop
endfacet
facet normal -1.03258621863681e-015 -1.02390135624886e-015 -1.0
outer loop
vertex -1.0000813633956 0.108949780323764 2.48523760737132e-014
vertex -2.5000813633956 0.954347774526862 2.46633146105742e-014
vertex -1.00008136339559 1.30894978032376 2.47768150781694e-014
endloop
endfacet
facet normal -1.03258621863681e-015 -1.02390135624886e-015 -1.0
outer loop
vertex -1.0000813633956 0.108949780323764 2.48523760737132e-014
vertex -1.00008136339559 1.30894978032376 2.47768150781694e-014
vertex -1.0 -1.0 -3.04800337982958e-016
endloop
endfacet
facet normal -1.03258621863681e-015 -1.02390135624886e-015 -1.0
outer loop
vertex -1.0 -1.0 -3.04800337982958e-016
vertex -1.00008136339559 1.30894978032376 2.47768150781694e-014
vertex -1.00008136339558 3.50894978032377 2.064449867694e-014
endloop
endfacet
facet normal -1.03258621863681e-015 -1.02390135624886e-015 -1.0
outer loop
vertex -1.0 -1.0 -3.04800337982958e-016
vertex -1.00008136339558 3.50894978032377 2.064449867694e-014
vertex -1.00006666592112 4.46979851930985 2.05703473027344e-014
endloop
endfacet
facet normal -1.03258621863681e-015 -1.02390135624886e-015 -1.0
outer loop
vertex -1.0 -1.0 -3.04800337982958e-016
vertex -1.00006666592112 4.46979851930985 2.05703473027344e-014
vertex -1.00001600174398 5.6818930966688 2.05703473027344e-014
endloop
endfacet
facet normal -1.03258621863681e-015 -1.02390135624886e-015 -1.0
outer loop
vertex -2.50014229674772 11.8942308387356 6.81853778034145e-015
vertex -1.00014229674773 11.0488328445325 7.07804588569156e-015
vertex -2.50014229674773 11.3942308387356 6.89339396521615e-015
endloop
endfacet
facet normal -1.03258621863681e-015 -1.02390135624886e-015 -1.0
outer loop
vertex -1.00014229674773 11.0488328445325 7.07804588569156e-015
vertex -2.50014229674772 11.8942308387356 6.81853778034145e-015
vertex -1.00011450444323 12.2651228716343 5.75360042942251e-015
endloop
endfacet
facet normal -1.03258621863681e-015 -1.02390135624886e-015 -1.0
outer loop
vertex -1.00014229674773 11.0488328445325 7.07804588569156e-015
vertex -1.00011450444323 12.2651228716343 5.75360042942251e-015
vertex -1.00000000000008 10.0488328276589 1.00370388217395e-014
endloop
endfacet
facet normal -1.03258621863681e-015 -1.02390135624886e-015 -1.0
outer loop
vertex -1.00000000000008 10.0488328276589 1.00370388217395e-014
vertex -1.00011450444323 12.2651228716343 5.75360042942251e-015
vertex -1.00011237792329 13.2713707681234 5.60388805967312e-015
endloop
endfacet
facet normal -1.03258621863681e-015 -1.02390135624886e-015 -1.0
outer loop
vertex -1.00000000000008 10.0488328276589 1.00370388217395e-014
vertex -1.00011237792329 13.2713707681234 5.60388805967312e-015
vertex -1.0000660895677 14.4650614630876 5.52832706412932e-015
endloop
endfacet
facet normal -1.03258621863681e-015 -1.02390135624886e-015 -1.0
outer loop
vertex -1.00000000000008 10.0488328276589 1.00370388217395e-014
vertex -1.0000660895677 14.4650614630876 5.52832706412932e-015
vertex -1.00002395596847 15.4488328305283 2.64489512362516e-015
endloop
endfacet
facet normal -0.0 -0.0 1.0
outer loop
vertex -1.0000813633956 0.108949780323764 11.4974051758351
vertex -2.5000813633956 0.954347774526862 11.4974051758351
vertex -2.5000813633956 0.45434777452686 11.4974051758351
endloop
endfacet
facet normal -0.0 -0.0 1.0
outer loop
vertex -2.5000813633956 0.954347774526862 11.4974051758351
vertex -1.0000813633956 0.108949780323764 11.4974051758351
vertex -1.00008136339559 1.30894978032376 11.4974051758351
endloop
endfacet
facet normal 4.26630767348067e-015 8.89807693275614e-015 1.0
outer loop
vertex -1.0000289878497 8.82738853281419 11.5
vertex -2.50000000000003 9.69423082186209 11.5
vertex -2.50000000000004 9.19423082186209 11.5
endloop
endfacet
facet normal 4.26630767348067e-015 8.89807693275614e-015 1.0
outer loop
vertex -2.50000000000003 9.69423082186209 11.5
vertex -1.0000289878497 8.82738853281419 11.5
vertex -1.00000000000004 10.048832827659 11.5
endloop
endfacet
facet normal -0.983915811945562 0.000118405690666625 0.17863275450935
outer loop
vertex -3.87745391350336e-015 22.0 17.0
vertex -1.0 -1.00000000000001 11.4759462309417
vertex -1.09503499957585e-015 -1.00000000000001 17.0
endloop
endfacet
facet normal -0.983915811945562 0.000118405690666625 0.17863275450935
outer loop
vertex -1.0 -1.00000000000001 11.4759462309417
vertex -3.87745391350336e-015 22.0 17.0
vertex -1.0000813633956 0.108949780323764 11.4974051758351
endloop
endfacet
facet normal -0.983915811945562 0.000118405690666625 0.17863275450935
outer loop
vertex -1.0000813633956 0.108949780323764 11.4974051758351
vertex -3.87745391350336e-015 22.0 17.0
vertex -1.00008136339559 1.30894978032376 11.4974051758351
endloop
endfacet
facet normal -0.983915811945562 0.000118405690666625 0.17863275450935
outer loop
vertex -1.00008136339559 1.30894978032376 11.4974051758351
vertex -3.87745391350336e-015 22.0 17.0
vertex -1.00010127459074 2.32561881807286 11.5
endloop
endfacet
facet normal -0.983915811945562 0.000118405690666625 0.17863275450935
outer loop
vertex -1.00010127459074 2.32561881807286 11.5
vertex -3.87745391350336e-015 22.0 17.0
vertex -1.00008136339558 3.50894978032377 11.5
endloop
endfacet
facet normal -0.983915811945562 0.000118405690666625 0.17863275450935
outer loop
vertex -1.00008136339558 3.50894978032377 11.5
vertex -3.87745391350336e-015 22.0 17.0
vertex -1.00006666592112 4.46979851930985 11.5
endloop
endfacet
facet normal -0.983915811945562 0.000118405690666625 0.17863275450935
outer loop
vertex -1.00006666592112 4.46979851930985 11.5
vertex -3.87745391350336e-015 22.0 17.0
vertex -1.00001600174398 5.6818930966688 11.5
endloop
endfacet
facet normal -0.983915811945562 0.000118405690666625 0.17863275450935
outer loop
vertex -1.00001600174398 5.6818930966688 11.5
vertex -3.87745391350336e-015 22.0 17.0
vertex -1.00002714999766 6.63511787047311 11.5
endloop
endfacet
facet normal -0.983915811945562 0.000118405690666625 0.17863275450935
outer loop
vertex -1.00002714999766 6.63511787047311 11.5
vertex -3.87745391350336e-015 22.0 17.0
vertex -0.999974668989948 7.8548343984468 11.5
endloop
endfacet
facet normal -0.983915811945562 0.000118405690666625 0.17863275450935
outer loop
vertex -0.999974668989948 7.8548343984468 11.5
vertex -3.87745391350336e-015 22.0 17.0
vertex -1.0000289878497 8.82738853281419 11.5
endloop
endfacet
facet normal -0.983915811945562 0.000118405690666625 0.17863275450935
outer loop
vertex -1.0000289878497 8.82738853281419 11.5
vertex -3.87745391350336e-015 22.0 17.0
vertex -1.00000000000004 10.048832827659 11.5
endloop
endfacet
facet normal -0.983915811945562 0.000118405690666625 0.17863275450935
outer loop
vertex -1.00000000000004 10.048832827659 11.5
vertex -3.87745391350336e-015 22.0 17.0
vertex -1.00014229674773 11.0488328445325 11.5
endloop
endfacet
facet normal -0.983915811945562 0.000118405690666625 0.17863275450935
outer loop
vertex -1.00014229674773 11.0488328445325 11.5
vertex -3.87745391350336e-015 22.0 17.0
vertex -1.00011450444323 12.2651228716343 11.5
endloop
endfacet
facet normal -0.983915811945562 0.000118405690666625 0.17863275450935
outer loop
vertex -1.00011450444323 12.2651228716343 11.5
vertex -3.87745391350336e-015 22.0 17.0
vertex -1.00011237792329 13.2713707681234 11.5
endloop
endfacet
facet normal -0.983915811945562 0.000118405690666625 0.17863275450935
outer loop
vertex -1.00011237792329 13.2713707681234 11.5
vertex -3.87745391350336e-015 22.0 17.0
vertex -1.0000660895677 14.4650614630876 11.5
endloop
endfacet
facet normal -0.983915811945562 0.000118405690666625 0.17863275450935
outer loop
vertex -1.0000660895677 14.4650614630876 11.5
vertex -3.87745391350336e-015 22.0 17.0
vertex -1.00002395596847 15.4488328305283 11.4759462309417
endloop
endfacet
facet normal -0.983915811945562 0.000118405690666625 0.17863275450935
outer loop
vertex -1.00002395596847 15.4488328305283 11.4759462309417
vertex -3.87745391350336e-015 22.0 17.0
vertex -0.99997608342019 16.6488328247989 11.4759462309417
endloop
endfacet
facet normal -0.983915811945562 0.000118405690666625 0.17863275450935
outer loop
vertex -0.99997608342019 16.6488328247989 11.4759462309417
vertex -3.87745391350336e-015 22.0 17.0
vertex -1.00000000000003 17.6488328276589 11.4759462309417
endloop
endfacet
facet normal -0.983915811945562 0.000118405690666625 0.17863275450935
outer loop
vertex -1.00000000000003 17.6488328276589 11.4759462309417
vertex -3.87745391350336e-015 22.0 17.0
vertex -1.00000000000003 18.8488328276589 11.4759462309417
endloop
endfacet
facet normal -0.983915811945562 0.000118405690666625 0.17863275450935
outer loop
vertex -1.00000000000003 18.8488328276589 11.4759462309417
vertex -3.87745391350336e-015 22.0 17.0
vertex -1.0 22.0 11.4759462309417
endloop
endfacet
endsolid vertical-gear-rev-2
