solid h-motor-cable-management
facet normal -0.999999999999904 6.47019224539214e-013 -4.38598713948259e-007
outer loop
vertex -4.00000087719647 -3.00000181854197 1.99999581434254
vertex -4.0 -3.99999999944592 -4.96013452526294e-006
vertex -4.00000087719743 -4.00000181854077 1.99999503986445
endloop
endfacet
facet normal -0.999999999999904 6.47019224539214e-013 -4.38598713948259e-007
outer loop
vertex -4.0 -3.99999999944592 -4.96013452526294e-006
vertex -4.00000087719647 -3.00000181854197 1.99999581434254
vertex -4.0 6.99999999886253 1.12670253876512e-005
endloop
endfacet
facet normal -0.999999999999904 6.47019224539214e-013 -4.38598713948259e-007
outer loop
vertex -4.0 6.99999999886253 1.12670253876512e-005
vertex -4.00000087719647 -3.00000181854197 1.99999581434254
vertex -4.00000087719753 5.99999817976877 2.00001052942619
endloop
endfacet
facet normal -0.999999999999904 6.47019224539214e-013 -4.38598713948259e-007
outer loop
vertex -4.0 6.99999999886253 1.12670253876512e-005
vertex -4.00000087719753 5.99999817976877 2.00001052942619
vertex -4.00000087719743 6.99999817976768 2.00001126702437
endloop
endfacet
facet normal 0.999999999999904 5.73606215900651e-013 4.38598712654962e-007
outer loop
vertex 36.9999999993993 -3.99999999949107 2.5652996418235e-005
vertex 36.9999991221882 -3.00000181860022 2.00003527757702
vertex 36.9999991222019 -4.00000181858593 2.0000256529954
endloop
endfacet
facet normal 0.999999999999904 5.73606215900651e-013 4.38598712654962e-007
outer loop
vertex 36.9999991221882 -3.00000181860022 2.00003527757702
vertex 36.9999999993993 -3.99999999949107 2.5652996418235e-005
vertex 36.9999999993993 6.99999999886253 1.12670253876512e-005
endloop
endfacet
facet normal 0.999999999999904 5.73606215900651e-013 4.38598712654962e-007
outer loop
vertex 36.9999991221882 -3.00000181860022 2.00003527757702
vertex 36.9999999993993 6.99999999886253 1.12670253876512e-005
vertex 36.9999991222005 5.99999817976564 2.00001442533908
endloop
endfacet
facet normal 0.999999999999904 5.73606215900651e-013 4.38598712654962e-007
outer loop
vertex 36.9999991222005 5.99999817976564 2.00001442533908
vertex 36.9999999993993 6.99999999886253 1.12670253876512e-005
vertex 36.9999991222019 6.99999817976768 2.00001126702437
endloop
endfacet
facet normal 0.999999999999902 -6.88562808416371e-008 4.385986513204e-007
outer loop
vertex 4.64145709339998e-012 1.49999999929448 3.57608391106524e-006
vertex 0.0511073492318549 1.88822674770878 1.00000705973234
vertex -3.91127294160582e-006 1.49999818019747 1.00000476277458
endloop
endfacet
facet normal 0.965925753982579 -0.258819314953794 1.88245351789837e-007
outer loop
vertex 0.0511073492318549 1.88822674770878 1.00000705973234
vertex 4.64145709339998e-012 1.49999999929448 3.57608391106524e-006
vertex 0.0511112605168989 1.88822856680926 3.9655051287938e-006
endloop
endfacet
facet normal 0.965925822318421 0.258819059920338 6.5906203316313e-007
outer loop
vertex 0.0511112605886785 1.11177143178972 3.19746348538919e-006
vertex -3.91127294160582e-006 1.49999818019747 1.00000476277458
vertex 0.0511073493173297 1.11176961269561 1.00000279023524
endloop
endfacet
facet normal 0.999999999999857 -3.05650566311522e-007 4.38598435944748e-007
outer loop
vertex -3.91127294160582e-006 1.49999818019747 1.00000476277458
vertex 0.0511112605886785 1.11177143178972 3.19746348538919e-006
vertex 4.64145709339998e-012 1.49999999929448 3.57608391106524e-006
endloop
endfacet
facet normal 0.866025354535329 0.500000085301253 8.34611397287578e-007
outer loop
vertex 0.200961894325559 0.749999999592439 2.85544620807569e-006
vertex 0.0511073493173297 1.11176961269561 1.00000279023524
vertex 0.200957983058793 0.749998180500459 1.00000127653961
endloop
endfacet
facet normal 0.965925906806166 0.258818744607596 6.59061783427453e-007
outer loop
vertex 0.0511073493173297 1.11176961269561 1.00000279023524
vertex 0.200961894325559 0.749999999592439 2.85544620807569e-006
vertex 0.0511112605886785 1.11177143178972 3.19746348538919e-006
endloop
endfacet
facet normal 0.707106657479307 0.707106904893124 9.53283335783024e-007
outer loop
vertex 0.439339828165996 0.439339827951254 2.57333999136331e-006
vertex 0.200957983058793 0.749998180500459 1.00000127653961
vertex 0.439335916901849 0.439338008860493 1.00000032484355
endloop
endfacet
facet normal 0.866025551450884 0.499999744233431 8.34611173437127e-007
outer loop
vertex 0.200957983058793 0.749998180500459 1.00000127653961
vertex 0.439339828165996 0.439339827951254 2.57333999136331e-006
vertex 0.200961894325559 0.749999999592439 2.85544620807569e-006
endloop
endfacet
facet normal 0.707106657479307 0.707106904893124 9.53283335783024e-007
outer loop
vertex 0.439339828165996 0.439339827951254 2.57333999136331e-006
vertex 0.749996088593255 0.200960075082827 1.00000000000358
vertex 0.749999999856926 0.200961894173367 2.37036990771849e-006
endloop
endfacet
facet normal 0.500000178278946 0.866025300854431 1.00699051833572e-006
outer loop
vertex 0.749996088593255 0.200960075082827 1.00000000000358
vertex 0.439339828165996 0.439339827951254 2.57333999136331e-006
vertex 0.439335916901849 0.439338008860493 1.00000032484355
endloop
endfacet
facet normal 0.499999792602008 0.866025523525106 1.00699055170786e-006
outer loop
vertex 0.749999999856926 0.200961894173367 2.37036990771849e-006
vertex 1.11176752082245 0.051109441416204 1.000000324157
vertex 1.11177143208782 0.0511112605075336 2.26036803291766e-006
endloop
endfacet
facet normal 0.258819178634512 0.965925790508759 9.92073075279699e-007
outer loop
vertex 1.11176752082245 0.051109441416204 1.000000324157
vertex 0.749999999856926 0.200961894173367 2.37036990771849e-006
vertex 0.749996088593255 0.200960075082827 1.00000000000358
endloop
endfacet
facet normal 0.258818767202447 0.965925900751616 9.92072995097231e-007
outer loop
vertex 1.11177143208782 0.0511112605075336 2.26036803291766e-006
vertex 1.49999608833857 -1.81909485182576e-006 1.00000127521329
vertex 1.4999999996077 -1.77474732357732e-012 2.25083081294183e-006
endloop
endfacet
facet normal 6.11975113184753e-008 0.999999999999584 9.09547452756636e-007
outer loop
vertex 1.49999608833857 -1.81909485182576e-006 1.00000127521329
vertex 1.11177143208782 0.0511112605075336 2.26036803291766e-006
vertex 1.11176752082245 0.051109441416204 1.000000324157
endloop
endfacet
facet normal 6.11975113184753e-008 0.999999999999584 9.09547452756636e-007
outer loop
vertex 1.49999608833857 -1.81909485182576e-006 1.00000127521329
vertex 1.88822856711813 0.0511112605837874 2.34240819357134e-006
vertex 1.4999999996077 -1.77474732357732e-012 2.25083081294183e-006
endloop
endfacet
facet normal -0.258819357481289 0.965925742587073 7.65037435468547e-007
outer loop
vertex 1.88822856711813 0.0511112605837874 2.34240819357134e-006
vertex 1.49999608833857 -1.81909485182576e-006 1.00000127521329
vertex 1.88822465584344 0.0511094414881244 1.00000278835954
endloop
endfacet
facet normal -0.258819064446278 0.965925821105621 7.6503763540967e-007
outer loop
vertex 1.88822465584344 0.0511094414881244 1.00000278835954
vertex 2.24999999932132 0.200961894320684 2.52885932765508e-006
vertex 1.88822856711813 0.0511112605837874 2.34240819357134e-006
endloop
endfacet
facet normal -0.500000267117388 0.866025249563901 5.68391562412364e-007
outer loop
vertex 2.24999999932132 0.200961894320684 2.52885932765508e-006
vertex 1.88822465584344 0.0511094414881244 1.00000278835954
vertex 2.24999608803965 0.200960075221772 1.00000476047733
endloop
endfacet
facet normal -0.500000086510167 0.866025353837578 5.68391736468313e-007
outer loop
vertex 2.24999608803965 0.200960075221772 1.00000476047733
vertex 2.56066017096817 0.439339828159611 2.7974778785303e-006
vertex 2.24999999932132 0.200961894320684 2.52885932765508e-006
endloop
endfacet
facet normal -0.707106973852807 0.707106588520157 3.33010768119165e-007
outer loop
vertex 2.56066017096817 0.439339828159611 2.7974778785303e-006
vertex 2.24999608803965 0.200960075221772 1.00000476047733
vertex 2.56065625967857 0.439338009057011 1.00000705717009
endloop
endfacet
facet normal -0.866025520909082 0.499999797134106 7.49358487684174e-008
outer loop
vertex 2.79903419345323 0.749998180741126 1.00000952192201
vertex 2.56066017096817 0.439339828159611 2.7974778785303e-006
vertex 2.56065625967857 0.439338009057011 1.00000705717009
endloop
endfacet
facet normal -0.707106973852807 0.707106588520157 3.33010768119165e-007
outer loop
vertex 2.56066017096817 0.439339828159611 2.7974778785303e-006
vertex 2.79903419345323 0.749998180741126 1.00000952192201
vertex 2.79903810475117 0.749999999847606 3.12995793586799e-006
endloop
endfacet
facet normal -0.965925898649838 0.258818775048233 -1.88245906247836e-007
outer loop
vertex 2.94888482711504 1.11176961296405 1.00001198676431
vertex 2.79903810475117 0.749999999847606 3.12995793586799e-006
vertex 2.79903419345323 0.749998180741126 1.00000952192201
endloop
endfacet
facet normal -0.866025512754922 0.499999811257533 7.49358651907488e-008
outer loop
vertex 2.79903810475117 0.749999999847606 3.12995793586799e-006
vertex 2.94888482711504 1.11176961296405 1.00001198676431
vertex 2.94888873842116 1.11177143207433 3.50364153320986e-006
endloop
endfacet
facet normal -0.999999999999857 -3.05865438976001e-007 -4.38598992092363e-007
outer loop
vertex 2.99999608761984 1.49999818047536 1.00001428372207
vertex 2.94888873842116 1.11177143207433 3.50364153320986e-006
vertex 2.94888482711504 1.11176961296405 1.00001198676431
endloop
endfacet
facet normal -0.965925864740558 0.258818901599498 -1.88245776270892e-007
outer loop
vertex 2.94888873842116 1.11177143207433 3.50364153320986e-006
vertex 2.99999608761984 1.49999818047536 1.00001428372207
vertex 2.99999999893342 1.49999999958911 3.89306275093842e-006
endloop
endfacet
facet normal -0.965925745715425 -0.258819345806425 -6.59062259530659e-007
outer loop
vertex 2.94888482702957 1.88822674797722 1.00001625626142
vertex 2.99999999893342 1.49999999958911 3.89306275093842e-006
vertex 2.99999608761984 1.49999818047536 1.00001428372207
endloop
endfacet
facet normal -0.999999999999901 -6.90712345868577e-008 -4.38598776716823e-007
outer loop
vertex 2.99999999893342 1.49999999958911 3.89306275093842e-006
vertex 2.94888482702957 1.88822674797722 1.00001625626142
vertex 2.94888873834938 1.88822856709387 4.27168317661447e-006
endloop
endfacet
facet normal -0.866025256010058 -0.500000255951952 -8.34611509223183e-007
outer loop
vertex 2.7990341932881 2.24999818017237 1.00001776995705
vertex 2.94888873834938 1.88822856709387 4.27168317661447e-006
vertex 2.94888482702957 1.88822674797722 1.00001625626142
endloop
endfacet
facet normal -0.965925830203269 -0.258819030493686 -6.59062009795029e-007
outer loop
vertex 2.94888873834938 1.88822856709387 4.27168317661447e-006
vertex 2.7990341932881 2.24999818017237 1.00001776995705
vertex 2.7990381046125 2.24999999929115 4.61370045392797e-006
endloop
endfacet
facet normal -0.707106597586497 -0.707106964785908 -9.53283363924525e-007
outer loop
vertex 2.56065625944505 2.56065835181234 1.0000187216531
vertex 2.7990381046125 2.24999999929115 4.61370045392797e-006
vertex 2.7990341932881 2.24999818017237 1.00001776995705
endloop
endfacet
facet normal -0.866025452925739 -0.499999914884065 -8.34611285372729e-007
outer loop
vertex 2.7990381046125 2.24999999929115 4.61370045392797e-006
vertex 2.56065625944505 2.56065835181234 1.0000187216531
vertex 2.56066017077206 2.56066017093234 4.89580667064035e-006
endloop
endfacet
facet normal -0.707106597586497 -0.707106964785908 -9.53283363924525e-007
outer loop
vertex 2.56065625944505 2.56065835181234 1.0000187216531
vertex 2.24999999908114 2.79903810471023 5.09877675428517e-006
vertex 2.56066017077206 2.56066017093234 4.89580667064035e-006
endloop
endfacet
facet normal -0.500000207221969 -0.866025284144161 -1.00699051576688e-006
outer loop
vertex 2.24999999908114 2.79903810471023 5.09877675428517e-006
vertex 2.56065625944505 2.56065835181234 1.0000187216531
vertex 2.24999608775364 2.79903628559 1.00001904649307
endloop
endfacet
facet normal -0.499999821544864 -0.866025506814949 -1.00699054913904e-006
outer loop
vertex 2.24999608775364 2.79903628559 1.00001904649307
vertex 1.88822856685024 2.94888873837606 5.20877862908599e-006
vertex 2.24999999908114 2.79903810471023 5.09877675428517e-006
endloop
endfacet
facet normal -0.258819322812943 -0.965925751876232 -9.92073103321686e-007
outer loop
vertex 1.88822856685024 2.94888873837606 5.20877862908599e-006
vertex 2.24999608775364 2.79903628559 1.00001904649307
vertex 1.88822465552445 2.94888691925663 1.00001872233965
endloop
endfacet
facet normal -0.258818911380737 -0.965925862119193 -9.92073023139251e-007
outer loop
vertex 1.88822465552445 2.94888691925663 1.00001872233965
vertex 1.49999999933036 2.99999999888537 5.21831584906182e-006
vertex 1.88822856685024 2.94888873837606 5.20877862908599e-006
endloop
endfacet
facet normal -3.16133845799868e-007 -0.999999999999536 -9.0954756452296e-007
outer loop
vertex 1.49999999933036 2.99999999888537 5.21831584906182e-006
vertex 1.88822465552445 2.94888691925663 1.00001872233965
vertex 1.49999608800832 2.99999817976768 1.00001777128336
endloop
endfacet
facet normal -3.16133845799868e-007 -0.999999999999536 -9.0954756452296e-007
outer loop
vertex 1.49999999933036 2.99999999888537 5.21831584906182e-006
vertex 1.11176752050345 2.9488869191847 1.00001625813711
vertex 1.11177143181993 2.94888873829981 5.12673846843232e-006
endloop
endfacet
facet normal 0.258819025942052 -0.965925831422797 -7.65037661623476e-007
outer loop
vertex 1.11176752050345 2.9488869191847 1.00001625813711
vertex 1.49999999933036 2.99999999888537 5.21831584906182e-006
vertex 1.49999608800832 2.99999817976768 1.00001777128336
endloop
endfacet
facet normal 0.258818732907035 -0.96592590994124 -7.65037861564504e-007
outer loop
vertex 1.11177143181993 2.94888873829981 5.12673846843232e-006
vertex 0.749996088307251 2.79903628545106 1.00001428601933
vertex 0.749999999616746 2.79903810456291 4.94028733434858e-006
endloop
endfacet
facet normal 0.499999913655855 -0.866025453635062 -5.68391902987755e-007
outer loop
vertex 0.749996088307251 2.79903628545106 1.00001428601933
vertex 1.11177143181993 2.94888873829981 5.12673846843232e-006
vertex 1.11176752050345 2.9488869191847 1.00001625813711
endloop
endfacet
facet normal 0.499999733048695 -0.866025557908605 -5.68392077043555e-007
outer loop
vertex 0.749999999616746 2.79903810456291 4.94028733434858e-006
vertex 0.439335916668328 2.56065835161582 1.00001198932656
vertex 0.43933982796989 2.56066017072398 4.67166878347336e-006
endloop
endfacet
facet normal 0.707106659023718 -0.707106903349277 -3.33011192489486e-007
outer loop
vertex 0.439335916668328 2.56065835161582 1.00001198932656
vertex 0.749999999616746 2.79903810456291 4.94028733434858e-006
vertex 0.749996088307251 2.79903628545106 1.00001428601933
endloop
endfacet
facet normal 0.866025294915777 -0.500000188565999 -7.4936303844982e-008
outer loop
vertex 0.200961894186891 2.24999999903601 4.33918872613569e-006
vertex 0.439335916668328 2.56065835161582 1.00001198932656
vertex 0.200957982893668 2.24999817993173 1.00000952457464
endloop
endfacet
facet normal 0.707106659023718 -0.707106903349277 -3.33011192489486e-007
outer loop
vertex 0.439335916668328 2.56065835161582 1.00001198932656
vertex 0.200961894186891 2.24999999903601 4.33918872613569e-006
vertex 0.43933982796989 2.56066017072398 4.67166878347336e-006
endloop
endfacet
facet normal 0.965925787891955 -0.258819188402387 1.88245481766953e-007
outer loop
vertex 0.0511112605168989 1.88822856680926 3.9655051287938e-006
vertex 0.200957982893668 2.24999817993173 1.00000952457464
vertex 0.0511073492318549 1.88822674770878 1.00000705973234
endloop
endfacet
facet normal 0.86602528676151 -0.500000202689597 -7.49363202675149e-008
outer loop
vertex 0.200957982893668 2.24999817993173 1.00000952457464
vertex 0.0511112605168989 1.88822856680926 3.9655051287938e-006
vertex 0.200961894186891 2.24999999903601 4.33918872613569e-006
endloop
endfacet
facet normal 0.965925849278732 0.258818959303074 6.59061952225793e-007
outer loop
vertex 30.0511112600036 1.11177143286904 2.03482116558942e-005
vertex 29.9999960881294 1.49999818141057 1.00003031796057
vertex 30.0511073486949 1.11176961375754 1.00002949778124
endloop
endfacet
facet normal 0.999999999999904 -8.72855859947625e-009 4.38598704720552e-007
outer loop
vertex 29.9999960881294 1.49999818141057 1.00003031796057
vertex 30.0511112600036 1.11177143286904 2.03482116558942e-005
vertex 29.9999999994419 1.50000000052382 2.02047494586752e-005
endloop
endfacet
facet normal 0.866025397286089 0.500000011254776 8.34611347572976e-007
outer loop
vertex 30.2009618937556 0.750000000521718 2.04564183459252e-005
vertex 30.0511073486949 1.11176961375754 1.00002949778124
vertex 30.2009579824509 0.749998181412075 1.00002858711832
endloop
endfacet
facet normal 0.965925858213316 0.258818925958739 6.59061925816236e-007
outer loop
vertex 30.0511073486949 1.11176961375754 1.00002949778124
vertex 30.2009618937556 0.750000000521718 2.04564183459252e-005
vertex 30.0511112600036 1.11177143286904 2.03482116558942e-005
endloop
endfacet
facet normal 0.707106700623645 0.707106861748799 9.53283314558956e-007
outer loop
vertex 30.4393398276476 0.439339828740753 2.05219954216627e-005
vertex 30.2009579824509 0.749998181412075 1.00002858711832
vertex 30.4393359163468 0.439338009632938 1.000027648032
endloop
endfacet
facet normal 0.866025518563488 0.499999801196106 8.34611209706764e-007
outer loop
vertex 30.2009579824509 0.749998181412075 1.00002858711832
vertex 30.4393398276476 0.439339828740753 2.05219954216627e-005
vertex 30.2009618937556 0.750000000521718 2.04564183459252e-005
endloop
endfacet
facet normal 0.707107007549934 0.707106554822446 9.53283170012357e-007
outer loop
vertex 30.4393359163468 0.439338009632938 1.000027648032
vertex 30.7499999994229 0.200961894842813 2.05404739137665e-005
vertex 30.4393398276476 0.439339828740753 2.05219954216627e-005
endloop
endfacet
facet normal 0.499999820641528 0.866025507336491 1.00699054864055e-006
outer loop
vertex 30.7499999994229 0.200961894842813 2.05404739137665e-005
vertex 30.4393359163468 0.439338009632938 1.000027648032
vertex 30.7499960881257 0.200960075736676 1.00002674451944
endloop
endfacet
facet normal 0.499999820641528 0.866025507336491 1.00699054864055e-006
outer loop
vertex 30.7499999994229 0.200961894842813 2.05404739137665e-005
vertex 31.1117675204712 0.0511094419801973 1.00002593815354
vertex 31.1117714317654 0.0511112610849223 2.05105945435367e-005
endloop
endfacet
facet normal 0.258819461540884 0.965925714704139 9.9207313007841e-007
outer loop
vertex 31.1117675204712 0.0511094419801973 1.00002593815354
vertex 30.7499999994229 0.200961894842813 2.05404739137665e-005
vertex 30.7499960881257 0.200960075736676 1.00002674451944
endloop
endfacet
facet normal 0.258818768689796 0.965925900353083 9.92072995051334e-007
outer loop
vertex 31.1117714317654 0.0511112610849223 2.05105945435367e-005
vertex 31.4999960881245 -1.81858592683473e-006 1.00002528388681
vertex 31.4999999994164 5.17746672757173e-010 2.04343935406766e-005
endloop
endfacet
facet normal 4.43998867675447e-007 0.999999999999488 9.09547620650897e-007
outer loop
vertex 31.4999960881245 -1.81858592683473e-006 1.00002528388681
vertex 31.1117714317654 0.0511112610849223 2.05105945435367e-005
vertex 31.1117675204712 0.0511094419801973 1.00002593815354
endloop
endfacet
facet normal -3.45719890914742e-007 0.999999999999527 9.09547274281301e-007
outer loop
vertex 31.4999999994164 5.17746672757173e-010 2.04343935406766e-005
vertex 31.888224655778 0.0511094419805582 1.00002482630643
vertex 31.8882285670686 0.0511112610836128 2.0317063877603e-005
endloop
endfacet
facet normal -0.25881863302745 0.965925936703854 7.65037930095266e-007
outer loop
vertex 31.888224655778 0.0511094419805582 1.00002482630643
vertex 31.4999999994164 5.17746672757173e-010 2.04343935406766e-005
vertex 31.4999960881245 -1.81858592683473e-006 1.00002528388681
endloop
endfacet
facet normal -0.258819413811633 0.965925727493381 7.65037397357483e-007
outer loop
vertex 31.8882285670686 0.0511112610836128 2.0317063877603e-005
vertex 32.2499960881242 0.200960075737398 1.00002459659576
vertex 32.2499999994144 0.200961894840308 2.01666013769579e-005
endloop
endfacet
facet normal -0.499999670779025 0.866025593859987 5.68392137740384e-007
outer loop
vertex 32.2499960881242 0.200960075737398 1.00002459659576
vertex 31.8882285670686 0.0511112610836128 2.0317063877603e-005
vertex 31.888224655778 0.0511094419805582 1.00002482630643
endloop
endfacet
facet normal -0.500000339220397 0.866025207935176 5.6839149354594e-007
outer loop
vertex 32.2499999994144 0.200961894840308 2.01666013769579e-005
vertex 32.5606562599042 0.439338009633931 1.00002461040919
vertex 32.5606601711952 0.439339828737181 1.99932598095092e-005
endloop
endfacet
facet normal -0.707106563549409 0.707106998823541 3.33011322143021e-007
outer loop
vertex 32.5606562599042 0.439338009633931 1.00002461040919
vertex 32.2499999994144 0.200961894840308 2.01666013769579e-005
vertex 32.2499960881242 0.200960075737398 1.00002459659576
endloop
endfacet
facet normal -0.866025296562256 0.500000185714217 7.49363016656624e-008
outer loop
vertex 32.7990341938015 0.749998181413293 1.00002486680537
vertex 32.5606601711952 0.439339828737181 1.99932598095092e-005
vertex 32.5606562599042 0.439338009633931 1.00002461040919
endloop
endfacet
facet normal -0.707107046341898 0.707106516031019 3.33010671268162e-007
outer loop
vertex 32.5606601711952 0.439339828737181 1.99932598095092e-005
vertex 32.7990341938015 0.749998181413293 1.00002486680537
vertex 32.7990381050942 0.750000000517346 1.98088521166181e-005
endloop
endfacet
facet normal -0.965925798727534 0.258819147963476 -1.88245522047406e-007
outer loop
vertex 32.9488848275591 1.11176961375892 1.00002534831131
vertex 32.7990381050942 0.750000000517346 1.98088521166181e-005
vertex 32.7990341938015 0.749998181413293 1.00002486680537
endloop
endfacet
facet normal -0.866025570144253 0.499999711856233 7.49357506766411e-008
outer loop
vertex 32.7990381050942 0.750000000517346 1.98088521166181e-005
vertex 32.9488848275591 1.11176961375892 1.00002534831131
vertex 32.9488887388545 1.11177143286418 1.9625945377807e-005
endloop
endfacet
facet normal -0.999999999999904 -8.72237252038487e-009 -4.38598720593002e-007
outer loop
vertex 32.9999960881264 1.49999818141202 1.00002602211319
vertex 32.9488887388545 1.11177143286418 1.9625945377807e-005
vertex 32.9488848275591 1.11176961375892 1.00002534831131
endloop
endfacet
facet normal -0.965925895595209 0.258818786448275 -1.88245893348665e-007
outer loop
vertex 32.9488887388545 1.11177143286418 1.9625945377807e-005
vertex 32.9999960881264 1.49999818141202 1.00002602211319
vertex 32.999999999425 1.50000000051881 1.94570043850581e-005
endloop
endfacet
facet normal -0.96592579436613 -0.25881916423968 -6.59062114535697e-007
outer loop
vertex 32.9488848275609 1.88822674906505 1.00002684229253
vertex 32.999999999425 1.50000000051881 1.94570043850581e-005
vertex 32.9999960881264 1.49999818141202 1.00002602211319
endloop
endfacet
facet normal -0.999999999999887 -1.84588702714315e-007 -4.38598880551762e-007
outer loop
vertex 32.999999999425 1.50000000051881 1.94570043850581e-005
vertex 32.9488848275609 1.88822674906505 1.00002684229253
vertex 32.9488887388633 1.8882285681736 1.93135421878392e-005
endloop
endfacet
facet normal -0.866025289008013 -0.500000198797852 -8.34611470643189e-007
outer loop
vertex 32.799034193805 2.24999818141052 1.00002775295544
vertex 32.9488887388633 1.8882285681736 1.93135421878392e-005
vertex 32.9488848275609 1.88822674906505 1.00002684229253
endloop
endfacet
facet normal -0.965925803300676 -0.258819130895515 -6.59062088126278e-007
outer loop
vertex 32.9488887388633 1.8882285681736 1.93135421878392e-005
vertex 32.799034193805 2.24999818141052 1.00002775295544
vertex 32.7990381051113 2.25000000052092 1.92053354978081e-005
endloop
endfacet
facet normal -0.707106554826468 -0.707107007545912 -9.53283383193662e-007
outer loop
vertex 32.5606562599091 2.56065835318965 1.00002869204176
vertex 32.7990381051113 2.25000000052092 1.92053354978081e-005
vertex 32.799034193805 2.24999818141052 1.00002775295544
endloop
endfacet
facet normal -0.866025410285375 -0.499999988739351 -8.34611332777115e-007
outer loop
vertex 32.7990381051113 2.25000000052092 1.92053354978081e-005
vertex 32.5606562599091 2.56065835318965 1.00002869204176
vertex 32.5606601712194 2.56066017230188 1.91397584220706e-005
endloop
endfacet
facet normal -0.707106861752742 -0.707106700619701 -9.53283238647186e-007
outer loop
vertex 32.5606601712194 2.56066017230188 1.91397584220706e-005
vertex 32.2499960881301 2.79903628708592 1.00002959555432
vertex 32.249999999444 2.79903810619982 1.91212799299669e-005
endloop
endfacet
facet normal -0.49999966322483 -0.866025598221001 -1.00699056222639e-006
outer loop
vertex 32.2499960881301 2.79903628708592 1.00002959555432
vertex 32.5606601712194 2.56066017230188 1.91397584220706e-005
vertex 32.5606562599091 2.56065835318965 1.00002869204176
endloop
endfacet
facet normal -0.49999966322483 -0.866025598221001 -1.00699056222639e-006
outer loop
vertex 32.2499960881301 2.79903628708592 1.00002959555432
vertex 31.8882285671015 2.94888873995771 1.91511593001966e-005
vertex 32.249999999444 2.79903810619982 1.91212799299669e-005
endloop
endfacet
facet normal -0.258819321517775 -0.965925752223272 -9.92073102747111e-007
outer loop
vertex 31.8882285671015 2.94888873995771 1.91511593001966e-005
vertex 32.2499960881301 2.79903628708592 1.00002959555432
vertex 31.8882246557846 2.94888692084239 1.00003040192022
endloop
endfacet
facet normal -0.2588186286666 -0.965925937872131 -9.9207296771992e-007
outer loop
vertex 31.8882246557846 2.94888692084239 1.00003040192022
vertex 31.4999999994505 3.00000000052489 1.92273603030567e-005
vertex 31.8882285671015 2.94888873995771 1.91511593001966e-005
endloop
endfacet
facet normal -3.45721759218625e-007 -0.999999999999527 -9.09547577503001e-007
outer loop
vertex 31.4999999994505 3.00000000052489 1.92273603030567e-005
vertex 31.8882246557846 2.94888692084239 1.00003040192022
vertex 31.4999960881313 2.99999818140852 1.00003105618696
endloop
endfacet
facet normal 4.43997134629395e-007 -0.999999999999488 -9.09547231133275e-007
outer loop
vertex 31.4999960881313 2.99999818140852 1.00003105618696
vertex 31.1117714317984 2.94888873995902 1.93446899661303e-005
vertex 31.4999999994505 3.00000000052489 1.92273603030567e-005
endloop
endfacet
facet normal 0.258818676391926 -0.965925925084396 -7.65037900463846e-007
outer loop
vertex 31.1117714317984 2.94888873995902 1.93446899661303e-005
vertex 31.4999960881313 2.99999818140852 1.00003105618696
vertex 31.1117675204778 2.94888692084203 1.00003151376734
endloop
endfacet
facet normal 0.258819457176267 -0.965925715873844 -7.6503736772592e-007
outer loop
vertex 31.1117675204778 2.94888692084203 1.00003151376734
vertex 30.7499999994525 2.79903810620233 1.94951524667754e-005
vertex 31.1117714317984 2.94888873995902 1.93446899661303e-005
endloop
endfacet
facet normal 0.499999660778034 -0.866025599634057 -5.68392147339048e-007
outer loop
vertex 30.7499999994525 2.79903810620233 1.94951524667754e-005
vertex 31.1117675204778 2.94888692084203 1.00003151376734
vertex 30.7499960881316 2.79903628708519 1.00003174347801
endloop
endfacet
facet normal 0.500000329219553 -0.866025213709171 -5.68391503144472e-007
outer loop
vertex 30.7499960881316 2.79903628708519 1.00003174347801
vertex 30.4393398276717 2.56066017230545 1.96684940342241e-005
vertex 30.7499999994525 2.79903810620233 1.94951524667754e-005
endloop
endfacet
facet normal 0.707106516029345 -0.707107046343572 -3.33011386176069e-007
outer loop
vertex 30.4393398276717 2.56066017230545 1.96684940342241e-005
vertex 30.7499960881316 2.79903628708519 1.00003174347801
vertex 30.4393359163516 2.56065835318866 1.00003172966458
endloop
endfacet
facet normal 0.866025237422714 -0.500000288146842 -7.49364207547234e-008
outer loop
vertex 30.2009618937727 2.25000000052529 1.98529017271152e-005
vertex 30.4393359163516 2.56065835318866 1.00003172966458
vertex 30.2009579824543 2.2499981814093 1.0000314732684
endloop
endfacet
facet normal 0.707106998821945 -0.707106563551004 -3.33010735301119e-007
outer loop
vertex 30.4393359163516 2.56065835318866 1.00003172966458
vertex 30.2009618937727 2.25000000052529 1.98529017271152e-005
vertex 30.4393398276717 2.56066017230545 1.96684940342241e-005
endloop
endfacet
facet normal 0.965925756981537 -0.258819303761541 1.88245362035312e-007
outer loop
vertex 30.0511112600125 1.88822856817846 2.00358084659264e-005
vertex 30.2009579824543 2.2499981814093 1.0000314732684
vertex 30.0511073486967 1.88822674906368 1.00003099176246
endloop
endfacet
facet normal 0.866025511004782 -0.499999814288866 -7.49358697656778e-008
outer loop
vertex 30.2009579824543 2.2499981814093 1.0000314732684
vertex 30.0511112600125 1.88822856817846 2.00358084659264e-005
vertex 30.2009618937727 2.25000000052529 1.98529017271152e-005
endloop
endfacet
facet normal 0.999999999999887 -1.84594753428641e-007 4.385985447619e-007
outer loop
vertex 29.9999999994419 1.50000000052382 2.02047494586752e-005
vertex 30.0511073486967 1.88822674906368 1.00003099176246
vertex 29.9999960881294 1.49999818141057 1.00003031796057
endloop
endfacet
facet normal 0.965925853849255 -0.258818942246415 1.88245733336521e-007
outer loop
vertex 30.0511073486967 1.88822674906368 1.00003099176246
vertex 29.9999999994419 1.50000000052382 2.02047494586752e-005
vertex 30.0511112600125 1.88822856817846 2.00358084659264e-005
endloop
endfacet
facet normal 1.30375288918444e-006 6.19421338578082e-007 -0.999999999998958
outer loop
vertex 13.0000006506733 14.4999986163261 3.5000143509701
vertex 19.9999995051345 2.99999944729017 3.50001635389395
vertex 13.0000001958242 2.99999975413329 3.50000722762482
endloop
endfacet
facet normal 1.30375288918444e-006 6.19421338578082e-007 -0.999999999998958
outer loop
vertex 19.9999995051345 2.99999944729017 3.50001635389395
vertex 13.0000006506733 14.4999986163261 3.5000143509701
vertex 19.9999999599837 14.499998309483 3.50002347723924
endloop
endfacet
facet normal -4.86444218291734e-014 -1.0 -8.45421073750933e-009
outer loop
vertex 6.99999832916428 5.99999815440559 5.0000124111035
vertex -4.00000087719753 5.99999817976877 2.00001052942619
vertex 6.99999912169594 5.99999817976823 2.00001052942619
endloop
endfacet
facet normal -0.263117561831829 -5.3151997444201e-007 0.964763778681285
outer loop
vertex 6.99999832916428 5.99999815440559 5.0000124111035
vertex -4.00000087719743 6.99999817976768 2.00001126702437
vertex -4.00000087719753 5.99999817976877 2.00001052942619
endloop
endfacet
facet normal -0.263117561831829 -5.3151997444201e-007 0.964763778681285
outer loop
vertex -4.00000087719743 6.99999817976768 2.00001126702437
vertex 6.99999832916428 5.99999815440559 5.0000124111035
vertex 6.99999832916405 6.99999815440559 5.00001277537081
endloop
endfacet
facet normal 2.8515521478979e-008 0.999999999999964 2.66463492093488e-007
outer loop
vertex 25.0000009466135 6.9999994217241 2.34520208005717e-005
vertex 36.9999991222019 6.99999817976768 2.00001126702437
vertex 36.9999999993993 6.99999999886253 1.12670253876512e-005
endloop
endfacet
facet normal 2.8515521478979e-008 0.999999999999964 2.66463492093488e-007
outer loop
vertex 36.9999991222019 6.99999817976768 2.00001126702437
vertex 25.0000009466135 6.9999994217241 2.34520208005717e-005
vertex 25.0000009466135 6.99999878806485 5.00001382260984
endloop
endfacet
facet normal 2.8515521478979e-008 0.999999999999964 2.66463492093488e-007
outer loop
vertex 36.9999991222019 6.99999817976768 2.00001126702437
vertex 25.0000009466135 6.99999878806485 5.00001382260984
vertex 25.9999983296994 6.99999815440559 5.00001388078962
endloop
endfacet
facet normal -0.999999999999965 -3.15507463343229e-013 -2.64177075883636e-007
outer loop
vertex 6.99999832916428 5.99999815440559 5.0000124111035
vertex 6.99999912169927 -3.00000181855289 2.00000894453005
vertex 6.99999832916793 -3.00000184391498 5.00000913269769
endloop
endfacet
facet normal -0.999999999999965 -3.15507463343229e-013 -2.64177075883636e-007
outer loop
vertex 6.99999912169927 -3.00000181855289 2.00000894453005
vertex 6.99999832916428 5.99999815440559 5.0000124111035
vertex 6.99999912169594 5.99999817976823 2.00001052942619
endloop
endfacet
facet normal -9.82408838124973e-013 -1.0 -8.45403150738349e-009
outer loop
vertex 6.99999832916793 -3.00000184391498 5.00000913269769
vertex -4.00000087719647 -3.00000181854197 1.99999581434254
vertex 6.99999912169927 -3.00000181855289 2.00000894453005
endloop
endfacet
facet normal 0.999999999999992 -1.10142010005955e-009 1.28785687201211e-007
outer loop
vertex 25.9999991222296 5.99999817976746 2.00001518259853
vertex 25.9999987259595 -3.00000181857644 5.00001735438211
vertex 25.9999991222204 -3.00000181857644 2.00002491789519
endloop
endfacet
facet normal 0.999999999999992 -1.10142010005955e-009 1.28785687201211e-007
outer loop
vertex 25.9999987259595 -3.00000181857644 5.00001735438211
vertex 25.9999991222296 5.99999817976746 2.00001518259853
vertex 25.9999987457775 5.99999817976745 5.00001422814886
endloop
endfacet
facet normal 2.16243361612598e-012 1.0 -1.17213269636175e-016
outer loop
vertex 25.9999987259595 -3.00000181857644 5.00001735438211
vertex 36.9999991221882 -3.00000181860022 2.00003527757702
vertex 25.9999991222204 -3.00000181857644 2.00002491789519
endloop
endfacet
facet normal -1.6528849033823e-013 -1.0 -5.40495821887117e-015
outer loop
vertex 25.9999987457775 5.99999817976745 5.00001422814886
vertex 25.9999991222296 5.99999817976746 2.00001518259853
vertex 36.9999991222005 5.99999817976564 2.00001442533908
endloop
endfacet
facet normal 0.263117491416527 1.74581223498097e-006 0.964763797884035
outer loop
vertex 25.9999987457775 5.99999817976745 5.00001422814886
vertex 36.9999991222019 6.99999817976768 2.00001126702437
vertex 25.9999983296994 6.99999815440559 5.00001388078962
endloop
endfacet
facet normal 0.263117491416527 1.74581223498097e-006 0.964763797884035
outer loop
vertex 36.9999991222019 6.99999817976768 2.00001126702437
vertex 25.9999987457775 5.99999817976745 5.00001422814886
vertex 36.9999991222005 5.99999817976564 2.00001442533908
endloop
endfacet
facet normal 5.02624339540878e-007 -5.31351645736142e-007 0.999999999999733
outer loop
vertex 6.99999912169927 -3.00000181855289 2.00000894453005
vertex -1.85000087826167 -1.85000181951823 2.00002857685125
vertex -4.00000087719647 -3.00000181854197 1.99999581434254
endloop
endfacet
facet normal 5.02624339540878e-007 -5.31351645736142e-007 0.999999999999733
outer loop
vertex -1.85000087826167 -1.85000181951823 2.00002857685125
vertex 6.99999912169927 -3.00000181855289 2.00000894453005
vertex 4.84999912170749 -1.85000181951823 2.00000824854531
endloop
endfacet
facet normal 5.02624339540878e-007 -5.31351645736142e-007 0.999999999999733
outer loop
vertex 4.84999912170749 -1.85000181951823 2.00000824854531
vertex 6.99999912169927 -3.00000181855289 2.00000894453005
vertex 4.84999912170749 4.84999818048178 2.00000824854531
endloop
endfacet
facet normal 5.02624339540878e-007 -5.31351645736142e-007 0.999999999999733
outer loop
vertex 4.84999912170749 4.84999818048178 2.00000824854531
vertex 6.99999912169927 -3.00000181855289 2.00000894453005
vertex 6.99999912169594 5.99999817976823 2.00001052942619
endloop
endfacet
facet normal 5.02624339540878e-007 -5.31351645736142e-007 0.999999999999733
outer loop
vertex -4.00000087719753 5.99999817976877 2.00001052942619
vertex -1.85000087826167 4.84999818048178 2.00002857685125
vertex 6.99999912169594 5.99999817976823 2.00001052942619
endloop
endfacet
facet normal 5.02624339540878e-007 -5.31351645736142e-007 0.999999999999733
outer loop
vertex -1.85000087826167 4.84999818048178 2.00002857685125
vertex -4.00000087719753 5.99999817976877 2.00001052942619
vertex -4.00000087719647 -3.00000181854197 1.99999581434254
endloop
endfacet
facet normal 5.02624339540878e-007 -5.31351645736142e-007 0.999999999999733
outer loop
vertex -1.85000087826167 4.84999818048178 2.00002857685125
vertex -4.00000087719647 -3.00000181854197 1.99999581434254
vertex -1.85000087826167 -1.85000181951823 2.00002857685125
endloop
endfacet
facet normal 5.02624339540878e-007 -5.31351645736142e-007 0.999999999999733
outer loop
vertex 6.99999912169594 5.99999817976823 2.00001052942619
vertex -1.85000087826167 4.84999818048178 2.00002857685125
vertex 4.84999912170749 4.84999818048178 2.00000824854531
endloop
endfacet
facet normal 3.03407551370849e-006 0.0 0.999999999995397
outer loop
vertex -1.85000391233718 -1.85000181951823 1.00002857685586
vertex 0.200957983058793 0.749998180500459 1.00000127653961
vertex -1.85000391233718 4.84999818048178 1.00002857685586
endloop
endfacet
facet normal 3.03407551370849e-006 0.0 0.999999999995397
outer loop
vertex 0.200957983058793 0.749998180500459 1.00000127653961
vertex -1.85000391233718 -1.85000181951823 1.00002857685586
vertex 0.439335916901849 0.439338008860493 1.00000032484355
endloop
endfacet
facet normal 3.03407551370849e-006 0.0 0.999999999995397
outer loop
vertex 0.439335916901849 0.439338008860493 1.00000032484355
vertex -1.85000391233718 -1.85000181951823 1.00002857685586
vertex 0.749996088593255 0.200960075082827 1.00000000000358
endloop
endfacet
facet normal 3.03407551370849e-006 0.0 0.999999999995397
outer loop
vertex 0.749996088593255 0.200960075082827 1.00000000000358
vertex -1.85000391233718 -1.85000181951823 1.00002857685586
vertex 4.84999608763198 -1.85000181951823 1.00000824854992
endloop
endfacet
facet normal 3.03407551370849e-006 0.0 0.999999999995397
outer loop
vertex -1.85000391233718 4.84999818048178 1.00002857685586
vertex 0.200957983058793 0.749998180500459 1.00000127653961
vertex 0.0511073493173297 1.11176961269561 1.00000279023524
endloop
endfacet
facet normal 3.03407551370849e-006 0.0 0.999999999995397
outer loop
vertex -1.85000391233718 4.84999818048178 1.00002857685586
vertex 0.0511073493173297 1.11176961269561 1.00000279023524
vertex -3.91127294160582e-006 1.49999818019747 1.00000476277458
endloop
endfacet
facet normal 3.03407551370849e-006 0.0 0.999999999995397
outer loop
vertex 0.749996088593255 0.200960075082827 1.00000000000358
vertex 4.84999608763198 -1.85000181951823 1.00000824854992
vertex 1.11176752082245 0.051109441416204 1.000000324157
endloop
endfacet
facet normal 3.03407551370849e-006 0.0 0.999999999995397
outer loop
vertex 1.11176752082245 0.051109441416204 1.000000324157
vertex 4.84999608763198 -1.85000181951823 1.00000824854992
vertex 1.49999608833857 -1.81909485182576e-006 1.00000127521329
endloop
endfacet
facet normal 3.03407551370849e-006 0.0 0.999999999995397
outer loop
vertex 1.49999608833857 -1.81909485182576e-006 1.00000127521329
vertex 4.84999608763198 -1.85000181951823 1.00000824854992
vertex 1.88822465584344 0.0511094414881244 1.00000278835954
endloop
endfacet
facet normal 3.03407551370849e-006 0.0 0.999999999995397
outer loop
vertex 1.88822465584344 0.0511094414881244 1.00000278835954
vertex 4.84999608763198 -1.85000181951823 1.00000824854992
vertex 2.24999608803965 0.200960075221772 1.00000476047733
endloop
endfacet
facet normal 3.03407551370849e-006 0.0 0.999999999995397
outer loop
vertex 2.24999608803965 0.200960075221772 1.00000476047733
vertex 4.84999608763198 -1.85000181951823 1.00000824854992
vertex 2.56065625967857 0.439338009057011 1.00000705717009
endloop
endfacet
facet normal 3.03407551370849e-006 0.0 0.999999999995397
outer loop
vertex 2.56065625967857 0.439338009057011 1.00000705717009
vertex 4.84999608763198 -1.85000181951823 1.00000824854992
vertex 2.79903419345323 0.749998180741126 1.00000952192201
endloop
endfacet
facet normal 3.03407551370849e-006 0.0 0.999999999995397
outer loop
vertex 2.79903419345323 0.749998180741126 1.00000952192201
vertex 4.84999608763198 -1.85000181951823 1.00000824854992
vertex 2.94888482711504 1.11176961296405 1.00001198676431
endloop
endfacet
facet normal 3.03407551370849e-006 0.0 0.999999999995397
outer loop
vertex 2.94888482711504 1.11176961296405 1.00001198676431
vertex 4.84999608763198 -1.85000181951823 1.00000824854992
vertex 2.99999608761984 1.49999818047536 1.00001428372207
endloop
endfacet
facet normal 3.03407551370849e-006 0.0 0.999999999995397
outer loop
vertex -1.85000391233718 4.84999818048178 1.00002857685586
vertex 0.749996088307251 2.79903628545106 1.00001428601933
vertex 4.84999608763198 4.84999818048178 1.00000824854992
endloop
endfacet
facet normal 3.03407551370849e-006 0.0 0.999999999995397
outer loop
vertex 0.749996088307251 2.79903628545106 1.00001428601933
vertex -1.85000391233718 4.84999818048178 1.00002857685586
vertex 0.439335916668328 2.56065835161582 1.00001198932656
endloop
endfacet
facet normal 3.03407551370849e-006 0.0 0.999999999995397
outer loop
vertex 0.439335916668328 2.56065835161582 1.00001198932656
vertex -1.85000391233718 4.84999818048178 1.00002857685586
vertex 0.200957982893668 2.24999817993173 1.00000952457464
endloop
endfacet
facet normal 3.03407551370849e-006 0.0 0.999999999995397
outer loop
vertex 0.200957982893668 2.24999817993173 1.00000952457464
vertex -1.85000391233718 4.84999818048178 1.00002857685586
vertex 0.0511073492318549 1.88822674770878 1.00000705973234
endloop
endfacet
facet normal 3.03407551370849e-006 0.0 0.999999999995397
outer loop
vertex 0.0511073492318549 1.88822674770878 1.00000705973234
vertex -1.85000391233718 4.84999818048178 1.00002857685586
vertex -3.91127294160582e-006 1.49999818019747 1.00000476277458
endloop
endfacet
facet normal 3.03407551370849e-006 0.0 0.999999999995397
outer loop
vertex 4.84999608763198 4.84999818048178 1.00000824854992
vertex 0.749996088307251 2.79903628545106 1.00001428601933
vertex 1.11176752050345 2.9488869191847 1.00001625813711
endloop
endfacet
facet normal 3.03407551370849e-006 0.0 0.999999999995397
outer loop
vertex 4.84999608763198 4.84999818048178 1.00000824854992
vertex 1.11176752050345 2.9488869191847 1.00001625813711
vertex 1.49999608800832 2.99999817976768 1.00001777128336
endloop
endfacet
facet normal 3.03407551370849e-006 0.0 0.999999999995397
outer loop
vertex 4.84999608763198 4.84999818048178 1.00000824854992
vertex 1.49999608800832 2.99999817976768 1.00001777128336
vertex 1.88822465552445 2.94888691925663 1.00001872233965
endloop
endfacet
facet normal 3.03407551370849e-006 0.0 0.999999999995397
outer loop
vertex 4.84999608763198 4.84999818048178 1.00000824854992
vertex 1.88822465552445 2.94888691925663 1.00001872233965
vertex 2.24999608775364 2.79903628559 1.00001904649307
endloop
endfacet
facet normal 3.03407551370849e-006 0.0 0.999999999995397
outer loop
vertex 4.84999608763198 4.84999818048178 1.00000824854992
vertex 2.24999608775364 2.79903628559 1.00001904649307
vertex 2.56065625944505 2.56065835181234 1.0000187216531
endloop
endfacet
facet normal 3.03407551370849e-006 0.0 0.999999999995397
outer loop
vertex 4.84999608763198 4.84999818048178 1.00000824854992
vertex 2.56065625944505 2.56065835181234 1.0000187216531
vertex 2.7990341932881 2.24999818017237 1.00001776995705
endloop
endfacet
facet normal 3.03407551370849e-006 0.0 0.999999999995397
outer loop
vertex 4.84999608763198 4.84999818048178 1.00000824854992
vertex 2.7990341932881 2.24999818017237 1.00001776995705
vertex 2.94888482702957 1.88822674797722 1.00001625626142
endloop
endfacet
facet normal 3.03407551370849e-006 0.0 0.999999999995397
outer loop
vertex 4.84999608763198 4.84999818048178 1.00000824854992
vertex 2.94888482702957 1.88822674797722 1.00001625626142
vertex 2.99999608761984 1.49999818047536 1.00001428372207
endloop
endfacet
facet normal 3.03407551370849e-006 0.0 0.999999999995397
outer loop
vertex 4.84999608763198 4.84999818048178 1.00000824854992
vertex 2.99999608761984 1.49999818047536 1.00001428372207
vertex 4.84999608763198 -1.85000181951823 1.00000824854992
endloop
endfacet
facet normal -0.999999999995397 -0.0 3.03407551370849e-006
outer loop
vertex 4.84999912170749 4.84999818048178 2.00000824854531
vertex 4.84999608763198 -1.85000181951823 1.00000824854992
vertex 4.84999912170749 -1.85000181951823 2.00000824854531
endloop
endfacet
facet normal -0.999999999995397 -0.0 3.03407551370849e-006
outer loop
vertex 4.84999608763198 -1.85000181951823 1.00000824854992
vertex 4.84999912170749 4.84999818048178 2.00000824854531
vertex 4.84999608763198 4.84999818048178 1.00000824854992
endloop
endfacet
facet normal -0.0 -1.0 -0.0
outer loop
vertex 4.84999912170749 4.84999818048178 2.00000824854531
vertex -1.85000391233718 4.84999818048178 1.00002857685586
vertex 4.84999608763198 4.84999818048178 1.00000824854992
endloop
endfacet
facet normal -0.0 -1.0 -0.0
outer loop
vertex -1.85000391233718 4.84999818048178 1.00002857685586
vertex 4.84999912170749 4.84999818048178 2.00000824854531
vertex -1.85000087826167 4.84999818048178 2.00002857685125
endloop
endfacet
facet normal 0.999999999995397 -0.0 -3.03407551370849e-006
outer loop
vertex -1.85000391233718 4.84999818048178 1.00002857685586
vertex -1.85000087826167 -1.85000181951823 2.00002857685125
vertex -1.85000391233718 -1.85000181951823 1.00002857685586
endloop
endfacet
facet normal 0.999999999995397 -0.0 -3.03407551370849e-006
outer loop
vertex -1.85000087826167 -1.85000181951823 2.00002857685125
vertex -1.85000391233718 4.84999818048178 1.00002857685586
vertex -1.85000087826167 4.84999818048178 2.00002857685125
endloop
endfacet
facet normal -0.0 1.0 0.0
outer loop
vertex -1.85000391233718 -1.85000181951823 1.00002857685586
vertex 4.84999912170749 -1.85000181951823 2.00000824854531
vertex 4.84999608763198 -1.85000181951823 1.00000824854992
endloop
endfacet
facet normal -0.0 1.0 0.0
outer loop
vertex 4.84999912170749 -1.85000181951823 2.00000824854531
vertex -1.85000391233718 -1.85000181951823 1.00002857685586
vertex -1.85000087826167 -1.85000181951823 2.00002857685125
endloop
endfacet
facet normal 8.84948448580196e-007 1.42006310443231e-006 0.9999999999986
outer loop
vertex 25.9999991222204 -3.00000181857644 2.00002491789519
vertex 28.1499991222237 -1.85000181859585 2.00005668143407
vertex 25.9999991222296 5.99999817976746 2.00001518259853
endloop
endfacet
facet normal 8.84948448580196e-007 1.42006310443231e-006 0.9999999999986
outer loop
vertex 28.1499991222237 -1.85000181859585 2.00005668143407
vertex 25.9999991222204 -3.00000181857644 2.00002491789519
vertex 36.9999991221882 -3.00000181860022 2.00003527757702
endloop
endfacet
facet normal 8.84948448580196e-007 1.42006310443231e-006 0.9999999999986
outer loop
vertex 28.1499991222237 -1.85000181859585 2.00005668143407
vertex 36.9999991221882 -3.00000181860022 2.00003527757702
vertex 34.8499991221928 -1.85000181859585 2.00003635312813
endloop
endfacet
facet normal 8.84948448580196e-007 1.42006310443231e-006 0.9999999999986
outer loop
vertex 34.8499991221928 -1.85000181859585 2.00003635312813
vertex 36.9999991221882 -3.00000181860022 2.00003527757702
vertex 34.8499991221928 4.84999818140415 2.00003635312813
endloop
endfacet
facet normal 8.84948448580196e-007 1.42006310443231e-006 0.9999999999986
outer loop
vertex 25.9999991222296 5.99999817976746 2.00001518259853
vertex 28.1499991222237 4.84999818140415 2.00005668143407
vertex 36.9999991222005 5.99999817976564 2.00001442533908
endloop
endfacet
facet normal 8.84948448580196e-007 1.42006310443231e-006 0.9999999999986
outer loop
vertex 28.1499991222237 4.84999818140415 2.00005668143407
vertex 25.9999991222296 5.99999817976746 2.00001518259853
vertex 28.1499991222237 -1.85000181859585 2.00005668143407
endloop
endfacet
facet normal 8.84948448580196e-007 1.42006310443231e-006 0.9999999999986
outer loop
vertex 36.9999991222005 5.99999817976564 2.00001442533908
vertex 28.1499991222237 4.84999818140415 2.00005668143407
vertex 34.8499991221928 4.84999818140415 2.00003635312813
endloop
endfacet
facet normal 8.84948448580196e-007 1.42006310443231e-006 0.9999999999986
outer loop
vertex 36.9999991222005 5.99999817976564 2.00001442533908
vertex 34.8499991221928 4.84999818140415 2.00003635312813
vertex 36.9999991221882 -3.00000181860022 2.00003527757702
endloop
endfacet
facet normal 3.03407551370849e-006 0.0 0.999999999995397
outer loop
vertex 28.1499960881481 -1.85000181859585 1.00005668143867
vertex 30.2009579824509 0.749998181412075 1.00002858711832
vertex 28.1499960881481 4.84999818140415 1.00005668143867
endloop
endfacet
facet normal 3.03407551370849e-006 0.0 0.999999999995397
outer loop
vertex 30.2009579824509 0.749998181412075 1.00002858711832
vertex 28.1499960881481 -1.85000181859585 1.00005668143867
vertex 30.4393359163468 0.439338009632938 1.000027648032
endloop
endfacet
facet normal 3.03407551370849e-006 0.0 0.999999999995397
outer loop
vertex 30.4393359163468 0.439338009632938 1.000027648032
vertex 28.1499960881481 -1.85000181859585 1.00005668143867
vertex 30.7499960881257 0.200960075736676 1.00002674451944
endloop
endfacet
facet normal 3.03407551370849e-006 0.0 0.999999999995397
outer loop
vertex 30.7499960881257 0.200960075736676 1.00002674451944
vertex 28.1499960881481 -1.85000181859585 1.00005668143867
vertex 34.8499960881173 -1.85000181859585 1.00003635313273
endloop
endfacet
facet normal 3.03407551370849e-006 0.0 0.999999999995397
outer loop
vertex 28.1499960881481 4.84999818140415 1.00005668143867
vertex 30.2009579824509 0.749998181412075 1.00002858711832
vertex 30.0511073486949 1.11176961375754 1.00002949778124
endloop
endfacet
facet normal 3.03407551370849e-006 0.0 0.999999999995397
outer loop
vertex 28.1499960881481 4.84999818140415 1.00005668143867
vertex 30.0511073486949 1.11176961375754 1.00002949778124
vertex 29.9999960881294 1.49999818141057 1.00003031796057
endloop
endfacet
facet normal 3.03407551370849e-006 0.0 0.999999999995397
outer loop
vertex 30.7499960881257 0.200960075736676 1.00002674451944
vertex 34.8499960881173 -1.85000181859585 1.00003635313273
vertex 31.1117675204712 0.0511094419801973 1.00002593815354
endloop
endfacet
facet normal 3.03407551370849e-006 0.0 0.999999999995397
outer loop
vertex 31.1117675204712 0.0511094419801973 1.00002593815354
vertex 34.8499960881173 -1.85000181859585 1.00003635313273
vertex 31.4999960881245 -1.81858592683473e-006 1.00002528388681
endloop
endfacet
facet normal 3.03407551370849e-006 0.0 0.999999999995397
outer loop
vertex 31.4999960881245 -1.81858592683473e-006 1.00002528388681
vertex 34.8499960881173 -1.85000181859585 1.00003635313273
vertex 31.888224655778 0.0511094419805582 1.00002482630643
endloop
endfacet
facet normal 3.03407551370849e-006 0.0 0.999999999995397
outer loop
vertex 31.888224655778 0.0511094419805582 1.00002482630643
vertex 34.8499960881173 -1.85000181859585 1.00003635313273
vertex 32.2499960881242 0.200960075737398 1.00002459659576
endloop
endfacet
facet normal 3.03407551370849e-006 0.0 0.999999999995397
outer loop
vertex 32.2499960881242 0.200960075737398 1.00002459659576
vertex 34.8499960881173 -1.85000181859585 1.00003635313273
vertex 32.5606562599042 0.439338009633931 1.00002461040919
endloop
endfacet
facet normal 3.03407551370849e-006 0.0 0.999999999995397
outer loop
vertex 32.5606562599042 0.439338009633931 1.00002461040919
vertex 34.8499960881173 -1.85000181859585 1.00003635313273
vertex 32.7990341938015 0.749998181413293 1.00002486680537
endloop
endfacet
facet normal 3.03407551370849e-006 0.0 0.999999999995397
outer loop
vertex 32.7990341938015 0.749998181413293 1.00002486680537
vertex 34.8499960881173 -1.85000181859585 1.00003635313273
vertex 32.9488848275591 1.11176961375892 1.00002534831131
endloop
endfacet
facet normal 3.03407551370849e-006 0.0 0.999999999995397
outer loop
vertex 32.9488848275591 1.11176961375892 1.00002534831131
vertex 34.8499960881173 -1.85000181859585 1.00003635313273
vertex 32.9999960881264 1.49999818141202 1.00002602211319
endloop
endfacet
facet normal 3.03407551370849e-006 0.0 0.999999999995397
outer loop
vertex 28.1499960881481 4.84999818140415 1.00005668143867
vertex 30.7499960881316 2.79903628708519 1.00003174347801
vertex 34.8499960881173 4.84999818140415 1.00003635313273
endloop
endfacet
facet normal 3.03407551370849e-006 0.0 0.999999999995397
outer loop
vertex 30.7499960881316 2.79903628708519 1.00003174347801
vertex 28.1499960881481 4.84999818140415 1.00005668143867
vertex 30.4393359163516 2.56065835318866 1.00003172966458
endloop
endfacet
facet normal 3.03407551370849e-006 0.0 0.999999999995397
outer loop
vertex 30.4393359163516 2.56065835318866 1.00003172966458
vertex 28.1499960881481 4.84999818140415 1.00005668143867
vertex 30.2009579824543 2.2499981814093 1.0000314732684
endloop
endfacet
facet normal 3.03407551370849e-006 0.0 0.999999999995397
outer loop
vertex 30.2009579824543 2.2499981814093 1.0000314732684
vertex 28.1499960881481 4.84999818140415 1.00005668143867
vertex 30.0511073486967 1.88822674906368 1.00003099176246
endloop
endfacet
facet normal 3.03407551370849e-006 0.0 0.999999999995397
outer loop
vertex 30.0511073486967 1.88822674906368 1.00003099176246
vertex 28.1499960881481 4.84999818140415 1.00005668143867
vertex 29.9999960881294 1.49999818141057 1.00003031796057
endloop
endfacet
facet normal 3.03407551370849e-006 0.0 0.999999999995397
outer loop
vertex 34.8499960881173 4.84999818140415 1.00003635313273
vertex 30.7499960881316 2.79903628708519 1.00003174347801
vertex 31.1117675204778 2.94888692084203 1.00003151376734
endloop
endfacet
facet normal 3.03407551370849e-006 0.0 0.999999999995397
outer loop
vertex 34.8499960881173 4.84999818140415 1.00003635313273
vertex 31.1117675204778 2.94888692084203 1.00003151376734
vertex 31.4999960881313 2.99999818140852 1.00003105618696
endloop
endfacet
facet normal 3.03407551370849e-006 0.0 0.999999999995397
outer loop
vertex 34.8499960881173 4.84999818140415 1.00003635313273
vertex 31.4999960881313 2.99999818140852 1.00003105618696
vertex 31.8882246557846 2.94888692084239 1.00003040192022
endloop
endfacet
facet normal 3.03407551370849e-006 0.0 0.999999999995397
outer loop
vertex 34.8499960881173 4.84999818140415 1.00003635313273
vertex 31.8882246557846 2.94888692084239 1.00003040192022
vertex 32.2499960881301 2.79903628708592 1.00002959555432
endloop
endfacet
facet normal 3.03407551370849e-006 0.0 0.999999999995397
outer loop
vertex 34.8499960881173 4.84999818140415 1.00003635313273
vertex 32.2499960881301 2.79903628708592 1.00002959555432
vertex 32.5606562599091 2.56065835318965 1.00002869204176
endloop
endfacet
facet normal 3.03407551370849e-006 0.0 0.999999999995397
outer loop
vertex 34.8499960881173 4.84999818140415 1.00003635313273
vertex 32.5606562599091 2.56065835318965 1.00002869204176
vertex 32.799034193805 2.24999818141052 1.00002775295544
endloop
endfacet
facet normal 3.03407551370849e-006 0.0 0.999999999995397
outer loop
vertex 34.8499960881173 4.84999818140415 1.00003635313273
vertex 32.799034193805 2.24999818141052 1.00002775295544
vertex 32.9488848275609 1.88822674906505 1.00002684229253
endloop
endfacet
facet normal 3.03407551370849e-006 0.0 0.999999999995397
outer loop
vertex 34.8499960881173 4.84999818140415 1.00003635313273
vertex 32.9488848275609 1.88822674906505 1.00002684229253
vertex 32.9999960881264 1.49999818141202 1.00002602211319
endloop
endfacet
facet normal 3.03407551370849e-006 0.0 0.999999999995397
outer loop
vertex 34.8499960881173 4.84999818140415 1.00003635313273
vertex 32.9999960881264 1.49999818141202 1.00002602211319
vertex 34.8499960881173 -1.85000181859585 1.00003635313273
endloop
endfacet
facet normal -0.999999999995397 -0.0 3.03407551370849e-006
outer loop
vertex 34.8499991221928 4.84999818140415 2.00003635312813
vertex 34.8499960881173 -1.85000181859585 1.00003635313273
vertex 34.8499991221928 -1.85000181859585 2.00003635312813
endloop
endfacet
facet normal -0.999999999995397 -0.0 3.03407551370849e-006
outer loop
vertex 34.8499960881173 -1.85000181859585 1.00003635313273
vertex 34.8499991221928 4.84999818140415 2.00003635312813
vertex 34.8499960881173 4.84999818140415 1.00003635313273
endloop
endfacet
facet normal -0.0 -1.0 -0.0
outer loop
vertex 34.8499991221928 4.84999818140415 2.00003635312813
vertex 28.1499960881481 4.84999818140415 1.00005668143867
vertex 34.8499960881173 4.84999818140415 1.00003635313273
endloop
endfacet
facet normal -0.0 -1.0 -0.0
outer loop
vertex 28.1499960881481 4.84999818140415 1.00005668143867
vertex 34.8499991221928 4.84999818140415 2.00003635312813
vertex 28.1499991222237 4.84999818140415 2.00005668143407
endloop
endfacet
facet normal 0.999999999995397 -0.0 -3.03407551370849e-006
outer loop
vertex 28.1499960881481 4.84999818140415 1.00005668143867
vertex 28.1499991222237 -1.85000181859585 2.00005668143407
vertex 28.1499960881481 -1.85000181859585 1.00005668143867
endloop
endfacet
facet normal 0.999999999995397 -0.0 -3.03407551370849e-006
outer loop
vertex 28.1499991222237 -1.85000181859585 2.00005668143407
vertex 28.1499960881481 4.84999818140415 1.00005668143867
vertex 28.1499991222237 4.84999818140415 2.00005668143407
endloop
endfacet
facet normal -0.0 1.0 0.0
outer loop
vertex 28.1499960881481 -1.85000181859585 1.00005668143867
vertex 34.8499991221928 -1.85000181859585 2.00003635312813
vertex 34.8499960881173 -1.85000181859585 1.00003635313273
endloop
endfacet
facet normal -0.0 1.0 0.0
outer loop
vertex 34.8499991221928 -1.85000181859585 2.00003635312813
vertex 28.1499960881481 -1.85000181859585 1.00005668143867
vertex 28.1499991222237 -1.85000181859585 2.00005668143407
endloop
endfacet
facet normal -6.53188368072038e-008 0.99999999999993 3.68107271735424e-007
outer loop
vertex -4.0 6.99999999886253 1.12670253876512e-005
vertex 8.00000232852616 6.99999878089962 5.00001283355106
vertex 8.00000232852613 7.00000000585137 7.59981938781034e-006
endloop
endfacet
facet normal -6.53188368072038e-008 0.99999999999993 3.68107271735424e-007
outer loop
vertex 8.00000232852616 6.99999878089962 5.00001283355106
vertex -4.0 6.99999999886253 1.12670253876512e-005
vertex -4.00000087719743 6.99999817976768 2.00001126702437
endloop
endfacet
facet normal -6.53188368072038e-008 0.99999999999993 3.68107271735424e-007
outer loop
vertex 8.00000232852616 6.99999878089962 5.00001283355106
vertex -4.00000087719743 6.99999817976768 2.00001126702437
vertex 6.99999832916405 6.99999815440559 5.00001277537081
endloop
endfacet
facet normal -1.0 2.51739369946768e-008 1.0397310473838e-014
outer loop
vertex 8.00000251733068 14.4999987808995 5.00001442250097
vertex 8.00000232852613 7.00000000585137 7.59981938781034e-006
vertex 8.00000232852616 6.99999878089962 5.00001283355106
endloop
endfacet
facet normal -1.0 2.51739369946768e-008 1.0397310473838e-014
outer loop
vertex 8.00000232852613 7.00000000585137 7.59981938781034e-006
vertex 8.00000251733068 14.4999987808995 5.00001442250097
vertex 8.00000251733066 14.5000000058512 9.1887692940962e-006
endloop
endfacet
facet normal 1.0 -2.51739369946783e-008 -3.19034579458035e-015
outer loop
vertex 25.0000009466135 6.9999994217241 2.34520208005717e-005
vertex 25.000001135418 14.4999987880647 5.00001541155974
vertex 25.0000009466135 6.99999878806485 5.00001382260984
endloop
endfacet
facet normal 1.0 -2.51739369946783e-008 -3.19034579458035e-015
outer loop
vertex 25.000001135418 14.4999987880647 5.00001541155974
vertex 25.0000009466135 6.9999994217241 2.34520208005717e-005
vertex 25.000001135418 14.4999994217239 2.50409707068576e-005
endloop
endfacet
facet normal 0.658505364560601 4.40116420405938e-007 -0.752576032600505
outer loop
vertex 9.00000251733062 14.5000000064336 8.88316885340936e-006
vertex 13.0000001958242 2.99999975413329 3.50000722762482
vertex 9.00000206248148 3.00000114424079 1.75982357143341e-006
endloop
endfacet
facet normal 0.658505364560601 4.40116420405938e-007 -0.752576032600505
outer loop
vertex 13.0000001958242 2.99999975413329 3.50000722762482
vertex 9.00000251733062 14.5000000064336 8.88316885340936e-006
vertex 13.0000006506733 14.4999986163261 3.5000143509701
endloop
endfacet
facet normal 2.5173928031022e-008 0.999999999999974 2.26253538200151e-007
outer loop
vertex 8.00000251733066 14.5000000058512 9.1887692940962e-006
vertex 13.0000006506733 14.4999986163261 3.5000143509701
vertex 9.00000251733062 14.5000000064336 8.88316885340936e-006
endloop
endfacet
facet normal 2.5173928031022e-008 0.999999999999974 2.26253538200151e-007
outer loop
vertex 13.0000006506733 14.4999986163261 3.5000143509701
vertex 8.00000251733066 14.5000000058512 9.1887692940962e-006
vertex 8.00000251733068 14.4999987808995 5.00001442250097
endloop
endfacet
facet normal 2.5173928031022e-008 0.999999999999974 2.26253538200151e-007
outer loop
vertex 13.0000006506733 14.4999986163261 3.5000143509701
vertex 8.00000251733068 14.4999987808995 5.00001442250097
vertex 19.9999999599837 14.499998309483 3.50002347723924
endloop
endfacet
facet normal 2.5173928031022e-008 0.999999999999974 2.26253538200151e-007
outer loop
vertex 24.0000011354185 14.4999993736291 2.60563870714185e-005
vertex 25.000001135418 14.4999987880647 5.00001541155974
vertex 25.000001135418 14.4999994217239 2.50409707068576e-005
endloop
endfacet
facet normal 2.5173928031022e-008 0.999999999999974 2.26253538200151e-007
outer loop
vertex 25.000001135418 14.4999987880647 5.00001541155974
vertex 24.0000011354185 14.4999993736291 2.60563870714185e-005
vertex 19.9999999599837 14.499998309483 3.50002347723924
endloop
endfacet
facet normal 2.5173928031022e-008 0.999999999999974 2.26253538200151e-007
outer loop
vertex 25.000001135418 14.4999987880647 5.00001541155974
vertex 19.9999999599837 14.499998309483 3.50002347723924
vertex 8.00000251733068 14.4999987808995 5.00001442250097
endloop
endfacet
facet normal 0.989949424095539 -0.14142184319584 -4.10148385594694e-008
outer loop
vertex 7.99999832916804 -4.00000043781314 7.2598209870302e-007
vertex 9.00000206248148 2.9999996501618 5.00000970878066
vertex 7.99999832916817 -4.00000184391498 5.00000876843037
endloop
endfacet
facet normal 0.989949424095539 -0.14142184319584 -4.10148385594694e-008
outer loop
vertex 9.00000206248148 2.9999996501618 5.00000970878066
vertex 7.99999832916804 -4.00000043781314 7.2598209870302e-007
vertex 9.00000206248148 3.00000114424079 1.75982357143341e-006
endloop
endfacet
facet normal -1.15744675922108e-007 6.82068377455905e-007 -0.999999999999761
outer loop
vertex -4.0 6.99999999886253 1.12670253876512e-005
vertex 0.200961894186891 2.24999999903601 4.33918872613569e-006
vertex -4.0 -3.99999999944592 -4.96013452526294e-006
endloop
endfacet
facet normal -1.15744675922108e-007 6.82068377455905e-007 -0.999999999999761
outer loop
vertex 0.200961894186891 2.24999999903601 4.33918872613569e-006
vertex -4.0 6.99999999886253 1.12670253876512e-005
vertex 0.43933982796989 2.56066017072398 4.67166878347336e-006
endloop
endfacet
facet normal -1.15744675922108e-007 6.82068377455905e-007 -0.999999999999761
outer loop
vertex 0.43933982796989 2.56066017072398 4.67166878347336e-006
vertex -4.0 6.99999999886253 1.12670253876512e-005
vertex 0.749999999616746 2.79903810456291 4.94028733434858e-006
endloop
endfacet
facet normal -1.15744675922108e-007 6.82068377455905e-007 -0.999999999999761
outer loop
vertex 0.749999999616746 2.79903810456291 4.94028733434858e-006
vertex -4.0 6.99999999886253 1.12670253876512e-005
vertex 8.00000232852613 7.00000000585137 7.59981938781034e-006
endloop
endfacet
facet normal -1.15744675922108e-007 6.82068377455905e-007 -0.999999999999761
outer loop
vertex -4.0 -3.99999999944592 -4.96013452526294e-006
vertex 0.200961894186891 2.24999999903601 4.33918872613569e-006
vertex 0.0511112605168989 1.88822856680926 3.9655051287938e-006
endloop
endfacet
facet normal -1.15744675922108e-007 6.82068377455905e-007 -0.999999999999761
outer loop
vertex -4.0 -3.99999999944592 -4.96013452526294e-006
vertex 0.0511112605168989 1.88822856680926 3.9655051287938e-006
vertex 4.64145709339998e-012 1.49999999929448 3.57608391106524e-006
endloop
endfacet
facet normal -1.15744675922108e-007 6.82068377455905e-007 -0.999999999999761
outer loop
vertex 0.749999999616746 2.79903810456291 4.94028733434858e-006
vertex 8.00000232852613 7.00000000585137 7.59981938781034e-006
vertex 1.11177143181993 2.94888873829981 5.12673846843232e-006
endloop
endfacet
facet normal -1.15744675922108e-007 6.82068377455905e-007 -0.999999999999761
outer loop
vertex 1.11177143181993 2.94888873829981 5.12673846843232e-006
vertex 8.00000232852613 7.00000000585137 7.59981938781034e-006
vertex 1.49999999933036 2.99999999888537 5.21831584906182e-006
endloop
endfacet
facet normal -1.15744675922108e-007 6.82068377455905e-007 -0.999999999999761
outer loop
vertex 1.49999999933036 2.99999999888537 5.21831584906182e-006
vertex 8.00000232852613 7.00000000585137 7.59981938781034e-006
vertex 1.88822856685024 2.94888873837606 5.20877862908599e-006
endloop
endfacet
facet normal -1.15744675922108e-007 6.82068377455905e-007 -0.999999999999761
outer loop
vertex 1.88822856685024 2.94888873837606 5.20877862908599e-006
vertex 8.00000232852613 7.00000000585137 7.59981938781034e-006
vertex 2.24999999908114 2.79903810471023 5.09877675428517e-006
endloop
endfacet
facet normal -1.15744675922108e-007 6.82068377455905e-007 -0.999999999999761
outer loop
vertex 2.24999999908114 2.79903810471023 5.09877675428517e-006
vertex 8.00000232852613 7.00000000585137 7.59981938781034e-006
vertex 2.56066017077206 2.56066017093234 4.89580667064035e-006
endloop
endfacet
facet normal -1.15744675922108e-007 6.82068377455905e-007 -0.999999999999761
outer loop
vertex 2.56066017077206 2.56066017093234 4.89580667064035e-006
vertex 8.00000232852613 7.00000000585137 7.59981938781034e-006
vertex 2.7990381046125 2.24999999929115 4.61370045392797e-006
endloop
endfacet
facet normal -1.15744675922108e-007 6.82068377455905e-007 -0.999999999999761
outer loop
vertex 2.7990381046125 2.24999999929115 4.61370045392797e-006
vertex 8.00000232852613 7.00000000585137 7.59981938781034e-006
vertex 2.94888873834938 1.88822856709387 4.27168317661447e-006
endloop
endfacet
facet normal -1.15744675922108e-007 6.82068377455905e-007 -0.999999999999761
outer loop
vertex 2.94888873834938 1.88822856709387 4.27168317661447e-006
vertex 8.00000232852613 7.00000000585137 7.59981938781034e-006
vertex 2.99999999893342 1.49999999958911 3.89306275093842e-006
endloop
endfacet
facet normal -1.15744675922108e-007 6.82068377455905e-007 -0.999999999999761
outer loop
vertex 2.99999999893342 1.49999999958911 3.89306275093842e-006
vertex 8.00000232852613 7.00000000585137 7.59981938781034e-006
vertex 7.99999832916804 -4.00000043781314 7.2598209870302e-007
endloop
endfacet
facet normal -1.15744675922108e-007 6.82068377455905e-007 -0.999999999999761
outer loop
vertex 7.99999832916804 -4.00000043781314 7.2598209870302e-007
vertex 8.00000232852613 7.00000000585137 7.59981938781034e-006
vertex 9.00000206248148 3.00000114424079 1.75982357143341e-006
endloop
endfacet
facet normal -1.15744675922108e-007 6.82068377455905e-007 -0.999999999999761
outer loop
vertex 9.00000206248148 3.00000114424079 1.75982357143341e-006
vertex 8.00000232852613 7.00000000585137 7.59981938781034e-006
vertex 8.00000251733066 14.5000000058512 9.1887692940962e-006
endloop
endfacet
facet normal -1.15744675922108e-007 6.82068377455905e-007 -0.999999999999761
outer loop
vertex 9.00000206248148 3.00000114424079 1.75982357143341e-006
vertex 8.00000251733066 14.5000000058512 9.1887692940962e-006
vertex 9.00000251733062 14.5000000064336 8.88316885340936e-006
endloop
endfacet
facet normal -1.15744675922108e-007 6.82068377455905e-007 -0.999999999999761
outer loop
vertex -4.0 -3.99999999944592 -4.96013452526294e-006
vertex 0.749999999856926 0.200961894173367 2.37036990771849e-006
vertex 7.99999832916804 -4.00000043781314 7.2598209870302e-007
endloop
endfacet
facet normal -1.15744675922108e-007 6.82068377455905e-007 -0.999999999999761
outer loop
vertex 0.749999999856926 0.200961894173367 2.37036990771849e-006
vertex -4.0 -3.99999999944592 -4.96013452526294e-006
vertex 0.439339828165996 0.439339827951254 2.57333999136331e-006
endloop
endfacet
facet normal -1.15744675922108e-007 6.82068377455905e-007 -0.999999999999761
outer loop
vertex 0.439339828165996 0.439339827951254 2.57333999136331e-006
vertex -4.0 -3.99999999944592 -4.96013452526294e-006
vertex 0.200961894325559 0.749999999592439 2.85544620807569e-006
endloop
endfacet
facet normal -1.15744675922108e-007 6.82068377455905e-007 -0.999999999999761
outer loop
vertex 0.200961894325559 0.749999999592439 2.85544620807569e-006
vertex -4.0 -3.99999999944592 -4.96013452526294e-006
vertex 0.0511112605886785 1.11177143178972 3.19746348538919e-006
endloop
endfacet
facet normal -1.15744675922108e-007 6.82068377455905e-007 -0.999999999999761
outer loop
vertex 0.0511112605886785 1.11177143178972 3.19746348538919e-006
vertex -4.0 -3.99999999944592 -4.96013452526294e-006
vertex 4.64145709339998e-012 1.49999999929448 3.57608391106524e-006
endloop
endfacet
facet normal -1.15744675922108e-007 6.82068377455905e-007 -0.999999999999761
outer loop
vertex 7.99999832916804 -4.00000043781314 7.2598209870302e-007
vertex 0.749999999856926 0.200961894173367 2.37036990771849e-006
vertex 1.11177143208782 0.0511112605075336 2.26036803291766e-006
endloop
endfacet
facet normal -1.15744675922108e-007 6.82068377455905e-007 -0.999999999999761
outer loop
vertex 7.99999832916804 -4.00000043781314 7.2598209870302e-007
vertex 1.11177143208782 0.0511112605075336 2.26036803291766e-006
vertex 1.4999999996077 -1.77474732357732e-012 2.25083081294183e-006
endloop
endfacet
facet normal -1.15744675922108e-007 6.82068377455905e-007 -0.999999999999761
outer loop
vertex 7.99999832916804 -4.00000043781314 7.2598209870302e-007
vertex 1.4999999996077 -1.77474732357732e-012 2.25083081294183e-006
vertex 1.88822856711813 0.0511112605837874 2.34240819357134e-006
endloop
endfacet
facet normal -1.15744675922108e-007 6.82068377455905e-007 -0.999999999999761
outer loop
vertex 7.99999832916804 -4.00000043781314 7.2598209870302e-007
vertex 1.88822856711813 0.0511112605837874 2.34240819357134e-006
vertex 2.24999999932132 0.200961894320684 2.52885932765508e-006
endloop
endfacet
facet normal -1.15744675922108e-007 6.82068377455905e-007 -0.999999999999761
outer loop
vertex 7.99999832916804 -4.00000043781314 7.2598209870302e-007
vertex 2.24999999932132 0.200961894320684 2.52885932765508e-006
vertex 2.56066017096817 0.439339828159611 2.7974778785303e-006
endloop
endfacet
facet normal -1.15744675922108e-007 6.82068377455905e-007 -0.999999999999761
outer loop
vertex 7.99999832916804 -4.00000043781314 7.2598209870302e-007
vertex 2.56066017096817 0.439339828159611 2.7974778785303e-006
vertex 2.79903810475117 0.749999999847606 3.12995793586799e-006
endloop
endfacet
facet normal -1.15744675922108e-007 6.82068377455905e-007 -0.999999999999761
outer loop
vertex 7.99999832916804 -4.00000043781314 7.2598209870302e-007
vertex 2.79903810475117 0.749999999847606 3.12995793586799e-006
vertex 2.94888873842116 1.11177143207433 3.50364153320986e-006
endloop
endfacet
facet normal -1.15744675922108e-007 6.82068377455905e-007 -0.999999999999761
outer loop
vertex 7.99999832916804 -4.00000043781314 7.2598209870302e-007
vertex 2.94888873842116 1.11177143207433 3.50364153320986e-006
vertex 2.99999999893342 1.49999999958911 3.89306275093842e-006
endloop
endfacet
facet normal -0.242536684733932 -7.51353670324886e-007 0.970142235220026
outer loop
vertex 7.99999832916817 -4.00000184391498 5.00000876843037
vertex -4.00000087719647 -3.00000181854197 1.99999581434254
vertex -4.00000087719743 -4.00000181854077 1.99999503986445
endloop
endfacet
facet normal -0.254457656752445 -0.254457996616532 0.933007196584226
outer loop
vertex 7.99999832916817 -4.00000184391498 5.00000876843037
vertex 6.99999832916793 -3.00000184391498 5.00000913269769
vertex -4.00000087719647 -3.00000181854197 1.99999581434254
endloop
endfacet
facet normal 2.66634362922109e-008 -0.999999999999932 -3.67885540321514e-007
outer loop
vertex 7.99999832916804 -4.00000043781314 7.2598209870302e-007
vertex -4.00000087719743 -4.00000181854077 1.99999503986445
vertex -4.0 -3.99999999944592 -4.96013452526294e-006
endloop
endfacet
facet normal 2.66634362922109e-008 -0.999999999999932 -3.67885540321514e-007
outer loop
vertex -4.00000087719743 -4.00000181854077 1.99999503986445
vertex 7.99999832916804 -4.00000043781314 7.2598209870302e-007
vertex 7.99999832916817 -4.00000184391498 5.00000876843037
endloop
endfacet
facet normal -0.658504223438514 4.92207537644754e-007 -0.752577031082797
outer loop
vertex 19.9999999599837 14.499998309483 3.50002347723924
vertex 24.0000006805694 3.00000051143624 1.89330417894425e-005
vertex 19.9999995051345 2.99999944729017 3.50001635389395
endloop
endfacet
facet normal -0.658504223438514 4.92207537644754e-007 -0.752577031082797
outer loop
vertex 24.0000006805694 3.00000051143624 1.89330417894425e-005
vertex 19.9999999599837 14.499998309483 3.50002347723924
vertex 24.0000011354185 14.4999993736291 2.60563870714185e-005
endloop
endfacet
facet normal -3.01958058785882e-008 -0.999999999999962 -2.74730368225053e-007
outer loop
vertex 24.0000006805693 2.99999942163818 5.00001676139395
vertex 19.9999995051345 2.99999944729017 3.50001635389395
vertex 24.0000006805694 3.00000051143624 1.89330417894425e-005
endloop
endfacet
facet normal -3.01958058785882e-008 -0.999999999999962 -2.74730368225053e-007
outer loop
vertex 19.9999995051345 2.99999944729017 3.50001635389395
vertex 24.0000006805693 2.99999942163818 5.00001676139395
vertex 9.00000206248148 2.9999996501618 5.00000970878066
endloop
endfacet
facet normal -3.01958058785882e-008 -0.999999999999962 -2.74730368225053e-007
outer loop
vertex 13.0000001958242 2.99999975413329 3.50000722762482
vertex 9.00000206248148 2.9999996501618 5.00000970878066
vertex 9.00000206248148 3.00000114424079 1.75982357143341e-006
endloop
endfacet
facet normal -3.01958058785882e-008 -0.999999999999962 -2.74730368225053e-007
outer loop
vertex 9.00000206248148 2.9999996501618 5.00000970878066
vertex 13.0000001958242 2.99999975413329 3.50000722762482
vertex 19.9999995051345 2.99999944729017 3.50001635389395
endloop
endfacet
facet normal -3.25723792742193e-007 2.57611250553844e-008 -0.999999999999947
outer loop
vertex 24.0000011354185 14.4999993736291 2.60563870714185e-005
vertex 24.9999983296985 -4.00000070555189 1.99668798022573e-005
vertex 24.0000006805694 3.00000051143624 1.89330417894425e-005
endloop
endfacet
facet normal -3.25723792742193e-007 2.57611250553844e-008 -0.999999999999947
outer loop
vertex 24.9999983296985 -4.00000070555189 1.99668798022573e-005
vertex 24.0000011354185 14.4999993736291 2.60563870714185e-005
vertex 25.000001135418 14.4999994217239 2.50409707068576e-005
endloop
endfacet
facet normal -3.25723792742193e-007 2.57611250553844e-008 -0.999999999999947
outer loop
vertex 24.9999983296985 -4.00000070555189 1.99668798022573e-005
vertex 25.000001135418 14.4999994217239 2.50409707068576e-005
vertex 25.0000009466135 6.9999994217241 2.34520208005717e-005
endloop
endfacet
facet normal -3.25723792742193e-007 2.57611250553844e-008 -0.999999999999947
outer loop
vertex 25.0000009466135 6.9999994217241 2.34520208005717e-005
vertex 30.0511112600125 1.88822856817846 2.00358084659264e-005
vertex 29.9999999994419 1.50000000052382 2.02047494586752e-005
endloop
endfacet
facet normal -3.25723792742193e-007 2.57611250553844e-008 -0.999999999999947
outer loop
vertex 30.0511112600125 1.88822856817846 2.00358084659264e-005
vertex 25.0000009466135 6.9999994217241 2.34520208005717e-005
vertex 30.2009618937727 2.25000000052529 1.98529017271152e-005
endloop
endfacet
facet normal -3.25723792742193e-007 2.57611250553844e-008 -0.999999999999947
outer loop
vertex 30.2009618937727 2.25000000052529 1.98529017271152e-005
vertex 25.0000009466135 6.9999994217241 2.34520208005717e-005
vertex 30.4393398276717 2.56066017230545 1.96684940342241e-005
endloop
endfacet
facet normal -3.25723792742193e-007 2.57611250553844e-008 -0.999999999999947
outer loop
vertex 30.4393398276717 2.56066017230545 1.96684940342241e-005
vertex 25.0000009466135 6.9999994217241 2.34520208005717e-005
vertex 30.7499999994525 2.79903810620233 1.94951524667754e-005
endloop
endfacet
facet normal -3.25723792742193e-007 2.57611250553844e-008 -0.999999999999947
outer loop
vertex 30.7499999994525 2.79903810620233 1.94951524667754e-005
vertex 25.0000009466135 6.9999994217241 2.34520208005717e-005
vertex 36.9999999993993 6.99999999886253 1.12670253876512e-005
endloop
endfacet
facet normal -3.25723792742193e-007 2.57611250553844e-008 -0.999999999999947
outer loop
vertex 30.7499999994525 2.79903810620233 1.94951524667754e-005
vertex 36.9999999993993 6.99999999886253 1.12670253876512e-005
vertex 31.1117714317984 2.94888873995902 1.93446899661303e-005
endloop
endfacet
facet normal -3.25723792742193e-007 2.57611250553844e-008 -0.999999999999947
outer loop
vertex 31.1117714317984 2.94888873995902 1.93446899661303e-005
vertex 36.9999999993993 6.99999999886253 1.12670253876512e-005
vertex 31.4999999994505 3.00000000052489 1.92273603030567e-005
endloop
endfacet
facet normal -3.25723792742193e-007 2.57611250553844e-008 -0.999999999999947
outer loop
vertex 31.4999999994505 3.00000000052489 1.92273603030567e-005
vertex 36.9999999993993 6.99999999886253 1.12670253876512e-005
vertex 31.8882285671015 2.94888873995771 1.91511593001966e-005
endloop
endfacet
facet normal -3.25723792742193e-007 2.57611250553844e-008 -0.999999999999947
outer loop
vertex 31.8882285671015 2.94888873995771 1.91511593001966e-005
vertex 36.9999999993993 6.99999999886253 1.12670253876512e-005
vertex 32.249999999444 2.79903810619982 1.91212799299669e-005
endloop
endfacet
facet normal -3.25723792742193e-007 2.57611250553844e-008 -0.999999999999947
outer loop
vertex 32.249999999444 2.79903810619982 1.91212799299669e-005
vertex 36.9999999993993 6.99999999886253 1.12670253876512e-005
vertex 32.5606601712194 2.56066017230188 1.91397584220706e-005
endloop
endfacet
facet normal -3.25723792742193e-007 2.57611250553844e-008 -0.999999999999947
outer loop
vertex 32.5606601712194 2.56066017230188 1.91397584220706e-005
vertex 36.9999999993993 6.99999999886253 1.12670253876512e-005
vertex 32.7990381051113 2.25000000052092 1.92053354978081e-005
endloop
endfacet
facet normal -3.25723792742193e-007 2.57611250553844e-008 -0.999999999999947
outer loop
vertex 32.7990381051113 2.25000000052092 1.92053354978081e-005
vertex 36.9999999993993 6.99999999886253 1.12670253876512e-005
vertex 32.9488887388633 1.8882285681736 1.93135421878392e-005
endloop
endfacet
facet normal -3.25723792742193e-007 2.57611250553844e-008 -0.999999999999947
outer loop
vertex 32.9488887388633 1.8882285681736 1.93135421878392e-005
vertex 36.9999999993993 6.99999999886253 1.12670253876512e-005
vertex 32.999999999425 1.50000000051881 1.94570043850581e-005
endloop
endfacet
facet normal -3.25723792742193e-007 2.57611250553844e-008 -0.999999999999947
outer loop
vertex 24.9999983296985 -4.00000070555189 1.99668798022573e-005
vertex 30.7499999994229 0.200961894842813 2.05404739137665e-005
vertex 36.9999999993993 -3.99999999949107 2.5652996418235e-005
endloop
endfacet
facet normal -3.25723792742193e-007 2.57611250553844e-008 -0.999999999999947
outer loop
vertex 30.7499999994229 0.200961894842813 2.05404739137665e-005
vertex 24.9999983296985 -4.00000070555189 1.99668798022573e-005
vertex 30.4393398276476 0.439339828740753 2.05219954216627e-005
endloop
endfacet
facet normal -3.25723792742193e-007 2.57611250553844e-008 -0.999999999999947
outer loop
vertex 30.4393398276476 0.439339828740753 2.05219954216627e-005
vertex 24.9999983296985 -4.00000070555189 1.99668798022573e-005
vertex 25.0000009466135 6.9999994217241 2.34520208005717e-005
endloop
endfacet
facet normal -3.25723792742193e-007 2.57611250553844e-008 -0.999999999999947
outer loop
vertex 30.4393398276476 0.439339828740753 2.05219954216627e-005
vertex 25.0000009466135 6.9999994217241 2.34520208005717e-005
vertex 30.2009618937556 0.750000000521718 2.04564183459252e-005
endloop
endfacet
facet normal -3.25723792742193e-007 2.57611250553844e-008 -0.999999999999947
outer loop
vertex 30.2009618937556 0.750000000521718 2.04564183459252e-005
vertex 25.0000009466135 6.9999994217241 2.34520208005717e-005
vertex 30.0511112600036 1.11177143286904 2.03482116558942e-005
endloop
endfacet
facet normal -3.25723792742193e-007 2.57611250553844e-008 -0.999999999999947
outer loop
vertex 30.0511112600036 1.11177143286904 2.03482116558942e-005
vertex 25.0000009466135 6.9999994217241 2.34520208005717e-005
vertex 29.9999999994419 1.50000000052382 2.02047494586752e-005
endloop
endfacet
facet normal -3.25723792742193e-007 2.57611250553844e-008 -0.999999999999947
outer loop
vertex 36.9999999993993 -3.99999999949107 2.5652996418235e-005
vertex 30.7499999994229 0.200961894842813 2.05404739137665e-005
vertex 31.1117714317654 0.0511112610849223 2.05105945435367e-005
endloop
endfacet
facet normal -3.25723792742193e-007 2.57611250553844e-008 -0.999999999999947
outer loop
vertex 36.9999999993993 -3.99999999949107 2.5652996418235e-005
vertex 31.1117714317654 0.0511112610849223 2.05105945435367e-005
vertex 31.4999999994164 5.17746672757173e-010 2.04343935406766e-005
endloop
endfacet
facet normal -3.25723792742193e-007 2.57611250553844e-008 -0.999999999999947
outer loop
vertex 36.9999999993993 -3.99999999949107 2.5652996418235e-005
vertex 31.4999999994164 5.17746672757173e-010 2.04343935406766e-005
vertex 31.8882285670686 0.0511112610836128 2.0317063877603e-005
endloop
endfacet
facet normal -3.25723792742193e-007 2.57611250553844e-008 -0.999999999999947
outer loop
vertex 36.9999999993993 -3.99999999949107 2.5652996418235e-005
vertex 31.8882285670686 0.0511112610836128 2.0317063877603e-005
vertex 32.2499999994144 0.200961894840308 2.01666013769579e-005
endloop
endfacet
facet normal -3.25723792742193e-007 2.57611250553844e-008 -0.999999999999947
outer loop
vertex 36.9999999993993 -3.99999999949107 2.5652996418235e-005
vertex 32.2499999994144 0.200961894840308 2.01666013769579e-005
vertex 32.5606601711952 0.439339828737181 1.99932598095092e-005
endloop
endfacet
facet normal -3.25723792742193e-007 2.57611250553844e-008 -0.999999999999947
outer loop
vertex 36.9999999993993 -3.99999999949107 2.5652996418235e-005
vertex 32.5606601711952 0.439339828737181 1.99932598095092e-005
vertex 32.7990381050942 0.750000000517346 1.98088521166181e-005
endloop
endfacet
facet normal -3.25723792742193e-007 2.57611250553844e-008 -0.999999999999947
outer loop
vertex 36.9999999993993 -3.99999999949107 2.5652996418235e-005
vertex 32.7990381050942 0.750000000517346 1.98088521166181e-005
vertex 32.9488887388545 1.11177143286418 1.9625945377807e-005
endloop
endfacet
facet normal -3.25723792742193e-007 2.57611250553844e-008 -0.999999999999947
outer loop
vertex 36.9999999993993 -3.99999999949107 2.5652996418235e-005
vertex 32.9488887388545 1.11177143286418 1.9625945377807e-005
vertex 32.999999999425 1.50000000051881 1.94570043850581e-005
endloop
endfacet
facet normal -3.25723792742193e-007 2.57611250553844e-008 -0.999999999999947
outer loop
vertex 36.9999999993993 -3.99999999949107 2.5652996418235e-005
vertex 32.999999999425 1.50000000051881 1.94570043850581e-005
vertex 36.9999999993993 6.99999999886253 1.12670253876512e-005
endloop
endfacet
facet normal 0.23570170504112 -0.235701464969685 0.942809379276561
outer loop
vertex 36.9999991222019 -4.00000181858593 2.0000256529954
vertex 25.9999987259595 -3.00000181857644 5.00001735438211
vertex 24.9999983296985 -4.00000184393591 5.00001770174137
endloop
endfacet
facet normal 0.263115933818735 -9.28544841476815e-006 0.964764222639125
outer loop
vertex 36.9999991222019 -4.00000181858593 2.0000256529954
vertex 36.9999991221882 -3.00000181860022 2.00003527757702
vertex 25.9999987259595 -3.00000181857644 5.00001735438211
endloop
endfacet
facet normal -9.74037318283195e-009 -0.999999999999948 -3.21728082334903e-007
outer loop
vertex 36.9999999993993 -3.99999999949107 2.5652996418235e-005
vertex 24.9999983296985 -4.00000184393591 5.00001770174137
vertex 24.9999983296985 -4.00000070555189 1.99668798022573e-005
endloop
endfacet
facet normal -9.74037318283195e-009 -0.999999999999948 -3.21728082334903e-007
outer loop
vertex 24.9999983296985 -4.00000184393591 5.00001770174137
vertex 36.9999999993993 -3.99999999949107 2.5652996418235e-005
vertex 36.9999991222019 -4.00000181858593 2.0000256529954
endloop
endfacet
facet normal -0.989949543716838 -0.141421005847163 -3.15112029748721e-008
outer loop
vertex 24.0000006805693 2.99999942163818 5.00001676139395
vertex 24.9999983296985 -4.00000070555189 1.99668798022573e-005
vertex 24.9999983296985 -4.00000184393591 5.00001770174137
endloop
endfacet
facet normal -0.989949543716838 -0.141421005847163 -3.15112029748721e-008
outer loop
vertex 24.9999983296985 -4.00000070555189 1.99668798022573e-005
vertex 24.0000006805693 2.99999942163818 5.00001676139395
vertex 24.0000006805694 3.00000051143624 1.89330417894425e-005
endloop
endfacet
facet normal -2.31274632688309e-007 -7.18460569986381e-008 0.999999999999971
outer loop
vertex 25.9999987259595 -3.00000181857644 5.00001735438211
vertex 25.0000009466135 6.99999878806485 5.00001382260984
vertex 24.9999983296985 -4.00000184393591 5.00001770174137
endloop
endfacet
facet normal -2.31274632688309e-007 -7.18460569986381e-008 0.999999999999971
outer loop
vertex 25.0000009466135 6.99999878806485 5.00001382260984
vertex 25.9999987259595 -3.00000181857644 5.00001735438211
vertex 25.9999983296994 6.99999815440559 5.00001388078962
endloop
endfacet
facet normal -2.31274632688309e-007 -7.18460569986381e-008 0.999999999999971
outer loop
vertex 25.9999983296994 6.99999815440559 5.00001388078962
vertex 25.9999987259595 -3.00000181857644 5.00001735438211
vertex 25.9999987457775 5.99999817976745 5.00001422814886
endloop
endfacet
facet normal -2.31274632688309e-007 -7.18460569986381e-008 0.999999999999971
outer loop
vertex 6.99999832916428 5.99999815440559 5.0000124111035
vertex 8.00000232852616 6.99999878089962 5.00001283355106
vertex 6.99999832916405 6.99999815440559 5.00001277537081
endloop
endfacet
facet normal -2.31274632688309e-007 -7.18460569986381e-008 0.999999999999971
outer loop
vertex 8.00000232852616 6.99999878089962 5.00001283355106
vertex 6.99999832916428 5.99999815440559 5.0000124111035
vertex 6.99999832916793 -3.00000184391498 5.00000913269769
endloop
endfacet
facet normal -2.31274632688309e-007 -7.18460569986381e-008 0.999999999999971
outer loop
vertex 8.00000232852616 6.99999878089962 5.00001283355106
vertex 6.99999832916793 -3.00000184391498 5.00000913269769
vertex 7.99999832916817 -4.00000184391498 5.00000876843037
endloop
endfacet
facet normal -2.31274632688309e-007 -7.18460569986381e-008 0.999999999999971
outer loop
vertex 8.00000232852616 6.99999878089962 5.00001283355106
vertex 7.99999832916817 -4.00000184391498 5.00000876843037
vertex 9.00000206248148 2.9999996501618 5.00000970878066
endloop
endfacet
facet normal -2.31274632688309e-007 -7.18460569986381e-008 0.999999999999971
outer loop
vertex 8.00000232852616 6.99999878089962 5.00001283355106
vertex 9.00000206248148 2.9999996501618 5.00000970878066
vertex 8.00000251733068 14.4999987808995 5.00001442250097
endloop
endfacet
facet normal -2.31274632688309e-007 -7.18460569986381e-008 0.999999999999971
outer loop
vertex 8.00000251733068 14.4999987808995 5.00001442250097
vertex 9.00000206248148 2.9999996501618 5.00000970878066
vertex 25.000001135418 14.4999987880647 5.00001541155974
endloop
endfacet
facet normal -2.31274632688309e-007 -7.18460569986381e-008 0.999999999999971
outer loop
vertex 25.000001135418 14.4999987880647 5.00001541155974
vertex 9.00000206248148 2.9999996501618 5.00000970878066
vertex 24.0000006805693 2.99999942163818 5.00001676139395
endloop
endfacet
facet normal -2.31274632688309e-007 -7.18460569986381e-008 0.999999999999971
outer loop
vertex 25.000001135418 14.4999987880647 5.00001541155974
vertex 24.0000006805693 2.99999942163818 5.00001676139395
vertex 24.9999983296985 -4.00000184393591 5.00001770174137
endloop
endfacet
facet normal -2.31274632688309e-007 -7.18460569986381e-008 0.999999999999971
outer loop
vertex 25.000001135418 14.4999987880647 5.00001541155974
vertex 24.9999983296985 -4.00000184393591 5.00001770174137
vertex 25.0000009466135 6.99999878806485 5.00001382260984
endloop
endfacet
endsolid h-motor-cable-management
