solid linear-actuator-bracket
facet normal -3.03407551367068e-006 2.90512213873005e-006 -0.999999999991178
outer loop
vertex 2.08435404270557 19.0000083408955 0.000176463074478933
vertex 6.73531332166671 10.7500083410679 0.000110753258607943
vertex 2.08435532567522 1.00002945476509 8.44428192047806e-005
endloop
endfacet
facet normal -3.03407551367068e-006 2.90512213873005e-006 -0.999999999991178
outer loop
vertex 6.73531332166671 10.7500083410679 0.000110753258607943
vertex 2.08435404270557 19.0000083408955 0.000176463074478933
vertex 6.97369125556161 11.0606685128466 0.000112042434744541
endloop
endfacet
facet normal -3.03407551367068e-006 2.90512213873005e-006 -0.999999999991178
outer loop
vertex 6.97369125556161 11.0606685128466 0.000112042434744541
vertex 2.08435404270557 19.0000083408955 0.000176463074478933
vertex 14.5843477702939 19.0000083410402 9.88090361314305e-005
endloop
endfacet
facet normal -3.03407551367068e-006 2.90512213873005e-006 -0.999999999991178
outer loop
vertex 2.08435532567522 1.00002945476509 8.44428192047806e-005
vertex 6.73531332166671 10.7500083410679 0.000110753258607943
vertex 6.58546268791097 10.3882369087226 0.000109765962026476
endloop
endfacet
facet normal -3.03407551367068e-006 2.90512213873005e-006 -0.999999999991178
outer loop
vertex 2.08435532567522 1.00002945476509 8.44428192047806e-005
vertex 6.58546268791097 10.3882369087226 0.000109765962026476
vertex 6.53435142734499 10.0000083410692 0.000109147827606915
endloop
endfacet
facet normal -3.03407551367068e-006 2.90512213873005e-006 -0.999999999991178
outer loop
vertex 6.97369125556161 11.0606685128466 0.000112042434744541
vertex 14.5843477702939 19.0000083410402 9.88090361314305e-005
vertex 7.28435142733892 11.2990464467419 0.000113545635181378
endloop
endfacet
facet normal -3.03407551367068e-006 2.90512213873005e-006 -0.999999999991178
outer loop
vertex 7.28435142733892 11.2990464467419 0.000113545635181378
vertex 14.5843477702939 19.0000083410402 9.88090361314305e-005
vertex 7.64612285968221 11.4488970804972 0.000115160419311877
endloop
endfacet
facet normal -3.03407551367068e-006 2.90512213873005e-006 -0.999999999991178
outer loop
vertex 7.64612285968221 11.4488970804972 0.000115160419311877
vertex 14.5843477702939 19.0000083410402 9.88090361314305e-005
vertex 8.03435142733285 11.5000083410619 0.000116776742275526
endloop
endfacet
facet normal -3.03407551367068e-006 2.90512213873005e-006 -0.999999999991178
outer loop
vertex 8.03435142733285 11.5000083410619 0.000116776742275526
vertex 14.5843477702939 19.0000083410402 9.88090361314305e-005
vertex 8.42257999498349 11.4488970804939 0.000118284454309059
endloop
endfacet
facet normal -3.03407551367068e-006 2.90512213873005e-006 -0.999999999991178
outer loop
vertex 8.42257999498349 11.4488970804939 0.000118284454309059
vertex 14.5843477702939 19.0000083410402 9.88090361314305e-005
vertex 8.78435142732678 11.2990464467355 0.000119580807339315
endloop
endfacet
facet normal -3.03407551367068e-006 2.90512213873005e-006 -0.999999999991178
outer loop
vertex 8.78435142732678 11.2990464467355 0.000119580807339315
vertex 14.5843477702939 19.0000083410402 9.88090361314305e-005
vertex 9.09501159910409 11.0606685128375 0.000120577457061533
endloop
endfacet
facet normal -3.03407551367068e-006 2.90512213873005e-006 -0.999999999991178
outer loop
vertex 9.09501159910409 11.0606685128375 0.000120577457061533
vertex 14.5843477702939 19.0000083410402 9.88090361314305e-005
vertex 9.33338953299899 10.7500083410568 0.000121206483421155
endloop
endfacet
facet normal -3.03407551367068e-006 2.90512213873005e-006 -0.999999999991178
outer loop
vertex 9.33338953299899 10.7500083410568 0.000121206483421155
vertex 14.5843477702939 19.0000083410402 9.88090361314305e-005
vertex 9.48324016675472 10.3882369087102 0.000121425019329369
endloop
endfacet
facet normal -3.03407551367068e-006 2.90512213873005e-006 -0.999999999991178
outer loop
vertex 9.48324016675472 10.3882369087102 0.000121425019329369
vertex 14.5843477702939 19.0000083410402 9.88090361314305e-005
vertex 9.53435142732071 10.0000083410564 0.000121218171922788
endloop
endfacet
facet normal -3.03407551367068e-006 2.90512213873005e-006 -0.999999999991178
outer loop
vertex 2.08435532567522 1.00002945476509 8.44428192047806e-005
vertex 6.97369125556161 8.93934816928811 0.00010978854246817
vertex 14.5843485722076 1.00002945476487 8.62450107606844e-005
endloop
endfacet
facet normal -3.03407551367068e-006 2.90512213873005e-006 -0.999999999991178
outer loop
vertex 6.97369125556161 8.93934816928811 0.00010978854246817
vertex 2.08435532567522 1.00002945476509 8.44428192047806e-005
vertex 6.7353133216667 9.25000834106877 0.000109159516108548
endloop
endfacet
facet normal -3.03407551367068e-006 2.90512213873005e-006 -0.999999999991178
outer loop
vertex 6.7353133216667 9.25000834106877 0.000109159516108548
vertex 2.08435532567522 1.00002945476509 8.44428192047806e-005
vertex 6.58546268791097 9.61177977341543 0.000108940980200334
endloop
endfacet
facet normal -3.03407551367068e-006 2.90512213873005e-006 -0.999999999991178
outer loop
vertex 6.58546268791097 9.61177977341543 0.000108940980200334
vertex 2.08435532567522 1.00002945476509 8.44428192047806e-005
vertex 6.53435142734499 10.0000083410692 0.000109147827606915
endloop
endfacet
facet normal -3.03407551367068e-006 2.90512213873005e-006 -0.999999999991178
outer loop
vertex 14.5843485722076 1.00002945476487 8.62450107606844e-005
vertex 6.97369125556161 8.93934816928811 0.00010978854246817
vertex 7.28435142733891 8.70097023539008 0.000110785192190388
endloop
endfacet
facet normal -3.03407551367068e-006 2.90512213873005e-006 -0.999999999991178
outer loop
vertex 14.5843485722076 1.00002945476487 8.62450107606844e-005
vertex 7.28435142733891 8.70097023539008 0.000110785192190388
vertex 7.6461228596822 8.55111960163167 0.000112081545220644
endloop
endfacet
facet normal -3.03407551367068e-006 2.90512213873005e-006 -0.999999999991178
outer loop
vertex 14.5843485722076 1.00002945476487 8.62450107606844e-005
vertex 7.6461228596822 8.55111960163167 0.000112081545220644
vertex 8.03435142733284 8.50000834106364 0.000113589257254176
endloop
endfacet
facet normal -3.03407551367068e-006 2.90512213873005e-006 -0.999999999991178
outer loop
vertex 14.5843485722076 1.00002945476487 8.62450107606844e-005
vertex 8.03435142733284 8.50000834106364 0.000113589257254176
vertex 8.42257999498348 8.55111960162835 0.000115205580217825
endloop
endfacet
facet normal -3.03407551367068e-006 2.90512213873005e-006 -0.999999999991178
outer loop
vertex 14.5843485722076 1.00002945476487 8.62450107606844e-005
vertex 8.42257999498348 8.55111960162835 0.000115205580217825
vertex 8.78435142732677 8.70097023538366 0.000116820364348325
endloop
endfacet
facet normal -3.03407551367068e-006 2.90512213873005e-006 -0.999999999991178
outer loop
vertex 14.5843485722076 1.00002945476487 8.62450107606844e-005
vertex 8.78435142732677 8.70097023538366 0.000116820364348325
vertex 9.09501159910408 8.93934816927903 0.000118323564785161
endloop
endfacet
facet normal -3.03407551367068e-006 2.90512213873005e-006 -0.999999999991178
outer loop
vertex 14.5843485722076 1.00002945476487 8.62450107606844e-005
vertex 9.09501159910408 8.93934816927903 0.000118323564785161
vertex 9.33338953299899 9.25000834105766 0.00011961274092176
endloop
endfacet
facet normal -3.03407551367068e-006 2.90512213873005e-006 -0.999999999991178
outer loop
vertex 14.5843485722076 1.00002945476487 8.62450107606844e-005
vertex 9.33338953299899 9.25000834105766 0.00011961274092176
vertex 9.48324016675472 9.61177977340304 0.000120600037503227
endloop
endfacet
facet normal -3.03407551367068e-006 2.90512213873005e-006 -0.999999999991178
outer loop
vertex 14.5843485722076 1.00002945476487 8.62450107606844e-005
vertex 9.48324016675472 9.61177977340304 0.000120600037503227
vertex 9.53435142732071 10.0000083410564 0.000121218171922788
endloop
endfacet
facet normal -3.03407551367068e-006 2.90512213873005e-006 -0.999999999991178
outer loop
vertex 14.5843485722076 1.00002945476487 8.62450107606844e-005
vertex 9.53435142732071 10.0000083410564 0.000121218171922788
vertex 14.5843477702939 19.0000083410402 9.88090361314305e-005
endloop
endfacet
facet normal 2.01602064052016e-006 -2.41695161807216e-006 -0.999999999995047
outer loop
vertex 34.8843506209471 19.0000083410009 0.000102504974968128
vertex 38.6854627139518 10.3882363895726 1.93685834882551e-005
vertex 34.8843514227058 1.00002945472081 0.000129766573541307
endloop
endfacet
facet normal 2.01602064052016e-006 -2.41695161807216e-006 -0.999999999995047
outer loop
vertex 38.6854627139518 10.3882363895726 1.93685834882551e-005
vertex 34.8843506209471 19.0000083410009 0.000102504974968128
vertex 38.8353134126123 10.7500077950349 1.93628993607753e-005
endloop
endfacet
facet normal 2.01602064052016e-006 -2.41695161807216e-006 -0.999999999995047
outer loop
vertex 38.8353134126123 10.7500077950349 1.93628993607753e-005
vertex 34.8843506209471 19.0000083410009 0.000102504974968128
vertex 39.0736914022431 11.0606679240485 1.92251740363858e-005
endloop
endfacet
facet normal 2.01602064052016e-006 -2.41695161807216e-006 -0.999999999995047
outer loop
vertex 39.0736914022431 11.0606679240485 1.92251740363858e-005
vertex 34.8843506209471 19.0000083410009 0.000102504974968128
vertex 46.0843515097644 19.0000083410068 0.000108840927036443
endloop
endfacet
facet normal 2.01602064052016e-006 -2.41695161807216e-006 -0.999999999995047
outer loop
vertex 34.8843514227058 1.00002945472081 0.000129766573541307
vertex 38.6854627139518 10.3882363895726 1.93685834882551e-005
vertex 38.6343513837352 10.0000078310885 1.92418390682292e-005
endloop
endfacet
facet normal 2.01602064052016e-006 -2.41695161807216e-006 -0.999999999995047
outer loop
vertex 39.0736914022431 11.0606679240485 1.92251740363858e-005
vertex 46.0843515097644 19.0000083410068 0.000108840927036443
vertex 39.3843516167889 11.2990458022115 1.89647932884895e-005
endloop
endfacet
facet normal 2.01602064052016e-006 -2.41695161807216e-006 -0.999999999995047
outer loop
vertex 39.3843516167889 11.2990458022115 1.89647932884895e-005
vertex 46.0843515097644 19.0000083410068 0.000108840927036443
vertex 39.7461230760188 11.4488963710649 1.85995016320994e-005
endloop
endfacet
facet normal 2.01602064052016e-006 -2.41695161807216e-006 -0.999999999995047
outer loop
vertex 39.7461230760188 11.4488963710649 1.85995016320994e-005
vertex 46.0843515097644 19.0000083410068 0.000108840927036443
vertex 40.134351652842 11.5000075619813 1.81541930770912e-005
endloop
endfacet
facet normal 2.01602064052016e-006 -2.41695161807216e-006 -0.999999999995047
outer loop
vertex 40.134351652842 11.5000075619813 1.81541930770912e-005
vertex 46.0843515097644 19.0000083410068 0.000108840927036443
vertex 40.5225802113258 11.4488962317649 1.7659214670207e-005
endloop
endfacet
facet normal 2.01602064052016e-006 -2.41695161807216e-006 -0.999999999995047
outer loop
vertex 40.5225802113258 11.4488962317649 1.7659214670207e-005
vertex 46.0843515097644 19.0000083410068 0.000108840927036443
vertex 40.8843516167878 11.2990455331045 1.71482983654769e-005
endloop
endfacet
facet normal 2.01602064052016e-006 -2.41695161807216e-006 -0.999999999995047
outer loop
vertex 40.8843516167878 11.2990455331045 1.71482983654769e-005
vertex 46.0843515097644 19.0000083410068 0.000108840927036443
vertex 41.1950117458011 11.0606675434738 1.66562622890609e-005
endloop
endfacet
facet normal 2.01602064052016e-006 -2.41695161807216e-006 -0.999999999995047
outer loop
vertex 41.1950117458011 11.0606675434738 1.66562622890609e-005
vertex 46.0843515097644 19.0000083410068 0.000108840927036443
vertex 41.4333896239637 10.7500073289279 1.62166378615325e-005
endloop
endfacet
facet normal 2.01602064052016e-006 -2.41695161807216e-006 -0.999999999995047
outer loop
vertex 41.4333896239637 10.7500073289279 1.62166378615325e-005
vertex 46.0843515097644 19.0000083410068 0.000108840927036443
vertex 41.5832401928169 10.3882358696979 1.58593847677579e-005
endloop
endfacet
facet normal 2.01602064052016e-006 -2.41695161807216e-006 -0.999999999995047
outer loop
vertex 41.5832401928169 10.3882358696979 1.58593847677579e-005
vertex 46.0843515097644 19.0000083410068 0.000108840927036443
vertex 41.634351383733 10.0000072928745 1.5608849222204e-005
endloop
endfacet
facet normal 2.01602064052016e-006 -2.41695161807216e-006 -0.999999999995047
outer loop
vertex 34.8843514227058 1.00002945472081 0.000129766573541307
vertex 39.0736910216671 8.93934758048917 1.81944260013722e-005
vertex 46.0843519800329 1.00002945474017 0.000168589487217027
endloop
endfacet
facet normal 2.01602064052016e-006 -2.41695161807216e-006 -0.999999999995047
outer loop
vertex 39.0736910216671 8.93934758048917 1.81944260013722e-005
vertex 34.8843514227058 1.00002945472081 0.000129766573541307
vertex 38.8353131435045 9.25000779503507 1.86340504289007e-005
endloop
endfacet
facet normal 2.01602064052016e-006 -2.41695161807216e-006 -0.999999999995047
outer loop
vertex 38.8353131435045 9.25000779503507 1.86340504289007e-005
vertex 34.8843514227058 1.00002945472081 0.000129766573541307
vertex 38.6854625746513 9.61177925426513 1.89913035226752e-005
endloop
endfacet
facet normal 2.01602064052016e-006 -2.41695161807216e-006 -0.999999999995047
outer loop
vertex 38.6854625746513 9.61177925426513 1.89913035226752e-005
vertex 34.8843514227058 1.00002945472081 0.000129766573541307
vertex 38.6343513837352 10.0000078310885 1.92418390682292e-005
endloop
endfacet
facet normal 2.01602064052016e-006 -2.41695161807216e-006 -0.999999999995047
outer loop
vertex 46.0843519800329 1.00002945474017 0.000168589487217027
vertex 39.0736910216671 8.93934758048917 1.81944260013722e-005
vertex 39.3843511506804 8.7009695908585 1.77023899249562e-005
endloop
endfacet
facet normal 2.01602064052016e-006 -2.41695161807216e-006 -0.999999999995047
outer loop
vertex 46.0843519800329 1.00002945474017 0.000168589487217027
vertex 39.3843511506804 8.7009695908585 1.77023899249562e-005
vertex 39.7461225561424 8.5511188921981 1.71914736202261e-005
endloop
endfacet
facet normal 2.01602064052016e-006 -2.41695161807216e-006 -0.999999999995047
outer loop
vertex 46.0843519800329 1.00002945474017 0.000168589487217027
vertex 39.7461225561424 8.5511188921981 1.71914736202261e-005
vertex 40.1343511146262 8.5000075619817 1.66964952133419e-005
endloop
endfacet
facet normal 2.01602064052016e-006 -2.41695161807216e-006 -0.999999999995047
outer loop
vertex 46.0843519800329 1.00002945474017 0.000168589487217027
vertex 40.1343511146262 8.5000075619817 1.66964952133419e-005
vertex 40.5225796914494 8.55111875289808 1.62511866583337e-005
endloop
endfacet
facet normal 2.01602064052016e-006 -2.41695161807216e-006 -0.999999999995047
outer loop
vertex 46.0843519800329 1.00002945474017 0.000168589487217027
vertex 40.5225796914494 8.55111875289808 1.62511866583337e-005
vertex 40.8843511506793 8.70096932175153 1.58858950019436e-005
endloop
endfacet
facet normal 2.01602064052016e-006 -2.41695161807216e-006 -0.999999999995047
outer loop
vertex 46.0843519800329 1.00002945474017 0.000168589487217027
vertex 40.8843511506793 8.70096932175153 1.58858950019436e-005
vertex 41.1950113652251 8.93934719991446 1.56255142540473e-005
endloop
endfacet
facet normal 2.01602064052016e-006 -2.41695161807216e-006 -0.999999999995047
outer loop
vertex 46.0843519800329 1.00002945474017 0.000168589487217027
vertex 41.1950113652251 8.93934719991446 1.56255142540473e-005
vertex 41.4333893548558 9.25000732892813 1.54877889296579e-005
endloop
endfacet
facet normal 2.01602064052016e-006 -2.41695161807216e-006 -0.999999999995047
outer loop
vertex 46.0843519800329 1.00002945474017 0.000168589487217027
vertex 41.4333893548558 9.25000732892813 1.54877889296579e-005
vertex 41.5832400535164 9.6117787343904 1.5482104802178e-005
endloop
endfacet
facet normal 2.01602064052016e-006 -2.41695161807216e-006 -0.999999999995047
outer loop
vertex 46.0843519800329 1.00002945474017 0.000168589487217027
vertex 41.5832400535164 9.6117787343904 1.5482104802178e-005
vertex 41.634351383733 10.0000072928745 1.5608849222204e-005
endloop
endfacet
facet normal 2.01602064052016e-006 -2.41695161807216e-006 -0.999999999995047
outer loop
vertex 46.0843519800329 1.00002945474017 0.000168589487217027
vertex 41.634351383733 10.0000072928745 1.5608849222204e-005
vertex 46.0843515097644 19.0000083410068 0.000108840927036443
endloop
endfacet
facet normal 0.999987541417224 4.25080121972383e-008 -0.00499169413466029
outer loop
vertex 14.5843477702939 19.0000083410402 9.88090361314305e-005
vertex 14.6083163936995 1.00003657751457 4.80158684105756
vertex 14.5843485722076 1.00002945476487 8.62450107606844e-005
endloop
endfacet
facet normal 0.999987541417224 4.25080121972383e-008 -0.00499169413466029
outer loop
vertex 14.6083163936995 1.00003657751457 4.80158684105756
vertex 14.5843477702939 19.0000083410402 9.88090361314305e-005
vertex 14.6083155919408 19.0000154637947 4.80155957945898
endloop
endfacet
facet normal -0.999999999991662 4.65230219549722e-007 4.05709544423512e-006
outer loop
vertex 2.0843585668661 1.00007219178695 3.00008016497537
vertex 2.08435404270557 19.0000083408955 0.000176463074478933
vertex 2.08435532567522 1.00002945476509 8.44428192047806e-005
endloop
endfacet
facet normal -0.999999999991662 4.65230219549722e-007 4.05709544423512e-006
outer loop
vertex 2.08435404270557 19.0000083408955 0.000176463074478933
vertex 2.0843585668661 1.00007219178695 3.00008016497537
vertex 2.08436440925475 4.00003670546534 3.00005246630651
endloop
endfacet
facet normal -0.999999999991662 4.65230219549722e-007 4.05709544423512e-006
outer loop
vertex 2.08435404270557 19.0000083408955 0.000176463074478933
vertex 2.08436440925475 4.00003670546534 3.00005246630651
vertex 2.084363553816 16.0000155926821 3.00010653699488
endloop
endfacet
facet normal -0.999999999991662 4.65230219549722e-007 4.05709544423512e-006
outer loop
vertex 2.08435404270557 19.0000083408955 0.000176463074478933
vertex 2.084363553816 16.0000155926821 3.00010653699488
vertex 2.08438089120191 18.9998861178862 3.00017185903182
endloop
endfacet
facet normal -1.84472654350583e-007 -0.999999999999911 3.80486319646804e-007
outer loop
vertex 46.0843519800329 1.00002945474017 0.000168589487217027
vertex 34.9083163936918 1.00003748169459 4.80156924028107
vertex 34.8843514227058 1.00002945472081 0.000129766573541307
endloop
endfacet
facet normal -1.84472654350583e-007 -0.999999999999911 3.80486319646804e-007
outer loop
vertex 34.9083163936918 1.00003748169459 4.80156924028107
vertex 46.0843519800329 1.00002945474017 0.000168589487217027
vertex 46.084319744331 1.00003545800062 3.00016005819434
endloop
endfacet
facet normal -1.84472654350583e-007 -0.999999999999911 3.80486319646804e-007
outer loop
vertex 34.9083163936918 1.00003748169459 4.80156924028107
vertex 46.084319744331 1.00003545800062 3.00016005819434
vertex 36.3843670945238 1.00004452003305 7.50011894760408
endloop
endfacet
facet normal -1.84472654350583e-007 -0.999999999999911 3.80486319646804e-007
outer loop
vertex 34.9083163936918 1.00003748169459 4.80156924028107
vertex 36.3843670945238 1.00004452003305 7.50011894760408
vertex 14.6083163936995 1.00003657751457 4.80158684105756
endloop
endfacet
facet normal -1.84472654350583e-007 -0.999999999999911 3.80486319646804e-007
outer loop
vertex 14.6083163936995 1.00003657751457 4.80158684105756
vertex 36.3843670945238 1.00004452003305 7.50011894760408
vertex 13.0843677302357 1.00001604710619 7.50008613684439
endloop
endfacet
facet normal -1.84472654350583e-007 -0.999999999999911 3.80486319646804e-007
outer loop
vertex 14.5843485722076 1.00002945476487 8.62450107606844e-005
vertex 2.0843585668661 1.00007219178695 3.00008016497537
vertex 2.08435532567522 1.00002945476509 8.44428192047806e-005
endloop
endfacet
facet normal -1.84472654350583e-007 -0.999999999999911 3.80486319646804e-007
outer loop
vertex 2.0843585668661 1.00007219178695 3.00008016497537
vertex 14.5843485722076 1.00002945476487 8.62450107606844e-005
vertex 14.6083163936995 1.00003657751457 4.80158684105756
endloop
endfacet
facet normal -1.84472654350583e-007 -0.999999999999911 3.80486319646804e-007
outer loop
vertex 2.0843585668661 1.00007219178695 3.00008016497537
vertex 14.6083163936995 1.00003657751457 4.80158684105756
vertex 13.0843677302357 1.00001604710619 7.50008613684439
endloop
endfacet
facet normal 0.965925899326736 0.25881877251184 -2.30246080028252e-006
outer loop
vertex 6.58546268791097 9.61177977341543 0.000108940980200334
vertex 6.53436072462797 10.0000003312019 3.00010914780251
vertex 6.58547198519395 9.61177176354811 3.0001089409551
endloop
endfacet
facet normal 0.999999999995189 1.33576249308092e-007 -3.09909397197824e-006
outer loop
vertex 6.53436072462797 10.0000003312019 3.00010914780251
vertex 6.58546268791097 9.61177977341543 0.000108940980200334
vertex 6.53435142734499 10.0000083410692 0.000109147827606915
endloop
endfacet
facet normal 0.999999999995189 -1.33569439902073e-007 -3.09909468524541e-006
outer loop
vertex 6.53435142734499 10.0000083410692 0.000109147827606915
vertex 6.58547198519396 10.3882288988552 3.00010976593693
vertex 6.53436072462797 10.0000003312019 3.00010914780251
endloop
endfacet
facet normal 0.965925820031561 -0.25881906842963 -3.68453069703322e-006
outer loop
vertex 6.58547198519396 10.3882288988552 3.00010976593693
vertex 6.53435142734499 10.0000083410692 0.000109147827606915
vertex 6.58546268791097 10.3882369087226 0.000109765962026476
endloop
endfacet
facet normal 0.965925832538219 -0.258819021754144 -3.68453061117106e-006
outer loop
vertex 6.58546268791097 10.3882369087226 0.000109765962026476
vertex 6.73532261894969 10.7500003312006 3.00011075323351
vertex 6.58547198519396 10.3882288988552 3.00010976593693
endloop
endfacet
facet normal 0.866025313660176 -0.500000156083619 -4.01887244198008e-006
outer loop
vertex 6.73532261894969 10.7500003312006 3.00011075323351
vertex 6.58546268791097 10.3882369087226 0.000109765962026476
vertex 6.73531332166671 10.7500083410679 0.000110753258607943
endloop
endfacet
facet normal 0.866025493908507 -0.499999843884351 -4.01887216702843e-006
outer loop
vertex 6.73531332166671 10.7500083410679 0.000110753258607943
vertex 6.9737005528446 11.0606605029792 3.00011204240965
vertex 6.73532261894969 10.7500003312006 3.00011075323351
endloop
endfacet
facet normal 0.707106552052591 -0.707107010308663 -4.0793343505356e-006
outer loop
vertex 6.9737005528446 11.0606605029792 3.00011204240965
vertex 6.73531332166671 10.7500083410679 0.000110753258607943
vertex 6.97369125556161 11.0606685128466 0.000112042434744541
endloop
endfacet
facet normal 0.500000386059437 -0.866025180884194 -3.86179729327471e-006
outer loop
vertex 7.28435142733892 11.2990464467419 0.000113545635181378
vertex 6.9737005528446 11.0606605029792 3.00011204240965
vertex 6.97369125556161 11.0606685128466 0.000112042434744541
endloop
endfacet
facet normal 0.707106552052591 -0.707107010308663 -4.0793343505356e-006
outer loop
vertex 6.9737005528446 11.0606605029792 3.00011204240965
vertex 7.28435142733892 11.2990464467419 0.000113545635181378
vertex 7.28436072462191 11.2990384368746 3.00011354561008
endloop
endfacet
facet normal 0.258819563924205 -0.96592568726515 -3.38108510910306e-006
outer loop
vertex 7.64612285968221 11.4488970804972 0.000115160419311877
vertex 7.28436072462191 11.2990384368746 3.00011354561008
vertex 7.28435142733892 11.2990464467419 0.000113545635181378
endloop
endfacet
facet normal 0.499999613959493 -0.866025626656304 -3.86179609065597e-006
outer loop
vertex 7.28436072462191 11.2990384368746 3.00011354561008
vertex 7.64612285968221 11.4488970804972 0.000115160419311877
vertex 7.6461321569652 11.4488890706299 3.00011516039421
endloop
endfacet
facet normal 5.91857957195034e-007 -0.99999999999626 -2.66995760866569e-006
outer loop
vertex 8.03435142733285 11.5000083410619 0.000116776742275526
vertex 7.6461321569652 11.4488890706299 3.00011516039421
vertex 7.64612285968221 11.4488970804972 0.000115160419311877
endloop
endfacet
facet normal 0.258818526300477 -0.96592596529559 -3.38108263573823e-006
outer loop
vertex 7.6461321569652 11.4488890706299 3.00011516039421
vertex 8.03435142733285 11.5000083410619 0.000116776742275526
vertex 8.03436072461584 11.5000003311946 3.00011677671718
endloop
endfacet
facet normal -0.258818459503235 -0.965925983198099 -1.77687683654001e-006
outer loop
vertex 8.42257999498349 11.4488970804939 0.000118284454309059
vertex 8.03436072461584 11.5000003311946 3.00011677671718
vertex 8.03435142733285 11.5000083410619 0.000116776742275526
endloop
endfacet
facet normal -5.91845274189769e-007 -0.999999999996261 -2.66995394025772e-006
outer loop
vertex 8.03436072461584 11.5000003311946 3.00011677671718
vertex 8.42257999498349 11.4488970804939 0.000118284454309059
vertex 8.42258929226647 11.4488890706266 3.00011828442921
endloop
endfacet
facet normal -0.499999498275842 -0.866025693454486 -7.62704691635585e-007
outer loop
vertex 8.78435142732678 11.2990464467355 0.000119580807339315
vertex 8.42258929226647 11.4488890706266 3.00011828442921
vertex 8.42257999498349 11.4488970804939 0.000118284454309059
endloop
endfacet
facet normal -0.258819630699805 -0.965925669376924 -1.7768723690027e-006
outer loop
vertex 8.42258929226647 11.4488890706266 3.00011828442921
vertex 8.78435142732678 11.2990464467355 0.000119580807339315
vertex 8.78436072460977 11.2990384368682 3.00011958078224
endloop
endfacet
facet normal -0.707106418478644 -0.7071071438942 3.03444689253543e-007
outer loop
vertex 9.09501159910409 11.0606685128375 0.000120577457061533
vertex 8.78436072460977 11.2990384368682 3.00011958078224
vertex 8.78435142732678 11.2990464467355 0.000119580807339315
endloop
endfacet
facet normal -0.500000501730742 -0.86602511410953 -7.62700035008785e-007
outer loop
vertex 8.78436072460977 11.2990384368682 3.00011958078224
vertex 9.09501159910409 11.0606685128375 0.000120577457061533
vertex 9.09502089638707 11.0606605029701 3.00012057743196
endloop
endfacet
facet normal -0.707107143903103 -0.707106418469741 3.03448874263596e-007
outer loop
vertex 9.09502089638707 11.0606605029701 3.00012057743196
vertex 9.33338953299899 10.7500083410568 0.000121206483421155
vertex 9.33339883028198 10.7500003311895 3.00012120645832
endloop
endfacet
facet normal -0.866025197984703 -0.500000356453609 1.34891494059098e-006
outer loop
vertex 9.33338953299899 10.7500083410568 0.000121206483421155
vertex 9.09502089638707 11.0606605029701 3.00012057743196
vertex 9.09501159910409 11.0606685128375 0.000120577457061533
endloop
endfacet
facet normal -0.866025609587986 -0.49999964353581 1.34891811964738e-006
outer loop
vertex 9.33339883028198 10.7500003311895 3.00012120645832
vertex 9.48324016675472 10.3882369087102 0.000121425019329369
vertex 9.48324946403771 10.3882288988428 3.00012142499423
endloop
endfacet
facet normal -0.965925753247232 -0.25881931768797 2.3024588919722e-006
outer loop
vertex 9.48324016675472 10.3882369087102 0.000121425019329369
vertex 9.33339883028198 10.7500003311895 3.00012120645832
vertex 9.33338953299899 10.7500083410568 0.000121206483421155
endloop
endfacet
facet normal -0.965925899326735 -0.258818772511841 2.30246080028252e-006
outer loop
vertex 9.48324946403771 10.3882288988428 3.00012142499423
vertex 9.53435142732071 10.0000083410564 0.000121218171922788
vertex 9.53436072460369 10.0000003311891 3.00012121814682
endloop
endfacet
facet normal -0.999999999995189 -1.33576249334826e-007 3.09909397197824e-006
outer loop
vertex 9.53435142732071 10.0000083410564 0.000121218171922788
vertex 9.48324946403771 10.3882288988428 3.00012142499423
vertex 9.48324016675472 10.3882369087102 0.000121425019329369
endloop
endfacet
facet normal -0.999999999995189 1.33569439866429e-007 3.09909468524541e-006
outer loop
vertex 9.53436072460369 10.0000003311891 3.00012121814682
vertex 9.48324016675472 9.61177977340304 0.000120600037503227
vertex 9.4832494640377 9.61177176353571 3.0001206000124
endloop
endfacet
facet normal -0.96592582003156 0.258819068429631 3.68453069703323e-006
outer loop
vertex 9.48324016675472 9.61177977340304 0.000120600037503227
vertex 9.53436072460369 10.0000003311891 3.00012121814682
vertex 9.53435142732071 10.0000083410564 0.000121218171922788
endloop
endfacet
facet normal -0.965925832538219 0.258819021754146 3.68453061117106e-006
outer loop
vertex 9.4832494640377 9.61177176353571 3.0001206000124
vertex 9.33338953299899 9.25000834105766 0.00011961274092176
vertex 9.33339883028197 9.25000033119034 3.00011961271582
endloop
endfacet
facet normal -0.866025313660176 0.500000156083617 4.01887244198008e-006
outer loop
vertex 9.33338953299899 9.25000834105766 0.00011961274092176
vertex 9.4832494640377 9.61177176353571 3.0001206000124
vertex 9.48324016675472 9.61177977340304 0.000120600037503227
endloop
endfacet
facet normal -0.866025493908508 0.49999984388435 4.01887216702842e-006
outer loop
vertex 9.33339883028197 9.25000033119034 3.00011961271582
vertex 9.09501159910408 8.93934816927903 0.000118323564785161
vertex 9.09502089638706 8.93934015941171 3.00011832353969
endloop
endfacet
facet normal -0.707106552052591 0.707107010308663 4.0793343505368e-006
outer loop
vertex 9.09501159910408 8.93934816927903 0.000118323564785161
vertex 9.33339883028197 9.25000033119034 3.00011961271582
vertex 9.33338953299899 9.25000834105766 0.00011961274092176
endloop
endfacet
facet normal -0.500000386059437 0.866025180884194 3.86179729327515e-006
outer loop
vertex 8.78436072460975 8.70096222551634 3.00011682033925
vertex 9.09501159910408 8.93934816927903 0.000118323564785161
vertex 8.78435142732677 8.70097023538366 0.000116820364348325
endloop
endfacet
facet normal -0.707106552052591 0.707107010308663 4.0793343505368e-006
outer loop
vertex 9.09501159910408 8.93934816927903 0.000118323564785161
vertex 8.78436072460975 8.70096222551634 3.00011682033925
vertex 9.09502089638706 8.93934015941171 3.00011832353969
endloop
endfacet
facet normal -0.258819563924205 0.96592568726515 3.38108510910257e-006
outer loop
vertex 8.42258929226646 8.55111159176102 3.00011520555512
vertex 8.78435142732677 8.70097023538366 0.000116820364348325
vertex 8.42257999498348 8.55111960162835 0.000115205580217825
endloop
endfacet
facet normal -0.499999613959493 0.866025626656305 3.86179609065641e-006
outer loop
vertex 8.78435142732677 8.70097023538366 0.000116820364348325
vertex 8.42258929226646 8.55111159176102 3.00011520555512
vertex 8.78436072460975 8.70096222551634 3.00011682033925
endloop
endfacet
facet normal -5.91857956713834e-007 0.99999999999626 2.66995760866569e-006
outer loop
vertex 8.03436072461582 8.50000033119632 3.00011358923216
vertex 8.42257999498348 8.55111960162835 0.000115205580217825
vertex 8.03435142733284 8.50000834106364 0.000113589257254176
endloop
endfacet
facet normal -0.258818526300478 0.96592596529559 3.38108263573774e-006
outer loop
vertex 8.42257999498348 8.55111960162835 0.000115205580217825
vertex 8.03436072461582 8.50000033119632 3.00011358923216
vertex 8.42258929226646 8.55111159176102 3.00011520555512
endloop
endfacet
facet normal 0.258818459503235 0.965925983198099 1.77687683653975e-006
outer loop
vertex 7.64613215696519 8.55111159176435 3.00011208152012
vertex 8.03435142733284 8.50000834106364 0.000113589257254176
vertex 7.6461228596822 8.55111960163167 0.000112081545220644
endloop
endfacet
facet normal 5.9184527467988e-007 0.999999999996261 2.66995394025772e-006
outer loop
vertex 8.03435142733284 8.50000834106364 0.000113589257254176
vertex 7.64613215696519 8.55111159176435 3.00011208152012
vertex 8.03436072461582 8.50000033119632 3.00011358923216
endloop
endfacet
facet normal 0.499999498275842 0.866025693454487 7.62704691635589e-007
outer loop
vertex 7.2843607246219 8.70096222552276 3.00011078516709
vertex 7.6461228596822 8.55111960163167 0.000112081545220644
vertex 7.28435142733891 8.70097023539008 0.000110785192190388
endloop
endfacet
facet normal 0.258819630699805 0.965925669376924 1.77687236900244e-006
outer loop
vertex 7.6461228596822 8.55111960163167 0.000112081545220644
vertex 7.2843607246219 8.70096222552276 3.00011078516709
vertex 7.64613215696519 8.55111159176435 3.00011208152012
endloop
endfacet
facet normal 0.707106418478643 0.707107143894201 -3.03444689253539e-007
outer loop
vertex 6.97370055284459 8.93934015942079 3.00010978851737
vertex 7.28435142733891 8.70097023539008 0.000110785192190388
vertex 6.97369125556161 8.93934816928811 0.00010978854246817
endloop
endfacet
facet normal 0.500000501730741 0.866025114109531 7.62700035008789e-007
outer loop
vertex 7.28435142733891 8.70097023539008 0.000110785192190388
vertex 6.97370055284459 8.93934015942079 3.00010978851737
vertex 7.2843607246219 8.70096222552276 3.00011078516709
endloop
endfacet
facet normal 0.707107143903102 0.707106418469742 -3.03448874263592e-007
outer loop
vertex 6.97369125556161 8.93934816928811 0.00010978854246817
vertex 6.73532261894968 9.25000033120145 3.00010915949101
vertex 6.97370055284459 8.93934015942079 3.00010978851737
endloop
endfacet
facet normal 0.866025197984703 0.500000356453609 -1.34891494059098e-006
outer loop
vertex 6.73532261894968 9.25000033120145 3.00010915949101
vertex 6.97369125556161 8.93934816928811 0.00010978854246817
vertex 6.7353133216667 9.25000834106877 0.000109159516108548
endloop
endfacet
facet normal 0.866025609587986 0.49999964353581 -1.34891811964738e-006
outer loop
vertex 6.7353133216667 9.25000834106877 0.000109159516108548
vertex 6.58547198519395 9.61177176354811 3.0001089409551
vertex 6.73532261894968 9.25000033120145 3.00010915949101
endloop
endfacet
facet normal 0.965925753247232 0.258819317687969 -2.30245889197221e-006
outer loop
vertex 6.58547198519395 9.61177176354811 3.0001089409551
vertex 6.7353133216667 9.25000834106877 0.000109159516108548
vertex 6.58546268791097 9.61177977341543 0.000108940980200334
endloop
endfacet
facet normal 0.99999999999263 -6.83960714560064e-007 3.77792227799872e-006
outer loop
vertex 46.0843515097644 19.0000083410068 0.000108840927036443
vertex 46.084319744331 1.00003545800062 3.00016005819434
vertex 46.0843519800329 1.00002945474017 0.000168589487217027
endloop
endfacet
facet normal 0.99999999999263 -6.83960714560064e-007 3.77792227799872e-006
outer loop
vertex 46.084319744331 1.00003545800062 3.00016005819434
vertex 46.0843515097644 19.0000083410068 0.000108840927036443
vertex 46.0843458534548 4.00531814157134 3.00015861383628
endloop
endfacet
facet normal 0.99999999999263 -6.83960714560064e-007 3.77792227799872e-006
outer loop
vertex 46.0843458534548 4.00531814157134 3.00015861383628
vertex 46.0843515097644 19.0000083410068 0.000108840927036443
vertex 46.084345540107 16.0000155931639 3.00007232380172
endloop
endfacet
facet normal 0.99999999999263 -6.83960714560064e-007 3.77792227799872e-006
outer loop
vertex 46.084345540107 16.0000155931639 3.00007232380172
vertex 46.0843515097644 19.0000083410068 0.000108840927036443
vertex 46.0843505103311 18.9999185400235 3.00010884042779
endloop
endfacet
facet normal 0.999999999997966 6.18078648153386e-008 2.01602049067634e-006
outer loop
vertex 38.6343513837352 10.0000078310885 1.92418390682292e-005
vertex 38.6854565265894 9.61178650511999 3.00001899128866
vertex 38.6854625746513 9.61177925426513 1.89913035226752e-005
endloop
endfacet
facet normal 0.965925950988071 0.258818579715682 1.32177466895383e-006
outer loop
vertex 38.6854565265894 9.61178650511999 3.00001899128866
vertex 38.6343513837352 10.0000078310885 1.92418390682292e-005
vertex 38.6343453356733 10.0000150819433 3.00001924182421
endloop
endfacet
facet normal 0.965925822193143 -0.258819060375934 2.57287954106244e-006
outer loop
vertex 38.6854627139518 10.3882363895726 1.93685834882551e-005
vertex 38.6343453356733 10.0000150819433 3.00001924182421
vertex 38.6343513837352 10.0000078310885 1.92418390682292e-005
endloop
endfacet
facet normal 0.999999999997879 -4.20620087248855e-007 2.01602165668119e-006
outer loop
vertex 38.6343453356733 10.0000150819433 3.00001924182421
vertex 38.6854627139518 10.3882363895726 1.93685834882551e-005
vertex 38.6854566658899 10.3882436404274 3.00001936856863
endloop
endfacet
facet normal 0.866025351489542 -0.500000090568679 2.95440101132736e-006
outer loop
vertex 38.8353134126123 10.7500077950349 1.93628993607753e-005
vertex 38.6854566658899 10.3882436404274 3.00001936856863
vertex 38.6854627139518 10.3882363895726 1.93685834882551e-005
endloop
endfacet
facet normal 0.965925737511496 -0.258819376411914 2.57288013418617e-006
outer loop
vertex 38.6854566658899 10.3882436404274 3.00001936856863
vertex 38.8353134126123 10.7500077950349 1.93628993607753e-005
vertex 38.8353073645504 10.7500150458897 3.0000193628845
endloop
endfacet
facet normal 0.707106640857531 -0.707106921508588 3.13458480074229e-006
outer loop
vertex 39.0736914022431 11.0606679240485 1.92251740363858e-005
vertex 38.8353073645504 10.7500150458897 3.0000193628845
vertex 38.8353134126123 10.7500077950349 1.93628993607753e-005
endloop
endfacet
facet normal 0.866025276667501 -0.500000220164202 2.95440117371069e-006
outer loop
vertex 38.8353073645504 10.7500150458897 3.0000193628845
vertex 39.0736914022431 11.0606679240485 1.92251740363858e-005
vertex 39.0736853541811 11.0606751749034 3.00001922515918
endloop
endfacet
facet normal 0.499999941295243 -0.866025437672091 3.10115178450218e-006
outer loop
vertex 39.384345568727 11.2990530530663 3.00001896477843
vertex 39.0736914022431 11.0606679240485 1.92251740363858e-005
vertex 39.3843516167889 11.2990458022115 1.89647932884895e-005
endloop
endfacet
facet normal 0.707106640857531 -0.707106921508588 3.13458480074229e-006
outer loop
vertex 39.0736914022431 11.0606679240485 1.92251740363858e-005
vertex 39.384345568727 11.2990530530663 3.00001896477843
vertex 39.0736853541811 11.0606751749034 3.00001922515918
endloop
endfacet
facet normal 0.258819061697423 -0.965925821838254 2.85638054839232e-006
outer loop
vertex 39.7461170279569 11.4489036219198 3.00001859948677
vertex 39.3843516167889 11.2990458022115 1.89647932884895e-005
vertex 39.7461230760188 11.4488963710649 1.85995016320994e-005
endloop
endfacet
facet normal 0.499999747966417 -0.866025549290494 3.10115166452355e-006
outer loop
vertex 39.3843516167889 11.2990458022115 1.89647932884895e-005
vertex 39.7461170279569 11.4489036219198 3.00001859948677
vertex 39.384345568727 11.2990530530663 3.00001896477843
endloop
endfacet
facet normal 8.87490107745827e-008 -0.999999999997075 2.41695179692093e-006
outer loop
vertex 40.13434560478 11.5000148128361 3.00001815417822
vertex 39.7461230760188 11.4488963710649 1.85995016320994e-005
vertex 40.134351652842 11.5000075619813 1.81541930770912e-005
endloop
endfacet
facet normal 0.258818681928142 -0.965925923597053 2.8563800287157e-006
outer loop
vertex 39.7461230760188 11.4488963710649 1.85995016320994e-005
vertex 40.13434560478 11.5000148128361 3.00001815417822
vertex 39.7461170279569 11.4489036219198 3.00001859948677
endloop
endfacet
facet normal -0.258818907900043 -0.96592586305065 1.81281181721108e-006
outer loop
vertex 40.5225741632639 11.4489034826197 3.00001765919981
vertex 40.134351652842 11.5000075619813 1.81541930770912e-005
vertex 40.5225802113258 11.4488962317649 1.7659214670207e-005
endloop
endfacet
facet normal -4.47552639955761e-007 -0.999999999996979 2.4169507157255e-006
outer loop
vertex 40.134351652842 11.5000075619813 1.81541930770912e-005
vertex 40.5225741632639 11.4489034826197 3.00001765919981
vertex 40.13434560478 11.5000148128361 3.00001815417822
endloop
endfacet
facet normal -0.499999849806015 -0.866025490498279 1.08513169325883e-006
outer loop
vertex 40.8843455687258 11.2990527839593 3.00001714828351
vertex 40.5225802113258 11.4488962317649 1.7659214670207e-005
vertex 40.8843516167878 11.2990455331045 1.71482983654769e-005
endloop
endfacet
facet normal -0.258819528883255 -0.96592569665858 1.81281016313452e-006
outer loop
vertex 40.5225802113258 11.4488962317649 1.7659214670207e-005
vertex 40.8843455687258 11.2990527839593 3.00001714828351
vertex 40.5225741632639 11.4489034826197 3.00001765919981
endloop
endfacet
facet normal -0.70710665336252 -0.707106909010495 2.83501579930387e-007
outer loop
vertex 41.1950056977392 11.0606747943287 3.00001665624743
vertex 40.8843516167878 11.2990455331045 1.71482983654769e-005
vertex 41.1950117458011 11.0606675434738 1.66562622890609e-005
endloop
endfacet
facet normal -0.500000460929622 -0.866025137665754 1.08512960844189e-006
outer loop
vertex 40.8843516167878 11.2990455331045 1.71482983654769e-005
vertex 41.1950056977392 11.0606747943287 3.00001665624743
vertex 40.8843455687258 11.2990527839593 3.00001714828351
endloop
endfacet
facet normal -0.866025322000801 -0.5000001416531 -5.37448772603207e-007
outer loop
vertex 41.4333835759018 10.7500145797828 3.000016216623
vertex 41.1950117458011 11.0606675434738 1.66562622890609e-005
vertex 41.4333896239637 10.7500073289279 1.62166378615325e-005
endloop
endfacet
facet normal -0.707107162727229 -0.707106399645603 2.8349932193032e-007
outer loop
vertex 41.1950117458011 11.0606675434738 1.66562622890609e-005
vertex 41.4333835759018 10.7500145797828 3.000016216623
vertex 41.1950056977392 11.0606747943287 3.00001665624743
endloop
endfacet
facet normal -0.965925794455789 -0.258819163902531 -1.32177294143108e-006
outer loop
vertex 41.5832341447549 10.3882431205527 3.00001585936991
vertex 41.4333896239637 10.7500073289279 1.62166378615325e-005
vertex 41.5832401928169 10.3882358696979 1.58593847677579e-005
endloop
endfacet
facet normal -0.866025664973539 -0.499999547606647 -5.37450899824862e-007
outer loop
vertex 41.4333896239637 10.7500073289279 1.62166378615325e-005
vertex 41.5832341447549 10.3882431205527 3.00001585936991
vertex 41.4333835759018 10.7500145797828 3.000016216623
endloop
endfacet
facet normal -0.999999999997966 -6.18078505219223e-008 -2.01602049067614e-006
outer loop
vertex 41.634345335671 10.0000145437294 3.00001560883436
vertex 41.5832401928169 10.3882358696979 1.58593847677579e-005
vertex 41.634351383733 10.0000072928745 1.5608849222204e-005
endloop
endfacet
facet normal -0.965925950988071 -0.258818579715682 -1.32177466895474e-006
outer loop
vertex 41.5832401928169 10.3882358696979 1.58593847677579e-005
vertex 41.634345335671 10.0000145437294 3.00001560883436
vertex 41.5832341447549 10.3882431205527 3.00001585936991
endloop
endfacet
facet normal 0.965925794455789 0.258819163902531 1.32177294143017e-006
outer loop
vertex 38.6854625746513 9.61177925426513 1.89913035226752e-005
vertex 38.8353070954426 9.25001504588992 3.00001863403557
vertex 38.8353131435045 9.25000779503507 1.86340504289007e-005
endloop
endfacet
facet normal 0.866025664973544 0.499999547606637 5.37450899823993e-007
outer loop
vertex 38.8353070954426 9.25001504588992 3.00001863403557
vertex 38.6854625746513 9.61177925426513 1.89913035226752e-005
vertex 38.6854565265894 9.61178650511999 3.00001899128866
endloop
endfacet
facet normal 0.866025322000807 0.50000014165309 5.37448772602337e-007
outer loop
vertex 38.8353131435045 9.25000779503507 1.86340504289007e-005
vertex 39.0736849736051 8.93935483134403 3.00001819441114
vertex 39.0736910216671 8.93934758048917 1.81944260013722e-005
endloop
endfacet
facet normal 0.707107162727237 0.707106399645595 -2.83499321930284e-007
outer loop
vertex 39.0736849736051 8.93935483134403 3.00001819441114
vertex 38.8353131435045 9.25000779503507 1.86340504289007e-005
vertex 38.8353070954426 9.25001504588992 3.00001863403557
endloop
endfacet
facet normal 0.707106653362528 0.707106909010487 -2.83501579930351e-007
outer loop
vertex 39.0736910216671 8.93934758048917 1.81944260013722e-005
vertex 39.3843451026185 8.70097684171335 3.00001770237507
vertex 39.3843511506804 8.7009695908585 1.77023899249562e-005
endloop
endfacet
facet normal 0.500000460929622 0.866025137665754 -1.08512960844189e-006
outer loop
vertex 39.3843451026185 8.70097684171335 3.00001770237507
vertex 39.0736910216671 8.93934758048917 1.81944260013722e-005
vertex 39.0736849736051 8.93935483134403 3.00001819441114
endloop
endfacet
facet normal 0.499999849806016 0.866025490498279 -1.08513169325883e-006
outer loop
vertex 39.3843511506804 8.7009695908585 1.77023899249562e-005
vertex 39.7461165080804 8.55112614305295 3.00001719145876
vertex 39.7461225561424 8.5511188921981 1.71914736202261e-005
endloop
endfacet
facet normal 0.258819528883254 0.965925696658581 -1.81281016313453e-006
outer loop
vertex 39.7461165080804 8.55112614305295 3.00001719145876
vertex 39.3843511506804 8.7009695908585 1.77023899249562e-005
vertex 39.3843451026185 8.70097684171335 3.00001770237507
endloop
endfacet
facet normal 0.258818907900041 0.96592586305065 -1.81281181721108e-006
outer loop
vertex 39.7461225561424 8.5511188921981 1.71914736202261e-005
vertex 40.1343450665643 8.50001481283655 3.00001669648035
vertex 40.1343511146262 8.5000075619817 1.66964952133419e-005
endloop
endfacet
facet normal 4.47552636159629e-007 0.999999999996979 -2.41695071572602e-006
outer loop
vertex 40.1343450665643 8.50001481283655 3.00001669648035
vertex 39.7461225561424 8.5511188921981 1.71914736202261e-005
vertex 39.7461165080804 8.55112614305295 3.00001719145876
endloop
endfacet
facet normal -8.87490145707165e-008 0.999999999997075 -2.41695179692145e-006
outer loop
vertex 40.1343511146262 8.5000075619817 1.66964952133419e-005
vertex 40.5225736433874 8.55112600375293 3.0000162511718
vertex 40.5225796914494 8.55111875289808 1.62511866583337e-005
endloop
endfacet
facet normal -0.258818681928139 0.965925923597054 -2.85638002871621e-006
outer loop
vertex 40.5225736433874 8.55112600375293 3.0000162511718
vertex 40.1343511146262 8.5000075619817 1.66964952133419e-005
vertex 40.1343450665643 8.50001481283655 3.00001669648035
endloop
endfacet
facet normal -0.25881906169742 0.965925821838255 -2.85638054839282e-006
outer loop
vertex 40.5225796914494 8.55111875289808 1.62511866583337e-005
vertex 40.8843451026174 8.70097657260638 3.00001588588014
vertex 40.8843511506793 8.70096932175153 1.58858950019436e-005
endloop
endfacet
facet normal -0.499999747966413 0.866025549290497 -3.10115166452355e-006
outer loop
vertex 40.8843451026174 8.70097657260638 3.00001588588014
vertex 40.5225796914494 8.55111875289808 1.62511866583337e-005
vertex 40.5225736433874 8.55112600375293 3.0000162511718
endloop
endfacet
facet normal -0.499999941295238 0.866025437672094 -3.10115178450217e-006
outer loop
vertex 40.8843511506793 8.70096932175153 1.58858950019436e-005
vertex 41.1950053171632 8.93935445076931 3.0000156254994
vertex 41.1950113652251 8.93934719991446 1.56255142540473e-005
endloop
endfacet
facet normal -0.707106640857539 0.70710692150858 -3.13458480074229e-006
outer loop
vertex 41.1950053171632 8.93935445076931 3.0000156254994
vertex 40.8843511506793 8.70096932175153 1.58858950019436e-005
vertex 40.8843451026174 8.70097657260638 3.00001588588014
endloop
endfacet
facet normal -0.707106640857539 0.70710692150858 -3.13458480074229e-006
outer loop
vertex 41.1950053171632 8.93935445076931 3.0000156254994
vertex 41.4333893548558 9.25000732892813 1.54877889296579e-005
vertex 41.1950113652251 8.93934719991446 1.56255142540473e-005
endloop
endfacet
facet normal -0.866025276667507 0.500000220164192 -2.95440117371067e-006
outer loop
vertex 41.4333893548558 9.25000732892813 1.54877889296579e-005
vertex 41.1950053171632 8.93935445076931 3.0000156254994
vertex 41.4333833067939 9.25001457978298 3.00001548777407
endloop
endfacet
facet normal -0.866025351489547 0.500000090568669 -2.95440101132735e-006
outer loop
vertex 41.4333833067939 9.25001457978298 3.00001548777407
vertex 41.5832400535164 9.6117787343904 1.5482104802178e-005
vertex 41.4333893548558 9.25000732892813 1.54877889296579e-005
endloop
endfacet
facet normal -0.965925737511493 0.258819376411928 -2.57288013418595e-006
outer loop
vertex 41.5832400535164 9.6117787343904 1.5482104802178e-005
vertex 41.4333833067939 9.25001457978298 3.00001548777407
vertex 41.5832340054544 9.61178598524526 3.00001548208994
endloop
endfacet
facet normal -0.965925822193139 0.258819060375948 -2.57287954106222e-006
outer loop
vertex 41.5832340054544 9.61178598524526 3.00001548208994
vertex 41.634351383733 10.0000072928745 1.5608849222204e-005
vertex 41.5832400535164 9.6117787343904 1.5482104802178e-005
endloop
endfacet
facet normal -0.999999999997879 4.2062010154228e-007 -2.01602165668098e-006
outer loop
vertex 41.634351383733 10.0000072928745 1.5608849222204e-005
vertex 41.5832340054544 9.61178598524526 3.00001548208994
vertex 41.634345335671 10.0000145437294 3.00001560883436
endloop
endfacet
facet normal -9.21281047247098e-007 5.33667740725215e-007 0.999999999999433
outer loop
vertex 13.0843677302357 1.00001604710619 7.50008613684439
vertex 13.0843948965804 15.9998840251065 7.50004734351761
vertex 13.0843516798045 4.00008745241524 7.5000669919712
endloop
endfacet
facet normal -9.21281047247098e-007 5.33667740725215e-007 0.999999999999433
outer loop
vertex 13.0843948965804 15.9998840251065 7.50004734351761
vertex 13.0843677302357 1.00001604710619 7.50008613684439
vertex 36.3843670945238 1.00004452003305 7.50011894760408
endloop
endfacet
facet normal -9.21281047247098e-007 5.33667740725215e-007 0.999999999999433
outer loop
vertex 13.0843948965804 15.9998840251065 7.50004734351761
vertex 36.3843670945238 1.00004452003305 7.50011894760408
vertex 36.3843190533604 4.00003545797647 7.50012156322645
endloop
endfacet
facet normal -9.21281047247098e-007 5.33667740725215e-007 0.999999999999433
outer loop
vertex 13.0843948965804 15.9998840251065 7.50004734351761
vertex 36.3843399244738 18.9999342502033 7.50010292873197
vertex 13.0843669283508 18.9999949333674 7.50010346824595
endloop
endfacet
facet normal -9.21281047247098e-007 5.33667740725215e-007 0.999999999999433
outer loop
vertex 36.3843399244738 18.9999342502033 7.50010292873197
vertex 13.0843948965804 15.9998840251065 7.50004734351761
vertex 36.3843190533604 4.00003545797647 7.50012156322645
endloop
endfacet
facet normal -9.21281047247098e-007 5.33667740725215e-007 0.999999999999433
outer loop
vertex 36.3843399244738 18.9999342502033 7.50010292873197
vertex 36.3843190533604 4.00003545797647 7.50012156322645
vertex 36.384340058122 15.9999342514316 7.50006436124026
endloop
endfacet
facet normal 0.999999999993767 -8.52912731872292e-007 3.42622104971892e-006
outer loop
vertex 36.3843452410004 4.00003670557088 3.00013009450446
vertex 36.384340058122 15.9999342514316 7.50006436124026
vertex 36.3843190533604 4.00003545797647 7.50012156322645
endloop
endfacet
facet normal 0.999999999993767 -8.52912731872292e-007 3.42622104971892e-006
outer loop
vertex 36.384340058122 15.9999342514316 7.50006436124026
vertex 36.3843452410004 4.00003670557088 3.00013009450446
vertex 36.3843447065331 16.0000155930842 3.00006436175087
endloop
endfacet
facet normal -0.999999999992239 1.77843071416842e-006 3.51548974418142e-006
outer loop
vertex 13.0843516798045 4.00008745241524 7.5000669919712
vertex 13.084357201254 16.0000155929611 3.00005194758955
vertex 13.0843577358967 4.00003670552606 3.00007126978994
endloop
endfacet
facet normal -0.999999999992239 1.77843071416842e-006 3.51548974418142e-006
outer loop
vertex 13.084357201254 16.0000155929611 3.00005194758955
vertex 13.0843516798045 4.00008745241524 7.5000669919712
vertex 13.0843948965804 15.9998840251065 7.50004734351761
endloop
endfacet
facet normal -3.76022268192563e-008 0.999999999991126 4.21279747130649e-006
outer loop
vertex 2.08435404270557 19.0000083408955 0.000176463074478933
vertex 14.6083155919408 19.0000154637947 4.80155957945898
vertex 14.5843477702939 19.0000083410402 9.88090361314305e-005
endloop
endfacet
facet normal -3.76022268192563e-008 0.999999999991126 4.21279747130649e-006
outer loop
vertex 14.6083155919408 19.0000154637947 4.80155957945898
vertex 2.08435404270557 19.0000083408955 0.000176463074478933
vertex 2.08438089120191 18.9998861178862 3.00017185903182
endloop
endfacet
facet normal -3.76022268192563e-008 0.999999999991126 4.21279747130649e-006
outer loop
vertex 14.6083155919408 19.0000154637947 4.80155957945898
vertex 2.08438089120191 18.9998861178862 3.00017185903182
vertex 13.0843669283508 18.9999949333674 7.50010346824595
endloop
endfacet
facet normal -3.76022268192563e-008 0.999999999991126 4.21279747130649e-006
outer loop
vertex 14.6083155919408 19.0000154637947 4.80155957945898
vertex 13.0843669283508 18.9999949333674 7.50010346824595
vertex 36.3843399244738 18.9999342502033 7.50010292873197
endloop
endfacet
facet normal -3.76022268192563e-008 0.999999999991126 4.21279747130649e-006
outer loop
vertex 34.9083155919332 19.0000163679747 4.8015419786825
vertex 46.0843515097644 19.0000083410068 0.000108840927036443
vertex 34.8843506209471 19.0000083410009 0.000102504974968128
endloop
endfacet
facet normal -3.76022268192563e-008 0.999999999991126 4.21279747130649e-006
outer loop
vertex 46.0843515097644 19.0000083410068 0.000108840927036443
vertex 34.9083155919332 19.0000163679747 4.8015419786825
vertex 46.0843505103311 18.9999185400235 3.00010884042779
endloop
endfacet
facet normal -3.76022268192563e-008 0.999999999991126 4.21279747130649e-006
outer loop
vertex 46.0843505103311 18.9999185400235 3.00010884042779
vertex 34.9083155919332 19.0000163679747 4.8015419786825
vertex 36.3843399244738 18.9999342502033 7.50010292873197
endloop
endfacet
facet normal -3.76022268192563e-008 0.999999999991126 4.21279747130649e-006
outer loop
vertex 36.3843399244738 18.9999342502033 7.50010292873197
vertex 34.9083155919332 19.0000163679747 4.8015419786825
vertex 14.6083155919408 19.0000154637947 4.80155957945898
endloop
endfacet
facet normal 1.62663382485897e-006 -1.44785611891133e-006 0.999999999997629
outer loop
vertex 2.08436440925475 4.00003670546534 3.00005246630651
vertex 6.58547198519395 9.61177176354811 3.0001089409551
vertex 6.53436072462797 10.0000003312019 3.00010914780251
endloop
endfacet
facet normal 1.62663382485897e-006 -1.44785611891133e-006 0.999999999997629
outer loop
vertex 6.58547198519395 9.61177176354811 3.0001089409551
vertex 2.08436440925475 4.00003670546534 3.00005246630651
vertex 6.73532261894968 9.25000033120145 3.00010915949101
endloop
endfacet
facet normal 1.62663382485897e-006 -1.44785611891133e-006 0.999999999997629
outer loop
vertex 6.73532261894968 9.25000033120145 3.00010915949101
vertex 2.08436440925475 4.00003670546534 3.00005246630651
vertex 6.97370055284459 8.93934015942079 3.00010978851737
endloop
endfacet
facet normal 1.62663382485897e-006 -1.44785611891133e-006 0.999999999997629
outer loop
vertex 6.97370055284459 8.93934015942079 3.00010978851737
vertex 2.08436440925475 4.00003670546534 3.00005246630651
vertex 13.0843577358967 4.00003670552606 3.00007126978994
endloop
endfacet
facet normal 1.62663382485897e-006 -1.44785611891133e-006 0.999999999997629
outer loop
vertex 6.97370055284459 8.93934015942079 3.00010978851737
vertex 13.0843577358967 4.00003670552606 3.00007126978994
vertex 7.2843607246219 8.70096222552276 3.00011078516709
endloop
endfacet
facet normal 1.62663382485897e-006 -1.44785611891133e-006 0.999999999997629
outer loop
vertex 7.2843607246219 8.70096222552276 3.00011078516709
vertex 13.0843577358967 4.00003670552606 3.00007126978994
vertex 7.64613215696519 8.55111159176435 3.00011208152012
endloop
endfacet
facet normal 1.62663382485897e-006 -1.44785611891133e-006 0.999999999997629
outer loop
vertex 7.64613215696519 8.55111159176435 3.00011208152012
vertex 13.0843577358967 4.00003670552606 3.00007126978994
vertex 8.03436072461582 8.50000033119632 3.00011358923216
endloop
endfacet
facet normal 1.62663382485897e-006 -1.44785611891133e-006 0.999999999997629
outer loop
vertex 8.03436072461582 8.50000033119632 3.00011358923216
vertex 13.0843577358967 4.00003670552606 3.00007126978994
vertex 8.42258929226646 8.55111159176102 3.00011520555512
endloop
endfacet
facet normal 1.62663382485897e-006 -1.44785611891133e-006 0.999999999997629
outer loop
vertex 8.42258929226646 8.55111159176102 3.00011520555512
vertex 13.0843577358967 4.00003670552606 3.00007126978994
vertex 8.78436072460975 8.70096222551634 3.00011682033925
endloop
endfacet
facet normal 1.62663382485897e-006 -1.44785611891133e-006 0.999999999997629
outer loop
vertex 8.78436072460975 8.70096222551634 3.00011682033925
vertex 13.0843577358967 4.00003670552606 3.00007126978994
vertex 9.09502089638706 8.93934015941171 3.00011832353969
endloop
endfacet
facet normal 1.62663382485897e-006 -1.44785611891133e-006 0.999999999997629
outer loop
vertex 9.09502089638706 8.93934015941171 3.00011832353969
vertex 13.0843577358967 4.00003670552606 3.00007126978994
vertex 9.33339883028197 9.25000033119034 3.00011961271582
endloop
endfacet
facet normal 1.62663382485897e-006 -1.44785611891133e-006 0.999999999997629
outer loop
vertex 9.33339883028197 9.25000033119034 3.00011961271582
vertex 13.0843577358967 4.00003670552606 3.00007126978994
vertex 9.4832494640377 9.61177176353571 3.0001206000124
endloop
endfacet
facet normal 1.62663382485897e-006 -1.44785611891133e-006 0.999999999997629
outer loop
vertex 9.4832494640377 9.61177176353571 3.0001206000124
vertex 13.0843577358967 4.00003670552606 3.00007126978994
vertex 9.53436072460369 10.0000003311891 3.00012121814682
endloop
endfacet
facet normal 1.62663382485897e-006 -1.44785611891133e-006 0.999999999997629
outer loop
vertex 9.53436072460369 10.0000003311891 3.00012121814682
vertex 13.0843577358967 4.00003670552606 3.00007126978994
vertex 13.084357201254 16.0000155929611 3.00005194758955
endloop
endfacet
facet normal 1.62663382485897e-006 -1.44785611891133e-006 0.999999999997629
outer loop
vertex 2.084363553816 16.0000155926821 3.00010653699488
vertex 6.9737005528446 11.0606605029792 3.00011204240965
vertex 13.084357201254 16.0000155929611 3.00005194758955
endloop
endfacet
facet normal 1.62663382485897e-006 -1.44785611891133e-006 0.999999999997629
outer loop
vertex 6.9737005528446 11.0606605029792 3.00011204240965
vertex 2.084363553816 16.0000155926821 3.00010653699488
vertex 6.73532261894969 10.7500003312006 3.00011075323351
endloop
endfacet
facet normal 1.62663382485897e-006 -1.44785611891133e-006 0.999999999997629
outer loop
vertex 6.73532261894969 10.7500003312006 3.00011075323351
vertex 2.084363553816 16.0000155926821 3.00010653699488
vertex 2.08436440925475 4.00003670546534 3.00005246630651
endloop
endfacet
facet normal 1.62663382485897e-006 -1.44785611891133e-006 0.999999999997629
outer loop
vertex 6.73532261894969 10.7500003312006 3.00011075323351
vertex 2.08436440925475 4.00003670546534 3.00005246630651
vertex 6.58547198519396 10.3882288988552 3.00010976593693
endloop
endfacet
facet normal 1.62663382485897e-006 -1.44785611891133e-006 0.999999999997629
outer loop
vertex 6.58547198519396 10.3882288988552 3.00010976593693
vertex 2.08436440925475 4.00003670546534 3.00005246630651
vertex 6.53436072462797 10.0000003312019 3.00010914780251
endloop
endfacet
facet normal 1.62663382485897e-006 -1.44785611891133e-006 0.999999999997629
outer loop
vertex 13.084357201254 16.0000155929611 3.00005194758955
vertex 6.9737005528446 11.0606605029792 3.00011204240965
vertex 7.28436072462191 11.2990384368746 3.00011354561008
endloop
endfacet
facet normal 1.62663382485897e-006 -1.44785611891133e-006 0.999999999997629
outer loop
vertex 13.084357201254 16.0000155929611 3.00005194758955
vertex 7.28436072462191 11.2990384368746 3.00011354561008
vertex 7.6461321569652 11.4488890706299 3.00011516039421
endloop
endfacet
facet normal 1.62663382485897e-006 -1.44785611891133e-006 0.999999999997629
outer loop
vertex 13.084357201254 16.0000155929611 3.00005194758955
vertex 7.6461321569652 11.4488890706299 3.00011516039421
vertex 8.03436072461584 11.5000003311946 3.00011677671718
endloop
endfacet
facet normal 1.62663382485897e-006 -1.44785611891133e-006 0.999999999997629
outer loop
vertex 13.084357201254 16.0000155929611 3.00005194758955
vertex 8.03436072461584 11.5000003311946 3.00011677671718
vertex 8.42258929226647 11.4488890706266 3.00011828442921
endloop
endfacet
facet normal 1.62663382485897e-006 -1.44785611891133e-006 0.999999999997629
outer loop
vertex 13.084357201254 16.0000155929611 3.00005194758955
vertex 8.42258929226647 11.4488890706266 3.00011828442921
vertex 8.78436072460977 11.2990384368682 3.00011958078224
endloop
endfacet
facet normal 1.62663382485897e-006 -1.44785611891133e-006 0.999999999997629
outer loop
vertex 13.084357201254 16.0000155929611 3.00005194758955
vertex 8.78436072460977 11.2990384368682 3.00011958078224
vertex 9.09502089638707 11.0606605029701 3.00012057743196
endloop
endfacet
facet normal 1.62663382485897e-006 -1.44785611891133e-006 0.999999999997629
outer loop
vertex 13.084357201254 16.0000155929611 3.00005194758955
vertex 9.09502089638707 11.0606605029701 3.00012057743196
vertex 9.33339883028198 10.7500003311895 3.00012120645832
endloop
endfacet
facet normal 1.62663382485897e-006 -1.44785611891133e-006 0.999999999997629
outer loop
vertex 13.084357201254 16.0000155929611 3.00005194758955
vertex 9.33339883028198 10.7500003311895 3.00012120645832
vertex 9.48324946403771 10.3882288988428 3.00012142499423
endloop
endfacet
facet normal 1.62663382485897e-006 -1.44785611891133e-006 0.999999999997629
outer loop
vertex 13.084357201254 16.0000155929611 3.00005194758955
vertex 9.48324946403771 10.3882288988428 3.00012142499423
vertex 9.53436072460369 10.0000003311891 3.00012121814682
endloop
endfacet
facet normal -0.378627991409124 -1.9405127730896e-005 0.925548941842047
outer loop
vertex 13.0843948965804 15.9998840251065 7.50004734351761
vertex 2.08438089120191 18.9998861178862 3.00017185903182
vertex 2.084363553816 16.0000155926821 3.00010653699488
endloop
endfacet
facet normal -0.378627991409124 -1.9405127730896e-005 0.925548941842047
outer loop
vertex 2.08438089120191 18.9998861178862 3.00017185903182
vertex 13.0843948965804 15.9998840251065 7.50004734351761
vertex 13.0843669283508 18.9999949333674 7.50010346824595
endloop
endfacet
facet normal -1.19724918707017e-010 -0.999999999572589 -2.92373309196678e-005
outer loop
vertex 13.0843948965804 15.9998840251065 7.50004734351761
vertex 2.084363553816 16.0000155926821 3.00010653699488
vertex 13.084357201254 16.0000155929611 3.00005194758955
endloop
endfacet
facet normal -0.378633636996084 6.5817082014057e-006 0.925546632478234
outer loop
vertex 13.0843677302357 1.00001604710619 7.50008613684439
vertex 2.08436440925475 4.00003670546534 3.00005246630651
vertex 2.0843585668661 1.00007219178695 3.00008016497537
endloop
endfacet
facet normal -0.378633636996084 6.5817082014057e-006 0.925546632478234
outer loop
vertex 2.08436440925475 4.00003670546534 3.00005246630651
vertex 13.0843677302357 1.00001604710619 7.50008613684439
vertex 13.0843516798045 4.00008745241524 7.5000669919712
endloop
endfacet
facet normal 1.37577844477012e-011 0.999999999936414 -1.12770972054147e-005
outer loop
vertex 13.0843516798045 4.00008745241524 7.5000669919712
vertex 13.0843577358967 4.00003670552606 3.00007126978994
vertex 2.08436440925475 4.00003670546534 3.00005246630651
endloop
endfacet
facet normal 0.420833878211333 1.35597303714299e-006 0.907137722150155
outer loop
vertex 36.3843670945238 1.00004452003305 7.50011894760408
vertex 46.0843458534548 4.00531814157134 3.00015861383628
vertex 36.3843190533604 4.00003545797647 7.50012156322645
endloop
endfacet
facet normal 0.420833878211333 1.35597303714299e-006 0.907137722150155
outer loop
vertex 46.0843458534548 4.00531814157134 3.00015861383628
vertex 36.3843670945238 1.00004452003305 7.50011894760408
vertex 46.084319744331 1.00003545800062 3.00016005819434
endloop
endfacet
facet normal -0.000544477823912167 0.999999851771901 2.74075104959463e-007
outer loop
vertex 36.3843190533604 4.00003545797647 7.50012156322645
vertex 46.0843458534548 4.00531814157134 3.00015861383628
vertex 36.3843452410004 4.00003670557088 3.00013009450446
endloop
endfacet
facet normal -1.88220826065077e-006 6.33549926660224e-006 0.999999999978159
outer loop
vertex 36.3843452410004 4.00003670557088 3.00013009450446
vertex 38.6854565265894 9.61178650511999 3.00001899128866
vertex 38.6343453356733 10.0000150819433 3.00001924182421
endloop
endfacet
facet normal -1.88220826065077e-006 6.33549926660224e-006 0.999999999978159
outer loop
vertex 38.6854565265894 9.61178650511999 3.00001899128866
vertex 36.3843452410004 4.00003670557088 3.00013009450446
vertex 38.8353070954426 9.25001504588992 3.00001863403557
endloop
endfacet
facet normal -1.88220826065077e-006 6.33549926660224e-006 0.999999999978159
outer loop
vertex 38.8353070954426 9.25001504588992 3.00001863403557
vertex 36.3843452410004 4.00003670557088 3.00013009450446
vertex 39.0736849736051 8.93935483134403 3.00001819441114
endloop
endfacet
facet normal -1.88220826065077e-006 6.33549926660224e-006 0.999999999978159
outer loop
vertex 39.0736849736051 8.93935483134403 3.00001819441114
vertex 36.3843452410004 4.00003670557088 3.00013009450446
vertex 39.3843451026185 8.70097684171335 3.00001770237507
endloop
endfacet
facet normal -1.88220826065077e-006 6.33549926660224e-006 0.999999999978159
outer loop
vertex 39.3843451026185 8.70097684171335 3.00001770237507
vertex 36.3843452410004 4.00003670557088 3.00013009450446
vertex 46.0843458534548 4.00531814157134 3.00015861383628
endloop
endfacet
facet normal -1.88220826065077e-006 6.33549926660224e-006 0.999999999978159
outer loop
vertex 39.3843451026185 8.70097684171335 3.00001770237507
vertex 46.0843458534548 4.00531814157134 3.00015861383628
vertex 39.7461165080804 8.55112614305295 3.00001719145876
endloop
endfacet
facet normal -1.88220826065077e-006 6.33549926660224e-006 0.999999999978159
outer loop
vertex 39.7461165080804 8.55112614305295 3.00001719145876
vertex 46.0843458534548 4.00531814157134 3.00015861383628
vertex 40.1343450665643 8.50001481283655 3.00001669648035
endloop
endfacet
facet normal -1.88220826065077e-006 6.33549926660224e-006 0.999999999978159
outer loop
vertex 40.1343450665643 8.50001481283655 3.00001669648035
vertex 46.0843458534548 4.00531814157134 3.00015861383628
vertex 40.5225736433874 8.55112600375293 3.0000162511718
endloop
endfacet
facet normal -1.88220826065077e-006 6.33549926660224e-006 0.999999999978159
outer loop
vertex 40.5225736433874 8.55112600375293 3.0000162511718
vertex 46.0843458534548 4.00531814157134 3.00015861383628
vertex 40.8843451026174 8.70097657260638 3.00001588588014
endloop
endfacet
facet normal -1.88220826065077e-006 6.33549926660224e-006 0.999999999978159
outer loop
vertex 40.8843451026174 8.70097657260638 3.00001588588014
vertex 46.0843458534548 4.00531814157134 3.00015861383628
vertex 41.1950053171632 8.93935445076931 3.0000156254994
endloop
endfacet
facet normal -1.88220826065077e-006 6.33549926660224e-006 0.999999999978159
outer loop
vertex 41.1950053171632 8.93935445076931 3.0000156254994
vertex 46.0843458534548 4.00531814157134 3.00015861383628
vertex 41.4333833067939 9.25001457978298 3.00001548777407
endloop
endfacet
facet normal -1.88220826065077e-006 6.33549926660224e-006 0.999999999978159
outer loop
vertex 41.4333833067939 9.25001457978298 3.00001548777407
vertex 46.0843458534548 4.00531814157134 3.00015861383628
vertex 41.5832340054544 9.61178598524526 3.00001548208994
endloop
endfacet
facet normal -1.88220826065077e-006 6.33549926660224e-006 0.999999999978159
outer loop
vertex 41.5832340054544 9.61178598524526 3.00001548208994
vertex 46.0843458534548 4.00531814157134 3.00015861383628
vertex 41.634345335671 10.0000145437294 3.00001560883436
endloop
endfacet
facet normal -1.88220826065077e-006 6.33549926660224e-006 0.999999999978159
outer loop
vertex 41.634345335671 10.0000145437294 3.00001560883436
vertex 46.0843458534548 4.00531814157134 3.00015861383628
vertex 46.084345540107 16.0000155931639 3.00007232380172
endloop
endfacet
facet normal -1.88220826065077e-006 6.33549926660224e-006 0.999999999978159
outer loop
vertex 36.3843447065331 16.0000155930842 3.00006436175087
vertex 39.384345568727 11.2990530530663 3.00001896477843
vertex 46.084345540107 16.0000155931639 3.00007232380172
endloop
endfacet
facet normal -1.88220826065077e-006 6.33549926660224e-006 0.999999999978159
outer loop
vertex 39.384345568727 11.2990530530663 3.00001896477843
vertex 36.3843447065331 16.0000155930842 3.00006436175087
vertex 39.0736853541811 11.0606751749034 3.00001922515918
endloop
endfacet
facet normal -1.88220826065077e-006 6.33549926660224e-006 0.999999999978159
outer loop
vertex 39.0736853541811 11.0606751749034 3.00001922515918
vertex 36.3843447065331 16.0000155930842 3.00006436175087
vertex 38.8353073645504 10.7500150458897 3.0000193628845
endloop
endfacet
facet normal -1.88220826065077e-006 6.33549926660224e-006 0.999999999978159
outer loop
vertex 38.8353073645504 10.7500150458897 3.0000193628845
vertex 36.3843447065331 16.0000155930842 3.00006436175087
vertex 38.6854566658899 10.3882436404274 3.00001936856863
endloop
endfacet
facet normal -1.88220826065077e-006 6.33549926660224e-006 0.999999999978159
outer loop
vertex 38.6854566658899 10.3882436404274 3.00001936856863
vertex 36.3843447065331 16.0000155930842 3.00006436175087
vertex 36.3843452410004 4.00003670557088 3.00013009450446
endloop
endfacet
facet normal -1.88220826065077e-006 6.33549926660224e-006 0.999999999978159
outer loop
vertex 38.6854566658899 10.3882436404274 3.00001936856863
vertex 36.3843452410004 4.00003670557088 3.00013009450446
vertex 38.6343453356733 10.0000150819433 3.00001924182421
endloop
endfacet
facet normal -1.88220826065077e-006 6.33549926660224e-006 0.999999999978159
outer loop
vertex 46.084345540107 16.0000155931639 3.00007232380172
vertex 39.384345568727 11.2990530530663 3.00001896477843
vertex 39.7461170279569 11.4489036219198 3.00001859948677
endloop
endfacet
facet normal -1.88220826065077e-006 6.33549926660224e-006 0.999999999978159
outer loop
vertex 46.084345540107 16.0000155931639 3.00007232380172
vertex 39.7461170279569 11.4489036219198 3.00001859948677
vertex 40.13434560478 11.5000148128361 3.00001815417822
endloop
endfacet
facet normal -1.88220826065077e-006 6.33549926660224e-006 0.999999999978159
outer loop
vertex 46.084345540107 16.0000155931639 3.00007232380172
vertex 40.13434560478 11.5000148128361 3.00001815417822
vertex 40.5225741632639 11.4489034826197 3.00001765919981
endloop
endfacet
facet normal -1.88220826065077e-006 6.33549926660224e-006 0.999999999978159
outer loop
vertex 46.084345540107 16.0000155931639 3.00007232380172
vertex 40.5225741632639 11.4489034826197 3.00001765919981
vertex 40.8843455687258 11.2990527839593 3.00001714828351
endloop
endfacet
facet normal -1.88220826065077e-006 6.33549926660224e-006 0.999999999978159
outer loop
vertex 46.084345540107 16.0000155931639 3.00007232380172
vertex 40.8843455687258 11.2990527839593 3.00001714828351
vertex 41.1950056977392 11.0606747943287 3.00001665624743
endloop
endfacet
facet normal -1.88220826065077e-006 6.33549926660224e-006 0.999999999978159
outer loop
vertex 46.084345540107 16.0000155931639 3.00007232380172
vertex 41.1950056977392 11.0606747943287 3.00001665624743
vertex 41.4333835759018 10.7500145797828 3.000016216623
endloop
endfacet
facet normal -1.88220826065077e-006 6.33549926660224e-006 0.999999999978159
outer loop
vertex 46.084345540107 16.0000155931639 3.00007232380172
vertex 41.4333835759018 10.7500145797828 3.000016216623
vertex 41.5832341447549 10.3882431205527 3.00001585936991
endloop
endfacet
facet normal -1.88220826065077e-006 6.33549926660224e-006 0.999999999978159
outer loop
vertex 46.084345540107 16.0000155931639 3.00007232380172
vertex 41.5832341447549 10.3882431205527 3.00001585936991
vertex 41.634345335671 10.0000145437294 3.00001560883436
endloop
endfacet
facet normal 0.420835698527202 -1.16913510022885e-005 0.907136877603614
outer loop
vertex 36.384340058122 15.9999342514316 7.50006436124026
vertex 46.0843505103311 18.9999185400235 3.00010884042779
vertex 36.3843399244738 18.9999342502033 7.50010292873197
endloop
endfacet
facet normal 0.420835698527202 -1.16913510022885e-005 0.907136877603614
outer loop
vertex 46.0843505103311 18.9999185400235 3.00010884042779
vertex 36.384340058122 15.9999342514316 7.50006436124026
vertex 46.084345540107 16.0000155931639 3.00007232380172
endloop
endfacet
facet normal 2.30477206949725e-011 -0.999999999836631 -1.80759227952274e-005
outer loop
vertex 36.384340058122 15.9999342514316 7.50006436124026
vertex 36.3843447065331 16.0000155930842 3.00006436175087
vertex 46.084345540107 16.0000155931639 3.00007232380172
endloop
endfacet
facet normal -0.999987544166681 -3.69823843351598e-008 0.00499114330481736
outer loop
vertex 34.9083163936918 1.00003748169459 4.80156924028107
vertex 34.8843506209471 19.0000083410009 0.000102504974968128
vertex 34.8843514227058 1.00002945472081 0.000129766573541307
endloop
endfacet
facet normal -0.999987544166681 -3.69823843351598e-008 0.00499114330481736
outer loop
vertex 34.8843506209471 19.0000083410009 0.000102504974968128
vertex 34.9083163936918 1.00003748169459 4.80156924028107
vertex 34.9083155919332 19.0000163679747 4.8015419786825
endloop
endfacet
facet normal -8.67033256788027e-007 -1.51453506920394e-006 -0.999999999998477
outer loop
vertex 34.9083155919332 19.0000163679747 4.8015419786825
vertex 14.6083163936995 1.00003657751457 4.80158684105756
vertex 14.6083155919408 19.0000154637947 4.80155957945898
endloop
endfacet
facet normal -8.67033256788027e-007 -1.51453506920394e-006 -0.999999999998477
outer loop
vertex 14.6083163936995 1.00003657751457 4.80158684105756
vertex 34.9083155919332 19.0000163679747 4.8015419786825
vertex 34.9083163936918 1.00003748169459 4.80156924028107
endloop
endfacet
endsolid linear-actuator-bracket
