solid foot
facet normal 0.0 0.0 -1.0
outer loop
vertex -3.36464758633277 12.5570357417579 0.0
vertex -2.22162940046486 0.595283803735797 0.0
vertex -2.3 -5.98902036949307e-016 0.0
endloop
endfacet
facet normal 0.0 0.0 -1.0
outer loop
vertex -2.22162940046486 0.595283803735797 0.0
vertex -3.36464758633277 12.5570357417579 0.0
vertex 0.0 13.0 0.0
endloop
endfacet
facet normal 0.0 0.0 -1.0
outer loop
vertex -2.22162940046486 0.595283803735797 0.0
vertex 0.0 13.0 0.0
vertex -1.99185842870421 1.15 0.0
endloop
endfacet
facet normal 0.0 0.0 -1.0
outer loop
vertex -1.99185842870421 1.15 0.0
vertex 0.0 13.0 0.0
vertex -1.62634559672906 1.62634559672906 0.0
endloop
endfacet
facet normal 0.0 0.0 -1.0
outer loop
vertex -1.62634559672906 1.62634559672906 0.0
vertex 0.0 13.0 0.0
vertex -1.15 1.99185842870421 0.0
endloop
endfacet
facet normal 0.0 0.0 -1.0
outer loop
vertex -1.15 1.99185842870421 0.0
vertex 0.0 13.0 0.0
vertex -0.595283803735797 2.22162940046486 0.0
endloop
endfacet
facet normal 0.0 0.0 -1.0
outer loop
vertex -0.595283803735797 2.22162940046486 0.0
vertex 0.0 13.0 0.0
vertex 7.92371355131463e-016 2.3 0.0
endloop
endfacet
facet normal 0.0 0.0 -1.0
outer loop
vertex 7.92371355131463e-016 2.3 0.0
vertex 0.0 13.0 0.0
vertex 3.36464758633278 12.5570357417579 0.0
endloop
endfacet
facet normal 0.0 0.0 -1.0
outer loop
vertex 7.92371355131463e-016 2.3 0.0
vertex 3.36464758633278 12.5570357417579 0.0
vertex 0.595283803735798 2.22162940046486 0.0
endloop
endfacet
facet normal 0.0 0.0 -1.0
outer loop
vertex 0.595283803735798 2.22162940046486 0.0
vertex 3.36464758633278 12.5570357417579 0.0
vertex 1.15 1.99185842870421 0.0
endloop
endfacet
facet normal 0.0 0.0 -1.0
outer loop
vertex 1.15 1.99185842870421 0.0
vertex 3.36464758633278 12.5570357417579 0.0
vertex 1.62634559672906 1.62634559672906 0.0
endloop
endfacet
facet normal 0.0 0.0 -1.0
outer loop
vertex 1.62634559672906 1.62634559672906 0.0
vertex 3.36464758633278 12.5570357417579 0.0
vertex 1.99185842870421 1.15 0.0
endloop
endfacet
facet normal 0.0 0.0 -1.0
outer loop
vertex 1.99185842870421 1.15 0.0
vertex 3.36464758633278 12.5570357417579 0.0
vertex 2.22162940046486 0.595283803735797 0.0
endloop
endfacet
facet normal 0.0 0.0 -1.0
outer loop
vertex 2.22162940046486 0.595283803735797 0.0
vertex 3.36464758633278 12.5570357417579 0.0
vertex 2.3 -4.7897926401303e-015 0.0
endloop
endfacet
facet normal 0.0 0.0 -1.0
outer loop
vertex 2.3 -4.7897926401303e-015 0.0
vertex 3.36464758633278 12.5570357417579 0.0
vertex 3.36464758633276 -12.5570357417579 0.0
endloop
endfacet
facet normal 0.0 0.0 -1.0
outer loop
vertex 3.36464758633276 -12.5570357417579 0.0
vertex 3.36464758633278 12.5570357417579 0.0
vertex 6.5 -11.2583302491977 0.0
endloop
endfacet
facet normal 0.0 0.0 -1.0
outer loop
vertex 6.5 -11.2583302491977 0.0
vertex 3.36464758633278 12.5570357417579 0.0
vertex 6.50000000000001 11.2583302491977 0.0
endloop
endfacet
facet normal 0.0 0.0 -1.0
outer loop
vertex 6.5 -11.2583302491977 0.0
vertex 6.50000000000001 11.2583302491977 0.0
vertex 9.19238815542511 -9.19238815542512 0.0
endloop
endfacet
facet normal 0.0 0.0 -1.0
outer loop
vertex 9.19238815542511 -9.19238815542512 0.0
vertex 6.50000000000001 11.2583302491977 0.0
vertex 9.19238815542512 9.19238815542511 0.0
endloop
endfacet
facet normal 0.0 0.0 -1.0
outer loop
vertex 9.19238815542511 -9.19238815542512 0.0
vertex 9.19238815542512 9.19238815542511 0.0
vertex 11.2583302491977 -6.5 0.0
endloop
endfacet
facet normal 0.0 0.0 -1.0
outer loop
vertex 11.2583302491977 -6.5 0.0
vertex 9.19238815542512 9.19238815542511 0.0
vertex 11.2583302491977 6.49999999999999 0.0
endloop
endfacet
facet normal 0.0 0.0 -1.0
outer loop
vertex 11.2583302491977 -6.5 0.0
vertex 11.2583302491977 6.49999999999999 0.0
vertex 12.5570357417579 -3.36464758633278 0.0
endloop
endfacet
facet normal 0.0 0.0 -1.0
outer loop
vertex 12.5570357417579 -3.36464758633278 0.0
vertex 11.2583302491977 6.49999999999999 0.0
vertex 12.5570357417579 3.36464758633276 0.0
endloop
endfacet
facet normal 0.0 0.0 -1.0
outer loop
vertex 12.5570357417579 -3.36464758633278 0.0
vertex 12.5570357417579 3.36464758633276 0.0
vertex 13.0 -2.38806125833734e-015 0.0
endloop
endfacet
facet normal 0.0 0.0 -1.0
outer loop
vertex -12.5570357417579 3.36464758633277 0.0
vertex -12.5570357417579 -3.36464758633277 0.0
vertex -13.0 7.96020419445779e-016 0.0
endloop
endfacet
facet normal 0.0 0.0 -1.0
outer loop
vertex -12.5570357417579 -3.36464758633277 0.0
vertex -12.5570357417579 3.36464758633277 0.0
vertex -11.2583302491977 -6.5 0.0
endloop
endfacet
facet normal 0.0 0.0 -1.0
outer loop
vertex -11.2583302491977 -6.5 0.0
vertex -12.5570357417579 3.36464758633277 0.0
vertex -11.2583302491977 6.5 0.0
endloop
endfacet
facet normal 0.0 0.0 -1.0
outer loop
vertex -11.2583302491977 -6.5 0.0
vertex -11.2583302491977 6.5 0.0
vertex -9.19238815542512 -9.19238815542512 0.0
endloop
endfacet
facet normal 0.0 0.0 -1.0
outer loop
vertex -9.19238815542512 -9.19238815542512 0.0
vertex -11.2583302491977 6.5 0.0
vertex -9.19238815542512 9.19238815542512 0.0
endloop
endfacet
facet normal 0.0 0.0 -1.0
outer loop
vertex -9.19238815542512 -9.19238815542512 0.0
vertex -9.19238815542512 9.19238815542512 0.0
vertex -6.5 -11.2583302491977 0.0
endloop
endfacet
facet normal 0.0 0.0 -1.0
outer loop
vertex -6.5 -11.2583302491977 0.0
vertex -9.19238815542512 9.19238815542512 0.0
vertex -6.5 11.2583302491977 0.0
endloop
endfacet
facet normal 0.0 0.0 -1.0
outer loop
vertex -6.5 -11.2583302491977 0.0
vertex -6.5 11.2583302491977 0.0
vertex -3.36464758633277 -12.5570357417579 0.0
endloop
endfacet
facet normal 0.0 0.0 -1.0
outer loop
vertex -3.36464758633277 -12.5570357417579 0.0
vertex -6.5 11.2583302491977 0.0
vertex -3.36464758633277 12.5570357417579 0.0
endloop
endfacet
facet normal 0.0 0.0 -1.0
outer loop
vertex -3.36464758633277 -12.5570357417579 0.0
vertex -3.36464758633277 12.5570357417579 0.0
vertex -2.3 -5.98902036949307e-016 0.0
endloop
endfacet
facet normal 0.0 0.0 -1.0
outer loop
vertex -3.36464758633277 -12.5570357417579 0.0
vertex -2.3 -5.98902036949307e-016 0.0
vertex -2.22162940046486 -0.595283803735798 0.0
endloop
endfacet
facet normal 0.0 0.0 -1.0
outer loop
vertex -3.36464758633277 -12.5570357417579 0.0
vertex -2.22162940046486 -0.595283803735798 0.0
vertex -1.59204083889156e-015 -13.0 0.0
endloop
endfacet
facet normal 0.0 0.0 -1.0
outer loop
vertex -1.59204083889156e-015 -13.0 0.0
vertex -2.22162940046486 -0.595283803735798 0.0
vertex -1.99185842870421 -1.15 0.0
endloop
endfacet
facet normal 0.0 0.0 -1.0
outer loop
vertex -1.59204083889156e-015 -13.0 0.0
vertex -1.99185842870421 -1.15 0.0
vertex -1.62634559672906 -1.62634559672906 0.0
endloop
endfacet
facet normal 0.0 0.0 -1.0
outer loop
vertex -1.59204083889156e-015 -13.0 0.0
vertex -1.62634559672906 -1.62634559672906 0.0
vertex -1.15 -1.99185842870421 0.0
endloop
endfacet
facet normal 0.0 0.0 -1.0
outer loop
vertex -1.59204083889156e-015 -13.0 0.0
vertex -1.15 -1.99185842870421 0.0
vertex -0.595283803735798 -2.22162940046486 0.0
endloop
endfacet
facet normal 0.0 0.0 -1.0
outer loop
vertex -1.59204083889156e-015 -13.0 0.0
vertex -0.595283803735798 -2.22162940046486 0.0
vertex -5.63337527607782e-016 -2.3 0.0
endloop
endfacet
facet normal 0.0 0.0 -1.0
outer loop
vertex -1.59204083889156e-015 -13.0 0.0
vertex -5.63337527607782e-016 -2.3 0.0
vertex 3.36464758633276 -12.5570357417579 0.0
endloop
endfacet
facet normal 0.0 0.0 -1.0
outer loop
vertex 3.36464758633276 -12.5570357417579 0.0
vertex -5.63337527607782e-016 -2.3 0.0
vertex 0.595283803735796 -2.22162940046486 0.0
endloop
endfacet
facet normal 0.0 0.0 -1.0
outer loop
vertex 3.36464758633276 -12.5570357417579 0.0
vertex 0.595283803735796 -2.22162940046486 0.0
vertex 1.15 -1.99185842870421 0.0
endloop
endfacet
facet normal 0.0 0.0 -1.0
outer loop
vertex 3.36464758633276 -12.5570357417579 0.0
vertex 1.15 -1.99185842870421 0.0
vertex 1.62634559672906 -1.62634559672906 0.0
endloop
endfacet
facet normal 0.0 0.0 -1.0
outer loop
vertex 3.36464758633276 -12.5570357417579 0.0
vertex 1.62634559672906 -1.62634559672906 0.0
vertex 1.99185842870421 -1.15 0.0
endloop
endfacet
facet normal 0.0 0.0 -1.0
outer loop
vertex 3.36464758633276 -12.5570357417579 0.0
vertex 1.99185842870421 -1.15 0.0
vertex 2.22162940046486 -0.595283803735802 0.0
endloop
endfacet
facet normal 0.0 0.0 -1.0
outer loop
vertex 3.36464758633276 -12.5570357417579 0.0
vertex 2.22162940046486 -0.595283803735802 0.0
vertex 2.3 -4.7897926401303e-015 0.0
endloop
endfacet
facet normal -0.0 -0.0 1.0
outer loop
vertex -12.5570357417579 -3.36464758633277 5.0
vertex -12.5570357417579 3.36464758633277 5.0
vertex -13.0 7.96020419445779e-016 5.0
endloop
endfacet
facet normal -0.0 -0.0 1.0
outer loop
vertex -12.5570357417579 3.36464758633277 5.0
vertex -12.5570357417579 -3.36464758633277 5.0
vertex -11.2583302491977 -6.5 5.0
endloop
endfacet
facet normal -0.0 -0.0 1.0
outer loop
vertex -12.5570357417579 3.36464758633277 5.0
vertex -11.2583302491977 -6.5 5.0
vertex -11.2583302491977 6.5 5.0
endloop
endfacet
facet normal -0.0 -0.0 1.0
outer loop
vertex -11.2583302491977 6.5 5.0
vertex -11.2583302491977 -6.5 5.0
vertex -9.19238815542512 -9.19238815542512 5.0
endloop
endfacet
facet normal -0.0 -0.0 1.0
outer loop
vertex -11.2583302491977 6.5 5.0
vertex -9.19238815542512 -9.19238815542512 5.0
vertex -9.19238815542512 9.19238815542512 5.0
endloop
endfacet
facet normal -0.0 -0.0 1.0
outer loop
vertex -9.19238815542512 9.19238815542512 5.0
vertex -9.19238815542512 -9.19238815542512 5.0
vertex -6.5 -11.2583302491977 5.0
endloop
endfacet
facet normal -0.0 -0.0 1.0
outer loop
vertex -9.19238815542512 9.19238815542512 5.0
vertex -6.5 -11.2583302491977 5.0
vertex -6.5 11.2583302491977 5.0
endloop
endfacet
facet normal -0.0 -0.0 1.0
outer loop
vertex -6.5 11.2583302491977 5.0
vertex -6.5 -11.2583302491977 5.0
vertex -3.36464758633277 -12.5570357417579 5.0
endloop
endfacet
facet normal -0.0 -0.0 1.0
outer loop
vertex -6.5 11.2583302491977 5.0
vertex -3.36464758633277 -12.5570357417579 5.0
vertex -3.36464758633277 12.5570357417579 5.0
endloop
endfacet
facet normal -0.0 -0.0 1.0
outer loop
vertex -3.36464758633277 12.5570357417579 5.0
vertex -3.36464758633277 -12.5570357417579 5.0
vertex -1.59204083889156e-015 -13.0 5.0
endloop
endfacet
facet normal -0.0 -0.0 1.0
outer loop
vertex -3.36464758633277 12.5570357417579 5.0
vertex -1.59204083889156e-015 -13.0 5.0
vertex 0.0 13.0 5.0
endloop
endfacet
facet normal -0.0 -0.0 1.0
outer loop
vertex 0.0 13.0 5.0
vertex -1.59204083889156e-015 -13.0 5.0
vertex 3.36464758633276 -12.5570357417579 5.0
endloop
endfacet
facet normal -0.0 -0.0 1.0
outer loop
vertex 0.0 13.0 5.0
vertex 3.36464758633276 -12.5570357417579 5.0
vertex 3.36464758633278 12.5570357417579 5.0
endloop
endfacet
facet normal -0.0 -0.0 1.0
outer loop
vertex 3.36464758633278 12.5570357417579 5.0
vertex 3.36464758633276 -12.5570357417579 5.0
vertex 6.5 -11.2583302491977 5.0
endloop
endfacet
facet normal -0.0 -0.0 1.0
outer loop
vertex 3.36464758633278 12.5570357417579 5.0
vertex 6.5 -11.2583302491977 5.0
vertex 6.50000000000001 11.2583302491977 5.0
endloop
endfacet
facet normal -0.0 -0.0 1.0
outer loop
vertex 6.50000000000001 11.2583302491977 5.0
vertex 6.5 -11.2583302491977 5.0
vertex 9.19238815542511 -9.19238815542512 5.0
endloop
endfacet
facet normal -0.0 -0.0 1.0
outer loop
vertex 6.50000000000001 11.2583302491977 5.0
vertex 9.19238815542511 -9.19238815542512 5.0
vertex 9.19238815542512 9.19238815542511 5.0
endloop
endfacet
facet normal -0.0 -0.0 1.0
outer loop
vertex 9.19238815542512 9.19238815542511 5.0
vertex 9.19238815542511 -9.19238815542512 5.0
vertex 11.2583302491977 -6.5 5.0
endloop
endfacet
facet normal -0.0 -0.0 1.0
outer loop
vertex 9.19238815542512 9.19238815542511 5.0
vertex 11.2583302491977 -6.5 5.0
vertex 11.2583302491977 6.49999999999999 5.0
endloop
endfacet
facet normal -0.0 -0.0 1.0
outer loop
vertex 11.2583302491977 6.49999999999999 5.0
vertex 11.2583302491977 -6.5 5.0
vertex 12.5570357417579 -3.36464758633278 5.0
endloop
endfacet
facet normal -0.0 -0.0 1.0
outer loop
vertex 11.2583302491977 6.49999999999999 5.0
vertex 12.5570357417579 -3.36464758633278 5.0
vertex 12.5570357417579 3.36464758633276 5.0
endloop
endfacet
facet normal -0.0 -0.0 1.0
outer loop
vertex 12.5570357417579 3.36464758633276 5.0
vertex 12.5570357417579 -3.36464758633278 5.0
vertex 13.0 -2.38806125833734e-015 5.0
endloop
endfacet
facet normal -0.707106781186547 0.707106781186548 0.0
outer loop
vertex -9.19238815542512 9.19238815542512 5.0
vertex -11.2583302491977 6.5 0.0
vertex -11.2583302491977 6.5 5.0
endloop
endfacet
facet normal -0.866025403784439 0.5 0.0
outer loop
vertex -11.2583302491977 6.5 0.0
vertex -9.19238815542512 9.19238815542512 5.0
vertex -9.19238815542512 9.19238815542512 0.0
endloop
endfacet
facet normal -0.707106781186547 0.707106781186548 0.0
outer loop
vertex -9.19238815542512 9.19238815542512 5.0
vertex -6.5 11.2583302491977 0.0
vertex -9.19238815542512 9.19238815542512 0.0
endloop
endfacet
facet normal -0.5 0.866025403784439 0.0
outer loop
vertex -6.5 11.2583302491977 0.0
vertex -9.19238815542512 9.19238815542512 5.0
vertex -6.5 11.2583302491977 5.0
endloop
endfacet
facet normal -0.5 0.866025403784439 0.0
outer loop
vertex -6.5 11.2583302491977 5.0
vertex -3.36464758633277 12.5570357417579 0.0
vertex -6.5 11.2583302491977 0.0
endloop
endfacet
facet normal -0.258819045102521 0.965925826289068 0.0
outer loop
vertex -3.36464758633277 12.5570357417579 0.0
vertex -6.5 11.2583302491977 5.0
vertex -3.36464758633277 12.5570357417579 5.0
endloop
endfacet
facet normal -0.258819045102521 0.965925826289068 0.0
outer loop
vertex -3.36464758633277 12.5570357417579 5.0
vertex 0.0 13.0 0.0
vertex -3.36464758633277 12.5570357417579 0.0
endloop
endfacet
facet normal 2.13866637495526e-016 1.0 0.0
outer loop
vertex 0.0 13.0 0.0
vertex -3.36464758633277 12.5570357417579 5.0
vertex 0.0 13.0 5.0
endloop
endfacet
facet normal 2.13866637495526e-016 1.0 0.0
outer loop
vertex 0.0 13.0 5.0
vertex 3.36464758633278 12.5570357417579 0.0
vertex 0.0 13.0 0.0
endloop
endfacet
facet normal 0.258819045102521 0.965925826289068 0.0
outer loop
vertex 3.36464758633278 12.5570357417579 0.0
vertex 0.0 13.0 5.0
vertex 3.36464758633278 12.5570357417579 5.0
endloop
endfacet
facet normal 0.258819045102521 0.965925826289068 0.0
outer loop
vertex 3.36464758633278 12.5570357417579 5.0
vertex 6.50000000000001 11.2583302491977 0.0
vertex 3.36464758633278 12.5570357417579 0.0
endloop
endfacet
facet normal 0.5 0.866025403784438 0.0
outer loop
vertex 6.50000000000001 11.2583302491977 0.0
vertex 3.36464758633278 12.5570357417579 5.0
vertex 6.50000000000001 11.2583302491977 5.0
endloop
endfacet
facet normal 0.5 0.866025403784438 0.0
outer loop
vertex 6.50000000000001 11.2583302491977 5.0
vertex 9.19238815542512 9.19238815542511 0.0
vertex 6.50000000000001 11.2583302491977 0.0
endloop
endfacet
facet normal 0.707106781186548 0.707106781186547 0.0
outer loop
vertex 9.19238815542512 9.19238815542511 0.0
vertex 6.50000000000001 11.2583302491977 5.0
vertex 9.19238815542512 9.19238815542511 5.0
endloop
endfacet
facet normal 0.707106781186548 0.707106781186547 0.0
outer loop
vertex 9.19238815542512 9.19238815542511 0.0
vertex 11.2583302491977 6.49999999999999 5.0
vertex 11.2583302491977 6.49999999999999 0.0
endloop
endfacet
facet normal 0.866025403784439 0.5 0.0
outer loop
vertex 11.2583302491977 6.49999999999999 5.0
vertex 9.19238815542512 9.19238815542511 0.0
vertex 9.19238815542512 9.19238815542511 5.0
endloop
endfacet
facet normal 0.866025403784439 0.5 0.0
outer loop
vertex 11.2583302491977 6.49999999999999 0.0
vertex 12.5570357417579 3.36464758633276 5.0
vertex 12.5570357417579 3.36464758633276 0.0
endloop
endfacet
facet normal 0.965925826289068 0.25881904510252 0.0
outer loop
vertex 12.5570357417579 3.36464758633276 5.0
vertex 11.2583302491977 6.49999999999999 0.0
vertex 11.2583302491977 6.49999999999999 5.0
endloop
endfacet
facet normal 0.965925826289068 0.25881904510252 0.0
outer loop
vertex 12.5570357417579 3.36464758633276 0.0
vertex 13.0 -2.38806125833734e-015 5.0
vertex 13.0 -2.38806125833734e-015 0.0
endloop
endfacet
facet normal 1.0 -4.00999945304111e-016 0.0
outer loop
vertex 13.0 -2.38806125833734e-015 5.0
vertex 12.5570357417579 3.36464758633276 0.0
vertex 12.5570357417579 3.36464758633276 5.0
endloop
endfacet
facet normal 1.0 -4.00999945304111e-016 0.0
outer loop
vertex 13.0 -2.38806125833734e-015 0.0
vertex 12.5570357417579 -3.36464758633278 5.0
vertex 12.5570357417579 -3.36464758633278 0.0
endloop
endfacet
facet normal 0.965925826289068 -0.258819045102521 0.0
outer loop
vertex 12.5570357417579 -3.36464758633278 5.0
vertex 13.0 -2.38806125833734e-015 0.0
vertex 13.0 -2.38806125833734e-015 5.0
endloop
endfacet
facet normal 0.965925826289068 -0.258819045102521 0.0
outer loop
vertex 12.5570357417579 -3.36464758633278 0.0
vertex 11.2583302491977 -6.5 5.0
vertex 11.2583302491977 -6.5 0.0
endloop
endfacet
facet normal 0.866025403784438 -0.500000000000001 0.0
outer loop
vertex 11.2583302491977 -6.5 5.0
vertex 12.5570357417579 -3.36464758633278 0.0
vertex 12.5570357417579 -3.36464758633278 5.0
endloop
endfacet
facet normal 0.866025403784438 -0.500000000000001 0.0
outer loop
vertex 11.2583302491977 -6.5 0.0
vertex 9.19238815542511 -9.19238815542512 5.0
vertex 9.19238815542511 -9.19238815542512 0.0
endloop
endfacet
facet normal 0.707106781186547 -0.707106781186548 0.0
outer loop
vertex 9.19238815542511 -9.19238815542512 5.0
vertex 11.2583302491977 -6.5 0.0
vertex 11.2583302491977 -6.5 5.0
endloop
endfacet
facet normal 0.707106781186547 -0.707106781186548 0.0
outer loop
vertex 9.19238815542511 -9.19238815542512 5.0
vertex 6.5 -11.2583302491977 0.0
vertex 9.19238815542511 -9.19238815542512 0.0
endloop
endfacet
facet normal 0.5 -0.866025403784439 0.0
outer loop
vertex 6.5 -11.2583302491977 0.0
vertex 9.19238815542511 -9.19238815542512 5.0
vertex 6.5 -11.2583302491977 5.0
endloop
endfacet
facet normal 0.5 -0.866025403784439 0.0
outer loop
vertex 6.5 -11.2583302491977 5.0
vertex 3.36464758633276 -12.5570357417579 0.0
vertex 6.5 -11.2583302491977 0.0
endloop
endfacet
facet normal 0.25881904510252 -0.965925826289069 0.0
outer loop
vertex 3.36464758633276 -12.5570357417579 0.0
vertex 6.5 -11.2583302491977 5.0
vertex 3.36464758633276 -12.5570357417579 5.0
endloop
endfacet
facet normal 0.25881904510252 -0.965925826289069 0.0
outer loop
vertex 3.36464758633276 -12.5570357417579 5.0
vertex -1.59204083889156e-015 -13.0 0.0
vertex 3.36464758633276 -12.5570357417579 0.0
endloop
endfacet
facet normal -3.11888846347642e-016 -1.0 0.0
outer loop
vertex -1.59204083889156e-015 -13.0 0.0
vertex 3.36464758633276 -12.5570357417579 5.0
vertex -1.59204083889156e-015 -13.0 5.0
endloop
endfacet
facet normal -3.11888846347642e-016 -1.0 0.0
outer loop
vertex -1.59204083889156e-015 -13.0 5.0
vertex -3.36464758633277 -12.5570357417579 0.0
vertex -1.59204083889156e-015 -13.0 0.0
endloop
endfacet
facet normal -0.258819045102521 -0.965925826289068 0.0
outer loop
vertex -3.36464758633277 -12.5570357417579 0.0
vertex -1.59204083889156e-015 -13.0 5.0
vertex -3.36464758633277 -12.5570357417579 5.0
endloop
endfacet
facet normal -0.258819045102521 -0.965925826289068 0.0
outer loop
vertex -3.36464758633277 -12.5570357417579 5.0
vertex -6.5 -11.2583302491977 0.0
vertex -3.36464758633277 -12.5570357417579 0.0
endloop
endfacet
facet normal -0.5 -0.866025403784439 0.0
outer loop
vertex -6.5 -11.2583302491977 0.0
vertex -3.36464758633277 -12.5570357417579 5.0
vertex -6.5 -11.2583302491977 5.0
endloop
endfacet
facet normal -0.5 -0.866025403784439 0.0
outer loop
vertex -6.5 -11.2583302491977 5.0
vertex -9.19238815542512 -9.19238815542512 0.0
vertex -6.5 -11.2583302491977 0.0
endloop
endfacet
facet normal -0.707106781186548 -0.707106781186547 0.0
outer loop
vertex -9.19238815542512 -9.19238815542512 0.0
vertex -6.5 -11.2583302491977 5.0
vertex -9.19238815542512 -9.19238815542512 5.0
endloop
endfacet
facet normal -0.866025403784439 -0.5 0.0
outer loop
vertex -11.2583302491977 -6.5 5.0
vertex -9.19238815542512 -9.19238815542512 0.0
vertex -9.19238815542512 -9.19238815542512 5.0
endloop
endfacet
facet normal -0.707106781186548 -0.707106781186547 0.0
outer loop
vertex -9.19238815542512 -9.19238815542512 0.0
vertex -11.2583302491977 -6.5 5.0
vertex -11.2583302491977 -6.5 0.0
endloop
endfacet
facet normal -0.965925826289068 -0.258819045102521 0.0
outer loop
vertex -12.5570357417579 -3.36464758633277 5.0
vertex -11.2583302491977 -6.5 0.0
vertex -11.2583302491977 -6.5 5.0
endloop
endfacet
facet normal -0.866025403784439 -0.5 0.0
outer loop
vertex -11.2583302491977 -6.5 0.0
vertex -12.5570357417579 -3.36464758633277 5.0
vertex -12.5570357417579 -3.36464758633277 0.0
endloop
endfacet
facet normal -1.0 1.51488868225997e-016 0.0
outer loop
vertex -13.0 7.96020419445779e-016 5.0
vertex -12.5570357417579 -3.36464758633277 0.0
vertex -12.5570357417579 -3.36464758633277 5.0
endloop
endfacet
facet normal -0.965925826289068 -0.258819045102521 0.0
outer loop
vertex -12.5570357417579 -3.36464758633277 0.0
vertex -13.0 7.96020419445779e-016 5.0
vertex -13.0 7.96020419445779e-016 0.0
endloop
endfacet
facet normal -0.965925826289068 0.258819045102521 0.0
outer loop
vertex -12.5570357417579 3.36464758633277 5.0
vertex -13.0 7.96020419445779e-016 0.0
vertex -13.0 7.96020419445779e-016 5.0
endloop
endfacet
facet normal -1.0 1.51488868225997e-016 0.0
outer loop
vertex -13.0 7.96020419445779e-016 0.0
vertex -12.5570357417579 3.36464758633277 5.0
vertex -12.5570357417579 3.36464758633277 0.0
endloop
endfacet
facet normal -0.866025403784439 0.5 0.0
outer loop
vertex -11.2583302491977 6.5 5.0
vertex -12.5570357417579 3.36464758633277 0.0
vertex -12.5570357417579 3.36464758633277 5.0
endloop
endfacet
facet normal -0.965925826289068 0.258819045102521 0.0
outer loop
vertex -12.5570357417579 3.36464758633277 0.0
vertex -11.2583302491977 6.5 5.0
vertex -11.2583302491977 6.5 0.0
endloop
endfacet
facet normal -5.08913941965069e-032 7.63370912947604e-032 -1.0
outer loop
vertex -2.22162940046486 0.595283803735797 3.0
vertex -2.22162940046486 -0.595283803735798 3.0
vertex -2.3 -5.98902036949307e-016 3.0
endloop
endfacet
facet normal -5.08913941965069e-032 7.63370912947604e-032 -1.0
outer loop
vertex -2.22162940046486 -0.595283803735798 3.0
vertex -2.22162940046486 0.595283803735797 3.0
vertex -1.99185842870421 1.15 3.0
endloop
endfacet
facet normal -5.08913941965069e-032 7.63370912947604e-032 -1.0
outer loop
vertex -2.22162940046486 -0.595283803735798 3.0
vertex -1.99185842870421 1.15 3.0
vertex -1.99185842870421 -1.15 3.0
endloop
endfacet
facet normal -5.08913941965069e-032 7.63370912947604e-032 -1.0
outer loop
vertex -1.99185842870421 -1.15 3.0
vertex -1.99185842870421 1.15 3.0
vertex -1.62634559672906 1.62634559672906 3.0
endloop
endfacet
facet normal -5.08913941965069e-032 7.63370912947604e-032 -1.0
outer loop
vertex -1.99185842870421 -1.15 3.0
vertex -1.62634559672906 1.62634559672906 3.0
vertex -1.62634559672906 -1.62634559672906 3.0
endloop
endfacet
facet normal -5.08913941965069e-032 7.63370912947604e-032 -1.0
outer loop
vertex -1.62634559672906 -1.62634559672906 3.0
vertex -1.62634559672906 1.62634559672906 3.0
vertex -1.15 1.99185842870421 3.0
endloop
endfacet
facet normal -5.08913941965069e-032 7.63370912947604e-032 -1.0
outer loop
vertex -1.62634559672906 -1.62634559672906 3.0
vertex -1.15 1.99185842870421 3.0
vertex -1.15 -1.99185842870421 3.0
endloop
endfacet
facet normal -5.08913941965069e-032 7.63370912947604e-032 -1.0
outer loop
vertex -1.15 -1.99185842870421 3.0
vertex -1.15 1.99185842870421 3.0
vertex -0.595283803735797 2.22162940046486 3.0
endloop
endfacet
facet normal -5.08913941965069e-032 7.63370912947604e-032 -1.0
outer loop
vertex -1.15 -1.99185842870421 3.0
vertex -0.595283803735797 2.22162940046486 3.0
vertex -0.595283803735798 -2.22162940046486 3.0
endloop
endfacet
facet normal -5.08913941965069e-032 7.63370912947604e-032 -1.0
outer loop
vertex -0.595283803735798 -2.22162940046486 3.0
vertex -0.595283803735797 2.22162940046486 3.0
vertex -5.63337527607782e-016 -2.3 3.0
endloop
endfacet
facet normal -5.08913941965069e-032 7.63370912947604e-032 -1.0
outer loop
vertex -5.63337527607782e-016 -2.3 3.0
vertex -0.595283803735797 2.22162940046486 3.0
vertex 7.92371355131463e-016 2.3 3.0
endloop
endfacet
facet normal -5.08913941965069e-032 7.63370912947604e-032 -1.0
outer loop
vertex -5.63337527607782e-016 -2.3 3.0
vertex 7.92371355131463e-016 2.3 3.0
vertex 0.595283803735796 -2.22162940046486 3.0
endloop
endfacet
facet normal -5.08913941965069e-032 7.63370912947604e-032 -1.0
outer loop
vertex 0.595283803735796 -2.22162940046486 3.0
vertex 7.92371355131463e-016 2.3 3.0
vertex 0.595283803735798 2.22162940046486 3.0
endloop
endfacet
facet normal -5.08913941965069e-032 7.63370912947604e-032 -1.0
outer loop
vertex 0.595283803735796 -2.22162940046486 3.0
vertex 0.595283803735798 2.22162940046486 3.0
vertex 1.15 -1.99185842870421 3.0
endloop
endfacet
facet normal -5.08913941965069e-032 7.63370912947604e-032 -1.0
outer loop
vertex 1.15 -1.99185842870421 3.0
vertex 0.595283803735798 2.22162940046486 3.0
vertex 1.15 1.99185842870421 3.0
endloop
endfacet
facet normal -5.08913941965069e-032 7.63370912947604e-032 -1.0
outer loop
vertex 1.15 -1.99185842870421 3.0
vertex 1.15 1.99185842870421 3.0
vertex 1.62634559672906 -1.62634559672906 3.0
endloop
endfacet
facet normal -5.08913941965069e-032 7.63370912947604e-032 -1.0
outer loop
vertex 1.62634559672906 -1.62634559672906 3.0
vertex 1.15 1.99185842870421 3.0
vertex 1.62634559672906 1.62634559672906 3.0
endloop
endfacet
facet normal -5.08913941965069e-032 7.63370912947604e-032 -1.0
outer loop
vertex 1.62634559672906 -1.62634559672906 3.0
vertex 1.62634559672906 1.62634559672906 3.0
vertex 1.99185842870421 -1.15 3.0
endloop
endfacet
facet normal -5.08913941965069e-032 7.63370912947604e-032 -1.0
outer loop
vertex 1.99185842870421 -1.15 3.0
vertex 1.62634559672906 1.62634559672906 3.0
vertex 1.99185842870421 1.15 3.0
endloop
endfacet
facet normal -5.08913941965069e-032 7.63370912947604e-032 -1.0
outer loop
vertex 1.99185842870421 -1.15 3.0
vertex 1.99185842870421 1.15 3.0
vertex 2.22162940046486 -0.595283803735802 3.0
endloop
endfacet
facet normal -5.08913941965069e-032 7.63370912947604e-032 -1.0
outer loop
vertex 2.22162940046486 -0.595283803735802 3.0
vertex 1.99185842870421 1.15 3.0
vertex 2.22162940046486 0.595283803735797 3.0
endloop
endfacet
facet normal -5.08913941965069e-032 7.63370912947604e-032 -1.0
outer loop
vertex 2.22162940046486 -0.595283803735802 3.0
vertex 2.22162940046486 0.595283803735797 3.0
vertex 2.3 -4.7897926401303e-015 3.0
endloop
endfacet
facet normal -0.965925826289068 -0.25881904510252 0.0
outer loop
vertex 2.22162940046486 0.595283803735797 3.0
vertex 2.3 -4.7897926401303e-015 0.0
vertex 2.3 -4.7897926401303e-015 3.0
endloop
endfacet
facet normal -1.0 1.47924424267739e-015 0.0
outer loop
vertex 2.3 -4.7897926401303e-015 0.0
vertex 2.22162940046486 0.595283803735797 3.0
vertex 2.22162940046486 0.595283803735797 0.0
endloop
endfacet
facet normal -1.0 1.47924424267739e-015 0.0
outer loop
vertex 2.3 -4.7897926401303e-015 3.0
vertex 2.22162940046486 -0.595283803735802 0.0
vertex 2.22162940046486 -0.595283803735802 3.0
endloop
endfacet
facet normal -0.965925826289068 0.258819045102522 0.0
outer loop
vertex 2.22162940046486 -0.595283803735802 0.0
vertex 2.3 -4.7897926401303e-015 3.0
vertex 2.3 -4.7897926401303e-015 0.0
endloop
endfacet
facet normal -0.965925826289068 0.258819045102522 0.0
outer loop
vertex 2.22162940046486 -0.595283803735802 3.0
vertex 1.99185842870421 -1.15 0.0
vertex 1.99185842870421 -1.15 3.0
endloop
endfacet
facet normal -0.866025403784438 0.500000000000001 0.0
outer loop
vertex 1.99185842870421 -1.15 0.0
vertex 2.22162940046486 -0.595283803735802 3.0
vertex 2.22162940046486 -0.595283803735802 0.0
endloop
endfacet
facet normal -0.866025403784438 0.500000000000001 0.0
outer loop
vertex 1.99185842870421 -1.15 3.0
vertex 1.62634559672906 -1.62634559672906 0.0
vertex 1.62634559672906 -1.62634559672906 3.0
endloop
endfacet
facet normal -0.707106781186547 0.707106781186548 0.0
outer loop
vertex 1.62634559672906 -1.62634559672906 0.0
vertex 1.99185842870421 -1.15 3.0
vertex 1.99185842870421 -1.15 0.0
endloop
endfacet
facet normal -0.499999999999999 0.866025403784439 0.0
outer loop
vertex 1.15 -1.99185842870421 3.0
vertex 1.62634559672906 -1.62634559672906 0.0
vertex 1.15 -1.99185842870421 0.0
endloop
endfacet
facet normal -0.707106781186547 0.707106781186548 0.0
outer loop
vertex 1.62634559672906 -1.62634559672906 0.0
vertex 1.15 -1.99185842870421 3.0
vertex 1.62634559672906 -1.62634559672906 3.0
endloop
endfacet
facet normal -0.25881904510252 0.965925826289068 0.0
outer loop
vertex 0.595283803735796 -2.22162940046486 3.0
vertex 1.15 -1.99185842870421 0.0
vertex 0.595283803735796 -2.22162940046486 0.0
endloop
endfacet
facet normal -0.499999999999999 0.866025403784439 0.0
outer loop
vertex 1.15 -1.99185842870421 0.0
vertex 0.595283803735796 -2.22162940046486 3.0
vertex 1.15 -1.99185842870421 3.0
endloop
endfacet
facet normal 2.94066626556348e-016 1.0 0.0
outer loop
vertex -5.63337527607782e-016 -2.3 3.0
vertex 0.595283803735796 -2.22162940046486 0.0
vertex -5.63337527607782e-016 -2.3 0.0
endloop
endfacet
facet normal -0.25881904510252 0.965925826289068 0.0
outer loop
vertex 0.595283803735796 -2.22162940046486 0.0
vertex -5.63337527607782e-016 -2.3 3.0
vertex 0.595283803735796 -2.22162940046486 3.0
endloop
endfacet
facet normal 0.258819045102521 0.965925826289068 0.0
outer loop
vertex -0.595283803735798 -2.22162940046486 3.0
vertex -5.63337527607782e-016 -2.3 0.0
vertex -0.595283803735798 -2.22162940046486 0.0
endloop
endfacet
facet normal 2.94066626556348e-016 1.0 0.0
outer loop
vertex -5.63337527607782e-016 -2.3 0.0
vertex -0.595283803735798 -2.22162940046486 3.0
vertex -5.63337527607782e-016 -2.3 3.0
endloop
endfacet
facet normal 0.5 0.866025403784439 0.0
outer loop
vertex -1.15 -1.99185842870421 3.0
vertex -0.595283803735798 -2.22162940046486 0.0
vertex -1.15 -1.99185842870421 0.0
endloop
endfacet
facet normal 0.258819045102521 0.965925826289068 0.0
outer loop
vertex -0.595283803735798 -2.22162940046486 0.0
vertex -1.15 -1.99185842870421 3.0
vertex -0.595283803735798 -2.22162940046486 3.0
endloop
endfacet
facet normal 0.707106781186547 0.707106781186548 0.0
outer loop
vertex -1.62634559672906 -1.62634559672906 3.0
vertex -1.15 -1.99185842870421 0.0
vertex -1.62634559672906 -1.62634559672906 0.0
endloop
endfacet
facet normal 0.5 0.866025403784439 0.0
outer loop
vertex -1.15 -1.99185842870421 0.0
vertex -1.62634559672906 -1.62634559672906 3.0
vertex -1.15 -1.99185842870421 3.0
endloop
endfacet
facet normal 0.866025403784438 0.5 0.0
outer loop
vertex -1.99185842870421 -1.15 0.0
vertex -1.62634559672906 -1.62634559672906 3.0
vertex -1.62634559672906 -1.62634559672906 0.0
endloop
endfacet
facet normal 0.707106781186547 0.707106781186548 0.0
outer loop
vertex -1.62634559672906 -1.62634559672906 3.0
vertex -1.99185842870421 -1.15 0.0
vertex -1.99185842870421 -1.15 3.0
endloop
endfacet
facet normal 0.965925826289068 0.258819045102521 0.0
outer loop
vertex -2.22162940046486 -0.595283803735798 0.0
vertex -1.99185842870421 -1.15 3.0
vertex -1.99185842870421 -1.15 0.0
endloop
endfacet
facet normal 0.866025403784438 0.5 0.0
outer loop
vertex -1.99185842870421 -1.15 3.0
vertex -2.22162940046486 -0.595283803735798 0.0
vertex -2.22162940046486 -0.595283803735798 3.0
endloop
endfacet
facet normal 1.0 2.94066626556348e-016 0.0
outer loop
vertex -2.3 -5.98902036949307e-016 0.0
vertex -2.22162940046486 -0.595283803735798 3.0
vertex -2.22162940046486 -0.595283803735798 0.0
endloop
endfacet
facet normal 0.965925826289068 0.258819045102521 0.0
outer loop
vertex -2.22162940046486 -0.595283803735798 3.0
vertex -2.3 -5.98902036949307e-016 0.0
vertex -2.3 -5.98902036949307e-016 3.0
endloop
endfacet
facet normal 0.965925826289068 -0.25881904510252 0.0
outer loop
vertex -2.22162940046486 0.595283803735797 0.0
vertex -2.3 -5.98902036949307e-016 3.0
vertex -2.3 -5.98902036949307e-016 0.0
endloop
endfacet
facet normal 1.0 2.94066626556348e-016 0.0
outer loop
vertex -2.3 -5.98902036949307e-016 3.0
vertex -2.22162940046486 0.595283803735797 0.0
vertex -2.22162940046486 0.595283803735797 3.0
endloop
endfacet
facet normal 0.866025403784439 -0.5 0.0
outer loop
vertex -1.99185842870421 1.15 0.0
vertex -2.22162940046486 0.595283803735797 3.0
vertex -2.22162940046486 0.595283803735797 0.0
endloop
endfacet
facet normal 0.965925826289068 -0.25881904510252 0.0
outer loop
vertex -2.22162940046486 0.595283803735797 3.0
vertex -1.99185842870421 1.15 0.0
vertex -1.99185842870421 1.15 3.0
endloop
endfacet
facet normal 0.707106781186547 -0.707106781186548 0.0
outer loop
vertex -1.62634559672906 1.62634559672906 0.0
vertex -1.99185842870421 1.15 3.0
vertex -1.99185842870421 1.15 0.0
endloop
endfacet
facet normal 0.866025403784439 -0.5 0.0
outer loop
vertex -1.99185842870421 1.15 3.0
vertex -1.62634559672906 1.62634559672906 0.0
vertex -1.62634559672906 1.62634559672906 3.0
endloop
endfacet
facet normal 0.5 -0.866025403784439 0.0
outer loop
vertex -1.15 1.99185842870421 3.0
vertex -1.62634559672906 1.62634559672906 0.0
vertex -1.15 1.99185842870421 0.0
endloop
endfacet
facet normal 0.707106781186547 -0.707106781186548 0.0
outer loop
vertex -1.62634559672906 1.62634559672906 0.0
vertex -1.15 1.99185842870421 3.0
vertex -1.62634559672906 1.62634559672906 3.0
endloop
endfacet
facet normal 0.25881904510252 -0.965925826289068 0.0
outer loop
vertex -0.595283803735797 2.22162940046486 3.0
vertex -1.15 1.99185842870421 0.0
vertex -0.595283803735797 2.22162940046486 0.0
endloop
endfacet
facet normal 0.5 -0.866025403784439 0.0
outer loop
vertex -1.15 1.99185842870421 0.0
vertex -0.595283803735797 2.22162940046486 3.0
vertex -1.15 1.99185842870421 3.0
endloop
endfacet
facet normal -5.61399923425755e-016 -1.0 0.0
outer loop
vertex 7.92371355131463e-016 2.3 3.0
vertex -0.595283803735797 2.22162940046486 0.0
vertex 7.92371355131463e-016 2.3 0.0
endloop
endfacet
facet normal 0.25881904510252 -0.965925826289068 0.0
outer loop
vertex -0.595283803735797 2.22162940046486 0.0
vertex 7.92371355131463e-016 2.3 3.0
vertex -0.595283803735797 2.22162940046486 3.0
endloop
endfacet
facet normal -0.258819045102521 -0.965925826289068 0.0
outer loop
vertex 0.595283803735798 2.22162940046486 3.0
vertex 7.92371355131463e-016 2.3 0.0
vertex 0.595283803735798 2.22162940046486 0.0
endloop
endfacet
facet normal -5.61399923425755e-016 -1.0 0.0
outer loop
vertex 7.92371355131463e-016 2.3 0.0
vertex 0.595283803735798 2.22162940046486 3.0
vertex 7.92371355131463e-016 2.3 3.0
endloop
endfacet
facet normal -0.5 -0.866025403784438 0.0
outer loop
vertex 1.15 1.99185842870421 3.0
vertex 0.595283803735798 2.22162940046486 0.0
vertex 1.15 1.99185842870421 0.0
endloop
endfacet
facet normal -0.258819045102521 -0.965925826289068 0.0
outer loop
vertex 0.595283803735798 2.22162940046486 0.0
vertex 1.15 1.99185842870421 3.0
vertex 0.595283803735798 2.22162940046486 3.0
endloop
endfacet
facet normal -0.707106781186548 -0.707106781186547 0.0
outer loop
vertex 1.62634559672906 1.62634559672906 3.0
vertex 1.15 1.99185842870421 0.0
vertex 1.62634559672906 1.62634559672906 0.0
endloop
endfacet
facet normal -0.5 -0.866025403784438 0.0
outer loop
vertex 1.15 1.99185842870421 0.0
vertex 1.62634559672906 1.62634559672906 3.0
vertex 1.15 1.99185842870421 3.0
endloop
endfacet
facet normal -0.707106781186548 -0.707106781186547 0.0
outer loop
vertex 1.62634559672906 1.62634559672906 3.0
vertex 1.99185842870421 1.15 0.0
vertex 1.99185842870421 1.15 3.0
endloop
endfacet
facet normal -0.866025403784439 -0.5 0.0
outer loop
vertex 1.99185842870421 1.15 0.0
vertex 1.62634559672906 1.62634559672906 3.0
vertex 1.62634559672906 1.62634559672906 0.0
endloop
endfacet
facet normal -0.866025403784439 -0.5 0.0
outer loop
vertex 1.99185842870421 1.15 3.0
vertex 2.22162940046486 0.595283803735797 0.0
vertex 2.22162940046486 0.595283803735797 3.0
endloop
endfacet
facet normal -0.965925826289068 -0.25881904510252 0.0
outer loop
vertex 2.22162940046486 0.595283803735797 0.0
vertex 1.99185842870421 1.15 3.0
vertex 1.99185842870421 1.15 0.0
endloop
endfacet
endsolid foot
