solid middle-gear-holder-spacer
facet normal -0.0 -0.0 1.0
outer loop
vertex -3.47733297464065 -0.931748562369073 0.0
vertex -3.47733297464065 0.931748562369076 0.0
vertex -3.6 4.40872847693047e-016 0.0
endloop
endfacet
facet normal -0.0 -0.0 1.0
outer loop
vertex -3.47733297464065 0.931748562369076 0.0
vertex -3.47733297464065 -0.931748562369073 0.0
vertex -3.11769145362398 -1.8 0.0
endloop
endfacet
facet normal -0.0 -0.0 1.0
outer loop
vertex -3.47733297464065 0.931748562369076 0.0
vertex -3.11769145362398 -1.8 0.0
vertex -3.11769145362398 1.8 0.0
endloop
endfacet
facet normal -0.0 -0.0 1.0
outer loop
vertex -3.11769145362398 1.8 0.0
vertex -3.11769145362398 -1.8 0.0
vertex -2.54558441227157 -2.54558441227157 0.0
endloop
endfacet
facet normal -0.0 -0.0 1.0
outer loop
vertex -3.11769145362398 1.8 0.0
vertex -2.54558441227157 -2.54558441227157 0.0
vertex -2.6 3.18408167778312e-016 0.0
endloop
endfacet
facet normal -0.0 -0.0 1.0
outer loop
vertex -2.6 3.18408167778312e-016 0.0
vertex -2.54558441227157 -2.54558441227157 0.0
vertex -2.51140714835158 -0.672929517266553 0.0
endloop
endfacet
facet normal -0.0 -0.0 1.0
outer loop
vertex -2.51140714835158 -0.672929517266553 0.0
vertex -2.54558441227157 -2.54558441227157 0.0
vertex -1.8 -3.11769145362398 0.0
endloop
endfacet
facet normal -0.0 -0.0 1.0
outer loop
vertex -2.51140714835158 -0.672929517266553 0.0
vertex -1.8 -3.11769145362398 0.0
vertex -2.25166604983954 -1.3 0.0
endloop
endfacet
facet normal -0.0 -0.0 1.0
outer loop
vertex -2.25166604983954 -1.3 0.0
vertex -1.8 -3.11769145362398 0.0
vertex -1.83847763108502 -1.83847763108502 0.0
endloop
endfacet
facet normal -0.0 -0.0 1.0
outer loop
vertex -1.83847763108502 -1.83847763108502 0.0
vertex -1.8 -3.11769145362398 0.0
vertex -1.3 -2.25166604983954 0.0
endloop
endfacet
facet normal -0.0 -0.0 1.0
outer loop
vertex -1.3 -2.25166604983954 0.0
vertex -1.8 -3.11769145362398 0.0
vertex -0.931748562369077 -3.47733297464065 0.0
endloop
endfacet
facet normal -0.0 -0.0 1.0
outer loop
vertex -1.3 -2.25166604983954 0.0
vertex -0.931748562369077 -3.47733297464065 0.0
vertex -0.672929517266556 -2.51140714835158 0.0
endloop
endfacet
facet normal -0.0 -0.0 1.0
outer loop
vertex -0.672929517266556 -2.51140714835158 0.0
vertex -0.931748562369077 -3.47733297464065 0.0
vertex -6.61309271539571e-016 -3.6 0.0
endloop
endfacet
facet normal -0.0 -0.0 1.0
outer loop
vertex -0.672929517266556 -2.51140714835158 0.0
vertex -6.61309271539571e-016 -3.6 0.0
vertex -4.77612251667468e-016 -2.6 0.0
endloop
endfacet
facet normal -0.0 -0.0 1.0
outer loop
vertex -4.77612251667468e-016 -2.6 0.0
vertex -6.61309271539571e-016 -3.6 0.0
vertex 0.931748562369073 -3.47733297464065 0.0
endloop
endfacet
facet normal -0.0 -0.0 1.0
outer loop
vertex -4.77612251667468e-016 -2.6 0.0
vertex 0.931748562369073 -3.47733297464065 0.0
vertex 0.672929517266553 -2.51140714835158 0.0
endloop
endfacet
facet normal -0.0 -0.0 1.0
outer loop
vertex 0.672929517266553 -2.51140714835158 0.0
vertex 0.931748562369073 -3.47733297464065 0.0
vertex 1.3 -2.25166604983954 0.0
endloop
endfacet
facet normal -0.0 -0.0 1.0
outer loop
vertex 1.3 -2.25166604983954 0.0
vertex 0.931748562369073 -3.47733297464065 0.0
vertex 1.8 -3.11769145362398 0.0
endloop
endfacet
facet normal -0.0 -0.0 1.0
outer loop
vertex 1.3 -2.25166604983954 0.0
vertex 1.8 -3.11769145362398 0.0
vertex 1.83847763108502 -1.83847763108502 0.0
endloop
endfacet
facet normal -0.0 -0.0 1.0
outer loop
vertex 1.83847763108502 -1.83847763108502 0.0
vertex 1.8 -3.11769145362398 0.0
vertex 2.54558441227157 -2.54558441227157 0.0
endloop
endfacet
facet normal -0.0 -0.0 1.0
outer loop
vertex 1.83847763108502 -1.83847763108502 0.0
vertex 2.54558441227157 -2.54558441227157 0.0
vertex 2.25166604983954 -1.3 0.0
endloop
endfacet
facet normal -0.0 -0.0 1.0
outer loop
vertex 2.25166604983954 -1.3 0.0
vertex 2.54558441227157 -2.54558441227157 0.0
vertex 2.51140714835158 -0.672929517266556 0.0
endloop
endfacet
facet normal -0.0 -0.0 1.0
outer loop
vertex 2.51140714835158 -0.672929517266556 0.0
vertex 2.54558441227157 -2.54558441227157 0.0
vertex 2.6 0.0 0.0
endloop
endfacet
facet normal -0.0 -0.0 1.0
outer loop
vertex 2.6 0.0 0.0
vertex 2.54558441227157 -2.54558441227157 0.0
vertex 3.11769145362398 -1.8 0.0
endloop
endfacet
facet normal -0.0 -0.0 1.0
outer loop
vertex -2.6 3.18408167778312e-016 0.0
vertex -2.54558441227157 2.54558441227157 0.0
vertex -3.11769145362398 1.8 0.0
endloop
endfacet
facet normal -0.0 -0.0 1.0
outer loop
vertex -2.54558441227157 2.54558441227157 0.0
vertex -2.6 3.18408167778312e-016 0.0
vertex -2.51140714835158 0.672929517266555 0.0
endloop
endfacet
facet normal -0.0 -0.0 1.0
outer loop
vertex -2.54558441227157 2.54558441227157 0.0
vertex -2.51140714835158 0.672929517266555 0.0
vertex -1.8 3.11769145362398 0.0
endloop
endfacet
facet normal -0.0 -0.0 1.0
outer loop
vertex -1.8 3.11769145362398 0.0
vertex -2.51140714835158 0.672929517266555 0.0
vertex -2.25166604983954 1.3 0.0
endloop
endfacet
facet normal -0.0 -0.0 1.0
outer loop
vertex -1.8 3.11769145362398 0.0
vertex -2.25166604983954 1.3 0.0
vertex -1.83847763108502 1.83847763108502 0.0
endloop
endfacet
facet normal -0.0 -0.0 1.0
outer loop
vertex -1.8 3.11769145362398 0.0
vertex -1.83847763108502 1.83847763108502 0.0
vertex -1.3 2.25166604983954 0.0
endloop
endfacet
facet normal -0.0 -0.0 1.0
outer loop
vertex -1.8 3.11769145362398 0.0
vertex -1.3 2.25166604983954 0.0
vertex -0.931748562369074 3.47733297464065 0.0
endloop
endfacet
facet normal -0.0 -0.0 1.0
outer loop
vertex -0.931748562369074 3.47733297464065 0.0
vertex -1.3 2.25166604983954 0.0
vertex -0.672929517266554 2.51140714835158 0.0
endloop
endfacet
facet normal -0.0 -0.0 1.0
outer loop
vertex -0.931748562369074 3.47733297464065 0.0
vertex -0.672929517266554 2.51140714835158 0.0
vertex 2.20436423846524e-016 3.6 0.0
endloop
endfacet
facet normal -0.0 -0.0 1.0
outer loop
vertex 2.20436423846524e-016 3.6 0.0
vertex -0.672929517266554 2.51140714835158 0.0
vertex 1.59204083889156e-016 2.6 0.0
endloop
endfacet
facet normal -0.0 -0.0 1.0
outer loop
vertex 2.20436423846524e-016 3.6 0.0
vertex 1.59204083889156e-016 2.6 0.0
vertex 0.672929517266554 2.51140714835158 0.0
endloop
endfacet
facet normal -0.0 -0.0 1.0
outer loop
vertex 2.20436423846524e-016 3.6 0.0
vertex 0.672929517266554 2.51140714835158 0.0
vertex 0.931748562369075 3.47733297464065 0.0
endloop
endfacet
facet normal -0.0 -0.0 1.0
outer loop
vertex 0.931748562369075 3.47733297464065 0.0
vertex 0.672929517266554 2.51140714835158 0.0
vertex 1.3 2.25166604983954 0.0
endloop
endfacet
facet normal -0.0 -0.0 1.0
outer loop
vertex 0.931748562369075 3.47733297464065 0.0
vertex 1.3 2.25166604983954 0.0
vertex 1.8 3.11769145362398 0.0
endloop
endfacet
facet normal -0.0 -0.0 1.0
outer loop
vertex 1.8 3.11769145362398 0.0
vertex 1.3 2.25166604983954 0.0
vertex 1.83847763108502 1.83847763108502 0.0
endloop
endfacet
facet normal -0.0 -0.0 1.0
outer loop
vertex 1.8 3.11769145362398 0.0
vertex 1.83847763108502 1.83847763108502 0.0
vertex 2.54558441227157 2.54558441227157 0.0
endloop
endfacet
facet normal -0.0 -0.0 1.0
outer loop
vertex 2.54558441227157 2.54558441227157 0.0
vertex 1.83847763108502 1.83847763108502 0.0
vertex 2.25166604983954 1.3 0.0
endloop
endfacet
facet normal -0.0 -0.0 1.0
outer loop
vertex 2.54558441227157 2.54558441227157 0.0
vertex 2.25166604983954 1.3 0.0
vertex 2.51140714835158 0.672929517266554 0.0
endloop
endfacet
facet normal -0.0 -0.0 1.0
outer loop
vertex 2.54558441227157 2.54558441227157 0.0
vertex 2.51140714835158 0.672929517266554 0.0
vertex 2.6 0.0 0.0
endloop
endfacet
facet normal -0.0 -0.0 1.0
outer loop
vertex 2.54558441227157 2.54558441227157 0.0
vertex 2.6 0.0 0.0
vertex 3.11769145362398 1.8 0.0
endloop
endfacet
facet normal -0.0 -0.0 1.0
outer loop
vertex 3.11769145362398 1.8 0.0
vertex 2.6 0.0 0.0
vertex 3.11769145362398 -1.8 0.0
endloop
endfacet
facet normal -0.0 -0.0 1.0
outer loop
vertex 3.11769145362398 1.8 0.0
vertex 3.11769145362398 -1.8 0.0
vertex 3.47733297464065 -0.931748562369078 0.0
endloop
endfacet
facet normal -0.0 -0.0 1.0
outer loop
vertex 3.11769145362398 1.8 0.0
vertex 3.47733297464065 -0.931748562369078 0.0
vertex 3.47733297464065 0.931748562369075 0.0
endloop
endfacet
facet normal -0.0 -0.0 1.0
outer loop
vertex 3.47733297464065 0.931748562369075 0.0
vertex 3.47733297464065 -0.931748562369078 0.0
vertex 3.6 0.0 0.0
endloop
endfacet
facet normal 0.0 0.0 -1.0
outer loop
vertex -2.54558441227157 2.54558441227157 6.0
vertex -2.6 3.18408167778312e-016 6.0
vertex -3.11769145362398 1.8 6.0
endloop
endfacet
facet normal 0.0 0.0 -1.0
outer loop
vertex -2.6 3.18408167778312e-016 6.0
vertex -2.54558441227157 2.54558441227157 6.0
vertex -2.51140714835158 0.672929517266555 6.0
endloop
endfacet
facet normal 0.0 0.0 -1.0
outer loop
vertex -2.51140714835158 0.672929517266555 6.0
vertex -2.54558441227157 2.54558441227157 6.0
vertex -1.8 3.11769145362398 6.0
endloop
endfacet
facet normal 0.0 0.0 -1.0
outer loop
vertex -2.51140714835158 0.672929517266555 6.0
vertex -1.8 3.11769145362398 6.0
vertex -2.25166604983954 1.3 6.0
endloop
endfacet
facet normal 0.0 0.0 -1.0
outer loop
vertex -2.25166604983954 1.3 6.0
vertex -1.8 3.11769145362398 6.0
vertex -1.83847763108502 1.83847763108502 6.0
endloop
endfacet
facet normal 0.0 0.0 -1.0
outer loop
vertex -1.83847763108502 1.83847763108502 6.0
vertex -1.8 3.11769145362398 6.0
vertex -1.3 2.25166604983954 6.0
endloop
endfacet
facet normal 0.0 0.0 -1.0
outer loop
vertex -1.3 2.25166604983954 6.0
vertex -1.8 3.11769145362398 6.0
vertex -0.931748562369074 3.47733297464065 6.0
endloop
endfacet
facet normal 0.0 0.0 -1.0
outer loop
vertex -1.3 2.25166604983954 6.0
vertex -0.931748562369074 3.47733297464065 6.0
vertex -0.672929517266554 2.51140714835158 6.0
endloop
endfacet
facet normal 0.0 0.0 -1.0
outer loop
vertex -0.672929517266554 2.51140714835158 6.0
vertex -0.931748562369074 3.47733297464065 6.0
vertex 2.20436423846524e-016 3.6 6.0
endloop
endfacet
facet normal 0.0 0.0 -1.0
outer loop
vertex -0.672929517266554 2.51140714835158 6.0
vertex 2.20436423846524e-016 3.6 6.0
vertex 1.59204083889156e-016 2.6 6.0
endloop
endfacet
facet normal 0.0 0.0 -1.0
outer loop
vertex 1.59204083889156e-016 2.6 6.0
vertex 2.20436423846524e-016 3.6 6.0
vertex 0.672929517266554 2.51140714835158 6.0
endloop
endfacet
facet normal 0.0 0.0 -1.0
outer loop
vertex 0.672929517266554 2.51140714835158 6.0
vertex 2.20436423846524e-016 3.6 6.0
vertex 0.931748562369075 3.47733297464065 6.0
endloop
endfacet
facet normal 0.0 0.0 -1.0
outer loop
vertex 0.672929517266554 2.51140714835158 6.0
vertex 0.931748562369075 3.47733297464065 6.0
vertex 1.3 2.25166604983954 6.0
endloop
endfacet
facet normal 0.0 0.0 -1.0
outer loop
vertex 1.3 2.25166604983954 6.0
vertex 0.931748562369075 3.47733297464065 6.0
vertex 1.8 3.11769145362398 6.0
endloop
endfacet
facet normal 0.0 0.0 -1.0
outer loop
vertex 1.3 2.25166604983954 6.0
vertex 1.8 3.11769145362398 6.0
vertex 1.83847763108502 1.83847763108502 6.0
endloop
endfacet
facet normal 0.0 0.0 -1.0
outer loop
vertex 1.83847763108502 1.83847763108502 6.0
vertex 1.8 3.11769145362398 6.0
vertex 2.54558441227157 2.54558441227157 6.0
endloop
endfacet
facet normal 0.0 0.0 -1.0
outer loop
vertex 1.83847763108502 1.83847763108502 6.0
vertex 2.54558441227157 2.54558441227157 6.0
vertex 2.25166604983954 1.3 6.0
endloop
endfacet
facet normal 0.0 0.0 -1.0
outer loop
vertex 2.25166604983954 1.3 6.0
vertex 2.54558441227157 2.54558441227157 6.0
vertex 2.51140714835158 0.672929517266554 6.0
endloop
endfacet
facet normal 0.0 0.0 -1.0
outer loop
vertex 2.51140714835158 0.672929517266554 6.0
vertex 2.54558441227157 2.54558441227157 6.0
vertex 2.6 0.0 6.0
endloop
endfacet
facet normal 0.0 0.0 -1.0
outer loop
vertex 2.6 0.0 6.0
vertex 2.54558441227157 2.54558441227157 6.0
vertex 3.11769145362398 1.8 6.0
endloop
endfacet
facet normal 0.0 0.0 -1.0
outer loop
vertex 2.6 0.0 6.0
vertex 3.11769145362398 1.8 6.0
vertex 3.11769145362398 -1.8 6.0
endloop
endfacet
facet normal 0.0 0.0 -1.0
outer loop
vertex 3.11769145362398 -1.8 6.0
vertex 3.11769145362398 1.8 6.0
vertex 3.47733297464065 -0.931748562369078 6.0
endloop
endfacet
facet normal 0.0 0.0 -1.0
outer loop
vertex 3.47733297464065 -0.931748562369078 6.0
vertex 3.11769145362398 1.8 6.0
vertex 3.47733297464065 0.931748562369075 6.0
endloop
endfacet
facet normal 0.0 0.0 -1.0
outer loop
vertex 3.47733297464065 -0.931748562369078 6.0
vertex 3.47733297464065 0.931748562369075 6.0
vertex 3.6 0.0 6.0
endloop
endfacet
facet normal 0.0 0.0 -1.0
outer loop
vertex -3.47733297464065 0.931748562369076 6.0
vertex -3.47733297464065 -0.931748562369073 6.0
vertex -3.6 4.40872847693047e-016 6.0
endloop
endfacet
facet normal 0.0 0.0 -1.0
outer loop
vertex -3.47733297464065 -0.931748562369073 6.0
vertex -3.47733297464065 0.931748562369076 6.0
vertex -3.11769145362398 -1.8 6.0
endloop
endfacet
facet normal 0.0 0.0 -1.0
outer loop
vertex -3.11769145362398 -1.8 6.0
vertex -3.47733297464065 0.931748562369076 6.0
vertex -3.11769145362398 1.8 6.0
endloop
endfacet
facet normal 0.0 0.0 -1.0
outer loop
vertex -3.11769145362398 -1.8 6.0
vertex -3.11769145362398 1.8 6.0
vertex -2.54558441227157 -2.54558441227157 6.0
endloop
endfacet
facet normal 0.0 0.0 -1.0
outer loop
vertex -2.54558441227157 -2.54558441227157 6.0
vertex -3.11769145362398 1.8 6.0
vertex -2.6 3.18408167778312e-016 6.0
endloop
endfacet
facet normal 0.0 0.0 -1.0
outer loop
vertex -2.54558441227157 -2.54558441227157 6.0
vertex -2.6 3.18408167778312e-016 6.0
vertex -2.51140714835158 -0.672929517266553 6.0
endloop
endfacet
facet normal 0.0 0.0 -1.0
outer loop
vertex -2.54558441227157 -2.54558441227157 6.0
vertex -2.51140714835158 -0.672929517266553 6.0
vertex -1.8 -3.11769145362398 6.0
endloop
endfacet
facet normal 0.0 0.0 -1.0
outer loop
vertex -1.8 -3.11769145362398 6.0
vertex -2.51140714835158 -0.672929517266553 6.0
vertex -2.25166604983954 -1.3 6.0
endloop
endfacet
facet normal 0.0 0.0 -1.0
outer loop
vertex -1.8 -3.11769145362398 6.0
vertex -2.25166604983954 -1.3 6.0
vertex -1.83847763108502 -1.83847763108502 6.0
endloop
endfacet
facet normal 0.0 0.0 -1.0
outer loop
vertex -1.8 -3.11769145362398 6.0
vertex -1.83847763108502 -1.83847763108502 6.0
vertex -1.3 -2.25166604983954 6.0
endloop
endfacet
facet normal 0.0 0.0 -1.0
outer loop
vertex -1.8 -3.11769145362398 6.0
vertex -1.3 -2.25166604983954 6.0
vertex -0.931748562369077 -3.47733297464065 6.0
endloop
endfacet
facet normal 0.0 0.0 -1.0
outer loop
vertex -0.931748562369077 -3.47733297464065 6.0
vertex -1.3 -2.25166604983954 6.0
vertex -0.672929517266556 -2.51140714835158 6.0
endloop
endfacet
facet normal 0.0 0.0 -1.0
outer loop
vertex -0.931748562369077 -3.47733297464065 6.0
vertex -0.672929517266556 -2.51140714835158 6.0
vertex -6.61309271539571e-016 -3.6 6.0
endloop
endfacet
facet normal 0.0 0.0 -1.0
outer loop
vertex -6.61309271539571e-016 -3.6 6.0
vertex -0.672929517266556 -2.51140714835158 6.0
vertex -4.77612251667468e-016 -2.6 6.0
endloop
endfacet
facet normal 0.0 0.0 -1.0
outer loop
vertex -6.61309271539571e-016 -3.6 6.0
vertex -4.77612251667468e-016 -2.6 6.0
vertex 0.931748562369073 -3.47733297464065 6.0
endloop
endfacet
facet normal 0.0 0.0 -1.0
outer loop
vertex 0.931748562369073 -3.47733297464065 6.0
vertex -4.77612251667468e-016 -2.6 6.0
vertex 0.672929517266553 -2.51140714835158 6.0
endloop
endfacet
facet normal 0.0 0.0 -1.0
outer loop
vertex 0.931748562369073 -3.47733297464065 6.0
vertex 0.672929517266553 -2.51140714835158 6.0
vertex 1.3 -2.25166604983954 6.0
endloop
endfacet
facet normal 0.0 0.0 -1.0
outer loop
vertex 0.931748562369073 -3.47733297464065 6.0
vertex 1.3 -2.25166604983954 6.0
vertex 1.8 -3.11769145362398 6.0
endloop
endfacet
facet normal 0.0 0.0 -1.0
outer loop
vertex 1.8 -3.11769145362398 6.0
vertex 1.3 -2.25166604983954 6.0
vertex 1.83847763108502 -1.83847763108502 6.0
endloop
endfacet
facet normal 0.0 0.0 -1.0
outer loop
vertex 1.8 -3.11769145362398 6.0
vertex 1.83847763108502 -1.83847763108502 6.0
vertex 2.54558441227157 -2.54558441227157 6.0
endloop
endfacet
facet normal 0.0 0.0 -1.0
outer loop
vertex 2.54558441227157 -2.54558441227157 6.0
vertex 1.83847763108502 -1.83847763108502 6.0
vertex 2.25166604983954 -1.3 6.0
endloop
endfacet
facet normal 0.0 0.0 -1.0
outer loop
vertex 2.54558441227157 -2.54558441227157 6.0
vertex 2.25166604983954 -1.3 6.0
vertex 2.51140714835158 -0.672929517266556 6.0
endloop
endfacet
facet normal 0.0 0.0 -1.0
outer loop
vertex 2.54558441227157 -2.54558441227157 6.0
vertex 2.51140714835158 -0.672929517266556 6.0
vertex 2.6 0.0 6.0
endloop
endfacet
facet normal 0.0 0.0 -1.0
outer loop
vertex 2.54558441227157 -2.54558441227157 6.0
vertex 2.6 0.0 6.0
vertex 3.11769145362398 -1.8 6.0
endloop
endfacet
facet normal -0.866025403784439 -0.5 0.0
outer loop
vertex 3.11769145362398 1.8 6.0
vertex 3.47733297464065 0.931748562369075 0.0
vertex 3.47733297464065 0.931748562369075 6.0
endloop
endfacet
facet normal -0.965925826289068 -0.258819045102521 0.0
outer loop
vertex 3.47733297464065 0.931748562369075 0.0
vertex 3.11769145362398 1.8 6.0
vertex 3.11769145362398 1.8 0.0
endloop
endfacet
facet normal -0.965925826289068 -0.258819045102521 0.0
outer loop
vertex 3.47733297464065 0.931748562369075 6.0
vertex 3.6 0.0 0.0
vertex 3.6 0.0 6.0
endloop
endfacet
facet normal -1.0 1.60399978121644e-016 0.0
outer loop
vertex 3.6 0.0 0.0
vertex 3.47733297464065 0.931748562369075 6.0
vertex 3.47733297464065 0.931748562369075 0.0
endloop
endfacet
facet normal -1.0 1.60399978121644e-016 0.0
outer loop
vertex 3.6 0.0 6.0
vertex 3.47733297464065 -0.931748562369078 0.0
vertex 3.47733297464065 -0.931748562369078 6.0
endloop
endfacet
facet normal -0.965925826289068 0.258819045102521 0.0
outer loop
vertex 3.47733297464065 -0.931748562369078 0.0
vertex 3.6 0.0 6.0
vertex 3.6 0.0 0.0
endloop
endfacet
facet normal -0.965925826289068 0.258819045102521 0.0
outer loop
vertex 3.47733297464065 -0.931748562369078 6.0
vertex 3.11769145362398 -1.8 0.0
vertex 3.11769145362398 -1.8 6.0
endloop
endfacet
facet normal -0.866025403784438 0.500000000000001 0.0
outer loop
vertex 3.11769145362398 -1.8 0.0
vertex 3.47733297464065 -0.931748562369078 6.0
vertex 3.47733297464065 -0.931748562369078 0.0
endloop
endfacet
facet normal -0.866025403784438 0.500000000000001 0.0
outer loop
vertex 3.11769145362398 -1.8 6.0
vertex 2.54558441227157 -2.54558441227157 0.0
vertex 2.54558441227157 -2.54558441227157 6.0
endloop
endfacet
facet normal -0.707106781186547 0.707106781186548 0.0
outer loop
vertex 2.54558441227157 -2.54558441227157 0.0
vertex 3.11769145362398 -1.8 6.0
vertex 3.11769145362398 -1.8 0.0
endloop
endfacet
facet normal -0.499999999999999 0.866025403784439 0.0
outer loop
vertex 1.8 -3.11769145362398 6.0
vertex 2.54558441227157 -2.54558441227157 0.0
vertex 1.8 -3.11769145362398 0.0
endloop
endfacet
facet normal -0.707106781186547 0.707106781186548 0.0
outer loop
vertex 2.54558441227157 -2.54558441227157 0.0
vertex 1.8 -3.11769145362398 6.0
vertex 2.54558441227157 -2.54558441227157 6.0
endloop
endfacet
facet normal -0.25881904510252 0.965925826289068 0.0
outer loop
vertex 0.931748562369073 -3.47733297464065 6.0
vertex 1.8 -3.11769145362398 0.0
vertex 0.931748562369073 -3.47733297464065 0.0
endloop
endfacet
facet normal -0.499999999999999 0.866025403784439 0.0
outer loop
vertex 1.8 -3.11769145362398 0.0
vertex 0.931748562369073 -3.47733297464065 6.0
vertex 1.8 -3.11769145362398 6.0
endloop
endfacet
facet normal 1.69311088017291e-016 1.0 0.0
outer loop
vertex -6.61309271539571e-016 -3.6 6.0
vertex 0.931748562369073 -3.47733297464065 0.0
vertex -6.61309271539571e-016 -3.6 0.0
endloop
endfacet
facet normal -0.25881904510252 0.965925826289068 0.0
outer loop
vertex 0.931748562369073 -3.47733297464065 0.0
vertex -6.61309271539571e-016 -3.6 6.0
vertex 0.931748562369073 -3.47733297464065 6.0
endloop
endfacet
facet normal 0.258819045102521 0.965925826289068 0.0
outer loop
vertex -0.931748562369077 -3.47733297464065 6.0
vertex -6.61309271539571e-016 -3.6 0.0
vertex -0.931748562369077 -3.47733297464065 0.0
endloop
endfacet
facet normal 1.69311088017291e-016 1.0 0.0
outer loop
vertex -6.61309271539571e-016 -3.6 0.0
vertex -0.931748562369077 -3.47733297464065 6.0
vertex -6.61309271539571e-016 -3.6 6.0
endloop
endfacet
facet normal 0.500000000000001 0.866025403784438 0.0
outer loop
vertex -1.8 -3.11769145362398 6.0
vertex -0.931748562369077 -3.47733297464065 0.0
vertex -1.8 -3.11769145362398 0.0
endloop
endfacet
facet normal 0.258819045102521 0.965925826289068 0.0
outer loop
vertex -0.931748562369077 -3.47733297464065 0.0
vertex -1.8 -3.11769145362398 6.0
vertex -0.931748562369077 -3.47733297464065 6.0
endloop
endfacet
facet normal 0.707106781186548 0.707106781186547 0.0
outer loop
vertex -2.54558441227157 -2.54558441227157 6.0
vertex -1.8 -3.11769145362398 0.0
vertex -2.54558441227157 -2.54558441227157 0.0
endloop
endfacet
facet normal 0.500000000000001 0.866025403784438 0.0
outer loop
vertex -1.8 -3.11769145362398 0.0
vertex -2.54558441227157 -2.54558441227157 6.0
vertex -1.8 -3.11769145362398 6.0
endloop
endfacet
facet normal 0.866025403784439 0.5 0.0
outer loop
vertex -3.11769145362398 -1.8 0.0
vertex -2.54558441227157 -2.54558441227157 6.0
vertex -2.54558441227157 -2.54558441227157 0.0
endloop
endfacet
facet normal 0.707106781186548 0.707106781186547 0.0
outer loop
vertex -2.54558441227157 -2.54558441227157 6.0
vertex -3.11769145362398 -1.8 0.0
vertex -3.11769145362398 -1.8 6.0
endloop
endfacet
facet normal 0.965925826289068 0.25881904510252 0.0
outer loop
vertex -3.47733297464065 -0.931748562369073 0.0
vertex -3.11769145362398 -1.8 6.0
vertex -3.11769145362398 -1.8 0.0
endloop
endfacet
facet normal 0.866025403784439 0.5 0.0
outer loop
vertex -3.11769145362398 -1.8 6.0
vertex -3.47733297464065 -0.931748562369073 0.0
vertex -3.47733297464065 -0.931748562369073 6.0
endloop
endfacet
facet normal 1.0 -2.76244406765054e-016 0.0
outer loop
vertex -3.6 4.40872847693047e-016 0.0
vertex -3.47733297464065 -0.931748562369073 6.0
vertex -3.47733297464065 -0.931748562369073 0.0
endloop
endfacet
facet normal 0.965925826289068 0.25881904510252 0.0
outer loop
vertex -3.47733297464065 -0.931748562369073 6.0
vertex -3.6 4.40872847693047e-016 0.0
vertex -3.6 4.40872847693047e-016 6.0
endloop
endfacet
facet normal 0.965925826289068 -0.258819045102521 0.0
outer loop
vertex -3.47733297464065 0.931748562369076 0.0
vertex -3.6 4.40872847693047e-016 6.0
vertex -3.6 4.40872847693047e-016 0.0
endloop
endfacet
facet normal 1.0 -2.76244406765054e-016 0.0
outer loop
vertex -3.6 4.40872847693047e-016 6.0
vertex -3.47733297464065 0.931748562369076 0.0
vertex -3.47733297464065 0.931748562369076 6.0
endloop
endfacet
facet normal 0.866025403784439 -0.5 0.0
outer loop
vertex -3.11769145362398 1.8 0.0
vertex -3.47733297464065 0.931748562369076 6.0
vertex -3.47733297464065 0.931748562369076 0.0
endloop
endfacet
facet normal 0.965925826289068 -0.258819045102521 0.0
outer loop
vertex -3.47733297464065 0.931748562369076 6.0
vertex -3.11769145362398 1.8 0.0
vertex -3.11769145362398 1.8 6.0
endloop
endfacet
facet normal 0.707106781186547 -0.707106781186548 0.0
outer loop
vertex -2.54558441227157 2.54558441227157 0.0
vertex -3.11769145362398 1.8 6.0
vertex -3.11769145362398 1.8 0.0
endloop
endfacet
facet normal 0.866025403784439 -0.5 0.0
outer loop
vertex -3.11769145362398 1.8 6.0
vertex -2.54558441227157 2.54558441227157 0.0
vertex -2.54558441227157 2.54558441227157 6.0
endloop
endfacet
facet normal 0.5 -0.866025403784439 0.0
outer loop
vertex -1.8 3.11769145362398 6.0
vertex -2.54558441227157 2.54558441227157 0.0
vertex -1.8 3.11769145362398 0.0
endloop
endfacet
facet normal 0.707106781186547 -0.707106781186548 0.0
outer loop
vertex -2.54558441227157 2.54558441227157 0.0
vertex -1.8 3.11769145362398 6.0
vertex -2.54558441227157 2.54558441227157 6.0
endloop
endfacet
facet normal 0.258819045102521 -0.965925826289068 0.0
outer loop
vertex -0.931748562369074 3.47733297464065 6.0
vertex -1.8 3.11769145362398 0.0
vertex -0.931748562369074 3.47733297464065 0.0
endloop
endfacet
facet normal 0.5 -0.866025403784439 0.0
outer loop
vertex -1.8 3.11769145362398 0.0
vertex -0.931748562369074 3.47733297464065 6.0
vertex -1.8 3.11769145362398 6.0
endloop
endfacet
facet normal -3.11888846347642e-016 -1.0 0.0
outer loop
vertex 2.20436423846524e-016 3.6 6.0
vertex -0.931748562369074 3.47733297464065 0.0
vertex 2.20436423846524e-016 3.6 0.0
endloop
endfacet
facet normal 0.258819045102521 -0.965925826289068 0.0
outer loop
vertex -0.931748562369074 3.47733297464065 0.0
vertex 2.20436423846524e-016 3.6 6.0
vertex -0.931748562369074 3.47733297464065 6.0
endloop
endfacet
facet normal -0.258819045102521 -0.965925826289068 0.0
outer loop
vertex 0.931748562369075 3.47733297464065 6.0
vertex 2.20436423846524e-016 3.6 0.0
vertex 0.931748562369075 3.47733297464065 0.0
endloop
endfacet
facet normal -3.11888846347642e-016 -1.0 0.0
outer loop
vertex 2.20436423846524e-016 3.6 0.0
vertex 0.931748562369075 3.47733297464065 6.0
vertex 2.20436423846524e-016 3.6 6.0
endloop
endfacet
facet normal -0.5 -0.866025403784439 0.0
outer loop
vertex 1.8 3.11769145362398 6.0
vertex 0.931748562369075 3.47733297464065 0.0
vertex 1.8 3.11769145362398 0.0
endloop
endfacet
facet normal -0.258819045102521 -0.965925826289068 0.0
outer loop
vertex 0.931748562369075 3.47733297464065 0.0
vertex 1.8 3.11769145362398 6.0
vertex 0.931748562369075 3.47733297464065 6.0
endloop
endfacet
facet normal -0.707106781186548 -0.707106781186547 0.0
outer loop
vertex 2.54558441227157 2.54558441227157 6.0
vertex 1.8 3.11769145362398 0.0
vertex 2.54558441227157 2.54558441227157 0.0
endloop
endfacet
facet normal -0.5 -0.866025403784439 0.0
outer loop
vertex 1.8 3.11769145362398 0.0
vertex 2.54558441227157 2.54558441227157 6.0
vertex 1.8 3.11769145362398 6.0
endloop
endfacet
facet normal -0.707106781186548 -0.707106781186547 0.0
outer loop
vertex 2.54558441227157 2.54558441227157 6.0
vertex 3.11769145362398 1.8 0.0
vertex 3.11769145362398 1.8 6.0
endloop
endfacet
facet normal -0.866025403784439 -0.5 0.0
outer loop
vertex 3.11769145362398 1.8 0.0
vertex 2.54558441227157 2.54558441227157 6.0
vertex 2.54558441227157 2.54558441227157 0.0
endloop
endfacet
facet normal 2.22777747391173e-016 1.0 0.0
outer loop
vertex 1.59204083889156e-016 2.6 6.0
vertex 0.672929517266554 2.51140714835158 0.0
vertex 1.59204083889156e-016 2.6 0.0
endloop
endfacet
facet normal 0.258819045102521 0.965925826289068 0.0
outer loop
vertex 0.672929517266554 2.51140714835158 0.0
vertex 1.59204083889156e-016 2.6 6.0
vertex 0.672929517266554 2.51140714835158 6.0
endloop
endfacet
facet normal -0.258819045102521 0.965925826289068 0.0
outer loop
vertex -0.672929517266554 2.51140714835158 6.0
vertex 1.59204083889156e-016 2.6 0.0
vertex -0.672929517266554 2.51140714835158 0.0
endloop
endfacet
facet normal 2.22777747391173e-016 1.0 0.0
outer loop
vertex 1.59204083889156e-016 2.6 0.0
vertex -0.672929517266554 2.51140714835158 6.0
vertex 1.59204083889156e-016 2.6 6.0
endloop
endfacet
facet normal -0.5 0.866025403784439 0.0
outer loop
vertex -1.3 2.25166604983954 6.0
vertex -0.672929517266554 2.51140714835158 0.0
vertex -1.3 2.25166604983954 0.0
endloop
endfacet
facet normal -0.258819045102521 0.965925826289068 0.0
outer loop
vertex -0.672929517266554 2.51140714835158 0.0
vertex -1.3 2.25166604983954 6.0
vertex -0.672929517266554 2.51140714835158 6.0
endloop
endfacet
facet normal -0.707106781186547 0.707106781186548 0.0
outer loop
vertex -1.83847763108502 1.83847763108502 6.0
vertex -1.3 2.25166604983954 0.0
vertex -1.83847763108502 1.83847763108502 0.0
endloop
endfacet
facet normal -0.5 0.866025403784439 0.0
outer loop
vertex -1.3 2.25166604983954 0.0
vertex -1.83847763108502 1.83847763108502 6.0
vertex -1.3 2.25166604983954 6.0
endloop
endfacet
facet normal -0.707106781186547 0.707106781186548 0.0
outer loop
vertex -1.83847763108502 1.83847763108502 6.0
vertex -2.25166604983954 1.3 0.0
vertex -2.25166604983954 1.3 6.0
endloop
endfacet
facet normal -0.866025403784438 0.5 0.0
outer loop
vertex -2.25166604983954 1.3 0.0
vertex -1.83847763108502 1.83847763108502 6.0
vertex -1.83847763108502 1.83847763108502 0.0
endloop
endfacet
facet normal -0.866025403784438 0.5 0.0
outer loop
vertex -2.25166604983954 1.3 6.0
vertex -2.51140714835158 0.672929517266555 0.0
vertex -2.51140714835158 0.672929517266555 6.0
endloop
endfacet
facet normal -0.965925826289068 0.258819045102521 0.0
outer loop
vertex -2.51140714835158 0.672929517266555 0.0
vertex -2.25166604983954 1.3 6.0
vertex -2.25166604983954 1.3 0.0
endloop
endfacet
facet normal -0.965925826289068 0.258819045102521 0.0
outer loop
vertex -2.51140714835158 0.672929517266555 6.0
vertex -2.6 3.18408167778312e-016 0.0
vertex -2.6 3.18408167778312e-016 6.0
endloop
endfacet
facet normal -1.0 4.18822165095404e-016 0.0
outer loop
vertex -2.6 3.18408167778312e-016 0.0
vertex -2.51140714835158 0.672929517266555 6.0
vertex -2.51140714835158 0.672929517266555 0.0
endloop
endfacet
facet normal -1.0 4.18822165095404e-016 0.0
outer loop
vertex -2.6 3.18408167778312e-016 6.0
vertex -2.51140714835158 -0.672929517266553 0.0
vertex -2.51140714835158 -0.672929517266553 6.0
endloop
endfacet
facet normal -0.965925826289068 -0.25881904510252 0.0
outer loop
vertex -2.51140714835158 -0.672929517266553 0.0
vertex -2.6 3.18408167778312e-016 6.0
vertex -2.6 3.18408167778312e-016 0.0
endloop
endfacet
facet normal -0.965925826289068 -0.25881904510252 0.0
outer loop
vertex -2.51140714835158 -0.672929517266553 6.0
vertex -2.25166604983954 -1.3 0.0
vertex -2.25166604983954 -1.3 6.0
endloop
endfacet
facet normal -0.866025403784439 -0.5 0.0
outer loop
vertex -2.25166604983954 -1.3 0.0
vertex -2.51140714835158 -0.672929517266553 6.0
vertex -2.51140714835158 -0.672929517266553 0.0
endloop
endfacet
facet normal -0.866025403784439 -0.5 0.0
outer loop
vertex -2.25166604983954 -1.3 6.0
vertex -1.83847763108502 -1.83847763108502 0.0
vertex -1.83847763108502 -1.83847763108502 6.0
endloop
endfacet
facet normal -0.707106781186548 -0.707106781186547 0.0
outer loop
vertex -1.83847763108502 -1.83847763108502 0.0
vertex -2.25166604983954 -1.3 6.0
vertex -2.25166604983954 -1.3 0.0
endloop
endfacet
facet normal -0.500000000000001 -0.866025403784438 0.0
outer loop
vertex -1.3 -2.25166604983954 6.0
vertex -1.83847763108502 -1.83847763108502 0.0
vertex -1.3 -2.25166604983954 0.0
endloop
endfacet
facet normal -0.707106781186548 -0.707106781186547 0.0
outer loop
vertex -1.83847763108502 -1.83847763108502 0.0
vertex -1.3 -2.25166604983954 6.0
vertex -1.83847763108502 -1.83847763108502 6.0
endloop
endfacet
facet normal -0.258819045102521 -0.965925826289068 0.0
outer loop
vertex -0.672929517266556 -2.51140714835158 6.0
vertex -1.3 -2.25166604983954 0.0
vertex -0.672929517266556 -2.51140714835158 0.0
endloop
endfacet
facet normal -0.500000000000001 -0.866025403784438 0.0
outer loop
vertex -1.3 -2.25166604983954 0.0
vertex -0.672929517266556 -2.51140714835158 6.0
vertex -1.3 -2.25166604983954 6.0
endloop
endfacet
facet normal -2.94066626556348e-016 -1.0 0.0
outer loop
vertex -4.77612251667468e-016 -2.6 6.0
vertex -0.672929517266556 -2.51140714835158 0.0
vertex -4.77612251667468e-016 -2.6 0.0
endloop
endfacet
facet normal -0.258819045102521 -0.965925826289068 0.0
outer loop
vertex -0.672929517266556 -2.51140714835158 0.0
vertex -4.77612251667468e-016 -2.6 6.0
vertex -0.672929517266556 -2.51140714835158 6.0
endloop
endfacet
facet normal 0.25881904510252 -0.965925826289068 0.0
outer loop
vertex 0.672929517266553 -2.51140714835158 6.0
vertex -4.77612251667468e-016 -2.6 0.0
vertex 0.672929517266553 -2.51140714835158 0.0
endloop
endfacet
facet normal -2.94066626556348e-016 -1.0 0.0
outer loop
vertex -4.77612251667468e-016 -2.6 0.0
vertex 0.672929517266553 -2.51140714835158 6.0
vertex -4.77612251667468e-016 -2.6 6.0
endloop
endfacet
facet normal 0.5 -0.866025403784439 0.0
outer loop
vertex 1.3 -2.25166604983954 6.0
vertex 0.672929517266553 -2.51140714835158 0.0
vertex 1.3 -2.25166604983954 0.0
endloop
endfacet
facet normal 0.25881904510252 -0.965925826289068 0.0
outer loop
vertex 0.672929517266553 -2.51140714835158 0.0
vertex 1.3 -2.25166604983954 6.0
vertex 0.672929517266553 -2.51140714835158 6.0
endloop
endfacet
facet normal 0.707106781186547 -0.707106781186548 0.0
outer loop
vertex 1.83847763108502 -1.83847763108502 6.0
vertex 1.3 -2.25166604983954 0.0
vertex 1.83847763108502 -1.83847763108502 0.0
endloop
endfacet
facet normal 0.5 -0.866025403784439 0.0
outer loop
vertex 1.3 -2.25166604983954 0.0
vertex 1.83847763108502 -1.83847763108502 6.0
vertex 1.3 -2.25166604983954 6.0
endloop
endfacet
facet normal 0.866025403784438 -0.5 0.0
outer loop
vertex 2.25166604983954 -1.3 0.0
vertex 1.83847763108502 -1.83847763108502 6.0
vertex 1.83847763108502 -1.83847763108502 0.0
endloop
endfacet
facet normal 0.707106781186547 -0.707106781186548 0.0
outer loop
vertex 1.83847763108502 -1.83847763108502 6.0
vertex 2.25166604983954 -1.3 0.0
vertex 2.25166604983954 -1.3 6.0
endloop
endfacet
facet normal 0.965925826289068 -0.258819045102521 0.0
outer loop
vertex 2.51140714835158 -0.672929517266556 0.0
vertex 2.25166604983954 -1.3 6.0
vertex 2.25166604983954 -1.3 0.0
endloop
endfacet
facet normal 0.866025403784438 -0.5 0.0
outer loop
vertex 2.25166604983954 -1.3 6.0
vertex 2.51140714835158 -0.672929517266556 0.0
vertex 2.51140714835158 -0.672929517266556 6.0
endloop
endfacet
facet normal 1.0 -5.34666593738814e-017 0.0
outer loop
vertex 2.6 0.0 0.0
vertex 2.51140714835158 -0.672929517266556 6.0
vertex 2.51140714835158 -0.672929517266556 0.0
endloop
endfacet
facet normal 0.965925826289068 -0.258819045102521 0.0
outer loop
vertex 2.51140714835158 -0.672929517266556 6.0
vertex 2.6 0.0 0.0
vertex 2.6 0.0 6.0
endloop
endfacet
facet normal 0.965925826289068 0.258819045102521 0.0
outer loop
vertex 2.51140714835158 0.672929517266554 0.0
vertex 2.6 0.0 6.0
vertex 2.6 0.0 0.0
endloop
endfacet
facet normal 1.0 -5.34666593738814e-017 0.0
outer loop
vertex 2.6 0.0 6.0
vertex 2.51140714835158 0.672929517266554 0.0
vertex 2.51140714835158 0.672929517266554 6.0
endloop
endfacet
facet normal 0.866025403784439 0.5 0.0
outer loop
vertex 2.25166604983954 1.3 0.0
vertex 2.51140714835158 0.672929517266554 6.0
vertex 2.51140714835158 0.672929517266554 0.0
endloop
endfacet
facet normal 0.965925826289068 0.258819045102521 0.0
outer loop
vertex 2.51140714835158 0.672929517266554 6.0
vertex 2.25166604983954 1.3 0.0
vertex 2.25166604983954 1.3 6.0
endloop
endfacet
facet normal 0.707106781186548 0.707106781186547 0.0
outer loop
vertex 1.83847763108502 1.83847763108502 0.0
vertex 2.25166604983954 1.3 6.0
vertex 2.25166604983954 1.3 0.0
endloop
endfacet
facet normal 0.866025403784439 0.5 0.0
outer loop
vertex 2.25166604983954 1.3 6.0
vertex 1.83847763108502 1.83847763108502 0.0
vertex 1.83847763108502 1.83847763108502 6.0
endloop
endfacet
facet normal 0.5 0.866025403784439 0.0
outer loop
vertex 1.3 2.25166604983954 6.0
vertex 1.83847763108502 1.83847763108502 0.0
vertex 1.3 2.25166604983954 0.0
endloop
endfacet
facet normal 0.707106781186548 0.707106781186547 0.0
outer loop
vertex 1.83847763108502 1.83847763108502 0.0
vertex 1.3 2.25166604983954 6.0
vertex 1.83847763108502 1.83847763108502 6.0
endloop
endfacet
facet normal 0.258819045102521 0.965925826289068 0.0
outer loop
vertex 0.672929517266554 2.51140714835158 6.0
vertex 1.3 2.25166604983954 0.0
vertex 0.672929517266554 2.51140714835158 0.0
endloop
endfacet
facet normal 0.5 0.866025403784439 0.0
outer loop
vertex 1.3 2.25166604983954 0.0
vertex 0.672929517266554 2.51140714835158 6.0
vertex 1.3 2.25166604983954 6.0
endloop
endfacet
endsolid middle-gear-holder-spacer
