solid button
facet normal 0.0 0.0 -1.0
outer loop
vertex 7.1 3.75 4.0
vertex 5.725 2.25 4.0
vertex 5.725 3.75 4.0
endloop
endfacet
facet normal 0.0 0.0 -1.0
outer loop
vertex 5.725 2.25 4.0
vertex 7.1 3.75 4.0
vertex 7.1 2.25 4.0
endloop
endfacet
facet normal 0.0 0.0 -1.0
outer loop
vertex 5.725 5.1 4.0
vertex 4.275 3.85 4.0
vertex 4.275 5.1 4.0
endloop
endfacet
facet normal 0.0 0.0 -1.0
outer loop
vertex 4.275 3.85 4.0
vertex 5.725 5.1 4.0
vertex 4.275 2.15 4.0
endloop
endfacet
facet normal 0.0 0.0 -1.0
outer loop
vertex 4.275 2.15 4.0
vertex 5.725 5.1 4.0
vertex 4.275 1.0 4.0
endloop
endfacet
facet normal 0.0 0.0 -1.0
outer loop
vertex 4.275 1.0 4.0
vertex 5.725 5.1 4.0
vertex 5.725 1.0 4.0
endloop
endfacet
facet normal 0.0 0.0 -1.0
outer loop
vertex 5.725 1.0 4.0
vertex 5.725 5.1 4.0
vertex 5.725 3.75 4.0
endloop
endfacet
facet normal 0.0 0.0 -1.0
outer loop
vertex 5.725 1.0 4.0
vertex 5.725 3.75 4.0
vertex 5.725 2.25 4.0
endloop
endfacet
facet normal 0.0 0.0 -1.0
outer loop
vertex 4.275 3.85 4.0
vertex 2.9 2.15 4.0
vertex 2.9 3.85 4.0
endloop
endfacet
facet normal 0.0 0.0 -1.0
outer loop
vertex 2.9 2.15 4.0
vertex 4.275 3.85 4.0
vertex 4.275 2.15 4.0
endloop
endfacet
facet normal 1.0 -0.0 -0.0
outer loop
vertex 4.275 2.15 0.0
vertex 4.275 1.0 4.0
vertex 4.275 1.0 0.0
endloop
endfacet
facet normal 1.0 -0.0 -0.0
outer loop
vertex 4.275 1.0 4.0
vertex 4.275 2.15 0.0
vertex 4.275 2.15 4.0
endloop
endfacet
facet normal 0.0 1.0 0.0
outer loop
vertex 2.9 2.15 4.0
vertex 4.275 2.15 0.0
vertex 2.9 2.15 0.0
endloop
endfacet
facet normal 0.0 1.0 0.0
outer loop
vertex 4.275 2.15 0.0
vertex 2.9 2.15 4.0
vertex 4.275 2.15 4.0
endloop
endfacet
facet normal 1.0 0.0 0.0
outer loop
vertex 2.9 3.85 0.0
vertex 2.9 2.15 4.0
vertex 2.9 2.15 0.0
endloop
endfacet
facet normal 1.0 0.0 0.0
outer loop
vertex 2.9 2.15 4.0
vertex 2.9 3.85 0.0
vertex 2.9 3.85 4.0
endloop
endfacet
facet normal 0.0 -1.0 0.0
outer loop
vertex 4.275 3.85 4.0
vertex 2.9 3.85 0.0
vertex 4.275 3.85 0.0
endloop
endfacet
facet normal 0.0 -1.0 0.0
outer loop
vertex 2.9 3.85 0.0
vertex 4.275 3.85 4.0
vertex 2.9 3.85 4.0
endloop
endfacet
facet normal 1.0 -0.0 -0.0
outer loop
vertex 4.275 5.1 0.0
vertex 4.275 3.85 4.0
vertex 4.275 3.85 0.0
endloop
endfacet
facet normal 1.0 -0.0 -0.0
outer loop
vertex 4.275 3.85 4.0
vertex 4.275 5.1 0.0
vertex 4.275 5.1 4.0
endloop
endfacet
facet normal -1.0 0.0 0.0
outer loop
vertex 5.725 5.1 4.0
vertex 5.725 3.75 0.0
vertex 5.725 3.75 4.0
endloop
endfacet
facet normal -1.0 0.0 0.0
outer loop
vertex 5.725 3.75 0.0
vertex 5.725 5.1 4.0
vertex 5.725 5.1 0.0
endloop
endfacet
facet normal 0.0 -1.0 -0.0
outer loop
vertex 7.1 3.75 4.0
vertex 5.725 3.75 0.0
vertex 7.1 3.75 0.0
endloop
endfacet
facet normal 0.0 -1.0 -0.0
outer loop
vertex 5.725 3.75 0.0
vertex 7.1 3.75 4.0
vertex 5.725 3.75 4.0
endloop
endfacet
facet normal -1.0 -0.0 -0.0
outer loop
vertex 7.1 3.75 4.0
vertex 7.1 2.25 0.0
vertex 7.1 2.25 4.0
endloop
endfacet
facet normal -1.0 -0.0 -0.0
outer loop
vertex 7.1 2.25 0.0
vertex 7.1 3.75 4.0
vertex 7.1 3.75 0.0
endloop
endfacet
facet normal 0.0 1.0 0.0
outer loop
vertex 5.725 2.25 4.0
vertex 7.1 2.25 0.0
vertex 5.725 2.25 0.0
endloop
endfacet
facet normal 0.0 1.0 0.0
outer loop
vertex 7.1 2.25 0.0
vertex 5.725 2.25 4.0
vertex 7.1 2.25 4.0
endloop
endfacet
facet normal -1.0 0.0 0.0
outer loop
vertex 5.725 2.25 4.0
vertex 5.725 1.0 0.0
vertex 5.725 1.0 4.0
endloop
endfacet
facet normal -1.0 0.0 0.0
outer loop
vertex 5.725 1.0 0.0
vertex 5.725 2.25 4.0
vertex 5.725 2.25 0.0
endloop
endfacet
facet normal 1.0 0.0 0.0
outer loop
vertex 7.60000094267932 5.1 0.00149235857163427
vertex 7.60000094267932 1.0 6.00149235857163
vertex 7.60000094267932 1.0 0.00149235857163427
endloop
endfacet
facet normal 1.0 0.0 0.0
outer loop
vertex 7.60000094267932 1.0 6.00149235857163
vertex 7.60000094267932 5.1 0.00149235857163427
vertex 7.60000094267932 5.1 6.00149235857163
endloop
endfacet
facet normal 0.0 0.0 -1.0
outer loop
vertex 2.4 5.1 0.0
vertex 2.9 3.85 0.0
vertex 2.4 1.0 0.0
endloop
endfacet
facet normal 0.0 0.0 -1.0
outer loop
vertex 2.9 3.85 0.0
vertex 2.4 5.1 0.0
vertex 4.275 5.1 0.0
endloop
endfacet
facet normal 0.0 0.0 -1.0
outer loop
vertex 2.9 3.85 0.0
vertex 4.275 5.1 0.0
vertex 4.275 3.85 0.0
endloop
endfacet
facet normal 0.0 0.0 -1.0
outer loop
vertex 2.4 1.0 0.0
vertex 2.9 2.15 0.0
vertex 4.275 1.0 0.0
endloop
endfacet
facet normal 0.0 0.0 -1.0
outer loop
vertex 2.9 2.15 0.0
vertex 2.4 1.0 0.0
vertex 2.9 3.85 0.0
endloop
endfacet
facet normal 0.0 0.0 -1.0
outer loop
vertex 4.275 1.0 0.0
vertex 2.9 2.15 0.0
vertex 4.275 2.15 0.0
endloop
endfacet
facet normal 5.22950160974137e-018 -1.0 -1.30167593077365e-017
outer loop
vertex 7.60000094267932 1.0 0.00149235857163427
vertex 5.725 1.0 4.0
vertex 5.725 1.0 0.0
endloop
endfacet
facet normal 5.22950160974137e-018 -1.0 -1.30167593077365e-017
outer loop
vertex 5.725 1.0 4.0
vertex 7.60000094267932 1.0 0.00149235857163427
vertex 7.60000094267932 1.0 6.00149235857163
endloop
endfacet
facet normal 5.22950160974137e-018 -1.0 -1.30167593077365e-017
outer loop
vertex 5.725 1.0 4.0
vertex 7.60000094267932 1.0 6.00149235857163
vertex 4.275 1.0 4.0
endloop
endfacet
facet normal 5.22950160974137e-018 -1.0 -1.30167593077365e-017
outer loop
vertex 4.275 1.0 4.0
vertex 7.60000094267932 1.0 6.00149235857163
vertex 2.4 1.0 6.0
endloop
endfacet
facet normal 5.22950160974137e-018 -1.0 -1.30167593077365e-017
outer loop
vertex 4.275 1.0 4.0
vertex 2.4 1.0 0.0
vertex 4.275 1.0 0.0
endloop
endfacet
facet normal 5.22950160974137e-018 -1.0 -1.30167593077365e-017
outer loop
vertex 2.4 1.0 0.0
vertex 4.275 1.0 4.0
vertex 2.4 1.0 6.0
endloop
endfacet
facet normal 0.000575512122104865 3.31013095493202e-006 -0.999999834387406
outer loop
vertex 7.60000094267932 5.1 0.00149235857163427
vertex 5.725 3.75 0.0
vertex 5.725 5.1 0.0
endloop
endfacet
facet normal 0.000575512122104865 3.31013095493202e-006 -0.999999834387406
outer loop
vertex 5.725 3.75 0.0
vertex 7.60000094267932 5.1 0.00149235857163427
vertex 7.1 3.75 0.0
endloop
endfacet
facet normal 0.000575512122104865 3.31013095493202e-006 -0.999999834387406
outer loop
vertex 7.1 3.75 0.0
vertex 7.60000094267932 5.1 0.00149235857163427
vertex 7.1 2.25 0.0
endloop
endfacet
facet normal 0.000575512122104865 3.31013095493202e-006 -0.999999834387406
outer loop
vertex 7.1 2.25 0.0
vertex 5.725 1.0 0.0
vertex 5.725 2.25 0.0
endloop
endfacet
facet normal 0.000575512122104865 3.31013095493202e-006 -0.999999834387406
outer loop
vertex 5.725 1.0 0.0
vertex 7.1 2.25 0.0
vertex 7.60000094267932 1.0 0.00149235857163427
endloop
endfacet
facet normal 0.000575512122104865 3.31013095493202e-006 -0.999999834387406
outer loop
vertex 7.60000094267932 1.0 0.00149235857163427
vertex 7.1 2.25 0.0
vertex 7.60000094267932 5.1 0.00149235857163427
endloop
endfacet
facet normal 3.13770096584482e-017 1.0 -7.81005558464188e-017
outer loop
vertex 2.4 5.1 6.0
vertex 4.275 5.1 0.0
vertex 2.4 5.1 0.0
endloop
endfacet
facet normal 3.13770096584482e-017 1.0 -7.81005558464188e-017
outer loop
vertex 4.275 5.1 0.0
vertex 2.4 5.1 6.0
vertex 4.275 5.1 4.0
endloop
endfacet
facet normal 3.13770096584482e-017 1.0 -7.81005558464188e-017
outer loop
vertex 4.275 5.1 4.0
vertex 2.4 5.1 6.0
vertex 5.725 5.1 4.0
endloop
endfacet
facet normal 3.13770096584482e-017 1.0 -7.81005558464188e-017
outer loop
vertex 5.725 5.1 4.0
vertex 7.60000094267932 5.1 0.00149235857163427
vertex 5.725 5.1 0.0
endloop
endfacet
facet normal 3.13770096584482e-017 1.0 -7.81005558464188e-017
outer loop
vertex 7.60000094267932 5.1 0.00149235857163427
vertex 5.725 5.1 4.0
vertex 7.60000094267932 5.1 6.00149235857163
endloop
endfacet
facet normal 3.13770096584482e-017 1.0 -7.81005558464188e-017
outer loop
vertex 7.60000094267932 5.1 6.00149235857163
vertex 5.725 5.1 4.0
vertex 2.4 5.1 6.0
endloop
endfacet
facet normal 0.0 0.0 1.0
outer loop
vertex -0.452946737555958 2.28210594278972 18.0
vertex -0.452946737555956 3.71789405721029 18.0
vertex -0.5 3.00000000000001 18.0
endloop
endfacet
facet normal 0.0 0.0 1.0
outer loop
vertex -0.452946737555956 3.71789405721029 18.0
vertex -0.452946737555958 2.28210594278972 18.0
vertex -0.312592044589877 1.57649525193614 18.0
endloop
endfacet
facet normal 0.0 0.0 1.0
outer loop
vertex -0.452946737555956 3.71789405721029 18.0
vertex -0.312592044589877 1.57649525193614 18.0
vertex -0.312592044589874 4.42350474806387 18.0
endloop
endfacet
facet normal 0.0 0.0 1.0
outer loop
vertex -0.312592044589874 4.42350474806387 18.0
vertex -0.312592044589877 1.57649525193614 18.0
vertex -0.0813374288120796 0.895241121992014 18.0
endloop
endfacet
facet normal 0.0 0.0 1.0
outer loop
vertex -0.312592044589874 4.42350474806387 18.0
vertex -0.0813374288120796 0.895241121992014 18.0
vertex -0.0813374288120754 5.104758878008 18.0
endloop
endfacet
facet normal 0.0 0.0 1.0
outer loop
vertex -0.0813374288120754 5.104758878008 18.0
vertex -0.0813374288120796 0.895241121992014 18.0
vertex 0.236860279185583 0.250000000000008 18.0
endloop
endfacet
facet normal 0.0 0.0 1.0
outer loop
vertex -0.0813374288120754 5.104758878008 18.0
vertex 0.236860279185583 0.250000000000008 18.0
vertex 0.236860279185589 5.75 18.0
endloop
endfacet
facet normal 0.0 0.0 1.0
outer loop
vertex 0.236860279185589 5.75 18.0
vertex 0.236860279185583 0.250000000000008 18.0
vertex 0.6365566283982 -0.348187859547956 18.0
endloop
endfacet
facet normal 0.0 0.0 1.0
outer loop
vertex 0.236860279185589 5.75 18.0
vertex 0.6365566283982 -0.348187859547956 18.0
vertex 0.636556628398207 6.34818785954797 18.0
endloop
endfacet
facet normal 0.0 0.0 1.0
outer loop
vertex 0.636556628398207 6.34818785954797 18.0
vertex 0.6365566283982 -0.348187859547956 18.0
vertex 1.11091270347398 -0.889087296526003 18.0
endloop
endfacet
facet normal 0.0 0.0 1.0
outer loop
vertex 0.636556628398207 6.34818785954797 18.0
vertex 1.11091270347398 -0.889087296526003 18.0
vertex 1.11091270347399 6.88908729652601 18.0
endloop
endfacet
facet normal 0.0 0.0 1.0
outer loop
vertex 1.11091270347399 6.88908729652601 18.0
vertex 1.11091270347398 -0.889087296526003 18.0
vertex 1.65181214045203 -1.36344337160179 18.0
endloop
endfacet
facet normal 0.0 0.0 1.0
outer loop
vertex 1.11091270347399 6.88908729652601 18.0
vertex 1.65181214045203 -1.36344337160179 18.0
vertex 1.65181214045204 7.36344337160179 18.0
endloop
endfacet
facet normal 0.0 0.0 1.0
outer loop
vertex 1.65181214045204 7.36344337160179 18.0
vertex 1.65181214045203 -1.36344337160179 18.0
vertex 2.24999999999999 -1.76313972081441 18.0
endloop
endfacet
facet normal 0.0 0.0 1.0
outer loop
vertex 1.65181214045204 7.36344337160179 18.0
vertex 2.24999999999999 -1.76313972081441 18.0
vertex 2.25 7.76313972081441 18.0
endloop
endfacet
facet normal 0.0 0.0 1.0
outer loop
vertex 2.25 7.76313972081441 18.0
vertex 2.24999999999999 -1.76313972081441 18.0
vertex 2.89524112199199 -2.08133742881207 18.0
endloop
endfacet
facet normal 0.0 0.0 1.0
outer loop
vertex 2.25 7.76313972081441 18.0
vertex 2.89524112199199 -2.08133742881207 18.0
vertex 2.895241121992 8.08133742881208 18.0
endloop
endfacet
facet normal 0.0 0.0 1.0
outer loop
vertex 2.895241121992 8.08133742881208 18.0
vertex 2.89524112199199 -2.08133742881207 18.0
vertex 3.57649525193612 -2.31259204458987 18.0
endloop
endfacet
facet normal 0.0 0.0 1.0
outer loop
vertex 2.895241121992 8.08133742881208 18.0
vertex 3.57649525193612 -2.31259204458987 18.0
vertex 3.57649525193613 8.31259204458988 18.0
endloop
endfacet
facet normal 0.0 0.0 1.0
outer loop
vertex 3.57649525193613 8.31259204458988 18.0
vertex 3.57649525193612 -2.31259204458987 18.0
vertex 4.2821059427897 -2.45294673755595 18.0
endloop
endfacet
facet normal 0.0 0.0 1.0
outer loop
vertex 3.57649525193613 8.31259204458988 18.0
vertex 4.2821059427897 -2.45294673755595 18.0
vertex 4.28210594278972 8.45294673755596 18.0
endloop
endfacet
facet normal 0.0 0.0 1.0
outer loop
vertex 4.28210594278972 8.45294673755596 18.0
vertex 4.2821059427897 -2.45294673755595 18.0
vertex 4.99999999999998 -2.5 18.0
endloop
endfacet
facet normal 0.0 0.0 1.0
outer loop
vertex 4.28210594278972 8.45294673755596 18.0
vertex 4.99999999999998 -2.5 18.0
vertex 5.0 8.5 18.0
endloop
endfacet
facet normal 0.0 0.0 1.0
outer loop
vertex 5.0 8.5 18.0
vertex 4.99999999999998 -2.5 18.0
vertex 5.71789405721027 -2.45294673755596 18.0
endloop
endfacet
facet normal 0.0 0.0 1.0
outer loop
vertex 5.0 8.5 18.0
vertex 5.71789405721027 -2.45294673755596 18.0
vertex 5.71789405721028 8.45294673755596 18.0
endloop
endfacet
facet normal 0.0 0.0 1.0
outer loop
vertex 5.71789405721028 8.45294673755596 18.0
vertex 5.71789405721027 -2.45294673755596 18.0
vertex 6.42350474806385 -2.31259204458988 18.0
endloop
endfacet
facet normal 0.0 0.0 1.0
outer loop
vertex 5.71789405721028 8.45294673755596 18.0
vertex 6.42350474806385 -2.31259204458988 18.0
vertex 6.42350474806386 8.31259204458988 18.0
endloop
endfacet
facet normal 0.0 0.0 1.0
outer loop
vertex 6.42350474806386 8.31259204458988 18.0
vertex 6.42350474806385 -2.31259204458988 18.0
vertex 7.10475887800798 -2.08133742881208 18.0
endloop
endfacet
facet normal 0.0 0.0 1.0
outer loop
vertex 6.42350474806386 8.31259204458988 18.0
vertex 7.10475887800798 -2.08133742881208 18.0
vertex 7.10475887800799 8.08133742881208 18.0
endloop
endfacet
facet normal 0.0 0.0 1.0
outer loop
vertex 7.10475887800799 8.08133742881208 18.0
vertex 7.10475887800798 -2.08133742881208 18.0
vertex 7.74999999999998 -1.76313972081442 18.0
endloop
endfacet
facet normal 0.0 0.0 1.0
outer loop
vertex 7.10475887800799 8.08133742881208 18.0
vertex 7.74999999999998 -1.76313972081442 18.0
vertex 7.75 7.76313972081441 18.0
endloop
endfacet
facet normal 0.0 0.0 1.0
outer loop
vertex 7.75 7.76313972081441 18.0
vertex 7.74999999999998 -1.76313972081442 18.0
vertex 8.34818785954795 -1.36344337160181 18.0
endloop
endfacet
facet normal 0.0 0.0 1.0
outer loop
vertex 7.75 7.76313972081441 18.0
vertex 8.34818785954795 -1.36344337160181 18.0
vertex 8.34818785954796 7.36344337160179 18.0
endloop
endfacet
facet normal 0.0 0.0 1.0
outer loop
vertex 8.34818785954796 7.36344337160179 18.0
vertex 8.34818785954795 -1.36344337160181 18.0
vertex 8.889087296526 -0.889087296526026 18.0
endloop
endfacet
facet normal 0.0 0.0 1.0
outer loop
vertex 8.34818785954796 7.36344337160179 18.0
vertex 8.889087296526 -0.889087296526026 18.0
vertex 8.88908729652601 6.88908729652601 18.0
endloop
endfacet
facet normal 0.0 0.0 1.0
outer loop
vertex 8.88908729652601 6.88908729652601 18.0
vertex 8.889087296526 -0.889087296526026 18.0
vertex 9.36344337160178 -0.34818785954798 18.0
endloop
endfacet
facet normal 0.0 0.0 1.0
outer loop
vertex 8.88908729652601 6.88908729652601 18.0
vertex 9.36344337160178 -0.34818785954798 18.0
vertex 9.36344337160179 6.34818785954796 18.0
endloop
endfacet
facet normal 0.0 0.0 1.0
outer loop
vertex 9.36344337160179 6.34818785954796 18.0
vertex 9.36344337160178 -0.34818785954798 18.0
vertex 9.7631397208144 0.249999999999981 18.0
endloop
endfacet
facet normal 0.0 0.0 1.0
outer loop
vertex 9.36344337160179 6.34818785954796 18.0
vertex 9.7631397208144 0.249999999999981 18.0
vertex 9.76313972081441 5.75 18.0
endloop
endfacet
facet normal 0.0 0.0 1.0
outer loop
vertex 9.76313972081441 5.75 18.0
vertex 9.7631397208144 0.249999999999981 18.0
vertex 10.0813374288121 0.895241121991985 18.0
endloop
endfacet
facet normal 0.0 0.0 1.0
outer loop
vertex 9.76313972081441 5.75 18.0
vertex 10.0813374288121 0.895241121991985 18.0
vertex 10.0813374288121 5.10475887800799 18.0
endloop
endfacet
facet normal 0.0 0.0 1.0
outer loop
vertex 10.0813374288121 5.10475887800799 18.0
vertex 10.0813374288121 0.895241121991985 18.0
vertex 10.3125920445899 1.57649525193611 18.0
endloop
endfacet
facet normal 0.0 0.0 1.0
outer loop
vertex 10.0813374288121 5.10475887800799 18.0
vertex 10.3125920445899 1.57649525193611 18.0
vertex 10.3125920445899 4.42350474806386 18.0
endloop
endfacet
facet normal 0.0 0.0 1.0
outer loop
vertex 10.3125920445899 4.42350474806386 18.0
vertex 10.3125920445899 1.57649525193611 18.0
vertex 10.452946737556 2.28210594278969 18.0
endloop
endfacet
facet normal 0.0 0.0 1.0
outer loop
vertex 10.3125920445899 4.42350474806386 18.0
vertex 10.452946737556 2.28210594278969 18.0
vertex 10.452946737556 3.71789405721028 18.0
endloop
endfacet
facet normal 0.0 0.0 1.0
outer loop
vertex 10.452946737556 3.71789405721028 18.0
vertex 10.452946737556 2.28210594278969 18.0
vertex 10.5 3.0 18.0
endloop
endfacet
facet normal -5.83229758105714e-032 1.15378060842652e-031 -1.0
outer loop
vertex 3.18826715562201 9.81148078402348 6.00074617928582
vertex 2.4 5.1 6.0
vertex 2.32121644478403 9.51715672757901 6.00074617928582
endloop
endfacet
facet normal -5.83229758105714e-032 1.15378060842652e-031 -1.0
outer loop
vertex 2.4 5.1 6.0
vertex 3.18826715562201 9.81148078402348 6.00074617928582
vertex 7.60000094267932 5.1 6.00149235857163
endloop
endfacet
facet normal -5.83229758105714e-032 1.15378060842652e-031 -1.0
outer loop
vertex 7.60000094267932 5.1 6.00149235857163
vertex 3.18826715562201 9.81148078402348 6.00074617928582
vertex 4.0863171257993 9.99011402961668 6.00074617928582
endloop
endfacet
facet normal -5.83229758105714e-032 1.15378060842652e-031 -1.0
outer loop
vertex 7.60000094267932 5.1 6.00149235857163
vertex 4.0863171257993 9.99011402961668 6.00074617928582
vertex 5.00000047133966 10.05 6.00074617928582
endloop
endfacet
facet normal -5.83229758105714e-032 1.15378060842652e-031 -1.0
outer loop
vertex 7.60000094267932 5.1 6.00149235857163
vertex 5.00000047133966 10.05 6.00074617928582
vertex 5.91368381688002 9.99011402961668 6.00074617928582
endloop
endfacet
facet normal -5.83229758105714e-032 1.15378060842652e-031 -1.0
outer loop
vertex 7.60000094267932 5.1 6.00149235857163
vertex 5.91368381688002 9.99011402961668 6.00074617928582
vertex 6.8117337870573 9.81148078402348 6.00074617928582
endloop
endfacet
facet normal -5.83229758105714e-032 1.15378060842652e-031 -1.0
outer loop
vertex 7.60000094267932 5.1 6.00149235857163
vertex 6.8117337870573 9.81148078402348 6.00074617928582
vertex 7.67878449789529 9.51715672757901 6.00074617928582
endloop
endfacet
facet normal -5.83229758105714e-032 1.15378060842652e-031 -1.0
outer loop
vertex 7.60000094267932 5.1 6.00149235857163
vertex 7.67878449789529 9.51715672757901 6.00074617928582
vertex 7.60000094267932 1.0 6.00149235857163
endloop
endfacet
facet normal -5.83229758105714e-032 1.15378060842652e-031 -1.0
outer loop
vertex 7.60000094267932 1.0 6.00149235857163
vertex 7.67878449789529 9.51715672757901 6.00074617928582
vertex 7.67878449789527 -3.41715672757902 6.00074617928582
endloop
endfacet
facet normal -5.83229758105714e-032 1.15378060842652e-031 -1.0
outer loop
vertex 7.67878449789527 -3.41715672757902 6.00074617928582
vertex 7.67878449789529 9.51715672757901 6.00074617928582
vertex 8.50000047133964 -3.01217782649108 6.00074617928582
endloop
endfacet
facet normal -5.83229758105714e-032 1.15378060842652e-031 -1.0
outer loop
vertex 8.50000047133964 -3.01217782649108 6.00074617928582
vertex 7.67878449789529 9.51715672757901 6.00074617928582
vertex 8.50000047133966 9.11217782649107 6.00074617928582
endloop
endfacet
facet normal -5.83229758105714e-032 1.15378060842652e-031 -1.0
outer loop
vertex 8.50000047133964 -3.01217782649108 6.00074617928582
vertex 8.50000047133966 9.11217782649107 6.00074617928582
vertex 9.26133047440068 -2.50347338203866 6.00074617928582
endloop
endfacet
facet normal -5.83229758105714e-032 1.15378060842652e-031 -1.0
outer loop
vertex 9.26133047440068 -2.50347338203866 6.00074617928582
vertex 8.50000047133966 9.11217782649107 6.00074617928582
vertex 9.2613304744007 8.60347338203865 6.00074617928582
endloop
endfacet
facet normal -5.83229758105714e-032 1.15378060842652e-031 -1.0
outer loop
vertex 9.26133047440068 -2.50347338203866 6.00074617928582
vertex 9.2613304744007 8.60347338203865 6.00074617928582
vertex 9.94974793964547 -1.89974746830585 6.00074617928582
endloop
endfacet
facet normal -5.83229758105714e-032 1.15378060842652e-031 -1.0
outer loop
vertex 9.94974793964547 -1.89974746830585 6.00074617928582
vertex 9.2613304744007 8.60347338203865 6.00074617928582
vertex 9.94974793964549 7.99974746830583 6.00074617928582
endloop
endfacet
facet normal -5.83229758105714e-032 1.15378060842652e-031 -1.0
outer loop
vertex 9.94974793964547 -1.89974746830585 6.00074617928582
vertex 9.94974793964549 7.99974746830583 6.00074617928582
vertex 10.5534738533783 -1.21133000306107 6.00074617928582
endloop
endfacet
facet normal -5.83229758105714e-032 1.15378060842652e-031 -1.0
outer loop
vertex 10.5534738533783 -1.21133000306107 6.00074617928582
vertex 9.94974793964549 7.99974746830583 6.00074617928582
vertex 10.5534738533783 7.31133000306104 6.00074617928582
endloop
endfacet
facet normal -5.83229758105714e-032 1.15378060842652e-031 -1.0
outer loop
vertex 10.5534738533783 -1.21133000306107 6.00074617928582
vertex 10.5534738533783 7.31133000306104 6.00074617928582
vertex 11.0621782978307 -0.450000000000024 6.00074617928582
endloop
endfacet
facet normal -5.83229758105714e-032 1.15378060842652e-031 -1.0
outer loop
vertex 11.0621782978307 -0.450000000000024 6.00074617928582
vertex 10.5534738533783 7.31133000306104 6.00074617928582
vertex 11.0621782978307 6.55 6.00074617928582
endloop
endfacet
facet normal -5.83229758105714e-032 1.15378060842652e-031 -1.0
outer loop
vertex 11.0621782978307 -0.450000000000024 6.00074617928582
vertex 11.0621782978307 6.55 6.00074617928582
vertex 11.4671571989187 0.371215973444345 6.00074617928582
endloop
endfacet
facet normal -5.83229758105714e-032 1.15378060842652e-031 -1.0
outer loop
vertex 11.4671571989187 0.371215973444345 6.00074617928582
vertex 11.0621782978307 6.55 6.00074617928582
vertex 11.4671571989187 5.72878402655563 6.00074617928582
endloop
endfacet
facet normal -5.83229758105714e-032 1.15378060842652e-031 -1.0
outer loop
vertex 11.4671571989187 0.371215973444345 6.00074617928582
vertex 11.4671571989187 5.72878402655563 6.00074617928582
vertex 11.7614812553631 1.23826668428233 6.00074617928582
endloop
endfacet
facet normal -5.83229758105714e-032 1.15378060842652e-031 -1.0
outer loop
vertex 11.7614812553631 1.23826668428233 6.00074617928582
vertex 11.4671571989187 5.72878402655563 6.00074617928582
vertex 11.7614812553631 4.86173331571765 6.00074617928582
endloop
endfacet
facet normal -5.83229758105714e-032 1.15378060842652e-031 -1.0
outer loop
vertex 11.7614812553631 1.23826668428233 6.00074617928582
vertex 11.7614812553631 4.86173331571765 6.00074617928582
vertex 11.9401145009563 2.13631665445961 6.00074617928582
endloop
endfacet
facet normal -5.83229758105714e-032 1.15378060842652e-031 -1.0
outer loop
vertex 11.9401145009563 2.13631665445961 6.00074617928582
vertex 11.7614812553631 4.86173331571765 6.00074617928582
vertex 11.9401145009563 3.96368334554036 6.00074617928582
endloop
endfacet
facet normal -5.83229758105714e-032 1.15378060842652e-031 -1.0
outer loop
vertex 11.9401145009563 2.13631665445961 6.00074617928582
vertex 11.9401145009563 3.96368334554036 6.00074617928582
vertex 12.0000004713397 3.05 6.00074617928582
endloop
endfacet
facet normal -5.83229758105714e-032 1.15378060842652e-031 -1.0
outer loop
vertex -1.94011355827701 3.96368334554037 6.00074617928582
vertex -1.94011355827702 2.13631665445965 6.00074617928582
vertex -1.99999952866034 3.05000000000001 6.00074617928582
endloop
endfacet
facet normal -5.83229758105714e-032 1.15378060842652e-031 -1.0
outer loop
vertex -1.94011355827702 2.13631665445965 6.00074617928582
vertex -1.94011355827701 3.96368334554037 6.00074617928582
vertex -1.76148031268382 1.23826668428236 6.00074617928582
endloop
endfacet
facet normal -5.83229758105714e-032 1.15378060842652e-031 -1.0
outer loop
vertex -1.76148031268382 1.23826668428236 6.00074617928582
vertex -1.94011355827701 3.96368334554037 6.00074617928582
vertex -1.76148031268382 4.86173331571765 6.00074617928582
endloop
endfacet
facet normal -5.83229758105714e-032 1.15378060842652e-031 -1.0
outer loop
vertex -1.76148031268382 1.23826668428236 6.00074617928582
vertex -1.76148031268382 4.86173331571765 6.00074617928582
vertex -1.46715625623935 0.371215973444382 6.00074617928582
endloop
endfacet
facet normal -5.83229758105714e-032 1.15378060842652e-031 -1.0
outer loop
vertex -1.46715625623935 0.371215973444382 6.00074617928582
vertex -1.76148031268382 4.86173331571765 6.00074617928582
vertex -1.46715625623935 5.72878402655563 6.00074617928582
endloop
endfacet
facet normal -5.83229758105714e-032 1.15378060842652e-031 -1.0
outer loop
vertex -1.46715625623935 0.371215973444382 6.00074617928582
vertex -1.46715625623935 5.72878402655563 6.00074617928582
vertex -1.06217735515142 -0.449999999999989 6.00074617928582
endloop
endfacet
facet normal -5.83229758105714e-032 1.15378060842652e-031 -1.0
outer loop
vertex -1.06217735515142 -0.449999999999989 6.00074617928582
vertex -1.46715625623935 5.72878402655563 6.00074617928582
vertex -1.06217735515141 6.55 6.00074617928582
endloop
endfacet
facet normal -5.83229758105714e-032 1.15378060842652e-031 -1.0
outer loop
vertex -1.06217735515142 -0.449999999999989 6.00074617928582
vertex -1.06217735515141 6.55 6.00074617928582
vertex -0.553472910698994 -1.21133000306103 6.00074617928582
endloop
endfacet
facet normal -5.83229758105714e-032 1.15378060842652e-031 -1.0
outer loop
vertex -0.553472910698994 -1.21133000306103 6.00074617928582
vertex -1.06217735515141 6.55 6.00074617928582
vertex -0.553472910698986 7.31133000306105 6.00074617928582
endloop
endfacet
facet normal -5.83229758105714e-032 1.15378060842652e-031 -1.0
outer loop
vertex -0.553472910698994 -1.21133000306103 6.00074617928582
vertex -0.553472910698986 7.31133000306105 6.00074617928582
vertex 0.0502530030338171 -1.89974746830582 6.00074617928582
endloop
endfacet
facet normal -5.83229758105714e-032 1.15378060842652e-031 -1.0
outer loop
vertex 0.0502530030338171 -1.89974746830582 6.00074617928582
vertex -0.553472910698986 7.31133000306105 6.00074617928582
vertex 0.0502530030338269 7.99974746830583 6.00074617928582
endloop
endfacet
facet normal -5.83229758105714e-032 1.15378060842652e-031 -1.0
outer loop
vertex 0.0502530030338171 -1.89974746830582 6.00074617928582
vertex 0.0502530030338269 7.99974746830583 6.00074617928582
vertex 0.738670468278603 -2.50347338203864 6.00074617928582
endloop
endfacet
facet normal -5.83229758105714e-032 1.15378060842652e-031 -1.0
outer loop
vertex 0.738670468278603 -2.50347338203864 6.00074617928582
vertex 0.0502530030338269 7.99974746830583 6.00074617928582
vertex 0.738670468278614 8.60347338203865 6.00074617928582
endloop
endfacet
facet normal -5.83229758105714e-032 1.15378060842652e-031 -1.0
outer loop
vertex 0.738670468278603 -2.50347338203864 6.00074617928582
vertex 0.738670468278614 8.60347338203865 6.00074617928582
vertex 1.50000047133965 -3.01217782649106 6.00074617928582
endloop
endfacet
facet normal -5.83229758105714e-032 1.15378060842652e-031 -1.0
outer loop
vertex 1.50000047133965 -3.01217782649106 6.00074617928582
vertex 0.738670468278614 8.60347338203865 6.00074617928582
vertex 1.50000047133966 9.11217782649107 6.00074617928582
endloop
endfacet
facet normal -5.83229758105714e-032 1.15378060842652e-031 -1.0
outer loop
vertex 1.50000047133965 -3.01217782649106 6.00074617928582
vertex 1.50000047133966 9.11217782649107 6.00074617928582
vertex 2.32121644478402 -3.417156727579 6.00074617928582
endloop
endfacet
facet normal -5.83229758105714e-032 1.15378060842652e-031 -1.0
outer loop
vertex 2.32121644478402 -3.417156727579 6.00074617928582
vertex 1.50000047133966 9.11217782649107 6.00074617928582
vertex 2.32121644478403 9.51715672757901 6.00074617928582
endloop
endfacet
facet normal -5.83229758105714e-032 1.15378060842652e-031 -1.0
outer loop
vertex 2.32121644478402 -3.417156727579 6.00074617928582
vertex 2.32121644478403 9.51715672757901 6.00074617928582
vertex 2.4 1.0 6.0
endloop
endfacet
facet normal -5.83229758105714e-032 1.15378060842652e-031 -1.0
outer loop
vertex 2.32121644478402 -3.417156727579 6.00074617928582
vertex 2.4 1.0 6.0
vertex 3.188267155622 -3.71148078402347 6.00074617928582
endloop
endfacet
facet normal -5.83229758105714e-032 1.15378060842652e-031 -1.0
outer loop
vertex 2.4 1.0 6.0
vertex 2.32121644478403 9.51715672757901 6.00074617928582
vertex 2.4 5.1 6.0
endloop
endfacet
facet normal -5.83229758105714e-032 1.15378060842652e-031 -1.0
outer loop
vertex 3.188267155622 -3.71148078402347 6.00074617928582
vertex 2.4 1.0 6.0
vertex 7.60000094267932 1.0 6.00149235857163
endloop
endfacet
facet normal -5.83229758105714e-032 1.15378060842652e-031 -1.0
outer loop
vertex 3.188267155622 -3.71148078402347 6.00074617928582
vertex 7.60000094267932 1.0 6.00149235857163
vertex 4.08631712579928 -3.89011402961667 6.00074617928582
endloop
endfacet
facet normal -5.83229758105714e-032 1.15378060842652e-031 -1.0
outer loop
vertex 4.08631712579928 -3.89011402961667 6.00074617928582
vertex 7.60000094267932 1.0 6.00149235857163
vertex 5.00000047133964 -3.95 6.00074617928582
endloop
endfacet
facet normal -5.83229758105714e-032 1.15378060842652e-031 -1.0
outer loop
vertex 5.00000047133964 -3.95 6.00074617928582
vertex 7.60000094267932 1.0 6.00149235857163
vertex 5.91368381688 -3.89011402961668 6.00074617928582
endloop
endfacet
facet normal -5.83229758105714e-032 1.15378060842652e-031 -1.0
outer loop
vertex 5.91368381688 -3.89011402961668 6.00074617928582
vertex 7.60000094267932 1.0 6.00149235857163
vertex 6.81173378705728 -3.71148078402348 6.00074617928582
endloop
endfacet
facet normal -5.83229758105714e-032 1.15378060842652e-031 -1.0
outer loop
vertex 6.81173378705728 -3.71148078402348 6.00074617928582
vertex 7.60000094267932 1.0 6.00149235857163
vertex 7.67878449789527 -3.41715672757902 6.00074617928582
endloop
endfacet
facet normal 0.99144486137381 0.130526192220052 0.0
outer loop
vertex 10.452946737556 3.71789405721028 7.00000000000001
vertex 10.5 3.0 18.0
vertex 10.5 3.0 7.00000000000001
endloop
endfacet
facet normal 1.0 -1.79290074644694e-015 0.0
outer loop
vertex 10.5 3.0 18.0
vertex 10.452946737556 3.71789405721028 7.00000000000001
vertex 10.452946737556 3.71789405721028 18.0
endloop
endfacet
facet normal 0.965925826289069 0.25881904510252 0.0
outer loop
vertex 10.3125920445899 4.42350474806386 7.00000000000001
vertex 10.452946737556 3.71789405721028 18.0
vertex 10.452946737556 3.71789405721028 7.00000000000001
endloop
endfacet
facet normal 0.99144486137381 0.130526192220052 0.0
outer loop
vertex 10.452946737556 3.71789405721028 18.0
vertex 10.3125920445899 4.42350474806386 7.00000000000001
vertex 10.3125920445899 4.42350474806386 18.0
endloop
endfacet
facet normal 0.923879532511286 0.38268343236509 0.0
outer loop
vertex 10.0813374288121 5.10475887800799 7.00000000000001
vertex 10.3125920445899 4.42350474806386 18.0
vertex 10.3125920445899 4.42350474806386 7.00000000000001
endloop
endfacet
facet normal 0.965925826289069 0.25881904510252 0.0
outer loop
vertex 10.3125920445899 4.42350474806386 18.0
vertex 10.0813374288121 5.10475887800799 7.00000000000001
vertex 10.0813374288121 5.10475887800799 18.0
endloop
endfacet
facet normal 0.866025403784438 0.5 0.0
outer loop
vertex 9.76313972081441 5.75 7.00000000000001
vertex 10.0813374288121 5.10475887800799 18.0
vertex 10.0813374288121 5.10475887800799 7.00000000000001
endloop
endfacet
facet normal 0.923879532511286 0.38268343236509 0.0
outer loop
vertex 10.0813374288121 5.10475887800799 18.0
vertex 9.76313972081441 5.75 7.00000000000001
vertex 9.76313972081441 5.75 18.0
endloop
endfacet
facet normal 0.793353340291236 0.60876142900872 0.0
outer loop
vertex 9.36344337160179 6.34818785954796 7.00000000000001
vertex 9.76313972081441 5.75 18.0
vertex 9.76313972081441 5.75 7.00000000000001
endloop
endfacet
facet normal 0.866025403784438 0.5 0.0
outer loop
vertex 9.76313972081441 5.75 18.0
vertex 9.36344337160179 6.34818785954796 7.00000000000001
vertex 9.36344337160179 6.34818785954796 18.0
endloop
endfacet
facet normal 0.707106781186547 0.707106781186548 0.0
outer loop
vertex 8.88908729652601 6.88908729652601 7.00000000000001
vertex 9.36344337160179 6.34818785954796 18.0
vertex 9.36344337160179 6.34818785954796 7.00000000000001
endloop
endfacet
facet normal 0.793353340291236 0.60876142900872 0.0
outer loop
vertex 9.36344337160179 6.34818785954796 18.0
vertex 8.88908729652601 6.88908729652601 7.00000000000001
vertex 8.88908729652601 6.88908729652601 18.0
endloop
endfacet
facet normal 0.608761429008721 0.793353340291235 0.0
outer loop
vertex 8.34818785954796 7.36344337160179 18.0
vertex 8.88908729652601 6.88908729652601 7.00000000000001
vertex 8.34818785954796 7.36344337160179 7.00000000000001
endloop
endfacet
facet normal 0.707106781186547 0.707106781186548 0.0
outer loop
vertex 8.88908729652601 6.88908729652601 7.00000000000001
vertex 8.34818785954796 7.36344337160179 18.0
vertex 8.88908729652601 6.88908729652601 18.0
endloop
endfacet
facet normal 0.5 0.866025403784439 0.0
outer loop
vertex 7.75 7.76313972081441 18.0
vertex 8.34818785954796 7.36344337160179 7.00000000000001
vertex 7.75 7.76313972081441 7.00000000000001
endloop
endfacet
facet normal 0.608761429008721 0.793353340291235 0.0
outer loop
vertex 8.34818785954796 7.36344337160179 7.00000000000001
vertex 7.75 7.76313972081441 18.0
vertex 8.34818785954796 7.36344337160179 18.0
endloop
endfacet
facet normal 0.38268343236509 0.923879532511287 0.0
outer loop
vertex 7.10475887800799 8.08133742881208 18.0
vertex 7.75 7.76313972081441 7.00000000000001
vertex 7.10475887800799 8.08133742881208 7.00000000000001
endloop
endfacet
facet normal 0.5 0.866025403784439 0.0
outer loop
vertex 7.75 7.76313972081441 7.00000000000001
vertex 7.10475887800799 8.08133742881208 18.0
vertex 7.75 7.76313972081441 18.0
endloop
endfacet
facet normal 0.25881904510252 0.965925826289068 0.0
outer loop
vertex 6.42350474806386 8.31259204458988 18.0
vertex 7.10475887800799 8.08133742881208 7.00000000000001
vertex 6.42350474806386 8.31259204458988 7.00000000000001
endloop
endfacet
facet normal 0.38268343236509 0.923879532511287 0.0
outer loop
vertex 7.10475887800799 8.08133742881208 7.00000000000001
vertex 6.42350474806386 8.31259204458988 18.0
vertex 7.10475887800799 8.08133742881208 18.0
endloop
endfacet
facet normal 0.130526192220051 0.99144486137381 0.0
outer loop
vertex 5.71789405721028 8.45294673755596 18.0
vertex 6.42350474806386 8.31259204458988 7.00000000000001
vertex 5.71789405721028 8.45294673755596 7.00000000000001
endloop
endfacet
facet normal 0.25881904510252 0.965925826289068 0.0
outer loop
vertex 6.42350474806386 8.31259204458988 7.00000000000001
vertex 5.71789405721028 8.45294673755596 18.0
vertex 6.42350474806386 8.31259204458988 18.0
endloop
endfacet
facet normal 0.0 1.0 0.0
outer loop
vertex 5.0 8.5 18.0
vertex 5.71789405721028 8.45294673755596 7.00000000000001
vertex 5.0 8.5 7.00000000000001
endloop
endfacet
facet normal 0.130526192220051 0.99144486137381 0.0
outer loop
vertex 5.71789405721028 8.45294673755596 7.00000000000001
vertex 5.0 8.5 18.0
vertex 5.71789405721028 8.45294673755596 18.0
endloop
endfacet
facet normal -0.130526192220052 0.99144486137381 0.0
outer loop
vertex 4.28210594278972 8.45294673755596 18.0
vertex 5.0 8.5 7.00000000000001
vertex 4.28210594278972 8.45294673755596 7.00000000000001
endloop
endfacet
facet normal 0.0 1.0 0.0
outer loop
vertex 5.0 8.5 7.00000000000001
vertex 4.28210594278972 8.45294673755596 18.0
vertex 5.0 8.5 18.0
endloop
endfacet
facet normal -0.258819045102521 0.965925826289068 0.0
outer loop
vertex 3.57649525193613 8.31259204458988 18.0
vertex 4.28210594278972 8.45294673755596 7.00000000000001
vertex 3.57649525193613 8.31259204458988 7.00000000000001
endloop
endfacet
facet normal -0.130526192220052 0.99144486137381 0.0
outer loop
vertex 4.28210594278972 8.45294673755596 7.00000000000001
vertex 3.57649525193613 8.31259204458988 18.0
vertex 4.28210594278972 8.45294673755596 18.0
endloop
endfacet
facet normal -0.382683432365091 0.923879532511286 0.0
outer loop
vertex 2.895241121992 8.08133742881208 18.0
vertex 3.57649525193613 8.31259204458988 7.00000000000001
vertex 2.895241121992 8.08133742881208 7.00000000000001
endloop
endfacet
facet normal -0.258819045102521 0.965925826289068 0.0
outer loop
vertex 3.57649525193613 8.31259204458988 7.00000000000001
vertex 2.895241121992 8.08133742881208 18.0
vertex 3.57649525193613 8.31259204458988 18.0
endloop
endfacet
facet normal -0.5 0.866025403784439 0.0
outer loop
vertex 2.25 7.76313972081441 18.0
vertex 2.895241121992 8.08133742881208 7.00000000000001
vertex 2.25 7.76313972081441 7.00000000000001
endloop
endfacet
facet normal -0.382683432365091 0.923879532511286 0.0
outer loop
vertex 2.895241121992 8.08133742881208 7.00000000000001
vertex 2.25 7.76313972081441 18.0
vertex 2.895241121992 8.08133742881208 18.0
endloop
endfacet
facet normal -0.60876142900872 0.793353340291235 0.0
outer loop
vertex 1.65181214045204 7.36344337160179 18.0
vertex 2.25 7.76313972081441 7.00000000000001
vertex 1.65181214045204 7.36344337160179 7.00000000000001
endloop
endfacet
facet normal -0.5 0.866025403784439 0.0
outer loop
vertex 2.25 7.76313972081441 7.00000000000001
vertex 1.65181214045204 7.36344337160179 18.0
vertex 2.25 7.76313972081441 18.0
endloop
endfacet
facet normal -0.707106781186547 0.707106781186548 0.0
outer loop
vertex 1.11091270347399 6.88908729652601 18.0
vertex 1.65181214045204 7.36344337160179 7.00000000000001
vertex 1.11091270347399 6.88908729652601 7.00000000000001
endloop
endfacet
facet normal -0.60876142900872 0.793353340291235 0.0
outer loop
vertex 1.65181214045204 7.36344337160179 7.00000000000001
vertex 1.11091270347399 6.88908729652601 18.0
vertex 1.65181214045204 7.36344337160179 18.0
endloop
endfacet
facet normal -0.707106781186547 0.707106781186548 0.0
outer loop
vertex 1.11091270347399 6.88908729652601 18.0
vertex 0.636556628398207 6.34818785954797 7.00000000000001
vertex 0.636556628398207 6.34818785954797 18.0
endloop
endfacet
facet normal -0.793353340291235 0.608761429008721 0.0
outer loop
vertex 0.636556628398207 6.34818785954797 7.00000000000001
vertex 1.11091270347399 6.88908729652601 18.0
vertex 1.11091270347399 6.88908729652601 7.00000000000001
endloop
endfacet
facet normal -0.793353340291235 0.608761429008721 0.0
outer loop
vertex 0.636556628398207 6.34818785954797 18.0
vertex 0.236860279185589 5.75 7.00000000000001
vertex 0.236860279185589 5.75 18.0
endloop
endfacet
facet normal -0.866025403784439 0.5 0.0
outer loop
vertex 0.236860279185589 5.75 7.00000000000001
vertex 0.636556628398207 6.34818785954797 18.0
vertex 0.636556628398207 6.34818785954797 7.00000000000001
endloop
endfacet
facet normal -0.866025403784439 0.5 0.0
outer loop
vertex 0.236860279185589 5.75 18.0
vertex -0.0813374288120754 5.104758878008 7.00000000000001
vertex -0.0813374288120754 5.104758878008 18.0
endloop
endfacet
facet normal -0.923879532511287 0.38268343236509 0.0
outer loop
vertex -0.0813374288120754 5.104758878008 7.00000000000001
vertex 0.236860279185589 5.75 18.0
vertex 0.236860279185589 5.75 7.00000000000001
endloop
endfacet
facet normal -0.923879532511287 0.38268343236509 0.0
outer loop
vertex -0.0813374288120754 5.104758878008 18.0
vertex -0.312592044589874 4.42350474806387 7.00000000000001
vertex -0.312592044589874 4.42350474806387 18.0
endloop
endfacet
facet normal -0.965925826289068 0.258819045102522 0.0
outer loop
vertex -0.312592044589874 4.42350474806387 7.00000000000001
vertex -0.0813374288120754 5.104758878008 18.0
vertex -0.0813374288120754 5.104758878008 7.00000000000001
endloop
endfacet
facet normal -0.965925826289068 0.258819045102522 0.0
outer loop
vertex -0.312592044589874 4.42350474806387 18.0
vertex -0.452946737555956 3.71789405721029 7.00000000000001
vertex -0.452946737555956 3.71789405721029 18.0
endloop
endfacet
facet normal -0.99144486137381 0.130526192220052 0.0
outer loop
vertex -0.452946737555956 3.71789405721029 7.00000000000001
vertex -0.312592044589874 4.42350474806387 18.0
vertex -0.312592044589874 4.42350474806387 7.00000000000001
endloop
endfacet
facet normal -0.99144486137381 0.130526192220052 0.0
outer loop
vertex -0.452946737555956 3.71789405721029 18.0
vertex -0.5 3.00000000000001 7.00000000000001
vertex -0.5 3.00000000000001 18.0
endloop
endfacet
facet normal -1.0 9.91629054824972e-016 0.0
outer loop
vertex -0.5 3.00000000000001 7.00000000000001
vertex -0.452946737555956 3.71789405721029 18.0
vertex -0.452946737555956 3.71789405721029 7.00000000000001
endloop
endfacet
facet normal -1.0 9.91629054824972e-016 0.0
outer loop
vertex -0.5 3.00000000000001 18.0
vertex -0.452946737555958 2.28210594278972 7.00000000000001
vertex -0.452946737555958 2.28210594278972 18.0
endloop
endfacet
facet normal -0.99144486137381 -0.13052619222005 0.0
outer loop
vertex -0.452946737555958 2.28210594278972 7.00000000000001
vertex -0.5 3.00000000000001 18.0
vertex -0.5 3.00000000000001 7.00000000000001
endloop
endfacet
facet normal -0.99144486137381 -0.13052619222005 0.0
outer loop
vertex -0.452946737555958 2.28210594278972 18.0
vertex -0.312592044589877 1.57649525193614 7.00000000000001
vertex -0.312592044589877 1.57649525193614 18.0
endloop
endfacet
facet normal -0.965925826289069 -0.25881904510252 0.0
outer loop
vertex -0.312592044589877 1.57649525193614 7.00000000000001
vertex -0.452946737555958 2.28210594278972 18.0
vertex -0.452946737555958 2.28210594278972 7.00000000000001
endloop
endfacet
facet normal -0.965925826289069 -0.25881904510252 0.0
outer loop
vertex -0.312592044589877 1.57649525193614 18.0
vertex -0.0813374288120796 0.895241121992014 7.00000000000001
vertex -0.0813374288120796 0.895241121992014 18.0
endloop
endfacet
facet normal -0.923879532511287 -0.382683432365088 0.0
outer loop
vertex -0.0813374288120796 0.895241121992014 7.00000000000001
vertex -0.312592044589877 1.57649525193614 18.0
vertex -0.312592044589877 1.57649525193614 7.00000000000001
endloop
endfacet
facet normal -0.923879532511287 -0.382683432365088 0.0
outer loop
vertex -0.0813374288120796 0.895241121992014 18.0
vertex 0.236860279185583 0.250000000000008 7.00000000000001
vertex 0.236860279185583 0.250000000000008 18.0
endloop
endfacet
facet normal -0.86602540378444 -0.499999999999998 0.0
outer loop
vertex 0.236860279185583 0.250000000000008 7.00000000000001
vertex -0.0813374288120796 0.895241121992014 18.0
vertex -0.0813374288120796 0.895241121992014 7.00000000000001
endloop
endfacet
facet normal -0.86602540378444 -0.499999999999998 0.0
outer loop
vertex 0.236860279185583 0.250000000000008 18.0
vertex 0.6365566283982 -0.348187859547956 7.00000000000001
vertex 0.6365566283982 -0.348187859547956 18.0
endloop
endfacet
facet normal -0.793353340291236 -0.608761429008719 0.0
outer loop
vertex 0.6365566283982 -0.348187859547956 7.00000000000001
vertex 0.236860279185583 0.250000000000008 18.0
vertex 0.236860279185583 0.250000000000008 7.00000000000001
endloop
endfacet
facet normal -0.793353340291236 -0.608761429008719 0.0
outer loop
vertex 0.6365566283982 -0.348187859547956 18.0
vertex 1.11091270347398 -0.889087296526003 7.00000000000001
vertex 1.11091270347398 -0.889087296526003 18.0
endloop
endfacet
facet normal -0.707106781186549 -0.707106781186546 0.0
outer loop
vertex 1.11091270347398 -0.889087296526003 7.00000000000001
vertex 0.6365566283982 -0.348187859547956 18.0
vertex 0.6365566283982 -0.348187859547956 7.00000000000001
endloop
endfacet
facet normal -0.608761429008722 -0.793353340291234 0.0
outer loop
vertex 1.65181214045203 -1.36344337160179 18.0
vertex 1.11091270347398 -0.889087296526003 7.00000000000001
vertex 1.65181214045203 -1.36344337160179 7.00000000000001
endloop
endfacet
facet normal -0.707106781186549 -0.707106781186546 0.0
outer loop
vertex 1.11091270347398 -0.889087296526003 7.00000000000001
vertex 1.65181214045203 -1.36344337160179 18.0
vertex 1.11091270347398 -0.889087296526003 18.0
endloop
endfacet
facet normal -0.500000000000002 -0.866025403784438 0.0
outer loop
vertex 2.24999999999999 -1.76313972081441 18.0
vertex 1.65181214045203 -1.36344337160179 7.00000000000001
vertex 2.24999999999999 -1.76313972081441 7.00000000000001
endloop
endfacet
facet normal -0.608761429008722 -0.793353340291234 0.0
outer loop
vertex 1.65181214045203 -1.36344337160179 7.00000000000001
vertex 2.24999999999999 -1.76313972081441 18.0
vertex 1.65181214045203 -1.36344337160179 18.0
endloop
endfacet
facet normal -0.382683432365092 -0.923879532511286 0.0
outer loop
vertex 2.89524112199199 -2.08133742881207 18.0
vertex 2.24999999999999 -1.76313972081441 7.00000000000001
vertex 2.89524112199199 -2.08133742881207 7.00000000000001
endloop
endfacet
facet normal -0.500000000000002 -0.866025403784438 0.0
outer loop
vertex 2.24999999999999 -1.76313972081441 7.00000000000001
vertex 2.89524112199199 -2.08133742881207 18.0
vertex 2.24999999999999 -1.76313972081441 18.0
endloop
endfacet
facet normal -0.258819045102523 -0.965925826289068 0.0
outer loop
vertex 3.57649525193612 -2.31259204458987 18.0
vertex 2.89524112199199 -2.08133742881207 7.00000000000001
vertex 3.57649525193612 -2.31259204458987 7.00000000000001
endloop
endfacet
facet normal -0.382683432365092 -0.923879532511286 0.0
outer loop
vertex 2.89524112199199 -2.08133742881207 7.00000000000001
vertex 3.57649525193612 -2.31259204458987 18.0
vertex 2.89524112199199 -2.08133742881207 18.0
endloop
endfacet
facet normal -0.130526192220054 -0.99144486137381 0.0
outer loop
vertex 4.2821059427897 -2.45294673755595 18.0
vertex 3.57649525193612 -2.31259204458987 7.00000000000001
vertex 4.2821059427897 -2.45294673755595 7.00000000000001
endloop
endfacet
facet normal -0.258819045102523 -0.965925826289068 0.0
outer loop
vertex 3.57649525193612 -2.31259204458987 7.00000000000001
vertex 4.2821059427897 -2.45294673755595 18.0
vertex 3.57649525193612 -2.31259204458987 18.0
endloop
endfacet
facet normal -2.93947184108831e-015 -1.0 0.0
outer loop
vertex 4.99999999999998 -2.5 18.0
vertex 4.2821059427897 -2.45294673755595 7.00000000000001
vertex 4.99999999999998 -2.5 7.00000000000001
endloop
endfacet
facet normal -0.130526192220054 -0.99144486137381 0.0
outer loop
vertex 4.2821059427897 -2.45294673755595 7.00000000000001
vertex 4.99999999999998 -2.5 18.0
vertex 4.2821059427897 -2.45294673755595 18.0
endloop
endfacet
facet normal 0.130526192220048 -0.991444861373811 0.0
outer loop
vertex 5.71789405721027 -2.45294673755596 18.0
vertex 4.99999999999998 -2.5 7.00000000000001
vertex 5.71789405721027 -2.45294673755596 7.00000000000001
endloop
endfacet
facet normal -2.93947184108831e-015 -1.0 0.0
outer loop
vertex 4.99999999999998 -2.5 7.00000000000001
vertex 5.71789405721027 -2.45294673755596 18.0
vertex 4.99999999999998 -2.5 18.0
endloop
endfacet
facet normal 0.258819045102517 -0.965925826289069 0.0
outer loop
vertex 6.42350474806385 -2.31259204458988 18.0
vertex 5.71789405721027 -2.45294673755596 7.00000000000001
vertex 6.42350474806385 -2.31259204458988 7.00000000000001
endloop
endfacet
facet normal 0.130526192220048 -0.991444861373811 0.0
outer loop
vertex 5.71789405721027 -2.45294673755596 7.00000000000001
vertex 6.42350474806385 -2.31259204458988 18.0
vertex 5.71789405721027 -2.45294673755596 18.0
endloop
endfacet
facet normal 0.382683432365087 -0.923879532511288 0.0
outer loop
vertex 7.10475887800798 -2.08133742881208 18.0
vertex 6.42350474806385 -2.31259204458988 7.00000000000001
vertex 7.10475887800798 -2.08133742881208 7.00000000000001
endloop
endfacet
facet normal 0.258819045102517 -0.965925826289069 0.0
outer loop
vertex 6.42350474806385 -2.31259204458988 7.00000000000001
vertex 7.10475887800798 -2.08133742881208 18.0
vertex 6.42350474806385 -2.31259204458988 18.0
endloop
endfacet
facet normal 0.499999999999997 -0.86602540378444 0.0
outer loop
vertex 7.74999999999998 -1.76313972081442 18.0
vertex 7.10475887800798 -2.08133742881208 7.00000000000001
vertex 7.74999999999998 -1.76313972081442 7.00000000000001
endloop
endfacet
facet normal 0.382683432365087 -0.923879532511288 0.0
outer loop
vertex 7.10475887800798 -2.08133742881208 7.00000000000001
vertex 7.74999999999998 -1.76313972081442 18.0
vertex 7.10475887800798 -2.08133742881208 18.0
endloop
endfacet
facet normal 0.608761429008717 -0.793353340291238 0.0
outer loop
vertex 8.34818785954795 -1.36344337160181 18.0
vertex 7.74999999999998 -1.76313972081442 7.00000000000001
vertex 8.34818785954795 -1.36344337160181 7.00000000000001
endloop
endfacet
facet normal 0.499999999999997 -0.86602540378444 0.0
outer loop
vertex 7.74999999999998 -1.76313972081442 7.00000000000001
vertex 8.34818785954795 -1.36344337160181 18.0
vertex 7.74999999999998 -1.76313972081442 18.0
endloop
endfacet
facet normal 0.707106781186545 -0.70710678118655 0.0
outer loop
vertex 8.889087296526 -0.889087296526026 18.0
vertex 8.34818785954795 -1.36344337160181 7.00000000000001
vertex 8.889087296526 -0.889087296526026 7.00000000000001
endloop
endfacet
facet normal 0.608761429008717 -0.793353340291238 0.0
outer loop
vertex 8.34818785954795 -1.36344337160181 7.00000000000001
vertex 8.889087296526 -0.889087296526026 18.0
vertex 8.34818785954795 -1.36344337160181 18.0
endloop
endfacet
facet normal 0.793353340291233 -0.608761429008723 0.0
outer loop
vertex 9.36344337160178 -0.34818785954798 7.00000000000001
vertex 8.889087296526 -0.889087296526026 18.0
vertex 8.889087296526 -0.889087296526026 7.00000000000001
endloop
endfacet
facet normal 0.707106781186545 -0.70710678118655 0.0
outer loop
vertex 8.889087296526 -0.889087296526026 18.0
vertex 9.36344337160178 -0.34818785954798 7.00000000000001
vertex 9.36344337160178 -0.34818785954798 18.0
endloop
endfacet
facet normal 0.866025403784436 -0.500000000000004 0.0
outer loop
vertex 9.7631397208144 0.249999999999981 7.00000000000001
vertex 9.36344337160178 -0.34818785954798 18.0
vertex 9.36344337160178 -0.34818785954798 7.00000000000001
endloop
endfacet
facet normal 0.793353340291233 -0.608761429008723 0.0
outer loop
vertex 9.36344337160178 -0.34818785954798 18.0
vertex 9.7631397208144 0.249999999999981 7.00000000000001
vertex 9.7631397208144 0.249999999999981 18.0
endloop
endfacet
facet normal 0.923879532511285 -0.382683432365095 0.0
outer loop
vertex 10.0813374288121 0.895241121991985 7.00000000000001
vertex 9.7631397208144 0.249999999999981 18.0
vertex 9.7631397208144 0.249999999999981 7.00000000000001
endloop
endfacet
facet normal 0.866025403784436 -0.500000000000004 0.0
outer loop
vertex 9.7631397208144 0.249999999999981 18.0
vertex 10.0813374288121 0.895241121991985 7.00000000000001
vertex 10.0813374288121 0.895241121991985 18.0
endloop
endfacet
facet normal 0.965925826289067 -0.258819045102524 0.0
outer loop
vertex 10.3125920445899 1.57649525193611 7.00000000000001
vertex 10.0813374288121 0.895241121991985 18.0
vertex 10.0813374288121 0.895241121991985 7.00000000000001
endloop
endfacet
facet normal 0.923879532511285 -0.382683432365095 0.0
outer loop
vertex 10.0813374288121 0.895241121991985 18.0
vertex 10.3125920445899 1.57649525193611 7.00000000000001
vertex 10.3125920445899 1.57649525193611 18.0
endloop
endfacet
facet normal 0.99144486137381 -0.130526192220055 0.0
outer loop
vertex 10.452946737556 2.28210594278969 7.00000000000001
vertex 10.3125920445899 1.57649525193611 18.0
vertex 10.3125920445899 1.57649525193611 7.00000000000001
endloop
endfacet
facet normal 0.965925826289067 -0.258819045102524 0.0
outer loop
vertex 10.3125920445899 1.57649525193611 18.0
vertex 10.452946737556 2.28210594278969 7.00000000000001
vertex 10.452946737556 2.28210594278969 18.0
endloop
endfacet
facet normal 1.0 -1.79290074644694e-015 0.0
outer loop
vertex 10.5 3.0 7.00000000000001
vertex 10.452946737556 2.28210594278969 18.0
vertex 10.452946737556 2.28210594278969 7.00000000000001
endloop
endfacet
facet normal 0.99144486137381 -0.130526192220055 0.0
outer loop
vertex 10.452946737556 2.28210594278969 18.0
vertex 10.5 3.0 7.00000000000001
vertex 10.5 3.0 18.0
endloop
endfacet
facet normal 0.0 0.0 1.0
outer loop
vertex -1.94011355827702 2.13631665445965 7.00074617928582
vertex -1.94011355827701 3.96368334554037 7.00074617928582
vertex -1.99999952866034 3.05000000000001 7.00074617928582
endloop
endfacet
facet normal 0.0 0.0 1.0
outer loop
vertex -1.94011355827701 3.96368334554037 7.00074617928582
vertex -1.94011355827702 2.13631665445965 7.00074617928582
vertex -1.76148031268382 1.23826668428236 7.00074617928582
endloop
endfacet
facet normal 0.0 0.0 1.0
outer loop
vertex -1.94011355827701 3.96368334554037 7.00074617928582
vertex -1.76148031268382 1.23826668428236 7.00074617928582
vertex -1.76148031268382 4.86173331571765 7.00074617928582
endloop
endfacet
facet normal 0.0 0.0 1.0
outer loop
vertex -1.76148031268382 4.86173331571765 7.00074617928582
vertex -1.76148031268382 1.23826668428236 7.00074617928582
vertex -1.46715625623935 0.371215973444382 7.00074617928582
endloop
endfacet
facet normal 0.0 0.0 1.0
outer loop
vertex -1.76148031268382 4.86173331571765 7.00074617928582
vertex -1.46715625623935 0.371215973444382 7.00074617928582
vertex -1.46715625623935 5.72878402655563 7.00074617928582
endloop
endfacet
facet normal 0.0 0.0 1.0
outer loop
vertex -1.46715625623935 5.72878402655563 7.00074617928582
vertex -1.46715625623935 0.371215973444382 7.00074617928582
vertex -1.06217735515142 -0.449999999999989 7.00074617928582
endloop
endfacet
facet normal 0.0 0.0 1.0
outer loop
vertex -1.46715625623935 5.72878402655563 7.00074617928582
vertex -1.06217735515142 -0.449999999999989 7.00074617928582
vertex -1.06217735515141 6.55 7.00074617928582
endloop
endfacet
facet normal 0.0 0.0 1.0
outer loop
vertex -1.06217735515141 6.55 7.00074617928582
vertex -1.06217735515142 -0.449999999999989 7.00074617928582
vertex -0.553472910698994 -1.21133000306103 7.00074617928582
endloop
endfacet
facet normal 0.0 0.0 1.0
outer loop
vertex -1.06217735515141 6.55 7.00074617928582
vertex -0.553472910698994 -1.21133000306103 7.00074617928582
vertex -0.553472910698986 7.31133000306105 7.00074617928582
endloop
endfacet
facet normal 0.0 0.0 1.0
outer loop
vertex -0.553472910698986 7.31133000306105 7.00074617928582
vertex -0.553472910698994 -1.21133000306103 7.00074617928582
vertex -0.5 3.00000000000001 7.00000000000001
endloop
endfacet
facet normal 0.0 0.0 1.0
outer loop
vertex -0.5 3.00000000000001 7.00000000000001
vertex -0.553472910698994 -1.21133000306103 7.00074617928582
vertex -0.452946737555958 2.28210594278972 7.00000000000001
endloop
endfacet
facet normal 0.0 0.0 1.0
outer loop
vertex -0.452946737555958 2.28210594278972 7.00000000000001
vertex -0.553472910698994 -1.21133000306103 7.00074617928582
vertex 0.0502530030338171 -1.89974746830582 7.00074617928582
endloop
endfacet
facet normal 0.0 0.0 1.0
outer loop
vertex -0.452946737555958 2.28210594278972 7.00000000000001
vertex 0.0502530030338171 -1.89974746830582 7.00074617928582
vertex -0.312592044589877 1.57649525193614 7.00000000000001
endloop
endfacet
facet normal 0.0 0.0 1.0
outer loop
vertex -0.312592044589877 1.57649525193614 7.00000000000001
vertex 0.0502530030338171 -1.89974746830582 7.00074617928582
vertex -0.0813374288120796 0.895241121992014 7.00000000000001
endloop
endfacet
facet normal 0.0 0.0 1.0
outer loop
vertex -0.0813374288120796 0.895241121992014 7.00000000000001
vertex 0.0502530030338171 -1.89974746830582 7.00074617928582
vertex 0.236860279185583 0.250000000000008 7.00000000000001
endloop
endfacet
facet normal 0.0 0.0 1.0
outer loop
vertex 0.236860279185583 0.250000000000008 7.00000000000001
vertex 0.0502530030338171 -1.89974746830582 7.00074617928582
vertex 0.738670468278603 -2.50347338203864 7.00074617928582
endloop
endfacet
facet normal 0.0 0.0 1.0
outer loop
vertex 0.236860279185583 0.250000000000008 7.00000000000001
vertex 0.738670468278603 -2.50347338203864 7.00074617928582
vertex 0.6365566283982 -0.348187859547956 7.00000000000001
endloop
endfacet
facet normal 0.0 0.0 1.0
outer loop
vertex 0.6365566283982 -0.348187859547956 7.00000000000001
vertex 0.738670468278603 -2.50347338203864 7.00074617928582
vertex 1.11091270347398 -0.889087296526003 7.00000000000001
endloop
endfacet
facet normal 0.0 0.0 1.0
outer loop
vertex 1.11091270347398 -0.889087296526003 7.00000000000001
vertex 0.738670468278603 -2.50347338203864 7.00074617928582
vertex 1.50000047133965 -3.01217782649106 7.00074617928582
endloop
endfacet
facet normal 0.0 0.0 1.0
outer loop
vertex 1.11091270347398 -0.889087296526003 7.00000000000001
vertex 1.50000047133965 -3.01217782649106 7.00074617928582
vertex 1.65181214045203 -1.36344337160179 7.00000000000001
endloop
endfacet
facet normal 0.0 0.0 1.0
outer loop
vertex 1.65181214045203 -1.36344337160179 7.00000000000001
vertex 1.50000047133965 -3.01217782649106 7.00074617928582
vertex 2.32121644478402 -3.417156727579 7.00074617928582
endloop
endfacet
facet normal 0.0 0.0 1.0
outer loop
vertex 1.65181214045203 -1.36344337160179 7.00000000000001
vertex 2.32121644478402 -3.417156727579 7.00074617928582
vertex 2.24999999999999 -1.76313972081441 7.00000000000001
endloop
endfacet
facet normal 0.0 0.0 1.0
outer loop
vertex 2.24999999999999 -1.76313972081441 7.00000000000001
vertex 2.32121644478402 -3.417156727579 7.00074617928582
vertex 2.89524112199199 -2.08133742881207 7.00000000000001
endloop
endfacet
facet normal 0.0 0.0 1.0
outer loop
vertex 2.89524112199199 -2.08133742881207 7.00000000000001
vertex 2.32121644478402 -3.417156727579 7.00074617928582
vertex 3.188267155622 -3.71148078402347 7.00074617928582
endloop
endfacet
facet normal 0.0 0.0 1.0
outer loop
vertex 2.89524112199199 -2.08133742881207 7.00000000000001
vertex 3.188267155622 -3.71148078402347 7.00074617928582
vertex 3.57649525193612 -2.31259204458987 7.00000000000001
endloop
endfacet
facet normal 0.0 0.0 1.0
outer loop
vertex 3.57649525193612 -2.31259204458987 7.00000000000001
vertex 3.188267155622 -3.71148078402347 7.00074617928582
vertex 4.08631712579928 -3.89011402961667 7.00074617928582
endloop
endfacet
facet normal 0.0 0.0 1.0
outer loop
vertex 3.57649525193612 -2.31259204458987 7.00000000000001
vertex 4.08631712579928 -3.89011402961667 7.00074617928582
vertex 4.2821059427897 -2.45294673755595 7.00000000000001
endloop
endfacet
facet normal 0.0 0.0 1.0
outer loop
vertex 4.2821059427897 -2.45294673755595 7.00000000000001
vertex 4.08631712579928 -3.89011402961667 7.00074617928582
vertex 5.00000047133964 -3.95 7.00074617928582
endloop
endfacet
facet normal 0.0 0.0 1.0
outer loop
vertex 4.2821059427897 -2.45294673755595 7.00000000000001
vertex 5.00000047133964 -3.95 7.00074617928582
vertex 4.99999999999998 -2.5 7.00000000000001
endloop
endfacet
facet normal 0.0 0.0 1.0
outer loop
vertex 4.99999999999998 -2.5 7.00000000000001
vertex 5.00000047133964 -3.95 7.00074617928582
vertex 5.71789405721027 -2.45294673755596 7.00000000000001
endloop
endfacet
facet normal 0.0 0.0 1.0
outer loop
vertex 5.71789405721027 -2.45294673755596 7.00000000000001
vertex 5.00000047133964 -3.95 7.00074617928582
vertex 5.91368381688 -3.89011402961668 7.00074617928582
endloop
endfacet
facet normal 0.0 0.0 1.0
outer loop
vertex 5.71789405721027 -2.45294673755596 7.00000000000001
vertex 5.91368381688 -3.89011402961668 7.00074617928582
vertex 6.42350474806385 -2.31259204458988 7.00000000000001
endloop
endfacet
facet normal 0.0 0.0 1.0
outer loop
vertex 6.42350474806385 -2.31259204458988 7.00000000000001
vertex 5.91368381688 -3.89011402961668 7.00074617928582
vertex 6.81173378705728 -3.71148078402348 7.00074617928582
endloop
endfacet
facet normal 0.0 0.0 1.0
outer loop
vertex 6.42350474806385 -2.31259204458988 7.00000000000001
vertex 6.81173378705728 -3.71148078402348 7.00074617928582
vertex 7.10475887800798 -2.08133742881208 7.00000000000001
endloop
endfacet
facet normal 0.0 0.0 1.0
outer loop
vertex 7.10475887800798 -2.08133742881208 7.00000000000001
vertex 6.81173378705728 -3.71148078402348 7.00074617928582
vertex 7.67878449789527 -3.41715672757902 7.00074617928582
endloop
endfacet
facet normal 0.0 0.0 1.0
outer loop
vertex 7.10475887800798 -2.08133742881208 7.00000000000001
vertex 7.67878449789527 -3.41715672757902 7.00074617928582
vertex 7.74999999999998 -1.76313972081442 7.00000000000001
endloop
endfacet
facet normal 0.0 0.0 1.0
outer loop
vertex 7.74999999999998 -1.76313972081442 7.00000000000001
vertex 7.67878449789527 -3.41715672757902 7.00074617928582
vertex 8.50000047133964 -3.01217782649108 7.00074617928582
endloop
endfacet
facet normal 0.0 0.0 1.0
outer loop
vertex 7.74999999999998 -1.76313972081442 7.00000000000001
vertex 8.50000047133964 -3.01217782649108 7.00074617928582
vertex 8.34818785954795 -1.36344337160181 7.00000000000001
endloop
endfacet
facet normal 0.0 0.0 1.0
outer loop
vertex 8.34818785954795 -1.36344337160181 7.00000000000001
vertex 8.50000047133964 -3.01217782649108 7.00074617928582
vertex 8.889087296526 -0.889087296526026 7.00000000000001
endloop
endfacet
facet normal 0.0 0.0 1.0
outer loop
vertex 8.889087296526 -0.889087296526026 7.00000000000001
vertex 8.50000047133964 -3.01217782649108 7.00074617928582
vertex 9.26133047440068 -2.50347338203866 7.00074617928582
endloop
endfacet
facet normal 0.0 0.0 1.0
outer loop
vertex 8.889087296526 -0.889087296526026 7.00000000000001
vertex 9.26133047440068 -2.50347338203866 7.00074617928582
vertex 9.36344337160178 -0.34818785954798 7.00000000000001
endloop
endfacet
facet normal 0.0 0.0 1.0
outer loop
vertex 9.36344337160178 -0.34818785954798 7.00000000000001
vertex 9.26133047440068 -2.50347338203866 7.00074617928582
vertex 9.94974793964547 -1.89974746830585 7.00074617928582
endloop
endfacet
facet normal 0.0 0.0 1.0
outer loop
vertex 9.36344337160178 -0.34818785954798 7.00000000000001
vertex 9.94974793964547 -1.89974746830585 7.00074617928582
vertex 9.7631397208144 0.249999999999981 7.00000000000001
endloop
endfacet
facet normal 0.0 0.0 1.0
outer loop
vertex 9.7631397208144 0.249999999999981 7.00000000000001
vertex 9.94974793964547 -1.89974746830585 7.00074617928582
vertex 10.0813374288121 0.895241121991985 7.00000000000001
endloop
endfacet
facet normal 0.0 0.0 1.0
outer loop
vertex 10.0813374288121 0.895241121991985 7.00000000000001
vertex 9.94974793964547 -1.89974746830585 7.00074617928582
vertex 10.5534738533783 -1.21133000306107 7.00074617928582
endloop
endfacet
facet normal 0.0 0.0 1.0
outer loop
vertex 10.0813374288121 0.895241121991985 7.00000000000001
vertex 10.5534738533783 -1.21133000306107 7.00074617928582
vertex 10.3125920445899 1.57649525193611 7.00000000000001
endloop
endfacet
facet normal 0.0 0.0 1.0
outer loop
vertex 10.3125920445899 1.57649525193611 7.00000000000001
vertex 10.5534738533783 -1.21133000306107 7.00074617928582
vertex 10.452946737556 2.28210594278969 7.00000000000001
endloop
endfacet
facet normal 0.0 0.0 1.0
outer loop
vertex 10.452946737556 2.28210594278969 7.00000000000001
vertex 10.5534738533783 -1.21133000306107 7.00074617928582
vertex 10.5 3.0 7.00000000000001
endloop
endfacet
facet normal 0.0 0.0 1.0
outer loop
vertex -0.553472910698986 7.31133000306105 7.00074617928582
vertex -0.452946737555956 3.71789405721029 7.00000000000001
vertex 0.0502530030338269 7.99974746830583 7.00074617928582
endloop
endfacet
facet normal 0.0 0.0 1.0
outer loop
vertex -0.452946737555956 3.71789405721029 7.00000000000001
vertex -0.553472910698986 7.31133000306105 7.00074617928582
vertex -0.5 3.00000000000001 7.00000000000001
endloop
endfacet
facet normal 0.0 0.0 1.0
outer loop
vertex 0.0502530030338269 7.99974746830583 7.00074617928582
vertex -0.452946737555956 3.71789405721029 7.00000000000001
vertex -0.312592044589874 4.42350474806387 7.00000000000001
endloop
endfacet
facet normal 0.0 0.0 1.0
outer loop
vertex 0.0502530030338269 7.99974746830583 7.00074617928582
vertex -0.312592044589874 4.42350474806387 7.00000000000001
vertex -0.0813374288120754 5.104758878008 7.00000000000001
endloop
endfacet
facet normal 0.0 0.0 1.0
outer loop
vertex 0.0502530030338269 7.99974746830583 7.00074617928582
vertex -0.0813374288120754 5.104758878008 7.00000000000001
vertex 0.236860279185589 5.75 7.00000000000001
endloop
endfacet
facet normal 0.0 0.0 1.0
outer loop
vertex 0.0502530030338269 7.99974746830583 7.00074617928582
vertex 0.236860279185589 5.75 7.00000000000001
vertex 0.738670468278614 8.60347338203865 7.00074617928582
endloop
endfacet
facet normal 0.0 0.0 1.0
outer loop
vertex 0.738670468278614 8.60347338203865 7.00074617928582
vertex 0.236860279185589 5.75 7.00000000000001
vertex 0.636556628398207 6.34818785954797 7.00000000000001
endloop
endfacet
facet normal 0.0 0.0 1.0
outer loop
vertex 0.738670468278614 8.60347338203865 7.00074617928582
vertex 0.636556628398207 6.34818785954797 7.00000000000001
vertex 1.11091270347399 6.88908729652601 7.00000000000001
endloop
endfacet
facet normal 0.0 0.0 1.0
outer loop
vertex 0.738670468278614 8.60347338203865 7.00074617928582
vertex 1.11091270347399 6.88908729652601 7.00000000000001
vertex 1.50000047133966 9.11217782649107 7.00074617928582
endloop
endfacet
facet normal 0.0 0.0 1.0
outer loop
vertex 1.50000047133966 9.11217782649107 7.00074617928582
vertex 1.11091270347399 6.88908729652601 7.00000000000001
vertex 1.65181214045204 7.36344337160179 7.00000000000001
endloop
endfacet
facet normal 0.0 0.0 1.0
outer loop
vertex 1.50000047133966 9.11217782649107 7.00074617928582
vertex 1.65181214045204 7.36344337160179 7.00000000000001
vertex 2.32121644478403 9.51715672757901 7.00074617928582
endloop
endfacet
facet normal 0.0 0.0 1.0
outer loop
vertex 2.32121644478403 9.51715672757901 7.00074617928582
vertex 1.65181214045204 7.36344337160179 7.00000000000001
vertex 2.25 7.76313972081441 7.00000000000001
endloop
endfacet
facet normal 0.0 0.0 1.0
outer loop
vertex 2.32121644478403 9.51715672757901 7.00074617928582
vertex 2.25 7.76313972081441 7.00000000000001
vertex 2.895241121992 8.08133742881208 7.00000000000001
endloop
endfacet
facet normal 0.0 0.0 1.0
outer loop
vertex 2.32121644478403 9.51715672757901 7.00074617928582
vertex 2.895241121992 8.08133742881208 7.00000000000001
vertex 3.18826715562201 9.81148078402348 7.00074617928582
endloop
endfacet
facet normal 0.0 0.0 1.0
outer loop
vertex 3.18826715562201 9.81148078402348 7.00074617928582
vertex 2.895241121992 8.08133742881208 7.00000000000001
vertex 3.57649525193613 8.31259204458988 7.00000000000001
endloop
endfacet
facet normal 0.0 0.0 1.0
outer loop
vertex 3.18826715562201 9.81148078402348 7.00074617928582
vertex 3.57649525193613 8.31259204458988 7.00000000000001
vertex 4.0863171257993 9.99011402961668 7.00074617928582
endloop
endfacet
facet normal 0.0 0.0 1.0
outer loop
vertex 4.0863171257993 9.99011402961668 7.00074617928582
vertex 3.57649525193613 8.31259204458988 7.00000000000001
vertex 4.28210594278972 8.45294673755596 7.00000000000001
endloop
endfacet
facet normal 0.0 0.0 1.0
outer loop
vertex 4.0863171257993 9.99011402961668 7.00074617928582
vertex 4.28210594278972 8.45294673755596 7.00000000000001
vertex 5.00000047133966 10.05 7.00074617928582
endloop
endfacet
facet normal 0.0 0.0 1.0
outer loop
vertex 5.00000047133966 10.05 7.00074617928582
vertex 4.28210594278972 8.45294673755596 7.00000000000001
vertex 5.0 8.5 7.00000000000001
endloop
endfacet
facet normal 0.0 0.0 1.0
outer loop
vertex 5.00000047133966 10.05 7.00074617928582
vertex 5.0 8.5 7.00000000000001
vertex 5.71789405721028 8.45294673755596 7.00000000000001
endloop
endfacet
facet normal 0.0 0.0 1.0
outer loop
vertex 5.00000047133966 10.05 7.00074617928582
vertex 5.71789405721028 8.45294673755596 7.00000000000001
vertex 5.91368381688002 9.99011402961668 7.00074617928582
endloop
endfacet
facet normal 0.0 0.0 1.0
outer loop
vertex 5.91368381688002 9.99011402961668 7.00074617928582
vertex 5.71789405721028 8.45294673755596 7.00000000000001
vertex 6.42350474806386 8.31259204458988 7.00000000000001
endloop
endfacet
facet normal 0.0 0.0 1.0
outer loop
vertex 5.91368381688002 9.99011402961668 7.00074617928582
vertex 6.42350474806386 8.31259204458988 7.00000000000001
vertex 6.8117337870573 9.81148078402348 7.00074617928582
endloop
endfacet
facet normal 0.0 0.0 1.0
outer loop
vertex 6.8117337870573 9.81148078402348 7.00074617928582
vertex 6.42350474806386 8.31259204458988 7.00000000000001
vertex 7.10475887800799 8.08133742881208 7.00000000000001
endloop
endfacet
facet normal 0.0 0.0 1.0
outer loop
vertex 6.8117337870573 9.81148078402348 7.00074617928582
vertex 7.10475887800799 8.08133742881208 7.00000000000001
vertex 7.67878449789529 9.51715672757901 7.00074617928582
endloop
endfacet
facet normal 0.0 0.0 1.0
outer loop
vertex 7.67878449789529 9.51715672757901 7.00074617928582
vertex 7.10475887800799 8.08133742881208 7.00000000000001
vertex 7.75 7.76313972081441 7.00000000000001
endloop
endfacet
facet normal 0.0 0.0 1.0
outer loop
vertex 7.67878449789529 9.51715672757901 7.00074617928582
vertex 7.75 7.76313972081441 7.00000000000001
vertex 8.50000047133966 9.11217782649107 7.00074617928582
endloop
endfacet
facet normal 0.0 0.0 1.0
outer loop
vertex 8.50000047133966 9.11217782649107 7.00074617928582
vertex 7.75 7.76313972081441 7.00000000000001
vertex 8.34818785954796 7.36344337160179 7.00000000000001
endloop
endfacet
facet normal 0.0 0.0 1.0
outer loop
vertex 8.50000047133966 9.11217782649107 7.00074617928582
vertex 8.34818785954796 7.36344337160179 7.00000000000001
vertex 8.88908729652601 6.88908729652601 7.00000000000001
endloop
endfacet
facet normal 0.0 0.0 1.0
outer loop
vertex 8.50000047133966 9.11217782649107 7.00074617928582
vertex 8.88908729652601 6.88908729652601 7.00000000000001
vertex 9.2613304744007 8.60347338203865 7.00074617928582
endloop
endfacet
facet normal 0.0 0.0 1.0
outer loop
vertex 9.2613304744007 8.60347338203865 7.00074617928582
vertex 8.88908729652601 6.88908729652601 7.00000000000001
vertex 9.36344337160179 6.34818785954796 7.00000000000001
endloop
endfacet
facet normal 0.0 0.0 1.0
outer loop
vertex 9.2613304744007 8.60347338203865 7.00074617928582
vertex 9.36344337160179 6.34818785954796 7.00000000000001
vertex 9.94974793964549 7.99974746830583 7.00074617928582
endloop
endfacet
facet normal 0.0 0.0 1.0
outer loop
vertex 9.94974793964549 7.99974746830583 7.00074617928582
vertex 9.36344337160179 6.34818785954796 7.00000000000001
vertex 9.76313972081441 5.75 7.00000000000001
endloop
endfacet
facet normal 0.0 0.0 1.0
outer loop
vertex 9.94974793964549 7.99974746830583 7.00074617928582
vertex 9.76313972081441 5.75 7.00000000000001
vertex 10.0813374288121 5.10475887800799 7.00000000000001
endloop
endfacet
facet normal 0.0 0.0 1.0
outer loop
vertex 9.94974793964549 7.99974746830583 7.00074617928582
vertex 10.0813374288121 5.10475887800799 7.00000000000001
vertex 10.5534738533783 7.31133000306104 7.00074617928582
endloop
endfacet
facet normal 0.0 0.0 1.0
outer loop
vertex 10.5534738533783 7.31133000306104 7.00074617928582
vertex 10.0813374288121 5.10475887800799 7.00000000000001
vertex 10.3125920445899 4.42350474806386 7.00000000000001
endloop
endfacet
facet normal 0.0 0.0 1.0
outer loop
vertex 10.5534738533783 7.31133000306104 7.00074617928582
vertex 10.3125920445899 4.42350474806386 7.00000000000001
vertex 10.452946737556 3.71789405721028 7.00000000000001
endloop
endfacet
facet normal 0.0 0.0 1.0
outer loop
vertex 10.5534738533783 7.31133000306104 7.00074617928582
vertex 10.452946737556 3.71789405721028 7.00000000000001
vertex 10.5 3.0 7.00000000000001
endloop
endfacet
facet normal 0.0 0.0 1.0
outer loop
vertex 10.5534738533783 7.31133000306104 7.00074617928582
vertex 10.5 3.0 7.00000000000001
vertex 10.5534738533783 -1.21133000306107 7.00074617928582
endloop
endfacet
facet normal 0.0 0.0 1.0
outer loop
vertex 10.5534738533783 7.31133000306104 7.00074617928582
vertex 10.5534738533783 -1.21133000306107 7.00074617928582
vertex 11.0621782978307 -0.450000000000024 7.00074617928582
endloop
endfacet
facet normal 0.0 0.0 1.0
outer loop
vertex 10.5534738533783 7.31133000306104 7.00074617928582
vertex 11.0621782978307 -0.450000000000024 7.00074617928582
vertex 11.0621782978307 6.55 7.00074617928582
endloop
endfacet
facet normal 0.0 0.0 1.0
outer loop
vertex 11.0621782978307 6.55 7.00074617928582
vertex 11.0621782978307 -0.450000000000024 7.00074617928582
vertex 11.4671571989187 0.371215973444345 7.00074617928582
endloop
endfacet
facet normal 0.0 0.0 1.0
outer loop
vertex 11.0621782978307 6.55 7.00074617928582
vertex 11.4671571989187 0.371215973444345 7.00074617928582
vertex 11.4671571989187 5.72878402655563 7.00074617928582
endloop
endfacet
facet normal 0.0 0.0 1.0
outer loop
vertex 11.4671571989187 5.72878402655563 7.00074617928582
vertex 11.4671571989187 0.371215973444345 7.00074617928582
vertex 11.7614812553631 1.23826668428233 7.00074617928582
endloop
endfacet
facet normal 0.0 0.0 1.0
outer loop
vertex 11.4671571989187 5.72878402655563 7.00074617928582
vertex 11.7614812553631 1.23826668428233 7.00074617928582
vertex 11.7614812553631 4.86173331571765 7.00074617928582
endloop
endfacet
facet normal 0.0 0.0 1.0
outer loop
vertex 11.7614812553631 4.86173331571765 7.00074617928582
vertex 11.7614812553631 1.23826668428233 7.00074617928582
vertex 11.9401145009563 2.13631665445961 7.00074617928582
endloop
endfacet
facet normal 0.0 0.0 1.0
outer loop
vertex 11.7614812553631 4.86173331571765 7.00074617928582
vertex 11.9401145009563 2.13631665445961 7.00074617928582
vertex 11.9401145009563 3.96368334554036 7.00074617928582
endloop
endfacet
facet normal 0.0 0.0 1.0
outer loop
vertex 11.9401145009563 3.96368334554036 7.00074617928582
vertex 11.9401145009563 2.13631665445961 7.00074617928582
vertex 12.0000004713397 3.05 7.00074617928582
endloop
endfacet
facet normal 0.99144486137381 0.130526192220052 0.0
outer loop
vertex 11.9401145009563 3.96368334554036 6.00074617928582
vertex 12.0000004713397 3.05 7.00074617928582
vertex 12.0000004713397 3.05 6.00074617928582
endloop
endfacet
facet normal 1.0 -1.17755950260465e-015 0.0
outer loop
vertex 12.0000004713397 3.05 7.00074617928582
vertex 11.9401145009563 3.96368334554036 6.00074617928582
vertex 11.9401145009563 3.96368334554036 7.00074617928582
endloop
endfacet
facet normal 0.965925826289068 0.258819045102521 0.0
outer loop
vertex 11.7614812553631 4.86173331571765 6.00074617928582
vertex 11.9401145009563 3.96368334554036 7.00074617928582
vertex 11.9401145009563 3.96368334554036 6.00074617928582
endloop
endfacet
facet normal 0.99144486137381 0.130526192220052 0.0
outer loop
vertex 11.9401145009563 3.96368334554036 7.00074617928582
vertex 11.7614812553631 4.86173331571765 6.00074617928582
vertex 11.7614812553631 4.86173331571765 7.00074617928582
endloop
endfacet
facet normal 0.923879532511287 0.38268343236509 0.0
outer loop
vertex 11.4671571989187 5.72878402655563 6.00074617928582
vertex 11.7614812553631 4.86173331571765 7.00074617928582
vertex 11.7614812553631 4.86173331571765 6.00074617928582
endloop
endfacet
facet normal 0.965925826289068 0.258819045102521 0.0
outer loop
vertex 11.7614812553631 4.86173331571765 7.00074617928582
vertex 11.4671571989187 5.72878402655563 6.00074617928582
vertex 11.4671571989187 5.72878402655563 7.00074617928582
endloop
endfacet
facet normal 0.866025403784438 0.500000000000001 0.0
outer loop
vertex 11.0621782978307 6.55 6.00074617928582
vertex 11.4671571989187 5.72878402655563 7.00074617928582
vertex 11.4671571989187 5.72878402655563 6.00074617928582
endloop
endfacet
facet normal 0.923879532511287 0.38268343236509 0.0
outer loop
vertex 11.4671571989187 5.72878402655563 7.00074617928582
vertex 11.0621782978307 6.55 6.00074617928582
vertex 11.0621782978307 6.55 7.00074617928582
endloop
endfacet
facet normal 0.793353340291236 0.60876142900872 0.0
outer loop
vertex 10.5534738533783 7.31133000306104 6.00074617928582
vertex 11.0621782978307 6.55 7.00074617928582
vertex 11.0621782978307 6.55 6.00074617928582
endloop
endfacet
facet normal 0.866025403784438 0.500000000000001 0.0
outer loop
vertex 11.0621782978307 6.55 7.00074617928582
vertex 10.5534738533783 7.31133000306104 6.00074617928582
vertex 10.5534738533783 7.31133000306104 7.00074617928582
endloop
endfacet
facet normal 0.707106781186548 0.707106781186547 0.0
outer loop
vertex 9.94974793964549 7.99974746830583 6.00074617928582
vertex 10.5534738533783 7.31133000306104 7.00074617928582
vertex 10.5534738533783 7.31133000306104 6.00074617928582
endloop
endfacet
facet normal 0.793353340291236 0.60876142900872 0.0
outer loop
vertex 10.5534738533783 7.31133000306104 7.00074617928582
vertex 9.94974793964549 7.99974746830583 6.00074617928582
vertex 9.94974793964549 7.99974746830583 7.00074617928582
endloop
endfacet
facet normal 0.608761429008721 0.793353340291235 0.0
outer loop
vertex 9.2613304744007 8.60347338203865 7.00074617928582
vertex 9.94974793964549 7.99974746830583 6.00074617928582
vertex 9.2613304744007 8.60347338203865 6.00074617928582
endloop
endfacet
facet normal 0.707106781186548 0.707106781186547 0.0
outer loop
vertex 9.94974793964549 7.99974746830583 6.00074617928582
vertex 9.2613304744007 8.60347338203865 7.00074617928582
vertex 9.94974793964549 7.99974746830583 7.00074617928582
endloop
endfacet
facet normal 0.5 0.866025403784438 0.0
outer loop
vertex 8.50000047133966 9.11217782649107 7.00074617928582
vertex 9.2613304744007 8.60347338203865 6.00074617928582
vertex 8.50000047133966 9.11217782649107 6.00074617928582
endloop
endfacet
facet normal 0.608761429008721 0.793353340291235 0.0
outer loop
vertex 9.2613304744007 8.60347338203865 6.00074617928582
vertex 8.50000047133966 9.11217782649107 7.00074617928582
vertex 9.2613304744007 8.60347338203865 7.00074617928582
endloop
endfacet
facet normal 0.38268343236509 0.923879532511287 0.0
outer loop
vertex 7.67878449789529 9.51715672757901 7.00074617928582
vertex 8.50000047133966 9.11217782649107 6.00074617928582
vertex 7.67878449789529 9.51715672757901 6.00074617928582
endloop
endfacet
facet normal 0.5 0.866025403784438 0.0
outer loop
vertex 8.50000047133966 9.11217782649107 6.00074617928582
vertex 7.67878449789529 9.51715672757901 7.00074617928582
vertex 8.50000047133966 9.11217782649107 7.00074617928582
endloop
endfacet
facet normal 0.258819045102521 0.965925826289068 0.0
outer loop
vertex 6.8117337870573 9.81148078402348 7.00074617928582
vertex 7.67878449789529 9.51715672757901 6.00074617928582
vertex 6.8117337870573 9.81148078402348 6.00074617928582
endloop
endfacet
facet normal 0.38268343236509 0.923879532511287 0.0
outer loop
vertex 7.67878449789529 9.51715672757901 6.00074617928582
vertex 6.8117337870573 9.81148078402348 7.00074617928582
vertex 7.67878449789529 9.51715672757901 7.00074617928582
endloop
endfacet
facet normal 0.130526192220052 0.99144486137381 0.0
outer loop
vertex 5.91368381688002 9.99011402961668 7.00074617928582
vertex 6.8117337870573 9.81148078402348 6.00074617928582
vertex 5.91368381688002 9.99011402961668 6.00074617928582
endloop
endfacet
facet normal 0.258819045102521 0.965925826289068 0.0
outer loop
vertex 6.8117337870573 9.81148078402348 6.00074617928582
vertex 5.91368381688002 9.99011402961668 7.00074617928582
vertex 6.8117337870573 9.81148078402348 7.00074617928582
endloop
endfacet
facet normal 0.0 1.0 0.0
outer loop
vertex 5.00000047133966 10.05 7.00074617928582
vertex 5.91368381688002 9.99011402961668 6.00074617928582
vertex 5.00000047133966 10.05 6.00074617928582
endloop
endfacet
facet normal 0.130526192220052 0.99144486137381 0.0
outer loop
vertex 5.91368381688002 9.99011402961668 6.00074617928582
vertex 5.00000047133966 10.05 7.00074617928582
vertex 5.91368381688002 9.99011402961668 7.00074617928582
endloop
endfacet
facet normal -0.130526192220052 0.99144486137381 0.0
outer loop
vertex 4.0863171257993 9.99011402961668 7.00074617928582
vertex 5.00000047133966 10.05 6.00074617928582
vertex 4.0863171257993 9.99011402961668 6.00074617928582
endloop
endfacet
facet normal 0.0 1.0 0.0
outer loop
vertex 5.00000047133966 10.05 6.00074617928582
vertex 4.0863171257993 9.99011402961668 7.00074617928582
vertex 5.00000047133966 10.05 7.00074617928582
endloop
endfacet
facet normal -0.258819045102522 0.965925826289068 0.0
outer loop
vertex 3.18826715562201 9.81148078402348 7.00074617928582
vertex 4.0863171257993 9.99011402961668 6.00074617928582
vertex 3.18826715562201 9.81148078402348 6.00074617928582
endloop
endfacet
facet normal -0.130526192220052 0.99144486137381 0.0
outer loop
vertex 4.0863171257993 9.99011402961668 6.00074617928582
vertex 3.18826715562201 9.81148078402348 7.00074617928582
vertex 4.0863171257993 9.99011402961668 7.00074617928582
endloop
endfacet
facet normal -0.382683432365091 0.923879532511286 0.0
outer loop
vertex 2.32121644478403 9.51715672757901 7.00074617928582
vertex 3.18826715562201 9.81148078402348 6.00074617928582
vertex 2.32121644478403 9.51715672757901 6.00074617928582
endloop
endfacet
facet normal -0.258819045102522 0.965925826289068 0.0
outer loop
vertex 3.18826715562201 9.81148078402348 6.00074617928582
vertex 2.32121644478403 9.51715672757901 7.00074617928582
vertex 3.18826715562201 9.81148078402348 7.00074617928582
endloop
endfacet
facet normal -0.500000000000001 0.866025403784438 0.0
outer loop
vertex 1.50000047133966 9.11217782649107 7.00074617928582
vertex 2.32121644478403 9.51715672757901 6.00074617928582
vertex 1.50000047133966 9.11217782649107 6.00074617928582
endloop
endfacet
facet normal -0.382683432365091 0.923879532511286 0.0
outer loop
vertex 2.32121644478403 9.51715672757901 6.00074617928582
vertex 1.50000047133966 9.11217782649107 7.00074617928582
vertex 2.32121644478403 9.51715672757901 7.00074617928582
endloop
endfacet
facet normal -0.608761429008721 0.793353340291235 0.0
outer loop
vertex 0.738670468278614 8.60347338203865 7.00074617928582
vertex 1.50000047133966 9.11217782649107 6.00074617928582
vertex 0.738670468278614 8.60347338203865 6.00074617928582
endloop
endfacet
facet normal -0.500000000000001 0.866025403784438 0.0
outer loop
vertex 1.50000047133966 9.11217782649107 6.00074617928582
vertex 0.738670468278614 8.60347338203865 7.00074617928582
vertex 1.50000047133966 9.11217782649107 7.00074617928582
endloop
endfacet
facet normal -0.707106781186547 0.707106781186548 0.0
outer loop
vertex 0.0502530030338269 7.99974746830583 7.00074617928582
vertex 0.738670468278614 8.60347338203865 6.00074617928582
vertex 0.0502530030338269 7.99974746830583 6.00074617928582
endloop
endfacet
facet normal -0.608761429008721 0.793353340291235 0.0
outer loop
vertex 0.738670468278614 8.60347338203865 6.00074617928582
vertex 0.0502530030338269 7.99974746830583 7.00074617928582
vertex 0.738670468278614 8.60347338203865 7.00074617928582
endloop
endfacet
facet normal -0.707106781186547 0.707106781186548 0.0
outer loop
vertex 0.0502530030338269 7.99974746830583 7.00074617928582
vertex -0.553472910698986 7.31133000306105 6.00074617928582
vertex -0.553472910698986 7.31133000306105 7.00074617928582
endloop
endfacet
facet normal -0.793353340291235 0.608761429008721 0.0
outer loop
vertex -0.553472910698986 7.31133000306105 6.00074617928582
vertex 0.0502530030338269 7.99974746830583 7.00074617928582
vertex 0.0502530030338269 7.99974746830583 6.00074617928582
endloop
endfacet
facet normal -0.793353340291235 0.608761429008721 0.0
outer loop
vertex -0.553472910698986 7.31133000306105 7.00074617928582
vertex -1.06217735515141 6.55 6.00074617928582
vertex -1.06217735515141 6.55 7.00074617928582
endloop
endfacet
facet normal -0.866025403784438 0.5 0.0
outer loop
vertex -1.06217735515141 6.55 6.00074617928582
vertex -0.553472910698986 7.31133000306105 7.00074617928582
vertex -0.553472910698986 7.31133000306105 6.00074617928582
endloop
endfacet
facet normal -0.866025403784438 0.5 0.0
outer loop
vertex -1.06217735515141 6.55 7.00074617928582
vertex -1.46715625623935 5.72878402655563 6.00074617928582
vertex -1.46715625623935 5.72878402655563 7.00074617928582
endloop
endfacet
facet normal -0.923879532511287 0.38268343236509 0.0
outer loop
vertex -1.46715625623935 5.72878402655563 6.00074617928582
vertex -1.06217735515141 6.55 7.00074617928582
vertex -1.06217735515141 6.55 6.00074617928582
endloop
endfacet
facet normal -0.923879532511287 0.38268343236509 0.0
outer loop
vertex -1.46715625623935 5.72878402655563 7.00074617928582
vertex -1.76148031268382 4.86173331571765 6.00074617928582
vertex -1.76148031268382 4.86173331571765 7.00074617928582
endloop
endfacet
facet normal -0.965925826289068 0.258819045102521 0.0
outer loop
vertex -1.76148031268382 4.86173331571765 6.00074617928582
vertex -1.46715625623935 5.72878402655563 7.00074617928582
vertex -1.46715625623935 5.72878402655563 6.00074617928582
endloop
endfacet
facet normal -0.965925826289068 0.258819045102521 0.0
outer loop
vertex -1.76148031268382 4.86173331571765 7.00074617928582
vertex -1.94011355827701 3.96368334554037 6.00074617928582
vertex -1.94011355827701 3.96368334554037 7.00074617928582
endloop
endfacet
facet normal -0.99144486137381 0.130526192220053 0.0
outer loop
vertex -1.94011355827701 3.96368334554037 6.00074617928582
vertex -1.76148031268382 4.86173331571765 7.00074617928582
vertex -1.76148031268382 4.86173331571765 6.00074617928582
endloop
endfacet
facet normal -0.99144486137381 0.130526192220053 0.0
outer loop
vertex -1.94011355827701 3.96368334554037 7.00074617928582
vertex -1.99999952866034 3.05000000000001 6.00074617928582
vertex -1.99999952866034 3.05000000000001 7.00074617928582
endloop
endfacet
facet normal -1.0 1.54942039816402e-015 0.0
outer loop
vertex -1.99999952866034 3.05000000000001 6.00074617928582
vertex -1.94011355827701 3.96368334554037 7.00074617928582
vertex -1.94011355827701 3.96368334554037 6.00074617928582
endloop
endfacet
facet normal -1.0 1.54942039816402e-015 0.0
outer loop
vertex -1.99999952866034 3.05000000000001 7.00074617928582
vertex -1.94011355827702 2.13631665445965 6.00074617928582
vertex -1.94011355827702 2.13631665445965 7.00074617928582
endloop
endfacet
facet normal -0.99144486137381 -0.13052619222005 0.0
outer loop
vertex -1.94011355827702 2.13631665445965 6.00074617928582
vertex -1.99999952866034 3.05000000000001 7.00074617928582
vertex -1.99999952866034 3.05000000000001 6.00074617928582
endloop
endfacet
facet normal -0.99144486137381 -0.13052619222005 0.0
outer loop
vertex -1.94011355827702 2.13631665445965 7.00074617928582
vertex -1.76148031268382 1.23826668428236 6.00074617928582
vertex -1.76148031268382 1.23826668428236 7.00074617928582
endloop
endfacet
facet normal -0.965925826289068 -0.25881904510252 0.0
outer loop
vertex -1.76148031268382 1.23826668428236 6.00074617928582
vertex -1.94011355827702 2.13631665445965 7.00074617928582
vertex -1.94011355827702 2.13631665445965 6.00074617928582
endloop
endfacet
facet normal -0.965925826289068 -0.25881904510252 0.0
outer loop
vertex -1.76148031268382 1.23826668428236 7.00074617928582
vertex -1.46715625623935 0.371215973444382 6.00074617928582
vertex -1.46715625623935 0.371215973444382 7.00074617928582
endloop
endfacet
facet normal -0.923879532511287 -0.382683432365088 0.0
outer loop
vertex -1.46715625623935 0.371215973444382 6.00074617928582
vertex -1.76148031268382 1.23826668428236 7.00074617928582
vertex -1.76148031268382 1.23826668428236 6.00074617928582
endloop
endfacet
facet normal -0.923879532511287 -0.382683432365088 0.0
outer loop
vertex -1.46715625623935 0.371215973444382 7.00074617928582
vertex -1.06217735515142 -0.449999999999989 6.00074617928582
vertex -1.06217735515142 -0.449999999999989 7.00074617928582
endloop
endfacet
facet normal -0.86602540378444 -0.499999999999998 0.0
outer loop
vertex -1.06217735515142 -0.449999999999989 6.00074617928582
vertex -1.46715625623935 0.371215973444382 7.00074617928582
vertex -1.46715625623935 0.371215973444382 6.00074617928582
endloop
endfacet
facet normal -0.86602540378444 -0.499999999999998 0.0
outer loop
vertex -1.06217735515142 -0.449999999999989 7.00074617928582
vertex -0.553472910698994 -1.21133000306103 6.00074617928582
vertex -0.553472910698994 -1.21133000306103 7.00074617928582
endloop
endfacet
facet normal -0.793353340291236 -0.608761429008719 0.0
outer loop
vertex -0.553472910698994 -1.21133000306103 6.00074617928582
vertex -1.06217735515142 -0.449999999999989 7.00074617928582
vertex -1.06217735515142 -0.449999999999989 6.00074617928582
endloop
endfacet
facet normal -0.793353340291236 -0.608761429008719 0.0
outer loop
vertex -0.553472910698994 -1.21133000306103 7.00074617928582
vertex 0.0502530030338171 -1.89974746830582 6.00074617928582
vertex 0.0502530030338171 -1.89974746830582 7.00074617928582
endloop
endfacet
facet normal -0.707106781186549 -0.707106781186546 0.0
outer loop
vertex 0.0502530030338171 -1.89974746830582 6.00074617928582
vertex -0.553472910698994 -1.21133000306103 7.00074617928582
vertex -0.553472910698994 -1.21133000306103 6.00074617928582
endloop
endfacet
facet normal -0.608761429008722 -0.793353340291234 0.0
outer loop
vertex 0.738670468278603 -2.50347338203864 7.00074617928582
vertex 0.0502530030338171 -1.89974746830582 6.00074617928582
vertex 0.738670468278603 -2.50347338203864 6.00074617928582
endloop
endfacet
facet normal -0.707106781186549 -0.707106781186546 0.0
outer loop
vertex 0.0502530030338171 -1.89974746830582 6.00074617928582
vertex 0.738670468278603 -2.50347338203864 7.00074617928582
vertex 0.0502530030338171 -1.89974746830582 7.00074617928582
endloop
endfacet
facet normal -0.500000000000002 -0.866025403784438 0.0
outer loop
vertex 1.50000047133965 -3.01217782649106 7.00074617928582
vertex 0.738670468278603 -2.50347338203864 6.00074617928582
vertex 1.50000047133965 -3.01217782649106 6.00074617928582
endloop
endfacet
facet normal -0.608761429008722 -0.793353340291234 0.0
outer loop
vertex 0.738670468278603 -2.50347338203864 6.00074617928582
vertex 1.50000047133965 -3.01217782649106 7.00074617928582
vertex 0.738670468278603 -2.50347338203864 7.00074617928582
endloop
endfacet
facet normal -0.382683432365092 -0.923879532511286 0.0
outer loop
vertex 2.32121644478402 -3.417156727579 7.00074617928582
vertex 1.50000047133965 -3.01217782649106 6.00074617928582
vertex 2.32121644478402 -3.417156727579 6.00074617928582
endloop
endfacet
facet normal -0.500000000000002 -0.866025403784438 0.0
outer loop
vertex 1.50000047133965 -3.01217782649106 6.00074617928582
vertex 2.32121644478402 -3.417156727579 7.00074617928582
vertex 1.50000047133965 -3.01217782649106 7.00074617928582
endloop
endfacet
facet normal -0.258819045102523 -0.965925826289068 0.0
outer loop
vertex 3.188267155622 -3.71148078402347 7.00074617928582
vertex 2.32121644478402 -3.417156727579 6.00074617928582
vertex 3.188267155622 -3.71148078402347 6.00074617928582
endloop
endfacet
facet normal -0.382683432365092 -0.923879532511286 0.0
outer loop
vertex 2.32121644478402 -3.417156727579 6.00074617928582
vertex 3.188267155622 -3.71148078402347 7.00074617928582
vertex 2.32121644478402 -3.417156727579 7.00074617928582
endloop
endfacet
facet normal -0.130526192220054 -0.99144486137381 0.0
outer loop
vertex 4.08631712579928 -3.89011402961667 7.00074617928582
vertex 3.188267155622 -3.71148078402347 6.00074617928582
vertex 4.08631712579928 -3.89011402961667 6.00074617928582
endloop
endfacet
facet normal -0.258819045102523 -0.965925826289068 0.0
outer loop
vertex 3.188267155622 -3.71148078402347 6.00074617928582
vertex 4.08631712579928 -3.89011402961667 7.00074617928582
vertex 3.188267155622 -3.71148078402347 7.00074617928582
endloop
endfacet
facet normal -3.07670621921141e-015 -1.0 0.0
outer loop
vertex 5.00000047133964 -3.95 7.00074617928582
vertex 4.08631712579928 -3.89011402961667 6.00074617928582
vertex 5.00000047133964 -3.95 6.00074617928582
endloop
endfacet
facet normal -0.130526192220054 -0.99144486137381 0.0
outer loop
vertex 4.08631712579928 -3.89011402961667 6.00074617928582
vertex 5.00000047133964 -3.95 7.00074617928582
vertex 4.08631712579928 -3.89011402961667 7.00074617928582
endloop
endfacet
facet normal 0.130526192220049 -0.991444861373811 0.0
outer loop
vertex 5.91368381688 -3.89011402961668 7.00074617928582
vertex 5.00000047133964 -3.95 6.00074617928582
vertex 5.91368381688 -3.89011402961668 6.00074617928582
endloop
endfacet
facet normal -3.07670621921141e-015 -1.0 0.0
outer loop
vertex 5.00000047133964 -3.95 6.00074617928582
vertex 5.91368381688 -3.89011402961668 7.00074617928582
vertex 5.00000047133964 -3.95 7.00074617928582
endloop
endfacet
facet normal 0.258819045102518 -0.965925826289069 0.0
outer loop
vertex 6.81173378705728 -3.71148078402348 7.00074617928582
vertex 5.91368381688 -3.89011402961668 6.00074617928582
vertex 6.81173378705728 -3.71148078402348 6.00074617928582
endloop
endfacet
facet normal 0.130526192220049 -0.991444861373811 0.0
outer loop
vertex 5.91368381688 -3.89011402961668 6.00074617928582
vertex 6.81173378705728 -3.71148078402348 7.00074617928582
vertex 5.91368381688 -3.89011402961668 7.00074617928582
endloop
endfacet
facet normal 0.382683432365086 -0.923879532511288 0.0
outer loop
vertex 7.67878449789527 -3.41715672757902 7.00074617928582
vertex 6.81173378705728 -3.71148078402348 6.00074617928582
vertex 7.67878449789527 -3.41715672757902 6.00074617928582
endloop
endfacet
facet normal 0.258819045102518 -0.965925826289069 0.0
outer loop
vertex 6.81173378705728 -3.71148078402348 6.00074617928582
vertex 7.67878449789527 -3.41715672757902 7.00074617928582
vertex 6.81173378705728 -3.71148078402348 7.00074617928582
endloop
endfacet
facet normal 0.499999999999997 -0.86602540378444 0.0
outer loop
vertex 8.50000047133964 -3.01217782649108 7.00074617928582
vertex 7.67878449789527 -3.41715672757902 6.00074617928582
vertex 8.50000047133964 -3.01217782649108 6.00074617928582
endloop
endfacet
facet normal 0.382683432365086 -0.923879532511288 0.0
outer loop
vertex 7.67878449789527 -3.41715672757902 6.00074617928582
vertex 8.50000047133964 -3.01217782649108 7.00074617928582
vertex 7.67878449789527 -3.41715672757902 7.00074617928582
endloop
endfacet
facet normal 0.608761429008718 -0.793353340291237 0.0
outer loop
vertex 9.26133047440068 -2.50347338203866 7.00074617928582
vertex 8.50000047133964 -3.01217782649108 6.00074617928582
vertex 9.26133047440068 -2.50347338203866 6.00074617928582
endloop
endfacet
facet normal 0.499999999999997 -0.86602540378444 0.0
outer loop
vertex 8.50000047133964 -3.01217782649108 6.00074617928582
vertex 9.26133047440068 -2.50347338203866 7.00074617928582
vertex 8.50000047133964 -3.01217782649108 7.00074617928582
endloop
endfacet
facet normal 0.707106781186545 -0.70710678118655 0.0
outer loop
vertex 9.94974793964547 -1.89974746830585 7.00074617928582
vertex 9.26133047440068 -2.50347338203866 6.00074617928582
vertex 9.94974793964547 -1.89974746830585 6.00074617928582
endloop
endfacet
facet normal 0.608761429008718 -0.793353340291237 0.0
outer loop
vertex 9.26133047440068 -2.50347338203866 6.00074617928582
vertex 9.94974793964547 -1.89974746830585 7.00074617928582
vertex 9.26133047440068 -2.50347338203866 7.00074617928582
endloop
endfacet
facet normal 0.793353340291233 -0.608761429008724 0.0
outer loop
vertex 10.5534738533783 -1.21133000306107 6.00074617928582
vertex 9.94974793964547 -1.89974746830585 7.00074617928582
vertex 9.94974793964547 -1.89974746830585 6.00074617928582
endloop
endfacet
facet normal 0.707106781186545 -0.70710678118655 0.0
outer loop
vertex 9.94974793964547 -1.89974746830585 7.00074617928582
vertex 10.5534738533783 -1.21133000306107 6.00074617928582
vertex 10.5534738533783 -1.21133000306107 7.00074617928582
endloop
endfacet
facet normal 0.866025403784436 -0.500000000000004 0.0
outer loop
vertex 11.0621782978307 -0.450000000000024 6.00074617928582
vertex 10.5534738533783 -1.21133000306107 7.00074617928582
vertex 10.5534738533783 -1.21133000306107 6.00074617928582
endloop
endfacet
facet normal 0.793353340291233 -0.608761429008724 0.0
outer loop
vertex 10.5534738533783 -1.21133000306107 7.00074617928582
vertex 11.0621782978307 -0.450000000000024 6.00074617928582
vertex 11.0621782978307 -0.450000000000024 7.00074617928582
endloop
endfacet
facet normal 0.923879532511285 -0.382683432365094 0.0
outer loop
vertex 11.4671571989187 0.371215973444345 6.00074617928582
vertex 11.0621782978307 -0.450000000000024 7.00074617928582
vertex 11.0621782978307 -0.450000000000024 6.00074617928582
endloop
endfacet
facet normal 0.866025403784436 -0.500000000000004 0.0
outer loop
vertex 11.0621782978307 -0.450000000000024 7.00074617928582
vertex 11.4671571989187 0.371215973444345 6.00074617928582
vertex 11.4671571989187 0.371215973444345 7.00074617928582
endloop
endfacet
facet normal 0.965925826289067 -0.258819045102525 0.0
outer loop
vertex 11.7614812553631 1.23826668428233 6.00074617928582
vertex 11.4671571989187 0.371215973444345 7.00074617928582
vertex 11.4671571989187 0.371215973444345 6.00074617928582
endloop
endfacet
facet normal 0.923879532511285 -0.382683432365094 0.0
outer loop
vertex 11.4671571989187 0.371215973444345 7.00074617928582
vertex 11.7614812553631 1.23826668428233 6.00074617928582
vertex 11.7614812553631 1.23826668428233 7.00074617928582
endloop
endfacet
facet normal 0.99144486137381 -0.130526192220055 0.0
outer loop
vertex 11.9401145009563 2.13631665445961 6.00074617928582
vertex 11.7614812553631 1.23826668428233 7.00074617928582
vertex 11.7614812553631 1.23826668428233 6.00074617928582
endloop
endfacet
facet normal 0.965925826289067 -0.258819045102525 0.0
outer loop
vertex 11.7614812553631 1.23826668428233 7.00074617928582
vertex 11.9401145009563 2.13631665445961 6.00074617928582
vertex 11.9401145009563 2.13631665445961 7.00074617928582
endloop
endfacet
facet normal 1.0 -1.17755950260465e-015 0.0
outer loop
vertex 12.0000004713397 3.05 6.00074617928582
vertex 11.9401145009563 2.13631665445961 7.00074617928582
vertex 11.9401145009563 2.13631665445961 6.00074617928582
endloop
endfacet
facet normal 0.99144486137381 -0.130526192220055 0.0
outer loop
vertex 11.9401145009563 2.13631665445961 7.00074617928582
vertex 12.0000004713397 3.05 6.00074617928582
vertex 12.0000004713397 3.05 7.00074617928582
endloop
endfacet
facet normal -1.0 0.0 0.0
outer loop
vertex 2.4 5.1 6.0
vertex 2.4 1.0 0.0
vertex 2.4 1.0 6.0
endloop
endfacet
facet normal -1.0 0.0 0.0
outer loop
vertex 2.4 1.0 0.0
vertex 2.4 5.1 6.0
vertex 2.4 5.1 0.0
endloop
endfacet
endsolid button
