solid button
facet normal -0.0 -0.0 1.0
outer loop
vertex 9.7 0.2 18.0
vertex 0.3 5.8 18.0
vertex 0.3 0.2 18.0
endloop
endfacet
facet normal -0.0 -0.0 1.0
outer loop
vertex 0.3 5.8 18.0
vertex 9.7 0.2 18.0
vertex 9.7 5.8 18.0
endloop
endfacet
facet normal -1.0 0.0 0.0
outer loop
vertex 2.4 5.1 6.0
vertex 2.4 1.0 0.0
vertex 2.4 1.0 6.0
endloop
endfacet
facet normal -1.0 0.0 0.0
outer loop
vertex 2.4 1.0 0.0
vertex 2.4 5.1 6.0
vertex 2.4 5.1 0.0
endloop
endfacet
facet normal 1.0 0.0 0.0
outer loop
vertex 9.7 5.8 7.0
vertex 9.7 0.2 18.0
vertex 9.7 0.2 7.0
endloop
endfacet
facet normal 1.0 0.0 0.0
outer loop
vertex 9.7 0.2 18.0
vertex 9.7 5.8 7.0
vertex 9.7 5.8 18.0
endloop
endfacet
facet normal 0.0 0.0 -1.0
outer loop
vertex 7.1 3.75 4.0
vertex 5.725 2.25 4.0
vertex 5.725 3.75 4.0
endloop
endfacet
facet normal 0.0 0.0 -1.0
outer loop
vertex 5.725 2.25 4.0
vertex 7.1 3.75 4.0
vertex 7.1 2.25 4.0
endloop
endfacet
facet normal 0.0 0.0 -1.0
outer loop
vertex 5.725 5.1 4.0
vertex 4.275 3.85 4.0
vertex 4.275 5.1 4.0
endloop
endfacet
facet normal 0.0 0.0 -1.0
outer loop
vertex 4.275 3.85 4.0
vertex 5.725 5.1 4.0
vertex 4.275 2.15 4.0
endloop
endfacet
facet normal 0.0 0.0 -1.0
outer loop
vertex 4.275 2.15 4.0
vertex 5.725 5.1 4.0
vertex 4.275 1.0 4.0
endloop
endfacet
facet normal 0.0 0.0 -1.0
outer loop
vertex 4.275 1.0 4.0
vertex 5.725 5.1 4.0
vertex 5.725 1.0 4.0
endloop
endfacet
facet normal 0.0 0.0 -1.0
outer loop
vertex 5.725 1.0 4.0
vertex 5.725 5.1 4.0
vertex 5.725 3.75 4.0
endloop
endfacet
facet normal 0.0 0.0 -1.0
outer loop
vertex 5.725 1.0 4.0
vertex 5.725 3.75 4.0
vertex 5.725 2.25 4.0
endloop
endfacet
facet normal 0.0 0.0 -1.0
outer loop
vertex 4.275 3.85 4.0
vertex 2.9 2.15 4.0
vertex 2.9 3.85 4.0
endloop
endfacet
facet normal 0.0 0.0 -1.0
outer loop
vertex 2.9 2.15 4.0
vertex 4.275 3.85 4.0
vertex 4.275 2.15 4.0
endloop
endfacet
facet normal 1.0 -0.0 -0.0
outer loop
vertex 4.275 2.15 0.0
vertex 4.275 1.0 4.0
vertex 4.275 1.0 0.0
endloop
endfacet
facet normal 1.0 -0.0 -0.0
outer loop
vertex 4.275 1.0 4.0
vertex 4.275 2.15 0.0
vertex 4.275 2.15 4.0
endloop
endfacet
facet normal 0.0 1.0 0.0
outer loop
vertex 2.9 2.15 4.0
vertex 4.275 2.15 0.0
vertex 2.9 2.15 0.0
endloop
endfacet
facet normal 0.0 1.0 0.0
outer loop
vertex 4.275 2.15 0.0
vertex 2.9 2.15 4.0
vertex 4.275 2.15 4.0
endloop
endfacet
facet normal 1.0 0.0 0.0
outer loop
vertex 2.9 3.85 0.0
vertex 2.9 2.15 4.0
vertex 2.9 2.15 0.0
endloop
endfacet
facet normal 1.0 0.0 0.0
outer loop
vertex 2.9 2.15 4.0
vertex 2.9 3.85 0.0
vertex 2.9 3.85 4.0
endloop
endfacet
facet normal 0.0 -1.0 0.0
outer loop
vertex 4.275 3.85 4.0
vertex 2.9 3.85 0.0
vertex 4.275 3.85 0.0
endloop
endfacet
facet normal 0.0 -1.0 0.0
outer loop
vertex 2.9 3.85 0.0
vertex 4.275 3.85 4.0
vertex 2.9 3.85 4.0
endloop
endfacet
facet normal 1.0 -0.0 -0.0
outer loop
vertex 4.275 5.1 0.0
vertex 4.275 3.85 4.0
vertex 4.275 3.85 0.0
endloop
endfacet
facet normal 1.0 -0.0 -0.0
outer loop
vertex 4.275 3.85 4.0
vertex 4.275 5.1 0.0
vertex 4.275 5.1 4.0
endloop
endfacet
facet normal -1.0 0.0 0.0
outer loop
vertex 5.725 5.1 4.0
vertex 5.725 3.75 0.0
vertex 5.725 3.75 4.0
endloop
endfacet
facet normal -1.0 0.0 0.0
outer loop
vertex 5.725 3.75 0.0
vertex 5.725 5.1 4.0
vertex 5.725 5.1 0.0
endloop
endfacet
facet normal 0.0 -1.0 -0.0
outer loop
vertex 7.1 3.75 4.0
vertex 5.725 3.75 0.0
vertex 7.1 3.75 0.0
endloop
endfacet
facet normal 0.0 -1.0 -0.0
outer loop
vertex 5.725 3.75 0.0
vertex 7.1 3.75 4.0
vertex 5.725 3.75 4.0
endloop
endfacet
facet normal -1.0 -0.0 -0.0
outer loop
vertex 7.1 3.75 4.0
vertex 7.1 2.25 0.0
vertex 7.1 2.25 4.0
endloop
endfacet
facet normal -1.0 -0.0 -0.0
outer loop
vertex 7.1 2.25 0.0
vertex 7.1 3.75 4.0
vertex 7.1 3.75 0.0
endloop
endfacet
facet normal 0.0 1.0 0.0
outer loop
vertex 5.725 2.25 4.0
vertex 7.1 2.25 0.0
vertex 5.725 2.25 0.0
endloop
endfacet
facet normal 0.0 1.0 0.0
outer loop
vertex 7.1 2.25 0.0
vertex 5.725 2.25 4.0
vertex 7.1 2.25 4.0
endloop
endfacet
facet normal -1.0 0.0 0.0
outer loop
vertex 5.725 2.25 4.0
vertex 5.725 1.0 0.0
vertex 5.725 1.0 4.0
endloop
endfacet
facet normal -1.0 0.0 0.0
outer loop
vertex 5.725 1.0 0.0
vertex 5.725 2.25 4.0
vertex 5.725 2.25 0.0
endloop
endfacet
facet normal -1.0 0.0 0.0
outer loop
vertex -1.0 7.0 7.0
vertex -1.0 -1.0 6.0
vertex -1.0 -1.0 7.0
endloop
endfacet
facet normal -1.0 0.0 0.0
outer loop
vertex -1.0 -1.0 6.0
vertex -1.0 7.0 7.0
vertex -1.0 7.0 6.0
endloop
endfacet
facet normal -5.87493017197479e-017 8.81239525796218e-017 1.0
outer loop
vertex -1.0 -1.0 7.0
vertex 0.3 0.2 7.0
vertex -1.0 7.0 7.0
endloop
endfacet
facet normal -5.87493017197479e-017 8.81239525796218e-017 1.0
outer loop
vertex 0.3 0.2 7.0
vertex -1.0 -1.0 7.0
vertex 11.0 -1.0 7.0
endloop
endfacet
facet normal -5.87493017197479e-017 8.81239525796218e-017 1.0
outer loop
vertex 0.3 0.2 7.0
vertex 11.0 -1.0 7.0
vertex 9.7 0.2 7.0
endloop
endfacet
facet normal -5.87493017197479e-017 8.81239525796218e-017 1.0
outer loop
vertex 9.7 0.2 7.0
vertex 11.0 -1.0 7.0
vertex 9.7 5.8 7.0
endloop
endfacet
facet normal -5.87493017197479e-017 8.81239525796218e-017 1.0
outer loop
vertex -1.0 7.0 7.0
vertex 0.3 5.8 7.0
vertex 11.0 7.0 7.0
endloop
endfacet
facet normal -5.87493017197479e-017 8.81239525796218e-017 1.0
outer loop
vertex 0.3 5.8 7.0
vertex -1.0 7.0 7.0
vertex 0.3 0.2 7.0
endloop
endfacet
facet normal -5.87493017197479e-017 8.81239525796218e-017 1.0
outer loop
vertex 11.0 7.0 7.0
vertex 0.3 5.8 7.0
vertex 9.7 5.8 7.0
endloop
endfacet
facet normal -5.87493017197479e-017 8.81239525796218e-017 1.0
outer loop
vertex 11.0 7.0 7.0
vertex 9.7 5.8 7.0
vertex 11.0 -1.0 7.0
endloop
endfacet
facet normal 0.0 1.0 0.0
outer loop
vertex -1.0 7.0 7.0
vertex 11.0 7.0 6.0
vertex -1.0 7.0 6.0
endloop
endfacet
facet normal 0.0 1.0 0.0
outer loop
vertex 11.0 7.0 6.0
vertex -1.0 7.0 7.0
vertex 11.0 7.0 7.0
endloop
endfacet
facet normal 1.0 0.0 0.0
outer loop
vertex 11.0 7.0 6.0
vertex 11.0 -1.0 7.0
vertex 11.0 -1.0 6.0
endloop
endfacet
facet normal 1.0 0.0 0.0
outer loop
vertex 11.0 -1.0 7.0
vertex 11.0 7.0 6.0
vertex 11.0 7.0 7.0
endloop
endfacet
facet normal 0.0 -1.0 0.0
outer loop
vertex 11.0 -1.0 7.0
vertex -1.0 -1.0 6.0
vertex 11.0 -1.0 6.0
endloop
endfacet
facet normal 0.0 -1.0 0.0
outer loop
vertex -1.0 -1.0 6.0
vertex 11.0 -1.0 7.0
vertex -1.0 -1.0 7.0
endloop
endfacet
facet normal 1.0 0.0 0.0
outer loop
vertex 7.60000094267932 5.1 0.00149235857163427
vertex 7.60000094267932 1.0 6.00149235857163
vertex 7.60000094267932 1.0 0.00149235857163427
endloop
endfacet
facet normal 1.0 0.0 0.0
outer loop
vertex 7.60000094267932 1.0 6.00149235857163
vertex 7.60000094267932 5.1 0.00149235857163427
vertex 7.60000094267932 5.1 6.00149235857163
endloop
endfacet
facet normal 0.0 0.0 -1.0
outer loop
vertex 2.4 5.1 0.0
vertex 2.9 3.85 0.0
vertex 2.4 1.0 0.0
endloop
endfacet
facet normal 0.0 0.0 -1.0
outer loop
vertex 2.9 3.85 0.0
vertex 2.4 5.1 0.0
vertex 4.275 5.1 0.0
endloop
endfacet
facet normal 0.0 0.0 -1.0
outer loop
vertex 2.9 3.85 0.0
vertex 4.275 5.1 0.0
vertex 4.275 3.85 0.0
endloop
endfacet
facet normal 0.0 0.0 -1.0
outer loop
vertex 2.4 1.0 0.0
vertex 2.9 2.15 0.0
vertex 4.275 1.0 0.0
endloop
endfacet
facet normal 0.0 0.0 -1.0
outer loop
vertex 2.9 2.15 0.0
vertex 2.4 1.0 0.0
vertex 2.9 3.85 0.0
endloop
endfacet
facet normal 0.0 0.0 -1.0
outer loop
vertex 4.275 1.0 0.0
vertex 2.9 2.15 0.0
vertex 4.275 2.15 0.0
endloop
endfacet
facet normal 0.0 -1.0 0.0
outer loop
vertex 9.7 0.2 7.0
vertex 0.3 0.2 18.0
vertex 0.3 0.2 7.0
endloop
endfacet
facet normal 0.0 -1.0 0.0
outer loop
vertex 0.3 0.2 18.0
vertex 9.7 0.2 7.0
vertex 9.7 0.2 18.0
endloop
endfacet
facet normal 0.0 0.0 -1.0
outer loop
vertex -1.0 7.0 6.0
vertex 2.4 5.1 6.0
vertex -1.0 -1.0 6.0
endloop
endfacet
facet normal 0.0 0.0 -1.0
outer loop
vertex 2.4 5.1 6.0
vertex -1.0 7.0 6.0
vertex 11.0 7.0 6.0
endloop
endfacet
facet normal 0.0 0.0 -1.0
outer loop
vertex 2.4 5.1 6.0
vertex 11.0 7.0 6.0
vertex 7.60000094267932 5.1 6.00149235857163
endloop
endfacet
facet normal 0.0 0.0 -1.0
outer loop
vertex 7.60000094267932 5.1 6.00149235857163
vertex 11.0 7.0 6.0
vertex 7.60000094267932 1.0 6.00149235857163
endloop
endfacet
facet normal 0.0 0.0 -1.0
outer loop
vertex -1.0 -1.0 6.0
vertex 2.4 1.0 6.0
vertex 11.0 -1.0 6.0
endloop
endfacet
facet normal 0.0 0.0 -1.0
outer loop
vertex 2.4 1.0 6.0
vertex -1.0 -1.0 6.0
vertex 2.4 5.1 6.0
endloop
endfacet
facet normal 0.0 0.0 -1.0
outer loop
vertex 11.0 -1.0 6.0
vertex 2.4 1.0 6.0
vertex 7.60000094267932 1.0 6.00149235857163
endloop
endfacet
facet normal 0.0 0.0 -1.0
outer loop
vertex 11.0 -1.0 6.0
vertex 7.60000094267932 1.0 6.00149235857163
vertex 11.0 7.0 6.0
endloop
endfacet
facet normal -0.0 1.0 -0.0
outer loop
vertex 0.3 5.8 18.0
vertex 9.7 5.8 7.0
vertex 0.3 5.8 7.0
endloop
endfacet
facet normal -0.0 1.0 -0.0
outer loop
vertex 9.7 5.8 7.0
vertex 0.3 5.8 18.0
vertex 9.7 5.8 18.0
endloop
endfacet
facet normal -1.0 0.0 0.0
outer loop
vertex 0.3 5.8 18.0
vertex 0.3 0.2 7.0
vertex 0.3 0.2 18.0
endloop
endfacet
facet normal -1.0 0.0 0.0
outer loop
vertex 0.3 0.2 7.0
vertex 0.3 5.8 18.0
vertex 0.3 5.8 7.0
endloop
endfacet
facet normal 5.22950160974137e-018 -1.0 -1.30167593077365e-017
outer loop
vertex 7.60000094267932 1.0 0.00149235857163427
vertex 5.725 1.0 4.0
vertex 5.725 1.0 0.0
endloop
endfacet
facet normal 5.22950160974137e-018 -1.0 -1.30167593077365e-017
outer loop
vertex 5.725 1.0 4.0
vertex 7.60000094267932 1.0 0.00149235857163427
vertex 7.60000094267932 1.0 6.00149235857163
endloop
endfacet
facet normal 5.22950160974137e-018 -1.0 -1.30167593077365e-017
outer loop
vertex 5.725 1.0 4.0
vertex 7.60000094267932 1.0 6.00149235857163
vertex 4.275 1.0 4.0
endloop
endfacet
facet normal 5.22950160974137e-018 -1.0 -1.30167593077365e-017
outer loop
vertex 4.275 1.0 4.0
vertex 7.60000094267932 1.0 6.00149235857163
vertex 2.4 1.0 6.0
endloop
endfacet
facet normal 5.22950160974137e-018 -1.0 -1.30167593077365e-017
outer loop
vertex 4.275 1.0 4.0
vertex 2.4 1.0 0.0
vertex 4.275 1.0 0.0
endloop
endfacet
facet normal 5.22950160974137e-018 -1.0 -1.30167593077365e-017
outer loop
vertex 2.4 1.0 0.0
vertex 4.275 1.0 4.0
vertex 2.4 1.0 6.0
endloop
endfacet
facet normal 0.000575512122104865 3.31013095493202e-006 -0.999999834387406
outer loop
vertex 7.60000094267932 5.1 0.00149235857163427
vertex 5.725 3.75 0.0
vertex 5.725 5.1 0.0
endloop
endfacet
facet normal 0.000575512122104865 3.31013095493202e-006 -0.999999834387406
outer loop
vertex 5.725 3.75 0.0
vertex 7.60000094267932 5.1 0.00149235857163427
vertex 7.1 3.75 0.0
endloop
endfacet
facet normal 0.000575512122104865 3.31013095493202e-006 -0.999999834387406
outer loop
vertex 7.1 3.75 0.0
vertex 7.60000094267932 5.1 0.00149235857163427
vertex 7.1 2.25 0.0
endloop
endfacet
facet normal 0.000575512122104865 3.31013095493202e-006 -0.999999834387406
outer loop
vertex 7.1 2.25 0.0
vertex 5.725 1.0 0.0
vertex 5.725 2.25 0.0
endloop
endfacet
facet normal 0.000575512122104865 3.31013095493202e-006 -0.999999834387406
outer loop
vertex 5.725 1.0 0.0
vertex 7.1 2.25 0.0
vertex 7.60000094267932 1.0 0.00149235857163427
endloop
endfacet
facet normal 0.000575512122104865 3.31013095493202e-006 -0.999999834387406
outer loop
vertex 7.60000094267932 1.0 0.00149235857163427
vertex 7.1 2.25 0.0
vertex 7.60000094267932 5.1 0.00149235857163427
endloop
endfacet
facet normal 3.13770096584482e-017 1.0 -7.81005558464188e-017
outer loop
vertex 2.4 5.1 6.0
vertex 4.275 5.1 0.0
vertex 2.4 5.1 0.0
endloop
endfacet
facet normal 3.13770096584482e-017 1.0 -7.81005558464188e-017
outer loop
vertex 4.275 5.1 0.0
vertex 2.4 5.1 6.0
vertex 4.275 5.1 4.0
endloop
endfacet
facet normal 3.13770096584482e-017 1.0 -7.81005558464188e-017
outer loop
vertex 4.275 5.1 4.0
vertex 2.4 5.1 6.0
vertex 5.725 5.1 4.0
endloop
endfacet
facet normal 3.13770096584482e-017 1.0 -7.81005558464188e-017
outer loop
vertex 5.725 5.1 4.0
vertex 7.60000094267932 5.1 0.00149235857163427
vertex 5.725 5.1 0.0
endloop
endfacet
facet normal 3.13770096584482e-017 1.0 -7.81005558464188e-017
outer loop
vertex 7.60000094267932 5.1 0.00149235857163427
vertex 5.725 5.1 4.0
vertex 7.60000094267932 5.1 6.00149235857163
endloop
endfacet
facet normal 3.13770096584482e-017 1.0 -7.81005558464188e-017
outer loop
vertex 7.60000094267932 5.1 6.00149235857163
vertex 5.725 5.1 4.0
vertex 2.4 5.1 6.0
endloop
endfacet
endsolid button
