solid single-command-button-template
facet normal -0.0 -0.0 1.0
outer loop
vertex 80.2 0.0 0.0
vertex 93.9807611844575 8.44014330082519 0.0
vertex 80.2 24.95 0.0
endloop
endfacet
facet normal -0.0 -0.0 1.0
outer loop
vertex 93.9807611844575 8.44014330082519 0.0
vertex 80.2 0.0 0.0
vertex 94.25 8.23354909144793 0.0
endloop
endfacet
facet normal -0.0 -0.0 1.0
outer loop
vertex 94.25 8.23354909144793 0.0
vertex 80.2 0.0 0.0
vertex 94.5635352413667 8.10367854219192 0.0
endloop
endfacet
facet normal -0.0 -0.0 1.0
outer loop
vertex 94.5635352413667 8.10367854219192 0.0
vertex 80.2 0.0 0.0
vertex 105.295241121992 4.27804468755564 0.0
endloop
endfacet
facet normal -0.0 -0.0 1.0
outer loop
vertex 105.295241121992 4.27804468755564 0.0
vertex 80.2 0.0 0.0
vertex 105.976495251936 4.04679007177784 0.0
endloop
endfacet
facet normal -0.0 -0.0 1.0
outer loop
vertex 105.976495251936 4.04679007177784 0.0
vertex 80.2 0.0 0.0
vertex 106.68210594279 3.90643537881176 0.0
endloop
endfacet
facet normal -0.0 -0.0 1.0
outer loop
vertex 106.68210594279 3.90643537881176 0.0
vertex 80.2 0.0 0.0
vertex 132.3 0.0 0.0
endloop
endfacet
facet normal -0.0 -0.0 1.0
outer loop
vertex 80.2 24.95 0.0
vertex 93.9807611844575 8.44014330082519 0.0
vertex 93.7741669750802 8.7093821163677 0.0
endloop
endfacet
facet normal -0.0 -0.0 1.0
outer loop
vertex 80.2 24.95 0.0
vertex 93.7741669750802 8.7093821163677 0.0
vertex 93.6442964258242 9.02291735773443 0.0
endloop
endfacet
facet normal -0.0 -0.0 1.0
outer loop
vertex 80.2 24.95 0.0
vertex 93.6442964258242 9.02291735773443 0.0
vertex 93.6 9.3593821163677 0.0
endloop
endfacet
facet normal -0.0 -0.0 1.0
outer loop
vertex 94.5635352413667 8.10367854219192 0.0
vertex 105.295241121992 4.27804468755564 0.0
vertex 94.9 8.0593821163677 0.0
endloop
endfacet
facet normal -0.0 -0.0 1.0
outer loop
vertex 94.9 8.0593821163677 0.0
vertex 105.295241121992 4.27804468755564 0.0
vertex 95.2364647586333 8.10367854219191 0.0
endloop
endfacet
facet normal -0.0 -0.0 1.0
outer loop
vertex 95.2364647586333 8.10367854219191 0.0
vertex 105.295241121992 4.27804468755564 0.0
vertex 95.55 8.23354909144793 0.0
endloop
endfacet
facet normal -0.0 -0.0 1.0
outer loop
vertex 95.55 8.23354909144793 0.0
vertex 105.295241121992 4.27804468755564 0.0
vertex 95.8192388155425 8.44014330082519 0.0
endloop
endfacet
facet normal -0.0 -0.0 1.0
outer loop
vertex 95.8192388155425 8.44014330082519 0.0
vertex 105.295241121992 4.27804468755564 0.0
vertex 96.0258330249198 8.7093821163677 0.0
endloop
endfacet
facet normal -0.0 -0.0 1.0
outer loop
vertex 96.0258330249198 8.7093821163677 0.0
vertex 105.295241121992 4.27804468755564 0.0
vertex 104.65 4.5962423955533 0.0
endloop
endfacet
facet normal -0.0 -0.0 1.0
outer loop
vertex 96.0258330249198 8.7093821163677 0.0
vertex 104.65 4.5962423955533 0.0
vertex 96.1557035741758 9.02291735773443 0.0
endloop
endfacet
facet normal -0.0 -0.0 1.0
outer loop
vertex 96.1557035741758 9.02291735773443 0.0
vertex 104.65 4.5962423955533 0.0
vertex 96.2 9.3593821163677 0.0
endloop
endfacet
facet normal -0.0 -0.0 1.0
outer loop
vertex 96.2 9.3593821163677 0.0
vertex 104.65 4.5962423955533 0.0
vertex 104.051812140452 4.99593874476592 0.0
endloop
endfacet
facet normal -0.0 -0.0 1.0
outer loop
vertex 96.2 9.3593821163677 0.0
vertex 104.051812140452 4.99593874476592 0.0
vertex 103.510912703474 5.4702948198417 0.0
endloop
endfacet
facet normal -0.0 -0.0 1.0
outer loop
vertex 96.2 9.3593821163677 0.0
vertex 103.510912703474 5.4702948198417 0.0
vertex 103.036556628398 6.01119425681975 0.0
endloop
endfacet
facet normal -0.0 -0.0 1.0
outer loop
vertex 96.2 9.3593821163677 0.0
vertex 103.036556628398 6.01119425681975 0.0
vertex 102.636860279186 6.60938211636771 0.0
endloop
endfacet
facet normal -0.0 -0.0 1.0
outer loop
vertex 96.2 9.3593821163677 0.0
vertex 102.636860279186 6.60938211636771 0.0
vertex 102.318662571188 7.25462323835972 0.0
endloop
endfacet
facet normal -0.0 -0.0 1.0
outer loop
vertex 96.2 9.3593821163677 0.0
vertex 102.318662571188 7.25462323835972 0.0
vertex 102.08740795541 7.93587736830385 0.0
endloop
endfacet
facet normal -0.0 -0.0 1.0
outer loop
vertex 96.2 9.3593821163677 0.0
vertex 102.08740795541 7.93587736830385 0.0
vertex 101.947053262444 8.64148805915743 0.0
endloop
endfacet
facet normal -0.0 -0.0 1.0
outer loop
vertex 96.2 9.3593821163677 0.0
vertex 101.947053262444 8.64148805915743 0.0
vertex 101.9 9.35938211636771 0.0
endloop
endfacet
facet normal -0.0 -0.0 1.0
outer loop
vertex 106.68210594279 3.90643537881176 0.0
vertex 132.3 0.0 0.0
vertex 107.4 3.85938211636772 0.0
endloop
endfacet
facet normal -0.0 -0.0 1.0
outer loop
vertex 107.4 3.85938211636772 0.0
vertex 132.3 0.0 0.0
vertex 108.11789405721 3.90643537881176 0.0
endloop
endfacet
facet normal -0.0 -0.0 1.0
outer loop
vertex 108.11789405721 3.90643537881176 0.0
vertex 132.3 0.0 0.0
vertex 108.823504748064 4.04679007177784 0.0
endloop
endfacet
facet normal -0.0 -0.0 1.0
outer loop
vertex 108.823504748064 4.04679007177784 0.0
vertex 132.3 0.0 0.0
vertex 109.504758878008 4.27804468755564 0.0
endloop
endfacet
facet normal -0.0 -0.0 1.0
outer loop
vertex 109.504758878008 4.27804468755564 0.0
vertex 132.3 0.0 0.0
vertex 110.15 4.5962423955533 0.0
endloop
endfacet
facet normal -0.0 -0.0 1.0
outer loop
vertex 110.15 4.5962423955533 0.0
vertex 132.3 0.0 0.0
vertex 110.748187859548 4.99593874476592 0.0
endloop
endfacet
facet normal -0.0 -0.0 1.0
outer loop
vertex 110.748187859548 4.99593874476592 0.0
vertex 132.3 0.0 0.0
vertex 111.289087296526 5.4702948198417 0.0
endloop
endfacet
facet normal -0.0 -0.0 1.0
outer loop
vertex 111.289087296526 5.4702948198417 0.0
vertex 132.3 0.0 0.0
vertex 111.763443371602 6.01119425681975 0.0
endloop
endfacet
facet normal -0.0 -0.0 1.0
outer loop
vertex 111.763443371602 6.01119425681975 0.0
vertex 132.3 0.0 0.0
vertex 112.163139720814 6.60938211636772 0.0
endloop
endfacet
facet normal -0.0 -0.0 1.0
outer loop
vertex 112.163139720814 6.60938211636772 0.0
vertex 132.3 0.0 0.0
vertex 112.481337428812 7.25462323835972 0.0
endloop
endfacet
facet normal -0.0 -0.0 1.0
outer loop
vertex 112.481337428812 7.25462323835972 0.0
vertex 132.3 0.0 0.0
vertex 112.71259204459 7.93587736830385 0.0
endloop
endfacet
facet normal -0.0 -0.0 1.0
outer loop
vertex 112.71259204459 7.93587736830385 0.0
vertex 132.3 0.0 0.0
vertex 112.852946737556 8.64148805915743 0.0
endloop
endfacet
facet normal -0.0 -0.0 1.0
outer loop
vertex 112.852946737556 8.64148805915743 0.0
vertex 132.3 0.0 0.0
vertex 112.9 9.35938211636774 0.0
endloop
endfacet
facet normal -0.0 -0.0 1.0
outer loop
vertex 112.9 9.35938211636774 0.0
vertex 132.3 0.0 0.0
vertex 119.25 8.23354909144793 0.0
endloop
endfacet
facet normal -0.0 -0.0 1.0
outer loop
vertex 112.9 9.35938211636774 0.0
vertex 119.25 8.23354909144793 0.0
vertex 118.980761184457 8.44014330082519 0.0
endloop
endfacet
facet normal -0.0 -0.0 1.0
outer loop
vertex 112.9 9.35938211636774 0.0
vertex 118.980761184457 8.44014330082519 0.0
vertex 118.77416697508 8.7093821163677 0.0
endloop
endfacet
facet normal -0.0 -0.0 1.0
outer loop
vertex 112.9 9.35938211636774 0.0
vertex 118.77416697508 8.7093821163677 0.0
vertex 118.644296425824 9.02291735773443 0.0
endloop
endfacet
facet normal -0.0 -0.0 1.0
outer loop
vertex 112.9 9.35938211636774 0.0
vertex 118.644296425824 9.02291735773443 0.0
vertex 118.6 9.3593821163677 0.0
endloop
endfacet
facet normal -0.0 -0.0 1.0
outer loop
vertex 119.25 8.23354909144793 0.0
vertex 132.3 0.0 0.0
vertex 119.563535241367 8.10367854219192 0.0
endloop
endfacet
facet normal -0.0 -0.0 1.0
outer loop
vertex 119.563535241367 8.10367854219192 0.0
vertex 132.3 0.0 0.0
vertex 119.9 8.0593821163677 0.0
endloop
endfacet
facet normal -0.0 -0.0 1.0
outer loop
vertex 119.9 8.0593821163677 0.0
vertex 132.3 0.0 0.0
vertex 120.236464758633 8.10367854219192 0.0
endloop
endfacet
facet normal -0.0 -0.0 1.0
outer loop
vertex 120.236464758633 8.10367854219192 0.0
vertex 132.3 0.0 0.0
vertex 120.55 8.23354909144793 0.0
endloop
endfacet
facet normal -0.0 -0.0 1.0
outer loop
vertex 120.55 8.23354909144793 0.0
vertex 132.3 0.0 0.0
vertex 120.819238815543 8.44014330082519 0.0
endloop
endfacet
facet normal -0.0 -0.0 1.0
outer loop
vertex 120.819238815543 8.44014330082519 0.0
vertex 132.3 0.0 0.0
vertex 121.02583302492 8.7093821163677 0.0
endloop
endfacet
facet normal -0.0 -0.0 1.0
outer loop
vertex 121.02583302492 8.7093821163677 0.0
vertex 132.3 0.0 0.0
vertex 121.155703574176 9.02291735773443 0.0
endloop
endfacet
facet normal -0.0 -0.0 1.0
outer loop
vertex 121.155703574176 9.02291735773443 0.0
vertex 132.3 0.0 0.0
vertex 121.2 9.3593821163677 0.0
endloop
endfacet
facet normal -0.0 -0.0 1.0
outer loop
vertex 80.2 24.95 0.0
vertex 94.5635352413667 10.6150856905435 0.0
vertex 132.3 24.95 0.0
endloop
endfacet
facet normal -0.0 -0.0 1.0
outer loop
vertex 94.5635352413667 10.6150856905435 0.0
vertex 80.2 24.95 0.0
vertex 94.25 10.4852151412875 0.0
endloop
endfacet
facet normal -0.0 -0.0 1.0
outer loop
vertex 94.25 10.4852151412875 0.0
vertex 80.2 24.95 0.0
vertex 93.9807611844575 10.2786209319102 0.0
endloop
endfacet
facet normal -0.0 -0.0 1.0
outer loop
vertex 93.9807611844575 10.2786209319102 0.0
vertex 80.2 24.95 0.0
vertex 93.7741669750802 10.0093821163677 0.0
endloop
endfacet
facet normal -0.0 -0.0 1.0
outer loop
vertex 93.7741669750802 10.0093821163677 0.0
vertex 80.2 24.95 0.0
vertex 93.6442964258242 9.69584687500098 0.0
endloop
endfacet
facet normal -0.0 -0.0 1.0
outer loop
vertex 93.6442964258242 9.69584687500098 0.0
vertex 80.2 24.95 0.0
vertex 93.6 9.3593821163677 0.0
endloop
endfacet
facet normal -0.0 -0.0 1.0
outer loop
vertex 132.3 24.95 0.0
vertex 94.5635352413667 10.6150856905435 0.0
vertex 94.9 10.6593821163677 0.0
endloop
endfacet
facet normal -0.0 -0.0 1.0
outer loop
vertex 132.3 24.95 0.0
vertex 94.9 10.6593821163677 0.0
vertex 95.2364647586333 10.6150856905435 0.0
endloop
endfacet
facet normal -0.0 -0.0 1.0
outer loop
vertex 132.3 24.95 0.0
vertex 95.2364647586333 10.6150856905435 0.0
vertex 105.295241121992 14.4407195451798 0.0
endloop
endfacet
facet normal -0.0 -0.0 1.0
outer loop
vertex 105.295241121992 14.4407195451798 0.0
vertex 95.2364647586333 10.6150856905435 0.0
vertex 95.55 10.4852151412875 0.0
endloop
endfacet
facet normal -0.0 -0.0 1.0
outer loop
vertex 105.295241121992 14.4407195451798 0.0
vertex 95.55 10.4852151412875 0.0
vertex 95.8192388155425 10.2786209319102 0.0
endloop
endfacet
facet normal -0.0 -0.0 1.0
outer loop
vertex 105.295241121992 14.4407195451798 0.0
vertex 95.8192388155425 10.2786209319102 0.0
vertex 96.0258330249198 10.0093821163677 0.0
endloop
endfacet
facet normal -0.0 -0.0 1.0
outer loop
vertex 105.295241121992 14.4407195451798 0.0
vertex 96.0258330249198 10.0093821163677 0.0
vertex 104.65 14.1225218371821 0.0
endloop
endfacet
facet normal -0.0 -0.0 1.0
outer loop
vertex 104.65 14.1225218371821 0.0
vertex 96.0258330249198 10.0093821163677 0.0
vertex 96.1557035741758 9.69584687500098 0.0
endloop
endfacet
facet normal -0.0 -0.0 1.0
outer loop
vertex 104.65 14.1225218371821 0.0
vertex 96.1557035741758 9.69584687500098 0.0
vertex 96.2 9.3593821163677 0.0
endloop
endfacet
facet normal -0.0 -0.0 1.0
outer loop
vertex 104.65 14.1225218371821 0.0
vertex 96.2 9.3593821163677 0.0
vertex 104.051812140452 13.7228254879695 0.0
endloop
endfacet
facet normal -0.0 -0.0 1.0
outer loop
vertex 104.051812140452 13.7228254879695 0.0
vertex 96.2 9.3593821163677 0.0
vertex 103.510912703474 13.2484694128937 0.0
endloop
endfacet
facet normal -0.0 -0.0 1.0
outer loop
vertex 103.510912703474 13.2484694128937 0.0
vertex 96.2 9.3593821163677 0.0
vertex 103.036556628398 12.7075699759157 0.0
endloop
endfacet
facet normal -0.0 -0.0 1.0
outer loop
vertex 103.036556628398 12.7075699759157 0.0
vertex 96.2 9.3593821163677 0.0
vertex 102.636860279186 12.1093821163677 0.0
endloop
endfacet
facet normal -0.0 -0.0 1.0
outer loop
vertex 102.636860279186 12.1093821163677 0.0
vertex 96.2 9.3593821163677 0.0
vertex 102.318662571188 11.4641409943757 0.0
endloop
endfacet
facet normal -0.0 -0.0 1.0
outer loop
vertex 102.318662571188 11.4641409943757 0.0
vertex 96.2 9.3593821163677 0.0
vertex 102.08740795541 10.7828868644316 0.0
endloop
endfacet
facet normal -0.0 -0.0 1.0
outer loop
vertex 102.08740795541 10.7828868644316 0.0
vertex 96.2 9.3593821163677 0.0
vertex 101.947053262444 10.077276173578 0.0
endloop
endfacet
facet normal -0.0 -0.0 1.0
outer loop
vertex 101.947053262444 10.077276173578 0.0
vertex 96.2 9.3593821163677 0.0
vertex 101.9 9.35938211636771 0.0
endloop
endfacet
facet normal -0.0 -0.0 1.0
outer loop
vertex 132.3 24.95 0.0
vertex 105.295241121992 14.4407195451798 0.0
vertex 105.976495251936 14.6719741609576 0.0
endloop
endfacet
facet normal -0.0 -0.0 1.0
outer loop
vertex 132.3 24.95 0.0
vertex 105.976495251936 14.6719741609576 0.0
vertex 106.68210594279 14.8123288539237 0.0
endloop
endfacet
facet normal -0.0 -0.0 1.0
outer loop
vertex 132.3 24.95 0.0
vertex 106.68210594279 14.8123288539237 0.0
vertex 107.4 14.8593821163677 0.0
endloop
endfacet
facet normal -0.0 -0.0 1.0
outer loop
vertex 132.3 24.95 0.0
vertex 107.4 14.8593821163677 0.0
vertex 108.11789405721 14.8123288539237 0.0
endloop
endfacet
facet normal -0.0 -0.0 1.0
outer loop
vertex 132.3 24.95 0.0
vertex 108.11789405721 14.8123288539237 0.0
vertex 108.823504748064 14.6719741609576 0.0
endloop
endfacet
facet normal -0.0 -0.0 1.0
outer loop
vertex 132.3 24.95 0.0
vertex 108.823504748064 14.6719741609576 0.0
vertex 109.504758878008 14.4407195451798 0.0
endloop
endfacet
facet normal -0.0 -0.0 1.0
outer loop
vertex 132.3 24.95 0.0
vertex 109.504758878008 14.4407195451798 0.0
vertex 110.15 14.1225218371821 0.0
endloop
endfacet
facet normal -0.0 -0.0 1.0
outer loop
vertex 132.3 24.95 0.0
vertex 110.15 14.1225218371821 0.0
vertex 110.748187859548 13.7228254879695 0.0
endloop
endfacet
facet normal -0.0 -0.0 1.0
outer loop
vertex 132.3 24.95 0.0
vertex 110.748187859548 13.7228254879695 0.0
vertex 111.289087296526 13.2484694128937 0.0
endloop
endfacet
facet normal -0.0 -0.0 1.0
outer loop
vertex 132.3 24.95 0.0
vertex 111.289087296526 13.2484694128937 0.0
vertex 111.763443371602 12.7075699759157 0.0
endloop
endfacet
facet normal -0.0 -0.0 1.0
outer loop
vertex 132.3 24.95 0.0
vertex 111.763443371602 12.7075699759157 0.0
vertex 112.163139720814 12.1093821163677 0.0
endloop
endfacet
facet normal -0.0 -0.0 1.0
outer loop
vertex 132.3 24.95 0.0
vertex 112.163139720814 12.1093821163677 0.0
vertex 112.481337428812 11.4641409943757 0.0
endloop
endfacet
facet normal -0.0 -0.0 1.0
outer loop
vertex 132.3 24.95 0.0
vertex 112.481337428812 11.4641409943757 0.0
vertex 112.71259204459 10.7828868644316 0.0
endloop
endfacet
facet normal -0.0 -0.0 1.0
outer loop
vertex 132.3 24.95 0.0
vertex 112.71259204459 10.7828868644316 0.0
vertex 112.852946737556 10.077276173578 0.0
endloop
endfacet
facet normal -0.0 -0.0 1.0
outer loop
vertex 132.3 24.95 0.0
vertex 112.852946737556 10.077276173578 0.0
vertex 112.9 9.35938211636774 0.0
endloop
endfacet
facet normal -0.0 -0.0 1.0
outer loop
vertex 132.3 24.95 0.0
vertex 112.9 9.35938211636774 0.0
vertex 118.980761184457 10.2786209319102 0.0
endloop
endfacet
facet normal -0.0 -0.0 1.0
outer loop
vertex 118.980761184457 10.2786209319102 0.0
vertex 112.9 9.35938211636774 0.0
vertex 118.77416697508 10.0093821163677 0.0
endloop
endfacet
facet normal -0.0 -0.0 1.0
outer loop
vertex 118.77416697508 10.0093821163677 0.0
vertex 112.9 9.35938211636774 0.0
vertex 118.644296425824 9.69584687500098 0.0
endloop
endfacet
facet normal -0.0 -0.0 1.0
outer loop
vertex 118.644296425824 9.69584687500098 0.0
vertex 112.9 9.35938211636774 0.0
vertex 118.6 9.3593821163677 0.0
endloop
endfacet
facet normal -0.0 -0.0 1.0
outer loop
vertex 132.3 24.95 0.0
vertex 118.980761184457 10.2786209319102 0.0
vertex 119.25 10.4852151412875 0.0
endloop
endfacet
facet normal -0.0 -0.0 1.0
outer loop
vertex 132.3 24.95 0.0
vertex 119.25 10.4852151412875 0.0
vertex 119.563535241367 10.6150856905435 0.0
endloop
endfacet
facet normal -0.0 -0.0 1.0
outer loop
vertex 132.3 24.95 0.0
vertex 119.563535241367 10.6150856905435 0.0
vertex 119.9 10.6593821163677 0.0
endloop
endfacet
facet normal -0.0 -0.0 1.0
outer loop
vertex 132.3 24.95 0.0
vertex 119.9 10.6593821163677 0.0
vertex 120.236464758633 10.6150856905435 0.0
endloop
endfacet
facet normal -0.0 -0.0 1.0
outer loop
vertex 132.3 24.95 0.0
vertex 120.236464758633 10.6150856905435 0.0
vertex 120.55 10.4852151412875 0.0
endloop
endfacet
facet normal -0.0 -0.0 1.0
outer loop
vertex 132.3 24.95 0.0
vertex 120.55 10.4852151412875 0.0
vertex 120.819238815543 10.2786209319102 0.0
endloop
endfacet
facet normal -0.0 -0.0 1.0
outer loop
vertex 132.3 24.95 0.0
vertex 120.819238815543 10.2786209319102 0.0
vertex 121.02583302492 10.0093821163677 0.0
endloop
endfacet
facet normal -0.0 -0.0 1.0
outer loop
vertex 132.3 24.95 0.0
vertex 121.02583302492 10.0093821163677 0.0
vertex 121.155703574176 9.69584687500098 0.0
endloop
endfacet
facet normal -0.0 -0.0 1.0
outer loop
vertex 132.3 24.95 0.0
vertex 121.155703574176 9.69584687500098 0.0
vertex 121.2 9.3593821163677 0.0
endloop
endfacet
facet normal -0.0 -0.0 1.0
outer loop
vertex 132.3 24.95 0.0
vertex 121.2 9.3593821163677 0.0
vertex 132.3 0.0 0.0
endloop
endfacet
facet normal 0.0 0.0 -1.0
outer loop
vertex 80.2 24.95 -1.0
vertex 94.25 10.4852151412875 -1.0
vertex 80.2 0.0 -1.0
endloop
endfacet
facet normal 0.0 0.0 -1.0
outer loop
vertex 94.25 10.4852151412875 -1.0
vertex 80.2 24.95 -1.0
vertex 94.5635352413667 10.6150856905435 -1.0
endloop
endfacet
facet normal 0.0 0.0 -1.0
outer loop
vertex 94.5635352413667 10.6150856905435 -1.0
vertex 80.2 24.95 -1.0
vertex 132.3 24.95 -1.0
endloop
endfacet
facet normal 0.0 0.0 -1.0
outer loop
vertex 80.2 0.0 -1.0
vertex 94.25 10.4852151412875 -1.0
vertex 93.9807611844575 10.2786209319102 -1.0
endloop
endfacet
facet normal 0.0 0.0 -1.0
outer loop
vertex 80.2 0.0 -1.0
vertex 93.9807611844575 10.2786209319102 -1.0
vertex 93.7741669750802 10.0093821163677 -1.0
endloop
endfacet
facet normal 0.0 0.0 -1.0
outer loop
vertex 80.2 0.0 -1.0
vertex 93.7741669750802 10.0093821163677 -1.0
vertex 93.6442964258242 9.69584687500098 -1.0
endloop
endfacet
facet normal 0.0 0.0 -1.0
outer loop
vertex 80.2 0.0 -1.0
vertex 93.6442964258242 9.69584687500098 -1.0
vertex 93.6 9.3593821163677 -1.0
endloop
endfacet
facet normal 0.0 0.0 -1.0
outer loop
vertex 94.5635352413667 10.6150856905435 -1.0
vertex 132.3 24.95 -1.0
vertex 94.9 10.6593821163677 -1.0
endloop
endfacet
facet normal 0.0 0.0 -1.0
outer loop
vertex 94.9 10.6593821163677 -1.0
vertex 132.3 24.95 -1.0
vertex 95.2364647586333 10.6150856905435 -1.0
endloop
endfacet
facet normal 0.0 0.0 -1.0
outer loop
vertex 95.2364647586333 10.6150856905435 -1.0
vertex 132.3 24.95 -1.0
vertex 105.295241121992 14.4407195451798 -1.0
endloop
endfacet
facet normal 0.0 0.0 -1.0
outer loop
vertex 95.2364647586333 10.6150856905435 -1.0
vertex 105.295241121992 14.4407195451798 -1.0
vertex 95.55 10.4852151412875 -1.0
endloop
endfacet
facet normal 0.0 0.0 -1.0
outer loop
vertex 95.55 10.4852151412875 -1.0
vertex 105.295241121992 14.4407195451798 -1.0
vertex 95.8192388155425 10.2786209319102 -1.0
endloop
endfacet
facet normal 0.0 0.0 -1.0
outer loop
vertex 95.8192388155425 10.2786209319102 -1.0
vertex 105.295241121992 14.4407195451798 -1.0
vertex 96.0258330249198 10.0093821163677 -1.0
endloop
endfacet
facet normal 0.0 0.0 -1.0
outer loop
vertex 96.0258330249198 10.0093821163677 -1.0
vertex 105.295241121992 14.4407195451798 -1.0
vertex 104.65 14.1225218371821 -1.0
endloop
endfacet
facet normal 0.0 0.0 -1.0
outer loop
vertex 96.0258330249198 10.0093821163677 -1.0
vertex 104.65 14.1225218371821 -1.0
vertex 96.1557035741758 9.69584687500098 -1.0
endloop
endfacet
facet normal 0.0 0.0 -1.0
outer loop
vertex 96.1557035741758 9.69584687500098 -1.0
vertex 104.65 14.1225218371821 -1.0
vertex 96.2 9.3593821163677 -1.0
endloop
endfacet
facet normal 0.0 0.0 -1.0
outer loop
vertex 96.2 9.3593821163677 -1.0
vertex 104.65 14.1225218371821 -1.0
vertex 104.051812140452 13.7228254879695 -1.0
endloop
endfacet
facet normal 0.0 0.0 -1.0
outer loop
vertex 96.2 9.3593821163677 -1.0
vertex 104.051812140452 13.7228254879695 -1.0
vertex 103.510912703474 13.2484694128937 -1.0
endloop
endfacet
facet normal 0.0 0.0 -1.0
outer loop
vertex 96.2 9.3593821163677 -1.0
vertex 103.510912703474 13.2484694128937 -1.0
vertex 103.036556628398 12.7075699759157 -1.0
endloop
endfacet
facet normal 0.0 0.0 -1.0
outer loop
vertex 96.2 9.3593821163677 -1.0
vertex 103.036556628398 12.7075699759157 -1.0
vertex 102.636860279186 12.1093821163677 -1.0
endloop
endfacet
facet normal 0.0 0.0 -1.0
outer loop
vertex 96.2 9.3593821163677 -1.0
vertex 102.636860279186 12.1093821163677 -1.0
vertex 102.318662571188 11.4641409943757 -1.0
endloop
endfacet
facet normal 0.0 0.0 -1.0
outer loop
vertex 96.2 9.3593821163677 -1.0
vertex 102.318662571188 11.4641409943757 -1.0
vertex 102.08740795541 10.7828868644315 -1.0
endloop
endfacet
facet normal 0.0 0.0 -1.0
outer loop
vertex 96.2 9.3593821163677 -1.0
vertex 102.08740795541 10.7828868644315 -1.0
vertex 101.947053262444 10.077276173578 -1.0
endloop
endfacet
facet normal 0.0 0.0 -1.0
outer loop
vertex 96.2 9.3593821163677 -1.0
vertex 101.947053262444 10.077276173578 -1.0
vertex 101.9 9.35938211636768 -1.0
endloop
endfacet
facet normal 0.0 0.0 -1.0
outer loop
vertex 105.295241121992 14.4407195451798 -1.0
vertex 132.3 24.95 -1.0
vertex 105.976495251936 14.6719741609576 -1.0
endloop
endfacet
facet normal 0.0 0.0 -1.0
outer loop
vertex 105.976495251936 14.6719741609576 -1.0
vertex 132.3 24.95 -1.0
vertex 106.68210594279 14.8123288539237 -1.0
endloop
endfacet
facet normal 0.0 0.0 -1.0
outer loop
vertex 106.68210594279 14.8123288539237 -1.0
vertex 132.3 24.95 -1.0
vertex 107.4 14.8593821163677 -1.0
endloop
endfacet
facet normal 0.0 0.0 -1.0
outer loop
vertex 107.4 14.8593821163677 -1.0
vertex 132.3 24.95 -1.0
vertex 108.11789405721 14.8123288539237 -1.0
endloop
endfacet
facet normal 0.0 0.0 -1.0
outer loop
vertex 108.11789405721 14.8123288539237 -1.0
vertex 132.3 24.95 -1.0
vertex 108.823504748064 14.6719741609576 -1.0
endloop
endfacet
facet normal 0.0 0.0 -1.0
outer loop
vertex 108.823504748064 14.6719741609576 -1.0
vertex 132.3 24.95 -1.0
vertex 109.504758878008 14.4407195451798 -1.0
endloop
endfacet
facet normal 0.0 0.0 -1.0
outer loop
vertex 109.504758878008 14.4407195451798 -1.0
vertex 132.3 24.95 -1.0
vertex 110.15 14.1225218371822 -1.0
endloop
endfacet
facet normal 0.0 0.0 -1.0
outer loop
vertex 110.15 14.1225218371822 -1.0
vertex 132.3 24.95 -1.0
vertex 110.748187859548 13.7228254879695 -1.0
endloop
endfacet
facet normal 0.0 0.0 -1.0
outer loop
vertex 110.748187859548 13.7228254879695 -1.0
vertex 132.3 24.95 -1.0
vertex 111.289087296526 13.2484694128938 -1.0
endloop
endfacet
facet normal 0.0 0.0 -1.0
outer loop
vertex 111.289087296526 13.2484694128938 -1.0
vertex 132.3 24.95 -1.0
vertex 111.763443371602 12.7075699759157 -1.0
endloop
endfacet
facet normal 0.0 0.0 -1.0
outer loop
vertex 111.763443371602 12.7075699759157 -1.0
vertex 132.3 24.95 -1.0
vertex 112.163139720814 12.1093821163678 -1.0
endloop
endfacet
facet normal 0.0 0.0 -1.0
outer loop
vertex 112.163139720814 12.1093821163678 -1.0
vertex 132.3 24.95 -1.0
vertex 112.481337428812 11.4641409943758 -1.0
endloop
endfacet
facet normal 0.0 0.0 -1.0
outer loop
vertex 112.481337428812 11.4641409943758 -1.0
vertex 132.3 24.95 -1.0
vertex 112.71259204459 10.7828868644316 -1.0
endloop
endfacet
facet normal 0.0 0.0 -1.0
outer loop
vertex 112.71259204459 10.7828868644316 -1.0
vertex 132.3 24.95 -1.0
vertex 112.852946737556 10.0772761735781 -1.0
endloop
endfacet
facet normal 0.0 0.0 -1.0
outer loop
vertex 112.852946737556 10.0772761735781 -1.0
vertex 132.3 24.95 -1.0
vertex 112.9 9.35938211636774 -1.0
endloop
endfacet
facet normal 0.0 0.0 -1.0
outer loop
vertex 112.9 9.35938211636774 -1.0
vertex 132.3 24.95 -1.0
vertex 118.980761184457 10.2786209319102 -1.0
endloop
endfacet
facet normal 0.0 0.0 -1.0
outer loop
vertex 112.9 9.35938211636774 -1.0
vertex 118.980761184457 10.2786209319102 -1.0
vertex 118.77416697508 10.0093821163677 -1.0
endloop
endfacet
facet normal 0.0 0.0 -1.0
outer loop
vertex 112.9 9.35938211636774 -1.0
vertex 118.77416697508 10.0093821163677 -1.0
vertex 118.644296425824 9.69584687500098 -1.0
endloop
endfacet
facet normal 0.0 0.0 -1.0
outer loop
vertex 112.9 9.35938211636774 -1.0
vertex 118.644296425824 9.69584687500098 -1.0
vertex 118.6 9.3593821163677 -1.0
endloop
endfacet
facet normal 0.0 0.0 -1.0
outer loop
vertex 118.980761184457 10.2786209319102 -1.0
vertex 132.3 24.95 -1.0
vertex 119.25 10.4852151412875 -1.0
endloop
endfacet
facet normal 0.0 0.0 -1.0
outer loop
vertex 119.25 10.4852151412875 -1.0
vertex 132.3 24.95 -1.0
vertex 119.563535241367 10.6150856905435 -1.0
endloop
endfacet
facet normal 0.0 0.0 -1.0
outer loop
vertex 119.563535241367 10.6150856905435 -1.0
vertex 132.3 24.95 -1.0
vertex 119.9 10.6593821163677 -1.0
endloop
endfacet
facet normal 0.0 0.0 -1.0
outer loop
vertex 119.9 10.6593821163677 -1.0
vertex 132.3 24.95 -1.0
vertex 120.236464758633 10.6150856905435 -1.0
endloop
endfacet
facet normal 0.0 0.0 -1.0
outer loop
vertex 120.236464758633 10.6150856905435 -1.0
vertex 132.3 24.95 -1.0
vertex 120.55 10.4852151412875 -1.0
endloop
endfacet
facet normal 0.0 0.0 -1.0
outer loop
vertex 120.55 10.4852151412875 -1.0
vertex 132.3 24.95 -1.0
vertex 120.819238815543 10.2786209319102 -1.0
endloop
endfacet
facet normal 0.0 0.0 -1.0
outer loop
vertex 120.819238815543 10.2786209319102 -1.0
vertex 132.3 24.95 -1.0
vertex 121.02583302492 10.0093821163677 -1.0
endloop
endfacet
facet normal 0.0 0.0 -1.0
outer loop
vertex 121.02583302492 10.0093821163677 -1.0
vertex 132.3 24.95 -1.0
vertex 121.155703574176 9.69584687500098 -1.0
endloop
endfacet
facet normal 0.0 0.0 -1.0
outer loop
vertex 121.155703574176 9.69584687500098 -1.0
vertex 132.3 24.95 -1.0
vertex 121.2 9.3593821163677 -1.0
endloop
endfacet
facet normal 0.0 0.0 -1.0
outer loop
vertex 80.2 0.0 -1.0
vertex 106.68210594279 3.90643537881176 -1.0
vertex 132.3 0.0 -1.0
endloop
endfacet
facet normal 0.0 0.0 -1.0
outer loop
vertex 106.68210594279 3.90643537881176 -1.0
vertex 80.2 0.0 -1.0
vertex 105.976495251936 4.04679007177783 -1.0
endloop
endfacet
facet normal 0.0 0.0 -1.0
outer loop
vertex 105.976495251936 4.04679007177783 -1.0
vertex 80.2 0.0 -1.0
vertex 105.295241121992 4.27804468755563 -1.0
endloop
endfacet
facet normal 0.0 0.0 -1.0
outer loop
vertex 105.295241121992 4.27804468755563 -1.0
vertex 80.2 0.0 -1.0
vertex 94.5635352413667 8.10367854219192 -1.0
endloop
endfacet
facet normal 0.0 0.0 -1.0
outer loop
vertex 94.5635352413667 8.10367854219192 -1.0
vertex 80.2 0.0 -1.0
vertex 94.25 8.23354909144793 -1.0
endloop
endfacet
facet normal 0.0 0.0 -1.0
outer loop
vertex 94.25 8.23354909144793 -1.0
vertex 80.2 0.0 -1.0
vertex 93.9807611844575 8.44014330082519 -1.0
endloop
endfacet
facet normal 0.0 0.0 -1.0
outer loop
vertex 93.9807611844575 8.44014330082519 -1.0
vertex 80.2 0.0 -1.0
vertex 93.7741669750802 8.7093821163677 -1.0
endloop
endfacet
facet normal 0.0 0.0 -1.0
outer loop
vertex 93.7741669750802 8.7093821163677 -1.0
vertex 80.2 0.0 -1.0
vertex 93.6442964258242 9.02291735773443 -1.0
endloop
endfacet
facet normal 0.0 0.0 -1.0
outer loop
vertex 93.6442964258242 9.02291735773443 -1.0
vertex 80.2 0.0 -1.0
vertex 93.6 9.3593821163677 -1.0
endloop
endfacet
facet normal 0.0 0.0 -1.0
outer loop
vertex 105.295241121992 4.27804468755563 -1.0
vertex 94.5635352413667 8.10367854219192 -1.0
vertex 94.9 8.0593821163677 -1.0
endloop
endfacet
facet normal 0.0 0.0 -1.0
outer loop
vertex 105.295241121992 4.27804468755563 -1.0
vertex 94.9 8.0593821163677 -1.0
vertex 95.2364647586333 8.10367854219191 -1.0
endloop
endfacet
facet normal 0.0 0.0 -1.0
outer loop
vertex 105.295241121992 4.27804468755563 -1.0
vertex 95.2364647586333 8.10367854219191 -1.0
vertex 95.55 8.23354909144793 -1.0
endloop
endfacet
facet normal 0.0 0.0 -1.0
outer loop
vertex 105.295241121992 4.27804468755563 -1.0
vertex 95.55 8.23354909144793 -1.0
vertex 95.8192388155425 8.44014330082519 -1.0
endloop
endfacet
facet normal 0.0 0.0 -1.0
outer loop
vertex 105.295241121992 4.27804468755563 -1.0
vertex 95.8192388155425 8.44014330082519 -1.0
vertex 96.0258330249198 8.7093821163677 -1.0
endloop
endfacet
facet normal 0.0 0.0 -1.0
outer loop
vertex 105.295241121992 4.27804468755563 -1.0
vertex 96.0258330249198 8.7093821163677 -1.0
vertex 104.65 4.59624239555329 -1.0
endloop
endfacet
facet normal 0.0 0.0 -1.0
outer loop
vertex 104.65 4.59624239555329 -1.0
vertex 96.0258330249198 8.7093821163677 -1.0
vertex 96.1557035741758 9.02291735773443 -1.0
endloop
endfacet
facet normal 0.0 0.0 -1.0
outer loop
vertex 104.65 4.59624239555329 -1.0
vertex 96.1557035741758 9.02291735773443 -1.0
vertex 96.2 9.3593821163677 -1.0
endloop
endfacet
facet normal 0.0 0.0 -1.0
outer loop
vertex 104.65 4.59624239555329 -1.0
vertex 96.2 9.3593821163677 -1.0
vertex 104.051812140452 4.99593874476591 -1.0
endloop
endfacet
facet normal 0.0 0.0 -1.0
outer loop
vertex 104.051812140452 4.99593874476591 -1.0
vertex 96.2 9.3593821163677 -1.0
vertex 103.510912703474 5.47029481984169 -1.0
endloop
endfacet
facet normal 0.0 0.0 -1.0
outer loop
vertex 103.510912703474 5.47029481984169 -1.0
vertex 96.2 9.3593821163677 -1.0
vertex 103.036556628398 6.01119425681973 -1.0
endloop
endfacet
facet normal 0.0 0.0 -1.0
outer loop
vertex 103.036556628398 6.01119425681973 -1.0
vertex 96.2 9.3593821163677 -1.0
vertex 102.636860279186 6.60938211636769 -1.0
endloop
endfacet
facet normal 0.0 0.0 -1.0
outer loop
vertex 102.636860279186 6.60938211636769 -1.0
vertex 96.2 9.3593821163677 -1.0
vertex 102.318662571188 7.2546232383597 -1.0
endloop
endfacet
facet normal 0.0 0.0 -1.0
outer loop
vertex 102.318662571188 7.2546232383597 -1.0
vertex 96.2 9.3593821163677 -1.0
vertex 102.08740795541 7.93587736830382 -1.0
endloop
endfacet
facet normal 0.0 0.0 -1.0
outer loop
vertex 102.08740795541 7.93587736830382 -1.0
vertex 96.2 9.3593821163677 -1.0
vertex 101.947053262444 8.6414880591574 -1.0
endloop
endfacet
facet normal 0.0 0.0 -1.0
outer loop
vertex 101.947053262444 8.6414880591574 -1.0
vertex 96.2 9.3593821163677 -1.0
vertex 101.9 9.35938211636768 -1.0
endloop
endfacet
facet normal 0.0 0.0 -1.0
outer loop
vertex 132.3 0.0 -1.0
vertex 106.68210594279 3.90643537881176 -1.0
vertex 107.4 3.85938211636772 -1.0
endloop
endfacet
facet normal 0.0 0.0 -1.0
outer loop
vertex 132.3 0.0 -1.0
vertex 107.4 3.85938211636772 -1.0
vertex 108.11789405721 3.90643537881176 -1.0
endloop
endfacet
facet normal 0.0 0.0 -1.0
outer loop
vertex 132.3 0.0 -1.0
vertex 108.11789405721 3.90643537881176 -1.0
vertex 108.823504748064 4.04679007177785 -1.0
endloop
endfacet
facet normal 0.0 0.0 -1.0
outer loop
vertex 132.3 0.0 -1.0
vertex 108.823504748064 4.04679007177785 -1.0
vertex 109.504758878008 4.27804468755565 -1.0
endloop
endfacet
facet normal 0.0 0.0 -1.0
outer loop
vertex 132.3 0.0 -1.0
vertex 109.504758878008 4.27804468755565 -1.0
vertex 110.15 4.59624239555332 -1.0
endloop
endfacet
facet normal 0.0 0.0 -1.0
outer loop
vertex 132.3 0.0 -1.0
vertex 110.15 4.59624239555332 -1.0
vertex 110.748187859548 4.99593874476594 -1.0
endloop
endfacet
facet normal 0.0 0.0 -1.0
outer loop
vertex 132.3 0.0 -1.0
vertex 110.748187859548 4.99593874476594 -1.0
vertex 111.289087296526 5.47029481984172 -1.0
endloop
endfacet
facet normal 0.0 0.0 -1.0
outer loop
vertex 132.3 0.0 -1.0
vertex 111.289087296526 5.47029481984172 -1.0
vertex 111.763443371602 6.01119425681977 -1.0
endloop
endfacet
facet normal 0.0 0.0 -1.0
outer loop
vertex 132.3 0.0 -1.0
vertex 111.763443371602 6.01119425681977 -1.0
vertex 112.163139720814 6.60938211636774 -1.0
endloop
endfacet
facet normal 0.0 0.0 -1.0
outer loop
vertex 132.3 0.0 -1.0
vertex 112.163139720814 6.60938211636774 -1.0
vertex 112.481337428812 7.25462323835975 -1.0
endloop
endfacet
facet normal 0.0 0.0 -1.0
outer loop
vertex 132.3 0.0 -1.0
vertex 112.481337428812 7.25462323835975 -1.0
vertex 112.71259204459 7.93587736830388 -1.0
endloop
endfacet
facet normal 0.0 0.0 -1.0
outer loop
vertex 132.3 0.0 -1.0
vertex 112.71259204459 7.93587736830388 -1.0
vertex 112.852946737556 8.64148805915746 -1.0
endloop
endfacet
facet normal 0.0 0.0 -1.0
outer loop
vertex 132.3 0.0 -1.0
vertex 112.852946737556 8.64148805915746 -1.0
vertex 112.9 9.35938211636774 -1.0
endloop
endfacet
facet normal 0.0 0.0 -1.0
outer loop
vertex 132.3 0.0 -1.0
vertex 112.9 9.35938211636774 -1.0
vertex 119.25 8.23354909144793 -1.0
endloop
endfacet
facet normal 0.0 0.0 -1.0
outer loop
vertex 119.25 8.23354909144793 -1.0
vertex 112.9 9.35938211636774 -1.0
vertex 118.980761184457 8.44014330082519 -1.0
endloop
endfacet
facet normal 0.0 0.0 -1.0
outer loop
vertex 118.980761184457 8.44014330082519 -1.0
vertex 112.9 9.35938211636774 -1.0
vertex 118.77416697508 8.7093821163677 -1.0
endloop
endfacet
facet normal 0.0 0.0 -1.0
outer loop
vertex 118.77416697508 8.7093821163677 -1.0
vertex 112.9 9.35938211636774 -1.0
vertex 118.644296425824 9.02291735773443 -1.0
endloop
endfacet
facet normal 0.0 0.0 -1.0
outer loop
vertex 118.644296425824 9.02291735773443 -1.0
vertex 112.9 9.35938211636774 -1.0
vertex 118.6 9.3593821163677 -1.0
endloop
endfacet
facet normal 0.0 0.0 -1.0
outer loop
vertex 132.3 0.0 -1.0
vertex 119.25 8.23354909144793 -1.0
vertex 119.563535241367 8.10367854219192 -1.0
endloop
endfacet
facet normal 0.0 0.0 -1.0
outer loop
vertex 132.3 0.0 -1.0
vertex 119.563535241367 8.10367854219192 -1.0
vertex 119.9 8.0593821163677 -1.0
endloop
endfacet
facet normal 0.0 0.0 -1.0
outer loop
vertex 132.3 0.0 -1.0
vertex 119.9 8.0593821163677 -1.0
vertex 120.236464758633 8.10367854219192 -1.0
endloop
endfacet
facet normal 0.0 0.0 -1.0
outer loop
vertex 132.3 0.0 -1.0
vertex 120.236464758633 8.10367854219192 -1.0
vertex 120.55 8.23354909144793 -1.0
endloop
endfacet
facet normal 0.0 0.0 -1.0
outer loop
vertex 132.3 0.0 -1.0
vertex 120.55 8.23354909144793 -1.0
vertex 120.819238815543 8.44014330082519 -1.0
endloop
endfacet
facet normal 0.0 0.0 -1.0
outer loop
vertex 132.3 0.0 -1.0
vertex 120.819238815543 8.44014330082519 -1.0
vertex 121.02583302492 8.7093821163677 -1.0
endloop
endfacet
facet normal 0.0 0.0 -1.0
outer loop
vertex 132.3 0.0 -1.0
vertex 121.02583302492 8.7093821163677 -1.0
vertex 121.155703574176 9.02291735773443 -1.0
endloop
endfacet
facet normal 0.0 0.0 -1.0
outer loop
vertex 132.3 0.0 -1.0
vertex 121.155703574176 9.02291735773443 -1.0
vertex 121.2 9.3593821163677 -1.0
endloop
endfacet
facet normal 0.0 0.0 -1.0
outer loop
vertex 132.3 0.0 -1.0
vertex 121.2 9.3593821163677 -1.0
vertex 132.3 24.95 -1.0
endloop
endfacet
facet normal 1.0 0.0 0.0
outer loop
vertex 132.3 24.95 -1.0
vertex 132.3 0.0 0.0
vertex 132.3 0.0 -1.0
endloop
endfacet
facet normal 1.0 0.0 0.0
outer loop
vertex 132.3 0.0 0.0
vertex 132.3 24.95 -1.0
vertex 132.3 24.95 0.0
endloop
endfacet
facet normal -0.0 -1.0 -0.0
outer loop
vertex 132.3 0.0 0.0
vertex 80.2 0.0 -1.0
vertex 132.3 0.0 -1.0
endloop
endfacet
facet normal -0.0 -1.0 -0.0
outer loop
vertex 80.2 0.0 -1.0
vertex 132.3 0.0 0.0
vertex 80.2 0.0 0.0
endloop
endfacet
facet normal -1.0 0.0 0.0
outer loop
vertex 80.2 24.95 0.0
vertex 80.2 0.0 -1.0
vertex 80.2 0.0 0.0
endloop
endfacet
facet normal -1.0 0.0 0.0
outer loop
vertex 80.2 0.0 -1.0
vertex 80.2 24.95 0.0
vertex 80.2 24.95 -1.0
endloop
endfacet
facet normal 4.61910971752317e-017 1.0 0.0
outer loop
vertex 80.2 24.95 0.0
vertex 132.3 24.95 -1.0
vertex 80.2 24.95 -1.0
endloop
endfacet
facet normal 4.61910971752317e-017 1.0 0.0
outer loop
vertex 132.3 24.95 -1.0
vertex 80.2 24.95 0.0
vertex 132.3 24.95 0.0
endloop
endfacet
facet normal -0.965925826289069 -0.258819045102517 0.0
outer loop
vertex 96.1557035741758 9.69584687500098 0.0
vertex 96.2 9.3593821163677 -1.0
vertex 96.2 9.3593821163677 0.0
endloop
endfacet
facet normal -1.0 -2.67333296869406e-016 0.0
outer loop
vertex 96.2 9.3593821163677 -1.0
vertex 96.1557035741758 9.69584687500098 0.0
vertex 96.1557035741758 9.69584687500098 -1.0
endloop
endfacet
facet normal -0.866025403784436 -0.500000000000005 0.0
outer loop
vertex 96.0258330249198 10.0093821163677 0.0
vertex 96.1557035741758 9.69584687500098 -1.0
vertex 96.1557035741758 9.69584687500098 0.0
endloop
endfacet
facet normal -0.965925826289069 -0.258819045102517 0.0
outer loop
vertex 96.1557035741758 9.69584687500098 -1.0
vertex 96.0258330249198 10.0093821163677 0.0
vertex 96.0258330249198 10.0093821163677 -1.0
endloop
endfacet
facet normal -0.707106781186547 -0.707106781186548 0.0
outer loop
vertex 95.8192388155425 10.2786209319102 0.0
vertex 96.0258330249198 10.0093821163677 -1.0
vertex 96.0258330249198 10.0093821163677 0.0
endloop
endfacet
facet normal -0.866025403784436 -0.500000000000005 0.0
outer loop
vertex 96.0258330249198 10.0093821163677 -1.0
vertex 95.8192388155425 10.2786209319102 0.0
vertex 95.8192388155425 10.2786209319102 -1.0
endloop
endfacet
facet normal -0.707106781186547 -0.707106781186548 0.0
outer loop
vertex 95.8192388155425 10.2786209319102 0.0
vertex 95.55 10.4852151412875 -1.0
vertex 95.8192388155425 10.2786209319102 -1.0
endloop
endfacet
facet normal -0.500000000000003 -0.866025403784437 0.0
outer loop
vertex 95.55 10.4852151412875 -1.0
vertex 95.8192388155425 10.2786209319102 0.0
vertex 95.55 10.4852151412875 0.0
endloop
endfacet
facet normal -0.500000000000003 -0.866025403784437 0.0
outer loop
vertex 95.55 10.4852151412875 0.0
vertex 95.2364647586333 10.6150856905435 -1.0
vertex 95.55 10.4852151412875 -1.0
endloop
endfacet
facet normal -0.258819045102524 -0.965925826289067 0.0
outer loop
vertex 95.2364647586333 10.6150856905435 -1.0
vertex 95.55 10.4852151412875 0.0
vertex 95.2364647586333 10.6150856905435 0.0
endloop
endfacet
facet normal -0.258819045102524 -0.965925826289067 0.0
outer loop
vertex 95.2364647586333 10.6150856905435 0.0
vertex 94.9 10.6593821163677 -1.0
vertex 95.2364647586333 10.6150856905435 -1.0
endloop
endfacet
facet normal 2.18322192443349e-015 -1.0 0.0
outer loop
vertex 94.9 10.6593821163677 -1.0
vertex 95.2364647586333 10.6150856905435 0.0
vertex 94.9 10.6593821163677 0.0
endloop
endfacet
facet normal 2.18322192443349e-015 -1.0 0.0
outer loop
vertex 94.9 10.6593821163677 0.0
vertex 94.5635352413667 10.6150856905435 -1.0
vertex 94.9 10.6593821163677 -1.0
endloop
endfacet
facet normal 0.25881904510252 -0.965925826289069 0.0
outer loop
vertex 94.5635352413667 10.6150856905435 -1.0
vertex 94.9 10.6593821163677 0.0
vertex 94.5635352413667 10.6150856905435 0.0
endloop
endfacet
facet normal 0.25881904510252 -0.965925826289069 0.0
outer loop
vertex 94.5635352413667 10.6150856905435 0.0
vertex 94.25 10.4852151412875 -1.0
vertex 94.5635352413667 10.6150856905435 -1.0
endloop
endfacet
facet normal 0.499999999999998 -0.86602540378444 0.0
outer loop
vertex 94.25 10.4852151412875 -1.0
vertex 94.5635352413667 10.6150856905435 0.0
vertex 94.25 10.4852151412875 0.0
endloop
endfacet
facet normal 0.499999999999998 -0.86602540378444 0.0
outer loop
vertex 94.25 10.4852151412875 0.0
vertex 93.9807611844575 10.2786209319102 -1.0
vertex 94.25 10.4852151412875 -1.0
endloop
endfacet
facet normal 0.707106781186546 -0.707106781186549 0.0
outer loop
vertex 93.9807611844575 10.2786209319102 -1.0
vertex 94.25 10.4852151412875 0.0
vertex 93.9807611844575 10.2786209319102 0.0
endloop
endfacet
facet normal 0.707106781186546 -0.707106781186549 0.0
outer loop
vertex 93.9807611844575 10.2786209319102 -1.0
vertex 93.7741669750802 10.0093821163677 0.0
vertex 93.7741669750802 10.0093821163677 -1.0
endloop
endfacet
facet normal 0.866025403784435 -0.500000000000006 0.0
outer loop
vertex 93.7741669750802 10.0093821163677 0.0
vertex 93.9807611844575 10.2786209319102 -1.0
vertex 93.9807611844575 10.2786209319102 0.0
endloop
endfacet
facet normal 0.866025403784435 -0.500000000000006 0.0
outer loop
vertex 93.7741669750802 10.0093821163677 -1.0
vertex 93.6442964258242 9.69584687500098 0.0
vertex 93.6442964258242 9.69584687500098 -1.0
endloop
endfacet
facet normal 0.965925826289069 -0.258819045102517 0.0
outer loop
vertex 93.6442964258242 9.69584687500098 0.0
vertex 93.7741669750802 10.0093821163677 -1.0
vertex 93.7741669750802 10.0093821163677 0.0
endloop
endfacet
facet normal 0.965925826289069 -0.258819045102517 0.0
outer loop
vertex 93.6442964258242 9.69584687500098 -1.0
vertex 93.6 9.3593821163677 0.0
vertex 93.6 9.3593821163677 -1.0
endloop
endfacet
facet normal 1.0 0.0 0.0
outer loop
vertex 93.6 9.3593821163677 0.0
vertex 93.6442964258242 9.69584687500098 -1.0
vertex 93.6442964258242 9.69584687500098 0.0
endloop
endfacet
facet normal 1.0 0.0 0.0
outer loop
vertex 93.6 9.3593821163677 -1.0
vertex 93.6442964258242 9.02291735773443 0.0
vertex 93.6442964258242 9.02291735773443 -1.0
endloop
endfacet
facet normal 0.965925826289069 0.258819045102517 0.0
outer loop
vertex 93.6442964258242 9.02291735773443 0.0
vertex 93.6 9.3593821163677 -1.0
vertex 93.6 9.3593821163677 0.0
endloop
endfacet
facet normal 0.965925826289069 0.258819045102517 0.0
outer loop
vertex 93.6442964258242 9.02291735773443 -1.0
vertex 93.7741669750802 8.7093821163677 0.0
vertex 93.7741669750802 8.7093821163677 -1.0
endloop
endfacet
facet normal 0.866025403784435 0.500000000000006 0.0
outer loop
vertex 93.7741669750802 8.7093821163677 0.0
vertex 93.6442964258242 9.02291735773443 -1.0
vertex 93.6442964258242 9.02291735773443 0.0
endloop
endfacet
facet normal 0.866025403784435 0.500000000000006 0.0
outer loop
vertex 93.7741669750802 8.7093821163677 -1.0
vertex 93.9807611844575 8.44014330082519 0.0
vertex 93.9807611844575 8.44014330082519 -1.0
endloop
endfacet
facet normal 0.707106781186546 0.707106781186549 0.0
outer loop
vertex 93.9807611844575 8.44014330082519 0.0
vertex 93.7741669750802 8.7093821163677 -1.0
vertex 93.7741669750802 8.7093821163677 0.0
endloop
endfacet
facet normal 0.707106781186546 0.707106781186549 0.0
outer loop
vertex 93.9807611844575 8.44014330082519 0.0
vertex 94.25 8.23354909144793 -1.0
vertex 93.9807611844575 8.44014330082519 -1.0
endloop
endfacet
facet normal 0.499999999999998 0.86602540378444 0.0
outer loop
vertex 94.25 8.23354909144793 -1.0
vertex 93.9807611844575 8.44014330082519 0.0
vertex 94.25 8.23354909144793 0.0
endloop
endfacet
facet normal 0.499999999999998 0.86602540378444 0.0
outer loop
vertex 94.25 8.23354909144793 0.0
vertex 94.5635352413667 8.10367854219192 -1.0
vertex 94.25 8.23354909144793 -1.0
endloop
endfacet
facet normal 0.25881904510252 0.965925826289069 0.0
outer loop
vertex 94.5635352413667 8.10367854219192 -1.0
vertex 94.25 8.23354909144793 0.0
vertex 94.5635352413667 8.10367854219192 0.0
endloop
endfacet
facet normal 0.25881904510252 0.965925826289069 0.0
outer loop
vertex 94.5635352413667 8.10367854219192 0.0
vertex 94.9 8.0593821163677 -1.0
vertex 94.5635352413667 8.10367854219192 -1.0
endloop
endfacet
facet normal 2.06737749579008e-015 1.0 0.0
outer loop
vertex 94.9 8.0593821163677 -1.0
vertex 94.5635352413667 8.10367854219192 0.0
vertex 94.9 8.0593821163677 0.0
endloop
endfacet
facet normal 2.06737749579008e-015 1.0 0.0
outer loop
vertex 94.9 8.0593821163677 0.0
vertex 95.2364647586333 8.10367854219191 -1.0
vertex 94.9 8.0593821163677 -1.0
endloop
endfacet
facet normal -0.25881904510252 0.965925826289069 0.0
outer loop
vertex 95.2364647586333 8.10367854219191 -1.0
vertex 94.9 8.0593821163677 0.0
vertex 95.2364647586333 8.10367854219191 0.0
endloop
endfacet
facet normal -0.25881904510252 0.965925826289069 0.0
outer loop
vertex 95.2364647586333 8.10367854219191 0.0
vertex 95.55 8.23354909144793 -1.0
vertex 95.2364647586333 8.10367854219191 -1.0
endloop
endfacet
facet normal -0.499999999999999 0.866025403784439 0.0
outer loop
vertex 95.55 8.23354909144793 -1.0
vertex 95.2364647586333 8.10367854219191 0.0
vertex 95.55 8.23354909144793 0.0
endloop
endfacet
facet normal -0.499999999999999 0.866025403784439 0.0
outer loop
vertex 95.55 8.23354909144793 0.0
vertex 95.8192388155425 8.44014330082519 -1.0
vertex 95.55 8.23354909144793 -1.0
endloop
endfacet
facet normal -0.707106781186546 0.707106781186549 0.0
outer loop
vertex 95.8192388155425 8.44014330082519 -1.0
vertex 95.55 8.23354909144793 0.0
vertex 95.8192388155425 8.44014330082519 0.0
endloop
endfacet
facet normal -0.866025403784435 0.500000000000006 0.0
outer loop
vertex 96.0258330249198 8.7093821163677 0.0
vertex 95.8192388155425 8.44014330082519 -1.0
vertex 95.8192388155425 8.44014330082519 0.0
endloop
endfacet
facet normal -0.707106781186546 0.707106781186549 0.0
outer loop
vertex 95.8192388155425 8.44014330082519 -1.0
vertex 96.0258330249198 8.7093821163677 0.0
vertex 96.0258330249198 8.7093821163677 -1.0
endloop
endfacet
facet normal -0.965925826289069 0.258819045102517 0.0
outer loop
vertex 96.1557035741758 9.02291735773443 0.0
vertex 96.0258330249198 8.7093821163677 -1.0
vertex 96.0258330249198 8.7093821163677 0.0
endloop
endfacet
facet normal -0.866025403784435 0.500000000000006 0.0
outer loop
vertex 96.0258330249198 8.7093821163677 -1.0
vertex 96.1557035741758 9.02291735773443 0.0
vertex 96.1557035741758 9.02291735773443 -1.0
endloop
endfacet
facet normal -1.0 -2.67333296869406e-016 0.0
outer loop
vertex 96.2 9.3593821163677 0.0
vertex 96.1557035741758 9.02291735773443 -1.0
vertex 96.1557035741758 9.02291735773443 0.0
endloop
endfacet
facet normal -0.965925826289069 0.258819045102517 0.0
outer loop
vertex 96.1557035741758 9.02291735773443 -1.0
vertex 96.2 9.3593821163677 0.0
vertex 96.2 9.3593821163677 -1.0
endloop
endfacet
facet normal 0.500000000000002 0.866025403784437 0.0
outer loop
vertex 119.25 8.23354909144793 0.0
vertex 119.563535241367 8.10367854219192 -1.0
vertex 119.25 8.23354909144793 -1.0
endloop
endfacet
facet normal 0.258819045102514 0.96592582628907 0.0
outer loop
vertex 119.563535241367 8.10367854219192 -1.0
vertex 119.25 8.23354909144793 0.0
vertex 119.563535241367 8.10367854219192 0.0
endloop
endfacet
facet normal 0.258819045102514 0.96592582628907 0.0
outer loop
vertex 119.563535241367 8.10367854219192 0.0
vertex 119.9 8.0593821163677 -1.0
vertex 119.563535241367 8.10367854219192 -1.0
endloop
endfacet
facet normal 0.0 1.0 0.0
outer loop
vertex 119.9 8.0593821163677 -1.0
vertex 119.563535241367 8.10367854219192 0.0
vertex 119.9 8.0593821163677 0.0
endloop
endfacet
facet normal 0.0 1.0 0.0
outer loop
vertex 119.9 8.0593821163677 0.0
vertex 120.236464758633 8.10367854219192 -1.0
vertex 119.9 8.0593821163677 -1.0
endloop
endfacet
facet normal -0.258819045102514 0.96592582628907 0.0
outer loop
vertex 120.236464758633 8.10367854219192 -1.0
vertex 119.9 8.0593821163677 0.0
vertex 120.236464758633 8.10367854219192 0.0
endloop
endfacet
facet normal -0.258819045102514 0.96592582628907 0.0
outer loop
vertex 120.236464758633 8.10367854219192 0.0
vertex 120.55 8.23354909144793 -1.0
vertex 120.236464758633 8.10367854219192 -1.0
endloop
endfacet
facet normal -0.500000000000001 0.866025403784438 0.0
outer loop
vertex 120.55 8.23354909144793 -1.0
vertex 120.236464758633 8.10367854219192 0.0
vertex 120.55 8.23354909144793 0.0
endloop
endfacet
facet normal -0.500000000000001 0.866025403784438 0.0
outer loop
vertex 120.55 8.23354909144793 0.0
vertex 120.819238815543 8.44014330082519 -1.0
vertex 120.55 8.23354909144793 -1.0
endloop
endfacet
facet normal -0.707106781186563 0.707106781186532 0.0
outer loop
vertex 120.819238815543 8.44014330082519 -1.0
vertex 120.55 8.23354909144793 0.0
vertex 120.819238815543 8.44014330082519 0.0
endloop
endfacet
facet normal -0.866025403784441 0.499999999999995 0.0
outer loop
vertex 121.02583302492 8.7093821163677 0.0
vertex 120.819238815543 8.44014330082519 -1.0
vertex 120.819238815543 8.44014330082519 0.0
endloop
endfacet
facet normal -0.707106781186563 0.707106781186532 0.0
outer loop
vertex 120.819238815543 8.44014330082519 -1.0
vertex 121.02583302492 8.7093821163677 0.0
vertex 121.02583302492 8.7093821163677 -1.0
endloop
endfacet
facet normal -0.965925826289065 0.258819045102533 0.0
outer loop
vertex 121.155703574176 9.02291735773443 0.0
vertex 121.02583302492 8.7093821163677 -1.0
vertex 121.02583302492 8.7093821163677 0.0
endloop
endfacet
facet normal -0.866025403784441 0.499999999999995 0.0
outer loop
vertex 121.02583302492 8.7093821163677 -1.0
vertex 121.155703574176 9.02291735773443 0.0
vertex 121.155703574176 9.02291735773443 -1.0
endloop
endfacet
facet normal -1.0 -2.76244406765055e-016 0.0
outer loop
vertex 121.2 9.3593821163677 0.0
vertex 121.155703574176 9.02291735773443 -1.0
vertex 121.155703574176 9.02291735773443 0.0
endloop
endfacet
facet normal -0.965925826289065 0.258819045102533 0.0
outer loop
vertex 121.155703574176 9.02291735773443 -1.0
vertex 121.2 9.3593821163677 0.0
vertex 121.2 9.3593821163677 -1.0
endloop
endfacet
facet normal -0.965925826289073 -0.258819045102503 0.0
outer loop
vertex 121.155703574176 9.69584687500098 0.0
vertex 121.2 9.3593821163677 -1.0
vertex 121.2 9.3593821163677 0.0
endloop
endfacet
facet normal -1.0 -2.76244406765055e-016 0.0
outer loop
vertex 121.2 9.3593821163677 -1.0
vertex 121.155703574176 9.69584687500098 0.0
vertex 121.155703574176 9.69584687500098 -1.0
endloop
endfacet
facet normal -0.866025403784444 -0.499999999999991 0.0
outer loop
vertex 121.02583302492 10.0093821163677 0.0
vertex 121.155703574176 9.69584687500098 -1.0
vertex 121.155703574176 9.69584687500098 0.0
endloop
endfacet
facet normal -0.965925826289073 -0.258819045102503 0.0
outer loop
vertex 121.155703574176 9.69584687500098 -1.0
vertex 121.02583302492 10.0093821163677 0.0
vertex 121.02583302492 10.0093821163677 -1.0
endloop
endfacet
facet normal -0.707106781186545 -0.70710678118655 0.0
outer loop
vertex 120.819238815543 10.2786209319102 0.0
vertex 121.02583302492 10.0093821163677 -1.0
vertex 121.02583302492 10.0093821163677 0.0
endloop
endfacet
facet normal -0.866025403784444 -0.499999999999991 0.0
outer loop
vertex 121.02583302492 10.0093821163677 -1.0
vertex 120.819238815543 10.2786209319102 0.0
vertex 120.819238815543 10.2786209319102 -1.0
endloop
endfacet
facet normal -0.707106781186545 -0.70710678118655 0.0
outer loop
vertex 120.819238815543 10.2786209319102 0.0
vertex 120.55 10.4852151412875 -1.0
vertex 120.819238815543 10.2786209319102 -1.0
endloop
endfacet
facet normal -0.500000000000002 -0.866025403784437 0.0
outer loop
vertex 120.55 10.4852151412875 -1.0
vertex 120.819238815543 10.2786209319102 0.0
vertex 120.55 10.4852151412875 0.0
endloop
endfacet
facet normal -0.500000000000002 -0.866025403784437 0.0
outer loop
vertex 120.55 10.4852151412875 0.0
vertex 120.236464758633 10.6150856905435 -1.0
vertex 120.55 10.4852151412875 -1.0
endloop
endfacet
facet normal -0.258819045102514 -0.96592582628907 0.0
outer loop
vertex 120.236464758633 10.6150856905435 -1.0
vertex 120.55 10.4852151412875 0.0
vertex 120.236464758633 10.6150856905435 0.0
endloop
endfacet
facet normal -0.258819045102514 -0.96592582628907 0.0
outer loop
vertex 120.236464758633 10.6150856905435 0.0
vertex 119.9 10.6593821163677 -1.0
vertex 120.236464758633 10.6150856905435 -1.0
endloop
endfacet
facet normal 0.0 -1.0 0.0
outer loop
vertex 119.9 10.6593821163677 -1.0
vertex 120.236464758633 10.6150856905435 0.0
vertex 119.9 10.6593821163677 0.0
endloop
endfacet
facet normal 0.0 -1.0 0.0
outer loop
vertex 119.9 10.6593821163677 0.0
vertex 119.563535241367 10.6150856905435 -1.0
vertex 119.9 10.6593821163677 -1.0
endloop
endfacet
facet normal 0.258819045102514 -0.96592582628907 0.0
outer loop
vertex 119.563535241367 10.6150856905435 -1.0
vertex 119.9 10.6593821163677 0.0
vertex 119.563535241367 10.6150856905435 0.0
endloop
endfacet
facet normal 0.258819045102514 -0.96592582628907 0.0
outer loop
vertex 119.563535241367 10.6150856905435 0.0
vertex 119.25 10.4852151412875 -1.0
vertex 119.563535241367 10.6150856905435 -1.0
endloop
endfacet
facet normal 0.500000000000001 -0.866025403784438 0.0
outer loop
vertex 119.25 10.4852151412875 -1.0
vertex 119.563535241367 10.6150856905435 0.0
vertex 119.25 10.4852151412875 0.0
endloop
endfacet
facet normal 0.500000000000001 -0.866025403784438 0.0
outer loop
vertex 119.25 10.4852151412875 0.0
vertex 118.980761184457 10.2786209319102 -1.0
vertex 119.25 10.4852151412875 -1.0
endloop
endfacet
facet normal 0.707106781186563 -0.707106781186532 0.0
outer loop
vertex 118.980761184457 10.2786209319102 -1.0
vertex 119.25 10.4852151412875 0.0
vertex 118.980761184457 10.2786209319102 0.0
endloop
endfacet
facet normal 0.707106781186563 -0.707106781186532 0.0
outer loop
vertex 118.980761184457 10.2786209319102 -1.0
vertex 118.77416697508 10.0093821163677 0.0
vertex 118.77416697508 10.0093821163677 -1.0
endloop
endfacet
facet normal 0.866025403784441 -0.499999999999995 0.0
outer loop
vertex 118.77416697508 10.0093821163677 0.0
vertex 118.980761184457 10.2786209319102 -1.0
vertex 118.980761184457 10.2786209319102 0.0
endloop
endfacet
facet normal 0.866025403784441 -0.499999999999995 0.0
outer loop
vertex 118.77416697508 10.0093821163677 -1.0
vertex 118.644296425824 9.69584687500098 0.0
vertex 118.644296425824 9.69584687500098 -1.0
endloop
endfacet
facet normal 0.965925826289065 -0.258819045102533 0.0
outer loop
vertex 118.644296425824 9.69584687500098 0.0
vertex 118.77416697508 10.0093821163677 -1.0
vertex 118.77416697508 10.0093821163677 0.0
endloop
endfacet
facet normal 0.965925826289065 -0.258819045102533 0.0
outer loop
vertex 118.644296425824 9.69584687500098 -1.0
vertex 118.6 9.3593821163677 0.0
vertex 118.6 9.3593821163677 -1.0
endloop
endfacet
facet normal 1.0 0.0 0.0
outer loop
vertex 118.6 9.3593821163677 0.0
vertex 118.644296425824 9.69584687500098 -1.0
vertex 118.644296425824 9.69584687500098 0.0
endloop
endfacet
facet normal 1.0 0.0 0.0
outer loop
vertex 118.6 9.3593821163677 -1.0
vertex 118.644296425824 9.02291735773443 0.0
vertex 118.644296425824 9.02291735773443 -1.0
endloop
endfacet
facet normal 0.965925826289073 0.258819045102503 0.0
outer loop
vertex 118.644296425824 9.02291735773443 0.0
vertex 118.6 9.3593821163677 -1.0
vertex 118.6 9.3593821163677 0.0
endloop
endfacet
facet normal 0.965925826289073 0.258819045102503 0.0
outer loop
vertex 118.644296425824 9.02291735773443 -1.0
vertex 118.77416697508 8.7093821163677 0.0
vertex 118.77416697508 8.7093821163677 -1.0
endloop
endfacet
facet normal 0.866025403784443 0.499999999999992 0.0
outer loop
vertex 118.77416697508 8.7093821163677 0.0
vertex 118.644296425824 9.02291735773443 -1.0
vertex 118.644296425824 9.02291735773443 0.0
endloop
endfacet
facet normal 0.866025403784443 0.499999999999992 0.0
outer loop
vertex 118.77416697508 8.7093821163677 -1.0
vertex 118.980761184457 8.44014330082519 0.0
vertex 118.980761184457 8.44014330082519 -1.0
endloop
endfacet
facet normal 0.707106781186544 0.707106781186551 0.0
outer loop
vertex 118.980761184457 8.44014330082519 0.0
vertex 118.77416697508 8.7093821163677 -1.0
vertex 118.77416697508 8.7093821163677 0.0
endloop
endfacet
facet normal 0.707106781186544 0.707106781186551 0.0
outer loop
vertex 118.980761184457 8.44014330082519 0.0
vertex 119.25 8.23354909144793 -1.0
vertex 118.980761184457 8.44014330082519 -1.0
endloop
endfacet
facet normal 0.500000000000002 0.866025403784437 0.0
outer loop
vertex 119.25 8.23354909144793 -1.0
vertex 118.980761184457 8.44014330082519 0.0
vertex 119.25 8.23354909144793 0.0
endloop
endfacet
facet normal -1.0 4.42691542332577e-018 0.0
outer loop
vertex 112.9 9.35938211636774 0.0
vertex 112.852946737556 10.0772761735781 -1.0
vertex 112.9 9.35938211636774 -1.0
endloop
endfacet
facet normal -0.99144486137381 -0.13052619222005 -2.80572010201866e-015
outer loop
vertex 112.852946737556 10.0772761735781 -1.0
vertex 112.9 9.35938211636774 0.0
vertex 112.852946737556 10.077276173578 0.0
endloop
endfacet
facet normal -0.965925826289068 -0.258819045102523 -6.27804103319844e-015
outer loop
vertex 112.71259204459 10.7828868644316 0.0
vertex 112.852946737556 10.0772761735781 -1.0
vertex 112.852946737556 10.077276173578 0.0
endloop
endfacet
facet normal -0.99144486137381 -0.13052619222005 -2.80572010201866e-015
outer loop
vertex 112.852946737556 10.0772761735781 -1.0
vertex 112.71259204459 10.7828868644316 0.0
vertex 112.71259204459 10.7828868644316 -1.0
endloop
endfacet
facet normal -0.923879532511284 -0.382683432365096 -3.94208762808581e-015
outer loop
vertex 112.481337428812 11.4641409943757 0.0
vertex 112.71259204459 10.7828868644316 -1.0
vertex 112.71259204459 10.7828868644316 0.0
endloop
endfacet
facet normal -0.965925826289067 -0.258819045102525 -6.27804103319849e-015
outer loop
vertex 112.71259204459 10.7828868644316 -1.0
vertex 112.481337428812 11.4641409943757 0.0
vertex 112.481337428812 11.4641409943758 -1.0
endloop
endfacet
facet normal -0.866025403784437 -0.500000000000003 3.43513123596755e-015
outer loop
vertex 112.163139720814 12.1093821163677 0.0
vertex 112.481337428812 11.4641409943758 -1.0
vertex 112.481337428812 11.4641409943757 0.0
endloop
endfacet
facet normal -0.923879532511284 -0.382683432365098 -3.9420876280857e-015
outer loop
vertex 112.481337428812 11.4641409943758 -1.0
vertex 112.163139720814 12.1093821163677 0.0
vertex 112.163139720814 12.1093821163678 -1.0
endloop
endfacet
facet normal -0.793353340291232 -0.608761429008725 5.95075562962921e-015
outer loop
vertex 111.763443371602 12.7075699759157 0.0
vertex 112.163139720814 12.1093821163678 -1.0
vertex 112.163139720814 12.1093821163677 0.0
endloop
endfacet
facet normal -0.866025403784435 -0.500000000000006 3.43513123596769e-015
outer loop
vertex 112.163139720814 12.1093821163678 -1.0
vertex 111.763443371602 12.7075699759157 0.0
vertex 111.763443371602 12.7075699759157 -1.0
endloop
endfacet
facet normal -0.707106781186543 -0.707106781186552 4.04725615011153e-015
outer loop
vertex 111.289087296526 13.2484694128937 0.0
vertex 111.763443371602 12.7075699759157 -1.0
vertex 111.763443371602 12.7075699759157 0.0
endloop
endfacet
facet normal -0.79335334029123 -0.608761429008727 5.95075562962917e-015
outer loop
vertex 111.763443371602 12.7075699759157 -1.0
vertex 111.289087296526 13.2484694128937 0.0
vertex 111.289087296526 13.2484694128938 -1.0
endloop
endfacet
facet normal -0.707106781186543 -0.707106781186552 4.04725615011153e-015
outer loop
vertex 111.289087296526 13.2484694128937 0.0
vertex 110.748187859548 13.7228254879695 -1.0
vertex 111.289087296526 13.2484694128938 -1.0
endloop
endfacet
facet normal -0.608761429008715 -0.793353340291239 2.00247107795447e-015
outer loop
vertex 110.748187859548 13.7228254879695 -1.0
vertex 111.289087296526 13.2484694128937 0.0
vertex 110.748187859548 13.7228254879695 0.0
endloop
endfacet
facet normal -0.608761429008717 -0.793353340291238 2.00247107795451e-015
outer loop
vertex 110.748187859548 13.7228254879695 0.0
vertex 110.15 14.1225218371822 -1.0
vertex 110.748187859548 13.7228254879695 -1.0
endloop
endfacet
facet normal -0.499999999999992 -0.866025403784444 3.31322392221312e-016
outer loop
vertex 110.15 14.1225218371822 -1.0
vertex 110.748187859548 13.7228254879695 0.0
vertex 110.15 14.1225218371821 0.0
endloop
endfacet
facet normal -0.499999999999993 -0.866025403784442 3.31322392221327e-016
outer loop
vertex 110.15 14.1225218371821 0.0
vertex 109.504758878008 14.4407195451798 -1.0
vertex 110.15 14.1225218371822 -1.0
endloop
endfacet
facet normal -0.382683432365082 -0.92387953251129 1.36958233544226e-015
outer loop
vertex 109.504758878008 14.4407195451798 -1.0
vertex 110.15 14.1225218371821 0.0
vertex 109.504758878008 14.4407195451798 0.0
endloop
endfacet
facet normal -0.382683432365083 -0.923879532511289 1.36958233544221e-015
outer loop
vertex 109.504758878008 14.4407195451798 0.0
vertex 108.823504748064 14.6719741609576 -1.0
vertex 109.504758878008 14.4407195451798 -1.0
endloop
endfacet
facet normal -0.258819045102515 -0.96592582628907 1.96798283302966e-015
outer loop
vertex 108.823504748064 14.6719741609576 -1.0
vertex 109.504758878008 14.4407195451798 0.0
vertex 108.823504748064 14.6719741609576 0.0
endloop
endfacet
facet normal -0.258819045102519 -0.965925826289069 1.96798283302971e-015
outer loop
vertex 108.823504748064 14.6719741609576 0.0
vertex 108.11789405721 14.8123288539237 -1.0
vertex 108.823504748064 14.6719741609576 -1.0
endloop
endfacet
facet normal -0.130526192220049 -0.991444861373811 2.01924541098767e-016
outer loop
vertex 108.11789405721 14.8123288539237 -1.0
vertex 108.823504748064 14.6719741609576 0.0
vertex 108.11789405721 14.8123288539237 0.0
endloop
endfacet
facet normal -0.130526192220051 -0.99144486137381 2.01924541098792e-016
outer loop
vertex 108.11789405721 14.8123288539237 0.0
vertex 107.4 14.8593821163677 -1.0
vertex 108.11789405721 14.8123288539237 -1.0
endloop
endfacet
facet normal 4.87403388108167e-015 -1.0 7.06094756244679e-016
outer loop
vertex 107.4 14.8593821163677 -1.0
vertex 108.11789405721 14.8123288539237 0.0
vertex 107.4 14.8593821163677 0.0
endloop
endfacet
facet normal 4.87403388108167e-015 -1.0 7.06094756244679e-016
outer loop
vertex 107.4 14.8593821163677 0.0
vertex 106.68210594279 14.8123288539237 -1.0
vertex 107.4 14.8593821163677 -1.0
endloop
endfacet
facet normal 0.13052619222006 -0.991444861373809 1.60719917058079e-015
outer loop
vertex 106.68210594279 14.8123288539237 -1.0
vertex 107.4 14.8593821163677 0.0
vertex 106.68210594279 14.8123288539237 0.0
endloop
endfacet
facet normal 0.130526192220058 -0.991444861373809 1.60719917058081e-015
outer loop
vertex 106.68210594279 14.8123288539237 0.0
vertex 105.976495251936 14.6719741609576 -1.0
vertex 106.68210594279 14.8123288539237 -1.0
endloop
endfacet
facet normal 0.258819045102528 -0.965925826289066 9.44756952151828e-016
outer loop
vertex 105.976495251936 14.6719741609576 -1.0
vertex 106.68210594279 14.8123288539237 0.0
vertex 105.976495251936 14.6719741609576 0.0
endloop
endfacet
facet normal 0.258819045102526 -0.965925826289067 9.44756952151833e-016
outer loop
vertex 105.976495251936 14.6719741609576 0.0
vertex 105.295241121992 14.4407195451798 -1.0
vertex 105.976495251936 14.6719741609576 -1.0
endloop
endfacet
facet normal 0.382683432365093 -0.923879532511285 1.06882259600967e-015
outer loop
vertex 105.295241121992 14.4407195451798 -1.0
vertex 105.976495251936 14.6719741609576 0.0
vertex 105.295241121992 14.4407195451798 0.0
endloop
endfacet
facet normal 0.382683432365091 -0.923879532511286 1.06882259600966e-015
outer loop
vertex 105.295241121992 14.4407195451798 0.0
vertex 104.65 14.1225218371821 -1.0
vertex 105.295241121992 14.4407195451798 -1.0
endloop
endfacet
facet normal 0.500000000000001 -0.866025403784438 8.6319746577516e-016
outer loop
vertex 104.65 14.1225218371821 -1.0
vertex 105.295241121992 14.4407195451798 0.0
vertex 104.65 14.1225218371821 0.0
endloop
endfacet
facet normal 0.499999999999999 -0.866025403784439 8.63197465775177e-016
outer loop
vertex 104.65 14.1225218371821 0.0
vertex 104.051812140452 13.7228254879695 -1.0
vertex 104.65 14.1225218371821 -1.0
endloop
endfacet
facet normal 0.608761429008726 -0.793353340291231 2.81680068220238e-015
outer loop
vertex 104.051812140452 13.7228254879695 -1.0
vertex 104.65 14.1225218371821 0.0
vertex 104.051812140452 13.7228254879695 0.0
endloop
endfacet
facet normal 0.608761429008724 -0.793353340291232 2.81680068220229e-015
outer loop
vertex 104.051812140452 13.7228254879695 0.0
vertex 103.510912703474 13.2484694128937 -1.0
vertex 104.051812140452 13.7228254879695 -1.0
endloop
endfacet
facet normal 0.707106781186554 -0.707106781186541 4.44380016429891e-015
outer loop
vertex 103.510912703474 13.2484694128937 -1.0
vertex 104.051812140452 13.7228254879695 0.0
vertex 103.510912703474 13.2484694128937 0.0
endloop
endfacet
facet normal 0.707106781186554 -0.707106781186541 4.44380016429891e-015
outer loop
vertex 103.510912703474 13.2484694128937 -1.0
vertex 103.036556628398 12.7075699759157 0.0
vertex 103.036556628398 12.7075699759157 -1.0
endloop
endfacet
facet normal 0.793353340291237 -0.608761429008719 -1.70827724092217e-015
outer loop
vertex 103.036556628398 12.7075699759157 0.0
vertex 103.510912703474 13.2484694128937 -1.0
vertex 103.510912703474 13.2484694128937 0.0
endloop
endfacet
facet normal 0.793353340291238 -0.608761429008717 -1.70827724092237e-015
outer loop
vertex 103.036556628398 12.7075699759157 -1.0
vertex 102.636860279186 12.1093821163677 0.0
vertex 102.636860279186 12.1093821163677 -1.0
endloop
endfacet
facet normal 0.866025403784437 -0.500000000000003 -3.57753102760433e-015
outer loop
vertex 102.636860279186 12.1093821163677 0.0
vertex 103.036556628398 12.7075699759157 -1.0
vertex 103.036556628398 12.7075699759157 0.0
endloop
endfacet
facet normal 0.866025403784438 -0.500000000000001 -3.5775310276042e-015
outer loop
vertex 102.636860279186 12.1093821163677 -1.0
vertex 102.318662571188 11.4641409943757 0.0
vertex 102.318662571188 11.4641409943757 -1.0
endloop
endfacet
facet normal 0.923879532511287 -0.382683432365089 -1.66959732656331e-015
outer loop
vertex 102.318662571188 11.4641409943757 0.0
vertex 102.636860279186 12.1093821163677 -1.0
vertex 102.636860279186 12.1093821163677 0.0
endloop
endfacet
facet normal 0.923879532511288 -0.382683432365088 -1.66959732656335e-015
outer loop
vertex 102.318662571188 11.4641409943757 -1.0
vertex 102.08740795541 10.7828868644316 0.0
vertex 102.08740795541 10.7828868644315 -1.0
endloop
endfacet
facet normal 0.965925826289071 -0.25881904510251 -4.66109218687206e-015
outer loop
vertex 102.08740795541 10.7828868644316 0.0
vertex 102.318662571188 11.4641409943757 -1.0
vertex 102.318662571188 11.4641409943757 0.0
endloop
endfacet
facet normal 0.965925826289072 -0.258819045102507 -4.66109218687212e-015
outer loop
vertex 102.08740795541 10.7828868644315 -1.0
vertex 101.947053262444 10.077276173578 0.0
vertex 101.947053262444 10.077276173578 -1.0
endloop
endfacet
facet normal 0.991444861373812 -0.130526192220043 -2.18302212345407e-015
outer loop
vertex 101.947053262444 10.077276173578 0.0
vertex 102.08740795541 10.7828868644315 -1.0
vertex 102.08740795541 10.7828868644316 0.0
endloop
endfacet
facet normal 0.991444861373812 -0.130526192220041 -2.18302212345394e-015
outer loop
vertex 101.947053262444 10.077276173578 -1.0
vertex 101.9 9.35938211636771 0.0
vertex 101.9 9.35938211636768 -1.0
endloop
endfacet
facet normal 1.0 -1.08459427871481e-015 2.40694625111117e-017
outer loop
vertex 101.9 9.35938211636771 0.0
vertex 101.947053262444 10.077276173578 -1.0
vertex 101.947053262444 10.077276173578 0.0
endloop
endfacet
facet normal 1.0 1.1509980100647e-015 2.40694625110528e-017
outer loop
vertex 101.9 9.35938211636768 -1.0
vertex 101.947053262444 8.64148805915743 0.0
vertex 101.947053262444 8.6414880591574 -1.0
endloop
endfacet
facet normal 0.991444861373811 0.130526192220049 -3.26762454925511e-015
outer loop
vertex 101.947053262444 8.64148805915743 0.0
vertex 101.9 9.35938211636768 -1.0
vertex 101.9 9.35938211636771 0.0
endloop
endfacet
facet normal 0.99144486137381 0.130526192220051 -3.26762454925516e-015
outer loop
vertex 101.947053262444 8.6414880591574 -1.0
vertex 102.08740795541 7.93587736830385 0.0
vertex 102.08740795541 7.93587736830382 -1.0
endloop
endfacet
facet normal 0.965925826289068 0.258819045102523 -6.27804103319844e-015
outer loop
vertex 102.08740795541 7.93587736830385 0.0
vertex 101.947053262444 8.6414880591574 -1.0
vertex 101.947053262444 8.64148805915743 0.0
endloop
endfacet
facet normal 0.965925826289067 0.258819045102525 -6.27804103319848e-015
outer loop
vertex 102.08740795541 7.93587736830382 -1.0
vertex 102.318662571188 7.25462323835972 0.0
vertex 102.318662571188 7.2546232383597 -1.0
endloop
endfacet
facet normal 0.923879532511287 0.382683432365089 -9.0109338230853e-015
outer loop
vertex 102.318662571188 7.25462323835972 0.0
vertex 102.08740795541 7.93587736830382 -1.0
vertex 102.08740795541 7.93587736830385 0.0
endloop
endfacet
facet normal 0.923879532511287 0.38268343236509 -9.01093382308534e-015
outer loop
vertex 102.318662571188 7.2546232383597 -1.0
vertex 102.636860279186 6.60938211636771 0.0
vertex 102.636860279186 6.60938211636769 -1.0
endloop
endfacet
facet normal 0.866025403784437 0.500000000000003 -6.33292297975454e-015
outer loop
vertex 102.636860279186 6.60938211636771 0.0
vertex 102.318662571188 7.2546232383597 -1.0
vertex 102.318662571188 7.25462323835972 0.0
endloop
endfacet
facet normal 0.866025403784436 0.500000000000004 -6.33292297975444e-015
outer loop
vertex 102.636860279186 6.60938211636769 -1.0
vertex 103.036556628398 6.01119425681975 0.0
vertex 103.036556628398 6.01119425681973 -1.0
endloop
endfacet
facet normal 0.793353340291232 0.608761429008725 5.15984658118624e-015
outer loop
vertex 103.036556628398 6.01119425681975 0.0
vertex 102.636860279186 6.60938211636769 -1.0
vertex 102.636860279186 6.60938211636771 0.0
endloop
endfacet
facet normal 0.793353340291231 0.608761429008726 5.15984658118652e-015
outer loop
vertex 103.036556628398 6.01119425681973 -1.0
vertex 103.510912703474 5.4702948198417 0.0
vertex 103.510912703474 5.47029481984169 -1.0
endloop
endfacet
facet normal 0.707106781186549 0.707106781186545 7.42193904077615e-015
outer loop
vertex 103.510912703474 5.4702948198417 0.0
vertex 103.036556628398 6.01119425681973 -1.0
vertex 103.036556628398 6.01119425681975 0.0
endloop
endfacet
facet normal 0.707106781186549 0.707106781186545 7.42193904077615e-015
outer loop
vertex 103.510912703474 5.4702948198417 0.0
vertex 104.051812140452 4.99593874476591 -1.0
vertex 103.510912703474 5.47029481984169 -1.0
endloop
endfacet
facet normal 0.608761429008721 0.793353340291235 -1.65161615242305e-015
outer loop
vertex 104.051812140452 4.99593874476591 -1.0
vertex 103.510912703474 5.4702948198417 0.0
vertex 104.051812140452 4.99593874476592 0.0
endloop
endfacet
facet normal 0.608761429008722 0.793353340291234 -1.65161615242301e-015
outer loop
vertex 104.051812140452 4.99593874476592 0.0
vertex 104.65 4.59624239555329 -1.0
vertex 104.051812140452 4.99593874476591 -1.0
endloop
endfacet
facet normal 0.499999999999998 0.86602540378444 -2.94632228196721e-015
outer loop
vertex 104.65 4.59624239555329 -1.0
vertex 104.051812140452 4.99593874476592 0.0
vertex 104.65 4.5962423955533 0.0
endloop
endfacet
facet normal 0.5 0.866025403784439 -2.9463222819673e-015
outer loop
vertex 104.65 4.5962423955533 0.0
vertex 105.295241121992 4.27804468755563 -1.0
vertex 104.65 4.59624239555329 -1.0
endloop
endfacet
facet normal 0.382683432365087 0.923879532511288 -4.31356128086366e-016
outer loop
vertex 105.295241121992 4.27804468755563 -1.0
vertex 104.65 4.5962423955533 0.0
vertex 105.295241121992 4.27804468755564 0.0
endloop
endfacet
facet normal 0.382683432365089 0.923879532511287 -4.31356128086367e-016
outer loop
vertex 105.295241121992 4.27804468755564 0.0
vertex 105.976495251936 4.04679007177783 -1.0
vertex 105.295241121992 4.27804468755563 -1.0
endloop
endfacet
facet normal 0.258819045102518 0.965925826289069 -1.18787904744099e-015
outer loop
vertex 105.976495251936 4.04679007177783 -1.0
vertex 105.295241121992 4.27804468755564 0.0
vertex 105.976495251936 4.04679007177784 0.0
endloop
endfacet
facet normal 0.25881904510252 0.965925826289068 -1.18787904744097e-015
outer loop
vertex 105.976495251936 4.04679007177784 0.0
vertex 106.68210594279 3.90643537881176 -1.0
vertex 105.976495251936 4.04679007177783 -1.0
endloop
endfacet
facet normal 0.130526192220049 0.991444861373811 -9.5829779869318e-016
outer loop
vertex 106.68210594279 3.90643537881176 -1.0
vertex 105.976495251936 4.04679007177784 0.0
vertex 106.68210594279 3.90643537881176 0.0
endloop
endfacet
facet normal 0.130526192220049 0.991444861373811 -9.58297798693181e-016
outer loop
vertex 106.68210594279 3.90643537881176 0.0
vertex 107.4 3.85938211636772 -1.0
vertex 106.68210594279 3.90643537881176 -1.0
endloop
endfacet
facet normal -3.41757870680749e-015 1.0 3.35830278197602e-016
outer loop
vertex 107.4 3.85938211636772 -1.0
vertex 106.68210594279 3.90643537881176 0.0
vertex 107.4 3.85938211636772 0.0
endloop
endfacet
facet normal -1.53613965189404e-015 1.0 3.35830278197593e-016
outer loop
vertex 107.4 3.85938211636772 0.0
vertex 108.11789405721 3.90643537881176 -1.0
vertex 107.4 3.85938211636772 -1.0
endloop
endfacet
facet normal -0.130526192220055 0.99144486137381 1.81533207924931e-015
outer loop
vertex 108.11789405721 3.90643537881176 -1.0
vertex 107.4 3.85938211636772 0.0
vertex 108.11789405721 3.90643537881176 0.0
endloop
endfacet
facet normal -0.130526192220053 0.99144486137381 1.81533207924927e-015
outer loop
vertex 108.11789405721 3.90643537881176 0.0
vertex 108.823504748064 4.04679007177785 -1.0
vertex 108.11789405721 3.90643537881176 -1.0
endloop
endfacet
facet normal -0.258819045102521 0.965925826289068 3.52857563080337e-015
outer loop
vertex 108.823504748064 4.04679007177785 -1.0
vertex 108.11789405721 3.90643537881176 0.0
vertex 108.823504748064 4.04679007177784 0.0
endloop
endfacet
facet normal -0.258819045102521 0.965925826289068 3.52857563080337e-015
outer loop
vertex 108.823504748064 4.04679007177784 0.0
vertex 109.504758878008 4.27804468755565 -1.0
vertex 108.823504748064 4.04679007177785 -1.0
endloop
endfacet
facet normal -0.382683432365093 0.923879532511285 4.28277418363368e-015
outer loop
vertex 109.504758878008 4.27804468755565 -1.0
vertex 108.823504748064 4.04679007177784 0.0
vertex 109.504758878008 4.27804468755564 0.0
endloop
endfacet
facet normal -0.382683432365091 0.923879532511286 4.28277418363367e-015
outer loop
vertex 109.504758878008 4.27804468755564 0.0
vertex 110.15 4.59624239555332 -1.0
vertex 109.504758878008 4.27804468755565 -1.0
endloop
endfacet
facet normal -0.500000000000002 0.866025403784437 1.69262546531345e-015
outer loop
vertex 110.15 4.59624239555332 -1.0
vertex 109.504758878008 4.27804468755564 0.0
vertex 110.15 4.5962423955533 0.0
endloop
endfacet
facet normal -0.500000000000002 0.866025403784438 1.69262546531347e-015
outer loop
vertex 110.15 4.5962423955533 0.0
vertex 110.748187859548 4.99593874476594 -1.0
vertex 110.15 4.59624239555332 -1.0
endloop
endfacet
facet normal -0.608761429008722 0.793353340291234 -1.63400613877425e-015
outer loop
vertex 110.748187859548 4.99593874476594 -1.0
vertex 110.15 4.5962423955533 0.0
vertex 110.748187859548 4.99593874476592 0.0
endloop
endfacet
facet normal -0.608761429008719 0.793353340291236 -1.63400613877422e-015
outer loop
vertex 110.748187859548 4.99593874476592 0.0
vertex 111.289087296526 5.47029481984172 -1.0
vertex 110.748187859548 4.99593874476594 -1.0
endloop
endfacet
facet normal -0.70710678118655 0.707106781186545 8.45295471935829e-016
outer loop
vertex 111.289087296526 5.47029481984172 -1.0
vertex 110.748187859548 4.99593874476592 0.0
vertex 111.289087296526 5.4702948198417 0.0
endloop
endfacet
facet normal -0.793353340291236 0.608761429008719 -1.8839047789259e-015
outer loop
vertex 111.763443371602 6.01119425681975 0.0
vertex 111.289087296526 5.47029481984172 -1.0
vertex 111.289087296526 5.4702948198417 0.0
endloop
endfacet
facet normal -0.70710678118655 0.707106781186545 8.45295471935829e-016
outer loop
vertex 111.289087296526 5.47029481984172 -1.0
vertex 111.763443371602 6.01119425681975 0.0
vertex 111.763443371602 6.01119425681977 -1.0
endloop
endfacet
facet normal -0.86602540378444 0.499999999999997 -8.95108093101095e-015
outer loop
vertex 112.163139720814 6.60938211636772 0.0
vertex 111.763443371602 6.01119425681977 -1.0
vertex 111.763443371602 6.01119425681975 0.0
endloop
endfacet
facet normal -0.793353340291238 0.608761429008717 -1.88390477892611e-015
outer loop
vertex 111.763443371602 6.01119425681977 -1.0
vertex 112.163139720814 6.60938211636772 0.0
vertex 112.163139720814 6.60938211636774 -1.0
endloop
endfacet
facet normal -0.923879532511287 0.38268343236509 -1.19852873882907e-014
outer loop
vertex 112.481337428812 7.25462323835972 0.0
vertex 112.163139720814 6.60938211636774 -1.0
vertex 112.163139720814 6.60938211636772 0.0
endloop
endfacet
facet normal -0.866025403784441 0.499999999999995 -8.951080931011e-015
outer loop
vertex 112.163139720814 6.60938211636774 -1.0
vertex 112.481337428812 7.25462323835972 0.0
vertex 112.481337428812 7.25462323835975 -1.0
endloop
endfacet
facet normal -0.96592582628907 0.258819045102517 -9.96856278199469e-015
outer loop
vertex 112.71259204459 7.93587736830385 0.0
vertex 112.481337428812 7.25462323835975 -1.0
vertex 112.481337428812 7.25462323835972 0.0
endloop
endfacet
facet normal -0.923879532511288 0.382683432365087 -1.19852873882907e-014
outer loop
vertex 112.481337428812 7.25462323835975 -1.0
vertex 112.71259204459 7.93587736830385 0.0
vertex 112.71259204459 7.93587736830388 -1.0
endloop
endfacet
facet normal -0.991444861373812 0.130526192220043 -2.73737370211248e-015
outer loop
vertex 112.852946737556 8.64148805915743 0.0
vertex 112.71259204459 7.93587736830388 -1.0
vertex 112.71259204459 7.93587736830385 0.0
endloop
endfacet
facet normal -0.96592582628907 0.258819045102514 -9.96856278199455e-015
outer loop
vertex 112.71259204459 7.93587736830388 -1.0
vertex 112.852946737556 8.64148805915743 0.0
vertex 112.852946737556 8.64148805915746 -1.0
endloop
endfacet
facet normal -1.0 4.42691542332577e-018 0.0
outer loop
vertex 112.9 9.35938211636774 0.0
vertex 112.852946737556 8.64148805915746 -1.0
vertex 112.852946737556 8.64148805915743 0.0
endloop
endfacet
facet normal -0.991444861373812 0.130526192220041 -2.73737370211236e-015
outer loop
vertex 112.852946737556 8.64148805915746 -1.0
vertex 112.9 9.35938211636774 0.0
vertex 112.9 9.35938211636774 -1.0
endloop
endfacet
endsolid single-command-button-template
