solid single-command-button-template
facet normal -0.0 -0.0 1.0
outer loop
vertex 80.2 0.0 0.0
vertex 93.9807611844575 8.44014330082519 0.0
vertex 80.2 24.95 0.0
endloop
endfacet
facet normal -0.0 -0.0 1.0
outer loop
vertex 93.9807611844575 8.44014330082519 0.0
vertex 80.2 0.0 0.0
vertex 94.25 8.23354909144793 0.0
endloop
endfacet
facet normal -0.0 -0.0 1.0
outer loop
vertex 94.25 8.23354909144793 0.0
vertex 80.2 0.0 0.0
vertex 94.5635352413667 8.10367854219192 0.0
endloop
endfacet
facet normal -0.0 -0.0 1.0
outer loop
vertex 94.5635352413667 8.10367854219192 0.0
vertex 80.2 0.0 0.0
vertex 102.4 6.35938211636772 0.0
endloop
endfacet
facet normal -0.0 -0.0 1.0
outer loop
vertex 102.4 6.35938211636772 0.0
vertex 80.2 0.0 0.0
vertex 132.3 0.0 0.0
endloop
endfacet
facet normal -0.0 -0.0 1.0
outer loop
vertex 80.2 24.95 0.0
vertex 93.9807611844575 8.44014330082519 0.0
vertex 93.7741669750802 8.7093821163677 0.0
endloop
endfacet
facet normal -0.0 -0.0 1.0
outer loop
vertex 80.2 24.95 0.0
vertex 93.7741669750802 8.7093821163677 0.0
vertex 93.6442964258242 9.02291735773443 0.0
endloop
endfacet
facet normal -0.0 -0.0 1.0
outer loop
vertex 80.2 24.95 0.0
vertex 93.6442964258242 9.02291735773443 0.0
vertex 93.6 9.3593821163677 0.0
endloop
endfacet
facet normal -0.0 -0.0 1.0
outer loop
vertex 94.5635352413667 8.10367854219192 0.0
vertex 102.4 6.35938211636772 0.0
vertex 94.9 8.0593821163677 0.0
endloop
endfacet
facet normal -0.0 -0.0 1.0
outer loop
vertex 94.9 8.0593821163677 0.0
vertex 102.4 6.35938211636772 0.0
vertex 95.2364647586333 8.10367854219191 0.0
endloop
endfacet
facet normal -0.0 -0.0 1.0
outer loop
vertex 95.2364647586333 8.10367854219191 0.0
vertex 102.4 6.35938211636772 0.0
vertex 95.55 8.23354909144793 0.0
endloop
endfacet
facet normal -0.0 -0.0 1.0
outer loop
vertex 95.55 8.23354909144793 0.0
vertex 102.4 6.35938211636772 0.0
vertex 95.8192388155425 8.44014330082519 0.0
endloop
endfacet
facet normal -0.0 -0.0 1.0
outer loop
vertex 95.8192388155425 8.44014330082519 0.0
vertex 102.4 6.35938211636772 0.0
vertex 96.0258330249198 8.7093821163677 0.0
endloop
endfacet
facet normal -0.0 -0.0 1.0
outer loop
vertex 96.0258330249198 8.7093821163677 0.0
vertex 102.4 6.35938211636772 0.0
vertex 96.1557035741758 9.02291735773443 0.0
endloop
endfacet
facet normal -0.0 -0.0 1.0
outer loop
vertex 96.1557035741758 9.02291735773443 0.0
vertex 102.4 6.35938211636772 0.0
vertex 96.2 9.3593821163677 0.0
endloop
endfacet
facet normal -0.0 -0.0 1.0
outer loop
vertex 96.2 9.3593821163677 0.0
vertex 102.4 6.35938211636772 0.0
vertex 102.4 12.3593821163677 0.0
endloop
endfacet
facet normal -0.0 -0.0 1.0
outer loop
vertex 102.4 6.35938211636772 0.0
vertex 132.3 0.0 0.0
vertex 112.4 6.35938211636774 0.0
endloop
endfacet
facet normal -0.0 -0.0 1.0
outer loop
vertex 112.4 6.35938211636774 0.0
vertex 132.3 0.0 0.0
vertex 119.25 8.23354909144793 0.0
endloop
endfacet
facet normal -0.0 -0.0 1.0
outer loop
vertex 112.4 6.35938211636774 0.0
vertex 119.25 8.23354909144793 0.0
vertex 118.980761184457 8.44014330082519 0.0
endloop
endfacet
facet normal -0.0 -0.0 1.0
outer loop
vertex 112.4 6.35938211636774 0.0
vertex 118.980761184457 8.44014330082519 0.0
vertex 118.77416697508 8.7093821163677 0.0
endloop
endfacet
facet normal -0.0 -0.0 1.0
outer loop
vertex 112.4 6.35938211636774 0.0
vertex 118.77416697508 8.7093821163677 0.0
vertex 118.644296425824 9.02291735773443 0.0
endloop
endfacet
facet normal -0.0 -0.0 1.0
outer loop
vertex 112.4 6.35938211636774 0.0
vertex 118.644296425824 9.02291735773443 0.0
vertex 118.6 9.3593821163677 0.0
endloop
endfacet
facet normal -0.0 -0.0 1.0
outer loop
vertex 119.25 8.23354909144793 0.0
vertex 132.3 0.0 0.0
vertex 119.563535241367 8.10367854219192 0.0
endloop
endfacet
facet normal -0.0 -0.0 1.0
outer loop
vertex 119.563535241367 8.10367854219192 0.0
vertex 132.3 0.0 0.0
vertex 119.9 8.0593821163677 0.0
endloop
endfacet
facet normal -0.0 -0.0 1.0
outer loop
vertex 119.9 8.0593821163677 0.0
vertex 132.3 0.0 0.0
vertex 120.236464758633 8.10367854219192 0.0
endloop
endfacet
facet normal -0.0 -0.0 1.0
outer loop
vertex 120.236464758633 8.10367854219192 0.0
vertex 132.3 0.0 0.0
vertex 120.55 8.23354909144793 0.0
endloop
endfacet
facet normal -0.0 -0.0 1.0
outer loop
vertex 120.55 8.23354909144793 0.0
vertex 132.3 0.0 0.0
vertex 120.819238815543 8.44014330082519 0.0
endloop
endfacet
facet normal -0.0 -0.0 1.0
outer loop
vertex 120.819238815543 8.44014330082519 0.0
vertex 132.3 0.0 0.0
vertex 121.02583302492 8.7093821163677 0.0
endloop
endfacet
facet normal -0.0 -0.0 1.0
outer loop
vertex 121.02583302492 8.7093821163677 0.0
vertex 132.3 0.0 0.0
vertex 121.155703574176 9.02291735773443 0.0
endloop
endfacet
facet normal -0.0 -0.0 1.0
outer loop
vertex 121.155703574176 9.02291735773443 0.0
vertex 132.3 0.0 0.0
vertex 121.2 9.3593821163677 0.0
endloop
endfacet
facet normal -0.0 -0.0 1.0
outer loop
vertex 80.2 24.95 0.0
vertex 94.5635352413667 10.6150856905435 0.0
vertex 132.3 24.95 0.0
endloop
endfacet
facet normal -0.0 -0.0 1.0
outer loop
vertex 94.5635352413667 10.6150856905435 0.0
vertex 80.2 24.95 0.0
vertex 94.25 10.4852151412875 0.0
endloop
endfacet
facet normal -0.0 -0.0 1.0
outer loop
vertex 94.25 10.4852151412875 0.0
vertex 80.2 24.95 0.0
vertex 93.9807611844575 10.2786209319102 0.0
endloop
endfacet
facet normal -0.0 -0.0 1.0
outer loop
vertex 93.9807611844575 10.2786209319102 0.0
vertex 80.2 24.95 0.0
vertex 93.7741669750802 10.0093821163677 0.0
endloop
endfacet
facet normal -0.0 -0.0 1.0
outer loop
vertex 93.7741669750802 10.0093821163677 0.0
vertex 80.2 24.95 0.0
vertex 93.6442964258242 9.69584687500098 0.0
endloop
endfacet
facet normal -0.0 -0.0 1.0
outer loop
vertex 93.6442964258242 9.69584687500098 0.0
vertex 80.2 24.95 0.0
vertex 93.6 9.3593821163677 0.0
endloop
endfacet
facet normal -0.0 -0.0 1.0
outer loop
vertex 132.3 24.95 0.0
vertex 94.5635352413667 10.6150856905435 0.0
vertex 94.9 10.6593821163677 0.0
endloop
endfacet
facet normal -0.0 -0.0 1.0
outer loop
vertex 132.3 24.95 0.0
vertex 94.9 10.6593821163677 0.0
vertex 95.2364647586333 10.6150856905435 0.0
endloop
endfacet
facet normal -0.0 -0.0 1.0
outer loop
vertex 132.3 24.95 0.0
vertex 95.2364647586333 10.6150856905435 0.0
vertex 95.55 10.4852151412875 0.0
endloop
endfacet
facet normal -0.0 -0.0 1.0
outer loop
vertex 132.3 24.95 0.0
vertex 95.55 10.4852151412875 0.0
vertex 95.8192388155425 10.2786209319102 0.0
endloop
endfacet
facet normal -0.0 -0.0 1.0
outer loop
vertex 132.3 24.95 0.0
vertex 95.8192388155425 10.2786209319102 0.0
vertex 96.0258330249198 10.0093821163677 0.0
endloop
endfacet
facet normal -0.0 -0.0 1.0
outer loop
vertex 132.3 24.95 0.0
vertex 96.0258330249198 10.0093821163677 0.0
vertex 102.4 12.3593821163677 0.0
endloop
endfacet
facet normal -0.0 -0.0 1.0
outer loop
vertex 102.4 12.3593821163677 0.0
vertex 96.0258330249198 10.0093821163677 0.0
vertex 96.1557035741758 9.69584687500098 0.0
endloop
endfacet
facet normal -0.0 -0.0 1.0
outer loop
vertex 102.4 12.3593821163677 0.0
vertex 96.1557035741758 9.69584687500098 0.0
vertex 96.2 9.3593821163677 0.0
endloop
endfacet
facet normal -0.0 -0.0 1.0
outer loop
vertex 132.3 24.95 0.0
vertex 102.4 12.3593821163677 0.0
vertex 112.4 12.3593821163677 0.0
endloop
endfacet
facet normal -0.0 -0.0 1.0
outer loop
vertex 132.3 24.95 0.0
vertex 112.4 12.3593821163677 0.0
vertex 112.4 6.35938211636774 0.0
endloop
endfacet
facet normal -0.0 -0.0 1.0
outer loop
vertex 132.3 24.95 0.0
vertex 112.4 6.35938211636774 0.0
vertex 118.980761184457 10.2786209319102 0.0
endloop
endfacet
facet normal -0.0 -0.0 1.0
outer loop
vertex 118.980761184457 10.2786209319102 0.0
vertex 112.4 6.35938211636774 0.0
vertex 118.77416697508 10.0093821163677 0.0
endloop
endfacet
facet normal -0.0 -0.0 1.0
outer loop
vertex 118.77416697508 10.0093821163677 0.0
vertex 112.4 6.35938211636774 0.0
vertex 118.644296425824 9.69584687500098 0.0
endloop
endfacet
facet normal -0.0 -0.0 1.0
outer loop
vertex 118.644296425824 9.69584687500098 0.0
vertex 112.4 6.35938211636774 0.0
vertex 118.6 9.3593821163677 0.0
endloop
endfacet
facet normal -0.0 -0.0 1.0
outer loop
vertex 132.3 24.95 0.0
vertex 118.980761184457 10.2786209319102 0.0
vertex 119.25 10.4852151412875 0.0
endloop
endfacet
facet normal -0.0 -0.0 1.0
outer loop
vertex 132.3 24.95 0.0
vertex 119.25 10.4852151412875 0.0
vertex 119.563535241367 10.6150856905435 0.0
endloop
endfacet
facet normal -0.0 -0.0 1.0
outer loop
vertex 132.3 24.95 0.0
vertex 119.563535241367 10.6150856905435 0.0
vertex 119.9 10.6593821163677 0.0
endloop
endfacet
facet normal -0.0 -0.0 1.0
outer loop
vertex 132.3 24.95 0.0
vertex 119.9 10.6593821163677 0.0
vertex 120.236464758633 10.6150856905435 0.0
endloop
endfacet
facet normal -0.0 -0.0 1.0
outer loop
vertex 132.3 24.95 0.0
vertex 120.236464758633 10.6150856905435 0.0
vertex 120.55 10.4852151412875 0.0
endloop
endfacet
facet normal -0.0 -0.0 1.0
outer loop
vertex 132.3 24.95 0.0
vertex 120.55 10.4852151412875 0.0
vertex 120.819238815543 10.2786209319102 0.0
endloop
endfacet
facet normal -0.0 -0.0 1.0
outer loop
vertex 132.3 24.95 0.0
vertex 120.819238815543 10.2786209319102 0.0
vertex 121.02583302492 10.0093821163677 0.0
endloop
endfacet
facet normal -0.0 -0.0 1.0
outer loop
vertex 132.3 24.95 0.0
vertex 121.02583302492 10.0093821163677 0.0
vertex 121.155703574176 9.69584687500098 0.0
endloop
endfacet
facet normal -0.0 -0.0 1.0
outer loop
vertex 132.3 24.95 0.0
vertex 121.155703574176 9.69584687500098 0.0
vertex 121.2 9.3593821163677 0.0
endloop
endfacet
facet normal -0.0 -0.0 1.0
outer loop
vertex 132.3 24.95 0.0
vertex 121.2 9.3593821163677 0.0
vertex 132.3 0.0 0.0
endloop
endfacet
facet normal 0.0 0.0 -1.0
outer loop
vertex 80.2 24.95 -1.0
vertex 94.25 10.4852151412875 -1.0
vertex 80.2 0.0 -1.0
endloop
endfacet
facet normal 0.0 0.0 -1.0
outer loop
vertex 94.25 10.4852151412875 -1.0
vertex 80.2 24.95 -1.0
vertex 94.5635352413667 10.6150856905435 -1.0
endloop
endfacet
facet normal 0.0 0.0 -1.0
outer loop
vertex 94.5635352413667 10.6150856905435 -1.0
vertex 80.2 24.95 -1.0
vertex 132.3 24.95 -1.0
endloop
endfacet
facet normal 0.0 0.0 -1.0
outer loop
vertex 80.2 0.0 -1.0
vertex 94.25 10.4852151412875 -1.0
vertex 93.9807611844575 10.2786209319102 -1.0
endloop
endfacet
facet normal 0.0 0.0 -1.0
outer loop
vertex 80.2 0.0 -1.0
vertex 93.9807611844575 10.2786209319102 -1.0
vertex 93.7741669750802 10.0093821163677 -1.0
endloop
endfacet
facet normal 0.0 0.0 -1.0
outer loop
vertex 80.2 0.0 -1.0
vertex 93.7741669750802 10.0093821163677 -1.0
vertex 93.6442964258242 9.69584687500098 -1.0
endloop
endfacet
facet normal 0.0 0.0 -1.0
outer loop
vertex 80.2 0.0 -1.0
vertex 93.6442964258242 9.69584687500098 -1.0
vertex 93.6 9.3593821163677 -1.0
endloop
endfacet
facet normal 0.0 0.0 -1.0
outer loop
vertex 94.5635352413667 10.6150856905435 -1.0
vertex 132.3 24.95 -1.0
vertex 94.9 10.6593821163677 -1.0
endloop
endfacet
facet normal 0.0 0.0 -1.0
outer loop
vertex 94.9 10.6593821163677 -1.0
vertex 132.3 24.95 -1.0
vertex 95.2364647586333 10.6150856905435 -1.0
endloop
endfacet
facet normal 0.0 0.0 -1.0
outer loop
vertex 95.2364647586333 10.6150856905435 -1.0
vertex 132.3 24.95 -1.0
vertex 95.55 10.4852151412875 -1.0
endloop
endfacet
facet normal 0.0 0.0 -1.0
outer loop
vertex 95.55 10.4852151412875 -1.0
vertex 132.3 24.95 -1.0
vertex 95.8192388155425 10.2786209319102 -1.0
endloop
endfacet
facet normal 0.0 0.0 -1.0
outer loop
vertex 95.8192388155425 10.2786209319102 -1.0
vertex 132.3 24.95 -1.0
vertex 96.0258330249198 10.0093821163677 -1.0
endloop
endfacet
facet normal 0.0 0.0 -1.0
outer loop
vertex 96.0258330249198 10.0093821163677 -1.0
vertex 132.3 24.95 -1.0
vertex 102.4 12.3593821163677 -1.0
endloop
endfacet
facet normal 0.0 0.0 -1.0
outer loop
vertex 96.0258330249198 10.0093821163677 -1.0
vertex 102.4 12.3593821163677 -1.0
vertex 96.1557035741758 9.69584687500098 -1.0
endloop
endfacet
facet normal 0.0 0.0 -1.0
outer loop
vertex 96.1557035741758 9.69584687500098 -1.0
vertex 102.4 12.3593821163677 -1.0
vertex 96.2 9.3593821163677 -1.0
endloop
endfacet
facet normal 0.0 0.0 -1.0
outer loop
vertex 102.4 12.3593821163677 -1.0
vertex 132.3 24.95 -1.0
vertex 112.4 12.3593821163677 -1.0
endloop
endfacet
facet normal 0.0 0.0 -1.0
outer loop
vertex 112.4 12.3593821163677 -1.0
vertex 132.3 24.95 -1.0
vertex 112.4 6.35938211636774 -1.0
endloop
endfacet
facet normal 0.0 0.0 -1.0
outer loop
vertex 112.4 6.35938211636774 -1.0
vertex 132.3 24.95 -1.0
vertex 118.980761184457 10.2786209319102 -1.0
endloop
endfacet
facet normal 0.0 0.0 -1.0
outer loop
vertex 112.4 6.35938211636774 -1.0
vertex 118.980761184457 10.2786209319102 -1.0
vertex 118.77416697508 10.0093821163677 -1.0
endloop
endfacet
facet normal 0.0 0.0 -1.0
outer loop
vertex 112.4 6.35938211636774 -1.0
vertex 118.77416697508 10.0093821163677 -1.0
vertex 118.644296425824 9.69584687500098 -1.0
endloop
endfacet
facet normal 0.0 0.0 -1.0
outer loop
vertex 112.4 6.35938211636774 -1.0
vertex 118.644296425824 9.69584687500098 -1.0
vertex 118.6 9.3593821163677 -1.0
endloop
endfacet
facet normal 0.0 0.0 -1.0
outer loop
vertex 118.980761184457 10.2786209319102 -1.0
vertex 132.3 24.95 -1.0
vertex 119.25 10.4852151412875 -1.0
endloop
endfacet
facet normal 0.0 0.0 -1.0
outer loop
vertex 119.25 10.4852151412875 -1.0
vertex 132.3 24.95 -1.0
vertex 119.563535241367 10.6150856905435 -1.0
endloop
endfacet
facet normal 0.0 0.0 -1.0
outer loop
vertex 119.563535241367 10.6150856905435 -1.0
vertex 132.3 24.95 -1.0
vertex 119.9 10.6593821163677 -1.0
endloop
endfacet
facet normal 0.0 0.0 -1.0
outer loop
vertex 119.9 10.6593821163677 -1.0
vertex 132.3 24.95 -1.0
vertex 120.236464758633 10.6150856905435 -1.0
endloop
endfacet
facet normal 0.0 0.0 -1.0
outer loop
vertex 120.236464758633 10.6150856905435 -1.0
vertex 132.3 24.95 -1.0
vertex 120.55 10.4852151412875 -1.0
endloop
endfacet
facet normal 0.0 0.0 -1.0
outer loop
vertex 120.55 10.4852151412875 -1.0
vertex 132.3 24.95 -1.0
vertex 120.819238815543 10.2786209319102 -1.0
endloop
endfacet
facet normal 0.0 0.0 -1.0
outer loop
vertex 120.819238815543 10.2786209319102 -1.0
vertex 132.3 24.95 -1.0
vertex 121.02583302492 10.0093821163677 -1.0
endloop
endfacet
facet normal 0.0 0.0 -1.0
outer loop
vertex 121.02583302492 10.0093821163677 -1.0
vertex 132.3 24.95 -1.0
vertex 121.155703574176 9.69584687500098 -1.0
endloop
endfacet
facet normal 0.0 0.0 -1.0
outer loop
vertex 121.155703574176 9.69584687500098 -1.0
vertex 132.3 24.95 -1.0
vertex 121.2 9.3593821163677 -1.0
endloop
endfacet
facet normal 0.0 0.0 -1.0
outer loop
vertex 80.2 0.0 -1.0
vertex 102.4 6.35938211636772 -1.0
vertex 132.3 0.0 -1.0
endloop
endfacet
facet normal 0.0 0.0 -1.0
outer loop
vertex 102.4 6.35938211636772 -1.0
vertex 80.2 0.0 -1.0
vertex 94.5635352413667 8.10367854219192 -1.0
endloop
endfacet
facet normal 0.0 0.0 -1.0
outer loop
vertex 94.5635352413667 8.10367854219192 -1.0
vertex 80.2 0.0 -1.0
vertex 94.25 8.23354909144793 -1.0
endloop
endfacet
facet normal 0.0 0.0 -1.0
outer loop
vertex 94.25 8.23354909144793 -1.0
vertex 80.2 0.0 -1.0
vertex 93.9807611844575 8.44014330082519 -1.0
endloop
endfacet
facet normal 0.0 0.0 -1.0
outer loop
vertex 93.9807611844575 8.44014330082519 -1.0
vertex 80.2 0.0 -1.0
vertex 93.7741669750802 8.7093821163677 -1.0
endloop
endfacet
facet normal 0.0 0.0 -1.0
outer loop
vertex 93.7741669750802 8.7093821163677 -1.0
vertex 80.2 0.0 -1.0
vertex 93.6442964258242 9.02291735773443 -1.0
endloop
endfacet
facet normal 0.0 0.0 -1.0
outer loop
vertex 93.6442964258242 9.02291735773443 -1.0
vertex 80.2 0.0 -1.0
vertex 93.6 9.3593821163677 -1.0
endloop
endfacet
facet normal 0.0 0.0 -1.0
outer loop
vertex 102.4 6.35938211636772 -1.0
vertex 94.5635352413667 8.10367854219192 -1.0
vertex 94.9 8.0593821163677 -1.0
endloop
endfacet
facet normal 0.0 0.0 -1.0
outer loop
vertex 102.4 6.35938211636772 -1.0
vertex 94.9 8.0593821163677 -1.0
vertex 95.2364647586333 8.10367854219191 -1.0
endloop
endfacet
facet normal 0.0 0.0 -1.0
outer loop
vertex 102.4 6.35938211636772 -1.0
vertex 95.2364647586333 8.10367854219191 -1.0
vertex 95.55 8.23354909144793 -1.0
endloop
endfacet
facet normal 0.0 0.0 -1.0
outer loop
vertex 102.4 6.35938211636772 -1.0
vertex 95.55 8.23354909144793 -1.0
vertex 95.8192388155425 8.44014330082519 -1.0
endloop
endfacet
facet normal 0.0 0.0 -1.0
outer loop
vertex 102.4 6.35938211636772 -1.0
vertex 95.8192388155425 8.44014330082519 -1.0
vertex 96.0258330249198 8.7093821163677 -1.0
endloop
endfacet
facet normal 0.0 0.0 -1.0
outer loop
vertex 102.4 6.35938211636772 -1.0
vertex 96.0258330249198 8.7093821163677 -1.0
vertex 96.1557035741758 9.02291735773443 -1.0
endloop
endfacet
facet normal 0.0 0.0 -1.0
outer loop
vertex 102.4 6.35938211636772 -1.0
vertex 96.1557035741758 9.02291735773443 -1.0
vertex 96.2 9.3593821163677 -1.0
endloop
endfacet
facet normal 0.0 0.0 -1.0
outer loop
vertex 102.4 6.35938211636772 -1.0
vertex 96.2 9.3593821163677 -1.0
vertex 102.4 12.3593821163677 -1.0
endloop
endfacet
facet normal 0.0 0.0 -1.0
outer loop
vertex 132.3 0.0 -1.0
vertex 102.4 6.35938211636772 -1.0
vertex 112.4 6.35938211636774 -1.0
endloop
endfacet
facet normal 0.0 0.0 -1.0
outer loop
vertex 132.3 0.0 -1.0
vertex 112.4 6.35938211636774 -1.0
vertex 119.25 8.23354909144793 -1.0
endloop
endfacet
facet normal 0.0 0.0 -1.0
outer loop
vertex 119.25 8.23354909144793 -1.0
vertex 112.4 6.35938211636774 -1.0
vertex 118.980761184457 8.44014330082519 -1.0
endloop
endfacet
facet normal 0.0 0.0 -1.0
outer loop
vertex 118.980761184457 8.44014330082519 -1.0
vertex 112.4 6.35938211636774 -1.0
vertex 118.77416697508 8.7093821163677 -1.0
endloop
endfacet
facet normal 0.0 0.0 -1.0
outer loop
vertex 118.77416697508 8.7093821163677 -1.0
vertex 112.4 6.35938211636774 -1.0
vertex 118.644296425824 9.02291735773443 -1.0
endloop
endfacet
facet normal 0.0 0.0 -1.0
outer loop
vertex 118.644296425824 9.02291735773443 -1.0
vertex 112.4 6.35938211636774 -1.0
vertex 118.6 9.3593821163677 -1.0
endloop
endfacet
facet normal 0.0 0.0 -1.0
outer loop
vertex 132.3 0.0 -1.0
vertex 119.25 8.23354909144793 -1.0
vertex 119.563535241367 8.10367854219192 -1.0
endloop
endfacet
facet normal 0.0 0.0 -1.0
outer loop
vertex 132.3 0.0 -1.0
vertex 119.563535241367 8.10367854219192 -1.0
vertex 119.9 8.0593821163677 -1.0
endloop
endfacet
facet normal 0.0 0.0 -1.0
outer loop
vertex 132.3 0.0 -1.0
vertex 119.9 8.0593821163677 -1.0
vertex 120.236464758633 8.10367854219192 -1.0
endloop
endfacet
facet normal 0.0 0.0 -1.0
outer loop
vertex 132.3 0.0 -1.0
vertex 120.236464758633 8.10367854219192 -1.0
vertex 120.55 8.23354909144793 -1.0
endloop
endfacet
facet normal 0.0 0.0 -1.0
outer loop
vertex 132.3 0.0 -1.0
vertex 120.55 8.23354909144793 -1.0
vertex 120.819238815543 8.44014330082519 -1.0
endloop
endfacet
facet normal 0.0 0.0 -1.0
outer loop
vertex 132.3 0.0 -1.0
vertex 120.819238815543 8.44014330082519 -1.0
vertex 121.02583302492 8.7093821163677 -1.0
endloop
endfacet
facet normal 0.0 0.0 -1.0
outer loop
vertex 132.3 0.0 -1.0
vertex 121.02583302492 8.7093821163677 -1.0
vertex 121.155703574176 9.02291735773443 -1.0
endloop
endfacet
facet normal 0.0 0.0 -1.0
outer loop
vertex 132.3 0.0 -1.0
vertex 121.155703574176 9.02291735773443 -1.0
vertex 121.2 9.3593821163677 -1.0
endloop
endfacet
facet normal 0.0 0.0 -1.0
outer loop
vertex 132.3 0.0 -1.0
vertex 121.2 9.3593821163677 -1.0
vertex 132.3 24.95 -1.0
endloop
endfacet
facet normal 1.0 0.0 0.0
outer loop
vertex 132.3 24.95 -1.0
vertex 132.3 0.0 0.0
vertex 132.3 0.0 -1.0
endloop
endfacet
facet normal 1.0 0.0 0.0
outer loop
vertex 132.3 0.0 0.0
vertex 132.3 24.95 -1.0
vertex 132.3 24.95 0.0
endloop
endfacet
facet normal -0.0 -1.0 -0.0
outer loop
vertex 132.3 0.0 0.0
vertex 80.2 0.0 -1.0
vertex 132.3 0.0 -1.0
endloop
endfacet
facet normal -0.0 -1.0 -0.0
outer loop
vertex 80.2 0.0 -1.0
vertex 132.3 0.0 0.0
vertex 80.2 0.0 0.0
endloop
endfacet
facet normal -1.0 0.0 0.0
outer loop
vertex 80.2 24.95 0.0
vertex 80.2 0.0 -1.0
vertex 80.2 0.0 0.0
endloop
endfacet
facet normal -1.0 0.0 0.0
outer loop
vertex 80.2 0.0 -1.0
vertex 80.2 24.95 0.0
vertex 80.2 24.95 -1.0
endloop
endfacet
facet normal 4.61910971752317e-017 1.0 0.0
outer loop
vertex 80.2 24.95 0.0
vertex 132.3 24.95 -1.0
vertex 80.2 24.95 -1.0
endloop
endfacet
facet normal 4.61910971752317e-017 1.0 0.0
outer loop
vertex 132.3 24.95 -1.0
vertex 80.2 24.95 0.0
vertex 132.3 24.95 0.0
endloop
endfacet
facet normal -0.965925826289069 -0.258819045102517 0.0
outer loop
vertex 96.1557035741758 9.69584687500098 0.0
vertex 96.2 9.3593821163677 -1.0
vertex 96.2 9.3593821163677 0.0
endloop
endfacet
facet normal -1.0 -2.67333296869406e-016 0.0
outer loop
vertex 96.2 9.3593821163677 -1.0
vertex 96.1557035741758 9.69584687500098 0.0
vertex 96.1557035741758 9.69584687500098 -1.0
endloop
endfacet
facet normal -0.866025403784436 -0.500000000000005 0.0
outer loop
vertex 96.0258330249198 10.0093821163677 0.0
vertex 96.1557035741758 9.69584687500098 -1.0
vertex 96.1557035741758 9.69584687500098 0.0
endloop
endfacet
facet normal -0.965925826289069 -0.258819045102517 0.0
outer loop
vertex 96.1557035741758 9.69584687500098 -1.0
vertex 96.0258330249198 10.0093821163677 0.0
vertex 96.0258330249198 10.0093821163677 -1.0
endloop
endfacet
facet normal -0.707106781186547 -0.707106781186548 0.0
outer loop
vertex 95.8192388155425 10.2786209319102 0.0
vertex 96.0258330249198 10.0093821163677 -1.0
vertex 96.0258330249198 10.0093821163677 0.0
endloop
endfacet
facet normal -0.866025403784436 -0.500000000000005 0.0
outer loop
vertex 96.0258330249198 10.0093821163677 -1.0
vertex 95.8192388155425 10.2786209319102 0.0
vertex 95.8192388155425 10.2786209319102 -1.0
endloop
endfacet
facet normal -0.707106781186547 -0.707106781186548 0.0
outer loop
vertex 95.8192388155425 10.2786209319102 0.0
vertex 95.55 10.4852151412875 -1.0
vertex 95.8192388155425 10.2786209319102 -1.0
endloop
endfacet
facet normal -0.500000000000003 -0.866025403784437 0.0
outer loop
vertex 95.55 10.4852151412875 -1.0
vertex 95.8192388155425 10.2786209319102 0.0
vertex 95.55 10.4852151412875 0.0
endloop
endfacet
facet normal -0.500000000000003 -0.866025403784437 0.0
outer loop
vertex 95.55 10.4852151412875 0.0
vertex 95.2364647586333 10.6150856905435 -1.0
vertex 95.55 10.4852151412875 -1.0
endloop
endfacet
facet normal -0.258819045102524 -0.965925826289067 0.0
outer loop
vertex 95.2364647586333 10.6150856905435 -1.0
vertex 95.55 10.4852151412875 0.0
vertex 95.2364647586333 10.6150856905435 0.0
endloop
endfacet
facet normal -0.258819045102524 -0.965925826289067 0.0
outer loop
vertex 95.2364647586333 10.6150856905435 0.0
vertex 94.9 10.6593821163677 -1.0
vertex 95.2364647586333 10.6150856905435 -1.0
endloop
endfacet
facet normal 2.18322192443349e-015 -1.0 0.0
outer loop
vertex 94.9 10.6593821163677 -1.0
vertex 95.2364647586333 10.6150856905435 0.0
vertex 94.9 10.6593821163677 0.0
endloop
endfacet
facet normal 2.18322192443349e-015 -1.0 0.0
outer loop
vertex 94.9 10.6593821163677 0.0
vertex 94.5635352413667 10.6150856905435 -1.0
vertex 94.9 10.6593821163677 -1.0
endloop
endfacet
facet normal 0.25881904510252 -0.965925826289069 0.0
outer loop
vertex 94.5635352413667 10.6150856905435 -1.0
vertex 94.9 10.6593821163677 0.0
vertex 94.5635352413667 10.6150856905435 0.0
endloop
endfacet
facet normal 0.25881904510252 -0.965925826289069 0.0
outer loop
vertex 94.5635352413667 10.6150856905435 0.0
vertex 94.25 10.4852151412875 -1.0
vertex 94.5635352413667 10.6150856905435 -1.0
endloop
endfacet
facet normal 0.499999999999998 -0.86602540378444 0.0
outer loop
vertex 94.25 10.4852151412875 -1.0
vertex 94.5635352413667 10.6150856905435 0.0
vertex 94.25 10.4852151412875 0.0
endloop
endfacet
facet normal 0.499999999999998 -0.86602540378444 0.0
outer loop
vertex 94.25 10.4852151412875 0.0
vertex 93.9807611844575 10.2786209319102 -1.0
vertex 94.25 10.4852151412875 -1.0
endloop
endfacet
facet normal 0.707106781186546 -0.707106781186549 0.0
outer loop
vertex 93.9807611844575 10.2786209319102 -1.0
vertex 94.25 10.4852151412875 0.0
vertex 93.9807611844575 10.2786209319102 0.0
endloop
endfacet
facet normal 0.707106781186546 -0.707106781186549 0.0
outer loop
vertex 93.9807611844575 10.2786209319102 -1.0
vertex 93.7741669750802 10.0093821163677 0.0
vertex 93.7741669750802 10.0093821163677 -1.0
endloop
endfacet
facet normal 0.866025403784435 -0.500000000000006 0.0
outer loop
vertex 93.7741669750802 10.0093821163677 0.0
vertex 93.9807611844575 10.2786209319102 -1.0
vertex 93.9807611844575 10.2786209319102 0.0
endloop
endfacet
facet normal 0.866025403784435 -0.500000000000006 0.0
outer loop
vertex 93.7741669750802 10.0093821163677 -1.0
vertex 93.6442964258242 9.69584687500098 0.0
vertex 93.6442964258242 9.69584687500098 -1.0
endloop
endfacet
facet normal 0.965925826289069 -0.258819045102517 0.0
outer loop
vertex 93.6442964258242 9.69584687500098 0.0
vertex 93.7741669750802 10.0093821163677 -1.0
vertex 93.7741669750802 10.0093821163677 0.0
endloop
endfacet
facet normal 0.965925826289069 -0.258819045102517 0.0
outer loop
vertex 93.6442964258242 9.69584687500098 -1.0
vertex 93.6 9.3593821163677 0.0
vertex 93.6 9.3593821163677 -1.0
endloop
endfacet
facet normal 1.0 0.0 0.0
outer loop
vertex 93.6 9.3593821163677 0.0
vertex 93.6442964258242 9.69584687500098 -1.0
vertex 93.6442964258242 9.69584687500098 0.0
endloop
endfacet
facet normal 1.0 0.0 0.0
outer loop
vertex 93.6 9.3593821163677 -1.0
vertex 93.6442964258242 9.02291735773443 0.0
vertex 93.6442964258242 9.02291735773443 -1.0
endloop
endfacet
facet normal 0.965925826289069 0.258819045102517 0.0
outer loop
vertex 93.6442964258242 9.02291735773443 0.0
vertex 93.6 9.3593821163677 -1.0
vertex 93.6 9.3593821163677 0.0
endloop
endfacet
facet normal 0.965925826289069 0.258819045102517 0.0
outer loop
vertex 93.6442964258242 9.02291735773443 -1.0
vertex 93.7741669750802 8.7093821163677 0.0
vertex 93.7741669750802 8.7093821163677 -1.0
endloop
endfacet
facet normal 0.866025403784435 0.500000000000006 0.0
outer loop
vertex 93.7741669750802 8.7093821163677 0.0
vertex 93.6442964258242 9.02291735773443 -1.0
vertex 93.6442964258242 9.02291735773443 0.0
endloop
endfacet
facet normal 0.866025403784435 0.500000000000006 0.0
outer loop
vertex 93.7741669750802 8.7093821163677 -1.0
vertex 93.9807611844575 8.44014330082519 0.0
vertex 93.9807611844575 8.44014330082519 -1.0
endloop
endfacet
facet normal 0.707106781186546 0.707106781186549 0.0
outer loop
vertex 93.9807611844575 8.44014330082519 0.0
vertex 93.7741669750802 8.7093821163677 -1.0
vertex 93.7741669750802 8.7093821163677 0.0
endloop
endfacet
facet normal 0.707106781186546 0.707106781186549 0.0
outer loop
vertex 93.9807611844575 8.44014330082519 0.0
vertex 94.25 8.23354909144793 -1.0
vertex 93.9807611844575 8.44014330082519 -1.0
endloop
endfacet
facet normal 0.499999999999998 0.86602540378444 0.0
outer loop
vertex 94.25 8.23354909144793 -1.0
vertex 93.9807611844575 8.44014330082519 0.0
vertex 94.25 8.23354909144793 0.0
endloop
endfacet
facet normal 0.499999999999998 0.86602540378444 0.0
outer loop
vertex 94.25 8.23354909144793 0.0
vertex 94.5635352413667 8.10367854219192 -1.0
vertex 94.25 8.23354909144793 -1.0
endloop
endfacet
facet normal 0.25881904510252 0.965925826289069 0.0
outer loop
vertex 94.5635352413667 8.10367854219192 -1.0
vertex 94.25 8.23354909144793 0.0
vertex 94.5635352413667 8.10367854219192 0.0
endloop
endfacet
facet normal 0.25881904510252 0.965925826289069 0.0
outer loop
vertex 94.5635352413667 8.10367854219192 0.0
vertex 94.9 8.0593821163677 -1.0
vertex 94.5635352413667 8.10367854219192 -1.0
endloop
endfacet
facet normal 2.06737749579008e-015 1.0 0.0
outer loop
vertex 94.9 8.0593821163677 -1.0
vertex 94.5635352413667 8.10367854219192 0.0
vertex 94.9 8.0593821163677 0.0
endloop
endfacet
facet normal 2.06737749579008e-015 1.0 0.0
outer loop
vertex 94.9 8.0593821163677 0.0
vertex 95.2364647586333 8.10367854219191 -1.0
vertex 94.9 8.0593821163677 -1.0
endloop
endfacet
facet normal -0.25881904510252 0.965925826289069 0.0
outer loop
vertex 95.2364647586333 8.10367854219191 -1.0
vertex 94.9 8.0593821163677 0.0
vertex 95.2364647586333 8.10367854219191 0.0
endloop
endfacet
facet normal -0.25881904510252 0.965925826289069 0.0
outer loop
vertex 95.2364647586333 8.10367854219191 0.0
vertex 95.55 8.23354909144793 -1.0
vertex 95.2364647586333 8.10367854219191 -1.0
endloop
endfacet
facet normal -0.499999999999999 0.866025403784439 0.0
outer loop
vertex 95.55 8.23354909144793 -1.0
vertex 95.2364647586333 8.10367854219191 0.0
vertex 95.55 8.23354909144793 0.0
endloop
endfacet
facet normal -0.499999999999999 0.866025403784439 0.0
outer loop
vertex 95.55 8.23354909144793 0.0
vertex 95.8192388155425 8.44014330082519 -1.0
vertex 95.55 8.23354909144793 -1.0
endloop
endfacet
facet normal -0.707106781186546 0.707106781186549 0.0
outer loop
vertex 95.8192388155425 8.44014330082519 -1.0
vertex 95.55 8.23354909144793 0.0
vertex 95.8192388155425 8.44014330082519 0.0
endloop
endfacet
facet normal -0.866025403784435 0.500000000000006 0.0
outer loop
vertex 96.0258330249198 8.7093821163677 0.0
vertex 95.8192388155425 8.44014330082519 -1.0
vertex 95.8192388155425 8.44014330082519 0.0
endloop
endfacet
facet normal -0.707106781186546 0.707106781186549 0.0
outer loop
vertex 95.8192388155425 8.44014330082519 -1.0
vertex 96.0258330249198 8.7093821163677 0.0
vertex 96.0258330249198 8.7093821163677 -1.0
endloop
endfacet
facet normal -0.965925826289069 0.258819045102517 0.0
outer loop
vertex 96.1557035741758 9.02291735773443 0.0
vertex 96.0258330249198 8.7093821163677 -1.0
vertex 96.0258330249198 8.7093821163677 0.0
endloop
endfacet
facet normal -0.866025403784435 0.500000000000006 0.0
outer loop
vertex 96.0258330249198 8.7093821163677 -1.0
vertex 96.1557035741758 9.02291735773443 0.0
vertex 96.1557035741758 9.02291735773443 -1.0
endloop
endfacet
facet normal -1.0 -2.67333296869406e-016 0.0
outer loop
vertex 96.2 9.3593821163677 0.0
vertex 96.1557035741758 9.02291735773443 -1.0
vertex 96.1557035741758 9.02291735773443 0.0
endloop
endfacet
facet normal -0.965925826289069 0.258819045102517 0.0
outer loop
vertex 96.1557035741758 9.02291735773443 -1.0
vertex 96.2 9.3593821163677 0.0
vertex 96.2 9.3593821163677 -1.0
endloop
endfacet
facet normal -1.0 -1.77635683940025e-015 0.0
outer loop
vertex 112.4 12.3593821163677 0.0
vertex 112.4 6.35938211636774 -1.0
vertex 112.4 6.35938211636774 0.0
endloop
endfacet
facet normal -1.0 -1.77635683940025e-015 0.0
outer loop
vertex 112.4 6.35938211636774 -1.0
vertex 112.4 12.3593821163677 0.0
vertex 112.4 12.3593821163677 -1.0
endloop
endfacet
facet normal 1.77635683940025e-015 -1.0 0.0
outer loop
vertex 112.4 12.3593821163677 0.0
vertex 102.4 12.3593821163677 -1.0
vertex 112.4 12.3593821163677 -1.0
endloop
endfacet
facet normal 1.77635683940025e-015 -1.0 0.0
outer loop
vertex 102.4 12.3593821163677 -1.0
vertex 112.4 12.3593821163677 0.0
vertex 102.4 12.3593821163677 0.0
endloop
endfacet
facet normal 1.0 1.77635683940025e-015 0.0
outer loop
vertex 102.4 12.3593821163677 -1.0
vertex 102.4 6.35938211636772 0.0
vertex 102.4 6.35938211636772 -1.0
endloop
endfacet
facet normal 1.0 1.77635683940025e-015 0.0
outer loop
vertex 102.4 6.35938211636772 0.0
vertex 102.4 12.3593821163677 -1.0
vertex 102.4 12.3593821163677 0.0
endloop
endfacet
facet normal -1.77635683940025e-015 1.0 0.0
outer loop
vertex 102.4 6.35938211636772 0.0
vertex 112.4 6.35938211636774 -1.0
vertex 102.4 6.35938211636772 -1.0
endloop
endfacet
facet normal -1.77635683940025e-015 1.0 0.0
outer loop
vertex 112.4 6.35938211636774 -1.0
vertex 102.4 6.35938211636772 0.0
vertex 112.4 6.35938211636774 0.0
endloop
endfacet
facet normal 0.500000000000002 0.866025403784437 0.0
outer loop
vertex 119.25 8.23354909144793 0.0
vertex 119.563535241367 8.10367854219192 -1.0
vertex 119.25 8.23354909144793 -1.0
endloop
endfacet
facet normal 0.258819045102514 0.96592582628907 0.0
outer loop
vertex 119.563535241367 8.10367854219192 -1.0
vertex 119.25 8.23354909144793 0.0
vertex 119.563535241367 8.10367854219192 0.0
endloop
endfacet
facet normal 0.258819045102514 0.96592582628907 0.0
outer loop
vertex 119.563535241367 8.10367854219192 0.0
vertex 119.9 8.0593821163677 -1.0
vertex 119.563535241367 8.10367854219192 -1.0
endloop
endfacet
facet normal 0.0 1.0 0.0
outer loop
vertex 119.9 8.0593821163677 -1.0
vertex 119.563535241367 8.10367854219192 0.0
vertex 119.9 8.0593821163677 0.0
endloop
endfacet
facet normal 0.0 1.0 0.0
outer loop
vertex 119.9 8.0593821163677 0.0
vertex 120.236464758633 8.10367854219192 -1.0
vertex 119.9 8.0593821163677 -1.0
endloop
endfacet
facet normal -0.258819045102514 0.96592582628907 0.0
outer loop
vertex 120.236464758633 8.10367854219192 -1.0
vertex 119.9 8.0593821163677 0.0
vertex 120.236464758633 8.10367854219192 0.0
endloop
endfacet
facet normal -0.258819045102514 0.96592582628907 0.0
outer loop
vertex 120.236464758633 8.10367854219192 0.0
vertex 120.55 8.23354909144793 -1.0
vertex 120.236464758633 8.10367854219192 -1.0
endloop
endfacet
facet normal -0.500000000000001 0.866025403784438 0.0
outer loop
vertex 120.55 8.23354909144793 -1.0
vertex 120.236464758633 8.10367854219192 0.0
vertex 120.55 8.23354909144793 0.0
endloop
endfacet
facet normal -0.500000000000001 0.866025403784438 0.0
outer loop
vertex 120.55 8.23354909144793 0.0
vertex 120.819238815543 8.44014330082519 -1.0
vertex 120.55 8.23354909144793 -1.0
endloop
endfacet
facet normal -0.707106781186563 0.707106781186532 0.0
outer loop
vertex 120.819238815543 8.44014330082519 -1.0
vertex 120.55 8.23354909144793 0.0
vertex 120.819238815543 8.44014330082519 0.0
endloop
endfacet
facet normal -0.866025403784441 0.499999999999995 0.0
outer loop
vertex 121.02583302492 8.7093821163677 0.0
vertex 120.819238815543 8.44014330082519 -1.0
vertex 120.819238815543 8.44014330082519 0.0
endloop
endfacet
facet normal -0.707106781186563 0.707106781186532 0.0
outer loop
vertex 120.819238815543 8.44014330082519 -1.0
vertex 121.02583302492 8.7093821163677 0.0
vertex 121.02583302492 8.7093821163677 -1.0
endloop
endfacet
facet normal -0.965925826289065 0.258819045102533 0.0
outer loop
vertex 121.155703574176 9.02291735773443 0.0
vertex 121.02583302492 8.7093821163677 -1.0
vertex 121.02583302492 8.7093821163677 0.0
endloop
endfacet
facet normal -0.866025403784441 0.499999999999995 0.0
outer loop
vertex 121.02583302492 8.7093821163677 -1.0
vertex 121.155703574176 9.02291735773443 0.0
vertex 121.155703574176 9.02291735773443 -1.0
endloop
endfacet
facet normal -1.0 -2.76244406765055e-016 0.0
outer loop
vertex 121.2 9.3593821163677 0.0
vertex 121.155703574176 9.02291735773443 -1.0
vertex 121.155703574176 9.02291735773443 0.0
endloop
endfacet
facet normal -0.965925826289065 0.258819045102533 0.0
outer loop
vertex 121.155703574176 9.02291735773443 -1.0
vertex 121.2 9.3593821163677 0.0
vertex 121.2 9.3593821163677 -1.0
endloop
endfacet
facet normal -0.965925826289073 -0.258819045102503 0.0
outer loop
vertex 121.155703574176 9.69584687500098 0.0
vertex 121.2 9.3593821163677 -1.0
vertex 121.2 9.3593821163677 0.0
endloop
endfacet
facet normal -1.0 -2.76244406765055e-016 0.0
outer loop
vertex 121.2 9.3593821163677 -1.0
vertex 121.155703574176 9.69584687500098 0.0
vertex 121.155703574176 9.69584687500098 -1.0
endloop
endfacet
facet normal -0.866025403784444 -0.499999999999991 0.0
outer loop
vertex 121.02583302492 10.0093821163677 0.0
vertex 121.155703574176 9.69584687500098 -1.0
vertex 121.155703574176 9.69584687500098 0.0
endloop
endfacet
facet normal -0.965925826289073 -0.258819045102503 0.0
outer loop
vertex 121.155703574176 9.69584687500098 -1.0
vertex 121.02583302492 10.0093821163677 0.0
vertex 121.02583302492 10.0093821163677 -1.0
endloop
endfacet
facet normal -0.707106781186545 -0.70710678118655 0.0
outer loop
vertex 120.819238815543 10.2786209319102 0.0
vertex 121.02583302492 10.0093821163677 -1.0
vertex 121.02583302492 10.0093821163677 0.0
endloop
endfacet
facet normal -0.866025403784444 -0.499999999999991 0.0
outer loop
vertex 121.02583302492 10.0093821163677 -1.0
vertex 120.819238815543 10.2786209319102 0.0
vertex 120.819238815543 10.2786209319102 -1.0
endloop
endfacet
facet normal -0.707106781186545 -0.70710678118655 0.0
outer loop
vertex 120.819238815543 10.2786209319102 0.0
vertex 120.55 10.4852151412875 -1.0
vertex 120.819238815543 10.2786209319102 -1.0
endloop
endfacet
facet normal -0.500000000000002 -0.866025403784437 0.0
outer loop
vertex 120.55 10.4852151412875 -1.0
vertex 120.819238815543 10.2786209319102 0.0
vertex 120.55 10.4852151412875 0.0
endloop
endfacet
facet normal -0.500000000000002 -0.866025403784437 0.0
outer loop
vertex 120.55 10.4852151412875 0.0
vertex 120.236464758633 10.6150856905435 -1.0
vertex 120.55 10.4852151412875 -1.0
endloop
endfacet
facet normal -0.258819045102514 -0.96592582628907 0.0
outer loop
vertex 120.236464758633 10.6150856905435 -1.0
vertex 120.55 10.4852151412875 0.0
vertex 120.236464758633 10.6150856905435 0.0
endloop
endfacet
facet normal -0.258819045102514 -0.96592582628907 0.0
outer loop
vertex 120.236464758633 10.6150856905435 0.0
vertex 119.9 10.6593821163677 -1.0
vertex 120.236464758633 10.6150856905435 -1.0
endloop
endfacet
facet normal 0.0 -1.0 0.0
outer loop
vertex 119.9 10.6593821163677 -1.0
vertex 120.236464758633 10.6150856905435 0.0
vertex 119.9 10.6593821163677 0.0
endloop
endfacet
facet normal 0.0 -1.0 0.0
outer loop
vertex 119.9 10.6593821163677 0.0
vertex 119.563535241367 10.6150856905435 -1.0
vertex 119.9 10.6593821163677 -1.0
endloop
endfacet
facet normal 0.258819045102514 -0.96592582628907 0.0
outer loop
vertex 119.563535241367 10.6150856905435 -1.0
vertex 119.9 10.6593821163677 0.0
vertex 119.563535241367 10.6150856905435 0.0
endloop
endfacet
facet normal 0.258819045102514 -0.96592582628907 0.0
outer loop
vertex 119.563535241367 10.6150856905435 0.0
vertex 119.25 10.4852151412875 -1.0
vertex 119.563535241367 10.6150856905435 -1.0
endloop
endfacet
facet normal 0.500000000000001 -0.866025403784438 0.0
outer loop
vertex 119.25 10.4852151412875 -1.0
vertex 119.563535241367 10.6150856905435 0.0
vertex 119.25 10.4852151412875 0.0
endloop
endfacet
facet normal 0.500000000000001 -0.866025403784438 0.0
outer loop
vertex 119.25 10.4852151412875 0.0
vertex 118.980761184457 10.2786209319102 -1.0
vertex 119.25 10.4852151412875 -1.0
endloop
endfacet
facet normal 0.707106781186563 -0.707106781186532 0.0
outer loop
vertex 118.980761184457 10.2786209319102 -1.0
vertex 119.25 10.4852151412875 0.0
vertex 118.980761184457 10.2786209319102 0.0
endloop
endfacet
facet normal 0.707106781186563 -0.707106781186532 0.0
outer loop
vertex 118.980761184457 10.2786209319102 -1.0
vertex 118.77416697508 10.0093821163677 0.0
vertex 118.77416697508 10.0093821163677 -1.0
endloop
endfacet
facet normal 0.866025403784441 -0.499999999999995 0.0
outer loop
vertex 118.77416697508 10.0093821163677 0.0
vertex 118.980761184457 10.2786209319102 -1.0
vertex 118.980761184457 10.2786209319102 0.0
endloop
endfacet
facet normal 0.866025403784441 -0.499999999999995 0.0
outer loop
vertex 118.77416697508 10.0093821163677 -1.0
vertex 118.644296425824 9.69584687500098 0.0
vertex 118.644296425824 9.69584687500098 -1.0
endloop
endfacet
facet normal 0.965925826289065 -0.258819045102533 0.0
outer loop
vertex 118.644296425824 9.69584687500098 0.0
vertex 118.77416697508 10.0093821163677 -1.0
vertex 118.77416697508 10.0093821163677 0.0
endloop
endfacet
facet normal 0.965925826289065 -0.258819045102533 0.0
outer loop
vertex 118.644296425824 9.69584687500098 -1.0
vertex 118.6 9.3593821163677 0.0
vertex 118.6 9.3593821163677 -1.0
endloop
endfacet
facet normal 1.0 0.0 0.0
outer loop
vertex 118.6 9.3593821163677 0.0
vertex 118.644296425824 9.69584687500098 -1.0
vertex 118.644296425824 9.69584687500098 0.0
endloop
endfacet
facet normal 1.0 0.0 0.0
outer loop
vertex 118.6 9.3593821163677 -1.0
vertex 118.644296425824 9.02291735773443 0.0
vertex 118.644296425824 9.02291735773443 -1.0
endloop
endfacet
facet normal 0.965925826289073 0.258819045102503 0.0
outer loop
vertex 118.644296425824 9.02291735773443 0.0
vertex 118.6 9.3593821163677 -1.0
vertex 118.6 9.3593821163677 0.0
endloop
endfacet
facet normal 0.965925826289073 0.258819045102503 0.0
outer loop
vertex 118.644296425824 9.02291735773443 -1.0
vertex 118.77416697508 8.7093821163677 0.0
vertex 118.77416697508 8.7093821163677 -1.0
endloop
endfacet
facet normal 0.866025403784443 0.499999999999992 0.0
outer loop
vertex 118.77416697508 8.7093821163677 0.0
vertex 118.644296425824 9.02291735773443 -1.0
vertex 118.644296425824 9.02291735773443 0.0
endloop
endfacet
facet normal 0.866025403784443 0.499999999999992 0.0
outer loop
vertex 118.77416697508 8.7093821163677 -1.0
vertex 118.980761184457 8.44014330082519 0.0
vertex 118.980761184457 8.44014330082519 -1.0
endloop
endfacet
facet normal 0.707106781186544 0.707106781186551 0.0
outer loop
vertex 118.980761184457 8.44014330082519 0.0
vertex 118.77416697508 8.7093821163677 -1.0
vertex 118.77416697508 8.7093821163677 0.0
endloop
endfacet
facet normal 0.707106781186544 0.707106781186551 0.0
outer loop
vertex 118.980761184457 8.44014330082519 0.0
vertex 119.25 8.23354909144793 -1.0
vertex 118.980761184457 8.44014330082519 -1.0
endloop
endfacet
facet normal 0.500000000000002 0.866025403784437 0.0
outer loop
vertex 119.25 8.23354909144793 -1.0
vertex 118.980761184457 8.44014330082519 0.0
vertex 119.25 8.23354909144793 0.0
endloop
endfacet
endsolid single-command-button-template
