solid single-command-button-holder
facet normal 0.0 -1.0 0.0
outer loop
vertex 76.4999999999999 0.0 1.6
vertex 46.0 0.0 7.04991620636974e-016
vertex 76.4999999999999 0.0 0.0
endloop
endfacet
facet normal 0.0 -1.0 0.0
outer loop
vertex 46.0 0.0 7.04991620636974e-016
vertex 76.4999999999999 0.0 1.6
vertex 46.0 0.0 1.6
endloop
endfacet
facet normal -0.0 1.0 -0.0
outer loop
vertex 46.0 20.0 7.04991620636974e-016
vertex 76.4999999999999 20.0 1.6
vertex 76.4999999999999 20.0 0.0
endloop
endfacet
facet normal -0.0 1.0 -0.0
outer loop
vertex 76.4999999999999 20.0 1.6
vertex 46.0 20.0 7.04991620636974e-016
vertex 46.0 20.0 1.6
endloop
endfacet
facet normal 1.0 -0.0 -0.0
outer loop
vertex 54.5 17.0 0.0
vertex 54.5 3.0 1.6
vertex 54.5 3.0 0.0
endloop
endfacet
facet normal 1.0 -0.0 -0.0
outer loop
vertex 54.5 3.0 1.6
vertex 54.5 17.0 0.0
vertex 54.5 17.0 1.6
endloop
endfacet
facet normal -0.0 1.0 -0.0
outer loop
vertex 54.5 3.0 1.6
vertex 68.5 3.0 0.0
vertex 54.5 3.0 0.0
endloop
endfacet
facet normal -0.0 1.0 -0.0
outer loop
vertex 68.5 3.0 0.0
vertex 54.5 3.0 1.6
vertex 68.5 3.0 1.6
endloop
endfacet
facet normal -1.0 0.0 0.0
outer loop
vertex 68.5 17.0 1.6
vertex 68.5 3.0 0.0
vertex 68.5 3.0 1.6
endloop
endfacet
facet normal -1.0 0.0 0.0
outer loop
vertex 68.5 3.0 0.0
vertex 68.5 17.0 1.6
vertex 68.5 17.0 0.0
endloop
endfacet
facet normal 0.0 -1.0 0.0
outer loop
vertex 68.5 17.0 1.6
vertex 54.5 17.0 0.0
vertex 68.5 17.0 0.0
endloop
endfacet
facet normal 0.0 -1.0 0.0
outer loop
vertex 54.5 17.0 0.0
vertex 68.5 17.0 1.6
vertex 54.5 17.0 1.6
endloop
endfacet
facet normal -0.0 -0.0 1.0
outer loop
vertex 71.0 3.0 16.6
vertex 72.7925927171386 9.67647619362185 16.6
vertex 71.0 17.0 16.6
endloop
endfacet
facet normal -0.0 -0.0 1.0
outer loop
vertex 72.7925927171386 9.67647619362185 16.6
vertex 71.0 3.0 16.6
vertex 72.9174682452694 9.375 16.6
endloop
endfacet
facet normal -0.0 -0.0 1.0
outer loop
vertex 72.9174682452694 9.375 16.6
vertex 71.0 3.0 16.6
vertex 76.4999999999999 3.0 16.6
endloop
endfacet
facet normal -0.0 -0.0 1.0
outer loop
vertex 71.0 17.0 16.6
vertex 72.7925927171386 9.67647619362185 16.6
vertex 72.7499999999999 10.0 16.6
endloop
endfacet
facet normal -0.0 -0.0 1.0
outer loop
vertex 72.9174682452694 9.375 16.6
vertex 76.4999999999999 3.0 16.6
vertex 73.1161165235167 9.11611652351682 16.6
endloop
endfacet
facet normal -0.0 -0.0 1.0
outer loop
vertex 73.1161165235167 9.11611652351682 16.6
vertex 76.4999999999999 3.0 16.6
vertex 73.3749999999999 8.91746824526945 16.6
endloop
endfacet
facet normal -0.0 -0.0 1.0
outer loop
vertex 73.3749999999999 8.91746824526945 16.6
vertex 76.4999999999999 3.0 16.6
vertex 73.6764761936218 8.79259271713867 16.6
endloop
endfacet
facet normal -0.0 -0.0 1.0
outer loop
vertex 73.6764761936218 8.79259271713867 16.6
vertex 76.4999999999999 3.0 16.6
vertex 73.9999999999999 8.75 16.6
endloop
endfacet
facet normal -0.0 -0.0 1.0
outer loop
vertex 73.9999999999999 8.75 16.6
vertex 76.4999999999999 3.0 16.6
vertex 74.323523806378 8.79259271713867 16.6
endloop
endfacet
facet normal -0.0 -0.0 1.0
outer loop
vertex 74.323523806378 8.79259271713867 16.6
vertex 76.4999999999999 3.0 16.6
vertex 74.6249999999999 8.91746824526945 16.6
endloop
endfacet
facet normal -0.0 -0.0 1.0
outer loop
vertex 74.6249999999999 8.91746824526945 16.6
vertex 76.4999999999999 3.0 16.6
vertex 74.8838834764831 9.11611652351682 16.6
endloop
endfacet
facet normal -0.0 -0.0 1.0
outer loop
vertex 74.8838834764831 9.11611652351682 16.6
vertex 76.4999999999999 3.0 16.6
vertex 75.0825317547304 9.375 16.6
endloop
endfacet
facet normal -0.0 -0.0 1.0
outer loop
vertex 75.0825317547304 9.375 16.6
vertex 76.4999999999999 3.0 16.6
vertex 75.2074072828612 9.67647619362185 16.6
endloop
endfacet
facet normal -0.0 -0.0 1.0
outer loop
vertex 75.2074072828612 9.67647619362185 16.6
vertex 76.4999999999999 3.0 16.6
vertex 75.2499999999999 10.0 16.6
endloop
endfacet
facet normal -0.0 -0.0 1.0
outer loop
vertex 71.0 17.0 16.6
vertex 72.9174682452694 10.625 16.6
vertex 76.4999999999999 17.0 16.6
endloop
endfacet
facet normal -0.0 -0.0 1.0
outer loop
vertex 72.9174682452694 10.625 16.6
vertex 71.0 17.0 16.6
vertex 72.7925927171386 10.3235238063782 16.6
endloop
endfacet
facet normal -0.0 -0.0 1.0
outer loop
vertex 72.7925927171386 10.3235238063782 16.6
vertex 71.0 17.0 16.6
vertex 72.7499999999999 10.0 16.6
endloop
endfacet
facet normal -0.0 -0.0 1.0
outer loop
vertex 76.4999999999999 17.0 16.6
vertex 72.9174682452694 10.625 16.6
vertex 73.1161165235167 10.8838834764832 16.6
endloop
endfacet
facet normal -0.0 -0.0 1.0
outer loop
vertex 76.4999999999999 17.0 16.6
vertex 73.1161165235167 10.8838834764832 16.6
vertex 73.3749999999999 11.0825317547305 16.6
endloop
endfacet
facet normal -0.0 -0.0 1.0
outer loop
vertex 76.4999999999999 17.0 16.6
vertex 73.3749999999999 11.0825317547305 16.6
vertex 73.6764761936217 11.2074072828613 16.6
endloop
endfacet
facet normal -0.0 -0.0 1.0
outer loop
vertex 76.4999999999999 17.0 16.6
vertex 73.6764761936217 11.2074072828613 16.6
vertex 73.9999999999999 11.25 16.6
endloop
endfacet
facet normal -0.0 -0.0 1.0
outer loop
vertex 76.4999999999999 17.0 16.6
vertex 73.9999999999999 11.25 16.6
vertex 74.323523806378 11.2074072828613 16.6
endloop
endfacet
facet normal -0.0 -0.0 1.0
outer loop
vertex 76.4999999999999 17.0 16.6
vertex 74.323523806378 11.2074072828613 16.6
vertex 74.6249999999999 11.0825317547305 16.6
endloop
endfacet
facet normal -0.0 -0.0 1.0
outer loop
vertex 76.4999999999999 17.0 16.6
vertex 74.6249999999999 11.0825317547305 16.6
vertex 74.8838834764831 10.8838834764832 16.6
endloop
endfacet
facet normal -0.0 -0.0 1.0
outer loop
vertex 76.4999999999999 17.0 16.6
vertex 74.8838834764831 10.8838834764832 16.6
vertex 75.0825317547304 10.625 16.6
endloop
endfacet
facet normal -0.0 -0.0 1.0
outer loop
vertex 76.4999999999999 17.0 16.6
vertex 75.0825317547304 10.625 16.6
vertex 75.2074072828612 10.3235238063782 16.6
endloop
endfacet
facet normal -0.0 -0.0 1.0
outer loop
vertex 76.4999999999999 17.0 16.6
vertex 75.2074072828612 10.3235238063782 16.6
vertex 75.2499999999999 10.0 16.6
endloop
endfacet
facet normal -0.0 -0.0 1.0
outer loop
vertex 76.4999999999999 17.0 16.6
vertex 75.2499999999999 10.0 16.6
vertex 76.4999999999999 3.0 16.6
endloop
endfacet
facet normal -0.0 1.0 -0.0
outer loop
vertex 71.0 17.0 16.6
vertex 76.4999999999999 17.0 1.6
vertex 71.0 17.0 1.6
endloop
endfacet
facet normal -0.0 1.0 -0.0
outer loop
vertex 76.4999999999999 17.0 1.6
vertex 71.0 17.0 16.6
vertex 76.4999999999999 17.0 16.6
endloop
endfacet
facet normal -1.0 0.0 0.0
outer loop
vertex 71.0 17.0 16.6
vertex 71.0 3.0 1.6
vertex 71.0 3.0 16.6
endloop
endfacet
facet normal -1.0 0.0 0.0
outer loop
vertex 71.0 3.0 1.6
vertex 71.0 17.0 16.6
vertex 71.0 17.0 1.6
endloop
endfacet
facet normal -6.40901473306353e-017 -1.0 0.0
outer loop
vertex 76.4999999999999 3.0 16.6
vertex 71.0 3.0 1.6
vertex 76.4999999999999 3.0 1.6
endloop
endfacet
facet normal -6.40901473306353e-017 -1.0 0.0
outer loop
vertex 71.0 3.0 1.6
vertex 76.4999999999999 3.0 16.6
vertex 71.0 3.0 16.6
endloop
endfacet
facet normal 0.0 -1.0 0.0
outer loop
vertex 51.5 3.0 16.6
vertex 46.0 3.0 1.6
vertex 51.5 3.0 1.6
endloop
endfacet
facet normal 0.0 -1.0 0.0
outer loop
vertex 46.0 3.0 1.6
vertex 51.5 3.0 16.6
vertex 46.0 3.0 16.6
endloop
endfacet
facet normal 1.0 -0.0 0.0
outer loop
vertex 51.5 17.0 1.6
vertex 51.5 3.0 16.6
vertex 51.5 3.0 1.6
endloop
endfacet
facet normal 1.0 -0.0 0.0
outer loop
vertex 51.5 3.0 16.6
vertex 51.5 17.0 1.6
vertex 51.5 7.5 12.6
endloop
endfacet
facet normal 1.0 -0.0 0.0
outer loop
vertex 51.5 7.5 12.6
vertex 51.5 17.0 1.6
vertex 51.5 12.5 12.6
endloop
endfacet
facet normal 1.0 -0.0 0.0
outer loop
vertex 51.5 12.5 12.6
vertex 51.5 17.0 1.6
vertex 51.5 12.5 14.6
endloop
endfacet
facet normal 1.0 -0.0 0.0
outer loop
vertex 51.5 3.0 16.6
vertex 51.5 7.5 14.6
vertex 51.5 17.0 16.6
endloop
endfacet
facet normal 1.0 -0.0 0.0
outer loop
vertex 51.5 7.5 14.6
vertex 51.5 3.0 16.6
vertex 51.5 7.5 12.6
endloop
endfacet
facet normal 1.0 -0.0 0.0
outer loop
vertex 51.5 17.0 16.6
vertex 51.5 7.5 14.6
vertex 51.5 12.5 14.6
endloop
endfacet
facet normal 1.0 -0.0 0.0
outer loop
vertex 51.5 17.0 16.6
vertex 51.5 12.5 14.6
vertex 51.5 17.0 1.6
endloop
endfacet
facet normal 0.0 1.0 0.0
outer loop
vertex 46.0 17.0 16.6
vertex 51.5 17.0 1.6
vertex 46.0 17.0 1.6
endloop
endfacet
facet normal 0.0 1.0 0.0
outer loop
vertex 51.5 17.0 1.6
vertex 46.0 17.0 16.6
vertex 51.5 17.0 16.6
endloop
endfacet
facet normal 1.0 -0.0 -0.0
outer loop
vertex 71.4999999999999 12.5 12.6
vertex 71.4999999999999 7.5 14.6
vertex 71.4999999999999 7.5 12.6
endloop
endfacet
facet normal 1.0 -0.0 -0.0
outer loop
vertex 71.4999999999999 7.5 14.6
vertex 71.4999999999999 12.5 12.6
vertex 71.4999999999999 12.5 14.6
endloop
endfacet
facet normal 0.0 0.0 -1.0
outer loop
vertex 71.4999999999999 12.5 14.6
vertex 72.9174682452694 10.625 14.6
vertex 71.4999999999999 7.5 14.6
endloop
endfacet
facet normal 0.0 0.0 -1.0
outer loop
vertex 72.9174682452694 10.625 14.6
vertex 71.4999999999999 12.5 14.6
vertex 73.1161165235167 10.8838834764832 14.6
endloop
endfacet
facet normal 0.0 0.0 -1.0
outer loop
vertex 73.1161165235167 10.8838834764832 14.6
vertex 71.4999999999999 12.5 14.6
vertex 73.3749999999999 11.0825317547306 14.6
endloop
endfacet
facet normal 0.0 0.0 -1.0
outer loop
vertex 73.3749999999999 11.0825317547306 14.6
vertex 71.4999999999999 12.5 14.6
vertex 76.4999999999999 12.5 14.6
endloop
endfacet
facet normal 0.0 0.0 -1.0
outer loop
vertex 71.4999999999999 7.5 14.6
vertex 72.9174682452694 10.625 14.6
vertex 72.7925927171386 10.3235238063782 14.6
endloop
endfacet
facet normal 0.0 0.0 -1.0
outer loop
vertex 71.4999999999999 7.5 14.6
vertex 72.7925927171386 10.3235238063782 14.6
vertex 72.7499999999999 10.0 14.6
endloop
endfacet
facet normal 0.0 0.0 -1.0
outer loop
vertex 73.3749999999999 11.0825317547306 14.6
vertex 76.4999999999999 12.5 14.6
vertex 73.6764761936218 11.2074072828613 14.6
endloop
endfacet
facet normal 0.0 0.0 -1.0
outer loop
vertex 73.6764761936218 11.2074072828613 14.6
vertex 76.4999999999999 12.5 14.6
vertex 73.9999999999999 11.25 14.6
endloop
endfacet
facet normal 0.0 0.0 -1.0
outer loop
vertex 73.9999999999999 11.25 14.6
vertex 76.4999999999999 12.5 14.6
vertex 74.323523806378 11.2074072828613 14.6
endloop
endfacet
facet normal 0.0 0.0 -1.0
outer loop
vertex 74.323523806378 11.2074072828613 14.6
vertex 76.4999999999999 12.5 14.6
vertex 74.6249999999999 11.0825317547305 14.6
endloop
endfacet
facet normal 0.0 0.0 -1.0
outer loop
vertex 74.6249999999999 11.0825317547305 14.6
vertex 76.4999999999999 12.5 14.6
vertex 74.8838834764831 10.8838834764832 14.6
endloop
endfacet
facet normal 0.0 0.0 -1.0
outer loop
vertex 74.8838834764831 10.8838834764832 14.6
vertex 76.4999999999999 12.5 14.6
vertex 75.0825317547304 10.625 14.6
endloop
endfacet
facet normal 0.0 0.0 -1.0
outer loop
vertex 75.0825317547304 10.625 14.6
vertex 76.4999999999999 12.5 14.6
vertex 75.2074072828612 10.3235238063782 14.6
endloop
endfacet
facet normal 0.0 0.0 -1.0
outer loop
vertex 75.2074072828612 10.3235238063782 14.6
vertex 76.4999999999999 12.5 14.6
vertex 75.2499999999999 10.0 14.6
endloop
endfacet
facet normal 0.0 0.0 -1.0
outer loop
vertex 71.4999999999999 7.5 14.6
vertex 73.3749999999999 8.91746824526945 14.6
vertex 76.4999999999999 7.5 14.6
endloop
endfacet
facet normal 0.0 0.0 -1.0
outer loop
vertex 73.3749999999999 8.91746824526945 14.6
vertex 71.4999999999999 7.5 14.6
vertex 73.1161165235167 9.11611652351682 14.6
endloop
endfacet
facet normal 0.0 0.0 -1.0
outer loop
vertex 73.1161165235167 9.11611652351682 14.6
vertex 71.4999999999999 7.5 14.6
vertex 72.9174682452694 9.375 14.6
endloop
endfacet
facet normal 0.0 0.0 -1.0
outer loop
vertex 72.9174682452694 9.375 14.6
vertex 71.4999999999999 7.5 14.6
vertex 72.7925927171386 9.67647619362185 14.6
endloop
endfacet
facet normal 0.0 0.0 -1.0
outer loop
vertex 72.7925927171386 9.67647619362185 14.6
vertex 71.4999999999999 7.5 14.6
vertex 72.7499999999999 10.0 14.6
endloop
endfacet
facet normal 0.0 0.0 -1.0
outer loop
vertex 76.4999999999999 7.5 14.6
vertex 73.3749999999999 8.91746824526945 14.6
vertex 73.6764761936218 8.79259271713866 14.6
endloop
endfacet
facet normal 0.0 0.0 -1.0
outer loop
vertex 76.4999999999999 7.5 14.6
vertex 73.6764761936218 8.79259271713866 14.6
vertex 73.9999999999999 8.75 14.6
endloop
endfacet
facet normal 0.0 0.0 -1.0
outer loop
vertex 76.4999999999999 7.5 14.6
vertex 73.9999999999999 8.75 14.6
vertex 74.323523806378 8.79259271713867 14.6
endloop
endfacet
facet normal 0.0 0.0 -1.0
outer loop
vertex 76.4999999999999 7.5 14.6
vertex 74.323523806378 8.79259271713867 14.6
vertex 74.6249999999999 8.91746824526947 14.6
endloop
endfacet
facet normal 0.0 0.0 -1.0
outer loop
vertex 76.4999999999999 7.5 14.6
vertex 74.6249999999999 8.91746824526947 14.6
vertex 74.8838834764831 9.11611652351682 14.6
endloop
endfacet
facet normal 0.0 0.0 -1.0
outer loop
vertex 76.4999999999999 7.5 14.6
vertex 74.8838834764831 9.11611652351682 14.6
vertex 75.0825317547304 9.375 14.6
endloop
endfacet
facet normal 0.0 0.0 -1.0
outer loop
vertex 76.4999999999999 7.5 14.6
vertex 75.0825317547304 9.375 14.6
vertex 75.2074072828612 9.67647619362185 14.6
endloop
endfacet
facet normal 0.0 0.0 -1.0
outer loop
vertex 76.4999999999999 7.5 14.6
vertex 75.2074072828612 9.67647619362185 14.6
vertex 75.2499999999999 10.0 14.6
endloop
endfacet
facet normal 0.0 0.0 -1.0
outer loop
vertex 76.4999999999999 7.5 14.6
vertex 75.2499999999999 10.0 14.6
vertex 76.4999999999999 12.5 14.6
endloop
endfacet
facet normal -0.0 1.0 -0.0
outer loop
vertex 71.4999999999999 7.5 14.6
vertex 76.4999999999999 7.5 12.6
vertex 71.4999999999999 7.5 12.6
endloop
endfacet
facet normal -0.0 1.0 -0.0
outer loop
vertex 76.4999999999999 7.5 12.6
vertex 71.4999999999999 7.5 14.6
vertex 76.4999999999999 7.5 14.6
endloop
endfacet
facet normal -0.0 -0.0 1.0
outer loop
vertex 71.4999999999999 7.5 12.6
vertex 72.9174682452693 9.375 12.6
vertex 71.4999999999999 12.5 12.6
endloop
endfacet
facet normal -0.0 -0.0 1.0
outer loop
vertex 72.9174682452693 9.375 12.6
vertex 71.4999999999999 7.5 12.6
vertex 73.1161165235167 9.11611652351682 12.6
endloop
endfacet
facet normal -0.0 -0.0 1.0
outer loop
vertex 73.1161165235167 9.11611652351682 12.6
vertex 71.4999999999999 7.5 12.6
vertex 73.3749999999999 8.91746824526943 12.6
endloop
endfacet
facet normal -0.0 -0.0 1.0
outer loop
vertex 73.3749999999999 8.91746824526943 12.6
vertex 71.4999999999999 7.5 12.6
vertex 76.4999999999999 7.5 12.6
endloop
endfacet
facet normal -0.0 -0.0 1.0
outer loop
vertex 71.4999999999999 12.5 12.6
vertex 72.9174682452693 9.375 12.6
vertex 72.7925927171386 9.67647619362185 12.6
endloop
endfacet
facet normal -0.0 -0.0 1.0
outer loop
vertex 71.4999999999999 12.5 12.6
vertex 72.7925927171386 9.67647619362185 12.6
vertex 72.7499999999999 10.0 12.6
endloop
endfacet
facet normal -0.0 -0.0 1.0
outer loop
vertex 73.3749999999999 8.91746824526943 12.6
vertex 76.4999999999999 7.5 12.6
vertex 73.6764761936218 8.79259271713865 12.6
endloop
endfacet
facet normal -0.0 -0.0 1.0
outer loop
vertex 73.6764761936218 8.79259271713865 12.6
vertex 76.4999999999999 7.5 12.6
vertex 73.9999999999999 8.75000000000001 12.6
endloop
endfacet
facet normal -0.0 -0.0 1.0
outer loop
vertex 73.9999999999999 8.75000000000001 12.6
vertex 76.4999999999999 7.5 12.6
vertex 74.3235238063781 8.79259271713867 12.6
endloop
endfacet
facet normal -0.0 -0.0 1.0
outer loop
vertex 74.3235238063781 8.79259271713867 12.6
vertex 76.4999999999999 7.5 12.6
vertex 74.6249999999999 8.91746824526944 12.6
endloop
endfacet
facet normal -0.0 -0.0 1.0
outer loop
vertex 74.6249999999999 8.91746824526944 12.6
vertex 76.4999999999999 7.5 12.6
vertex 74.8838834764831 9.11611652351682 12.6
endloop
endfacet
facet normal -0.0 -0.0 1.0
outer loop
vertex 74.8838834764831 9.11611652351682 12.6
vertex 76.4999999999999 7.5 12.6
vertex 75.0825317547304 9.375 12.6
endloop
endfacet
facet normal -0.0 -0.0 1.0
outer loop
vertex 75.0825317547304 9.375 12.6
vertex 76.4999999999999 7.5 12.6
vertex 75.2074072828612 9.67647619362186 12.6
endloop
endfacet
facet normal -0.0 -0.0 1.0
outer loop
vertex 75.2074072828612 9.67647619362186 12.6
vertex 76.4999999999999 7.5 12.6
vertex 75.2499999999999 10.0 12.6
endloop
endfacet
facet normal -0.0 -0.0 1.0
outer loop
vertex 71.4999999999999 12.5 12.6
vertex 73.3749999999999 11.0825317547305 12.6
vertex 76.4999999999999 12.5 12.6
endloop
endfacet
facet normal -0.0 -0.0 1.0
outer loop
vertex 73.3749999999999 11.0825317547305 12.6
vertex 71.4999999999999 12.5 12.6
vertex 73.1161165235167 10.8838834764832 12.6
endloop
endfacet
facet normal -0.0 -0.0 1.0
outer loop
vertex 73.1161165235167 10.8838834764832 12.6
vertex 71.4999999999999 12.5 12.6
vertex 72.9174682452694 10.625 12.6
endloop
endfacet
facet normal -0.0 -0.0 1.0
outer loop
vertex 72.9174682452694 10.625 12.6
vertex 71.4999999999999 12.5 12.6
vertex 72.7925927171386 10.3235238063782 12.6
endloop
endfacet
facet normal -0.0 -0.0 1.0
outer loop
vertex 72.7925927171386 10.3235238063782 12.6
vertex 71.4999999999999 12.5 12.6
vertex 72.7499999999999 10.0 12.6
endloop
endfacet
facet normal -0.0 -0.0 1.0
outer loop
vertex 76.4999999999999 12.5 12.6
vertex 73.3749999999999 11.0825317547305 12.6
vertex 73.6764761936218 11.2074072828613 12.6
endloop
endfacet
facet normal -0.0 -0.0 1.0
outer loop
vertex 76.4999999999999 12.5 12.6
vertex 73.6764761936218 11.2074072828613 12.6
vertex 73.9999999999999 11.25 12.6
endloop
endfacet
facet normal -0.0 -0.0 1.0
outer loop
vertex 76.4999999999999 12.5 12.6
vertex 73.9999999999999 11.25 12.6
vertex 74.3235238063781 11.2074072828613 12.6
endloop
endfacet
facet normal -0.0 -0.0 1.0
outer loop
vertex 76.4999999999999 12.5 12.6
vertex 74.3235238063781 11.2074072828613 12.6
vertex 74.6249999999999 11.0825317547305 12.6
endloop
endfacet
facet normal -0.0 -0.0 1.0
outer loop
vertex 76.4999999999999 12.5 12.6
vertex 74.6249999999999 11.0825317547305 12.6
vertex 74.8838834764831 10.8838834764832 12.6
endloop
endfacet
facet normal -0.0 -0.0 1.0
outer loop
vertex 76.4999999999999 12.5 12.6
vertex 74.8838834764831 10.8838834764832 12.6
vertex 75.0825317547304 10.625 12.6
endloop
endfacet
facet normal -0.0 -0.0 1.0
outer loop
vertex 76.4999999999999 12.5 12.6
vertex 75.0825317547304 10.625 12.6
vertex 75.2074072828612 10.3235238063782 12.6
endloop
endfacet
facet normal -0.0 -0.0 1.0
outer loop
vertex 76.4999999999999 12.5 12.6
vertex 75.2074072828612 10.3235238063782 12.6
vertex 75.2499999999999 10.0 12.6
endloop
endfacet
facet normal -0.0 -0.0 1.0
outer loop
vertex 76.4999999999999 12.5 12.6
vertex 75.2499999999999 10.0 12.6
vertex 76.4999999999999 7.5 12.6
endloop
endfacet
facet normal 0.0 -1.0 0.0
outer loop
vertex 76.4999999999999 12.5 14.6
vertex 71.4999999999999 12.5 12.6
vertex 76.4999999999999 12.5 12.6
endloop
endfacet
facet normal 0.0 -1.0 0.0
outer loop
vertex 71.4999999999999 12.5 12.6
vertex 76.4999999999999 12.5 14.6
vertex 71.4999999999999 12.5 14.6
endloop
endfacet
facet normal 1.0 0.0 0.0
outer loop
vertex 46.5 12.5 12.6
vertex 46.5 7.5 14.6
vertex 46.5 7.5 12.6
endloop
endfacet
facet normal 1.0 0.0 0.0
outer loop
vertex 46.5 7.5 14.6
vertex 46.5 12.5 12.6
vertex 46.5 12.5 14.6
endloop
endfacet
facet normal -0.0 -0.0 -1.0
outer loop
vertex 46.5 12.5 14.6
vertex 47.9174682452694 10.625 14.6
vertex 46.5 7.5 14.6
endloop
endfacet
facet normal -0.0 -0.0 -1.0
outer loop
vertex 47.9174682452694 10.625 14.6
vertex 46.5 12.5 14.6
vertex 48.1161165235168 10.8838834764832 14.6
endloop
endfacet
facet normal -0.0 -0.0 -1.0
outer loop
vertex 48.1161165235168 10.8838834764832 14.6
vertex 46.5 12.5 14.6
vertex 48.375 11.0825317547306 14.6
endloop
endfacet
facet normal -0.0 -0.0 -1.0
outer loop
vertex 48.375 11.0825317547306 14.6
vertex 46.5 12.5 14.6
vertex 51.5 12.5 14.6
endloop
endfacet
facet normal -0.0 -0.0 -1.0
outer loop
vertex 46.5 7.5 14.6
vertex 47.9174682452694 10.625 14.6
vertex 47.7925927171387 10.3235238063782 14.6
endloop
endfacet
facet normal -0.0 -0.0 -1.0
outer loop
vertex 46.5 7.5 14.6
vertex 47.7925927171387 10.3235238063782 14.6
vertex 47.75 10.0 14.6
endloop
endfacet
facet normal -0.0 -0.0 -1.0
outer loop
vertex 48.375 11.0825317547306 14.6
vertex 51.5 12.5 14.6
vertex 48.6764761936219 11.2074072828613 14.6
endloop
endfacet
facet normal -0.0 -0.0 -1.0
outer loop
vertex 48.6764761936219 11.2074072828613 14.6
vertex 51.5 12.5 14.6
vertex 49.0 11.25 14.6
endloop
endfacet
facet normal -0.0 -0.0 -1.0
outer loop
vertex 49.0 11.25 14.6
vertex 51.5 12.5 14.6
vertex 49.3235238063782 11.2074072828613 14.6
endloop
endfacet
facet normal -0.0 -0.0 -1.0
outer loop
vertex 49.3235238063782 11.2074072828613 14.6
vertex 51.5 12.5 14.6
vertex 49.625 11.0825317547305 14.6
endloop
endfacet
facet normal -0.0 -0.0 -1.0
outer loop
vertex 49.625 11.0825317547305 14.6
vertex 51.5 12.5 14.6
vertex 49.8838834764832 10.8838834764832 14.6
endloop
endfacet
facet normal -0.0 -0.0 -1.0
outer loop
vertex 49.8838834764832 10.8838834764832 14.6
vertex 51.5 12.5 14.6
vertex 50.0825317547305 10.625 14.6
endloop
endfacet
facet normal -0.0 -0.0 -1.0
outer loop
vertex 50.0825317547305 10.625 14.6
vertex 51.5 12.5 14.6
vertex 50.2074072828613 10.3235238063782 14.6
endloop
endfacet
facet normal -0.0 -0.0 -1.0
outer loop
vertex 50.2074072828613 10.3235238063782 14.6
vertex 51.5 12.5 14.6
vertex 50.25 10.0 14.6
endloop
endfacet
facet normal -0.0 -0.0 -1.0
outer loop
vertex 46.5 7.5 14.6
vertex 48.375 8.91746824526944 14.6
vertex 51.5 7.5 14.6
endloop
endfacet
facet normal -0.0 -0.0 -1.0
outer loop
vertex 48.375 8.91746824526944 14.6
vertex 46.5 7.5 14.6
vertex 48.1161165235168 9.11611652351681 14.6
endloop
endfacet
facet normal -0.0 -0.0 -1.0
outer loop
vertex 48.1161165235168 9.11611652351681 14.6
vertex 46.5 7.5 14.6
vertex 47.9174682452694 9.375 14.6
endloop
endfacet
facet normal -0.0 -0.0 -1.0
outer loop
vertex 47.9174682452694 9.375 14.6
vertex 46.5 7.5 14.6
vertex 47.7925927171387 9.67647619362185 14.6
endloop
endfacet
facet normal -0.0 -0.0 -1.0
outer loop
vertex 47.7925927171387 9.67647619362185 14.6
vertex 46.5 7.5 14.6
vertex 47.75 10.0 14.6
endloop
endfacet
facet normal -0.0 -0.0 -1.0
outer loop
vertex 51.5 7.5 14.6
vertex 48.375 8.91746824526944 14.6
vertex 48.6764761936219 8.79259271713866 14.6
endloop
endfacet
facet normal -0.0 -0.0 -1.0
outer loop
vertex 51.5 7.5 14.6
vertex 48.6764761936219 8.79259271713866 14.6
vertex 49.0 8.74999999999999 14.6
endloop
endfacet
facet normal -0.0 -0.0 -1.0
outer loop
vertex 51.5 7.5 14.6
vertex 49.0 8.74999999999999 14.6
vertex 49.3235238063781 8.79259271713866 14.6
endloop
endfacet
facet normal -0.0 -0.0 -1.0
outer loop
vertex 51.5 7.5 14.6
vertex 49.3235238063781 8.79259271713866 14.6
vertex 49.625 8.91746824526945 14.6
endloop
endfacet
facet normal -0.0 -0.0 -1.0
outer loop
vertex 51.5 7.5 14.6
vertex 49.625 8.91746824526945 14.6
vertex 49.8838834764832 9.11611652351681 14.6
endloop
endfacet
facet normal -0.0 -0.0 -1.0
outer loop
vertex 51.5 7.5 14.6
vertex 49.8838834764832 9.11611652351681 14.6
vertex 50.0825317547305 9.375 14.6
endloop
endfacet
facet normal -0.0 -0.0 -1.0
outer loop
vertex 51.5 7.5 14.6
vertex 50.0825317547305 9.375 14.6
vertex 50.2074072828613 9.67647619362185 14.6
endloop
endfacet
facet normal -0.0 -0.0 -1.0
outer loop
vertex 51.5 7.5 14.6
vertex 50.2074072828613 9.67647619362185 14.6
vertex 50.25 10.0 14.6
endloop
endfacet
facet normal -0.0 -0.0 -1.0
outer loop
vertex 51.5 7.5 14.6
vertex 50.25 10.0 14.6
vertex 51.5 12.5 14.6
endloop
endfacet
facet normal 0.0 1.0 0.0
outer loop
vertex 46.5 7.5 14.6
vertex 51.5 7.5 12.6
vertex 46.5 7.5 12.6
endloop
endfacet
facet normal 0.0 1.0 0.0
outer loop
vertex 51.5 7.5 12.6
vertex 46.5 7.5 14.6
vertex 51.5 7.5 14.6
endloop
endfacet
facet normal -0.0 -0.0 1.0
outer loop
vertex 46.5 7.5 12.6
vertex 47.9174682452694 9.375 12.6
vertex 46.5 12.5 12.6
endloop
endfacet
facet normal -0.0 -0.0 1.0
outer loop
vertex 47.9174682452694 9.375 12.6
vertex 46.5 7.5 12.6
vertex 48.1161165235168 9.11611652351681 12.6
endloop
endfacet
facet normal -0.0 -0.0 1.0
outer loop
vertex 48.1161165235168 9.11611652351681 12.6
vertex 46.5 7.5 12.6
vertex 48.375 8.91746824526944 12.6
endloop
endfacet
facet normal -0.0 -0.0 1.0
outer loop
vertex 48.375 8.91746824526944 12.6
vertex 46.5 7.5 12.6
vertex 51.5 7.5 12.6
endloop
endfacet
facet normal -0.0 -0.0 1.0
outer loop
vertex 46.5 12.5 12.6
vertex 47.9174682452694 9.375 12.6
vertex 47.7925927171387 9.67647619362185 12.6
endloop
endfacet
facet normal -0.0 -0.0 1.0
outer loop
vertex 46.5 12.5 12.6
vertex 47.7925927171387 9.67647619362185 12.6
vertex 47.75 10.0 12.6
endloop
endfacet
facet normal -0.0 -0.0 1.0
outer loop
vertex 48.375 8.91746824526944 12.6
vertex 51.5 7.5 12.6
vertex 48.6764761936219 8.79259271713866 12.6
endloop
endfacet
facet normal -0.0 -0.0 1.0
outer loop
vertex 48.6764761936219 8.79259271713866 12.6
vertex 51.5 7.5 12.6
vertex 49.0 8.74999999999999 12.6
endloop
endfacet
facet normal -0.0 -0.0 1.0
outer loop
vertex 49.0 8.74999999999999 12.6
vertex 51.5 7.5 12.6
vertex 49.3235238063781 8.79259271713866 12.6
endloop
endfacet
facet normal -0.0 -0.0 1.0
outer loop
vertex 49.3235238063781 8.79259271713866 12.6
vertex 51.5 7.5 12.6
vertex 49.625 8.91746824526945 12.6
endloop
endfacet
facet normal -0.0 -0.0 1.0
outer loop
vertex 49.625 8.91746824526945 12.6
vertex 51.5 7.5 12.6
vertex 49.8838834764832 9.11611652351681 12.6
endloop
endfacet
facet normal -0.0 -0.0 1.0
outer loop
vertex 49.8838834764832 9.11611652351681 12.6
vertex 51.5 7.5 12.6
vertex 50.0825317547305 9.375 12.6
endloop
endfacet
facet normal -0.0 -0.0 1.0
outer loop
vertex 50.0825317547305 9.375 12.6
vertex 51.5 7.5 12.6
vertex 50.2074072828613 9.67647619362185 12.6
endloop
endfacet
facet normal -0.0 -0.0 1.0
outer loop
vertex 50.2074072828613 9.67647619362185 12.6
vertex 51.5 7.5 12.6
vertex 50.25 10.0 12.6
endloop
endfacet
facet normal -0.0 -0.0 1.0
outer loop
vertex 46.5 12.5 12.6
vertex 48.375 11.0825317547306 12.6
vertex 51.5 12.5 12.6
endloop
endfacet
facet normal -0.0 -0.0 1.0
outer loop
vertex 48.375 11.0825317547306 12.6
vertex 46.5 12.5 12.6
vertex 48.1161165235168 10.8838834764832 12.6
endloop
endfacet
facet normal -0.0 -0.0 1.0
outer loop
vertex 48.1161165235168 10.8838834764832 12.6
vertex 46.5 12.5 12.6
vertex 47.9174682452694 10.625 12.6
endloop
endfacet
facet normal -0.0 -0.0 1.0
outer loop
vertex 47.9174682452694 10.625 12.6
vertex 46.5 12.5 12.6
vertex 47.7925927171387 10.3235238063782 12.6
endloop
endfacet
facet normal -0.0 -0.0 1.0
outer loop
vertex 47.7925927171387 10.3235238063782 12.6
vertex 46.5 12.5 12.6
vertex 47.75 10.0 12.6
endloop
endfacet
facet normal -0.0 -0.0 1.0
outer loop
vertex 51.5 12.5 12.6
vertex 48.375 11.0825317547306 12.6
vertex 48.6764761936219 11.2074072828613 12.6
endloop
endfacet
facet normal -0.0 -0.0 1.0
outer loop
vertex 51.5 12.5 12.6
vertex 48.6764761936219 11.2074072828613 12.6
vertex 49.0 11.25 12.6
endloop
endfacet
facet normal -0.0 -0.0 1.0
outer loop
vertex 51.5 12.5 12.6
vertex 49.0 11.25 12.6
vertex 49.3235238063782 11.2074072828613 12.6
endloop
endfacet
facet normal -0.0 -0.0 1.0
outer loop
vertex 51.5 12.5 12.6
vertex 49.3235238063782 11.2074072828613 12.6
vertex 49.625 11.0825317547305 12.6
endloop
endfacet
facet normal -0.0 -0.0 1.0
outer loop
vertex 51.5 12.5 12.6
vertex 49.625 11.0825317547305 12.6
vertex 49.8838834764832 10.8838834764832 12.6
endloop
endfacet
facet normal -0.0 -0.0 1.0
outer loop
vertex 51.5 12.5 12.6
vertex 49.8838834764832 10.8838834764832 12.6
vertex 50.0825317547305 10.625 12.6
endloop
endfacet
facet normal -0.0 -0.0 1.0
outer loop
vertex 51.5 12.5 12.6
vertex 50.0825317547305 10.625 12.6
vertex 50.2074072828613 10.3235238063782 12.6
endloop
endfacet
facet normal -0.0 -0.0 1.0
outer loop
vertex 51.5 12.5 12.6
vertex 50.2074072828613 10.3235238063782 12.6
vertex 50.25 10.0 12.6
endloop
endfacet
facet normal -0.0 -0.0 1.0
outer loop
vertex 51.5 12.5 12.6
vertex 50.25 10.0 12.6
vertex 51.5 7.5 12.6
endloop
endfacet
facet normal -0.0 -1.0 0.0
outer loop
vertex 51.5 12.5 14.6
vertex 46.5 12.5 12.6
vertex 51.5 12.5 12.6
endloop
endfacet
facet normal -0.0 -1.0 0.0
outer loop
vertex 46.5 12.5 12.6
vertex 51.5 12.5 14.6
vertex 46.5 12.5 14.6
endloop
endfacet
facet normal -0.499999999999995 -0.866025403784442 -3.5467648378854e-016
outer loop
vertex 74.6249999999999 11.0825317547305 12.6
vertex 74.3235238063781 11.2074072828613 0.0
vertex 74.6249999999999 11.0825317547305 0.0
endloop
endfacet
facet normal -0.258819045102533 -0.965925826289065 -1.34250573692381e-017
outer loop
vertex 74.3235238063781 11.2074072828613 0.0
vertex 74.6249999999999 11.0825317547305 12.6
vertex 74.3235238063781 11.2074072828613 12.6
endloop
endfacet
facet normal 0.499999999999986 -0.866025403784447 -3.31068505948315e-016
outer loop
vertex 73.3749999999999 11.0825317547305 12.6
vertex 73.1161165235167 10.8838834764832 0.0
vertex 73.3749999999999 11.0825317547306 0.0
endloop
endfacet
facet normal 0.707106781186538 -0.707106781186557 -1.12262790952528e-016
outer loop
vertex 73.1161165235167 10.8838834764832 0.0
vertex 73.3749999999999 11.0825317547305 12.6
vertex 73.1161165235167 10.8838834764832 12.6
endloop
endfacet
facet normal 0.866025403784441 0.499999999999996 4.15614689421462e-016
outer loop
vertex 72.9174682452694 9.375 0.0
vertex 72.7925927171386 9.67647619362185 12.6
vertex 72.9174682452693 9.375 12.6
endloop
endfacet
facet normal 0.965925826289067 0.258819045102527 -8.84779604662945e-019
outer loop
vertex 72.7925927171386 9.67647619362185 12.6
vertex 72.9174682452694 9.375 0.0
vertex 72.7925927171386 9.67647619362185 0.0
endloop
endfacet
facet normal 0.866025403784441 0.499999999999996 4.15614689421462e-016
outer loop
vertex 72.9174682452694 9.375 0.0
vertex 73.1161165235167 9.11611652351682 12.6
vertex 73.1161165235167 9.11611652351682 0.0
endloop
endfacet
facet normal 0.707106781186538 0.707106781186557 1.90314976614724e-016
outer loop
vertex 73.1161165235167 9.11611652351682 12.6
vertex 72.9174682452694 9.375 0.0
vertex 72.9174682452693 9.375 12.6
endloop
endfacet
facet normal 0.707106781186538 0.707106781186557 1.90314976614724e-016
outer loop
vertex 73.1161165235167 9.11611652351682 12.6
vertex 73.3749999999999 8.91746824526945 0.0
vertex 73.1161165235167 9.11611652351682 0.0
endloop
endfacet
facet normal 0.499999999999988 0.866025403784446 1.78013607076259e-016
outer loop
vertex 73.3749999999999 8.91746824526945 0.0
vertex 73.1161165235167 9.11611652351682 12.6
vertex 73.3749999999999 8.91746824526943 12.6
endloop
endfacet
facet normal 0.965925826289067 0.258819045102527 1.38559104522695e-016
outer loop
vertex 72.7925927171386 9.67647619362185 14.6
vertex 72.9174682452694 9.375 16.6
vertex 72.9174682452694 9.375 14.6
endloop
endfacet
facet normal 0.866025403784441 0.499999999999996 2.85772315711181e-016
outer loop
vertex 72.9174682452694 9.375 16.6
vertex 72.7925927171386 9.67647619362185 14.6
vertex 72.7925927171386 9.67647619362185 16.6
endloop
endfacet
facet normal -0.965925826289067 -0.258819045102526 -7.51825703363581e-016
outer loop
vertex 75.2074072828612 10.3235238063782 16.6
vertex 75.2499999999999 10.0 14.6
vertex 75.2499999999999 10.0 16.6
endloop
endfacet
facet normal -1.0 8.91110989564691e-017 2.21610354136915e-031
outer loop
vertex 75.2499999999999 10.0 14.6
vertex 75.2074072828612 10.3235238063782 16.6
vertex 75.2074072828612 10.3235238063782 14.6
endloop
endfacet
facet normal -0.499999999999993 -0.866025403784442 -5.95942307058697e-015
outer loop
vertex 74.6249999999999 11.0825317547305 16.6
vertex 74.323523806378 11.2074072828613 14.6
vertex 74.6249999999999 11.0825317547305 14.6
endloop
endfacet
facet normal -0.258819045102515 -0.96592582628907 -2.36158223459281e-015
outer loop
vertex 74.323523806378 11.2074072828613 14.6
vertex 74.6249999999999 11.0825317547305 16.6
vertex 74.323523806378 11.2074072828613 16.6
endloop
endfacet
facet normal 0.499999999999993 -0.866025403784443 -4.18274217369565e-016
outer loop
vertex 73.3749999999999 11.0825317547305 16.6
vertex 73.1161165235167 10.8838834764832 14.6
vertex 73.3749999999999 11.0825317547306 14.6
endloop
endfacet
facet normal 0.707106781186553 -0.707106781186542 -1.55149162770896e-015
outer loop
vertex 73.1161165235167 10.8838834764832 14.6
vertex 73.3749999999999 11.0825317547305 16.6
vertex 73.1161165235167 10.8838834764832 16.6
endloop
endfacet
facet normal 0.707106781186552 0.707106781186543 -3.47542919215959e-016
outer loop
vertex 73.1161165235167 9.11611652351682 14.6
vertex 72.9174682452694 9.375 16.6
vertex 73.1161165235167 9.11611652351682 16.6
endloop
endfacet
facet normal 0.866025403784441 0.499999999999996 2.85772315711181e-016
outer loop
vertex 72.9174682452694 9.375 16.6
vertex 73.1161165235167 9.11611652351682 14.6
vertex 72.9174682452694 9.375 14.6
endloop
endfacet
facet normal 0.707106781186552 0.707106781186543 -3.4754291921596e-016
outer loop
vertex 73.1161165235167 9.11611652351682 16.6
vertex 73.3749999999999 8.91746824526945 14.6
vertex 73.1161165235167 9.11611652351682 14.6
endloop
endfacet
facet normal 0.499999999999997 0.86602540378444 -2.31944089385121e-015
outer loop
vertex 73.3749999999999 8.91746824526945 14.6
vertex 73.1161165235167 9.11611652351682 16.6
vertex 73.3749999999999 8.91746824526945 16.6
endloop
endfacet
facet normal -0.70710678118656 -0.707106781186534 -6.73369900024475e-015
outer loop
vertex 74.8838834764831 10.8838834764832 16.6
vertex 75.0825317547304 10.625 14.6
vertex 75.0825317547304 10.625 16.6
endloop
endfacet
facet normal -0.866025403784446 -0.499999999999986 -3.56361732298007e-015
outer loop
vertex 75.0825317547304 10.625 14.6
vertex 74.8838834764831 10.8838834764832 16.6
vertex 74.8838834764831 10.8838834764832 14.6
endloop
endfacet
facet normal -0.70710678118656 -0.707106781186535 -1.91517621934979e-016
outer loop
vertex 74.8838834764831 10.8838834764832 12.6
vertex 75.0825317547304 10.625 0.0
vertex 75.0825317547304 10.625 12.6
endloop
endfacet
facet normal -0.866025403784451 -0.499999999999978 -2.53090629974102e-017
outer loop
vertex 75.0825317547304 10.625 0.0
vertex 74.8838834764831 10.8838834764832 12.6
vertex 74.8838834764831 10.8838834764832 0.0
endloop
endfacet
facet normal -1.05151096768633e-015 -1.0 -1.76510383728943e-016
outer loop
vertex 73.9999999999999 11.25 16.6
vertex 73.6764761936218 11.2074072828613 14.6
vertex 73.9999999999999 11.25 14.6
endloop
endfacet
facet normal 0.258819045102517 -0.965925826289069 2.75792079662928e-016
outer loop
vertex 73.6764761936218 11.2074072828613 14.6
vertex 73.9999999999999 11.25 16.6
vertex 73.6764761936217 11.2074072828613 16.6
endloop
endfacet
facet normal -9.88242087427242e-015 -1.0 2.79775925760025e-017
outer loop
vertex 73.9999999999999 11.25 12.6
vertex 73.6764761936218 11.2074072828613 0.0
vertex 73.9999999999999 11.25 0.0
endloop
endfacet
facet normal 0.258819045102526 -0.965925826289067 -3.85176720541502e-016
outer loop
vertex 73.6764761936218 11.2074072828613 0.0
vertex 73.9999999999999 11.25 12.6
vertex 73.6764761936218 11.2074072828613 12.6
endloop
endfacet
facet normal 1.0 -6.95066571860459e-016 1.15110998726982e-018
outer loop
vertex 72.7499999999999 10.0 14.6
vertex 72.7925927171386 10.3235238063782 16.6
vertex 72.7499999999999 10.0 16.6
endloop
endfacet
facet normal 0.965925826289067 -0.258819045102527 -2.04905668904994e-016
outer loop
vertex 72.7925927171386 10.3235238063782 16.6
vertex 72.7499999999999 10.0 14.6
vertex 72.7925927171386 10.3235238063782 14.6
endloop
endfacet
facet normal -0.70710678118656 -0.707106781186535 -1.91517621934979e-016
outer loop
vertex 74.8838834764831 10.8838834764832 12.6
vertex 74.6249999999999 11.0825317547305 0.0
vertex 74.8838834764831 10.8838834764832 0.0
endloop
endfacet
facet normal -0.499999999999994 -0.866025403784442 -3.5467648378854e-016
outer loop
vertex 74.6249999999999 11.0825317547305 0.0
vertex 74.8838834764831 10.8838834764832 12.6
vertex 74.6249999999999 11.0825317547305 12.6
endloop
endfacet
facet normal -0.70710678118656 -0.707106781186534 -6.73369900024475e-015
outer loop
vertex 74.8838834764831 10.8838834764832 16.6
vertex 74.6249999999999 11.0825317547305 14.6
vertex 74.8838834764831 10.8838834764832 14.6
endloop
endfacet
facet normal -0.499999999999996 -0.866025403784441 -5.959423070587e-015
outer loop
vertex 74.6249999999999 11.0825317547305 14.6
vertex 74.8838834764831 10.8838834764832 16.6
vertex 74.6249999999999 11.0825317547305 16.6
endloop
endfacet
facet normal 0.965925826289067 0.258819045102527 1.38559104522695e-016
outer loop
vertex 72.7925927171386 9.67647619362185 14.6
vertex 72.7499999999999 10.0 16.6
vertex 72.7925927171386 9.67647619362185 16.6
endloop
endfacet
facet normal 1.0 -4.54466604677992e-016 1.15110998727007e-018
outer loop
vertex 72.7499999999999 10.0 16.6
vertex 72.7925927171386 9.67647619362185 14.6
vertex 72.7499999999999 10.0 14.6
endloop
endfacet
facet normal 1.0 8.40317663159505e-015 -6.67694825364396e-016
outer loop
vertex 72.7499999999999 10.0 0.0
vertex 72.7925927171386 9.67647619362185 12.6
vertex 72.7925927171386 9.67647619362185 0.0
endloop
endfacet
facet normal 0.965925826289067 0.258819045102527 -8.84779604662945e-019
outer loop
vertex 72.7925927171386 9.67647619362185 12.6
vertex 72.7499999999999 10.0 0.0
vertex 72.7499999999999 10.0 12.6
endloop
endfacet
facet normal 0.866025403784439 -0.499999999999999 -2.70934407119033e-016
outer loop
vertex 72.9174682452694 10.625 0.0
vertex 72.7925927171386 10.3235238063782 12.6
vertex 72.7925927171386 10.3235238063782 0.0
endloop
endfacet
facet normal 0.965925826289065 -0.258819045102533 -6.66980107927454e-016
outer loop
vertex 72.7925927171386 10.3235238063782 12.6
vertex 72.9174682452694 10.625 0.0
vertex 72.9174682452694 10.625 12.6
endloop
endfacet
facet normal 0.965925826289067 -0.258819045102527 -2.04905668904994e-016
outer loop
vertex 72.7925927171386 10.3235238063782 14.6
vertex 72.9174682452694 10.625 16.6
vertex 72.7925927171386 10.3235238063782 16.6
endloop
endfacet
facet normal 0.866025403784444 -0.499999999999991 -1.00153625279059e-015
outer loop
vertex 72.9174682452694 10.625 16.6
vertex 72.7925927171386 10.3235238063782 14.6
vertex 72.9174682452694 10.625 14.6
endloop
endfacet
facet normal -0.258819045102514 -0.96592582628907 -2.36158223459279e-015
outer loop
vertex 74.323523806378 11.2074072828613 16.6
vertex 73.9999999999999 11.25 14.6
vertex 74.323523806378 11.2074072828613 14.6
endloop
endfacet
facet normal -1.05151096768633e-015 -1.0 -1.76510383728943e-016
outer loop
vertex 73.9999999999999 11.25 14.6
vertex 74.323523806378 11.2074072828613 16.6
vertex 73.9999999999999 11.25 16.6
endloop
endfacet
facet normal -0.258819045102533 -0.965925826289065 -1.34250573692385e-017
outer loop
vertex 74.3235238063781 11.2074072828613 12.6
vertex 73.9999999999999 11.25 0.0
vertex 74.3235238063781 11.2074072828613 0.0
endloop
endfacet
facet normal -9.59726535761172e-015 -1.0 2.79775925760019e-017
outer loop
vertex 73.9999999999999 11.25 0.0
vertex 74.3235238063781 11.2074072828613 12.6
vertex 73.9999999999999 11.25 12.6
endloop
endfacet
facet normal -0.866025403784447 -0.499999999999986 -3.56361732298006e-015
outer loop
vertex 75.0825317547304 10.625 16.6
vertex 75.2074072828612 10.3235238063782 14.6
vertex 75.2074072828612 10.3235238063782 16.6
endloop
endfacet
facet normal -0.965925826289067 -0.258819045102527 -7.51825703363582e-016
outer loop
vertex 75.2074072828612 10.3235238063782 14.6
vertex 75.0825317547304 10.625 16.6
vertex 75.0825317547304 10.625 14.6
endloop
endfacet
facet normal -1.0 4.45555494782345e-016 9.65587971596558e-031
outer loop
vertex 75.2499999999999 10.0 16.6
vertex 75.2074072828612 9.67647619362185 14.6
vertex 75.2074072828612 9.67647619362185 16.6
endloop
endfacet
facet normal -0.965925826289067 0.258819045102527 4.79303843096447e-016
outer loop
vertex 75.2074072828612 9.67647619362185 14.6
vertex 75.2499999999999 10.0 16.6
vertex 75.2499999999999 10.0 14.6
endloop
endfacet
facet normal -0.965925826289067 0.258819045102525 4.2535165248829e-016
outer loop
vertex 75.2074072828612 9.67647619362186 12.6
vertex 75.2499999999999 10.0 0.0
vertex 75.2074072828612 9.67647619362186 0.0
endloop
endfacet
facet normal -1.0 9.2675542914728e-015 2.20166423188043e-016
outer loop
vertex 75.2499999999999 10.0 0.0
vertex 75.2074072828612 9.67647619362186 12.6
vertex 75.2499999999999 10.0 12.6
endloop
endfacet
facet normal 0.258819045102518 -0.965925826289069 2.7579207966293e-016
outer loop
vertex 73.6764761936217 11.2074072828613 16.6
vertex 73.3749999999999 11.0825317547306 14.6
vertex 73.6764761936218 11.2074072828613 14.6
endloop
endfacet
facet normal 0.499999999999992 -0.866025403784443 -4.18274217369558e-016
outer loop
vertex 73.3749999999999 11.0825317547306 14.6
vertex 73.6764761936217 11.2074072828613 16.6
vertex 73.3749999999999 11.0825317547305 16.6
endloop
endfacet
facet normal 0.258819045102526 -0.965925826289067 -3.85176720541503e-016
outer loop
vertex 73.6764761936218 11.2074072828613 12.6
vertex 73.3749999999999 11.0825317547306 0.0
vertex 73.6764761936218 11.2074072828613 0.0
endloop
endfacet
facet normal 0.499999999999986 -0.866025403784447 -3.31068505948316e-016
outer loop
vertex 73.3749999999999 11.0825317547306 0.0
vertex 73.6764761936218 11.2074072828613 12.6
vertex 73.3749999999999 11.0825317547305 12.6
endloop
endfacet
facet normal -0.866025403784446 0.499999999999987 1.97818589422024e-016
outer loop
vertex 75.0825317547304 9.375 12.6
vertex 74.8838834764831 9.11611652351682 0.0
vertex 74.8838834764831 9.11611652351682 12.6
endloop
endfacet
facet normal -0.707106781186566 0.707106781186529 8.33440161992038e-017
outer loop
vertex 74.8838834764831 9.11611652351682 0.0
vertex 75.0825317547304 9.375 12.6
vertex 75.0825317547304 9.375 0.0
endloop
endfacet
facet normal -0.866025403784441 0.499999999999995 7.73539209285311e-016
outer loop
vertex 75.0825317547304 9.375 16.6
vertex 74.8838834764831 9.11611652351682 14.6
vertex 74.8838834764831 9.11611652351682 16.6
endloop
endfacet
facet normal -0.707106781186556 0.707106781186539 9.58522376888015e-016
outer loop
vertex 74.8838834764831 9.11611652351682 14.6
vertex 75.0825317547304 9.375 16.6
vertex 75.0825317547304 9.375 14.6
endloop
endfacet
facet normal -0.965925826289067 0.258819045102527 4.79303843096447e-016
outer loop
vertex 75.2074072828612 9.67647619362185 16.6
vertex 75.0825317547304 9.375 14.6
vertex 75.0825317547304 9.375 16.6
endloop
endfacet
facet normal -0.866025403784441 0.499999999999995 7.73539209285311e-016
outer loop
vertex 75.0825317547304 9.375 14.6
vertex 75.2074072828612 9.67647619362185 16.6
vertex 75.2074072828612 9.67647619362185 14.6
endloop
endfacet
facet normal -0.965925826289067 0.258819045102525 4.2535165248829e-016
outer loop
vertex 75.2074072828612 9.67647619362186 12.6
vertex 75.0825317547304 9.375 0.0
vertex 75.0825317547304 9.375 12.6
endloop
endfacet
facet normal -0.866025403784447 0.499999999999987 1.97818589422025e-016
outer loop
vertex 75.0825317547304 9.375 0.0
vertex 75.2074072828612 9.67647619362186 12.6
vertex 75.2074072828612 9.67647619362186 0.0
endloop
endfacet
facet normal 0.258819045102502 0.965925826289073 2.10520301938718e-016
outer loop
vertex 73.6764761936218 8.79259271713865 12.6
vertex 73.9999999999999 8.75 0.0
vertex 73.6764761936218 8.79259271713866 0.0
endloop
endfacet
facet normal -1.83390641652413e-014 1.0 -1.92755066155872e-016
outer loop
vertex 73.9999999999999 8.75 0.0
vertex 73.6764761936218 8.79259271713865 12.6
vertex 73.9999999999999 8.75000000000001 12.6
endloop
endfacet
facet normal 0.258819045102513 0.96592582628907 -2.80249606205291e-015
outer loop
vertex 73.6764761936218 8.79259271713867 16.6
vertex 73.9999999999999 8.75 14.6
vertex 73.6764761936218 8.79259271713866 14.6
endloop
endfacet
facet normal -8.48337662065585e-015 1.0 -7.05495063139529e-016
outer loop
vertex 73.9999999999999 8.75 14.6
vertex 73.6764761936218 8.79259271713867 16.6
vertex 73.9999999999999 8.75 16.6
endloop
endfacet
facet normal 0.499999999999988 0.866025403784446 1.78013607076259e-016
outer loop
vertex 73.3749999999999 8.91746824526943 12.6
vertex 73.6764761936218 8.79259271713866 0.0
vertex 73.3749999999999 8.91746824526945 0.0
endloop
endfacet
facet normal 0.258819045102502 0.965925826289073 2.10520301938718e-016
outer loop
vertex 73.6764761936218 8.79259271713866 0.0
vertex 73.3749999999999 8.91746824526943 12.6
vertex 73.6764761936218 8.79259271713865 12.6
endloop
endfacet
facet normal 0.499999999999998 0.86602540378444 -2.3194408938512e-015
outer loop
vertex 73.3749999999999 8.91746824526945 16.6
vertex 73.6764761936218 8.79259271713866 14.6
vertex 73.3749999999999 8.91746824526945 14.6
endloop
endfacet
facet normal 0.258819045102512 0.965925826289071 -2.8024960620529e-015
outer loop
vertex 73.6764761936218 8.79259271713866 14.6
vertex 73.3749999999999 8.91746824526945 16.6
vertex 73.6764761936218 8.79259271713867 16.6
endloop
endfacet
facet normal -0.500000000000003 0.866025403784437 1.52003274280338e-015
outer loop
vertex 74.6249999999999 8.91746824526945 16.6
vertex 74.8838834764831 9.11611652351682 14.6
vertex 74.6249999999999 8.91746824526947 14.6
endloop
endfacet
facet normal -0.707106781186556 0.707106781186539 9.58522376888015e-016
outer loop
vertex 74.8838834764831 9.11611652351682 14.6
vertex 74.6249999999999 8.91746824526945 16.6
vertex 74.8838834764831 9.11611652351682 16.6
endloop
endfacet
facet normal -0.500000000000007 0.866025403784434 3.78438165559227e-016
outer loop
vertex 74.6249999999999 8.91746824526944 12.6
vertex 74.8838834764831 9.11611652351682 0.0
vertex 74.6249999999999 8.91746824526946 0.0
endloop
endfacet
facet normal -0.707106781186566 0.707106781186529 8.33440161992038e-017
outer loop
vertex 74.8838834764831 9.11611652351682 0.0
vertex 74.6249999999999 8.91746824526944 12.6
vertex 74.8838834764831 9.11611652351682 12.6
endloop
endfacet
facet normal -0.258819045102524 0.965925826289067 1.33756398525408e-015
outer loop
vertex 74.323523806378 8.79259271713867 16.6
vertex 74.6249999999999 8.91746824526947 14.6
vertex 74.323523806378 8.79259271713867 14.6
endloop
endfacet
facet normal -0.500000000000005 0.866025403784436 1.52003274280337e-015
outer loop
vertex 74.6249999999999 8.91746824526947 14.6
vertex 74.323523806378 8.79259271713867 16.6
vertex 74.6249999999999 8.91746824526945 16.6
endloop
endfacet
facet normal -0.258819045102511 0.965925826289071 7.58504575650515e-017
outer loop
vertex 74.3235238063781 8.79259271713867 12.6
vertex 74.6249999999999 8.91746824526946 0.0
vertex 74.323523806378 8.79259271713866 0.0
endloop
endfacet
facet normal -0.500000000000007 0.866025403784434 3.78438165559227e-016
outer loop
vertex 74.6249999999999 8.91746824526946 0.0
vertex 74.3235238063781 8.79259271713867 12.6
vertex 74.6249999999999 8.91746824526944 12.6
endloop
endfacet
facet normal 0.866025403784439 -0.499999999999999 -2.70934407119033e-016
outer loop
vertex 72.9174682452694 10.625 0.0
vertex 73.1161165235167 10.8838834764832 12.6
vertex 72.9174682452694 10.625 12.6
endloop
endfacet
facet normal 0.707106781186538 -0.707106781186557 -1.12262790952528e-016
outer loop
vertex 73.1161165235167 10.8838834764832 12.6
vertex 72.9174682452694 10.625 0.0
vertex 73.1161165235167 10.8838834764832 0.0
endloop
endfacet
facet normal 0.866025403784444 -0.499999999999991 -1.00153625279059e-015
outer loop
vertex 72.9174682452694 10.625 14.6
vertex 73.1161165235167 10.8838834764832 16.6
vertex 72.9174682452694 10.625 16.6
endloop
endfacet
facet normal 0.707106781186553 -0.707106781186542 -1.55149162770896e-015
outer loop
vertex 73.1161165235167 10.8838834764832 16.6
vertex 72.9174682452694 10.625 14.6
vertex 73.1161165235167 10.8838834764832 14.6
endloop
endfacet
facet normal -8.48337662065585e-015 1.0 -7.05495063139529e-016
outer loop
vertex 73.9999999999999 8.75 16.6
vertex 74.323523806378 8.79259271713867 14.6
vertex 73.9999999999999 8.75 14.6
endloop
endfacet
facet normal -0.258819045102525 0.965925826289067 1.33756398525409e-015
outer loop
vertex 74.323523806378 8.79259271713867 14.6
vertex 73.9999999999999 8.75 16.6
vertex 74.323523806378 8.79259271713867 16.6
endloop
endfacet
facet normal -0.866025403784451 -0.499999999999978 -2.53090629974101e-017
outer loop
vertex 75.0825317547304 10.625 12.6
vertex 75.2074072828612 10.3235238063782 0.0
vertex 75.2074072828612 10.3235238063782 12.6
endloop
endfacet
facet normal -0.965925826289066 -0.258819045102527 -3.95436106061784e-017
outer loop
vertex 75.2074072828612 10.3235238063782 0.0
vertex 75.0825317547304 10.625 12.6
vertex 75.0825317547304 10.625 0.0
endloop
endfacet
facet normal -0.965925826289067 -0.258819045102528 -3.95436106061784e-017
outer loop
vertex 75.2074072828612 10.3235238063782 12.6
vertex 75.2499999999999 10.0 0.0
vertex 75.2499999999999 10.0 12.6
endloop
endfacet
facet normal -1.0 9.2675542914728e-015 2.20166423188043e-016
outer loop
vertex 75.2499999999999 10.0 0.0
vertex 75.2074072828612 10.3235238063782 12.6
vertex 75.2074072828612 10.3235238063782 0.0
endloop
endfacet
facet normal 1.0 8.40317663159505e-015 -6.67694825364396e-016
outer loop
vertex 72.7499999999999 10.0 0.0
vertex 72.7925927171386 10.3235238063782 12.6
vertex 72.7499999999999 10.0 12.6
endloop
endfacet
facet normal 0.965925826289065 -0.258819045102533 -6.66980107927454e-016
outer loop
vertex 72.7925927171386 10.3235238063782 12.6
vertex 72.7499999999999 10.0 0.0
vertex 72.7925927171386 10.3235238063782 0.0
endloop
endfacet
facet normal -1.83390641652413e-014 1.0 -1.92755066155872e-016
outer loop
vertex 73.9999999999999 8.75000000000001 12.6
vertex 74.323523806378 8.79259271713866 0.0
vertex 73.9999999999999 8.75 0.0
endloop
endfacet
facet normal -0.258819045102511 0.965925826289071 7.58504575650491e-017
outer loop
vertex 74.323523806378 8.79259271713866 0.0
vertex 73.9999999999999 8.75000000000001 12.6
vertex 74.3235238063781 8.79259271713867 12.6
endloop
endfacet
facet normal -1.0 4.0099994530411e-016 1.41061204445301e-015
outer loop
vertex 50.25 10.0 16.6
vertex 50.2074072828613 9.67647619362185 14.6
vertex 50.2074072828613 9.67647619362185 16.6
endloop
endfacet
facet normal -0.96592582628907 0.258819045102513 9.34076037150582e-016
outer loop
vertex 50.2074072828613 9.67647619362185 14.6
vertex 50.25 10.0 16.6
vertex 50.25 10.0 14.6
endloop
endfacet
facet normal -0.96592582628907 -0.258819045102515 3.39733293903468e-016
outer loop
vertex 50.2074072828613 10.3235238063782 16.6
vertex 50.25 10.0 14.6
vertex 50.25 10.0 16.6
endloop
endfacet
facet normal -1.0 5.34666593738812e-016 1.41061204445301e-015
outer loop
vertex 50.25 10.0 14.6
vertex 50.2074072828613 10.3235238063782 16.6
vertex 50.2074072828613 10.3235238063782 14.6
endloop
endfacet
facet normal -0.866025403784439 -0.499999999999999 -7.04699368740373e-016
outer loop
vertex 50.0825317547305 10.625 16.6
vertex 50.2074072828613 10.3235238063782 14.6
vertex 50.2074072828613 10.3235238063782 16.6
endloop
endfacet
facet normal -0.96592582628907 -0.258819045102515 3.39733293903467e-016
outer loop
vertex 50.2074072828613 10.3235238063782 14.6
vertex 50.0825317547305 10.625 16.6
vertex 50.0825317547305 10.625 14.6
endloop
endfacet
facet normal 0.499999999999998 -0.86602540378444 -7.84402680576177e-017
outer loop
vertex 48.375 11.0825317547306 16.6
vertex 48.1161165235168 10.8838834764832 14.6
vertex 48.375 11.0825317547306 14.6
endloop
endfacet
facet normal 0.707106781186546 -0.707106781186549 -4.52967898778453e-016
outer loop
vertex 48.1161165235168 10.8838834764832 14.6
vertex 48.375 11.0825317547306 16.6
vertex 48.1161165235168 10.8838834764832 16.6
endloop
endfacet
facet normal -1.0 8.27842109305596e-015 7.28148306449862e-031
outer loop
vertex 50.25 10.0 12.6
vertex 50.2074072828613 9.67647619362185 0.0
vertex 50.2074072828613 9.67647619362185 12.6
endloop
endfacet
facet normal -0.965925826289072 0.258819045102509 2.45158768991508e-016
outer loop
vertex 50.2074072828613 9.67647619362185 0.0
vertex 50.25 10.0 12.6
vertex 50.25 10.0 0.0
endloop
endfacet
facet normal -0.866025403784436 -0.500000000000005 -3.17766597613098e-017
outer loop
vertex 50.0825317547305 10.625 12.6
vertex 50.2074072828613 10.3235238063782 0.0
vertex 50.2074072828613 10.3235238063782 12.6
endloop
endfacet
facet normal -0.965925826289071 -0.258819045102511 -2.23560873690588e-016
outer loop
vertex 50.2074072828613 10.3235238063782 0.0
vertex 50.0825317547305 10.625 12.6
vertex 50.0825317547305 10.625 0.0
endloop
endfacet
facet normal 0.499999999999997 -0.86602540378444 4.36152195504617e-017
outer loop
vertex 48.375 11.0825317547306 12.6
vertex 48.1161165235168 10.8838834764832 0.0
vertex 48.375 11.0825317547306 0.0
endloop
endfacet
facet normal 0.707106781186541 -0.707106781186554 2.61148534677932e-016
outer loop
vertex 48.1161165235168 10.8838834764832 0.0
vertex 48.375 11.0825317547306 12.6
vertex 48.1161165235168 10.8838834764832 12.6
endloop
endfacet
facet normal -0.707106781186548 -0.707106781186547 2.61802699829295e-017
outer loop
vertex 49.8838834764832 10.8838834764832 12.6
vertex 50.0825317547305 10.625 0.0
vertex 50.0825317547305 10.625 12.6
endloop
endfacet
facet normal -0.866025403784436 -0.500000000000005 -3.17766597613098e-017
outer loop
vertex 50.0825317547305 10.625 0.0
vertex 49.8838834764832 10.8838834764832 12.6
vertex 49.8838834764832 10.8838834764832 0.0
endloop
endfacet
facet normal -0.707106781186545 -0.70710678118655 -1.16487919098661e-015
outer loop
vertex 49.8838834764832 10.8838834764832 16.6
vertex 50.0825317547305 10.625 14.6
vertex 50.0825317547305 10.625 16.6
endloop
endfacet
facet normal -0.866025403784439 -0.499999999999999 -7.04699368740373e-016
outer loop
vertex 50.0825317547305 10.625 14.6
vertex 49.8838834764832 10.8838834764832 16.6
vertex 49.8838834764832 10.8838834764832 14.6
endloop
endfacet
facet normal -0.965925826289071 -0.258819045102511 -2.23560873690588e-016
outer loop
vertex 50.2074072828613 10.3235238063782 12.6
vertex 50.25 10.0 0.0
vertex 50.25 10.0 12.6
endloop
endfacet
facet normal -1.0 8.24277665347337e-015 6.64831062410743e-031
outer loop
vertex 50.25 10.0 0.0
vertex 50.2074072828613 10.3235238063782 12.6
vertex 50.2074072828613 10.3235238063782 0.0
endloop
endfacet
facet normal -5.42686592644897e-015 -1.0 4.35395771833e-016
outer loop
vertex 49.0 11.25 16.6
vertex 48.6764761936219 11.2074072828613 14.6
vertex 49.0 11.25 14.6
endloop
endfacet
facet normal 0.258819045102517 -0.965925826289069 1.52200958328027e-016
outer loop
vertex 48.6764761936219 11.2074072828613 14.6
vertex 49.0 11.25 16.6
vertex 48.6764761936218 11.2074072828613 16.6
endloop
endfacet
facet normal -5.43577703634461e-015 -1.0 -8.39327777279773e-017
outer loop
vertex 49.0 11.25 12.6
vertex 48.6764761936218 11.2074072828613 0.0
vertex 49.0 11.25 0.0
endloop
endfacet
facet normal 0.258819045102516 -0.96592582628907 -6.83641784475463e-017
outer loop
vertex 48.6764761936218 11.2074072828613 0.0
vertex 49.0 11.25 12.6
vertex 48.6764761936219 11.2074072828613 12.6
endloop
endfacet
facet normal 0.866025403784434 -0.500000000000007 2.87957079973681e-017
outer loop
vertex 47.9174682452694 10.625 0.0
vertex 48.1161165235168 10.8838834764832 12.6
vertex 47.9174682452694 10.625 12.6
endloop
endfacet
facet normal 0.707106781186542 -0.707106781186553 2.61148534677933e-016
outer loop
vertex 48.1161165235168 10.8838834764832 12.6
vertex 47.9174682452694 10.625 0.0
vertex 48.1161165235168 10.8838834764832 0.0
endloop
endfacet
facet normal 0.86602540378444 -0.499999999999997 -4.59101948482204e-016
outer loop
vertex 47.9174682452694 10.625 14.6
vertex 48.1161165235168 10.8838834764832 16.6
vertex 47.9174682452694 10.625 16.6
endloop
endfacet
facet normal 0.707106781186546 -0.707106781186549 -4.52967898778453e-016
outer loop
vertex 48.1161165235168 10.8838834764832 16.6
vertex 47.9174682452694 10.625 14.6
vertex 48.1161165235168 10.8838834764832 14.6
endloop
endfacet
facet normal 0.965925826289067 -0.258819045102526 -2.63178389360644e-016
outer loop
vertex 47.7925927171387 10.3235238063782 0.0
vertex 47.9174682452694 10.625 12.6
vertex 47.7925927171387 10.3235238063782 12.6
endloop
endfacet
facet normal 0.866025403784435 -0.500000000000007 2.87957079973676e-017
outer loop
vertex 47.9174682452694 10.625 12.6
vertex 47.7925927171387 10.3235238063782 0.0
vertex 47.9174682452694 10.625 0.0
endloop
endfacet
facet normal 0.965925826289068 -0.258819045102522 -8.87407615516463e-016
outer loop
vertex 47.7925927171387 10.3235238063782 14.6
vertex 47.9174682452694 10.625 16.6
vertex 47.7925927171387 10.3235238063782 16.6
endloop
endfacet
facet normal 0.86602540378444 -0.499999999999997 -4.59101948482204e-016
outer loop
vertex 47.9174682452694 10.625 16.6
vertex 47.7925927171387 10.3235238063782 14.6
vertex 47.9174682452694 10.625 14.6
endloop
endfacet
facet normal -0.499999999999999 -0.866025403784439 -4.50001815821175e-016
outer loop
vertex 49.625 11.0825317547306 16.6
vertex 49.3235238063782 11.2074072828613 14.6
vertex 49.625 11.0825317547305 14.6
endloop
endfacet
facet normal -0.258819045102526 -0.965925826289067 6.17159432104541e-016
outer loop
vertex 49.3235238063782 11.2074072828613 14.6
vertex 49.625 11.0825317547306 16.6
vertex 49.3235238063781 11.2074072828613 16.6
endloop
endfacet
facet normal -0.500000000000007 -0.866025403784435 -1.41664656120186e-016
outer loop
vertex 49.625 11.0825317547305 12.6
vertex 49.3235238063781 11.2074072828613 0.0
vertex 49.625 11.0825317547305 0.0
endloop
endfacet
facet normal -0.258819045102526 -0.965925826289067 -1.63048253390661e-016
outer loop
vertex 49.3235238063781 11.2074072828613 0.0
vertex 49.625 11.0825317547305 12.6
vertex 49.3235238063782 11.2074072828613 12.6
endloop
endfacet
facet normal 0.965925826289068 0.258819045102522 -5.89033604759968e-016
outer loop
vertex 47.7925927171387 9.67647619362185 14.6
vertex 47.9174682452694 9.375 16.6
vertex 47.9174682452694 9.375 14.6
endloop
endfacet
facet normal 0.86602540378444 0.499999999999998 6.83413952991876e-017
outer loop
vertex 47.9174682452694 9.375 16.6
vertex 47.7925927171387 9.67647619362185 14.6
vertex 47.7925927171387 9.67647619362185 16.6
endloop
endfacet
facet normal 0.965925826289068 0.258819045102521 -9.32049011718469e-017
outer loop
vertex 47.7925927171387 9.67647619362185 0.0
vertex 47.9174682452694 9.375 12.6
vertex 47.9174682452694 9.375 0.0
endloop
endfacet
facet normal 0.86602540378444 0.499999999999998 -1.76791067255471e-016
outer loop
vertex 47.9174682452694 9.375 12.6
vertex 47.7925927171387 9.67647619362185 0.0
vertex 47.7925927171387 9.67647619362185 12.6
endloop
endfacet
facet normal 0.965925826289068 0.258819045102521 -9.32049011718469e-017
outer loop
vertex 47.7925927171387 9.67647619362185 0.0
vertex 47.75 10.0 12.6
vertex 47.7925927171387 9.67647619362185 12.6
endloop
endfacet
facet normal 1.0 3.68028838690217e-015 -1.15503751648193e-016
outer loop
vertex 47.75 10.0 12.6
vertex 47.7925927171387 9.67647619362185 0.0
vertex 47.75 10.0 0.0
endloop
endfacet
facet normal 0.965925826289068 0.258819045102522 -5.89033604759968e-016
outer loop
vertex 47.7925927171387 9.67647619362185 14.6
vertex 47.75 10.0 16.6
vertex 47.7925927171387 9.67647619362185 16.6
endloop
endfacet
facet normal 1.0 -2.40599967182467e-016 -1.40894354590687e-015
outer loop
vertex 47.75 10.0 16.6
vertex 47.7925927171387 9.67647619362185 14.6
vertex 47.75 10.0 14.6
endloop
endfacet
facet normal 1.0 3.83177725512818e-015 -1.15503751648192e-016
outer loop
vertex 47.75 10.0 0.0
vertex 47.7925927171387 10.3235238063782 12.6
vertex 47.75 10.0 12.6
endloop
endfacet
facet normal 0.965925826289067 -0.258819045102526 -2.63178389360644e-016
outer loop
vertex 47.7925927171387 10.3235238063782 12.6
vertex 47.75 10.0 0.0
vertex 47.7925927171387 10.3235238063782 0.0
endloop
endfacet
facet normal 1.0 -7.12888791651756e-016 -1.40894354590687e-015
outer loop
vertex 47.75 10.0 14.6
vertex 47.7925927171387 10.3235238063782 16.6
vertex 47.75 10.0 16.6
endloop
endfacet
facet normal 0.965925826289068 -0.258819045102522 -8.87407615516464e-016
outer loop
vertex 47.7925927171387 10.3235238063782 16.6
vertex 47.75 10.0 14.6
vertex 47.7925927171387 10.3235238063782 14.6
endloop
endfacet
facet normal -0.707106781186548 -0.707106781186547 2.61802699829295e-017
outer loop
vertex 49.8838834764832 10.8838834764832 12.6
vertex 49.625 11.0825317547305 0.0
vertex 49.8838834764832 10.8838834764832 0.0
endloop
endfacet
facet normal -0.500000000000007 -0.866025403784435 -1.41664656120186e-016
outer loop
vertex 49.625 11.0825317547305 0.0
vertex 49.8838834764832 10.8838834764832 12.6
vertex 49.625 11.0825317547305 12.6
endloop
endfacet
facet normal -0.707106781186545 -0.70710678118655 -1.16487919098661e-015
outer loop
vertex 49.8838834764832 10.8838834764832 14.6
vertex 49.625 11.0825317547306 16.6
vertex 49.625 11.0825317547305 14.6
endloop
endfacet
facet normal -0.499999999999999 -0.866025403784439 -4.50001815821175e-016
outer loop
vertex 49.625 11.0825317547306 16.6
vertex 49.8838834764832 10.8838834764832 14.6
vertex 49.8838834764832 10.8838834764832 16.6
endloop
endfacet
facet normal -0.258819045102526 -0.965925826289067 -1.63048253390661e-016
outer loop
vertex 49.3235238063782 11.2074072828613 12.6
vertex 49.0 11.25 0.0
vertex 49.3235238063781 11.2074072828613 0.0
endloop
endfacet
facet normal -5.29319927801426e-015 -1.0 -8.39327777279773e-017
outer loop
vertex 49.0 11.25 0.0
vertex 49.3235238063782 11.2074072828613 12.6
vertex 49.0 11.25 12.6
endloop
endfacet
facet normal -0.258819045102525 -0.965925826289067 6.17159432104541e-016
outer loop
vertex 49.3235238063781 11.2074072828613 16.6
vertex 49.0 11.25 14.6
vertex 49.3235238063782 11.2074072828613 14.6
endloop
endfacet
facet normal -6.71897686131775e-015 -1.0 4.35395771833002e-016
outer loop
vertex 49.0 11.25 14.6
vertex 49.3235238063781 11.2074072828613 16.6
vertex 49.0 11.25 16.6
endloop
endfacet
facet normal 0.258819045102516 -0.96592582628907 -6.83641784475463e-017
outer loop
vertex 48.6764761936219 11.2074072828613 12.6
vertex 48.375 11.0825317547306 0.0
vertex 48.6764761936218 11.2074072828613 0.0
endloop
endfacet
facet normal 0.499999999999997 -0.86602540378444 4.36152195504616e-017
outer loop
vertex 48.375 11.0825317547306 0.0
vertex 48.6764761936219 11.2074072828613 12.6
vertex 48.375 11.0825317547306 12.6
endloop
endfacet
facet normal 0.258819045102518 -0.965925826289069 1.52200958328027e-016
outer loop
vertex 48.6764761936218 11.2074072828613 16.6
vertex 48.375 11.0825317547306 14.6
vertex 48.6764761936219 11.2074072828613 14.6
endloop
endfacet
facet normal 0.499999999999997 -0.86602540378444 -7.8440268057617e-017
outer loop
vertex 48.375 11.0825317547306 14.6
vertex 48.6764761936218 11.2074072828613 16.6
vertex 48.375 11.0825317547306 16.6
endloop
endfacet
facet normal 0.86602540378444 0.499999999999998 6.83413952991876e-017
outer loop
vertex 47.9174682452694 9.375 14.6
vertex 48.1161165235168 9.11611652351681 16.6
vertex 48.1161165235168 9.11611652351681 14.6
endloop
endfacet
facet normal 0.707106781186543 0.707106781186553 4.50145507938731e-016
outer loop
vertex 48.1161165235168 9.11611652351681 16.6
vertex 47.9174682452694 9.375 14.6
vertex 47.9174682452694 9.375 16.6
endloop
endfacet
facet normal 0.707106781186539 0.707106781186556 -5.16711996972717e-017
outer loop
vertex 48.1161165235168 9.11611652351682 0.0
vertex 47.9174682452694 9.375 12.6
vertex 48.1161165235168 9.11611652351681 12.6
endloop
endfacet
facet normal 0.86602540378444 0.499999999999998 -1.76791067255471e-016
outer loop
vertex 47.9174682452694 9.375 12.6
vertex 48.1161165235168 9.11611652351682 0.0
vertex 47.9174682452694 9.375 0.0
endloop
endfacet
facet normal 0.707106781186542 0.707106781186553 4.50145507938732e-016
outer loop
vertex 48.1161165235168 9.11611652351681 14.6
vertex 48.375 8.91746824526945 16.6
vertex 48.375 8.91746824526944 14.6
endloop
endfacet
facet normal 0.499999999999996 0.866025403784441 3.33574748705494e-016
outer loop
vertex 48.375 8.91746824526945 16.6
vertex 48.1161165235168 9.11611652351681 14.6
vertex 48.1161165235168 9.11611652351681 16.6
endloop
endfacet
facet normal 0.258819045102518 0.965925826289069 8.17223014341442e-017
outer loop
vertex 48.6764761936219 8.79259271713866 12.6
vertex 49.0 8.75 0.0
vertex 48.6764761936218 8.79259271713866 0.0
endloop
endfacet
facet normal -5.82786587175308e-015 1.0 1.25154683123524e-016
outer loop
vertex 49.0 8.75 0.0
vertex 48.6764761936219 8.79259271713866 12.6
vertex 49.0 8.74999999999999 12.6
endloop
endfacet
facet normal 0.258819045102519 0.965925826289069 -6.27918790200568e-016
outer loop
vertex 48.6764761936218 8.79259271713866 16.6
vertex 49.0 8.74999999999999 14.6
vertex 48.6764761936219 8.79259271713866 14.6
endloop
endfacet
facet normal -6.38035468528319e-015 1.0 -7.88794621116939e-016
outer loop
vertex 49.0 8.74999999999999 14.6
vertex 48.6764761936218 8.79259271713866 16.6
vertex 49.0 8.75 16.6
endloop
endfacet
facet normal -5.98826584987472e-015 1.0 1.25154683123524e-016
outer loop
vertex 49.0 8.74999999999999 12.6
vertex 49.3235238063781 8.79259271713866 0.0
vertex 49.0 8.75 0.0
endloop
endfacet
facet normal -0.258819045102523 0.965925826289068 2.63075569646373e-017
outer loop
vertex 49.3235238063781 8.79259271713866 0.0
vertex 49.0 8.74999999999999 12.6
vertex 49.3235238063781 8.79259271713866 12.6
endloop
endfacet
facet normal 0.707106781186538 0.707106781186557 -5.16711996972717e-017
outer loop
vertex 48.1161165235168 9.11611652351681 12.6
vertex 48.375 8.91746824526944 0.0
vertex 48.1161165235168 9.11611652351682 0.0
endloop
endfacet
facet normal 0.499999999999995 0.866025403784442 2.16034616297773e-017
outer loop
vertex 48.375 8.91746824526944 0.0
vertex 48.1161165235168 9.11611652351681 12.6
vertex 48.375 8.91746824526944 12.6
endloop
endfacet
facet normal -0.866025403784442 0.499999999999994 1.94596338511445e-016
outer loop
vertex 50.0825317547305 9.375 12.6
vertex 49.8838834764832 9.11611652351682 0.0
vertex 49.8838834764832 9.11611652351681 12.6
endloop
endfacet
facet normal -0.70710678118655 0.707106781186545 1.37429159404271e-016
outer loop
vertex 49.8838834764832 9.11611652351682 0.0
vertex 50.0825317547305 9.375 12.6
vertex 50.0825317547305 9.375 0.0
endloop
endfacet
facet normal -0.86602540378444 0.499999999999998 1.35719146868166e-016
outer loop
vertex 50.0825317547305 9.375 16.6
vertex 49.8838834764832 9.11611652351681 14.6
vertex 49.8838834764832 9.11611652351681 16.6
endloop
endfacet
facet normal -0.707106781186549 0.707106781186546 -1.50565161166438e-016
outer loop
vertex 49.8838834764832 9.11611652351681 14.6
vertex 50.0825317547305 9.375 16.6
vertex 50.0825317547305 9.375 14.6
endloop
endfacet
facet normal -0.965925826289072 0.258819045102509 2.45158768991508e-016
outer loop
vertex 50.2074072828613 9.67647619362185 12.6
vertex 50.0825317547305 9.375 0.0
vertex 50.0825317547305 9.375 12.6
endloop
endfacet
facet normal -0.866025403784442 0.499999999999994 1.94596338511445e-016
outer loop
vertex 50.0825317547305 9.375 0.0
vertex 50.2074072828613 9.67647619362185 12.6
vertex 50.2074072828613 9.67647619362185 0.0
endloop
endfacet
facet normal 0.499999999999995 0.866025403784442 2.16034616297773e-017
outer loop
vertex 48.375 8.91746824526944 12.6
vertex 48.6764761936218 8.79259271713866 0.0
vertex 48.375 8.91746824526944 0.0
endloop
endfacet
facet normal 0.258819045102518 0.965925826289069 8.17223014341441e-017
outer loop
vertex 48.6764761936218 8.79259271713866 0.0
vertex 48.375 8.91746824526944 12.6
vertex 48.6764761936219 8.79259271713866 12.6
endloop
endfacet
facet normal -0.500000000000003 0.866025403784437 5.08222973974242e-017
outer loop
vertex 49.625 8.91746824526945 12.6
vertex 49.8838834764832 9.11611652351682 0.0
vertex 49.625 8.91746824526945 0.0
endloop
endfacet
facet normal -0.70710678118655 0.707106781186545 1.37429159404271e-016
outer loop
vertex 49.8838834764832 9.11611652351682 0.0
vertex 49.625 8.91746824526945 12.6
vertex 49.8838834764832 9.11611652351681 12.6
endloop
endfacet
facet normal -0.500000000000001 0.866025403784438 -3.68391896710173e-017
outer loop
vertex 49.625 8.91746824526945 16.6
vertex 49.8838834764832 9.11611652351681 14.6
vertex 49.625 8.91746824526945 14.6
endloop
endfacet
facet normal -0.707106781186549 0.707106781186546 -1.50565161166438e-016
outer loop
vertex 49.8838834764832 9.11611652351681 14.6
vertex 49.625 8.91746824526945 16.6
vertex 49.8838834764832 9.11611652351681 16.6
endloop
endfacet
facet normal -0.258819045102523 0.965925826289068 2.63075569646372e-017
outer loop
vertex 49.3235238063781 8.79259271713866 12.6
vertex 49.625 8.91746824526945 0.0
vertex 49.3235238063781 8.79259271713866 0.0
endloop
endfacet
facet normal -0.500000000000003 0.866025403784437 5.08222973974241e-017
outer loop
vertex 49.625 8.91746824526945 0.0
vertex 49.3235238063781 8.79259271713866 12.6
vertex 49.625 8.91746824526945 12.6
endloop
endfacet
facet normal -5.43577703634461e-015 1.0 -7.88794621116941e-016
outer loop
vertex 49.0 8.75 16.6
vertex 49.3235238063781 8.79259271713866 14.6
vertex 49.0 8.74999999999999 14.6
endloop
endfacet
facet normal -0.258819045102523 0.965925826289068 -1.6372061865419e-016
outer loop
vertex 49.3235238063781 8.79259271713866 14.6
vertex 49.0 8.75 16.6
vertex 49.3235238063781 8.79259271713866 16.6
endloop
endfacet
facet normal 0.499999999999996 0.866025403784441 3.33574748705494e-016
outer loop
vertex 48.375 8.91746824526945 16.6
vertex 48.6764761936219 8.79259271713866 14.6
vertex 48.375 8.91746824526944 14.6
endloop
endfacet
facet normal 0.258819045102519 0.965925826289069 -6.27918790200569e-016
outer loop
vertex 48.6764761936219 8.79259271713866 14.6
vertex 48.375 8.91746824526945 16.6
vertex 48.6764761936218 8.79259271713866 16.6
endloop
endfacet
facet normal -0.258819045102522 0.965925826289068 -1.63720618654191e-016
outer loop
vertex 49.3235238063781 8.79259271713866 16.6
vertex 49.625 8.91746824526945 14.6
vertex 49.3235238063781 8.79259271713866 14.6
endloop
endfacet
facet normal -0.500000000000002 0.866025403784438 -3.68391896710183e-017
outer loop
vertex 49.625 8.91746824526945 14.6
vertex 49.3235238063781 8.79259271713866 16.6
vertex 49.625 8.91746824526945 16.6
endloop
endfacet
facet normal -0.96592582628907 0.258819045102513 9.34076037150581e-016
outer loop
vertex 50.2074072828613 9.67647619362185 16.6
vertex 50.0825317547305 9.375 14.6
vertex 50.0825317547305 9.375 16.6
endloop
endfacet
facet normal -0.86602540378444 0.499999999999998 1.35719146868166e-016
outer loop
vertex 50.0825317547305 9.375 14.6
vertex 50.2074072828613 9.67647619362185 16.6
vertex 50.2074072828613 9.67647619362185 14.6
endloop
endfacet
facet normal 1.0 -0.0 -0.0
outer loop
vertex 76.4999999999999 20.0 0.0
vertex 76.4999999999999 0.0 1.6
vertex 76.4999999999999 0.0 0.0
endloop
endfacet
facet normal 1.0 -0.0 -0.0
outer loop
vertex 76.4999999999999 0.0 1.6
vertex 76.4999999999999 20.0 0.0
vertex 76.4999999999999 3.0 1.6
endloop
endfacet
facet normal 1.0 -0.0 -0.0
outer loop
vertex 76.4999999999999 3.0 1.6
vertex 76.4999999999999 20.0 0.0
vertex 76.4999999999999 17.0 1.6
endloop
endfacet
facet normal 1.0 -0.0 -0.0
outer loop
vertex 76.4999999999999 3.0 1.6
vertex 76.4999999999999 17.0 1.6
vertex 76.4999999999999 3.0 16.6
endloop
endfacet
facet normal 1.0 -0.0 -0.0
outer loop
vertex 76.4999999999999 3.0 16.6
vertex 76.4999999999999 17.0 1.6
vertex 76.4999999999999 7.5 12.6
endloop
endfacet
facet normal 1.0 -0.0 -0.0
outer loop
vertex 76.4999999999999 7.5 12.6
vertex 76.4999999999999 17.0 1.6
vertex 76.4999999999999 12.5 12.6
endloop
endfacet
facet normal 1.0 -0.0 -0.0
outer loop
vertex 76.4999999999999 12.5 12.6
vertex 76.4999999999999 17.0 1.6
vertex 76.4999999999999 12.5 14.6
endloop
endfacet
facet normal 1.0 -0.0 -0.0
outer loop
vertex 76.4999999999999 17.0 1.6
vertex 76.4999999999999 20.0 0.0
vertex 76.4999999999999 20.0 1.6
endloop
endfacet
facet normal 1.0 -0.0 -0.0
outer loop
vertex 76.4999999999999 3.0 16.6
vertex 76.4999999999999 7.5 14.6
vertex 76.4999999999999 17.0 16.6
endloop
endfacet
facet normal 1.0 -0.0 -0.0
outer loop
vertex 76.4999999999999 7.5 14.6
vertex 76.4999999999999 3.0 16.6
vertex 76.4999999999999 7.5 12.6
endloop
endfacet
facet normal 1.0 -0.0 -0.0
outer loop
vertex 76.4999999999999 17.0 16.6
vertex 76.4999999999999 7.5 14.6
vertex 76.4999999999999 12.5 14.6
endloop
endfacet
facet normal 1.0 -0.0 -0.0
outer loop
vertex 76.4999999999999 17.0 16.6
vertex 76.4999999999999 12.5 14.6
vertex 76.4999999999999 17.0 1.6
endloop
endfacet
facet normal -0.0 -0.0 1.0
outer loop
vertex 76.4999999999999 0.0 1.6
vertex 46.0 3.0 1.6
vertex 46.0 0.0 1.6
endloop
endfacet
facet normal -0.0 -0.0 1.0
outer loop
vertex 46.0 3.0 1.6
vertex 76.4999999999999 0.0 1.6
vertex 51.5 3.0 1.6
endloop
endfacet
facet normal -0.0 -0.0 1.0
outer loop
vertex 51.5 3.0 1.6
vertex 76.4999999999999 0.0 1.6
vertex 54.5 3.0 1.6
endloop
endfacet
facet normal -0.0 -0.0 1.0
outer loop
vertex 51.5 3.0 1.6
vertex 54.5 3.0 1.6
vertex 51.5 17.0 1.6
endloop
endfacet
facet normal -0.0 -0.0 1.0
outer loop
vertex 54.5 3.0 1.6
vertex 76.4999999999999 0.0 1.6
vertex 68.5 3.0 1.6
endloop
endfacet
facet normal -0.0 -0.0 1.0
outer loop
vertex 68.5 3.0 1.6
vertex 76.4999999999999 0.0 1.6
vertex 71.0 3.0 1.6
endloop
endfacet
facet normal -0.0 -0.0 1.0
outer loop
vertex 68.5 3.0 1.6
vertex 71.0 3.0 1.6
vertex 68.5 17.0 1.6
endloop
endfacet
facet normal -0.0 -0.0 1.0
outer loop
vertex 71.0 3.0 1.6
vertex 76.4999999999999 0.0 1.6
vertex 76.4999999999999 3.0 1.6
endloop
endfacet
facet normal -0.0 -0.0 1.0
outer loop
vertex 51.5 17.0 1.6
vertex 46.0 20.0 1.6
vertex 46.0 17.0 1.6
endloop
endfacet
facet normal -0.0 -0.0 1.0
outer loop
vertex 46.0 20.0 1.6
vertex 51.5 17.0 1.6
vertex 76.4999999999999 20.0 1.6
endloop
endfacet
facet normal -0.0 -0.0 1.0
outer loop
vertex 76.4999999999999 20.0 1.6
vertex 51.5 17.0 1.6
vertex 54.5 17.0 1.6
endloop
endfacet
facet normal -0.0 -0.0 1.0
outer loop
vertex 54.5 17.0 1.6
vertex 51.5 17.0 1.6
vertex 54.5 3.0 1.6
endloop
endfacet
facet normal -0.0 -0.0 1.0
outer loop
vertex 76.4999999999999 20.0 1.6
vertex 54.5 17.0 1.6
vertex 68.5 17.0 1.6
endloop
endfacet
facet normal -0.0 -0.0 1.0
outer loop
vertex 76.4999999999999 20.0 1.6
vertex 68.5 17.0 1.6
vertex 71.0 17.0 1.6
endloop
endfacet
facet normal -0.0 -0.0 1.0
outer loop
vertex 71.0 17.0 1.6
vertex 68.5 17.0 1.6
vertex 71.0 3.0 1.6
endloop
endfacet
facet normal -0.0 -0.0 1.0
outer loop
vertex 76.4999999999999 20.0 1.6
vertex 71.0 17.0 1.6
vertex 76.4999999999999 17.0 1.6
endloop
endfacet
facet normal 0.0 0.0 1.0
outer loop
vertex 46.0 3.0 16.6
vertex 47.7925927171387 9.67647619362185 16.6
vertex 46.0 17.0 16.6
endloop
endfacet
facet normal 0.0 0.0 1.0
outer loop
vertex 47.7925927171387 9.67647619362185 16.6
vertex 46.0 3.0 16.6
vertex 47.9174682452694 9.375 16.6
endloop
endfacet
facet normal 0.0 0.0 1.0
outer loop
vertex 47.9174682452694 9.375 16.6
vertex 46.0 3.0 16.6
vertex 51.5 3.0 16.6
endloop
endfacet
facet normal 0.0 0.0 1.0
outer loop
vertex 46.0 17.0 16.6
vertex 47.7925927171387 9.67647619362185 16.6
vertex 47.75 10.0 16.6
endloop
endfacet
facet normal 0.0 0.0 1.0
outer loop
vertex 47.9174682452694 9.375 16.6
vertex 51.5 3.0 16.6
vertex 48.1161165235168 9.11611652351681 16.6
endloop
endfacet
facet normal 0.0 0.0 1.0
outer loop
vertex 48.1161165235168 9.11611652351681 16.6
vertex 51.5 3.0 16.6
vertex 48.375 8.91746824526945 16.6
endloop
endfacet
facet normal 0.0 0.0 1.0
outer loop
vertex 48.375 8.91746824526945 16.6
vertex 51.5 3.0 16.6
vertex 48.6764761936218 8.79259271713866 16.6
endloop
endfacet
facet normal 0.0 0.0 1.0
outer loop
vertex 48.6764761936218 8.79259271713866 16.6
vertex 51.5 3.0 16.6
vertex 49.0 8.75 16.6
endloop
endfacet
facet normal 0.0 0.0 1.0
outer loop
vertex 49.0 8.75 16.6
vertex 51.5 3.0 16.6
vertex 49.3235238063781 8.79259271713866 16.6
endloop
endfacet
facet normal 0.0 0.0 1.0
outer loop
vertex 49.3235238063781 8.79259271713866 16.6
vertex 51.5 3.0 16.6
vertex 49.625 8.91746824526945 16.6
endloop
endfacet
facet normal 0.0 0.0 1.0
outer loop
vertex 49.625 8.91746824526945 16.6
vertex 51.5 3.0 16.6
vertex 49.8838834764832 9.11611652351681 16.6
endloop
endfacet
facet normal 0.0 0.0 1.0
outer loop
vertex 49.8838834764832 9.11611652351681 16.6
vertex 51.5 3.0 16.6
vertex 50.0825317547305 9.375 16.6
endloop
endfacet
facet normal 0.0 0.0 1.0
outer loop
vertex 50.0825317547305 9.375 16.6
vertex 51.5 3.0 16.6
vertex 50.2074072828613 9.67647619362185 16.6
endloop
endfacet
facet normal 0.0 0.0 1.0
outer loop
vertex 50.2074072828613 9.67647619362185 16.6
vertex 51.5 3.0 16.6
vertex 50.25 10.0 16.6
endloop
endfacet
facet normal 0.0 0.0 1.0
outer loop
vertex 46.0 17.0 16.6
vertex 47.9174682452694 10.625 16.6
vertex 51.5 17.0 16.6
endloop
endfacet
facet normal 0.0 0.0 1.0
outer loop
vertex 47.9174682452694 10.625 16.6
vertex 46.0 17.0 16.6
vertex 47.7925927171387 10.3235238063782 16.6
endloop
endfacet
facet normal 0.0 0.0 1.0
outer loop
vertex 47.7925927171387 10.3235238063782 16.6
vertex 46.0 17.0 16.6
vertex 47.75 10.0 16.6
endloop
endfacet
facet normal 0.0 0.0 1.0
outer loop
vertex 51.5 17.0 16.6
vertex 47.9174682452694 10.625 16.6
vertex 48.1161165235168 10.8838834764832 16.6
endloop
endfacet
facet normal 0.0 0.0 1.0
outer loop
vertex 51.5 17.0 16.6
vertex 48.1161165235168 10.8838834764832 16.6
vertex 48.375 11.0825317547306 16.6
endloop
endfacet
facet normal 0.0 0.0 1.0
outer loop
vertex 51.5 17.0 16.6
vertex 48.375 11.0825317547306 16.6
vertex 48.6764761936218 11.2074072828613 16.6
endloop
endfacet
facet normal 0.0 0.0 1.0
outer loop
vertex 51.5 17.0 16.6
vertex 48.6764761936218 11.2074072828613 16.6
vertex 49.0 11.25 16.6
endloop
endfacet
facet normal 0.0 0.0 1.0
outer loop
vertex 51.5 17.0 16.6
vertex 49.0 11.25 16.6
vertex 49.3235238063781 11.2074072828613 16.6
endloop
endfacet
facet normal 0.0 0.0 1.0
outer loop
vertex 51.5 17.0 16.6
vertex 49.3235238063781 11.2074072828613 16.6
vertex 49.625 11.0825317547306 16.6
endloop
endfacet
facet normal 0.0 0.0 1.0
outer loop
vertex 51.5 17.0 16.6
vertex 49.625 11.0825317547306 16.6
vertex 49.8838834764832 10.8838834764832 16.6
endloop
endfacet
facet normal 0.0 0.0 1.0
outer loop
vertex 51.5 17.0 16.6
vertex 49.8838834764832 10.8838834764832 16.6
vertex 50.0825317547305 10.625 16.6
endloop
endfacet
facet normal 0.0 0.0 1.0
outer loop
vertex 51.5 17.0 16.6
vertex 50.0825317547305 10.625 16.6
vertex 50.2074072828613 10.3235238063782 16.6
endloop
endfacet
facet normal 0.0 0.0 1.0
outer loop
vertex 51.5 17.0 16.6
vertex 50.2074072828613 10.3235238063782 16.6
vertex 50.25 10.0 16.6
endloop
endfacet
facet normal 0.0 0.0 1.0
outer loop
vertex 51.5 17.0 16.6
vertex 50.25 10.0 16.6
vertex 51.5 3.0 16.6
endloop
endfacet
facet normal -1.0 0.0 0.0
outer loop
vertex 46.0 17.0 16.6
vertex 46.0 3.0 1.6
vertex 46.0 3.0 16.6
endloop
endfacet
facet normal -1.0 0.0 0.0
outer loop
vertex 46.0 3.0 1.6
vertex 46.0 0.0 7.04991620636974e-016
vertex 46.0 0.0 1.6
endloop
endfacet
facet normal -1.0 0.0 0.0
outer loop
vertex 46.0 0.0 7.04991620636974e-016
vertex 46.0 3.0 1.6
vertex 46.0 20.0 7.04991620636974e-016
endloop
endfacet
facet normal -1.0 0.0 0.0
outer loop
vertex 46.0 20.0 7.04991620636974e-016
vertex 46.0 3.0 1.6
vertex 46.0 17.0 1.6
endloop
endfacet
facet normal -1.0 0.0 0.0
outer loop
vertex 46.0 17.0 1.6
vertex 46.0 3.0 1.6
vertex 46.0 17.0 16.6
endloop
endfacet
facet normal -1.0 0.0 0.0
outer loop
vertex 46.0 20.0 7.04991620636974e-016
vertex 46.0 17.0 1.6
vertex 46.0 20.0 1.6
endloop
endfacet
endsolid single-command-button-holder
