solid ball
facet normal 0.0 0.0 -1.0
outer loop
vertex 0.0 30.0 5.5
vertex 4.27822332819135 17.872891400638 5.5
vertex 0.0 0.0 5.5
endloop
endfacet
facet normal 0.0 0.0 -1.0
outer loop
vertex 4.27822332819135 17.872891400638 5.5
vertex 0.0 30.0 5.5
vertex 5.38711801799274 20.55 5.5
endloop
endfacet
facet normal 0.0 0.0 -1.0
outer loop
vertex 5.38711801799274 20.55 5.5
vertex 0.0 30.0 5.5
vertex 7.15111472882933 22.8488852711707 5.5
endloop
endfacet
facet normal 0.0 0.0 -1.0
outer loop
vertex 7.15111472882933 22.8488852711707 5.5
vertex 0.0 30.0 5.5
vertex 9.45000000000001 24.6128819820073 5.5
endloop
endfacet
facet normal 0.0 0.0 -1.0
outer loop
vertex 9.45000000000001 24.6128819820073 5.5
vertex 0.0 30.0 5.5
vertex 12.127108599362 25.7217766718087 5.5
endloop
endfacet
facet normal 0.0 0.0 -1.0
outer loop
vertex 12.127108599362 25.7217766718087 5.5
vertex 0.0 30.0 5.5
vertex 30.0 30.0 5.5
endloop
endfacet
facet normal 0.0 0.0 -1.0
outer loop
vertex 0.0 0.0 5.5
vertex 4.27822332819135 17.872891400638 5.5
vertex 3.9 15.0 5.5
endloop
endfacet
facet normal 0.0 0.0 -1.0
outer loop
vertex 12.127108599362 25.7217766718087 5.5
vertex 30.0 30.0 5.5
vertex 15.0 26.1 5.5
endloop
endfacet
facet normal 0.0 0.0 -1.0
outer loop
vertex 15.0 26.1 5.5
vertex 30.0 30.0 5.5
vertex 17.872891400638 25.7217766718087 5.5
endloop
endfacet
facet normal 0.0 0.0 -1.0
outer loop
vertex 17.872891400638 25.7217766718087 5.5
vertex 30.0 30.0 5.5
vertex 20.55 24.6128819820073 5.5
endloop
endfacet
facet normal 0.0 0.0 -1.0
outer loop
vertex 20.55 24.6128819820073 5.5
vertex 30.0 30.0 5.5
vertex 22.8488852711707 22.8488852711707 5.5
endloop
endfacet
facet normal 0.0 0.0 -1.0
outer loop
vertex 22.8488852711707 22.8488852711707 5.5
vertex 30.0 30.0 5.5
vertex 24.6128819820073 20.55 5.5
endloop
endfacet
facet normal 0.0 0.0 -1.0
outer loop
vertex 24.6128819820073 20.55 5.5
vertex 30.0 30.0 5.5
vertex 25.7217766718087 17.872891400638 5.5
endloop
endfacet
facet normal 0.0 0.0 -1.0
outer loop
vertex 25.7217766718087 17.872891400638 5.5
vertex 30.0 30.0 5.5
vertex 26.1 15.0 5.5
endloop
endfacet
facet normal 0.0 0.0 -1.0
outer loop
vertex 0.0 0.0 5.5
vertex 12.127108599362 4.27822332819134 5.5
vertex 30.0 0.0 5.5
endloop
endfacet
facet normal 0.0 0.0 -1.0
outer loop
vertex 12.127108599362 4.27822332819134 5.5
vertex 0.0 0.0 5.5
vertex 9.45 5.38711801799273 5.5
endloop
endfacet
facet normal 0.0 0.0 -1.0
outer loop
vertex 9.45 5.38711801799273 5.5
vertex 0.0 0.0 5.5
vertex 7.15111472882932 7.15111472882933 5.5
endloop
endfacet
facet normal 0.0 0.0 -1.0
outer loop
vertex 7.15111472882932 7.15111472882933 5.5
vertex 0.0 0.0 5.5
vertex 5.38711801799273 9.45000000000001 5.5
endloop
endfacet
facet normal 0.0 0.0 -1.0
outer loop
vertex 5.38711801799273 9.45000000000001 5.5
vertex 0.0 0.0 5.5
vertex 4.27822332819134 12.127108599362 5.5
endloop
endfacet
facet normal 0.0 0.0 -1.0
outer loop
vertex 4.27822332819134 12.127108599362 5.5
vertex 0.0 0.0 5.5
vertex 3.9 15.0 5.5
endloop
endfacet
facet normal 0.0 0.0 -1.0
outer loop
vertex 30.0 0.0 5.5
vertex 12.127108599362 4.27822332819134 5.5
vertex 15.0 3.9 5.5
endloop
endfacet
facet normal 0.0 0.0 -1.0
outer loop
vertex 30.0 0.0 5.5
vertex 15.0 3.9 5.5
vertex 17.872891400638 4.27822332819134 5.5
endloop
endfacet
facet normal 0.0 0.0 -1.0
outer loop
vertex 30.0 0.0 5.5
vertex 17.872891400638 4.27822332819134 5.5
vertex 20.55 5.38711801799273 5.5
endloop
endfacet
facet normal 0.0 0.0 -1.0
outer loop
vertex 30.0 0.0 5.5
vertex 20.55 5.38711801799273 5.5
vertex 22.8488852711707 7.15111472882931 5.5
endloop
endfacet
facet normal 0.0 0.0 -1.0
outer loop
vertex 30.0 0.0 5.5
vertex 22.8488852711707 7.15111472882931 5.5
vertex 24.6128819820073 9.44999999999999 5.5
endloop
endfacet
facet normal 0.0 0.0 -1.0
outer loop
vertex 30.0 0.0 5.5
vertex 24.6128819820073 9.44999999999999 5.5
vertex 25.7217766718087 12.127108599362 5.5
endloop
endfacet
facet normal 0.0 0.0 -1.0
outer loop
vertex 30.0 0.0 5.5
vertex 25.7217766718087 12.127108599362 5.5
vertex 26.1 15.0 5.5
endloop
endfacet
facet normal 0.0 0.0 -1.0
outer loop
vertex 30.0 0.0 5.5
vertex 26.1 15.0 5.5
vertex 30.0 30.0 5.5
endloop
endfacet
facet normal 0.0 -1.0 -0.0
outer loop
vertex 30.0 30.0 5.5
vertex 0.0 30.0 0.0
vertex 30.0 30.0 0.0
endloop
endfacet
facet normal 0.0 -1.0 -0.0
outer loop
vertex 0.0 30.0 0.0
vertex 30.0 30.0 5.5
vertex 0.0 30.0 5.5
endloop
endfacet
facet normal -1.0 -0.0 -0.0
outer loop
vertex 30.0 30.0 5.5
vertex 30.0 0.0 0.0
vertex 30.0 0.0 5.5
endloop
endfacet
facet normal -1.0 -0.0 -0.0
outer loop
vertex 30.0 0.0 0.0
vertex 30.0 30.0 5.5
vertex 30.0 30.0 0.0
endloop
endfacet
facet normal 0.0 1.0 0.0
outer loop
vertex 0.0 0.0 5.5
vertex 30.0 0.0 0.0
vertex 0.0 0.0 0.0
endloop
endfacet
facet normal 0.0 1.0 0.0
outer loop
vertex 30.0 0.0 0.0
vertex 0.0 0.0 5.5
vertex 30.0 0.0 5.5
endloop
endfacet
facet normal 1.0 -0.0 -0.0
outer loop
vertex 0.0 30.0 0.0
vertex 0.0 0.0 5.5
vertex 0.0 0.0 0.0
endloop
endfacet
facet normal 1.0 -0.0 -0.0
outer loop
vertex 0.0 0.0 5.5
vertex 0.0 30.0 0.0
vertex 0.0 30.0 5.5
endloop
endfacet
facet normal 0.86602540378444 0.499999999999999 6.02966884020246e-016
outer loop
vertex 24.6128819820073 20.55 2.0
vertex 22.8488852711707 22.8488852711707 5.5
vertex 24.6128819820073 20.55 5.5
endloop
endfacet
facet normal 0.707106781186549 0.707106781186546 2.45424672069987e-016
outer loop
vertex 22.8488852711707 22.8488852711707 5.5
vertex 24.6128819820073 20.55 2.0
vertex 22.8488852711707 22.8488852711707 2.0
endloop
endfacet
facet normal 0.500000000000001 0.866025403784438 5.15038271519281e-016
outer loop
vertex 20.55 24.6128819820073 5.5
vertex 22.8488852711707 22.8488852711707 2.0
vertex 20.55 24.6128819820073 2.0
endloop
endfacet
facet normal 0.707106781186549 0.707106781186546 2.45424672069988e-016
outer loop
vertex 22.8488852711707 22.8488852711707 2.0
vertex 20.55 24.6128819820073 5.5
vertex 22.8488852711707 22.8488852711707 5.5
endloop
endfacet
facet normal 0.258819045102521 0.965925826289068 1.18992271404236e-015
outer loop
vertex 17.872891400638 25.7217766718087 5.5
vertex 20.55 24.6128819820073 2.0
vertex 17.872891400638 25.7217766718087 2.0
endloop
endfacet
facet normal 0.5 0.866025403784438 5.15038271519283e-016
outer loop
vertex 20.55 24.6128819820073 2.0
vertex 17.872891400638 25.7217766718087 5.5
vertex 20.55 24.6128819820073 5.5
endloop
endfacet
facet normal 7.39622121338693e-016 1.0 1.2212117359039e-015
outer loop
vertex 15.0 26.1 5.5
vertex 17.872891400638 25.7217766718087 2.0
vertex 15.0 26.1 2.0
endloop
endfacet
facet normal 0.258819045102521 0.965925826289068 1.18992271404236e-015
outer loop
vertex 17.872891400638 25.7217766718087 2.0
vertex 15.0 26.1 5.5
vertex 17.872891400638 25.7217766718087 5.5
endloop
endfacet
facet normal -0.25881904510252 0.965925826289069 5.53627239642651e-016
outer loop
vertex 12.127108599362 25.7217766718087 5.5
vertex 15.0 26.1 2.0
vertex 12.127108599362 25.7217766718087 2.0
endloop
endfacet
facet normal 3.38622176034582e-016 1.0 1.2212117359039e-015
outer loop
vertex 15.0 26.1 2.0
vertex 12.127108599362 25.7217766718087 5.5
vertex 15.0 26.1 5.5
endloop
endfacet
facet normal -0.499999999999999 0.866025403784439 -3.03314573472772e-016
outer loop
vertex 9.45000000000001 24.6128819820073 5.5
vertex 12.127108599362 25.7217766718087 2.0
vertex 9.45 24.6128819820073 2.0
endloop
endfacet
facet normal -0.25881904510252 0.965925826289068 5.53627239642649e-016
outer loop
vertex 12.127108599362 25.7217766718087 2.0
vertex 9.45000000000001 24.6128819820073 5.5
vertex 12.127108599362 25.7217766718087 5.5
endloop
endfacet
facet normal -0.707106781186547 0.707106781186548 -2.49722324885703e-016
outer loop
vertex 7.15111472882933 22.8488852711707 5.5
vertex 9.45 24.6128819820073 2.0
vertex 7.15111472882933 22.8488852711707 2.0
endloop
endfacet
facet normal -0.499999999999999 0.866025403784439 -3.03314573472773e-016
outer loop
vertex 9.45 24.6128819820073 2.0
vertex 7.15111472882933 22.8488852711707 5.5
vertex 9.45000000000001 24.6128819820073 5.5
endloop
endfacet
facet normal -0.866025403784438 0.5 2.0346463575868e-016
outer loop
vertex 5.38711801799274 20.55 5.5
vertex 7.15111472882933 22.8488852711707 2.0
vertex 5.38711801799273 20.55 2.0
endloop
endfacet
facet normal -0.707106781186547 0.707106781186548 -2.49722324885701e-016
outer loop
vertex 7.15111472882933 22.8488852711707 2.0
vertex 5.38711801799274 20.55 5.5
vertex 7.15111472882933 22.8488852711707 5.5
endloop
endfacet
facet normal -0.965925826289068 0.258819045102522 2.19402768084981e-016
outer loop
vertex 4.27822332819135 17.872891400638 5.5
vertex 5.38711801799273 20.55 2.0
vertex 4.27822332819134 17.872891400638 2.0
endloop
endfacet
facet normal -0.866025403784439 0.5 2.0346463575868e-016
outer loop
vertex 5.38711801799273 20.55 2.0
vertex 4.27822332819135 17.872891400638 5.5
vertex 5.38711801799274 20.55 5.5
endloop
endfacet
facet normal -1.0 6.86155461964812e-016 1.05636340094806e-016
outer loop
vertex 3.9 15.0 5.5
vertex 4.27822332819134 17.872891400638 2.0
vertex 3.9 15.0 2.0
endloop
endfacet
facet normal -0.965925826289068 0.258819045102521 2.19402768084981e-016
outer loop
vertex 4.27822332819134 17.872891400638 2.0
vertex 3.9 15.0 5.5
vertex 4.27822332819135 17.872891400638 5.5
endloop
endfacet
facet normal -0.965925826289069 -0.25881904510252 2.03507506284786e-016
outer loop
vertex 4.27822332819134 12.127108599362 5.5
vertex 3.9 15.0 2.0
vertex 4.27822332819134 12.127108599362 2.0
endloop
endfacet
facet normal -1.0 2.76244406765054e-016 1.05636340094806e-016
outer loop
vertex 3.9 15.0 2.0
vertex 4.27822332819134 12.127108599362 5.5
vertex 3.9 15.0 5.5
endloop
endfacet
facet normal -0.866025403784439 -0.5 2.22203255635459e-016
outer loop
vertex 5.38711801799273 9.45000000000001 5.5
vertex 4.27822332819134 12.127108599362 2.0
vertex 5.38711801799273 9.45 2.0
endloop
endfacet
facet normal -0.965925826289068 -0.258819045102521 2.03507506284786e-016
outer loop
vertex 4.27822332819134 12.127108599362 2.0
vertex 5.38711801799273 9.45000000000001 5.5
vertex 4.27822332819134 12.127108599362 5.5
endloop
endfacet
facet normal -0.707106781186548 -0.707106781186547 1.08801152784117e-016
outer loop
vertex 7.15111472882932 7.15111472882933 5.5
vertex 5.38711801799273 9.45 2.0
vertex 7.15111472882933 7.15111472882932 2.0
endloop
endfacet
facet normal -0.866025403784439 -0.5 2.22203255635459e-016
outer loop
vertex 5.38711801799273 9.45 2.0
vertex 7.15111472882932 7.15111472882933 5.5
vertex 5.38711801799273 9.45000000000001 5.5
endloop
endfacet
facet normal -0.5 -0.866025403784439 1.09607493928383e-016
outer loop
vertex 9.45 5.38711801799273 5.5
vertex 7.15111472882933 7.15111472882932 2.0
vertex 9.45 5.38711801799273 2.0
endloop
endfacet
facet normal -0.707106781186547 -0.707106781186548 1.08801152784116e-016
outer loop
vertex 7.15111472882933 7.15111472882932 2.0
vertex 9.45 5.38711801799273 5.5
vertex 7.15111472882932 7.15111472882933 5.5
endloop
endfacet
facet normal -0.258819045102521 -0.965925826289068 1.31728254604117e-016
outer loop
vertex 12.127108599362 4.27822332819134 5.5
vertex 9.45 5.38711801799273 2.0
vertex 12.127108599362 4.27822332819134 2.0
endloop
endfacet
facet normal -0.5 -0.866025403784439 1.09607493928383e-016
outer loop
vertex 9.45 5.38711801799273 2.0
vertex 12.127108599362 4.27822332819134 5.5
vertex 9.45 5.38711801799273 5.5
endloop
endfacet
facet normal -1.60399978121644e-016 -1.0 4.2097736677324e-017
outer loop
vertex 15.0 3.9 5.5
vertex 12.127108599362 4.27822332819134 2.0
vertex 15.0 3.9 2.0
endloop
endfacet
facet normal -0.25881904510252 -0.965925826289069 1.31728254604117e-016
outer loop
vertex 12.127108599362 4.27822332819134 2.0
vertex 15.0 3.9 5.5
vertex 12.127108599362 4.27822332819134 5.5
endloop
endfacet
facet normal 0.25881904510252 -0.965925826289068 -4.51342507109464e-017
outer loop
vertex 17.872891400638 4.27822332819134 5.5
vertex 15.0 3.9 2.0
vertex 17.872891400638 4.27822332819135 2.0
endloop
endfacet
facet normal 5.1684437394752e-016 -1.0 4.20977366773237e-017
outer loop
vertex 15.0 3.9 2.0
vertex 17.872891400638 4.27822332819134 5.5
vertex 15.0 3.9 5.5
endloop
endfacet
facet normal 0.499999999999999 -0.866025403784439 1.07613518790882e-016
outer loop
vertex 20.55 5.38711801799273 5.5
vertex 17.872891400638 4.27822332819135 2.0
vertex 20.55 5.38711801799273 2.0
endloop
endfacet
facet normal 0.258819045102521 -0.965925826289068 -4.51342507109465e-017
outer loop
vertex 17.872891400638 4.27822332819135 2.0
vertex 20.55 5.38711801799273 5.5
vertex 17.872891400638 4.27822332819134 5.5
endloop
endfacet
facet normal 0.707106781186547 -0.707106781186548 2.01451781801578e-016
outer loop
vertex 22.8488852711707 7.15111472882931 5.5
vertex 20.55 5.38711801799273 2.0
vertex 22.8488852711707 7.15111472882932 2.0
endloop
endfacet
facet normal 0.5 -0.866025403784439 1.07613518790883e-016
outer loop
vertex 20.55 5.38711801799273 2.0
vertex 22.8488852711707 7.15111472882931 5.5
vertex 20.55 5.38711801799273 5.5
endloop
endfacet
facet normal 0.707106781186547 -0.707106781186548 2.01451781801578e-016
outer loop
vertex 22.8488852711707 7.15111472882932 2.0
vertex 24.6128819820073 9.44999999999999 5.5
vertex 22.8488852711707 7.15111472882931 5.5
endloop
endfacet
facet normal 0.866025403784438 -0.500000000000001 -2.27843682651669e-016
outer loop
vertex 24.6128819820073 9.44999999999999 5.5
vertex 22.8488852711707 7.15111472882932 2.0
vertex 24.6128819820073 9.45 2.0
endloop
endfacet
facet normal 0.866025403784438 -0.500000000000001 -2.2784368265167e-016
outer loop
vertex 24.6128819820073 9.45 2.0
vertex 25.7217766718087 12.127108599362 5.5
vertex 24.6128819820073 9.44999999999999 5.5
endloop
endfacet
facet normal 0.965925826289068 -0.258819045102522 -1.25230775356159e-016
outer loop
vertex 25.7217766718087 12.127108599362 5.5
vertex 24.6128819820073 9.45 2.0
vertex 25.7217766718087 12.127108599362 2.0
endloop
endfacet
facet normal 0.965925826289068 -0.258819045102522 -1.25230775356157e-016
outer loop
vertex 25.7217766718087 12.127108599362 2.0
vertex 26.1 15.0 5.5
vertex 25.7217766718087 12.127108599362 5.5
endloop
endfacet
facet normal 1.0 -2.15648859474655e-015 7.78057382974413e-016
outer loop
vertex 26.1 15.0 5.5
vertex 25.7217766718087 12.127108599362 2.0
vertex 26.1 15.0 2.0
endloop
endfacet
facet normal 1.0 -1.62182200100774e-015 7.78057382974414e-016
outer loop
vertex 26.1 15.0 2.0
vertex 25.7217766718087 17.872891400638 5.5
vertex 26.1 15.0 5.5
endloop
endfacet
facet normal 0.965925826289069 0.258819045102519 9.42960260817171e-016
outer loop
vertex 25.7217766718087 17.872891400638 5.5
vertex 26.1 15.0 2.0
vertex 25.7217766718087 17.872891400638 2.0
endloop
endfacet
facet normal 0.965925826289069 0.258819045102519 9.4296026081717e-016
outer loop
vertex 25.7217766718087 17.872891400638 2.0
vertex 24.6128819820073 20.55 5.5
vertex 25.7217766718087 17.872891400638 5.5
endloop
endfacet
facet normal 0.86602540378444 0.499999999999998 6.02966884020247e-016
outer loop
vertex 24.6128819820073 20.55 5.5
vertex 25.7217766718087 17.872891400638 2.0
vertex 24.6128819820073 20.55 2.0
endloop
endfacet
facet normal 0.0 0.0 -1.0
outer loop
vertex 4.27822332819134 17.872891400638 2.0
vertex 4.27822332819134 12.127108599362 2.0
vertex 3.9 15.0 2.0
endloop
endfacet
facet normal 0.0 0.0 -1.0
outer loop
vertex 4.27822332819134 12.127108599362 2.0
vertex 4.27822332819134 17.872891400638 2.0
vertex 5.38711801799273 9.45 2.0
endloop
endfacet
facet normal 0.0 0.0 -1.0
outer loop
vertex 5.38711801799273 9.45 2.0
vertex 4.27822332819134 17.872891400638 2.0
vertex 5.38711801799273 20.55 2.0
endloop
endfacet
facet normal 0.0 0.0 -1.0
outer loop
vertex 5.38711801799273 9.45 2.0
vertex 5.38711801799273 20.55 2.0
vertex 7.15111472882933 7.15111472882932 2.0
endloop
endfacet
facet normal 0.0 0.0 -1.0
outer loop
vertex 7.15111472882933 7.15111472882932 2.0
vertex 5.38711801799273 20.55 2.0
vertex 7.15111472882933 22.8488852711707 2.0
endloop
endfacet
facet normal 0.0 0.0 -1.0
outer loop
vertex 7.15111472882933 7.15111472882932 2.0
vertex 7.15111472882933 22.8488852711707 2.0
vertex 8.0 15.0 2.0
endloop
endfacet
facet normal 0.0 0.0 -1.0
outer loop
vertex 8.0 15.0 2.0
vertex 7.15111472882933 22.8488852711707 2.0
vertex 8.23851921597652 16.8117333157177 2.0
endloop
endfacet
facet normal 0.0 0.0 -1.0
outer loop
vertex 8.23851921597652 16.8117333157177 2.0
vertex 7.15111472882933 22.8488852711707 2.0
vertex 9.45 24.6128819820073 2.0
endloop
endfacet
facet normal 0.0 0.0 -1.0
outer loop
vertex 8.23851921597652 16.8117333157177 2.0
vertex 9.45 24.6128819820073 2.0
vertex 8.93782217350893 18.5 2.0
endloop
endfacet
facet normal 0.0 0.0 -1.0
outer loop
vertex 8.93782217350893 18.5 2.0
vertex 9.45 24.6128819820073 2.0
vertex 10.0502525316942 19.9497474683058 2.0
endloop
endfacet
facet normal 0.0 0.0 -1.0
outer loop
vertex 10.0502525316942 19.9497474683058 2.0
vertex 9.45 24.6128819820073 2.0
vertex 12.127108599362 25.7217766718087 2.0
endloop
endfacet
facet normal 0.0 0.0 -1.0
outer loop
vertex 10.0502525316942 19.9497474683058 2.0
vertex 12.127108599362 25.7217766718087 2.0
vertex 11.5 21.0621778264911 2.0
endloop
endfacet
facet normal 0.0 0.0 -1.0
outer loop
vertex 11.5 21.0621778264911 2.0
vertex 12.127108599362 25.7217766718087 2.0
vertex 13.1882666842824 21.7614807840235 2.0
endloop
endfacet
facet normal 0.0 0.0 -1.0
outer loop
vertex 13.1882666842824 21.7614807840235 2.0
vertex 12.127108599362 25.7217766718087 2.0
vertex 15.0 26.1 2.0
endloop
endfacet
facet normal 0.0 0.0 -1.0
outer loop
vertex 13.1882666842824 21.7614807840235 2.0
vertex 15.0 26.1 2.0
vertex 15.0 22.0 2.0
endloop
endfacet
facet normal 0.0 0.0 -1.0
outer loop
vertex 15.0 22.0 2.0
vertex 15.0 26.1 2.0
vertex 16.8117333157176 21.7614807840235 2.0
endloop
endfacet
facet normal 0.0 0.0 -1.0
outer loop
vertex 16.8117333157176 21.7614807840235 2.0
vertex 15.0 26.1 2.0
vertex 17.872891400638 25.7217766718087 2.0
endloop
endfacet
facet normal 0.0 0.0 -1.0
outer loop
vertex 16.8117333157176 21.7614807840235 2.0
vertex 17.872891400638 25.7217766718087 2.0
vertex 18.5 21.0621778264911 2.0
endloop
endfacet
facet normal 0.0 0.0 -1.0
outer loop
vertex 18.5 21.0621778264911 2.0
vertex 17.872891400638 25.7217766718087 2.0
vertex 20.55 24.6128819820073 2.0
endloop
endfacet
facet normal 0.0 0.0 -1.0
outer loop
vertex 18.5 21.0621778264911 2.0
vertex 20.55 24.6128819820073 2.0
vertex 19.9497474683058 19.9497474683058 2.0
endloop
endfacet
facet normal 0.0 0.0 -1.0
outer loop
vertex 19.9497474683058 19.9497474683058 2.0
vertex 20.55 24.6128819820073 2.0
vertex 21.0621778264911 18.5 2.0
endloop
endfacet
facet normal 0.0 0.0 -1.0
outer loop
vertex 21.0621778264911 18.5 2.0
vertex 20.55 24.6128819820073 2.0
vertex 22.8488852711707 22.8488852711707 2.0
endloop
endfacet
facet normal 0.0 0.0 -1.0
outer loop
vertex 21.0621778264911 18.5 2.0
vertex 22.8488852711707 22.8488852711707 2.0
vertex 21.7614807840235 16.8117333157176 2.0
endloop
endfacet
facet normal 0.0 0.0 -1.0
outer loop
vertex 21.7614807840235 16.8117333157176 2.0
vertex 22.8488852711707 22.8488852711707 2.0
vertex 22.0 15.0 2.0
endloop
endfacet
facet normal 0.0 0.0 -1.0
outer loop
vertex 22.0 15.0 2.0
vertex 22.8488852711707 22.8488852711707 2.0
vertex 22.8488852711707 7.15111472882932 2.0
endloop
endfacet
facet normal 0.0 0.0 -1.0
outer loop
vertex 22.8488852711707 7.15111472882932 2.0
vertex 22.8488852711707 22.8488852711707 2.0
vertex 24.6128819820073 9.45 2.0
endloop
endfacet
facet normal 0.0 0.0 -1.0
outer loop
vertex 24.6128819820073 9.45 2.0
vertex 22.8488852711707 22.8488852711707 2.0
vertex 24.6128819820073 20.55 2.0
endloop
endfacet
facet normal 0.0 0.0 -1.0
outer loop
vertex 24.6128819820073 9.45 2.0
vertex 24.6128819820073 20.55 2.0
vertex 25.7217766718087 12.127108599362 2.0
endloop
endfacet
facet normal 0.0 0.0 -1.0
outer loop
vertex 25.7217766718087 12.127108599362 2.0
vertex 24.6128819820073 20.55 2.0
vertex 25.7217766718087 17.872891400638 2.0
endloop
endfacet
facet normal 0.0 0.0 -1.0
outer loop
vertex 25.7217766718087 12.127108599362 2.0
vertex 25.7217766718087 17.872891400638 2.0
vertex 26.1 15.0 2.0
endloop
endfacet
facet normal 0.0 0.0 -1.0
outer loop
vertex 7.15111472882933 7.15111472882932 2.0
vertex 8.23851921597652 13.1882666842824 2.0
vertex 9.45 5.38711801799273 2.0
endloop
endfacet
facet normal 0.0 0.0 -1.0
outer loop
vertex 8.23851921597652 13.1882666842824 2.0
vertex 7.15111472882933 7.15111472882932 2.0
vertex 8.0 15.0 2.0
endloop
endfacet
facet normal 0.0 0.0 -1.0
outer loop
vertex 9.45 5.38711801799273 2.0
vertex 8.23851921597652 13.1882666842824 2.0
vertex 8.93782217350893 11.5 2.0
endloop
endfacet
facet normal 0.0 0.0 -1.0
outer loop
vertex 9.45 5.38711801799273 2.0
vertex 8.93782217350893 11.5 2.0
vertex 10.0502525316942 10.0502525316942 2.0
endloop
endfacet
facet normal 0.0 0.0 -1.0
outer loop
vertex 9.45 5.38711801799273 2.0
vertex 10.0502525316942 10.0502525316942 2.0
vertex 12.127108599362 4.27822332819134 2.0
endloop
endfacet
facet normal 0.0 0.0 -1.0
outer loop
vertex 12.127108599362 4.27822332819134 2.0
vertex 10.0502525316942 10.0502525316942 2.0
vertex 11.5 8.93782217350893 2.0
endloop
endfacet
facet normal 0.0 0.0 -1.0
outer loop
vertex 12.127108599362 4.27822332819134 2.0
vertex 11.5 8.93782217350893 2.0
vertex 13.1882666842824 8.23851921597652 2.0
endloop
endfacet
facet normal 0.0 0.0 -1.0
outer loop
vertex 12.127108599362 4.27822332819134 2.0
vertex 13.1882666842824 8.23851921597652 2.0
vertex 15.0 3.9 2.0
endloop
endfacet
facet normal 0.0 0.0 -1.0
outer loop
vertex 15.0 3.9 2.0
vertex 13.1882666842824 8.23851921597652 2.0
vertex 15.0 8.0 2.0
endloop
endfacet
facet normal 0.0 0.0 -1.0
outer loop
vertex 15.0 3.9 2.0
vertex 15.0 8.0 2.0
vertex 16.8117333157176 8.23851921597652 2.0
endloop
endfacet
facet normal 0.0 0.0 -1.0
outer loop
vertex 15.0 3.9 2.0
vertex 16.8117333157176 8.23851921597652 2.0
vertex 17.872891400638 4.27822332819135 2.0
endloop
endfacet
facet normal 0.0 0.0 -1.0
outer loop
vertex 17.872891400638 4.27822332819135 2.0
vertex 16.8117333157176 8.23851921597652 2.0
vertex 18.5 8.93782217350893 2.0
endloop
endfacet
facet normal 0.0 0.0 -1.0
outer loop
vertex 17.872891400638 4.27822332819135 2.0
vertex 18.5 8.93782217350893 2.0
vertex 20.55 5.38711801799273 2.0
endloop
endfacet
facet normal 0.0 0.0 -1.0
outer loop
vertex 20.55 5.38711801799273 2.0
vertex 18.5 8.93782217350893 2.0
vertex 19.9497474683058 10.0502525316942 2.0
endloop
endfacet
facet normal 0.0 0.0 -1.0
outer loop
vertex 20.55 5.38711801799273 2.0
vertex 19.9497474683058 10.0502525316942 2.0
vertex 21.0621778264911 11.5 2.0
endloop
endfacet
facet normal 0.0 0.0 -1.0
outer loop
vertex 20.55 5.38711801799273 2.0
vertex 21.0621778264911 11.5 2.0
vertex 22.8488852711707 7.15111472882932 2.0
endloop
endfacet
facet normal 0.0 0.0 -1.0
outer loop
vertex 22.8488852711707 7.15111472882932 2.0
vertex 21.0621778264911 11.5 2.0
vertex 21.7614807840235 13.1882666842824 2.0
endloop
endfacet
facet normal 0.0 0.0 -1.0
outer loop
vertex 22.8488852711707 7.15111472882932 2.0
vertex 21.7614807840235 13.1882666842824 2.0
vertex 22.0 15.0 2.0
endloop
endfacet
facet normal 0.707106781186548 0.707106781186547 0.0
outer loop
vertex 19.9497474683058 19.9497474683058 0.0
vertex 21.0621778264911 18.5 2.0
vertex 21.0621778264911 18.5 0.0
endloop
endfacet
facet normal 0.866025403784439 0.499999999999999 0.0
outer loop
vertex 21.0621778264911 18.5 2.0
vertex 19.9497474683058 19.9497474683058 0.0
vertex 19.9497474683058 19.9497474683058 2.0
endloop
endfacet
facet normal 0.499999999999999 0.866025403784439 0.0
outer loop
vertex 18.5 21.0621778264911 2.0
vertex 19.9497474683058 19.9497474683058 0.0
vertex 18.5 21.0621778264911 0.0
endloop
endfacet
facet normal 0.707106781186548 0.707106781186547 0.0
outer loop
vertex 19.9497474683058 19.9497474683058 0.0
vertex 18.5 21.0621778264911 2.0
vertex 19.9497474683058 19.9497474683058 2.0
endloop
endfacet
facet normal 0.258819045102521 0.965925826289068 0.0
outer loop
vertex 16.8117333157176 21.7614807840235 2.0
vertex 18.5 21.0621778264911 0.0
vertex 16.8117333157176 21.7614807840235 0.0
endloop
endfacet
facet normal 0.499999999999999 0.866025403784439 0.0
outer loop
vertex 18.5 21.0621778264911 0.0
vertex 16.8117333157176 21.7614807840235 2.0
vertex 18.5 21.0621778264911 2.0
endloop
endfacet
facet normal 7.4853323123434e-016 1.0 0.0
outer loop
vertex 15.0 22.0 2.0
vertex 16.8117333157176 21.7614807840235 0.0
vertex 15.0 22.0 0.0
endloop
endfacet
facet normal 0.258819045102521 0.965925826289068 0.0
outer loop
vertex 16.8117333157176 21.7614807840235 0.0
vertex 15.0 22.0 2.0
vertex 16.8117333157176 21.7614807840235 2.0
endloop
endfacet
facet normal -0.258819045102521 0.965925826289068 0.0
outer loop
vertex 13.1882666842824 21.7614807840235 2.0
vertex 15.0 22.0 0.0
vertex 13.1882666842824 21.7614807840235 0.0
endloop
endfacet
facet normal 7.4853323123434e-016 1.0 0.0
outer loop
vertex 15.0 22.0 0.0
vertex 13.1882666842824 21.7614807840235 2.0
vertex 15.0 22.0 2.0
endloop
endfacet
facet normal -0.5 0.866025403784439 0.0
outer loop
vertex 11.5 21.0621778264911 2.0
vertex 13.1882666842824 21.7614807840235 0.0
vertex 11.5 21.0621778264911 0.0
endloop
endfacet
facet normal -0.258819045102521 0.965925826289068 0.0
outer loop
vertex 13.1882666842824 21.7614807840235 0.0
vertex 11.5 21.0621778264911 2.0
vertex 13.1882666842824 21.7614807840235 2.0
endloop
endfacet
facet normal -0.707106781186548 0.707106781186547 0.0
outer loop
vertex 10.0502525316942 19.9497474683058 2.0
vertex 11.5 21.0621778264911 0.0
vertex 10.0502525316942 19.9497474683058 0.0
endloop
endfacet
facet normal -0.5 0.866025403784439 0.0
outer loop
vertex 11.5 21.0621778264911 0.0
vertex 10.0502525316942 19.9497474683058 2.0
vertex 11.5 21.0621778264911 2.0
endloop
endfacet
facet normal -0.707106781186548 0.707106781186547 0.0
outer loop
vertex 10.0502525316942 19.9497474683058 2.0
vertex 8.93782217350893 18.5 0.0
vertex 8.93782217350893 18.5 2.0
endloop
endfacet
facet normal -0.866025403784439 0.5 0.0
outer loop
vertex 8.93782217350893 18.5 0.0
vertex 10.0502525316942 19.9497474683058 2.0
vertex 9.49403735260155 19.2248737341529 0.0
endloop
endfacet
facet normal -0.793353340291236 0.60876142900872 -0.0
outer loop
vertex 9.49403735260155 19.2248737341529 0.0
vertex 10.0502525316942 19.9497474683058 2.0
vertex 10.0502525316942 19.9497474683058 0.0
endloop
endfacet
facet normal -0.866025403784439 0.5 0.0
outer loop
vertex 8.93782217350893 18.5 2.0
vertex 8.23851921597652 16.8117333157177 0.0
vertex 8.23851921597652 16.8117333157177 2.0
endloop
endfacet
facet normal -0.965925826289068 0.258819045102522 0.0
outer loop
vertex 8.23851921597652 16.8117333157177 0.0
vertex 8.93782217350893 18.5 2.0
vertex 8.93782217350893 18.5 0.0
endloop
endfacet
facet normal -0.965925826289068 0.258819045102522 0.0
outer loop
vertex 8.23851921597652 16.8117333157177 2.0
vertex 8.0 15.0 0.0
vertex 8.0 15.0 2.0
endloop
endfacet
facet normal -1.0 1.60399978121644e-016 0.0
outer loop
vertex 8.0 15.0 0.0
vertex 8.23851921597652 16.8117333157177 2.0
vertex 8.23851921597652 16.8117333157177 0.0
endloop
endfacet
facet normal -1.0 1.60399978121644e-016 0.0
outer loop
vertex 8.0 15.0 2.0
vertex 8.23851921597652 13.1882666842824 0.0
vertex 8.23851921597652 13.1882666842824 2.0
endloop
endfacet
facet normal -0.965925826289068 -0.258819045102521 0.0
outer loop
vertex 8.23851921597652 13.1882666842824 0.0
vertex 8.0 15.0 2.0
vertex 8.0 15.0 0.0
endloop
endfacet
facet normal -0.965925826289068 -0.258819045102521 0.0
outer loop
vertex 8.23851921597652 13.1882666842824 2.0
vertex 8.93782217350893 11.5 0.0
vertex 8.93782217350893 11.5 2.0
endloop
endfacet
facet normal -0.866025403784439 -0.5 0.0
outer loop
vertex 8.93782217350893 11.5 0.0
vertex 8.23851921597652 13.1882666842824 2.0
vertex 8.23851921597652 13.1882666842824 0.0
endloop
endfacet
facet normal -0.866025403784439 -0.5 0.0
outer loop
vertex 8.93782217350893 11.5 2.0
vertex 10.0502525316942 10.0502525316942 0.0
vertex 10.0502525316942 10.0502525316942 2.0
endloop
endfacet
facet normal -0.707106781186547 -0.707106781186548 0.0
outer loop
vertex 10.0502525316942 10.0502525316942 0.0
vertex 8.93782217350893 11.5 2.0
vertex 8.93782217350893 11.5 0.0
endloop
endfacet
facet normal -0.5 -0.866025403784439 0.0
outer loop
vertex 11.5 8.93782217350893 2.0
vertex 10.0502525316942 10.0502525316942 0.0
vertex 11.5 8.93782217350893 0.0
endloop
endfacet
facet normal -0.707106781186547 -0.707106781186548 0.0
outer loop
vertex 10.0502525316942 10.0502525316942 0.0
vertex 11.5 8.93782217350893 2.0
vertex 10.0502525316942 10.0502525316942 2.0
endloop
endfacet
facet normal -0.258819045102521 -0.965925826289068 0.0
outer loop
vertex 13.1882666842824 8.23851921597652 2.0
vertex 11.5 8.93782217350893 0.0
vertex 13.1882666842824 8.23851921597652 0.0
endloop
endfacet
facet normal -0.5 -0.866025403784439 0.0
outer loop
vertex 11.5 8.93782217350893 0.0
vertex 13.1882666842824 8.23851921597652 2.0
vertex 11.5 8.93782217350893 2.0
endloop
endfacet
facet normal -5.88133253112696e-016 -1.0 0.0
outer loop
vertex 15.0 8.0 2.0
vertex 13.1882666842824 8.23851921597652 0.0
vertex 15.0 8.0 0.0
endloop
endfacet
facet normal -0.258819045102521 -0.965925826289068 0.0
outer loop
vertex 13.1882666842824 8.23851921597652 0.0
vertex 15.0 8.0 2.0
vertex 13.1882666842824 8.23851921597652 2.0
endloop
endfacet
facet normal 0.25881904510252 -0.965925826289069 0.0
outer loop
vertex 16.8117333157176 8.23851921597652 2.0
vertex 15.0 8.0 0.0
vertex 16.8117333157176 8.23851921597652 0.0
endloop
endfacet
facet normal -5.88133253112696e-016 -1.0 0.0
outer loop
vertex 15.0 8.0 0.0
vertex 16.8117333157176 8.23851921597652 2.0
vertex 15.0 8.0 2.0
endloop
endfacet
facet normal 0.499999999999999 -0.866025403784439 0.0
outer loop
vertex 18.5 8.93782217350893 2.0
vertex 16.8117333157176 8.23851921597652 0.0
vertex 18.5 8.93782217350893 0.0
endloop
endfacet
facet normal 0.25881904510252 -0.965925826289069 0.0
outer loop
vertex 16.8117333157176 8.23851921597652 0.0
vertex 18.5 8.93782217350893 2.0
vertex 16.8117333157176 8.23851921597652 2.0
endloop
endfacet
facet normal 0.707106781186548 -0.707106781186547 0.0
outer loop
vertex 19.9497474683058 10.0502525316942 2.0
vertex 18.5 8.93782217350893 0.0
vertex 19.9497474683058 10.0502525316942 0.0
endloop
endfacet
facet normal 0.499999999999999 -0.866025403784439 0.0
outer loop
vertex 18.5 8.93782217350893 0.0
vertex 19.9497474683058 10.0502525316942 2.0
vertex 18.5 8.93782217350893 2.0
endloop
endfacet
facet normal 0.866025403784439 -0.5 0.0
outer loop
vertex 21.0621778264911 11.5 0.0
vertex 19.9497474683058 10.0502525316942 2.0
vertex 19.9497474683058 10.0502525316942 0.0
endloop
endfacet
facet normal 0.707106781186548 -0.707106781186547 0.0
outer loop
vertex 19.9497474683058 10.0502525316942 2.0
vertex 21.0621778264911 11.5 0.0
vertex 21.0621778264911 11.5 2.0
endloop
endfacet
facet normal 0.965925826289068 -0.258819045102521 0.0
outer loop
vertex 21.7614807840235 13.1882666842824 0.0
vertex 21.0621778264911 11.5 2.0
vertex 21.0621778264911 11.5 0.0
endloop
endfacet
facet normal 0.866025403784439 -0.5 0.0
outer loop
vertex 21.0621778264911 11.5 2.0
vertex 21.7614807840235 13.1882666842824 0.0
vertex 21.7614807840235 13.1882666842824 2.0
endloop
endfacet
facet normal 1.0 -4.63377714573639e-016 0.0
outer loop
vertex 22.0 15.0 0.0
vertex 21.7614807840235 13.1882666842824 2.0
vertex 21.7614807840235 13.1882666842824 0.0
endloop
endfacet
facet normal 0.965925826289068 -0.258819045102521 0.0
outer loop
vertex 21.7614807840235 13.1882666842824 2.0
vertex 22.0 15.0 0.0
vertex 22.0 15.0 2.0
endloop
endfacet
facet normal 0.965925826289069 0.25881904510252 0.0
outer loop
vertex 21.7614807840235 16.8117333157176 0.0
vertex 22.0 15.0 2.0
vertex 22.0 15.0 0.0
endloop
endfacet
facet normal 1.0 -4.63377714573639e-016 0.0
outer loop
vertex 22.0 15.0 2.0
vertex 21.7614807840235 16.8117333157176 0.0
vertex 21.7614807840235 16.8117333157176 2.0
endloop
endfacet
facet normal 0.866025403784439 0.499999999999999 0.0
outer loop
vertex 21.0621778264911 18.5 0.0
vertex 21.7614807840235 16.8117333157176 2.0
vertex 21.7614807840235 16.8117333157176 0.0
endloop
endfacet
facet normal 0.965925826289069 0.25881904510252 0.0
outer loop
vertex 21.7614807840235 16.8117333157176 2.0
vertex 21.0621778264911 18.5 0.0
vertex 21.0621778264911 18.5 2.0
endloop
endfacet
facet normal -0.0 -0.0 1.0
outer loop
vertex 0.0 0.0 0.0
vertex 8.93782217350893 11.5 0.0
vertex 0.0 30.0 0.0
endloop
endfacet
facet normal -0.0 -0.0 1.0
outer loop
vertex 8.93782217350893 11.5 0.0
vertex 0.0 0.0 0.0
vertex 10.0502525316942 10.0502525316942 0.0
endloop
endfacet
facet normal -0.0 -0.0 1.0
outer loop
vertex 10.0502525316942 10.0502525316942 0.0
vertex 0.0 0.0 0.0
vertex 11.5 8.93782217350893 0.0
endloop
endfacet
facet normal -0.0 -0.0 1.0
outer loop
vertex 11.5 8.93782217350893 0.0
vertex 0.0 0.0 0.0
vertex 30.0 0.0 0.0
endloop
endfacet
facet normal -0.0 -0.0 1.0
outer loop
vertex 0.0 30.0 0.0
vertex 8.93782217350893 11.5 0.0
vertex 8.23851921597652 13.1882666842824 0.0
endloop
endfacet
facet normal -0.0 -0.0 1.0
outer loop
vertex 0.0 30.0 0.0
vertex 8.23851921597652 13.1882666842824 0.0
vertex 8.0 15.0 0.0
endloop
endfacet
facet normal -0.0 -0.0 1.0
outer loop
vertex 11.5 8.93782217350893 0.0
vertex 30.0 0.0 0.0
vertex 13.1882666842824 8.23851921597652 0.0
endloop
endfacet
facet normal -0.0 -0.0 1.0
outer loop
vertex 13.1882666842824 8.23851921597652 0.0
vertex 30.0 0.0 0.0
vertex 15.0 8.0 0.0
endloop
endfacet
facet normal -0.0 -0.0 1.0
outer loop
vertex 15.0 8.0 0.0
vertex 30.0 0.0 0.0
vertex 16.8117333157176 8.23851921597652 0.0
endloop
endfacet
facet normal -0.0 -0.0 1.0
outer loop
vertex 16.8117333157176 8.23851921597652 0.0
vertex 30.0 0.0 0.0
vertex 18.5 8.93782217350893 0.0
endloop
endfacet
facet normal -0.0 -0.0 1.0
outer loop
vertex 18.5 8.93782217350893 0.0
vertex 30.0 0.0 0.0
vertex 19.9497474683058 10.0502525316942 0.0
endloop
endfacet
facet normal -0.0 -0.0 1.0
outer loop
vertex 19.9497474683058 10.0502525316942 0.0
vertex 30.0 0.0 0.0
vertex 21.0621778264911 11.5 0.0
endloop
endfacet
facet normal -0.0 -0.0 1.0
outer loop
vertex 21.0621778264911 11.5 0.0
vertex 30.0 0.0 0.0
vertex 21.7614807840235 13.1882666842824 0.0
endloop
endfacet
facet normal -0.0 -0.0 1.0
outer loop
vertex 21.7614807840235 13.1882666842824 0.0
vertex 30.0 0.0 0.0
vertex 22.0 15.0 0.0
endloop
endfacet
facet normal -0.0 -0.0 1.0
outer loop
vertex 0.0 30.0 0.0
vertex 11.5 21.0621778264911 0.0
vertex 30.0 30.0 0.0
endloop
endfacet
facet normal -0.0 -0.0 1.0
outer loop
vertex 11.5 21.0621778264911 0.0
vertex 0.0 30.0 0.0
vertex 10.0502525316942 19.9497474683058 0.0
endloop
endfacet
facet normal -0.0 -0.0 1.0
outer loop
vertex 10.0502525316942 19.9497474683058 0.0
vertex 0.0 30.0 0.0
vertex 8.93782217350893 18.5 0.0
endloop
endfacet
facet normal -0.0 -0.0 1.0
outer loop
vertex 8.93782217350893 18.5 0.0
vertex 0.0 30.0 0.0
vertex 8.23851921597652 16.8117333157177 0.0
endloop
endfacet
facet normal -0.0 -0.0 1.0
outer loop
vertex 8.23851921597652 16.8117333157177 0.0
vertex 0.0 30.0 0.0
vertex 8.0 15.0 0.0
endloop
endfacet
facet normal -0.0 -0.0 1.0
outer loop
vertex 10.0502525316942 19.9497474683058 0.0
vertex 8.93782217350893 18.5 0.0
vertex 9.49403735260155 19.2248737341529 0.0
endloop
endfacet
facet normal -0.0 -0.0 1.0
outer loop
vertex 30.0 30.0 0.0
vertex 11.5 21.0621778264911 0.0
vertex 13.1882666842824 21.7614807840235 0.0
endloop
endfacet
facet normal -0.0 -0.0 1.0
outer loop
vertex 30.0 30.0 0.0
vertex 13.1882666842824 21.7614807840235 0.0
vertex 15.0 22.0 0.0
endloop
endfacet
facet normal -0.0 -0.0 1.0
outer loop
vertex 30.0 30.0 0.0
vertex 15.0 22.0 0.0
vertex 16.8117333157176 21.7614807840235 0.0
endloop
endfacet
facet normal -0.0 -0.0 1.0
outer loop
vertex 30.0 30.0 0.0
vertex 16.8117333157176 21.7614807840235 0.0
vertex 18.5 21.0621778264911 0.0
endloop
endfacet
facet normal -0.0 -0.0 1.0
outer loop
vertex 30.0 30.0 0.0
vertex 18.5 21.0621778264911 0.0
vertex 19.9497474683058 19.9497474683058 0.0
endloop
endfacet
facet normal -0.0 -0.0 1.0
outer loop
vertex 30.0 30.0 0.0
vertex 19.9497474683058 19.9497474683058 0.0
vertex 21.0621778264911 18.5 0.0
endloop
endfacet
facet normal -0.0 -0.0 1.0
outer loop
vertex 30.0 30.0 0.0
vertex 21.0621778264911 18.5 0.0
vertex 21.7614807840235 16.8117333157176 0.0
endloop
endfacet
facet normal -0.0 -0.0 1.0
outer loop
vertex 30.0 30.0 0.0
vertex 21.7614807840235 16.8117333157176 0.0
vertex 22.0 15.0 0.0
endloop
endfacet
facet normal -0.0 -0.0 1.0
outer loop
vertex 30.0 30.0 0.0
vertex 22.0 15.0 0.0
vertex 30.0 0.0 0.0
endloop
endfacet
endsolid ball
