solid limit
facet normal 0.0 0.0 -1.0
outer loop
vertex 0.0 10.0 7.5
vertex 2.0 8.1 7.5
vertex 0.0 0.0 7.5
endloop
endfacet
facet normal 0.0 0.0 -1.0
outer loop
vertex 2.0 8.1 7.5
vertex 0.0 10.0 7.5
vertex 17.0 10.0 7.5
endloop
endfacet
facet normal 0.0 0.0 -1.0
outer loop
vertex 2.0 8.1 7.5
vertex 17.0 10.0 7.5
vertex 15.1 8.1 7.5
endloop
endfacet
facet normal 0.0 0.0 -1.0
outer loop
vertex 15.1 8.1 7.5
vertex 17.0 10.0 7.5
vertex 15.1 2.0 7.5
endloop
endfacet
facet normal 0.0 0.0 -1.0
outer loop
vertex 0.0 0.0 7.5
vertex 2.0 2.0 7.5
vertex 17.0 0.0 7.5
endloop
endfacet
facet normal 0.0 0.0 -1.0
outer loop
vertex 2.0 2.0 7.5
vertex 0.0 0.0 7.5
vertex 2.0 8.1 7.5
endloop
endfacet
facet normal 0.0 0.0 -1.0
outer loop
vertex 17.0 0.0 7.5
vertex 2.0 2.0 7.5
vertex 15.1 2.0 7.5
endloop
endfacet
facet normal 0.0 0.0 -1.0
outer loop
vertex 17.0 0.0 7.5
vertex 15.1 2.0 7.5
vertex 17.0 10.0 7.5
endloop
endfacet
facet normal 0.0 1.0 0.0
outer loop
vertex 0.0 0.0 7.5
vertex 17.0 0.0 0.0
vertex 0.0 0.0 0.0
endloop
endfacet
facet normal 0.0 1.0 0.0
outer loop
vertex 17.0 0.0 0.0
vertex 0.0 0.0 7.5
vertex 17.0 0.0 7.5
endloop
endfacet
facet normal 1.0 -0.0 -0.0
outer loop
vertex 0.0 10.0 0.0
vertex 0.0 0.0 7.5
vertex 0.0 0.0 0.0
endloop
endfacet
facet normal 1.0 -0.0 -0.0
outer loop
vertex 0.0 0.0 7.5
vertex 0.0 10.0 0.0
vertex 0.0 10.0 7.5
endloop
endfacet
facet normal 0.0 -1.0 -0.0
outer loop
vertex 17.0 10.0 7.5
vertex 0.0 10.0 0.0
vertex 17.0 10.0 0.0
endloop
endfacet
facet normal 0.0 -1.0 -0.0
outer loop
vertex 0.0 10.0 0.0
vertex 17.0 10.0 7.5
vertex 0.0 10.0 7.5
endloop
endfacet
facet normal -1.0 -0.0 -0.0
outer loop
vertex 17.0 10.0 7.5
vertex 17.0 0.0 0.0
vertex 17.0 0.0 7.5
endloop
endfacet
facet normal -1.0 -0.0 -0.0
outer loop
vertex 17.0 0.0 0.0
vertex 17.0 10.0 7.5
vertex 17.0 10.0 0.0
endloop
endfacet
facet normal 0.0 -1.0 0.0
outer loop
vertex 15.1 2.0 7.5
vertex 2.0 2.0 1.0
vertex 15.1 2.0 1.0
endloop
endfacet
facet normal 0.0 -1.0 0.0
outer loop
vertex 2.0 2.0 1.0
vertex 15.1 2.0 7.5
vertex 2.0 2.0 7.5
endloop
endfacet
facet normal 1.0 0.0 0.0
outer loop
vertex 15.1 7.0 1.76247905159244e-015
vertex 15.1 3.0 1.0
vertex 15.1 3.0 1.76247905159244e-015
endloop
endfacet
facet normal 1.0 0.0 0.0
outer loop
vertex 15.1 3.0 1.0
vertex 15.1 2.0 7.5
vertex 15.1 2.0 1.0
endloop
endfacet
facet normal 1.0 0.0 0.0
outer loop
vertex 15.1 2.0 7.5
vertex 15.1 3.0 1.0
vertex 15.1 8.1 7.5
endloop
endfacet
facet normal 1.0 0.0 0.0
outer loop
vertex 15.1 8.1 7.5
vertex 15.1 3.0 1.0
vertex 15.1 7.0 1.0
endloop
endfacet
facet normal 1.0 0.0 0.0
outer loop
vertex 15.1 7.0 1.0
vertex 15.1 3.0 1.0
vertex 15.1 7.0 1.76247905159244e-015
endloop
endfacet
facet normal 1.0 0.0 0.0
outer loop
vertex 15.1 8.1 7.5
vertex 15.1 7.0 1.0
vertex 15.1 8.1 1.0
endloop
endfacet
facet normal -1.0 -3.18458704291655e-033 3.70398399634137e-017
outer loop
vertex 2.0 8.1 7.5
vertex 2.0 2.0 1.0
vertex 2.0 2.0 7.5
endloop
endfacet
facet normal -1.0 -3.18458704291655e-033 3.70398399634137e-017
outer loop
vertex 2.0 2.0 1.0
vertex 2.0 8.1 7.5
vertex 2.0 3.0 1.0
endloop
endfacet
facet normal -1.0 -3.18458704291655e-033 3.70398399634137e-017
outer loop
vertex 2.0 3.0 1.0
vertex 2.0 8.1 7.5
vertex 2.0 3.0 1.76247905159244e-015
endloop
endfacet
facet normal -1.0 -3.18458704291655e-033 3.70398399634137e-017
outer loop
vertex 2.0 3.0 1.76247905159244e-015
vertex 2.0 8.1 7.5
vertex 2.0 7.0 1.0
endloop
endfacet
facet normal -1.0 -3.18458704291655e-033 3.70398399634137e-017
outer loop
vertex 2.0 7.0 1.0
vertex 2.0 8.1 7.5
vertex 2.0 8.1 1.0
endloop
endfacet
facet normal -1.0 -3.18458704291655e-033 3.70398399634137e-017
outer loop
vertex 2.0 7.0 1.76247905159244e-015
vertex 2.0 3.0 1.76247905159244e-015
vertex 2.0 7.0 1.0
endloop
endfacet
facet normal 0.0 0.0 -1.0
outer loop
vertex 2.0 8.1 1.0
vertex 15.1 7.0 1.0
vertex 2.0 7.0 1.0
endloop
endfacet
facet normal 0.0 0.0 -1.0
outer loop
vertex 15.1 7.0 1.0
vertex 2.0 8.1 1.0
vertex 15.1 8.1 1.0
endloop
endfacet
facet normal 0.0 0.0 -1.0
outer loop
vertex 15.1 3.0 1.0
vertex 2.0 2.0 1.0
vertex 2.0 3.0 1.0
endloop
endfacet
facet normal 0.0 0.0 -1.0
outer loop
vertex 2.0 2.0 1.0
vertex 15.1 3.0 1.0
vertex 15.1 2.0 1.0
endloop
endfacet
facet normal 0.0 -1.0 0.0
outer loop
vertex 15.1 3.0 1.0
vertex 2.0 3.0 1.76247905159244e-015
vertex 15.1 3.0 1.76247905159244e-015
endloop
endfacet
facet normal 0.0 -1.0 0.0
outer loop
vertex 2.0 3.0 1.76247905159244e-015
vertex 15.1 3.0 1.0
vertex 2.0 3.0 1.0
endloop
endfacet
facet normal -0.0 1.0 -0.0
outer loop
vertex 2.0 7.0 1.0
vertex 15.1 7.0 1.76247905159244e-015
vertex 2.0 7.0 1.76247905159244e-015
endloop
endfacet
facet normal -0.0 1.0 -0.0
outer loop
vertex 15.1 7.0 1.76247905159244e-015
vertex 2.0 7.0 1.0
vertex 15.1 7.0 1.0
endloop
endfacet
facet normal -1.04051809995889e-017 7.57695916682643e-018 1.0
outer loop
vertex 0.0 0.0 0.0
vertex 2.0 3.0 1.76247905159244e-015
vertex 0.0 10.0 0.0
endloop
endfacet
facet normal -1.04051809995889e-017 7.57695916682643e-018 1.0
outer loop
vertex 2.0 3.0 1.76247905159244e-015
vertex 0.0 0.0 0.0
vertex 17.0 0.0 0.0
endloop
endfacet
facet normal -1.04051809995889e-017 7.57695916682643e-018 1.0
outer loop
vertex 2.0 3.0 1.76247905159244e-015
vertex 17.0 0.0 0.0
vertex 15.1 3.0 1.76247905159244e-015
endloop
endfacet
facet normal -1.04051809995889e-017 7.57695916682643e-018 1.0
outer loop
vertex 15.1 3.0 1.76247905159244e-015
vertex 17.0 0.0 0.0
vertex 15.1 7.0 1.76247905159244e-015
endloop
endfacet
facet normal -1.04051809995889e-017 7.57695916682643e-018 1.0
outer loop
vertex 0.0 10.0 0.0
vertex 2.0 7.0 1.76247905159244e-015
vertex 17.0 10.0 0.0
endloop
endfacet
facet normal -1.04051809995889e-017 7.57695916682643e-018 1.0
outer loop
vertex 2.0 7.0 1.76247905159244e-015
vertex 0.0 10.0 0.0
vertex 2.0 3.0 1.76247905159244e-015
endloop
endfacet
facet normal -1.04051809995889e-017 7.57695916682643e-018 1.0
outer loop
vertex 17.0 10.0 0.0
vertex 2.0 7.0 1.76247905159244e-015
vertex 15.1 7.0 1.76247905159244e-015
endloop
endfacet
facet normal -1.04051809995889e-017 7.57695916682643e-018 1.0
outer loop
vertex 17.0 10.0 0.0
vertex 15.1 7.0 1.76247905159244e-015
vertex 17.0 0.0 0.0
endloop
endfacet
facet normal 0.0 1.0 0.0
outer loop
vertex 2.0 8.1 7.5
vertex 15.1 8.1 1.0
vertex 2.0 8.1 1.0
endloop
endfacet
facet normal 0.0 1.0 0.0
outer loop
vertex 15.1 8.1 1.0
vertex 2.0 8.1 7.5
vertex 15.1 8.1 7.5
endloop
endfacet
endsolid limit
