solid motor-gear-v
facet normal -0.0 -0.0 1.0
outer loop
vertex 1.5 -2.5 1.0
vertex -1.5 2.5 1.0
vertex -1.5 -2.5 1.0
endloop
endfacet
facet normal -0.0 -0.0 1.0
outer loop
vertex -1.5 2.5 1.0
vertex 1.5 -2.5 1.0
vertex 1.5 2.5 1.0
endloop
endfacet
facet normal 0.0 1.0 0.0
outer loop
vertex -1.5 -2.5 6.99999999999999
vertex 1.5 -2.5 1.0
vertex -1.5 -2.5 1.0
endloop
endfacet
facet normal 0.0 1.0 0.0
outer loop
vertex 1.5 -2.5 1.0
vertex -1.5 -2.5 6.99999999999999
vertex 1.5 -2.5 6.99999999999999
endloop
endfacet
facet normal 1.0 0.0 0.0
outer loop
vertex -1.5 2.5 1.0
vertex -1.5 -2.5 6.99999999999999
vertex -1.5 -2.5 1.0
endloop
endfacet
facet normal 1.0 0.0 0.0
outer loop
vertex -1.5 -2.5 6.99999999999999
vertex -1.5 2.5 1.0
vertex -1.5 2.5 6.99999999999999
endloop
endfacet
facet normal 0.0 -1.0 0.0
outer loop
vertex 1.5 2.5 6.99999999999999
vertex -1.5 2.5 1.0
vertex 1.5 2.5 1.0
endloop
endfacet
facet normal 0.0 -1.0 0.0
outer loop
vertex -1.5 2.5 1.0
vertex 1.5 2.5 6.99999999999999
vertex -1.5 2.5 6.99999999999999
endloop
endfacet
facet normal -1.0 0.0 0.0
outer loop
vertex 1.5 2.5 6.99999999999999
vertex 1.5 -2.5 1.0
vertex 1.5 -2.5 6.99999999999999
endloop
endfacet
facet normal -1.0 0.0 0.0
outer loop
vertex 1.5 -2.5 1.0
vertex 1.5 2.5 6.99999999999999
vertex 1.5 2.5 1.0
endloop
endfacet
facet normal 0.923879532511287 -0.38268343236509 9.70401589953722e-034
outer loop
vertex 3.80422606518061 -1.23606797749979 -3.52495810318487e-016
vertex 3.56402609675347 -1.81596199895819 6.99999999999999
vertex 3.56402609675347 -1.81596199895819 -3.52495810318487e-016
endloop
endfacet
facet normal 0.923879532511287 -0.38268343236509 9.70401589953722e-034
outer loop
vertex 3.56402609675347 -1.81596199895819 6.99999999999999
vertex 3.80422606518061 -1.23606797749979 -3.52495810318487e-016
vertex 3.80422606518061 -1.23606797749979 6.99999999999999
endloop
endfacet
facet normal 0.760405965600031 -0.649448048330184 -7.15016361312078e-033
outer loop
vertex 3.23606797749979 -2.35114100916989 -3.52495810318487e-016
vertex 2.82842712474619 -2.82842712474619 6.99999999999999
vertex 2.82842712474619 -2.82842712474619 -3.52495810318487e-016
endloop
endfacet
facet normal 0.760405965600031 -0.649448048330184 -7.15016361312078e-033
outer loop
vertex 2.82842712474619 -2.82842712474619 6.99999999999999
vertex 3.23606797749979 -2.35114100916989 -3.52495810318487e-016
vertex 3.23606797749979 -2.35114100916989 6.99999999999999
endloop
endfacet
facet normal 0.996917333733128 -0.0784590957278452 -2.24003559995613e-019
outer loop
vertex 4.0 -1.03063940903973e-015 -3.52495810318487e-016
vertex 3.95075336238055 -0.625737860160924 6.99999999999999
vertex 3.95075336238055 -0.625737860160924 -3.52495810318487e-016
endloop
endfacet
facet normal 0.996917333733128 -0.0784590957278452 -2.24003559995613e-019
outer loop
vertex 3.95075336238055 -0.625737860160924 6.99999999999999
vertex 4.0 -1.03063940903973e-015 -3.52495810318487e-016
vertex 4.0 -1.05748743095546e-015 6.99999999999999
endloop
endfacet
facet normal 0.522498564715949 -0.852640164354092 0.0
outer loop
vertex 2.35114100916989 -3.23606797749979 6.99999999999999
vertex 1.81596199895819 -3.56402609675347 -3.52495810318487e-016
vertex 2.35114100916989 -3.23606797749979 -3.52495810318487e-016
endloop
endfacet
facet normal 0.522498564715949 -0.852640164354092 0.0
outer loop
vertex 1.81596199895819 -3.56402609675347 -3.52495810318487e-016
vertex 2.35114100916989 -3.23606797749979 6.99999999999999
vertex 1.81596199895819 -3.56402609675347 6.99999999999999
endloop
endfacet
facet normal -0.649448048330184 -0.760405965600031 -7.15016361312078e-033
outer loop
vertex -2.35114100916989 -3.23606797749979 6.99999999999999
vertex -2.82842712474619 -2.82842712474619 -3.52495810318487e-016
vertex -2.35114100916989 -3.23606797749979 -3.52495810318487e-016
endloop
endfacet
facet normal -0.649448048330184 -0.760405965600031 -7.15016361312078e-033
outer loop
vertex -2.82842712474619 -2.82842712474619 -3.52495810318487e-016
vertex -2.35114100916989 -3.23606797749979 6.99999999999999
vertex -2.82842712474619 -2.82842712474619 6.99999999999999
endloop
endfacet
facet normal 0.649448048330182 0.760405965600032 5.62730080427902e-034
outer loop
vertex 2.35114100916989 3.23606797749979 6.99999999999999
vertex 2.82842712474619 2.82842712474619 -3.52495810318487e-016
vertex 2.35114100916989 3.23606797749979 -3.52495810318487e-016
endloop
endfacet
facet normal 0.649448048330182 0.760405965600032 5.62730080427902e-034
outer loop
vertex 2.82842712474619 2.82842712474619 -3.52495810318487e-016
vertex 2.35114100916989 3.23606797749979 6.99999999999999
vertex 2.82842712474619 2.82842712474619 6.99999999999999
endloop
endfacet
facet normal -0.382683432365091 -0.923879532511286 -1.09257505972884e-018
outer loop
vertex -1.23606797749979 -3.80422606518061 6.99999999999999
vertex -1.81596199895819 -3.56402609675347 -3.52495810318487e-016
vertex -1.23606797749979 -3.80422606518061 -3.52495810318487e-016
endloop
endfacet
facet normal -0.382683432365091 -0.923879532511286 -1.09257505972884e-018
outer loop
vertex -1.81596199895819 -3.56402609675347 -3.52495810318487e-016
vertex -1.23606797749979 -3.80422606518061 6.99999999999999
vertex -1.81596199895819 -3.56402609675347 6.99999999999999
endloop
endfacet
facet normal -0.522498564715949 0.852640164354092 2.64988444791188e-033
outer loop
vertex -2.35114100916989 3.23606797749979 6.99999999999999
vertex -1.81596199895819 3.56402609675347 -3.52495810318487e-016
vertex -2.35114100916989 3.23606797749979 -3.52495810318487e-016
endloop
endfacet
facet normal -0.522498564715949 0.852640164354092 2.64988444791188e-033
outer loop
vertex -1.81596199895819 3.56402609675347 -3.52495810318487e-016
vertex -2.35114100916989 3.23606797749979 6.99999999999999
vertex -1.81596199895819 3.56402609675347 6.99999999999999
endloop
endfacet
facet normal -0.233445363855906 0.972369920397676 2.75428662820072e-020
outer loop
vertex -1.23606797749979 3.80422606518061 6.99999999999999
vertex -0.625737860160923 3.95075336238055 -3.52495810318487e-016
vertex -1.23606797749979 3.80422606518061 -3.52495810318487e-016
endloop
endfacet
facet normal -0.233445363855906 0.972369920397676 2.75428662820072e-020
outer loop
vertex -0.625737860160923 3.95075336238055 -3.52495810318487e-016
vertex -1.23606797749979 3.80422606518061 6.99999999999999
vertex -0.625737860160923 3.95075336238055 6.99999999999999
endloop
endfacet
facet normal 3.90796397339077e-015 1.61873167904391e-015 1.0
outer loop
vertex -4.54043057745049 -2.07183898905033 7.0
vertex -3.80422606518061 -1.23606797749979 6.99999999999999
vertex -4.67558064950616 -1.74555785213783 7.0
endloop
endfacet
facet normal 3.90796397339077e-015 1.61873167904391e-015 1.0
outer loop
vertex -3.80422606518061 -1.23606797749979 6.99999999999999
vertex -4.54043057745049 -2.07183898905033 7.0
vertex -3.56402609675347 -1.81596199895819 6.99999999999999
endloop
endfacet
facet normal 3.21647900418233e-015 2.74713259267089e-015 1.0
outer loop
vertex -3.67797263024489 -3.37350618146254 7.0
vertex -3.23606797749979 -2.35114100916989 6.99999999999999
vertex -3.90733440320114 -3.10495804911392 7.0
endloop
endfacet
facet normal 3.21647900418233e-015 2.74713259267089e-015 1.0
outer loop
vertex -3.23606797749979 -2.35114100916989 6.99999999999999
vertex -3.67797263024489 -3.37350618146254 7.0
vertex -2.82842712474619 -2.82842712474619 6.99999999999999
endloop
endfacet
facet normal 2.21014265951754e-015 3.606625027729e-015 1.0
outer loop
vertex -2.45548909604877 -4.34495108423353 7.0
vertex -2.35114100916989 -3.23606797749979 6.99999999999999
vertex -2.7566110415112 -4.16042331872792 7.0
endloop
endfacet
facet normal 2.21014265951754e-015 3.606625027729e-015 1.0
outer loop
vertex -2.35114100916989 -3.23606797749979 6.99999999999999
vertex -2.45548909604877 -4.34495108423353 7.0
vertex -1.81596199895819 -3.56402609675347 6.99999999999999
endloop
endfacet
facet normal 9.87462152369777e-016 4.11307587623882e-015 1.0
outer loop
vertex -0.992645180732867 -4.89108190182544 7.0
vertex -1.23606797749979 -3.80422606518061 6.99999999999999
vertex -1.33605138463965 -4.80863736653108 7.0
endloop
endfacet
facet normal 9.87462152369777e-016 4.11307587623882e-015 1.0
outer loop
vertex -1.23606797749979 -3.80422606518061 6.99999999999999
vertex -0.992645180732867 -4.89108190182544 7.0
vertex -0.625737860160924 -3.95075336238055 6.99999999999999
endloop
endfacet
facet normal -4.42504040407082e-016 5.62254693399687e-015 1.0
outer loop
vertex 0.215290290577799 -4.98614848515158 7.0
vertex 0.625737860160923 -3.95075336238055 6.99999999999999
vertex -7.04991620636974e-016 -4.0 6.99999999999999
endloop
endfacet
facet normal -4.42504040407082e-016 5.62254693399687e-015 1.0
outer loop
vertex 0.625737860160923 -3.95075336238055 6.99999999999999
vertex 0.215290290577799 -4.98614848515158 7.0
vertex 0.567365761038825 -4.95843954469522 7.0
endloop
endfacet
facet normal -1.61873167904391e-015 3.90796397339077e-015 1.0
outer loop
vertex 1.74555785213783 -4.67558064950616 7.0
vertex 1.81596199895819 -3.56402609675347 6.99999999999999
vertex 1.23606797749979 -3.80422606518061 6.99999999999999
endloop
endfacet
facet normal -1.61873167904391e-015 3.90796397339077e-015 1.0
outer loop
vertex 1.81596199895819 -3.56402609675347 6.99999999999999
vertex 1.74555785213783 -4.67558064950616 7.0
vertex 2.07183898905033 -4.54043057745049 7.0
endloop
endfacet
facet normal -3.66284345689452e-015 4.28863867224311e-015 1.0
outer loop
vertex 3.10495804911392 -3.90733440320114 7.0
vertex 2.82842712474619 -2.82842712474619 6.99999999999999
vertex 2.35114100916989 -3.23606797749979 6.99999999999999
endloop
endfacet
facet normal -3.66284345689452e-015 4.28863867224311e-015 1.0
outer loop
vertex 2.82842712474619 -2.82842712474619 6.99999999999999
vertex 3.10495804911392 -3.90733440320114 7.0
vertex 3.37350618146254 -3.67797263024489 7.0
endloop
endfacet
facet normal 4.11307587623882e-015 -9.87462152369777e-016 1.0
outer loop
vertex -3.95075336238055 0.625737860160923 6.99999999999999
vertex -4.80863736653108 1.33605138463965 7.0
vertex -4.89108190182544 0.992645180732868 7.0
endloop
endfacet
facet normal 4.11307587623882e-015 -9.87462152369777e-016 1.0
outer loop
vertex -4.80863736653108 1.33605138463965 7.0
vertex -3.95075336238055 0.625737860160923 6.99999999999999
vertex -3.80422606518061 1.23606797749979 6.99999999999999
endloop
endfacet
facet normal 5.62254693399687e-015 4.42504040407081e-016 1.0
outer loop
vertex -4.95843954469522 -0.567365761038825 7.0
vertex -4.0 3.52495810318487e-016 6.99999999999999
vertex -4.98614848515158 -0.215290290577799 7.0
endloop
endfacet
facet normal 5.62254693399687e-015 4.42504040407081e-016 1.0
outer loop
vertex -4.0 3.52495810318487e-016 6.99999999999999
vertex -4.95843954469522 -0.567365761038825 7.0
vertex -3.95075336238055 -0.625737860160923 6.99999999999999
endloop
endfacet
facet normal 3.60662502772901e-015 -2.21014265951753e-015 1.0
outer loop
vertex -3.56402609675347 1.81596199895819 6.99999999999999
vertex -4.16042331872792 2.7566110415112 7.0
vertex -4.34495108423353 2.45548909604877 7.0
endloop
endfacet
facet normal 3.60662502772901e-015 -2.21014265951753e-015 1.0
outer loop
vertex -4.16042331872792 2.7566110415112 7.0
vertex -3.56402609675347 1.81596199895819 6.99999999999999
vertex -3.23606797749979 2.35114100916989 6.99999999999999
endloop
endfacet
facet normal 3.66284345689453e-015 -4.28863867224311e-015 1.0
outer loop
vertex -2.82842712474619 2.82842712474619 6.99999999999999
vertex -3.10495804911392 3.90733440320114 7.0
vertex -3.37350618146254 3.67797263024489 7.0
endloop
endfacet
facet normal 3.66284345689453e-015 -4.28863867224311e-015 1.0
outer loop
vertex -3.10495804911392 3.90733440320114 7.0
vertex -2.82842712474619 2.82842712474619 6.99999999999999
vertex -2.35114100916989 3.23606797749979 6.99999999999999
endloop
endfacet
facet normal 1.6187316790439e-015 -3.90796397339077e-015 1.0
outer loop
vertex -1.81596199895819 3.56402609675347 6.99999999999999
vertex -1.74555785213783 4.67558064950616 7.0
vertex -2.07183898905033 4.54043057745049 7.0
endloop
endfacet
facet normal 1.6187316790439e-015 -3.90796397339077e-015 1.0
outer loop
vertex -1.74555785213783 4.67558064950616 7.0
vertex -1.81596199895819 3.56402609675347 6.99999999999999
vertex -1.23606797749979 3.80422606518061 6.99999999999999
endloop
endfacet
facet normal 4.42504040407081e-016 -5.62254693399687e-015 1.0
outer loop
vertex 3.52495810318487e-016 4.0 6.99999999999999
vertex -0.567365761038824 4.95843954469522 7.0
vertex -0.625737860160923 3.95075336238055 6.99999999999999
endloop
endfacet
facet normal 4.42504040407081e-016 -5.62254693399687e-015 1.0
outer loop
vertex -0.567365761038824 4.95843954469522 7.0
vertex 3.52495810318487e-016 4.0 6.99999999999999
vertex -0.215290290577798 4.98614848515158 7.0
endloop
endfacet
facet normal -2.21014265951754e-015 -3.606625027729e-015 1.0
outer loop
vertex 2.35114100916989 3.23606797749979 6.99999999999999
vertex 2.45548909604877 4.34495108423353 7.0
vertex 1.81596199895819 3.56402609675347 6.99999999999999
endloop
endfacet
facet normal -2.21014265951754e-015 -3.606625027729e-015 1.0
outer loop
vertex 2.45548909604877 4.34495108423353 7.0
vertex 2.35114100916989 3.23606797749979 6.99999999999999
vertex 2.7566110415112 4.16042331872792 7.0
endloop
endfacet
facet normal -3.21647900418234e-015 -2.74713259267089e-015 1.0
outer loop
vertex 3.23606797749979 2.35114100916989 6.99999999999999
vertex 3.67797263024489 3.37350618146254 7.0
vertex 2.82842712474619 2.82842712474619 6.99999999999999
endloop
endfacet
facet normal -3.21647900418234e-015 -2.74713259267089e-015 1.0
outer loop
vertex 3.67797263024489 3.37350618146254 7.0
vertex 3.23606797749979 2.35114100916989 6.99999999999999
vertex 3.90733440320114 3.10495804911392 7.0
endloop
endfacet
facet normal -4.21691020049765e-015 -3.31878030305311e-016 1.0
outer loop
vertex 4.0 -1.05748743095546e-015 6.99999999999999
vertex 4.95843954469522 0.567365761038824 7.0
vertex 3.95075336238055 0.625737860160922 6.99999999999999
endloop
endfacet
facet normal -4.21691020049765e-015 -3.31878030305311e-016 1.0
outer loop
vertex 4.95843954469522 0.567365761038824 7.0
vertex 4.0 -1.05748743095546e-015 6.99999999999999
vertex 4.98614848515158 0.215290290577798 7.0
endloop
endfacet
facet normal -5.48410116831842e-015 1.31661620315971e-015 1.0
outer loop
vertex 4.80863736653108 -1.33605138463965 7.0
vertex 3.95075336238055 -0.625737860160924 6.99999999999999
vertex 3.80422606518061 -1.23606797749979 6.99999999999999
endloop
endfacet
facet normal -5.48410116831842e-015 1.31661620315971e-015 1.0
outer loop
vertex 3.95075336238055 -0.625737860160924 6.99999999999999
vertex 4.80863736653108 -1.33605138463965 7.0
vertex 4.89108190182544 -0.992645180732867 7.0
endloop
endfacet
facet normal -3.606625027729e-015 2.21014265951754e-015 1.0
outer loop
vertex 4.16042331872792 -2.7566110415112 7.0
vertex 3.56402609675347 -1.81596199895819 6.99999999999999
vertex 3.23606797749979 -2.35114100916989 6.99999999999999
endloop
endfacet
facet normal -3.606625027729e-015 2.21014265951754e-015 1.0
outer loop
vertex 3.56402609675347 -1.81596199895819 6.99999999999999
vertex 4.16042331872792 -2.7566110415112 7.0
vertex 4.34495108423353 -2.45548909604877 7.0
endloop
endfacet
facet normal 1.22159747601074e-017 -8.94934063857566e-018 -1.0
outer loop
vertex -4.16042331872792 2.7566110415112 -7.04991620636974e-016
vertex -3.56402609675347 1.81596199895819 -3.52495810318487e-016
vertex -4.34495108423353 2.45548909604877 -7.04991620636974e-016
endloop
endfacet
facet normal 1.22159747601074e-017 -8.94934063857566e-018 -1.0
outer loop
vertex -3.56402609675347 1.81596199895819 -3.52495810318487e-016
vertex -4.16042331872792 2.7566110415112 -7.04991620636974e-016
vertex -3.23606797749979 2.35114100916989 -3.52495810318487e-016
endloop
endfacet
facet normal 1.22159747601074e-017 -8.94934063857566e-018 -1.0
outer loop
vertex -3.10495804911392 3.90733440320114 -7.04991620636974e-016
vertex -2.82842712474619 2.82842712474619 -3.52495810318487e-016
vertex -3.37350618146254 3.67797263024489 -7.04991620636974e-016
endloop
endfacet
facet normal 1.22159747601074e-017 -8.94934063857566e-018 -1.0
outer loop
vertex -2.82842712474619 2.82842712474619 -3.52495810318487e-016
vertex -3.10495804911392 3.90733440320114 -7.04991620636974e-016
vertex -2.35114100916989 3.23606797749979 -3.52495810318487e-016
endloop
endfacet
facet normal 1.22159747601074e-017 -8.94934063857566e-018 -1.0
outer loop
vertex -2.82842712474619 2.82842712474619 -3.52495810318487e-016
vertex -2.35114100916989 3.23606797749979 -3.52495810318487e-016
vertex -2.35114100916989 -3.23606797749979 -3.52495810318487e-016
endloop
endfacet
facet normal 1.22159747601074e-017 -8.94934063857566e-018 -1.0
outer loop
vertex -1.74555785213783 4.67558064950616 -3.52495810318487e-016
vertex -1.81596199895819 3.56402609675347 -3.52495810318487e-016
vertex -2.07183898905033 4.54043057745049 -3.52495810318487e-016
endloop
endfacet
facet normal 1.22159747601074e-017 -8.94934063857566e-018 -1.0
outer loop
vertex -2.35114100916989 -3.23606797749979 -3.52495810318487e-016
vertex -2.45548909604877 -4.34495108423353 0.0
vertex -2.7566110415112 -4.16042331872792 0.0
endloop
endfacet
facet normal 1.22159747601074e-017 -8.94934063857566e-018 -1.0
outer loop
vertex -2.45548909604877 -4.34495108423353 0.0
vertex -2.35114100916989 -3.23606797749979 -3.52495810318487e-016
vertex -1.81596199895819 -3.56402609675347 -3.52495810318487e-016
endloop
endfacet
facet normal 1.22159747601074e-017 -8.94934063857566e-018 -1.0
outer loop
vertex -1.81596199895819 -3.56402609675347 -3.52495810318487e-016
vertex -2.35114100916989 -3.23606797749979 -3.52495810318487e-016
vertex -2.35114100916989 3.23606797749979 -3.52495810318487e-016
endloop
endfacet
facet normal 1.22159747601074e-017 -8.94934063857566e-018 -1.0
outer loop
vertex -1.81596199895819 -3.56402609675347 -3.52495810318487e-016
vertex -2.35114100916989 3.23606797749979 -3.52495810318487e-016
vertex -1.81596199895819 3.56402609675347 -3.52495810318487e-016
endloop
endfacet
facet normal 1.22159747601074e-017 -8.94934063857566e-018 -1.0
outer loop
vertex -1.81596199895819 -3.56402609675347 -3.52495810318487e-016
vertex -1.81596199895819 3.56402609675347 -3.52495810318487e-016
vertex -1.23606797749979 -3.80422606518061 -3.52495810318487e-016
endloop
endfacet
facet normal 1.22159747601074e-017 -8.94934063857566e-018 -1.0
outer loop
vertex -1.23606797749979 -3.80422606518061 -3.52495810318487e-016
vertex -1.81596199895819 3.56402609675347 -3.52495810318487e-016
vertex -1.74555785213783 4.67558064950616 -3.52495810318487e-016
endloop
endfacet
facet normal 1.22159747601074e-017 -8.94934063857566e-018 -1.0
outer loop
vertex -1.23606797749979 -3.80422606518061 -3.52495810318487e-016
vertex -1.74555785213783 4.67558064950616 -3.52495810318487e-016
vertex -1.23606797749979 3.80422606518061 -3.52495810318487e-016
endloop
endfacet
facet normal 1.22159747601074e-017 -8.94934063857566e-018 -1.0
outer loop
vertex -4.80863736653108 1.33605138463965 0.0
vertex -3.95075336238055 0.625737860160923 -3.52495810318487e-016
vertex -4.89108190182544 0.992645180732868 0.0
endloop
endfacet
facet normal 1.22159747601074e-017 -8.94934063857566e-018 -1.0
outer loop
vertex -3.95075336238055 0.625737860160923 -3.52495810318487e-016
vertex -4.80863736653108 1.33605138463965 0.0
vertex -3.80422606518061 1.23606797749979 -3.52495810318487e-016
endloop
endfacet
facet normal 1.22159747601074e-017 -8.94934063857566e-018 -1.0
outer loop
vertex -3.95075336238055 0.625737860160923 -3.52495810318487e-016
vertex -3.80422606518061 1.23606797749979 -3.52495810318487e-016
vertex -3.95075336238055 -0.625737860160923 -3.52495810318487e-016
endloop
endfacet
facet normal 1.22159747601074e-017 -8.94934063857566e-018 -1.0
outer loop
vertex -3.95075336238055 -0.625737860160923 -3.52495810318487e-016
vertex -3.80422606518061 1.23606797749979 -3.52495810318487e-016
vertex -3.80422606518061 -1.23606797749979 -3.52495810318487e-016
endloop
endfacet
facet normal 1.22159747601074e-017 -8.94934063857566e-018 -1.0
outer loop
vertex -3.80422606518061 -1.23606797749979 -3.52495810318487e-016
vertex -3.80422606518061 1.23606797749979 -3.52495810318487e-016
vertex -3.56402609675347 1.81596199895819 -3.52495810318487e-016
endloop
endfacet
facet normal 1.22159747601074e-017 -8.94934063857566e-018 -1.0
outer loop
vertex -3.80422606518061 -1.23606797749979 -3.52495810318487e-016
vertex -3.56402609675347 1.81596199895819 -3.52495810318487e-016
vertex -3.56402609675347 -1.81596199895819 -3.52495810318487e-016
endloop
endfacet
facet normal 1.22159747601074e-017 -8.94934063857566e-018 -1.0
outer loop
vertex -3.56402609675347 -1.81596199895819 -3.52495810318487e-016
vertex -3.56402609675347 1.81596199895819 -3.52495810318487e-016
vertex -3.23606797749979 -2.35114100916989 -3.52495810318487e-016
endloop
endfacet
facet normal 1.22159747601074e-017 -8.94934063857566e-018 -1.0
outer loop
vertex -3.23606797749979 -2.35114100916989 -3.52495810318487e-016
vertex -3.56402609675347 1.81596199895819 -3.52495810318487e-016
vertex -3.23606797749979 2.35114100916989 -3.52495810318487e-016
endloop
endfacet
facet normal 1.22159747601074e-017 -8.94934063857566e-018 -1.0
outer loop
vertex -3.23606797749979 -2.35114100916989 -3.52495810318487e-016
vertex -3.23606797749979 2.35114100916989 -3.52495810318487e-016
vertex -2.82842712474619 2.82842712474619 -3.52495810318487e-016
endloop
endfacet
facet normal 1.22159747601074e-017 -8.94934063857566e-018 -1.0
outer loop
vertex -3.23606797749979 -2.35114100916989 -3.52495810318487e-016
vertex -2.82842712474619 2.82842712474619 -3.52495810318487e-016
vertex -2.82842712474619 -2.82842712474619 -3.52495810318487e-016
endloop
endfacet
facet normal 1.22159747601074e-017 -8.94934063857566e-018 -1.0
outer loop
vertex -2.82842712474619 -2.82842712474619 -3.52495810318487e-016
vertex -2.82842712474619 2.82842712474619 -3.52495810318487e-016
vertex -2.35114100916989 -3.23606797749979 -3.52495810318487e-016
endloop
endfacet
facet normal 1.22159747601074e-017 -8.94934063857566e-018 -1.0
outer loop
vertex -3.23606797749979 -2.35114100916989 -3.52495810318487e-016
vertex -3.67797263024489 -3.37350618146254 -7.04991620636974e-016
vertex -3.90733440320114 -3.10495804911392 -7.04991620636974e-016
endloop
endfacet
facet normal 1.22159747601074e-017 -8.94934063857566e-018 -1.0
outer loop
vertex -3.67797263024489 -3.37350618146254 -7.04991620636974e-016
vertex -3.23606797749979 -2.35114100916989 -3.52495810318487e-016
vertex -2.82842712474619 -2.82842712474619 -3.52495810318487e-016
endloop
endfacet
facet normal 1.22159747601074e-017 -8.94934063857566e-018 -1.0
outer loop
vertex -3.80422606518061 -1.23606797749979 -3.52495810318487e-016
vertex -4.54043057745049 -2.07183898905033 -3.52495810318487e-016
vertex -4.67558064950616 -1.74555785213783 -3.52495810318487e-016
endloop
endfacet
facet normal 1.22159747601074e-017 -8.94934063857566e-018 -1.0
outer loop
vertex -4.54043057745049 -2.07183898905033 -3.52495810318487e-016
vertex -3.80422606518061 -1.23606797749979 -3.52495810318487e-016
vertex -3.56402609675347 -1.81596199895819 -3.52495810318487e-016
endloop
endfacet
facet normal 1.22159747601074e-017 -8.94934063857566e-018 -1.0
outer loop
vertex -4.0 3.79343832234214e-016 -3.52495810318487e-016
vertex -4.95843954469522 -0.567365761038825 -7.04991620636974e-016
vertex -4.98614848515158 -0.215290290577799 -7.04991620636974e-016
endloop
endfacet
facet normal 1.22159747601074e-017 -8.94934063857566e-018 -1.0
outer loop
vertex -4.95843954469522 -0.567365761038825 -7.04991620636974e-016
vertex -4.0 3.79343832234214e-016 -3.52495810318487e-016
vertex -3.95075336238055 -0.625737860160923 -3.52495810318487e-016
endloop
endfacet
facet normal 1.22159747601074e-017 -8.94934063857566e-018 -1.0
outer loop
vertex -3.95075336238055 -0.625737860160923 -3.52495810318487e-016
vertex -4.0 3.79343832234214e-016 -3.52495810318487e-016
vertex -3.95075336238055 0.625737860160923 -3.52495810318487e-016
endloop
endfacet
facet normal 1.22159747601074e-017 -8.94934063857566e-018 -1.0
outer loop
vertex -1.23606797749979 -3.80422606518061 -3.52495810318487e-016
vertex -0.992645180732867 -4.89108190182544 -7.04991620636974e-016
vertex -1.33605138463965 -4.80863736653108 -7.04991620636974e-016
endloop
endfacet
facet normal 1.22159747601074e-017 -8.94934063857566e-018 -1.0
outer loop
vertex -0.992645180732867 -4.89108190182544 -7.04991620636974e-016
vertex -1.23606797749979 -3.80422606518061 -3.52495810318487e-016
vertex -1.23606797749979 3.80422606518061 -3.52495810318487e-016
endloop
endfacet
facet normal 1.22159747601074e-017 -8.94934063857566e-018 -1.0
outer loop
vertex -0.992645180732867 -4.89108190182544 -7.04991620636974e-016
vertex -1.23606797749979 3.80422606518061 -3.52495810318487e-016
vertex -0.625737860160923 3.95075336238055 -3.52495810318487e-016
endloop
endfacet
facet normal 1.22159747601074e-017 -8.94934063857566e-018 -1.0
outer loop
vertex -0.992645180732867 -4.89108190182544 -7.04991620636974e-016
vertex -0.625737860160923 3.95075336238055 -3.52495810318487e-016
vertex -0.625737860160924 -3.95075336238055 -3.52495810318487e-016
endloop
endfacet
facet normal 1.22159747601074e-017 -8.94934063857566e-018 -1.0
outer loop
vertex -0.625737860160924 -3.95075336238055 -3.52495810318487e-016
vertex -0.625737860160923 3.95075336238055 -3.52495810318487e-016
vertex -7.41639544917297e-016 -4.0 -3.52495810318487e-016
endloop
endfacet
facet normal 1.22159747601074e-017 -8.94934063857566e-018 -1.0
outer loop
vertex -7.41639544917297e-016 -4.0 -3.52495810318487e-016
vertex -0.625737860160923 3.95075336238055 -3.52495810318487e-016
vertex -0.567365761038824 4.95843954469522 -7.04991620636974e-016
endloop
endfacet
facet normal 1.22159747601074e-017 -8.94934063857566e-018 -1.0
outer loop
vertex -7.41639544917297e-016 -4.0 -3.52495810318487e-016
vertex -0.567365761038824 4.95843954469522 -7.04991620636974e-016
vertex -0.215290290577798 4.98614848515158 -7.04991620636974e-016
endloop
endfacet
facet normal 1.22159747601074e-017 -8.94934063857566e-018 -1.0
outer loop
vertex -7.41639544917297e-016 -4.0 -3.52495810318487e-016
vertex -0.215290290577798 4.98614848515158 -7.04991620636974e-016
vertex 3.15847886038165e-016 4.0 -3.52495810318487e-016
endloop
endfacet
facet normal 1.22159747601074e-017 -8.94934063857566e-018 -1.0
outer loop
vertex -7.41639544917297e-016 -4.0 -3.52495810318487e-016
vertex 3.15847886038165e-016 4.0 -3.52495810318487e-016
vertex 0.215290290577799 -4.98614848515158 -7.04991620636974e-016
endloop
endfacet
facet normal 1.22159747601074e-017 -8.94934063857566e-018 -1.0
outer loop
vertex 0.215290290577799 -4.98614848515158 -7.04991620636974e-016
vertex 3.15847886038165e-016 4.0 -3.52495810318487e-016
vertex 0.625737860160923 3.95075336238055 -3.52495810318487e-016
endloop
endfacet
facet normal 1.22159747601074e-017 -8.94934063857566e-018 -1.0
outer loop
vertex 0.215290290577799 -4.98614848515158 -7.04991620636974e-016
vertex 0.625737860160923 3.95075336238055 -3.52495810318487e-016
vertex 0.567365761038825 -4.95843954469522 -7.04991620636974e-016
endloop
endfacet
facet normal 1.22159747601074e-017 -8.94934063857566e-018 -1.0
outer loop
vertex 0.567365761038825 -4.95843954469522 -7.04991620636974e-016
vertex 0.625737860160923 3.95075336238055 -3.52495810318487e-016
vertex 0.625737860160923 -3.95075336238055 -3.52495810318487e-016
endloop
endfacet
facet normal 1.22159747601074e-017 -8.94934063857566e-018 -1.0
outer loop
vertex 0.625737860160923 -3.95075336238055 -3.52495810318487e-016
vertex 0.625737860160923 3.95075336238055 -3.52495810318487e-016
vertex 1.23606797749979 -3.80422606518061 -3.52495810318487e-016
endloop
endfacet
facet normal 1.22159747601074e-017 -8.94934063857566e-018 -1.0
outer loop
vertex 1.23606797749979 -3.80422606518061 -3.52495810318487e-016
vertex 0.625737860160923 3.95075336238055 -3.52495810318487e-016
vertex 0.992645180732867 4.89108190182544 -1.05748743095546e-015
endloop
endfacet
facet normal 1.22159747601074e-017 -8.94934063857566e-018 -1.0
outer loop
vertex 1.23606797749979 -3.80422606518061 -3.52495810318487e-016
vertex 0.992645180732867 4.89108190182544 -1.05748743095546e-015
vertex 1.23606797749979 3.80422606518061 -3.52495810318487e-016
endloop
endfacet
facet normal 1.22159747601074e-017 -8.94934063857566e-018 -1.0
outer loop
vertex 1.23606797749979 3.80422606518061 -3.52495810318487e-016
vertex 0.992645180732867 4.89108190182544 -1.05748743095546e-015
vertex 1.33605138463965 4.80863736653108 -1.05748743095546e-015
endloop
endfacet
facet normal 1.22159747601074e-017 -8.94934063857566e-018 -1.0
outer loop
vertex 1.23606797749979 3.80422606518061 -3.52495810318487e-016
vertex 1.74555785213783 -4.67558064950616 0.0
vertex 1.23606797749979 -3.80422606518061 -3.52495810318487e-016
endloop
endfacet
facet normal 1.22159747601074e-017 -8.94934063857566e-018 -1.0
outer loop
vertex 1.74555785213783 -4.67558064950616 0.0
vertex 1.23606797749979 3.80422606518061 -3.52495810318487e-016
vertex 1.81596199895819 3.56402609675347 -3.52495810318487e-016
endloop
endfacet
facet normal 1.22159747601074e-017 -8.94934063857566e-018 -1.0
outer loop
vertex 1.74555785213783 -4.67558064950616 0.0
vertex 1.81596199895819 3.56402609675347 -3.52495810318487e-016
vertex 1.81596199895819 -3.56402609675347 -3.52495810318487e-016
endloop
endfacet
facet normal 1.22159747601074e-017 -8.94934063857566e-018 -1.0
outer loop
vertex 1.81596199895819 -3.56402609675347 -3.52495810318487e-016
vertex 1.81596199895819 3.56402609675347 -3.52495810318487e-016
vertex 2.35114100916989 -3.23606797749979 -3.52495810318487e-016
endloop
endfacet
facet normal 1.22159747601074e-017 -8.94934063857566e-018 -1.0
outer loop
vertex 2.35114100916989 -3.23606797749979 -3.52495810318487e-016
vertex 1.81596199895819 3.56402609675347 -3.52495810318487e-016
vertex 2.35114100916989 3.23606797749979 -3.52495810318487e-016
endloop
endfacet
facet normal 1.22159747601074e-017 -8.94934063857566e-018 -1.0
outer loop
vertex 2.35114100916989 3.23606797749979 -3.52495810318487e-016
vertex 1.81596199895819 3.56402609675347 -3.52495810318487e-016
vertex 2.45548909604877 4.34495108423353 7.04991620636974e-016
endloop
endfacet
facet normal 1.22159747601074e-017 -8.94934063857566e-018 -1.0
outer loop
vertex 2.35114100916989 3.23606797749979 -3.52495810318487e-016
vertex 2.45548909604877 4.34495108423353 7.04991620636974e-016
vertex 2.7566110415112 4.16042331872792 7.04991620636974e-016
endloop
endfacet
facet normal 1.22159747601074e-017 -8.94934063857566e-018 -1.0
outer loop
vertex 2.82842712474619 2.82842712474619 -3.52495810318487e-016
vertex 2.82842712474619 -2.82842712474619 -3.52495810318487e-016
vertex 2.35114100916989 3.23606797749979 -3.52495810318487e-016
endloop
endfacet
facet normal 1.22159747601074e-017 -8.94934063857566e-018 -1.0
outer loop
vertex 2.82842712474619 -2.82842712474619 -3.52495810318487e-016
vertex 2.82842712474619 2.82842712474619 -3.52495810318487e-016
vertex 3.23606797749979 -2.35114100916989 -3.52495810318487e-016
endloop
endfacet
facet normal 1.22159747601074e-017 -8.94934063857566e-018 -1.0
outer loop
vertex 3.23606797749979 -2.35114100916989 -3.52495810318487e-016
vertex 2.82842712474619 2.82842712474619 -3.52495810318487e-016
vertex 3.23606797749979 2.35114100916989 -3.52495810318487e-016
endloop
endfacet
facet normal 1.22159747601074e-017 -8.94934063857566e-018 -1.0
outer loop
vertex 3.23606797749979 2.35114100916989 -3.52495810318487e-016
vertex 2.82842712474619 2.82842712474619 -3.52495810318487e-016
vertex 3.67797263024489 3.37350618146254 -7.04991620636974e-016
endloop
endfacet
facet normal 1.22159747601074e-017 -8.94934063857566e-018 -1.0
outer loop
vertex 3.23606797749979 2.35114100916989 -3.52495810318487e-016
vertex 3.67797263024489 3.37350618146254 -7.04991620636974e-016
vertex 3.90733440320114 3.10495804911392 -7.04991620636974e-016
endloop
endfacet
facet normal 1.22159747601074e-017 -8.94934063857566e-018 -1.0
outer loop
vertex 3.95075336238055 0.625737860160922 -3.52495810318487e-016
vertex 4.0 -1.03063940903973e-015 -3.52495810318487e-016
vertex 3.95075336238055 -0.625737860160924 -3.52495810318487e-016
endloop
endfacet
facet normal 1.22159747601074e-017 -8.94934063857566e-018 -1.0
outer loop
vertex 4.0 -1.03063940903973e-015 -3.52495810318487e-016
vertex 3.95075336238055 0.625737860160922 -3.52495810318487e-016
vertex 4.95843954469522 0.567365761038824 0.0
endloop
endfacet
facet normal 1.22159747601074e-017 -8.94934063857566e-018 -1.0
outer loop
vertex 4.0 -1.03063940903973e-015 -3.52495810318487e-016
vertex 4.95843954469522 0.567365761038824 0.0
vertex 4.98614848515158 0.215290290577798 0.0
endloop
endfacet
facet normal 1.22159747601074e-017 -8.94934063857566e-018 -1.0
outer loop
vertex 3.80422606518061 -1.23606797749979 -3.52495810318487e-016
vertex 3.95075336238055 -0.625737860160924 -3.52495810318487e-016
vertex 4.80863736653108 -1.33605138463965 0.0
endloop
endfacet
facet normal 1.22159747601074e-017 -8.94934063857566e-018 -1.0
outer loop
vertex 3.95075336238055 -0.625737860160924 -3.52495810318487e-016
vertex 3.80422606518061 -1.23606797749979 -3.52495810318487e-016
vertex 3.80422606518061 1.23606797749979 -3.52495810318487e-016
endloop
endfacet
facet normal 1.22159747601074e-017 -8.94934063857566e-018 -1.0
outer loop
vertex 3.95075336238055 -0.625737860160924 -3.52495810318487e-016
vertex 3.80422606518061 1.23606797749979 -3.52495810318487e-016
vertex 3.95075336238055 0.625737860160922 -3.52495810318487e-016
endloop
endfacet
facet normal 1.22159747601074e-017 -8.94934063857566e-018 -1.0
outer loop
vertex 4.80863736653108 -1.33605138463965 0.0
vertex 3.95075336238055 -0.625737860160924 -3.52495810318487e-016
vertex 4.89108190182544 -0.992645180732867 0.0
endloop
endfacet
facet normal 1.22159747601074e-017 -8.94934063857566e-018 -1.0
outer loop
vertex 3.56402609675347 1.81596199895819 -3.52495810318487e-016
vertex 3.56402609675347 -1.81596199895819 -3.52495810318487e-016
vertex 3.23606797749979 2.35114100916989 -3.52495810318487e-016
endloop
endfacet
facet normal 1.22159747601074e-017 -8.94934063857566e-018 -1.0
outer loop
vertex 3.56402609675347 -1.81596199895819 -3.52495810318487e-016
vertex 3.56402609675347 1.81596199895819 -3.52495810318487e-016
vertex 3.80422606518061 -1.23606797749979 -3.52495810318487e-016
endloop
endfacet
facet normal 1.22159747601074e-017 -8.94934063857566e-018 -1.0
outer loop
vertex 3.80422606518061 -1.23606797749979 -3.52495810318487e-016
vertex 3.56402609675347 1.81596199895819 -3.52495810318487e-016
vertex 3.80422606518061 1.23606797749979 -3.52495810318487e-016
endloop
endfacet
facet normal 1.22159747601074e-017 -8.94934063857566e-018 -1.0
outer loop
vertex 3.80422606518061 1.23606797749979 -3.52495810318487e-016
vertex 3.56402609675347 1.81596199895819 -3.52495810318487e-016
vertex 4.54043057745049 2.07183898905033 -1.05748743095546e-015
endloop
endfacet
facet normal 1.22159747601074e-017 -8.94934063857566e-018 -1.0
outer loop
vertex 3.80422606518061 1.23606797749979 -3.52495810318487e-016
vertex 4.54043057745049 2.07183898905033 -1.05748743095546e-015
vertex 4.67558064950616 1.74555785213783 -1.05748743095546e-015
endloop
endfacet
facet normal 1.22159747601074e-017 -8.94934063857566e-018 -1.0
outer loop
vertex 3.23606797749979 -2.35114100916989 -3.52495810318487e-016
vertex 3.56402609675347 -1.81596199895819 -3.52495810318487e-016
vertex 4.16042331872792 -2.7566110415112 -3.52495810318487e-016
endloop
endfacet
facet normal 1.22159747601074e-017 -8.94934063857566e-018 -1.0
outer loop
vertex 3.56402609675347 -1.81596199895819 -3.52495810318487e-016
vertex 3.23606797749979 -2.35114100916989 -3.52495810318487e-016
vertex 3.23606797749979 2.35114100916989 -3.52495810318487e-016
endloop
endfacet
facet normal 1.22159747601074e-017 -8.94934063857566e-018 -1.0
outer loop
vertex 4.16042331872792 -2.7566110415112 -3.52495810318487e-016
vertex 3.56402609675347 -1.81596199895819 -3.52495810318487e-016
vertex 4.34495108423353 -2.45548909604877 -3.52495810318487e-016
endloop
endfacet
facet normal 1.22159747601074e-017 -8.94934063857566e-018 -1.0
outer loop
vertex 2.35114100916989 -3.23606797749979 -3.52495810318487e-016
vertex 2.82842712474619 -2.82842712474619 -3.52495810318487e-016
vertex 3.10495804911392 -3.90733440320114 -3.52495810318487e-016
endloop
endfacet
facet normal 1.22159747601074e-017 -8.94934063857566e-018 -1.0
outer loop
vertex 2.82842712474619 -2.82842712474619 -3.52495810318487e-016
vertex 2.35114100916989 -3.23606797749979 -3.52495810318487e-016
vertex 2.35114100916989 3.23606797749979 -3.52495810318487e-016
endloop
endfacet
facet normal 1.22159747601074e-017 -8.94934063857566e-018 -1.0
outer loop
vertex 3.10495804911392 -3.90733440320114 -3.52495810318487e-016
vertex 2.82842712474619 -2.82842712474619 -3.52495810318487e-016
vertex 3.37350618146254 -3.67797263024489 -3.52495810318487e-016
endloop
endfacet
facet normal 1.22159747601074e-017 -8.94934063857566e-018 -1.0
outer loop
vertex 2.07183898905033 -4.54043057745049 0.0
vertex 1.74555785213783 -4.67558064950616 0.0
vertex 1.81596199895819 -3.56402609675347 -3.52495810318487e-016
endloop
endfacet
facet normal -0.401703888579069 -0.915769613986212 3.68975619719028e-019
outer loop
vertex 4.16042331872792 -2.7566110415112 7.0
vertex 3.23606797749979 -2.35114100916989 -3.52495810318487e-016
vertex 4.16042331872792 -2.7566110415112 -3.52495810318487e-016
endloop
endfacet
facet normal -0.401703888579069 -0.915769613986212 3.68975619719028e-019
outer loop
vertex 3.23606797749979 -2.35114100916989 -3.52495810318487e-016
vertex 4.16042331872792 -2.7566110415112 7.0
vertex 3.23606797749979 -2.35114100916989 6.99999999999999
endloop
endfacet
facet normal 0.633586951591839 0.773671490215686 3.81636925539269e-019
outer loop
vertex 3.56402609675347 -1.81596199895819 6.99999999999999
vertex 4.34495108423353 -2.45548909604877 -3.52495810318487e-016
vertex 3.56402609675347 -1.81596199895819 -3.52495810318487e-016
endloop
endfacet
facet normal 0.633586951591839 0.773671490215686 3.81636925539269e-019
outer loop
vertex 4.34495108423353 -2.45548909604877 -3.52495810318487e-016
vertex 3.56402609675347 -1.81596199895819 6.99999999999999
vertex 4.34495108423353 -2.45548909604877 7.0
endloop
endfacet
facet normal 0.852640164354093 -0.522498564715948 -0.0
outer loop
vertex 4.34495108423353 -2.45548909604877 -3.52495810318487e-016
vertex 4.16042331872792 -2.7566110415112 7.0
vertex 4.16042331872792 -2.7566110415112 -3.52495810318487e-016
endloop
endfacet
facet normal 0.852640164354093 -0.522498564715948 -0.0
outer loop
vertex 4.16042331872792 -2.7566110415112 7.0
vertex 4.34495108423353 -2.45548909604877 -3.52495810318487e-016
vertex 4.34495108423353 -2.45548909604877 7.0
endloop
endfacet
facet normal -0.0990547272002999 -0.995081987084117 -1.70532662445513e-019
outer loop
vertex 4.80863736653108 -1.33605138463965 0.0
vertex 3.80422606518061 -1.23606797749979 6.99999999999999
vertex 3.80422606518061 -1.23606797749979 -3.52495810318487e-016
endloop
endfacet
facet normal -0.0990547272002999 -0.995081987084117 -1.70532662445513e-019
outer loop
vertex 3.80422606518061 -1.23606797749979 6.99999999999999
vertex 4.80863736653108 -1.33605138463965 0.0
vertex 4.80863736653108 -1.33605138463965 7.0
endloop
endfacet
facet normal 0.363499360410963 0.931594447697506 1.10593853602941e-018
outer loop
vertex 3.95075336238055 -0.625737860160924 6.99999999999999
vertex 4.89108190182544 -0.992645180732867 0.0
vertex 3.95075336238055 -0.625737860160924 -3.52495810318487e-016
endloop
endfacet
facet normal 0.363499360410963 0.931594447697506 1.10593853602941e-018
outer loop
vertex 4.89108190182544 -0.992645180732867 0.0
vertex 3.95075336238055 -0.625737860160924 6.99999999999999
vertex 4.89108190182544 -0.992645180732867 7.0
endloop
endfacet
facet normal 0.972369920397677 -0.233445363855905 -0.0
outer loop
vertex 4.89108190182544 -0.992645180732867 0.0
vertex 4.80863736653108 -1.33605138463965 7.0
vertex 4.80863736653108 -1.33605138463965 0.0
endloop
endfacet
facet normal 0.972369920397677 -0.233445363855905 -0.0
outer loop
vertex 4.80863736653108 -1.33605138463965 7.0
vertex 4.89108190182544 -0.992645180732867 0.0
vertex 4.89108190182544 -0.992645180732867 7.0
endloop
endfacet
facet normal 0.2132906010317 -0.976988802142346 -5.55923063394259e-018
outer loop
vertex 4.98614848515158 0.215290290577798 0.0
vertex 4.0 -1.05748743095546e-015 6.99999999999999
vertex 4.0 -1.03063940903973e-015 -3.52495810318487e-016
endloop
endfacet
facet normal 0.2132906010317 -0.976988802142346 -5.55923063394259e-018
outer loop
vertex 4.0 -1.05748743095546e-015 6.99999999999999
vertex 4.98614848515158 0.215290290577798 0.0
vertex 4.98614848515158 0.215290290577798 7.0
endloop
endfacet
facet normal 0.0578299191840944 0.998326449838509 -1.4772831989716e-019
outer loop
vertex 3.95075336238055 0.625737860160922 6.99999999999999
vertex 4.95843954469522 0.567365761038824 0.0
vertex 3.95075336238055 0.625737860160922 -3.52495810318487e-016
endloop
endfacet
facet normal 0.0578299191840944 0.998326449838509 -1.4772831989716e-019
outer loop
vertex 4.95843954469522 0.567365761038824 0.0
vertex 3.95075336238055 0.625737860160922 6.99999999999999
vertex 4.95843954469522 0.567365761038824 7.0
endloop
endfacet
facet normal 0.996917333733128 0.0784590957278463 2.24003559995616e-019
outer loop
vertex 4.98614848515158 0.215290290577798 0.0
vertex 4.95843954469522 0.567365761038824 7.0
vertex 4.98614848515158 0.215290290577798 7.0
endloop
endfacet
facet normal 0.996917333733128 0.0784590957278463 2.24003559995616e-019
outer loop
vertex 4.95843954469522 0.567365761038824 7.0
vertex 4.98614848515158 0.215290290577798 0.0
vertex 4.95843954469522 0.567365761038824 0.0
endloop
endfacet
facet normal 0.746815330529251 -0.665031474508151 -1.86796696841291e-018
outer loop
vertex 3.90733440320114 3.10495804911392 -7.04991620636974e-016
vertex 3.23606797749979 2.35114100916989 6.99999999999999
vertex 3.23606797749979 2.35114100916989 -3.52495810318487e-016
endloop
endfacet
facet normal 0.746815330529251 -0.665031474508151 -1.86796696841291e-018
outer loop
vertex 3.23606797749979 2.35114100916989 6.99999999999999
vertex 3.90733440320114 3.10495804911392 -7.04991620636974e-016
vertex 3.90733440320114 3.10495804911392 7.0
endloop
endfacet
facet normal -0.540016176785314 0.841654637491039 7.16699356583842e-018
outer loop
vertex 2.82842712474619 2.82842712474619 -3.52495810318487e-016
vertex 3.67797263024489 3.37350618146254 7.0
vertex 3.67797263024489 3.37350618146254 -7.04991620636974e-016
endloop
endfacet
facet normal -0.540016176785314 0.841654637491039 7.16699356583842e-018
outer loop
vertex 3.67797263024489 3.37350618146254 7.0
vertex 2.82842712474619 2.82842712474619 -3.52495810318487e-016
vertex 2.82842712474619 2.82842712474619 6.99999999999999
endloop
endfacet
facet normal 0.76040596560003 0.649448048330185 -9.27098850098858e-019
outer loop
vertex 3.67797263024489 3.37350618146254 -7.04991620636974e-016
vertex 3.90733440320114 3.10495804911392 7.0
vertex 3.90733440320114 3.10495804911392 -7.04991620636974e-016
endloop
endfacet
facet normal 0.76040596560003 0.649448048330185 -9.27098850098858e-019
outer loop
vertex 3.90733440320114 3.10495804911392 7.0
vertex 3.67797263024489 3.37350618146254 -7.04991620636974e-016
vertex 3.67797263024489 3.37350618146254 7.0
endloop
endfacet
facet normal 0.915769613986211 -0.40170388857907 4.81785059664291e-020
outer loop
vertex 2.7566110415112 4.16042331872792 7.04991620636974e-016
vertex 2.35114100916989 3.23606797749979 6.99999999999999
vertex 2.35114100916989 3.23606797749979 -3.52495810318487e-016
endloop
endfacet
facet normal 0.915769613986211 -0.40170388857907 4.81785059664291e-020
outer loop
vertex 2.35114100916989 3.23606797749979 6.99999999999999
vertex 2.7566110415112 4.16042331872792 7.04991620636974e-016
vertex 2.7566110415112 4.16042331872792 7.0
endloop
endfacet
facet normal -0.773671490215685 0.63358695159184 1.18152978846315e-018
outer loop
vertex 2.45548909604877 4.34495108423353 7.0
vertex 1.81596199895819 3.56402609675347 -3.52495810318487e-016
vertex 1.81596199895819 3.56402609675347 6.99999999999999
endloop
endfacet
facet normal -0.773671490215685 0.63358695159184 1.18152978846315e-018
outer loop
vertex 1.81596199895819 3.56402609675347 -3.52495810318487e-016
vertex 2.45548909604877 4.34495108423353 7.0
vertex 2.45548909604877 4.34495108423353 7.04991620636974e-016
endloop
endfacet
facet normal 0.522498564715948 0.852640164354093 -7.45876163261921e-019
outer loop
vertex 2.45548909604877 4.34495108423353 7.0
vertex 2.7566110415112 4.16042331872792 7.04991620636974e-016
vertex 2.45548909604877 4.34495108423353 7.04991620636974e-016
endloop
endfacet
facet normal 0.522498564715948 0.852640164354093 -7.45876163261921e-019
outer loop
vertex 2.7566110415112 4.16042331872792 7.04991620636974e-016
vertex 2.45548909604877 4.34495108423353 7.0
vertex 2.7566110415112 4.16042331872792 7.0
endloop
endfacet
facet normal 0.976988802142346 0.213290601031699 -6.60037099049602e-018
outer loop
vertex -0.215290290577798 4.98614848515158 -7.04991620636974e-016
vertex 3.52495810318487e-016 4.0 6.99999999999999
vertex 3.15847886038165e-016 4.0 -3.52495810318487e-016
endloop
endfacet
facet normal 0.976988802142346 0.213290601031699 -6.60037099049602e-018
outer loop
vertex 3.52495810318487e-016 4.0 6.99999999999999
vertex -0.215290290577798 4.98614848515158 -7.04991620636974e-016
vertex -0.215290290577798 4.98614848515158 7.0
endloop
endfacet
facet normal -0.998326449838509 0.0578299191840951 -9.55898319823163e-020
outer loop
vertex -0.567365761038824 4.95843954469522 7.0
vertex -0.625737860160923 3.95075336238055 -3.52495810318487e-016
vertex -0.625737860160923 3.95075336238055 6.99999999999999
endloop
endfacet
facet normal -0.998326449838509 0.0578299191840951 -9.55898319823163e-020
outer loop
vertex -0.625737860160923 3.95075336238055 -3.52495810318487e-016
vertex -0.567365761038824 4.95843954469522 7.0
vertex -0.567365761038824 4.95843954469522 -7.04991620636974e-016
endloop
endfacet
facet normal -0.0784590957278464 0.996917333733128 2.24003559995595e-019
outer loop
vertex -0.567365761038824 4.95843954469522 7.0
vertex -0.215290290577798 4.98614848515158 -7.04991620636974e-016
vertex -0.567365761038824 4.95843954469522 -7.04991620636974e-016
endloop
endfacet
facet normal -0.0784590957278464 0.996917333733128 2.24003559995595e-019
outer loop
vertex -0.215290290577798 4.98614848515158 -7.04991620636974e-016
vertex -0.567365761038824 4.95843954469522 7.0
vertex -0.215290290577798 4.98614848515158 7.0
endloop
endfacet
facet normal 0.863261146165634 0.504757559151714 2.00636096397892e-018
outer loop
vertex -1.74555785213783 4.67558064950616 -3.52495810318487e-016
vertex -1.23606797749979 3.80422606518061 6.99999999999999
vertex -1.23606797749979 3.80422606518061 -3.52495810318487e-016
endloop
endfacet
facet normal 0.863261146165634 0.504757559151714 2.00636096397892e-018
outer loop
vertex -1.23606797749979 3.80422606518061 6.99999999999999
vertex -1.74555785213783 4.67558064950616 -3.52495810318487e-016
vertex -1.74555785213783 4.67558064950616 7.0
endloop
endfacet
facet normal -0.967335303319936 -0.253500317457252 -9.14573077353814e-019
outer loop
vertex -2.07183898905033 4.54043057745049 7.0
vertex -1.81596199895819 3.56402609675347 -3.52495810318487e-016
vertex -1.81596199895819 3.56402609675347 6.99999999999999
endloop
endfacet
facet normal -0.967335303319936 -0.253500317457252 -9.14573077353814e-019
outer loop
vertex -1.81596199895819 3.56402609675347 -3.52495810318487e-016
vertex -2.07183898905033 4.54043057745049 7.0
vertex -2.07183898905033 4.54043057745049 -3.52495810318487e-016
endloop
endfacet
facet normal -0.38268343236509 0.923879532511287 -0.0
outer loop
vertex -2.07183898905033 4.54043057745049 7.0
vertex -1.74555785213783 4.67558064950616 -3.52495810318487e-016
vertex -2.07183898905033 4.54043057745049 -3.52495810318487e-016
endloop
endfacet
facet normal -0.38268343236509 0.923879532511287 -0.0
outer loop
vertex -1.74555785213783 4.67558064950616 -3.52495810318487e-016
vertex -2.07183898905033 4.54043057745049 7.0
vertex -1.74555785213783 4.67558064950616 7.0
endloop
endfacet
facet normal 0.665031474508151 0.746815330529251 2.66062051537454e-018
outer loop
vertex -3.10495804911392 3.90733440320114 7.0
vertex -2.35114100916989 3.23606797749979 -3.52495810318487e-016
vertex -3.10495804911392 3.90733440320114 -7.04991620636974e-016
endloop
endfacet
facet normal 0.665031474508151 0.746815330529251 2.66062051537454e-018
outer loop
vertex -2.35114100916989 3.23606797749979 -3.52495810318487e-016
vertex -3.10495804911392 3.90733440320114 7.0
vertex -2.35114100916989 3.23606797749979 6.99999999999999
endloop
endfacet
facet normal -0.841654637491039 -0.540016176785314 -1.7642473159641e-018
outer loop
vertex -3.37350618146254 3.67797263024489 7.0
vertex -2.82842712474619 2.82842712474619 -3.52495810318487e-016
vertex -2.82842712474619 2.82842712474619 6.99999999999999
endloop
endfacet
facet normal -0.841654637491039 -0.540016176785314 -1.7642473159641e-018
outer loop
vertex -2.82842712474619 2.82842712474619 -3.52495810318487e-016
vertex -3.37350618146254 3.67797263024489 7.0
vertex -3.37350618146254 3.67797263024489 -7.04991620636974e-016
endloop
endfacet
facet normal -0.649448048330185 0.76040596560003 -9.27098850098871e-019
outer loop
vertex -3.37350618146254 3.67797263024489 7.0
vertex -3.10495804911392 3.90733440320114 -7.04991620636974e-016
vertex -3.37350618146254 3.67797263024489 -7.04991620636974e-016
endloop
endfacet
facet normal -0.649448048330185 0.76040596560003 -9.27098850098871e-019
outer loop
vertex -3.10495804911392 3.90733440320114 -7.04991620636974e-016
vertex -3.37350618146254 3.67797263024489 7.0
vertex -3.10495804911392 3.90733440320114 7.0
endloop
endfacet
facet normal 0.0990547272003009 0.995081987084117 2.63384670100486e-019
outer loop
vertex -4.80863736653108 1.33605138463965 0.0
vertex -3.80422606518061 1.23606797749979 6.99999999999999
vertex -3.80422606518061 1.23606797749979 -3.52495810318487e-016
endloop
endfacet
facet normal 0.0990547272003009 0.995081987084117 2.63384670100486e-019
outer loop
vertex -3.80422606518061 1.23606797749979 6.99999999999999
vertex -4.80863736653108 1.33605138463965 0.0
vertex -4.80863736653108 1.33605138463965 7.0
endloop
endfacet
facet normal -0.363499360410964 -0.931594447697505 -1.23057430571908e-018
outer loop
vertex -3.95075336238055 0.625737860160923 6.99999999999999
vertex -4.89108190182544 0.992645180732868 0.0
vertex -3.95075336238055 0.625737860160923 -3.52495810318487e-016
endloop
endfacet
facet normal -0.363499360410964 -0.931594447697505 -1.23057430571908e-018
outer loop
vertex -4.89108190182544 0.992645180732868 0.0
vertex -3.95075336238055 0.625737860160923 6.99999999999999
vertex -4.89108190182544 0.992645180732868 7.0
endloop
endfacet
facet normal -0.972369920397676 0.233445363855907 0.0
outer loop
vertex -4.80863736653108 1.33605138463965 7.0
vertex -4.89108190182544 0.992645180732868 0.0
vertex -4.89108190182544 0.992645180732868 7.0
endloop
endfacet
facet normal -0.972369920397676 0.233445363855907 0.0
outer loop
vertex -4.89108190182544 0.992645180732868 0.0
vertex -4.80863736653108 1.33605138463965 7.0
vertex -4.80863736653108 1.33605138463965 0.0
endloop
endfacet
facet normal -0.504757559151716 0.863261146165633 2.42392135157247e-018
outer loop
vertex -4.67558064950616 -1.74555785213783 7.0
vertex -3.80422606518061 -1.23606797749979 -3.52495810318487e-016
vertex -4.67558064950616 -1.74555785213783 -3.52495810318487e-016
endloop
endfacet
facet normal -0.504757559151716 0.863261146165633 2.42392135157247e-018
outer loop
vertex -3.80422606518061 -1.23606797749979 -3.52495810318487e-016
vertex -4.67558064950616 -1.74555785213783 7.0
vertex -3.80422606518061 -1.23606797749979 6.99999999999999
endloop
endfacet
facet normal 0.253500317457253 -0.967335303319936 1.91382076161165e-018
outer loop
vertex -3.56402609675347 -1.81596199895819 6.99999999999999
vertex -4.54043057745049 -2.07183898905033 -3.52495810318487e-016
vertex -3.56402609675347 -1.81596199895819 -3.52495810318487e-016
endloop
endfacet
facet normal 0.253500317457253 -0.967335303319936 1.91382076161165e-018
outer loop
vertex -4.54043057745049 -2.07183898905033 -3.52495810318487e-016
vertex -3.56402609675347 -1.81596199895819 6.99999999999999
vertex -4.54043057745049 -2.07183898905033 7.0
endloop
endfacet
facet normal -0.923879532511287 -0.382683432365091 0.0
outer loop
vertex -4.67558064950616 -1.74555785213783 7.0
vertex -4.54043057745049 -2.07183898905033 -3.52495810318487e-016
vertex -4.54043057745049 -2.07183898905033 7.0
endloop
endfacet
facet normal -0.923879532511287 -0.382683432365091 0.0
outer loop
vertex -4.54043057745049 -2.07183898905033 -3.52495810318487e-016
vertex -4.67558064950616 -1.74555785213783 7.0
vertex -4.67558064950616 -1.74555785213783 -3.52495810318487e-016
endloop
endfacet
facet normal 0.540016176785315 -0.841654637491039 2.36108461835876e-018
outer loop
vertex -2.82842712474619 -2.82842712474619 -3.52495810318487e-016
vertex -3.67797263024489 -3.37350618146254 7.0
vertex -3.67797263024489 -3.37350618146254 -7.04991620636974e-016
endloop
endfacet
facet normal 0.540016176785315 -0.841654637491039 2.36108461835876e-018
outer loop
vertex -3.67797263024489 -3.37350618146254 7.0
vertex -2.82842712474619 -2.82842712474619 -3.52495810318487e-016
vertex -2.82842712474619 -2.82842712474619 6.99999999999999
endloop
endfacet
facet normal -0.76040596560003 -0.649448048330185 3.29371676634645e-033
outer loop
vertex -3.90733440320114 -3.10495804911392 7.0
vertex -3.67797263024489 -3.37350618146254 -7.04991620636974e-016
vertex -3.67797263024489 -3.37350618146254 7.0
endloop
endfacet
facet normal -0.76040596560003 -0.649448048330185 3.29371676634645e-033
outer loop
vertex -3.67797263024489 -3.37350618146254 -7.04991620636974e-016
vertex -3.90733440320114 -3.10495804911392 7.0
vertex -3.90733440320114 -3.10495804911392 -7.04991620636974e-016
endloop
endfacet
facet normal -0.915769613986212 0.401703888579068 3.68975619719008e-019
outer loop
vertex -2.35114100916989 -3.23606797749979 6.99999999999999
vertex -2.7566110415112 -4.16042331872792 0.0
vertex -2.7566110415112 -4.16042331872792 7.0
endloop
endfacet
facet normal -0.915769613986212 0.401703888579068 3.68975619719008e-019
outer loop
vertex -2.7566110415112 -4.16042331872792 0.0
vertex -2.35114100916989 -3.23606797749979 6.99999999999999
vertex -2.35114100916989 -3.23606797749979 -3.52495810318487e-016
endloop
endfacet
facet normal 0.773671490215686 -0.633586951591839 3.81636925539285e-019
outer loop
vertex -1.81596199895819 -3.56402609675347 -3.52495810318487e-016
vertex -2.45548909604877 -4.34495108423353 7.0
vertex -2.45548909604877 -4.34495108423353 0.0
endloop
endfacet
facet normal 0.773671490215686 -0.633586951591839 3.81636925539285e-019
outer loop
vertex -2.45548909604877 -4.34495108423353 7.0
vertex -1.81596199895819 -3.56402609675347 -3.52495810318487e-016
vertex -1.81596199895819 -3.56402609675347 6.99999999999999
endloop
endfacet
facet normal -0.522498564715948 -0.852640164354093 0.0
outer loop
vertex -2.45548909604877 -4.34495108423353 7.0
vertex -2.7566110415112 -4.16042331872792 0.0
vertex -2.45548909604877 -4.34495108423353 0.0
endloop
endfacet
facet normal -0.522498564715948 -0.852640164354093 0.0
outer loop
vertex -2.7566110415112 -4.16042331872792 0.0
vertex -2.45548909604877 -4.34495108423353 7.0
vertex -2.7566110415112 -4.16042331872792 7.0
endloop
endfacet
facet normal -0.995081987084117 0.0990547272002999 4.08023780949089e-019
outer loop
vertex -1.23606797749979 -3.80422606518061 6.99999999999999
vertex -1.33605138463965 -4.80863736653108 -7.04991620636974e-016
vertex -1.33605138463965 -4.80863736653108 7.0
endloop
endfacet
facet normal -0.995081987084117 0.0990547272002999 4.08023780949089e-019
outer loop
vertex -1.33605138463965 -4.80863736653108 -7.04991620636974e-016
vertex -1.23606797749979 -3.80422606518061 6.99999999999999
vertex -1.23606797749979 -3.80422606518061 -3.52495810318487e-016
endloop
endfacet
facet normal 0.931594447697506 -0.363499360410963 8.45033373233261e-019
outer loop
vertex -0.625737860160924 -3.95075336238055 -3.52495810318487e-016
vertex -0.992645180732867 -4.89108190182544 7.0
vertex -0.992645180732867 -4.89108190182544 -7.04991620636974e-016
endloop
endfacet
facet normal 0.931594447697506 -0.363499360410963 8.45033373233261e-019
outer loop
vertex -0.992645180732867 -4.89108190182544 7.0
vertex -0.625737860160924 -3.95075336238055 -3.52495810318487e-016
vertex -0.625737860160924 -3.95075336238055 6.99999999999999
endloop
endfacet
facet normal -0.233445363855907 -0.972369920397676 0.0
outer loop
vertex -0.992645180732867 -4.89108190182544 7.0
vertex -1.33605138463965 -4.80863736653108 -7.04991620636974e-016
vertex -0.992645180732867 -4.89108190182544 -7.04991620636974e-016
endloop
endfacet
facet normal -0.233445363855907 -0.972369920397676 0.0
outer loop
vertex -1.33605138463965 -4.80863736653108 -7.04991620636974e-016
vertex -0.992645180732867 -4.89108190182544 7.0
vertex -1.33605138463965 -4.80863736653108 7.0
endloop
endfacet
facet normal -0.665031474508151 -0.746815330529251 -1.13675737732247e-018
outer loop
vertex 3.10495804911392 -3.90733440320114 7.0
vertex 2.35114100916989 -3.23606797749979 -3.52495810318487e-016
vertex 3.10495804911392 -3.90733440320114 -3.52495810318487e-016
endloop
endfacet
facet normal -0.665031474508151 -0.746815330529251 -1.13675737732247e-018
outer loop
vertex 2.35114100916989 -3.23606797749979 -3.52495810318487e-016
vertex 3.10495804911392 -3.90733440320114 7.0
vertex 2.35114100916989 -3.23606797749979 6.99999999999999
endloop
endfacet
facet normal 0.841654637491039 0.540016176785314 1.31928417093277e-018
outer loop
vertex 2.82842712474619 -2.82842712474619 -3.52495810318487e-016
vertex 3.37350618146254 -3.67797263024489 7.0
vertex 3.37350618146254 -3.67797263024489 -3.52495810318487e-016
endloop
endfacet
facet normal 0.841654637491039 0.540016176785314 1.31928417093277e-018
outer loop
vertex 3.37350618146254 -3.67797263024489 7.0
vertex 2.82842712474619 -2.82842712474619 -3.52495810318487e-016
vertex 2.82842712474619 -2.82842712474619 6.99999999999999
endloop
endfacet
facet normal 0.649448048330184 -0.76040596560003 -3.29371676634645e-033
outer loop
vertex 3.37350618146254 -3.67797263024489 7.0
vertex 3.10495804911392 -3.90733440320114 -3.52495810318487e-016
vertex 3.37350618146254 -3.67797263024489 -3.52495810318487e-016
endloop
endfacet
facet normal 0.649448048330184 -0.76040596560003 -3.29371676634645e-033
outer loop
vertex 3.10495804911392 -3.90733440320114 -3.52495810318487e-016
vertex 3.37350618146254 -3.67797263024489 7.0
vertex 3.10495804911392 -3.90733440320114 7.0
endloop
endfacet
facet normal -0.863261146165633 -0.504757559151715 -4.58280874588331e-019
outer loop
vertex 1.23606797749979 -3.80422606518061 6.99999999999999
vertex 1.74555785213783 -4.67558064950616 0.0
vertex 1.74555785213783 -4.67558064950616 7.0
endloop
endfacet
facet normal -0.863261146165633 -0.504757559151715 -4.58280874588331e-019
outer loop
vertex 1.74555785213783 -4.67558064950616 0.0
vertex 1.23606797749979 -3.80422606518061 6.99999999999999
vertex 1.23606797749979 -3.80422606518061 -3.52495810318487e-016
endloop
endfacet
facet normal 0.967335303319936 0.253500317457253 4.66315585987008e-019
outer loop
vertex 1.81596199895819 -3.56402609675347 -3.52495810318487e-016
vertex 2.07183898905033 -4.54043057745049 7.0
vertex 2.07183898905033 -4.54043057745049 0.0
endloop
endfacet
facet normal 0.967335303319936 0.253500317457253 4.66315585987008e-019
outer loop
vertex 2.07183898905033 -4.54043057745049 7.0
vertex 1.81596199895819 -3.56402609675347 -3.52495810318487e-016
vertex 1.81596199895819 -3.56402609675347 6.99999999999999
endloop
endfacet
facet normal 0.38268343236509 -0.923879532511287 0.0
outer loop
vertex 2.07183898905033 -4.54043057745049 7.0
vertex 1.74555785213783 -4.67558064950616 0.0
vertex 2.07183898905033 -4.54043057745049 0.0
endloop
endfacet
facet normal 0.38268343236509 -0.923879532511287 0.0
outer loop
vertex 1.74555785213783 -4.67558064950616 0.0
vertex 2.07183898905033 -4.54043057745049 7.0
vertex 1.74555785213783 -4.67558064950616 7.0
endloop
endfacet
facet normal -0.746815330529252 0.66503147450815 1.92941092428404e-018
outer loop
vertex -3.23606797749979 -2.35114100916989 6.99999999999999
vertex -3.90733440320114 -3.10495804911392 -7.04991620636974e-016
vertex -3.90733440320114 -3.10495804911392 7.0
endloop
endfacet
facet normal -0.746815330529252 0.66503147450815 1.92941092428404e-018
outer loop
vertex -3.90733440320114 -3.10495804911392 -7.04991620636974e-016
vertex -3.23606797749979 -2.35114100916989 6.99999999999999
vertex -3.23606797749979 -2.35114100916989 -3.52495810318487e-016
endloop
endfacet
facet normal -0.852640164354092 -0.522498564715949 0.0
outer loop
vertex -3.56402609675347 -1.81596199895819 6.99999999999999
vertex -3.23606797749979 -2.35114100916989 -3.52495810318487e-016
vertex -3.23606797749979 -2.35114100916989 6.99999999999999
endloop
endfacet
facet normal -0.852640164354092 -0.522498564715949 0.0
outer loop
vertex -3.23606797749979 -2.35114100916989 -3.52495810318487e-016
vertex -3.56402609675347 -1.81596199895819 6.99999999999999
vertex -3.56402609675347 -1.81596199895819 -3.52495810318487e-016
endloop
endfacet
facet normal -0.996917333733128 0.0784590957278452 4.48007119991225e-019
outer loop
vertex -3.95075336238055 0.625737860160923 6.99999999999999
vertex -4.0 3.79343832234214e-016 -3.52495810318487e-016
vertex -4.0 3.52495810318487e-016 6.99999999999999
endloop
endfacet
facet normal -0.996917333733128 0.0784590957278452 4.48007119991225e-019
outer loop
vertex -4.0 3.79343832234214e-016 -3.52495810318487e-016
vertex -3.95075336238055 0.625737860160923 6.99999999999999
vertex -3.95075336238055 0.625737860160923 -3.52495810318487e-016
endloop
endfacet
facet normal -0.972369920397677 -0.233445363855905 0.0
outer loop
vertex -3.95075336238055 -0.625737860160923 6.99999999999999
vertex -3.80422606518061 -1.23606797749979 -3.52495810318487e-016
vertex -3.80422606518061 -1.23606797749979 6.99999999999999
endloop
endfacet
facet normal -0.972369920397677 -0.233445363855905 0.0
outer loop
vertex -3.80422606518061 -1.23606797749979 -3.52495810318487e-016
vertex -3.95075336238055 -0.625737860160923 6.99999999999999
vertex -3.95075336238055 -0.625737860160923 -3.52495810318487e-016
endloop
endfacet
facet normal -0.996917333733128 -0.0784590957278462 -2.24003559995636e-019
outer loop
vertex -4.98614848515158 -0.215290290577799 7.0
vertex -4.95843954469522 -0.567365761038825 -7.04991620636974e-016
vertex -4.95843954469522 -0.567365761038825 7.0
endloop
endfacet
facet normal -0.996917333733128 -0.0784590957278462 -2.24003559995636e-019
outer loop
vertex -4.95843954469522 -0.567365761038825 -7.04991620636974e-016
vertex -4.98614848515158 -0.215290290577799 7.0
vertex -4.98614848515158 -0.215290290577799 -7.04991620636974e-016
endloop
endfacet
facet normal -0.213290601031699 0.976988802142346 4.38021824574626e-018
outer loop
vertex -4.98614848515158 -0.215290290577799 7.0
vertex -4.0 3.79343832234214e-016 -3.52495810318487e-016
vertex -4.98614848515158 -0.215290290577799 -7.04991620636974e-016
endloop
endfacet
facet normal -0.213290601031699 0.976988802142346 4.38021824574626e-018
outer loop
vertex -4.0 3.79343832234214e-016 -3.52495810318487e-016
vertex -4.98614848515158 -0.215290290577799 7.0
vertex -4.0 3.52495810318487e-016 6.99999999999999
endloop
endfacet
facet normal -0.0578299191840939 -0.998326449838509 -1.21659075939684e-019
outer loop
vertex -3.95075336238055 -0.625737860160923 -3.52495810318487e-016
vertex -4.95843954469522 -0.567365761038825 7.0
vertex -4.95843954469522 -0.567365761038825 -7.04991620636974e-016
endloop
endfacet
facet normal -0.0578299191840939 -0.998326449838509 -1.21659075939684e-019
outer loop
vertex -4.95843954469522 -0.567365761038825 7.0
vertex -3.95075336238055 -0.625737860160923 -3.52495810318487e-016
vertex -3.95075336238055 -0.625737860160923 6.99999999999999
endloop
endfacet
facet normal -0.760405965600031 0.649448048330184 3.29371676634645e-033
outer loop
vertex -2.82842712474619 2.82842712474619 6.99999999999999
vertex -3.23606797749979 2.35114100916989 -3.52495810318487e-016
vertex -3.23606797749979 2.35114100916989 6.99999999999999
endloop
endfacet
facet normal -0.760405965600031 0.649448048330184 3.29371676634645e-033
outer loop
vertex -3.23606797749979 2.35114100916989 -3.52495810318487e-016
vertex -2.82842712474619 2.82842712474619 6.99999999999999
vertex -2.82842712474619 2.82842712474619 -3.52495810318487e-016
endloop
endfacet
facet normal -0.923879532511286 0.382683432365091 -1.09257505972884e-018
outer loop
vertex -3.56402609675347 1.81596199895819 6.99999999999999
vertex -3.80422606518061 1.23606797749979 -3.52495810318487e-016
vertex -3.80422606518061 1.23606797749979 6.99999999999999
endloop
endfacet
facet normal -0.923879532511286 0.382683432365091 -1.09257505972884e-018
outer loop
vertex -3.80422606518061 1.23606797749979 -3.52495810318487e-016
vertex -3.56402609675347 1.81596199895819 6.99999999999999
vertex -3.56402609675347 1.81596199895819 -3.52495810318487e-016
endloop
endfacet
facet normal -0.63358695159184 -0.773671490215685 -4.18255937384704e-019
outer loop
vertex -3.56402609675347 1.81596199895819 -3.52495810318487e-016
vertex -4.34495108423353 2.45548909604877 7.0
vertex -4.34495108423353 2.45548909604877 -7.04991620636974e-016
endloop
endfacet
facet normal -0.63358695159184 -0.773671490215685 -4.18255937384704e-019
outer loop
vertex -4.34495108423353 2.45548909604877 7.0
vertex -3.56402609675347 1.81596199895819 -3.52495810318487e-016
vertex -3.56402609675347 1.81596199895819 6.99999999999999
endloop
endfacet
facet normal -0.852640164354093 0.522498564715948 -7.45876163261926e-019
outer loop
vertex -4.16042331872792 2.7566110415112 7.0
vertex -4.34495108423353 2.45548909604877 -7.04991620636974e-016
vertex -4.34495108423353 2.45548909604877 7.0
endloop
endfacet
facet normal -0.852640164354093 0.522498564715948 -7.45876163261926e-019
outer loop
vertex -4.34495108423353 2.45548909604877 -7.04991620636974e-016
vertex -4.16042331872792 2.7566110415112 7.0
vertex -4.16042331872792 2.7566110415112 -7.04991620636974e-016
endloop
endfacet
facet normal 0.40170388857907 0.915769613986211 -1.60398556876314e-018
outer loop
vertex -4.16042331872792 2.7566110415112 7.0
vertex -3.23606797749979 2.35114100916989 -3.52495810318487e-016
vertex -4.16042331872792 2.7566110415112 -7.04991620636974e-016
endloop
endfacet
facet normal 0.40170388857907 0.915769613986211 -1.60398556876314e-018
outer loop
vertex -3.23606797749979 2.35114100916989 -3.52495810318487e-016
vertex -4.16042331872792 2.7566110415112 7.0
vertex -3.23606797749979 2.35114100916989 6.99999999999999
endloop
endfacet
facet normal 0.852640164354092 0.522498564715949 -0.0
outer loop
vertex 3.23606797749979 2.35114100916989 -3.52495810318487e-016
vertex 3.56402609675347 1.81596199895819 6.99999999999999
vertex 3.56402609675347 1.81596199895819 -3.52495810318487e-016
endloop
endfacet
facet normal 0.852640164354092 0.522498564715949 -0.0
outer loop
vertex 3.56402609675347 1.81596199895819 6.99999999999999
vertex 3.23606797749979 2.35114100916989 -3.52495810318487e-016
vertex 3.23606797749979 2.35114100916989 6.99999999999999
endloop
endfacet
facet normal -3.90796397339077e-015 -1.61873167904391e-015 1.0
outer loop
vertex 3.80422606518061 1.23606797749979 6.99999999999999
vertex 4.54043057745049 2.07183898905033 7.0
vertex 3.56402609675347 1.81596199895819 6.99999999999999
endloop
endfacet
facet normal -3.90796397339077e-015 -1.61873167904391e-015 1.0
outer loop
vertex 4.54043057745049 2.07183898905033 7.0
vertex 3.80422606518061 1.23606797749979 6.99999999999999
vertex 4.67558064950616 1.74555785213783 7.0
endloop
endfacet
facet normal 0.504757559151716 -0.863261146165633 -4.5524437765354e-018
outer loop
vertex 4.67558064950616 1.74555785213783 7.0
vertex 3.80422606518061 1.23606797749979 -3.52495810318487e-016
vertex 4.67558064950616 1.74555785213783 -1.05748743095546e-015
endloop
endfacet
facet normal 0.504757559151716 -0.863261146165633 -4.5524437765354e-018
outer loop
vertex 3.80422606518061 1.23606797749979 -3.52495810318487e-016
vertex 4.67558064950616 1.74555785213783 7.0
vertex 3.80422606518061 1.23606797749979 6.99999999999999
endloop
endfacet
facet normal 0.923879532511287 0.38268343236509 -0.0
outer loop
vertex 4.54043057745049 2.07183898905033 -1.05748743095546e-015
vertex 4.67558064950616 1.74555785213783 7.0
vertex 4.67558064950616 1.74555785213783 -1.05748743095546e-015
endloop
endfacet
facet normal 0.923879532511287 0.38268343236509 -0.0
outer loop
vertex 4.67558064950616 1.74555785213783 7.0
vertex 4.54043057745049 2.07183898905033 -1.05748743095546e-015
vertex 4.54043057745049 2.07183898905033 7.0
endloop
endfacet
facet normal -0.253500317457253 0.967335303319936 2.66466049135432e-019
outer loop
vertex 3.56402609675347 1.81596199895819 -3.52495810318487e-016
vertex 4.54043057745049 2.07183898905033 7.0
vertex 4.54043057745049 2.07183898905033 -1.05748743095546e-015
endloop
endfacet
facet normal -0.253500317457253 0.967335303319936 2.66466049135432e-019
outer loop
vertex 4.54043057745049 2.07183898905033 7.0
vertex 3.56402609675347 1.81596199895819 -3.52495810318487e-016
vertex 3.56402609675347 1.81596199895819 6.99999999999999
endloop
endfacet
facet normal 0.972369920397677 0.233445363855905 -0.0
outer loop
vertex 3.80422606518061 1.23606797749979 -3.52495810318487e-016
vertex 3.95075336238055 0.625737860160922 6.99999999999999
vertex 3.95075336238055 0.625737860160922 -3.52495810318487e-016
endloop
endfacet
facet normal 0.972369920397677 0.233445363855905 -0.0
outer loop
vertex 3.95075336238055 0.625737860160922 6.99999999999999
vertex 3.80422606518061 1.23606797749979 -3.52495810318487e-016
vertex 3.80422606518061 1.23606797749979 6.99999999999999
endloop
endfacet
facet normal -0.0784590957278452 -0.996917333733128 4.48007119991225e-019
outer loop
vertex -7.04991620636974e-016 -4.0 6.99999999999999
vertex -0.625737860160924 -3.95075336238055 -3.52495810318487e-016
vertex -7.41639544917297e-016 -4.0 -3.52495810318487e-016
endloop
endfacet
facet normal -0.0784590957278452 -0.996917333733128 4.48007119991225e-019
outer loop
vertex -0.625737860160924 -3.95075336238055 -3.52495810318487e-016
vertex -7.04991620636974e-016 -4.0 6.99999999999999
vertex -0.625737860160924 -3.95075336238055 6.99999999999999
endloop
endfacet
facet normal 0.233445363855905 -0.972369920397677 -6.66494968914549e-019
outer loop
vertex 1.23606797749979 -3.80422606518061 6.99999999999999
vertex 0.625737860160923 -3.95075336238055 -3.52495810318487e-016
vertex 1.23606797749979 -3.80422606518061 -3.52495810318487e-016
endloop
endfacet
facet normal 0.233445363855905 -0.972369920397677 -6.66494968914549e-019
outer loop
vertex 0.625737860160923 -3.95075336238055 -3.52495810318487e-016
vertex 1.23606797749979 -3.80422606518061 6.99999999999999
vertex 0.625737860160923 -3.95075336238055 6.99999999999999
endloop
endfacet
facet normal -0.976988802142346 -0.2132906010317 5.9516518790626e-018
outer loop
vertex -7.04991620636974e-016 -4.0 6.99999999999999
vertex 0.215290290577799 -4.98614848515158 -7.04991620636974e-016
vertex 0.215290290577799 -4.98614848515158 7.0
endloop
endfacet
facet normal -0.976988802142346 -0.2132906010317 5.9516518790626e-018
outer loop
vertex 0.215290290577799 -4.98614848515158 -7.04991620636974e-016
vertex -7.04991620636974e-016 -4.0 6.99999999999999
vertex -7.41639544917297e-016 -4.0 -3.52495810318487e-016
endloop
endfacet
facet normal 0.0784590957278464 -0.996917333733128 -3.36005339993444e-019
outer loop
vertex 0.567365761038825 -4.95843954469522 7.0
vertex 0.215290290577799 -4.98614848515158 -7.04991620636974e-016
vertex 0.567365761038825 -4.95843954469522 -7.04991620636974e-016
endloop
endfacet
facet normal 0.0784590957278464 -0.996917333733128 -3.36005339993444e-019
outer loop
vertex 0.215290290577799 -4.98614848515158 -7.04991620636974e-016
vertex 0.567365761038825 -4.95843954469522 7.0
vertex 0.215290290577799 -4.98614848515158 7.0
endloop
endfacet
facet normal 0.998326449838509 -0.057829919184094 2.6069243957444e-019
outer loop
vertex 0.625737860160923 -3.95075336238055 -3.52495810318487e-016
vertex 0.567365761038825 -4.95843954469522 7.0
vertex 0.567365761038825 -4.95843954469522 -7.04991620636974e-016
endloop
endfacet
facet normal 0.998326449838509 -0.057829919184094 2.6069243957444e-019
outer loop
vertex 0.567365761038825 -4.95843954469522 7.0
vertex 0.625737860160923 -3.95075336238055 -3.52495810318487e-016
vertex 0.625737860160923 -3.95075336238055 6.99999999999999
endloop
endfacet
facet normal 0.38268343236509 0.923879532511287 9.70401589953722e-034
outer loop
vertex 1.23606797749979 3.80422606518061 6.99999999999999
vertex 1.81596199895819 3.56402609675347 -3.52495810318487e-016
vertex 1.23606797749979 3.80422606518061 -3.52495810318487e-016
endloop
endfacet
facet normal 0.38268343236509 0.923879532511287 9.70401589953722e-034
outer loop
vertex 1.81596199895819 3.56402609675347 -3.52495810318487e-016
vertex 1.23606797749979 3.80422606518061 6.99999999999999
vertex 1.81596199895819 3.56402609675347 6.99999999999999
endloop
endfacet
facet normal 0.0784590957278452 0.996917333733128 -2.24003559995613e-019
outer loop
vertex 3.52495810318487e-016 4.0 6.99999999999999
vertex 0.625737860160923 3.95075336238055 -3.52495810318487e-016
vertex 3.15847886038165e-016 4.0 -3.52495810318487e-016
endloop
endfacet
facet normal 0.0784590957278452 0.996917333733128 -2.24003559995613e-019
outer loop
vertex 0.625737860160923 3.95075336238055 -3.52495810318487e-016
vertex 3.52495810318487e-016 4.0 6.99999999999999
vertex 0.625737860160923 3.95075336238055 6.99999999999999
endloop
endfacet
facet normal 0.995081987084117 -0.0990547272003002 2.48457604697704e-017
outer loop
vertex 1.33605138463965 4.80863736653108 -1.05748743095546e-015
vertex 1.23606797749979 3.80422606518061 6.99999999999999
vertex 1.23606797749979 3.80422606518061 -3.52495810318487e-016
endloop
endfacet
facet normal 0.995081987084117 -0.0990547272003002 2.48457604697704e-017
outer loop
vertex 1.23606797749979 3.80422606518061 6.99999999999999
vertex 1.33605138463965 4.80863736653108 -1.05748743095546e-015
vertex 1.33605138463965 4.80863736653108 7.0
endloop
endfacet
facet normal -0.931594447697505 0.363499360410964 3.04527682187524e-018
outer loop
vertex 0.992645180732867 4.89108190182543 7.0
vertex 0.625737860160923 3.95075336238055 -3.52495810318487e-016
vertex 0.625737860160923 3.95075336238055 6.99999999999999
endloop
endfacet
facet normal -0.931594447697505 0.363499360410964 3.04527682187524e-018
outer loop
vertex 0.625737860160923 3.95075336238055 -3.52495810318487e-016
vertex 0.992645180732867 4.89108190182543 7.0
vertex 0.992645180732867 4.89108190182544 -1.05748743095546e-015
endloop
endfacet
facet normal 0.233445363855903 0.972369920397677 1.12522224078833e-016
outer loop
vertex 0.992645180732867 4.89108190182543 7.0
vertex 1.33605138463965 4.80863736653108 -1.05748743095546e-015
vertex 0.992645180732867 4.89108190182544 -1.05748743095546e-015
endloop
endfacet
facet normal 0.233445363855903 0.972369920397677 1.12522224078833e-016
outer loop
vertex 1.33605138463965 4.80863736653108 -1.05748743095546e-015
vertex 0.992645180732867 4.89108190182543 7.0
vertex 1.33605138463965 4.80863736653108 7.0
endloop
endfacet
facet normal -9.87462152369772e-016 -4.11307587623882e-015 1.0
outer loop
vertex 1.23606797749979 3.80422606518061 6.99999999999999
vertex 0.992645180732867 4.89108190182543 7.0
vertex 0.625737860160923 3.95075336238055 6.99999999999999
endloop
endfacet
facet normal -9.87462152369772e-016 -4.11307587623882e-015 1.0
outer loop
vertex 0.992645180732867 4.89108190182543 7.0
vertex 1.23606797749979 3.80422606518061 6.99999999999999
vertex 1.33605138463965 4.80863736653108 7.0
endloop
endfacet
facet normal -0.0 -0.0 1.0
outer loop
vertex -3.95075336238055 -0.625737860160923 6.99999999999999
vertex -3.95075336238055 0.625737860160923 6.99999999999999
vertex -4.0 3.52495810318487e-016 6.99999999999999
endloop
endfacet
facet normal -0.0 -0.0 1.0
outer loop
vertex -3.95075336238055 0.625737860160923 6.99999999999999
vertex -3.95075336238055 -0.625737860160923 6.99999999999999
vertex -3.80422606518061 -1.23606797749979 6.99999999999999
endloop
endfacet
facet normal -0.0 -0.0 1.0
outer loop
vertex -3.95075336238055 0.625737860160923 6.99999999999999
vertex -3.80422606518061 -1.23606797749979 6.99999999999999
vertex -3.80422606518061 1.23606797749979 6.99999999999999
endloop
endfacet
facet normal -0.0 -0.0 1.0
outer loop
vertex -3.80422606518061 1.23606797749979 6.99999999999999
vertex -3.80422606518061 -1.23606797749979 6.99999999999999
vertex -3.56402609675347 -1.81596199895819 6.99999999999999
endloop
endfacet
facet normal -0.0 -0.0 1.0
outer loop
vertex -3.80422606518061 1.23606797749979 6.99999999999999
vertex -3.56402609675347 -1.81596199895819 6.99999999999999
vertex -3.56402609675347 1.81596199895819 6.99999999999999
endloop
endfacet
facet normal -0.0 -0.0 1.0
outer loop
vertex -3.56402609675347 1.81596199895819 6.99999999999999
vertex -3.56402609675347 -1.81596199895819 6.99999999999999
vertex -3.23606797749979 -2.35114100916989 6.99999999999999
endloop
endfacet
facet normal -0.0 -0.0 1.0
outer loop
vertex -3.56402609675347 1.81596199895819 6.99999999999999
vertex -3.23606797749979 -2.35114100916989 6.99999999999999
vertex -3.23606797749979 2.35114100916989 6.99999999999999
endloop
endfacet
facet normal -0.0 -0.0 1.0
outer loop
vertex -3.23606797749979 2.35114100916989 6.99999999999999
vertex -3.23606797749979 -2.35114100916989 6.99999999999999
vertex -2.82842712474619 -2.82842712474619 6.99999999999999
endloop
endfacet
facet normal -0.0 -0.0 1.0
outer loop
vertex -3.23606797749979 2.35114100916989 6.99999999999999
vertex -2.82842712474619 -2.82842712474619 6.99999999999999
vertex -2.82842712474619 2.82842712474619 6.99999999999999
endloop
endfacet
facet normal -0.0 -0.0 1.0
outer loop
vertex -2.82842712474619 2.82842712474619 6.99999999999999
vertex -2.82842712474619 -2.82842712474619 6.99999999999999
vertex -2.35114100916989 -3.23606797749979 6.99999999999999
endloop
endfacet
facet normal -0.0 -0.0 1.0
outer loop
vertex -2.82842712474619 2.82842712474619 6.99999999999999
vertex -2.35114100916989 -3.23606797749979 6.99999999999999
vertex -2.35114100916989 3.23606797749979 6.99999999999999
endloop
endfacet
facet normal -0.0 -0.0 1.0
outer loop
vertex -2.35114100916989 3.23606797749979 6.99999999999999
vertex -2.35114100916989 -3.23606797749979 6.99999999999999
vertex -1.81596199895819 -3.56402609675347 6.99999999999999
endloop
endfacet
facet normal -0.0 -0.0 1.0
outer loop
vertex -2.35114100916989 3.23606797749979 6.99999999999999
vertex -1.81596199895819 -3.56402609675347 6.99999999999999
vertex -1.81596199895819 3.56402609675347 6.99999999999999
endloop
endfacet
facet normal -0.0 -0.0 1.0
outer loop
vertex -1.81596199895819 3.56402609675347 6.99999999999999
vertex -1.81596199895819 -3.56402609675347 6.99999999999999
vertex -1.5 -2.5 6.99999999999999
endloop
endfacet
facet normal -0.0 -0.0 1.0
outer loop
vertex -1.5 -2.5 6.99999999999999
vertex -1.81596199895819 -3.56402609675347 6.99999999999999
vertex -1.23606797749979 -3.80422606518061 6.99999999999999
endloop
endfacet
facet normal -0.0 -0.0 1.0
outer loop
vertex -1.5 -2.5 6.99999999999999
vertex -1.23606797749979 -3.80422606518061 6.99999999999999
vertex 1.5 -2.5 6.99999999999999
endloop
endfacet
facet normal -0.0 -0.0 1.0
outer loop
vertex 1.5 -2.5 6.99999999999999
vertex -1.23606797749979 -3.80422606518061 6.99999999999999
vertex -0.625737860160924 -3.95075336238055 6.99999999999999
endloop
endfacet
facet normal -0.0 -0.0 1.0
outer loop
vertex 1.5 -2.5 6.99999999999999
vertex -0.625737860160924 -3.95075336238055 6.99999999999999
vertex -7.04991620636974e-016 -4.0 6.99999999999999
endloop
endfacet
facet normal -0.0 -0.0 1.0
outer loop
vertex 1.5 -2.5 6.99999999999999
vertex -7.04991620636974e-016 -4.0 6.99999999999999
vertex 0.625737860160923 -3.95075336238055 6.99999999999999
endloop
endfacet
facet normal -0.0 -0.0 1.0
outer loop
vertex 1.5 -2.5 6.99999999999999
vertex 0.625737860160923 -3.95075336238055 6.99999999999999
vertex 1.23606797749979 -3.80422606518061 6.99999999999999
endloop
endfacet
facet normal -0.0 -0.0 1.0
outer loop
vertex 1.5 -2.5 6.99999999999999
vertex 1.23606797749979 -3.80422606518061 6.99999999999999
vertex 1.81596199895819 -3.56402609675347 6.99999999999999
endloop
endfacet
facet normal -0.0 -0.0 1.0
outer loop
vertex 1.5 -2.5 6.99999999999999
vertex 1.81596199895819 -3.56402609675347 6.99999999999999
vertex 1.5 2.5 6.99999999999999
endloop
endfacet
facet normal -0.0 -0.0 1.0
outer loop
vertex -1.81596199895819 3.56402609675347 6.99999999999999
vertex -1.5 2.5 6.99999999999999
vertex -1.23606797749979 3.80422606518061 6.99999999999999
endloop
endfacet
facet normal -0.0 -0.0 1.0
outer loop
vertex -1.5 2.5 6.99999999999999
vertex -1.81596199895819 3.56402609675347 6.99999999999999
vertex -1.5 -2.5 6.99999999999999
endloop
endfacet
facet normal -0.0 -0.0 1.0
outer loop
vertex -1.23606797749979 3.80422606518061 6.99999999999999
vertex -1.5 2.5 6.99999999999999
vertex 1.5 2.5 6.99999999999999
endloop
endfacet
facet normal -0.0 -0.0 1.0
outer loop
vertex -1.23606797749979 3.80422606518061 6.99999999999999
vertex 1.5 2.5 6.99999999999999
vertex -0.625737860160923 3.95075336238055 6.99999999999999
endloop
endfacet
facet normal -0.0 -0.0 1.0
outer loop
vertex -0.625737860160923 3.95075336238055 6.99999999999999
vertex 1.5 2.5 6.99999999999999
vertex 3.52495810318487e-016 4.0 6.99999999999999
endloop
endfacet
facet normal -0.0 -0.0 1.0
outer loop
vertex 3.52495810318487e-016 4.0 6.99999999999999
vertex 1.5 2.5 6.99999999999999
vertex 0.625737860160923 3.95075336238055 6.99999999999999
endloop
endfacet
facet normal -0.0 -0.0 1.0
outer loop
vertex 0.625737860160923 3.95075336238055 6.99999999999999
vertex 1.5 2.5 6.99999999999999
vertex 1.23606797749979 3.80422606518061 6.99999999999999
endloop
endfacet
facet normal -0.0 -0.0 1.0
outer loop
vertex 1.23606797749979 3.80422606518061 6.99999999999999
vertex 1.5 2.5 6.99999999999999
vertex 1.81596199895819 3.56402609675347 6.99999999999999
endloop
endfacet
facet normal -0.0 -0.0 1.0
outer loop
vertex 1.81596199895819 3.56402609675347 6.99999999999999
vertex 1.5 2.5 6.99999999999999
vertex 1.81596199895819 -3.56402609675347 6.99999999999999
endloop
endfacet
facet normal -0.0 -0.0 1.0
outer loop
vertex 1.81596199895819 3.56402609675347 6.99999999999999
vertex 1.81596199895819 -3.56402609675347 6.99999999999999
vertex 2.35114100916989 -3.23606797749979 6.99999999999999
endloop
endfacet
facet normal -0.0 -0.0 1.0
outer loop
vertex 1.81596199895819 3.56402609675347 6.99999999999999
vertex 2.35114100916989 -3.23606797749979 6.99999999999999
vertex 2.35114100916989 3.23606797749979 6.99999999999999
endloop
endfacet
facet normal -0.0 -0.0 1.0
outer loop
vertex 2.35114100916989 3.23606797749979 6.99999999999999
vertex 2.35114100916989 -3.23606797749979 6.99999999999999
vertex 2.82842712474619 -2.82842712474619 6.99999999999999
endloop
endfacet
facet normal -0.0 -0.0 1.0
outer loop
vertex 2.35114100916989 3.23606797749979 6.99999999999999
vertex 2.82842712474619 -2.82842712474619 6.99999999999999
vertex 2.82842712474619 2.82842712474619 6.99999999999999
endloop
endfacet
facet normal -0.0 -0.0 1.0
outer loop
vertex 2.82842712474619 2.82842712474619 6.99999999999999
vertex 2.82842712474619 -2.82842712474619 6.99999999999999
vertex 3.23606797749979 -2.35114100916989 6.99999999999999
endloop
endfacet
facet normal -0.0 -0.0 1.0
outer loop
vertex 2.82842712474619 2.82842712474619 6.99999999999999
vertex 3.23606797749979 -2.35114100916989 6.99999999999999
vertex 3.23606797749979 2.35114100916989 6.99999999999999
endloop
endfacet
facet normal -0.0 -0.0 1.0
outer loop
vertex 3.23606797749979 2.35114100916989 6.99999999999999
vertex 3.23606797749979 -2.35114100916989 6.99999999999999
vertex 3.56402609675347 -1.81596199895819 6.99999999999999
endloop
endfacet
facet normal -0.0 -0.0 1.0
outer loop
vertex 3.23606797749979 2.35114100916989 6.99999999999999
vertex 3.56402609675347 -1.81596199895819 6.99999999999999
vertex 3.56402609675347 1.81596199895819 6.99999999999999
endloop
endfacet
facet normal -0.0 -0.0 1.0
outer loop
vertex 3.56402609675347 1.81596199895819 6.99999999999999
vertex 3.56402609675347 -1.81596199895819 6.99999999999999
vertex 3.80422606518061 -1.23606797749979 6.99999999999999
endloop
endfacet
facet normal -0.0 -0.0 1.0
outer loop
vertex 3.56402609675347 1.81596199895819 6.99999999999999
vertex 3.80422606518061 -1.23606797749979 6.99999999999999
vertex 3.80422606518061 1.23606797749979 6.99999999999999
endloop
endfacet
facet normal -0.0 -0.0 1.0
outer loop
vertex 3.80422606518061 1.23606797749979 6.99999999999999
vertex 3.80422606518061 -1.23606797749979 6.99999999999999
vertex 3.95075336238055 -0.625737860160924 6.99999999999999
endloop
endfacet
facet normal -0.0 -0.0 1.0
outer loop
vertex 3.80422606518061 1.23606797749979 6.99999999999999
vertex 3.95075336238055 -0.625737860160924 6.99999999999999
vertex 3.95075336238055 0.625737860160922 6.99999999999999
endloop
endfacet
facet normal -0.0 -0.0 1.0
outer loop
vertex 3.95075336238055 0.625737860160922 6.99999999999999
vertex 3.95075336238055 -0.625737860160924 6.99999999999999
vertex 4.0 -1.05748743095546e-015 6.99999999999999
endloop
endfacet
endsolid motor-gear-v
