solid ball-bearing-adapter
facet normal -0.707106781186548 -0.707106781186547 0.0
outer loop
vertex 3.53553390593274 3.53553390593274 2.0
vertex 4.33012701892219 2.5 0.0
vertex 4.33012701892219 2.5 2.0
endloop
endfacet
facet normal -0.866025403784439 -0.5 0.0
outer loop
vertex 4.33012701892219 2.5 0.0
vertex 3.53553390593274 3.53553390593274 2.0
vertex 3.53553390593274 3.53553390593274 0.0
endloop
endfacet
facet normal -0.866025403784439 -0.5 0.0
outer loop
vertex 4.33012701892219 2.5 2.0
vertex 4.82962913144534 1.2940952255126 0.0
vertex 4.82962913144534 1.2940952255126 2.0
endloop
endfacet
facet normal -0.965925826289068 -0.258819045102521 0.0
outer loop
vertex 4.82962913144534 1.2940952255126 0.0
vertex 4.33012701892219 2.5 2.0
vertex 4.33012701892219 2.5 0.0
endloop
endfacet
facet normal -0.965925826289068 -0.258819045102521 0.0
outer loop
vertex 4.82962913144534 1.2940952255126 2.0
vertex 5.0 0.0 0.0
vertex 5.0 0.0 2.0
endloop
endfacet
facet normal -1.0 5.34666593738814e-017 0.0
outer loop
vertex 5.0 0.0 0.0
vertex 4.82962913144534 1.2940952255126 2.0
vertex 4.82962913144534 1.2940952255126 0.0
endloop
endfacet
facet normal -1.0 5.34666593738814e-017 0.0
outer loop
vertex 5.0 0.0 2.0
vertex 4.82962913144534 -1.29409522551261 0.0
vertex 4.82962913144534 -1.29409522551261 2.0
endloop
endfacet
facet normal -0.965925826289068 0.258819045102521 0.0
outer loop
vertex 4.82962913144534 -1.29409522551261 0.0
vertex 5.0 0.0 2.0
vertex 5.0 0.0 0.0
endloop
endfacet
facet normal -0.965925826289068 0.258819045102521 0.0
outer loop
vertex 4.82962913144534 -1.29409522551261 2.0
vertex 4.33012701892219 -2.5 0.0
vertex 4.33012701892219 -2.5 2.0
endloop
endfacet
facet normal -0.866025403784438 0.5 0.0
outer loop
vertex 4.33012701892219 -2.5 0.0
vertex 4.82962913144534 -1.29409522551261 2.0
vertex 4.82962913144534 -1.29409522551261 0.0
endloop
endfacet
facet normal -0.866025403784438 0.5 0.0
outer loop
vertex 4.33012701892219 -2.5 2.0
vertex 3.53553390593274 -3.53553390593274 0.0
vertex 3.53553390593274 -3.53553390593274 2.0
endloop
endfacet
facet normal -0.707106781186547 0.707106781186548 0.0
outer loop
vertex 3.53553390593274 -3.53553390593274 0.0
vertex 4.33012701892219 -2.5 2.0
vertex 4.33012701892219 -2.5 0.0
endloop
endfacet
facet normal -0.5 0.866025403784439 0.0
outer loop
vertex 2.5 -4.33012701892219 2.0
vertex 3.53553390593274 -3.53553390593274 0.0
vertex 2.5 -4.33012701892219 0.0
endloop
endfacet
facet normal -0.707106781186547 0.707106781186548 0.0
outer loop
vertex 3.53553390593274 -3.53553390593274 0.0
vertex 2.5 -4.33012701892219 2.0
vertex 3.53553390593274 -3.53553390593274 2.0
endloop
endfacet
facet normal -0.25881904510252 0.965925826289068 0.0
outer loop
vertex 1.2940952255126 -4.82962913144534 2.0
vertex 2.5 -4.33012701892219 0.0
vertex 1.2940952255126 -4.82962913144534 0.0
endloop
endfacet
facet normal -0.5 0.866025403784439 0.0
outer loop
vertex 2.5 -4.33012701892219 0.0
vertex 1.2940952255126 -4.82962913144534 2.0
vertex 2.5 -4.33012701892219 2.0
endloop
endfacet
facet normal 3.11888846347642e-016 1.0 0.0
outer loop
vertex -9.18485099360515e-016 -5.0 2.0
vertex 1.2940952255126 -4.82962913144534 0.0
vertex -9.18485099360515e-016 -5.0 0.0
endloop
endfacet
facet normal -0.25881904510252 0.965925826289068 0.0
outer loop
vertex 1.2940952255126 -4.82962913144534 0.0
vertex -9.18485099360515e-016 -5.0 2.0
vertex 1.2940952255126 -4.82962913144534 2.0
endloop
endfacet
facet normal 0.258819045102521 0.965925826289068 0.0
outer loop
vertex -1.29409522551261 -4.82962913144534 2.0
vertex -9.18485099360515e-016 -5.0 0.0
vertex -1.29409522551261 -4.82962913144534 0.0
endloop
endfacet
facet normal 3.11888846347642e-016 1.0 0.0
outer loop
vertex -9.18485099360515e-016 -5.0 0.0
vertex -1.29409522551261 -4.82962913144534 2.0
vertex -9.18485099360515e-016 -5.0 2.0
endloop
endfacet
facet normal 0.500000000000001 0.866025403784438 0.0
outer loop
vertex -2.5 -4.33012701892219 2.0
vertex -1.29409522551261 -4.82962913144534 0.0
vertex -2.5 -4.33012701892219 0.0
endloop
endfacet
facet normal 0.258819045102521 0.965925826289068 0.0
outer loop
vertex -1.29409522551261 -4.82962913144534 0.0
vertex -2.5 -4.33012701892219 2.0
vertex -1.29409522551261 -4.82962913144534 2.0
endloop
endfacet
facet normal 0.707106781186548 0.707106781186547 0.0
outer loop
vertex -3.53553390593274 -3.53553390593274 2.0
vertex -2.5 -4.33012701892219 0.0
vertex -3.53553390593274 -3.53553390593274 0.0
endloop
endfacet
facet normal 0.500000000000001 0.866025403784438 0.0
outer loop
vertex -2.5 -4.33012701892219 0.0
vertex -3.53553390593274 -3.53553390593274 2.0
vertex -2.5 -4.33012701892219 2.0
endloop
endfacet
facet normal 0.866025403784439 0.5 0.0
outer loop
vertex -4.33012701892219 -2.5 0.0
vertex -3.53553390593274 -3.53553390593274 2.0
vertex -3.53553390593274 -3.53553390593274 0.0
endloop
endfacet
facet normal 0.707106781186548 0.707106781186547 0.0
outer loop
vertex -3.53553390593274 -3.53553390593274 2.0
vertex -4.33012701892219 -2.5 0.0
vertex -4.33012701892219 -2.5 2.0
endloop
endfacet
facet normal 0.965925826289068 0.25881904510252 0.0
outer loop
vertex -4.82962913144534 -1.2940952255126 0.0
vertex -4.33012701892219 -2.5 2.0
vertex -4.33012701892219 -2.5 0.0
endloop
endfacet
facet normal 0.866025403784439 0.5 0.0
outer loop
vertex -4.33012701892219 -2.5 2.0
vertex -4.82962913144534 -1.2940952255126 0.0
vertex -4.82962913144534 -1.2940952255126 2.0
endloop
endfacet
facet normal 1.0 -1.4257775833035e-016 0.0
outer loop
vertex -5.0 6.12323399573677e-016 0.0
vertex -4.82962913144534 -1.2940952255126 2.0
vertex -4.82962913144534 -1.2940952255126 0.0
endloop
endfacet
facet normal 0.965925826289068 0.25881904510252 0.0
outer loop
vertex -4.82962913144534 -1.2940952255126 2.0
vertex -5.0 6.12323399573677e-016 0.0
vertex -5.0 6.12323399573677e-016 2.0
endloop
endfacet
facet normal 0.965925826289068 -0.258819045102521 0.0
outer loop
vertex -4.82962913144534 1.2940952255126 0.0
vertex -5.0 6.12323399573677e-016 2.0
vertex -5.0 6.12323399573677e-016 0.0
endloop
endfacet
facet normal 1.0 -1.4257775833035e-016 0.0
outer loop
vertex -5.0 6.12323399573677e-016 2.0
vertex -4.82962913144534 1.2940952255126 0.0
vertex -4.82962913144534 1.2940952255126 2.0
endloop
endfacet
facet normal 0.866025403784438 -0.5 0.0
outer loop
vertex -4.33012701892219 2.5 0.0
vertex -4.82962913144534 1.2940952255126 2.0
vertex -4.82962913144534 1.2940952255126 0.0
endloop
endfacet
facet normal 0.965925826289068 -0.258819045102521 0.0
outer loop
vertex -4.82962913144534 1.2940952255126 2.0
vertex -4.33012701892219 2.5 0.0
vertex -4.33012701892219 2.5 2.0
endloop
endfacet
facet normal 0.707106781186547 -0.707106781186548 0.0
outer loop
vertex -3.53553390593274 3.53553390593274 0.0
vertex -4.33012701892219 2.5 2.0
vertex -4.33012701892219 2.5 0.0
endloop
endfacet
facet normal 0.866025403784438 -0.5 0.0
outer loop
vertex -4.33012701892219 2.5 2.0
vertex -3.53553390593274 3.53553390593274 0.0
vertex -3.53553390593274 3.53553390593274 2.0
endloop
endfacet
facet normal 0.5 -0.866025403784439 0.0
outer loop
vertex -2.5 4.33012701892219 2.0
vertex -3.53553390593274 3.53553390593274 0.0
vertex -2.5 4.33012701892219 0.0
endloop
endfacet
facet normal 0.707106781186547 -0.707106781186548 0.0
outer loop
vertex -3.53553390593274 3.53553390593274 0.0
vertex -2.5 4.33012701892219 2.0
vertex -3.53553390593274 3.53553390593274 2.0
endloop
endfacet
facet normal 0.258819045102521 -0.965925826289068 0.0
outer loop
vertex -1.2940952255126 4.82962913144534 2.0
vertex -2.5 4.33012701892219 0.0
vertex -1.2940952255126 4.82962913144534 0.0
endloop
endfacet
facet normal 0.5 -0.866025403784439 0.0
outer loop
vertex -2.5 4.33012701892219 0.0
vertex -1.2940952255126 4.82962913144534 2.0
vertex -2.5 4.33012701892219 2.0
endloop
endfacet
facet normal 4.45555494782345e-017 -1.0 0.0
outer loop
vertex 3.06161699786838e-016 5.0 2.0
vertex -1.2940952255126 4.82962913144534 0.0
vertex 3.06161699786838e-016 5.0 0.0
endloop
endfacet
facet normal 0.258819045102521 -0.965925826289068 0.0
outer loop
vertex -1.2940952255126 4.82962913144534 0.0
vertex 3.06161699786838e-016 5.0 2.0
vertex -1.2940952255126 4.82962913144534 2.0
endloop
endfacet
facet normal -0.258819045102521 -0.965925826289068 0.0
outer loop
vertex 1.2940952255126 4.82962913144534 2.0
vertex 3.06161699786838e-016 5.0 0.0
vertex 1.2940952255126 4.82962913144534 0.0
endloop
endfacet
facet normal 4.45555494782345e-017 -1.0 0.0
outer loop
vertex 3.06161699786838e-016 5.0 0.0
vertex 1.2940952255126 4.82962913144534 2.0
vertex 3.06161699786838e-016 5.0 2.0
endloop
endfacet
facet normal -0.5 -0.866025403784438 0.0
outer loop
vertex 2.5 4.33012701892219 2.0
vertex 1.2940952255126 4.82962913144534 0.0
vertex 2.5 4.33012701892219 0.0
endloop
endfacet
facet normal -0.258819045102521 -0.965925826289068 0.0
outer loop
vertex 1.2940952255126 4.82962913144534 0.0
vertex 2.5 4.33012701892219 2.0
vertex 1.2940952255126 4.82962913144534 2.0
endloop
endfacet
facet normal -0.707106781186548 -0.707106781186547 0.0
outer loop
vertex 3.53553390593274 3.53553390593274 2.0
vertex 2.5 4.33012701892219 0.0
vertex 3.53553390593274 3.53553390593274 0.0
endloop
endfacet
facet normal -0.5 -0.866025403784438 0.0
outer loop
vertex 2.5 4.33012701892219 0.0
vertex 3.53553390593274 3.53553390593274 2.0
vertex 2.5 4.33012701892219 2.0
endloop
endfacet
facet normal -0.965925826289069 -0.258819045102519 5.63599555587774e-017
outer loop
vertex -2.51140714835158 -0.672929517266548 9.0
vertex -2.25166604983954 -1.3 0.0
vertex -2.25166604983954 -1.3 9.0
endloop
endfacet
facet normal -0.866025403784439 -0.499999999999999 2.63529525909553e-017
outer loop
vertex -2.25166604983954 -1.3 0.0
vertex -2.51140714835158 -0.672929517266548 9.0
vertex -2.51140714835158 -0.672929517266549 0.0
endloop
endfacet
facet normal -0.866025403784439 -0.499999999999999 2.63529525909553e-017
outer loop
vertex -2.25166604983954 -1.3 9.0
vertex -1.83847763108502 -1.83847763108502 0.0
vertex -1.83847763108502 -1.83847763108502 9.0
endloop
endfacet
facet normal -0.707106781186548 -0.707106781186547 -1.24110224594562e-017
outer loop
vertex -1.83847763108502 -1.83847763108502 0.0
vertex -2.25166604983954 -1.3 9.0
vertex -2.25166604983954 -1.3 0.0
endloop
endfacet
facet normal -0.5 -0.866025403784438 5.98441093258655e-018
outer loop
vertex -1.3 -2.25166604983954 9.0
vertex -1.83847763108502 -1.83847763108502 0.0
vertex -1.3 -2.25166604983954 0.0
endloop
endfacet
facet normal -0.707106781186548 -0.707106781186547 -1.24110224594562e-017
outer loop
vertex -1.83847763108502 -1.83847763108502 0.0
vertex -1.3 -2.25166604983954 9.0
vertex -1.83847763108502 -1.83847763108502 9.0
endloop
endfacet
facet normal -0.258819045102521 -0.965925826289068 1.23661330356806e-017
outer loop
vertex -0.672929517266555 -2.51140714835158 9.0
vertex -1.3 -2.25166604983954 0.0
vertex -0.672929517266555 -2.51140714835158 0.0
endloop
endfacet
facet normal -0.5 -0.866025403784438 5.98441093258655e-018
outer loop
vertex -1.3 -2.25166604983954 0.0
vertex -0.672929517266555 -2.51140714835158 9.0
vertex -1.3 -2.25166604983954 9.0
endloop
endfacet
facet normal -2.67333296869407e-016 -1.0 2.03396266023086e-017
outer loop
vertex -9.6936347837584e-016 -2.6 9.0
vertex -0.672929517266555 -2.51140714835158 0.0
vertex -7.04991620636974e-016 -2.6 0.0
endloop
endfacet
facet normal -0.258819045102521 -0.965925826289068 1.23661330356806e-017
outer loop
vertex -0.672929517266555 -2.51140714835158 0.0
vertex -9.6936347837584e-016 -2.6 9.0
vertex -0.672929517266555 -2.51140714835158 9.0
endloop
endfacet
facet normal 0.25881904510252 -0.965925826289068 1.33066431464458e-017
outer loop
vertex 0.672929517266553 -2.51140714835158 9.0
vertex -7.04991620636974e-016 -2.6 0.0
vertex 0.672929517266553 -2.51140714835158 0.0
endloop
endfacet
facet normal -2.67333296869407e-016 -1.0 2.03396266023086e-017
outer loop
vertex -7.04991620636974e-016 -2.6 0.0
vertex 0.672929517266553 -2.51140714835158 9.0
vertex -9.6936347837584e-016 -2.6 9.0
endloop
endfacet
facet normal 0.5 -0.866025403784439 1.78933969016345e-017
outer loop
vertex 1.3 -2.25166604983954 9.0
vertex 0.672929517266553 -2.51140714835158 0.0
vertex 1.3 -2.25166604983954 0.0
endloop
endfacet
facet normal 0.25881904510252 -0.965925826289068 1.33066431464458e-017
outer loop
vertex 0.672929517266553 -2.51140714835158 0.0
vertex 1.3 -2.25166604983954 9.0
vertex 0.672929517266553 -2.51140714835158 9.0
endloop
endfacet
facet normal 0.707106781186547 -0.707106781186548 2.95017825924923e-017
outer loop
vertex 1.83847763108502 -1.83847763108502 9.0
vertex 1.3 -2.25166604983954 0.0
vertex 1.83847763108502 -1.83847763108502 0.0
endloop
endfacet
facet normal 0.5 -0.866025403784439 1.78933969016345e-017
outer loop
vertex 1.3 -2.25166604983954 0.0
vertex 1.83847763108502 -1.83847763108502 9.0
vertex 1.3 -2.25166604983954 9.0
endloop
endfacet
facet normal 0.866025403784438 -0.5 2.65388356689037e-017
outer loop
vertex 2.25166604983954 -1.3 0.0
vertex 1.83847763108502 -1.83847763108502 9.0
vertex 1.83847763108502 -1.83847763108502 0.0
endloop
endfacet
facet normal 0.707106781186547 -0.707106781186548 2.95017825924923e-017
outer loop
vertex 1.83847763108502 -1.83847763108502 9.0
vertex 2.25166604983954 -1.3 0.0
vertex 2.25166604983954 -1.3 9.0
endloop
endfacet
facet normal 0.965925826289068 -0.258819045102521 4.63844058803855e-017
outer loop
vertex 2.51140714835158 -0.672929517266555 0.0
vertex 2.25166604983954 -1.3 9.0
vertex 2.25166604983954 -1.3 0.0
endloop
endfacet
facet normal 0.866025403784438 -0.5 2.65388356689037e-017
outer loop
vertex 2.25166604983954 -1.3 9.0
vertex 2.51140714835158 -0.672929517266555 0.0
vertex 2.51140714835158 -0.672929517266554 9.0
endloop
endfacet
facet normal 1.0 8.91110989564691e-018 5.96316219712396e-017
outer loop
vertex 2.6 -3.52495810318487e-016 0.0
vertex 2.51140714835158 -0.672929517266554 9.0
vertex 2.51140714835158 -0.672929517266555 0.0
endloop
endfacet
facet normal 0.965925826289068 -0.258819045102521 4.63844058803855e-017
outer loop
vertex 2.51140714835158 -0.672929517266554 9.0
vertex 2.6 -3.52495810318487e-016 0.0
vertex 2.6 8.81239525796218e-017 9.0
endloop
endfacet
facet normal 0.965925826289068 0.258819045102521 4.48715112565052e-017
outer loop
vertex 2.51140714835158 0.672929517266554 0.0
vertex 2.6 8.81239525796218e-017 9.0
vertex 2.6 -3.52495810318487e-016 0.0
endloop
endfacet
facet normal 1.0 1.78222197912938e-017 5.96316219712396e-017
outer loop
vertex 2.6 8.81239525796218e-017 9.0
vertex 2.51140714835158 0.672929517266554 0.0
vertex 2.51140714835158 0.672929517266554 9.0
endloop
endfacet
facet normal 0.866025403784439 0.5 4.46651866872205e-017
outer loop
vertex 2.25166604983954 1.3 0.0
vertex 2.51140714835158 0.672929517266554 9.0
vertex 2.51140714835158 0.672929517266554 0.0
endloop
endfacet
facet normal 0.965925826289068 0.258819045102521 4.48715112565052e-017
outer loop
vertex 2.51140714835158 0.672929517266554 9.0
vertex 2.25166604983954 1.3 0.0
vertex 2.25166604983954 1.3 9.0
endloop
endfacet
facet normal 0.707106781186547 0.707106781186548 4.47213303173401e-017
outer loop
vertex 1.83847763108502 1.83847763108502 0.0
vertex 2.25166604983954 1.3 9.0
vertex 2.25166604983954 1.3 0.0
endloop
endfacet
facet normal 0.866025403784439 0.5 4.46651866872205e-017
outer loop
vertex 2.25166604983954 1.3 9.0
vertex 1.83847763108502 1.83847763108502 0.0
vertex 1.83847763108502 1.83847763108502 9.0
endloop
endfacet
facet normal 0.499999999999999 0.866025403784439 3.7522541484484e-017
outer loop
vertex 1.3 2.25166604983954 9.0
vertex 1.83847763108502 1.83847763108502 0.0
vertex 1.3 2.25166604983954 0.0
endloop
endfacet
facet normal 0.707106781186547 0.707106781186548 4.47213303173401e-017
outer loop
vertex 1.83847763108502 1.83847763108502 0.0
vertex 1.3 2.25166604983954 9.0
vertex 1.83847763108502 1.83847763108502 9.0
endloop
endfacet
facet normal 0.25881904510252 0.965925826289068 3.4792032915769e-017
outer loop
vertex 0.672929517266553 2.51140714835158 9.0
vertex 1.3 2.25166604983954 0.0
vertex 0.672929517266553 2.51140714835158 0.0
endloop
endfacet
facet normal 0.499999999999999 0.866025403784439 3.7522541484484e-017
outer loop
vertex 1.3 2.25166604983954 0.0
vertex 0.672929517266553 2.51140714835158 9.0
vertex 1.3 2.25166604983954 9.0
endloop
endfacet
facet normal -2.31688857286819e-016 1.0 2.05670063528806e-017
outer loop
vertex 0.0 2.6 9.0
vertex 0.672929517266553 2.51140714835158 0.0
vertex -5.28743715477731e-016 2.6 0.0
endloop
endfacet
facet normal 0.25881904510252 0.965925826289068 3.4792032915769e-017
outer loop
vertex 0.672929517266553 2.51140714835158 0.0
vertex 0.0 2.6 9.0
vertex 0.672929517266553 2.51140714835158 9.0
endloop
endfacet
facet normal -0.258819045102521 0.965925826289068 1.98804000534151e-017
outer loop
vertex -0.672929517266553 2.51140714835158 9.0
vertex -5.28743715477731e-016 2.6 0.0
vertex -0.672929517266554 2.51140714835158 0.0
endloop
endfacet
facet normal -2.49511077078113e-016 1.0 2.05670063528806e-017
outer loop
vertex -5.28743715477731e-016 2.6 0.0
vertex -0.672929517266553 2.51140714835158 9.0
vertex 0.0 2.6 9.0
endloop
endfacet
facet normal -0.5 0.866025403784439 3.09012940178917e-017
outer loop
vertex -1.3 2.25166604983954 9.0
vertex -0.672929517266554 2.51140714835158 0.0
vertex -1.3 2.25166604983954 0.0
endloop
endfacet
facet normal -0.258819045102521 0.965925826289068 1.98804000534151e-017
outer loop
vertex -0.672929517266554 2.51140714835158 0.0
vertex -1.3 2.25166604983954 9.0
vertex -0.672929517266553 2.51140714835158 9.0
endloop
endfacet
facet normal -0.707106781186547 0.707106781186548 2.36862613812703e-017
outer loop
vertex -1.83847763108502 1.83847763108503 9.0
vertex -1.3 2.25166604983954 0.0
vertex -1.83847763108502 1.83847763108503 0.0
endloop
endfacet
facet normal -0.499999999999999 0.866025403784439 3.09012940178917e-017
outer loop
vertex -1.3 2.25166604983954 0.0
vertex -1.83847763108502 1.83847763108503 9.0
vertex -1.3 2.25166604983954 9.0
endloop
endfacet
facet normal -0.866025403784438 0.500000000000001 2.54782612904368e-017
outer loop
vertex -2.25166604983954 1.3 9.0
vertex -1.83847763108502 1.83847763108503 0.0
vertex -2.25166604983954 1.3 0.0
endloop
endfacet
facet normal -0.707106781186547 0.707106781186548 2.36862613812703e-017
outer loop
vertex -1.83847763108502 1.83847763108503 0.0
vertex -2.25166604983954 1.3 9.0
vertex -1.83847763108502 1.83847763108503 9.0
endloop
endfacet
facet normal -0.965925826289068 0.258819045102522 3.35957903109683e-017
outer loop
vertex -2.51140714835158 0.672929517266558 9.0
vertex -2.25166604983954 1.3 0.0
vertex -2.51140714835158 0.672929517266557 0.0
endloop
endfacet
facet normal -0.866025403784438 0.500000000000001 2.54782612904368e-017
outer loop
vertex -2.25166604983954 1.3 0.0
vertex -2.51140714835158 0.672929517266558 9.0
vertex -2.25166604983954 1.3 9.0
endloop
endfacet
facet normal -1.0 1.71093309996421e-015 3.11800894890514e-017
outer loop
vertex -2.6 4.8468173918792e-015 9.0
vertex -2.51140714835158 0.672929517266557 0.0
vertex -2.6 4.22994972382185e-015 0.0
endloop
endfacet
facet normal -0.965925826289068 0.258819045102522 3.35957903109683e-017
outer loop
vertex -2.51140714835158 0.672929517266557 0.0
vertex -2.6 4.8468173918792e-015 9.0
vertex -2.51140714835158 0.672929517266558 9.0
endloop
endfacet
facet normal -0.965925826289069 -0.258819045102519 5.63599555587774e-017
outer loop
vertex -2.51140714835158 -0.672929517266548 9.0
vertex -2.6 4.22994972382185e-015 0.0
vertex -2.51140714835158 -0.672929517266549 0.0
endloop
endfacet
facet normal -1.0 1.69311088017291e-015 3.11800894890514e-017
outer loop
vertex -2.6 4.22994972382185e-015 0.0
vertex -2.51140714835158 -0.672929517266548 9.0
vertex -2.6 4.8468173918792e-015 9.0
endloop
endfacet
facet normal 0.0 0.0 -1.0
outer loop
vertex -4.33012701892219 2.5 2.0
vertex -3.96029588778518 1.06115808492034 2.0
vertex -4.1 -3.52495810318487e-016 2.0
endloop
endfacet
facet normal 0.0 0.0 -1.0
outer loop
vertex -3.96029588778518 1.06115808492034 2.0
vertex -4.33012701892219 2.5 2.0
vertex -3.53553390593274 3.53553390593274 2.0
endloop
endfacet
facet normal 0.0 0.0 -1.0
outer loop
vertex -3.96029588778518 1.06115808492034 2.0
vertex -3.53553390593274 3.53553390593274 2.0
vertex -3.5507041555162 2.05 2.0
endloop
endfacet
facet normal 0.0 0.0 -1.0
outer loop
vertex -3.5507041555162 2.05 2.0
vertex -3.53553390593274 3.53553390593274 2.0
vertex -2.89913780286484 2.89913780286485 2.0
endloop
endfacet
facet normal 0.0 0.0 -1.0
outer loop
vertex -2.89913780286484 2.89913780286485 2.0
vertex -3.53553390593274 3.53553390593274 2.0
vertex -2.5 4.33012701892219 2.0
endloop
endfacet
facet normal 0.0 0.0 -1.0
outer loop
vertex -2.89913780286484 2.89913780286485 2.0
vertex -2.5 4.33012701892219 2.0
vertex -2.05 3.5507041555162 2.0
endloop
endfacet
facet normal 0.0 0.0 -1.0
outer loop
vertex -2.05 3.5507041555162 2.0
vertex -2.5 4.33012701892219 2.0
vertex -1.2940952255126 4.82962913144534 2.0
endloop
endfacet
facet normal 0.0 0.0 -1.0
outer loop
vertex -2.05 3.5507041555162 2.0
vertex -1.2940952255126 4.82962913144534 2.0
vertex -1.06115808492033 3.96029588778518 2.0
endloop
endfacet
facet normal 0.0 0.0 -1.0
outer loop
vertex -1.06115808492033 3.96029588778518 2.0
vertex -1.2940952255126 4.82962913144534 2.0
vertex 3.06161699786838e-016 5.0 2.0
endloop
endfacet
facet normal 0.0 0.0 -1.0
outer loop
vertex -1.06115808492033 3.96029588778518 2.0
vertex 3.06161699786838e-016 5.0 2.0
vertex 3.52495810318487e-016 4.1 2.0
endloop
endfacet
facet normal 0.0 0.0 -1.0
outer loop
vertex 3.52495810318487e-016 4.1 2.0
vertex 3.06161699786838e-016 5.0 2.0
vertex 1.2940952255126 4.82962913144534 2.0
endloop
endfacet
facet normal 0.0 0.0 -1.0
outer loop
vertex 3.52495810318487e-016 4.1 2.0
vertex 1.2940952255126 4.82962913144534 2.0
vertex 1.06115808492034 3.96029588778518 2.0
endloop
endfacet
facet normal 0.0 0.0 -1.0
outer loop
vertex 1.06115808492034 3.96029588778518 2.0
vertex 1.2940952255126 4.82962913144534 2.0
vertex 2.05 3.5507041555162 2.0
endloop
endfacet
facet normal 0.0 0.0 -1.0
outer loop
vertex 2.05 3.5507041555162 2.0
vertex 1.2940952255126 4.82962913144534 2.0
vertex 2.5 4.33012701892219 2.0
endloop
endfacet
facet normal 0.0 0.0 -1.0
outer loop
vertex 2.05 3.5507041555162 2.0
vertex 2.5 4.33012701892219 2.0
vertex 2.89913780286485 2.89913780286484 2.0
endloop
endfacet
facet normal 0.0 0.0 -1.0
outer loop
vertex 2.89913780286485 2.89913780286484 2.0
vertex 2.5 4.33012701892219 2.0
vertex 3.53553390593274 3.53553390593274 2.0
endloop
endfacet
facet normal 0.0 0.0 -1.0
outer loop
vertex 2.89913780286485 2.89913780286484 2.0
vertex 3.53553390593274 3.53553390593274 2.0
vertex 3.5507041555162 2.04999999999999 2.0
endloop
endfacet
facet normal 0.0 0.0 -1.0
outer loop
vertex 3.5507041555162 2.04999999999999 2.0
vertex 3.53553390593274 3.53553390593274 2.0
vertex 4.33012701892219 2.5 2.0
endloop
endfacet
facet normal 0.0 0.0 -1.0
outer loop
vertex 3.5507041555162 2.04999999999999 2.0
vertex 4.33012701892219 2.5 2.0
vertex 3.96029588778518 1.06115808492033 2.0
endloop
endfacet
facet normal 0.0 0.0 -1.0
outer loop
vertex 3.96029588778518 1.06115808492033 2.0
vertex 4.33012701892219 2.5 2.0
vertex 4.1 -5.63993296509579e-015 2.0
endloop
endfacet
facet normal 0.0 0.0 -1.0
outer loop
vertex 4.1 -5.63993296509579e-015 2.0
vertex 4.33012701892219 2.5 2.0
vertex 4.33012701892219 -2.5 2.0
endloop
endfacet
facet normal 0.0 0.0 -1.0
outer loop
vertex 4.33012701892219 -2.5 2.0
vertex 4.33012701892219 2.5 2.0
vertex 4.82962913144534 -1.29409522551261 2.0
endloop
endfacet
facet normal 0.0 0.0 -1.0
outer loop
vertex 4.82962913144534 -1.29409522551261 2.0
vertex 4.33012701892219 2.5 2.0
vertex 4.82962913144534 1.2940952255126 2.0
endloop
endfacet
facet normal 0.0 0.0 -1.0
outer loop
vertex 4.82962913144534 -1.29409522551261 2.0
vertex 4.82962913144534 1.2940952255126 2.0
vertex 5.0 0.0 2.0
endloop
endfacet
facet normal 0.0 0.0 -1.0
outer loop
vertex -4.82962913144534 1.2940952255126 2.0
vertex -4.82962913144534 -1.2940952255126 2.0
vertex -5.0 6.12323399573677e-016 2.0
endloop
endfacet
facet normal 0.0 0.0 -1.0
outer loop
vertex -4.82962913144534 -1.2940952255126 2.0
vertex -4.82962913144534 1.2940952255126 2.0
vertex -4.33012701892219 -2.5 2.0
endloop
endfacet
facet normal 0.0 0.0 -1.0
outer loop
vertex -4.33012701892219 -2.5 2.0
vertex -4.82962913144534 1.2940952255126 2.0
vertex -4.33012701892219 2.5 2.0
endloop
endfacet
facet normal 0.0 0.0 -1.0
outer loop
vertex -4.33012701892219 -2.5 2.0
vertex -4.33012701892219 2.5 2.0
vertex -4.1 -3.52495810318487e-016 2.0
endloop
endfacet
facet normal 0.0 0.0 -1.0
outer loop
vertex -4.33012701892219 -2.5 2.0
vertex -4.1 -3.52495810318487e-016 2.0
vertex -3.96029588778518 -1.06115808492034 2.0
endloop
endfacet
facet normal 0.0 0.0 -1.0
outer loop
vertex -4.33012701892219 -2.5 2.0
vertex -3.96029588778518 -1.06115808492034 2.0
vertex -3.53553390593274 -3.53553390593274 2.0
endloop
endfacet
facet normal 0.0 0.0 -1.0
outer loop
vertex -3.53553390593274 -3.53553390593274 2.0
vertex -3.96029588778518 -1.06115808492034 2.0
vertex -3.5507041555162 -2.05 2.0
endloop
endfacet
facet normal 0.0 0.0 -1.0
outer loop
vertex -3.53553390593274 -3.53553390593274 2.0
vertex -3.5507041555162 -2.05 2.0
vertex -2.89913780286484 -2.89913780286485 2.0
endloop
endfacet
facet normal 0.0 0.0 -1.0
outer loop
vertex -3.53553390593274 -3.53553390593274 2.0
vertex -2.89913780286484 -2.89913780286485 2.0
vertex -2.5 -4.33012701892219 2.0
endloop
endfacet
facet normal 0.0 0.0 -1.0
outer loop
vertex -2.5 -4.33012701892219 2.0
vertex -2.89913780286484 -2.89913780286485 2.0
vertex -2.05 -3.5507041555162 2.0
endloop
endfacet
facet normal 0.0 0.0 -1.0
outer loop
vertex -2.5 -4.33012701892219 2.0
vertex -2.05 -3.5507041555162 2.0
vertex -1.29409522551261 -4.82962913144534 2.0
endloop
endfacet
facet normal 0.0 0.0 -1.0
outer loop
vertex -1.29409522551261 -4.82962913144534 2.0
vertex -2.05 -3.5507041555162 2.0
vertex -1.06115808492033 -3.96029588778518 2.0
endloop
endfacet
facet normal 0.0 0.0 -1.0
outer loop
vertex -1.29409522551261 -4.82962913144534 2.0
vertex -1.06115808492033 -3.96029588778518 2.0
vertex -9.18485099360515e-016 -5.0 2.0
endloop
endfacet
facet normal 0.0 0.0 -1.0
outer loop
vertex -9.18485099360515e-016 -5.0 2.0
vertex -1.06115808492033 -3.96029588778518 2.0
vertex 1.76247905159244e-015 -4.1 2.0
endloop
endfacet
facet normal 0.0 0.0 -1.0
outer loop
vertex -9.18485099360515e-016 -5.0 2.0
vertex 1.76247905159244e-015 -4.1 2.0
vertex 1.2940952255126 -4.82962913144534 2.0
endloop
endfacet
facet normal 0.0 0.0 -1.0
outer loop
vertex 1.2940952255126 -4.82962913144534 2.0
vertex 1.76247905159244e-015 -4.1 2.0
vertex 1.06115808492034 -3.96029588778518 2.0
endloop
endfacet
facet normal 0.0 0.0 -1.0
outer loop
vertex 1.2940952255126 -4.82962913144534 2.0
vertex 1.06115808492034 -3.96029588778518 2.0
vertex 2.05 -3.5507041555162 2.0
endloop
endfacet
facet normal 0.0 0.0 -1.0
outer loop
vertex 1.2940952255126 -4.82962913144534 2.0
vertex 2.05 -3.5507041555162 2.0
vertex 2.5 -4.33012701892219 2.0
endloop
endfacet
facet normal 0.0 0.0 -1.0
outer loop
vertex 2.5 -4.33012701892219 2.0
vertex 2.05 -3.5507041555162 2.0
vertex 2.89913780286484 -2.89913780286485 2.0
endloop
endfacet
facet normal 0.0 0.0 -1.0
outer loop
vertex 2.5 -4.33012701892219 2.0
vertex 2.89913780286484 -2.89913780286485 2.0
vertex 3.53553390593274 -3.53553390593274 2.0
endloop
endfacet
facet normal 0.0 0.0 -1.0
outer loop
vertex 3.53553390593274 -3.53553390593274 2.0
vertex 2.89913780286484 -2.89913780286485 2.0
vertex 3.5507041555162 -2.05 2.0
endloop
endfacet
facet normal 0.0 0.0 -1.0
outer loop
vertex 3.53553390593274 -3.53553390593274 2.0
vertex 3.5507041555162 -2.05 2.0
vertex 4.33012701892219 -2.5 2.0
endloop
endfacet
facet normal 0.0 0.0 -1.0
outer loop
vertex 4.33012701892219 -2.5 2.0
vertex 3.5507041555162 -2.05 2.0
vertex 3.96029588778518 -1.06115808492034 2.0
endloop
endfacet
facet normal 0.0 0.0 -1.0
outer loop
vertex 4.33012701892219 -2.5 2.0
vertex 3.96029588778518 -1.06115808492034 2.0
vertex 4.1 -5.63993296509579e-015 2.0
endloop
endfacet
facet normal 4.92775317438374e-033 -9.36273103132917e-032 -1.0
outer loop
vertex -2.89913780286484 2.89913780286485 9.0
vertex -2.51140714835158 0.672929517266558 9.0
vertex -2.6 4.8468173918792e-015 9.0
endloop
endfacet
facet normal 4.92775317438374e-033 -9.36273103132917e-032 -1.0
outer loop
vertex -2.51140714835158 0.672929517266558 9.0
vertex -2.89913780286484 2.89913780286485 9.0
vertex -2.05 3.5507041555162 9.0
endloop
endfacet
facet normal 4.92775317438374e-033 -9.36273103132917e-032 -1.0
outer loop
vertex -2.51140714835158 0.672929517266558 9.0
vertex -2.05 3.5507041555162 9.0
vertex -2.25166604983954 1.3 9.0
endloop
endfacet
facet normal 4.92775317438374e-033 -9.36273103132917e-032 -1.0
outer loop
vertex -2.25166604983954 1.3 9.0
vertex -2.05 3.5507041555162 9.0
vertex -1.83847763108502 1.83847763108503 9.0
endloop
endfacet
facet normal 4.92775317438374e-033 -9.36273103132917e-032 -1.0
outer loop
vertex -1.83847763108502 1.83847763108503 9.0
vertex -2.05 3.5507041555162 9.0
vertex -1.06115808492033 3.96029588778518 9.0
endloop
endfacet
facet normal 4.92775317438374e-033 -9.36273103132917e-032 -1.0
outer loop
vertex -1.83847763108502 1.83847763108503 9.0
vertex -1.06115808492033 3.96029588778518 9.0
vertex -1.3 2.25166604983954 9.0
endloop
endfacet
facet normal 4.92775317438374e-033 -9.36273103132917e-032 -1.0
outer loop
vertex -1.3 2.25166604983954 9.0
vertex -1.06115808492033 3.96029588778518 9.0
vertex -0.672929517266553 2.51140714835158 9.0
endloop
endfacet
facet normal 4.92775317438374e-033 -9.36273103132917e-032 -1.0
outer loop
vertex -0.672929517266553 2.51140714835158 9.0
vertex -1.06115808492033 3.96029588778518 9.0
vertex 7.04991620636974e-016 4.1 9.0
endloop
endfacet
facet normal 4.92775317438374e-033 -9.36273103132917e-032 -1.0
outer loop
vertex -0.672929517266553 2.51140714835158 9.0
vertex 7.04991620636974e-016 4.1 9.0
vertex 0.0 2.6 9.0
endloop
endfacet
facet normal 4.92775317438374e-033 -9.36273103132917e-032 -1.0
outer loop
vertex 0.0 2.6 9.0
vertex 7.04991620636974e-016 4.1 9.0
vertex 0.672929517266553 2.51140714835158 9.0
endloop
endfacet
facet normal 4.92775317438374e-033 -9.36273103132917e-032 -1.0
outer loop
vertex 0.672929517266553 2.51140714835158 9.0
vertex 7.04991620636974e-016 4.1 9.0
vertex 1.06115808492034 3.96029588778518 9.0
endloop
endfacet
facet normal 4.92775317438374e-033 -9.36273103132917e-032 -1.0
outer loop
vertex 0.672929517266553 2.51140714835158 9.0
vertex 1.06115808492034 3.96029588778518 9.0
vertex 1.3 2.25166604983954 9.0
endloop
endfacet
facet normal 4.92775317438374e-033 -9.36273103132917e-032 -1.0
outer loop
vertex 1.3 2.25166604983954 9.0
vertex 1.06115808492034 3.96029588778518 9.0
vertex 2.05 3.5507041555162 9.0
endloop
endfacet
facet normal 4.92775317438374e-033 -9.36273103132917e-032 -1.0
outer loop
vertex 1.3 2.25166604983954 9.0
vertex 2.05 3.5507041555162 9.0
vertex 1.83847763108502 1.83847763108502 9.0
endloop
endfacet
facet normal 4.92775317438374e-033 -9.36273103132917e-032 -1.0
outer loop
vertex 1.83847763108502 1.83847763108502 9.0
vertex 2.05 3.5507041555162 9.0
vertex 2.25166604983954 1.3 9.0
endloop
endfacet
facet normal 4.92775317438374e-033 -9.36273103132917e-032 -1.0
outer loop
vertex 2.25166604983954 1.3 9.0
vertex 2.05 3.5507041555162 9.0
vertex 2.89913780286485 2.89913780286484 9.0
endloop
endfacet
facet normal 4.92775317438374e-033 -9.36273103132917e-032 -1.0
outer loop
vertex 2.25166604983954 1.3 9.0
vertex 2.89913780286485 2.89913780286484 9.0
vertex 2.51140714835158 0.672929517266554 9.0
endloop
endfacet
facet normal 4.92775317438374e-033 -9.36273103132917e-032 -1.0
outer loop
vertex 2.51140714835158 0.672929517266554 9.0
vertex 2.89913780286485 2.89913780286484 9.0
vertex 2.6 8.81239525796218e-017 9.0
endloop
endfacet
facet normal 4.92775317438374e-033 -9.36273103132917e-032 -1.0
outer loop
vertex 2.6 8.81239525796218e-017 9.0
vertex 2.89913780286485 2.89913780286484 9.0
vertex 2.89913780286484 -2.89913780286485 9.0
endloop
endfacet
facet normal 4.92775317438374e-033 -9.36273103132917e-032 -1.0
outer loop
vertex 2.89913780286484 -2.89913780286485 9.0
vertex 2.89913780286485 2.89913780286484 9.0
vertex 3.5507041555162 -2.05 9.0
endloop
endfacet
facet normal 4.92775317438374e-033 -9.36273103132917e-032 -1.0
outer loop
vertex 3.5507041555162 -2.05 9.0
vertex 2.89913780286485 2.89913780286484 9.0
vertex 3.5507041555162 2.04999999999999 9.0
endloop
endfacet
facet normal 4.92775317438374e-033 -9.36273103132917e-032 -1.0
outer loop
vertex 3.5507041555162 -2.05 9.0
vertex 3.5507041555162 2.04999999999999 9.0
vertex 3.96029588778518 -1.06115808492034 9.0
endloop
endfacet
facet normal 4.92775317438374e-033 -9.36273103132917e-032 -1.0
outer loop
vertex 3.96029588778518 -1.06115808492034 9.0
vertex 3.5507041555162 2.04999999999999 9.0
vertex 3.96029588778518 1.06115808492033 9.0
endloop
endfacet
facet normal 4.92775317438374e-033 -9.36273103132917e-032 -1.0
outer loop
vertex 3.96029588778518 -1.06115808492034 9.0
vertex 3.96029588778518 1.06115808492033 9.0
vertex 4.1 -5.99242877541428e-015 9.0
endloop
endfacet
facet normal 4.92775317438374e-033 -9.36273103132917e-032 -1.0
outer loop
vertex -3.96029588778518 1.06115808492034 9.0
vertex -3.96029588778518 -1.06115808492034 9.0
vertex -4.1 0.0 9.0
endloop
endfacet
facet normal 4.92775317438374e-033 -9.36273103132917e-032 -1.0
outer loop
vertex -3.96029588778518 -1.06115808492034 9.0
vertex -3.96029588778518 1.06115808492034 9.0
vertex -3.5507041555162 -2.05 9.0
endloop
endfacet
facet normal 4.92775317438374e-033 -9.36273103132917e-032 -1.0
outer loop
vertex -3.5507041555162 -2.05 9.0
vertex -3.96029588778518 1.06115808492034 9.0
vertex -3.5507041555162 2.05 9.0
endloop
endfacet
facet normal 4.92775317438374e-033 -9.36273103132917e-032 -1.0
outer loop
vertex -3.5507041555162 -2.05 9.0
vertex -3.5507041555162 2.05 9.0
vertex -2.89913780286484 -2.89913780286485 9.0
endloop
endfacet
facet normal 4.92775317438374e-033 -9.36273103132917e-032 -1.0
outer loop
vertex -2.89913780286484 -2.89913780286485 9.0
vertex -3.5507041555162 2.05 9.0
vertex -2.89913780286484 2.89913780286485 9.0
endloop
endfacet
facet normal 4.92775317438374e-033 -9.36273103132917e-032 -1.0
outer loop
vertex -2.89913780286484 -2.89913780286485 9.0
vertex -2.89913780286484 2.89913780286485 9.0
vertex -2.6 4.8468173918792e-015 9.0
endloop
endfacet
facet normal 4.92775317438374e-033 -9.36273103132917e-032 -1.0
outer loop
vertex -2.89913780286484 -2.89913780286485 9.0
vertex -2.6 4.8468173918792e-015 9.0
vertex -2.51140714835158 -0.672929517266548 9.0
endloop
endfacet
facet normal 4.92775317438374e-033 -9.36273103132917e-032 -1.0
outer loop
vertex -2.89913780286484 -2.89913780286485 9.0
vertex -2.51140714835158 -0.672929517266548 9.0
vertex -2.05 -3.5507041555162 9.0
endloop
endfacet
facet normal 4.92775317438374e-033 -9.36273103132917e-032 -1.0
outer loop
vertex -2.05 -3.5507041555162 9.0
vertex -2.51140714835158 -0.672929517266548 9.0
vertex -2.25166604983954 -1.3 9.0
endloop
endfacet
facet normal 4.92775317438374e-033 -9.36273103132917e-032 -1.0
outer loop
vertex -2.05 -3.5507041555162 9.0
vertex -2.25166604983954 -1.3 9.0
vertex -1.83847763108502 -1.83847763108502 9.0
endloop
endfacet
facet normal 4.92775317438374e-033 -9.36273103132917e-032 -1.0
outer loop
vertex -2.05 -3.5507041555162 9.0
vertex -1.83847763108502 -1.83847763108502 9.0
vertex -1.06115808492033 -3.96029588778518 9.0
endloop
endfacet
facet normal 4.92775317438374e-033 -9.36273103132917e-032 -1.0
outer loop
vertex -1.06115808492033 -3.96029588778518 9.0
vertex -1.83847763108502 -1.83847763108502 9.0
vertex -1.3 -2.25166604983954 9.0
endloop
endfacet
facet normal 4.92775317438374e-033 -9.36273103132917e-032 -1.0
outer loop
vertex -1.06115808492033 -3.96029588778518 9.0
vertex -1.3 -2.25166604983954 9.0
vertex -0.672929517266555 -2.51140714835158 9.0
endloop
endfacet
facet normal 4.92775317438374e-033 -9.36273103132917e-032 -1.0
outer loop
vertex -1.06115808492033 -3.96029588778518 9.0
vertex -0.672929517266555 -2.51140714835158 9.0
vertex 1.40998324127395e-015 -4.1 9.0
endloop
endfacet
facet normal 4.92775317438374e-033 -9.36273103132917e-032 -1.0
outer loop
vertex 1.40998324127395e-015 -4.1 9.0
vertex -0.672929517266555 -2.51140714835158 9.0
vertex -9.6936347837584e-016 -2.6 9.0
endloop
endfacet
facet normal 4.92775317438374e-033 -9.36273103132917e-032 -1.0
outer loop
vertex 1.40998324127395e-015 -4.1 9.0
vertex -9.6936347837584e-016 -2.6 9.0
vertex 0.672929517266553 -2.51140714835158 9.0
endloop
endfacet
facet normal 4.92775317438374e-033 -9.36273103132917e-032 -1.0
outer loop
vertex 1.40998324127395e-015 -4.1 9.0
vertex 0.672929517266553 -2.51140714835158 9.0
vertex 1.06115808492034 -3.96029588778518 9.0
endloop
endfacet
facet normal 4.92775317438374e-033 -9.36273103132917e-032 -1.0
outer loop
vertex 1.06115808492034 -3.96029588778518 9.0
vertex 0.672929517266553 -2.51140714835158 9.0
vertex 1.3 -2.25166604983954 9.0
endloop
endfacet
facet normal 4.92775317438374e-033 -9.36273103132917e-032 -1.0
outer loop
vertex 1.06115808492034 -3.96029588778518 9.0
vertex 1.3 -2.25166604983954 9.0
vertex 2.05 -3.5507041555162 9.0
endloop
endfacet
facet normal 4.92775317438374e-033 -9.36273103132917e-032 -1.0
outer loop
vertex 2.05 -3.5507041555162 9.0
vertex 1.3 -2.25166604983954 9.0
vertex 1.83847763108502 -1.83847763108502 9.0
endloop
endfacet
facet normal 4.92775317438374e-033 -9.36273103132917e-032 -1.0
outer loop
vertex 2.05 -3.5507041555162 9.0
vertex 1.83847763108502 -1.83847763108502 9.0
vertex 2.25166604983954 -1.3 9.0
endloop
endfacet
facet normal 4.92775317438374e-033 -9.36273103132917e-032 -1.0
outer loop
vertex 2.05 -3.5507041555162 9.0
vertex 2.25166604983954 -1.3 9.0
vertex 2.89913780286484 -2.89913780286485 9.0
endloop
endfacet
facet normal 4.92775317438374e-033 -9.36273103132917e-032 -1.0
outer loop
vertex 2.89913780286484 -2.89913780286485 9.0
vertex 2.25166604983954 -1.3 9.0
vertex 2.51140714835158 -0.672929517266554 9.0
endloop
endfacet
facet normal 4.92775317438374e-033 -9.36273103132917e-032 -1.0
outer loop
vertex 2.89913780286484 -2.89913780286485 9.0
vertex 2.51140714835158 -0.672929517266554 9.0
vertex 2.6 8.81239525796218e-017 9.0
endloop
endfacet
facet normal -0.707106781186548 -0.707106781186547 -2.93265449872535e-017
outer loop
vertex 2.89913780286485 2.89913780286484 9.0
vertex 3.5507041555162 2.04999999999999 2.0
vertex 3.5507041555162 2.04999999999999 9.0
endloop
endfacet
facet normal -0.866025403784439 -0.499999999999999 -1.7581189634443e-017
outer loop
vertex 3.5507041555162 2.04999999999999 2.0
vertex 2.89913780286485 2.89913780286484 9.0
vertex 2.89913780286485 2.89913780286484 2.0
endloop
endfacet
facet normal -0.866025403784439 -0.499999999999999 -1.7581189634443e-017
outer loop
vertex 3.5507041555162 2.04999999999999 9.0
vertex 3.96029588778518 1.06115808492033 2.0
vertex 3.96029588778518 1.06115808492033 9.0
endloop
endfacet
facet normal -0.965925826289069 -0.258819045102519 -1.255575614229e-017
outer loop
vertex 3.96029588778518 1.06115808492033 2.0
vertex 3.5507041555162 2.04999999999999 9.0
vertex 3.5507041555162 2.04999999999999 2.0
endloop
endfacet
facet normal -0.965925826289069 -0.258819045102519 -1.255575614229e-017
outer loop
vertex 3.96029588778518 1.06115808492033 9.0
vertex 4.1 -5.63993296509579e-015 2.0
vertex 4.1 -5.99242877541428e-015 9.0
endloop
endfacet
facet normal -1.0 1.12279984685151e-015 -2.5695325969007e-017
outer loop
vertex 4.1 -5.63993296509579e-015 2.0
vertex 3.96029588778518 1.06115808492033 9.0
vertex 3.96029588778518 1.06115808492033 2.0
endloop
endfacet
facet normal -1.0 1.1406220666428e-015 -2.5695325969007e-017
outer loop
vertex 4.1 -5.99242877541428e-015 9.0
vertex 3.96029588778518 -1.06115808492034 2.0
vertex 3.96029588778518 -1.06115808492034 9.0
endloop
endfacet
facet normal -0.965925826289068 0.258819045102522 -6.54360451496236e-017
outer loop
vertex 3.96029588778518 -1.06115808492034 2.0
vertex 4.1 -5.99242877541428e-015 9.0
vertex 4.1 -5.63993296509579e-015 2.0
endloop
endfacet
facet normal -0.965925826289068 0.258819045102522 -6.54360451496236e-017
outer loop
vertex 3.96029588778518 -1.06115808492034 9.0
vertex 3.5507041555162 -2.05 2.0
vertex 3.5507041555162 -2.05 9.0
endloop
endfacet
facet normal -0.866025403784438 0.500000000000001 -7.43225197395226e-017
outer loop
vertex 3.5507041555162 -2.05 2.0
vertex 3.96029588778518 -1.06115808492034 9.0
vertex 3.96029588778518 -1.06115808492034 2.0
endloop
endfacet
facet normal -0.866025403784438 0.500000000000001 -7.43225197395226e-017
outer loop
vertex 3.5507041555162 -2.05 9.0
vertex 2.89913780286484 -2.89913780286485 2.0
vertex 2.89913780286484 -2.89913780286485 9.0
endloop
endfacet
facet normal -0.707106781186547 0.707106781186548 -4.6619367538773e-017
outer loop
vertex 2.89913780286484 -2.89913780286485 2.0
vertex 3.5507041555162 -2.05 9.0
vertex 3.5507041555162 -2.05 2.0
endloop
endfacet
facet normal -0.5 0.866025403784439 -2.56953259690071e-017
outer loop
vertex 2.05 -3.5507041555162 9.0
vertex 2.89913780286484 -2.89913780286485 2.0
vertex 2.05 -3.5507041555162 2.0
endloop
endfacet
facet normal -0.707106781186547 0.707106781186548 -4.6619367538773e-017
outer loop
vertex 2.89913780286484 -2.89913780286485 2.0
vertex 2.05 -3.5507041555162 9.0
vertex 2.89913780286484 -2.89913780286485 9.0
endloop
endfacet
facet normal -0.258819045102521 0.965925826289068 -1.36577589891402e-017
outer loop
vertex 1.06115808492034 -3.96029588778518 9.0
vertex 2.05 -3.5507041555162 2.0
vertex 1.06115808492034 -3.96029588778518 2.0
endloop
endfacet
facet normal -0.5 0.866025403784439 -2.56953259690071e-017
outer loop
vertex 2.05 -3.5507041555162 2.0
vertex 1.06115808492034 -3.96029588778518 9.0
vertex 2.05 -3.5507041555162 9.0
endloop
endfacet
facet normal -1.4257775833035e-016 1.0 -2.56953259690071e-017
outer loop
vertex 1.40998324127395e-015 -4.1 9.0
vertex 1.06115808492034 -3.96029588778518 2.0
vertex 1.76247905159244e-015 -4.1 2.0
endloop
endfacet
facet normal -0.258819045102521 0.965925826289068 -1.36577589891402e-017
outer loop
vertex 1.06115808492034 -3.96029588778518 2.0
vertex 1.40998324127395e-015 -4.1 9.0
vertex 1.06115808492034 -3.96029588778518 9.0
endloop
endfacet
facet normal 0.25881904510252 0.965925826289068 -4.01615780725509e-017
outer loop
vertex -1.06115808492033 -3.96029588778518 9.0
vertex 1.76247905159244e-015 -4.1 2.0
vertex -1.06115808492033 -3.96029588778518 2.0
endloop
endfacet
facet normal -1.60399978121644e-016 1.0 -2.56953259690071e-017
outer loop
vertex 1.76247905159244e-015 -4.1 2.0
vertex -1.06115808492033 -3.96029588778518 9.0
vertex 1.40998324127395e-015 -4.1 9.0
endloop
endfacet
facet normal 0.5 0.866025403784439 -2.84866745348388e-017
outer loop
vertex -2.05 -3.5507041555162 9.0
vertex -1.06115808492033 -3.96029588778518 2.0
vertex -2.05 -3.5507041555162 2.0
endloop
endfacet
facet normal 0.25881904510252 0.965925826289068 -4.01615780725509e-017
outer loop
vertex -1.06115808492033 -3.96029588778518 2.0
vertex -2.05 -3.5507041555162 9.0
vertex -1.06115808492033 -3.96029588778518 9.0
endloop
endfacet
facet normal 0.707106781186547 0.707106781186548 -2.89533215679576e-017
outer loop
vertex -2.89913780286484 -2.89913780286485 9.0
vertex -2.05 -3.5507041555162 2.0
vertex -2.89913780286484 -2.89913780286485 2.0
endloop
endfacet
facet normal 0.5 0.866025403784439 -2.84866745348388e-017
outer loop
vertex -2.05 -3.5507041555162 2.0
vertex -2.89913780286484 -2.89913780286485 9.0
vertex -2.05 -3.5507041555162 9.0
endloop
endfacet
facet normal 0.866025403784439 0.5 -2.85906581258029e-017
outer loop
vertex -3.5507041555162 -2.05 2.0
vertex -2.89913780286484 -2.89913780286485 9.0
vertex -2.89913780286484 -2.89913780286485 2.0
endloop
endfacet
facet normal 0.707106781186547 0.707106781186548 -2.89533215679576e-017
outer loop
vertex -2.89913780286484 -2.89913780286485 9.0
vertex -3.5507041555162 -2.05 2.0
vertex -3.5507041555162 -2.05 9.0
endloop
endfacet
facet normal 0.965925826289068 0.258819045102521 -1.36577589891402e-017
outer loop
vertex -3.96029588778518 -1.06115808492034 2.0
vertex -3.5507041555162 -2.05 9.0
vertex -3.5507041555162 -2.05 2.0
endloop
endfacet
facet normal 0.866025403784439 0.5 -2.85906581258029e-017
outer loop
vertex -3.5507041555162 -2.05 9.0
vertex -3.96029588778518 -1.06115808492034 2.0
vertex -3.96029588778518 -1.06115808492034 9.0
endloop
endfacet
facet normal 1.0 -1.33666648434704e-016 -2.64470712668164e-017
outer loop
vertex -4.1 -3.52495810318487e-016 2.0
vertex -3.96029588778518 -1.06115808492034 9.0
vertex -3.96029588778518 -1.06115808492034 2.0
endloop
endfacet
facet normal 0.965925826289068 0.258819045102521 -1.36577589891402e-017
outer loop
vertex -3.96029588778518 -1.06115808492034 9.0
vertex -4.1 -3.52495810318487e-016 2.0
vertex -4.1 0.0 9.0
endloop
endfacet
facet normal 0.965925826289068 -0.258819045102521 -6.28817819068828e-017
outer loop
vertex -3.96029588778518 1.06115808492034 2.0
vertex -4.1 0.0 9.0
vertex -4.1 -3.52495810318487e-016 2.0
endloop
endfacet
facet normal 1.0 -1.51488868225997e-016 -2.64470712668165e-017
outer loop
vertex -4.1 0.0 9.0
vertex -3.96029588778518 1.06115808492034 2.0
vertex -3.96029588778518 1.06115808492034 9.0
endloop
endfacet
facet normal 0.866025403784439 -0.5 -6.11090455544627e-017
outer loop
vertex -3.5507041555162 2.05 2.0
vertex -3.96029588778518 1.06115808492034 9.0
vertex -3.96029588778518 1.06115808492034 2.0
endloop
endfacet
facet normal 0.965925826289068 -0.258819045102521 -6.28817819068828e-017
outer loop
vertex -3.96029588778518 1.06115808492034 9.0
vertex -3.5507041555162 2.05 2.0
vertex -3.5507041555162 2.05 9.0
endloop
endfacet
facet normal 0.707106781186547 -0.707106781186548 -3.67119018942633e-017
outer loop
vertex -2.89913780286484 2.89913780286485 2.0
vertex -3.5507041555162 2.05 9.0
vertex -3.5507041555162 2.05 2.0
endloop
endfacet
facet normal 0.866025403784439 -0.5 -6.11090455544627e-017
outer loop
vertex -3.5507041555162 2.05 9.0
vertex -2.89913780286484 2.89913780286485 2.0
vertex -2.89913780286484 2.89913780286485 9.0
endloop
endfacet
facet normal 0.5 -0.866025403784439 -2.4593323122157e-017
outer loop
vertex -2.05 3.5507041555162 9.0
vertex -2.89913780286484 2.89913780286485 2.0
vertex -2.05 3.5507041555162 2.0
endloop
endfacet
facet normal 0.707106781186547 -0.707106781186548 -3.67119018942633e-017
outer loop
vertex -2.89913780286484 2.89913780286485 2.0
vertex -2.05 3.5507041555162 9.0
vertex -2.89913780286484 2.89913780286485 9.0
endloop
endfacet
facet normal 0.25881904510252 -0.965925826289068 -1.25557561422901e-017
outer loop
vertex -1.06115808492033 3.96029588778518 9.0
vertex -2.05 3.5507041555162 2.0
vertex -1.06115808492033 3.96029588778518 2.0
endloop
endfacet
facet normal 0.5 -0.866025403784439 -2.4593323122157e-017
outer loop
vertex -2.05 3.5507041555162 2.0
vertex -1.06115808492033 3.96029588778518 9.0
vertex -2.05 3.5507041555162 9.0
endloop
endfacet
facet normal -1.33666648434704e-016 -1.0 -2.68229439157211e-017
outer loop
vertex 7.04991620636974e-016 4.1 9.0
vertex -1.06115808492033 3.96029588778518 2.0
vertex 3.52495810318487e-016 4.1 2.0
endloop
endfacet
facet normal 0.25881904510252 -0.965925826289068 -1.25557561422901e-017
outer loop
vertex -1.06115808492033 3.96029588778518 2.0
vertex 7.04991620636974e-016 4.1 9.0
vertex -1.06115808492033 3.96029588778518 9.0
endloop
endfacet
facet normal -0.258819045102521 -0.965925826289068 -6.87676687900379e-017
outer loop
vertex 1.06115808492034 3.96029588778518 9.0
vertex 3.52495810318487e-016 4.1 2.0
vertex 1.06115808492034 3.96029588778518 2.0
endloop
endfacet
facet normal -1.1584442864341e-016 -1.0 -2.68229439157211e-017
outer loop
vertex 3.52495810318487e-016 4.1 2.0
vertex 1.06115808492034 3.96029588778518 9.0
vertex 7.04991620636974e-016 4.1 9.0
endloop
endfacet
facet normal -0.5 -0.866025403784439 -6.62458363694173e-017
outer loop
vertex 2.05 3.5507041555162 9.0
vertex 1.06115808492034 3.96029588778518 2.0
vertex 2.05 3.5507041555162 2.0
endloop
endfacet
facet normal -0.258819045102521 -0.965925826289068 -6.87676687900379e-017
outer loop
vertex 1.06115808492034 3.96029588778518 2.0
vertex 2.05 3.5507041555162 9.0
vertex 1.06115808492034 3.96029588778518 9.0
endloop
endfacet
facet normal -0.707106781186548 -0.707106781186547 -2.93265449872535e-017
outer loop
vertex 2.89913780286485 2.89913780286484 9.0
vertex 2.05 3.5507041555162 2.0
vertex 2.89913780286485 2.89913780286484 2.0
endloop
endfacet
facet normal -0.5 -0.866025403784439 -6.62458363694173e-017
outer loop
vertex 2.05 3.5507041555162 2.0
vertex 2.89913780286485 2.89913780286484 9.0
vertex 2.05 3.5507041555162 9.0
endloop
endfacet
facet normal -0.0 -0.0 1.0
outer loop
vertex -4.82962913144534 -1.2940952255126 0.0
vertex -4.82962913144534 1.2940952255126 0.0
vertex -5.0 6.12323399573677e-016 0.0
endloop
endfacet
facet normal -0.0 -0.0 1.0
outer loop
vertex -4.82962913144534 1.2940952255126 0.0
vertex -4.82962913144534 -1.2940952255126 0.0
vertex -4.33012701892219 -2.5 0.0
endloop
endfacet
facet normal -0.0 -0.0 1.0
outer loop
vertex -4.82962913144534 1.2940952255126 0.0
vertex -4.33012701892219 -2.5 0.0
vertex -4.33012701892219 2.5 0.0
endloop
endfacet
facet normal -0.0 -0.0 1.0
outer loop
vertex -4.33012701892219 2.5 0.0
vertex -4.33012701892219 -2.5 0.0
vertex -3.53553390593274 -3.53553390593274 0.0
endloop
endfacet
facet normal -0.0 -0.0 1.0
outer loop
vertex -4.33012701892219 2.5 0.0
vertex -3.53553390593274 -3.53553390593274 0.0
vertex -3.53553390593274 3.53553390593274 0.0
endloop
endfacet
facet normal -0.0 -0.0 1.0
outer loop
vertex -3.53553390593274 3.53553390593274 0.0
vertex -3.53553390593274 -3.53553390593274 0.0
vertex -2.5 -4.33012701892219 0.0
endloop
endfacet
facet normal -0.0 -0.0 1.0
outer loop
vertex -3.53553390593274 3.53553390593274 0.0
vertex -2.5 -4.33012701892219 0.0
vertex -2.6 4.22994972382185e-015 0.0
endloop
endfacet
facet normal -0.0 -0.0 1.0
outer loop
vertex -2.6 4.22994972382185e-015 0.0
vertex -2.5 -4.33012701892219 0.0
vertex -2.51140714835158 -0.672929517266549 0.0
endloop
endfacet
facet normal -0.0 -0.0 1.0
outer loop
vertex -2.51140714835158 -0.672929517266549 0.0
vertex -2.5 -4.33012701892219 0.0
vertex -2.25166604983954 -1.3 0.0
endloop
endfacet
facet normal -0.0 -0.0 1.0
outer loop
vertex -2.25166604983954 -1.3 0.0
vertex -2.5 -4.33012701892219 0.0
vertex -1.29409522551261 -4.82962913144534 0.0
endloop
endfacet
facet normal -0.0 -0.0 1.0
outer loop
vertex -2.25166604983954 -1.3 0.0
vertex -1.29409522551261 -4.82962913144534 0.0
vertex -1.83847763108502 -1.83847763108502 0.0
endloop
endfacet
facet normal -0.0 -0.0 1.0
outer loop
vertex -1.83847763108502 -1.83847763108502 0.0
vertex -1.29409522551261 -4.82962913144534 0.0
vertex -1.3 -2.25166604983954 0.0
endloop
endfacet
facet normal -0.0 -0.0 1.0
outer loop
vertex -1.3 -2.25166604983954 0.0
vertex -1.29409522551261 -4.82962913144534 0.0
vertex -0.672929517266555 -2.51140714835158 0.0
endloop
endfacet
facet normal -0.0 -0.0 1.0
outer loop
vertex -0.672929517266555 -2.51140714835158 0.0
vertex -1.29409522551261 -4.82962913144534 0.0
vertex -9.18485099360515e-016 -5.0 0.0
endloop
endfacet
facet normal -0.0 -0.0 1.0
outer loop
vertex -0.672929517266555 -2.51140714835158 0.0
vertex -9.18485099360515e-016 -5.0 0.0
vertex -7.04991620636974e-016 -2.6 0.0
endloop
endfacet
facet normal -0.0 -0.0 1.0
outer loop
vertex -7.04991620636974e-016 -2.6 0.0
vertex -9.18485099360515e-016 -5.0 0.0
vertex 1.2940952255126 -4.82962913144534 0.0
endloop
endfacet
facet normal -0.0 -0.0 1.0
outer loop
vertex -7.04991620636974e-016 -2.6 0.0
vertex 1.2940952255126 -4.82962913144534 0.0
vertex 0.672929517266553 -2.51140714835158 0.0
endloop
endfacet
facet normal -0.0 -0.0 1.0
outer loop
vertex 0.672929517266553 -2.51140714835158 0.0
vertex 1.2940952255126 -4.82962913144534 0.0
vertex 1.3 -2.25166604983954 0.0
endloop
endfacet
facet normal -0.0 -0.0 1.0
outer loop
vertex 1.3 -2.25166604983954 0.0
vertex 1.2940952255126 -4.82962913144534 0.0
vertex 2.5 -4.33012701892219 0.0
endloop
endfacet
facet normal -0.0 -0.0 1.0
outer loop
vertex 1.3 -2.25166604983954 0.0
vertex 2.5 -4.33012701892219 0.0
vertex 1.83847763108502 -1.83847763108502 0.0
endloop
endfacet
facet normal -0.0 -0.0 1.0
outer loop
vertex 1.83847763108502 -1.83847763108502 0.0
vertex 2.5 -4.33012701892219 0.0
vertex 2.25166604983954 -1.3 0.0
endloop
endfacet
facet normal -0.0 -0.0 1.0
outer loop
vertex 2.25166604983954 -1.3 0.0
vertex 2.5 -4.33012701892219 0.0
vertex 2.51140714835158 -0.672929517266555 0.0
endloop
endfacet
facet normal -0.0 -0.0 1.0
outer loop
vertex 2.51140714835158 -0.672929517266555 0.0
vertex 2.5 -4.33012701892219 0.0
vertex 3.53553390593274 -3.53553390593274 0.0
endloop
endfacet
facet normal -0.0 -0.0 1.0
outer loop
vertex 2.51140714835158 -0.672929517266555 0.0
vertex 3.53553390593274 -3.53553390593274 0.0
vertex 2.6 -3.52495810318487e-016 0.0
endloop
endfacet
facet normal -0.0 -0.0 1.0
outer loop
vertex -2.6 4.22994972382185e-015 0.0
vertex -2.5 4.33012701892219 0.0
vertex -3.53553390593274 3.53553390593274 0.0
endloop
endfacet
facet normal -0.0 -0.0 1.0
outer loop
vertex -2.5 4.33012701892219 0.0
vertex -2.6 4.22994972382185e-015 0.0
vertex -2.51140714835158 0.672929517266557 0.0
endloop
endfacet
facet normal -0.0 -0.0 1.0
outer loop
vertex -2.5 4.33012701892219 0.0
vertex -2.51140714835158 0.672929517266557 0.0
vertex -2.25166604983954 1.3 0.0
endloop
endfacet
facet normal -0.0 -0.0 1.0
outer loop
vertex -2.5 4.33012701892219 0.0
vertex -2.25166604983954 1.3 0.0
vertex -1.2940952255126 4.82962913144534 0.0
endloop
endfacet
facet normal -0.0 -0.0 1.0
outer loop
vertex -1.2940952255126 4.82962913144534 0.0
vertex -2.25166604983954 1.3 0.0
vertex -1.83847763108502 1.83847763108503 0.0
endloop
endfacet
facet normal -0.0 -0.0 1.0
outer loop
vertex -1.2940952255126 4.82962913144534 0.0
vertex -1.83847763108502 1.83847763108503 0.0
vertex -1.3 2.25166604983954 0.0
endloop
endfacet
facet normal -0.0 -0.0 1.0
outer loop
vertex -1.2940952255126 4.82962913144534 0.0
vertex -1.3 2.25166604983954 0.0
vertex -0.672929517266554 2.51140714835158 0.0
endloop
endfacet
facet normal -0.0 -0.0 1.0
outer loop
vertex -1.2940952255126 4.82962913144534 0.0
vertex -0.672929517266554 2.51140714835158 0.0
vertex 3.06161699786838e-016 5.0 0.0
endloop
endfacet
facet normal -0.0 -0.0 1.0
outer loop
vertex 3.06161699786838e-016 5.0 0.0
vertex -0.672929517266554 2.51140714835158 0.0
vertex -5.28743715477731e-016 2.6 0.0
endloop
endfacet
facet normal -0.0 -0.0 1.0
outer loop
vertex 3.06161699786838e-016 5.0 0.0
vertex -5.28743715477731e-016 2.6 0.0
vertex 0.672929517266553 2.51140714835158 0.0
endloop
endfacet
facet normal -0.0 -0.0 1.0
outer loop
vertex 3.06161699786838e-016 5.0 0.0
vertex 0.672929517266553 2.51140714835158 0.0
vertex 1.2940952255126 4.82962913144534 0.0
endloop
endfacet
facet normal -0.0 -0.0 1.0
outer loop
vertex 1.2940952255126 4.82962913144534 0.0
vertex 0.672929517266553 2.51140714835158 0.0
vertex 1.3 2.25166604983954 0.0
endloop
endfacet
facet normal -0.0 -0.0 1.0
outer loop
vertex 1.2940952255126 4.82962913144534 0.0
vertex 1.3 2.25166604983954 0.0
vertex 2.5 4.33012701892219 0.0
endloop
endfacet
facet normal -0.0 -0.0 1.0
outer loop
vertex 2.5 4.33012701892219 0.0
vertex 1.3 2.25166604983954 0.0
vertex 1.83847763108502 1.83847763108502 0.0
endloop
endfacet
facet normal -0.0 -0.0 1.0
outer loop
vertex 2.5 4.33012701892219 0.0
vertex 1.83847763108502 1.83847763108502 0.0
vertex 2.25166604983954 1.3 0.0
endloop
endfacet
facet normal -0.0 -0.0 1.0
outer loop
vertex 2.5 4.33012701892219 0.0
vertex 2.25166604983954 1.3 0.0
vertex 2.51140714835158 0.672929517266554 0.0
endloop
endfacet
facet normal -0.0 -0.0 1.0
outer loop
vertex 2.5 4.33012701892219 0.0
vertex 2.51140714835158 0.672929517266554 0.0
vertex 3.53553390593274 3.53553390593274 0.0
endloop
endfacet
facet normal -0.0 -0.0 1.0
outer loop
vertex 3.53553390593274 3.53553390593274 0.0
vertex 2.51140714835158 0.672929517266554 0.0
vertex 2.6 -3.52495810318487e-016 0.0
endloop
endfacet
facet normal -0.0 -0.0 1.0
outer loop
vertex 3.53553390593274 3.53553390593274 0.0
vertex 2.6 -3.52495810318487e-016 0.0
vertex 3.53553390593274 -3.53553390593274 0.0
endloop
endfacet
facet normal -0.0 -0.0 1.0
outer loop
vertex 3.53553390593274 3.53553390593274 0.0
vertex 3.53553390593274 -3.53553390593274 0.0
vertex 4.33012701892219 -2.5 0.0
endloop
endfacet
facet normal -0.0 -0.0 1.0
outer loop
vertex 3.53553390593274 3.53553390593274 0.0
vertex 4.33012701892219 -2.5 0.0
vertex 4.33012701892219 2.5 0.0
endloop
endfacet
facet normal -0.0 -0.0 1.0
outer loop
vertex 4.33012701892219 2.5 0.0
vertex 4.33012701892219 -2.5 0.0
vertex 4.82962913144534 -1.29409522551261 0.0
endloop
endfacet
facet normal -0.0 -0.0 1.0
outer loop
vertex 4.33012701892219 2.5 0.0
vertex 4.82962913144534 -1.29409522551261 0.0
vertex 4.82962913144534 1.2940952255126 0.0
endloop
endfacet
facet normal -0.0 -0.0 1.0
outer loop
vertex 4.82962913144534 1.2940952255126 0.0
vertex 4.82962913144534 -1.29409522551261 0.0
vertex 5.0 0.0 0.0
endloop
endfacet
endsolid ball-bearing-adapter
