solid motor-gear-v
facet normal 0.0 -1.0 0.0
outer loop
vertex 1.5 -2.5 6.99999999999999
vertex -1.5 -2.5 1.0
vertex 1.5 -2.5 1.0
endloop
endfacet
facet normal 0.0 -1.0 0.0
outer loop
vertex -1.5 -2.5 1.0
vertex 1.5 -2.5 6.99999999999999
vertex -1.5 -2.5 6.99999999999999
endloop
endfacet
facet normal 1.0 -0.0 -0.0
outer loop
vertex 1.5 2.5 1.0
vertex 1.5 -2.5 6.99999999999999
vertex 1.5 -2.5 1.0
endloop
endfacet
facet normal 1.0 -0.0 -0.0
outer loop
vertex 1.5 -2.5 6.99999999999999
vertex 1.5 2.5 1.0
vertex 1.5 2.5 6.99999999999999
endloop
endfacet
facet normal -0.0 1.0 -0.0
outer loop
vertex -1.5 2.5 6.99999999999999
vertex 1.5 2.5 1.0
vertex -1.5 2.5 1.0
endloop
endfacet
facet normal -0.0 1.0 -0.0
outer loop
vertex 1.5 2.5 1.0
vertex -1.5 2.5 6.99999999999999
vertex 1.5 2.5 6.99999999999999
endloop
endfacet
facet normal -1.0 0.0 0.0
outer loop
vertex -1.5 2.5 6.99999999999999
vertex -1.5 -2.5 1.0
vertex -1.5 -2.5 6.99999999999999
endloop
endfacet
facet normal -1.0 0.0 0.0
outer loop
vertex -1.5 -2.5 1.0
vertex -1.5 2.5 6.99999999999999
vertex -1.5 2.5 1.0
endloop
endfacet
facet normal 0.0 0.0 -1.0
outer loop
vertex 1.5 2.5 1.0
vertex -1.5 -2.5 1.0
vertex -1.5 2.5 1.0
endloop
endfacet
facet normal 0.0 0.0 -1.0
outer loop
vertex -1.5 -2.5 1.0
vertex 1.5 2.5 1.0
vertex 1.5 -2.5 1.0
endloop
endfacet
facet normal 0.0 0.0 -1.0
outer loop
vertex -10.6049364605549 2.85681590177452 0.0
vertex -8.43370315196345 1.33576735358699 0.0
vertex -10.7460348538689 2.26909879654299 0.0
endloop
endfacet
facet normal 0.0 0.0 -1.0
outer loop
vertex -8.43370315196345 1.33576735358699 0.0
vertex -10.6049364605549 2.85681590177452 0.0
vertex -8.12091021985817 2.63864368177092 0.0
endloop
endfacet
facet normal 0.0 0.0 -1.0
outer loop
vertex -8.43370315196345 1.33576735358699 0.0
vertex -8.12091021985817 2.63864368177092 0.0
vertex -8.12091021985818 -2.63864368177088 0.0
endloop
endfacet
facet normal 0.0 0.0 -1.0
outer loop
vertex -9.20308926225777 5.99409896981633 0.0
vertex -7.6081535263842 3.87654784535337 0.0
vertex -9.51889638205927 5.4787485885608 0.0
endloop
endfacet
facet normal 0.0 0.0 -1.0
outer loop
vertex -7.6081535263842 3.87654784535337 0.0
vertex -9.20308926225777 5.99409896981633 0.0
vertex -6.90805884307674 5.01899853545854 0.0
endloop
endfacet
facet normal 0.0 0.0 -1.0
outer loop
vertex -7.6081535263842 3.87654784535337 0.0
vertex -6.90805884307674 5.01899853545854 0.0
vertex -6.90805884307679 -5.01899853545851 0.0
endloop
endfacet
facet normal 0.0 0.0 -1.0
outer loop
vertex -6.9003795652775 8.54463786734921 0.0
vertex -6.03786482451988 6.03786482451956 0.0
vertex -7.35998201032269 8.15210029604423 0.0
endloop
endfacet
facet normal 0.0 0.0 -1.0
outer loop
vertex -6.03786482451988 6.03786482451956 0.0
vertex -6.9003795652775 8.54463786734921 0.0
vertex -5.01899853545885 6.90805884307644 0.0
endloop
endfacet
facet normal 0.0 0.0 -1.0
outer loop
vertex -6.03786482451988 6.03786482451956 0.0
vertex -5.01899853545885 6.90805884307644 0.0
vertex -5.01899853545889 -6.90805884307639 0.0
endloop
endfacet
facet normal 0.0 0.0 -1.0
outer loop
vertex 2.85681590177511 10.6049364605547 0.0
vertex 2.63864368177059 8.12091021985782 0.0
vertex 2.2690987965436 10.7460348538688 0.0
endloop
endfacet
facet normal 0.0 0.0 -1.0
outer loop
vertex 4.0 0.0 0.0
vertex 3.876547845353 -7.60815352638387 0.0
vertex 3.86370330515627 -1.03527618041009 0.0
endloop
endfacet
facet normal 0.0 0.0 -1.0
outer loop
vertex 3.876547845353 -7.60815352638387 0.0
vertex 4.0 0.0 0.0
vertex 5.01899853545816 -6.90805884307645 0.0
endloop
endfacet
facet normal 0.0 0.0 -1.0
outer loop
vertex -5.01899853545889 -6.90805884307639 0.0
vertex -5.47874858856028 -9.51889638205957 0.0
vertex -5.99409896981582 -9.2030892622581 0.0
endloop
endfacet
facet normal 0.0 0.0 -1.0
outer loop
vertex -5.47874858856028 -9.51889638205957 0.0
vertex -5.01899853545889 -6.90805884307639 0.0
vertex -3.87654784535373 -7.60815352638386 0.0
endloop
endfacet
facet normal 0.0 0.0 -1.0
outer loop
vertex -3.87654784535373 -7.60815352638386 0.0
vertex -5.01899853545889 -6.90805884307639 0.0
vertex -5.01899853545885 6.90805884307644 0.0
endloop
endfacet
facet normal 0.0 0.0 -1.0
outer loop
vertex -3.87654784535373 -7.60815352638386 0.0
vertex -5.01899853545885 6.90805884307644 0.0
vertex -4.0 4.89858719658941e-016 0.0
endloop
endfacet
facet normal 0.0 0.0 -1.0
outer loop
vertex -3.87654784535373 -7.60815352638386 0.0
vertex -4.0 4.89858719658941e-016 0.0
vertex -3.86370330515627 -1.03527618041008 0.0
endloop
endfacet
facet normal 0.0 0.0 -1.0
outer loop
vertex -3.87654784535373 -7.60815352638386 0.0
vertex -3.86370330515627 -1.03527618041008 0.0
vertex -2.63864368177127 -8.12091021985784 0.0
endloop
endfacet
facet normal 0.0 0.0 -1.0
outer loop
vertex -2.63864368177127 -8.12091021985784 0.0
vertex -3.86370330515627 -1.03527618041008 0.0
vertex -3.46410161513775 -2.0 0.0
endloop
endfacet
facet normal 0.0 0.0 -1.0
outer loop
vertex -2.63864368177127 -8.12091021985784 0.0
vertex -3.46410161513775 -2.0 0.0
vertex -2.82842712474619 -2.82842712474619 0.0
endloop
endfacet
facet normal 0.0 0.0 -1.0
outer loop
vertex -2.63864368177127 -8.12091021985784 0.0
vertex -2.82842712474619 -2.82842712474619 0.0
vertex -2.0 -3.46410161513775 0.0
endloop
endfacet
facet normal 0.0 0.0 -1.0
outer loop
vertex -2.63864368177127 -8.12091021985784 0.0
vertex -2.0 -3.46410161513775 0.0
vertex -2.26909879654239 -10.746034853869 0.0
endloop
endfacet
facet normal 0.0 0.0 -1.0
outer loop
vertex -2.26909879654239 -10.746034853869 0.0
vertex -2.0 -3.46410161513775 0.0
vertex -1.33576735358734 -8.43370315196311 0.0
endloop
endfacet
facet normal 0.0 0.0 -1.0
outer loop
vertex -1.33576735358734 -8.43370315196311 0.0
vertex -2.0 -3.46410161513775 0.0
vertex -1.03527618041009 -3.86370330515627 0.0
endloop
endfacet
facet normal 0.0 0.0 -1.0
outer loop
vertex -1.33576735358734 -8.43370315196311 0.0
vertex -1.03527618041009 -3.86370330515627 0.0
vertex -3.66838014692045e-013 -8.53883032261102 0.0
endloop
endfacet
facet normal 0.0 0.0 -1.0
outer loop
vertex -3.66838014692045e-013 -8.53883032261102 0.0
vertex -1.03527618041009 -3.86370330515627 0.0
vertex -7.34788079488412e-016 -4.0 0.0
endloop
endfacet
facet normal 0.0 0.0 -1.0
outer loop
vertex -3.66838014692045e-013 -8.53883032261102 0.0
vertex -7.34788079488412e-016 -4.0 0.0
vertex 0.560112211340422 -10.9686985891556 0.0
endloop
endfacet
facet normal 0.0 0.0 -1.0
outer loop
vertex 0.560112211340422 -10.9686985891556 0.0
vertex -7.34788079488412e-016 -4.0 0.0
vertex 1.03527618041008 -3.86370330515627 0.0
endloop
endfacet
facet normal 0.0 0.0 -1.0
outer loop
vertex 0.560112211340422 -10.9686985891556 0.0
vertex 1.03527618041008 -3.86370330515627 0.0
vertex 1.16266619542203 -10.9212765621543 0.0
endloop
endfacet
facet normal 0.0 0.0 -1.0
outer loop
vertex 1.16266619542203 -10.9212765621543 0.0
vertex 1.03527618041008 -3.86370330515627 0.0
vertex 1.33576735358657 -8.43370315196311 0.0
endloop
endfacet
facet normal 0.0 0.0 -1.0
outer loop
vertex 1.33576735358657 -8.43370315196311 0.0
vertex 1.03527618041008 -3.86370330515627 0.0
vertex 2.0 -3.46410161513776 0.0
endloop
endfacet
facet normal 0.0 0.0 -1.0
outer loop
vertex 1.33576735358657 -8.43370315196311 0.0
vertex 2.0 -3.46410161513776 0.0
vertex 2.63864368177053 -8.12091021985783 0.0
endloop
endfacet
facet normal 0.0 0.0 -1.0
outer loop
vertex 2.63864368177053 -8.12091021985783 0.0
vertex 2.0 -3.46410161513776 0.0
vertex 2.82842712474619 -2.82842712474619 0.0
endloop
endfacet
facet normal 0.0 0.0 -1.0
outer loop
vertex 2.63864368177053 -8.12091021985783 0.0
vertex 2.82842712474619 -2.82842712474619 0.0
vertex 3.92221263867751 -10.2587680764328 0.0
endloop
endfacet
facet normal 0.0 0.0 -1.0
outer loop
vertex 3.92221263867751 -10.2587680764328 0.0
vertex 2.82842712474619 -2.82842712474619 0.0
vertex 3.46410161513775 -2.0 0.0
endloop
endfacet
facet normal 0.0 0.0 -1.0
outer loop
vertex 3.92221263867751 -10.2587680764328 0.0
vertex 3.46410161513775 -2.0 0.0
vertex 3.876547845353 -7.60815352638387 0.0
endloop
endfacet
facet normal 0.0 0.0 -1.0
outer loop
vertex 3.876547845353 -7.60815352638387 0.0
vertex 3.46410161513775 -2.0 0.0
vertex 3.86370330515627 -1.03527618041009 0.0
endloop
endfacet
facet normal 0.0 0.0 -1.0
outer loop
vertex 3.92221263867751 -10.2587680764328 0.0
vertex 3.876547845353 -7.60815352638387 0.0
vertex 4.48062131940681 -10.0274676275277 0.0
endloop
endfacet
facet normal 0.0 0.0 -1.0
outer loop
vertex -2.26909879654239 -10.746034853869 0.0
vertex -2.85681590177393 -10.604936460555 0.0
vertex -2.63864368177127 -8.12091021985784 0.0
endloop
endfacet
facet normal 0.0 0.0 -1.0
outer loop
vertex -3.87654784535369 7.60815352638385 0.0
vertex -4.0 4.89858719658941e-016 0.0
vertex -5.01899853545885 6.90805884307644 0.0
endloop
endfacet
facet normal 0.0 0.0 -1.0
outer loop
vertex -4.0 4.89858719658941e-016 0.0
vertex -3.87654784535369 7.60815352638385 0.0
vertex -3.86370330515627 1.03527618041008 0.0
endloop
endfacet
facet normal 0.0 0.0 -1.0
outer loop
vertex -6.90805884307679 -5.01899853545851 0.0
vertex -8.15210029604382 -7.35998201032315 0.0
vertex -8.54463786734883 -6.90037956527798 0.0
endloop
endfacet
facet normal 0.0 0.0 -1.0
outer loop
vertex -8.15210029604382 -7.35998201032315 0.0
vertex -6.90805884307679 -5.01899853545851 0.0
vertex -6.03786482451993 -6.03786482451955 0.0
endloop
endfacet
facet normal 0.0 0.0 -1.0
outer loop
vertex -6.03786482451993 -6.03786482451955 0.0
vertex -6.90805884307679 -5.01899853545851 0.0
vertex -6.90805884307674 5.01899853545854 0.0
endloop
endfacet
facet normal 0.0 0.0 -1.0
outer loop
vertex -6.03786482451993 -6.03786482451955 0.0
vertex -6.90805884307674 5.01899853545854 0.0
vertex -6.03786482451988 6.03786482451956 0.0
endloop
endfacet
facet normal 0.0 0.0 -1.0
outer loop
vertex -6.03786482451993 -6.03786482451955 0.0
vertex -6.03786482451988 6.03786482451956 0.0
vertex -5.01899853545889 -6.90805884307639 0.0
endloop
endfacet
facet normal 0.0 0.0 -1.0
outer loop
vertex -8.12091021985818 -2.63864368177088 0.0
vertex -10.0274676275279 -4.48062131940624 0.0
vertex -10.258768076433 -3.92221263867693 0.0
endloop
endfacet
facet normal 0.0 0.0 -1.0
outer loop
vertex -10.0274676275279 -4.48062131940624 0.0
vertex -8.12091021985818 -2.63864368177088 0.0
vertex -7.60815352638422 -3.87654784535335 0.0
endloop
endfacet
facet normal 0.0 0.0 -1.0
outer loop
vertex -7.60815352638422 -3.87654784535335 0.0
vertex -8.12091021985818 -2.63864368177088 0.0
vertex -8.12091021985817 2.63864368177092 0.0
endloop
endfacet
facet normal 0.0 0.0 -1.0
outer loop
vertex -7.60815352638422 -3.87654784535335 0.0
vertex -8.12091021985817 2.63864368177092 0.0
vertex -7.6081535263842 3.87654784535337 0.0
endloop
endfacet
facet normal 0.0 0.0 -1.0
outer loop
vertex -7.60815352638422 -3.87654784535335 0.0
vertex -7.6081535263842 3.87654784535337 0.0
vertex -6.90805884307679 -5.01899853545851 0.0
endloop
endfacet
facet normal 0.0 0.0 -1.0
outer loop
vertex -8.53883032261136 1.16792248404302e-014 0.0
vertex -10.9212765621544 -1.16266619542141 0.0
vertex -10.9686985891557 -0.560112211339804 0.0
endloop
endfacet
facet normal 0.0 0.0 -1.0
outer loop
vertex -10.9212765621544 -1.16266619542141 0.0
vertex -8.53883032261136 1.16792248404302e-014 0.0
vertex -8.43370315196346 -1.33576735358693 0.0
endloop
endfacet
facet normal 0.0 0.0 -1.0
outer loop
vertex -8.43370315196346 -1.33576735358693 0.0
vertex -8.53883032261136 1.16792248404302e-014 0.0
vertex -8.43370315196345 1.33576735358699 0.0
endloop
endfacet
facet normal 0.0 0.0 -1.0
outer loop
vertex -8.43370315196346 -1.33576735358693 0.0
vertex -8.43370315196345 1.33576735358699 0.0
vertex -8.12091021985818 -2.63864368177088 0.0
endloop
endfacet
facet normal 0.0 0.0 -1.0
outer loop
vertex -3.92221263867636 10.2587680764332 0.0
vertex -3.87654784535369 7.60815352638385 0.0
vertex -4.48062131940568 10.0274676275282 0.0
endloop
endfacet
facet normal 0.0 0.0 -1.0
outer loop
vertex -3.87654784535369 7.60815352638385 0.0
vertex -3.92221263867636 10.2587680764332 0.0
vertex -2.63864368177123 8.12091021985784 0.0
endloop
endfacet
facet normal 0.0 0.0 -1.0
outer loop
vertex -3.87654784535369 7.60815352638385 0.0
vertex -2.63864368177123 8.12091021985784 0.0
vertex -3.86370330515627 1.03527618041008 0.0
endloop
endfacet
facet normal 0.0 0.0 -1.0
outer loop
vertex -3.86370330515627 1.03527618041008 0.0
vertex -2.63864368177123 8.12091021985784 0.0
vertex -3.46410161513775 2.0 0.0
endloop
endfacet
facet normal 0.0 0.0 -1.0
outer loop
vertex -3.46410161513775 2.0 0.0
vertex -2.63864368177123 8.12091021985784 0.0
vertex -2.82842712474619 2.82842712474619 0.0
endloop
endfacet
facet normal 0.0 0.0 -1.0
outer loop
vertex -2.82842712474619 2.82842712474619 0.0
vertex -2.63864368177123 8.12091021985784 0.0
vertex -2.0 3.46410161513775 0.0
endloop
endfacet
facet normal 0.0 0.0 -1.0
outer loop
vertex -2.0 3.46410161513775 0.0
vertex -2.63864368177123 8.12091021985784 0.0
vertex -1.33576735358726 8.4337031519631 0.0
endloop
endfacet
facet normal 0.0 0.0 -1.0
outer loop
vertex -2.0 3.46410161513775 0.0
vertex -1.33576735358726 8.4337031519631 0.0
vertex -1.03527618041008 3.86370330515627 0.0
endloop
endfacet
facet normal 0.0 0.0 -1.0
outer loop
vertex -1.03527618041008 3.86370330515627 0.0
vertex -1.33576735358726 8.4337031519631 0.0
vertex -1.1626661954208 10.9212765621544 0.0
endloop
endfacet
facet normal 0.0 0.0 -1.0
outer loop
vertex -1.03527618041008 3.86370330515627 0.0
vertex -1.1626661954208 10.9212765621544 0.0
vertex -0.560112211339191 10.9686985891557 0.0
endloop
endfacet
facet normal 0.0 0.0 -1.0
outer loop
vertex -1.03527618041008 3.86370330515627 0.0
vertex -0.560112211339191 10.9686985891557 0.0
vertex 2.44929359829471e-016 4.0 0.0
endloop
endfacet
facet normal 0.0 0.0 -1.0
outer loop
vertex 2.44929359829471e-016 4.0 0.0
vertex -0.560112211339191 10.9686985891557 0.0
vertex -3.24147262291734e-013 8.53883032261099 0.0
endloop
endfacet
facet normal 0.0 0.0 -1.0
outer loop
vertex 2.44929359829471e-016 4.0 0.0
vertex -3.24147262291734e-013 8.53883032261099 0.0
vertex 1.33576735358665 8.4337031519631 0.0
endloop
endfacet
facet normal 0.0 0.0 -1.0
outer loop
vertex 2.44929359829471e-016 4.0 0.0
vertex 1.33576735358665 8.4337031519631 0.0
vertex 1.03527618041008 3.86370330515627 0.0
endloop
endfacet
facet normal 0.0 0.0 -1.0
outer loop
vertex 1.03527618041008 3.86370330515627 0.0
vertex 1.33576735358665 8.4337031519631 0.0
vertex 2.0 3.46410161513775 0.0
endloop
endfacet
facet normal 0.0 0.0 -1.0
outer loop
vertex 2.0 3.46410161513775 0.0
vertex 1.33576735358665 8.4337031519631 0.0
vertex 2.2690987965436 10.7460348538688 0.0
endloop
endfacet
facet normal 0.0 0.0 -1.0
outer loop
vertex 2.0 3.46410161513775 0.0
vertex 2.2690987965436 10.7460348538688 0.0
vertex 2.82842712474619 2.82842712474619 0.0
endloop
endfacet
facet normal 0.0 0.0 -1.0
outer loop
vertex 2.82842712474619 2.82842712474619 0.0
vertex 2.2690987965436 10.7460348538688 0.0
vertex 2.63864368177059 8.12091021985782 0.0
endloop
endfacet
facet normal 0.0 0.0 -1.0
outer loop
vertex 2.82842712474619 2.82842712474619 0.0
vertex 2.63864368177059 8.12091021985782 0.0
vertex 3.87654784535303 7.60815352638385 0.0
endloop
endfacet
facet normal 0.0 0.0 -1.0
outer loop
vertex 2.82842712474619 2.82842712474619 0.0
vertex 3.87654784535303 7.60815352638385 0.0
vertex 3.46410161513775 2.0 0.0
endloop
endfacet
facet normal 0.0 0.0 -1.0
outer loop
vertex 3.46410161513775 2.0 0.0
vertex 3.87654784535303 7.60815352638385 0.0
vertex 3.86370330515627 1.03527618041008 0.0
endloop
endfacet
facet normal 0.0 0.0 -1.0
outer loop
vertex 3.86370330515627 1.03527618041008 0.0
vertex 3.87654784535303 7.60815352638385 0.0
vertex 4.0 0.0 0.0
endloop
endfacet
facet normal 0.0 0.0 -1.0
outer loop
vertex 4.0 0.0 0.0
vertex 3.87654784535303 7.60815352638385 0.0
vertex 5.01899853545821 6.9080588430764 0.0
endloop
endfacet
facet normal 0.0 0.0 -1.0
outer loop
vertex 5.01899853545821 6.9080588430764 0.0
vertex 3.87654784535303 7.60815352638385 0.0
vertex 5.47874858856134 9.51889638205896 0.0
endloop
endfacet
facet normal 0.0 0.0 -1.0
outer loop
vertex 4.0 0.0 0.0
vertex 5.01899853545821 6.9080588430764 0.0
vertex 5.01899853545816 -6.90805884307645 0.0
endloop
endfacet
facet normal 0.0 0.0 -1.0
outer loop
vertex 5.01899853545821 6.9080588430764 0.0
vertex 5.47874858856134 9.51889638205896 0.0
vertex 5.99409896981684 9.20308926225743 0.0
endloop
endfacet
facet normal 0.0 0.0 -1.0
outer loop
vertex 6.03786482451922 6.03786482451952 0.0
vertex 6.03786482451918 -6.03786482451957 0.0
vertex 5.01899853545821 6.9080588430764 0.0
endloop
endfacet
facet normal 0.0 0.0 -1.0
outer loop
vertex 6.03786482451918 -6.03786482451957 0.0
vertex 6.03786482451922 6.03786482451952 0.0
vertex 6.90805884307605 -5.01899853545856 0.0
endloop
endfacet
facet normal 0.0 0.0 -1.0
outer loop
vertex 6.90805884307605 -5.01899853545856 0.0
vertex 6.03786482451922 6.03786482451952 0.0
vertex 6.90805884307608 5.01899853545849 0.0
endloop
endfacet
facet normal 0.0 0.0 -1.0
outer loop
vertex 6.90805884307608 5.01899853545849 0.0
vertex 6.03786482451922 6.03786482451952 0.0
vertex 8.15210029604464 7.35998201032223 0.0
endloop
endfacet
facet normal 0.0 0.0 -1.0
outer loop
vertex 6.90805884307608 5.01899853545849 0.0
vertex 8.15210029604464 7.35998201032223 0.0
vertex 8.5446378673496 6.90037956527702 0.0
endloop
endfacet
facet normal 0.0 0.0 -1.0
outer loop
vertex 7.60815352638352 3.87654784535332 0.0
vertex 7.60815352638351 -3.8765478453534 0.0
vertex 6.90805884307608 5.01899853545849 0.0
endloop
endfacet
facet normal 0.0 0.0 -1.0
outer loop
vertex 7.60815352638351 -3.8765478453534 0.0
vertex 7.60815352638352 3.87654784535332 0.0
vertex 8.12091021985748 -2.63864368177094 0.0
endloop
endfacet
facet normal 0.0 0.0 -1.0
outer loop
vertex 8.12091021985748 -2.63864368177094 0.0
vertex 7.60815352638352 3.87654784535332 0.0
vertex 8.12091021985749 2.63864368177087 0.0
endloop
endfacet
facet normal 0.0 0.0 -1.0
outer loop
vertex 8.12091021985749 2.63864368177087 0.0
vertex 7.60815352638352 3.87654784535332 0.0
vertex 10.0274676275284 4.48062131940512 0.0
endloop
endfacet
facet normal 0.0 0.0 -1.0
outer loop
vertex 8.12091021985749 2.63864368177087 0.0
vertex 10.0274676275284 4.48062131940512 0.0
vertex 10.2587680764334 3.92221263867578 0.0
endloop
endfacet
facet normal 0.0 0.0 -1.0
outer loop
vertex 8.43370315196276 1.33576735358691 0.0
vertex 8.43370315196276 -1.335767353587 0.0
vertex 8.12091021985749 2.63864368177087 0.0
endloop
endfacet
facet normal 0.0 0.0 -1.0
outer loop
vertex 8.43370315196276 -1.335767353587 0.0
vertex 8.43370315196276 1.33576735358691 0.0
vertex 8.53883032261065 -2.81485592684421e-014 0.0
endloop
endfacet
facet normal 0.0 0.0 -1.0
outer loop
vertex 8.53883032261065 -2.81485592684421e-014 0.0
vertex 8.43370315196276 1.33576735358691 0.0
vertex 10.9212765621545 1.16266619542019 0.0
endloop
endfacet
facet normal 0.0 0.0 -1.0
outer loop
vertex 8.53883032261065 -2.81485592684421e-014 0.0
vertex 10.9212765621545 1.16266619542019 0.0
vertex 10.9686985891557 0.560112211338573 0.0
endloop
endfacet
facet normal 0.0 0.0 -1.0
outer loop
vertex 8.12091021985748 -2.63864368177094 0.0
vertex 8.43370315196276 -1.335767353587 0.0
vertex 10.6049364605552 -2.85681590177331 0.0
endloop
endfacet
facet normal 0.0 0.0 -1.0
outer loop
vertex 8.43370315196276 -1.335767353587 0.0
vertex 8.12091021985748 -2.63864368177094 0.0
vertex 8.12091021985749 2.63864368177087 0.0
endloop
endfacet
facet normal 0.0 0.0 -1.0
outer loop
vertex 10.6049364605552 -2.85681590177331 0.0
vertex 8.43370315196276 -1.335767353587 0.0
vertex 10.7460348538692 -2.26909879654177 0.0
endloop
endfacet
facet normal 0.0 0.0 -1.0
outer loop
vertex 6.90805884307605 -5.01899853545856 0.0
vertex 7.60815352638351 -3.8765478453534 0.0
vertex 9.20308926225845 -5.99409896981528 0.0
endloop
endfacet
facet normal 0.0 0.0 -1.0
outer loop
vertex 7.60815352638351 -3.8765478453534 0.0
vertex 6.90805884307605 -5.01899853545856 0.0
vertex 6.90805884307608 5.01899853545849 0.0
endloop
endfacet
facet normal 0.0 0.0 -1.0
outer loop
vertex 9.20308926225845 -5.99409896981528 0.0
vertex 7.60815352638351 -3.8765478453534 0.0
vertex 9.51889638205989 -5.47874858855973 0.0
endloop
endfacet
facet normal 0.0 0.0 -1.0
outer loop
vertex 5.01899853545816 -6.90805884307645 0.0
vertex 6.03786482451918 -6.03786482451957 0.0
vertex 6.90037956527847 -8.54463786734843 0.0
endloop
endfacet
facet normal 0.0 0.0 -1.0
outer loop
vertex 6.03786482451918 -6.03786482451957 0.0
vertex 5.01899853545816 -6.90805884307645 0.0
vertex 5.01899853545821 6.9080588430764 0.0
endloop
endfacet
facet normal 0.0 0.0 -1.0
outer loop
vertex 6.90037956527847 -8.54463786734843 0.0
vertex 6.03786482451918 -6.03786482451957 0.0
vertex 7.35998201032361 -8.1521002960434 0.0
endloop
endfacet
facet normal 0.0 0.0 -1.0
outer loop
vertex -1.03527618041008 3.86370330515627 6.99999999999999
vertex -1.5 2.5 6.99999999999999
vertex -2.0 3.46410161513775 6.99999999999999
endloop
endfacet
facet normal 0.0 0.0 -1.0
outer loop
vertex -1.5 2.5 6.99999999999999
vertex -1.03527618041008 3.86370330515627 6.99999999999999
vertex 1.5 2.5 6.99999999999999
endloop
endfacet
facet normal 0.0 0.0 -1.0
outer loop
vertex 1.5 2.5 6.99999999999999
vertex -1.03527618041008 3.86370330515627 6.99999999999999
vertex 2.44929359829471e-016 4.0 6.99999999999999
endloop
endfacet
facet normal 0.0 0.0 -1.0
outer loop
vertex 1.5 2.5 6.99999999999999
vertex 2.44929359829471e-016 4.0 6.99999999999999
vertex 1.03527618041008 3.86370330515627 6.99999999999999
endloop
endfacet
facet normal 0.0 0.0 -1.0
outer loop
vertex 1.5 2.5 6.99999999999999
vertex 1.03527618041008 3.86370330515627 6.99999999999999
vertex 2.0 3.46410161513775 6.99999999999999
endloop
endfacet
facet normal 0.0 0.0 -1.0
outer loop
vertex 1.5 2.5 6.99999999999999
vertex 2.0 3.46410161513775 6.99999999999999
vertex 1.5 -2.5 6.99999999999999
endloop
endfacet
facet normal 0.0 0.0 -1.0
outer loop
vertex 1.5 -2.5 6.99999999999999
vertex 2.0 3.46410161513775 6.99999999999999
vertex 2.0 -3.46410161513776 6.99999999999999
endloop
endfacet
facet normal 0.0 0.0 -1.0
outer loop
vertex 2.0 -3.46410161513776 6.99999999999999
vertex 2.0 3.46410161513775 6.99999999999999
vertex 2.82842712474619 -2.82842712474619 6.99999999999999
endloop
endfacet
facet normal 0.0 0.0 -1.0
outer loop
vertex 2.82842712474619 -2.82842712474619 6.99999999999999
vertex 2.0 3.46410161513775 6.99999999999999
vertex 2.82842712474619 2.82842712474619 6.99999999999999
endloop
endfacet
facet normal 0.0 0.0 -1.0
outer loop
vertex 2.82842712474619 -2.82842712474619 6.99999999999999
vertex 2.82842712474619 2.82842712474619 6.99999999999999
vertex 3.46410161513775 -2.0 6.99999999999999
endloop
endfacet
facet normal 0.0 0.0 -1.0
outer loop
vertex 3.46410161513775 -2.0 6.99999999999999
vertex 2.82842712474619 2.82842712474619 6.99999999999999
vertex 3.46410161513775 2.0 6.99999999999999
endloop
endfacet
facet normal 0.0 0.0 -1.0
outer loop
vertex 3.46410161513775 -2.0 6.99999999999999
vertex 3.46410161513775 2.0 6.99999999999999
vertex 3.86370330515627 -1.03527618041009 6.99999999999999
endloop
endfacet
facet normal 0.0 0.0 -1.0
outer loop
vertex 3.86370330515627 -1.03527618041009 6.99999999999999
vertex 3.46410161513775 2.0 6.99999999999999
vertex 3.86370330515627 1.03527618041008 6.99999999999999
endloop
endfacet
facet normal 0.0 0.0 -1.0
outer loop
vertex 3.86370330515627 -1.03527618041009 6.99999999999999
vertex 3.86370330515627 1.03527618041008 6.99999999999999
vertex 4.0 0.0 6.99999999999999
endloop
endfacet
facet normal 0.0 0.0 -1.0
outer loop
vertex -3.86370330515627 1.03527618041008 6.99999999999999
vertex -3.86370330515627 -1.03527618041008 6.99999999999999
vertex -4.0 4.89858719658941e-016 6.99999999999999
endloop
endfacet
facet normal 0.0 0.0 -1.0
outer loop
vertex -3.86370330515627 -1.03527618041008 6.99999999999999
vertex -3.86370330515627 1.03527618041008 6.99999999999999
vertex -3.46410161513775 -2.0 6.99999999999999
endloop
endfacet
facet normal 0.0 0.0 -1.0
outer loop
vertex -3.46410161513775 -2.0 6.99999999999999
vertex -3.86370330515627 1.03527618041008 6.99999999999999
vertex -3.46410161513775 2.0 6.99999999999999
endloop
endfacet
facet normal 0.0 0.0 -1.0
outer loop
vertex -3.46410161513775 -2.0 6.99999999999999
vertex -3.46410161513775 2.0 6.99999999999999
vertex -2.82842712474619 -2.82842712474619 6.99999999999999
endloop
endfacet
facet normal 0.0 0.0 -1.0
outer loop
vertex -2.82842712474619 -2.82842712474619 6.99999999999999
vertex -3.46410161513775 2.0 6.99999999999999
vertex -2.82842712474619 2.82842712474619 6.99999999999999
endloop
endfacet
facet normal 0.0 0.0 -1.0
outer loop
vertex -2.82842712474619 -2.82842712474619 6.99999999999999
vertex -2.82842712474619 2.82842712474619 6.99999999999999
vertex -2.0 -3.46410161513775 6.99999999999999
endloop
endfacet
facet normal 0.0 0.0 -1.0
outer loop
vertex -2.0 -3.46410161513775 6.99999999999999
vertex -2.82842712474619 2.82842712474619 6.99999999999999
vertex -2.0 3.46410161513775 6.99999999999999
endloop
endfacet
facet normal 0.0 0.0 -1.0
outer loop
vertex -2.0 -3.46410161513775 6.99999999999999
vertex -2.0 3.46410161513775 6.99999999999999
vertex -1.5 -2.5 6.99999999999999
endloop
endfacet
facet normal 0.0 0.0 -1.0
outer loop
vertex -2.0 -3.46410161513775 6.99999999999999
vertex -1.5 -2.5 6.99999999999999
vertex -1.03527618041009 -3.86370330515627 6.99999999999999
endloop
endfacet
facet normal 0.0 0.0 -1.0
outer loop
vertex -1.5 -2.5 6.99999999999999
vertex -2.0 3.46410161513775 6.99999999999999
vertex -1.5 2.5 6.99999999999999
endloop
endfacet
facet normal 0.0 0.0 -1.0
outer loop
vertex -1.03527618041009 -3.86370330515627 6.99999999999999
vertex -1.5 -2.5 6.99999999999999
vertex 1.5 -2.5 6.99999999999999
endloop
endfacet
facet normal 0.0 0.0 -1.0
outer loop
vertex -1.03527618041009 -3.86370330515627 6.99999999999999
vertex 1.5 -2.5 6.99999999999999
vertex -7.34788079488412e-016 -4.0 6.99999999999999
endloop
endfacet
facet normal 0.0 0.0 -1.0
outer loop
vertex -7.34788079488412e-016 -4.0 6.99999999999999
vertex 1.5 -2.5 6.99999999999999
vertex 1.03527618041008 -3.86370330515627 6.99999999999999
endloop
endfacet
facet normal 0.0 0.0 -1.0
outer loop
vertex 1.03527618041008 -3.86370330515627 6.99999999999999
vertex 1.5 -2.5 6.99999999999999
vertex 2.0 -3.46410161513776 6.99999999999999
endloop
endfacet
facet normal -0.5 -0.866025403784439 0.0
outer loop
vertex 2.0 3.46410161513775 6.99999999999999
vertex 1.03527618041008 3.86370330515627 0.0
vertex 2.0 3.46410161513775 0.0
endloop
endfacet
facet normal -0.258819045102521 -0.965925826289068 0.0
outer loop
vertex 1.03527618041008 3.86370330515627 0.0
vertex 2.0 3.46410161513775 6.99999999999999
vertex 1.03527618041008 3.86370330515627 6.99999999999999
endloop
endfacet
facet normal -0.707106781186548 -0.707106781186547 0.0
outer loop
vertex 2.82842712474619 2.82842712474619 6.99999999999999
vertex 3.46410161513775 2.0 0.0
vertex 3.46410161513775 2.0 6.99999999999999
endloop
endfacet
facet normal -0.866025403784439 -0.5 0.0
outer loop
vertex 3.46410161513775 2.0 0.0
vertex 2.82842712474619 2.82842712474619 6.99999999999999
vertex 2.82842712474619 2.82842712474619 0.0
endloop
endfacet
facet normal -0.866025403784439 -0.5 0.0
outer loop
vertex 3.46410161513775 2.0 6.99999999999999
vertex 3.86370330515627 1.03527618041008 0.0
vertex 3.86370330515627 1.03527618041008 6.99999999999999
endloop
endfacet
facet normal -0.965925826289068 -0.258819045102521 0.0
outer loop
vertex 3.86370330515627 1.03527618041008 0.0
vertex 3.46410161513775 2.0 6.99999999999999
vertex 3.46410161513775 2.0 0.0
endloop
endfacet
facet normal -1.0 1.42577758330351e-016 0.0
outer loop
vertex 4.0 0.0 6.99999999999999
vertex 3.86370330515627 -1.03527618041009 0.0
vertex 3.86370330515627 -1.03527618041009 6.99999999999999
endloop
endfacet
facet normal -0.965925826289068 0.258819045102521 0.0
outer loop
vertex 3.86370330515627 -1.03527618041009 0.0
vertex 4.0 0.0 6.99999999999999
vertex 4.0 0.0 0.0
endloop
endfacet
facet normal -0.965925826289068 0.258819045102521 0.0
outer loop
vertex 3.86370330515627 -1.03527618041009 6.99999999999999
vertex 3.46410161513775 -2.0 0.0
vertex 3.46410161513775 -2.0 6.99999999999999
endloop
endfacet
facet normal -0.866025403784439 0.5 0.0
outer loop
vertex 3.46410161513775 -2.0 0.0
vertex 3.86370330515627 -1.03527618041009 6.99999999999999
vertex 3.86370330515627 -1.03527618041009 0.0
endloop
endfacet
facet normal -0.866025403784439 0.5 0.0
outer loop
vertex 3.46410161513775 -2.0 6.99999999999999
vertex 2.82842712474619 -2.82842712474619 0.0
vertex 2.82842712474619 -2.82842712474619 6.99999999999999
endloop
endfacet
facet normal -0.707106781186547 0.707106781186548 0.0
outer loop
vertex 2.82842712474619 -2.82842712474619 0.0
vertex 3.46410161513775 -2.0 6.99999999999999
vertex 3.46410161513775 -2.0 0.0
endloop
endfacet
facet normal -0.5 0.866025403784439 0.0
outer loop
vertex 2.0 -3.46410161513776 6.99999999999999
vertex 2.82842712474619 -2.82842712474619 0.0
vertex 2.0 -3.46410161513776 0.0
endloop
endfacet
facet normal -0.707106781186547 0.707106781186548 0.0
outer loop
vertex 2.82842712474619 -2.82842712474619 0.0
vertex 2.0 -3.46410161513776 6.99999999999999
vertex 2.82842712474619 -2.82842712474619 6.99999999999999
endloop
endfacet
facet normal -0.965925826289068 -0.258819045102521 0.0
outer loop
vertex 3.86370330515627 1.03527618041008 6.99999999999999
vertex 4.0 0.0 0.0
vertex 4.0 0.0 6.99999999999999
endloop
endfacet
facet normal -1.0 1.42577758330351e-016 0.0
outer loop
vertex 4.0 0.0 0.0
vertex 3.86370330515627 1.03527618041008 6.99999999999999
vertex 3.86370330515627 1.03527618041008 0.0
endloop
endfacet
facet normal -0.707106781186548 -0.707106781186547 0.0
outer loop
vertex 2.82842712474619 2.82842712474619 6.99999999999999
vertex 2.0 3.46410161513775 0.0
vertex 2.82842712474619 2.82842712474619 0.0
endloop
endfacet
facet normal -0.5 -0.866025403784439 0.0
outer loop
vertex 2.0 3.46410161513775 0.0
vertex 2.82842712474619 2.82842712474619 6.99999999999999
vertex 2.0 3.46410161513775 6.99999999999999
endloop
endfacet
facet normal -0.25881904510252 0.965925826289069 0.0
outer loop
vertex 1.03527618041008 -3.86370330515627 6.99999999999999
vertex 2.0 -3.46410161513776 0.0
vertex 1.03527618041008 -3.86370330515627 0.0
endloop
endfacet
facet normal -0.5 0.866025403784439 0.0
outer loop
vertex 2.0 -3.46410161513776 0.0
vertex 1.03527618041008 -3.86370330515627 6.99999999999999
vertex 2.0 -3.46410161513776 6.99999999999999
endloop
endfacet
facet normal 0.866025403784439 -0.5 0.0
outer loop
vertex -3.46410161513775 2.0 0.0
vertex -3.86370330515627 1.03527618041008 6.99999999999999
vertex -3.86370330515627 1.03527618041008 0.0
endloop
endfacet
facet normal 0.965925826289068 -0.258819045102521 0.0
outer loop
vertex -3.86370330515627 1.03527618041008 6.99999999999999
vertex -3.46410161513775 2.0 0.0
vertex -3.46410161513775 2.0 6.99999999999999
endloop
endfacet
facet normal 0.258819045102521 -0.965925826289068 0.0
outer loop
vertex -1.03527618041008 3.86370330515627 6.99999999999999
vertex -2.0 3.46410161513775 0.0
vertex -1.03527618041008 3.86370330515627 0.0
endloop
endfacet
facet normal 0.5 -0.866025403784439 0.0
outer loop
vertex -2.0 3.46410161513775 0.0
vertex -1.03527618041008 3.86370330515627 6.99999999999999
vertex -2.0 3.46410161513775 6.99999999999999
endloop
endfacet
facet normal 0.707106781186548 0.707106781186547 0.0
outer loop
vertex -2.82842712474619 -2.82842712474619 6.99999999999999
vertex -2.0 -3.46410161513775 0.0
vertex -2.82842712474619 -2.82842712474619 0.0
endloop
endfacet
facet normal 0.5 0.866025403784438 0.0
outer loop
vertex -2.0 -3.46410161513775 0.0
vertex -2.82842712474619 -2.82842712474619 6.99999999999999
vertex -2.0 -3.46410161513775 6.99999999999999
endloop
endfacet
facet normal 5.34666593738814e-017 -1.0 0.0
outer loop
vertex 2.44929359829471e-016 4.0 6.99999999999999
vertex -1.03527618041008 3.86370330515627 0.0
vertex 2.44929359829471e-016 4.0 0.0
endloop
endfacet
facet normal 0.258819045102521 -0.965925826289068 0.0
outer loop
vertex -1.03527618041008 3.86370330515627 0.0
vertex 2.44929359829471e-016 4.0 6.99999999999999
vertex -1.03527618041008 3.86370330515627 6.99999999999999
endloop
endfacet
facet normal 0.866025403784439 0.5 0.0
outer loop
vertex -3.46410161513775 -2.0 0.0
vertex -2.82842712474619 -2.82842712474619 6.99999999999999
vertex -2.82842712474619 -2.82842712474619 0.0
endloop
endfacet
facet normal 0.707106781186548 0.707106781186547 0.0
outer loop
vertex -2.82842712474619 -2.82842712474619 6.99999999999999
vertex -3.46410161513775 -2.0 0.0
vertex -3.46410161513775 -2.0 6.99999999999999
endloop
endfacet
facet normal 0.258819045102521 0.965925826289068 0.0
outer loop
vertex -1.03527618041009 -3.86370330515627 6.99999999999999
vertex -7.34788079488412e-016 -4.0 0.0
vertex -1.03527618041009 -3.86370330515627 0.0
endloop
endfacet
facet normal 4.63377714573639e-016 1.0 0.0
outer loop
vertex -7.34788079488412e-016 -4.0 0.0
vertex -1.03527618041009 -3.86370330515627 6.99999999999999
vertex -7.34788079488412e-016 -4.0 6.99999999999999
endloop
endfacet
facet normal 0.965925826289068 0.25881904510252 0.0
outer loop
vertex -3.86370330515627 -1.03527618041008 0.0
vertex -3.46410161513775 -2.0 6.99999999999999
vertex -3.46410161513775 -2.0 0.0
endloop
endfacet
facet normal 0.866025403784439 0.5 0.0
outer loop
vertex -3.46410161513775 -2.0 6.99999999999999
vertex -3.86370330515627 -1.03527618041008 0.0
vertex -3.86370330515627 -1.03527618041008 6.99999999999999
endloop
endfacet
facet normal 0.707106781186547 -0.707106781186548 0.0
outer loop
vertex -2.82842712474619 2.82842712474619 0.0
vertex -3.46410161513775 2.0 6.99999999999999
vertex -3.46410161513775 2.0 0.0
endloop
endfacet
facet normal 0.866025403784439 -0.5 0.0
outer loop
vertex -3.46410161513775 2.0 6.99999999999999
vertex -2.82842712474619 2.82842712474619 0.0
vertex -2.82842712474619 2.82842712474619 6.99999999999999
endloop
endfacet
facet normal 4.63377714573639e-016 1.0 0.0
outer loop
vertex -7.34788079488412e-016 -4.0 6.99999999999999
vertex 1.03527618041008 -3.86370330515627 0.0
vertex -7.34788079488412e-016 -4.0 0.0
endloop
endfacet
facet normal -0.25881904510252 0.965925826289069 0.0
outer loop
vertex 1.03527618041008 -3.86370330515627 0.0
vertex -7.34788079488412e-016 -4.0 6.99999999999999
vertex 1.03527618041008 -3.86370330515627 6.99999999999999
endloop
endfacet
facet normal 0.5 0.866025403784438 0.0
outer loop
vertex -2.0 -3.46410161513775 6.99999999999999
vertex -1.03527618041009 -3.86370330515627 0.0
vertex -2.0 -3.46410161513775 0.0
endloop
endfacet
facet normal 0.258819045102521 0.965925826289068 0.0
outer loop
vertex -1.03527618041009 -3.86370330515627 0.0
vertex -2.0 -3.46410161513775 6.99999999999999
vertex -1.03527618041009 -3.86370330515627 6.99999999999999
endloop
endfacet
facet normal 1.0 -2.40599967182466e-016 0.0
outer loop
vertex -4.0 4.89858719658941e-016 0.0
vertex -3.86370330515627 -1.03527618041008 6.99999999999999
vertex -3.86370330515627 -1.03527618041008 0.0
endloop
endfacet
facet normal 0.965925826289068 0.25881904510252 0.0
outer loop
vertex -3.86370330515627 -1.03527618041008 6.99999999999999
vertex -4.0 4.89858719658941e-016 0.0
vertex -4.0 4.89858719658941e-016 6.99999999999999
endloop
endfacet
facet normal 0.965925826289068 -0.258819045102521 0.0
outer loop
vertex -3.86370330515627 1.03527618041008 0.0
vertex -4.0 4.89858719658941e-016 6.99999999999999
vertex -4.0 4.89858719658941e-016 0.0
endloop
endfacet
facet normal 1.0 -2.40599967182466e-016 0.0
outer loop
vertex -4.0 4.89858719658941e-016 6.99999999999999
vertex -3.86370330515627 1.03527618041008 0.0
vertex -3.86370330515627 1.03527618041008 6.99999999999999
endloop
endfacet
facet normal 0.5 -0.866025403784439 0.0
outer loop
vertex -2.0 3.46410161513775 6.99999999999999
vertex -2.82842712474619 2.82842712474619 0.0
vertex -2.0 3.46410161513775 0.0
endloop
endfacet
facet normal 0.707106781186547 -0.707106781186548 0.0
outer loop
vertex -2.82842712474619 2.82842712474619 0.0
vertex -2.0 3.46410161513775 6.99999999999999
vertex -2.82842712474619 2.82842712474619 6.99999999999999
endloop
endfacet
facet normal -0.258819045102521 -0.965925826289068 0.0
outer loop
vertex 1.03527618041008 3.86370330515627 6.99999999999999
vertex 2.44929359829471e-016 4.0 0.0
vertex 1.03527618041008 3.86370330515627 0.0
endloop
endfacet
facet normal 5.34666593738814e-017 -1.0 0.0
outer loop
vertex 2.44929359829471e-016 4.0 0.0
vertex 1.03527618041008 3.86370330515627 6.99999999999999
vertex 2.44929359829471e-016 4.0 6.99999999999999
endloop
endfacet
facet normal -0.0 -0.0 1.0
outer loop
vertex -10.9212765621544 -1.16266619542141 -3.0
vertex -8.53883032261136 1.16792248404302e-014 -3.0
vertex -10.9686985891557 -0.560112211339804 -3.0
endloop
endfacet
facet normal -0.0 -0.0 1.0
outer loop
vertex -8.53883032261136 1.16792248404302e-014 -3.0
vertex -10.9212765621544 -1.16266619542141 -3.0
vertex -8.43370315196346 -1.33576735358693 -3.0
endloop
endfacet
facet normal -0.0 -0.0 1.0
outer loop
vertex -8.53883032261136 1.16792248404302e-014 -3.0
vertex -8.43370315196346 -1.33576735358693 -3.0
vertex -8.43370315196345 1.33576735358699 -3.0
endloop
endfacet
facet normal -0.0 -0.0 1.0
outer loop
vertex -8.43370315196345 1.33576735358699 -3.0
vertex -8.43370315196346 -1.33576735358693 -3.0
vertex -8.12091021985818 -2.63864368177088 -3.0
endloop
endfacet
facet normal -0.0 -0.0 1.0
outer loop
vertex -10.0274676275279 -4.48062131940624 -3.0
vertex -8.12091021985818 -2.63864368177088 -3.0
vertex -10.258768076433 -3.92221263867693 -3.0
endloop
endfacet
facet normal -0.0 -0.0 1.0
outer loop
vertex -8.12091021985818 -2.63864368177088 -3.0
vertex -10.0274676275279 -4.48062131940624 -3.0
vertex -7.60815352638422 -3.87654784535335 -3.0
endloop
endfacet
facet normal -0.0 -0.0 1.0
outer loop
vertex -8.12091021985818 -2.63864368177088 -3.0
vertex -7.60815352638422 -3.87654784535335 -3.0
vertex -8.12091021985817 2.63864368177092 -3.0
endloop
endfacet
facet normal -0.0 -0.0 1.0
outer loop
vertex -8.12091021985817 2.63864368177092 -3.0
vertex -7.60815352638422 -3.87654784535335 -3.0
vertex -7.6081535263842 3.87654784535337 -3.0
endloop
endfacet
facet normal -0.0 -0.0 1.0
outer loop
vertex -7.6081535263842 3.87654784535337 -3.0
vertex -7.60815352638422 -3.87654784535335 -3.0
vertex -6.90805884307679 -5.01899853545851 -3.0
endloop
endfacet
facet normal -0.0 -0.0 1.0
outer loop
vertex -8.15210029604382 -7.35998201032315 -3.0
vertex -6.90805884307679 -5.01899853545851 -3.0
vertex -8.54463786734883 -6.90037956527798 -3.0
endloop
endfacet
facet normal -0.0 -0.0 1.0
outer loop
vertex -6.90805884307679 -5.01899853545851 -3.0
vertex -8.15210029604382 -7.35998201032315 -3.0
vertex -6.03786482451993 -6.03786482451955 -3.0
endloop
endfacet
facet normal -0.0 -0.0 1.0
outer loop
vertex -6.90805884307679 -5.01899853545851 -3.0
vertex -6.03786482451993 -6.03786482451955 -3.0
vertex -6.90805884307674 5.01899853545854 -3.0
endloop
endfacet
facet normal -0.0 -0.0 1.0
outer loop
vertex -6.90805884307674 5.01899853545854 -3.0
vertex -6.03786482451993 -6.03786482451955 -3.0
vertex -6.03786482451988 6.03786482451956 -3.0
endloop
endfacet
facet normal -0.0 -0.0 1.0
outer loop
vertex -6.03786482451988 6.03786482451956 -3.0
vertex -6.03786482451993 -6.03786482451955 -3.0
vertex -5.01899853545889 -6.90805884307639 -3.0
endloop
endfacet
facet normal -0.0 -0.0 1.0
outer loop
vertex -5.47874858856028 -9.51889638205957 -3.0
vertex -5.01899853545889 -6.90805884307639 -3.0
vertex -5.99409896981582 -9.2030892622581 -3.0
endloop
endfacet
facet normal -0.0 -0.0 1.0
outer loop
vertex -5.01899853545889 -6.90805884307639 -3.0
vertex -5.47874858856028 -9.51889638205957 -3.0
vertex -3.87654784535373 -7.60815352638386 -3.0
endloop
endfacet
facet normal -0.0 -0.0 1.0
outer loop
vertex -5.01899853545889 -6.90805884307639 -3.0
vertex -3.87654784535373 -7.60815352638386 -3.0
vertex -5.01899853545885 6.90805884307644 -3.0
endloop
endfacet
facet normal -0.0 -0.0 1.0
outer loop
vertex -5.01899853545885 6.90805884307644 -3.0
vertex -3.87654784535373 -7.60815352638386 -3.0
vertex -3.87654784535369 7.60815352638385 -3.0
endloop
endfacet
facet normal -0.0 -0.0 1.0
outer loop
vertex -3.87654784535369 7.60815352638385 -3.0
vertex -3.87654784535373 -7.60815352638386 -3.0
vertex -2.63864368177127 -8.12091021985784 -3.0
endloop
endfacet
facet normal -0.0 -0.0 1.0
outer loop
vertex -2.26909879654239 -10.746034853869 -3.0
vertex -2.63864368177127 -8.12091021985784 -3.0
vertex -2.85681590177393 -10.604936460555 -3.0
endloop
endfacet
facet normal -0.0 -0.0 1.0
outer loop
vertex -2.63864368177127 -8.12091021985784 -3.0
vertex -2.26909879654239 -10.746034853869 -3.0
vertex -2.63864368177123 8.12091021985784 -3.0
endloop
endfacet
facet normal -0.0 -0.0 1.0
outer loop
vertex -2.63864368177123 8.12091021985784 -3.0
vertex -2.26909879654239 -10.746034853869 -3.0
vertex -1.33576735358726 8.4337031519631 -3.0
endloop
endfacet
facet normal -0.0 -0.0 1.0
outer loop
vertex -1.33576735358726 8.4337031519631 -3.0
vertex -2.26909879654239 -10.746034853869 -3.0
vertex -1.33576735358734 -8.43370315196311 -3.0
endloop
endfacet
facet normal -0.0 -0.0 1.0
outer loop
vertex -1.33576735358726 8.4337031519631 -3.0
vertex -1.33576735358734 -8.43370315196311 -3.0
vertex -3.66838014692045e-013 -8.53883032261102 -3.0
endloop
endfacet
facet normal -0.0 -0.0 1.0
outer loop
vertex -1.33576735358726 8.4337031519631 -3.0
vertex -3.66838014692045e-013 -8.53883032261102 -3.0
vertex -1.1626661954208 10.9212765621544 -3.0
endloop
endfacet
facet normal -0.0 -0.0 1.0
outer loop
vertex -1.1626661954208 10.9212765621544 -3.0
vertex -3.66838014692045e-013 -8.53883032261102 -3.0
vertex -0.560112211339191 10.9686985891557 -3.0
endloop
endfacet
facet normal -0.0 -0.0 1.0
outer loop
vertex -0.560112211339191 10.9686985891557 -3.0
vertex -3.66838014692045e-013 -8.53883032261102 -3.0
vertex -3.24147262291734e-013 8.53883032261099 -3.0
endloop
endfacet
facet normal -0.0 -0.0 1.0
outer loop
vertex -3.24147262291734e-013 8.53883032261099 -3.0
vertex -3.66838014692045e-013 -8.53883032261102 -3.0
vertex 0.560112211340422 -10.9686985891556 -3.0
endloop
endfacet
facet normal -0.0 -0.0 1.0
outer loop
vertex -3.24147262291734e-013 8.53883032261099 -3.0
vertex 0.560112211340422 -10.9686985891556 -3.0
vertex 1.33576735358665 8.4337031519631 -3.0
endloop
endfacet
facet normal -0.0 -0.0 1.0
outer loop
vertex 1.33576735358665 8.4337031519631 -3.0
vertex 0.560112211340422 -10.9686985891556 -3.0
vertex 1.16266619542203 -10.9212765621543 -3.0
endloop
endfacet
facet normal -0.0 -0.0 1.0
outer loop
vertex 1.33576735358665 8.4337031519631 -3.0
vertex 1.16266619542203 -10.9212765621543 -3.0
vertex 1.33576735358657 -8.43370315196311 -3.0
endloop
endfacet
facet normal -0.0 -0.0 1.0
outer loop
vertex 1.33576735358665 8.4337031519631 -3.0
vertex 1.33576735358657 -8.43370315196311 -3.0
vertex 2.63864368177053 -8.12091021985783 -3.0
endloop
endfacet
facet normal -0.0 -0.0 1.0
outer loop
vertex 1.33576735358665 8.4337031519631 -3.0
vertex 2.63864368177053 -8.12091021985783 -3.0
vertex 2.2690987965436 10.7460348538688 -3.0
endloop
endfacet
facet normal -0.0 -0.0 1.0
outer loop
vertex 2.2690987965436 10.7460348538688 -3.0
vertex 2.63864368177053 -8.12091021985783 -3.0
vertex 2.63864368177059 8.12091021985782 -3.0
endloop
endfacet
facet normal -0.0 -0.0 1.0
outer loop
vertex 2.2690987965436 10.7460348538688 -3.0
vertex 2.63864368177059 8.12091021985782 -3.0
vertex 2.85681590177511 10.6049364605547 -3.0
endloop
endfacet
facet normal -0.0 -0.0 1.0
outer loop
vertex -3.87654784535369 7.60815352638385 -3.0
vertex -3.92221263867636 10.2587680764332 -3.0
vertex -4.48062131940568 10.0274676275282 -3.0
endloop
endfacet
facet normal -0.0 -0.0 1.0
outer loop
vertex -3.92221263867636 10.2587680764332 -3.0
vertex -3.87654784535369 7.60815352638385 -3.0
vertex -2.63864368177123 8.12091021985784 -3.0
endloop
endfacet
facet normal -0.0 -0.0 1.0
outer loop
vertex -2.63864368177123 8.12091021985784 -3.0
vertex -3.87654784535369 7.60815352638385 -3.0
vertex -2.63864368177127 -8.12091021985784 -3.0
endloop
endfacet
facet normal -0.0 -0.0 1.0
outer loop
vertex -6.03786482451988 6.03786482451956 -3.0
vertex -6.9003795652775 8.54463786734921 -3.0
vertex -7.35998201032269 8.15210029604423 -3.0
endloop
endfacet
facet normal -0.0 -0.0 1.0
outer loop
vertex -6.9003795652775 8.54463786734921 -3.0
vertex -6.03786482451988 6.03786482451956 -3.0
vertex -5.01899853545885 6.90805884307644 -3.0
endloop
endfacet
facet normal -0.0 -0.0 1.0
outer loop
vertex -5.01899853545885 6.90805884307644 -3.0
vertex -6.03786482451988 6.03786482451956 -3.0
vertex -5.01899853545889 -6.90805884307639 -3.0
endloop
endfacet
facet normal -0.0 -0.0 1.0
outer loop
vertex -7.6081535263842 3.87654784535337 -3.0
vertex -9.20308926225777 5.99409896981633 -3.0
vertex -9.51889638205927 5.4787485885608 -3.0
endloop
endfacet
facet normal -0.0 -0.0 1.0
outer loop
vertex -9.20308926225777 5.99409896981633 -3.0
vertex -7.6081535263842 3.87654784535337 -3.0
vertex -6.90805884307674 5.01899853545854 -3.0
endloop
endfacet
facet normal -0.0 -0.0 1.0
outer loop
vertex -6.90805884307674 5.01899853545854 -3.0
vertex -7.6081535263842 3.87654784535337 -3.0
vertex -6.90805884307679 -5.01899853545851 -3.0
endloop
endfacet
facet normal -0.0 -0.0 1.0
outer loop
vertex -8.43370315196345 1.33576735358699 -3.0
vertex -10.6049364605549 2.85681590177452 -3.0
vertex -10.7460348538689 2.26909879654299 -3.0
endloop
endfacet
facet normal -0.0 -0.0 1.0
outer loop
vertex -10.6049364605549 2.85681590177452 -3.0
vertex -8.43370315196345 1.33576735358699 -3.0
vertex -8.12091021985817 2.63864368177092 -3.0
endloop
endfacet
facet normal -0.0 -0.0 1.0
outer loop
vertex -8.12091021985817 2.63864368177092 -3.0
vertex -8.43370315196345 1.33576735358699 -3.0
vertex -8.12091021985818 -2.63864368177088 -3.0
endloop
endfacet
facet normal -0.0 -0.0 1.0
outer loop
vertex 3.92221263867751 -10.2587680764328 -3.0
vertex 2.63864368177059 8.12091021985782 -3.0
vertex 2.63864368177053 -8.12091021985783 -3.0
endloop
endfacet
facet normal -0.0 -0.0 1.0
outer loop
vertex 2.63864368177059 8.12091021985782 -3.0
vertex 3.92221263867751 -10.2587680764328 -3.0
vertex 3.876547845353 -7.60815352638387 -3.0
endloop
endfacet
facet normal -0.0 -0.0 1.0
outer loop
vertex 3.876547845353 -7.60815352638387 -3.0
vertex 3.92221263867751 -10.2587680764328 -3.0
vertex 4.48062131940681 -10.0274676275277 -3.0
endloop
endfacet
facet normal -0.0 -0.0 1.0
outer loop
vertex 5.01899853545816 -6.90805884307645 -3.0
vertex 6.03786482451918 -6.03786482451957 -3.0
vertex 5.01899853545821 6.9080588430764 -3.0
endloop
endfacet
facet normal -0.0 -0.0 1.0
outer loop
vertex 6.03786482451918 -6.03786482451957 -3.0
vertex 5.01899853545816 -6.90805884307645 -3.0
vertex 6.90037956527847 -8.54463786734843 -3.0
endloop
endfacet
facet normal -0.0 -0.0 1.0
outer loop
vertex 6.03786482451918 -6.03786482451957 -3.0
vertex 6.90037956527847 -8.54463786734843 -3.0
vertex 7.35998201032361 -8.1521002960434 -3.0
endloop
endfacet
facet normal -0.0 -0.0 1.0
outer loop
vertex 6.90805884307605 -5.01899853545856 -3.0
vertex 7.60815352638351 -3.8765478453534 -3.0
vertex 6.90805884307608 5.01899853545849 -3.0
endloop
endfacet
facet normal -0.0 -0.0 1.0
outer loop
vertex 7.60815352638351 -3.8765478453534 -3.0
vertex 6.90805884307605 -5.01899853545856 -3.0
vertex 9.20308926225845 -5.99409896981528 -3.0
endloop
endfacet
facet normal -0.0 -0.0 1.0
outer loop
vertex 7.60815352638351 -3.8765478453534 -3.0
vertex 9.20308926225845 -5.99409896981528 -3.0
vertex 9.51889638205989 -5.47874858855973 -3.0
endloop
endfacet
facet normal -0.0 -0.0 1.0
outer loop
vertex 8.12091021985748 -2.63864368177094 -3.0
vertex 8.43370315196276 -1.335767353587 -3.0
vertex 8.12091021985749 2.63864368177087 -3.0
endloop
endfacet
facet normal -0.0 -0.0 1.0
outer loop
vertex 8.43370315196276 -1.335767353587 -3.0
vertex 8.12091021985748 -2.63864368177094 -3.0
vertex 10.6049364605552 -2.85681590177331 -3.0
endloop
endfacet
facet normal -0.0 -0.0 1.0
outer loop
vertex 8.43370315196276 -1.335767353587 -3.0
vertex 10.6049364605552 -2.85681590177331 -3.0
vertex 10.7460348538692 -2.26909879654177 -3.0
endloop
endfacet
facet normal -0.0 -0.0 1.0
outer loop
vertex 8.43370315196276 -1.335767353587 -3.0
vertex 8.43370315196276 1.33576735358691 -3.0
vertex 8.12091021985749 2.63864368177087 -3.0
endloop
endfacet
facet normal -0.0 -0.0 1.0
outer loop
vertex 8.43370315196276 1.33576735358691 -3.0
vertex 8.43370315196276 -1.335767353587 -3.0
vertex 8.53883032261065 -2.81485592684421e-014 -3.0
endloop
endfacet
facet normal -0.0 -0.0 1.0
outer loop
vertex 8.43370315196276 1.33576735358691 -3.0
vertex 8.53883032261065 -2.81485592684421e-014 -3.0
vertex 10.9212765621545 1.16266619542019 -3.0
endloop
endfacet
facet normal -0.0 -0.0 1.0
outer loop
vertex 10.9212765621545 1.16266619542019 -3.0
vertex 8.53883032261065 -2.81485592684421e-014 -3.0
vertex 10.9686985891557 0.560112211338573 -3.0
endloop
endfacet
facet normal -0.0 -0.0 1.0
outer loop
vertex 7.60815352638351 -3.8765478453534 -3.0
vertex 7.60815352638352 3.87654784535332 -3.0
vertex 6.90805884307608 5.01899853545849 -3.0
endloop
endfacet
facet normal -0.0 -0.0 1.0
outer loop
vertex 7.60815352638352 3.87654784535332 -3.0
vertex 7.60815352638351 -3.8765478453534 -3.0
vertex 8.12091021985748 -2.63864368177094 -3.0
endloop
endfacet
facet normal -0.0 -0.0 1.0
outer loop
vertex 7.60815352638352 3.87654784535332 -3.0
vertex 8.12091021985748 -2.63864368177094 -3.0
vertex 8.12091021985749 2.63864368177087 -3.0
endloop
endfacet
facet normal -0.0 -0.0 1.0
outer loop
vertex 7.60815352638352 3.87654784535332 -3.0
vertex 8.12091021985749 2.63864368177087 -3.0
vertex 10.0274676275284 4.48062131940512 -3.0
endloop
endfacet
facet normal -0.0 -0.0 1.0
outer loop
vertex 10.0274676275284 4.48062131940512 -3.0
vertex 8.12091021985749 2.63864368177087 -3.0
vertex 10.2587680764334 3.92221263867578 -3.0
endloop
endfacet
facet normal -0.0 -0.0 1.0
outer loop
vertex 6.03786482451918 -6.03786482451957 -3.0
vertex 6.03786482451922 6.03786482451952 -3.0
vertex 5.01899853545821 6.9080588430764 -3.0
endloop
endfacet
facet normal -0.0 -0.0 1.0
outer loop
vertex 6.03786482451922 6.03786482451952 -3.0
vertex 6.03786482451918 -6.03786482451957 -3.0
vertex 6.90805884307605 -5.01899853545856 -3.0
endloop
endfacet
facet normal -0.0 -0.0 1.0
outer loop
vertex 6.03786482451922 6.03786482451952 -3.0
vertex 6.90805884307605 -5.01899853545856 -3.0
vertex 6.90805884307608 5.01899853545849 -3.0
endloop
endfacet
facet normal -0.0 -0.0 1.0
outer loop
vertex 6.03786482451922 6.03786482451952 -3.0
vertex 6.90805884307608 5.01899853545849 -3.0
vertex 8.15210029604464 7.35998201032223 -3.0
endloop
endfacet
facet normal -0.0 -0.0 1.0
outer loop
vertex 8.15210029604464 7.35998201032223 -3.0
vertex 6.90805884307608 5.01899853545849 -3.0
vertex 8.5446378673496 6.90037956527702 -3.0
endloop
endfacet
facet normal -0.0 -0.0 1.0
outer loop
vertex 3.876547845353 -7.60815352638387 -3.0
vertex 3.87654784535303 7.60815352638385 -3.0
vertex 2.63864368177059 8.12091021985782 -3.0
endloop
endfacet
facet normal -0.0 -0.0 1.0
outer loop
vertex 3.87654784535303 7.60815352638385 -3.0
vertex 3.876547845353 -7.60815352638387 -3.0
vertex 5.01899853545816 -6.90805884307645 -3.0
endloop
endfacet
facet normal -0.0 -0.0 1.0
outer loop
vertex 3.87654784535303 7.60815352638385 -3.0
vertex 5.01899853545816 -6.90805884307645 -3.0
vertex 5.01899853545821 6.9080588430764 -3.0
endloop
endfacet
facet normal -0.0 -0.0 1.0
outer loop
vertex 3.87654784535303 7.60815352638385 -3.0
vertex 5.01899853545821 6.9080588430764 -3.0
vertex 5.47874858856134 9.51889638205896 -3.0
endloop
endfacet
facet normal -0.0 -0.0 1.0
outer loop
vertex 5.47874858856134 9.51889638205896 -3.0
vertex 5.01899853545821 6.9080588430764 -3.0
vertex 5.99409896981684 9.20308926225743 -3.0
endloop
endfacet
facet normal 0.760405965600028 -0.649448048330187 -0.0
outer loop
vertex -6.03786482451988 6.03786482451956 -3.0
vertex -6.90805884307674 5.01899853545854 0.0
vertex -6.90805884307674 5.01899853545854 -3.0
endloop
endfacet
facet normal 0.760405965600028 -0.649448048330187 -0.0
outer loop
vertex -6.90805884307674 5.01899853545854 0.0
vertex -6.03786482451988 6.03786482451956 -3.0
vertex -6.03786482451988 6.03786482451956 0.0
endloop
endfacet
facet normal 0.847868504689031 0.530206562347531 0.0
outer loop
vertex -7.35998201032269 8.15210029604423 -3.0
vertex -6.03786482451988 6.03786482451956 0.0
vertex -6.03786482451988 6.03786482451956 -3.0
endloop
endfacet
facet normal 0.847868504689031 0.530206562347531 0.0
outer loop
vertex -6.03786482451988 6.03786482451956 0.0
vertex -7.35998201032269 8.15210029604423 -3.0
vertex -7.35998201032269 8.15210029604423 0.0
endloop
endfacet
facet normal 0.64944804833028 -0.760405965599948 -0.0
outer loop
vertex -6.9003795652775 8.54463786734921 0.0
vertex -7.35998201032269 8.15210029604423 -3.0
vertex -6.9003795652775 8.54463786734921 -3.0
endloop
endfacet
facet normal 0.64944804833028 -0.760405965599948 -0.0
outer loop
vertex -7.35998201032269 8.15210029604423 -3.0
vertex -6.9003795652775 8.54463786734921 0.0
vertex -7.35998201032269 8.15210029604423 0.0
endloop
endfacet
facet normal -0.656314695692156 -0.754487256498421 -0.0
outer loop
vertex -5.01899853545885 6.90805884307644 0.0
vertex -6.9003795652775 8.54463786734921 -3.0
vertex -5.01899853545885 6.90805884307644 -3.0
endloop
endfacet
facet normal -0.656314695692156 -0.754487256498421 -0.0
outer loop
vertex -6.9003795652775 8.54463786734921 -3.0
vertex -5.01899853545885 6.90805884307644 0.0
vertex -6.9003795652775 8.54463786734921 0.0
endloop
endfacet
facet normal 0.522498564715931 -0.852640164354103 -0.0
outer loop
vertex -3.87654784535369 7.60815352638385 0.0
vertex -5.01899853545885 6.90805884307644 -3.0
vertex -3.87654784535369 7.60815352638385 -3.0
endloop
endfacet
facet normal 0.522498564715931 -0.852640164354103 -0.0
outer loop
vertex -5.01899853545885 6.90805884307644 -3.0
vertex -3.87654784535369 7.60815352638385 0.0
vertex -5.01899853545885 6.90805884307644 0.0
endloop
endfacet
facet normal 0.970213704640455 0.24225062915882 0.0
outer loop
vertex -4.48062131940568 10.0274676275282 -3.0
vertex -3.87654784535369 7.60815352638385 0.0
vertex -3.87654784535369 7.60815352638385 -3.0
endloop
endfacet
facet normal 0.970213704640455 0.24225062915882 0.0
outer loop
vertex -3.87654784535369 7.60815352638385 0.0
vertex -4.48062131940568 10.0274676275282 -3.0
vertex -4.48062131940568 10.0274676275282 0.0
endloop
endfacet
facet normal 0.382683432365197 -0.923879532511242 -0.0
outer loop
vertex -3.92221263867636 10.2587680764332 0.0
vertex -4.48062131940568 10.0274676275282 -3.0
vertex -3.92221263867636 10.2587680764332 -3.0
endloop
endfacet
facet normal 0.382683432365197 -0.923879532511242 -0.0
outer loop
vertex -4.48062131940568 10.0274676275282 -3.0
vertex -3.92221263867636 10.2587680764332 0.0
vertex -4.48062131940568 10.0274676275282 0.0
endloop
endfacet
facet normal -0.857341752375678 -0.51474762712751 -0.0
outer loop
vertex -3.92221263867636 10.2587680764332 0.0
vertex -2.63864368177123 8.12091021985784 -3.0
vertex -2.63864368177123 8.12091021985784 0.0
endloop
endfacet
facet normal -0.857341752375678 -0.51474762712751 -0.0
outer loop
vertex -2.63864368177123 8.12091021985784 -3.0
vertex -3.92221263867636 10.2587680764332 0.0
vertex -3.92221263867636 10.2587680764332 -3.0
endloop
endfacet
facet normal 0.233445363855903 -0.972369920397677 -0.0
outer loop
vertex -1.33576735358726 8.4337031519631 0.0
vertex -2.63864368177123 8.12091021985784 -3.0
vertex -1.33576735358726 8.4337031519631 -3.0
endloop
endfacet
facet normal 0.233445363855903 -0.972369920397677 -0.0
outer loop
vertex -2.63864368177123 8.12091021985784 -3.0
vertex -1.33576735358726 8.4337031519631 0.0
vertex -2.63864368177123 8.12091021985784 0.0
endloop
endfacet
facet normal 0.997587627305262 -0.0694184834713241 -0.0
outer loop
vertex -1.1626661954208 10.9212765621544 -3.0
vertex -1.33576735358726 8.4337031519631 0.0
vertex -1.33576735358726 8.4337031519631 -3.0
endloop
endfacet
facet normal 0.997587627305262 -0.0694184834713241 -0.0
outer loop
vertex -1.33576735358726 8.4337031519631 0.0
vertex -1.1626661954208 10.9212765621544 -3.0
vertex -1.1626661954208 10.9212765621544 0.0
endloop
endfacet
facet normal 0.0784590957279495 -0.99691733373312 -0.0
outer loop
vertex -0.560112211339191 10.9686985891557 0.0
vertex -1.1626661954208 10.9212765621544 -3.0
vertex -0.560112211339191 10.9686985891557 -3.0
endloop
endfacet
facet normal 0.0784590957279495 -0.99691733373312 -0.0
outer loop
vertex -1.1626661954208 10.9212765621544 -3.0
vertex -0.560112211339191 10.9686985891557 0.0
vertex -1.1626661954208 10.9212765621544 0.0
endloop
endfacet
facet normal -0.974446224885389 -0.224620913555737 -0.0
outer loop
vertex -0.560112211339191 10.9686985891557 0.0
vertex -3.24147262291734e-013 8.53883032261099 -3.0
vertex -3.24147262291734e-013 8.53883032261099 0.0
endloop
endfacet
facet normal -0.974446224885389 -0.224620913555737 -0.0
outer loop
vertex -3.24147262291734e-013 8.53883032261099 -3.0
vertex -0.560112211339191 10.9686985891557 0.0
vertex -0.560112211339191 10.9686985891557 -3.0
endloop
endfacet
facet normal -0.0784590957278371 -0.996917333733129 -0.0
outer loop
vertex 1.33576735358665 8.4337031519631 0.0
vertex -3.24147262291734e-013 8.53883032261099 -3.0
vertex 1.33576735358665 8.4337031519631 -3.0
endloop
endfacet
facet normal -0.0784590957278371 -0.996917333733129 -0.0
outer loop
vertex -3.24147262291734e-013 8.53883032261099 -3.0
vertex 1.33576735358665 8.4337031519631 0.0
vertex -3.24147262291734e-013 8.53883032261099 0.0
endloop
endfacet
facet normal 0.927310722407699 -0.374292431272275 -0.0
outer loop
vertex 2.2690987965436 10.7460348538688 -3.0
vertex 1.33576735358665 8.4337031519631 0.0
vertex 1.33576735358665 8.4337031519631 -3.0
endloop
endfacet
facet normal 0.927310722407699 -0.374292431272275 -0.0
outer loop
vertex 1.33576735358665 8.4337031519631 0.0
vertex 2.2690987965436 10.7460348538688 -3.0
vertex 2.2690987965436 10.7460348538688 0.0
endloop
endfacet
facet normal -0.233445363855816 -0.972369920397698 -0.0
outer loop
vertex 2.85681590177511 10.6049364605547 0.0
vertex 2.2690987965436 10.7460348538688 -3.0
vertex 2.85681590177511 10.6049364605547 -3.0
endloop
endfacet
facet normal -0.233445363855816 -0.972369920397698 -0.0
outer loop
vertex 2.2690987965436 10.7460348538688 -3.0
vertex 2.85681590177511 10.6049364605547 0.0
vertex 2.2690987965436 10.7460348538688 0.0
endloop
endfacet
facet normal -0.996165111537206 0.0874932600607953 -0.0
outer loop
vertex 2.85681590177511 10.6049364605547 0.0
vertex 2.63864368177059 8.12091021985782 -3.0
vertex 2.63864368177059 8.12091021985782 0.0
endloop
endfacet
facet normal -0.996165111537206 0.0874932600607953 -0.0
outer loop
vertex 2.63864368177059 8.12091021985782 -3.0
vertex 2.85681590177511 10.6049364605547 0.0
vertex 2.85681590177511 10.6049364605547 -3.0
endloop
endfacet
facet normal -0.382683432365091 -0.923879532511286 -0.0
outer loop
vertex 3.87654784535303 7.60815352638385 0.0
vertex 2.63864368177059 8.12091021985782 -3.0
vertex 3.87654784535303 7.60815352638385 -3.0
endloop
endfacet
facet normal -0.382683432365091 -0.923879532511286 -0.0
outer loop
vertex 2.63864368177059 8.12091021985782 -3.0
vertex 3.87654784535303 7.60815352638385 0.0
vertex 2.63864368177059 8.12091021985782 0.0
endloop
endfacet
facet normal 0.766262183047139 -0.642528028051565 -0.0
outer loop
vertex 5.47874858856134 9.51889638205896 -3.0
vertex 3.87654784535303 7.60815352638385 0.0
vertex 3.87654784535303 7.60815352638385 -3.0
endloop
endfacet
facet normal 0.766262183047139 -0.642528028051565 -0.0
outer loop
vertex 3.87654784535303 7.60815352638385 0.0
vertex 5.47874858856134 9.51889638205896 -3.0
vertex 5.47874858856134 9.51889638205896 0.0
endloop
endfacet
facet normal -0.522498564715879 -0.852640164354135 -0.0
outer loop
vertex 5.99409896981684 9.20308926225743 0.0
vertex 5.47874858856134 9.51889638205896 -3.0
vertex 5.99409896981684 9.20308926225743 -3.0
endloop
endfacet
facet normal -0.522498564715879 -0.852640164354135 -0.0
outer loop
vertex 5.47874858856134 9.51889638205896 -3.0
vertex 5.99409896981684 9.20308926225743 0.0
vertex 5.47874858856134 9.51889638205896 0.0
endloop
endfacet
facet normal -0.920372416381284 0.391042983781166 -0.0
outer loop
vertex 5.99409896981684 9.20308926225743 0.0
vertex 5.01899853545821 6.9080588430764 -3.0
vertex 5.01899853545821 6.9080588430764 0.0
endloop
endfacet
facet normal -0.920372416381284 0.391042983781166 -0.0
outer loop
vertex 5.01899853545821 6.9080588430764 -3.0
vertex 5.99409896981684 9.20308926225743 0.0
vertex 5.99409896981684 9.20308926225743 -3.0
endloop
endfacet
facet normal -0.649448048330196 -0.76040596560002 -0.0
outer loop
vertex 6.03786482451922 6.03786482451952 0.0
vertex 5.01899853545821 6.9080588430764 -3.0
vertex 6.03786482451922 6.03786482451952 -3.0
endloop
endfacet
facet normal -0.649448048330196 -0.76040596560002 -0.0
outer loop
vertex 5.01899853545821 6.9080588430764 -3.0
vertex 6.03786482451922 6.03786482451952 0.0
vertex 5.01899853545821 6.9080588430764 0.0
endloop
endfacet
facet normal 0.530206562347365 -0.847868504689135 -0.0
outer loop
vertex 8.15210029604464 7.35998201032223 0.0
vertex 6.03786482451922 6.03786482451952 -3.0
vertex 8.15210029604464 7.35998201032223 -3.0
endloop
endfacet
facet normal 0.530206562347365 -0.847868504689135 -0.0
outer loop
vertex 6.03786482451922 6.03786482451952 -3.0
vertex 8.15210029604464 7.35998201032223 0.0
vertex 6.03786482451922 6.03786482451952 0.0
endloop
endfacet
facet normal -0.760405965599985 -0.649448048330238 -0.0
outer loop
vertex 8.15210029604464 7.35998201032223 0.0
vertex 8.5446378673496 6.90037956527702 -3.0
vertex 8.5446378673496 6.90037956527702 0.0
endloop
endfacet
facet normal -0.760405965599985 -0.649448048330238 -0.0
outer loop
vertex 8.5446378673496 6.90037956527702 -3.0
vertex 8.15210029604464 7.35998201032223 0.0
vertex 8.15210029604464 7.35998201032223 -3.0
endloop
endfacet
facet normal -0.754487256498251 0.65631469569235 -0.0
outer loop
vertex 8.5446378673496 6.90037956527702 0.0
vertex 6.90805884307608 5.01899853545849 -3.0
vertex 6.90805884307608 5.01899853545849 0.0
endloop
endfacet
facet normal -0.754487256498251 0.65631469569235 -0.0
outer loop
vertex 6.90805884307608 5.01899853545849 -3.0
vertex 8.5446378673496 6.90037956527702 0.0
vertex 8.5446378673496 6.90037956527702 -3.0
endloop
endfacet
facet normal -0.852640164354098 -0.52249856471594 -0.0
outer loop
vertex 6.90805884307608 5.01899853545849 0.0
vertex 7.60815352638352 3.87654784535332 -3.0
vertex 7.60815352638352 3.87654784535332 0.0
endloop
endfacet
facet normal -0.852640164354098 -0.52249856471594 -0.0
outer loop
vertex 7.60815352638352 3.87654784535332 -3.0
vertex 6.90805884307608 5.01899853545849 0.0
vertex 6.90805884307608 5.01899853545849 -3.0
endloop
endfacet
facet normal 0.242250629158689 -0.970213704640488 -0.0
outer loop
vertex 10.0274676275284 4.48062131940512 0.0
vertex 7.60815352638352 3.87654784535332 -3.0
vertex 10.0274676275284 4.48062131940512 -3.0
endloop
endfacet
facet normal 0.242250629158689 -0.970213704640488 -0.0
outer loop
vertex 7.60815352638352 3.87654784535332 -3.0
vertex 10.0274676275284 4.48062131940512 0.0
vertex 7.60815352638352 3.87654784535332 0.0
endloop
endfacet
facet normal -0.923879532511264 -0.382683432365146 -0.0
outer loop
vertex 10.0274676275284 4.48062131940512 0.0
vertex 10.2587680764334 3.92221263867578 -3.0
vertex 10.2587680764334 3.92221263867578 0.0
endloop
endfacet
facet normal -0.923879532511264 -0.382683432365146 -0.0
outer loop
vertex 10.2587680764334 3.92221263867578 -3.0
vertex 10.0274676275284 4.48062131940512 0.0
vertex 10.0274676275284 4.48062131940512 -3.0
endloop
endfacet
facet normal -0.514747627127343 0.857341752375778 -0.0
outer loop
vertex 8.12091021985749 2.63864368177087 0.0
vertex 10.2587680764334 3.92221263867578 -3.0
vertex 8.12091021985749 2.63864368177087 -3.0
endloop
endfacet
facet normal -0.514747627127343 0.857341752375778 -0.0
outer loop
vertex 10.2587680764334 3.92221263867578 -3.0
vertex 8.12091021985749 2.63864368177087 0.0
vertex 10.2587680764334 3.92221263867578 0.0
endloop
endfacet
facet normal -0.972369920397676 -0.233445363855908 -0.0
outer loop
vertex 8.12091021985749 2.63864368177087 0.0
vertex 8.43370315196276 1.33576735358691 -3.0
vertex 8.43370315196276 1.33576735358691 0.0
endloop
endfacet
facet normal -0.972369920397676 -0.233445363855908 -0.0
outer loop
vertex 8.43370315196276 1.33576735358691 -3.0
vertex 8.12091021985749 2.63864368177087 0.0
vertex 8.12091021985749 2.63864368177087 -3.0
endloop
endfacet
facet normal -0.0694184834714165 -0.997587627305255 -0.0
outer loop
vertex 10.9212765621545 1.16266619542019 0.0
vertex 8.43370315196276 1.33576735358691 -3.0
vertex 10.9212765621545 1.16266619542019 -3.0
endloop
endfacet
facet normal -0.0694184834714165 -0.997587627305255 -0.0
outer loop
vertex 8.43370315196276 1.33576735358691 -3.0
vertex 10.9212765621545 1.16266619542019 0.0
vertex 8.43370315196276 1.33576735358691 0.0
endloop
endfacet
facet normal -0.996917333733124 -0.0784590957278935 -0.0
outer loop
vertex 10.9212765621545 1.16266619542019 0.0
vertex 10.9686985891557 0.560112211338573 -3.0
vertex 10.9686985891557 0.560112211338573 0.0
endloop
endfacet
facet normal -0.996917333733124 -0.0784590957278935 -0.0
outer loop
vertex 10.9686985891557 0.560112211338573 -3.0
vertex 10.9212765621545 1.16266619542019 0.0
vertex 10.9212765621545 1.16266619542019 -3.0
endloop
endfacet
facet normal -0.224620913555603 0.97444622488542 -0.0
outer loop
vertex 8.53883032261065 -2.81485592684421e-014 0.0
vertex 10.9686985891557 0.560112211338573 -3.0
vertex 8.53883032261065 -2.81485592684421e-014 -3.0
endloop
endfacet
facet normal -0.224620913555603 0.97444622488542 -0.0
outer loop
vertex 10.9686985891557 0.560112211338573 -3.0
vertex 8.53883032261065 -2.81485592684421e-014 0.0
vertex 10.9686985891557 0.560112211338573 0.0
endloop
endfacet
facet normal -0.996917333733128 0.0784590957278409 -0.0
outer loop
vertex 8.53883032261065 -2.81485592684421e-014 0.0
vertex 8.43370315196276 -1.335767353587 -3.0
vertex 8.43370315196276 -1.335767353587 0.0
endloop
endfacet
facet normal -0.996917333733128 0.0784590957278409 -0.0
outer loop
vertex 8.43370315196276 -1.335767353587 -3.0
vertex 8.53883032261065 -2.81485592684421e-014 0.0
vertex 8.53883032261065 -2.81485592684421e-014 -3.0
endloop
endfacet
facet normal -0.374292431271421 -0.927310722408044 -0.0
outer loop
vertex 10.7460348538692 -2.26909879654177 0.0
vertex 8.43370315196276 -1.335767353587 -3.0
vertex 10.7460348538692 -2.26909879654177 -3.0
endloop
endfacet
facet normal -0.374292431271421 -0.927310722408044 -0.0
outer loop
vertex 8.43370315196276 -1.335767353587 -3.0
vertex 10.7460348538692 -2.26909879654177 0.0
vertex 8.43370315196276 -1.335767353587 0.0
endloop
endfacet
facet normal -0.972369920397739 0.233445363855648 -0.0
outer loop
vertex 10.7460348538692 -2.26909879654177 0.0
vertex 10.6049364605552 -2.85681590177331 -3.0
vertex 10.6049364605552 -2.85681590177331 0.0
endloop
endfacet
facet normal -0.972369920397739 0.233445363855648 -0.0
outer loop
vertex 10.6049364605552 -2.85681590177331 -3.0
vertex 10.7460348538692 -2.26909879654177 0.0
vertex 10.7460348538692 -2.26909879654177 -3.0
endloop
endfacet
facet normal 0.0874932600599106 0.996165111537284 0.0
outer loop
vertex 8.12091021985748 -2.63864368177094 0.0
vertex 10.6049364605552 -2.85681590177331 -3.0
vertex 8.12091021985748 -2.63864368177094 -3.0
endloop
endfacet
facet normal 0.0874932600599106 0.996165111537284 0.0
outer loop
vertex 10.6049364605552 -2.85681590177331 -3.0
vertex 8.12091021985748 -2.63864368177094 0.0
vertex 10.6049364605552 -2.85681590177331 0.0
endloop
endfacet
facet normal -0.923879532511289 0.382683432365085 -0.0
outer loop
vertex 8.12091021985748 -2.63864368177094 0.0
vertex 7.60815352638351 -3.8765478453534 -3.0
vertex 7.60815352638351 -3.8765478453534 0.0
endloop
endfacet
facet normal -0.923879532511289 0.382683432365085 -0.0
outer loop
vertex 7.60815352638351 -3.8765478453534 -3.0
vertex 8.12091021985748 -2.63864368177094 0.0
vertex 8.12091021985748 -2.63864368177094 -3.0
endloop
endfacet
facet normal -0.64252802805085 -0.766262183047738 -0.0
outer loop
vertex 9.51889638205989 -5.47874858855973 0.0
vertex 7.60815352638351 -3.8765478453534 -3.0
vertex 9.51889638205989 -5.47874858855973 -3.0
endloop
endfacet
facet normal -0.64252802805085 -0.766262183047738 -0.0
outer loop
vertex 7.60815352638351 -3.8765478453534 -3.0
vertex 9.51889638205989 -5.47874858855973 0.0
vertex 7.60815352638351 -3.8765478453534 0.0
endloop
endfacet
facet normal -0.852640164354225 0.522498564715732 -0.0
outer loop
vertex 9.51889638205989 -5.47874858855973 0.0
vertex 9.20308926225845 -5.99409896981528 -3.0
vertex 9.20308926225845 -5.99409896981528 0.0
endloop
endfacet
facet normal -0.852640164354225 0.522498564715732 -0.0
outer loop
vertex 9.20308926225845 -5.99409896981528 -3.0
vertex 9.51889638205989 -5.47874858855973 0.0
vertex 9.51889638205989 -5.47874858855973 -3.0
endloop
endfacet
facet normal 0.391042983780322 0.920372416381642 0.0
outer loop
vertex 6.90805884307605 -5.01899853545856 0.0
vertex 9.20308926225845 -5.99409896981528 -3.0
vertex 6.90805884307605 -5.01899853545856 -3.0
endloop
endfacet
facet normal 0.391042983780322 0.920372416381642 0.0
outer loop
vertex 9.20308926225845 -5.99409896981528 -3.0
vertex 6.90805884307605 -5.01899853545856 0.0
vertex 9.20308926225845 -5.99409896981528 0.0
endloop
endfacet
facet normal -0.760405965600023 0.649448048330193 -0.0
outer loop
vertex 6.90805884307605 -5.01899853545856 0.0
vertex 6.03786482451918 -6.03786482451957 -3.0
vertex 6.03786482451918 -6.03786482451957 0.0
endloop
endfacet
facet normal -0.760405965600023 0.649448048330193 -0.0
outer loop
vertex 6.03786482451918 -6.03786482451957 -3.0
vertex 6.90805884307605 -5.01899853545856 0.0
vertex 6.90805884307605 -5.01899853545856 -3.0
endloop
endfacet
facet normal -0.847868504688645 -0.530206562348149 -0.0
outer loop
vertex 6.03786482451918 -6.03786482451957 0.0
vertex 7.35998201032361 -8.1521002960434 -3.0
vertex 7.35998201032361 -8.1521002960434 0.0
endloop
endfacet
facet normal -0.847868504688645 -0.530206562348149 -0.0
outer loop
vertex 7.35998201032361 -8.1521002960434 -3.0
vertex 6.03786482451918 -6.03786482451957 0.0
vertex 6.03786482451918 -6.03786482451957 -3.0
endloop
endfacet
facet normal -0.649448048330365 0.760405965599876 -0.0
outer loop
vertex 6.90037956527847 -8.54463786734843 0.0
vertex 7.35998201032361 -8.1521002960434 -3.0
vertex 6.90037956527847 -8.54463786734843 -3.0
endloop
endfacet
facet normal -0.649448048330365 0.760405965599876 -0.0
outer loop
vertex 7.35998201032361 -8.1521002960434 -3.0
vertex 6.90037956527847 -8.54463786734843 0.0
vertex 7.35998201032361 -8.1521002960434 0.0
endloop
endfacet
facet normal 0.656314695691648 0.754487256498862 0.0
outer loop
vertex 5.01899853545816 -6.90805884307645 0.0
vertex 6.90037956527847 -8.54463786734843 -3.0
vertex 5.01899853545816 -6.90805884307645 -3.0
endloop
endfacet
facet normal 0.656314695691648 0.754487256498862 0.0
outer loop
vertex 6.90037956527847 -8.54463786734843 -3.0
vertex 5.01899853545816 -6.90805884307645 0.0
vertex 6.90037956527847 -8.54463786734843 0.0
endloop
endfacet
facet normal -0.522498564715934 0.852640164354101 -0.0
outer loop
vertex 3.876547845353 -7.60815352638387 0.0
vertex 5.01899853545816 -6.90805884307645 -3.0
vertex 3.876547845353 -7.60815352638387 -3.0
endloop
endfacet
facet normal -0.522498564715934 0.852640164354101 -0.0
outer loop
vertex 5.01899853545816 -6.90805884307645 -3.0
vertex 3.876547845353 -7.60815352638387 0.0
vertex 5.01899853545816 -6.90805884307645 0.0
endloop
endfacet
facet normal -0.970213704640271 -0.242250629159556 -0.0
outer loop
vertex 3.876547845353 -7.60815352638387 0.0
vertex 4.48062131940681 -10.0274676275277 -3.0
vertex 4.48062131940681 -10.0274676275277 0.0
endloop
endfacet
facet normal -0.970213704640271 -0.242250629159556 -0.0
outer loop
vertex 4.48062131940681 -10.0274676275277 -3.0
vertex 3.876547845353 -7.60815352638387 0.0
vertex 3.876547845353 -7.60815352638387 -3.0
endloop
endfacet
facet normal -0.382683432365302 0.923879532511199 -0.0
outer loop
vertex 3.92221263867751 -10.2587680764328 0.0
vertex 4.48062131940681 -10.0274676275277 -3.0
vertex 3.92221263867751 -10.2587680764328 -3.0
endloop
endfacet
facet normal -0.382683432365302 0.923879532511199 -0.0
outer loop
vertex 4.48062131940681 -10.0274676275277 -3.0
vertex 3.92221263867751 -10.2587680764328 0.0
vertex 4.48062131940681 -10.0274676275277 0.0
endloop
endfacet
facet normal 0.857341752375304 0.514747627128133 0.0
outer loop
vertex 2.63864368177053 -8.12091021985783 -3.0
vertex 3.92221263867751 -10.2587680764328 0.0
vertex 3.92221263867751 -10.2587680764328 -3.0
endloop
endfacet
facet normal 0.857341752375304 0.514747627128133 0.0
outer loop
vertex 3.92221263867751 -10.2587680764328 0.0
vertex 2.63864368177053 -8.12091021985783 -3.0
vertex 2.63864368177053 -8.12091021985783 0.0
endloop
endfacet
facet normal -0.233445363855918 0.972369920397674 -0.0
outer loop
vertex 1.33576735358657 -8.43370315196311 0.0
vertex 2.63864368177053 -8.12091021985783 -3.0
vertex 1.33576735358657 -8.43370315196311 -3.0
endloop
endfacet
facet normal -0.233445363855918 0.972369920397674 -0.0
outer loop
vertex 2.63864368177053 -8.12091021985783 -3.0
vertex 1.33576735358657 -8.43370315196311 0.0
vertex 2.63864368177053 -8.12091021985783 0.0
endloop
endfacet
facet normal -0.997587627305315 0.0694184834705623 -0.0
outer loop
vertex 1.33576735358657 -8.43370315196311 0.0
vertex 1.16266619542203 -10.9212765621543 -3.0
vertex 1.16266619542203 -10.9212765621543 0.0
endloop
endfacet
facet normal -0.997587627305315 0.0694184834705623 -0.0
outer loop
vertex 1.16266619542203 -10.9212765621543 -3.0
vertex 1.33576735358657 -8.43370315196311 0.0
vertex 1.33576735358657 -8.43370315196311 -3.0
endloop
endfacet
facet normal -0.0784590957280614 0.996917333733111 -0.0
outer loop
vertex 0.560112211340422 -10.9686985891556 0.0
vertex 1.16266619542203 -10.9212765621543 -3.0
vertex 0.560112211340422 -10.9686985891556 -3.0
endloop
endfacet
facet normal -0.0784590957280614 0.996917333733111 -0.0
outer loop
vertex 1.16266619542203 -10.9212765621543 -3.0
vertex 0.560112211340422 -10.9686985891556 0.0
vertex 1.16266619542203 -10.9212765621543 0.0
endloop
endfacet
facet normal 0.974446224885218 0.224620913556477 0.0
outer loop
vertex -3.66838014692045e-013 -8.53883032261102 -3.0
vertex 0.560112211340422 -10.9686985891556 0.0
vertex 0.560112211340422 -10.9686985891556 -3.0
endloop
endfacet
facet normal 0.974446224885218 0.224620913556477 0.0
outer loop
vertex 0.560112211340422 -10.9686985891556 0.0
vertex -3.66838014692045e-013 -8.53883032261102 -3.0
vertex -3.66838014692045e-013 -8.53883032261102 0.0
endloop
endfacet
facet normal 0.0784590957278557 0.996917333733127 0.0
outer loop
vertex -1.33576735358734 -8.43370315196311 0.0
vertex -3.66838014692045e-013 -8.53883032261102 -3.0
vertex -1.33576735358734 -8.43370315196311 -3.0
endloop
endfacet
facet normal 0.0784590957278557 0.996917333733127 0.0
outer loop
vertex -3.66838014692045e-013 -8.53883032261102 -3.0
vertex -1.33576735358734 -8.43370315196311 0.0
vertex -3.66838014692045e-013 -8.53883032261102 0.0
endloop
endfacet
facet normal -0.927310722407978 0.374292431271586 -0.0
outer loop
vertex -1.33576735358734 -8.43370315196311 0.0
vertex -2.26909879654239 -10.746034853869 -3.0
vertex -2.26909879654239 -10.746034853869 0.0
endloop
endfacet
facet normal -0.927310722407978 0.374292431271586 -0.0
outer loop
vertex -2.26909879654239 -10.746034853869 -3.0
vertex -1.33576735358734 -8.43370315196311 0.0
vertex -1.33576735358734 -8.43370315196311 -3.0
endloop
endfacet
facet normal 0.233445363855704 0.972369920397725 0.0
outer loop
vertex -2.85681590177393 -10.604936460555 0.0
vertex -2.26909879654239 -10.746034853869 -3.0
vertex -2.85681590177393 -10.604936460555 -3.0
endloop
endfacet
facet normal 0.233445363855704 0.972369920397725 0.0
outer loop
vertex -2.26909879654239 -10.746034853869 -3.0
vertex -2.85681590177393 -10.604936460555 0.0
vertex -2.26909879654239 -10.746034853869 0.0
endloop
endfacet
facet normal 0.996165111537272 -0.0874932600600384 -0.0
outer loop
vertex -2.63864368177127 -8.12091021985784 -3.0
vertex -2.85681590177393 -10.604936460555 0.0
vertex -2.85681590177393 -10.604936460555 -3.0
endloop
endfacet
facet normal 0.996165111537272 -0.0874932600600384 -0.0
outer loop
vertex -2.85681590177393 -10.604936460555 0.0
vertex -2.63864368177127 -8.12091021985784 -3.0
vertex -2.63864368177127 -8.12091021985784 0.0
endloop
endfacet
facet normal 0.382683432365086 0.923879532511289 0.0
outer loop
vertex -3.87654784535373 -7.60815352638386 0.0
vertex -2.63864368177127 -8.12091021985784 -3.0
vertex -3.87654784535373 -7.60815352638386 -3.0
endloop
endfacet
facet normal 0.382683432365086 0.923879532511289 0.0
outer loop
vertex -2.63864368177127 -8.12091021985784 -3.0
vertex -3.87654784535373 -7.60815352638386 0.0
vertex -2.63864368177127 -8.12091021985784 0.0
endloop
endfacet
facet normal -0.766262183047585 0.642528028051032 -0.0
outer loop
vertex -3.87654784535373 -7.60815352638386 0.0
vertex -5.47874858856028 -9.51889638205957 -3.0
vertex -5.47874858856028 -9.51889638205957 0.0
endloop
endfacet
facet normal -0.766262183047585 0.642528028051032 -0.0
outer loop
vertex -5.47874858856028 -9.51889638205957 -3.0
vertex -3.87654784535373 -7.60815352638386 0.0
vertex -3.87654784535373 -7.60815352638386 -3.0
endloop
endfacet
facet normal 0.522498564715783 0.852640164354194 0.0
outer loop
vertex -5.99409896981582 -9.2030892622581 0.0
vertex -5.47874858856028 -9.51889638205957 -3.0
vertex -5.99409896981582 -9.2030892622581 -3.0
endloop
endfacet
facet normal 0.522498564715783 0.852640164354194 0.0
outer loop
vertex -5.47874858856028 -9.51889638205957 -3.0
vertex -5.99409896981582 -9.2030892622581 0.0
vertex -5.47874858856028 -9.51889638205957 0.0
endloop
endfacet
facet normal 0.920372416381571 -0.391042983780488 -0.0
outer loop
vertex -5.01899853545889 -6.90805884307639 -3.0
vertex -5.99409896981582 -9.2030892622581 0.0
vertex -5.99409896981582 -9.2030892622581 -3.0
endloop
endfacet
facet normal 0.920372416381571 -0.391042983780488 -0.0
outer loop
vertex -5.99409896981582 -9.2030892622581 0.0
vertex -5.01899853545889 -6.90805884307639 -3.0
vertex -5.01899853545889 -6.90805884307639 0.0
endloop
endfacet
facet normal 0.649448048330174 0.760405965600039 0.0
outer loop
vertex -6.03786482451993 -6.03786482451955 0.0
vertex -5.01899853545889 -6.90805884307639 -3.0
vertex -6.03786482451993 -6.03786482451955 -3.0
endloop
endfacet
facet normal 0.649448048330174 0.760405965600039 0.0
outer loop
vertex -5.01899853545889 -6.90805884307639 -3.0
vertex -6.03786482451993 -6.03786482451955 0.0
vertex -5.01899853545889 -6.90805884307639 0.0
endloop
endfacet
facet normal -0.530206562347895 0.847868504688803 -0.0
outer loop
vertex -8.15210029604382 -7.35998201032315 0.0
vertex -6.03786482451993 -6.03786482451955 -3.0
vertex -8.15210029604382 -7.35998201032315 -3.0
endloop
endfacet
facet normal -0.530206562347895 0.847868504688803 -0.0
outer loop
vertex -6.03786482451993 -6.03786482451955 -3.0
vertex -8.15210029604382 -7.35998201032315 0.0
vertex -6.03786482451993 -6.03786482451955 0.0
endloop
endfacet
facet normal 0.760405965599912 0.649448048330323 0.0
outer loop
vertex -8.54463786734883 -6.90037956527798 -3.0
vertex -8.15210029604382 -7.35998201032315 0.0
vertex -8.15210029604382 -7.35998201032315 -3.0
endloop
endfacet
facet normal 0.760405965599912 0.649448048330323 0.0
outer loop
vertex -8.15210029604382 -7.35998201032315 0.0
vertex -8.54463786734883 -6.90037956527798 -3.0
vertex -8.54463786734883 -6.90037956527798 0.0
endloop
endfacet
facet normal 0.754487256498706 -0.656314695691827 -0.0
outer loop
vertex -6.90805884307679 -5.01899853545851 -3.0
vertex -8.54463786734883 -6.90037956527798 0.0
vertex -8.54463786734883 -6.90037956527798 -3.0
endloop
endfacet
facet normal 0.754487256498706 -0.656314695691827 -0.0
outer loop
vertex -8.54463786734883 -6.90037956527798 0.0
vertex -6.90805884307679 -5.01899853545851 -3.0
vertex -6.90805884307679 -5.01899853545851 0.0
endloop
endfacet
facet normal 0.852640164354101 0.522498564715934 0.0
outer loop
vertex -7.60815352638422 -3.87654784535335 -3.0
vertex -6.90805884307679 -5.01899853545851 0.0
vertex -6.90805884307679 -5.01899853545851 -3.0
endloop
endfacet
facet normal 0.852640164354101 0.522498564715934 0.0
outer loop
vertex -6.90805884307679 -5.01899853545851 0.0
vertex -7.60815352638422 -3.87654784535335 -3.0
vertex -7.60815352638422 -3.87654784535335 0.0
endloop
endfacet
facet normal -0.242250629159217 0.970213704640356 -0.0
outer loop
vertex -10.0274676275279 -4.48062131940624 0.0
vertex -7.60815352638422 -3.87654784535335 -3.0
vertex -10.0274676275279 -4.48062131940624 -3.0
endloop
endfacet
facet normal -0.242250629159217 0.970213704640356 -0.0
outer loop
vertex -7.60815352638422 -3.87654784535335 -3.0
vertex -10.0274676275279 -4.48062131940624 0.0
vertex -7.60815352638422 -3.87654784535335 0.0
endloop
endfacet
facet normal 0.92387953251122 0.382683432365251 0.0
outer loop
vertex -10.258768076433 -3.92221263867693 -3.0
vertex -10.0274676275279 -4.48062131940624 0.0
vertex -10.0274676275279 -4.48062131940624 -3.0
endloop
endfacet
facet normal 0.92387953251122 0.382683432365251 0.0
outer loop
vertex -10.0274676275279 -4.48062131940624 0.0
vertex -10.258768076433 -3.92221263867693 -3.0
vertex -10.258768076433 -3.92221263867693 0.0
endloop
endfacet
facet normal 0.514747627127878 -0.857341752375457 -0.0
outer loop
vertex -8.12091021985818 -2.63864368177088 0.0
vertex -10.258768076433 -3.92221263867693 -3.0
vertex -8.12091021985818 -2.63864368177088 -3.0
endloop
endfacet
facet normal 0.514747627127878 -0.857341752375457 -0.0
outer loop
vertex -10.258768076433 -3.92221263867693 -3.0
vertex -8.12091021985818 -2.63864368177088 0.0
vertex -10.258768076433 -3.92221263867693 0.0
endloop
endfacet
facet normal 0.972369920397674 0.233445363855917 0.0
outer loop
vertex -8.43370315196346 -1.33576735358693 -3.0
vertex -8.12091021985818 -2.63864368177088 0.0
vertex -8.12091021985818 -2.63864368177088 -3.0
endloop
endfacet
facet normal 0.972369920397674 0.233445363855917 0.0
outer loop
vertex -8.12091021985818 -2.63864368177088 0.0
vertex -8.43370315196346 -1.33576735358693 -3.0
vertex -8.43370315196346 -1.33576735358693 0.0
endloop
endfacet
facet normal 0.06941848347096 0.997587627305287 0.0
outer loop
vertex -10.9212765621544 -1.16266619542141 0.0
vertex -8.43370315196346 -1.33576735358693 -3.0
vertex -10.9212765621544 -1.16266619542141 -3.0
endloop
endfacet
facet normal 0.06941848347096 0.997587627305287 0.0
outer loop
vertex -8.43370315196346 -1.33576735358693 -3.0
vertex -10.9212765621544 -1.16266619542141 0.0
vertex -8.43370315196346 -1.33576735358693 0.0
endloop
endfacet
facet normal 0.996917333733115 0.0784590957280054 0.0
outer loop
vertex -10.9686985891557 -0.560112211339804 -3.0
vertex -10.9212765621544 -1.16266619542141 0.0
vertex -10.9212765621544 -1.16266619542141 -3.0
endloop
endfacet
facet normal 0.996917333733115 0.0784590957280054 0.0
outer loop
vertex -10.9212765621544 -1.16266619542141 0.0
vertex -10.9686985891557 -0.560112211339804 -3.0
vertex -10.9686985891557 -0.560112211339804 0.0
endloop
endfacet
facet normal 0.224620913556133 -0.974446224885298 -0.0
outer loop
vertex -8.53883032261136 1.16792248404302e-014 0.0
vertex -10.9686985891557 -0.560112211339804 -3.0
vertex -8.53883032261136 1.16792248404302e-014 -3.0
endloop
endfacet
facet normal 0.224620913556133 -0.974446224885298 -0.0
outer loop
vertex -10.9686985891557 -0.560112211339804 -3.0
vertex -8.53883032261136 1.16792248404302e-014 0.0
vertex -10.9686985891557 -0.560112211339804 0.0
endloop
endfacet
facet normal 0.996917333733128 -0.0784590957278483 -0.0
outer loop
vertex -8.43370315196345 1.33576735358699 -3.0
vertex -8.53883032261136 1.16792248404302e-014 0.0
vertex -8.53883032261136 1.16792248404302e-014 -3.0
endloop
endfacet
facet normal 0.996917333733128 -0.0784590957278483 -0.0
outer loop
vertex -8.53883032261136 1.16792248404302e-014 0.0
vertex -8.43370315196345 1.33576735358699 -3.0
vertex -8.43370315196345 1.33576735358699 0.0
endloop
endfacet
facet normal 0.374292431271981 0.927310722407818 0.0
outer loop
vertex -10.7460348538689 2.26909879654299 0.0
vertex -8.43370315196345 1.33576735358699 -3.0
vertex -10.7460348538689 2.26909879654299 -3.0
endloop
endfacet
facet normal 0.374292431271981 0.927310722407818 0.0
outer loop
vertex -8.43370315196345 1.33576735358699 -3.0
vertex -10.7460348538689 2.26909879654299 0.0
vertex -8.43370315196345 1.33576735358699 0.0
endloop
endfacet
facet normal 0.972369920397711 -0.233445363855762 -0.0
outer loop
vertex -10.6049364605549 2.85681590177452 -3.0
vertex -10.7460348538689 2.26909879654299 0.0
vertex -10.7460348538689 2.26909879654299 -3.0
endloop
endfacet
facet normal 0.972369920397711 -0.233445363855762 -0.0
outer loop
vertex -10.7460348538689 2.26909879654299 0.0
vertex -10.6049364605549 2.85681590177452 -3.0
vertex -10.6049364605549 2.85681590177452 0.0
endloop
endfacet
facet normal -0.0874932600604333 -0.996165111537238 -0.0
outer loop
vertex -8.12091021985817 2.63864368177092 0.0
vertex -10.6049364605549 2.85681590177452 -3.0
vertex -8.12091021985817 2.63864368177092 -3.0
endloop
endfacet
facet normal -0.0874932600604333 -0.996165111537238 -0.0
outer loop
vertex -10.6049364605549 2.85681590177452 -3.0
vertex -8.12091021985817 2.63864368177092 0.0
vertex -10.6049364605549 2.85681590177452 0.0
endloop
endfacet
facet normal 0.923879532511288 -0.382683432365087 -0.0
outer loop
vertex -7.6081535263842 3.87654784535337 -3.0
vertex -8.12091021985817 2.63864368177092 0.0
vertex -8.12091021985817 2.63864368177092 -3.0
endloop
endfacet
facet normal 0.923879532511288 -0.382683432365087 -0.0
outer loop
vertex -8.12091021985817 2.63864368177092 0.0
vertex -7.6081535263842 3.87654784535337 -3.0
vertex -7.6081535263842 3.87654784535337 0.0
endloop
endfacet
facet normal 0.642528028051368 0.766262183047304 0.0
outer loop
vertex -9.51889638205927 5.4787485885608 0.0
vertex -7.6081535263842 3.87654784535337 -3.0
vertex -9.51889638205927 5.4787485885608 -3.0
endloop
endfacet
facet normal 0.642528028051368 0.766262183047304 0.0
outer loop
vertex -7.6081535263842 3.87654784535337 -3.0
vertex -9.51889638205927 5.4787485885608 0.0
vertex -7.6081535263842 3.87654784535337 0.0
endloop
endfacet
facet normal 0.852640164354164 -0.522498564715831 -0.0
outer loop
vertex -9.20308926225777 5.99409896981633 -3.0
vertex -9.51889638205927 5.4787485885608 0.0
vertex -9.51889638205927 5.4787485885608 -3.0
endloop
endfacet
facet normal 0.852640164354164 -0.522498564715831 -0.0
outer loop
vertex -9.51889638205927 5.4787485885608 0.0
vertex -9.20308926225777 5.99409896981633 -3.0
vertex -9.20308926225777 5.99409896981633 0.0
endloop
endfacet
facet normal -0.391042983780879 -0.920372416381406 -0.0
outer loop
vertex -6.90805884307674 5.01899853545854 0.0
vertex -9.20308926225777 5.99409896981633 -3.0
vertex -6.90805884307674 5.01899853545854 -3.0
endloop
endfacet
facet normal -0.391042983780879 -0.920372416381406 -0.0
outer loop
vertex -9.20308926225777 5.99409896981633 -3.0
vertex -6.90805884307674 5.01899853545854 0.0
vertex -9.20308926225777 5.99409896981633 0.0
endloop
endfacet
endsolid motor-gear-v
