solid motor-gear-v
facet normal 0.0 -1.0 0.0
outer loop
vertex 1.5 -2.5 6.99999999999999
vertex -1.5 -2.5 1.0
vertex 1.5 -2.5 1.0
endloop
endfacet
facet normal 0.0 -1.0 0.0
outer loop
vertex -1.5 -2.5 1.0
vertex 1.5 -2.5 6.99999999999999
vertex -1.5 -2.5 6.99999999999999
endloop
endfacet
facet normal 1.0 -0.0 -0.0
outer loop
vertex 1.5 2.5 1.0
vertex 1.5 -2.5 6.99999999999999
vertex 1.5 -2.5 1.0
endloop
endfacet
facet normal 1.0 -0.0 -0.0
outer loop
vertex 1.5 -2.5 6.99999999999999
vertex 1.5 2.5 1.0
vertex 1.5 2.5 6.99999999999999
endloop
endfacet
facet normal -0.0 1.0 -0.0
outer loop
vertex -1.5 2.5 6.99999999999999
vertex 1.5 2.5 1.0
vertex -1.5 2.5 1.0
endloop
endfacet
facet normal -0.0 1.0 -0.0
outer loop
vertex 1.5 2.5 1.0
vertex -1.5 2.5 6.99999999999999
vertex 1.5 2.5 6.99999999999999
endloop
endfacet
facet normal -1.0 0.0 0.0
outer loop
vertex -1.5 2.5 6.99999999999999
vertex -1.5 -2.5 1.0
vertex -1.5 -2.5 6.99999999999999
endloop
endfacet
facet normal -1.0 0.0 0.0
outer loop
vertex -1.5 -2.5 1.0
vertex -1.5 2.5 6.99999999999999
vertex -1.5 2.5 1.0
endloop
endfacet
facet normal 0.0 0.0 -1.0
outer loop
vertex 1.5 2.5 1.0
vertex -1.5 -2.5 1.0
vertex -1.5 2.5 1.0
endloop
endfacet
facet normal 0.0 0.0 -1.0
outer loop
vertex -1.5 -2.5 1.0
vertex 1.5 2.5 1.0
vertex 1.5 -2.5 1.0
endloop
endfacet
facet normal 0.0 0.0 -1.0
outer loop
vertex -1.03527618041008 3.86370330515627 6.99999999999999
vertex -1.5 2.5 6.99999999999999
vertex -2.0 3.46410161513775 6.99999999999999
endloop
endfacet
facet normal 0.0 0.0 -1.0
outer loop
vertex -1.5 2.5 6.99999999999999
vertex -1.03527618041008 3.86370330515627 6.99999999999999
vertex 1.5 2.5 6.99999999999999
endloop
endfacet
facet normal 0.0 0.0 -1.0
outer loop
vertex 1.5 2.5 6.99999999999999
vertex -1.03527618041008 3.86370330515627 6.99999999999999
vertex 2.44929359829471e-016 4.0 6.99999999999999
endloop
endfacet
facet normal 0.0 0.0 -1.0
outer loop
vertex 1.5 2.5 6.99999999999999
vertex 2.44929359829471e-016 4.0 6.99999999999999
vertex 1.03527618041008 3.86370330515627 6.99999999999999
endloop
endfacet
facet normal 0.0 0.0 -1.0
outer loop
vertex 1.5 2.5 6.99999999999999
vertex 1.03527618041008 3.86370330515627 6.99999999999999
vertex 2.0 3.46410161513775 6.99999999999999
endloop
endfacet
facet normal 0.0 0.0 -1.0
outer loop
vertex 1.5 2.5 6.99999999999999
vertex 2.0 3.46410161513775 6.99999999999999
vertex 1.5 -2.5 6.99999999999999
endloop
endfacet
facet normal 0.0 0.0 -1.0
outer loop
vertex 1.5 -2.5 6.99999999999999
vertex 2.0 3.46410161513775 6.99999999999999
vertex 2.0 -3.46410161513776 6.99999999999999
endloop
endfacet
facet normal 0.0 0.0 -1.0
outer loop
vertex 2.0 -3.46410161513776 6.99999999999999
vertex 2.0 3.46410161513775 6.99999999999999
vertex 2.82842712474619 -2.82842712474619 6.99999999999999
endloop
endfacet
facet normal 0.0 0.0 -1.0
outer loop
vertex 2.82842712474619 -2.82842712474619 6.99999999999999
vertex 2.0 3.46410161513775 6.99999999999999
vertex 2.82842712474619 2.82842712474619 6.99999999999999
endloop
endfacet
facet normal 0.0 0.0 -1.0
outer loop
vertex 2.82842712474619 -2.82842712474619 6.99999999999999
vertex 2.82842712474619 2.82842712474619 6.99999999999999
vertex 3.46410161513775 -2.0 6.99999999999999
endloop
endfacet
facet normal 0.0 0.0 -1.0
outer loop
vertex 3.46410161513775 -2.0 6.99999999999999
vertex 2.82842712474619 2.82842712474619 6.99999999999999
vertex 3.46410161513775 2.0 6.99999999999999
endloop
endfacet
facet normal 0.0 0.0 -1.0
outer loop
vertex 3.46410161513775 -2.0 6.99999999999999
vertex 3.46410161513775 2.0 6.99999999999999
vertex 3.86370330515627 -1.03527618041009 6.99999999999999
endloop
endfacet
facet normal 0.0 0.0 -1.0
outer loop
vertex 3.86370330515627 -1.03527618041009 6.99999999999999
vertex 3.46410161513775 2.0 6.99999999999999
vertex 3.86370330515627 1.03527618041008 6.99999999999999
endloop
endfacet
facet normal 0.0 0.0 -1.0
outer loop
vertex 3.86370330515627 -1.03527618041009 6.99999999999999
vertex 3.86370330515627 1.03527618041008 6.99999999999999
vertex 4.0 0.0 6.99999999999999
endloop
endfacet
facet normal 0.0 0.0 -1.0
outer loop
vertex -3.86370330515627 1.03527618041008 6.99999999999999
vertex -3.86370330515627 -1.03527618041008 6.99999999999999
vertex -4.0 4.89858719658941e-016 6.99999999999999
endloop
endfacet
facet normal 0.0 0.0 -1.0
outer loop
vertex -3.86370330515627 -1.03527618041008 6.99999999999999
vertex -3.86370330515627 1.03527618041008 6.99999999999999
vertex -3.46410161513775 -2.0 6.99999999999999
endloop
endfacet
facet normal 0.0 0.0 -1.0
outer loop
vertex -3.46410161513775 -2.0 6.99999999999999
vertex -3.86370330515627 1.03527618041008 6.99999999999999
vertex -3.46410161513775 2.0 6.99999999999999
endloop
endfacet
facet normal 0.0 0.0 -1.0
outer loop
vertex -3.46410161513775 -2.0 6.99999999999999
vertex -3.46410161513775 2.0 6.99999999999999
vertex -2.82842712474619 -2.82842712474619 6.99999999999999
endloop
endfacet
facet normal 0.0 0.0 -1.0
outer loop
vertex -2.82842712474619 -2.82842712474619 6.99999999999999
vertex -3.46410161513775 2.0 6.99999999999999
vertex -2.82842712474619 2.82842712474619 6.99999999999999
endloop
endfacet
facet normal 0.0 0.0 -1.0
outer loop
vertex -2.82842712474619 -2.82842712474619 6.99999999999999
vertex -2.82842712474619 2.82842712474619 6.99999999999999
vertex -2.0 -3.46410161513775 6.99999999999999
endloop
endfacet
facet normal 0.0 0.0 -1.0
outer loop
vertex -2.0 -3.46410161513775 6.99999999999999
vertex -2.82842712474619 2.82842712474619 6.99999999999999
vertex -2.0 3.46410161513775 6.99999999999999
endloop
endfacet
facet normal 0.0 0.0 -1.0
outer loop
vertex -2.0 -3.46410161513775 6.99999999999999
vertex -2.0 3.46410161513775 6.99999999999999
vertex -1.5 -2.5 6.99999999999999
endloop
endfacet
facet normal 0.0 0.0 -1.0
outer loop
vertex -2.0 -3.46410161513775 6.99999999999999
vertex -1.5 -2.5 6.99999999999999
vertex -1.03527618041009 -3.86370330515627 6.99999999999999
endloop
endfacet
facet normal 0.0 0.0 -1.0
outer loop
vertex -1.5 -2.5 6.99999999999999
vertex -2.0 3.46410161513775 6.99999999999999
vertex -1.5 2.5 6.99999999999999
endloop
endfacet
facet normal 0.0 0.0 -1.0
outer loop
vertex -1.03527618041009 -3.86370330515627 6.99999999999999
vertex -1.5 -2.5 6.99999999999999
vertex 1.5 -2.5 6.99999999999999
endloop
endfacet
facet normal 0.0 0.0 -1.0
outer loop
vertex -1.03527618041009 -3.86370330515627 6.99999999999999
vertex 1.5 -2.5 6.99999999999999
vertex -7.34788079488412e-016 -4.0 6.99999999999999
endloop
endfacet
facet normal 0.0 0.0 -1.0
outer loop
vertex -7.34788079488412e-016 -4.0 6.99999999999999
vertex 1.5 -2.5 6.99999999999999
vertex 1.03527618041008 -3.86370330515627 6.99999999999999
endloop
endfacet
facet normal 0.0 0.0 -1.0
outer loop
vertex 1.03527618041008 -3.86370330515627 6.99999999999999
vertex 1.5 -2.5 6.99999999999999
vertex 2.0 -3.46410161513776 6.99999999999999
endloop
endfacet
facet normal -0.866025403784439 -0.5 -6.18811902120206e-019
outer loop
vertex 3.46410161513775 2.0 6.99999999999999
vertex 3.86370330515627 1.03527618041008 0.0
vertex 3.86370330515627 1.03527618041008 6.99999999999999
endloop
endfacet
facet normal -0.953649931008794 -0.300918276425547 -8.24289201610782e-019
outer loop
vertex 3.86370330515627 1.03527618041008 0.0
vertex 3.46410161513775 2.0 6.99999999999999
vertex 3.86370330515627 1.03527618041008 -3.0
endloop
endfacet
facet normal -0.923879532511287 -0.38268343236509 -1.22703576102806e-018
outer loop
vertex 3.86370330515627 1.03527618041008 -3.0
vertex 3.46410161513775 2.0 6.99999999999999
vertex 3.46410161513775 2.0 -3.0
endloop
endfacet
facet normal -0.923879532511287 -0.38268343236509 -1.22703576102806e-018
outer loop
vertex 3.46410161513775 2.0 -3.0
vertex 3.46410161513775 2.0 6.99999999999999
vertex 3.46410161513775 2.0 0.0
endloop
endfacet
facet normal -1.0 1.24755538539057e-016 -3.32033484304155e-019
outer loop
vertex 4.0 0.0 6.99999999999999
vertex 3.86370330515627 -1.03527618041009 0.0
vertex 3.86370330515627 -1.03527618041009 6.99999999999999
endloop
endfacet
facet normal -0.976344204783667 0.216222093656846 -4.42285635986285e-019
outer loop
vertex 3.86370330515627 -1.03527618041009 0.0
vertex 4.0 0.0 6.99999999999999
vertex 3.86370330515627 -1.03527618041009 -3.0
endloop
endfacet
facet normal -0.99144486137381 0.130526192220052 -6.58385783634793e-019
outer loop
vertex 3.86370330515627 -1.03527618041009 -3.0
vertex 4.0 0.0 6.99999999999999
vertex 4.0 0.0 -3.0
endloop
endfacet
facet normal -0.99144486137381 0.130526192220052 -6.58385783634793e-019
outer loop
vertex 4.0 0.0 -3.0
vertex 4.0 0.0 6.99999999999999
vertex 4.0 0.0 0.0
endloop
endfacet
facet normal -0.866025403784438 0.5 -1.87826502665971e-018
outer loop
vertex 3.46410161513775 -2.0 6.99999999999999
vertex 2.82842712474619 -2.82842712474619 0.0
vertex 2.82842712474619 -2.82842712474619 6.99999999999999
endloop
endfacet
facet normal -0.737427837164855 0.675425928562388 -2.50194537549313e-018
outer loop
vertex 2.82842712474619 -2.82842712474619 0.0
vertex 3.46410161513775 -2.0 6.99999999999999
vertex 2.82842712474619 -2.82842712474619 -3.0
endloop
endfacet
facet normal -0.793353340291235 0.608761429008721 -3.72439241795983e-018
outer loop
vertex 2.82842712474619 -2.82842712474619 -3.0
vertex 3.46410161513775 -2.0 6.99999999999999
vertex 3.46410161513775 -2.0 -3.0
endloop
endfacet
facet normal -0.793353340291235 0.608761429008721 -3.72439241795983e-018
outer loop
vertex 3.46410161513775 -2.0 -3.0
vertex 3.46410161513775 -2.0 6.99999999999999
vertex 3.46410161513775 -2.0 0.0
endloop
endfacet
facet normal -0.675425928562388 -0.737427837164855 -1.41566636650202e-018
outer loop
vertex 2.82842712474619 2.82842712474619 0.0
vertex 2.0 3.46410161513775 -3.0
vertex 2.82842712474619 2.82842712474619 -3.0
endloop
endfacet
facet normal -0.608761429008721 -0.793353340291235 -2.1073589908899e-018
outer loop
vertex 2.0 3.46410161513775 -3.0
vertex 2.82842712474619 2.82842712474619 0.0
vertex 2.0 3.46410161513775 0.0
endloop
endfacet
facet normal -0.537487499541197 -0.843271716492941 -1.41566637094411e-018
outer loop
vertex 2.0 3.46410161513775 0.0
vertex 2.82842712474619 2.82842712474619 0.0
vertex 2.82842712474619 2.82842712474619 6.99999999999999
endloop
endfacet
facet normal -0.537487499541197 -0.843271716492941 -1.41566637094411e-018
outer loop
vertex 2.0 3.46410161513775 0.0
vertex 2.82842712474619 2.82842712474619 6.99999999999999
vertex 2.0 3.46410161513775 6.99999999999999
endloop
endfacet
facet normal -0.300918276425547 0.953649931008794 6.06504653832606e-034
outer loop
vertex 1.03527618041008 -3.86370330515627 0.0
vertex 2.0 -3.46410161513776 -3.0
vertex 1.03527618041008 -3.86370330515627 -3.0
endloop
endfacet
facet normal -0.382683432365089 0.923879532511287 9.02841985589854e-034
outer loop
vertex 2.0 -3.46410161513776 -3.0
vertex 1.03527618041008 -3.86370330515627 0.0
vertex 2.0 -3.46410161513776 0.0
endloop
endfacet
facet normal -0.461550979250929 0.887113686937874 6.06504653832606e-034
outer loop
vertex 2.0 -3.46410161513776 0.0
vertex 1.03527618041008 -3.86370330515627 0.0
vertex 1.03527618041008 -3.86370330515627 6.99999999999999
endloop
endfacet
facet normal -0.461550979250929 0.887113686937874 6.06504653832606e-034
outer loop
vertex 2.0 -3.46410161513776 0.0
vertex 1.03527618041008 -3.86370330515627 6.99999999999999
vertex 2.0 -3.46410161513776 6.99999999999999
endloop
endfacet
facet normal 0.300918276425547 -0.953649931008794 -8.24289201610787e-019
outer loop
vertex -1.03527618041008 3.86370330515627 0.0
vertex -2.0 3.46410161513775 -3.0
vertex -1.03527618041008 3.86370330515627 -3.0
endloop
endfacet
facet normal 0.38268343236509 -0.923879532511287 -1.22703576102807e-018
outer loop
vertex -2.0 3.46410161513775 -3.0
vertex -1.03527618041008 3.86370330515627 0.0
vertex -2.0 3.46410161513775 0.0
endloop
endfacet
facet normal 0.461550979250929 -0.887113686937874 -8.24289201610787e-019
outer loop
vertex -2.0 3.46410161513775 0.0
vertex -1.03527618041008 3.86370330515627 0.0
vertex -1.03527618041008 3.86370330515627 6.99999999999999
endloop
endfacet
facet normal 0.461550979250929 -0.887113686937874 -8.24289201610787e-019
outer loop
vertex -2.0 3.46410161513775 0.0
vertex -1.03527618041008 3.86370330515627 6.99999999999999
vertex -2.0 3.46410161513775 6.99999999999999
endloop
endfacet
facet normal 0.67542592835812 0.737427837351949 -1.41566636872306e-018
outer loop
vertex -2.82842712474619 -2.82842712474619 0.0
vertex -2.0 -3.46410161513775 -3.0
vertex -2.82842712474619 -2.82842712474619 -3.0
endloop
endfacet
facet normal 0.608761429008721 0.793353340291235 -2.1073589908899e-018
outer loop
vertex -2.0 -3.46410161513775 -3.0
vertex -2.82842712474619 -2.82842712474619 0.0
vertex -2.0 -3.46410161513775 0.0
endloop
endfacet
facet normal 0.53748749930761 0.843271716641826 -1.41566636872306e-018
outer loop
vertex -2.0 -3.46410161513775 0.0
vertex -2.82842712474619 -2.82842712474619 0.0
vertex -2.82842712474619 -2.82842712474619 6.99999999999999
endloop
endfacet
facet normal 0.53748749930761 0.843271716641826 -1.41566636872306e-018
outer loop
vertex -2.0 -3.46410161513775 0.0
vertex -2.82842712474619 -2.82842712474619 6.99999999999999
vertex -2.0 -3.46410161513775 6.99999999999999
endloop
endfacet
facet normal -0.216222093656846 -0.976344204783666 -6.31973482274344e-033
outer loop
vertex 1.03527618041008 3.86370330515627 0.0
vertex 2.44929359829471e-016 4.0 -3.0
vertex 1.03527618041008 3.86370330515627 -3.0
endloop
endfacet
facet normal -0.130526192220052 -0.99144486137381 -9.40754848245864e-033
outer loop
vertex 2.44929359829471e-016 4.0 -3.0
vertex 1.03527618041008 3.86370330515627 0.0
vertex 2.44929359829471e-016 4.0 0.0
endloop
endfacet
facet normal -0.0438419702960479 -0.999038478558539 -6.31973482274344e-033
outer loop
vertex 2.44929359829471e-016 4.0 0.0
vertex 1.03527618041008 3.86370330515627 0.0
vertex 1.03527618041008 3.86370330515627 6.99999999999999
endloop
endfacet
facet normal -0.0438419702960479 -0.999038478558539 -6.31973482274344e-033
outer loop
vertex 2.44929359829471e-016 4.0 0.0
vertex 1.03527618041008 3.86370330515627 6.99999999999999
vertex 2.44929359829471e-016 4.0 6.99999999999999
endloop
endfacet
facet normal 0.216222093656846 0.976344204783667 -4.42285635986285e-019
outer loop
vertex -1.03527618041009 -3.86370330515627 0.0
vertex -7.34788079488412e-016 -4.0 -3.0
vertex -1.03527618041009 -3.86370330515627 -3.0
endloop
endfacet
facet normal 0.130526192220052 0.99144486137381 -6.58385783634793e-019
outer loop
vertex -7.34788079488412e-016 -4.0 -3.0
vertex -1.03527618041009 -3.86370330515627 0.0
vertex -7.34788079488412e-016 -4.0 0.0
endloop
endfacet
facet normal 0.0438419702960484 0.999038478558539 -4.42285635986285e-019
outer loop
vertex -7.34788079488412e-016 -4.0 0.0
vertex -1.03527618041009 -3.86370330515627 0.0
vertex -1.03527618041009 -3.86370330515627 6.99999999999999
endloop
endfacet
facet normal 0.0438419702960484 0.999038478558539 -4.42285635986285e-019
outer loop
vertex -7.34788079488412e-016 -4.0 0.0
vertex -1.03527618041009 -3.86370330515627 6.99999999999999
vertex -7.34788079488412e-016 -4.0 6.99999999999999
endloop
endfacet
facet normal 0.923879532511287 0.382683432365089 -1.22703576102807e-018
outer loop
vertex -3.86370330515627 -1.03527618041008 -3.0
vertex -3.46410161513775 -2.0 0.0
vertex -3.46410161513775 -2.0 -3.0
endloop
endfacet
facet normal 0.887113687065724 0.461550979005198 -8.24289202904021e-019
outer loop
vertex -3.46410161513775 -2.0 0.0
vertex -3.86370330515627 -1.03527618041008 -3.0
vertex -3.46410161513775 -2.0 6.99999999999999
endloop
endfacet
facet normal 0.866025403784439 0.5 -6.18811902120211e-019
outer loop
vertex -3.46410161513775 -2.0 6.99999999999999
vertex -3.86370330515627 -1.03527618041008 -3.0
vertex -3.86370330515627 -1.03527618041008 6.99999999999999
endloop
endfacet
facet normal 0.965925826289068 0.25881904510252 -6.18811902120211e-019
outer loop
vertex -3.86370330515627 -1.03527618041008 6.99999999999999
vertex -3.86370330515627 -1.03527618041008 -3.0
vertex -3.86370330515627 -1.03527618041008 0.0
endloop
endfacet
facet normal 0.99144486137381 -0.130526192220052 -9.51019601179912e-033
outer loop
vertex -3.86370330515627 1.03527618041008 -3.0
vertex -4.0 4.89858719658941e-016 0.0
vertex -4.0 4.89858719658941e-016 -3.0
endloop
endfacet
facet normal 0.999038478558539 -0.0438419702960481 -6.38869063698678e-033
outer loop
vertex -4.0 4.89858719658941e-016 0.0
vertex -3.86370330515627 1.03527618041008 -3.0
vertex -4.0 4.89858719658941e-016 6.99999999999999
endloop
endfacet
facet normal 1.0 -2.40599967182466e-016 -4.79612955914723e-033
outer loop
vertex -4.0 4.89858719658941e-016 6.99999999999999
vertex -3.86370330515627 1.03527618041008 -3.0
vertex -3.86370330515627 1.03527618041008 6.99999999999999
endloop
endfacet
facet normal 0.965925826289068 -0.258819045102521 -4.79612955914723e-033
outer loop
vertex -3.86370330515627 1.03527618041008 6.99999999999999
vertex -3.86370330515627 1.03527618041008 -3.0
vertex -3.86370330515627 1.03527618041008 0.0
endloop
endfacet
facet normal 0.0 0.0 -1.0
outer loop
vertex 4.57281936533899 3.84045016002749 0.0
vertex 3.46410161513775 2.0 0.0
vertex 2.82842712474619 2.82842712474619 0.0
endloop
endfacet
facet normal 0.0 0.0 -1.0
outer loop
vertex 3.46410161513775 2.0 0.0
vertex 4.57281936533899 3.84045016002749 0.0
vertex 4.89312273570989 3.42302268075358 0.0
endloop
endfacet
facet normal 0.0 0.0 -1.0
outer loop
vertex 2.03995265728725 5.61233708322132 0.0
vertex 2.0 3.46410161513775 0.0
vertex 1.03527618041008 3.86370330515627 0.0
endloop
endfacet
facet normal 0.0 0.0 -1.0
outer loop
vertex 2.0 3.46410161513775 0.0
vertex 2.03995265728725 5.61233708322132 0.0
vertex 2.52605725258319 5.41098596711785 0.0
endloop
endfacet
facet normal 0.0 0.0 -1.0
outer loop
vertex -0.517863231407961 5.94907993333677 0.0
vertex -1.03527618041008 3.86370330515627 0.0
vertex -1.03951771788233 5.88040281731475 0.0
endloop
endfacet
facet normal 0.0 0.0 -1.0
outer loop
vertex -1.03527618041008 3.86370330515627 0.0
vertex -0.517863231407961 5.94907993333677 0.0
vertex 2.44929359829471e-016 4.0 0.0
endloop
endfacet
facet normal 0.0 0.0 -1.0
outer loop
vertex -3.42302268075358 4.89312273570989 0.0
vertex -2.82842712474619 2.82842712474619 0.0
vertex -3.84045016002749 4.57281936533899 0.0
endloop
endfacet
facet normal 0.0 0.0 -1.0
outer loop
vertex -2.82842712474619 2.82842712474619 0.0
vertex -3.42302268075358 4.89312273570989 0.0
vertex -2.0 3.46410161513775 0.0
endloop
endfacet
facet normal 0.0 0.0 -1.0
outer loop
vertex -5.41098596711785 2.52605725258319 0.0
vertex -3.86370330515627 1.03527618041008 0.0
vertex -5.61233708322132 2.03995265728725 0.0
endloop
endfacet
facet normal 0.0 0.0 -1.0
outer loop
vertex -3.86370330515627 1.03527618041008 0.0
vertex -5.41098596711785 2.52605725258319 0.0
vertex -3.46410161513775 2.0 0.0
endloop
endfacet
facet normal 0.0 0.0 -1.0
outer loop
vertex -4.0 4.89858719658941e-016 0.0
vertex -5.88040281731475 -1.03951771788232 0.0
vertex -5.94907993333677 -0.517863231407958 0.0
endloop
endfacet
facet normal 0.0 0.0 -1.0
outer loop
vertex -5.88040281731475 -1.03951771788232 0.0
vertex -4.0 4.89858719658941e-016 0.0
vertex -3.86370330515627 -1.03527618041008 0.0
endloop
endfacet
facet normal 0.0 0.0 -1.0
outer loop
vertex -3.46410161513775 -2.0 0.0
vertex -4.57281936533899 -3.84045016002749 0.0
vertex -4.8931227357099 -3.42302268075357 0.0
endloop
endfacet
facet normal 0.0 0.0 -1.0
outer loop
vertex -4.57281936533899 -3.84045016002749 0.0
vertex -3.46410161513775 -2.0 0.0
vertex -2.82842712474619 -2.82842712474619 0.0
endloop
endfacet
facet normal 0.0 0.0 -1.0
outer loop
vertex -2.0 -3.46410161513775 0.0
vertex -2.03995265728725 -5.61233708322132 0.0
vertex -2.52605725258319 -5.41098596711785 0.0
endloop
endfacet
facet normal 0.0 0.0 -1.0
outer loop
vertex -2.03995265728725 -5.61233708322132 0.0
vertex -2.0 -3.46410161513775 0.0
vertex -1.03527618041009 -3.86370330515627 0.0
endloop
endfacet
facet normal 0.0 0.0 -1.0
outer loop
vertex 1.03527618041008 -3.86370330515627 0.0
vertex 0.51786323140796 -5.94907993333677 0.0
vertex -7.34788079488412e-016 -4.0 0.0
endloop
endfacet
facet normal 0.0 0.0 -1.0
outer loop
vertex 0.51786323140796 -5.94907993333677 0.0
vertex 1.03527618041008 -3.86370330515627 0.0
vertex 1.03951771788233 -5.88040281731475 0.0
endloop
endfacet
facet normal 0.0 0.0 -1.0
outer loop
vertex 2.82842712474619 -2.82842712474619 0.0
vertex 3.42302268075358 -4.89312273570989 0.0
vertex 2.0 -3.46410161513776 0.0
endloop
endfacet
facet normal 0.0 0.0 -1.0
outer loop
vertex 3.42302268075358 -4.89312273570989 0.0
vertex 2.82842712474619 -2.82842712474619 0.0
vertex 3.8404501600275 -4.57281936533899 0.0
endloop
endfacet
facet normal 0.0 0.0 -1.0
outer loop
vertex 3.86370330515627 -1.03527618041009 0.0
vertex 5.41098596711786 -2.52605725258319 0.0
vertex 3.46410161513775 -2.0 0.0
endloop
endfacet
facet normal 0.0 0.0 -1.0
outer loop
vertex 5.41098596711786 -2.52605725258319 0.0
vertex 3.86370330515627 -1.03527618041009 0.0
vertex 5.61233708322132 -2.03995265728725 0.0
endloop
endfacet
facet normal 0.0 0.0 -1.0
outer loop
vertex 5.88040281731475 1.03951771788233 0.0
vertex 4.0 0.0 0.0
vertex 3.86370330515627 1.03527618041008 0.0
endloop
endfacet
facet normal 0.0 0.0 -1.0
outer loop
vertex 4.0 0.0 0.0
vertex 5.88040281731475 1.03951771788233 0.0
vertex 5.94907993333677 0.517863231407961 0.0
endloop
endfacet
facet normal 0.864971886959525 0.501820321200406 -0.0
outer loop
vertex -3.84045016002749 4.57281936533899 -3.0
vertex -2.82842712474619 2.82842712474619 0.0
vertex -2.82842712474619 2.82842712474619 -3.0
endloop
endfacet
facet normal 0.864971886959525 0.501820321200406 -0.0
outer loop
vertex -2.82842712474619 2.82842712474619 0.0
vertex -3.84045016002749 4.57281936533899 -3.0
vertex -3.84045016002749 4.57281936533899 0.0
endloop
endfacet
facet normal 0.608761429008718 -0.793353340291237 -0.0
outer loop
vertex -3.42302268075358 4.89312273570989 0.0
vertex -3.84045016002749 4.57281936533899 -3.0
vertex -3.42302268075358 4.89312273570989 -3.0
endloop
endfacet
facet normal 0.608761429008718 -0.793353340291237 -0.0
outer loop
vertex -3.84045016002749 4.57281936533899 -3.0
vertex -3.42302268075358 4.89312273570989 0.0
vertex -3.84045016002749 4.57281936533899 0.0
endloop
endfacet
facet normal -0.708592406227538 -0.705618028282064 0.0
outer loop
vertex -3.42302268075358 4.89312273570989 0.0
vertex -2.0 3.46410161513775 -3.0
vertex -2.0 3.46410161513775 0.0
endloop
endfacet
facet normal -0.708592406227538 -0.705618028282064 0.0
outer loop
vertex -2.0 3.46410161513775 -3.0
vertex -3.42302268075358 4.89312273570989 0.0
vertex -3.42302268075358 4.89312273570989 -3.0
endloop
endfacet
facet normal 0.5 -0.866025403784439 -6.1881190212021e-019
outer loop
vertex -2.0 3.46410161513775 6.99999999999999
vertex -2.82842712474619 2.82842712474619 0.0
vertex -2.0 3.46410161513775 0.0
endloop
endfacet
facet normal 0.737427837351949 -0.67542592835812 -5.02945727278025e-033
outer loop
vertex -2.82842712474619 2.82842712474619 0.0
vertex -2.0 3.46410161513775 6.99999999999999
vertex -2.82842712474619 2.82842712474619 6.99999999999999
endloop
endfacet
facet normal 0.999997788266514 0.00210320281505634 -0.0
outer loop
vertex -1.03951771788233 5.88040281731475 -3.0
vertex -1.03527618041008 3.86370330515627 0.0
vertex -1.03527618041008 3.86370330515627 -3.0
endloop
endfacet
facet normal 0.999997788266514 0.00210320281505634 -0.0
outer loop
vertex -1.03527618041008 3.86370330515627 0.0
vertex -1.03951771788233 5.88040281731475 -3.0
vertex -1.03951771788233 5.88040281731475 0.0
endloop
endfacet
facet normal 0.13052619222005 -0.991444861373811 -0.0
outer loop
vertex -0.517863231407961 5.94907993333677 0.0
vertex -1.03951771788233 5.88040281731475 -3.0
vertex -0.517863231407961 5.94907993333677 -3.0
endloop
endfacet
facet normal 0.13052619222005 -0.991444861373811 -0.0
outer loop
vertex -1.03951771788233 5.88040281731475 -3.0
vertex -0.517863231407961 5.94907993333677 0.0
vertex -1.03951771788233 5.88040281731475 0.0
endloop
endfacet
facet normal -0.966468038862823 -0.256786934746785 0.0
outer loop
vertex -0.517863231407961 5.94907993333677 0.0
vertex 2.44929359829471e-016 4.0 -3.0
vertex 2.44929359829471e-016 4.0 0.0
endloop
endfacet
facet normal -0.966468038862823 -0.256786934746785 0.0
outer loop
vertex 2.44929359829471e-016 4.0 -3.0
vertex -0.517863231407961 5.94907993333677 0.0
vertex -0.517863231407961 5.94907993333677 -3.0
endloop
endfacet
facet normal 4.45555494782345e-017 -1.0 -4.74436292373483e-033
outer loop
vertex 2.44929359829471e-016 4.0 6.99999999999999
vertex -1.03527618041008 3.86370330515627 0.0
vertex 2.44929359829471e-016 4.0 0.0
endloop
endfacet
facet normal 0.300918276425547 -0.953649931008794 -8.24289201610787e-019
outer loop
vertex -1.03527618041008 3.86370330515627 0.0
vertex 2.44929359829471e-016 4.0 6.99999999999999
vertex -1.03527618041008 3.86370330515627 6.99999999999999
endloop
endfacet
facet normal 0.867075089774581 -0.498177467066107 -0.0
outer loop
vertex 2.03995265728725 5.61233708322132 -3.0
vertex 1.03527618041008 3.86370330515627 0.0
vertex 1.03527618041008 3.86370330515627 -3.0
endloop
endfacet
facet normal 0.867075089774581 -0.498177467066107 -0.0
outer loop
vertex 1.03527618041008 3.86370330515627 0.0
vertex 2.03995265728725 5.61233708322132 -3.0
vertex 2.03995265728725 5.61233708322132 0.0
endloop
endfacet
facet normal -0.382683432365093 -0.923879532511285 -0.0
outer loop
vertex 2.52605725258319 5.41098596711785 0.0
vertex 2.03995265728725 5.61233708322132 -3.0
vertex 2.52605725258319 5.41098596711785 -3.0
endloop
endfacet
facet normal -0.382683432365093 -0.923879532511285 -0.0
outer loop
vertex 2.03995265728725 5.61233708322132 -3.0
vertex 2.52605725258319 5.41098596711785 0.0
vertex 2.03995265728725 5.61233708322132 0.0
endloop
endfacet
facet normal -0.965379340974323 0.260850010580759 0.0
outer loop
vertex 2.52605725258319 5.41098596711785 0.0
vertex 2.0 3.46410161513775 -3.0
vertex 2.0 3.46410161513775 0.0
endloop
endfacet
facet normal -0.965379340974323 0.260850010580759 0.0
outer loop
vertex 2.0 3.46410161513775 -3.0
vertex 2.52605725258319 5.41098596711785 0.0
vertex 2.52605725258319 5.41098596711785 -3.0
endloop
endfacet
facet normal -0.5 -0.866025403784439 -1.06277165427526e-018
outer loop
vertex 2.0 3.46410161513775 6.99999999999999
vertex 1.03527618041008 3.86370330515627 0.0
vertex 2.0 3.46410161513775 0.0
endloop
endfacet
facet normal -0.216222093656846 -0.976344204783666 -6.31973482274344e-033
outer loop
vertex 1.03527618041008 3.86370330515627 0.0
vertex 2.0 3.46410161513775 6.99999999999999
vertex 1.03527618041008 3.86370330515627 6.99999999999999
endloop
endfacet
facet normal 0.501820321200406 -0.864971886959525 0.0
outer loop
vertex 4.57281936533899 3.84045016002749 0.0
vertex 2.82842712474619 2.82842712474619 -3.0
vertex 4.57281936533899 3.84045016002749 -3.0
endloop
endfacet
facet normal 0.501820321200406 -0.864971886959525 0.0
outer loop
vertex 2.82842712474619 2.82842712474619 -3.0
vertex 4.57281936533899 3.84045016002749 0.0
vertex 2.82842712474619 2.82842712474619 0.0
endloop
endfacet
facet normal -0.793353340291236 -0.60876142900872 -0.0
outer loop
vertex 4.57281936533899 3.84045016002749 0.0
vertex 4.89312273570989 3.42302268075358 -3.0
vertex 4.89312273570989 3.42302268075358 0.0
endloop
endfacet
facet normal -0.793353340291236 -0.60876142900872 -0.0
outer loop
vertex 4.89312273570989 3.42302268075358 -3.0
vertex 4.57281936533899 3.84045016002749 0.0
vertex 4.57281936533899 3.84045016002749 -3.0
endloop
endfacet
facet normal -0.705618028282064 0.708592406227538 -0.0
outer loop
vertex 3.46410161513775 2.0 0.0
vertex 4.89312273570989 3.42302268075358 -3.0
vertex 3.46410161513775 2.0 -3.0
endloop
endfacet
facet normal -0.705618028282064 0.708592406227538 -0.0
outer loop
vertex 4.89312273570989 3.42302268075358 -3.0
vertex 3.46410161513775 2.0 0.0
vertex 4.89312273570989 3.42302268075358 0.0
endloop
endfacet
facet normal -0.707106781186548 -0.707106781186547 -1.06277165427526e-018
outer loop
vertex 2.82842712474619 2.82842712474619 6.99999999999999
vertex 3.46410161513775 2.0 0.0
vertex 3.46410161513775 2.0 6.99999999999999
endloop
endfacet
facet normal -0.887113686937874 -0.461550979250929 -8.24289201610782e-019
outer loop
vertex 3.46410161513775 2.0 0.0
vertex 2.82842712474619 2.82842712474619 6.99999999999999
vertex 2.82842712474619 2.82842712474619 0.0
endloop
endfacet
facet normal 0.00210320281505625 -0.999997788266514 0.0
outer loop
vertex 5.88040281731475 1.03951771788233 0.0
vertex 3.86370330515627 1.03527618041008 -3.0
vertex 5.88040281731475 1.03951771788233 -3.0
endloop
endfacet
facet normal 0.00210320281505625 -0.999997788266514 0.0
outer loop
vertex 3.86370330515627 1.03527618041008 -3.0
vertex 5.88040281731475 1.03951771788233 0.0
vertex 3.86370330515627 1.03527618041008 0.0
endloop
endfacet
facet normal -0.991444861373811 -0.13052619222005 -0.0
outer loop
vertex 5.88040281731475 1.03951771788233 0.0
vertex 5.94907993333677 0.517863231407961 -3.0
vertex 5.94907993333677 0.517863231407961 0.0
endloop
endfacet
facet normal -0.991444861373811 -0.13052619222005 -0.0
outer loop
vertex 5.94907993333677 0.517863231407961 -3.0
vertex 5.88040281731475 1.03951771788233 0.0
vertex 5.88040281731475 1.03951771788233 -3.0
endloop
endfacet
facet normal -0.256786934746785 0.966468038862823 -0.0
outer loop
vertex 4.0 0.0 0.0
vertex 5.94907993333677 0.517863231407961 -3.0
vertex 4.0 0.0 -3.0
endloop
endfacet
facet normal -0.256786934746785 0.966468038862823 -0.0
outer loop
vertex 5.94907993333677 0.517863231407961 -3.0
vertex 4.0 0.0 0.0
vertex 5.94907993333677 0.517863231407961 0.0
endloop
endfacet
facet normal -0.965925826289068 -0.258819045102521 -6.18811902120206e-019
outer loop
vertex 3.86370330515627 1.03527618041008 6.99999999999999
vertex 4.0 0.0 0.0
vertex 4.0 0.0 6.99999999999999
endloop
endfacet
facet normal -0.999038478558539 0.0438419702960481 -4.42285635986285e-019
outer loop
vertex 4.0 0.0 0.0
vertex 3.86370330515627 1.03527618041008 6.99999999999999
vertex 3.86370330515627 1.03527618041008 0.0
endloop
endfacet
facet normal -0.498177467066105 -0.867075089774583 0.0
outer loop
vertex 5.61233708322132 -2.03995265728725 0.0
vertex 3.86370330515627 -1.03527618041009 -3.0
vertex 5.61233708322132 -2.03995265728725 -3.0
endloop
endfacet
facet normal -0.498177467066105 -0.867075089774583 0.0
outer loop
vertex 3.86370330515627 -1.03527618041009 -3.0
vertex 5.61233708322132 -2.03995265728725 0.0
vertex 3.86370330515627 -1.03527618041009 0.0
endloop
endfacet
facet normal -0.923879532511286 0.38268343236509 -0.0
outer loop
vertex 5.61233708322132 -2.03995265728725 0.0
vertex 5.41098596711786 -2.52605725258319 -3.0
vertex 5.41098596711786 -2.52605725258319 0.0
endloop
endfacet
facet normal -0.923879532511286 0.38268343236509 -0.0
outer loop
vertex 5.41098596711786 -2.52605725258319 -3.0
vertex 5.61233708322132 -2.03995265728725 0.0
vertex 5.61233708322132 -2.03995265728725 -3.0
endloop
endfacet
facet normal 0.260850010580756 0.965379340974324 -0.0
outer loop
vertex 3.46410161513775 -2.0 0.0
vertex 5.41098596711786 -2.52605725258319 -3.0
vertex 3.46410161513775 -2.0 -3.0
endloop
endfacet
facet normal 0.260850010580756 0.965379340974324 -0.0
outer loop
vertex 5.41098596711786 -2.52605725258319 -3.0
vertex 3.46410161513775 -2.0 0.0
vertex 5.41098596711786 -2.52605725258319 0.0
endloop
endfacet
facet normal -0.965925826289068 0.258819045102521 -3.32033484304155e-019
outer loop
vertex 3.86370330515627 -1.03527618041009 6.99999999999999
vertex 3.46410161513775 -2.0 0.0
vertex 3.46410161513775 -2.0 6.99999999999999
endloop
endfacet
facet normal -0.843271716790711 0.537487499074023 -2.50194537549313e-018
outer loop
vertex 3.46410161513775 -2.0 0.0
vertex 3.86370330515627 -1.03527618041009 6.99999999999999
vertex 3.86370330515627 -1.03527618041009 0.0
endloop
endfacet
facet normal -0.864971886959524 -0.501820321200408 0.0
outer loop
vertex 2.82842712474619 -2.82842712474619 0.0
vertex 3.8404501600275 -4.57281936533899 -3.0
vertex 3.8404501600275 -4.57281936533899 0.0
endloop
endfacet
facet normal -0.864971886959524 -0.501820321200408 0.0
outer loop
vertex 3.8404501600275 -4.57281936533899 -3.0
vertex 2.82842712474619 -2.82842712474619 0.0
vertex 2.82842712474619 -2.82842712474619 -3.0
endloop
endfacet
facet normal -0.608761429008722 0.793353340291234 -0.0
outer loop
vertex 3.42302268075358 -4.89312273570989 0.0
vertex 3.8404501600275 -4.57281936533899 -3.0
vertex 3.42302268075358 -4.89312273570989 -3.0
endloop
endfacet
facet normal -0.608761429008722 0.793353340291234 -0.0
outer loop
vertex 3.8404501600275 -4.57281936533899 -3.0
vertex 3.42302268075358 -4.89312273570989 0.0
vertex 3.8404501600275 -4.57281936533899 0.0
endloop
endfacet
facet normal 0.708592406227536 0.705618028282066 -0.0
outer loop
vertex 2.0 -3.46410161513776 -3.0
vertex 3.42302268075358 -4.89312273570989 0.0
vertex 3.42302268075358 -4.89312273570989 -3.0
endloop
endfacet
facet normal 0.708592406227536 0.705618028282066 -0.0
outer loop
vertex 3.42302268075358 -4.89312273570989 0.0
vertex 2.0 -3.46410161513776 -3.0
vertex 2.0 -3.46410161513776 0.0
endloop
endfacet
facet normal -0.5 0.866025403784439 4.55316286746808e-034
outer loop
vertex 2.0 -3.46410161513776 6.99999999999999
vertex 2.82842712474619 -2.82842712474619 0.0
vertex 2.0 -3.46410161513776 0.0
endloop
endfacet
facet normal -0.737427837164855 0.675425928562388 -2.50194537549313e-018
outer loop
vertex 2.82842712474619 -2.82842712474619 0.0
vertex 2.0 -3.46410161513776 6.99999999999999
vertex 2.82842712474619 -2.82842712474619 6.99999999999999
endloop
endfacet
facet normal -0.999997788266514 -0.00210320281505669 0.0
outer loop
vertex 1.03527618041008 -3.86370330515627 0.0
vertex 1.03951771788233 -5.88040281731475 -3.0
vertex 1.03951771788233 -5.88040281731475 0.0
endloop
endfacet
facet normal -0.999997788266514 -0.00210320281505669 0.0
outer loop
vertex 1.03951771788233 -5.88040281731475 -3.0
vertex 1.03527618041008 -3.86370330515627 0.0
vertex 1.03527618041008 -3.86370330515627 -3.0
endloop
endfacet
facet normal -0.13052619222005 0.991444861373811 -0.0
outer loop
vertex 0.51786323140796 -5.94907993333677 0.0
vertex 1.03951771788233 -5.88040281731475 -3.0
vertex 0.51786323140796 -5.94907993333677 -3.0
endloop
endfacet
facet normal -0.13052619222005 0.991444861373811 -0.0
outer loop
vertex 1.03951771788233 -5.88040281731475 -3.0
vertex 0.51786323140796 -5.94907993333677 0.0
vertex 1.03951771788233 -5.88040281731475 0.0
endloop
endfacet
facet normal 0.966468038862823 0.256786934746785 -0.0
outer loop
vertex -7.34788079488412e-016 -4.0 -3.0
vertex 0.51786323140796 -5.94907993333677 0.0
vertex 0.51786323140796 -5.94907993333677 -3.0
endloop
endfacet
facet normal 0.966468038862823 0.256786934746785 -0.0
outer loop
vertex 0.51786323140796 -5.94907993333677 0.0
vertex -7.34788079488412e-016 -4.0 -3.0
vertex -7.34788079488412e-016 -4.0 0.0
endloop
endfacet
facet normal 4.54466604677992e-016 1.0 -3.32033484304155e-019
outer loop
vertex -7.34788079488412e-016 -4.0 6.99999999999999
vertex 1.03527618041008 -3.86370330515627 0.0
vertex -7.34788079488412e-016 -4.0 0.0
endloop
endfacet
facet normal -0.300918276425547 0.953649931008794 6.06504653832606e-034
outer loop
vertex 1.03527618041008 -3.86370330515627 0.0
vertex -7.34788079488412e-016 -4.0 6.99999999999999
vertex 1.03527618041008 -3.86370330515627 6.99999999999999
endloop
endfacet
facet normal -0.867075089774581 0.498177467066107 0.0
outer loop
vertex -1.03527618041009 -3.86370330515627 0.0
vertex -2.03995265728725 -5.61233708322132 -3.0
vertex -2.03995265728725 -5.61233708322132 0.0
endloop
endfacet
facet normal -0.867075089774581 0.498177467066107 0.0
outer loop
vertex -2.03995265728725 -5.61233708322132 -3.0
vertex -1.03527618041009 -3.86370330515627 0.0
vertex -1.03527618041009 -3.86370330515627 -3.0
endloop
endfacet
facet normal 0.382683432365091 0.923879532511286 0.0
outer loop
vertex -2.52605725258319 -5.41098596711785 0.0
vertex -2.03995265728725 -5.61233708322132 -3.0
vertex -2.52605725258319 -5.41098596711785 -3.0
endloop
endfacet
facet normal 0.382683432365091 0.923879532511286 0.0
outer loop
vertex -2.03995265728725 -5.61233708322132 -3.0
vertex -2.52605725258319 -5.41098596711785 0.0
vertex -2.03995265728725 -5.61233708322132 0.0
endloop
endfacet
facet normal 0.965379340974323 -0.260850010580759 -0.0
outer loop
vertex -2.0 -3.46410161513775 -3.0
vertex -2.52605725258319 -5.41098596711785 0.0
vertex -2.52605725258319 -5.41098596711785 -3.0
endloop
endfacet
facet normal 0.965379340974323 -0.260850010580759 -0.0
outer loop
vertex -2.52605725258319 -5.41098596711785 0.0
vertex -2.0 -3.46410161513775 -3.0
vertex -2.0 -3.46410161513775 0.0
endloop
endfacet
facet normal 0.500000000000001 0.866025403784438 -1.06277165427526e-018
outer loop
vertex -2.0 -3.46410161513775 6.99999999999999
vertex -1.03527618041009 -3.86370330515627 0.0
vertex -2.0 -3.46410161513775 0.0
endloop
endfacet
facet normal 0.216222093656846 0.976344204783667 -4.42285635986285e-019
outer loop
vertex -1.03527618041009 -3.86370330515627 0.0
vertex -2.0 -3.46410161513775 6.99999999999999
vertex -1.03527618041009 -3.86370330515627 6.99999999999999
endloop
endfacet
facet normal -0.501820321200405 0.864971886959525 -0.0
outer loop
vertex -4.57281936533899 -3.84045016002749 0.0
vertex -2.82842712474619 -2.82842712474619 -3.0
vertex -4.57281936533899 -3.84045016002749 -3.0
endloop
endfacet
facet normal -0.501820321200405 0.864971886959525 -0.0
outer loop
vertex -2.82842712474619 -2.82842712474619 -3.0
vertex -4.57281936533899 -3.84045016002749 0.0
vertex -2.82842712474619 -2.82842712474619 0.0
endloop
endfacet
facet normal 0.793353340291236 0.60876142900872 0.0
outer loop
vertex -4.8931227357099 -3.42302268075357 -3.0
vertex -4.57281936533899 -3.84045016002749 0.0
vertex -4.57281936533899 -3.84045016002749 -3.0
endloop
endfacet
facet normal 0.793353340291236 0.60876142900872 0.0
outer loop
vertex -4.57281936533899 -3.84045016002749 0.0
vertex -4.8931227357099 -3.42302268075357 -3.0
vertex -4.8931227357099 -3.42302268075357 0.0
endloop
endfacet
facet normal 0.705618028282063 -0.708592406227539 0.0
outer loop
vertex -3.46410161513775 -2.0 0.0
vertex -4.8931227357099 -3.42302268075357 -3.0
vertex -3.46410161513775 -2.0 -3.0
endloop
endfacet
facet normal 0.705618028282063 -0.708592406227539 0.0
outer loop
vertex -4.8931227357099 -3.42302268075357 -3.0
vertex -3.46410161513775 -2.0 0.0
vertex -4.8931227357099 -3.42302268075357 0.0
endloop
endfacet
facet normal 0.887113687065724 0.461550979005198 -8.24289202904021e-019
outer loop
vertex -3.46410161513775 -2.0 0.0
vertex -2.82842712474619 -2.82842712474619 6.99999999999999
vertex -2.82842712474619 -2.82842712474619 0.0
endloop
endfacet
facet normal 0.707106781186548 0.707106781186547 -1.06277165427526e-018
outer loop
vertex -2.82842712474619 -2.82842712474619 6.99999999999999
vertex -3.46410161513775 -2.0 0.0
vertex -3.46410161513775 -2.0 6.99999999999999
endloop
endfacet
facet normal -0.00210320281505537 0.999997788266514 -0.0
outer loop
vertex -5.88040281731475 -1.03951771788232 0.0
vertex -3.86370330515627 -1.03527618041008 -3.0
vertex -5.88040281731475 -1.03951771788232 -3.0
endloop
endfacet
facet normal -0.00210320281505537 0.999997788266514 -0.0
outer loop
vertex -3.86370330515627 -1.03527618041008 -3.0
vertex -5.88040281731475 -1.03951771788232 0.0
vertex -3.86370330515627 -1.03527618041008 0.0
endloop
endfacet
facet normal 0.991444861373811 0.13052619222005 0.0
outer loop
vertex -5.94907993333677 -0.517863231407958 -3.0
vertex -5.88040281731475 -1.03951771788232 0.0
vertex -5.88040281731475 -1.03951771788232 -3.0
endloop
endfacet
facet normal 0.991444861373811 0.13052619222005 0.0
outer loop
vertex -5.88040281731475 -1.03951771788232 0.0
vertex -5.94907993333677 -0.517863231407958 -3.0
vertex -5.94907993333677 -0.517863231407958 0.0
endloop
endfacet
facet normal 0.256786934746784 -0.966468038862823 0.0
outer loop
vertex -4.0 4.89858719658941e-016 0.0
vertex -5.94907993333677 -0.517863231407958 -3.0
vertex -4.0 4.89858719658941e-016 -3.0
endloop
endfacet
facet normal 0.256786934746784 -0.966468038862823 0.0
outer loop
vertex -5.94907993333677 -0.517863231407958 -3.0
vertex -4.0 4.89858719658941e-016 0.0
vertex -5.94907993333677 -0.517863231407958 0.0
endloop
endfacet
facet normal 0.999038478558539 -0.0438419702960481 -6.38869063698678e-033
outer loop
vertex -4.0 4.89858719658941e-016 0.0
vertex -3.86370330515627 -1.03527618041008 6.99999999999999
vertex -3.86370330515627 -1.03527618041008 0.0
endloop
endfacet
facet normal 0.965925826289068 0.25881904510252 -6.18811902120211e-019
outer loop
vertex -3.86370330515627 -1.03527618041008 6.99999999999999
vertex -4.0 4.89858719658941e-016 0.0
vertex -4.0 4.89858719658941e-016 6.99999999999999
endloop
endfacet
facet normal 0.498177467066107 0.867075089774581 -0.0
outer loop
vertex -5.61233708322132 2.03995265728725 0.0
vertex -3.86370330515627 1.03527618041008 -3.0
vertex -5.61233708322132 2.03995265728725 -3.0
endloop
endfacet
facet normal 0.498177467066107 0.867075089774581 -0.0
outer loop
vertex -3.86370330515627 1.03527618041008 -3.0
vertex -5.61233708322132 2.03995265728725 0.0
vertex -3.86370330515627 1.03527618041008 0.0
endloop
endfacet
facet normal 0.923879532511285 -0.382683432365096 -0.0
outer loop
vertex -5.41098596711785 2.52605725258319 -3.0
vertex -5.61233708322132 2.03995265728725 0.0
vertex -5.61233708322132 2.03995265728725 -3.0
endloop
endfacet
facet normal 0.923879532511285 -0.382683432365096 -0.0
outer loop
vertex -5.61233708322132 2.03995265728725 0.0
vertex -5.41098596711785 2.52605725258319 -3.0
vertex -5.41098596711785 2.52605725258319 0.0
endloop
endfacet
facet normal 0.843271716641826 -0.53748749930761 -5.02945727278025e-033
outer loop
vertex -3.46410161513775 2.0 0.0
vertex -3.86370330515627 1.03527618041008 6.99999999999999
vertex -3.86370330515627 1.03527618041008 0.0
endloop
endfacet
facet normal 0.965925826289068 -0.258819045102521 -4.79612955914723e-033
outer loop
vertex -3.86370330515627 1.03527618041008 6.99999999999999
vertex -3.46410161513775 2.0 0.0
vertex -3.46410161513775 2.0 6.99999999999999
endloop
endfacet
facet normal 4.8505375388515e-032 1.903134459975e-031 1.0
outer loop
vertex -5.88040281731475 -1.03951771788232 -3.0
vertex -4.0 4.89858719658941e-016 -3.0
vertex -5.94907993333677 -0.517863231407958 -3.0
endloop
endfacet
facet normal 4.8505375388515e-032 1.903134459975e-031 1.0
outer loop
vertex -4.0 4.89858719658941e-016 -3.0
vertex -5.88040281731475 -1.03951771788232 -3.0
vertex -3.86370330515627 -1.03527618041008 -3.0
endloop
endfacet
facet normal 4.8505375388515e-032 1.903134459975e-031 1.0
outer loop
vertex -4.0 4.89858719658941e-016 -3.0
vertex -3.86370330515627 -1.03527618041008 -3.0
vertex -3.86370330515627 1.03527618041008 -3.0
endloop
endfacet
facet normal 4.8505375388515e-032 1.903134459975e-031 1.0
outer loop
vertex -3.86370330515627 1.03527618041008 -3.0
vertex -3.86370330515627 -1.03527618041008 -3.0
vertex -3.46410161513775 -2.0 -3.0
endloop
endfacet
facet normal 4.8505375388515e-032 1.903134459975e-031 1.0
outer loop
vertex -4.57281936533899 -3.84045016002749 -3.0
vertex -3.46410161513775 -2.0 -3.0
vertex -4.8931227357099 -3.42302268075357 -3.0
endloop
endfacet
facet normal 4.8505375388515e-032 1.903134459975e-031 1.0
outer loop
vertex -3.46410161513775 -2.0 -3.0
vertex -4.57281936533899 -3.84045016002749 -3.0
vertex -2.82842712474619 -2.82842712474619 -3.0
endloop
endfacet
facet normal 4.8505375388515e-032 1.903134459975e-031 1.0
outer loop
vertex -3.46410161513775 -2.0 -3.0
vertex -2.82842712474619 -2.82842712474619 -3.0
vertex -3.46410161513775 2.0 -3.0
endloop
endfacet
facet normal 4.8505375388515e-032 1.903134459975e-031 1.0
outer loop
vertex -3.46410161513775 2.0 -3.0
vertex -2.82842712474619 -2.82842712474619 -3.0
vertex -2.82842712474619 2.82842712474619 -3.0
endloop
endfacet
facet normal 4.8505375388515e-032 1.903134459975e-031 1.0
outer loop
vertex -2.82842712474619 2.82842712474619 -3.0
vertex -2.82842712474619 -2.82842712474619 -3.0
vertex -2.0 -3.46410161513775 -3.0
endloop
endfacet
facet normal 4.8505375388515e-032 1.903134459975e-031 1.0
outer loop
vertex 1.03951771788233 -5.88040281731475 -3.0
vertex 1.03527618041008 -3.86370330515627 -3.0
vertex 0.51786323140796 -5.94907993333677 -3.0
endloop
endfacet
facet normal 4.8505375388515e-032 1.903134459975e-031 1.0
outer loop
vertex -2.03995265728725 -5.61233708322132 -3.0
vertex -2.0 -3.46410161513775 -3.0
vertex -2.52605725258319 -5.41098596711785 -3.0
endloop
endfacet
facet normal 4.8505375388515e-032 1.903134459975e-031 1.0
outer loop
vertex -2.0 -3.46410161513775 -3.0
vertex -2.03995265728725 -5.61233708322132 -3.0
vertex -1.03527618041009 -3.86370330515627 -3.0
endloop
endfacet
facet normal 4.8505375388515e-032 1.903134459975e-031 1.0
outer loop
vertex -2.0 -3.46410161513775 -3.0
vertex -1.03527618041009 -3.86370330515627 -3.0
vertex -2.0 3.46410161513775 -3.0
endloop
endfacet
facet normal 4.8505375388515e-032 1.903134459975e-031 1.0
outer loop
vertex -2.0 3.46410161513775 -3.0
vertex -1.03527618041009 -3.86370330515627 -3.0
vertex -1.03527618041008 3.86370330515627 -3.0
endloop
endfacet
facet normal 4.8505375388515e-032 1.903134459975e-031 1.0
outer loop
vertex -1.03527618041008 3.86370330515627 -3.0
vertex -1.03527618041009 -3.86370330515627 -3.0
vertex -7.34788079488412e-016 -4.0 -3.0
endloop
endfacet
facet normal 4.8505375388515e-032 1.903134459975e-031 1.0
outer loop
vertex -1.03527618041008 3.86370330515627 -3.0
vertex -7.34788079488412e-016 -4.0 -3.0
vertex -0.517863231407961 5.94907993333677 -3.0
endloop
endfacet
facet normal 4.8505375388515e-032 1.903134459975e-031 1.0
outer loop
vertex -0.517863231407961 5.94907993333677 -3.0
vertex -7.34788079488412e-016 -4.0 -3.0
vertex 2.44929359829471e-016 4.0 -3.0
endloop
endfacet
facet normal 4.8505375388515e-032 1.903134459975e-031 1.0
outer loop
vertex 2.44929359829471e-016 4.0 -3.0
vertex -7.34788079488412e-016 -4.0 -3.0
vertex 0.51786323140796 -5.94907993333677 -3.0
endloop
endfacet
facet normal 4.8505375388515e-032 1.903134459975e-031 1.0
outer loop
vertex 2.44929359829471e-016 4.0 -3.0
vertex 0.51786323140796 -5.94907993333677 -3.0
vertex 1.03527618041008 3.86370330515627 -3.0
endloop
endfacet
facet normal 4.8505375388515e-032 1.903134459975e-031 1.0
outer loop
vertex 1.03527618041008 3.86370330515627 -3.0
vertex 0.51786323140796 -5.94907993333677 -3.0
vertex 1.03527618041008 -3.86370330515627 -3.0
endloop
endfacet
facet normal 4.8505375388515e-032 1.903134459975e-031 1.0
outer loop
vertex 1.03527618041008 3.86370330515627 -3.0
vertex 1.03527618041008 -3.86370330515627 -3.0
vertex 2.0 -3.46410161513776 -3.0
endloop
endfacet
facet normal 4.8505375388515e-032 1.903134459975e-031 1.0
outer loop
vertex 1.03527618041008 3.86370330515627 -3.0
vertex 2.0 -3.46410161513776 -3.0
vertex 2.0 3.46410161513775 -3.0
endloop
endfacet
facet normal 4.8505375388515e-032 1.903134459975e-031 1.0
outer loop
vertex 1.03527618041008 3.86370330515627 -3.0
vertex 2.0 3.46410161513775 -3.0
vertex 2.03995265728725 5.61233708322132 -3.0
endloop
endfacet
facet normal 4.8505375388515e-032 1.903134459975e-031 1.0
outer loop
vertex 2.03995265728725 5.61233708322132 -3.0
vertex 2.0 3.46410161513775 -3.0
vertex 2.52605725258319 5.41098596711785 -3.0
endloop
endfacet
facet normal 4.8505375388515e-032 1.903134459975e-031 1.0
outer loop
vertex -0.517863231407961 5.94907993333677 -3.0
vertex -1.03951771788233 5.88040281731475 -3.0
vertex -1.03527618041008 3.86370330515627 -3.0
endloop
endfacet
facet normal 4.8505375388515e-032 1.903134459975e-031 1.0
outer loop
vertex -2.82842712474619 2.82842712474619 -3.0
vertex -3.42302268075358 4.89312273570989 -3.0
vertex -3.84045016002749 4.57281936533899 -3.0
endloop
endfacet
facet normal 4.8505375388515e-032 1.903134459975e-031 1.0
outer loop
vertex -3.42302268075358 4.89312273570989 -3.0
vertex -2.82842712474619 2.82842712474619 -3.0
vertex -2.0 3.46410161513775 -3.0
endloop
endfacet
facet normal 4.8505375388515e-032 1.903134459975e-031 1.0
outer loop
vertex -2.0 3.46410161513775 -3.0
vertex -2.82842712474619 2.82842712474619 -3.0
vertex -2.0 -3.46410161513775 -3.0
endloop
endfacet
facet normal 4.8505375388515e-032 1.903134459975e-031 1.0
outer loop
vertex -3.86370330515627 1.03527618041008 -3.0
vertex -5.41098596711785 2.52605725258319 -3.0
vertex -5.61233708322132 2.03995265728725 -3.0
endloop
endfacet
facet normal 4.8505375388515e-032 1.903134459975e-031 1.0
outer loop
vertex -5.41098596711785 2.52605725258319 -3.0
vertex -3.86370330515627 1.03527618041008 -3.0
vertex -3.46410161513775 2.0 -3.0
endloop
endfacet
facet normal 4.8505375388515e-032 1.903134459975e-031 1.0
outer loop
vertex -3.46410161513775 2.0 -3.0
vertex -3.86370330515627 1.03527618041008 -3.0
vertex -3.46410161513775 -2.0 -3.0
endloop
endfacet
facet normal 4.8505375388515e-032 1.903134459975e-031 1.0
outer loop
vertex 2.0 -3.46410161513776 -3.0
vertex 2.82842712474619 -2.82842712474619 -3.0
vertex 2.0 3.46410161513775 -3.0
endloop
endfacet
facet normal 4.8505375388515e-032 1.903134459975e-031 1.0
outer loop
vertex 2.82842712474619 -2.82842712474619 -3.0
vertex 2.0 -3.46410161513776 -3.0
vertex 3.42302268075358 -4.89312273570989 -3.0
endloop
endfacet
facet normal 4.8505375388515e-032 1.903134459975e-031 1.0
outer loop
vertex 2.82842712474619 -2.82842712474619 -3.0
vertex 3.42302268075358 -4.89312273570989 -3.0
vertex 3.8404501600275 -4.57281936533899 -3.0
endloop
endfacet
facet normal 4.8505375388515e-032 1.903134459975e-031 1.0
outer loop
vertex 3.46410161513775 -2.0 -3.0
vertex 3.86370330515627 -1.03527618041009 -3.0
vertex 3.46410161513775 2.0 -3.0
endloop
endfacet
facet normal 4.8505375388515e-032 1.903134459975e-031 1.0
outer loop
vertex 3.86370330515627 -1.03527618041009 -3.0
vertex 3.46410161513775 -2.0 -3.0
vertex 5.41098596711786 -2.52605725258319 -3.0
endloop
endfacet
facet normal 4.8505375388515e-032 1.903134459975e-031 1.0
outer loop
vertex 3.86370330515627 -1.03527618041009 -3.0
vertex 5.41098596711786 -2.52605725258319 -3.0
vertex 5.61233708322132 -2.03995265728725 -3.0
endloop
endfacet
facet normal 4.8505375388515e-032 1.903134459975e-031 1.0
outer loop
vertex 3.86370330515627 -1.03527618041009 -3.0
vertex 3.86370330515627 1.03527618041008 -3.0
vertex 3.46410161513775 2.0 -3.0
endloop
endfacet
facet normal 4.8505375388515e-032 1.903134459975e-031 1.0
outer loop
vertex 3.86370330515627 1.03527618041008 -3.0
vertex 3.86370330515627 -1.03527618041009 -3.0
vertex 4.0 0.0 -3.0
endloop
endfacet
facet normal 4.8505375388515e-032 1.903134459975e-031 1.0
outer loop
vertex 3.86370330515627 1.03527618041008 -3.0
vertex 4.0 0.0 -3.0
vertex 5.88040281731475 1.03951771788233 -3.0
endloop
endfacet
facet normal 4.8505375388515e-032 1.903134459975e-031 1.0
outer loop
vertex 5.88040281731475 1.03951771788233 -3.0
vertex 4.0 0.0 -3.0
vertex 5.94907993333677 0.517863231407961 -3.0
endloop
endfacet
facet normal 4.8505375388515e-032 1.903134459975e-031 1.0
outer loop
vertex 2.82842712474619 -2.82842712474619 -3.0
vertex 2.82842712474619 2.82842712474619 -3.0
vertex 2.0 3.46410161513775 -3.0
endloop
endfacet
facet normal 4.8505375388515e-032 1.903134459975e-031 1.0
outer loop
vertex 2.82842712474619 2.82842712474619 -3.0
vertex 2.82842712474619 -2.82842712474619 -3.0
vertex 3.46410161513775 -2.0 -3.0
endloop
endfacet
facet normal 4.8505375388515e-032 1.903134459975e-031 1.0
outer loop
vertex 2.82842712474619 2.82842712474619 -3.0
vertex 3.46410161513775 -2.0 -3.0
vertex 3.46410161513775 2.0 -3.0
endloop
endfacet
facet normal 4.8505375388515e-032 1.903134459975e-031 1.0
outer loop
vertex 2.82842712474619 2.82842712474619 -3.0
vertex 3.46410161513775 2.0 -3.0
vertex 4.57281936533899 3.84045016002749 -3.0
endloop
endfacet
facet normal 4.8505375388515e-032 1.903134459975e-031 1.0
outer loop
vertex 4.57281936533899 3.84045016002749 -3.0
vertex 3.46410161513775 2.0 -3.0
vertex 4.89312273570989 3.42302268075358 -3.0
endloop
endfacet
facet normal 0.793353340291235 -0.608761429008721 -7.48684311307776e-033
outer loop
vertex -2.82842712474619 2.82842712474619 -3.0
vertex -3.46410161513775 2.0 0.0
vertex -3.46410161513775 2.0 -3.0
endloop
endfacet
facet normal 0.843271716641826 -0.53748749930761 -5.02945727278025e-033
outer loop
vertex -3.46410161513775 2.0 0.0
vertex -2.82842712474619 2.82842712474619 -3.0
vertex -3.46410161513775 2.0 6.99999999999999
endloop
endfacet
facet normal 0.866025403784439 -0.5 -3.77572339358515e-033
outer loop
vertex -3.46410161513775 2.0 6.99999999999999
vertex -2.82842712474619 2.82842712474619 -3.0
vertex -2.82842712474619 2.82842712474619 6.99999999999999
endloop
endfacet
facet normal 0.707106781186547 -0.707106781186548 -3.77572339358515e-033
outer loop
vertex -2.82842712474619 2.82842712474619 6.99999999999999
vertex -2.82842712474619 2.82842712474619 -3.0
vertex -2.82842712474619 2.82842712474619 0.0
endloop
endfacet
facet normal -0.260850010580759 -0.965379340974323 0.0
outer loop
vertex -3.46410161513775 2.0 0.0
vertex -5.41098596711785 2.52605725258319 -3.0
vertex -3.46410161513775 2.0 -3.0
endloop
endfacet
facet normal -0.260850010580759 -0.965379340974323 0.0
outer loop
vertex -5.41098596711785 2.52605725258319 -3.0
vertex -3.46410161513775 2.0 0.0
vertex -5.41098596711785 2.52605725258319 0.0
endloop
endfacet
endsolid motor-gear-v
