solid vertical-gear
facet normal 1.0 0.0 0.0
outer loop
vertex 10.0 19.0 -0.5
vertex 10.0 -4.0 16.5
vertex 10.0 -4.0 -0.500000000000001
endloop
endfacet
facet normal 1.0 0.0 0.0
outer loop
vertex 10.0 -4.0 16.5
vertex 10.0 19.0 -0.5
vertex 10.0 19.0 16.5
endloop
endfacet
facet normal -0.0 1.0 -0.0
outer loop
vertex 1.7 6.0 11.0
vertex 8.3 6.0 8.3
vertex 1.7 6.0 8.3
endloop
endfacet
facet normal -0.0 1.0 -0.0
outer loop
vertex 8.3 6.0 8.3
vertex 1.7 6.0 11.0
vertex 8.3 6.0 11.0
endloop
endfacet
facet normal -1.0 -0.0 -0.0
outer loop
vertex 8.3 19.0 11.0
vertex 8.3 6.0 8.3
vertex 8.3 6.0 11.0
endloop
endfacet
facet normal -1.0 -0.0 -0.0
outer loop
vertex 8.3 6.0 8.3
vertex 8.3 19.0 11.0
vertex 8.3 19.0 8.3
endloop
endfacet
facet normal -0.0 -0.0 -1.0
outer loop
vertex 1.7 19.0 11.0
vertex 3.5511112605664 10.8882285676538 11.0
vertex 1.7 6.0 11.0
endloop
endfacet
facet normal -0.0 -0.0 -1.0
outer loop
vertex 3.5511112605664 10.8882285676538 11.0
vertex 1.7 19.0 11.0
vertex 3.70096189432334 11.25 11.0
endloop
endfacet
facet normal -0.0 -0.0 -1.0
outer loop
vertex 3.70096189432334 11.25 11.0
vertex 1.7 19.0 11.0
vertex 8.3 19.0 11.0
endloop
endfacet
facet normal -0.0 -0.0 -1.0
outer loop
vertex 1.7 6.0 11.0
vertex 3.5511112605664 10.8882285676538 11.0
vertex 3.5 10.5 11.0
endloop
endfacet
facet normal -0.0 -0.0 -1.0
outer loop
vertex 3.70096189432334 11.25 11.0
vertex 8.3 19.0 11.0
vertex 3.93933982822018 11.5606601717798 11.0
endloop
endfacet
facet normal -0.0 -0.0 -1.0
outer loop
vertex 3.93933982822018 11.5606601717798 11.0
vertex 8.3 19.0 11.0
vertex 4.25 11.7990381056767 11.0
endloop
endfacet
facet normal -0.0 -0.0 -1.0
outer loop
vertex 4.25 11.7990381056767 11.0
vertex 8.3 19.0 11.0
vertex 4.61177143234622 11.9488887394336 11.0
endloop
endfacet
facet normal -0.0 -0.0 -1.0
outer loop
vertex 4.61177143234622 11.9488887394336 11.0
vertex 8.3 19.0 11.0
vertex 5.0 12.0 11.0
endloop
endfacet
facet normal -0.0 -0.0 -1.0
outer loop
vertex 5.0 12.0 11.0
vertex 8.3 19.0 11.0
vertex 5.38822856765378 11.9488887394336 11.0
endloop
endfacet
facet normal -0.0 -0.0 -1.0
outer loop
vertex 5.38822856765378 11.9488887394336 11.0
vertex 8.3 19.0 11.0
vertex 5.75 11.7990381056767 11.0
endloop
endfacet
facet normal -0.0 -0.0 -1.0
outer loop
vertex 5.75 11.7990381056767 11.0
vertex 8.3 19.0 11.0
vertex 6.06066017177982 11.5606601717798 11.0
endloop
endfacet
facet normal -0.0 -0.0 -1.0
outer loop
vertex 6.06066017177982 11.5606601717798 11.0
vertex 8.3 19.0 11.0
vertex 6.29903810567666 11.25 11.0
endloop
endfacet
facet normal -0.0 -0.0 -1.0
outer loop
vertex 6.29903810567666 11.25 11.0
vertex 8.3 19.0 11.0
vertex 6.4488887394336 10.8882285676538 11.0
endloop
endfacet
facet normal -0.0 -0.0 -1.0
outer loop
vertex 6.4488887394336 10.8882285676538 11.0
vertex 8.3 19.0 11.0
vertex 6.5 10.5 11.0
endloop
endfacet
facet normal -0.0 -0.0 -1.0
outer loop
vertex 1.7 6.0 11.0
vertex 3.93933982822018 9.43933982822018 11.0
vertex 8.3 6.0 11.0
endloop
endfacet
facet normal -0.0 -0.0 -1.0
outer loop
vertex 3.93933982822018 9.43933982822018 11.0
vertex 1.7 6.0 11.0
vertex 3.70096189432334 9.75 11.0
endloop
endfacet
facet normal -0.0 -0.0 -1.0
outer loop
vertex 3.70096189432334 9.75 11.0
vertex 1.7 6.0 11.0
vertex 3.5511112605664 10.1117714323462 11.0
endloop
endfacet
facet normal -0.0 -0.0 -1.0
outer loop
vertex 3.5511112605664 10.1117714323462 11.0
vertex 1.7 6.0 11.0
vertex 3.5 10.5 11.0
endloop
endfacet
facet normal -0.0 -0.0 -1.0
outer loop
vertex 8.3 6.0 11.0
vertex 3.93933982822018 9.43933982822018 11.0
vertex 4.25 9.20096189432334 11.0
endloop
endfacet
facet normal -0.0 -0.0 -1.0
outer loop
vertex 8.3 6.0 11.0
vertex 4.25 9.20096189432334 11.0
vertex 4.61177143234622 9.0511112605664 11.0
endloop
endfacet
facet normal -0.0 -0.0 -1.0
outer loop
vertex 8.3 6.0 11.0
vertex 4.61177143234622 9.0511112605664 11.0
vertex 5.0 9.0 11.0
endloop
endfacet
facet normal -0.0 -0.0 -1.0
outer loop
vertex 8.3 6.0 11.0
vertex 5.0 9.0 11.0
vertex 5.38822856765378 9.0511112605664 11.0
endloop
endfacet
facet normal -0.0 -0.0 -1.0
outer loop
vertex 8.3 6.0 11.0
vertex 5.38822856765378 9.0511112605664 11.0
vertex 5.75 9.20096189432334 11.0
endloop
endfacet
facet normal -0.0 -0.0 -1.0
outer loop
vertex 8.3 6.0 11.0
vertex 5.75 9.20096189432334 11.0
vertex 6.06066017177982 9.43933982822018 11.0
endloop
endfacet
facet normal -0.0 -0.0 -1.0
outer loop
vertex 8.3 6.0 11.0
vertex 6.06066017177982 9.43933982822018 11.0
vertex 6.29903810567666 9.75 11.0
endloop
endfacet
facet normal -0.0 -0.0 -1.0
outer loop
vertex 8.3 6.0 11.0
vertex 6.29903810567666 9.75 11.0
vertex 6.4488887394336 10.1117714323462 11.0
endloop
endfacet
facet normal -0.0 -0.0 -1.0
outer loop
vertex 8.3 6.0 11.0
vertex 6.4488887394336 10.1117714323462 11.0
vertex 6.5 10.5 11.0
endloop
endfacet
facet normal -0.0 -0.0 -1.0
outer loop
vertex 8.3 6.0 11.0
vertex 6.5 10.5 11.0
vertex 8.3 19.0 11.0
endloop
endfacet
facet normal 1.0 -0.0 -0.0
outer loop
vertex 1.7 19.0 8.3
vertex 1.7 6.0 11.0
vertex 1.7 6.0 8.3
endloop
endfacet
facet normal 1.0 -0.0 -0.0
outer loop
vertex 1.7 6.0 11.0
vertex 1.7 19.0 8.3
vertex 1.7 19.0 11.0
endloop
endfacet
facet normal 0.5 -0.866025403784439 0.0
outer loop
vertex 4.25 11.7990381056767 12.0
vertex 3.93933982822018 11.5606601717798 11.0
vertex 4.25 11.7990381056767 11.0
endloop
endfacet
facet normal 0.707106781186548 -0.707106781186547 0.0
outer loop
vertex 3.93933982822018 11.5606601717798 11.0
vertex 4.25 11.7990381056767 12.0
vertex 3.93933982822018 11.5606601717798 12.0
endloop
endfacet
facet normal -0.965925826289069 -0.25881904510252 0.0
outer loop
vertex 6.4488887394336 10.8882285676538 12.0
vertex 6.5 10.5 11.0
vertex 6.5 10.5 12.0
endloop
endfacet
facet normal -1.0 -2.22777747391173e-016 0.0
outer loop
vertex 6.5 10.5 11.0
vertex 6.4488887394336 10.8882285676538 12.0
vertex 6.4488887394336 10.8882285676538 11.0
endloop
endfacet
facet normal -1.0 -2.22777747391173e-016 0.0
outer loop
vertex 6.5 10.5 12.0
vertex 6.4488887394336 10.1117714323462 11.0
vertex 6.4488887394336 10.1117714323462 12.0
endloop
endfacet
facet normal -0.965925826289068 0.258819045102521 0.0
outer loop
vertex 6.4488887394336 10.1117714323462 11.0
vertex 6.5 10.5 12.0
vertex 6.5 10.5 11.0
endloop
endfacet
facet normal -0.707106781186547 -0.707106781186548 0.0
outer loop
vertex 6.06066017177982 11.5606601717798 12.0
vertex 5.75 11.7990381056767 11.0
vertex 6.06066017177982 11.5606601717798 11.0
endloop
endfacet
facet normal -0.5 -0.866025403784438 0.0
outer loop
vertex 5.75 11.7990381056767 11.0
vertex 6.06066017177982 11.5606601717798 12.0
vertex 5.75 11.7990381056767 12.0
endloop
endfacet
facet normal 0.25881904510252 -0.965925826289069 0.0
outer loop
vertex 4.61177143234622 11.9488887394336 12.0
vertex 4.25 11.7990381056767 11.0
vertex 4.61177143234622 11.9488887394336 11.0
endloop
endfacet
facet normal 0.5 -0.866025403784439 0.0
outer loop
vertex 4.25 11.7990381056767 11.0
vertex 4.61177143234622 11.9488887394336 12.0
vertex 4.25 11.7990381056767 12.0
endloop
endfacet
facet normal -0.258819045102522 -0.965925826289068 0.0
outer loop
vertex 5.38822856765378 11.9488887394336 12.0
vertex 5.0 12.0 11.0
vertex 5.38822856765378 11.9488887394336 11.0
endloop
endfacet
facet normal 1.24755538539057e-016 -1.0 0.0
outer loop
vertex 5.0 12.0 11.0
vertex 5.38822856765378 11.9488887394336 12.0
vertex 5.0 12.0 12.0
endloop
endfacet
facet normal -0.5 -0.866025403784438 0.0
outer loop
vertex 5.75 11.7990381056767 12.0
vertex 5.38822856765378 11.9488887394336 11.0
vertex 5.75 11.7990381056767 11.0
endloop
endfacet
facet normal -0.258819045102522 -0.965925826289068 0.0
outer loop
vertex 5.38822856765378 11.9488887394336 11.0
vertex 5.75 11.7990381056767 12.0
vertex 5.38822856765378 11.9488887394336 12.0
endloop
endfacet
facet normal -0.25881904510252 0.965925826289069 0.0
outer loop
vertex 5.38822856765378 9.0511112605664 12.0
vertex 5.75 9.20096189432334 11.0
vertex 5.38822856765378 9.0511112605664 11.0
endloop
endfacet
facet normal -0.5 0.866025403784439 0.0
outer loop
vertex 5.75 9.20096189432334 11.0
vertex 5.38822856765378 9.0511112605664 12.0
vertex 5.75 9.20096189432334 12.0
endloop
endfacet
facet normal 0.5 0.866025403784438 0.0
outer loop
vertex 4.25 9.20096189432334 12.0
vertex 4.61177143234622 9.0511112605664 11.0
vertex 4.25 9.20096189432334 11.0
endloop
endfacet
facet normal 0.258819045102521 0.965925826289068 0.0
outer loop
vertex 4.61177143234622 9.0511112605664 11.0
vertex 4.25 9.20096189432334 12.0
vertex 4.61177143234622 9.0511112605664 12.0
endloop
endfacet
facet normal 0.707106781186547 0.707106781186547 0.0
outer loop
vertex 3.93933982822018 9.43933982822018 12.0
vertex 4.25 9.20096189432334 11.0
vertex 3.93933982822018 9.43933982822018 11.0
endloop
endfacet
facet normal 0.5 0.866025403784438 0.0
outer loop
vertex 4.25 9.20096189432334 11.0
vertex 3.93933982822018 9.43933982822018 12.0
vertex 4.25 9.20096189432334 12.0
endloop
endfacet
facet normal 0.965925826289068 -0.258819045102521 0.0
outer loop
vertex 3.5511112605664 10.8882285676538 11.0
vertex 3.5 10.5 12.0
vertex 3.5 10.5 11.0
endloop
endfacet
facet normal 1.0 2.40599967182466e-016 0.0
outer loop
vertex 3.5 10.5 12.0
vertex 3.5511112605664 10.8882285676538 11.0
vertex 3.5511112605664 10.8882285676538 12.0
endloop
endfacet
facet normal 0.258819045102521 0.965925826289068 0.0
outer loop
vertex 4.61177143234622 9.0511112605664 12.0
vertex 5.0 9.0 11.0
vertex 4.61177143234622 9.0511112605664 11.0
endloop
endfacet
facet normal -2.3168885728682e-016 1.0 0.0
outer loop
vertex 5.0 9.0 11.0
vertex 4.61177143234622 9.0511112605664 12.0
vertex 5.0 9.0 12.0
endloop
endfacet
facet normal 1.0 2.40599967182466e-016 0.0
outer loop
vertex 3.5 10.5 11.0
vertex 3.5511112605664 10.1117714323462 12.0
vertex 3.5511112605664 10.1117714323462 11.0
endloop
endfacet
facet normal 0.965925826289068 0.25881904510252 0.0
outer loop
vertex 3.5511112605664 10.1117714323462 12.0
vertex 3.5 10.5 11.0
vertex 3.5 10.5 12.0
endloop
endfacet
facet normal -0.5 0.866025403784439 0.0
outer loop
vertex 5.75 9.20096189432334 12.0
vertex 6.06066017177982 9.43933982822018 11.0
vertex 5.75 9.20096189432334 11.0
endloop
endfacet
facet normal -0.707106781186547 0.707106781186548 0.0
outer loop
vertex 6.06066017177982 9.43933982822018 11.0
vertex 5.75 9.20096189432334 12.0
vertex 6.06066017177982 9.43933982822018 12.0
endloop
endfacet
facet normal -2.3168885728682e-016 1.0 0.0
outer loop
vertex 5.0 9.0 12.0
vertex 5.38822856765378 9.0511112605664 11.0
vertex 5.0 9.0 11.0
endloop
endfacet
facet normal -0.25881904510252 0.965925826289069 0.0
outer loop
vertex 5.38822856765378 9.0511112605664 11.0
vertex 5.0 9.0 12.0
vertex 5.38822856765378 9.0511112605664 12.0
endloop
endfacet
facet normal 1.24755538539057e-016 -1.0 0.0
outer loop
vertex 5.0 12.0 12.0
vertex 4.61177143234622 11.9488887394336 11.0
vertex 5.0 12.0 11.0
endloop
endfacet
facet normal 0.25881904510252 -0.965925826289069 0.0
outer loop
vertex 4.61177143234622 11.9488887394336 11.0
vertex 5.0 12.0 12.0
vertex 4.61177143234622 11.9488887394336 12.0
endloop
endfacet
facet normal -0.866025403784438 0.500000000000001 0.0
outer loop
vertex 6.29903810567666 9.75 12.0
vertex 6.06066017177982 9.43933982822018 11.0
vertex 6.06066017177982 9.43933982822018 12.0
endloop
endfacet
facet normal -0.707106781186547 0.707106781186548 0.0
outer loop
vertex 6.06066017177982 9.43933982822018 11.0
vertex 6.29903810567666 9.75 12.0
vertex 6.29903810567666 9.75 11.0
endloop
endfacet
facet normal -0.965925826289068 0.258819045102521 0.0
outer loop
vertex 6.4488887394336 10.1117714323462 12.0
vertex 6.29903810567666 9.75 11.0
vertex 6.29903810567666 9.75 12.0
endloop
endfacet
facet normal -0.866025403784438 0.500000000000001 0.0
outer loop
vertex 6.29903810567666 9.75 11.0
vertex 6.4488887394336 10.1117714323462 12.0
vertex 6.4488887394336 10.1117714323462 11.0
endloop
endfacet
facet normal -0.707106781186547 -0.707106781186548 0.0
outer loop
vertex 6.06066017177982 11.5606601717798 12.0
vertex 6.29903810567666 11.25 11.0
vertex 6.29903810567666 11.25 12.0
endloop
endfacet
facet normal -0.866025403784439 -0.5 0.0
outer loop
vertex 6.29903810567666 11.25 11.0
vertex 6.06066017177982 11.5606601717798 12.0
vertex 6.06066017177982 11.5606601717798 11.0
endloop
endfacet
facet normal 0.866025403784439 0.499999999999999 0.0
outer loop
vertex 3.70096189432334 9.75 11.0
vertex 3.93933982822018 9.43933982822018 12.0
vertex 3.93933982822018 9.43933982822018 11.0
endloop
endfacet
facet normal 0.707106781186547 0.707106781186547 0.0
outer loop
vertex 3.93933982822018 9.43933982822018 12.0
vertex 3.70096189432334 9.75 11.0
vertex 3.70096189432334 9.75 12.0
endloop
endfacet
facet normal 0.866025403784438 -0.5 0.0
outer loop
vertex 3.70096189432334 11.25 11.0
vertex 3.5511112605664 10.8882285676538 12.0
vertex 3.5511112605664 10.8882285676538 11.0
endloop
endfacet
facet normal 0.965925826289068 -0.258819045102521 0.0
outer loop
vertex 3.5511112605664 10.8882285676538 12.0
vertex 3.70096189432334 11.25 11.0
vertex 3.70096189432334 11.25 12.0
endloop
endfacet
facet normal 0.965925826289068 0.25881904510252 0.0
outer loop
vertex 3.5511112605664 10.1117714323462 11.0
vertex 3.70096189432334 9.75 12.0
vertex 3.70096189432334 9.75 11.0
endloop
endfacet
facet normal 0.866025403784439 0.499999999999999 0.0
outer loop
vertex 3.70096189432334 9.75 12.0
vertex 3.5511112605664 10.1117714323462 11.0
vertex 3.5511112605664 10.1117714323462 12.0
endloop
endfacet
facet normal -0.866025403784439 -0.5 0.0
outer loop
vertex 6.29903810567666 11.25 12.0
vertex 6.4488887394336 10.8882285676538 11.0
vertex 6.4488887394336 10.8882285676538 12.0
endloop
endfacet
facet normal -0.965925826289069 -0.25881904510252 0.0
outer loop
vertex 6.4488887394336 10.8882285676538 11.0
vertex 6.29903810567666 11.25 12.0
vertex 6.29903810567666 11.25 11.0
endloop
endfacet
facet normal 0.707106781186548 -0.707106781186547 0.0
outer loop
vertex 3.93933982822018 11.5606601717798 11.0
vertex 3.70096189432334 11.25 12.0
vertex 3.70096189432334 11.25 11.0
endloop
endfacet
facet normal 0.866025403784438 -0.5 0.0
outer loop
vertex 3.70096189432334 11.25 12.0
vertex 3.93933982822018 11.5606601717798 11.0
vertex 3.93933982822018 11.5606601717798 12.0
endloop
endfacet
facet normal -0.0 -0.0 1.0
outer loop
vertex 2.58518543427733 9.8529523872437 12.0
vertex 2.58518543427733 11.1470476127563 12.0
vertex 2.5 10.5 12.0
endloop
endfacet
facet normal -0.0 -0.0 1.0
outer loop
vertex 2.58518543427733 11.1470476127563 12.0
vertex 2.58518543427733 9.8529523872437 12.0
vertex 2.8349364905389 9.25 12.0
endloop
endfacet
facet normal -0.0 -0.0 1.0
outer loop
vertex 2.58518543427733 11.1470476127563 12.0
vertex 2.8349364905389 9.25 12.0
vertex 2.8349364905389 11.75 12.0
endloop
endfacet
facet normal -0.0 -0.0 1.0
outer loop
vertex 2.8349364905389 11.75 12.0
vertex 2.8349364905389 9.25 12.0
vertex 3.23223304703363 8.73223304703363 12.0
endloop
endfacet
facet normal -0.0 -0.0 1.0
outer loop
vertex 2.8349364905389 11.75 12.0
vertex 3.23223304703363 8.73223304703363 12.0
vertex 3.23223304703363 12.2677669529664 12.0
endloop
endfacet
facet normal -0.0 -0.0 1.0
outer loop
vertex 3.23223304703363 12.2677669529664 12.0
vertex 3.23223304703363 8.73223304703363 12.0
vertex 3.75 8.3349364905389 12.0
endloop
endfacet
facet normal -0.0 -0.0 1.0
outer loop
vertex 3.23223304703363 12.2677669529664 12.0
vertex 3.75 8.3349364905389 12.0
vertex 3.5 10.5 12.0
endloop
endfacet
facet normal -0.0 -0.0 1.0
outer loop
vertex 3.5 10.5 12.0
vertex 3.75 8.3349364905389 12.0
vertex 3.5511112605664 10.1117714323462 12.0
endloop
endfacet
facet normal -0.0 -0.0 1.0
outer loop
vertex 3.5511112605664 10.1117714323462 12.0
vertex 3.75 8.3349364905389 12.0
vertex 3.70096189432334 9.75 12.0
endloop
endfacet
facet normal -0.0 -0.0 1.0
outer loop
vertex 3.70096189432334 9.75 12.0
vertex 3.75 8.3349364905389 12.0
vertex 3.93933982822018 9.43933982822018 12.0
endloop
endfacet
facet normal -0.0 -0.0 1.0
outer loop
vertex 3.93933982822018 9.43933982822018 12.0
vertex 3.75 8.3349364905389 12.0
vertex 4.3529523872437 8.08518543427733 12.0
endloop
endfacet
facet normal -0.0 -0.0 1.0
outer loop
vertex 3.93933982822018 9.43933982822018 12.0
vertex 4.3529523872437 8.08518543427733 12.0
vertex 4.25 9.20096189432334 12.0
endloop
endfacet
facet normal -0.0 -0.0 1.0
outer loop
vertex 4.25 9.20096189432334 12.0
vertex 4.3529523872437 8.08518543427733 12.0
vertex 4.61177143234622 9.0511112605664 12.0
endloop
endfacet
facet normal -0.0 -0.0 1.0
outer loop
vertex 4.61177143234622 9.0511112605664 12.0
vertex 4.3529523872437 8.08518543427733 12.0
vertex 5.0 8.0 12.0
endloop
endfacet
facet normal -0.0 -0.0 1.0
outer loop
vertex 4.61177143234622 9.0511112605664 12.0
vertex 5.0 8.0 12.0
vertex 5.0 9.0 12.0
endloop
endfacet
facet normal -0.0 -0.0 1.0
outer loop
vertex 5.0 9.0 12.0
vertex 5.0 8.0 12.0
vertex 5.6470476127563 8.08518543427733 12.0
endloop
endfacet
facet normal -0.0 -0.0 1.0
outer loop
vertex 5.0 9.0 12.0
vertex 5.6470476127563 8.08518543427733 12.0
vertex 5.38822856765378 9.0511112605664 12.0
endloop
endfacet
facet normal -0.0 -0.0 1.0
outer loop
vertex 5.38822856765378 9.0511112605664 12.0
vertex 5.6470476127563 8.08518543427733 12.0
vertex 5.75 9.20096189432334 12.0
endloop
endfacet
facet normal -0.0 -0.0 1.0
outer loop
vertex 5.75 9.20096189432334 12.0
vertex 5.6470476127563 8.08518543427733 12.0
vertex 6.25 8.3349364905389 12.0
endloop
endfacet
facet normal -0.0 -0.0 1.0
outer loop
vertex 5.75 9.20096189432334 12.0
vertex 6.25 8.3349364905389 12.0
vertex 6.06066017177982 9.43933982822018 12.0
endloop
endfacet
facet normal -0.0 -0.0 1.0
outer loop
vertex 6.06066017177982 9.43933982822018 12.0
vertex 6.25 8.3349364905389 12.0
vertex 6.29903810567666 9.75 12.0
endloop
endfacet
facet normal -0.0 -0.0 1.0
outer loop
vertex 6.29903810567666 9.75 12.0
vertex 6.25 8.3349364905389 12.0
vertex 6.76776695296637 8.73223304703363 12.0
endloop
endfacet
facet normal -0.0 -0.0 1.0
outer loop
vertex 6.29903810567666 9.75 12.0
vertex 6.76776695296637 8.73223304703363 12.0
vertex 6.4488887394336 10.1117714323462 12.0
endloop
endfacet
facet normal -0.0 -0.0 1.0
outer loop
vertex 6.4488887394336 10.1117714323462 12.0
vertex 6.76776695296637 8.73223304703363 12.0
vertex 6.5 10.5 12.0
endloop
endfacet
facet normal -0.0 -0.0 1.0
outer loop
vertex 3.5 10.5 12.0
vertex 3.75 12.6650635094611 12.0
vertex 3.23223304703363 12.2677669529664 12.0
endloop
endfacet
facet normal -0.0 -0.0 1.0
outer loop
vertex 3.75 12.6650635094611 12.0
vertex 3.5 10.5 12.0
vertex 3.5511112605664 10.8882285676538 12.0
endloop
endfacet
facet normal -0.0 -0.0 1.0
outer loop
vertex 3.75 12.6650635094611 12.0
vertex 3.5511112605664 10.8882285676538 12.0
vertex 3.70096189432334 11.25 12.0
endloop
endfacet
facet normal -0.0 -0.0 1.0
outer loop
vertex 3.75 12.6650635094611 12.0
vertex 3.70096189432334 11.25 12.0
vertex 3.93933982822018 11.5606601717798 12.0
endloop
endfacet
facet normal -0.0 -0.0 1.0
outer loop
vertex 3.75 12.6650635094611 12.0
vertex 3.93933982822018 11.5606601717798 12.0
vertex 4.3529523872437 12.9148145657227 12.0
endloop
endfacet
facet normal -0.0 -0.0 1.0
outer loop
vertex 4.3529523872437 12.9148145657227 12.0
vertex 3.93933982822018 11.5606601717798 12.0
vertex 4.25 11.7990381056767 12.0
endloop
endfacet
facet normal -0.0 -0.0 1.0
outer loop
vertex 4.3529523872437 12.9148145657227 12.0
vertex 4.25 11.7990381056767 12.0
vertex 4.61177143234622 11.9488887394336 12.0
endloop
endfacet
facet normal -0.0 -0.0 1.0
outer loop
vertex 4.3529523872437 12.9148145657227 12.0
vertex 4.61177143234622 11.9488887394336 12.0
vertex 5.0 13.0 12.0
endloop
endfacet
facet normal -0.0 -0.0 1.0
outer loop
vertex 5.0 13.0 12.0
vertex 4.61177143234622 11.9488887394336 12.0
vertex 5.0 12.0 12.0
endloop
endfacet
facet normal -0.0 -0.0 1.0
outer loop
vertex 5.0 13.0 12.0
vertex 5.0 12.0 12.0
vertex 5.38822856765378 11.9488887394336 12.0
endloop
endfacet
facet normal -0.0 -0.0 1.0
outer loop
vertex 5.0 13.0 12.0
vertex 5.38822856765378 11.9488887394336 12.0
vertex 5.6470476127563 12.9148145657227 12.0
endloop
endfacet
facet normal -0.0 -0.0 1.0
outer loop
vertex 5.6470476127563 12.9148145657227 12.0
vertex 5.38822856765378 11.9488887394336 12.0
vertex 5.75 11.7990381056767 12.0
endloop
endfacet
facet normal -0.0 -0.0 1.0
outer loop
vertex 5.6470476127563 12.9148145657227 12.0
vertex 5.75 11.7990381056767 12.0
vertex 6.25 12.6650635094611 12.0
endloop
endfacet
facet normal -0.0 -0.0 1.0
outer loop
vertex 6.25 12.6650635094611 12.0
vertex 5.75 11.7990381056767 12.0
vertex 6.06066017177982 11.5606601717798 12.0
endloop
endfacet
facet normal -0.0 -0.0 1.0
outer loop
vertex 6.25 12.6650635094611 12.0
vertex 6.06066017177982 11.5606601717798 12.0
vertex 6.29903810567666 11.25 12.0
endloop
endfacet
facet normal -0.0 -0.0 1.0
outer loop
vertex 6.25 12.6650635094611 12.0
vertex 6.29903810567666 11.25 12.0
vertex 6.76776695296637 12.2677669529664 12.0
endloop
endfacet
facet normal -0.0 -0.0 1.0
outer loop
vertex 6.76776695296637 12.2677669529664 12.0
vertex 6.29903810567666 11.25 12.0
vertex 6.4488887394336 10.8882285676538 12.0
endloop
endfacet
facet normal -0.0 -0.0 1.0
outer loop
vertex 6.76776695296637 12.2677669529664 12.0
vertex 6.4488887394336 10.8882285676538 12.0
vertex 6.5 10.5 12.0
endloop
endfacet
facet normal -0.0 -0.0 1.0
outer loop
vertex 6.76776695296637 12.2677669529664 12.0
vertex 6.5 10.5 12.0
vertex 6.76776695296637 8.73223304703363 12.0
endloop
endfacet
facet normal -0.0 -0.0 1.0
outer loop
vertex 6.76776695296637 12.2677669529664 12.0
vertex 6.76776695296637 8.73223304703363 12.0
vertex 7.1650635094611 9.25 12.0
endloop
endfacet
facet normal -0.0 -0.0 1.0
outer loop
vertex 6.76776695296637 12.2677669529664 12.0
vertex 7.1650635094611 9.25 12.0
vertex 7.1650635094611 11.75 12.0
endloop
endfacet
facet normal -0.0 -0.0 1.0
outer loop
vertex 7.1650635094611 11.75 12.0
vertex 7.1650635094611 9.25 12.0
vertex 7.41481456572267 9.8529523872437 12.0
endloop
endfacet
facet normal -0.0 -0.0 1.0
outer loop
vertex 7.1650635094611 11.75 12.0
vertex 7.41481456572267 9.8529523872437 12.0
vertex 7.41481456572267 11.1470476127563 12.0
endloop
endfacet
facet normal -0.0 -0.0 1.0
outer loop
vertex 7.41481456572267 11.1470476127563 12.0
vertex 7.41481456572267 9.8529523872437 12.0
vertex 7.5 10.5 12.0
endloop
endfacet
facet normal -0.5 -0.866025403784438 0.0
outer loop
vertex 6.25 12.6650635094611 16.5
vertex 5.6470476127563 12.9148145657227 12.0
vertex 6.25 12.6650635094611 12.0
endloop
endfacet
facet normal -0.258819045102522 -0.965925826289068 0.0
outer loop
vertex 5.6470476127563 12.9148145657227 12.0
vertex 6.25 12.6650635094611 16.5
vertex 5.6470476127563 12.9148145657227 16.5
endloop
endfacet
facet normal -0.707106781186547 -0.707106781186548 0.0
outer loop
vertex 6.76776695296637 12.2677669529664 16.5
vertex 6.25 12.6650635094611 12.0
vertex 6.76776695296637 12.2677669529664 12.0
endloop
endfacet
facet normal -0.5 -0.866025403784438 0.0
outer loop
vertex 6.25 12.6650635094611 12.0
vertex 6.76776695296637 12.2677669529664 16.5
vertex 6.25 12.6650635094611 16.5
endloop
endfacet
facet normal -0.707106781186547 -0.707106781186548 0.0
outer loop
vertex 6.76776695296637 12.2677669529664 16.5
vertex 7.1650635094611 11.75 12.0
vertex 7.1650635094611 11.75 16.5
endloop
endfacet
facet normal -0.866025403784439 -0.5 0.0
outer loop
vertex 7.1650635094611 11.75 12.0
vertex 6.76776695296637 12.2677669529664 16.5
vertex 6.76776695296637 12.2677669529664 12.0
endloop
endfacet
facet normal -0.866025403784439 -0.5 0.0
outer loop
vertex 7.1650635094611 11.75 16.5
vertex 7.41481456572267 11.1470476127563 12.0
vertex 7.41481456572267 11.1470476127563 16.5
endloop
endfacet
facet normal -0.965925826289068 -0.25881904510252 0.0
outer loop
vertex 7.41481456572267 11.1470476127563 12.0
vertex 7.1650635094611 11.75 16.5
vertex 7.1650635094611 11.75 12.0
endloop
endfacet
facet normal -0.965925826289068 -0.25881904510252 0.0
outer loop
vertex 7.41481456572267 11.1470476127563 16.5
vertex 7.5 10.5 12.0
vertex 7.5 10.5 16.5
endloop
endfacet
facet normal -1.0 -2.94066626556348e-016 0.0
outer loop
vertex 7.5 10.5 12.0
vertex 7.41481456572267 11.1470476127563 16.5
vertex 7.41481456572267 11.1470476127563 12.0
endloop
endfacet
facet normal -1.0 -2.94066626556348e-016 0.0
outer loop
vertex 7.5 10.5 16.5
vertex 7.41481456572267 9.8529523872437 12.0
vertex 7.41481456572267 9.8529523872437 16.5
endloop
endfacet
facet normal -0.965925826289068 0.258819045102522 0.0
outer loop
vertex 7.41481456572267 9.8529523872437 12.0
vertex 7.5 10.5 16.5
vertex 7.5 10.5 12.0
endloop
endfacet
facet normal -0.965925826289068 0.258819045102522 0.0
outer loop
vertex 7.41481456572267 9.8529523872437 16.5
vertex 7.1650635094611 9.25 12.0
vertex 7.1650635094611 9.25 16.5
endloop
endfacet
facet normal -0.866025403784438 0.500000000000001 0.0
outer loop
vertex 7.1650635094611 9.25 12.0
vertex 7.41481456572267 9.8529523872437 16.5
vertex 7.41481456572267 9.8529523872437 12.0
endloop
endfacet
facet normal -0.866025403784438 0.500000000000001 0.0
outer loop
vertex 7.1650635094611 9.25 16.5
vertex 6.76776695296637 8.73223304703363 12.0
vertex 6.76776695296637 8.73223304703363 16.5
endloop
endfacet
facet normal -0.707106781186548 0.707106781186547 0.0
outer loop
vertex 6.76776695296637 8.73223304703363 12.0
vertex 7.1650635094611 9.25 16.5
vertex 7.1650635094611 9.25 12.0
endloop
endfacet
facet normal -0.5 0.866025403784439 0.0
outer loop
vertex 6.25 8.3349364905389 16.5
vertex 6.76776695296637 8.73223304703363 12.0
vertex 6.25 8.3349364905389 12.0
endloop
endfacet
facet normal -0.707106781186548 0.707106781186547 0.0
outer loop
vertex 6.76776695296637 8.73223304703363 12.0
vertex 6.25 8.3349364905389 16.5
vertex 6.76776695296637 8.73223304703363 16.5
endloop
endfacet
facet normal -0.25881904510252 0.965925826289069 0.0
outer loop
vertex 5.6470476127563 8.08518543427733 16.5
vertex 6.25 8.3349364905389 12.0
vertex 5.6470476127563 8.08518543427733 12.0
endloop
endfacet
facet normal -0.5 0.866025403784439 0.0
outer loop
vertex 6.25 8.3349364905389 12.0
vertex 5.6470476127563 8.08518543427733 16.5
vertex 6.25 8.3349364905389 16.5
endloop
endfacet
facet normal 8.55466549982103e-016 1.0 0.0
outer loop
vertex 5.0 8.0 16.5
vertex 5.6470476127563 8.08518543427733 12.0
vertex 5.0 8.0 12.0
endloop
endfacet
facet normal -0.25881904510252 0.965925826289069 0.0
outer loop
vertex 5.6470476127563 8.08518543427733 12.0
vertex 5.0 8.0 16.5
vertex 5.6470476127563 8.08518543427733 16.5
endloop
endfacet
facet normal 0.258819045102522 0.965925826289068 0.0
outer loop
vertex 4.3529523872437 8.08518543427733 16.5
vertex 5.0 8.0 12.0
vertex 4.3529523872437 8.08518543427733 12.0
endloop
endfacet
facet normal 8.55466549982103e-016 1.0 0.0
outer loop
vertex 5.0 8.0 12.0
vertex 4.3529523872437 8.08518543427733 16.5
vertex 5.0 8.0 16.5
endloop
endfacet
facet normal 0.500000000000001 0.866025403784438 0.0
outer loop
vertex 3.75 8.3349364905389 16.5
vertex 4.3529523872437 8.08518543427733 12.0
vertex 3.75 8.3349364905389 12.0
endloop
endfacet
facet normal 0.258819045102522 0.965925826289068 0.0
outer loop
vertex 4.3529523872437 8.08518543427733 12.0
vertex 3.75 8.3349364905389 16.5
vertex 4.3529523872437 8.08518543427733 16.5
endloop
endfacet
facet normal 0.707106781186547 0.707106781186547 0.0
outer loop
vertex 3.23223304703363 8.73223304703363 16.5
vertex 3.75 8.3349364905389 12.0
vertex 3.23223304703363 8.73223304703363 12.0
endloop
endfacet
facet normal 0.500000000000001 0.866025403784438 0.0
outer loop
vertex 3.75 8.3349364905389 12.0
vertex 3.23223304703363 8.73223304703363 16.5
vertex 3.75 8.3349364905389 16.5
endloop
endfacet
facet normal 0.866025403784439 0.5 0.0
outer loop
vertex 2.8349364905389 9.25 12.0
vertex 3.23223304703363 8.73223304703363 16.5
vertex 3.23223304703363 8.73223304703363 12.0
endloop
endfacet
facet normal 0.707106781186547 0.707106781186547 0.0
outer loop
vertex 3.23223304703363 8.73223304703363 16.5
vertex 2.8349364905389 9.25 12.0
vertex 2.8349364905389 9.25 16.5
endloop
endfacet
facet normal 0.965925826289068 0.25881904510252 0.0
outer loop
vertex 2.58518543427733 9.8529523872437 12.0
vertex 2.8349364905389 9.25 16.5
vertex 2.8349364905389 9.25 12.0
endloop
endfacet
facet normal 0.866025403784439 0.5 0.0
outer loop
vertex 2.8349364905389 9.25 16.5
vertex 2.58518543427733 9.8529523872437 12.0
vertex 2.58518543427733 9.8529523872437 16.5
endloop
endfacet
facet normal 1.0 -1.33666648434704e-016 0.0
outer loop
vertex 2.5 10.5 12.0
vertex 2.58518543427733 9.8529523872437 16.5
vertex 2.58518543427733 9.8529523872437 12.0
endloop
endfacet
facet normal 0.965925826289068 0.25881904510252 0.0
outer loop
vertex 2.58518543427733 9.8529523872437 16.5
vertex 2.5 10.5 12.0
vertex 2.5 10.5 16.5
endloop
endfacet
facet normal 0.965925826289068 -0.258819045102521 0.0
outer loop
vertex 2.58518543427733 11.1470476127563 12.0
vertex 2.5 10.5 16.5
vertex 2.5 10.5 12.0
endloop
endfacet
facet normal 1.0 -1.33666648434704e-016 0.0
outer loop
vertex 2.5 10.5 16.5
vertex 2.58518543427733 11.1470476127563 12.0
vertex 2.58518543427733 11.1470476127563 16.5
endloop
endfacet
facet normal 0.866025403784438 -0.5 0.0
outer loop
vertex 2.8349364905389 11.75 12.0
vertex 2.58518543427733 11.1470476127563 16.5
vertex 2.58518543427733 11.1470476127563 12.0
endloop
endfacet
facet normal 0.965925826289068 -0.258819045102521 0.0
outer loop
vertex 2.58518543427733 11.1470476127563 16.5
vertex 2.8349364905389 11.75 12.0
vertex 2.8349364905389 11.75 16.5
endloop
endfacet
facet normal 0.707106781186547 -0.707106781186548 0.0
outer loop
vertex 3.23223304703363 12.2677669529664 12.0
vertex 2.8349364905389 11.75 16.5
vertex 2.8349364905389 11.75 12.0
endloop
endfacet
facet normal 0.866025403784438 -0.5 0.0
outer loop
vertex 2.8349364905389 11.75 16.5
vertex 3.23223304703363 12.2677669529664 12.0
vertex 3.23223304703363 12.2677669529664 16.5
endloop
endfacet
facet normal 0.500000000000001 -0.866025403784438 0.0
outer loop
vertex 3.75 12.6650635094611 16.5
vertex 3.23223304703363 12.2677669529664 12.0
vertex 3.75 12.6650635094611 12.0
endloop
endfacet
facet normal 0.707106781186547 -0.707106781186548 0.0
outer loop
vertex 3.23223304703363 12.2677669529664 12.0
vertex 3.75 12.6650635094611 16.5
vertex 3.23223304703363 12.2677669529664 16.5
endloop
endfacet
facet normal 0.258819045102522 -0.965925826289068 0.0
outer loop
vertex 4.3529523872437 12.9148145657227 16.5
vertex 3.75 12.6650635094611 12.0
vertex 4.3529523872437 12.9148145657227 12.0
endloop
endfacet
facet normal 0.500000000000001 -0.866025403784438 0.0
outer loop
vertex 3.75 12.6650635094611 12.0
vertex 4.3529523872437 12.9148145657227 16.5
vertex 3.75 12.6650635094611 16.5
endloop
endfacet
facet normal 1.51488868225997e-016 -1.0 0.0
outer loop
vertex 5.0 13.0 16.5
vertex 4.3529523872437 12.9148145657227 12.0
vertex 5.0 13.0 12.0
endloop
endfacet
facet normal 0.258819045102522 -0.965925826289068 0.0
outer loop
vertex 4.3529523872437 12.9148145657227 12.0
vertex 5.0 13.0 16.5
vertex 4.3529523872437 12.9148145657227 16.5
endloop
endfacet
facet normal -0.258819045102522 -0.965925826289068 0.0
outer loop
vertex 5.6470476127563 12.9148145657227 16.5
vertex 5.0 13.0 12.0
vertex 5.6470476127563 12.9148145657227 12.0
endloop
endfacet
facet normal 1.51488868225997e-016 -1.0 0.0
outer loop
vertex 5.0 13.0 12.0
vertex 5.6470476127563 12.9148145657227 16.5
vertex 5.0 13.0 16.5
endloop
endfacet
facet normal -0.0 -0.0 1.0
outer loop
vertex 0.2 -4.00000000000001 16.5
vertex 2.58518543427733 9.8529523872437 16.5
vertex 2.5 10.5 16.5
endloop
endfacet
facet normal -0.0 -0.0 1.0
outer loop
vertex 2.58518543427733 9.8529523872437 16.5
vertex 0.2 -4.00000000000001 16.5
vertex 2.8349364905389 9.25 16.5
endloop
endfacet
facet normal -0.0 -0.0 1.0
outer loop
vertex 2.8349364905389 9.25 16.5
vertex 0.2 -4.00000000000001 16.5
vertex 10.0 -4.0 16.5
endloop
endfacet
facet normal -0.0 -0.0 1.0
outer loop
vertex 2.8349364905389 9.25 16.5
vertex 10.0 -4.0 16.5
vertex 3.23223304703363 8.73223304703363 16.5
endloop
endfacet
facet normal -0.0 -0.0 1.0
outer loop
vertex 3.23223304703363 8.73223304703363 16.5
vertex 10.0 -4.0 16.5
vertex 3.75 8.3349364905389 16.5
endloop
endfacet
facet normal -0.0 -0.0 1.0
outer loop
vertex 3.75 8.3349364905389 16.5
vertex 10.0 -4.0 16.5
vertex 4.3529523872437 8.08518543427733 16.5
endloop
endfacet
facet normal -0.0 -0.0 1.0
outer loop
vertex 4.3529523872437 8.08518543427733 16.5
vertex 10.0 -4.0 16.5
vertex 5.0 8.0 16.5
endloop
endfacet
facet normal -0.0 -0.0 1.0
outer loop
vertex 5.0 8.0 16.5
vertex 10.0 -4.0 16.5
vertex 5.6470476127563 8.08518543427733 16.5
endloop
endfacet
facet normal -0.0 -0.0 1.0
outer loop
vertex 5.6470476127563 8.08518543427733 16.5
vertex 10.0 -4.0 16.5
vertex 6.25 8.3349364905389 16.5
endloop
endfacet
facet normal -0.0 -0.0 1.0
outer loop
vertex 6.25 8.3349364905389 16.5
vertex 10.0 -4.0 16.5
vertex 6.76776695296637 8.73223304703363 16.5
endloop
endfacet
facet normal -0.0 -0.0 1.0
outer loop
vertex 6.76776695296637 8.73223304703363 16.5
vertex 10.0 -4.0 16.5
vertex 7.1650635094611 9.25 16.5
endloop
endfacet
facet normal -0.0 -0.0 1.0
outer loop
vertex 7.1650635094611 9.25 16.5
vertex 10.0 -4.0 16.5
vertex 7.41481456572267 9.8529523872437 16.5
endloop
endfacet
facet normal -0.0 -0.0 1.0
outer loop
vertex 7.41481456572267 9.8529523872437 16.5
vertex 10.0 -4.0 16.5
vertex 7.5 10.5 16.5
endloop
endfacet
facet normal -0.0 -0.0 1.0
outer loop
vertex 7.5 10.5 16.5
vertex 10.0 -4.0 16.5
vertex 10.0 19.0 16.5
endloop
endfacet
facet normal -0.0 -0.0 1.0
outer loop
vertex 0.199999999999998 19.0 16.5
vertex 3.23223304703363 12.2677669529664 16.5
vertex 10.0 19.0 16.5
endloop
endfacet
facet normal -0.0 -0.0 1.0
outer loop
vertex 3.23223304703363 12.2677669529664 16.5
vertex 0.199999999999998 19.0 16.5
vertex 2.8349364905389 11.75 16.5
endloop
endfacet
facet normal -0.0 -0.0 1.0
outer loop
vertex 2.8349364905389 11.75 16.5
vertex 0.199999999999998 19.0 16.5
vertex 2.58518543427733 11.1470476127563 16.5
endloop
endfacet
facet normal -0.0 -0.0 1.0
outer loop
vertex 2.58518543427733 11.1470476127563 16.5
vertex 0.199999999999998 19.0 16.5
vertex 0.2 -4.00000000000001 16.5
endloop
endfacet
facet normal -0.0 -0.0 1.0
outer loop
vertex 2.58518543427733 11.1470476127563 16.5
vertex 0.2 -4.00000000000001 16.5
vertex 2.5 10.5 16.5
endloop
endfacet
facet normal -0.0 -0.0 1.0
outer loop
vertex 10.0 19.0 16.5
vertex 3.23223304703363 12.2677669529664 16.5
vertex 3.75 12.6650635094611 16.5
endloop
endfacet
facet normal -0.0 -0.0 1.0
outer loop
vertex 10.0 19.0 16.5
vertex 3.75 12.6650635094611 16.5
vertex 4.3529523872437 12.9148145657227 16.5
endloop
endfacet
facet normal -0.0 -0.0 1.0
outer loop
vertex 10.0 19.0 16.5
vertex 4.3529523872437 12.9148145657227 16.5
vertex 5.0 13.0 16.5
endloop
endfacet
facet normal -0.0 -0.0 1.0
outer loop
vertex 10.0 19.0 16.5
vertex 5.0 13.0 16.5
vertex 5.6470476127563 12.9148145657227 16.5
endloop
endfacet
facet normal -0.0 -0.0 1.0
outer loop
vertex 10.0 19.0 16.5
vertex 5.6470476127563 12.9148145657227 16.5
vertex 6.25 12.6650635094611 16.5
endloop
endfacet
facet normal -0.0 -0.0 1.0
outer loop
vertex 10.0 19.0 16.5
vertex 6.25 12.6650635094611 16.5
vertex 6.76776695296637 12.2677669529664 16.5
endloop
endfacet
facet normal -0.0 -0.0 1.0
outer loop
vertex 10.0 19.0 16.5
vertex 6.76776695296637 12.2677669529664 16.5
vertex 7.1650635094611 11.75 16.5
endloop
endfacet
facet normal -0.0 -0.0 1.0
outer loop
vertex 10.0 19.0 16.5
vertex 7.1650635094611 11.75 16.5
vertex 7.41481456572267 11.1470476127563 16.5
endloop
endfacet
facet normal -0.0 -0.0 1.0
outer loop
vertex 10.0 19.0 16.5
vertex 7.41481456572267 11.1470476127563 16.5
vertex 7.5 10.5 16.5
endloop
endfacet
facet normal -1.0 -1.0719130577269e-014 0.0
outer loop
vertex -1.80000000000005 12.489805970016 10.0
vertex -1.80000000000004 11.9636501475414 -0.5
vertex -1.80000000000004 11.9636501475414 10.0
endloop
endfacet
facet normal -1.0 -1.0719130577269e-014 0.0
outer loop
vertex -1.80000000000004 11.9636501475414 -0.5
vertex -1.80000000000005 12.489805970016 10.0
vertex -1.80000000000005 12.489805970016 -0.5
endloop
endfacet
facet normal -1.0 -2.14382611545381e-014 0.0
outer loop
vertex -1.80000000000004 9.56365014754136 10.0
vertex -1.80000000000003 9.03749432506675 -0.5
vertex -1.80000000000003 9.03749432506675 10.0
endloop
endfacet
facet normal -1.0 -2.14382611545381e-014 0.0
outer loop
vertex -1.80000000000003 9.03749432506675 -0.5
vertex -1.80000000000004 9.56365014754136 10.0
vertex -1.80000000000004 9.56365014754136 -0.5
endloop
endfacet
facet normal -1.0 -1.0719130577269e-014 0.0
outer loop
vertex -1.80000000000003 6.63749432506675 10.0
vertex -1.80000000000003 6.11133850259213 -0.5
vertex -1.80000000000003 6.11133850259213 10.0
endloop
endfacet
facet normal -1.0 -1.0719130577269e-014 0.0
outer loop
vertex -1.80000000000003 6.11133850259213 -0.5
vertex -1.80000000000003 6.63749432506675 10.0
vertex -1.80000000000003 6.63749432506675 -0.5
endloop
endfacet
facet normal -1.0 -2.14382611545381e-014 0.0
outer loop
vertex -1.80000000000003 3.71133850259213 10.0
vertex -1.80000000000002 3.18518268011752 -0.5
vertex -1.80000000000002 3.18518268011752 10.0
endloop
endfacet
facet normal -1.0 -2.14382611545381e-014 0.0
outer loop
vertex -1.80000000000002 3.18518268011752 -0.5
vertex -1.80000000000003 3.71133850259213 10.0
vertex -1.80000000000003 3.71133850259213 -0.5
endloop
endfacet
facet normal -1.0 -1.0719130577269e-014 0.0
outer loop
vertex -1.80000000000002 0.785182680117516 10.0
vertex -1.80000000000001 0.2590268576429 -0.5
vertex -1.80000000000001 0.2590268576429 10.0
endloop
endfacet
facet normal -1.0 -1.0719130577269e-014 0.0
outer loop
vertex -1.80000000000001 0.2590268576429 -0.5
vertex -1.80000000000002 0.785182680117516 10.0
vertex -1.80000000000002 0.785182680117516 -0.5
endloop
endfacet
facet normal -0.128440693907485 0.991717191616927 -1.67651877616237e-033
outer loop
vertex -1.80000000000002 0.785182680117516 10.0
vertex 0.200000000000002 1.04420953776041 -0.5
vertex -1.80000000000002 0.785182680117516 -0.5
endloop
endfacet
facet normal -0.128440693907485 0.991717191616927 -1.67651877616237e-033
outer loop
vertex 0.200000000000002 1.04420953776041 -0.5
vertex -1.80000000000002 0.785182680117516 10.0
vertex 0.200000000000002 1.04420953776041 10.0
endloop
endfacet
facet normal -0.128440693907487 -0.991717191616926 0.0
outer loop
vertex 0.199999999999991 2.92615582247462 10.0
vertex -1.80000000000002 3.18518268011752 -0.5
vertex 0.199999999999991 2.92615582247462 -0.5
endloop
endfacet
facet normal -0.128440693907487 -0.991717191616926 0.0
outer loop
vertex -1.80000000000002 3.18518268011752 -0.5
vertex 0.199999999999991 2.92615582247462 10.0
vertex -1.80000000000002 3.18518268011752 10.0
endloop
endfacet
facet normal 0.0 1.0 0.0
outer loop
vertex 0.2 19.0 -0.5
vertex 3.25 19.0 3.25
vertex 10.0 19.0 -0.5
endloop
endfacet
facet normal 0.0 1.0 0.0
outer loop
vertex 3.25 19.0 3.25
vertex 0.2 19.0 -0.5
vertex 1.7 19.0 8.3
endloop
endfacet
facet normal 0.0 1.0 0.0
outer loop
vertex 1.7 19.0 8.3
vertex 0.2 19.0 -0.5
vertex 0.199999999999998 19.0 16.5
endloop
endfacet
facet normal 0.0 1.0 0.0
outer loop
vertex 3.25 19.0 3.25
vertex 1.7 19.0 8.3
vertex 3.25 19.0 6.75
endloop
endfacet
facet normal 0.0 1.0 0.0
outer loop
vertex 3.25 19.0 6.75
vertex 1.7 19.0 8.3
vertex 6.75 19.0 6.75
endloop
endfacet
facet normal 0.0 1.0 0.0
outer loop
vertex 1.7 19.0 8.3
vertex 0.199999999999998 19.0 16.5
vertex 1.7 19.0 11.0
endloop
endfacet
facet normal 0.0 1.0 0.0
outer loop
vertex 1.7 19.0 11.0
vertex 0.199999999999998 19.0 16.5
vertex 8.3 19.0 11.0
endloop
endfacet
facet normal 0.0 1.0 0.0
outer loop
vertex 10.0 19.0 -0.5
vertex 8.3 19.0 8.3
vertex 10.0 19.0 16.5
endloop
endfacet
facet normal 0.0 1.0 0.0
outer loop
vertex 8.3 19.0 8.3
vertex 10.0 19.0 -0.5
vertex 6.75 19.0 3.25
endloop
endfacet
facet normal 0.0 1.0 0.0
outer loop
vertex 6.75 19.0 3.25
vertex 10.0 19.0 -0.5
vertex 3.25 19.0 3.25
endloop
endfacet
facet normal 0.0 1.0 0.0
outer loop
vertex 8.3 19.0 8.3
vertex 6.75 19.0 3.25
vertex 6.75 19.0 6.75
endloop
endfacet
facet normal 0.0 1.0 0.0
outer loop
vertex 8.3 19.0 8.3
vertex 6.75 19.0 6.75
vertex 1.7 19.0 8.3
endloop
endfacet
facet normal 0.0 1.0 0.0
outer loop
vertex 10.0 19.0 16.5
vertex 8.3 19.0 8.3
vertex 8.3 19.0 11.0
endloop
endfacet
facet normal 0.0 1.0 0.0
outer loop
vertex 10.0 19.0 16.5
vertex 8.3 19.0 11.0
vertex 0.199999999999998 19.0 16.5
endloop
endfacet
facet normal -0.128440693907487 -0.991717191616927 0.0
outer loop
vertex 0.199999999999966 11.7046232898985 10.0
vertex -1.80000000000004 11.9636501475414 -0.5
vertex 0.199999999999966 11.7046232898985 -0.5
endloop
endfacet
facet normal -0.128440693907487 -0.991717191616927 0.0
outer loop
vertex -1.80000000000004 11.9636501475414 -0.5
vertex 0.199999999999966 11.7046232898985 10.0
vertex -1.80000000000004 11.9636501475414 10.0
endloop
endfacet
facet normal -0.128440693907485 0.991717191616927 0.0
outer loop
vertex -1.80000000000005 12.489805970016 10.0
vertex 0.199999999999969 12.7488328276589 -0.5
vertex -1.80000000000005 12.489805970016 -0.5
endloop
endfacet
facet normal -0.128440693907485 0.991717191616927 0.0
outer loop
vertex 0.199999999999969 12.7488328276589 -0.5
vertex -1.80000000000005 12.489805970016 10.0
vertex 0.199999999999969 12.7488328276589 10.0
endloop
endfacet
facet normal -0.0 -0.0 1.0
outer loop
vertex -1.80000000000001 0.2590268576429 10.0
vertex 0.200000000000002 1.04420953776041 10.0
vertex -1.80000000000002 0.785182680117516 10.0
endloop
endfacet
facet normal -0.0 -0.0 1.0
outer loop
vertex 0.200000000000002 1.04420953776041 10.0
vertex -1.80000000000001 0.2590268576429 10.0
vertex 0.199999999999998 -7.8520362726175e-015 10.0
endloop
endfacet
facet normal -0.128440693907486 0.991717191616927 -1.7882866945732e-032
outer loop
vertex -1.80000000000004 9.56365014754136 10.0
vertex 0.199999999999978 9.82267700518426 -0.5
vertex -1.80000000000004 9.56365014754136 -0.5
endloop
endfacet
facet normal -0.128440693907486 0.991717191616927 -1.7882866945732e-032
outer loop
vertex 0.199999999999978 9.82267700518426 -0.5
vertex -1.80000000000004 9.56365014754136 10.0
vertex 0.199999999999978 9.82267700518426 10.0
endloop
endfacet
facet normal -0.128440693907485 0.991717191616927 1.25839488926742e-018
outer loop
vertex -1.80000000000003 3.71133850259213 10.0
vertex 0.199999999999994 3.97036536023503 -0.5
vertex -1.80000000000003 3.71133850259213 -0.5
endloop
endfacet
facet normal -0.128440693907485 0.991717191616927 1.25839488926742e-018
outer loop
vertex 0.199999999999994 3.97036536023503 -0.5
vertex -1.80000000000003 3.71133850259213 10.0
vertex 0.199999999999994 3.97036536023503 10.0
endloop
endfacet
facet normal -0.128440693907487 -0.991717191616926 0.0
outer loop
vertex 0.199999999999975 8.77846746742385 10.0
vertex -1.80000000000003 9.03749432506675 -0.5
vertex 0.199999999999975 8.77846746742385 -0.5
endloop
endfacet
facet normal -0.128440693907487 -0.991717191616926 0.0
outer loop
vertex -1.80000000000003 9.03749432506675 -0.5
vertex 0.199999999999975 8.77846746742385 10.0
vertex -1.80000000000003 9.03749432506675 10.0
endloop
endfacet
facet normal -0.128440693907488 -0.991717191616926 -3.80353318401431e-016
outer loop
vertex 0.199999999999998 -7.8520362726175e-015 10.0
vertex -1.80000000000001 0.2590268576429 -0.5
vertex 0.2 0.0 -0.5
endloop
endfacet
facet normal -0.128440693907488 -0.991717191616926 -3.80353318401431e-016
outer loop
vertex -1.80000000000001 0.2590268576429 -0.5
vertex 0.199999999999998 -7.8520362726175e-015 10.0
vertex -1.80000000000001 0.2590268576429 10.0
endloop
endfacet
facet normal -0.0 -0.0 1.0
outer loop
vertex 1.7 6.0 8.3
vertex 3.5511112605664 10.1117714323462 8.3
vertex 1.7 19.0 8.3
endloop
endfacet
facet normal -0.0 -0.0 1.0
outer loop
vertex 3.5511112605664 10.1117714323462 8.3
vertex 1.7 6.0 8.3
vertex 3.70096189432334 9.75 8.3
endloop
endfacet
facet normal -0.0 -0.0 1.0
outer loop
vertex 3.70096189432334 9.75 8.3
vertex 1.7 6.0 8.3
vertex 3.93933982822018 9.43933982822018 8.3
endloop
endfacet
facet normal -0.0 -0.0 1.0
outer loop
vertex 3.93933982822018 9.43933982822018 8.3
vertex 1.7 6.0 8.3
vertex 8.3 6.0 8.3
endloop
endfacet
facet normal -0.0 -0.0 1.0
outer loop
vertex 1.7 19.0 8.3
vertex 3.5511112605664 10.1117714323462 8.3
vertex 3.5 10.5 8.3
endloop
endfacet
facet normal -0.0 -0.0 1.0
outer loop
vertex 3.93933982822018 9.43933982822018 8.3
vertex 8.3 6.0 8.3
vertex 4.25 9.20096189432334 8.3
endloop
endfacet
facet normal -0.0 -0.0 1.0
outer loop
vertex 4.25 9.20096189432334 8.3
vertex 8.3 6.0 8.3
vertex 4.61177143234622 9.0511112605664 8.3
endloop
endfacet
facet normal -0.0 -0.0 1.0
outer loop
vertex 4.61177143234622 9.0511112605664 8.3
vertex 8.3 6.0 8.3
vertex 5.0 9.0 8.3
endloop
endfacet
facet normal -0.0 -0.0 1.0
outer loop
vertex 5.0 9.0 8.3
vertex 8.3 6.0 8.3
vertex 5.38822856765378 9.0511112605664 8.3
endloop
endfacet
facet normal -0.0 -0.0 1.0
outer loop
vertex 5.38822856765378 9.0511112605664 8.3
vertex 8.3 6.0 8.3
vertex 5.75 9.20096189432334 8.3
endloop
endfacet
facet normal -0.0 -0.0 1.0
outer loop
vertex 5.75 9.20096189432334 8.3
vertex 8.3 6.0 8.3
vertex 6.06066017177982 9.43933982822018 8.3
endloop
endfacet
facet normal -0.0 -0.0 1.0
outer loop
vertex 6.06066017177982 9.43933982822018 8.3
vertex 8.3 6.0 8.3
vertex 6.29903810567666 9.75 8.3
endloop
endfacet
facet normal -0.0 -0.0 1.0
outer loop
vertex 6.29903810567666 9.75 8.3
vertex 8.3 6.0 8.3
vertex 6.4488887394336 10.1117714323462 8.3
endloop
endfacet
facet normal -0.0 -0.0 1.0
outer loop
vertex 6.4488887394336 10.1117714323462 8.3
vertex 8.3 6.0 8.3
vertex 6.5 10.5 8.3
endloop
endfacet
facet normal -0.0 -0.0 1.0
outer loop
vertex 1.7 19.0 8.3
vertex 3.70096189432334 11.25 8.3
vertex 8.3 19.0 8.3
endloop
endfacet
facet normal -0.0 -0.0 1.0
outer loop
vertex 3.70096189432334 11.25 8.3
vertex 1.7 19.0 8.3
vertex 3.5511112605664 10.8882285676538 8.3
endloop
endfacet
facet normal -0.0 -0.0 1.0
outer loop
vertex 3.5511112605664 10.8882285676538 8.3
vertex 1.7 19.0 8.3
vertex 3.5 10.5 8.3
endloop
endfacet
facet normal -0.0 -0.0 1.0
outer loop
vertex 8.3 19.0 8.3
vertex 3.70096189432334 11.25 8.3
vertex 3.93933982822018 11.5606601717798 8.3
endloop
endfacet
facet normal -0.0 -0.0 1.0
outer loop
vertex 8.3 19.0 8.3
vertex 3.93933982822018 11.5606601717798 8.3
vertex 4.25 11.7990381056767 8.3
endloop
endfacet
facet normal -0.0 -0.0 1.0
outer loop
vertex 8.3 19.0 8.3
vertex 4.25 11.7990381056767 8.3
vertex 4.61177143234622 11.9488887394336 8.3
endloop
endfacet
facet normal -0.0 -0.0 1.0
outer loop
vertex 8.3 19.0 8.3
vertex 4.61177143234622 11.9488887394336 8.3
vertex 5.0 12.0 8.3
endloop
endfacet
facet normal -0.0 -0.0 1.0
outer loop
vertex 8.3 19.0 8.3
vertex 5.0 12.0 8.3
vertex 5.38822856765378 11.9488887394336 8.3
endloop
endfacet
facet normal -0.0 -0.0 1.0
outer loop
vertex 8.3 19.0 8.3
vertex 5.38822856765378 11.9488887394336 8.3
vertex 5.75 11.7990381056767 8.3
endloop
endfacet
facet normal -0.0 -0.0 1.0
outer loop
vertex 8.3 19.0 8.3
vertex 5.75 11.7990381056767 8.3
vertex 6.06066017177982 11.5606601717798 8.3
endloop
endfacet
facet normal -0.0 -0.0 1.0
outer loop
vertex 8.3 19.0 8.3
vertex 6.06066017177982 11.5606601717798 8.3
vertex 6.20112791815372 11.3777001145006 8.30000001517222
endloop
endfacet
facet normal -0.0 -0.0 1.0
outer loop
vertex 8.3 19.0 8.3
vertex 6.20112791815372 11.3777001145006 8.30000001517222
vertex 6.29903810567666 11.25 8.3
endloop
endfacet
facet normal -0.0 -0.0 1.0
outer loop
vertex 8.3 19.0 8.3
vertex 6.29903810567666 11.25 8.3
vertex 6.4488887394336 10.8882285676538 8.3
endloop
endfacet
facet normal -0.0 -0.0 1.0
outer loop
vertex 8.3 19.0 8.3
vertex 6.4488887394336 10.8882285676538 8.3
vertex 6.5 10.5 8.3
endloop
endfacet
facet normal -0.0 -0.0 1.0
outer loop
vertex 8.3 19.0 8.3
vertex 6.5 10.5 8.3
vertex 8.3 6.0 8.3
endloop
endfacet
facet normal -0.0 -0.0 1.0
outer loop
vertex 3.25 -4.0 3.25
vertex 6.75 19.0 3.25
vertex 3.25 19.0 3.25
endloop
endfacet
facet normal -0.0 -0.0 1.0
outer loop
vertex 6.75 19.0 3.25
vertex 3.25 -4.0 3.25
vertex 6.75 -4.0 3.25
endloop
endfacet
facet normal 0.0 0.0 -1.0
outer loop
vertex 3.25 19.0 6.75
vertex 3.50000000093107 10.5000000006804 6.75
vertex 3.25 -4.0 6.75
endloop
endfacet
facet normal 0.0 0.0 -1.0
outer loop
vertex 3.50000000093107 10.5000000006804 6.75
vertex 3.25 19.0 6.75
vertex 3.55111126149747 10.8882285683341 6.75
endloop
endfacet
facet normal 0.0 0.0 -1.0
outer loop
vertex 3.55111126149747 10.8882285683341 6.75
vertex 3.25 19.0 6.75
vertex 6.75 19.0 6.75
endloop
endfacet
facet normal 0.0 0.0 -1.0
outer loop
vertex 3.55111126149747 10.8882285683341 6.75
vertex 6.75 19.0 6.75
vertex 3.70096189525441 11.2500000006804 6.75
endloop
endfacet
facet normal 0.0 0.0 -1.0
outer loop
vertex 3.70096189525441 11.2500000006804 6.75
vertex 6.75 19.0 6.75
vertex 3.93933982915125 11.5606601724602 6.75
endloop
endfacet
facet normal 0.0 0.0 -1.0
outer loop
vertex 3.93933982915125 11.5606601724602 6.75
vertex 6.75 19.0 6.75
vertex 4.25000000093107 11.799038106357 6.75
endloop
endfacet
facet normal 0.0 0.0 -1.0
outer loop
vertex 4.25000000093107 11.799038106357 6.75
vertex 6.75 19.0 6.75
vertex 4.61177143327729 11.948888740114 6.75
endloop
endfacet
facet normal 0.0 0.0 -1.0
outer loop
vertex 4.61177143327729 11.948888740114 6.75
vertex 6.75 19.0 6.75
vertex 5.00000000093107 12.0000000006804 6.75
endloop
endfacet
facet normal 0.0 0.0 -1.0
outer loop
vertex 5.00000000093107 12.0000000006804 6.75
vertex 6.75 19.0 6.75
vertex 5.38822856858485 11.948888740114 6.75
endloop
endfacet
facet normal 0.0 0.0 -1.0
outer loop
vertex 5.38822856858485 11.948888740114 6.75
vertex 6.75 19.0 6.75
vertex 5.75000000093107 11.799038106357 6.75
endloop
endfacet
facet normal 0.0 0.0 -1.0
outer loop
vertex 5.75000000093107 11.799038106357 6.75
vertex 6.75 19.0 6.75
vertex 6.06066017271089 11.5606601724602 6.75
endloop
endfacet
facet normal 0.0 0.0 -1.0
outer loop
vertex 6.06066017271089 11.5606601724602 6.75
vertex 6.75 19.0 6.75
vertex 6.20112791908307 11.3777001151796 6.75
endloop
endfacet
facet normal 0.0 0.0 -1.0
outer loop
vertex 6.20112791908307 11.3777001151796 6.75
vertex 6.75 19.0 6.75
vertex 6.29903810623584 11.2500000004287 6.75
endloop
endfacet
facet normal 0.0 0.0 -1.0
outer loop
vertex 6.29903810623584 11.2500000004287 6.75
vertex 6.75 19.0 6.75
vertex 6.31039042674737 11.2225930734444 6.75
endloop
endfacet
facet normal 0.0 0.0 -1.0
outer loop
vertex 6.31039042674737 11.2225930734444 6.75
vertex 6.75 19.0 6.75
vertex 6.44888874036467 10.8882285683341 6.75
endloop
endfacet
facet normal 0.0 0.0 -1.0
outer loop
vertex 6.44888874036467 10.8882285683341 6.75
vertex 6.75 19.0 6.75
vertex 6.50000000093107 10.5000000006804 6.75
endloop
endfacet
facet normal 0.0 0.0 -1.0
outer loop
vertex 3.25 -4.0 6.75
vertex 3.55111126149747 10.1117714330266 6.75
vertex 6.75 -4.0 6.75
endloop
endfacet
facet normal 0.0 0.0 -1.0
outer loop
vertex 3.55111126149747 10.1117714330266 6.75
vertex 3.25 -4.0 6.75
vertex 3.50000000093107 10.5000000006804 6.75
endloop
endfacet
facet normal 0.0 0.0 -1.0
outer loop
vertex 6.75 -4.0 6.75
vertex 3.55111126149747 10.1117714330266 6.75
vertex 3.68960957391573 9.77740692683023 6.75
endloop
endfacet
facet normal 0.0 0.0 -1.0
outer loop
vertex 6.75 -4.0 6.75
vertex 3.68960957391573 9.77740692683023 6.75
vertex 3.7009618949561 9.7500000002621 6.75
endloop
endfacet
facet normal 0.0 0.0 -1.0
outer loop
vertex 6.75 -4.0 6.75
vertex 3.7009618949561 9.7500000002621 6.75
vertex 3.93933982915125 9.43933982890054 6.75
endloop
endfacet
facet normal 0.0 0.0 -1.0
outer loop
vertex 6.75 -4.0 6.75
vertex 3.93933982915125 9.43933982890054 6.75
vertex 4.25000000093107 9.2009618950037 6.75
endloop
endfacet
facet normal 0.0 0.0 -1.0
outer loop
vertex 6.75 -4.0 6.75
vertex 4.25000000093107 9.2009618950037 6.75
vertex 4.61177143327729 9.05111126124676 6.75
endloop
endfacet
facet normal 0.0 0.0 -1.0
outer loop
vertex 6.75 -4.0 6.75
vertex 4.61177143327729 9.05111126124676 6.75
vertex 5.00000000093107 9.00000000068036 6.75
endloop
endfacet
facet normal 0.0 0.0 -1.0
outer loop
vertex 6.75 -4.0 6.75
vertex 5.00000000093107 9.00000000068036 6.75
vertex 5.38822856858485 9.05111126124676 6.75
endloop
endfacet
facet normal 0.0 0.0 -1.0
outer loop
vertex 6.75 -4.0 6.75
vertex 5.38822856858485 9.05111126124676 6.75
vertex 5.75000000093107 9.2009618950037 6.75
endloop
endfacet
facet normal 0.0 0.0 -1.0
outer loop
vertex 6.75 -4.0 6.75
vertex 5.75000000093107 9.2009618950037 6.75
vertex 6.06066017271089 9.43933982890054 6.75
endloop
endfacet
facet normal 0.0 0.0 -1.0
outer loop
vertex 6.75 -4.0 6.75
vertex 6.06066017271089 9.43933982890054 6.75
vertex 6.29903810660773 9.75000000068036 6.75
endloop
endfacet
facet normal 0.0 0.0 -1.0
outer loop
vertex 6.75 -4.0 6.75
vertex 6.29903810660773 9.75000000068036 6.75
vertex 6.44888874036467 10.1117714330266 6.75
endloop
endfacet
facet normal 0.0 0.0 -1.0
outer loop
vertex 6.75 -4.0 6.75
vertex 6.44888874036467 10.1117714330266 6.75
vertex 6.50000000093107 10.5000000006804 6.75
endloop
endfacet
facet normal 0.0 0.0 -1.0
outer loop
vertex 6.75 -4.0 6.75
vertex 6.50000000093107 10.5000000006804 6.75
vertex 6.75 19.0 6.75
endloop
endfacet
facet normal -1.0 0.0 0.0
outer loop
vertex 6.75 19.0 6.75
vertex 6.75 -4.0 3.25
vertex 6.75 -4.0 6.75
endloop
endfacet
facet normal -1.0 0.0 0.0
outer loop
vertex 6.75 -4.0 3.25
vertex 6.75 19.0 6.75
vertex 6.75 19.0 3.25
endloop
endfacet
facet normal 1.0 -0.0 -0.0
outer loop
vertex 3.25 19.0 3.25
vertex 3.25 -4.0 6.75
vertex 3.25 -4.0 3.25
endloop
endfacet
facet normal 1.0 -0.0 -0.0
outer loop
vertex 3.25 -4.0 6.75
vertex 3.25 19.0 3.25
vertex 3.25 19.0 6.75
endloop
endfacet
facet normal -0.793388533063895 -0.608715562149285 -7.46876561331468e-010
outer loop
vertex 6.20112791815372 11.3777001145006 8.30000001517222
vertex 6.29903810623584 11.2500000004287 6.75
vertex 6.29903810567666 11.25 8.3
endloop
endfacet
facet normal -0.814578686978134 -0.580053068883339 -7.02079851365834e-010
outer loop
vertex 6.29903810623584 11.2500000004287 6.75
vertex 6.20112791815372 11.3777001145006 8.30000001517222
vertex 6.20112791908307 11.3777001151796 6.75
endloop
endfacet
facet normal -0.771180529475845 -0.636616517974011 -7.42707149864262e-010
outer loop
vertex 6.06066017177982 11.5606601717798 8.3
vertex 6.20112791908307 11.3777001151796 6.75
vertex 6.20112791815372 11.3777001145006 8.30000001517222
endloop
endfacet
facet normal -0.793388533065693 -0.608715562146942 -7.46876561359465e-010
outer loop
vertex 6.20112791908307 11.3777001151796 6.75
vertex 6.06066017177982 11.5606601717798 8.3
vertex 6.06066017271089 11.5606601724602 6.75
endloop
endfacet
facet normal -0.923879532511287 0.38268343236509 -3.86988951139034e-010
outer loop
vertex 6.44888874036467 10.1117714330266 6.75
vertex 6.29903810660773 9.75000000068036 6.75
vertex 6.29903810567666 9.75 8.3
endloop
endfacet
facet normal -0.986208485211674 0.165507775335469 -5.19757058709793e-010
outer loop
vertex 6.44888874036467 10.1117714330266 6.75
vertex 6.29903810567666 9.75 8.3
vertex 6.4488887394336 10.1117714323462 8.3
endloop
endfacet
facet normal -0.995440810341123 -0.0953813037623603 -6.39818476371288e-010
outer loop
vertex 6.50000000093107 10.5000000006804 6.75
vertex 6.4488887394336 10.1117714323462 8.3
vertex 6.5 10.5 8.3
endloop
endfacet
facet normal -0.99144486137381 0.130526192220052 -5.38257461841342e-010
outer loop
vertex 6.50000000093107 10.5000000006804 6.75
vertex 6.44888874036467 10.1117714330266 6.75
vertex 6.4488887394336 10.1117714323462 8.3
endloop
endfacet
facet normal -0.99144486137381 -0.130526192220052 -6.52844760411412e-010
outer loop
vertex 6.44888874036467 10.8882285683341 6.75
vertex 6.50000000093107 10.5000000006804 6.75
vertex 6.5 10.5 8.3
endloop
endfacet
facet normal -0.93683548871304 -0.349770306183643 -7.07814425016267e-010
outer loop
vertex 6.44888874036467 10.8882285683341 6.75
vertex 6.5 10.5 8.3
vertex 6.4488887394336 10.8882285676538 8.3
endloop
endfacet
facet normal -0.923879531780738 -0.38268343412879 -7.1318505828494e-010
outer loop
vertex 6.32044533948177 11.1983183668284 6.9714285725937
vertex 6.44888874036467 10.8882285683341 6.75
vertex 6.4488887394336 10.8882285676538 8.3
endloop
endfacet
facet normal -0.93683548871304 -0.349770306183643 -7.07814425016267e-010
outer loop
vertex 6.44888874036467 10.8882285683341 6.75
vertex 6.32044533948177 11.1983183668284 6.9714285725937
vertex 6.31039042674737 11.2225930734444 6.75
endloop
endfacet
facet normal -0.86612098027369 -0.499834420113044 -5.68594393258176e-010
outer loop
vertex 6.29903810567666 11.25 8.3
vertex 6.32044533948177 11.1983183668284 6.9714285725937
vertex 6.4488887394336 10.8882285676538 8.3
endloop
endfacet
facet normal -0.923879532526844 -0.382683432327531 -3.77534376852576e-010
outer loop
vertex 6.32044533948177 11.1983183668284 6.9714285725937
vertex 6.29903810567666 11.25 8.3
vertex 6.29903810623584 11.2500000004287 6.75
endloop
endfacet
facet normal -0.923879536662871 -0.382683422342279 1.41830493097519e-009
outer loop
vertex 6.29903810623584 11.2500000004287 6.75
vertex 6.31039042674737 11.2225930734444 6.75
vertex 6.32044533948177 11.1983183668284 6.9714285725937
endloop
endfacet
facet normal -0.791899876072818 -0.60716519498678 -0.0651537586983311
outer loop
vertex 6.29903810623584 11.2500000004287 6.75
vertex 6.31039042674737 11.2225930734444 6.75
vertex 6.32044533948177 11.1983183668284 6.9714285725937
endloop
endfacet
facet normal -0.771180529475845 -0.636616517974011 -7.42707149864262e-010
outer loop
vertex 6.06066017177982 11.5606601717798 8.3
vertex 5.75000000093107 11.799038106357 6.75
vertex 6.06066017271089 11.5606601724602 6.75
endloop
endfacet
facet normal -0.580323037260387 -0.814386377848303 -7.06062749748323e-010
outer loop
vertex 5.75 11.7990381056767 8.3
vertex 5.75000000093107 11.799038106357 6.75
vertex 6.06066017177982 11.5606601717798 8.3
endloop
endfacet
facet normal -0.580323037260387 -0.814386377848303 -7.06062749748323e-010
outer loop
vertex 5.75 11.7990381056767 8.3
vertex 5.38822856858485 11.948888740114 6.75
vertex 5.75000000093107 11.799038106357 6.75
endloop
endfacet
facet normal -0.34977030461682 -0.936835489298018 -6.21320035346424e-010
outer loop
vertex 5.38822856765378 11.9488887394336 8.3
vertex 5.38822856858485 11.948888740114 6.75
vertex 5.75 11.7990381056767 8.3
endloop
endfacet
facet normal -0.34977030461682 -0.936835489298018 -6.21320035346424e-010
outer loop
vertex 5.38822856765378 11.9488887394336 8.3
vertex 5.00000000093107 12.0000000006804 6.75
vertex 5.38822856858485 11.948888740114 6.75
endloop
endfacet
facet normal -0.0953813037363255 -0.995440810343618 -4.94234776210565e-010
outer loop
vertex 5.0 12.0 8.3
vertex 5.00000000093107 12.0000000006804 6.75
vertex 5.38822856765378 11.9488887394336 8.3
endloop
endfacet
facet normal -0.0953813037363255 -0.995440810343618 -4.94234776210565e-010
outer loop
vertex 5.0 12.0 8.3
vertex 4.61177143327729 11.948888740114 6.75
vertex 5.00000000093107 12.0000000006804 6.75
endloop
endfacet
facet normal 0.165507775367897 -0.986208485206232 -3.33469019310591e-010
outer loop
vertex 4.61177143234622 11.9488887394336 8.3
vertex 4.61177143327729 11.948888740114 6.75
vertex 5.0 12.0 8.3
endloop
endfacet
facet normal 0.165507775367897 -0.986208485206232 -3.33469019310591e-010
outer loop
vertex 4.61177143234622 11.9488887394336 8.3
vertex 4.25000000093107 11.799038106357 6.75
vertex 4.61177143327729 11.948888740114 6.75
endloop
endfacet
facet normal 0.415117773093966 -0.909767681587726 -1.49977932808941e-010
outer loop
vertex 4.25 11.7990381056767 8.3
vertex 4.25000000093107 11.799038106357 6.75
vertex 4.61177143234622 11.9488887394336 8.3
endloop
endfacet
facet normal 0.415117773093966 -0.909767681587726 -1.49977932808941e-010
outer loop
vertex 4.25 11.7990381056767 8.3
vertex 3.93933982915125 11.5606601724602 6.75
vertex 4.25000000093107 11.799038106357 6.75
endloop
endfacet
facet normal 0.636438180596883 -0.771327713931329 4.3732776190702e-011
outer loop
vertex 3.93933982822018 11.5606601717798 8.3
vertex 3.93933982915125 11.5606601724602 6.75
vertex 4.25 11.7990381056767 8.3
endloop
endfacet
facet normal 0.771327713931562 -0.6364381805966 1.83968395371056e-010
outer loop
vertex 3.93933982915125 11.5606601724602 6.75
vertex 3.93933982822018 11.5606601717798 8.3
vertex 3.70096189525441 11.2500000006804 6.75
endloop
endfacet
facet normal 0.793353340291235 -0.608761429008721 2.09348393126361e-010
outer loop
vertex 3.93933982822018 11.5606601717798 8.3
vertex 3.70096189432334 11.25 8.3
vertex 3.70096189525441 11.2500000006804 6.75
endloop
endfacet
facet normal 0.909767681588528 -0.41511777309221 3.64275260190937e-010
outer loop
vertex 3.70096189525441 11.2500000006804 6.75
vertex 3.70096189432334 11.25 8.3
vertex 3.55111126149747 10.8882285683341 6.75
endloop
endfacet
facet normal 0.923879532511287 -0.38268343236509 3.86989036115359e-010
outer loop
vertex 3.70096189432334 11.25 8.3
vertex 3.5511112605664 10.8882285676538 8.3
vertex 3.55111126149747 10.8882285683341 6.75
endloop
endfacet
facet normal 0.986208485206789 -0.165507775364573 5.19757209030811e-010
outer loop
vertex 3.55111126149747 10.8882285683341 6.75
vertex 3.5511112605664 10.8882285676538 8.3
vertex 3.50000000093107 10.5000000006804 6.75
endloop
endfacet
facet normal 0.99144486137381 -0.130526192220052 5.38257574963232e-010
outer loop
vertex 3.5511112605664 10.8882285676538 8.3
vertex 3.5 10.5 8.3
vertex 3.50000000093107 10.5000000006804 6.75
endloop
endfacet
facet normal 0.995440810343181 0.0953813037408847 6.39818482949275e-010
outer loop
vertex 3.50000000093107 10.5000000006804 6.75
vertex 3.5 10.5 8.3
vertex 3.55111126149747 10.1117714330266 6.75
endloop
endfacet
facet normal 0.99144486137381 0.130526192220052 6.52844763239464e-010
outer loop
vertex 3.5 10.5 8.3
vertex 3.5511112605664 10.1117714323462 8.3
vertex 3.55111126149747 10.1117714330266 6.75
endloop
endfacet
facet normal 0.936835489874112 0.349770303073793 7.07700664048198e-010
outer loop
vertex 3.55111126149747 10.1117714330266 6.75
vertex 3.67955466128951 9.80168163334143 6.97142857142854
vertex 3.68960957391573 9.77740692683023 6.75
endloop
endfacet
facet normal 0.923879533240828 0.382683430603821 7.13053904364793e-010
outer loop
vertex 3.67955466128951 9.80168163334143 6.97142857142854
vertex 3.55111126149747 10.1117714330266 6.75
vertex 3.5511112605664 10.1117714323462 8.3
endloop
endfacet
facet normal 0.791662845179272 0.607464268064326 -0.0652464756728977
outer loop
vertex 3.67955466128951 9.80168163334143 6.97142857142854
vertex 3.7009618949561 9.7500000002621 6.75
vertex 3.68960957391573 9.77740692683023 6.75
endloop
endfacet
facet normal 0.909767681516811 0.415117773249383 3.87647356458283e-010
outer loop
vertex 3.70096189432334 9.75 8.3
vertex 3.67955466128951 9.80168163334143 6.97142857142854
vertex 3.5511112605664 10.1117714323462 8.3
endloop
endfacet
facet normal 0.923879532495587 0.382683432402993 3.79676692854123e-010
outer loop
vertex 3.67955466128951 9.80168163334143 6.97142857142854
vertex 3.70096189432334 9.75 8.3
vertex 3.7009618949561 9.7500000002621 6.75
endloop
endfacet
facet normal 0.923879531161049 0.382683435624852 4.41865288725392e-010
outer loop
vertex 3.67955466128951 9.80168163334143 6.97142857142854
vertex 3.7009618949561 9.7500000002621 6.75
vertex 3.68960957391573 9.77740692683023 6.75
endloop
endfacet
facet normal 0.81438637720865 0.580323038158033 4.22089601721355e-010
outer loop
vertex 3.7009618949561 9.7500000002621 6.75
vertex 3.70096189432334 9.75 8.3
vertex 3.93933982915125 9.43933982890054 6.75
endloop
endfacet
facet normal 0.793353340291236 0.60876142900872 7.43769616388555e-010
outer loop
vertex 3.70096189432334 9.75 8.3
vertex 3.93933982822018 9.43933982822018 8.3
vertex 3.93933982915125 9.43933982890054 6.75
endloop
endfacet
facet normal 0.771327713945162 0.636438180580118 7.42687567744198e-010
outer loop
vertex 3.93933982822018 9.43933982822018 8.3
vertex 4.25000000093107 9.2009618950037 6.75
vertex 3.93933982915125 9.43933982890054 6.75
endloop
endfacet
facet normal 0.580323037271734 0.814386377840217 7.06062469026522e-010
outer loop
vertex 4.25 9.20096189432334 8.3
vertex 4.25000000093107 9.2009618950037 6.75
vertex 3.93933982822018 9.43933982822018 8.3
endloop
endfacet
facet normal 0.580323037271734 0.814386377840217 7.06062469026522e-010
outer loop
vertex 4.25 9.20096189432334 8.3
vertex 4.61177143327729 9.05111126124676 6.75
vertex 4.25000000093107 9.2009618950037 6.75
endloop
endfacet
facet normal 0.349770304638481 0.936835489289931 6.21320035355885e-010
outer loop
vertex 4.61177143234622 9.0511112605664 8.3
vertex 4.61177143327729 9.05111126124676 6.75
vertex 4.25 9.20096189432334 8.3
endloop
endfacet
facet normal 0.349770304638481 0.936835489289931 6.21320035355885e-010
outer loop
vertex 4.61177143234622 9.0511112605664 8.3
vertex 5.00000000093107 9.00000000068036 6.75
vertex 4.61177143327729 9.05111126124676 6.75
endloop
endfacet
facet normal 0.0953813037669189 0.995440810340686 4.94235638226148e-010
outer loop
vertex 5.0 9.0 8.3
vertex 5.00000000093107 9.00000000068036 6.75
vertex 4.61177143234622 9.0511112605664 8.3
endloop
endfacet
facet normal 0.0953813037669189 0.995440810340686 4.94235638226148e-010
outer loop
vertex 5.0 9.0 8.3
vertex 5.38822856858485 9.05111126124676 6.75
vertex 5.00000000093107 9.00000000068036 6.75
endloop
endfacet
facet normal -0.165507775332145 0.986208485212231 3.33469988584231e-010
outer loop
vertex 5.38822856765378 9.0511112605664 8.3
vertex 5.38822856858485 9.05111126124676 6.75
vertex 5.0 9.0 8.3
endloop
endfacet
facet normal -0.165507775332145 0.986208485212231 3.33469988584231e-010
outer loop
vertex 5.38822856765378 9.0511112605664 8.3
vertex 5.75000000093107 9.2009618950037 6.75
vertex 5.38822856858485 9.05111126124676 6.75
endloop
endfacet
facet normal -0.415117773058213 0.90976768160404 1.49979024812526e-010
outer loop
vertex 5.75 9.20096189432334 8.3
vertex 5.75000000093107 9.2009618950037 6.75
vertex 5.38822856765378 9.0511112605664 8.3
endloop
endfacet
facet normal -0.415117773058213 0.90976768160404 1.49979024812526e-010
outer loop
vertex 5.75 9.20096189432334 8.3
vertex 6.06066017271089 9.43933982890054 6.75
vertex 5.75000000093107 9.2009618950037 6.75
endloop
endfacet
facet normal -0.636438180566284 0.771327713956577 -4.37336444961058e-011
outer loop
vertex 6.06066017177982 9.43933982822018 8.3
vertex 6.06066017271089 9.43933982890054 6.75
vertex 5.75 9.20096189432334 8.3
endloop
endfacet
facet normal -0.793353340291236 0.60876142900872 -2.09348548630251e-010
outer loop
vertex 6.29903810660773 9.75000000068036 6.75
vertex 6.06066017271089 9.43933982890054 6.75
vertex 6.06066017177982 9.43933982822018 8.3
endloop
endfacet
facet normal -0.909767681603237 0.415117773059972 -3.64275304756816e-010
outer loop
vertex 6.29903810660773 9.75000000068036 6.75
vertex 6.06066017177982 9.43933982822018 8.3
vertex 6.29903810567666 9.75 8.3
endloop
endfacet
facet normal -0.0 -0.0 1.0
outer loop
vertex -1.80000000000002 3.18518268011752 10.0
vertex 0.199999999999994 3.97036536023503 10.0
vertex -1.80000000000003 3.71133850259213 10.0
endloop
endfacet
facet normal -0.0 -0.0 1.0
outer loop
vertex 0.199999999999994 3.97036536023503 10.0
vertex -1.80000000000002 3.18518268011752 10.0
vertex 0.199999999999991 2.92615582247462 10.0
endloop
endfacet
facet normal -0.0 -0.0 1.0
outer loop
vertex -1.80000000000003 9.03749432506675 10.0
vertex 0.199999999999978 9.82267700518426 10.0
vertex -1.80000000000004 9.56365014754136 10.0
endloop
endfacet
facet normal -0.0 -0.0 1.0
outer loop
vertex 0.199999999999978 9.82267700518426 10.0
vertex -1.80000000000003 9.03749432506675 10.0
vertex 0.199999999999975 8.77846746742385 10.0
endloop
endfacet
facet normal -0.0 -0.0 1.0
outer loop
vertex -1.80000000000004 11.9636501475414 10.0
vertex 0.199999999999969 12.7488328276589 10.0
vertex -1.80000000000005 12.489805970016 10.0
endloop
endfacet
facet normal -0.0 -0.0 1.0
outer loop
vertex 0.199999999999969 12.7488328276589 10.0
vertex -1.80000000000004 11.9636501475414 10.0
vertex 0.199999999999966 11.7046232898985 10.0
endloop
endfacet
facet normal -0.0 -0.0 1.0
outer loop
vertex -1.80000000000003 6.11133850259213 10.0
vertex 0.199999999999986 6.89652118270965 10.0
vertex -1.80000000000003 6.63749432506675 10.0
endloop
endfacet
facet normal -0.0 -0.0 1.0
outer loop
vertex 0.199999999999986 6.89652118270965 10.0
vertex -1.80000000000003 6.11133850259213 10.0
vertex 0.199999999999983 5.85231164494923 10.0
endloop
endfacet
facet normal -0.128440693907486 0.991717191616927 0.0
outer loop
vertex -1.80000000000003 6.63749432506675 10.0
vertex 0.199999999999986 6.89652118270965 -0.5
vertex -1.80000000000003 6.63749432506675 -0.5
endloop
endfacet
facet normal -0.128440693907486 0.991717191616927 0.0
outer loop
vertex 0.199999999999986 6.89652118270965 -0.5
vertex -1.80000000000003 6.63749432506675 10.0
vertex 0.199999999999986 6.89652118270965 10.0
endloop
endfacet
facet normal -0.128440693907487 -0.991717191616927 0.0
outer loop
vertex 0.199999999999983 5.85231164494923 10.0
vertex -1.80000000000003 6.11133850259213 -0.5
vertex 0.199999999999983 5.85231164494923 -0.5
endloop
endfacet
facet normal -0.128440693907487 -0.991717191616927 0.0
outer loop
vertex -1.80000000000003 6.11133850259213 -0.5
vertex 0.199999999999983 5.85231164494923 10.0
vertex -1.80000000000003 6.11133850259213 10.0
endloop
endfacet
facet normal 0.0 0.0 -1.0
outer loop
vertex 0.199999999999969 12.7488328276589 -0.5
vertex -1.80000000000004 11.9636501475414 -0.5
vertex -1.80000000000005 12.489805970016 -0.5
endloop
endfacet
facet normal 0.0 0.0 -1.0
outer loop
vertex -1.80000000000004 11.9636501475414 -0.5
vertex 0.199999999999969 12.7488328276589 -0.5
vertex 0.199999999999966 11.7046232898985 -0.5
endloop
endfacet
facet normal 0.0 0.0 -1.0
outer loop
vertex 0.199999999999966 11.7046232898985 -0.5
vertex 0.199999999999969 12.7488328276589 -0.5
vertex 0.199999999999978 9.82267700518426 -0.5
endloop
endfacet
facet normal 0.0 0.0 -1.0
outer loop
vertex 0.199999999999978 9.82267700518426 -0.5
vertex 0.199999999999969 12.7488328276589 -0.5
vertex 0.2 19.0 -0.5
endloop
endfacet
facet normal 0.0 0.0 -1.0
outer loop
vertex 0.199999999999978 9.82267700518426 -0.5
vertex 0.2 19.0 -0.5
vertex 0.199999999999986 6.89652118270965 -0.5
endloop
endfacet
facet normal 0.0 0.0 -1.0
outer loop
vertex 0.199999999999986 6.89652118270965 -0.5
vertex 0.2 19.0 -0.5
vertex 0.199999999999994 3.97036536023503 -0.5
endloop
endfacet
facet normal 0.0 0.0 -1.0
outer loop
vertex 0.199999999999994 3.97036536023503 -0.5
vertex -1.80000000000002 3.18518268011752 -0.5
vertex -1.80000000000003 3.71133850259213 -0.5
endloop
endfacet
facet normal 0.0 0.0 -1.0
outer loop
vertex -1.80000000000002 3.18518268011752 -0.5
vertex 0.199999999999994 3.97036536023503 -0.5
vertex 0.199999999999991 2.92615582247462 -0.5
endloop
endfacet
facet normal 0.0 0.0 -1.0
outer loop
vertex 0.199999999999991 2.92615582247462 -0.5
vertex 0.199999999999994 3.97036536023503 -0.5
vertex 0.2 1.3 -0.5
endloop
endfacet
facet normal 0.0 0.0 -1.0
outer loop
vertex 0.2 1.3 -0.5
vertex 0.199999999999994 3.97036536023503 -0.5
vertex 0.2 19.0 -0.5
endloop
endfacet
facet normal 0.0 0.0 -1.0
outer loop
vertex 0.2 1.3 -0.5
vertex 0.2 19.0 -0.5
vertex 10.0 19.0 -0.5
endloop
endfacet
facet normal 0.0 0.0 -1.0
outer loop
vertex 0.2 1.3 -0.5
vertex 10.0 19.0 -0.5
vertex 0.200000000000002 1.04420953776041 -0.5
endloop
endfacet
facet normal 0.0 0.0 -1.0
outer loop
vertex 0.200000000000002 1.04420953776041 -0.5
vertex -1.80000000000001 0.2590268576429 -0.5
vertex -1.80000000000002 0.785182680117516 -0.5
endloop
endfacet
facet normal 0.0 0.0 -1.0
outer loop
vertex -1.80000000000001 0.2590268576429 -0.5
vertex 0.200000000000002 1.04420953776041 -0.5
vertex 0.2 0.0 -0.5
endloop
endfacet
facet normal 0.0 0.0 -1.0
outer loop
vertex 0.2 0.0 -0.5
vertex 0.200000000000002 1.04420953776041 -0.5
vertex 0.200000000000002 -4.0 -0.500000000000001
endloop
endfacet
facet normal 0.0 0.0 -1.0
outer loop
vertex 0.200000000000002 -4.0 -0.500000000000001
vertex 0.200000000000002 1.04420953776041 -0.5
vertex 10.0 -4.0 -0.500000000000001
endloop
endfacet
facet normal 0.0 0.0 -1.0
outer loop
vertex 10.0 -4.0 -0.500000000000001
vertex 0.200000000000002 1.04420953776041 -0.5
vertex 10.0 19.0 -0.5
endloop
endfacet
facet normal 0.0 0.0 -1.0
outer loop
vertex 0.199999999999986 6.89652118270965 -0.5
vertex -1.80000000000003 6.11133850259213 -0.5
vertex -1.80000000000003 6.63749432506675 -0.5
endloop
endfacet
facet normal 0.0 0.0 -1.0
outer loop
vertex -1.80000000000003 6.11133850259213 -0.5
vertex 0.199999999999986 6.89652118270965 -0.5
vertex 0.199999999999983 5.85231164494923 -0.5
endloop
endfacet
facet normal 0.0 0.0 -1.0
outer loop
vertex 0.199999999999983 5.85231164494923 -0.5
vertex 0.199999999999986 6.89652118270965 -0.5
vertex 0.199999999999994 3.97036536023503 -0.5
endloop
endfacet
facet normal 0.0 0.0 -1.0
outer loop
vertex 0.199999999999978 9.82267700518426 -0.5
vertex -1.80000000000003 9.03749432506675 -0.5
vertex -1.80000000000004 9.56365014754136 -0.5
endloop
endfacet
facet normal 0.0 0.0 -1.0
outer loop
vertex -1.80000000000003 9.03749432506675 -0.5
vertex 0.199999999999978 9.82267700518426 -0.5
vertex 0.199999999999975 8.77846746742385 -0.5
endloop
endfacet
facet normal 0.0 0.0 -1.0
outer loop
vertex 0.199999999999975 8.77846746742385 -0.5
vertex 0.199999999999978 9.82267700518426 -0.5
vertex 0.199999999999986 6.89652118270965 -0.5
endloop
endfacet
facet normal -1.0 -1.52630324699171e-015 1.10655902618248e-016
outer loop
vertex 0.2 -4.00000000000001 16.5
vertex 0.199999999999998 -7.8520362726175e-015 10.0
vertex 0.200000000000002 -4.0 -0.500000000000001
endloop
endfacet
facet normal -1.0 -1.52630324699171e-015 1.10655902618248e-016
outer loop
vertex 0.199999999999998 -7.8520362726175e-015 10.0
vertex 0.2 -4.00000000000001 16.5
vertex 0.199999999999998 19.0 16.5
endloop
endfacet
facet normal -1.0 -1.52630324699171e-015 1.10655902618248e-016
outer loop
vertex 0.199999999999998 -7.8520362726175e-015 10.0
vertex 0.199999999999998 19.0 16.5
vertex 0.200000000000002 1.04420953776041 10.0
endloop
endfacet
facet normal -1.0 -1.52630324699171e-015 1.10655902618248e-016
outer loop
vertex 0.200000000000002 1.04420953776041 10.0
vertex 0.199999999999998 19.0 16.5
vertex 0.199999999999991 2.92615582247462 10.0
endloop
endfacet
facet normal -1.0 -1.52630324699171e-015 1.10655902618248e-016
outer loop
vertex 0.200000000000002 1.04420953776041 10.0
vertex 0.199999999999991 2.92615582247462 10.0
vertex 0.200000000000002 1.04420953776041 -0.5
endloop
endfacet
facet normal -1.0 -1.52630324699171e-015 1.10655902618248e-016
outer loop
vertex 0.200000000000002 1.04420953776041 -0.5
vertex 0.199999999999991 2.92615582247462 10.0
vertex 0.2 1.3 -0.5
endloop
endfacet
facet normal -1.0 -1.52630324699171e-015 1.10655902618248e-016
outer loop
vertex 0.199999999999991 2.92615582247462 10.0
vertex 0.199999999999998 19.0 16.5
vertex 0.199999999999994 3.97036536023503 10.0
endloop
endfacet
facet normal -1.0 -1.52630324699171e-015 1.10655902618248e-016
outer loop
vertex 0.199999999999994 3.97036536023503 10.0
vertex 0.199999999999998 19.0 16.5
vertex 0.199999999999983 5.85231164494923 10.0
endloop
endfacet
facet normal -1.0 -1.52630324699171e-015 1.10655902618248e-016
outer loop
vertex 0.199999999999994 3.97036536023503 10.0
vertex 0.199999999999983 5.85231164494923 10.0
vertex 0.199999999999994 3.97036536023503 -0.5
endloop
endfacet
facet normal -1.0 -1.52630324699171e-015 1.10655902618248e-016
outer loop
vertex 0.199999999999983 5.85231164494923 10.0
vertex 0.199999999999998 19.0 16.5
vertex 0.199999999999986 6.89652118270965 10.0
endloop
endfacet
facet normal -1.0 -1.52630324699171e-015 1.10655902618248e-016
outer loop
vertex 0.199999999999986 6.89652118270965 10.0
vertex 0.199999999999998 19.0 16.5
vertex 0.199999999999975 8.77846746742385 10.0
endloop
endfacet
facet normal -1.0 -1.52630324699171e-015 1.10655902618248e-016
outer loop
vertex 0.199999999999986 6.89652118270965 10.0
vertex 0.199999999999975 8.77846746742385 10.0
vertex 0.199999999999986 6.89652118270965 -0.5
endloop
endfacet
facet normal -1.0 -1.52630324699171e-015 1.10655902618248e-016
outer loop
vertex 0.199999999999975 8.77846746742385 10.0
vertex 0.199999999999998 19.0 16.5
vertex 0.199999999999978 9.82267700518426 10.0
endloop
endfacet
facet normal -1.0 -1.52630324699171e-015 1.10655902618248e-016
outer loop
vertex 0.199999999999978 9.82267700518426 10.0
vertex 0.199999999999998 19.0 16.5
vertex 0.199999999999966 11.7046232898985 10.0
endloop
endfacet
facet normal -1.0 -1.52630324699171e-015 1.10655902618248e-016
outer loop
vertex 0.199999999999978 9.82267700518426 10.0
vertex 0.199999999999966 11.7046232898985 10.0
vertex 0.199999999999978 9.82267700518426 -0.5
endloop
endfacet
facet normal -1.0 -1.52630324699171e-015 1.10655902618248e-016
outer loop
vertex 0.199999999999966 11.7046232898985 10.0
vertex 0.199999999999998 19.0 16.5
vertex 0.199999999999969 12.7488328276589 10.0
endloop
endfacet
facet normal -1.0 -1.52630324699171e-015 1.10655902618248e-016
outer loop
vertex 0.199999999999969 12.7488328276589 10.0
vertex 0.199999999999998 19.0 16.5
vertex 0.199999999999969 12.7488328276589 -0.5
endloop
endfacet
facet normal -1.0 -1.52630324699171e-015 1.10655902618248e-016
outer loop
vertex 0.199999999999969 12.7488328276589 -0.5
vertex 0.199999999999998 19.0 16.5
vertex 0.2 19.0 -0.5
endloop
endfacet
facet normal -1.0 -1.52630324699171e-015 1.10655902618248e-016
outer loop
vertex 0.199999999999966 11.7046232898985 -0.5
vertex 0.199999999999978 9.82267700518426 -0.5
vertex 0.199999999999966 11.7046232898985 10.0
endloop
endfacet
facet normal -1.0 -1.52630324699171e-015 1.10655902618248e-016
outer loop
vertex 0.199999999999975 8.77846746742385 -0.5
vertex 0.199999999999986 6.89652118270965 -0.5
vertex 0.199999999999975 8.77846746742385 10.0
endloop
endfacet
facet normal -1.0 -1.52630324699171e-015 1.10655902618248e-016
outer loop
vertex 0.199999999999983 5.85231164494923 -0.5
vertex 0.199999999999994 3.97036536023503 -0.5
vertex 0.199999999999983 5.85231164494923 10.0
endloop
endfacet
facet normal -1.0 -1.52630324699171e-015 1.10655902618248e-016
outer loop
vertex 0.199999999999991 2.92615582247462 -0.5
vertex 0.2 1.3 -0.5
vertex 0.199999999999991 2.92615582247462 10.0
endloop
endfacet
facet normal -1.0 -1.52630324699171e-015 1.10655902618248e-016
outer loop
vertex 0.2 0.0 -0.5
vertex 0.200000000000002 -4.0 -0.500000000000001
vertex 0.199999999999998 -7.8520362726175e-015 10.0
endloop
endfacet
facet normal 5.17364489099579e-016 -1.0 -2.46778282853693e-016
outer loop
vertex 10.0 -4.0 -0.500000000000001
vertex 6.75 -4.0 3.25
vertex 0.200000000000002 -4.0 -0.500000000000001
endloop
endfacet
facet normal 5.17364489099579e-016 -1.0 -2.46778282853693e-016
outer loop
vertex 6.75 -4.0 3.25
vertex 10.0 -4.0 -0.500000000000001
vertex 10.0 -4.0 16.5
endloop
endfacet
facet normal 5.17364489099579e-016 -1.0 -2.46778282853693e-016
outer loop
vertex 6.75 -4.0 3.25
vertex 10.0 -4.0 16.5
vertex 6.75 -4.0 6.75
endloop
endfacet
facet normal 5.17364489099579e-016 -1.0 -2.46778282853693e-016
outer loop
vertex 6.75 -4.0 6.75
vertex 10.0 -4.0 16.5
vertex 3.25 -4.0 6.75
endloop
endfacet
facet normal 5.17364489099579e-016 -1.0 -2.46778282853693e-016
outer loop
vertex 0.200000000000002 -4.0 -0.500000000000001
vertex 3.25 -4.0 3.25
vertex 0.2 -4.00000000000001 16.5
endloop
endfacet
facet normal 5.17364489099579e-016 -1.0 -2.46778282853693e-016
outer loop
vertex 3.25 -4.0 3.25
vertex 0.200000000000002 -4.0 -0.500000000000001
vertex 6.75 -4.0 3.25
endloop
endfacet
facet normal 5.17364489099579e-016 -1.0 -2.46778282853693e-016
outer loop
vertex 0.2 -4.00000000000001 16.5
vertex 3.25 -4.0 3.25
vertex 3.25 -4.0 6.75
endloop
endfacet
facet normal 5.17364489099579e-016 -1.0 -2.46778282853693e-016
outer loop
vertex 0.2 -4.00000000000001 16.5
vertex 3.25 -4.0 6.75
vertex 10.0 -4.0 16.5
endloop
endfacet
endsolid vertical-gear
